G04 EAGLE Gerber RS-274X export*
G75*
%MOMM*%
%FSLAX34Y34*%
%LPD*%
%INSoldermask Top*%
%IPPOS*%
%AMOC8*
5,1,8,0,0,1.08239X$1,22.5*%
G01*
%ADD10C,1.703200*%
%ADD11R,1.397000X1.778000*%
%ADD12R,1.651000X1.270000*%
%ADD13R,1.703200X0.903200*%
%ADD14C,0.803200*%
%ADD15C,0.293481*%
%ADD16R,0.903200X1.603200*%
%ADD17R,1.103200X0.903200*%
%ADD18R,0.603200X1.553200*%
%ADD19R,1.303200X2.303200*%
%ADD20R,4.803200X1.203200*%
%ADD21R,3.603200X1.803200*%
%ADD22P,1.759533X8X202.500000*%
%ADD23R,1.524000X0.762000*%
%ADD24R,1.003200X0.803200*%
%ADD25R,1.603200X1.203200*%
%ADD26R,1.203200X1.603200*%
%ADD27R,0.558800X0.990600*%
%ADD28R,1.003200X1.003200*%
%ADD29R,0.903200X1.103200*%
%ADD30C,1.103200*%
%ADD31R,1.603200X1.403200*%
%ADD32P,2.144431X8X22.500000*%
%ADD33P,2.144431X8X112.500000*%
%ADD34R,0.503200X0.503200*%
%ADD35R,1.103200X0.503200*%
%ADD36R,0.503200X1.103200*%
%ADD37R,2.003200X2.003200*%
%ADD38C,0.959600*%


D10*
X302006Y196088D03*
X78232Y196596D03*
X301752Y-276860D03*
X167386Y-276606D03*
X301752Y-201168D03*
D11*
X212725Y-278130D03*
D12*
X221615Y-248920D03*
X271145Y-248920D03*
D11*
X280035Y-278130D03*
D13*
X120500Y112140D03*
X120500Y101140D03*
X120500Y90140D03*
X120500Y79140D03*
X120500Y68140D03*
X120500Y57140D03*
X120500Y46140D03*
X120500Y35140D03*
X260500Y35140D03*
X260500Y46140D03*
X260500Y57140D03*
X260500Y68140D03*
X260500Y79140D03*
X260500Y90140D03*
X260500Y101140D03*
X260500Y112140D03*
D14*
X168000Y104140D03*
X183000Y104140D03*
X198000Y104140D03*
X213000Y104140D03*
X168000Y92140D03*
X183000Y92140D03*
X198000Y92140D03*
X213000Y92140D03*
X168000Y80140D03*
X183000Y80140D03*
X198000Y80140D03*
X213000Y80140D03*
X168000Y68140D03*
X183000Y68140D03*
X198000Y68140D03*
X213000Y68140D03*
X168000Y56140D03*
X183000Y56140D03*
X198000Y56140D03*
X213000Y56140D03*
X168000Y44140D03*
X183000Y44140D03*
X198000Y44140D03*
X213000Y44140D03*
D15*
X240677Y-95189D02*
X240677Y-100187D01*
X240677Y-95189D02*
X251875Y-95189D01*
X251875Y-100187D01*
X240677Y-100187D01*
X240677Y-97399D02*
X251875Y-97399D01*
X265777Y-114189D02*
X265777Y-119187D01*
X265777Y-114189D02*
X276975Y-114189D01*
X276975Y-119187D01*
X265777Y-119187D01*
X265777Y-116399D02*
X276975Y-116399D01*
X240677Y-109687D02*
X240677Y-104689D01*
X251875Y-104689D01*
X251875Y-109687D01*
X240677Y-109687D01*
X240677Y-106899D02*
X251875Y-106899D01*
X240677Y-114189D02*
X240677Y-119187D01*
X240677Y-114189D02*
X251875Y-114189D01*
X251875Y-119187D01*
X240677Y-119187D01*
X240677Y-116399D02*
X251875Y-116399D01*
X265777Y-100187D02*
X265777Y-95189D01*
X276975Y-95189D01*
X276975Y-100187D01*
X265777Y-100187D01*
X265777Y-97399D02*
X276975Y-97399D01*
D16*
X238134Y7366D03*
X255134Y7366D03*
D17*
X220980Y-1928D03*
X220980Y11072D03*
X265938Y-2182D03*
X265938Y10818D03*
D18*
X233380Y-249164D03*
X239880Y-249164D03*
X246380Y-249164D03*
X252880Y-249164D03*
X259380Y-249164D03*
D19*
X229880Y-275914D03*
X262880Y-275914D03*
D20*
X142156Y-251554D03*
X142156Y-231554D03*
D21*
X90156Y-275554D03*
X90156Y-207554D03*
D22*
X277876Y-36576D03*
X277876Y-61976D03*
X252476Y-36576D03*
X252476Y-61976D03*
X227076Y-36576D03*
X227076Y-61976D03*
X201676Y-36576D03*
X201676Y-61976D03*
X176276Y-36576D03*
X176276Y-61976D03*
X150876Y-36576D03*
X150876Y-61976D03*
X125476Y-36576D03*
X125476Y-61976D03*
X100076Y-36576D03*
X100076Y-61976D03*
D17*
X288544Y-112164D03*
X288544Y-99164D03*
X227838Y-119276D03*
X227838Y-106276D03*
D23*
X152908Y-136144D03*
X152908Y-145542D03*
X152908Y-154940D03*
X180340Y-154940D03*
X180340Y-136144D03*
D24*
X209096Y-106172D03*
X184096Y-106172D03*
D25*
X191594Y-204978D03*
X169594Y-214478D03*
X169594Y-195478D03*
D26*
X161290Y-95426D03*
X170790Y-117426D03*
X151790Y-117426D03*
D27*
X198478Y-188468D03*
X204978Y-188468D03*
X211478Y-188468D03*
X211478Y-167132D03*
X204978Y-167132D03*
X198478Y-167132D03*
D28*
X172092Y-170434D03*
X157092Y-170434D03*
X299974Y-112148D03*
X299974Y-97148D03*
D29*
X179982Y-181610D03*
X166982Y-181610D03*
X300378Y-84836D03*
X287378Y-84836D03*
D17*
X206502Y-216558D03*
X206502Y-203558D03*
X223520Y-203812D03*
X223520Y-216812D03*
X198628Y-132946D03*
X198628Y-145946D03*
X212852Y-146454D03*
X212852Y-133454D03*
D30*
X99568Y-113066D03*
D31*
X122068Y-172066D03*
X77068Y-147066D03*
X122068Y-122066D03*
D30*
X99568Y-181066D03*
D32*
X302260Y175514D03*
X302260Y150114D03*
X302260Y124714D03*
X302260Y99314D03*
X302260Y73914D03*
X302260Y48514D03*
X302260Y23114D03*
X302260Y-2286D03*
X78232Y175133D03*
X78232Y149733D03*
X78232Y124333D03*
X78232Y98933D03*
X78232Y73533D03*
X78232Y48133D03*
X78232Y22733D03*
X78232Y-2667D03*
D33*
X102870Y197866D03*
X128270Y197866D03*
X153670Y197866D03*
X179070Y197866D03*
X204470Y197866D03*
X229870Y197866D03*
X255270Y197866D03*
X280670Y197866D03*
D29*
X256898Y-83820D03*
X269898Y-83820D03*
D17*
X133604Y-144376D03*
X133604Y-157376D03*
D29*
X210970Y-118110D03*
X197970Y-118110D03*
D34*
X268424Y-148028D03*
D35*
X265424Y-153028D03*
X265424Y-158028D03*
X265424Y-163028D03*
X265424Y-168028D03*
D34*
X268424Y-173028D03*
D36*
X273424Y-176028D03*
X278424Y-176028D03*
X283424Y-176028D03*
X288424Y-176028D03*
D34*
X293424Y-173028D03*
D35*
X296424Y-168028D03*
X296424Y-163028D03*
X296424Y-158028D03*
X296424Y-153028D03*
D34*
X293424Y-148028D03*
D36*
X288424Y-145028D03*
X283424Y-145028D03*
X278424Y-145028D03*
X273424Y-145028D03*
D37*
X280924Y-160528D03*
D17*
X252222Y-209446D03*
X252222Y-196446D03*
X264668Y-209446D03*
X264668Y-196446D03*
D29*
X235562Y-176784D03*
X248562Y-176784D03*
D38*
X221742Y38248D03*
X276352Y42926D03*
X79248Y-101600D03*
X80264Y-184150D03*
X90932Y-240792D03*
X136144Y-275844D03*
X177038Y-246126D03*
X278130Y-228854D03*
X231648Y-87630D03*
X172212Y11938D03*
X159512Y13716D03*
X147066Y15748D03*
X147066Y27178D03*
X134366Y508D03*
X190500Y254D03*
X102108Y-8763D03*
X275844Y-2032D03*
X226568Y-189484D03*
X200406Y-227584D03*
X229616Y46990D03*
X78105Y-17526D03*
X208788Y121666D03*
X175514Y109982D03*
X260096Y124206D03*
X189484Y-276352D03*
X100076Y-148336D03*
X307340Y-184150D03*
X300228Y-250698D03*
X181356Y-125730D03*
X105156Y-254508D03*
X245618Y46482D03*
X301498Y-52070D03*
X104648Y-227584D03*
X242570Y-140208D03*
X300990Y-145034D03*
X135636Y97790D03*
X143764Y105156D03*
X151638Y98298D03*
X153162Y107696D03*
X175514Y97282D03*
X190754Y97282D03*
X279908Y28448D03*
X307693Y-17907D03*
X307799Y-132129D03*
X276352Y-129540D03*
X280187Y18313D03*
X304645Y-26543D03*
X300052Y-123620D03*
X287274Y-131508D03*
X240718Y-231140D03*
X235140Y-164084D03*
X251206Y-231902D03*
X245618Y-157734D03*
X181610Y-231140D03*
X214884Y-231394D03*
X211128Y-95758D03*
X239268Y113030D03*
X248412Y122936D03*
X160528Y125928D03*
X230632Y105156D03*
X177292Y122654D03*
X222504Y118364D03*
X189992Y114808D03*
M02*
