G04 EAGLE Gerber RS-274X export*
G75*
%MOMM*%
%FSLAX34Y34*%
%LPD*%
%INBottom Copper*%
%IPPOS*%
%AMOC8*
5,1,8,0,0,1.08239X$1,22.5*%
G01*
%ADD10R,1.508000X1.508000*%
%ADD11C,1.508000*%
%ADD12P,1.814519X8X22.500000*%
%ADD13P,1.814519X8X202.500000*%
%ADD14P,1.649562X8X112.500000*%
%ADD15C,1.158000*%
%ADD16R,1.218000X1.218000*%
%ADD17C,1.218000*%
%ADD18C,0.254000*%
%ADD19C,1.270000*%
%ADD20C,1.016000*%
%ADD21C,0.203200*%
%ADD22C,0.756400*%

G36*
X585236Y115574D02*
X585236Y115574D01*
X585255Y115572D01*
X585357Y115594D01*
X585459Y115610D01*
X585476Y115620D01*
X585496Y115624D01*
X585585Y115677D01*
X585676Y115726D01*
X585690Y115740D01*
X585707Y115750D01*
X585774Y115829D01*
X585846Y115904D01*
X585854Y115922D01*
X585867Y115937D01*
X585906Y116033D01*
X585949Y116127D01*
X585951Y116147D01*
X585959Y116165D01*
X585977Y116332D01*
X585977Y246380D01*
X585974Y246400D01*
X585976Y246419D01*
X585954Y246521D01*
X585938Y246623D01*
X585928Y246640D01*
X585924Y246660D01*
X585871Y246749D01*
X585822Y246840D01*
X585808Y246854D01*
X585798Y246871D01*
X585719Y246938D01*
X585644Y247010D01*
X585626Y247018D01*
X585611Y247031D01*
X585515Y247070D01*
X585421Y247113D01*
X585401Y247115D01*
X585383Y247123D01*
X585216Y247141D01*
X327152Y247141D01*
X327132Y247138D01*
X327113Y247140D01*
X327011Y247118D01*
X326909Y247102D01*
X326892Y247092D01*
X326872Y247088D01*
X326783Y247035D01*
X326692Y246986D01*
X326678Y246972D01*
X326661Y246962D01*
X326594Y246883D01*
X326523Y246808D01*
X326514Y246790D01*
X326501Y246775D01*
X326462Y246679D01*
X326419Y246585D01*
X326417Y246565D01*
X326409Y246547D01*
X326391Y246380D01*
X326391Y194564D01*
X326394Y194544D01*
X326392Y194525D01*
X326414Y194423D01*
X326431Y194321D01*
X326440Y194304D01*
X326444Y194284D01*
X326497Y194195D01*
X326546Y194104D01*
X326560Y194090D01*
X326570Y194073D01*
X326649Y194006D01*
X326724Y193934D01*
X326742Y193926D01*
X326757Y193913D01*
X326853Y193874D01*
X326947Y193831D01*
X326967Y193829D01*
X326985Y193821D01*
X327152Y193803D01*
X342900Y193803D01*
X342920Y193806D01*
X342939Y193804D01*
X343041Y193826D01*
X343143Y193842D01*
X343160Y193852D01*
X343180Y193856D01*
X343269Y193909D01*
X343360Y193958D01*
X343374Y193972D01*
X343391Y193982D01*
X343458Y194061D01*
X343530Y194136D01*
X343538Y194154D01*
X343551Y194169D01*
X343590Y194265D01*
X343633Y194359D01*
X343635Y194379D01*
X343643Y194397D01*
X343661Y194564D01*
X343661Y205114D01*
X345372Y206826D01*
X345373Y206826D01*
X364831Y226284D01*
X364899Y226379D01*
X364969Y226473D01*
X364971Y226479D01*
X364974Y226484D01*
X365009Y226595D01*
X365045Y226707D01*
X365045Y226713D01*
X365047Y226719D01*
X365044Y226836D01*
X365043Y226953D01*
X365041Y226960D01*
X365040Y226965D01*
X365034Y226982D01*
X364996Y227114D01*
X364693Y227844D01*
X364693Y230472D01*
X365699Y232899D01*
X366632Y233833D01*
X366685Y233907D01*
X366745Y233976D01*
X366757Y234006D01*
X366776Y234033D01*
X366803Y234120D01*
X366837Y234204D01*
X366841Y234245D01*
X366848Y234268D01*
X366847Y234300D01*
X366855Y234371D01*
X366855Y235583D01*
X368235Y238915D01*
X370785Y241465D01*
X374117Y242845D01*
X377723Y242845D01*
X381055Y241465D01*
X383605Y238915D01*
X384985Y235583D01*
X384985Y231977D01*
X383605Y228645D01*
X381055Y226095D01*
X377723Y224715D01*
X376511Y224715D01*
X376421Y224701D01*
X376330Y224693D01*
X376300Y224681D01*
X376268Y224676D01*
X376188Y224633D01*
X376104Y224597D01*
X376072Y224571D01*
X376051Y224560D01*
X376029Y224537D01*
X375973Y224492D01*
X375039Y223559D01*
X372612Y222553D01*
X369984Y222553D01*
X369254Y222856D01*
X369189Y222871D01*
X369146Y222889D01*
X369093Y222894D01*
X369027Y222911D01*
X369020Y222911D01*
X369014Y222912D01*
X368960Y222907D01*
X368955Y222907D01*
X368949Y222906D01*
X368898Y222901D01*
X368781Y222892D01*
X368776Y222890D01*
X368769Y222889D01*
X368725Y222869D01*
X368713Y222867D01*
X368672Y222846D01*
X368661Y222841D01*
X368555Y222796D01*
X368549Y222791D01*
X368545Y222789D01*
X368531Y222776D01*
X368511Y222760D01*
X368495Y222752D01*
X368479Y222735D01*
X368424Y222691D01*
X348966Y203233D01*
X348913Y203159D01*
X348853Y203089D01*
X348841Y203059D01*
X348822Y203033D01*
X348795Y202946D01*
X348761Y202861D01*
X348757Y202820D01*
X348750Y202798D01*
X348751Y202766D01*
X348743Y202694D01*
X348743Y192735D01*
X348757Y192645D01*
X348765Y192554D01*
X348777Y192524D01*
X348782Y192492D01*
X348825Y192412D01*
X348861Y192328D01*
X348887Y192296D01*
X348898Y192275D01*
X348921Y192253D01*
X348966Y192197D01*
X348997Y192166D01*
X348997Y189850D01*
X348966Y189819D01*
X348913Y189745D01*
X348853Y189676D01*
X348841Y189646D01*
X348822Y189620D01*
X348795Y189533D01*
X348761Y189448D01*
X348757Y189407D01*
X348750Y189385D01*
X348751Y189352D01*
X348743Y189281D01*
X348743Y174245D01*
X348762Y174130D01*
X348779Y174014D01*
X348781Y174009D01*
X348782Y174002D01*
X348838Y173898D01*
X348890Y173795D01*
X348895Y173791D01*
X348898Y173785D01*
X348983Y173704D01*
X349066Y173623D01*
X349072Y173619D01*
X349076Y173616D01*
X349093Y173608D01*
X349213Y173542D01*
X349943Y173239D01*
X351801Y171381D01*
X352807Y168954D01*
X352807Y166725D01*
X352821Y166635D01*
X352829Y166544D01*
X352841Y166514D01*
X352846Y166482D01*
X352889Y166401D01*
X352925Y166318D01*
X352951Y166285D01*
X352962Y166265D01*
X352985Y166243D01*
X353030Y166187D01*
X356109Y163108D01*
X356109Y155905D01*
X356111Y155890D01*
X356110Y155878D01*
X356120Y155828D01*
X356122Y155762D01*
X356140Y155713D01*
X356148Y155662D01*
X356182Y155599D01*
X356207Y155531D01*
X356239Y155491D01*
X356264Y155445D01*
X356316Y155395D01*
X356360Y155339D01*
X356404Y155311D01*
X356442Y155275D01*
X356507Y155245D01*
X356567Y155206D01*
X356618Y155194D01*
X356665Y155172D01*
X356736Y155164D01*
X356806Y155146D01*
X356858Y155150D01*
X356909Y155145D01*
X356980Y155160D01*
X357051Y155165D01*
X357099Y155186D01*
X357150Y155197D01*
X357211Y155234D01*
X357277Y155262D01*
X357330Y155304D01*
X357342Y155311D01*
X357345Y155314D01*
X357361Y155323D01*
X357376Y155341D01*
X357408Y155367D01*
X370235Y168194D01*
X371275Y169234D01*
X371287Y169250D01*
X371302Y169262D01*
X371358Y169349D01*
X371419Y169433D01*
X371425Y169452D01*
X371435Y169469D01*
X371461Y169570D01*
X371491Y169668D01*
X371491Y169688D01*
X371496Y169708D01*
X371488Y169811D01*
X371485Y169914D01*
X371478Y169933D01*
X371476Y169953D01*
X371436Y170048D01*
X371400Y170145D01*
X371388Y170161D01*
X371380Y170179D01*
X371275Y170310D01*
X370321Y171265D01*
X369500Y173245D01*
X369439Y173345D01*
X369379Y173445D01*
X369374Y173449D01*
X369371Y173454D01*
X369281Y173529D01*
X369192Y173605D01*
X369186Y173607D01*
X369181Y173611D01*
X369073Y173653D01*
X368964Y173697D01*
X368956Y173698D01*
X368952Y173699D01*
X368933Y173700D01*
X368797Y173715D01*
X367748Y173715D01*
X366855Y174608D01*
X366855Y190952D01*
X367748Y191845D01*
X384092Y191845D01*
X384985Y190952D01*
X384985Y174608D01*
X384092Y173715D01*
X383043Y173715D01*
X382928Y173696D01*
X382812Y173679D01*
X382806Y173677D01*
X382800Y173676D01*
X382698Y173621D01*
X382593Y173568D01*
X382588Y173563D01*
X382583Y173560D01*
X382503Y173476D01*
X382420Y173392D01*
X382417Y173386D01*
X382413Y173382D01*
X382406Y173365D01*
X382340Y173245D01*
X381485Y171183D01*
X381465Y171154D01*
X381443Y171085D01*
X381413Y171020D01*
X381407Y170969D01*
X381392Y170919D01*
X381394Y170847D01*
X381386Y170776D01*
X381397Y170725D01*
X381398Y170673D01*
X381423Y170606D01*
X381438Y170535D01*
X381465Y170491D01*
X381482Y170442D01*
X381527Y170386D01*
X381564Y170324D01*
X381604Y170290D01*
X381636Y170250D01*
X381696Y170211D01*
X381751Y170164D01*
X381799Y170145D01*
X381843Y170117D01*
X381913Y170099D01*
X381979Y170072D01*
X382050Y170064D01*
X382081Y170057D01*
X382105Y170058D01*
X382146Y170054D01*
X383464Y170054D01*
X383554Y170068D01*
X383645Y170076D01*
X383675Y170088D01*
X383707Y170093D01*
X383787Y170136D01*
X383871Y170172D01*
X383903Y170198D01*
X383924Y170209D01*
X383946Y170232D01*
X384002Y170277D01*
X401940Y188215D01*
X530964Y188215D01*
X531079Y188234D01*
X531195Y188251D01*
X531201Y188253D01*
X531207Y188254D01*
X531309Y188309D01*
X531414Y188362D01*
X531419Y188367D01*
X531424Y188370D01*
X531504Y188454D01*
X531586Y188538D01*
X531590Y188544D01*
X531594Y188548D01*
X531601Y188565D01*
X531667Y188685D01*
X531865Y189161D01*
X533723Y191019D01*
X536150Y192025D01*
X544774Y192025D01*
X545068Y191903D01*
X545132Y191888D01*
X545193Y191863D01*
X545276Y191854D01*
X545308Y191847D01*
X545327Y191848D01*
X545360Y191845D01*
X554272Y191845D01*
X555165Y190952D01*
X555165Y174608D01*
X554272Y173715D01*
X537928Y173715D01*
X537035Y174608D01*
X537035Y178054D01*
X537032Y178074D01*
X537034Y178093D01*
X537012Y178195D01*
X536996Y178297D01*
X536986Y178314D01*
X536982Y178334D01*
X536929Y178423D01*
X536880Y178514D01*
X536866Y178528D01*
X536856Y178545D01*
X536777Y178612D01*
X536702Y178684D01*
X536684Y178692D01*
X536669Y178705D01*
X536573Y178744D01*
X536479Y178787D01*
X536459Y178789D01*
X536441Y178797D01*
X536274Y178815D01*
X536150Y178815D01*
X533723Y179821D01*
X531865Y181679D01*
X531667Y182155D01*
X531606Y182255D01*
X531546Y182355D01*
X531541Y182359D01*
X531538Y182364D01*
X531448Y182439D01*
X531359Y182515D01*
X531353Y182517D01*
X531348Y182521D01*
X531240Y182563D01*
X531131Y182607D01*
X531123Y182608D01*
X531119Y182609D01*
X531100Y182610D01*
X530964Y182625D01*
X404571Y182625D01*
X404481Y182611D01*
X404390Y182603D01*
X404360Y182591D01*
X404328Y182586D01*
X404248Y182543D01*
X404164Y182507D01*
X404132Y182481D01*
X404111Y182470D01*
X404089Y182447D01*
X404033Y182402D01*
X392857Y171226D01*
X392815Y171168D01*
X392765Y171116D01*
X392743Y171069D01*
X392713Y171027D01*
X392692Y170958D01*
X392662Y170893D01*
X392656Y170841D01*
X392641Y170791D01*
X392643Y170720D01*
X392635Y170649D01*
X392646Y170598D01*
X392647Y170546D01*
X392672Y170478D01*
X392687Y170408D01*
X392714Y170363D01*
X392732Y170315D01*
X392776Y170259D01*
X392813Y170197D01*
X392853Y170163D01*
X392885Y170123D01*
X392946Y170084D01*
X393000Y170037D01*
X393048Y170018D01*
X393092Y169990D01*
X393162Y169972D01*
X393228Y169945D01*
X393300Y169937D01*
X393331Y169929D01*
X393354Y169931D01*
X393395Y169927D01*
X395479Y169927D01*
X395479Y160527D01*
X386079Y160527D01*
X386079Y163703D01*
X386076Y163723D01*
X386078Y163742D01*
X386056Y163844D01*
X386040Y163946D01*
X386030Y163963D01*
X386026Y163983D01*
X385973Y164072D01*
X385924Y164163D01*
X385910Y164177D01*
X385900Y164194D01*
X385821Y164261D01*
X385746Y164333D01*
X385728Y164341D01*
X385713Y164354D01*
X385617Y164393D01*
X385523Y164436D01*
X385503Y164438D01*
X385485Y164446D01*
X385318Y164464D01*
X374726Y164464D01*
X374636Y164450D01*
X374545Y164442D01*
X374515Y164430D01*
X374483Y164425D01*
X374403Y164382D01*
X374319Y164346D01*
X374287Y164320D01*
X374266Y164309D01*
X374244Y164286D01*
X374188Y164241D01*
X348122Y138175D01*
X331328Y138175D01*
X329468Y140035D01*
X327690Y141813D01*
X327632Y141855D01*
X327580Y141905D01*
X327533Y141927D01*
X327491Y141957D01*
X327422Y141978D01*
X327357Y142008D01*
X327305Y142014D01*
X327255Y142029D01*
X327184Y142027D01*
X327113Y142035D01*
X327062Y142024D01*
X327010Y142023D01*
X326942Y141998D01*
X326872Y141983D01*
X326828Y141956D01*
X326779Y141938D01*
X326723Y141894D01*
X326661Y141857D01*
X326627Y141817D01*
X326587Y141785D01*
X326548Y141724D01*
X326501Y141670D01*
X326482Y141622D01*
X326454Y141578D01*
X326436Y141508D01*
X326409Y141442D01*
X326401Y141370D01*
X326393Y141339D01*
X326395Y141316D01*
X326391Y141275D01*
X326391Y116332D01*
X326394Y116312D01*
X326392Y116293D01*
X326414Y116191D01*
X326431Y116089D01*
X326440Y116072D01*
X326444Y116052D01*
X326497Y115963D01*
X326546Y115872D01*
X326560Y115858D01*
X326570Y115841D01*
X326649Y115774D01*
X326724Y115702D01*
X326742Y115694D01*
X326757Y115681D01*
X326853Y115642D01*
X326947Y115599D01*
X326967Y115597D01*
X326985Y115589D01*
X327152Y115571D01*
X585216Y115571D01*
X585236Y115574D01*
G37*
%LPC*%
G36*
X528026Y123189D02*
X528026Y123189D01*
X526217Y124998D01*
X526143Y125051D01*
X526074Y125111D01*
X526044Y125123D01*
X526018Y125142D01*
X525931Y125169D01*
X525846Y125203D01*
X525805Y125207D01*
X525783Y125214D01*
X525756Y125214D01*
X522843Y126420D01*
X520628Y128635D01*
X519737Y130787D01*
X519702Y130843D01*
X519677Y130903D01*
X519625Y130968D01*
X519607Y130996D01*
X519592Y131008D01*
X519572Y131034D01*
X514177Y136428D01*
X512317Y138288D01*
X512317Y147827D01*
X512298Y147942D01*
X512281Y148058D01*
X512279Y148064D01*
X512278Y148070D01*
X512223Y148173D01*
X512170Y148278D01*
X512165Y148282D01*
X512162Y148288D01*
X512078Y148367D01*
X511994Y148450D01*
X511988Y148453D01*
X511984Y148457D01*
X511967Y148465D01*
X511847Y148531D01*
X510651Y149026D01*
X508436Y151241D01*
X507293Y154001D01*
X507259Y154056D01*
X507233Y154117D01*
X507181Y154182D01*
X507164Y154210D01*
X507149Y154222D01*
X507128Y154248D01*
X505205Y156170D01*
X505205Y164378D01*
X511008Y170181D01*
X519216Y170181D01*
X525019Y164378D01*
X525019Y156170D01*
X523096Y154248D01*
X523058Y154194D01*
X523012Y154148D01*
X522972Y154075D01*
X522952Y154048D01*
X522947Y154029D01*
X522931Y154001D01*
X521788Y151241D01*
X519573Y149026D01*
X518377Y148531D01*
X518277Y148469D01*
X518177Y148409D01*
X518173Y148404D01*
X518168Y148401D01*
X518092Y148310D01*
X518017Y148222D01*
X518015Y148216D01*
X518011Y148212D01*
X517969Y148103D01*
X517925Y147994D01*
X517924Y147987D01*
X517923Y147982D01*
X517922Y147964D01*
X517907Y147827D01*
X517907Y140919D01*
X517921Y140829D01*
X517929Y140738D01*
X517941Y140708D01*
X517946Y140676D01*
X517989Y140596D01*
X518025Y140512D01*
X518051Y140479D01*
X518062Y140459D01*
X518085Y140437D01*
X518130Y140381D01*
X520253Y138258D01*
X520269Y138246D01*
X520281Y138231D01*
X520368Y138174D01*
X520452Y138114D01*
X520471Y138108D01*
X520488Y138098D01*
X520589Y138072D01*
X520687Y138042D01*
X520707Y138042D01*
X520727Y138037D01*
X520830Y138046D01*
X520933Y138048D01*
X520952Y138055D01*
X520972Y138057D01*
X521067Y138097D01*
X521164Y138133D01*
X521180Y138145D01*
X521198Y138153D01*
X521329Y138258D01*
X522843Y139772D01*
X525774Y140986D01*
X525860Y140993D01*
X525890Y141005D01*
X525922Y141010D01*
X526003Y141053D01*
X526087Y141089D01*
X526119Y141115D01*
X526139Y141126D01*
X526161Y141149D01*
X526217Y141194D01*
X528026Y143003D01*
X536234Y143003D01*
X542037Y137200D01*
X542037Y128992D01*
X536234Y123189D01*
X528026Y123189D01*
G37*
%LPD*%
%LPC*%
G36*
X358608Y123951D02*
X358608Y123951D01*
X352805Y129754D01*
X352805Y137962D01*
X358608Y143765D01*
X366816Y143765D01*
X372619Y137962D01*
X372619Y129754D01*
X366816Y123951D01*
X358608Y123951D01*
G37*
%LPD*%
%LPC*%
G36*
X544297Y224715D02*
X544297Y224715D01*
X540965Y226095D01*
X538415Y228645D01*
X537035Y231977D01*
X537035Y235583D01*
X538415Y238915D01*
X540965Y241465D01*
X544297Y242845D01*
X547903Y242845D01*
X551235Y241465D01*
X553785Y238915D01*
X555165Y235583D01*
X555165Y231977D01*
X553785Y228645D01*
X551235Y226095D01*
X547903Y224715D01*
X544297Y224715D01*
G37*
%LPD*%
%LPC*%
G36*
X567435Y161797D02*
X567435Y161797D01*
X567435Y171197D01*
X570436Y171197D01*
X576835Y164798D01*
X576835Y161797D01*
X567435Y161797D01*
G37*
%LPD*%
%LPC*%
G36*
X398525Y160527D02*
X398525Y160527D01*
X398525Y169927D01*
X401526Y169927D01*
X407925Y163528D01*
X407925Y160527D01*
X398525Y160527D01*
G37*
%LPD*%
%LPC*%
G36*
X389635Y135381D02*
X389635Y135381D01*
X389635Y144781D01*
X392636Y144781D01*
X399035Y138382D01*
X399035Y135381D01*
X389635Y135381D01*
G37*
%LPD*%
%LPC*%
G36*
X559053Y134619D02*
X559053Y134619D01*
X559053Y144019D01*
X562054Y144019D01*
X568453Y137620D01*
X568453Y134619D01*
X559053Y134619D01*
G37*
%LPD*%
%LPC*%
G36*
X554989Y161797D02*
X554989Y161797D01*
X554989Y164798D01*
X561388Y171197D01*
X564389Y171197D01*
X564389Y161797D01*
X554989Y161797D01*
G37*
%LPD*%
%LPC*%
G36*
X567435Y149351D02*
X567435Y149351D01*
X567435Y158751D01*
X576835Y158751D01*
X576835Y155750D01*
X570436Y149351D01*
X567435Y149351D01*
G37*
%LPD*%
%LPC*%
G36*
X398525Y148081D02*
X398525Y148081D01*
X398525Y157481D01*
X407925Y157481D01*
X407925Y154480D01*
X401526Y148081D01*
X398525Y148081D01*
G37*
%LPD*%
%LPC*%
G36*
X377189Y135381D02*
X377189Y135381D01*
X377189Y138382D01*
X383588Y144781D01*
X386589Y144781D01*
X386589Y135381D01*
X377189Y135381D01*
G37*
%LPD*%
%LPC*%
G36*
X546607Y134619D02*
X546607Y134619D01*
X546607Y137620D01*
X553006Y144019D01*
X556007Y144019D01*
X556007Y134619D01*
X546607Y134619D01*
G37*
%LPD*%
%LPC*%
G36*
X389635Y122935D02*
X389635Y122935D01*
X389635Y132335D01*
X399035Y132335D01*
X399035Y129334D01*
X392636Y122935D01*
X389635Y122935D01*
G37*
%LPD*%
%LPC*%
G36*
X559053Y122173D02*
X559053Y122173D01*
X559053Y131573D01*
X568453Y131573D01*
X568453Y128572D01*
X562054Y122173D01*
X559053Y122173D01*
G37*
%LPD*%
%LPC*%
G36*
X561388Y149351D02*
X561388Y149351D01*
X554989Y155750D01*
X554989Y158751D01*
X564389Y158751D01*
X564389Y149351D01*
X561388Y149351D01*
G37*
%LPD*%
%LPC*%
G36*
X392478Y148081D02*
X392478Y148081D01*
X386079Y154480D01*
X386079Y157481D01*
X395479Y157481D01*
X395479Y148081D01*
X392478Y148081D01*
G37*
%LPD*%
%LPC*%
G36*
X383588Y122935D02*
X383588Y122935D01*
X377189Y129334D01*
X377189Y132335D01*
X386589Y132335D01*
X386589Y122935D01*
X383588Y122935D01*
G37*
%LPD*%
%LPC*%
G36*
X553006Y122173D02*
X553006Y122173D01*
X546607Y128572D01*
X546607Y131573D01*
X556007Y131573D01*
X556007Y122173D01*
X553006Y122173D01*
G37*
%LPD*%
%LPC*%
G36*
X565911Y160273D02*
X565911Y160273D01*
X565911Y160275D01*
X565913Y160275D01*
X565913Y160273D01*
X565911Y160273D01*
G37*
%LPD*%
%LPC*%
G36*
X397001Y159003D02*
X397001Y159003D01*
X397001Y159005D01*
X397003Y159005D01*
X397003Y159003D01*
X397001Y159003D01*
G37*
%LPD*%
%LPC*%
G36*
X388111Y133857D02*
X388111Y133857D01*
X388111Y133859D01*
X388113Y133859D01*
X388113Y133857D01*
X388111Y133857D01*
G37*
%LPD*%
%LPC*%
G36*
X557529Y133095D02*
X557529Y133095D01*
X557529Y133097D01*
X557531Y133097D01*
X557531Y133095D01*
X557529Y133095D01*
G37*
%LPD*%
D10*
X375920Y182780D03*
D11*
X375920Y233780D03*
D10*
X546100Y182780D03*
D11*
X546100Y233780D03*
D12*
X362712Y133858D03*
X388112Y133858D03*
X532130Y133096D03*
X557530Y133096D03*
D13*
X397002Y159004D03*
X346202Y159004D03*
X565912Y160274D03*
X515112Y160274D03*
X235712Y245415D03*
X184912Y245415D03*
X235864Y271170D03*
X185064Y271170D03*
X235763Y291592D03*
X184963Y291592D03*
D14*
X158496Y182118D03*
X158496Y207518D03*
X158496Y232918D03*
X158496Y258318D03*
X133096Y182118D03*
X133096Y207518D03*
X133096Y232918D03*
X133096Y258318D03*
D15*
X-355854Y131064D03*
X-355854Y143764D03*
X-355854Y156464D03*
X-355854Y169164D03*
X-355854Y181864D03*
X-355854Y194564D03*
X-355854Y207264D03*
X-355854Y219964D03*
X-355854Y232664D03*
X-355854Y245364D03*
X-368554Y245364D03*
X-368554Y232664D03*
X-368554Y219964D03*
X-368554Y207264D03*
X-368554Y194564D03*
X-368554Y181864D03*
X-368554Y169164D03*
X-368554Y156464D03*
X-368554Y143764D03*
X-368554Y131064D03*
D16*
X62992Y227330D03*
D17*
X50292Y227330D03*
X62992Y240030D03*
X50292Y240030D03*
X62992Y252730D03*
X50292Y252730D03*
X62992Y265430D03*
X50292Y265430D03*
X62992Y278130D03*
X50292Y278130D03*
X62992Y290830D03*
X50292Y290830D03*
X62992Y303530D03*
X50292Y303530D03*
X62992Y316230D03*
X50292Y316230D03*
D18*
X521462Y133096D02*
X527304Y133096D01*
X521462Y133096D02*
X515112Y139446D01*
X515112Y155702D01*
D19*
X515112Y160274D01*
X527304Y133096D02*
X532130Y133096D01*
D18*
X50292Y213360D02*
X50292Y220726D01*
X50292Y213360D02*
X59182Y204470D01*
X101346Y204470D01*
X145542Y219964D02*
X153670Y228092D01*
X116840Y219964D02*
X101346Y204470D01*
X116840Y219964D02*
X145542Y219964D01*
D20*
X153670Y228092D02*
X158496Y232918D01*
X50292Y227330D02*
X50292Y220726D01*
D18*
X305181Y168275D02*
X332486Y140970D01*
X375920Y169926D02*
X375920Y175006D01*
X346964Y140970D02*
X332486Y140970D01*
X346964Y140970D02*
X373253Y167259D01*
X375920Y169926D01*
D20*
X375920Y175006D02*
X375920Y182780D01*
X138557Y176657D02*
X133096Y182118D01*
X543460Y185420D02*
X546100Y182780D01*
X543460Y185420D02*
X537464Y185420D01*
D18*
X403098Y185420D01*
X384937Y167259D02*
X373253Y167259D01*
X384937Y167259D02*
X403098Y185420D01*
X146939Y168275D02*
X138557Y176657D01*
X146939Y168275D02*
X305181Y168275D01*
X8382Y131064D02*
X-347472Y131064D01*
X8382Y131064D02*
X45974Y168656D01*
X119634Y168656D02*
X125603Y174625D01*
X119634Y168656D02*
X45974Y168656D01*
D20*
X125603Y174625D02*
X133096Y182118D01*
X-347472Y131064D02*
X-355854Y131064D01*
D21*
X346202Y204062D02*
X371298Y229158D01*
X346202Y191008D02*
X346202Y167640D01*
X346202Y191008D02*
X346202Y204062D01*
D20*
X371298Y229158D02*
X375920Y233780D01*
X346202Y167640D02*
X346202Y159004D01*
D18*
X346202Y191008D02*
X182880Y191008D01*
X166370Y207518D01*
X164592Y207518D01*
D20*
X158496Y207518D01*
D18*
X51308Y195326D02*
X36576Y210058D01*
X146304Y195326D02*
X153670Y202692D01*
X146304Y195326D02*
X51308Y195326D01*
X36576Y210058D02*
X36576Y233934D01*
X42672Y240030D01*
D20*
X153670Y202692D02*
X158496Y207518D01*
X50292Y240030D02*
X42672Y240030D01*
D18*
X-35306Y143764D02*
X-349504Y143764D01*
D22*
X25908Y204724D03*
D18*
X25654Y204724D01*
X-35306Y143764D01*
X67564Y240030D02*
X88392Y240030D01*
X120650Y272288D01*
X147320Y272288D01*
X156083Y263525D01*
D20*
X67564Y240030D02*
X62992Y240030D01*
X156083Y260731D02*
X158496Y258318D01*
X156083Y260731D02*
X156083Y263525D01*
D22*
X339344Y230886D03*
D20*
X63119Y239903D02*
X62992Y240030D01*
X63119Y239903D02*
X62992Y239776D01*
X62992Y227330D01*
X-349504Y143764D02*
X-355854Y143764D01*
M02*
