G04 EAGLE Gerber RS-274X export*
G75*
%MOMM*%
%FSLAX34Y34*%
%LPD*%
%INSoldermask Bottom*%
%IPPOS*%
%AMOC8*
5,1,8,0,0,1.08239X$1,22.5*%
G01*
%ADD10C,3.203200*%
%ADD11R,1.711200X1.711200*%
%ADD12C,1.711200*%
%ADD13P,2.034460X8X22.500000*%
%ADD14P,2.034460X8X202.500000*%
%ADD15P,1.869504X8X112.500000*%
%ADD16C,1.361200*%
%ADD17R,1.421200X1.421200*%
%ADD18C,1.421200*%
%ADD19C,0.959600*%


D10*
X675894Y280670D03*
X676148Y141732D03*
X147066Y140462D03*
D11*
X375920Y182780D03*
D12*
X375920Y233780D03*
D11*
X546100Y182780D03*
D12*
X546100Y233780D03*
D13*
X362712Y133858D03*
X388112Y133858D03*
X532130Y133096D03*
X557530Y133096D03*
D14*
X397002Y159004D03*
X346202Y159004D03*
X565912Y160274D03*
X515112Y160274D03*
X235712Y245415D03*
X184912Y245415D03*
X235864Y271170D03*
X185064Y271170D03*
X235763Y291592D03*
X184963Y291592D03*
D15*
X158496Y182118D03*
X158496Y207518D03*
X158496Y232918D03*
X158496Y258318D03*
X133096Y182118D03*
X133096Y207518D03*
X133096Y232918D03*
X133096Y258318D03*
D16*
X-355854Y131064D03*
X-355854Y143764D03*
X-355854Y156464D03*
X-355854Y169164D03*
X-355854Y181864D03*
X-355854Y194564D03*
X-355854Y207264D03*
X-355854Y219964D03*
X-355854Y232664D03*
X-355854Y245364D03*
X-368554Y245364D03*
X-368554Y232664D03*
X-368554Y219964D03*
X-368554Y207264D03*
X-368554Y194564D03*
X-368554Y181864D03*
X-368554Y169164D03*
X-368554Y156464D03*
X-368554Y143764D03*
X-368554Y131064D03*
D17*
X62992Y227330D03*
D18*
X50292Y227330D03*
X62992Y240030D03*
X50292Y240030D03*
X62992Y252730D03*
X50292Y252730D03*
X62992Y265430D03*
X50292Y265430D03*
X62992Y278130D03*
X50292Y278130D03*
X62992Y290830D03*
X50292Y290830D03*
X62992Y303530D03*
X50292Y303530D03*
X62992Y316230D03*
X50292Y316230D03*
D19*
X25908Y204724D03*
X339344Y230886D03*
M02*
