G04 EAGLE Gerber RS-274X export*
G75*
%MOMM*%
%FSLAX34Y34*%
%LPD*%
%INStiffener_Bot*%
%IPPOS*%
%AMOC8*
5,1,8,0,0,1.08239X$1,22.5*%
G01*
%ADD10C,0.254000*%
%ADD11C,0.152400*%


D10*
X391160Y112014D02*
X343154Y112014D01*
X342721Y112017D01*
X342288Y112029D01*
X341855Y112053D01*
X341423Y112087D01*
X340992Y112132D01*
X340562Y112187D01*
X340134Y112253D01*
X339708Y112329D01*
X339283Y112416D01*
X338861Y112513D01*
X338441Y112620D01*
X338024Y112738D01*
X337610Y112866D01*
X337200Y113004D01*
X336792Y113152D01*
X336389Y113310D01*
X335990Y113477D01*
X335594Y113655D01*
X335204Y113842D01*
X334818Y114039D01*
X334437Y114245D01*
X334061Y114461D01*
X333690Y114685D01*
X333325Y114919D01*
X332966Y115161D01*
X332613Y115413D01*
X332267Y115673D01*
X331927Y115941D01*
X331593Y116217D01*
X331266Y116502D01*
X330947Y116795D01*
X330635Y117095D01*
X330330Y117403D01*
X330033Y117718D01*
X329743Y118041D01*
X329462Y118370D01*
X329189Y118706D01*
X328924Y119049D01*
X328668Y119399D01*
X328420Y119754D01*
X328181Y120116D01*
X327951Y120483D01*
X327730Y120856D01*
X327519Y121234D01*
X327316Y121617D01*
X327124Y122005D01*
X326940Y122397D01*
X326767Y122794D01*
X326603Y123195D01*
X326449Y123600D01*
X326305Y124009D01*
X326171Y124421D01*
X326048Y124836D01*
X325934Y125255D01*
X325831Y125675D01*
X325738Y126099D01*
X325656Y126524D01*
X325584Y126951D01*
X325523Y127380D01*
X325472Y127810D01*
X325432Y128242D01*
X325402Y128674D01*
X325383Y129107D01*
X325374Y129540D01*
X325374Y297180D01*
X325378Y297548D01*
X325392Y297916D01*
X325414Y298284D01*
X325445Y298651D01*
X325485Y299017D01*
X325534Y299382D01*
X325592Y299746D01*
X325658Y300108D01*
X325733Y300469D01*
X325817Y300827D01*
X325909Y301184D01*
X326010Y301538D01*
X326120Y301889D01*
X326238Y302238D01*
X326364Y302584D01*
X326499Y302927D01*
X326642Y303266D01*
X326793Y303602D01*
X326952Y303934D01*
X327120Y304262D01*
X327295Y304586D01*
X327478Y304906D01*
X327668Y305221D01*
X327866Y305532D01*
X328072Y305837D01*
X328285Y306138D01*
X328505Y306433D01*
X328732Y306723D01*
X328966Y307007D01*
X329207Y307286D01*
X329454Y307559D01*
X329708Y307825D01*
X329969Y308086D01*
X330235Y308340D01*
X330508Y308587D01*
X330787Y308828D01*
X331071Y309062D01*
X331361Y309289D01*
X331656Y309509D01*
X331957Y309722D01*
X332262Y309928D01*
X332573Y310126D01*
X332888Y310316D01*
X333208Y310499D01*
X333532Y310674D01*
X333860Y310842D01*
X334192Y311001D01*
X334528Y311152D01*
X334867Y311295D01*
X335210Y311430D01*
X335556Y311556D01*
X335905Y311674D01*
X336256Y311784D01*
X336610Y311885D01*
X336967Y311977D01*
X337325Y312061D01*
X337686Y312136D01*
X338048Y312202D01*
X338412Y312260D01*
X338777Y312309D01*
X339143Y312349D01*
X339510Y312380D01*
X339878Y312402D01*
X340246Y312416D01*
X340614Y312420D01*
X396240Y312420D01*
X396547Y312416D01*
X396854Y312405D01*
X397160Y312387D01*
X397466Y312361D01*
X397771Y312327D01*
X398075Y312287D01*
X398378Y312239D01*
X398680Y312183D01*
X398980Y312121D01*
X399279Y312051D01*
X399576Y311974D01*
X399872Y311890D01*
X400165Y311798D01*
X400455Y311700D01*
X400743Y311595D01*
X401029Y311482D01*
X401312Y311363D01*
X401592Y311237D01*
X401869Y311105D01*
X402142Y310965D01*
X402412Y310819D01*
X402678Y310667D01*
X402941Y310508D01*
X403200Y310343D01*
X403454Y310172D01*
X403705Y309995D01*
X403951Y309811D01*
X404193Y309622D01*
X404429Y309427D01*
X404662Y309226D01*
X404889Y309020D01*
X405111Y308808D01*
X405328Y308591D01*
X405540Y308369D01*
X405746Y308142D01*
X405947Y307909D01*
X406142Y307673D01*
X406331Y307431D01*
X406515Y307185D01*
X406692Y306934D01*
X406863Y306680D01*
X407028Y306421D01*
X407187Y306158D01*
X407339Y305892D01*
X407485Y305622D01*
X407625Y305349D01*
X407757Y305072D01*
X407883Y304792D01*
X408002Y304509D01*
X408115Y304223D01*
X408220Y303935D01*
X408318Y303645D01*
X408410Y303352D01*
X408494Y303056D01*
X408571Y302759D01*
X408641Y302460D01*
X408703Y302160D01*
X408759Y301858D01*
X408807Y301555D01*
X408847Y301251D01*
X408881Y300946D01*
X408907Y300640D01*
X408925Y300334D01*
X408936Y300027D01*
X408940Y299720D01*
X408940Y129540D01*
X408931Y129113D01*
X408913Y128687D01*
X408884Y128262D01*
X408845Y127837D01*
X408796Y127413D01*
X408736Y126991D01*
X408666Y126570D01*
X408586Y126151D01*
X408496Y125734D01*
X408396Y125319D01*
X408286Y124907D01*
X408166Y124498D01*
X408036Y124091D01*
X407897Y123688D01*
X407747Y123289D01*
X407588Y122893D01*
X407420Y122501D01*
X407242Y122113D01*
X407055Y121730D01*
X406859Y121351D01*
X406653Y120977D01*
X406439Y120608D01*
X406215Y120245D01*
X405983Y119887D01*
X405743Y119535D01*
X405494Y119188D01*
X405236Y118848D01*
X404971Y118514D01*
X404697Y118187D01*
X404416Y117866D01*
X404127Y117552D01*
X403830Y117246D01*
X403527Y116946D01*
X403216Y116654D01*
X402898Y116370D01*
X402573Y116093D01*
X402242Y115824D01*
X401904Y115564D01*
X401560Y115311D01*
X401210Y115067D01*
X400855Y114832D01*
X400493Y114605D01*
X400127Y114387D01*
X399755Y114178D01*
X399378Y113977D01*
X398997Y113787D01*
X398611Y113605D01*
X398220Y113433D01*
X397826Y113270D01*
X397428Y113117D01*
X397026Y112973D01*
X396621Y112839D01*
X396213Y112715D01*
X395802Y112601D01*
X395388Y112497D01*
X394972Y112403D01*
X394554Y112319D01*
X394134Y112245D01*
X393712Y112181D01*
X393289Y112128D01*
X392864Y112085D01*
X392439Y112052D01*
X392013Y112029D01*
X391587Y112017D01*
X391160Y112014D01*
X513588Y111760D02*
X560832Y111760D01*
X513588Y111760D02*
X513158Y111765D01*
X512729Y111781D01*
X512300Y111807D01*
X511872Y111843D01*
X511445Y111890D01*
X511019Y111947D01*
X510595Y112014D01*
X510172Y112091D01*
X509751Y112179D01*
X509333Y112277D01*
X508917Y112385D01*
X508504Y112502D01*
X508094Y112630D01*
X507687Y112768D01*
X507283Y112915D01*
X506883Y113073D01*
X506487Y113239D01*
X506095Y113416D01*
X505708Y113602D01*
X505325Y113797D01*
X504947Y114001D01*
X504574Y114214D01*
X504207Y114436D01*
X503844Y114668D01*
X503488Y114907D01*
X503137Y115156D01*
X502793Y115412D01*
X502454Y115677D01*
X502123Y115950D01*
X501798Y116231D01*
X501480Y116520D01*
X501168Y116817D01*
X500865Y117120D01*
X500568Y117432D01*
X500279Y117750D01*
X499998Y118075D01*
X499725Y118406D01*
X499460Y118745D01*
X499204Y119089D01*
X498955Y119440D01*
X498716Y119796D01*
X498484Y120159D01*
X498262Y120526D01*
X498049Y120899D01*
X497845Y121277D01*
X497650Y121660D01*
X497464Y122047D01*
X497287Y122439D01*
X497121Y122835D01*
X496963Y123235D01*
X496816Y123639D01*
X496678Y124046D01*
X496550Y124456D01*
X496433Y124869D01*
X496325Y125285D01*
X496227Y125703D01*
X496139Y126124D01*
X496062Y126547D01*
X495995Y126971D01*
X495938Y127397D01*
X495891Y127824D01*
X495855Y128252D01*
X495829Y128681D01*
X495813Y129110D01*
X495808Y129540D01*
X495808Y297180D01*
X495812Y297548D01*
X495826Y297916D01*
X495848Y298284D01*
X495879Y298651D01*
X495919Y299017D01*
X495968Y299382D01*
X496026Y299746D01*
X496092Y300108D01*
X496167Y300469D01*
X496251Y300827D01*
X496343Y301184D01*
X496444Y301538D01*
X496554Y301889D01*
X496672Y302238D01*
X496798Y302584D01*
X496933Y302927D01*
X497076Y303266D01*
X497227Y303602D01*
X497386Y303934D01*
X497554Y304262D01*
X497729Y304586D01*
X497912Y304906D01*
X498102Y305221D01*
X498300Y305532D01*
X498506Y305837D01*
X498719Y306138D01*
X498939Y306433D01*
X499166Y306723D01*
X499400Y307007D01*
X499641Y307286D01*
X499888Y307559D01*
X500142Y307825D01*
X500403Y308086D01*
X500669Y308340D01*
X500942Y308587D01*
X501221Y308828D01*
X501505Y309062D01*
X501795Y309289D01*
X502090Y309509D01*
X502391Y309722D01*
X502696Y309928D01*
X503007Y310126D01*
X503322Y310316D01*
X503642Y310499D01*
X503966Y310674D01*
X504294Y310842D01*
X504626Y311001D01*
X504962Y311152D01*
X505301Y311295D01*
X505644Y311430D01*
X505990Y311556D01*
X506339Y311674D01*
X506690Y311784D01*
X507044Y311885D01*
X507401Y311977D01*
X507759Y312061D01*
X508120Y312136D01*
X508482Y312202D01*
X508846Y312260D01*
X509211Y312309D01*
X509577Y312349D01*
X509944Y312380D01*
X510312Y312402D01*
X510680Y312416D01*
X511048Y312420D01*
X565912Y312420D01*
X566219Y312416D01*
X566526Y312405D01*
X566832Y312387D01*
X567138Y312361D01*
X567443Y312327D01*
X567747Y312287D01*
X568050Y312239D01*
X568352Y312183D01*
X568652Y312121D01*
X568951Y312051D01*
X569248Y311974D01*
X569544Y311890D01*
X569837Y311798D01*
X570127Y311700D01*
X570415Y311595D01*
X570701Y311482D01*
X570984Y311363D01*
X571264Y311237D01*
X571541Y311105D01*
X571814Y310965D01*
X572084Y310819D01*
X572350Y310667D01*
X572613Y310508D01*
X572872Y310343D01*
X573126Y310172D01*
X573377Y309995D01*
X573623Y309811D01*
X573865Y309622D01*
X574101Y309427D01*
X574334Y309226D01*
X574561Y309020D01*
X574783Y308808D01*
X575000Y308591D01*
X575212Y308369D01*
X575418Y308142D01*
X575619Y307909D01*
X575814Y307673D01*
X576003Y307431D01*
X576187Y307185D01*
X576364Y306934D01*
X576535Y306680D01*
X576700Y306421D01*
X576859Y306158D01*
X577011Y305892D01*
X577157Y305622D01*
X577297Y305349D01*
X577429Y305072D01*
X577555Y304792D01*
X577674Y304509D01*
X577787Y304223D01*
X577892Y303935D01*
X577990Y303645D01*
X578082Y303352D01*
X578166Y303056D01*
X578243Y302759D01*
X578313Y302460D01*
X578375Y302160D01*
X578431Y301858D01*
X578479Y301555D01*
X578519Y301251D01*
X578553Y300946D01*
X578579Y300640D01*
X578597Y300334D01*
X578608Y300027D01*
X578612Y299720D01*
X578612Y129540D01*
X578607Y129110D01*
X578591Y128681D01*
X578565Y128252D01*
X578529Y127824D01*
X578482Y127397D01*
X578425Y126971D01*
X578358Y126547D01*
X578281Y126124D01*
X578193Y125703D01*
X578095Y125285D01*
X577987Y124869D01*
X577870Y124456D01*
X577742Y124046D01*
X577604Y123639D01*
X577457Y123235D01*
X577299Y122835D01*
X577133Y122439D01*
X576956Y122047D01*
X576770Y121660D01*
X576575Y121277D01*
X576371Y120899D01*
X576158Y120526D01*
X575936Y120159D01*
X575704Y119796D01*
X575465Y119440D01*
X575216Y119089D01*
X574960Y118745D01*
X574695Y118406D01*
X574422Y118075D01*
X574141Y117750D01*
X573852Y117432D01*
X573555Y117120D01*
X573252Y116817D01*
X572940Y116520D01*
X572622Y116231D01*
X572297Y115950D01*
X571966Y115677D01*
X571627Y115412D01*
X571283Y115156D01*
X570932Y114907D01*
X570576Y114668D01*
X570213Y114436D01*
X569846Y114214D01*
X569473Y114001D01*
X569095Y113797D01*
X568712Y113602D01*
X568325Y113416D01*
X567933Y113239D01*
X567537Y113073D01*
X567137Y112915D01*
X566733Y112768D01*
X566326Y112630D01*
X565916Y112502D01*
X565503Y112385D01*
X565087Y112277D01*
X564669Y112179D01*
X564248Y112091D01*
X563825Y112014D01*
X563401Y111947D01*
X562975Y111890D01*
X562548Y111843D01*
X562120Y111807D01*
X561691Y111781D01*
X561262Y111765D01*
X560832Y111760D01*
D11*
X126039Y258318D02*
X126041Y258491D01*
X126048Y258664D01*
X126058Y258837D01*
X126073Y259010D01*
X126092Y259182D01*
X126115Y259353D01*
X126143Y259524D01*
X126175Y259695D01*
X126210Y259864D01*
X126250Y260033D01*
X126295Y260200D01*
X126343Y260367D01*
X126395Y260532D01*
X126452Y260695D01*
X126512Y260858D01*
X126576Y261019D01*
X126644Y261178D01*
X126717Y261335D01*
X126793Y261491D01*
X126872Y261645D01*
X126956Y261796D01*
X127043Y261946D01*
X127134Y262093D01*
X127228Y262239D01*
X127326Y262381D01*
X127428Y262522D01*
X127533Y262660D01*
X127641Y262795D01*
X127752Y262927D01*
X127867Y263057D01*
X127985Y263184D01*
X128106Y263308D01*
X128230Y263429D01*
X128357Y263547D01*
X128487Y263662D01*
X128619Y263773D01*
X128754Y263881D01*
X128892Y263986D01*
X129033Y264088D01*
X129175Y264186D01*
X129321Y264280D01*
X129468Y264371D01*
X129618Y264458D01*
X129769Y264542D01*
X129923Y264621D01*
X130079Y264697D01*
X130236Y264770D01*
X130395Y264838D01*
X130556Y264902D01*
X130719Y264962D01*
X130882Y265019D01*
X131047Y265071D01*
X131214Y265119D01*
X131381Y265164D01*
X131550Y265204D01*
X131719Y265239D01*
X131890Y265271D01*
X132061Y265299D01*
X132232Y265322D01*
X132404Y265341D01*
X132577Y265356D01*
X132750Y265366D01*
X132923Y265373D01*
X133096Y265375D01*
X133269Y265373D01*
X133442Y265366D01*
X133615Y265356D01*
X133788Y265341D01*
X133960Y265322D01*
X134131Y265299D01*
X134302Y265271D01*
X134473Y265239D01*
X134642Y265204D01*
X134811Y265164D01*
X134978Y265119D01*
X135145Y265071D01*
X135310Y265019D01*
X135473Y264962D01*
X135636Y264902D01*
X135797Y264838D01*
X135956Y264770D01*
X136113Y264697D01*
X136269Y264621D01*
X136423Y264542D01*
X136574Y264458D01*
X136724Y264371D01*
X136871Y264280D01*
X137017Y264186D01*
X137159Y264088D01*
X137300Y263986D01*
X137438Y263881D01*
X137573Y263773D01*
X137705Y263662D01*
X137835Y263547D01*
X137962Y263429D01*
X138086Y263308D01*
X138207Y263184D01*
X138325Y263057D01*
X138440Y262927D01*
X138551Y262795D01*
X138659Y262660D01*
X138764Y262522D01*
X138866Y262381D01*
X138964Y262239D01*
X139058Y262093D01*
X139149Y261946D01*
X139236Y261796D01*
X139320Y261645D01*
X139399Y261491D01*
X139475Y261335D01*
X139548Y261178D01*
X139616Y261019D01*
X139680Y260858D01*
X139740Y260695D01*
X139797Y260532D01*
X139849Y260367D01*
X139897Y260200D01*
X139942Y260033D01*
X139982Y259864D01*
X140017Y259695D01*
X140049Y259524D01*
X140077Y259353D01*
X140100Y259182D01*
X140119Y259010D01*
X140134Y258837D01*
X140144Y258664D01*
X140151Y258491D01*
X140153Y258318D01*
X140151Y258145D01*
X140144Y257972D01*
X140134Y257799D01*
X140119Y257626D01*
X140100Y257454D01*
X140077Y257283D01*
X140049Y257112D01*
X140017Y256941D01*
X139982Y256772D01*
X139942Y256603D01*
X139897Y256436D01*
X139849Y256269D01*
X139797Y256104D01*
X139740Y255941D01*
X139680Y255778D01*
X139616Y255617D01*
X139548Y255458D01*
X139475Y255301D01*
X139399Y255145D01*
X139320Y254991D01*
X139236Y254840D01*
X139149Y254690D01*
X139058Y254543D01*
X138964Y254397D01*
X138866Y254255D01*
X138764Y254114D01*
X138659Y253976D01*
X138551Y253841D01*
X138440Y253709D01*
X138325Y253579D01*
X138207Y253452D01*
X138086Y253328D01*
X137962Y253207D01*
X137835Y253089D01*
X137705Y252974D01*
X137573Y252863D01*
X137438Y252755D01*
X137300Y252650D01*
X137159Y252548D01*
X137017Y252450D01*
X136871Y252356D01*
X136724Y252265D01*
X136574Y252178D01*
X136423Y252094D01*
X136269Y252015D01*
X136113Y251939D01*
X135956Y251866D01*
X135797Y251798D01*
X135636Y251734D01*
X135473Y251674D01*
X135310Y251617D01*
X135145Y251565D01*
X134978Y251517D01*
X134811Y251472D01*
X134642Y251432D01*
X134473Y251397D01*
X134302Y251365D01*
X134131Y251337D01*
X133960Y251314D01*
X133788Y251295D01*
X133615Y251280D01*
X133442Y251270D01*
X133269Y251263D01*
X133096Y251261D01*
X132923Y251263D01*
X132750Y251270D01*
X132577Y251280D01*
X132404Y251295D01*
X132232Y251314D01*
X132061Y251337D01*
X131890Y251365D01*
X131719Y251397D01*
X131550Y251432D01*
X131381Y251472D01*
X131214Y251517D01*
X131047Y251565D01*
X130882Y251617D01*
X130719Y251674D01*
X130556Y251734D01*
X130395Y251798D01*
X130236Y251866D01*
X130079Y251939D01*
X129923Y252015D01*
X129769Y252094D01*
X129618Y252178D01*
X129468Y252265D01*
X129321Y252356D01*
X129175Y252450D01*
X129033Y252548D01*
X128892Y252650D01*
X128754Y252755D01*
X128619Y252863D01*
X128487Y252974D01*
X128357Y253089D01*
X128230Y253207D01*
X128106Y253328D01*
X127985Y253452D01*
X127867Y253579D01*
X127752Y253709D01*
X127641Y253841D01*
X127533Y253976D01*
X127428Y254114D01*
X127326Y254255D01*
X127228Y254397D01*
X127134Y254543D01*
X127043Y254690D01*
X126956Y254840D01*
X126872Y254991D01*
X126793Y255145D01*
X126717Y255301D01*
X126644Y255458D01*
X126576Y255617D01*
X126512Y255778D01*
X126452Y255941D01*
X126395Y256104D01*
X126343Y256269D01*
X126295Y256436D01*
X126250Y256603D01*
X126210Y256772D01*
X126175Y256941D01*
X126143Y257112D01*
X126115Y257283D01*
X126092Y257454D01*
X126073Y257626D01*
X126058Y257799D01*
X126048Y257972D01*
X126041Y258145D01*
X126039Y258318D01*
X151439Y258318D02*
X151441Y258491D01*
X151448Y258664D01*
X151458Y258837D01*
X151473Y259010D01*
X151492Y259182D01*
X151515Y259353D01*
X151543Y259524D01*
X151575Y259695D01*
X151610Y259864D01*
X151650Y260033D01*
X151695Y260200D01*
X151743Y260367D01*
X151795Y260532D01*
X151852Y260695D01*
X151912Y260858D01*
X151976Y261019D01*
X152044Y261178D01*
X152117Y261335D01*
X152193Y261491D01*
X152272Y261645D01*
X152356Y261796D01*
X152443Y261946D01*
X152534Y262093D01*
X152628Y262239D01*
X152726Y262381D01*
X152828Y262522D01*
X152933Y262660D01*
X153041Y262795D01*
X153152Y262927D01*
X153267Y263057D01*
X153385Y263184D01*
X153506Y263308D01*
X153630Y263429D01*
X153757Y263547D01*
X153887Y263662D01*
X154019Y263773D01*
X154154Y263881D01*
X154292Y263986D01*
X154433Y264088D01*
X154575Y264186D01*
X154721Y264280D01*
X154868Y264371D01*
X155018Y264458D01*
X155169Y264542D01*
X155323Y264621D01*
X155479Y264697D01*
X155636Y264770D01*
X155795Y264838D01*
X155956Y264902D01*
X156119Y264962D01*
X156282Y265019D01*
X156447Y265071D01*
X156614Y265119D01*
X156781Y265164D01*
X156950Y265204D01*
X157119Y265239D01*
X157290Y265271D01*
X157461Y265299D01*
X157632Y265322D01*
X157804Y265341D01*
X157977Y265356D01*
X158150Y265366D01*
X158323Y265373D01*
X158496Y265375D01*
X158669Y265373D01*
X158842Y265366D01*
X159015Y265356D01*
X159188Y265341D01*
X159360Y265322D01*
X159531Y265299D01*
X159702Y265271D01*
X159873Y265239D01*
X160042Y265204D01*
X160211Y265164D01*
X160378Y265119D01*
X160545Y265071D01*
X160710Y265019D01*
X160873Y264962D01*
X161036Y264902D01*
X161197Y264838D01*
X161356Y264770D01*
X161513Y264697D01*
X161669Y264621D01*
X161823Y264542D01*
X161974Y264458D01*
X162124Y264371D01*
X162271Y264280D01*
X162417Y264186D01*
X162559Y264088D01*
X162700Y263986D01*
X162838Y263881D01*
X162973Y263773D01*
X163105Y263662D01*
X163235Y263547D01*
X163362Y263429D01*
X163486Y263308D01*
X163607Y263184D01*
X163725Y263057D01*
X163840Y262927D01*
X163951Y262795D01*
X164059Y262660D01*
X164164Y262522D01*
X164266Y262381D01*
X164364Y262239D01*
X164458Y262093D01*
X164549Y261946D01*
X164636Y261796D01*
X164720Y261645D01*
X164799Y261491D01*
X164875Y261335D01*
X164948Y261178D01*
X165016Y261019D01*
X165080Y260858D01*
X165140Y260695D01*
X165197Y260532D01*
X165249Y260367D01*
X165297Y260200D01*
X165342Y260033D01*
X165382Y259864D01*
X165417Y259695D01*
X165449Y259524D01*
X165477Y259353D01*
X165500Y259182D01*
X165519Y259010D01*
X165534Y258837D01*
X165544Y258664D01*
X165551Y258491D01*
X165553Y258318D01*
X165551Y258145D01*
X165544Y257972D01*
X165534Y257799D01*
X165519Y257626D01*
X165500Y257454D01*
X165477Y257283D01*
X165449Y257112D01*
X165417Y256941D01*
X165382Y256772D01*
X165342Y256603D01*
X165297Y256436D01*
X165249Y256269D01*
X165197Y256104D01*
X165140Y255941D01*
X165080Y255778D01*
X165016Y255617D01*
X164948Y255458D01*
X164875Y255301D01*
X164799Y255145D01*
X164720Y254991D01*
X164636Y254840D01*
X164549Y254690D01*
X164458Y254543D01*
X164364Y254397D01*
X164266Y254255D01*
X164164Y254114D01*
X164059Y253976D01*
X163951Y253841D01*
X163840Y253709D01*
X163725Y253579D01*
X163607Y253452D01*
X163486Y253328D01*
X163362Y253207D01*
X163235Y253089D01*
X163105Y252974D01*
X162973Y252863D01*
X162838Y252755D01*
X162700Y252650D01*
X162559Y252548D01*
X162417Y252450D01*
X162271Y252356D01*
X162124Y252265D01*
X161974Y252178D01*
X161823Y252094D01*
X161669Y252015D01*
X161513Y251939D01*
X161356Y251866D01*
X161197Y251798D01*
X161036Y251734D01*
X160873Y251674D01*
X160710Y251617D01*
X160545Y251565D01*
X160378Y251517D01*
X160211Y251472D01*
X160042Y251432D01*
X159873Y251397D01*
X159702Y251365D01*
X159531Y251337D01*
X159360Y251314D01*
X159188Y251295D01*
X159015Y251280D01*
X158842Y251270D01*
X158669Y251263D01*
X158496Y251261D01*
X158323Y251263D01*
X158150Y251270D01*
X157977Y251280D01*
X157804Y251295D01*
X157632Y251314D01*
X157461Y251337D01*
X157290Y251365D01*
X157119Y251397D01*
X156950Y251432D01*
X156781Y251472D01*
X156614Y251517D01*
X156447Y251565D01*
X156282Y251617D01*
X156119Y251674D01*
X155956Y251734D01*
X155795Y251798D01*
X155636Y251866D01*
X155479Y251939D01*
X155323Y252015D01*
X155169Y252094D01*
X155018Y252178D01*
X154868Y252265D01*
X154721Y252356D01*
X154575Y252450D01*
X154433Y252548D01*
X154292Y252650D01*
X154154Y252755D01*
X154019Y252863D01*
X153887Y252974D01*
X153757Y253089D01*
X153630Y253207D01*
X153506Y253328D01*
X153385Y253452D01*
X153267Y253579D01*
X153152Y253709D01*
X153041Y253841D01*
X152933Y253976D01*
X152828Y254114D01*
X152726Y254255D01*
X152628Y254397D01*
X152534Y254543D01*
X152443Y254690D01*
X152356Y254840D01*
X152272Y254991D01*
X152193Y255145D01*
X152117Y255301D01*
X152044Y255458D01*
X151976Y255617D01*
X151912Y255778D01*
X151852Y255941D01*
X151795Y256104D01*
X151743Y256269D01*
X151695Y256436D01*
X151650Y256603D01*
X151610Y256772D01*
X151575Y256941D01*
X151543Y257112D01*
X151515Y257283D01*
X151492Y257454D01*
X151473Y257626D01*
X151458Y257799D01*
X151448Y257972D01*
X151441Y258145D01*
X151439Y258318D01*
X126039Y232918D02*
X126041Y233091D01*
X126048Y233264D01*
X126058Y233437D01*
X126073Y233610D01*
X126092Y233782D01*
X126115Y233953D01*
X126143Y234124D01*
X126175Y234295D01*
X126210Y234464D01*
X126250Y234633D01*
X126295Y234800D01*
X126343Y234967D01*
X126395Y235132D01*
X126452Y235295D01*
X126512Y235458D01*
X126576Y235619D01*
X126644Y235778D01*
X126717Y235935D01*
X126793Y236091D01*
X126872Y236245D01*
X126956Y236396D01*
X127043Y236546D01*
X127134Y236693D01*
X127228Y236839D01*
X127326Y236981D01*
X127428Y237122D01*
X127533Y237260D01*
X127641Y237395D01*
X127752Y237527D01*
X127867Y237657D01*
X127985Y237784D01*
X128106Y237908D01*
X128230Y238029D01*
X128357Y238147D01*
X128487Y238262D01*
X128619Y238373D01*
X128754Y238481D01*
X128892Y238586D01*
X129033Y238688D01*
X129175Y238786D01*
X129321Y238880D01*
X129468Y238971D01*
X129618Y239058D01*
X129769Y239142D01*
X129923Y239221D01*
X130079Y239297D01*
X130236Y239370D01*
X130395Y239438D01*
X130556Y239502D01*
X130719Y239562D01*
X130882Y239619D01*
X131047Y239671D01*
X131214Y239719D01*
X131381Y239764D01*
X131550Y239804D01*
X131719Y239839D01*
X131890Y239871D01*
X132061Y239899D01*
X132232Y239922D01*
X132404Y239941D01*
X132577Y239956D01*
X132750Y239966D01*
X132923Y239973D01*
X133096Y239975D01*
X133269Y239973D01*
X133442Y239966D01*
X133615Y239956D01*
X133788Y239941D01*
X133960Y239922D01*
X134131Y239899D01*
X134302Y239871D01*
X134473Y239839D01*
X134642Y239804D01*
X134811Y239764D01*
X134978Y239719D01*
X135145Y239671D01*
X135310Y239619D01*
X135473Y239562D01*
X135636Y239502D01*
X135797Y239438D01*
X135956Y239370D01*
X136113Y239297D01*
X136269Y239221D01*
X136423Y239142D01*
X136574Y239058D01*
X136724Y238971D01*
X136871Y238880D01*
X137017Y238786D01*
X137159Y238688D01*
X137300Y238586D01*
X137438Y238481D01*
X137573Y238373D01*
X137705Y238262D01*
X137835Y238147D01*
X137962Y238029D01*
X138086Y237908D01*
X138207Y237784D01*
X138325Y237657D01*
X138440Y237527D01*
X138551Y237395D01*
X138659Y237260D01*
X138764Y237122D01*
X138866Y236981D01*
X138964Y236839D01*
X139058Y236693D01*
X139149Y236546D01*
X139236Y236396D01*
X139320Y236245D01*
X139399Y236091D01*
X139475Y235935D01*
X139548Y235778D01*
X139616Y235619D01*
X139680Y235458D01*
X139740Y235295D01*
X139797Y235132D01*
X139849Y234967D01*
X139897Y234800D01*
X139942Y234633D01*
X139982Y234464D01*
X140017Y234295D01*
X140049Y234124D01*
X140077Y233953D01*
X140100Y233782D01*
X140119Y233610D01*
X140134Y233437D01*
X140144Y233264D01*
X140151Y233091D01*
X140153Y232918D01*
X140151Y232745D01*
X140144Y232572D01*
X140134Y232399D01*
X140119Y232226D01*
X140100Y232054D01*
X140077Y231883D01*
X140049Y231712D01*
X140017Y231541D01*
X139982Y231372D01*
X139942Y231203D01*
X139897Y231036D01*
X139849Y230869D01*
X139797Y230704D01*
X139740Y230541D01*
X139680Y230378D01*
X139616Y230217D01*
X139548Y230058D01*
X139475Y229901D01*
X139399Y229745D01*
X139320Y229591D01*
X139236Y229440D01*
X139149Y229290D01*
X139058Y229143D01*
X138964Y228997D01*
X138866Y228855D01*
X138764Y228714D01*
X138659Y228576D01*
X138551Y228441D01*
X138440Y228309D01*
X138325Y228179D01*
X138207Y228052D01*
X138086Y227928D01*
X137962Y227807D01*
X137835Y227689D01*
X137705Y227574D01*
X137573Y227463D01*
X137438Y227355D01*
X137300Y227250D01*
X137159Y227148D01*
X137017Y227050D01*
X136871Y226956D01*
X136724Y226865D01*
X136574Y226778D01*
X136423Y226694D01*
X136269Y226615D01*
X136113Y226539D01*
X135956Y226466D01*
X135797Y226398D01*
X135636Y226334D01*
X135473Y226274D01*
X135310Y226217D01*
X135145Y226165D01*
X134978Y226117D01*
X134811Y226072D01*
X134642Y226032D01*
X134473Y225997D01*
X134302Y225965D01*
X134131Y225937D01*
X133960Y225914D01*
X133788Y225895D01*
X133615Y225880D01*
X133442Y225870D01*
X133269Y225863D01*
X133096Y225861D01*
X132923Y225863D01*
X132750Y225870D01*
X132577Y225880D01*
X132404Y225895D01*
X132232Y225914D01*
X132061Y225937D01*
X131890Y225965D01*
X131719Y225997D01*
X131550Y226032D01*
X131381Y226072D01*
X131214Y226117D01*
X131047Y226165D01*
X130882Y226217D01*
X130719Y226274D01*
X130556Y226334D01*
X130395Y226398D01*
X130236Y226466D01*
X130079Y226539D01*
X129923Y226615D01*
X129769Y226694D01*
X129618Y226778D01*
X129468Y226865D01*
X129321Y226956D01*
X129175Y227050D01*
X129033Y227148D01*
X128892Y227250D01*
X128754Y227355D01*
X128619Y227463D01*
X128487Y227574D01*
X128357Y227689D01*
X128230Y227807D01*
X128106Y227928D01*
X127985Y228052D01*
X127867Y228179D01*
X127752Y228309D01*
X127641Y228441D01*
X127533Y228576D01*
X127428Y228714D01*
X127326Y228855D01*
X127228Y228997D01*
X127134Y229143D01*
X127043Y229290D01*
X126956Y229440D01*
X126872Y229591D01*
X126793Y229745D01*
X126717Y229901D01*
X126644Y230058D01*
X126576Y230217D01*
X126512Y230378D01*
X126452Y230541D01*
X126395Y230704D01*
X126343Y230869D01*
X126295Y231036D01*
X126250Y231203D01*
X126210Y231372D01*
X126175Y231541D01*
X126143Y231712D01*
X126115Y231883D01*
X126092Y232054D01*
X126073Y232226D01*
X126058Y232399D01*
X126048Y232572D01*
X126041Y232745D01*
X126039Y232918D01*
X151439Y232918D02*
X151441Y233091D01*
X151448Y233264D01*
X151458Y233437D01*
X151473Y233610D01*
X151492Y233782D01*
X151515Y233953D01*
X151543Y234124D01*
X151575Y234295D01*
X151610Y234464D01*
X151650Y234633D01*
X151695Y234800D01*
X151743Y234967D01*
X151795Y235132D01*
X151852Y235295D01*
X151912Y235458D01*
X151976Y235619D01*
X152044Y235778D01*
X152117Y235935D01*
X152193Y236091D01*
X152272Y236245D01*
X152356Y236396D01*
X152443Y236546D01*
X152534Y236693D01*
X152628Y236839D01*
X152726Y236981D01*
X152828Y237122D01*
X152933Y237260D01*
X153041Y237395D01*
X153152Y237527D01*
X153267Y237657D01*
X153385Y237784D01*
X153506Y237908D01*
X153630Y238029D01*
X153757Y238147D01*
X153887Y238262D01*
X154019Y238373D01*
X154154Y238481D01*
X154292Y238586D01*
X154433Y238688D01*
X154575Y238786D01*
X154721Y238880D01*
X154868Y238971D01*
X155018Y239058D01*
X155169Y239142D01*
X155323Y239221D01*
X155479Y239297D01*
X155636Y239370D01*
X155795Y239438D01*
X155956Y239502D01*
X156119Y239562D01*
X156282Y239619D01*
X156447Y239671D01*
X156614Y239719D01*
X156781Y239764D01*
X156950Y239804D01*
X157119Y239839D01*
X157290Y239871D01*
X157461Y239899D01*
X157632Y239922D01*
X157804Y239941D01*
X157977Y239956D01*
X158150Y239966D01*
X158323Y239973D01*
X158496Y239975D01*
X158669Y239973D01*
X158842Y239966D01*
X159015Y239956D01*
X159188Y239941D01*
X159360Y239922D01*
X159531Y239899D01*
X159702Y239871D01*
X159873Y239839D01*
X160042Y239804D01*
X160211Y239764D01*
X160378Y239719D01*
X160545Y239671D01*
X160710Y239619D01*
X160873Y239562D01*
X161036Y239502D01*
X161197Y239438D01*
X161356Y239370D01*
X161513Y239297D01*
X161669Y239221D01*
X161823Y239142D01*
X161974Y239058D01*
X162124Y238971D01*
X162271Y238880D01*
X162417Y238786D01*
X162559Y238688D01*
X162700Y238586D01*
X162838Y238481D01*
X162973Y238373D01*
X163105Y238262D01*
X163235Y238147D01*
X163362Y238029D01*
X163486Y237908D01*
X163607Y237784D01*
X163725Y237657D01*
X163840Y237527D01*
X163951Y237395D01*
X164059Y237260D01*
X164164Y237122D01*
X164266Y236981D01*
X164364Y236839D01*
X164458Y236693D01*
X164549Y236546D01*
X164636Y236396D01*
X164720Y236245D01*
X164799Y236091D01*
X164875Y235935D01*
X164948Y235778D01*
X165016Y235619D01*
X165080Y235458D01*
X165140Y235295D01*
X165197Y235132D01*
X165249Y234967D01*
X165297Y234800D01*
X165342Y234633D01*
X165382Y234464D01*
X165417Y234295D01*
X165449Y234124D01*
X165477Y233953D01*
X165500Y233782D01*
X165519Y233610D01*
X165534Y233437D01*
X165544Y233264D01*
X165551Y233091D01*
X165553Y232918D01*
X165551Y232745D01*
X165544Y232572D01*
X165534Y232399D01*
X165519Y232226D01*
X165500Y232054D01*
X165477Y231883D01*
X165449Y231712D01*
X165417Y231541D01*
X165382Y231372D01*
X165342Y231203D01*
X165297Y231036D01*
X165249Y230869D01*
X165197Y230704D01*
X165140Y230541D01*
X165080Y230378D01*
X165016Y230217D01*
X164948Y230058D01*
X164875Y229901D01*
X164799Y229745D01*
X164720Y229591D01*
X164636Y229440D01*
X164549Y229290D01*
X164458Y229143D01*
X164364Y228997D01*
X164266Y228855D01*
X164164Y228714D01*
X164059Y228576D01*
X163951Y228441D01*
X163840Y228309D01*
X163725Y228179D01*
X163607Y228052D01*
X163486Y227928D01*
X163362Y227807D01*
X163235Y227689D01*
X163105Y227574D01*
X162973Y227463D01*
X162838Y227355D01*
X162700Y227250D01*
X162559Y227148D01*
X162417Y227050D01*
X162271Y226956D01*
X162124Y226865D01*
X161974Y226778D01*
X161823Y226694D01*
X161669Y226615D01*
X161513Y226539D01*
X161356Y226466D01*
X161197Y226398D01*
X161036Y226334D01*
X160873Y226274D01*
X160710Y226217D01*
X160545Y226165D01*
X160378Y226117D01*
X160211Y226072D01*
X160042Y226032D01*
X159873Y225997D01*
X159702Y225965D01*
X159531Y225937D01*
X159360Y225914D01*
X159188Y225895D01*
X159015Y225880D01*
X158842Y225870D01*
X158669Y225863D01*
X158496Y225861D01*
X158323Y225863D01*
X158150Y225870D01*
X157977Y225880D01*
X157804Y225895D01*
X157632Y225914D01*
X157461Y225937D01*
X157290Y225965D01*
X157119Y225997D01*
X156950Y226032D01*
X156781Y226072D01*
X156614Y226117D01*
X156447Y226165D01*
X156282Y226217D01*
X156119Y226274D01*
X155956Y226334D01*
X155795Y226398D01*
X155636Y226466D01*
X155479Y226539D01*
X155323Y226615D01*
X155169Y226694D01*
X155018Y226778D01*
X154868Y226865D01*
X154721Y226956D01*
X154575Y227050D01*
X154433Y227148D01*
X154292Y227250D01*
X154154Y227355D01*
X154019Y227463D01*
X153887Y227574D01*
X153757Y227689D01*
X153630Y227807D01*
X153506Y227928D01*
X153385Y228052D01*
X153267Y228179D01*
X153152Y228309D01*
X153041Y228441D01*
X152933Y228576D01*
X152828Y228714D01*
X152726Y228855D01*
X152628Y228997D01*
X152534Y229143D01*
X152443Y229290D01*
X152356Y229440D01*
X152272Y229591D01*
X152193Y229745D01*
X152117Y229901D01*
X152044Y230058D01*
X151976Y230217D01*
X151912Y230378D01*
X151852Y230541D01*
X151795Y230704D01*
X151743Y230869D01*
X151695Y231036D01*
X151650Y231203D01*
X151610Y231372D01*
X151575Y231541D01*
X151543Y231712D01*
X151515Y231883D01*
X151492Y232054D01*
X151473Y232226D01*
X151458Y232399D01*
X151448Y232572D01*
X151441Y232745D01*
X151439Y232918D01*
X126039Y207518D02*
X126041Y207691D01*
X126048Y207864D01*
X126058Y208037D01*
X126073Y208210D01*
X126092Y208382D01*
X126115Y208553D01*
X126143Y208724D01*
X126175Y208895D01*
X126210Y209064D01*
X126250Y209233D01*
X126295Y209400D01*
X126343Y209567D01*
X126395Y209732D01*
X126452Y209895D01*
X126512Y210058D01*
X126576Y210219D01*
X126644Y210378D01*
X126717Y210535D01*
X126793Y210691D01*
X126872Y210845D01*
X126956Y210996D01*
X127043Y211146D01*
X127134Y211293D01*
X127228Y211439D01*
X127326Y211581D01*
X127428Y211722D01*
X127533Y211860D01*
X127641Y211995D01*
X127752Y212127D01*
X127867Y212257D01*
X127985Y212384D01*
X128106Y212508D01*
X128230Y212629D01*
X128357Y212747D01*
X128487Y212862D01*
X128619Y212973D01*
X128754Y213081D01*
X128892Y213186D01*
X129033Y213288D01*
X129175Y213386D01*
X129321Y213480D01*
X129468Y213571D01*
X129618Y213658D01*
X129769Y213742D01*
X129923Y213821D01*
X130079Y213897D01*
X130236Y213970D01*
X130395Y214038D01*
X130556Y214102D01*
X130719Y214162D01*
X130882Y214219D01*
X131047Y214271D01*
X131214Y214319D01*
X131381Y214364D01*
X131550Y214404D01*
X131719Y214439D01*
X131890Y214471D01*
X132061Y214499D01*
X132232Y214522D01*
X132404Y214541D01*
X132577Y214556D01*
X132750Y214566D01*
X132923Y214573D01*
X133096Y214575D01*
X133269Y214573D01*
X133442Y214566D01*
X133615Y214556D01*
X133788Y214541D01*
X133960Y214522D01*
X134131Y214499D01*
X134302Y214471D01*
X134473Y214439D01*
X134642Y214404D01*
X134811Y214364D01*
X134978Y214319D01*
X135145Y214271D01*
X135310Y214219D01*
X135473Y214162D01*
X135636Y214102D01*
X135797Y214038D01*
X135956Y213970D01*
X136113Y213897D01*
X136269Y213821D01*
X136423Y213742D01*
X136574Y213658D01*
X136724Y213571D01*
X136871Y213480D01*
X137017Y213386D01*
X137159Y213288D01*
X137300Y213186D01*
X137438Y213081D01*
X137573Y212973D01*
X137705Y212862D01*
X137835Y212747D01*
X137962Y212629D01*
X138086Y212508D01*
X138207Y212384D01*
X138325Y212257D01*
X138440Y212127D01*
X138551Y211995D01*
X138659Y211860D01*
X138764Y211722D01*
X138866Y211581D01*
X138964Y211439D01*
X139058Y211293D01*
X139149Y211146D01*
X139236Y210996D01*
X139320Y210845D01*
X139399Y210691D01*
X139475Y210535D01*
X139548Y210378D01*
X139616Y210219D01*
X139680Y210058D01*
X139740Y209895D01*
X139797Y209732D01*
X139849Y209567D01*
X139897Y209400D01*
X139942Y209233D01*
X139982Y209064D01*
X140017Y208895D01*
X140049Y208724D01*
X140077Y208553D01*
X140100Y208382D01*
X140119Y208210D01*
X140134Y208037D01*
X140144Y207864D01*
X140151Y207691D01*
X140153Y207518D01*
X140151Y207345D01*
X140144Y207172D01*
X140134Y206999D01*
X140119Y206826D01*
X140100Y206654D01*
X140077Y206483D01*
X140049Y206312D01*
X140017Y206141D01*
X139982Y205972D01*
X139942Y205803D01*
X139897Y205636D01*
X139849Y205469D01*
X139797Y205304D01*
X139740Y205141D01*
X139680Y204978D01*
X139616Y204817D01*
X139548Y204658D01*
X139475Y204501D01*
X139399Y204345D01*
X139320Y204191D01*
X139236Y204040D01*
X139149Y203890D01*
X139058Y203743D01*
X138964Y203597D01*
X138866Y203455D01*
X138764Y203314D01*
X138659Y203176D01*
X138551Y203041D01*
X138440Y202909D01*
X138325Y202779D01*
X138207Y202652D01*
X138086Y202528D01*
X137962Y202407D01*
X137835Y202289D01*
X137705Y202174D01*
X137573Y202063D01*
X137438Y201955D01*
X137300Y201850D01*
X137159Y201748D01*
X137017Y201650D01*
X136871Y201556D01*
X136724Y201465D01*
X136574Y201378D01*
X136423Y201294D01*
X136269Y201215D01*
X136113Y201139D01*
X135956Y201066D01*
X135797Y200998D01*
X135636Y200934D01*
X135473Y200874D01*
X135310Y200817D01*
X135145Y200765D01*
X134978Y200717D01*
X134811Y200672D01*
X134642Y200632D01*
X134473Y200597D01*
X134302Y200565D01*
X134131Y200537D01*
X133960Y200514D01*
X133788Y200495D01*
X133615Y200480D01*
X133442Y200470D01*
X133269Y200463D01*
X133096Y200461D01*
X132923Y200463D01*
X132750Y200470D01*
X132577Y200480D01*
X132404Y200495D01*
X132232Y200514D01*
X132061Y200537D01*
X131890Y200565D01*
X131719Y200597D01*
X131550Y200632D01*
X131381Y200672D01*
X131214Y200717D01*
X131047Y200765D01*
X130882Y200817D01*
X130719Y200874D01*
X130556Y200934D01*
X130395Y200998D01*
X130236Y201066D01*
X130079Y201139D01*
X129923Y201215D01*
X129769Y201294D01*
X129618Y201378D01*
X129468Y201465D01*
X129321Y201556D01*
X129175Y201650D01*
X129033Y201748D01*
X128892Y201850D01*
X128754Y201955D01*
X128619Y202063D01*
X128487Y202174D01*
X128357Y202289D01*
X128230Y202407D01*
X128106Y202528D01*
X127985Y202652D01*
X127867Y202779D01*
X127752Y202909D01*
X127641Y203041D01*
X127533Y203176D01*
X127428Y203314D01*
X127326Y203455D01*
X127228Y203597D01*
X127134Y203743D01*
X127043Y203890D01*
X126956Y204040D01*
X126872Y204191D01*
X126793Y204345D01*
X126717Y204501D01*
X126644Y204658D01*
X126576Y204817D01*
X126512Y204978D01*
X126452Y205141D01*
X126395Y205304D01*
X126343Y205469D01*
X126295Y205636D01*
X126250Y205803D01*
X126210Y205972D01*
X126175Y206141D01*
X126143Y206312D01*
X126115Y206483D01*
X126092Y206654D01*
X126073Y206826D01*
X126058Y206999D01*
X126048Y207172D01*
X126041Y207345D01*
X126039Y207518D01*
X151439Y207518D02*
X151441Y207691D01*
X151448Y207864D01*
X151458Y208037D01*
X151473Y208210D01*
X151492Y208382D01*
X151515Y208553D01*
X151543Y208724D01*
X151575Y208895D01*
X151610Y209064D01*
X151650Y209233D01*
X151695Y209400D01*
X151743Y209567D01*
X151795Y209732D01*
X151852Y209895D01*
X151912Y210058D01*
X151976Y210219D01*
X152044Y210378D01*
X152117Y210535D01*
X152193Y210691D01*
X152272Y210845D01*
X152356Y210996D01*
X152443Y211146D01*
X152534Y211293D01*
X152628Y211439D01*
X152726Y211581D01*
X152828Y211722D01*
X152933Y211860D01*
X153041Y211995D01*
X153152Y212127D01*
X153267Y212257D01*
X153385Y212384D01*
X153506Y212508D01*
X153630Y212629D01*
X153757Y212747D01*
X153887Y212862D01*
X154019Y212973D01*
X154154Y213081D01*
X154292Y213186D01*
X154433Y213288D01*
X154575Y213386D01*
X154721Y213480D01*
X154868Y213571D01*
X155018Y213658D01*
X155169Y213742D01*
X155323Y213821D01*
X155479Y213897D01*
X155636Y213970D01*
X155795Y214038D01*
X155956Y214102D01*
X156119Y214162D01*
X156282Y214219D01*
X156447Y214271D01*
X156614Y214319D01*
X156781Y214364D01*
X156950Y214404D01*
X157119Y214439D01*
X157290Y214471D01*
X157461Y214499D01*
X157632Y214522D01*
X157804Y214541D01*
X157977Y214556D01*
X158150Y214566D01*
X158323Y214573D01*
X158496Y214575D01*
X158669Y214573D01*
X158842Y214566D01*
X159015Y214556D01*
X159188Y214541D01*
X159360Y214522D01*
X159531Y214499D01*
X159702Y214471D01*
X159873Y214439D01*
X160042Y214404D01*
X160211Y214364D01*
X160378Y214319D01*
X160545Y214271D01*
X160710Y214219D01*
X160873Y214162D01*
X161036Y214102D01*
X161197Y214038D01*
X161356Y213970D01*
X161513Y213897D01*
X161669Y213821D01*
X161823Y213742D01*
X161974Y213658D01*
X162124Y213571D01*
X162271Y213480D01*
X162417Y213386D01*
X162559Y213288D01*
X162700Y213186D01*
X162838Y213081D01*
X162973Y212973D01*
X163105Y212862D01*
X163235Y212747D01*
X163362Y212629D01*
X163486Y212508D01*
X163607Y212384D01*
X163725Y212257D01*
X163840Y212127D01*
X163951Y211995D01*
X164059Y211860D01*
X164164Y211722D01*
X164266Y211581D01*
X164364Y211439D01*
X164458Y211293D01*
X164549Y211146D01*
X164636Y210996D01*
X164720Y210845D01*
X164799Y210691D01*
X164875Y210535D01*
X164948Y210378D01*
X165016Y210219D01*
X165080Y210058D01*
X165140Y209895D01*
X165197Y209732D01*
X165249Y209567D01*
X165297Y209400D01*
X165342Y209233D01*
X165382Y209064D01*
X165417Y208895D01*
X165449Y208724D01*
X165477Y208553D01*
X165500Y208382D01*
X165519Y208210D01*
X165534Y208037D01*
X165544Y207864D01*
X165551Y207691D01*
X165553Y207518D01*
X165551Y207345D01*
X165544Y207172D01*
X165534Y206999D01*
X165519Y206826D01*
X165500Y206654D01*
X165477Y206483D01*
X165449Y206312D01*
X165417Y206141D01*
X165382Y205972D01*
X165342Y205803D01*
X165297Y205636D01*
X165249Y205469D01*
X165197Y205304D01*
X165140Y205141D01*
X165080Y204978D01*
X165016Y204817D01*
X164948Y204658D01*
X164875Y204501D01*
X164799Y204345D01*
X164720Y204191D01*
X164636Y204040D01*
X164549Y203890D01*
X164458Y203743D01*
X164364Y203597D01*
X164266Y203455D01*
X164164Y203314D01*
X164059Y203176D01*
X163951Y203041D01*
X163840Y202909D01*
X163725Y202779D01*
X163607Y202652D01*
X163486Y202528D01*
X163362Y202407D01*
X163235Y202289D01*
X163105Y202174D01*
X162973Y202063D01*
X162838Y201955D01*
X162700Y201850D01*
X162559Y201748D01*
X162417Y201650D01*
X162271Y201556D01*
X162124Y201465D01*
X161974Y201378D01*
X161823Y201294D01*
X161669Y201215D01*
X161513Y201139D01*
X161356Y201066D01*
X161197Y200998D01*
X161036Y200934D01*
X160873Y200874D01*
X160710Y200817D01*
X160545Y200765D01*
X160378Y200717D01*
X160211Y200672D01*
X160042Y200632D01*
X159873Y200597D01*
X159702Y200565D01*
X159531Y200537D01*
X159360Y200514D01*
X159188Y200495D01*
X159015Y200480D01*
X158842Y200470D01*
X158669Y200463D01*
X158496Y200461D01*
X158323Y200463D01*
X158150Y200470D01*
X157977Y200480D01*
X157804Y200495D01*
X157632Y200514D01*
X157461Y200537D01*
X157290Y200565D01*
X157119Y200597D01*
X156950Y200632D01*
X156781Y200672D01*
X156614Y200717D01*
X156447Y200765D01*
X156282Y200817D01*
X156119Y200874D01*
X155956Y200934D01*
X155795Y200998D01*
X155636Y201066D01*
X155479Y201139D01*
X155323Y201215D01*
X155169Y201294D01*
X155018Y201378D01*
X154868Y201465D01*
X154721Y201556D01*
X154575Y201650D01*
X154433Y201748D01*
X154292Y201850D01*
X154154Y201955D01*
X154019Y202063D01*
X153887Y202174D01*
X153757Y202289D01*
X153630Y202407D01*
X153506Y202528D01*
X153385Y202652D01*
X153267Y202779D01*
X153152Y202909D01*
X153041Y203041D01*
X152933Y203176D01*
X152828Y203314D01*
X152726Y203455D01*
X152628Y203597D01*
X152534Y203743D01*
X152443Y203890D01*
X152356Y204040D01*
X152272Y204191D01*
X152193Y204345D01*
X152117Y204501D01*
X152044Y204658D01*
X151976Y204817D01*
X151912Y204978D01*
X151852Y205141D01*
X151795Y205304D01*
X151743Y205469D01*
X151695Y205636D01*
X151650Y205803D01*
X151610Y205972D01*
X151575Y206141D01*
X151543Y206312D01*
X151515Y206483D01*
X151492Y206654D01*
X151473Y206826D01*
X151458Y206999D01*
X151448Y207172D01*
X151441Y207345D01*
X151439Y207518D01*
X126039Y182118D02*
X126041Y182291D01*
X126048Y182464D01*
X126058Y182637D01*
X126073Y182810D01*
X126092Y182982D01*
X126115Y183153D01*
X126143Y183324D01*
X126175Y183495D01*
X126210Y183664D01*
X126250Y183833D01*
X126295Y184000D01*
X126343Y184167D01*
X126395Y184332D01*
X126452Y184495D01*
X126512Y184658D01*
X126576Y184819D01*
X126644Y184978D01*
X126717Y185135D01*
X126793Y185291D01*
X126872Y185445D01*
X126956Y185596D01*
X127043Y185746D01*
X127134Y185893D01*
X127228Y186039D01*
X127326Y186181D01*
X127428Y186322D01*
X127533Y186460D01*
X127641Y186595D01*
X127752Y186727D01*
X127867Y186857D01*
X127985Y186984D01*
X128106Y187108D01*
X128230Y187229D01*
X128357Y187347D01*
X128487Y187462D01*
X128619Y187573D01*
X128754Y187681D01*
X128892Y187786D01*
X129033Y187888D01*
X129175Y187986D01*
X129321Y188080D01*
X129468Y188171D01*
X129618Y188258D01*
X129769Y188342D01*
X129923Y188421D01*
X130079Y188497D01*
X130236Y188570D01*
X130395Y188638D01*
X130556Y188702D01*
X130719Y188762D01*
X130882Y188819D01*
X131047Y188871D01*
X131214Y188919D01*
X131381Y188964D01*
X131550Y189004D01*
X131719Y189039D01*
X131890Y189071D01*
X132061Y189099D01*
X132232Y189122D01*
X132404Y189141D01*
X132577Y189156D01*
X132750Y189166D01*
X132923Y189173D01*
X133096Y189175D01*
X133269Y189173D01*
X133442Y189166D01*
X133615Y189156D01*
X133788Y189141D01*
X133960Y189122D01*
X134131Y189099D01*
X134302Y189071D01*
X134473Y189039D01*
X134642Y189004D01*
X134811Y188964D01*
X134978Y188919D01*
X135145Y188871D01*
X135310Y188819D01*
X135473Y188762D01*
X135636Y188702D01*
X135797Y188638D01*
X135956Y188570D01*
X136113Y188497D01*
X136269Y188421D01*
X136423Y188342D01*
X136574Y188258D01*
X136724Y188171D01*
X136871Y188080D01*
X137017Y187986D01*
X137159Y187888D01*
X137300Y187786D01*
X137438Y187681D01*
X137573Y187573D01*
X137705Y187462D01*
X137835Y187347D01*
X137962Y187229D01*
X138086Y187108D01*
X138207Y186984D01*
X138325Y186857D01*
X138440Y186727D01*
X138551Y186595D01*
X138659Y186460D01*
X138764Y186322D01*
X138866Y186181D01*
X138964Y186039D01*
X139058Y185893D01*
X139149Y185746D01*
X139236Y185596D01*
X139320Y185445D01*
X139399Y185291D01*
X139475Y185135D01*
X139548Y184978D01*
X139616Y184819D01*
X139680Y184658D01*
X139740Y184495D01*
X139797Y184332D01*
X139849Y184167D01*
X139897Y184000D01*
X139942Y183833D01*
X139982Y183664D01*
X140017Y183495D01*
X140049Y183324D01*
X140077Y183153D01*
X140100Y182982D01*
X140119Y182810D01*
X140134Y182637D01*
X140144Y182464D01*
X140151Y182291D01*
X140153Y182118D01*
X140151Y181945D01*
X140144Y181772D01*
X140134Y181599D01*
X140119Y181426D01*
X140100Y181254D01*
X140077Y181083D01*
X140049Y180912D01*
X140017Y180741D01*
X139982Y180572D01*
X139942Y180403D01*
X139897Y180236D01*
X139849Y180069D01*
X139797Y179904D01*
X139740Y179741D01*
X139680Y179578D01*
X139616Y179417D01*
X139548Y179258D01*
X139475Y179101D01*
X139399Y178945D01*
X139320Y178791D01*
X139236Y178640D01*
X139149Y178490D01*
X139058Y178343D01*
X138964Y178197D01*
X138866Y178055D01*
X138764Y177914D01*
X138659Y177776D01*
X138551Y177641D01*
X138440Y177509D01*
X138325Y177379D01*
X138207Y177252D01*
X138086Y177128D01*
X137962Y177007D01*
X137835Y176889D01*
X137705Y176774D01*
X137573Y176663D01*
X137438Y176555D01*
X137300Y176450D01*
X137159Y176348D01*
X137017Y176250D01*
X136871Y176156D01*
X136724Y176065D01*
X136574Y175978D01*
X136423Y175894D01*
X136269Y175815D01*
X136113Y175739D01*
X135956Y175666D01*
X135797Y175598D01*
X135636Y175534D01*
X135473Y175474D01*
X135310Y175417D01*
X135145Y175365D01*
X134978Y175317D01*
X134811Y175272D01*
X134642Y175232D01*
X134473Y175197D01*
X134302Y175165D01*
X134131Y175137D01*
X133960Y175114D01*
X133788Y175095D01*
X133615Y175080D01*
X133442Y175070D01*
X133269Y175063D01*
X133096Y175061D01*
X132923Y175063D01*
X132750Y175070D01*
X132577Y175080D01*
X132404Y175095D01*
X132232Y175114D01*
X132061Y175137D01*
X131890Y175165D01*
X131719Y175197D01*
X131550Y175232D01*
X131381Y175272D01*
X131214Y175317D01*
X131047Y175365D01*
X130882Y175417D01*
X130719Y175474D01*
X130556Y175534D01*
X130395Y175598D01*
X130236Y175666D01*
X130079Y175739D01*
X129923Y175815D01*
X129769Y175894D01*
X129618Y175978D01*
X129468Y176065D01*
X129321Y176156D01*
X129175Y176250D01*
X129033Y176348D01*
X128892Y176450D01*
X128754Y176555D01*
X128619Y176663D01*
X128487Y176774D01*
X128357Y176889D01*
X128230Y177007D01*
X128106Y177128D01*
X127985Y177252D01*
X127867Y177379D01*
X127752Y177509D01*
X127641Y177641D01*
X127533Y177776D01*
X127428Y177914D01*
X127326Y178055D01*
X127228Y178197D01*
X127134Y178343D01*
X127043Y178490D01*
X126956Y178640D01*
X126872Y178791D01*
X126793Y178945D01*
X126717Y179101D01*
X126644Y179258D01*
X126576Y179417D01*
X126512Y179578D01*
X126452Y179741D01*
X126395Y179904D01*
X126343Y180069D01*
X126295Y180236D01*
X126250Y180403D01*
X126210Y180572D01*
X126175Y180741D01*
X126143Y180912D01*
X126115Y181083D01*
X126092Y181254D01*
X126073Y181426D01*
X126058Y181599D01*
X126048Y181772D01*
X126041Y181945D01*
X126039Y182118D01*
X151439Y182118D02*
X151441Y182291D01*
X151448Y182464D01*
X151458Y182637D01*
X151473Y182810D01*
X151492Y182982D01*
X151515Y183153D01*
X151543Y183324D01*
X151575Y183495D01*
X151610Y183664D01*
X151650Y183833D01*
X151695Y184000D01*
X151743Y184167D01*
X151795Y184332D01*
X151852Y184495D01*
X151912Y184658D01*
X151976Y184819D01*
X152044Y184978D01*
X152117Y185135D01*
X152193Y185291D01*
X152272Y185445D01*
X152356Y185596D01*
X152443Y185746D01*
X152534Y185893D01*
X152628Y186039D01*
X152726Y186181D01*
X152828Y186322D01*
X152933Y186460D01*
X153041Y186595D01*
X153152Y186727D01*
X153267Y186857D01*
X153385Y186984D01*
X153506Y187108D01*
X153630Y187229D01*
X153757Y187347D01*
X153887Y187462D01*
X154019Y187573D01*
X154154Y187681D01*
X154292Y187786D01*
X154433Y187888D01*
X154575Y187986D01*
X154721Y188080D01*
X154868Y188171D01*
X155018Y188258D01*
X155169Y188342D01*
X155323Y188421D01*
X155479Y188497D01*
X155636Y188570D01*
X155795Y188638D01*
X155956Y188702D01*
X156119Y188762D01*
X156282Y188819D01*
X156447Y188871D01*
X156614Y188919D01*
X156781Y188964D01*
X156950Y189004D01*
X157119Y189039D01*
X157290Y189071D01*
X157461Y189099D01*
X157632Y189122D01*
X157804Y189141D01*
X157977Y189156D01*
X158150Y189166D01*
X158323Y189173D01*
X158496Y189175D01*
X158669Y189173D01*
X158842Y189166D01*
X159015Y189156D01*
X159188Y189141D01*
X159360Y189122D01*
X159531Y189099D01*
X159702Y189071D01*
X159873Y189039D01*
X160042Y189004D01*
X160211Y188964D01*
X160378Y188919D01*
X160545Y188871D01*
X160710Y188819D01*
X160873Y188762D01*
X161036Y188702D01*
X161197Y188638D01*
X161356Y188570D01*
X161513Y188497D01*
X161669Y188421D01*
X161823Y188342D01*
X161974Y188258D01*
X162124Y188171D01*
X162271Y188080D01*
X162417Y187986D01*
X162559Y187888D01*
X162700Y187786D01*
X162838Y187681D01*
X162973Y187573D01*
X163105Y187462D01*
X163235Y187347D01*
X163362Y187229D01*
X163486Y187108D01*
X163607Y186984D01*
X163725Y186857D01*
X163840Y186727D01*
X163951Y186595D01*
X164059Y186460D01*
X164164Y186322D01*
X164266Y186181D01*
X164364Y186039D01*
X164458Y185893D01*
X164549Y185746D01*
X164636Y185596D01*
X164720Y185445D01*
X164799Y185291D01*
X164875Y185135D01*
X164948Y184978D01*
X165016Y184819D01*
X165080Y184658D01*
X165140Y184495D01*
X165197Y184332D01*
X165249Y184167D01*
X165297Y184000D01*
X165342Y183833D01*
X165382Y183664D01*
X165417Y183495D01*
X165449Y183324D01*
X165477Y183153D01*
X165500Y182982D01*
X165519Y182810D01*
X165534Y182637D01*
X165544Y182464D01*
X165551Y182291D01*
X165553Y182118D01*
X165551Y181945D01*
X165544Y181772D01*
X165534Y181599D01*
X165519Y181426D01*
X165500Y181254D01*
X165477Y181083D01*
X165449Y180912D01*
X165417Y180741D01*
X165382Y180572D01*
X165342Y180403D01*
X165297Y180236D01*
X165249Y180069D01*
X165197Y179904D01*
X165140Y179741D01*
X165080Y179578D01*
X165016Y179417D01*
X164948Y179258D01*
X164875Y179101D01*
X164799Y178945D01*
X164720Y178791D01*
X164636Y178640D01*
X164549Y178490D01*
X164458Y178343D01*
X164364Y178197D01*
X164266Y178055D01*
X164164Y177914D01*
X164059Y177776D01*
X163951Y177641D01*
X163840Y177509D01*
X163725Y177379D01*
X163607Y177252D01*
X163486Y177128D01*
X163362Y177007D01*
X163235Y176889D01*
X163105Y176774D01*
X162973Y176663D01*
X162838Y176555D01*
X162700Y176450D01*
X162559Y176348D01*
X162417Y176250D01*
X162271Y176156D01*
X162124Y176065D01*
X161974Y175978D01*
X161823Y175894D01*
X161669Y175815D01*
X161513Y175739D01*
X161356Y175666D01*
X161197Y175598D01*
X161036Y175534D01*
X160873Y175474D01*
X160710Y175417D01*
X160545Y175365D01*
X160378Y175317D01*
X160211Y175272D01*
X160042Y175232D01*
X159873Y175197D01*
X159702Y175165D01*
X159531Y175137D01*
X159360Y175114D01*
X159188Y175095D01*
X159015Y175080D01*
X158842Y175070D01*
X158669Y175063D01*
X158496Y175061D01*
X158323Y175063D01*
X158150Y175070D01*
X157977Y175080D01*
X157804Y175095D01*
X157632Y175114D01*
X157461Y175137D01*
X157290Y175165D01*
X157119Y175197D01*
X156950Y175232D01*
X156781Y175272D01*
X156614Y175317D01*
X156447Y175365D01*
X156282Y175417D01*
X156119Y175474D01*
X155956Y175534D01*
X155795Y175598D01*
X155636Y175666D01*
X155479Y175739D01*
X155323Y175815D01*
X155169Y175894D01*
X155018Y175978D01*
X154868Y176065D01*
X154721Y176156D01*
X154575Y176250D01*
X154433Y176348D01*
X154292Y176450D01*
X154154Y176555D01*
X154019Y176663D01*
X153887Y176774D01*
X153757Y176889D01*
X153630Y177007D01*
X153506Y177128D01*
X153385Y177252D01*
X153267Y177379D01*
X153152Y177509D01*
X153041Y177641D01*
X152933Y177776D01*
X152828Y177914D01*
X152726Y178055D01*
X152628Y178197D01*
X152534Y178343D01*
X152443Y178490D01*
X152356Y178640D01*
X152272Y178791D01*
X152193Y178945D01*
X152117Y179101D01*
X152044Y179258D01*
X151976Y179417D01*
X151912Y179578D01*
X151852Y179741D01*
X151795Y179904D01*
X151743Y180069D01*
X151695Y180236D01*
X151650Y180403D01*
X151610Y180572D01*
X151575Y180741D01*
X151543Y180912D01*
X151515Y181083D01*
X151492Y181254D01*
X151473Y181426D01*
X151458Y181599D01*
X151448Y181772D01*
X151441Y181945D01*
X151439Y182118D01*
X340164Y159004D02*
X340166Y159159D01*
X340172Y159314D01*
X340182Y159468D01*
X340196Y159622D01*
X340214Y159776D01*
X340235Y159929D01*
X340261Y160082D01*
X340291Y160234D01*
X340324Y160385D01*
X340361Y160536D01*
X340403Y160685D01*
X340448Y160833D01*
X340496Y160980D01*
X340549Y161126D01*
X340605Y161270D01*
X340665Y161413D01*
X340729Y161554D01*
X340796Y161693D01*
X340867Y161831D01*
X340941Y161967D01*
X341019Y162101D01*
X341100Y162233D01*
X341184Y162363D01*
X341272Y162490D01*
X341363Y162615D01*
X341457Y162738D01*
X341555Y162859D01*
X341655Y162977D01*
X341758Y163092D01*
X341865Y163205D01*
X341974Y163314D01*
X342086Y163421D01*
X342200Y163525D01*
X342318Y163627D01*
X342437Y163725D01*
X342560Y163820D01*
X342684Y163911D01*
X342811Y164000D01*
X342941Y164085D01*
X343072Y164167D01*
X343205Y164246D01*
X343341Y164321D01*
X343478Y164393D01*
X343617Y164461D01*
X343758Y164525D01*
X343900Y164586D01*
X344044Y164643D01*
X344190Y164697D01*
X344336Y164746D01*
X344484Y164792D01*
X344633Y164835D01*
X344783Y164873D01*
X344934Y164907D01*
X345086Y164938D01*
X345238Y164965D01*
X345391Y164987D01*
X345545Y165006D01*
X345699Y165021D01*
X345854Y165032D01*
X346008Y165039D01*
X346163Y165042D01*
X346318Y165041D01*
X346473Y165036D01*
X346627Y165027D01*
X346782Y165014D01*
X346936Y164997D01*
X347089Y164976D01*
X347242Y164952D01*
X347394Y164923D01*
X347546Y164891D01*
X347696Y164854D01*
X347846Y164814D01*
X347994Y164770D01*
X348141Y164722D01*
X348287Y164670D01*
X348432Y164615D01*
X348575Y164556D01*
X348717Y164493D01*
X348857Y164427D01*
X348995Y164357D01*
X349131Y164284D01*
X349266Y164207D01*
X349398Y164127D01*
X349528Y164043D01*
X349656Y163956D01*
X349782Y163866D01*
X349906Y163773D01*
X350027Y163676D01*
X350145Y163576D01*
X350261Y163474D01*
X350375Y163368D01*
X350485Y163260D01*
X350593Y163149D01*
X350698Y163035D01*
X350800Y162918D01*
X350898Y162799D01*
X350994Y162677D01*
X351087Y162553D01*
X351176Y162427D01*
X351262Y162298D01*
X351345Y162167D01*
X351425Y162034D01*
X351501Y161899D01*
X351573Y161762D01*
X351642Y161624D01*
X351707Y161483D01*
X351769Y161341D01*
X351827Y161198D01*
X351882Y161053D01*
X351932Y160907D01*
X351979Y160759D01*
X352022Y160610D01*
X352062Y160461D01*
X352097Y160310D01*
X352129Y160158D01*
X352156Y160006D01*
X352180Y159853D01*
X352200Y159699D01*
X352216Y159545D01*
X352228Y159391D01*
X352236Y159236D01*
X352240Y159081D01*
X352240Y158927D01*
X352236Y158772D01*
X352228Y158617D01*
X352216Y158463D01*
X352200Y158309D01*
X352180Y158155D01*
X352156Y158002D01*
X352129Y157850D01*
X352097Y157698D01*
X352062Y157547D01*
X352022Y157398D01*
X351979Y157249D01*
X351932Y157101D01*
X351882Y156955D01*
X351827Y156810D01*
X351769Y156667D01*
X351707Y156525D01*
X351642Y156384D01*
X351573Y156246D01*
X351501Y156109D01*
X351425Y155974D01*
X351345Y155841D01*
X351262Y155710D01*
X351176Y155581D01*
X351087Y155455D01*
X350994Y155331D01*
X350898Y155209D01*
X350800Y155090D01*
X350698Y154973D01*
X350593Y154859D01*
X350485Y154748D01*
X350375Y154640D01*
X350261Y154534D01*
X350145Y154432D01*
X350027Y154332D01*
X349906Y154235D01*
X349782Y154142D01*
X349656Y154052D01*
X349528Y153965D01*
X349398Y153881D01*
X349266Y153801D01*
X349131Y153724D01*
X348995Y153651D01*
X348857Y153581D01*
X348717Y153515D01*
X348575Y153452D01*
X348432Y153393D01*
X348287Y153338D01*
X348141Y153286D01*
X347994Y153238D01*
X347846Y153194D01*
X347696Y153154D01*
X347546Y153117D01*
X347394Y153085D01*
X347242Y153056D01*
X347089Y153032D01*
X346936Y153011D01*
X346782Y152994D01*
X346627Y152981D01*
X346473Y152972D01*
X346318Y152967D01*
X346163Y152966D01*
X346008Y152969D01*
X345854Y152976D01*
X345699Y152987D01*
X345545Y153002D01*
X345391Y153021D01*
X345238Y153043D01*
X345086Y153070D01*
X344934Y153101D01*
X344783Y153135D01*
X344633Y153173D01*
X344484Y153216D01*
X344336Y153262D01*
X344190Y153311D01*
X344044Y153365D01*
X343900Y153422D01*
X343758Y153483D01*
X343617Y153547D01*
X343478Y153615D01*
X343341Y153687D01*
X343205Y153762D01*
X343072Y153841D01*
X342941Y153923D01*
X342811Y154008D01*
X342684Y154097D01*
X342560Y154188D01*
X342437Y154283D01*
X342318Y154381D01*
X342200Y154483D01*
X342086Y154587D01*
X341974Y154694D01*
X341865Y154803D01*
X341758Y154916D01*
X341655Y155031D01*
X341555Y155149D01*
X341457Y155270D01*
X341363Y155393D01*
X341272Y155518D01*
X341184Y155645D01*
X341100Y155775D01*
X341019Y155907D01*
X340941Y156041D01*
X340867Y156177D01*
X340796Y156315D01*
X340729Y156454D01*
X340665Y156595D01*
X340605Y156738D01*
X340549Y156882D01*
X340496Y157028D01*
X340448Y157175D01*
X340403Y157323D01*
X340361Y157472D01*
X340324Y157623D01*
X340291Y157774D01*
X340261Y157926D01*
X340235Y158079D01*
X340214Y158232D01*
X340196Y158386D01*
X340182Y158540D01*
X340172Y158694D01*
X340166Y158849D01*
X340164Y159004D01*
X356674Y133858D02*
X356676Y134013D01*
X356682Y134168D01*
X356692Y134322D01*
X356706Y134476D01*
X356724Y134630D01*
X356745Y134783D01*
X356771Y134936D01*
X356801Y135088D01*
X356834Y135239D01*
X356871Y135390D01*
X356913Y135539D01*
X356958Y135687D01*
X357006Y135834D01*
X357059Y135980D01*
X357115Y136124D01*
X357175Y136267D01*
X357239Y136408D01*
X357306Y136547D01*
X357377Y136685D01*
X357451Y136821D01*
X357529Y136955D01*
X357610Y137087D01*
X357694Y137217D01*
X357782Y137344D01*
X357873Y137469D01*
X357967Y137592D01*
X358065Y137713D01*
X358165Y137831D01*
X358268Y137946D01*
X358375Y138059D01*
X358484Y138168D01*
X358596Y138275D01*
X358710Y138379D01*
X358828Y138481D01*
X358947Y138579D01*
X359070Y138674D01*
X359194Y138765D01*
X359321Y138854D01*
X359451Y138939D01*
X359582Y139021D01*
X359715Y139100D01*
X359851Y139175D01*
X359988Y139247D01*
X360127Y139315D01*
X360268Y139379D01*
X360410Y139440D01*
X360554Y139497D01*
X360700Y139551D01*
X360846Y139600D01*
X360994Y139646D01*
X361143Y139689D01*
X361293Y139727D01*
X361444Y139761D01*
X361596Y139792D01*
X361748Y139819D01*
X361901Y139841D01*
X362055Y139860D01*
X362209Y139875D01*
X362364Y139886D01*
X362518Y139893D01*
X362673Y139896D01*
X362828Y139895D01*
X362983Y139890D01*
X363137Y139881D01*
X363292Y139868D01*
X363446Y139851D01*
X363599Y139830D01*
X363752Y139806D01*
X363904Y139777D01*
X364056Y139745D01*
X364206Y139708D01*
X364356Y139668D01*
X364504Y139624D01*
X364651Y139576D01*
X364797Y139524D01*
X364942Y139469D01*
X365085Y139410D01*
X365227Y139347D01*
X365367Y139281D01*
X365505Y139211D01*
X365641Y139138D01*
X365776Y139061D01*
X365908Y138981D01*
X366038Y138897D01*
X366166Y138810D01*
X366292Y138720D01*
X366416Y138627D01*
X366537Y138530D01*
X366655Y138430D01*
X366771Y138328D01*
X366885Y138222D01*
X366995Y138114D01*
X367103Y138003D01*
X367208Y137889D01*
X367310Y137772D01*
X367408Y137653D01*
X367504Y137531D01*
X367597Y137407D01*
X367686Y137281D01*
X367772Y137152D01*
X367855Y137021D01*
X367935Y136888D01*
X368011Y136753D01*
X368083Y136616D01*
X368152Y136478D01*
X368217Y136337D01*
X368279Y136195D01*
X368337Y136052D01*
X368392Y135907D01*
X368442Y135761D01*
X368489Y135613D01*
X368532Y135464D01*
X368572Y135315D01*
X368607Y135164D01*
X368639Y135012D01*
X368666Y134860D01*
X368690Y134707D01*
X368710Y134553D01*
X368726Y134399D01*
X368738Y134245D01*
X368746Y134090D01*
X368750Y133935D01*
X368750Y133781D01*
X368746Y133626D01*
X368738Y133471D01*
X368726Y133317D01*
X368710Y133163D01*
X368690Y133009D01*
X368666Y132856D01*
X368639Y132704D01*
X368607Y132552D01*
X368572Y132401D01*
X368532Y132252D01*
X368489Y132103D01*
X368442Y131955D01*
X368392Y131809D01*
X368337Y131664D01*
X368279Y131521D01*
X368217Y131379D01*
X368152Y131238D01*
X368083Y131100D01*
X368011Y130963D01*
X367935Y130828D01*
X367855Y130695D01*
X367772Y130564D01*
X367686Y130435D01*
X367597Y130309D01*
X367504Y130185D01*
X367408Y130063D01*
X367310Y129944D01*
X367208Y129827D01*
X367103Y129713D01*
X366995Y129602D01*
X366885Y129494D01*
X366771Y129388D01*
X366655Y129286D01*
X366537Y129186D01*
X366416Y129089D01*
X366292Y128996D01*
X366166Y128906D01*
X366038Y128819D01*
X365908Y128735D01*
X365776Y128655D01*
X365641Y128578D01*
X365505Y128505D01*
X365367Y128435D01*
X365227Y128369D01*
X365085Y128306D01*
X364942Y128247D01*
X364797Y128192D01*
X364651Y128140D01*
X364504Y128092D01*
X364356Y128048D01*
X364206Y128008D01*
X364056Y127971D01*
X363904Y127939D01*
X363752Y127910D01*
X363599Y127886D01*
X363446Y127865D01*
X363292Y127848D01*
X363137Y127835D01*
X362983Y127826D01*
X362828Y127821D01*
X362673Y127820D01*
X362518Y127823D01*
X362364Y127830D01*
X362209Y127841D01*
X362055Y127856D01*
X361901Y127875D01*
X361748Y127897D01*
X361596Y127924D01*
X361444Y127955D01*
X361293Y127989D01*
X361143Y128027D01*
X360994Y128070D01*
X360846Y128116D01*
X360700Y128165D01*
X360554Y128219D01*
X360410Y128276D01*
X360268Y128337D01*
X360127Y128401D01*
X359988Y128469D01*
X359851Y128541D01*
X359715Y128616D01*
X359582Y128695D01*
X359451Y128777D01*
X359321Y128862D01*
X359194Y128951D01*
X359070Y129042D01*
X358947Y129137D01*
X358828Y129235D01*
X358710Y129337D01*
X358596Y129441D01*
X358484Y129548D01*
X358375Y129657D01*
X358268Y129770D01*
X358165Y129885D01*
X358065Y130003D01*
X357967Y130124D01*
X357873Y130247D01*
X357782Y130372D01*
X357694Y130499D01*
X357610Y130629D01*
X357529Y130761D01*
X357451Y130895D01*
X357377Y131031D01*
X357306Y131169D01*
X357239Y131308D01*
X357175Y131449D01*
X357115Y131592D01*
X357059Y131736D01*
X357006Y131882D01*
X356958Y132029D01*
X356913Y132177D01*
X356871Y132326D01*
X356834Y132477D01*
X356801Y132628D01*
X356771Y132780D01*
X356745Y132933D01*
X356724Y133086D01*
X356706Y133240D01*
X356692Y133394D01*
X356682Y133548D01*
X356676Y133703D01*
X356674Y133858D01*
X382074Y133858D02*
X382076Y134013D01*
X382082Y134168D01*
X382092Y134322D01*
X382106Y134476D01*
X382124Y134630D01*
X382145Y134783D01*
X382171Y134936D01*
X382201Y135088D01*
X382234Y135239D01*
X382271Y135390D01*
X382313Y135539D01*
X382358Y135687D01*
X382406Y135834D01*
X382459Y135980D01*
X382515Y136124D01*
X382575Y136267D01*
X382639Y136408D01*
X382706Y136547D01*
X382777Y136685D01*
X382851Y136821D01*
X382929Y136955D01*
X383010Y137087D01*
X383094Y137217D01*
X383182Y137344D01*
X383273Y137469D01*
X383367Y137592D01*
X383465Y137713D01*
X383565Y137831D01*
X383668Y137946D01*
X383775Y138059D01*
X383884Y138168D01*
X383996Y138275D01*
X384110Y138379D01*
X384228Y138481D01*
X384347Y138579D01*
X384470Y138674D01*
X384594Y138765D01*
X384721Y138854D01*
X384851Y138939D01*
X384982Y139021D01*
X385115Y139100D01*
X385251Y139175D01*
X385388Y139247D01*
X385527Y139315D01*
X385668Y139379D01*
X385810Y139440D01*
X385954Y139497D01*
X386100Y139551D01*
X386246Y139600D01*
X386394Y139646D01*
X386543Y139689D01*
X386693Y139727D01*
X386844Y139761D01*
X386996Y139792D01*
X387148Y139819D01*
X387301Y139841D01*
X387455Y139860D01*
X387609Y139875D01*
X387764Y139886D01*
X387918Y139893D01*
X388073Y139896D01*
X388228Y139895D01*
X388383Y139890D01*
X388537Y139881D01*
X388692Y139868D01*
X388846Y139851D01*
X388999Y139830D01*
X389152Y139806D01*
X389304Y139777D01*
X389456Y139745D01*
X389606Y139708D01*
X389756Y139668D01*
X389904Y139624D01*
X390051Y139576D01*
X390197Y139524D01*
X390342Y139469D01*
X390485Y139410D01*
X390627Y139347D01*
X390767Y139281D01*
X390905Y139211D01*
X391041Y139138D01*
X391176Y139061D01*
X391308Y138981D01*
X391438Y138897D01*
X391566Y138810D01*
X391692Y138720D01*
X391816Y138627D01*
X391937Y138530D01*
X392055Y138430D01*
X392171Y138328D01*
X392285Y138222D01*
X392395Y138114D01*
X392503Y138003D01*
X392608Y137889D01*
X392710Y137772D01*
X392808Y137653D01*
X392904Y137531D01*
X392997Y137407D01*
X393086Y137281D01*
X393172Y137152D01*
X393255Y137021D01*
X393335Y136888D01*
X393411Y136753D01*
X393483Y136616D01*
X393552Y136478D01*
X393617Y136337D01*
X393679Y136195D01*
X393737Y136052D01*
X393792Y135907D01*
X393842Y135761D01*
X393889Y135613D01*
X393932Y135464D01*
X393972Y135315D01*
X394007Y135164D01*
X394039Y135012D01*
X394066Y134860D01*
X394090Y134707D01*
X394110Y134553D01*
X394126Y134399D01*
X394138Y134245D01*
X394146Y134090D01*
X394150Y133935D01*
X394150Y133781D01*
X394146Y133626D01*
X394138Y133471D01*
X394126Y133317D01*
X394110Y133163D01*
X394090Y133009D01*
X394066Y132856D01*
X394039Y132704D01*
X394007Y132552D01*
X393972Y132401D01*
X393932Y132252D01*
X393889Y132103D01*
X393842Y131955D01*
X393792Y131809D01*
X393737Y131664D01*
X393679Y131521D01*
X393617Y131379D01*
X393552Y131238D01*
X393483Y131100D01*
X393411Y130963D01*
X393335Y130828D01*
X393255Y130695D01*
X393172Y130564D01*
X393086Y130435D01*
X392997Y130309D01*
X392904Y130185D01*
X392808Y130063D01*
X392710Y129944D01*
X392608Y129827D01*
X392503Y129713D01*
X392395Y129602D01*
X392285Y129494D01*
X392171Y129388D01*
X392055Y129286D01*
X391937Y129186D01*
X391816Y129089D01*
X391692Y128996D01*
X391566Y128906D01*
X391438Y128819D01*
X391308Y128735D01*
X391176Y128655D01*
X391041Y128578D01*
X390905Y128505D01*
X390767Y128435D01*
X390627Y128369D01*
X390485Y128306D01*
X390342Y128247D01*
X390197Y128192D01*
X390051Y128140D01*
X389904Y128092D01*
X389756Y128048D01*
X389606Y128008D01*
X389456Y127971D01*
X389304Y127939D01*
X389152Y127910D01*
X388999Y127886D01*
X388846Y127865D01*
X388692Y127848D01*
X388537Y127835D01*
X388383Y127826D01*
X388228Y127821D01*
X388073Y127820D01*
X387918Y127823D01*
X387764Y127830D01*
X387609Y127841D01*
X387455Y127856D01*
X387301Y127875D01*
X387148Y127897D01*
X386996Y127924D01*
X386844Y127955D01*
X386693Y127989D01*
X386543Y128027D01*
X386394Y128070D01*
X386246Y128116D01*
X386100Y128165D01*
X385954Y128219D01*
X385810Y128276D01*
X385668Y128337D01*
X385527Y128401D01*
X385388Y128469D01*
X385251Y128541D01*
X385115Y128616D01*
X384982Y128695D01*
X384851Y128777D01*
X384721Y128862D01*
X384594Y128951D01*
X384470Y129042D01*
X384347Y129137D01*
X384228Y129235D01*
X384110Y129337D01*
X383996Y129441D01*
X383884Y129548D01*
X383775Y129657D01*
X383668Y129770D01*
X383565Y129885D01*
X383465Y130003D01*
X383367Y130124D01*
X383273Y130247D01*
X383182Y130372D01*
X383094Y130499D01*
X383010Y130629D01*
X382929Y130761D01*
X382851Y130895D01*
X382777Y131031D01*
X382706Y131169D01*
X382639Y131308D01*
X382575Y131449D01*
X382515Y131592D01*
X382459Y131736D01*
X382406Y131882D01*
X382358Y132029D01*
X382313Y132177D01*
X382271Y132326D01*
X382234Y132477D01*
X382201Y132628D01*
X382171Y132780D01*
X382145Y132933D01*
X382124Y133086D01*
X382106Y133240D01*
X382092Y133394D01*
X382082Y133548D01*
X382076Y133703D01*
X382074Y133858D01*
X390964Y159004D02*
X390966Y159159D01*
X390972Y159314D01*
X390982Y159468D01*
X390996Y159622D01*
X391014Y159776D01*
X391035Y159929D01*
X391061Y160082D01*
X391091Y160234D01*
X391124Y160385D01*
X391161Y160536D01*
X391203Y160685D01*
X391248Y160833D01*
X391296Y160980D01*
X391349Y161126D01*
X391405Y161270D01*
X391465Y161413D01*
X391529Y161554D01*
X391596Y161693D01*
X391667Y161831D01*
X391741Y161967D01*
X391819Y162101D01*
X391900Y162233D01*
X391984Y162363D01*
X392072Y162490D01*
X392163Y162615D01*
X392257Y162738D01*
X392355Y162859D01*
X392455Y162977D01*
X392558Y163092D01*
X392665Y163205D01*
X392774Y163314D01*
X392886Y163421D01*
X393000Y163525D01*
X393118Y163627D01*
X393237Y163725D01*
X393360Y163820D01*
X393484Y163911D01*
X393611Y164000D01*
X393741Y164085D01*
X393872Y164167D01*
X394005Y164246D01*
X394141Y164321D01*
X394278Y164393D01*
X394417Y164461D01*
X394558Y164525D01*
X394700Y164586D01*
X394844Y164643D01*
X394990Y164697D01*
X395136Y164746D01*
X395284Y164792D01*
X395433Y164835D01*
X395583Y164873D01*
X395734Y164907D01*
X395886Y164938D01*
X396038Y164965D01*
X396191Y164987D01*
X396345Y165006D01*
X396499Y165021D01*
X396654Y165032D01*
X396808Y165039D01*
X396963Y165042D01*
X397118Y165041D01*
X397273Y165036D01*
X397427Y165027D01*
X397582Y165014D01*
X397736Y164997D01*
X397889Y164976D01*
X398042Y164952D01*
X398194Y164923D01*
X398346Y164891D01*
X398496Y164854D01*
X398646Y164814D01*
X398794Y164770D01*
X398941Y164722D01*
X399087Y164670D01*
X399232Y164615D01*
X399375Y164556D01*
X399517Y164493D01*
X399657Y164427D01*
X399795Y164357D01*
X399931Y164284D01*
X400066Y164207D01*
X400198Y164127D01*
X400328Y164043D01*
X400456Y163956D01*
X400582Y163866D01*
X400706Y163773D01*
X400827Y163676D01*
X400945Y163576D01*
X401061Y163474D01*
X401175Y163368D01*
X401285Y163260D01*
X401393Y163149D01*
X401498Y163035D01*
X401600Y162918D01*
X401698Y162799D01*
X401794Y162677D01*
X401887Y162553D01*
X401976Y162427D01*
X402062Y162298D01*
X402145Y162167D01*
X402225Y162034D01*
X402301Y161899D01*
X402373Y161762D01*
X402442Y161624D01*
X402507Y161483D01*
X402569Y161341D01*
X402627Y161198D01*
X402682Y161053D01*
X402732Y160907D01*
X402779Y160759D01*
X402822Y160610D01*
X402862Y160461D01*
X402897Y160310D01*
X402929Y160158D01*
X402956Y160006D01*
X402980Y159853D01*
X403000Y159699D01*
X403016Y159545D01*
X403028Y159391D01*
X403036Y159236D01*
X403040Y159081D01*
X403040Y158927D01*
X403036Y158772D01*
X403028Y158617D01*
X403016Y158463D01*
X403000Y158309D01*
X402980Y158155D01*
X402956Y158002D01*
X402929Y157850D01*
X402897Y157698D01*
X402862Y157547D01*
X402822Y157398D01*
X402779Y157249D01*
X402732Y157101D01*
X402682Y156955D01*
X402627Y156810D01*
X402569Y156667D01*
X402507Y156525D01*
X402442Y156384D01*
X402373Y156246D01*
X402301Y156109D01*
X402225Y155974D01*
X402145Y155841D01*
X402062Y155710D01*
X401976Y155581D01*
X401887Y155455D01*
X401794Y155331D01*
X401698Y155209D01*
X401600Y155090D01*
X401498Y154973D01*
X401393Y154859D01*
X401285Y154748D01*
X401175Y154640D01*
X401061Y154534D01*
X400945Y154432D01*
X400827Y154332D01*
X400706Y154235D01*
X400582Y154142D01*
X400456Y154052D01*
X400328Y153965D01*
X400198Y153881D01*
X400066Y153801D01*
X399931Y153724D01*
X399795Y153651D01*
X399657Y153581D01*
X399517Y153515D01*
X399375Y153452D01*
X399232Y153393D01*
X399087Y153338D01*
X398941Y153286D01*
X398794Y153238D01*
X398646Y153194D01*
X398496Y153154D01*
X398346Y153117D01*
X398194Y153085D01*
X398042Y153056D01*
X397889Y153032D01*
X397736Y153011D01*
X397582Y152994D01*
X397427Y152981D01*
X397273Y152972D01*
X397118Y152967D01*
X396963Y152966D01*
X396808Y152969D01*
X396654Y152976D01*
X396499Y152987D01*
X396345Y153002D01*
X396191Y153021D01*
X396038Y153043D01*
X395886Y153070D01*
X395734Y153101D01*
X395583Y153135D01*
X395433Y153173D01*
X395284Y153216D01*
X395136Y153262D01*
X394990Y153311D01*
X394844Y153365D01*
X394700Y153422D01*
X394558Y153483D01*
X394417Y153547D01*
X394278Y153615D01*
X394141Y153687D01*
X394005Y153762D01*
X393872Y153841D01*
X393741Y153923D01*
X393611Y154008D01*
X393484Y154097D01*
X393360Y154188D01*
X393237Y154283D01*
X393118Y154381D01*
X393000Y154483D01*
X392886Y154587D01*
X392774Y154694D01*
X392665Y154803D01*
X392558Y154916D01*
X392455Y155031D01*
X392355Y155149D01*
X392257Y155270D01*
X392163Y155393D01*
X392072Y155518D01*
X391984Y155645D01*
X391900Y155775D01*
X391819Y155907D01*
X391741Y156041D01*
X391667Y156177D01*
X391596Y156315D01*
X391529Y156454D01*
X391465Y156595D01*
X391405Y156738D01*
X391349Y156882D01*
X391296Y157028D01*
X391248Y157175D01*
X391203Y157323D01*
X391161Y157472D01*
X391124Y157623D01*
X391091Y157774D01*
X391061Y157926D01*
X391035Y158079D01*
X391014Y158232D01*
X390996Y158386D01*
X390982Y158540D01*
X390972Y158694D01*
X390966Y158849D01*
X390964Y159004D01*
X509074Y160274D02*
X509076Y160429D01*
X509082Y160584D01*
X509092Y160738D01*
X509106Y160892D01*
X509124Y161046D01*
X509145Y161199D01*
X509171Y161352D01*
X509201Y161504D01*
X509234Y161655D01*
X509271Y161806D01*
X509313Y161955D01*
X509358Y162103D01*
X509406Y162250D01*
X509459Y162396D01*
X509515Y162540D01*
X509575Y162683D01*
X509639Y162824D01*
X509706Y162963D01*
X509777Y163101D01*
X509851Y163237D01*
X509929Y163371D01*
X510010Y163503D01*
X510094Y163633D01*
X510182Y163760D01*
X510273Y163885D01*
X510367Y164008D01*
X510465Y164129D01*
X510565Y164247D01*
X510668Y164362D01*
X510775Y164475D01*
X510884Y164584D01*
X510996Y164691D01*
X511110Y164795D01*
X511228Y164897D01*
X511347Y164995D01*
X511470Y165090D01*
X511594Y165181D01*
X511721Y165270D01*
X511851Y165355D01*
X511982Y165437D01*
X512115Y165516D01*
X512251Y165591D01*
X512388Y165663D01*
X512527Y165731D01*
X512668Y165795D01*
X512810Y165856D01*
X512954Y165913D01*
X513100Y165967D01*
X513246Y166016D01*
X513394Y166062D01*
X513543Y166105D01*
X513693Y166143D01*
X513844Y166177D01*
X513996Y166208D01*
X514148Y166235D01*
X514301Y166257D01*
X514455Y166276D01*
X514609Y166291D01*
X514764Y166302D01*
X514918Y166309D01*
X515073Y166312D01*
X515228Y166311D01*
X515383Y166306D01*
X515537Y166297D01*
X515692Y166284D01*
X515846Y166267D01*
X515999Y166246D01*
X516152Y166222D01*
X516304Y166193D01*
X516456Y166161D01*
X516606Y166124D01*
X516756Y166084D01*
X516904Y166040D01*
X517051Y165992D01*
X517197Y165940D01*
X517342Y165885D01*
X517485Y165826D01*
X517627Y165763D01*
X517767Y165697D01*
X517905Y165627D01*
X518041Y165554D01*
X518176Y165477D01*
X518308Y165397D01*
X518438Y165313D01*
X518566Y165226D01*
X518692Y165136D01*
X518816Y165043D01*
X518937Y164946D01*
X519055Y164846D01*
X519171Y164744D01*
X519285Y164638D01*
X519395Y164530D01*
X519503Y164419D01*
X519608Y164305D01*
X519710Y164188D01*
X519808Y164069D01*
X519904Y163947D01*
X519997Y163823D01*
X520086Y163697D01*
X520172Y163568D01*
X520255Y163437D01*
X520335Y163304D01*
X520411Y163169D01*
X520483Y163032D01*
X520552Y162894D01*
X520617Y162753D01*
X520679Y162611D01*
X520737Y162468D01*
X520792Y162323D01*
X520842Y162177D01*
X520889Y162029D01*
X520932Y161880D01*
X520972Y161731D01*
X521007Y161580D01*
X521039Y161428D01*
X521066Y161276D01*
X521090Y161123D01*
X521110Y160969D01*
X521126Y160815D01*
X521138Y160661D01*
X521146Y160506D01*
X521150Y160351D01*
X521150Y160197D01*
X521146Y160042D01*
X521138Y159887D01*
X521126Y159733D01*
X521110Y159579D01*
X521090Y159425D01*
X521066Y159272D01*
X521039Y159120D01*
X521007Y158968D01*
X520972Y158817D01*
X520932Y158668D01*
X520889Y158519D01*
X520842Y158371D01*
X520792Y158225D01*
X520737Y158080D01*
X520679Y157937D01*
X520617Y157795D01*
X520552Y157654D01*
X520483Y157516D01*
X520411Y157379D01*
X520335Y157244D01*
X520255Y157111D01*
X520172Y156980D01*
X520086Y156851D01*
X519997Y156725D01*
X519904Y156601D01*
X519808Y156479D01*
X519710Y156360D01*
X519608Y156243D01*
X519503Y156129D01*
X519395Y156018D01*
X519285Y155910D01*
X519171Y155804D01*
X519055Y155702D01*
X518937Y155602D01*
X518816Y155505D01*
X518692Y155412D01*
X518566Y155322D01*
X518438Y155235D01*
X518308Y155151D01*
X518176Y155071D01*
X518041Y154994D01*
X517905Y154921D01*
X517767Y154851D01*
X517627Y154785D01*
X517485Y154722D01*
X517342Y154663D01*
X517197Y154608D01*
X517051Y154556D01*
X516904Y154508D01*
X516756Y154464D01*
X516606Y154424D01*
X516456Y154387D01*
X516304Y154355D01*
X516152Y154326D01*
X515999Y154302D01*
X515846Y154281D01*
X515692Y154264D01*
X515537Y154251D01*
X515383Y154242D01*
X515228Y154237D01*
X515073Y154236D01*
X514918Y154239D01*
X514764Y154246D01*
X514609Y154257D01*
X514455Y154272D01*
X514301Y154291D01*
X514148Y154313D01*
X513996Y154340D01*
X513844Y154371D01*
X513693Y154405D01*
X513543Y154443D01*
X513394Y154486D01*
X513246Y154532D01*
X513100Y154581D01*
X512954Y154635D01*
X512810Y154692D01*
X512668Y154753D01*
X512527Y154817D01*
X512388Y154885D01*
X512251Y154957D01*
X512115Y155032D01*
X511982Y155111D01*
X511851Y155193D01*
X511721Y155278D01*
X511594Y155367D01*
X511470Y155458D01*
X511347Y155553D01*
X511228Y155651D01*
X511110Y155753D01*
X510996Y155857D01*
X510884Y155964D01*
X510775Y156073D01*
X510668Y156186D01*
X510565Y156301D01*
X510465Y156419D01*
X510367Y156540D01*
X510273Y156663D01*
X510182Y156788D01*
X510094Y156915D01*
X510010Y157045D01*
X509929Y157177D01*
X509851Y157311D01*
X509777Y157447D01*
X509706Y157585D01*
X509639Y157724D01*
X509575Y157865D01*
X509515Y158008D01*
X509459Y158152D01*
X509406Y158298D01*
X509358Y158445D01*
X509313Y158593D01*
X509271Y158742D01*
X509234Y158893D01*
X509201Y159044D01*
X509171Y159196D01*
X509145Y159349D01*
X509124Y159502D01*
X509106Y159656D01*
X509092Y159810D01*
X509082Y159964D01*
X509076Y160119D01*
X509074Y160274D01*
X560128Y160274D02*
X560130Y160429D01*
X560136Y160584D01*
X560146Y160738D01*
X560160Y160892D01*
X560178Y161046D01*
X560199Y161199D01*
X560225Y161352D01*
X560255Y161504D01*
X560288Y161655D01*
X560325Y161806D01*
X560367Y161955D01*
X560412Y162103D01*
X560460Y162250D01*
X560513Y162396D01*
X560569Y162540D01*
X560629Y162683D01*
X560693Y162824D01*
X560760Y162963D01*
X560831Y163101D01*
X560905Y163237D01*
X560983Y163371D01*
X561064Y163503D01*
X561148Y163633D01*
X561236Y163760D01*
X561327Y163885D01*
X561421Y164008D01*
X561519Y164129D01*
X561619Y164247D01*
X561722Y164362D01*
X561829Y164475D01*
X561938Y164584D01*
X562050Y164691D01*
X562164Y164795D01*
X562282Y164897D01*
X562401Y164995D01*
X562524Y165090D01*
X562648Y165181D01*
X562775Y165270D01*
X562905Y165355D01*
X563036Y165437D01*
X563169Y165516D01*
X563305Y165591D01*
X563442Y165663D01*
X563581Y165731D01*
X563722Y165795D01*
X563864Y165856D01*
X564008Y165913D01*
X564154Y165967D01*
X564300Y166016D01*
X564448Y166062D01*
X564597Y166105D01*
X564747Y166143D01*
X564898Y166177D01*
X565050Y166208D01*
X565202Y166235D01*
X565355Y166257D01*
X565509Y166276D01*
X565663Y166291D01*
X565818Y166302D01*
X565972Y166309D01*
X566127Y166312D01*
X566282Y166311D01*
X566437Y166306D01*
X566591Y166297D01*
X566746Y166284D01*
X566900Y166267D01*
X567053Y166246D01*
X567206Y166222D01*
X567358Y166193D01*
X567510Y166161D01*
X567660Y166124D01*
X567810Y166084D01*
X567958Y166040D01*
X568105Y165992D01*
X568251Y165940D01*
X568396Y165885D01*
X568539Y165826D01*
X568681Y165763D01*
X568821Y165697D01*
X568959Y165627D01*
X569095Y165554D01*
X569230Y165477D01*
X569362Y165397D01*
X569492Y165313D01*
X569620Y165226D01*
X569746Y165136D01*
X569870Y165043D01*
X569991Y164946D01*
X570109Y164846D01*
X570225Y164744D01*
X570339Y164638D01*
X570449Y164530D01*
X570557Y164419D01*
X570662Y164305D01*
X570764Y164188D01*
X570862Y164069D01*
X570958Y163947D01*
X571051Y163823D01*
X571140Y163697D01*
X571226Y163568D01*
X571309Y163437D01*
X571389Y163304D01*
X571465Y163169D01*
X571537Y163032D01*
X571606Y162894D01*
X571671Y162753D01*
X571733Y162611D01*
X571791Y162468D01*
X571846Y162323D01*
X571896Y162177D01*
X571943Y162029D01*
X571986Y161880D01*
X572026Y161731D01*
X572061Y161580D01*
X572093Y161428D01*
X572120Y161276D01*
X572144Y161123D01*
X572164Y160969D01*
X572180Y160815D01*
X572192Y160661D01*
X572200Y160506D01*
X572204Y160351D01*
X572204Y160197D01*
X572200Y160042D01*
X572192Y159887D01*
X572180Y159733D01*
X572164Y159579D01*
X572144Y159425D01*
X572120Y159272D01*
X572093Y159120D01*
X572061Y158968D01*
X572026Y158817D01*
X571986Y158668D01*
X571943Y158519D01*
X571896Y158371D01*
X571846Y158225D01*
X571791Y158080D01*
X571733Y157937D01*
X571671Y157795D01*
X571606Y157654D01*
X571537Y157516D01*
X571465Y157379D01*
X571389Y157244D01*
X571309Y157111D01*
X571226Y156980D01*
X571140Y156851D01*
X571051Y156725D01*
X570958Y156601D01*
X570862Y156479D01*
X570764Y156360D01*
X570662Y156243D01*
X570557Y156129D01*
X570449Y156018D01*
X570339Y155910D01*
X570225Y155804D01*
X570109Y155702D01*
X569991Y155602D01*
X569870Y155505D01*
X569746Y155412D01*
X569620Y155322D01*
X569492Y155235D01*
X569362Y155151D01*
X569230Y155071D01*
X569095Y154994D01*
X568959Y154921D01*
X568821Y154851D01*
X568681Y154785D01*
X568539Y154722D01*
X568396Y154663D01*
X568251Y154608D01*
X568105Y154556D01*
X567958Y154508D01*
X567810Y154464D01*
X567660Y154424D01*
X567510Y154387D01*
X567358Y154355D01*
X567206Y154326D01*
X567053Y154302D01*
X566900Y154281D01*
X566746Y154264D01*
X566591Y154251D01*
X566437Y154242D01*
X566282Y154237D01*
X566127Y154236D01*
X565972Y154239D01*
X565818Y154246D01*
X565663Y154257D01*
X565509Y154272D01*
X565355Y154291D01*
X565202Y154313D01*
X565050Y154340D01*
X564898Y154371D01*
X564747Y154405D01*
X564597Y154443D01*
X564448Y154486D01*
X564300Y154532D01*
X564154Y154581D01*
X564008Y154635D01*
X563864Y154692D01*
X563722Y154753D01*
X563581Y154817D01*
X563442Y154885D01*
X563305Y154957D01*
X563169Y155032D01*
X563036Y155111D01*
X562905Y155193D01*
X562775Y155278D01*
X562648Y155367D01*
X562524Y155458D01*
X562401Y155553D01*
X562282Y155651D01*
X562164Y155753D01*
X562050Y155857D01*
X561938Y155964D01*
X561829Y156073D01*
X561722Y156186D01*
X561619Y156301D01*
X561519Y156419D01*
X561421Y156540D01*
X561327Y156663D01*
X561236Y156788D01*
X561148Y156915D01*
X561064Y157045D01*
X560983Y157177D01*
X560905Y157311D01*
X560831Y157447D01*
X560760Y157585D01*
X560693Y157724D01*
X560629Y157865D01*
X560569Y158008D01*
X560513Y158152D01*
X560460Y158298D01*
X560412Y158445D01*
X560367Y158593D01*
X560325Y158742D01*
X560288Y158893D01*
X560255Y159044D01*
X560225Y159196D01*
X560199Y159349D01*
X560178Y159502D01*
X560160Y159656D01*
X560146Y159810D01*
X560136Y159964D01*
X560130Y160119D01*
X560128Y160274D01*
X551492Y133096D02*
X551494Y133251D01*
X551500Y133406D01*
X551510Y133560D01*
X551524Y133714D01*
X551542Y133868D01*
X551563Y134021D01*
X551589Y134174D01*
X551619Y134326D01*
X551652Y134477D01*
X551689Y134628D01*
X551731Y134777D01*
X551776Y134925D01*
X551824Y135072D01*
X551877Y135218D01*
X551933Y135362D01*
X551993Y135505D01*
X552057Y135646D01*
X552124Y135785D01*
X552195Y135923D01*
X552269Y136059D01*
X552347Y136193D01*
X552428Y136325D01*
X552512Y136455D01*
X552600Y136582D01*
X552691Y136707D01*
X552785Y136830D01*
X552883Y136951D01*
X552983Y137069D01*
X553086Y137184D01*
X553193Y137297D01*
X553302Y137406D01*
X553414Y137513D01*
X553528Y137617D01*
X553646Y137719D01*
X553765Y137817D01*
X553888Y137912D01*
X554012Y138003D01*
X554139Y138092D01*
X554269Y138177D01*
X554400Y138259D01*
X554533Y138338D01*
X554669Y138413D01*
X554806Y138485D01*
X554945Y138553D01*
X555086Y138617D01*
X555228Y138678D01*
X555372Y138735D01*
X555518Y138789D01*
X555664Y138838D01*
X555812Y138884D01*
X555961Y138927D01*
X556111Y138965D01*
X556262Y138999D01*
X556414Y139030D01*
X556566Y139057D01*
X556719Y139079D01*
X556873Y139098D01*
X557027Y139113D01*
X557182Y139124D01*
X557336Y139131D01*
X557491Y139134D01*
X557646Y139133D01*
X557801Y139128D01*
X557955Y139119D01*
X558110Y139106D01*
X558264Y139089D01*
X558417Y139068D01*
X558570Y139044D01*
X558722Y139015D01*
X558874Y138983D01*
X559024Y138946D01*
X559174Y138906D01*
X559322Y138862D01*
X559469Y138814D01*
X559615Y138762D01*
X559760Y138707D01*
X559903Y138648D01*
X560045Y138585D01*
X560185Y138519D01*
X560323Y138449D01*
X560459Y138376D01*
X560594Y138299D01*
X560726Y138219D01*
X560856Y138135D01*
X560984Y138048D01*
X561110Y137958D01*
X561234Y137865D01*
X561355Y137768D01*
X561473Y137668D01*
X561589Y137566D01*
X561703Y137460D01*
X561813Y137352D01*
X561921Y137241D01*
X562026Y137127D01*
X562128Y137010D01*
X562226Y136891D01*
X562322Y136769D01*
X562415Y136645D01*
X562504Y136519D01*
X562590Y136390D01*
X562673Y136259D01*
X562753Y136126D01*
X562829Y135991D01*
X562901Y135854D01*
X562970Y135716D01*
X563035Y135575D01*
X563097Y135433D01*
X563155Y135290D01*
X563210Y135145D01*
X563260Y134999D01*
X563307Y134851D01*
X563350Y134702D01*
X563390Y134553D01*
X563425Y134402D01*
X563457Y134250D01*
X563484Y134098D01*
X563508Y133945D01*
X563528Y133791D01*
X563544Y133637D01*
X563556Y133483D01*
X563564Y133328D01*
X563568Y133173D01*
X563568Y133019D01*
X563564Y132864D01*
X563556Y132709D01*
X563544Y132555D01*
X563528Y132401D01*
X563508Y132247D01*
X563484Y132094D01*
X563457Y131942D01*
X563425Y131790D01*
X563390Y131639D01*
X563350Y131490D01*
X563307Y131341D01*
X563260Y131193D01*
X563210Y131047D01*
X563155Y130902D01*
X563097Y130759D01*
X563035Y130617D01*
X562970Y130476D01*
X562901Y130338D01*
X562829Y130201D01*
X562753Y130066D01*
X562673Y129933D01*
X562590Y129802D01*
X562504Y129673D01*
X562415Y129547D01*
X562322Y129423D01*
X562226Y129301D01*
X562128Y129182D01*
X562026Y129065D01*
X561921Y128951D01*
X561813Y128840D01*
X561703Y128732D01*
X561589Y128626D01*
X561473Y128524D01*
X561355Y128424D01*
X561234Y128327D01*
X561110Y128234D01*
X560984Y128144D01*
X560856Y128057D01*
X560726Y127973D01*
X560594Y127893D01*
X560459Y127816D01*
X560323Y127743D01*
X560185Y127673D01*
X560045Y127607D01*
X559903Y127544D01*
X559760Y127485D01*
X559615Y127430D01*
X559469Y127378D01*
X559322Y127330D01*
X559174Y127286D01*
X559024Y127246D01*
X558874Y127209D01*
X558722Y127177D01*
X558570Y127148D01*
X558417Y127124D01*
X558264Y127103D01*
X558110Y127086D01*
X557955Y127073D01*
X557801Y127064D01*
X557646Y127059D01*
X557491Y127058D01*
X557336Y127061D01*
X557182Y127068D01*
X557027Y127079D01*
X556873Y127094D01*
X556719Y127113D01*
X556566Y127135D01*
X556414Y127162D01*
X556262Y127193D01*
X556111Y127227D01*
X555961Y127265D01*
X555812Y127308D01*
X555664Y127354D01*
X555518Y127403D01*
X555372Y127457D01*
X555228Y127514D01*
X555086Y127575D01*
X554945Y127639D01*
X554806Y127707D01*
X554669Y127779D01*
X554533Y127854D01*
X554400Y127933D01*
X554269Y128015D01*
X554139Y128100D01*
X554012Y128189D01*
X553888Y128280D01*
X553765Y128375D01*
X553646Y128473D01*
X553528Y128575D01*
X553414Y128679D01*
X553302Y128786D01*
X553193Y128895D01*
X553086Y129008D01*
X552983Y129123D01*
X552883Y129241D01*
X552785Y129362D01*
X552691Y129485D01*
X552600Y129610D01*
X552512Y129737D01*
X552428Y129867D01*
X552347Y129999D01*
X552269Y130133D01*
X552195Y130269D01*
X552124Y130407D01*
X552057Y130546D01*
X551993Y130687D01*
X551933Y130830D01*
X551877Y130974D01*
X551824Y131120D01*
X551776Y131267D01*
X551731Y131415D01*
X551689Y131564D01*
X551652Y131715D01*
X551619Y131866D01*
X551589Y132018D01*
X551563Y132171D01*
X551542Y132324D01*
X551524Y132478D01*
X551510Y132632D01*
X551500Y132786D01*
X551494Y132941D01*
X551492Y133096D01*
X526092Y133096D02*
X526094Y133251D01*
X526100Y133406D01*
X526110Y133560D01*
X526124Y133714D01*
X526142Y133868D01*
X526163Y134021D01*
X526189Y134174D01*
X526219Y134326D01*
X526252Y134477D01*
X526289Y134628D01*
X526331Y134777D01*
X526376Y134925D01*
X526424Y135072D01*
X526477Y135218D01*
X526533Y135362D01*
X526593Y135505D01*
X526657Y135646D01*
X526724Y135785D01*
X526795Y135923D01*
X526869Y136059D01*
X526947Y136193D01*
X527028Y136325D01*
X527112Y136455D01*
X527200Y136582D01*
X527291Y136707D01*
X527385Y136830D01*
X527483Y136951D01*
X527583Y137069D01*
X527686Y137184D01*
X527793Y137297D01*
X527902Y137406D01*
X528014Y137513D01*
X528128Y137617D01*
X528246Y137719D01*
X528365Y137817D01*
X528488Y137912D01*
X528612Y138003D01*
X528739Y138092D01*
X528869Y138177D01*
X529000Y138259D01*
X529133Y138338D01*
X529269Y138413D01*
X529406Y138485D01*
X529545Y138553D01*
X529686Y138617D01*
X529828Y138678D01*
X529972Y138735D01*
X530118Y138789D01*
X530264Y138838D01*
X530412Y138884D01*
X530561Y138927D01*
X530711Y138965D01*
X530862Y138999D01*
X531014Y139030D01*
X531166Y139057D01*
X531319Y139079D01*
X531473Y139098D01*
X531627Y139113D01*
X531782Y139124D01*
X531936Y139131D01*
X532091Y139134D01*
X532246Y139133D01*
X532401Y139128D01*
X532555Y139119D01*
X532710Y139106D01*
X532864Y139089D01*
X533017Y139068D01*
X533170Y139044D01*
X533322Y139015D01*
X533474Y138983D01*
X533624Y138946D01*
X533774Y138906D01*
X533922Y138862D01*
X534069Y138814D01*
X534215Y138762D01*
X534360Y138707D01*
X534503Y138648D01*
X534645Y138585D01*
X534785Y138519D01*
X534923Y138449D01*
X535059Y138376D01*
X535194Y138299D01*
X535326Y138219D01*
X535456Y138135D01*
X535584Y138048D01*
X535710Y137958D01*
X535834Y137865D01*
X535955Y137768D01*
X536073Y137668D01*
X536189Y137566D01*
X536303Y137460D01*
X536413Y137352D01*
X536521Y137241D01*
X536626Y137127D01*
X536728Y137010D01*
X536826Y136891D01*
X536922Y136769D01*
X537015Y136645D01*
X537104Y136519D01*
X537190Y136390D01*
X537273Y136259D01*
X537353Y136126D01*
X537429Y135991D01*
X537501Y135854D01*
X537570Y135716D01*
X537635Y135575D01*
X537697Y135433D01*
X537755Y135290D01*
X537810Y135145D01*
X537860Y134999D01*
X537907Y134851D01*
X537950Y134702D01*
X537990Y134553D01*
X538025Y134402D01*
X538057Y134250D01*
X538084Y134098D01*
X538108Y133945D01*
X538128Y133791D01*
X538144Y133637D01*
X538156Y133483D01*
X538164Y133328D01*
X538168Y133173D01*
X538168Y133019D01*
X538164Y132864D01*
X538156Y132709D01*
X538144Y132555D01*
X538128Y132401D01*
X538108Y132247D01*
X538084Y132094D01*
X538057Y131942D01*
X538025Y131790D01*
X537990Y131639D01*
X537950Y131490D01*
X537907Y131341D01*
X537860Y131193D01*
X537810Y131047D01*
X537755Y130902D01*
X537697Y130759D01*
X537635Y130617D01*
X537570Y130476D01*
X537501Y130338D01*
X537429Y130201D01*
X537353Y130066D01*
X537273Y129933D01*
X537190Y129802D01*
X537104Y129673D01*
X537015Y129547D01*
X536922Y129423D01*
X536826Y129301D01*
X536728Y129182D01*
X536626Y129065D01*
X536521Y128951D01*
X536413Y128840D01*
X536303Y128732D01*
X536189Y128626D01*
X536073Y128524D01*
X535955Y128424D01*
X535834Y128327D01*
X535710Y128234D01*
X535584Y128144D01*
X535456Y128057D01*
X535326Y127973D01*
X535194Y127893D01*
X535059Y127816D01*
X534923Y127743D01*
X534785Y127673D01*
X534645Y127607D01*
X534503Y127544D01*
X534360Y127485D01*
X534215Y127430D01*
X534069Y127378D01*
X533922Y127330D01*
X533774Y127286D01*
X533624Y127246D01*
X533474Y127209D01*
X533322Y127177D01*
X533170Y127148D01*
X533017Y127124D01*
X532864Y127103D01*
X532710Y127086D01*
X532555Y127073D01*
X532401Y127064D01*
X532246Y127059D01*
X532091Y127058D01*
X531936Y127061D01*
X531782Y127068D01*
X531627Y127079D01*
X531473Y127094D01*
X531319Y127113D01*
X531166Y127135D01*
X531014Y127162D01*
X530862Y127193D01*
X530711Y127227D01*
X530561Y127265D01*
X530412Y127308D01*
X530264Y127354D01*
X530118Y127403D01*
X529972Y127457D01*
X529828Y127514D01*
X529686Y127575D01*
X529545Y127639D01*
X529406Y127707D01*
X529269Y127779D01*
X529133Y127854D01*
X529000Y127933D01*
X528869Y128015D01*
X528739Y128100D01*
X528612Y128189D01*
X528488Y128280D01*
X528365Y128375D01*
X528246Y128473D01*
X528128Y128575D01*
X528014Y128679D01*
X527902Y128786D01*
X527793Y128895D01*
X527686Y129008D01*
X527583Y129123D01*
X527483Y129241D01*
X527385Y129362D01*
X527291Y129485D01*
X527200Y129610D01*
X527112Y129737D01*
X527028Y129867D01*
X526947Y129999D01*
X526869Y130133D01*
X526795Y130269D01*
X526724Y130407D01*
X526657Y130546D01*
X526593Y130687D01*
X526533Y130830D01*
X526477Y130974D01*
X526424Y131120D01*
X526376Y131267D01*
X526331Y131415D01*
X526289Y131564D01*
X526252Y131715D01*
X526219Y131866D01*
X526189Y132018D01*
X526163Y132171D01*
X526142Y132324D01*
X526124Y132478D01*
X526110Y132632D01*
X526100Y132786D01*
X526094Y132941D01*
X526092Y133096D01*
X178874Y245364D02*
X178876Y245519D01*
X178882Y245674D01*
X178892Y245828D01*
X178906Y245982D01*
X178924Y246136D01*
X178945Y246289D01*
X178971Y246442D01*
X179001Y246594D01*
X179034Y246745D01*
X179071Y246896D01*
X179113Y247045D01*
X179158Y247193D01*
X179206Y247340D01*
X179259Y247486D01*
X179315Y247630D01*
X179375Y247773D01*
X179439Y247914D01*
X179506Y248053D01*
X179577Y248191D01*
X179651Y248327D01*
X179729Y248461D01*
X179810Y248593D01*
X179894Y248723D01*
X179982Y248850D01*
X180073Y248975D01*
X180167Y249098D01*
X180265Y249219D01*
X180365Y249337D01*
X180468Y249452D01*
X180575Y249565D01*
X180684Y249674D01*
X180796Y249781D01*
X180910Y249885D01*
X181028Y249987D01*
X181147Y250085D01*
X181270Y250180D01*
X181394Y250271D01*
X181521Y250360D01*
X181651Y250445D01*
X181782Y250527D01*
X181915Y250606D01*
X182051Y250681D01*
X182188Y250753D01*
X182327Y250821D01*
X182468Y250885D01*
X182610Y250946D01*
X182754Y251003D01*
X182900Y251057D01*
X183046Y251106D01*
X183194Y251152D01*
X183343Y251195D01*
X183493Y251233D01*
X183644Y251267D01*
X183796Y251298D01*
X183948Y251325D01*
X184101Y251347D01*
X184255Y251366D01*
X184409Y251381D01*
X184564Y251392D01*
X184718Y251399D01*
X184873Y251402D01*
X185028Y251401D01*
X185183Y251396D01*
X185337Y251387D01*
X185492Y251374D01*
X185646Y251357D01*
X185799Y251336D01*
X185952Y251312D01*
X186104Y251283D01*
X186256Y251251D01*
X186406Y251214D01*
X186556Y251174D01*
X186704Y251130D01*
X186851Y251082D01*
X186997Y251030D01*
X187142Y250975D01*
X187285Y250916D01*
X187427Y250853D01*
X187567Y250787D01*
X187705Y250717D01*
X187841Y250644D01*
X187976Y250567D01*
X188108Y250487D01*
X188238Y250403D01*
X188366Y250316D01*
X188492Y250226D01*
X188616Y250133D01*
X188737Y250036D01*
X188855Y249936D01*
X188971Y249834D01*
X189085Y249728D01*
X189195Y249620D01*
X189303Y249509D01*
X189408Y249395D01*
X189510Y249278D01*
X189608Y249159D01*
X189704Y249037D01*
X189797Y248913D01*
X189886Y248787D01*
X189972Y248658D01*
X190055Y248527D01*
X190135Y248394D01*
X190211Y248259D01*
X190283Y248122D01*
X190352Y247984D01*
X190417Y247843D01*
X190479Y247701D01*
X190537Y247558D01*
X190592Y247413D01*
X190642Y247267D01*
X190689Y247119D01*
X190732Y246970D01*
X190772Y246821D01*
X190807Y246670D01*
X190839Y246518D01*
X190866Y246366D01*
X190890Y246213D01*
X190910Y246059D01*
X190926Y245905D01*
X190938Y245751D01*
X190946Y245596D01*
X190950Y245441D01*
X190950Y245287D01*
X190946Y245132D01*
X190938Y244977D01*
X190926Y244823D01*
X190910Y244669D01*
X190890Y244515D01*
X190866Y244362D01*
X190839Y244210D01*
X190807Y244058D01*
X190772Y243907D01*
X190732Y243758D01*
X190689Y243609D01*
X190642Y243461D01*
X190592Y243315D01*
X190537Y243170D01*
X190479Y243027D01*
X190417Y242885D01*
X190352Y242744D01*
X190283Y242606D01*
X190211Y242469D01*
X190135Y242334D01*
X190055Y242201D01*
X189972Y242070D01*
X189886Y241941D01*
X189797Y241815D01*
X189704Y241691D01*
X189608Y241569D01*
X189510Y241450D01*
X189408Y241333D01*
X189303Y241219D01*
X189195Y241108D01*
X189085Y241000D01*
X188971Y240894D01*
X188855Y240792D01*
X188737Y240692D01*
X188616Y240595D01*
X188492Y240502D01*
X188366Y240412D01*
X188238Y240325D01*
X188108Y240241D01*
X187976Y240161D01*
X187841Y240084D01*
X187705Y240011D01*
X187567Y239941D01*
X187427Y239875D01*
X187285Y239812D01*
X187142Y239753D01*
X186997Y239698D01*
X186851Y239646D01*
X186704Y239598D01*
X186556Y239554D01*
X186406Y239514D01*
X186256Y239477D01*
X186104Y239445D01*
X185952Y239416D01*
X185799Y239392D01*
X185646Y239371D01*
X185492Y239354D01*
X185337Y239341D01*
X185183Y239332D01*
X185028Y239327D01*
X184873Y239326D01*
X184718Y239329D01*
X184564Y239336D01*
X184409Y239347D01*
X184255Y239362D01*
X184101Y239381D01*
X183948Y239403D01*
X183796Y239430D01*
X183644Y239461D01*
X183493Y239495D01*
X183343Y239533D01*
X183194Y239576D01*
X183046Y239622D01*
X182900Y239671D01*
X182754Y239725D01*
X182610Y239782D01*
X182468Y239843D01*
X182327Y239907D01*
X182188Y239975D01*
X182051Y240047D01*
X181915Y240122D01*
X181782Y240201D01*
X181651Y240283D01*
X181521Y240368D01*
X181394Y240457D01*
X181270Y240548D01*
X181147Y240643D01*
X181028Y240741D01*
X180910Y240843D01*
X180796Y240947D01*
X180684Y241054D01*
X180575Y241163D01*
X180468Y241276D01*
X180365Y241391D01*
X180265Y241509D01*
X180167Y241630D01*
X180073Y241753D01*
X179982Y241878D01*
X179894Y242005D01*
X179810Y242135D01*
X179729Y242267D01*
X179651Y242401D01*
X179577Y242537D01*
X179506Y242675D01*
X179439Y242814D01*
X179375Y242955D01*
X179315Y243098D01*
X179259Y243242D01*
X179206Y243388D01*
X179158Y243535D01*
X179113Y243683D01*
X179071Y243832D01*
X179034Y243983D01*
X179001Y244134D01*
X178971Y244286D01*
X178945Y244439D01*
X178924Y244592D01*
X178906Y244746D01*
X178892Y244900D01*
X178882Y245054D01*
X178876Y245209D01*
X178874Y245364D01*
X179128Y271272D02*
X179130Y271427D01*
X179136Y271582D01*
X179146Y271736D01*
X179160Y271890D01*
X179178Y272044D01*
X179199Y272197D01*
X179225Y272350D01*
X179255Y272502D01*
X179288Y272653D01*
X179325Y272804D01*
X179367Y272953D01*
X179412Y273101D01*
X179460Y273248D01*
X179513Y273394D01*
X179569Y273538D01*
X179629Y273681D01*
X179693Y273822D01*
X179760Y273961D01*
X179831Y274099D01*
X179905Y274235D01*
X179983Y274369D01*
X180064Y274501D01*
X180148Y274631D01*
X180236Y274758D01*
X180327Y274883D01*
X180421Y275006D01*
X180519Y275127D01*
X180619Y275245D01*
X180722Y275360D01*
X180829Y275473D01*
X180938Y275582D01*
X181050Y275689D01*
X181164Y275793D01*
X181282Y275895D01*
X181401Y275993D01*
X181524Y276088D01*
X181648Y276179D01*
X181775Y276268D01*
X181905Y276353D01*
X182036Y276435D01*
X182169Y276514D01*
X182305Y276589D01*
X182442Y276661D01*
X182581Y276729D01*
X182722Y276793D01*
X182864Y276854D01*
X183008Y276911D01*
X183154Y276965D01*
X183300Y277014D01*
X183448Y277060D01*
X183597Y277103D01*
X183747Y277141D01*
X183898Y277175D01*
X184050Y277206D01*
X184202Y277233D01*
X184355Y277255D01*
X184509Y277274D01*
X184663Y277289D01*
X184818Y277300D01*
X184972Y277307D01*
X185127Y277310D01*
X185282Y277309D01*
X185437Y277304D01*
X185591Y277295D01*
X185746Y277282D01*
X185900Y277265D01*
X186053Y277244D01*
X186206Y277220D01*
X186358Y277191D01*
X186510Y277159D01*
X186660Y277122D01*
X186810Y277082D01*
X186958Y277038D01*
X187105Y276990D01*
X187251Y276938D01*
X187396Y276883D01*
X187539Y276824D01*
X187681Y276761D01*
X187821Y276695D01*
X187959Y276625D01*
X188095Y276552D01*
X188230Y276475D01*
X188362Y276395D01*
X188492Y276311D01*
X188620Y276224D01*
X188746Y276134D01*
X188870Y276041D01*
X188991Y275944D01*
X189109Y275844D01*
X189225Y275742D01*
X189339Y275636D01*
X189449Y275528D01*
X189557Y275417D01*
X189662Y275303D01*
X189764Y275186D01*
X189862Y275067D01*
X189958Y274945D01*
X190051Y274821D01*
X190140Y274695D01*
X190226Y274566D01*
X190309Y274435D01*
X190389Y274302D01*
X190465Y274167D01*
X190537Y274030D01*
X190606Y273892D01*
X190671Y273751D01*
X190733Y273609D01*
X190791Y273466D01*
X190846Y273321D01*
X190896Y273175D01*
X190943Y273027D01*
X190986Y272878D01*
X191026Y272729D01*
X191061Y272578D01*
X191093Y272426D01*
X191120Y272274D01*
X191144Y272121D01*
X191164Y271967D01*
X191180Y271813D01*
X191192Y271659D01*
X191200Y271504D01*
X191204Y271349D01*
X191204Y271195D01*
X191200Y271040D01*
X191192Y270885D01*
X191180Y270731D01*
X191164Y270577D01*
X191144Y270423D01*
X191120Y270270D01*
X191093Y270118D01*
X191061Y269966D01*
X191026Y269815D01*
X190986Y269666D01*
X190943Y269517D01*
X190896Y269369D01*
X190846Y269223D01*
X190791Y269078D01*
X190733Y268935D01*
X190671Y268793D01*
X190606Y268652D01*
X190537Y268514D01*
X190465Y268377D01*
X190389Y268242D01*
X190309Y268109D01*
X190226Y267978D01*
X190140Y267849D01*
X190051Y267723D01*
X189958Y267599D01*
X189862Y267477D01*
X189764Y267358D01*
X189662Y267241D01*
X189557Y267127D01*
X189449Y267016D01*
X189339Y266908D01*
X189225Y266802D01*
X189109Y266700D01*
X188991Y266600D01*
X188870Y266503D01*
X188746Y266410D01*
X188620Y266320D01*
X188492Y266233D01*
X188362Y266149D01*
X188230Y266069D01*
X188095Y265992D01*
X187959Y265919D01*
X187821Y265849D01*
X187681Y265783D01*
X187539Y265720D01*
X187396Y265661D01*
X187251Y265606D01*
X187105Y265554D01*
X186958Y265506D01*
X186810Y265462D01*
X186660Y265422D01*
X186510Y265385D01*
X186358Y265353D01*
X186206Y265324D01*
X186053Y265300D01*
X185900Y265279D01*
X185746Y265262D01*
X185591Y265249D01*
X185437Y265240D01*
X185282Y265235D01*
X185127Y265234D01*
X184972Y265237D01*
X184818Y265244D01*
X184663Y265255D01*
X184509Y265270D01*
X184355Y265289D01*
X184202Y265311D01*
X184050Y265338D01*
X183898Y265369D01*
X183747Y265403D01*
X183597Y265441D01*
X183448Y265484D01*
X183300Y265530D01*
X183154Y265579D01*
X183008Y265633D01*
X182864Y265690D01*
X182722Y265751D01*
X182581Y265815D01*
X182442Y265883D01*
X182305Y265955D01*
X182169Y266030D01*
X182036Y266109D01*
X181905Y266191D01*
X181775Y266276D01*
X181648Y266365D01*
X181524Y266456D01*
X181401Y266551D01*
X181282Y266649D01*
X181164Y266751D01*
X181050Y266855D01*
X180938Y266962D01*
X180829Y267071D01*
X180722Y267184D01*
X180619Y267299D01*
X180519Y267417D01*
X180421Y267538D01*
X180327Y267661D01*
X180236Y267786D01*
X180148Y267913D01*
X180064Y268043D01*
X179983Y268175D01*
X179905Y268309D01*
X179831Y268445D01*
X179760Y268583D01*
X179693Y268722D01*
X179629Y268863D01*
X179569Y269006D01*
X179513Y269150D01*
X179460Y269296D01*
X179412Y269443D01*
X179367Y269591D01*
X179325Y269740D01*
X179288Y269891D01*
X179255Y270042D01*
X179225Y270194D01*
X179199Y270347D01*
X179178Y270500D01*
X179160Y270654D01*
X179146Y270808D01*
X179136Y270962D01*
X179130Y271117D01*
X179128Y271272D01*
X178874Y291592D02*
X178876Y291747D01*
X178882Y291902D01*
X178892Y292056D01*
X178906Y292210D01*
X178924Y292364D01*
X178945Y292517D01*
X178971Y292670D01*
X179001Y292822D01*
X179034Y292973D01*
X179071Y293124D01*
X179113Y293273D01*
X179158Y293421D01*
X179206Y293568D01*
X179259Y293714D01*
X179315Y293858D01*
X179375Y294001D01*
X179439Y294142D01*
X179506Y294281D01*
X179577Y294419D01*
X179651Y294555D01*
X179729Y294689D01*
X179810Y294821D01*
X179894Y294951D01*
X179982Y295078D01*
X180073Y295203D01*
X180167Y295326D01*
X180265Y295447D01*
X180365Y295565D01*
X180468Y295680D01*
X180575Y295793D01*
X180684Y295902D01*
X180796Y296009D01*
X180910Y296113D01*
X181028Y296215D01*
X181147Y296313D01*
X181270Y296408D01*
X181394Y296499D01*
X181521Y296588D01*
X181651Y296673D01*
X181782Y296755D01*
X181915Y296834D01*
X182051Y296909D01*
X182188Y296981D01*
X182327Y297049D01*
X182468Y297113D01*
X182610Y297174D01*
X182754Y297231D01*
X182900Y297285D01*
X183046Y297334D01*
X183194Y297380D01*
X183343Y297423D01*
X183493Y297461D01*
X183644Y297495D01*
X183796Y297526D01*
X183948Y297553D01*
X184101Y297575D01*
X184255Y297594D01*
X184409Y297609D01*
X184564Y297620D01*
X184718Y297627D01*
X184873Y297630D01*
X185028Y297629D01*
X185183Y297624D01*
X185337Y297615D01*
X185492Y297602D01*
X185646Y297585D01*
X185799Y297564D01*
X185952Y297540D01*
X186104Y297511D01*
X186256Y297479D01*
X186406Y297442D01*
X186556Y297402D01*
X186704Y297358D01*
X186851Y297310D01*
X186997Y297258D01*
X187142Y297203D01*
X187285Y297144D01*
X187427Y297081D01*
X187567Y297015D01*
X187705Y296945D01*
X187841Y296872D01*
X187976Y296795D01*
X188108Y296715D01*
X188238Y296631D01*
X188366Y296544D01*
X188492Y296454D01*
X188616Y296361D01*
X188737Y296264D01*
X188855Y296164D01*
X188971Y296062D01*
X189085Y295956D01*
X189195Y295848D01*
X189303Y295737D01*
X189408Y295623D01*
X189510Y295506D01*
X189608Y295387D01*
X189704Y295265D01*
X189797Y295141D01*
X189886Y295015D01*
X189972Y294886D01*
X190055Y294755D01*
X190135Y294622D01*
X190211Y294487D01*
X190283Y294350D01*
X190352Y294212D01*
X190417Y294071D01*
X190479Y293929D01*
X190537Y293786D01*
X190592Y293641D01*
X190642Y293495D01*
X190689Y293347D01*
X190732Y293198D01*
X190772Y293049D01*
X190807Y292898D01*
X190839Y292746D01*
X190866Y292594D01*
X190890Y292441D01*
X190910Y292287D01*
X190926Y292133D01*
X190938Y291979D01*
X190946Y291824D01*
X190950Y291669D01*
X190950Y291515D01*
X190946Y291360D01*
X190938Y291205D01*
X190926Y291051D01*
X190910Y290897D01*
X190890Y290743D01*
X190866Y290590D01*
X190839Y290438D01*
X190807Y290286D01*
X190772Y290135D01*
X190732Y289986D01*
X190689Y289837D01*
X190642Y289689D01*
X190592Y289543D01*
X190537Y289398D01*
X190479Y289255D01*
X190417Y289113D01*
X190352Y288972D01*
X190283Y288834D01*
X190211Y288697D01*
X190135Y288562D01*
X190055Y288429D01*
X189972Y288298D01*
X189886Y288169D01*
X189797Y288043D01*
X189704Y287919D01*
X189608Y287797D01*
X189510Y287678D01*
X189408Y287561D01*
X189303Y287447D01*
X189195Y287336D01*
X189085Y287228D01*
X188971Y287122D01*
X188855Y287020D01*
X188737Y286920D01*
X188616Y286823D01*
X188492Y286730D01*
X188366Y286640D01*
X188238Y286553D01*
X188108Y286469D01*
X187976Y286389D01*
X187841Y286312D01*
X187705Y286239D01*
X187567Y286169D01*
X187427Y286103D01*
X187285Y286040D01*
X187142Y285981D01*
X186997Y285926D01*
X186851Y285874D01*
X186704Y285826D01*
X186556Y285782D01*
X186406Y285742D01*
X186256Y285705D01*
X186104Y285673D01*
X185952Y285644D01*
X185799Y285620D01*
X185646Y285599D01*
X185492Y285582D01*
X185337Y285569D01*
X185183Y285560D01*
X185028Y285555D01*
X184873Y285554D01*
X184718Y285557D01*
X184564Y285564D01*
X184409Y285575D01*
X184255Y285590D01*
X184101Y285609D01*
X183948Y285631D01*
X183796Y285658D01*
X183644Y285689D01*
X183493Y285723D01*
X183343Y285761D01*
X183194Y285804D01*
X183046Y285850D01*
X182900Y285899D01*
X182754Y285953D01*
X182610Y286010D01*
X182468Y286071D01*
X182327Y286135D01*
X182188Y286203D01*
X182051Y286275D01*
X181915Y286350D01*
X181782Y286429D01*
X181651Y286511D01*
X181521Y286596D01*
X181394Y286685D01*
X181270Y286776D01*
X181147Y286871D01*
X181028Y286969D01*
X180910Y287071D01*
X180796Y287175D01*
X180684Y287282D01*
X180575Y287391D01*
X180468Y287504D01*
X180365Y287619D01*
X180265Y287737D01*
X180167Y287858D01*
X180073Y287981D01*
X179982Y288106D01*
X179894Y288233D01*
X179810Y288363D01*
X179729Y288495D01*
X179651Y288629D01*
X179577Y288765D01*
X179506Y288903D01*
X179439Y289042D01*
X179375Y289183D01*
X179315Y289326D01*
X179259Y289470D01*
X179206Y289616D01*
X179158Y289763D01*
X179113Y289911D01*
X179071Y290060D01*
X179034Y290211D01*
X179001Y290362D01*
X178971Y290514D01*
X178945Y290667D01*
X178924Y290820D01*
X178906Y290974D01*
X178892Y291128D01*
X178882Y291282D01*
X178876Y291437D01*
X178874Y291592D01*
X229674Y291592D02*
X229676Y291747D01*
X229682Y291902D01*
X229692Y292056D01*
X229706Y292210D01*
X229724Y292364D01*
X229745Y292517D01*
X229771Y292670D01*
X229801Y292822D01*
X229834Y292973D01*
X229871Y293124D01*
X229913Y293273D01*
X229958Y293421D01*
X230006Y293568D01*
X230059Y293714D01*
X230115Y293858D01*
X230175Y294001D01*
X230239Y294142D01*
X230306Y294281D01*
X230377Y294419D01*
X230451Y294555D01*
X230529Y294689D01*
X230610Y294821D01*
X230694Y294951D01*
X230782Y295078D01*
X230873Y295203D01*
X230967Y295326D01*
X231065Y295447D01*
X231165Y295565D01*
X231268Y295680D01*
X231375Y295793D01*
X231484Y295902D01*
X231596Y296009D01*
X231710Y296113D01*
X231828Y296215D01*
X231947Y296313D01*
X232070Y296408D01*
X232194Y296499D01*
X232321Y296588D01*
X232451Y296673D01*
X232582Y296755D01*
X232715Y296834D01*
X232851Y296909D01*
X232988Y296981D01*
X233127Y297049D01*
X233268Y297113D01*
X233410Y297174D01*
X233554Y297231D01*
X233700Y297285D01*
X233846Y297334D01*
X233994Y297380D01*
X234143Y297423D01*
X234293Y297461D01*
X234444Y297495D01*
X234596Y297526D01*
X234748Y297553D01*
X234901Y297575D01*
X235055Y297594D01*
X235209Y297609D01*
X235364Y297620D01*
X235518Y297627D01*
X235673Y297630D01*
X235828Y297629D01*
X235983Y297624D01*
X236137Y297615D01*
X236292Y297602D01*
X236446Y297585D01*
X236599Y297564D01*
X236752Y297540D01*
X236904Y297511D01*
X237056Y297479D01*
X237206Y297442D01*
X237356Y297402D01*
X237504Y297358D01*
X237651Y297310D01*
X237797Y297258D01*
X237942Y297203D01*
X238085Y297144D01*
X238227Y297081D01*
X238367Y297015D01*
X238505Y296945D01*
X238641Y296872D01*
X238776Y296795D01*
X238908Y296715D01*
X239038Y296631D01*
X239166Y296544D01*
X239292Y296454D01*
X239416Y296361D01*
X239537Y296264D01*
X239655Y296164D01*
X239771Y296062D01*
X239885Y295956D01*
X239995Y295848D01*
X240103Y295737D01*
X240208Y295623D01*
X240310Y295506D01*
X240408Y295387D01*
X240504Y295265D01*
X240597Y295141D01*
X240686Y295015D01*
X240772Y294886D01*
X240855Y294755D01*
X240935Y294622D01*
X241011Y294487D01*
X241083Y294350D01*
X241152Y294212D01*
X241217Y294071D01*
X241279Y293929D01*
X241337Y293786D01*
X241392Y293641D01*
X241442Y293495D01*
X241489Y293347D01*
X241532Y293198D01*
X241572Y293049D01*
X241607Y292898D01*
X241639Y292746D01*
X241666Y292594D01*
X241690Y292441D01*
X241710Y292287D01*
X241726Y292133D01*
X241738Y291979D01*
X241746Y291824D01*
X241750Y291669D01*
X241750Y291515D01*
X241746Y291360D01*
X241738Y291205D01*
X241726Y291051D01*
X241710Y290897D01*
X241690Y290743D01*
X241666Y290590D01*
X241639Y290438D01*
X241607Y290286D01*
X241572Y290135D01*
X241532Y289986D01*
X241489Y289837D01*
X241442Y289689D01*
X241392Y289543D01*
X241337Y289398D01*
X241279Y289255D01*
X241217Y289113D01*
X241152Y288972D01*
X241083Y288834D01*
X241011Y288697D01*
X240935Y288562D01*
X240855Y288429D01*
X240772Y288298D01*
X240686Y288169D01*
X240597Y288043D01*
X240504Y287919D01*
X240408Y287797D01*
X240310Y287678D01*
X240208Y287561D01*
X240103Y287447D01*
X239995Y287336D01*
X239885Y287228D01*
X239771Y287122D01*
X239655Y287020D01*
X239537Y286920D01*
X239416Y286823D01*
X239292Y286730D01*
X239166Y286640D01*
X239038Y286553D01*
X238908Y286469D01*
X238776Y286389D01*
X238641Y286312D01*
X238505Y286239D01*
X238367Y286169D01*
X238227Y286103D01*
X238085Y286040D01*
X237942Y285981D01*
X237797Y285926D01*
X237651Y285874D01*
X237504Y285826D01*
X237356Y285782D01*
X237206Y285742D01*
X237056Y285705D01*
X236904Y285673D01*
X236752Y285644D01*
X236599Y285620D01*
X236446Y285599D01*
X236292Y285582D01*
X236137Y285569D01*
X235983Y285560D01*
X235828Y285555D01*
X235673Y285554D01*
X235518Y285557D01*
X235364Y285564D01*
X235209Y285575D01*
X235055Y285590D01*
X234901Y285609D01*
X234748Y285631D01*
X234596Y285658D01*
X234444Y285689D01*
X234293Y285723D01*
X234143Y285761D01*
X233994Y285804D01*
X233846Y285850D01*
X233700Y285899D01*
X233554Y285953D01*
X233410Y286010D01*
X233268Y286071D01*
X233127Y286135D01*
X232988Y286203D01*
X232851Y286275D01*
X232715Y286350D01*
X232582Y286429D01*
X232451Y286511D01*
X232321Y286596D01*
X232194Y286685D01*
X232070Y286776D01*
X231947Y286871D01*
X231828Y286969D01*
X231710Y287071D01*
X231596Y287175D01*
X231484Y287282D01*
X231375Y287391D01*
X231268Y287504D01*
X231165Y287619D01*
X231065Y287737D01*
X230967Y287858D01*
X230873Y287981D01*
X230782Y288106D01*
X230694Y288233D01*
X230610Y288363D01*
X230529Y288495D01*
X230451Y288629D01*
X230377Y288765D01*
X230306Y288903D01*
X230239Y289042D01*
X230175Y289183D01*
X230115Y289326D01*
X230059Y289470D01*
X230006Y289616D01*
X229958Y289763D01*
X229913Y289911D01*
X229871Y290060D01*
X229834Y290211D01*
X229801Y290362D01*
X229771Y290514D01*
X229745Y290667D01*
X229724Y290820D01*
X229706Y290974D01*
X229692Y291128D01*
X229682Y291282D01*
X229676Y291437D01*
X229674Y291592D01*
X229928Y271272D02*
X229930Y271427D01*
X229936Y271582D01*
X229946Y271736D01*
X229960Y271890D01*
X229978Y272044D01*
X229999Y272197D01*
X230025Y272350D01*
X230055Y272502D01*
X230088Y272653D01*
X230125Y272804D01*
X230167Y272953D01*
X230212Y273101D01*
X230260Y273248D01*
X230313Y273394D01*
X230369Y273538D01*
X230429Y273681D01*
X230493Y273822D01*
X230560Y273961D01*
X230631Y274099D01*
X230705Y274235D01*
X230783Y274369D01*
X230864Y274501D01*
X230948Y274631D01*
X231036Y274758D01*
X231127Y274883D01*
X231221Y275006D01*
X231319Y275127D01*
X231419Y275245D01*
X231522Y275360D01*
X231629Y275473D01*
X231738Y275582D01*
X231850Y275689D01*
X231964Y275793D01*
X232082Y275895D01*
X232201Y275993D01*
X232324Y276088D01*
X232448Y276179D01*
X232575Y276268D01*
X232705Y276353D01*
X232836Y276435D01*
X232969Y276514D01*
X233105Y276589D01*
X233242Y276661D01*
X233381Y276729D01*
X233522Y276793D01*
X233664Y276854D01*
X233808Y276911D01*
X233954Y276965D01*
X234100Y277014D01*
X234248Y277060D01*
X234397Y277103D01*
X234547Y277141D01*
X234698Y277175D01*
X234850Y277206D01*
X235002Y277233D01*
X235155Y277255D01*
X235309Y277274D01*
X235463Y277289D01*
X235618Y277300D01*
X235772Y277307D01*
X235927Y277310D01*
X236082Y277309D01*
X236237Y277304D01*
X236391Y277295D01*
X236546Y277282D01*
X236700Y277265D01*
X236853Y277244D01*
X237006Y277220D01*
X237158Y277191D01*
X237310Y277159D01*
X237460Y277122D01*
X237610Y277082D01*
X237758Y277038D01*
X237905Y276990D01*
X238051Y276938D01*
X238196Y276883D01*
X238339Y276824D01*
X238481Y276761D01*
X238621Y276695D01*
X238759Y276625D01*
X238895Y276552D01*
X239030Y276475D01*
X239162Y276395D01*
X239292Y276311D01*
X239420Y276224D01*
X239546Y276134D01*
X239670Y276041D01*
X239791Y275944D01*
X239909Y275844D01*
X240025Y275742D01*
X240139Y275636D01*
X240249Y275528D01*
X240357Y275417D01*
X240462Y275303D01*
X240564Y275186D01*
X240662Y275067D01*
X240758Y274945D01*
X240851Y274821D01*
X240940Y274695D01*
X241026Y274566D01*
X241109Y274435D01*
X241189Y274302D01*
X241265Y274167D01*
X241337Y274030D01*
X241406Y273892D01*
X241471Y273751D01*
X241533Y273609D01*
X241591Y273466D01*
X241646Y273321D01*
X241696Y273175D01*
X241743Y273027D01*
X241786Y272878D01*
X241826Y272729D01*
X241861Y272578D01*
X241893Y272426D01*
X241920Y272274D01*
X241944Y272121D01*
X241964Y271967D01*
X241980Y271813D01*
X241992Y271659D01*
X242000Y271504D01*
X242004Y271349D01*
X242004Y271195D01*
X242000Y271040D01*
X241992Y270885D01*
X241980Y270731D01*
X241964Y270577D01*
X241944Y270423D01*
X241920Y270270D01*
X241893Y270118D01*
X241861Y269966D01*
X241826Y269815D01*
X241786Y269666D01*
X241743Y269517D01*
X241696Y269369D01*
X241646Y269223D01*
X241591Y269078D01*
X241533Y268935D01*
X241471Y268793D01*
X241406Y268652D01*
X241337Y268514D01*
X241265Y268377D01*
X241189Y268242D01*
X241109Y268109D01*
X241026Y267978D01*
X240940Y267849D01*
X240851Y267723D01*
X240758Y267599D01*
X240662Y267477D01*
X240564Y267358D01*
X240462Y267241D01*
X240357Y267127D01*
X240249Y267016D01*
X240139Y266908D01*
X240025Y266802D01*
X239909Y266700D01*
X239791Y266600D01*
X239670Y266503D01*
X239546Y266410D01*
X239420Y266320D01*
X239292Y266233D01*
X239162Y266149D01*
X239030Y266069D01*
X238895Y265992D01*
X238759Y265919D01*
X238621Y265849D01*
X238481Y265783D01*
X238339Y265720D01*
X238196Y265661D01*
X238051Y265606D01*
X237905Y265554D01*
X237758Y265506D01*
X237610Y265462D01*
X237460Y265422D01*
X237310Y265385D01*
X237158Y265353D01*
X237006Y265324D01*
X236853Y265300D01*
X236700Y265279D01*
X236546Y265262D01*
X236391Y265249D01*
X236237Y265240D01*
X236082Y265235D01*
X235927Y265234D01*
X235772Y265237D01*
X235618Y265244D01*
X235463Y265255D01*
X235309Y265270D01*
X235155Y265289D01*
X235002Y265311D01*
X234850Y265338D01*
X234698Y265369D01*
X234547Y265403D01*
X234397Y265441D01*
X234248Y265484D01*
X234100Y265530D01*
X233954Y265579D01*
X233808Y265633D01*
X233664Y265690D01*
X233522Y265751D01*
X233381Y265815D01*
X233242Y265883D01*
X233105Y265955D01*
X232969Y266030D01*
X232836Y266109D01*
X232705Y266191D01*
X232575Y266276D01*
X232448Y266365D01*
X232324Y266456D01*
X232201Y266551D01*
X232082Y266649D01*
X231964Y266751D01*
X231850Y266855D01*
X231738Y266962D01*
X231629Y267071D01*
X231522Y267184D01*
X231419Y267299D01*
X231319Y267417D01*
X231221Y267538D01*
X231127Y267661D01*
X231036Y267786D01*
X230948Y267913D01*
X230864Y268043D01*
X230783Y268175D01*
X230705Y268309D01*
X230631Y268445D01*
X230560Y268583D01*
X230493Y268722D01*
X230429Y268863D01*
X230369Y269006D01*
X230313Y269150D01*
X230260Y269296D01*
X230212Y269443D01*
X230167Y269591D01*
X230125Y269740D01*
X230088Y269891D01*
X230055Y270042D01*
X230025Y270194D01*
X229999Y270347D01*
X229978Y270500D01*
X229960Y270654D01*
X229946Y270808D01*
X229936Y270962D01*
X229930Y271117D01*
X229928Y271272D01*
X229674Y245364D02*
X229676Y245519D01*
X229682Y245674D01*
X229692Y245828D01*
X229706Y245982D01*
X229724Y246136D01*
X229745Y246289D01*
X229771Y246442D01*
X229801Y246594D01*
X229834Y246745D01*
X229871Y246896D01*
X229913Y247045D01*
X229958Y247193D01*
X230006Y247340D01*
X230059Y247486D01*
X230115Y247630D01*
X230175Y247773D01*
X230239Y247914D01*
X230306Y248053D01*
X230377Y248191D01*
X230451Y248327D01*
X230529Y248461D01*
X230610Y248593D01*
X230694Y248723D01*
X230782Y248850D01*
X230873Y248975D01*
X230967Y249098D01*
X231065Y249219D01*
X231165Y249337D01*
X231268Y249452D01*
X231375Y249565D01*
X231484Y249674D01*
X231596Y249781D01*
X231710Y249885D01*
X231828Y249987D01*
X231947Y250085D01*
X232070Y250180D01*
X232194Y250271D01*
X232321Y250360D01*
X232451Y250445D01*
X232582Y250527D01*
X232715Y250606D01*
X232851Y250681D01*
X232988Y250753D01*
X233127Y250821D01*
X233268Y250885D01*
X233410Y250946D01*
X233554Y251003D01*
X233700Y251057D01*
X233846Y251106D01*
X233994Y251152D01*
X234143Y251195D01*
X234293Y251233D01*
X234444Y251267D01*
X234596Y251298D01*
X234748Y251325D01*
X234901Y251347D01*
X235055Y251366D01*
X235209Y251381D01*
X235364Y251392D01*
X235518Y251399D01*
X235673Y251402D01*
X235828Y251401D01*
X235983Y251396D01*
X236137Y251387D01*
X236292Y251374D01*
X236446Y251357D01*
X236599Y251336D01*
X236752Y251312D01*
X236904Y251283D01*
X237056Y251251D01*
X237206Y251214D01*
X237356Y251174D01*
X237504Y251130D01*
X237651Y251082D01*
X237797Y251030D01*
X237942Y250975D01*
X238085Y250916D01*
X238227Y250853D01*
X238367Y250787D01*
X238505Y250717D01*
X238641Y250644D01*
X238776Y250567D01*
X238908Y250487D01*
X239038Y250403D01*
X239166Y250316D01*
X239292Y250226D01*
X239416Y250133D01*
X239537Y250036D01*
X239655Y249936D01*
X239771Y249834D01*
X239885Y249728D01*
X239995Y249620D01*
X240103Y249509D01*
X240208Y249395D01*
X240310Y249278D01*
X240408Y249159D01*
X240504Y249037D01*
X240597Y248913D01*
X240686Y248787D01*
X240772Y248658D01*
X240855Y248527D01*
X240935Y248394D01*
X241011Y248259D01*
X241083Y248122D01*
X241152Y247984D01*
X241217Y247843D01*
X241279Y247701D01*
X241337Y247558D01*
X241392Y247413D01*
X241442Y247267D01*
X241489Y247119D01*
X241532Y246970D01*
X241572Y246821D01*
X241607Y246670D01*
X241639Y246518D01*
X241666Y246366D01*
X241690Y246213D01*
X241710Y246059D01*
X241726Y245905D01*
X241738Y245751D01*
X241746Y245596D01*
X241750Y245441D01*
X241750Y245287D01*
X241746Y245132D01*
X241738Y244977D01*
X241726Y244823D01*
X241710Y244669D01*
X241690Y244515D01*
X241666Y244362D01*
X241639Y244210D01*
X241607Y244058D01*
X241572Y243907D01*
X241532Y243758D01*
X241489Y243609D01*
X241442Y243461D01*
X241392Y243315D01*
X241337Y243170D01*
X241279Y243027D01*
X241217Y242885D01*
X241152Y242744D01*
X241083Y242606D01*
X241011Y242469D01*
X240935Y242334D01*
X240855Y242201D01*
X240772Y242070D01*
X240686Y241941D01*
X240597Y241815D01*
X240504Y241691D01*
X240408Y241569D01*
X240310Y241450D01*
X240208Y241333D01*
X240103Y241219D01*
X239995Y241108D01*
X239885Y241000D01*
X239771Y240894D01*
X239655Y240792D01*
X239537Y240692D01*
X239416Y240595D01*
X239292Y240502D01*
X239166Y240412D01*
X239038Y240325D01*
X238908Y240241D01*
X238776Y240161D01*
X238641Y240084D01*
X238505Y240011D01*
X238367Y239941D01*
X238227Y239875D01*
X238085Y239812D01*
X237942Y239753D01*
X237797Y239698D01*
X237651Y239646D01*
X237504Y239598D01*
X237356Y239554D01*
X237206Y239514D01*
X237056Y239477D01*
X236904Y239445D01*
X236752Y239416D01*
X236599Y239392D01*
X236446Y239371D01*
X236292Y239354D01*
X236137Y239341D01*
X235983Y239332D01*
X235828Y239327D01*
X235673Y239326D01*
X235518Y239329D01*
X235364Y239336D01*
X235209Y239347D01*
X235055Y239362D01*
X234901Y239381D01*
X234748Y239403D01*
X234596Y239430D01*
X234444Y239461D01*
X234293Y239495D01*
X234143Y239533D01*
X233994Y239576D01*
X233846Y239622D01*
X233700Y239671D01*
X233554Y239725D01*
X233410Y239782D01*
X233268Y239843D01*
X233127Y239907D01*
X232988Y239975D01*
X232851Y240047D01*
X232715Y240122D01*
X232582Y240201D01*
X232451Y240283D01*
X232321Y240368D01*
X232194Y240457D01*
X232070Y240548D01*
X231947Y240643D01*
X231828Y240741D01*
X231710Y240843D01*
X231596Y240947D01*
X231484Y241054D01*
X231375Y241163D01*
X231268Y241276D01*
X231165Y241391D01*
X231065Y241509D01*
X230967Y241630D01*
X230873Y241753D01*
X230782Y241878D01*
X230694Y242005D01*
X230610Y242135D01*
X230529Y242267D01*
X230451Y242401D01*
X230377Y242537D01*
X230306Y242675D01*
X230239Y242814D01*
X230175Y242955D01*
X230115Y243098D01*
X230059Y243242D01*
X230006Y243388D01*
X229958Y243535D01*
X229913Y243683D01*
X229871Y243832D01*
X229834Y243983D01*
X229801Y244134D01*
X229771Y244286D01*
X229745Y244439D01*
X229724Y244592D01*
X229706Y244746D01*
X229692Y244900D01*
X229682Y245054D01*
X229676Y245209D01*
X229674Y245364D01*
X369882Y233680D02*
X369884Y233835D01*
X369890Y233990D01*
X369900Y234144D01*
X369914Y234298D01*
X369932Y234452D01*
X369953Y234605D01*
X369979Y234758D01*
X370009Y234910D01*
X370042Y235061D01*
X370079Y235212D01*
X370121Y235361D01*
X370166Y235509D01*
X370214Y235656D01*
X370267Y235802D01*
X370323Y235946D01*
X370383Y236089D01*
X370447Y236230D01*
X370514Y236369D01*
X370585Y236507D01*
X370659Y236643D01*
X370737Y236777D01*
X370818Y236909D01*
X370902Y237039D01*
X370990Y237166D01*
X371081Y237291D01*
X371175Y237414D01*
X371273Y237535D01*
X371373Y237653D01*
X371476Y237768D01*
X371583Y237881D01*
X371692Y237990D01*
X371804Y238097D01*
X371918Y238201D01*
X372036Y238303D01*
X372155Y238401D01*
X372278Y238496D01*
X372402Y238587D01*
X372529Y238676D01*
X372659Y238761D01*
X372790Y238843D01*
X372923Y238922D01*
X373059Y238997D01*
X373196Y239069D01*
X373335Y239137D01*
X373476Y239201D01*
X373618Y239262D01*
X373762Y239319D01*
X373908Y239373D01*
X374054Y239422D01*
X374202Y239468D01*
X374351Y239511D01*
X374501Y239549D01*
X374652Y239583D01*
X374804Y239614D01*
X374956Y239641D01*
X375109Y239663D01*
X375263Y239682D01*
X375417Y239697D01*
X375572Y239708D01*
X375726Y239715D01*
X375881Y239718D01*
X376036Y239717D01*
X376191Y239712D01*
X376345Y239703D01*
X376500Y239690D01*
X376654Y239673D01*
X376807Y239652D01*
X376960Y239628D01*
X377112Y239599D01*
X377264Y239567D01*
X377414Y239530D01*
X377564Y239490D01*
X377712Y239446D01*
X377859Y239398D01*
X378005Y239346D01*
X378150Y239291D01*
X378293Y239232D01*
X378435Y239169D01*
X378575Y239103D01*
X378713Y239033D01*
X378849Y238960D01*
X378984Y238883D01*
X379116Y238803D01*
X379246Y238719D01*
X379374Y238632D01*
X379500Y238542D01*
X379624Y238449D01*
X379745Y238352D01*
X379863Y238252D01*
X379979Y238150D01*
X380093Y238044D01*
X380203Y237936D01*
X380311Y237825D01*
X380416Y237711D01*
X380518Y237594D01*
X380616Y237475D01*
X380712Y237353D01*
X380805Y237229D01*
X380894Y237103D01*
X380980Y236974D01*
X381063Y236843D01*
X381143Y236710D01*
X381219Y236575D01*
X381291Y236438D01*
X381360Y236300D01*
X381425Y236159D01*
X381487Y236017D01*
X381545Y235874D01*
X381600Y235729D01*
X381650Y235583D01*
X381697Y235435D01*
X381740Y235286D01*
X381780Y235137D01*
X381815Y234986D01*
X381847Y234834D01*
X381874Y234682D01*
X381898Y234529D01*
X381918Y234375D01*
X381934Y234221D01*
X381946Y234067D01*
X381954Y233912D01*
X381958Y233757D01*
X381958Y233603D01*
X381954Y233448D01*
X381946Y233293D01*
X381934Y233139D01*
X381918Y232985D01*
X381898Y232831D01*
X381874Y232678D01*
X381847Y232526D01*
X381815Y232374D01*
X381780Y232223D01*
X381740Y232074D01*
X381697Y231925D01*
X381650Y231777D01*
X381600Y231631D01*
X381545Y231486D01*
X381487Y231343D01*
X381425Y231201D01*
X381360Y231060D01*
X381291Y230922D01*
X381219Y230785D01*
X381143Y230650D01*
X381063Y230517D01*
X380980Y230386D01*
X380894Y230257D01*
X380805Y230131D01*
X380712Y230007D01*
X380616Y229885D01*
X380518Y229766D01*
X380416Y229649D01*
X380311Y229535D01*
X380203Y229424D01*
X380093Y229316D01*
X379979Y229210D01*
X379863Y229108D01*
X379745Y229008D01*
X379624Y228911D01*
X379500Y228818D01*
X379374Y228728D01*
X379246Y228641D01*
X379116Y228557D01*
X378984Y228477D01*
X378849Y228400D01*
X378713Y228327D01*
X378575Y228257D01*
X378435Y228191D01*
X378293Y228128D01*
X378150Y228069D01*
X378005Y228014D01*
X377859Y227962D01*
X377712Y227914D01*
X377564Y227870D01*
X377414Y227830D01*
X377264Y227793D01*
X377112Y227761D01*
X376960Y227732D01*
X376807Y227708D01*
X376654Y227687D01*
X376500Y227670D01*
X376345Y227657D01*
X376191Y227648D01*
X376036Y227643D01*
X375881Y227642D01*
X375726Y227645D01*
X375572Y227652D01*
X375417Y227663D01*
X375263Y227678D01*
X375109Y227697D01*
X374956Y227719D01*
X374804Y227746D01*
X374652Y227777D01*
X374501Y227811D01*
X374351Y227849D01*
X374202Y227892D01*
X374054Y227938D01*
X373908Y227987D01*
X373762Y228041D01*
X373618Y228098D01*
X373476Y228159D01*
X373335Y228223D01*
X373196Y228291D01*
X373059Y228363D01*
X372923Y228438D01*
X372790Y228517D01*
X372659Y228599D01*
X372529Y228684D01*
X372402Y228773D01*
X372278Y228864D01*
X372155Y228959D01*
X372036Y229057D01*
X371918Y229159D01*
X371804Y229263D01*
X371692Y229370D01*
X371583Y229479D01*
X371476Y229592D01*
X371373Y229707D01*
X371273Y229825D01*
X371175Y229946D01*
X371081Y230069D01*
X370990Y230194D01*
X370902Y230321D01*
X370818Y230451D01*
X370737Y230583D01*
X370659Y230717D01*
X370585Y230853D01*
X370514Y230991D01*
X370447Y231130D01*
X370383Y231271D01*
X370323Y231414D01*
X370267Y231558D01*
X370214Y231704D01*
X370166Y231851D01*
X370121Y231999D01*
X370079Y232148D01*
X370042Y232299D01*
X370009Y232450D01*
X369979Y232602D01*
X369953Y232755D01*
X369932Y232908D01*
X369914Y233062D01*
X369900Y233216D01*
X369890Y233370D01*
X369884Y233525D01*
X369882Y233680D01*
X369882Y182880D02*
X369884Y183035D01*
X369890Y183190D01*
X369900Y183344D01*
X369914Y183498D01*
X369932Y183652D01*
X369953Y183805D01*
X369979Y183958D01*
X370009Y184110D01*
X370042Y184261D01*
X370079Y184412D01*
X370121Y184561D01*
X370166Y184709D01*
X370214Y184856D01*
X370267Y185002D01*
X370323Y185146D01*
X370383Y185289D01*
X370447Y185430D01*
X370514Y185569D01*
X370585Y185707D01*
X370659Y185843D01*
X370737Y185977D01*
X370818Y186109D01*
X370902Y186239D01*
X370990Y186366D01*
X371081Y186491D01*
X371175Y186614D01*
X371273Y186735D01*
X371373Y186853D01*
X371476Y186968D01*
X371583Y187081D01*
X371692Y187190D01*
X371804Y187297D01*
X371918Y187401D01*
X372036Y187503D01*
X372155Y187601D01*
X372278Y187696D01*
X372402Y187787D01*
X372529Y187876D01*
X372659Y187961D01*
X372790Y188043D01*
X372923Y188122D01*
X373059Y188197D01*
X373196Y188269D01*
X373335Y188337D01*
X373476Y188401D01*
X373618Y188462D01*
X373762Y188519D01*
X373908Y188573D01*
X374054Y188622D01*
X374202Y188668D01*
X374351Y188711D01*
X374501Y188749D01*
X374652Y188783D01*
X374804Y188814D01*
X374956Y188841D01*
X375109Y188863D01*
X375263Y188882D01*
X375417Y188897D01*
X375572Y188908D01*
X375726Y188915D01*
X375881Y188918D01*
X376036Y188917D01*
X376191Y188912D01*
X376345Y188903D01*
X376500Y188890D01*
X376654Y188873D01*
X376807Y188852D01*
X376960Y188828D01*
X377112Y188799D01*
X377264Y188767D01*
X377414Y188730D01*
X377564Y188690D01*
X377712Y188646D01*
X377859Y188598D01*
X378005Y188546D01*
X378150Y188491D01*
X378293Y188432D01*
X378435Y188369D01*
X378575Y188303D01*
X378713Y188233D01*
X378849Y188160D01*
X378984Y188083D01*
X379116Y188003D01*
X379246Y187919D01*
X379374Y187832D01*
X379500Y187742D01*
X379624Y187649D01*
X379745Y187552D01*
X379863Y187452D01*
X379979Y187350D01*
X380093Y187244D01*
X380203Y187136D01*
X380311Y187025D01*
X380416Y186911D01*
X380518Y186794D01*
X380616Y186675D01*
X380712Y186553D01*
X380805Y186429D01*
X380894Y186303D01*
X380980Y186174D01*
X381063Y186043D01*
X381143Y185910D01*
X381219Y185775D01*
X381291Y185638D01*
X381360Y185500D01*
X381425Y185359D01*
X381487Y185217D01*
X381545Y185074D01*
X381600Y184929D01*
X381650Y184783D01*
X381697Y184635D01*
X381740Y184486D01*
X381780Y184337D01*
X381815Y184186D01*
X381847Y184034D01*
X381874Y183882D01*
X381898Y183729D01*
X381918Y183575D01*
X381934Y183421D01*
X381946Y183267D01*
X381954Y183112D01*
X381958Y182957D01*
X381958Y182803D01*
X381954Y182648D01*
X381946Y182493D01*
X381934Y182339D01*
X381918Y182185D01*
X381898Y182031D01*
X381874Y181878D01*
X381847Y181726D01*
X381815Y181574D01*
X381780Y181423D01*
X381740Y181274D01*
X381697Y181125D01*
X381650Y180977D01*
X381600Y180831D01*
X381545Y180686D01*
X381487Y180543D01*
X381425Y180401D01*
X381360Y180260D01*
X381291Y180122D01*
X381219Y179985D01*
X381143Y179850D01*
X381063Y179717D01*
X380980Y179586D01*
X380894Y179457D01*
X380805Y179331D01*
X380712Y179207D01*
X380616Y179085D01*
X380518Y178966D01*
X380416Y178849D01*
X380311Y178735D01*
X380203Y178624D01*
X380093Y178516D01*
X379979Y178410D01*
X379863Y178308D01*
X379745Y178208D01*
X379624Y178111D01*
X379500Y178018D01*
X379374Y177928D01*
X379246Y177841D01*
X379116Y177757D01*
X378984Y177677D01*
X378849Y177600D01*
X378713Y177527D01*
X378575Y177457D01*
X378435Y177391D01*
X378293Y177328D01*
X378150Y177269D01*
X378005Y177214D01*
X377859Y177162D01*
X377712Y177114D01*
X377564Y177070D01*
X377414Y177030D01*
X377264Y176993D01*
X377112Y176961D01*
X376960Y176932D01*
X376807Y176908D01*
X376654Y176887D01*
X376500Y176870D01*
X376345Y176857D01*
X376191Y176848D01*
X376036Y176843D01*
X375881Y176842D01*
X375726Y176845D01*
X375572Y176852D01*
X375417Y176863D01*
X375263Y176878D01*
X375109Y176897D01*
X374956Y176919D01*
X374804Y176946D01*
X374652Y176977D01*
X374501Y177011D01*
X374351Y177049D01*
X374202Y177092D01*
X374054Y177138D01*
X373908Y177187D01*
X373762Y177241D01*
X373618Y177298D01*
X373476Y177359D01*
X373335Y177423D01*
X373196Y177491D01*
X373059Y177563D01*
X372923Y177638D01*
X372790Y177717D01*
X372659Y177799D01*
X372529Y177884D01*
X372402Y177973D01*
X372278Y178064D01*
X372155Y178159D01*
X372036Y178257D01*
X371918Y178359D01*
X371804Y178463D01*
X371692Y178570D01*
X371583Y178679D01*
X371476Y178792D01*
X371373Y178907D01*
X371273Y179025D01*
X371175Y179146D01*
X371081Y179269D01*
X370990Y179394D01*
X370902Y179521D01*
X370818Y179651D01*
X370737Y179783D01*
X370659Y179917D01*
X370585Y180053D01*
X370514Y180191D01*
X370447Y180330D01*
X370383Y180471D01*
X370323Y180614D01*
X370267Y180758D01*
X370214Y180904D01*
X370166Y181051D01*
X370121Y181199D01*
X370079Y181348D01*
X370042Y181499D01*
X370009Y181650D01*
X369979Y181802D01*
X369953Y181955D01*
X369932Y182108D01*
X369914Y182262D01*
X369900Y182416D01*
X369890Y182570D01*
X369884Y182725D01*
X369882Y182880D01*
X540062Y182880D02*
X540064Y183035D01*
X540070Y183190D01*
X540080Y183344D01*
X540094Y183498D01*
X540112Y183652D01*
X540133Y183805D01*
X540159Y183958D01*
X540189Y184110D01*
X540222Y184261D01*
X540259Y184412D01*
X540301Y184561D01*
X540346Y184709D01*
X540394Y184856D01*
X540447Y185002D01*
X540503Y185146D01*
X540563Y185289D01*
X540627Y185430D01*
X540694Y185569D01*
X540765Y185707D01*
X540839Y185843D01*
X540917Y185977D01*
X540998Y186109D01*
X541082Y186239D01*
X541170Y186366D01*
X541261Y186491D01*
X541355Y186614D01*
X541453Y186735D01*
X541553Y186853D01*
X541656Y186968D01*
X541763Y187081D01*
X541872Y187190D01*
X541984Y187297D01*
X542098Y187401D01*
X542216Y187503D01*
X542335Y187601D01*
X542458Y187696D01*
X542582Y187787D01*
X542709Y187876D01*
X542839Y187961D01*
X542970Y188043D01*
X543103Y188122D01*
X543239Y188197D01*
X543376Y188269D01*
X543515Y188337D01*
X543656Y188401D01*
X543798Y188462D01*
X543942Y188519D01*
X544088Y188573D01*
X544234Y188622D01*
X544382Y188668D01*
X544531Y188711D01*
X544681Y188749D01*
X544832Y188783D01*
X544984Y188814D01*
X545136Y188841D01*
X545289Y188863D01*
X545443Y188882D01*
X545597Y188897D01*
X545752Y188908D01*
X545906Y188915D01*
X546061Y188918D01*
X546216Y188917D01*
X546371Y188912D01*
X546525Y188903D01*
X546680Y188890D01*
X546834Y188873D01*
X546987Y188852D01*
X547140Y188828D01*
X547292Y188799D01*
X547444Y188767D01*
X547594Y188730D01*
X547744Y188690D01*
X547892Y188646D01*
X548039Y188598D01*
X548185Y188546D01*
X548330Y188491D01*
X548473Y188432D01*
X548615Y188369D01*
X548755Y188303D01*
X548893Y188233D01*
X549029Y188160D01*
X549164Y188083D01*
X549296Y188003D01*
X549426Y187919D01*
X549554Y187832D01*
X549680Y187742D01*
X549804Y187649D01*
X549925Y187552D01*
X550043Y187452D01*
X550159Y187350D01*
X550273Y187244D01*
X550383Y187136D01*
X550491Y187025D01*
X550596Y186911D01*
X550698Y186794D01*
X550796Y186675D01*
X550892Y186553D01*
X550985Y186429D01*
X551074Y186303D01*
X551160Y186174D01*
X551243Y186043D01*
X551323Y185910D01*
X551399Y185775D01*
X551471Y185638D01*
X551540Y185500D01*
X551605Y185359D01*
X551667Y185217D01*
X551725Y185074D01*
X551780Y184929D01*
X551830Y184783D01*
X551877Y184635D01*
X551920Y184486D01*
X551960Y184337D01*
X551995Y184186D01*
X552027Y184034D01*
X552054Y183882D01*
X552078Y183729D01*
X552098Y183575D01*
X552114Y183421D01*
X552126Y183267D01*
X552134Y183112D01*
X552138Y182957D01*
X552138Y182803D01*
X552134Y182648D01*
X552126Y182493D01*
X552114Y182339D01*
X552098Y182185D01*
X552078Y182031D01*
X552054Y181878D01*
X552027Y181726D01*
X551995Y181574D01*
X551960Y181423D01*
X551920Y181274D01*
X551877Y181125D01*
X551830Y180977D01*
X551780Y180831D01*
X551725Y180686D01*
X551667Y180543D01*
X551605Y180401D01*
X551540Y180260D01*
X551471Y180122D01*
X551399Y179985D01*
X551323Y179850D01*
X551243Y179717D01*
X551160Y179586D01*
X551074Y179457D01*
X550985Y179331D01*
X550892Y179207D01*
X550796Y179085D01*
X550698Y178966D01*
X550596Y178849D01*
X550491Y178735D01*
X550383Y178624D01*
X550273Y178516D01*
X550159Y178410D01*
X550043Y178308D01*
X549925Y178208D01*
X549804Y178111D01*
X549680Y178018D01*
X549554Y177928D01*
X549426Y177841D01*
X549296Y177757D01*
X549164Y177677D01*
X549029Y177600D01*
X548893Y177527D01*
X548755Y177457D01*
X548615Y177391D01*
X548473Y177328D01*
X548330Y177269D01*
X548185Y177214D01*
X548039Y177162D01*
X547892Y177114D01*
X547744Y177070D01*
X547594Y177030D01*
X547444Y176993D01*
X547292Y176961D01*
X547140Y176932D01*
X546987Y176908D01*
X546834Y176887D01*
X546680Y176870D01*
X546525Y176857D01*
X546371Y176848D01*
X546216Y176843D01*
X546061Y176842D01*
X545906Y176845D01*
X545752Y176852D01*
X545597Y176863D01*
X545443Y176878D01*
X545289Y176897D01*
X545136Y176919D01*
X544984Y176946D01*
X544832Y176977D01*
X544681Y177011D01*
X544531Y177049D01*
X544382Y177092D01*
X544234Y177138D01*
X544088Y177187D01*
X543942Y177241D01*
X543798Y177298D01*
X543656Y177359D01*
X543515Y177423D01*
X543376Y177491D01*
X543239Y177563D01*
X543103Y177638D01*
X542970Y177717D01*
X542839Y177799D01*
X542709Y177884D01*
X542582Y177973D01*
X542458Y178064D01*
X542335Y178159D01*
X542216Y178257D01*
X542098Y178359D01*
X541984Y178463D01*
X541872Y178570D01*
X541763Y178679D01*
X541656Y178792D01*
X541553Y178907D01*
X541453Y179025D01*
X541355Y179146D01*
X541261Y179269D01*
X541170Y179394D01*
X541082Y179521D01*
X540998Y179651D01*
X540917Y179783D01*
X540839Y179917D01*
X540765Y180053D01*
X540694Y180191D01*
X540627Y180330D01*
X540563Y180471D01*
X540503Y180614D01*
X540447Y180758D01*
X540394Y180904D01*
X540346Y181051D01*
X540301Y181199D01*
X540259Y181348D01*
X540222Y181499D01*
X540189Y181650D01*
X540159Y181802D01*
X540133Y181955D01*
X540112Y182108D01*
X540094Y182262D01*
X540080Y182416D01*
X540070Y182570D01*
X540064Y182725D01*
X540062Y182880D01*
X540062Y233680D02*
X540064Y233835D01*
X540070Y233990D01*
X540080Y234144D01*
X540094Y234298D01*
X540112Y234452D01*
X540133Y234605D01*
X540159Y234758D01*
X540189Y234910D01*
X540222Y235061D01*
X540259Y235212D01*
X540301Y235361D01*
X540346Y235509D01*
X540394Y235656D01*
X540447Y235802D01*
X540503Y235946D01*
X540563Y236089D01*
X540627Y236230D01*
X540694Y236369D01*
X540765Y236507D01*
X540839Y236643D01*
X540917Y236777D01*
X540998Y236909D01*
X541082Y237039D01*
X541170Y237166D01*
X541261Y237291D01*
X541355Y237414D01*
X541453Y237535D01*
X541553Y237653D01*
X541656Y237768D01*
X541763Y237881D01*
X541872Y237990D01*
X541984Y238097D01*
X542098Y238201D01*
X542216Y238303D01*
X542335Y238401D01*
X542458Y238496D01*
X542582Y238587D01*
X542709Y238676D01*
X542839Y238761D01*
X542970Y238843D01*
X543103Y238922D01*
X543239Y238997D01*
X543376Y239069D01*
X543515Y239137D01*
X543656Y239201D01*
X543798Y239262D01*
X543942Y239319D01*
X544088Y239373D01*
X544234Y239422D01*
X544382Y239468D01*
X544531Y239511D01*
X544681Y239549D01*
X544832Y239583D01*
X544984Y239614D01*
X545136Y239641D01*
X545289Y239663D01*
X545443Y239682D01*
X545597Y239697D01*
X545752Y239708D01*
X545906Y239715D01*
X546061Y239718D01*
X546216Y239717D01*
X546371Y239712D01*
X546525Y239703D01*
X546680Y239690D01*
X546834Y239673D01*
X546987Y239652D01*
X547140Y239628D01*
X547292Y239599D01*
X547444Y239567D01*
X547594Y239530D01*
X547744Y239490D01*
X547892Y239446D01*
X548039Y239398D01*
X548185Y239346D01*
X548330Y239291D01*
X548473Y239232D01*
X548615Y239169D01*
X548755Y239103D01*
X548893Y239033D01*
X549029Y238960D01*
X549164Y238883D01*
X549296Y238803D01*
X549426Y238719D01*
X549554Y238632D01*
X549680Y238542D01*
X549804Y238449D01*
X549925Y238352D01*
X550043Y238252D01*
X550159Y238150D01*
X550273Y238044D01*
X550383Y237936D01*
X550491Y237825D01*
X550596Y237711D01*
X550698Y237594D01*
X550796Y237475D01*
X550892Y237353D01*
X550985Y237229D01*
X551074Y237103D01*
X551160Y236974D01*
X551243Y236843D01*
X551323Y236710D01*
X551399Y236575D01*
X551471Y236438D01*
X551540Y236300D01*
X551605Y236159D01*
X551667Y236017D01*
X551725Y235874D01*
X551780Y235729D01*
X551830Y235583D01*
X551877Y235435D01*
X551920Y235286D01*
X551960Y235137D01*
X551995Y234986D01*
X552027Y234834D01*
X552054Y234682D01*
X552078Y234529D01*
X552098Y234375D01*
X552114Y234221D01*
X552126Y234067D01*
X552134Y233912D01*
X552138Y233757D01*
X552138Y233603D01*
X552134Y233448D01*
X552126Y233293D01*
X552114Y233139D01*
X552098Y232985D01*
X552078Y232831D01*
X552054Y232678D01*
X552027Y232526D01*
X551995Y232374D01*
X551960Y232223D01*
X551920Y232074D01*
X551877Y231925D01*
X551830Y231777D01*
X551780Y231631D01*
X551725Y231486D01*
X551667Y231343D01*
X551605Y231201D01*
X551540Y231060D01*
X551471Y230922D01*
X551399Y230785D01*
X551323Y230650D01*
X551243Y230517D01*
X551160Y230386D01*
X551074Y230257D01*
X550985Y230131D01*
X550892Y230007D01*
X550796Y229885D01*
X550698Y229766D01*
X550596Y229649D01*
X550491Y229535D01*
X550383Y229424D01*
X550273Y229316D01*
X550159Y229210D01*
X550043Y229108D01*
X549925Y229008D01*
X549804Y228911D01*
X549680Y228818D01*
X549554Y228728D01*
X549426Y228641D01*
X549296Y228557D01*
X549164Y228477D01*
X549029Y228400D01*
X548893Y228327D01*
X548755Y228257D01*
X548615Y228191D01*
X548473Y228128D01*
X548330Y228069D01*
X548185Y228014D01*
X548039Y227962D01*
X547892Y227914D01*
X547744Y227870D01*
X547594Y227830D01*
X547444Y227793D01*
X547292Y227761D01*
X547140Y227732D01*
X546987Y227708D01*
X546834Y227687D01*
X546680Y227670D01*
X546525Y227657D01*
X546371Y227648D01*
X546216Y227643D01*
X546061Y227642D01*
X545906Y227645D01*
X545752Y227652D01*
X545597Y227663D01*
X545443Y227678D01*
X545289Y227697D01*
X545136Y227719D01*
X544984Y227746D01*
X544832Y227777D01*
X544681Y227811D01*
X544531Y227849D01*
X544382Y227892D01*
X544234Y227938D01*
X544088Y227987D01*
X543942Y228041D01*
X543798Y228098D01*
X543656Y228159D01*
X543515Y228223D01*
X543376Y228291D01*
X543239Y228363D01*
X543103Y228438D01*
X542970Y228517D01*
X542839Y228599D01*
X542709Y228684D01*
X542582Y228773D01*
X542458Y228864D01*
X542335Y228959D01*
X542216Y229057D01*
X542098Y229159D01*
X541984Y229263D01*
X541872Y229370D01*
X541763Y229479D01*
X541656Y229592D01*
X541553Y229707D01*
X541453Y229825D01*
X541355Y229946D01*
X541261Y230069D01*
X541170Y230194D01*
X541082Y230321D01*
X540998Y230451D01*
X540917Y230583D01*
X540839Y230717D01*
X540765Y230853D01*
X540694Y230991D01*
X540627Y231130D01*
X540563Y231271D01*
X540503Y231414D01*
X540447Y231558D01*
X540394Y231704D01*
X540346Y231851D01*
X540301Y231999D01*
X540259Y232148D01*
X540222Y232299D01*
X540189Y232450D01*
X540159Y232602D01*
X540133Y232755D01*
X540112Y232908D01*
X540094Y233062D01*
X540080Y233216D01*
X540070Y233370D01*
X540064Y233525D01*
X540062Y233680D01*
D10*
X113792Y292354D02*
X113792Y134874D01*
X113792Y292354D02*
X113798Y292845D01*
X113816Y293336D01*
X113845Y293826D01*
X113887Y294315D01*
X113940Y294803D01*
X114005Y295290D01*
X114082Y295775D01*
X114171Y296258D01*
X114271Y296739D01*
X114382Y297217D01*
X114506Y297692D01*
X114640Y298164D01*
X114787Y298633D01*
X114944Y299098D01*
X115112Y299560D01*
X115292Y300017D01*
X115483Y300469D01*
X115684Y300917D01*
X115897Y301360D01*
X116120Y301797D01*
X116353Y302229D01*
X116597Y302655D01*
X116851Y303076D01*
X117115Y303490D01*
X117389Y303897D01*
X117673Y304298D01*
X117966Y304692D01*
X118269Y305078D01*
X118581Y305457D01*
X118902Y305829D01*
X119232Y306192D01*
X119571Y306548D01*
X119918Y306895D01*
X120274Y307234D01*
X120637Y307564D01*
X121009Y307885D01*
X121388Y308197D01*
X121774Y308500D01*
X122168Y308793D01*
X122569Y309077D01*
X122976Y309351D01*
X123390Y309615D01*
X123811Y309869D01*
X124237Y310113D01*
X124669Y310346D01*
X125106Y310569D01*
X125549Y310782D01*
X125997Y310983D01*
X126449Y311174D01*
X126906Y311354D01*
X127368Y311522D01*
X127833Y311679D01*
X128302Y311826D01*
X128774Y311960D01*
X129249Y312084D01*
X129727Y312195D01*
X130208Y312295D01*
X130691Y312384D01*
X131176Y312461D01*
X131663Y312526D01*
X132151Y312579D01*
X132640Y312621D01*
X133130Y312650D01*
X133621Y312668D01*
X134112Y312674D01*
X254000Y312674D01*
X254430Y312669D01*
X254859Y312653D01*
X255288Y312627D01*
X255716Y312591D01*
X256143Y312544D01*
X256569Y312487D01*
X256993Y312420D01*
X257416Y312343D01*
X257837Y312255D01*
X258255Y312157D01*
X258671Y312049D01*
X259084Y311932D01*
X259494Y311804D01*
X259901Y311666D01*
X260305Y311519D01*
X260705Y311361D01*
X261101Y311195D01*
X261493Y311018D01*
X261880Y310832D01*
X262263Y310637D01*
X262641Y310433D01*
X263014Y310220D01*
X263381Y309998D01*
X263744Y309766D01*
X264100Y309527D01*
X264451Y309278D01*
X264795Y309022D01*
X265134Y308757D01*
X265465Y308484D01*
X265790Y308203D01*
X266108Y307914D01*
X266420Y307617D01*
X266723Y307314D01*
X267020Y307002D01*
X267309Y306684D01*
X267590Y306359D01*
X267863Y306028D01*
X268128Y305689D01*
X268384Y305345D01*
X268633Y304994D01*
X268872Y304638D01*
X269104Y304275D01*
X269326Y303908D01*
X269539Y303535D01*
X269743Y303157D01*
X269938Y302774D01*
X270124Y302387D01*
X270301Y301995D01*
X270467Y301599D01*
X270625Y301199D01*
X270772Y300795D01*
X270910Y300388D01*
X271038Y299978D01*
X271155Y299565D01*
X271263Y299149D01*
X271361Y298731D01*
X271449Y298310D01*
X271526Y297887D01*
X271593Y297463D01*
X271650Y297037D01*
X271697Y296610D01*
X271733Y296182D01*
X271759Y295753D01*
X271775Y295324D01*
X271780Y294894D01*
X271780Y129794D01*
X271775Y129364D01*
X271759Y128935D01*
X271733Y128506D01*
X271697Y128078D01*
X271650Y127651D01*
X271593Y127225D01*
X271526Y126801D01*
X271449Y126378D01*
X271361Y125957D01*
X271263Y125539D01*
X271155Y125123D01*
X271038Y124710D01*
X270910Y124300D01*
X270772Y123893D01*
X270625Y123489D01*
X270467Y123089D01*
X270301Y122693D01*
X270124Y122301D01*
X269938Y121914D01*
X269743Y121531D01*
X269539Y121153D01*
X269326Y120780D01*
X269104Y120413D01*
X268872Y120050D01*
X268633Y119694D01*
X268384Y119343D01*
X268128Y118999D01*
X267863Y118660D01*
X267590Y118329D01*
X267309Y118004D01*
X267020Y117686D01*
X266723Y117374D01*
X266420Y117071D01*
X266108Y116774D01*
X265790Y116485D01*
X265465Y116204D01*
X265134Y115931D01*
X264795Y115666D01*
X264451Y115410D01*
X264100Y115161D01*
X263744Y114922D01*
X263381Y114690D01*
X263014Y114468D01*
X262641Y114255D01*
X262263Y114051D01*
X261880Y113856D01*
X261493Y113670D01*
X261101Y113493D01*
X260705Y113327D01*
X260305Y113169D01*
X259901Y113022D01*
X259494Y112884D01*
X259084Y112756D01*
X258671Y112639D01*
X258255Y112531D01*
X257837Y112433D01*
X257416Y112345D01*
X256993Y112268D01*
X256569Y112201D01*
X256143Y112144D01*
X255716Y112097D01*
X255288Y112061D01*
X254859Y112035D01*
X254430Y112019D01*
X254000Y112014D01*
X136652Y112014D01*
X136100Y112021D01*
X135548Y112041D01*
X134996Y112074D01*
X134446Y112121D01*
X133897Y112181D01*
X133349Y112254D01*
X132803Y112340D01*
X132260Y112440D01*
X131719Y112553D01*
X131181Y112678D01*
X130647Y112817D01*
X130115Y112969D01*
X129588Y113133D01*
X129065Y113310D01*
X128546Y113500D01*
X128032Y113702D01*
X127523Y113916D01*
X127019Y114143D01*
X126521Y114382D01*
X126028Y114632D01*
X125542Y114895D01*
X125063Y115169D01*
X124590Y115455D01*
X124124Y115752D01*
X123666Y116061D01*
X123215Y116380D01*
X122772Y116710D01*
X122337Y117051D01*
X121911Y117402D01*
X121493Y117763D01*
X121084Y118134D01*
X120684Y118515D01*
X120293Y118906D01*
X119912Y119306D01*
X119541Y119715D01*
X119180Y120133D01*
X118829Y120559D01*
X118488Y120994D01*
X118158Y121437D01*
X117839Y121888D01*
X117530Y122346D01*
X117233Y122812D01*
X116947Y123285D01*
X116673Y123764D01*
X116410Y124250D01*
X116160Y124743D01*
X115921Y125241D01*
X115694Y125745D01*
X115480Y126254D01*
X115278Y126768D01*
X115088Y127287D01*
X114911Y127810D01*
X114747Y128337D01*
X114595Y128869D01*
X114456Y129403D01*
X114331Y129941D01*
X114218Y130482D01*
X114118Y131025D01*
X114032Y131571D01*
X113959Y132119D01*
X113899Y132668D01*
X113852Y133218D01*
X113819Y133770D01*
X113799Y134322D01*
X113792Y134874D01*
X637540Y132080D02*
X637540Y294640D01*
X637545Y295070D01*
X637561Y295499D01*
X637587Y295928D01*
X637623Y296356D01*
X637670Y296783D01*
X637727Y297209D01*
X637794Y297633D01*
X637871Y298056D01*
X637959Y298477D01*
X638057Y298895D01*
X638165Y299311D01*
X638282Y299724D01*
X638410Y300134D01*
X638548Y300541D01*
X638695Y300945D01*
X638853Y301345D01*
X639019Y301741D01*
X639196Y302133D01*
X639382Y302520D01*
X639577Y302903D01*
X639781Y303281D01*
X639994Y303654D01*
X640216Y304021D01*
X640448Y304384D01*
X640687Y304740D01*
X640936Y305091D01*
X641192Y305435D01*
X641457Y305774D01*
X641730Y306105D01*
X642011Y306430D01*
X642300Y306748D01*
X642597Y307060D01*
X642900Y307363D01*
X643212Y307660D01*
X643530Y307949D01*
X643855Y308230D01*
X644186Y308503D01*
X644525Y308768D01*
X644869Y309024D01*
X645220Y309273D01*
X645576Y309512D01*
X645939Y309744D01*
X646306Y309966D01*
X646679Y310179D01*
X647057Y310383D01*
X647440Y310578D01*
X647827Y310764D01*
X648219Y310941D01*
X648615Y311107D01*
X649015Y311265D01*
X649419Y311412D01*
X649826Y311550D01*
X650236Y311678D01*
X650649Y311795D01*
X651065Y311903D01*
X651483Y312001D01*
X651904Y312089D01*
X652327Y312166D01*
X652751Y312233D01*
X653177Y312290D01*
X653604Y312337D01*
X654032Y312373D01*
X654461Y312399D01*
X654890Y312415D01*
X655320Y312420D01*
X695960Y312420D01*
X696390Y312415D01*
X696819Y312399D01*
X697248Y312373D01*
X697676Y312337D01*
X698103Y312290D01*
X698529Y312233D01*
X698953Y312166D01*
X699376Y312089D01*
X699797Y312001D01*
X700215Y311903D01*
X700631Y311795D01*
X701044Y311678D01*
X701454Y311550D01*
X701861Y311412D01*
X702265Y311265D01*
X702665Y311107D01*
X703061Y310941D01*
X703453Y310764D01*
X703840Y310578D01*
X704223Y310383D01*
X704601Y310179D01*
X704974Y309966D01*
X705341Y309744D01*
X705704Y309512D01*
X706060Y309273D01*
X706411Y309024D01*
X706755Y308768D01*
X707094Y308503D01*
X707425Y308230D01*
X707750Y307949D01*
X708068Y307660D01*
X708380Y307363D01*
X708683Y307060D01*
X708980Y306748D01*
X709269Y306430D01*
X709550Y306105D01*
X709823Y305774D01*
X710088Y305435D01*
X710344Y305091D01*
X710593Y304740D01*
X710832Y304384D01*
X711064Y304021D01*
X711286Y303654D01*
X711499Y303281D01*
X711703Y302903D01*
X711898Y302520D01*
X712084Y302133D01*
X712261Y301741D01*
X712427Y301345D01*
X712585Y300945D01*
X712732Y300541D01*
X712870Y300134D01*
X712998Y299724D01*
X713115Y299311D01*
X713223Y298895D01*
X713321Y298477D01*
X713409Y298056D01*
X713486Y297633D01*
X713553Y297209D01*
X713610Y296783D01*
X713657Y296356D01*
X713693Y295928D01*
X713719Y295499D01*
X713735Y295070D01*
X713740Y294640D01*
X713740Y134620D01*
X713733Y134068D01*
X713713Y133516D01*
X713680Y132964D01*
X713633Y132414D01*
X713573Y131865D01*
X713500Y131317D01*
X713414Y130771D01*
X713314Y130228D01*
X713201Y129687D01*
X713076Y129149D01*
X712937Y128615D01*
X712785Y128083D01*
X712621Y127556D01*
X712444Y127033D01*
X712254Y126514D01*
X712052Y126000D01*
X711838Y125491D01*
X711611Y124987D01*
X711372Y124489D01*
X711122Y123996D01*
X710859Y123510D01*
X710585Y123031D01*
X710299Y122558D01*
X710002Y122092D01*
X709693Y121634D01*
X709374Y121183D01*
X709044Y120740D01*
X708703Y120305D01*
X708352Y119879D01*
X707991Y119461D01*
X707620Y119052D01*
X707239Y118652D01*
X706848Y118261D01*
X706448Y117880D01*
X706039Y117509D01*
X705621Y117148D01*
X705195Y116797D01*
X704760Y116456D01*
X704317Y116126D01*
X703866Y115807D01*
X703408Y115498D01*
X702942Y115201D01*
X702469Y114915D01*
X701990Y114641D01*
X701504Y114378D01*
X701011Y114128D01*
X700513Y113889D01*
X700009Y113662D01*
X699500Y113448D01*
X698986Y113246D01*
X698467Y113056D01*
X697944Y112879D01*
X697417Y112715D01*
X696885Y112563D01*
X696351Y112424D01*
X695813Y112299D01*
X695272Y112186D01*
X694729Y112086D01*
X694183Y112000D01*
X693635Y111927D01*
X693086Y111867D01*
X692536Y111820D01*
X691984Y111787D01*
X691432Y111767D01*
X690880Y111760D01*
X657860Y111760D01*
X657369Y111766D01*
X656878Y111784D01*
X656388Y111813D01*
X655899Y111855D01*
X655411Y111908D01*
X654924Y111973D01*
X654439Y112050D01*
X653956Y112139D01*
X653475Y112239D01*
X652997Y112350D01*
X652522Y112474D01*
X652050Y112608D01*
X651581Y112755D01*
X651116Y112912D01*
X650654Y113080D01*
X650197Y113260D01*
X649745Y113451D01*
X649297Y113652D01*
X648854Y113865D01*
X648417Y114088D01*
X647985Y114321D01*
X647559Y114565D01*
X647138Y114819D01*
X646724Y115083D01*
X646317Y115357D01*
X645916Y115641D01*
X645522Y115934D01*
X645136Y116237D01*
X644757Y116549D01*
X644385Y116870D01*
X644022Y117200D01*
X643666Y117539D01*
X643319Y117886D01*
X642980Y118242D01*
X642650Y118605D01*
X642329Y118977D01*
X642017Y119356D01*
X641714Y119742D01*
X641421Y120136D01*
X641137Y120537D01*
X640863Y120944D01*
X640599Y121358D01*
X640345Y121779D01*
X640101Y122205D01*
X639868Y122637D01*
X639645Y123074D01*
X639432Y123517D01*
X639231Y123965D01*
X639040Y124417D01*
X638860Y124874D01*
X638692Y125336D01*
X638535Y125801D01*
X638388Y126270D01*
X638254Y126742D01*
X638130Y127217D01*
X638019Y127695D01*
X637919Y128176D01*
X637830Y128659D01*
X637753Y129144D01*
X637688Y129631D01*
X637635Y130119D01*
X637593Y130608D01*
X637564Y131098D01*
X637546Y131589D01*
X637540Y132080D01*
X34290Y337820D02*
X34044Y337817D01*
X33799Y337808D01*
X33554Y337793D01*
X33309Y337773D01*
X33065Y337746D01*
X32822Y337713D01*
X32579Y337675D01*
X32338Y337631D01*
X32098Y337581D01*
X31859Y337525D01*
X31621Y337463D01*
X31385Y337396D01*
X31150Y337323D01*
X30918Y337244D01*
X30687Y337160D01*
X30459Y337070D01*
X30232Y336975D01*
X30009Y336874D01*
X29787Y336768D01*
X29568Y336656D01*
X29352Y336540D01*
X29139Y336418D01*
X28929Y336291D01*
X28722Y336159D01*
X28518Y336022D01*
X28318Y335880D01*
X28121Y335733D01*
X27928Y335581D01*
X27738Y335425D01*
X27553Y335265D01*
X27371Y335100D01*
X27193Y334930D01*
X27020Y334757D01*
X26850Y334579D01*
X26685Y334397D01*
X26525Y334212D01*
X26369Y334022D01*
X26217Y333829D01*
X26070Y333632D01*
X25928Y333432D01*
X25791Y333228D01*
X25659Y333021D01*
X25532Y332811D01*
X25410Y332598D01*
X25294Y332382D01*
X25182Y332163D01*
X25076Y331941D01*
X24975Y331718D01*
X24880Y331491D01*
X24790Y331263D01*
X24706Y331032D01*
X24627Y330800D01*
X24554Y330565D01*
X24487Y330329D01*
X24425Y330091D01*
X24369Y329852D01*
X24319Y329612D01*
X24275Y329371D01*
X24237Y329128D01*
X24204Y328885D01*
X24177Y328641D01*
X24157Y328396D01*
X24142Y328151D01*
X24133Y327906D01*
X24130Y327660D01*
X34290Y337820D02*
X78740Y337820D01*
X78955Y337817D01*
X79170Y337810D01*
X79384Y337797D01*
X79598Y337778D01*
X79812Y337755D01*
X80025Y337727D01*
X80237Y337693D01*
X80448Y337654D01*
X80658Y337611D01*
X80868Y337562D01*
X81075Y337508D01*
X81282Y337449D01*
X81487Y337385D01*
X81691Y337316D01*
X81892Y337242D01*
X82092Y337164D01*
X82290Y337080D01*
X82486Y336992D01*
X82680Y336899D01*
X82871Y336802D01*
X83060Y336700D01*
X83247Y336593D01*
X83431Y336482D01*
X83612Y336366D01*
X83790Y336246D01*
X83965Y336122D01*
X84138Y335994D01*
X84307Y335861D01*
X84473Y335725D01*
X84635Y335584D01*
X84794Y335440D01*
X84950Y335292D01*
X85102Y335140D01*
X85250Y334984D01*
X85394Y334825D01*
X85535Y334663D01*
X85671Y334497D01*
X85804Y334328D01*
X85932Y334155D01*
X86056Y333980D01*
X86176Y333802D01*
X86292Y333621D01*
X86403Y333437D01*
X86510Y333250D01*
X86612Y333061D01*
X86709Y332870D01*
X86802Y332676D01*
X86890Y332480D01*
X86974Y332282D01*
X87052Y332082D01*
X87126Y331881D01*
X87195Y331677D01*
X87259Y331472D01*
X87318Y331265D01*
X87372Y331058D01*
X87421Y330848D01*
X87464Y330638D01*
X87503Y330427D01*
X87537Y330215D01*
X87565Y330002D01*
X87588Y329788D01*
X87607Y329574D01*
X87620Y329360D01*
X87627Y329145D01*
X87630Y328930D01*
X87630Y203200D01*
X87628Y203016D01*
X87621Y202832D01*
X87610Y202648D01*
X87594Y202465D01*
X87574Y202282D01*
X87550Y202099D01*
X87521Y201917D01*
X87488Y201736D01*
X87450Y201556D01*
X87409Y201376D01*
X87362Y201198D01*
X87312Y201021D01*
X87257Y200845D01*
X87198Y200671D01*
X87135Y200498D01*
X87067Y200327D01*
X86996Y200157D01*
X86920Y199989D01*
X86841Y199823D01*
X86757Y199659D01*
X86670Y199497D01*
X86578Y199337D01*
X86483Y199179D01*
X86384Y199024D01*
X86281Y198871D01*
X86175Y198721D01*
X86065Y198573D01*
X85951Y198428D01*
X85834Y198286D01*
X85714Y198147D01*
X85590Y198011D01*
X85463Y197877D01*
X85333Y197747D01*
X85199Y197620D01*
X85063Y197496D01*
X84924Y197376D01*
X84782Y197259D01*
X84637Y197145D01*
X84489Y197035D01*
X84339Y196929D01*
X84186Y196826D01*
X84031Y196727D01*
X83873Y196632D01*
X83713Y196540D01*
X83551Y196453D01*
X83387Y196369D01*
X83221Y196290D01*
X83053Y196214D01*
X82883Y196143D01*
X82712Y196075D01*
X82539Y196012D01*
X82365Y195953D01*
X82189Y195898D01*
X82012Y195848D01*
X81834Y195801D01*
X81654Y195760D01*
X81474Y195722D01*
X81293Y195689D01*
X81111Y195660D01*
X80928Y195636D01*
X80745Y195616D01*
X80562Y195600D01*
X80378Y195589D01*
X80194Y195582D01*
X80010Y195580D01*
X35560Y195580D01*
X35284Y195583D01*
X35008Y195593D01*
X34732Y195610D01*
X34457Y195633D01*
X34182Y195663D01*
X33908Y195700D01*
X33636Y195743D01*
X33364Y195793D01*
X33094Y195849D01*
X32825Y195912D01*
X32557Y195981D01*
X32292Y196057D01*
X32028Y196139D01*
X31766Y196228D01*
X31507Y196323D01*
X31250Y196424D01*
X30995Y196531D01*
X30743Y196644D01*
X30494Y196764D01*
X30248Y196889D01*
X30005Y197021D01*
X29765Y197158D01*
X29529Y197301D01*
X29296Y197449D01*
X29067Y197603D01*
X28842Y197763D01*
X28620Y197928D01*
X28403Y198098D01*
X28189Y198274D01*
X27981Y198455D01*
X27776Y198640D01*
X27576Y198831D01*
X27381Y199026D01*
X27190Y199226D01*
X27005Y199431D01*
X26824Y199639D01*
X26648Y199853D01*
X26478Y200070D01*
X26313Y200292D01*
X26153Y200517D01*
X25999Y200746D01*
X25851Y200979D01*
X25708Y201215D01*
X25571Y201455D01*
X25439Y201698D01*
X25314Y201944D01*
X25194Y202193D01*
X25081Y202445D01*
X24974Y202700D01*
X24873Y202957D01*
X24778Y203216D01*
X24689Y203478D01*
X24607Y203742D01*
X24531Y204007D01*
X24462Y204275D01*
X24399Y204544D01*
X24343Y204814D01*
X24293Y205086D01*
X24250Y205358D01*
X24213Y205632D01*
X24183Y205907D01*
X24160Y206182D01*
X24143Y206458D01*
X24133Y206734D01*
X24130Y207010D01*
X24130Y327660D01*
X-396240Y256540D02*
X-396240Y119380D01*
X-396240Y256540D02*
X-396237Y256786D01*
X-396228Y257031D01*
X-396213Y257276D01*
X-396193Y257521D01*
X-396166Y257765D01*
X-396133Y258008D01*
X-396095Y258251D01*
X-396051Y258492D01*
X-396001Y258732D01*
X-395945Y258971D01*
X-395883Y259209D01*
X-395816Y259445D01*
X-395743Y259680D01*
X-395664Y259912D01*
X-395580Y260143D01*
X-395490Y260371D01*
X-395395Y260598D01*
X-395294Y260821D01*
X-395188Y261043D01*
X-395076Y261262D01*
X-394960Y261478D01*
X-394838Y261691D01*
X-394711Y261901D01*
X-394579Y262108D01*
X-394442Y262312D01*
X-394300Y262512D01*
X-394153Y262709D01*
X-394001Y262902D01*
X-393845Y263092D01*
X-393685Y263277D01*
X-393520Y263459D01*
X-393350Y263637D01*
X-393177Y263810D01*
X-392999Y263980D01*
X-392817Y264145D01*
X-392632Y264305D01*
X-392442Y264461D01*
X-392249Y264613D01*
X-392052Y264760D01*
X-391852Y264902D01*
X-391648Y265039D01*
X-391441Y265171D01*
X-391231Y265298D01*
X-391018Y265420D01*
X-390802Y265536D01*
X-390583Y265648D01*
X-390361Y265754D01*
X-390138Y265855D01*
X-389911Y265950D01*
X-389683Y266040D01*
X-389452Y266124D01*
X-389220Y266203D01*
X-388985Y266276D01*
X-388749Y266343D01*
X-388511Y266405D01*
X-388272Y266461D01*
X-388032Y266511D01*
X-387791Y266555D01*
X-387548Y266593D01*
X-387305Y266626D01*
X-387061Y266653D01*
X-386816Y266673D01*
X-386571Y266688D01*
X-386326Y266697D01*
X-386080Y266700D01*
X-340360Y266700D01*
X-340145Y266697D01*
X-339930Y266690D01*
X-339716Y266677D01*
X-339502Y266658D01*
X-339288Y266635D01*
X-339075Y266607D01*
X-338863Y266573D01*
X-338652Y266534D01*
X-338442Y266491D01*
X-338232Y266442D01*
X-338025Y266388D01*
X-337818Y266329D01*
X-337613Y266265D01*
X-337409Y266196D01*
X-337208Y266122D01*
X-337008Y266044D01*
X-336810Y265960D01*
X-336614Y265872D01*
X-336420Y265779D01*
X-336229Y265682D01*
X-336040Y265580D01*
X-335853Y265473D01*
X-335669Y265362D01*
X-335488Y265246D01*
X-335310Y265126D01*
X-335135Y265002D01*
X-334962Y264874D01*
X-334793Y264741D01*
X-334627Y264605D01*
X-334465Y264464D01*
X-334306Y264320D01*
X-334150Y264172D01*
X-333998Y264020D01*
X-333850Y263864D01*
X-333706Y263705D01*
X-333565Y263543D01*
X-333429Y263377D01*
X-333296Y263208D01*
X-333168Y263035D01*
X-333044Y262860D01*
X-332924Y262682D01*
X-332808Y262501D01*
X-332697Y262317D01*
X-332590Y262130D01*
X-332488Y261941D01*
X-332391Y261750D01*
X-332298Y261556D01*
X-332210Y261360D01*
X-332126Y261162D01*
X-332048Y260962D01*
X-331974Y260761D01*
X-331905Y260557D01*
X-331841Y260352D01*
X-331782Y260145D01*
X-331728Y259938D01*
X-331679Y259728D01*
X-331636Y259518D01*
X-331597Y259307D01*
X-331563Y259095D01*
X-331535Y258882D01*
X-331512Y258668D01*
X-331493Y258454D01*
X-331480Y258240D01*
X-331473Y258025D01*
X-331470Y257810D01*
X-331470Y118110D01*
X-331472Y117926D01*
X-331479Y117742D01*
X-331490Y117558D01*
X-331506Y117375D01*
X-331526Y117192D01*
X-331550Y117009D01*
X-331579Y116827D01*
X-331612Y116646D01*
X-331650Y116466D01*
X-331691Y116286D01*
X-331738Y116108D01*
X-331788Y115931D01*
X-331843Y115755D01*
X-331902Y115581D01*
X-331965Y115408D01*
X-332033Y115237D01*
X-332104Y115067D01*
X-332180Y114899D01*
X-332259Y114733D01*
X-332343Y114569D01*
X-332430Y114407D01*
X-332522Y114247D01*
X-332617Y114089D01*
X-332716Y113934D01*
X-332819Y113781D01*
X-332925Y113631D01*
X-333035Y113483D01*
X-333149Y113338D01*
X-333266Y113196D01*
X-333386Y113057D01*
X-333510Y112921D01*
X-333637Y112787D01*
X-333767Y112657D01*
X-333901Y112530D01*
X-334037Y112406D01*
X-334176Y112286D01*
X-334318Y112169D01*
X-334463Y112055D01*
X-334611Y111945D01*
X-334761Y111839D01*
X-334914Y111736D01*
X-335069Y111637D01*
X-335227Y111542D01*
X-335387Y111450D01*
X-335549Y111363D01*
X-335713Y111279D01*
X-335879Y111200D01*
X-336047Y111124D01*
X-336217Y111053D01*
X-336388Y110985D01*
X-336561Y110922D01*
X-336735Y110863D01*
X-336911Y110808D01*
X-337088Y110758D01*
X-337266Y110711D01*
X-337446Y110670D01*
X-337626Y110632D01*
X-337807Y110599D01*
X-337989Y110570D01*
X-338172Y110546D01*
X-338355Y110526D01*
X-338538Y110510D01*
X-338722Y110499D01*
X-338906Y110492D01*
X-339090Y110490D01*
X-387350Y110490D01*
X-387565Y110493D01*
X-387780Y110500D01*
X-387994Y110513D01*
X-388208Y110532D01*
X-388422Y110555D01*
X-388635Y110583D01*
X-388847Y110617D01*
X-389058Y110656D01*
X-389268Y110699D01*
X-389478Y110748D01*
X-389685Y110802D01*
X-389892Y110861D01*
X-390097Y110925D01*
X-390301Y110994D01*
X-390502Y111068D01*
X-390702Y111146D01*
X-390900Y111230D01*
X-391096Y111318D01*
X-391290Y111411D01*
X-391481Y111508D01*
X-391670Y111610D01*
X-391857Y111717D01*
X-392041Y111828D01*
X-392222Y111944D01*
X-392400Y112064D01*
X-392575Y112188D01*
X-392748Y112316D01*
X-392917Y112449D01*
X-393083Y112585D01*
X-393245Y112726D01*
X-393404Y112870D01*
X-393560Y113018D01*
X-393712Y113170D01*
X-393860Y113326D01*
X-394004Y113485D01*
X-394145Y113647D01*
X-394281Y113813D01*
X-394414Y113982D01*
X-394542Y114155D01*
X-394666Y114330D01*
X-394786Y114508D01*
X-394902Y114689D01*
X-395013Y114873D01*
X-395120Y115060D01*
X-395222Y115249D01*
X-395319Y115440D01*
X-395412Y115634D01*
X-395500Y115830D01*
X-395584Y116028D01*
X-395662Y116228D01*
X-395736Y116429D01*
X-395805Y116633D01*
X-395869Y116838D01*
X-395928Y117045D01*
X-395982Y117252D01*
X-396031Y117462D01*
X-396074Y117672D01*
X-396113Y117883D01*
X-396147Y118095D01*
X-396175Y118308D01*
X-396198Y118522D01*
X-396217Y118736D01*
X-396230Y118950D01*
X-396237Y119165D01*
X-396240Y119380D01*
M02*
