G04 EAGLE Gerber RS-274X export*
G75*
%MOMM*%
%FSLAX34Y34*%
%LPD*%
%INTop Copper*%
%IPPOS*%
%AMOC8*
5,1,8,0,0,1.08239X$1,22.5*%
G01*
%ADD10R,1.500000X0.700000*%
%ADD11C,0.600000*%
%ADD12C,0.088500*%
%ADD13R,0.700000X1.400000*%
%ADD14R,0.900000X0.700000*%
%ADD15R,0.600000X0.300000*%
%ADD16R,0.300000X0.600000*%
%ADD17R,3.300000X3.300000*%
%ADD18R,0.435000X0.435000*%
%ADD19R,1.325000X1.700000*%
%ADD20R,1.400000X1.150000*%
%ADD21R,0.400000X1.350000*%
%ADD22R,1.100000X2.100000*%
%ADD23R,4.600000X1.000000*%
%ADD24R,3.400000X1.600000*%
%ADD25P,1.539592X8X202.500000*%
%ADD26R,0.700000X0.900000*%
%ADD27R,1.320800X0.558800*%
%ADD28R,0.800000X0.600000*%
%ADD29R,1.400000X1.000000*%
%ADD30R,1.000000X1.400000*%
%ADD31R,0.355600X0.787400*%
%ADD32R,0.800000X0.800000*%
%ADD33R,1.400000X1.200000*%
%ADD34P,1.924489X8X22.500000*%
%ADD35P,1.924489X8X112.500000*%
%ADD36C,0.254000*%
%ADD37C,0.203200*%
%ADD38C,0.756400*%
%ADD39C,0.152400*%
%ADD40C,0.406400*%
%ADD41C,0.304800*%
%ADD42C,0.508000*%

G36*
X163784Y-287512D02*
X163784Y-287512D01*
X163881Y-287502D01*
X163904Y-287492D01*
X163930Y-287488D01*
X164016Y-287442D01*
X164105Y-287402D01*
X164125Y-287385D01*
X164148Y-287372D01*
X164215Y-287302D01*
X164286Y-287236D01*
X164299Y-287213D01*
X164317Y-287194D01*
X164358Y-287106D01*
X164405Y-287020D01*
X164410Y-286995D01*
X164421Y-286971D01*
X164431Y-286874D01*
X164449Y-286778D01*
X164445Y-286752D01*
X164448Y-286727D01*
X164427Y-286631D01*
X164413Y-286535D01*
X164401Y-286512D01*
X164395Y-286486D01*
X164346Y-286403D01*
X164301Y-286316D01*
X164283Y-286297D01*
X164269Y-286275D01*
X164195Y-286212D01*
X164126Y-286144D01*
X164097Y-286128D01*
X164082Y-286115D01*
X164052Y-286103D01*
X163979Y-286063D01*
X161698Y-285118D01*
X158874Y-282294D01*
X157345Y-278603D01*
X157345Y-274609D01*
X158874Y-270918D01*
X161698Y-268094D01*
X165389Y-266565D01*
X169383Y-266565D01*
X173074Y-268094D01*
X175898Y-270918D01*
X177427Y-274609D01*
X177427Y-278603D01*
X175898Y-282294D01*
X173074Y-285118D01*
X170793Y-286063D01*
X170710Y-286114D01*
X170624Y-286160D01*
X170606Y-286179D01*
X170584Y-286192D01*
X170522Y-286267D01*
X170455Y-286338D01*
X170444Y-286362D01*
X170427Y-286382D01*
X170392Y-286473D01*
X170351Y-286561D01*
X170348Y-286587D01*
X170339Y-286611D01*
X170335Y-286709D01*
X170324Y-286805D01*
X170330Y-286831D01*
X170329Y-286857D01*
X170356Y-286951D01*
X170377Y-287046D01*
X170390Y-287068D01*
X170397Y-287093D01*
X170453Y-287173D01*
X170503Y-287257D01*
X170523Y-287274D01*
X170537Y-287295D01*
X170616Y-287354D01*
X170690Y-287417D01*
X170714Y-287427D01*
X170735Y-287442D01*
X170827Y-287472D01*
X170918Y-287509D01*
X170950Y-287512D01*
X170969Y-287518D01*
X171002Y-287518D01*
X171084Y-287527D01*
X203844Y-287527D01*
X203864Y-287524D01*
X203883Y-287526D01*
X203985Y-287504D01*
X204087Y-287488D01*
X204104Y-287478D01*
X204124Y-287474D01*
X204213Y-287421D01*
X204304Y-287372D01*
X204318Y-287358D01*
X204335Y-287348D01*
X204402Y-287269D01*
X204474Y-287194D01*
X204482Y-287176D01*
X204495Y-287161D01*
X204534Y-287065D01*
X204577Y-286971D01*
X204579Y-286951D01*
X204587Y-286933D01*
X204605Y-286766D01*
X204605Y-268782D01*
X205498Y-267889D01*
X220012Y-267889D01*
X220540Y-268417D01*
X220598Y-268459D01*
X220650Y-268509D01*
X220697Y-268531D01*
X220739Y-268561D01*
X220808Y-268582D01*
X220873Y-268612D01*
X220925Y-268618D01*
X220975Y-268633D01*
X221046Y-268631D01*
X221117Y-268639D01*
X221168Y-268628D01*
X221220Y-268627D01*
X221288Y-268602D01*
X221358Y-268587D01*
X221403Y-268560D01*
X221451Y-268543D01*
X221507Y-268498D01*
X221569Y-268461D01*
X221603Y-268421D01*
X221643Y-268389D01*
X221682Y-268329D01*
X221729Y-268274D01*
X221748Y-268226D01*
X221776Y-268182D01*
X221794Y-268112D01*
X221821Y-268046D01*
X221829Y-267975D01*
X221837Y-267943D01*
X221835Y-267920D01*
X221839Y-267879D01*
X221839Y-265080D01*
X222012Y-264433D01*
X222347Y-263854D01*
X222820Y-263381D01*
X223399Y-263046D01*
X224046Y-262873D01*
X228357Y-262873D01*
X228357Y-275152D01*
X228360Y-275172D01*
X228358Y-275191D01*
X228380Y-275293D01*
X228397Y-275395D01*
X228406Y-275412D01*
X228410Y-275432D01*
X228463Y-275521D01*
X228512Y-275612D01*
X228526Y-275626D01*
X228536Y-275643D01*
X228615Y-275710D01*
X228690Y-275781D01*
X228708Y-275790D01*
X228723Y-275803D01*
X228819Y-275842D01*
X228913Y-275885D01*
X228933Y-275887D01*
X228951Y-275895D01*
X229118Y-275913D01*
X229881Y-275913D01*
X229881Y-276676D01*
X229884Y-276696D01*
X229882Y-276715D01*
X229904Y-276817D01*
X229921Y-276919D01*
X229930Y-276936D01*
X229934Y-276956D01*
X229987Y-277045D01*
X230036Y-277136D01*
X230050Y-277150D01*
X230060Y-277167D01*
X230139Y-277234D01*
X230214Y-277305D01*
X230232Y-277314D01*
X230247Y-277327D01*
X230343Y-277366D01*
X230437Y-277409D01*
X230457Y-277411D01*
X230475Y-277419D01*
X230642Y-277437D01*
X237921Y-277437D01*
X237921Y-286766D01*
X237924Y-286786D01*
X237922Y-286805D01*
X237944Y-286907D01*
X237960Y-287009D01*
X237970Y-287026D01*
X237974Y-287046D01*
X238027Y-287135D01*
X238076Y-287226D01*
X238090Y-287240D01*
X238100Y-287257D01*
X238179Y-287324D01*
X238254Y-287396D01*
X238272Y-287404D01*
X238287Y-287417D01*
X238383Y-287456D01*
X238477Y-287499D01*
X238497Y-287501D01*
X238515Y-287509D01*
X238682Y-287527D01*
X254078Y-287527D01*
X254098Y-287524D01*
X254117Y-287526D01*
X254219Y-287504D01*
X254321Y-287488D01*
X254338Y-287478D01*
X254358Y-287474D01*
X254447Y-287421D01*
X254538Y-287372D01*
X254552Y-287358D01*
X254569Y-287348D01*
X254636Y-287269D01*
X254708Y-287194D01*
X254716Y-287176D01*
X254729Y-287161D01*
X254768Y-287065D01*
X254811Y-286971D01*
X254813Y-286951D01*
X254821Y-286933D01*
X254839Y-286766D01*
X254839Y-277437D01*
X262118Y-277437D01*
X262138Y-277434D01*
X262157Y-277436D01*
X262259Y-277414D01*
X262361Y-277397D01*
X262378Y-277388D01*
X262398Y-277384D01*
X262487Y-277331D01*
X262578Y-277282D01*
X262592Y-277268D01*
X262609Y-277258D01*
X262676Y-277179D01*
X262747Y-277104D01*
X262756Y-277086D01*
X262769Y-277071D01*
X262808Y-276975D01*
X262851Y-276881D01*
X262853Y-276861D01*
X262861Y-276843D01*
X262879Y-276676D01*
X262879Y-275913D01*
X263642Y-275913D01*
X263662Y-275910D01*
X263681Y-275912D01*
X263783Y-275890D01*
X263885Y-275873D01*
X263902Y-275864D01*
X263922Y-275860D01*
X264011Y-275807D01*
X264102Y-275758D01*
X264116Y-275744D01*
X264133Y-275734D01*
X264200Y-275655D01*
X264271Y-275580D01*
X264280Y-275562D01*
X264293Y-275547D01*
X264332Y-275451D01*
X264375Y-275357D01*
X264377Y-275337D01*
X264385Y-275319D01*
X264403Y-275152D01*
X264403Y-262873D01*
X268714Y-262873D01*
X269361Y-263046D01*
X269940Y-263381D01*
X270413Y-263854D01*
X270748Y-264433D01*
X270921Y-265080D01*
X270921Y-267879D01*
X270932Y-267950D01*
X270934Y-268022D01*
X270952Y-268071D01*
X270960Y-268122D01*
X270994Y-268185D01*
X271019Y-268253D01*
X271051Y-268293D01*
X271076Y-268339D01*
X271128Y-268389D01*
X271172Y-268445D01*
X271216Y-268473D01*
X271254Y-268509D01*
X271319Y-268539D01*
X271379Y-268578D01*
X271430Y-268590D01*
X271477Y-268612D01*
X271548Y-268620D01*
X271618Y-268638D01*
X271670Y-268634D01*
X271721Y-268639D01*
X271792Y-268624D01*
X271863Y-268619D01*
X271911Y-268598D01*
X271962Y-268587D01*
X272023Y-268550D01*
X272089Y-268522D01*
X272145Y-268477D01*
X272173Y-268461D01*
X272188Y-268443D01*
X272220Y-268417D01*
X272748Y-267889D01*
X287262Y-267889D01*
X288155Y-268782D01*
X288155Y-286766D01*
X288158Y-286786D01*
X288156Y-286805D01*
X288178Y-286907D01*
X288194Y-287009D01*
X288204Y-287026D01*
X288208Y-287046D01*
X288261Y-287135D01*
X288310Y-287226D01*
X288324Y-287240D01*
X288334Y-287257D01*
X288413Y-287324D01*
X288488Y-287396D01*
X288506Y-287404D01*
X288521Y-287417D01*
X288617Y-287456D01*
X288711Y-287499D01*
X288731Y-287501D01*
X288749Y-287509D01*
X288916Y-287527D01*
X297440Y-287527D01*
X297536Y-287512D01*
X297633Y-287502D01*
X297657Y-287492D01*
X297683Y-287488D01*
X297769Y-287442D01*
X297858Y-287402D01*
X297877Y-287385D01*
X297900Y-287372D01*
X297968Y-287302D01*
X298039Y-287236D01*
X298052Y-287213D01*
X298070Y-287194D01*
X298111Y-287106D01*
X298158Y-287020D01*
X298162Y-286995D01*
X298173Y-286971D01*
X298184Y-286874D01*
X298201Y-286778D01*
X298198Y-286752D01*
X298201Y-286727D01*
X298180Y-286631D01*
X298166Y-286535D01*
X298154Y-286512D01*
X298148Y-286486D01*
X298098Y-286403D01*
X298054Y-286316D01*
X298035Y-286297D01*
X298022Y-286275D01*
X297948Y-286212D01*
X297879Y-286144D01*
X297850Y-286128D01*
X297835Y-286115D01*
X297805Y-286103D01*
X297732Y-286063D01*
X296064Y-285372D01*
X293240Y-282548D01*
X291711Y-278857D01*
X291711Y-274863D01*
X293240Y-271172D01*
X296064Y-268348D01*
X299755Y-266819D01*
X303749Y-266819D01*
X307440Y-268348D01*
X310358Y-271266D01*
X310416Y-271308D01*
X310468Y-271357D01*
X310515Y-271379D01*
X310557Y-271410D01*
X310626Y-271431D01*
X310691Y-271461D01*
X310743Y-271467D01*
X310793Y-271482D01*
X310864Y-271480D01*
X310935Y-271488D01*
X310986Y-271477D01*
X311038Y-271476D01*
X311106Y-271451D01*
X311176Y-271436D01*
X311221Y-271409D01*
X311269Y-271391D01*
X311325Y-271346D01*
X311387Y-271310D01*
X311421Y-271270D01*
X311461Y-271237D01*
X311500Y-271177D01*
X311547Y-271123D01*
X311566Y-271074D01*
X311594Y-271030D01*
X311612Y-270961D01*
X311639Y-270894D01*
X311647Y-270823D01*
X311655Y-270792D01*
X311653Y-270769D01*
X311657Y-270728D01*
X311657Y-207300D01*
X311646Y-207230D01*
X311644Y-207158D01*
X311626Y-207109D01*
X311618Y-207058D01*
X311584Y-206994D01*
X311559Y-206927D01*
X311527Y-206886D01*
X311502Y-206840D01*
X311450Y-206791D01*
X311406Y-206735D01*
X311362Y-206707D01*
X311324Y-206671D01*
X311259Y-206641D01*
X311199Y-206602D01*
X311148Y-206589D01*
X311101Y-206567D01*
X311030Y-206559D01*
X310960Y-206542D01*
X310908Y-206546D01*
X310857Y-206540D01*
X310786Y-206555D01*
X310715Y-206561D01*
X310667Y-206581D01*
X310616Y-206592D01*
X310555Y-206629D01*
X310489Y-206657D01*
X310433Y-206702D01*
X310405Y-206718D01*
X310390Y-206736D01*
X310358Y-206762D01*
X307440Y-209680D01*
X303749Y-211209D01*
X299755Y-211209D01*
X296064Y-209680D01*
X293240Y-206856D01*
X291711Y-203165D01*
X291711Y-199171D01*
X293240Y-195480D01*
X296064Y-192656D01*
X299755Y-191127D01*
X303749Y-191127D01*
X307440Y-192656D01*
X310358Y-195574D01*
X310416Y-195616D01*
X310468Y-195665D01*
X310515Y-195687D01*
X310557Y-195718D01*
X310626Y-195739D01*
X310691Y-195769D01*
X310743Y-195775D01*
X310793Y-195790D01*
X310864Y-195788D01*
X310935Y-195796D01*
X310986Y-195785D01*
X311038Y-195784D01*
X311106Y-195759D01*
X311176Y-195744D01*
X311221Y-195717D01*
X311269Y-195699D01*
X311325Y-195654D01*
X311387Y-195618D01*
X311421Y-195578D01*
X311461Y-195545D01*
X311500Y-195485D01*
X311547Y-195431D01*
X311566Y-195382D01*
X311594Y-195338D01*
X311612Y-195269D01*
X311639Y-195202D01*
X311647Y-195131D01*
X311655Y-195100D01*
X311653Y-195077D01*
X311657Y-195036D01*
X311657Y-136851D01*
X311646Y-136781D01*
X311644Y-136709D01*
X311626Y-136660D01*
X311618Y-136609D01*
X311584Y-136545D01*
X311559Y-136478D01*
X311527Y-136437D01*
X311502Y-136391D01*
X311450Y-136342D01*
X311406Y-136286D01*
X311362Y-136258D01*
X311324Y-136222D01*
X311259Y-136192D01*
X311199Y-136153D01*
X311148Y-136140D01*
X311101Y-136118D01*
X311030Y-136110D01*
X310960Y-136093D01*
X310908Y-136097D01*
X310857Y-136091D01*
X310786Y-136106D01*
X310715Y-136112D01*
X310667Y-136132D01*
X310616Y-136143D01*
X310555Y-136180D01*
X310489Y-136208D01*
X310433Y-136253D01*
X310405Y-136270D01*
X310390Y-136287D01*
X310358Y-136313D01*
X309489Y-137182D01*
X305093Y-137182D01*
X304830Y-136919D01*
X304772Y-136877D01*
X304720Y-136828D01*
X304673Y-136806D01*
X304631Y-136776D01*
X304562Y-136755D01*
X304497Y-136724D01*
X304445Y-136719D01*
X304395Y-136703D01*
X304324Y-136705D01*
X304253Y-136697D01*
X304202Y-136708D01*
X304150Y-136710D01*
X304082Y-136734D01*
X304012Y-136750D01*
X303967Y-136776D01*
X303919Y-136794D01*
X303863Y-136839D01*
X303801Y-136876D01*
X303767Y-136915D01*
X303727Y-136948D01*
X303688Y-137008D01*
X303641Y-137063D01*
X303622Y-137111D01*
X303594Y-137155D01*
X303576Y-137224D01*
X303549Y-137291D01*
X303541Y-137362D01*
X303533Y-137393D01*
X303535Y-137417D01*
X303531Y-137458D01*
X303531Y-181498D01*
X298582Y-186447D01*
X296722Y-188307D01*
X264350Y-188307D01*
X264279Y-188318D01*
X264208Y-188320D01*
X264159Y-188338D01*
X264107Y-188346D01*
X264044Y-188380D01*
X263977Y-188405D01*
X263936Y-188437D01*
X263890Y-188462D01*
X263841Y-188514D01*
X263785Y-188558D01*
X263756Y-188602D01*
X263721Y-188640D01*
X263690Y-188705D01*
X263652Y-188765D01*
X263639Y-188816D01*
X263617Y-188863D01*
X263609Y-188934D01*
X263592Y-189004D01*
X263596Y-189056D01*
X263590Y-189107D01*
X263605Y-189178D01*
X263611Y-189249D01*
X263631Y-189297D01*
X263642Y-189348D01*
X263679Y-189409D01*
X263707Y-189475D01*
X263752Y-189531D01*
X263768Y-189559D01*
X263786Y-189574D01*
X263812Y-189606D01*
X266724Y-192518D01*
X266798Y-192571D01*
X266867Y-192631D01*
X266897Y-192643D01*
X266924Y-192662D01*
X267011Y-192689D01*
X267095Y-192723D01*
X267136Y-192727D01*
X267159Y-192734D01*
X267191Y-192733D01*
X267262Y-192741D01*
X267665Y-192741D01*
X269749Y-194825D01*
X269749Y-217119D01*
X263347Y-223521D01*
X241923Y-223521D01*
X241832Y-223535D01*
X241742Y-223543D01*
X241712Y-223555D01*
X241680Y-223560D01*
X241599Y-223603D01*
X241515Y-223639D01*
X241483Y-223665D01*
X241462Y-223676D01*
X241440Y-223699D01*
X241384Y-223744D01*
X240594Y-224534D01*
X240552Y-224592D01*
X240503Y-224644D01*
X240481Y-224691D01*
X240451Y-224733D01*
X240430Y-224802D01*
X240399Y-224867D01*
X240394Y-224919D01*
X240378Y-224969D01*
X240380Y-225040D01*
X240372Y-225111D01*
X240383Y-225162D01*
X240385Y-225214D01*
X240409Y-225282D01*
X240425Y-225352D01*
X240451Y-225396D01*
X240469Y-225445D01*
X240514Y-225501D01*
X240551Y-225563D01*
X240590Y-225597D01*
X240623Y-225637D01*
X240683Y-225676D01*
X240738Y-225723D01*
X240786Y-225742D01*
X240830Y-225770D01*
X240899Y-225788D01*
X240966Y-225815D01*
X241037Y-225823D01*
X241068Y-225831D01*
X241092Y-225829D01*
X241133Y-225833D01*
X242916Y-225833D01*
X245805Y-228722D01*
X245821Y-228733D01*
X245833Y-228749D01*
X245921Y-228805D01*
X246004Y-228865D01*
X246023Y-228871D01*
X246040Y-228882D01*
X246141Y-228907D01*
X246240Y-228938D01*
X246259Y-228937D01*
X246279Y-228942D01*
X246382Y-228934D01*
X246485Y-228931D01*
X246504Y-228925D01*
X246524Y-228923D01*
X246619Y-228883D01*
X246716Y-228847D01*
X246732Y-228834D01*
X246750Y-228827D01*
X246881Y-228722D01*
X249008Y-226595D01*
X253404Y-226595D01*
X256513Y-229704D01*
X256513Y-234100D01*
X253404Y-237209D01*
X253215Y-237209D01*
X253125Y-237223D01*
X253034Y-237231D01*
X253004Y-237243D01*
X252972Y-237248D01*
X252892Y-237291D01*
X252808Y-237327D01*
X252775Y-237353D01*
X252755Y-237364D01*
X252733Y-237387D01*
X252677Y-237432D01*
X250519Y-239590D01*
X250477Y-239648D01*
X250427Y-239700D01*
X250405Y-239747D01*
X250375Y-239789D01*
X250354Y-239858D01*
X250324Y-239923D01*
X250318Y-239975D01*
X250303Y-240025D01*
X250305Y-240096D01*
X250297Y-240167D01*
X250308Y-240218D01*
X250309Y-240270D01*
X250334Y-240338D01*
X250349Y-240408D01*
X250376Y-240453D01*
X250394Y-240501D01*
X250438Y-240557D01*
X250475Y-240619D01*
X250515Y-240653D01*
X250547Y-240693D01*
X250608Y-240732D01*
X250662Y-240779D01*
X250710Y-240798D01*
X250754Y-240826D01*
X250824Y-240844D01*
X250890Y-240871D01*
X250962Y-240879D01*
X250993Y-240887D01*
X251016Y-240885D01*
X251057Y-240889D01*
X254996Y-240889D01*
X255086Y-240875D01*
X255177Y-240867D01*
X255207Y-240855D01*
X255239Y-240850D01*
X255320Y-240807D01*
X255404Y-240771D01*
X255436Y-240745D01*
X255456Y-240734D01*
X255479Y-240711D01*
X255535Y-240666D01*
X255820Y-240381D01*
X256399Y-240046D01*
X257046Y-239873D01*
X258381Y-239873D01*
X258381Y-248926D01*
X258384Y-248945D01*
X258382Y-248965D01*
X258404Y-249067D01*
X258420Y-249169D01*
X258421Y-249170D01*
X258409Y-249197D01*
X258407Y-249217D01*
X258399Y-249235D01*
X258381Y-249402D01*
X258381Y-258455D01*
X257045Y-258455D01*
X256399Y-258282D01*
X255820Y-257947D01*
X255535Y-257662D01*
X255461Y-257609D01*
X255391Y-257549D01*
X255361Y-257537D01*
X255335Y-257518D01*
X255248Y-257491D01*
X255163Y-257457D01*
X255122Y-257453D01*
X255100Y-257446D01*
X255068Y-257447D01*
X254996Y-257439D01*
X250248Y-257439D01*
X250168Y-257359D01*
X250152Y-257347D01*
X250140Y-257331D01*
X250052Y-257275D01*
X249969Y-257215D01*
X249950Y-257209D01*
X249933Y-257198D01*
X249832Y-257173D01*
X249733Y-257143D01*
X249713Y-257143D01*
X249694Y-257138D01*
X249591Y-257146D01*
X249488Y-257149D01*
X249469Y-257156D01*
X249449Y-257157D01*
X249354Y-257198D01*
X249257Y-257233D01*
X249241Y-257246D01*
X249223Y-257254D01*
X249092Y-257359D01*
X249012Y-257439D01*
X243748Y-257439D01*
X243668Y-257359D01*
X243652Y-257347D01*
X243640Y-257331D01*
X243552Y-257275D01*
X243469Y-257215D01*
X243450Y-257209D01*
X243433Y-257198D01*
X243332Y-257173D01*
X243233Y-257143D01*
X243213Y-257143D01*
X243194Y-257138D01*
X243091Y-257146D01*
X242988Y-257149D01*
X242969Y-257156D01*
X242949Y-257157D01*
X242854Y-257198D01*
X242757Y-257233D01*
X242741Y-257246D01*
X242723Y-257254D01*
X242592Y-257359D01*
X242512Y-257439D01*
X237248Y-257439D01*
X237168Y-257359D01*
X237152Y-257347D01*
X237140Y-257331D01*
X237052Y-257275D01*
X236969Y-257215D01*
X236950Y-257209D01*
X236933Y-257198D01*
X236832Y-257173D01*
X236733Y-257143D01*
X236713Y-257143D01*
X236694Y-257138D01*
X236591Y-257146D01*
X236488Y-257149D01*
X236469Y-257156D01*
X236449Y-257157D01*
X236354Y-257198D01*
X236257Y-257233D01*
X236241Y-257246D01*
X236223Y-257254D01*
X236092Y-257359D01*
X236012Y-257439D01*
X230748Y-257439D01*
X229721Y-256412D01*
X229647Y-256359D01*
X229578Y-256299D01*
X229548Y-256287D01*
X229522Y-256268D01*
X229435Y-256241D01*
X229350Y-256207D01*
X229309Y-256203D01*
X229287Y-256196D01*
X229254Y-256197D01*
X229183Y-256189D01*
X213748Y-256189D01*
X212855Y-255296D01*
X212855Y-243032D01*
X212852Y-243012D01*
X212854Y-242993D01*
X212832Y-242891D01*
X212816Y-242789D01*
X212806Y-242772D01*
X212802Y-242752D01*
X212749Y-242663D01*
X212700Y-242572D01*
X212686Y-242558D01*
X212676Y-242541D01*
X212597Y-242474D01*
X212522Y-242402D01*
X212504Y-242394D01*
X212489Y-242381D01*
X212393Y-242342D01*
X212299Y-242299D01*
X212279Y-242297D01*
X212261Y-242289D01*
X212094Y-242271D01*
X195331Y-242271D01*
X193024Y-239964D01*
X190260Y-237200D01*
X190235Y-237182D01*
X188993Y-235933D01*
X188992Y-235932D01*
X188991Y-235931D01*
X187954Y-234894D01*
X187956Y-234139D01*
X187945Y-234067D01*
X187943Y-233994D01*
X187925Y-233946D01*
X187917Y-233896D01*
X187883Y-233831D01*
X187858Y-233763D01*
X187826Y-233723D01*
X187803Y-233678D01*
X187750Y-233628D01*
X187705Y-233571D01*
X187662Y-233543D01*
X187625Y-233508D01*
X187559Y-233477D01*
X187498Y-233438D01*
X187448Y-233426D01*
X187402Y-233404D01*
X187330Y-233396D01*
X187259Y-233378D01*
X187208Y-233382D01*
X187158Y-233376D01*
X187086Y-233391D01*
X187014Y-233397D01*
X186967Y-233417D01*
X186917Y-233428D01*
X186854Y-233465D01*
X186788Y-233493D01*
X186733Y-233537D01*
X186706Y-233553D01*
X186690Y-233572D01*
X186657Y-233598D01*
X183808Y-236447D01*
X179412Y-236447D01*
X176303Y-233338D01*
X176303Y-230101D01*
X176289Y-230011D01*
X176281Y-229920D01*
X176269Y-229890D01*
X176264Y-229858D01*
X176221Y-229777D01*
X176185Y-229694D01*
X176159Y-229661D01*
X176148Y-229641D01*
X176125Y-229619D01*
X176080Y-229563D01*
X173485Y-226968D01*
X171625Y-225108D01*
X171625Y-221764D01*
X171622Y-221744D01*
X171624Y-221725D01*
X171602Y-221623D01*
X171586Y-221521D01*
X171576Y-221504D01*
X171572Y-221484D01*
X171519Y-221395D01*
X171470Y-221304D01*
X171456Y-221290D01*
X171446Y-221273D01*
X171367Y-221206D01*
X171292Y-221134D01*
X171274Y-221126D01*
X171259Y-221113D01*
X171163Y-221074D01*
X171069Y-221031D01*
X171049Y-221029D01*
X171031Y-221021D01*
X170864Y-221003D01*
X161962Y-221003D01*
X161069Y-220110D01*
X161069Y-208846D01*
X161962Y-207953D01*
X177226Y-207953D01*
X178119Y-208846D01*
X178119Y-220110D01*
X177438Y-220791D01*
X177391Y-220855D01*
X177377Y-220870D01*
X177374Y-220877D01*
X177325Y-220934D01*
X177313Y-220964D01*
X177294Y-220990D01*
X177267Y-221077D01*
X177233Y-221162D01*
X177229Y-221203D01*
X177222Y-221225D01*
X177223Y-221258D01*
X177215Y-221329D01*
X177215Y-222477D01*
X177229Y-222567D01*
X177237Y-222658D01*
X177249Y-222688D01*
X177254Y-222720D01*
X177297Y-222801D01*
X177333Y-222884D01*
X177359Y-222917D01*
X177370Y-222937D01*
X177393Y-222959D01*
X177438Y-223015D01*
X180033Y-225610D01*
X180107Y-225663D01*
X180176Y-225723D01*
X180206Y-225735D01*
X180232Y-225754D01*
X180319Y-225781D01*
X180404Y-225815D01*
X180445Y-225819D01*
X180467Y-225826D01*
X180500Y-225825D01*
X180571Y-225833D01*
X183808Y-225833D01*
X186673Y-228698D01*
X186731Y-228740D01*
X186782Y-228788D01*
X186805Y-228799D01*
X186806Y-228801D01*
X186816Y-228805D01*
X186830Y-228811D01*
X186873Y-228842D01*
X186941Y-228863D01*
X187005Y-228893D01*
X187057Y-228899D01*
X187108Y-228914D01*
X187179Y-228913D01*
X187249Y-228921D01*
X187301Y-228909D01*
X187354Y-228908D01*
X187420Y-228884D01*
X187489Y-228869D01*
X187535Y-228842D01*
X187585Y-228824D01*
X187640Y-228779D01*
X187701Y-228743D01*
X187736Y-228703D01*
X187777Y-228670D01*
X187815Y-228610D01*
X187861Y-228557D01*
X187881Y-228508D01*
X187910Y-228463D01*
X187927Y-228394D01*
X187934Y-228378D01*
X187945Y-228355D01*
X187945Y-228350D01*
X187954Y-228329D01*
X187962Y-228256D01*
X187970Y-228224D01*
X187968Y-228202D01*
X187973Y-228162D01*
X188017Y-212266D01*
X188014Y-212245D01*
X188016Y-212225D01*
X187994Y-212124D01*
X187978Y-212023D01*
X187968Y-212005D01*
X187964Y-211984D01*
X187911Y-211896D01*
X187863Y-211806D01*
X187848Y-211791D01*
X187838Y-211773D01*
X187759Y-211706D01*
X187686Y-211636D01*
X187667Y-211627D01*
X187651Y-211613D01*
X187555Y-211575D01*
X187463Y-211531D01*
X187442Y-211529D01*
X187422Y-211521D01*
X187256Y-211503D01*
X183962Y-211503D01*
X183069Y-210610D01*
X183069Y-199346D01*
X183962Y-198453D01*
X187276Y-198453D01*
X187296Y-198450D01*
X187315Y-198452D01*
X187417Y-198430D01*
X187519Y-198414D01*
X187536Y-198404D01*
X187556Y-198400D01*
X187645Y-198347D01*
X187736Y-198298D01*
X187750Y-198284D01*
X187767Y-198274D01*
X187834Y-198195D01*
X187906Y-198120D01*
X187914Y-198102D01*
X187927Y-198087D01*
X187966Y-197991D01*
X188009Y-197897D01*
X188011Y-197877D01*
X188019Y-197859D01*
X188037Y-197692D01*
X188037Y-186995D01*
X190121Y-184911D01*
X194414Y-184911D01*
X194434Y-184908D01*
X194453Y-184910D01*
X194555Y-184888D01*
X194657Y-184872D01*
X194674Y-184862D01*
X194694Y-184858D01*
X194783Y-184805D01*
X194874Y-184756D01*
X194888Y-184742D01*
X194905Y-184732D01*
X194972Y-184653D01*
X195044Y-184578D01*
X195052Y-184560D01*
X195065Y-184545D01*
X195104Y-184449D01*
X195147Y-184355D01*
X195149Y-184335D01*
X195157Y-184317D01*
X195175Y-184150D01*
X195175Y-183899D01*
X196068Y-183006D01*
X200889Y-183006D01*
X200942Y-183044D01*
X200994Y-183094D01*
X201041Y-183116D01*
X201083Y-183146D01*
X201152Y-183167D01*
X201217Y-183197D01*
X201269Y-183203D01*
X201318Y-183218D01*
X201390Y-183216D01*
X201461Y-183224D01*
X201512Y-183213D01*
X201564Y-183212D01*
X201632Y-183187D01*
X201702Y-183172D01*
X201747Y-183145D01*
X201795Y-183128D01*
X201851Y-183083D01*
X201913Y-183046D01*
X201947Y-183006D01*
X201987Y-182974D01*
X202026Y-182914D01*
X202073Y-182859D01*
X202092Y-182811D01*
X202120Y-182767D01*
X202138Y-182698D01*
X202165Y-182631D01*
X202173Y-182560D01*
X202181Y-182528D01*
X202179Y-182505D01*
X202183Y-182464D01*
X202183Y-173136D01*
X202172Y-173065D01*
X202170Y-172993D01*
X202152Y-172944D01*
X202144Y-172893D01*
X202110Y-172830D01*
X202085Y-172762D01*
X202053Y-172722D01*
X202028Y-172676D01*
X201977Y-172626D01*
X201932Y-172570D01*
X201888Y-172542D01*
X201850Y-172506D01*
X201785Y-172476D01*
X201725Y-172437D01*
X201674Y-172425D01*
X201627Y-172403D01*
X201556Y-172395D01*
X201486Y-172377D01*
X201434Y-172381D01*
X201383Y-172376D01*
X201312Y-172391D01*
X201241Y-172396D01*
X201193Y-172417D01*
X201142Y-172428D01*
X201081Y-172465D01*
X201015Y-172493D01*
X200959Y-172538D01*
X200931Y-172554D01*
X200916Y-172572D01*
X200889Y-172594D01*
X196068Y-172594D01*
X195175Y-171701D01*
X195175Y-165095D01*
X195164Y-165024D01*
X195162Y-164952D01*
X195144Y-164903D01*
X195136Y-164852D01*
X195102Y-164789D01*
X195077Y-164721D01*
X195045Y-164681D01*
X195020Y-164635D01*
X194968Y-164585D01*
X194924Y-164529D01*
X194880Y-164501D01*
X194842Y-164465D01*
X194777Y-164435D01*
X194717Y-164396D01*
X194666Y-164384D01*
X194619Y-164362D01*
X194548Y-164354D01*
X194478Y-164336D01*
X194426Y-164340D01*
X194375Y-164335D01*
X194304Y-164350D01*
X194233Y-164355D01*
X194185Y-164376D01*
X194134Y-164387D01*
X194073Y-164424D01*
X194007Y-164452D01*
X193951Y-164497D01*
X193923Y-164513D01*
X193908Y-164531D01*
X193876Y-164557D01*
X184019Y-174414D01*
X184007Y-174430D01*
X183991Y-174442D01*
X183935Y-174530D01*
X183875Y-174614D01*
X183869Y-174632D01*
X183858Y-174649D01*
X183833Y-174750D01*
X183803Y-174849D01*
X183803Y-174869D01*
X183798Y-174888D01*
X183806Y-174991D01*
X183809Y-175094D01*
X183816Y-175113D01*
X183817Y-175133D01*
X183858Y-175228D01*
X183894Y-175325D01*
X183906Y-175341D01*
X183914Y-175359D01*
X184019Y-175490D01*
X185007Y-176478D01*
X185007Y-186742D01*
X184114Y-187635D01*
X181705Y-187635D01*
X181615Y-187649D01*
X181524Y-187657D01*
X181494Y-187669D01*
X181462Y-187674D01*
X181382Y-187717D01*
X181298Y-187753D01*
X181266Y-187779D01*
X181245Y-187790D01*
X181223Y-187813D01*
X181167Y-187858D01*
X180917Y-188108D01*
X178342Y-190683D01*
X178289Y-190757D01*
X178229Y-190826D01*
X178217Y-190856D01*
X178198Y-190882D01*
X178171Y-190969D01*
X178137Y-191054D01*
X178133Y-191095D01*
X178126Y-191117D01*
X178127Y-191150D01*
X178119Y-191221D01*
X178119Y-201110D01*
X177226Y-202003D01*
X161962Y-202003D01*
X161069Y-201110D01*
X161069Y-189846D01*
X161962Y-188953D01*
X162331Y-188953D01*
X162402Y-188942D01*
X162474Y-188940D01*
X162523Y-188922D01*
X162574Y-188914D01*
X162637Y-188880D01*
X162705Y-188855D01*
X162745Y-188823D01*
X162791Y-188798D01*
X162841Y-188746D01*
X162897Y-188702D01*
X162925Y-188658D01*
X162961Y-188620D01*
X162991Y-188555D01*
X163030Y-188495D01*
X163042Y-188444D01*
X163064Y-188397D01*
X163072Y-188326D01*
X163090Y-188256D01*
X163086Y-188204D01*
X163091Y-188153D01*
X163076Y-188082D01*
X163071Y-188011D01*
X163050Y-187963D01*
X163039Y-187912D01*
X163002Y-187851D01*
X162974Y-187785D01*
X162929Y-187729D01*
X162913Y-187701D01*
X162895Y-187686D01*
X162869Y-187654D01*
X161957Y-186742D01*
X161957Y-181869D01*
X161943Y-181779D01*
X161935Y-181688D01*
X161923Y-181658D01*
X161918Y-181626D01*
X161875Y-181546D01*
X161839Y-181462D01*
X161813Y-181430D01*
X161802Y-181409D01*
X161779Y-181387D01*
X161734Y-181331D01*
X156585Y-176182D01*
X156511Y-176129D01*
X156442Y-176069D01*
X156412Y-176057D01*
X156386Y-176038D01*
X156299Y-176011D01*
X156214Y-175977D01*
X156173Y-175973D01*
X156151Y-175966D01*
X156118Y-175967D01*
X156047Y-175959D01*
X152460Y-175959D01*
X151567Y-175066D01*
X151567Y-165802D01*
X152460Y-164909D01*
X161724Y-164909D01*
X161768Y-164953D01*
X161826Y-164995D01*
X161878Y-165045D01*
X161925Y-165067D01*
X161967Y-165097D01*
X162036Y-165118D01*
X162101Y-165148D01*
X162153Y-165154D01*
X162203Y-165169D01*
X162274Y-165167D01*
X162345Y-165175D01*
X162396Y-165164D01*
X162448Y-165163D01*
X162516Y-165138D01*
X162586Y-165123D01*
X162631Y-165096D01*
X162679Y-165079D01*
X162735Y-165034D01*
X162797Y-164997D01*
X162831Y-164957D01*
X162871Y-164925D01*
X162910Y-164865D01*
X162957Y-164810D01*
X162976Y-164762D01*
X163004Y-164718D01*
X163022Y-164649D01*
X163049Y-164582D01*
X163057Y-164511D01*
X163065Y-164479D01*
X163063Y-164456D01*
X163067Y-164415D01*
X163067Y-150101D01*
X163060Y-150053D01*
X163061Y-150005D01*
X163040Y-149933D01*
X163028Y-149858D01*
X163005Y-149815D01*
X162991Y-149769D01*
X162948Y-149707D01*
X162912Y-149640D01*
X162878Y-149607D01*
X162850Y-149568D01*
X162789Y-149523D01*
X162734Y-149471D01*
X162690Y-149451D01*
X162652Y-149422D01*
X162580Y-149399D01*
X162511Y-149367D01*
X162463Y-149362D01*
X162418Y-149348D01*
X162342Y-149349D01*
X162267Y-149340D01*
X162220Y-149351D01*
X162172Y-149351D01*
X162100Y-149376D01*
X162026Y-149393D01*
X161985Y-149417D01*
X161940Y-149433D01*
X161880Y-149480D01*
X161815Y-149519D01*
X161784Y-149555D01*
X161746Y-149585D01*
X161670Y-149688D01*
X161655Y-149706D01*
X161653Y-149712D01*
X161647Y-149720D01*
X161545Y-149896D01*
X161020Y-150421D01*
X161008Y-150437D01*
X160993Y-150450D01*
X160937Y-150537D01*
X160876Y-150621D01*
X160871Y-150640D01*
X160860Y-150657D01*
X160835Y-150757D01*
X160804Y-150856D01*
X160805Y-150876D01*
X160800Y-150895D01*
X160808Y-150998D01*
X160810Y-151102D01*
X160817Y-151121D01*
X160819Y-151140D01*
X160859Y-151236D01*
X160895Y-151333D01*
X160907Y-151348D01*
X160915Y-151367D01*
X161020Y-151498D01*
X161037Y-151514D01*
X161037Y-158366D01*
X160144Y-159259D01*
X145672Y-159259D01*
X145641Y-159228D01*
X145567Y-159175D01*
X145498Y-159115D01*
X145468Y-159103D01*
X145442Y-159084D01*
X145355Y-159057D01*
X145270Y-159023D01*
X145229Y-159019D01*
X145207Y-159012D01*
X145174Y-159013D01*
X145103Y-159005D01*
X140390Y-159005D01*
X140370Y-159008D01*
X140351Y-159006D01*
X140249Y-159028D01*
X140147Y-159044D01*
X140130Y-159054D01*
X140110Y-159058D01*
X140021Y-159111D01*
X139930Y-159160D01*
X139916Y-159174D01*
X139899Y-159184D01*
X139832Y-159263D01*
X139760Y-159338D01*
X139752Y-159356D01*
X139739Y-159371D01*
X139700Y-159467D01*
X139657Y-159561D01*
X139655Y-159581D01*
X139647Y-159599D01*
X139629Y-159766D01*
X139629Y-161508D01*
X138736Y-162401D01*
X135001Y-162401D01*
X134911Y-162415D01*
X134820Y-162423D01*
X134790Y-162435D01*
X134758Y-162440D01*
X134678Y-162483D01*
X134594Y-162519D01*
X134562Y-162545D01*
X134541Y-162556D01*
X134519Y-162579D01*
X134463Y-162624D01*
X130816Y-166271D01*
X130763Y-166345D01*
X130703Y-166414D01*
X130691Y-166444D01*
X130672Y-166470D01*
X130645Y-166557D01*
X130611Y-166642D01*
X130607Y-166683D01*
X130600Y-166705D01*
X130601Y-166738D01*
X130593Y-166809D01*
X130593Y-178698D01*
X129700Y-179591D01*
X126894Y-179591D01*
X126874Y-179594D01*
X126855Y-179592D01*
X126753Y-179614D01*
X126651Y-179630D01*
X126634Y-179640D01*
X126614Y-179644D01*
X126525Y-179697D01*
X126434Y-179746D01*
X126420Y-179760D01*
X126403Y-179770D01*
X126336Y-179849D01*
X126264Y-179924D01*
X126256Y-179942D01*
X126243Y-179957D01*
X126204Y-180053D01*
X126161Y-180147D01*
X126159Y-180167D01*
X126151Y-180185D01*
X126133Y-180352D01*
X126133Y-202702D01*
X126138Y-202736D01*
X126136Y-202770D01*
X126158Y-202857D01*
X126172Y-202945D01*
X126189Y-202975D01*
X126197Y-203009D01*
X126281Y-203154D01*
X142170Y-224720D01*
X142188Y-224737D01*
X142201Y-224759D01*
X142275Y-224823D01*
X142346Y-224891D01*
X142368Y-224902D01*
X142388Y-224919D01*
X142479Y-224956D01*
X142567Y-224998D01*
X142592Y-225001D01*
X142616Y-225011D01*
X142782Y-225029D01*
X165788Y-225029D01*
X166681Y-225922D01*
X166681Y-237186D01*
X165788Y-238079D01*
X118524Y-238079D01*
X117631Y-237186D01*
X117631Y-225922D01*
X118524Y-225029D01*
X130794Y-225029D01*
X130808Y-225027D01*
X130823Y-225029D01*
X130930Y-225007D01*
X131037Y-224990D01*
X131049Y-224983D01*
X131064Y-224980D01*
X131158Y-224925D01*
X131254Y-224874D01*
X131264Y-224864D01*
X131276Y-224857D01*
X131348Y-224775D01*
X131423Y-224696D01*
X131429Y-224683D01*
X131439Y-224672D01*
X131481Y-224572D01*
X131527Y-224473D01*
X131528Y-224459D01*
X131534Y-224445D01*
X131542Y-224337D01*
X131554Y-224229D01*
X131551Y-224214D01*
X131552Y-224200D01*
X131525Y-224095D01*
X131502Y-223988D01*
X131494Y-223976D01*
X131491Y-223962D01*
X131407Y-223816D01*
X119011Y-206992D01*
X118987Y-206969D01*
X118937Y-206905D01*
X118003Y-205972D01*
X118003Y-205874D01*
X117998Y-205840D01*
X118000Y-205806D01*
X117978Y-205719D01*
X117964Y-205631D01*
X117947Y-205601D01*
X117939Y-205568D01*
X117855Y-205422D01*
X117797Y-205344D01*
X117995Y-204039D01*
X117994Y-204006D01*
X118003Y-203924D01*
X118003Y-180352D01*
X118000Y-180332D01*
X118002Y-180313D01*
X117980Y-180211D01*
X117964Y-180109D01*
X117954Y-180092D01*
X117950Y-180072D01*
X117897Y-179983D01*
X117848Y-179892D01*
X117834Y-179878D01*
X117824Y-179861D01*
X117745Y-179794D01*
X117670Y-179722D01*
X117652Y-179714D01*
X117637Y-179701D01*
X117541Y-179662D01*
X117447Y-179619D01*
X117427Y-179617D01*
X117409Y-179609D01*
X117242Y-179591D01*
X114436Y-179591D01*
X113543Y-178698D01*
X113543Y-165434D01*
X114436Y-164541D01*
X120733Y-164541D01*
X120823Y-164527D01*
X120914Y-164519D01*
X120944Y-164507D01*
X120976Y-164502D01*
X121056Y-164459D01*
X121140Y-164423D01*
X121172Y-164397D01*
X121193Y-164386D01*
X121215Y-164363D01*
X121271Y-164318D01*
X127356Y-158233D01*
X127409Y-158159D01*
X127469Y-158090D01*
X127481Y-158060D01*
X127500Y-158034D01*
X127527Y-157947D01*
X127561Y-157862D01*
X127565Y-157821D01*
X127572Y-157799D01*
X127571Y-157766D01*
X127579Y-157695D01*
X127579Y-153244D01*
X128472Y-152351D01*
X132923Y-152351D01*
X133013Y-152337D01*
X133104Y-152329D01*
X133134Y-152317D01*
X133166Y-152312D01*
X133246Y-152269D01*
X133330Y-152233D01*
X133362Y-152207D01*
X133383Y-152196D01*
X133405Y-152173D01*
X133461Y-152128D01*
X134904Y-150685D01*
X134957Y-150611D01*
X135017Y-150542D01*
X135029Y-150512D01*
X135048Y-150486D01*
X135075Y-150399D01*
X135109Y-150314D01*
X135113Y-150273D01*
X135120Y-150251D01*
X135119Y-150218D01*
X135127Y-150147D01*
X135127Y-145899D01*
X140645Y-145899D01*
X140645Y-148211D01*
X140472Y-148857D01*
X140137Y-149436D01*
X139997Y-149576D01*
X139956Y-149634D01*
X139906Y-149686D01*
X139884Y-149733D01*
X139854Y-149775D01*
X139833Y-149844D01*
X139803Y-149909D01*
X139797Y-149961D01*
X139781Y-150010D01*
X139783Y-150082D01*
X139775Y-150153D01*
X139787Y-150204D01*
X139788Y-150256D01*
X139812Y-150324D01*
X139828Y-150394D01*
X139854Y-150439D01*
X139872Y-150487D01*
X139917Y-150543D01*
X139954Y-150605D01*
X139993Y-150639D01*
X140026Y-150679D01*
X140086Y-150718D01*
X140141Y-150765D01*
X140189Y-150784D01*
X140233Y-150812D01*
X140302Y-150830D01*
X140369Y-150857D01*
X140440Y-150865D01*
X140471Y-150873D01*
X140495Y-150871D01*
X140536Y-150875D01*
X143518Y-150875D01*
X143612Y-150860D01*
X143707Y-150851D01*
X143733Y-150840D01*
X143761Y-150836D01*
X143845Y-150791D01*
X143932Y-150753D01*
X143953Y-150734D01*
X143978Y-150720D01*
X144043Y-150651D01*
X144114Y-150587D01*
X144128Y-150563D01*
X144147Y-150542D01*
X144187Y-150456D01*
X144234Y-150372D01*
X144239Y-150345D01*
X144251Y-150319D01*
X144261Y-150224D01*
X144279Y-150131D01*
X144275Y-150103D01*
X144278Y-150075D01*
X144258Y-149981D01*
X144244Y-149887D01*
X144230Y-149855D01*
X144226Y-149834D01*
X144209Y-149806D01*
X144177Y-149733D01*
X143936Y-149317D01*
X143763Y-148670D01*
X143763Y-146938D01*
X152273Y-146938D01*
X152292Y-146935D01*
X152312Y-146937D01*
X152414Y-146915D01*
X152516Y-146899D01*
X152533Y-146889D01*
X152553Y-146885D01*
X152642Y-146832D01*
X152733Y-146783D01*
X152747Y-146769D01*
X152764Y-146759D01*
X152831Y-146680D01*
X152902Y-146605D01*
X152911Y-146587D01*
X152924Y-146572D01*
X152962Y-146476D01*
X153006Y-146382D01*
X153008Y-146362D01*
X153016Y-146344D01*
X153034Y-146177D01*
X153034Y-144907D01*
X153031Y-144887D01*
X153033Y-144867D01*
X153011Y-144766D01*
X152994Y-144664D01*
X152985Y-144647D01*
X152981Y-144627D01*
X152928Y-144538D01*
X152879Y-144447D01*
X152865Y-144433D01*
X152855Y-144416D01*
X152776Y-144349D01*
X152701Y-144277D01*
X152683Y-144269D01*
X152668Y-144256D01*
X152571Y-144217D01*
X152478Y-144174D01*
X152458Y-144172D01*
X152440Y-144164D01*
X152273Y-144146D01*
X143763Y-144146D01*
X143763Y-142414D01*
X143936Y-141767D01*
X144271Y-141188D01*
X144796Y-140663D01*
X144808Y-140647D01*
X144823Y-140634D01*
X144879Y-140547D01*
X144940Y-140463D01*
X144945Y-140444D01*
X144956Y-140427D01*
X144981Y-140327D01*
X145012Y-140228D01*
X145011Y-140208D01*
X145016Y-140189D01*
X145008Y-140086D01*
X145006Y-139982D01*
X144999Y-139963D01*
X144997Y-139944D01*
X144957Y-139848D01*
X144921Y-139751D01*
X144909Y-139736D01*
X144901Y-139717D01*
X144796Y-139586D01*
X144779Y-139570D01*
X144779Y-132718D01*
X145672Y-131825D01*
X160144Y-131825D01*
X161062Y-132744D01*
X161076Y-132831D01*
X161086Y-132848D01*
X161090Y-132868D01*
X161143Y-132957D01*
X161192Y-133048D01*
X161206Y-133062D01*
X161216Y-133079D01*
X161295Y-133146D01*
X161370Y-133218D01*
X161388Y-133226D01*
X161403Y-133239D01*
X161499Y-133278D01*
X161593Y-133321D01*
X161613Y-133323D01*
X161631Y-133331D01*
X161798Y-133349D01*
X166878Y-133349D01*
X166898Y-133346D01*
X166917Y-133348D01*
X167019Y-133326D01*
X167121Y-133310D01*
X167138Y-133300D01*
X167158Y-133296D01*
X167247Y-133243D01*
X167338Y-133194D01*
X167352Y-133180D01*
X167369Y-133170D01*
X167436Y-133091D01*
X167508Y-133016D01*
X167516Y-132998D01*
X167529Y-132983D01*
X167568Y-132887D01*
X167611Y-132793D01*
X167613Y-132773D01*
X167621Y-132755D01*
X167639Y-132588D01*
X167639Y-126712D01*
X167636Y-126692D01*
X167638Y-126673D01*
X167616Y-126571D01*
X167600Y-126469D01*
X167590Y-126452D01*
X167586Y-126432D01*
X167533Y-126343D01*
X167484Y-126252D01*
X167470Y-126238D01*
X167460Y-126221D01*
X167381Y-126154D01*
X167306Y-126082D01*
X167288Y-126074D01*
X167273Y-126061D01*
X167177Y-126022D01*
X167083Y-125979D01*
X167063Y-125977D01*
X167045Y-125969D01*
X166878Y-125951D01*
X165158Y-125951D01*
X164265Y-125058D01*
X164265Y-110236D01*
X164262Y-110216D01*
X164264Y-110197D01*
X164242Y-110095D01*
X164226Y-109993D01*
X164216Y-109976D01*
X164212Y-109956D01*
X164159Y-109867D01*
X164110Y-109776D01*
X164096Y-109762D01*
X164086Y-109745D01*
X164007Y-109678D01*
X163932Y-109606D01*
X163914Y-109598D01*
X163899Y-109585D01*
X163803Y-109546D01*
X163709Y-109503D01*
X163689Y-109501D01*
X163671Y-109493D01*
X163504Y-109475D01*
X162226Y-109475D01*
X162138Y-109489D01*
X162049Y-109496D01*
X162017Y-109509D01*
X161983Y-109514D01*
X161905Y-109556D01*
X161822Y-109591D01*
X161788Y-109618D01*
X161766Y-109630D01*
X161744Y-109652D01*
X161691Y-109695D01*
X158541Y-112811D01*
X158486Y-112887D01*
X158425Y-112957D01*
X158414Y-112986D01*
X158396Y-113010D01*
X158368Y-113099D01*
X158333Y-113186D01*
X158329Y-113224D01*
X158322Y-113245D01*
X158323Y-113277D01*
X158315Y-113352D01*
X158315Y-125058D01*
X157422Y-125951D01*
X146158Y-125951D01*
X145265Y-125058D01*
X145265Y-109794D01*
X146158Y-108901D01*
X154232Y-108901D01*
X154320Y-108887D01*
X154409Y-108880D01*
X154441Y-108867D01*
X154475Y-108862D01*
X154554Y-108820D01*
X154636Y-108785D01*
X154671Y-108758D01*
X154692Y-108746D01*
X154714Y-108724D01*
X154768Y-108681D01*
X158233Y-105253D01*
X158276Y-105193D01*
X158327Y-105140D01*
X158348Y-105095D01*
X158378Y-105054D01*
X158400Y-104984D01*
X158431Y-104917D01*
X158436Y-104867D01*
X158451Y-104820D01*
X158450Y-104746D01*
X158458Y-104673D01*
X158447Y-104624D01*
X158446Y-104574D01*
X158421Y-104504D01*
X158405Y-104432D01*
X158380Y-104389D01*
X158363Y-104342D01*
X158317Y-104284D01*
X158279Y-104221D01*
X158241Y-104189D01*
X158210Y-104149D01*
X158148Y-104109D01*
X158092Y-104061D01*
X158046Y-104042D01*
X158004Y-104015D01*
X157933Y-103997D01*
X157864Y-103969D01*
X157796Y-103962D01*
X157766Y-103954D01*
X157741Y-103956D01*
X157698Y-103951D01*
X155658Y-103951D01*
X154765Y-103058D01*
X154765Y-100252D01*
X154763Y-100235D01*
X154764Y-100220D01*
X154764Y-100218D01*
X154764Y-100213D01*
X154742Y-100111D01*
X154726Y-100009D01*
X154716Y-99992D01*
X154712Y-99972D01*
X154659Y-99883D01*
X154610Y-99792D01*
X154596Y-99778D01*
X154586Y-99761D01*
X154507Y-99694D01*
X154432Y-99622D01*
X154414Y-99614D01*
X154399Y-99601D01*
X154303Y-99562D01*
X154209Y-99519D01*
X154189Y-99517D01*
X154171Y-99509D01*
X154004Y-99491D01*
X140356Y-99491D01*
X140336Y-99494D01*
X140317Y-99492D01*
X140215Y-99514D01*
X140113Y-99530D01*
X140096Y-99540D01*
X140076Y-99544D01*
X139987Y-99597D01*
X139896Y-99646D01*
X139882Y-99660D01*
X139865Y-99670D01*
X139798Y-99749D01*
X139726Y-99824D01*
X139718Y-99842D01*
X139705Y-99857D01*
X139666Y-99953D01*
X139623Y-100047D01*
X139621Y-100067D01*
X139613Y-100085D01*
X139595Y-100252D01*
X139595Y-110288D01*
X130816Y-119067D01*
X130763Y-119141D01*
X130703Y-119210D01*
X130691Y-119240D01*
X130672Y-119266D01*
X130645Y-119353D01*
X130611Y-119438D01*
X130607Y-119479D01*
X130600Y-119501D01*
X130601Y-119534D01*
X130593Y-119605D01*
X130593Y-128698D01*
X129700Y-129591D01*
X114436Y-129591D01*
X113543Y-128698D01*
X113543Y-115434D01*
X114436Y-114541D01*
X123529Y-114541D01*
X123619Y-114527D01*
X123710Y-114519D01*
X123740Y-114507D01*
X123772Y-114502D01*
X123852Y-114459D01*
X123936Y-114423D01*
X123968Y-114397D01*
X123989Y-114386D01*
X124011Y-114363D01*
X124067Y-114318D01*
X131242Y-107143D01*
X131295Y-107069D01*
X131355Y-107000D01*
X131367Y-106970D01*
X131386Y-106944D01*
X131413Y-106857D01*
X131447Y-106772D01*
X131451Y-106731D01*
X131458Y-106708D01*
X131457Y-106676D01*
X131465Y-106605D01*
X131465Y-93742D01*
X133846Y-91361D01*
X154004Y-91361D01*
X154024Y-91358D01*
X154043Y-91360D01*
X154145Y-91338D01*
X154247Y-91322D01*
X154264Y-91312D01*
X154284Y-91308D01*
X154373Y-91255D01*
X154464Y-91206D01*
X154478Y-91192D01*
X154495Y-91182D01*
X154562Y-91103D01*
X154634Y-91028D01*
X154642Y-91010D01*
X154655Y-90995D01*
X154694Y-90899D01*
X154737Y-90805D01*
X154739Y-90785D01*
X154747Y-90767D01*
X154765Y-90600D01*
X154765Y-87794D01*
X155658Y-86901D01*
X166922Y-86901D01*
X167815Y-87794D01*
X167815Y-99699D01*
X167826Y-99770D01*
X167828Y-99842D01*
X167846Y-99891D01*
X167854Y-99942D01*
X167888Y-100005D01*
X167913Y-100073D01*
X167945Y-100113D01*
X167970Y-100159D01*
X168021Y-100209D01*
X168066Y-100265D01*
X168110Y-100293D01*
X168148Y-100329D01*
X168213Y-100359D01*
X168273Y-100398D01*
X168324Y-100410D01*
X168371Y-100432D01*
X168442Y-100440D01*
X168512Y-100458D01*
X168564Y-100454D01*
X168615Y-100459D01*
X168686Y-100444D01*
X168757Y-100439D01*
X168805Y-100418D01*
X168856Y-100407D01*
X168917Y-100370D01*
X168983Y-100342D01*
X169039Y-100297D01*
X169067Y-100281D01*
X169082Y-100263D01*
X169114Y-100237D01*
X177322Y-92029D01*
X179182Y-90169D01*
X208389Y-90169D01*
X208479Y-90155D01*
X208570Y-90147D01*
X208599Y-90135D01*
X208631Y-90130D01*
X208712Y-90087D01*
X208796Y-90051D01*
X208828Y-90025D01*
X208849Y-90014D01*
X208871Y-89991D01*
X208927Y-89946D01*
X210200Y-88673D01*
X214596Y-88673D01*
X217705Y-91782D01*
X217705Y-96178D01*
X215567Y-98316D01*
X215525Y-98374D01*
X215476Y-98426D01*
X215454Y-98473D01*
X215424Y-98515D01*
X215402Y-98584D01*
X215372Y-98649D01*
X215367Y-98701D01*
X215351Y-98751D01*
X215353Y-98822D01*
X215345Y-98893D01*
X215356Y-98944D01*
X215358Y-98996D01*
X215382Y-99064D01*
X215397Y-99134D01*
X215424Y-99179D01*
X215442Y-99227D01*
X215487Y-99283D01*
X215524Y-99345D01*
X215563Y-99379D01*
X215596Y-99419D01*
X215656Y-99458D01*
X215711Y-99505D01*
X215759Y-99524D01*
X215803Y-99552D01*
X215872Y-99570D01*
X215939Y-99597D01*
X216010Y-99605D01*
X216041Y-99613D01*
X216064Y-99611D01*
X216105Y-99615D01*
X216268Y-99615D01*
X217161Y-100508D01*
X217161Y-100584D01*
X217164Y-100604D01*
X217162Y-100623D01*
X217184Y-100725D01*
X217200Y-100827D01*
X217210Y-100844D01*
X217214Y-100864D01*
X217267Y-100953D01*
X217316Y-101044D01*
X217330Y-101058D01*
X217340Y-101075D01*
X217419Y-101142D01*
X217494Y-101214D01*
X217512Y-101222D01*
X217527Y-101235D01*
X217623Y-101274D01*
X217717Y-101317D01*
X217737Y-101319D01*
X217755Y-101327D01*
X217922Y-101345D01*
X222297Y-101345D01*
X222387Y-101331D01*
X222478Y-101323D01*
X222508Y-101311D01*
X222540Y-101306D01*
X222621Y-101263D01*
X222648Y-101251D01*
X225745Y-101251D01*
X225835Y-101237D01*
X225926Y-101229D01*
X225956Y-101217D01*
X225988Y-101212D01*
X226068Y-101169D01*
X226152Y-101133D01*
X226185Y-101107D01*
X226205Y-101096D01*
X226227Y-101073D01*
X226283Y-101028D01*
X226903Y-100408D01*
X232418Y-94893D01*
X237940Y-94893D01*
X237960Y-94890D01*
X237979Y-94892D01*
X238081Y-94870D01*
X238183Y-94854D01*
X238200Y-94844D01*
X238220Y-94840D01*
X238309Y-94787D01*
X238400Y-94738D01*
X238414Y-94724D01*
X238431Y-94714D01*
X238498Y-94635D01*
X238570Y-94560D01*
X238578Y-94542D01*
X238591Y-94527D01*
X238625Y-94442D01*
X239854Y-93213D01*
X252698Y-93213D01*
X253851Y-94366D01*
X253851Y-101010D01*
X253680Y-101181D01*
X253668Y-101197D01*
X253653Y-101210D01*
X253597Y-101297D01*
X253536Y-101381D01*
X253530Y-101400D01*
X253520Y-101417D01*
X253494Y-101517D01*
X253464Y-101616D01*
X253464Y-101636D01*
X253460Y-101655D01*
X253468Y-101758D01*
X253470Y-101862D01*
X253477Y-101881D01*
X253479Y-101901D01*
X253519Y-101996D01*
X253555Y-102093D01*
X253567Y-102109D01*
X253575Y-102127D01*
X253680Y-102258D01*
X254271Y-102849D01*
X254663Y-103529D01*
X254867Y-104288D01*
X254867Y-105714D01*
X246989Y-105714D01*
X246970Y-105717D01*
X246950Y-105715D01*
X246848Y-105737D01*
X246746Y-105753D01*
X246729Y-105763D01*
X246709Y-105767D01*
X246620Y-105820D01*
X246529Y-105869D01*
X246515Y-105883D01*
X246498Y-105893D01*
X246431Y-105972D01*
X246360Y-106047D01*
X246351Y-106065D01*
X246338Y-106080D01*
X246300Y-106176D01*
X246279Y-106221D01*
X246275Y-106215D01*
X246271Y-106195D01*
X246218Y-106106D01*
X246169Y-106015D01*
X246155Y-106001D01*
X246145Y-105984D01*
X246066Y-105917D01*
X245991Y-105845D01*
X245973Y-105837D01*
X245958Y-105824D01*
X245861Y-105785D01*
X245768Y-105742D01*
X245748Y-105740D01*
X245730Y-105732D01*
X245563Y-105714D01*
X237685Y-105714D01*
X237685Y-104288D01*
X237889Y-103529D01*
X238281Y-102849D01*
X238872Y-102258D01*
X238884Y-102242D01*
X238899Y-102229D01*
X238955Y-102142D01*
X239016Y-102058D01*
X239022Y-102039D01*
X239032Y-102022D01*
X239058Y-101922D01*
X239088Y-101823D01*
X239088Y-101803D01*
X239092Y-101784D01*
X239084Y-101681D01*
X239082Y-101577D01*
X239075Y-101558D01*
X239073Y-101539D01*
X239033Y-101444D01*
X238997Y-101346D01*
X238985Y-101331D01*
X238977Y-101312D01*
X238872Y-101181D01*
X238637Y-100947D01*
X238595Y-100875D01*
X238546Y-100784D01*
X238532Y-100770D01*
X238522Y-100753D01*
X238443Y-100686D01*
X238368Y-100614D01*
X238350Y-100606D01*
X238335Y-100593D01*
X238239Y-100554D01*
X238145Y-100511D01*
X238125Y-100509D01*
X238107Y-100501D01*
X237940Y-100483D01*
X235049Y-100483D01*
X234959Y-100497D01*
X234868Y-100505D01*
X234838Y-100517D01*
X234806Y-100522D01*
X234726Y-100565D01*
X234642Y-100601D01*
X234609Y-100627D01*
X234589Y-100638D01*
X234567Y-100661D01*
X234511Y-100706D01*
X234006Y-101211D01*
X233994Y-101227D01*
X233978Y-101239D01*
X233922Y-101327D01*
X233862Y-101410D01*
X233856Y-101429D01*
X233845Y-101446D01*
X233820Y-101547D01*
X233790Y-101646D01*
X233790Y-101665D01*
X233785Y-101685D01*
X233793Y-101788D01*
X233796Y-101891D01*
X233803Y-101910D01*
X233804Y-101930D01*
X233845Y-102025D01*
X233863Y-102074D01*
X233863Y-108287D01*
X233877Y-108377D01*
X233885Y-108468D01*
X233897Y-108498D01*
X233902Y-108530D01*
X233945Y-108610D01*
X233981Y-108694D01*
X234007Y-108727D01*
X234018Y-108747D01*
X234041Y-108769D01*
X234086Y-108825D01*
X236532Y-111271D01*
X236571Y-111299D01*
X236603Y-111334D01*
X236670Y-111371D01*
X236731Y-111415D01*
X236777Y-111429D01*
X236819Y-111452D01*
X236894Y-111465D01*
X236966Y-111487D01*
X237014Y-111486D01*
X237062Y-111494D01*
X237137Y-111483D01*
X237212Y-111481D01*
X237257Y-111464D01*
X237305Y-111457D01*
X237372Y-111422D01*
X237443Y-111396D01*
X237481Y-111366D01*
X237523Y-111344D01*
X237576Y-111290D01*
X237635Y-111243D01*
X237661Y-111202D01*
X237695Y-111168D01*
X237727Y-111100D01*
X237768Y-111036D01*
X237780Y-110989D01*
X237801Y-110946D01*
X237810Y-110871D01*
X237828Y-110797D01*
X237825Y-110750D01*
X237831Y-110702D01*
X237811Y-110574D01*
X237809Y-110552D01*
X237807Y-110546D01*
X237805Y-110536D01*
X237685Y-110088D01*
X237685Y-108662D01*
X245563Y-108662D01*
X245582Y-108659D01*
X245602Y-108661D01*
X245704Y-108639D01*
X245806Y-108623D01*
X245823Y-108613D01*
X245843Y-108609D01*
X245932Y-108556D01*
X246023Y-108507D01*
X246037Y-108493D01*
X246054Y-108483D01*
X246121Y-108404D01*
X246192Y-108329D01*
X246201Y-108311D01*
X246214Y-108296D01*
X246252Y-108200D01*
X246273Y-108155D01*
X246277Y-108161D01*
X246281Y-108181D01*
X246334Y-108270D01*
X246383Y-108361D01*
X246397Y-108375D01*
X246407Y-108392D01*
X246486Y-108459D01*
X246561Y-108531D01*
X246579Y-108539D01*
X246594Y-108552D01*
X246691Y-108591D01*
X246784Y-108634D01*
X246804Y-108636D01*
X246822Y-108644D01*
X246989Y-108662D01*
X254867Y-108662D01*
X254867Y-110088D01*
X254663Y-110847D01*
X254271Y-111527D01*
X253680Y-112118D01*
X253668Y-112134D01*
X253653Y-112147D01*
X253597Y-112234D01*
X253536Y-112318D01*
X253530Y-112337D01*
X253520Y-112354D01*
X253494Y-112454D01*
X253464Y-112553D01*
X253464Y-112573D01*
X253460Y-112592D01*
X253468Y-112695D01*
X253470Y-112799D01*
X253477Y-112818D01*
X253479Y-112837D01*
X253519Y-112933D01*
X253555Y-113030D01*
X253567Y-113045D01*
X253575Y-113064D01*
X253680Y-113195D01*
X253851Y-113366D01*
X253851Y-120010D01*
X252698Y-121163D01*
X239854Y-121163D01*
X238637Y-119947D01*
X238595Y-119875D01*
X238546Y-119784D01*
X238532Y-119770D01*
X238522Y-119753D01*
X238443Y-119686D01*
X238368Y-119614D01*
X238350Y-119606D01*
X238335Y-119593D01*
X238239Y-119554D01*
X238145Y-119511D01*
X238125Y-119509D01*
X238107Y-119501D01*
X237940Y-119483D01*
X236838Y-119483D01*
X235331Y-117976D01*
X235257Y-117923D01*
X235188Y-117863D01*
X235158Y-117851D01*
X235132Y-117832D01*
X235045Y-117805D01*
X234960Y-117771D01*
X234919Y-117767D01*
X234897Y-117760D01*
X234864Y-117761D01*
X234793Y-117753D01*
X229361Y-117753D01*
X229361Y-112925D01*
X229383Y-112902D01*
X229413Y-112837D01*
X229452Y-112777D01*
X229464Y-112726D01*
X229486Y-112679D01*
X229494Y-112608D01*
X229512Y-112538D01*
X229508Y-112486D01*
X229513Y-112435D01*
X229498Y-112364D01*
X229492Y-112293D01*
X229472Y-112245D01*
X229461Y-112194D01*
X229424Y-112133D01*
X229396Y-112067D01*
X229351Y-112011D01*
X229335Y-111983D01*
X229317Y-111968D01*
X229291Y-111936D01*
X228879Y-111524D01*
X228805Y-111470D01*
X228736Y-111411D01*
X228706Y-111399D01*
X228680Y-111380D01*
X228592Y-111353D01*
X228508Y-111319D01*
X228467Y-111315D01*
X228444Y-111308D01*
X228412Y-111309D01*
X228341Y-111301D01*
X222706Y-111301D01*
X221813Y-110408D01*
X221813Y-107696D01*
X221810Y-107676D01*
X221812Y-107657D01*
X221790Y-107555D01*
X221774Y-107453D01*
X221764Y-107436D01*
X221760Y-107416D01*
X221707Y-107327D01*
X221658Y-107236D01*
X221644Y-107222D01*
X221634Y-107205D01*
X221555Y-107138D01*
X221480Y-107066D01*
X221462Y-107058D01*
X221447Y-107045D01*
X221351Y-107006D01*
X221257Y-106963D01*
X221237Y-106961D01*
X221219Y-106953D01*
X221052Y-106935D01*
X217922Y-106935D01*
X217902Y-106938D01*
X217883Y-106936D01*
X217781Y-106958D01*
X217679Y-106974D01*
X217662Y-106984D01*
X217642Y-106988D01*
X217553Y-107041D01*
X217462Y-107090D01*
X217448Y-107104D01*
X217431Y-107114D01*
X217364Y-107193D01*
X217292Y-107268D01*
X217284Y-107286D01*
X217271Y-107301D01*
X217232Y-107397D01*
X217189Y-107491D01*
X217187Y-107511D01*
X217179Y-107529D01*
X217161Y-107696D01*
X217161Y-107772D01*
X216268Y-108665D01*
X207004Y-108665D01*
X206111Y-107772D01*
X206111Y-100508D01*
X207004Y-99615D01*
X208691Y-99615D01*
X208761Y-99604D01*
X208833Y-99602D01*
X208882Y-99584D01*
X208933Y-99576D01*
X208997Y-99542D01*
X209064Y-99517D01*
X209105Y-99485D01*
X209151Y-99460D01*
X209200Y-99408D01*
X209256Y-99364D01*
X209284Y-99320D01*
X209320Y-99282D01*
X209350Y-99217D01*
X209389Y-99157D01*
X209402Y-99106D01*
X209424Y-99059D01*
X209432Y-98988D01*
X209449Y-98918D01*
X209445Y-98866D01*
X209451Y-98815D01*
X209436Y-98744D01*
X209430Y-98673D01*
X209410Y-98625D01*
X209399Y-98574D01*
X209362Y-98513D01*
X209334Y-98447D01*
X209289Y-98391D01*
X209272Y-98363D01*
X209255Y-98348D01*
X209229Y-98316D01*
X206895Y-95982D01*
X206821Y-95929D01*
X206751Y-95869D01*
X206721Y-95857D01*
X206695Y-95838D01*
X206608Y-95811D01*
X206523Y-95777D01*
X206482Y-95773D01*
X206460Y-95766D01*
X206428Y-95767D01*
X206357Y-95759D01*
X181813Y-95759D01*
X181723Y-95773D01*
X181632Y-95781D01*
X181602Y-95793D01*
X181570Y-95798D01*
X181489Y-95841D01*
X181406Y-95877D01*
X181373Y-95903D01*
X181353Y-95914D01*
X181331Y-95937D01*
X181275Y-95982D01*
X169655Y-107602D01*
X169613Y-107660D01*
X169563Y-107712D01*
X169541Y-107759D01*
X169511Y-107801D01*
X169490Y-107870D01*
X169460Y-107935D01*
X169454Y-107987D01*
X169439Y-108037D01*
X169441Y-108108D01*
X169433Y-108179D01*
X169444Y-108230D01*
X169445Y-108282D01*
X169470Y-108350D01*
X169485Y-108420D01*
X169512Y-108464D01*
X169530Y-108513D01*
X169574Y-108569D01*
X169611Y-108631D01*
X169651Y-108665D01*
X169683Y-108705D01*
X169744Y-108744D01*
X169798Y-108791D01*
X169846Y-108810D01*
X169890Y-108838D01*
X169960Y-108856D01*
X170026Y-108883D01*
X170098Y-108891D01*
X170129Y-108899D01*
X170152Y-108897D01*
X170193Y-108901D01*
X171999Y-108901D01*
X172089Y-108887D01*
X172180Y-108879D01*
X172210Y-108867D01*
X172242Y-108862D01*
X172322Y-108819D01*
X172406Y-108783D01*
X172438Y-108757D01*
X172459Y-108746D01*
X172481Y-108723D01*
X172537Y-108678D01*
X179870Y-101345D01*
X180350Y-101345D01*
X180370Y-101342D01*
X180389Y-101344D01*
X180491Y-101322D01*
X180593Y-101306D01*
X180610Y-101296D01*
X180630Y-101292D01*
X180719Y-101239D01*
X180810Y-101190D01*
X180824Y-101176D01*
X180841Y-101166D01*
X180908Y-101087D01*
X180980Y-101012D01*
X180988Y-100994D01*
X181001Y-100979D01*
X181040Y-100883D01*
X181083Y-100789D01*
X181085Y-100769D01*
X181093Y-100751D01*
X181111Y-100584D01*
X181111Y-100508D01*
X182004Y-99615D01*
X191268Y-99615D01*
X192161Y-100508D01*
X192161Y-107772D01*
X191268Y-108665D01*
X182004Y-108665D01*
X181768Y-108429D01*
X181752Y-108417D01*
X181740Y-108401D01*
X181652Y-108345D01*
X181569Y-108285D01*
X181550Y-108279D01*
X181533Y-108268D01*
X181432Y-108243D01*
X181333Y-108213D01*
X181314Y-108213D01*
X181294Y-108208D01*
X181191Y-108216D01*
X181088Y-108219D01*
X181069Y-108226D01*
X181049Y-108227D01*
X180954Y-108268D01*
X180857Y-108304D01*
X180841Y-108316D01*
X180823Y-108324D01*
X180692Y-108429D01*
X177538Y-111583D01*
X177485Y-111657D01*
X177425Y-111726D01*
X177413Y-111756D01*
X177394Y-111782D01*
X177367Y-111870D01*
X177333Y-111954D01*
X177329Y-111995D01*
X177322Y-112017D01*
X177323Y-112050D01*
X177315Y-112121D01*
X177315Y-113870D01*
X177318Y-113890D01*
X177316Y-113909D01*
X177338Y-114011D01*
X177354Y-114113D01*
X177364Y-114130D01*
X177368Y-114150D01*
X177421Y-114239D01*
X177470Y-114330D01*
X177484Y-114344D01*
X177494Y-114361D01*
X177573Y-114428D01*
X177648Y-114500D01*
X177666Y-114508D01*
X177681Y-114521D01*
X177777Y-114560D01*
X177871Y-114603D01*
X177891Y-114605D01*
X177909Y-114613D01*
X178076Y-114631D01*
X192184Y-114631D01*
X192204Y-114628D01*
X192223Y-114630D01*
X192325Y-114608D01*
X192427Y-114592D01*
X192444Y-114582D01*
X192464Y-114578D01*
X192553Y-114525D01*
X192644Y-114476D01*
X192658Y-114462D01*
X192675Y-114452D01*
X192742Y-114373D01*
X192814Y-114298D01*
X192822Y-114280D01*
X192835Y-114265D01*
X192874Y-114169D01*
X192917Y-114075D01*
X192919Y-114055D01*
X192927Y-114037D01*
X192945Y-113870D01*
X192945Y-112978D01*
X193838Y-112085D01*
X202102Y-112085D01*
X202995Y-112978D01*
X202995Y-119201D01*
X203009Y-119291D01*
X203017Y-119382D01*
X203029Y-119412D01*
X203034Y-119444D01*
X203077Y-119525D01*
X203113Y-119608D01*
X203139Y-119641D01*
X203150Y-119661D01*
X203173Y-119683D01*
X203218Y-119739D01*
X203630Y-120151D01*
X203688Y-120193D01*
X203740Y-120243D01*
X203787Y-120265D01*
X203829Y-120295D01*
X203898Y-120316D01*
X203963Y-120346D01*
X204015Y-120352D01*
X204065Y-120367D01*
X204136Y-120365D01*
X204207Y-120373D01*
X204258Y-120362D01*
X204310Y-120361D01*
X204378Y-120336D01*
X204448Y-120321D01*
X204492Y-120294D01*
X204541Y-120276D01*
X204597Y-120232D01*
X204659Y-120195D01*
X204693Y-120155D01*
X204733Y-120123D01*
X204772Y-120062D01*
X204819Y-120008D01*
X204838Y-119960D01*
X204866Y-119916D01*
X204884Y-119846D01*
X204911Y-119780D01*
X204919Y-119708D01*
X204927Y-119677D01*
X204925Y-119654D01*
X204927Y-119633D01*
X209447Y-119633D01*
X209447Y-125653D01*
X209462Y-125743D01*
X209469Y-125834D01*
X209481Y-125864D01*
X209487Y-125896D01*
X209529Y-125977D01*
X209565Y-126060D01*
X209591Y-126093D01*
X209602Y-126113D01*
X209625Y-126135D01*
X209670Y-126191D01*
X211685Y-128206D01*
X211759Y-128259D01*
X211828Y-128319D01*
X211858Y-128331D01*
X211884Y-128350D01*
X211972Y-128377D01*
X212056Y-128411D01*
X212097Y-128415D01*
X212119Y-128422D01*
X212152Y-128421D01*
X212223Y-128429D01*
X217984Y-128429D01*
X218877Y-129322D01*
X218877Y-137586D01*
X217984Y-138479D01*
X207720Y-138479D01*
X206827Y-137586D01*
X206827Y-131569D01*
X206813Y-131479D01*
X206805Y-131388D01*
X206793Y-131358D01*
X206788Y-131326D01*
X206745Y-131246D01*
X206709Y-131162D01*
X206683Y-131129D01*
X206672Y-131109D01*
X206649Y-131087D01*
X206604Y-131031D01*
X206206Y-130633D01*
X206148Y-130591D01*
X206096Y-130541D01*
X206049Y-130519D01*
X206007Y-130489D01*
X205938Y-130468D01*
X205873Y-130438D01*
X205821Y-130432D01*
X205771Y-130417D01*
X205700Y-130419D01*
X205629Y-130411D01*
X205578Y-130422D01*
X205526Y-130423D01*
X205458Y-130448D01*
X205388Y-130463D01*
X205343Y-130490D01*
X205295Y-130508D01*
X205239Y-130552D01*
X205177Y-130589D01*
X205143Y-130629D01*
X205103Y-130661D01*
X205064Y-130721D01*
X205017Y-130776D01*
X204998Y-130824D01*
X204970Y-130868D01*
X204952Y-130938D01*
X204925Y-131004D01*
X204917Y-131075D01*
X204909Y-131107D01*
X204911Y-131130D01*
X204907Y-131171D01*
X204907Y-137840D01*
X204014Y-138733D01*
X193750Y-138733D01*
X192857Y-137840D01*
X192857Y-137264D01*
X192854Y-137244D01*
X192856Y-137225D01*
X192834Y-137123D01*
X192818Y-137021D01*
X192808Y-137004D01*
X192804Y-136984D01*
X192751Y-136895D01*
X192702Y-136804D01*
X192688Y-136790D01*
X192678Y-136773D01*
X192599Y-136706D01*
X192524Y-136634D01*
X192506Y-136626D01*
X192491Y-136613D01*
X192395Y-136574D01*
X192301Y-136531D01*
X192281Y-136529D01*
X192263Y-136521D01*
X192096Y-136503D01*
X191465Y-136503D01*
X191375Y-136517D01*
X191284Y-136525D01*
X191254Y-136537D01*
X191222Y-136542D01*
X191142Y-136585D01*
X191058Y-136621D01*
X191026Y-136647D01*
X191005Y-136658D01*
X190983Y-136681D01*
X190927Y-136726D01*
X188692Y-138961D01*
X188639Y-139035D01*
X188579Y-139104D01*
X188567Y-139134D01*
X188548Y-139160D01*
X188521Y-139247D01*
X188487Y-139332D01*
X188483Y-139373D01*
X188476Y-139395D01*
X188477Y-139428D01*
X188469Y-139499D01*
X188469Y-139570D01*
X187576Y-140463D01*
X173990Y-140463D01*
X173970Y-140466D01*
X173951Y-140464D01*
X173849Y-140486D01*
X173747Y-140502D01*
X173730Y-140512D01*
X173710Y-140516D01*
X173621Y-140569D01*
X173530Y-140618D01*
X173516Y-140632D01*
X173499Y-140642D01*
X173432Y-140721D01*
X173360Y-140796D01*
X173352Y-140814D01*
X173339Y-140829D01*
X173300Y-140925D01*
X173257Y-141019D01*
X173255Y-141039D01*
X173247Y-141057D01*
X173229Y-141224D01*
X173229Y-143561D01*
X173243Y-143651D01*
X173251Y-143742D01*
X173263Y-143772D01*
X173268Y-143804D01*
X173311Y-143884D01*
X173347Y-143968D01*
X173373Y-144000D01*
X173384Y-144021D01*
X173407Y-144043D01*
X173452Y-144099D01*
X179751Y-150398D01*
X179825Y-150451D01*
X179894Y-150511D01*
X179924Y-150523D01*
X179950Y-150542D01*
X180037Y-150569D01*
X180122Y-150603D01*
X180163Y-150607D01*
X180185Y-150614D01*
X180218Y-150613D01*
X180289Y-150621D01*
X187576Y-150621D01*
X188469Y-151514D01*
X188469Y-158366D01*
X187576Y-159259D01*
X183538Y-159259D01*
X183518Y-159262D01*
X183499Y-159260D01*
X183397Y-159282D01*
X183295Y-159298D01*
X183278Y-159308D01*
X183258Y-159312D01*
X183169Y-159365D01*
X183078Y-159414D01*
X183064Y-159428D01*
X183047Y-159438D01*
X182980Y-159517D01*
X182908Y-159592D01*
X182900Y-159610D01*
X182887Y-159625D01*
X182848Y-159721D01*
X182805Y-159815D01*
X182803Y-159835D01*
X182795Y-159853D01*
X182777Y-160020D01*
X182777Y-165913D01*
X182788Y-165984D01*
X182790Y-166056D01*
X182808Y-166105D01*
X182816Y-166156D01*
X182850Y-166219D01*
X182875Y-166287D01*
X182907Y-166327D01*
X182932Y-166373D01*
X182984Y-166423D01*
X183028Y-166479D01*
X183072Y-166507D01*
X183110Y-166543D01*
X183175Y-166573D01*
X183235Y-166612D01*
X183286Y-166624D01*
X183333Y-166646D01*
X183404Y-166654D01*
X183474Y-166672D01*
X183526Y-166668D01*
X183577Y-166673D01*
X183648Y-166658D01*
X183719Y-166653D01*
X183767Y-166632D01*
X183818Y-166621D01*
X183879Y-166584D01*
X183945Y-166556D01*
X184001Y-166511D01*
X184029Y-166495D01*
X184044Y-166477D01*
X184076Y-166451D01*
X193937Y-156590D01*
X212636Y-156590D01*
X214273Y-158227D01*
X214273Y-161740D01*
X214287Y-161830D01*
X214295Y-161921D01*
X214307Y-161951D01*
X214312Y-161983D01*
X214355Y-162063D01*
X214391Y-162147D01*
X214417Y-162180D01*
X214428Y-162200D01*
X214451Y-162222D01*
X214496Y-162278D01*
X214781Y-162563D01*
X214781Y-171701D01*
X213888Y-172594D01*
X209067Y-172594D01*
X209014Y-172556D01*
X208962Y-172506D01*
X208915Y-172484D01*
X208873Y-172454D01*
X208804Y-172433D01*
X208739Y-172403D01*
X208687Y-172397D01*
X208638Y-172382D01*
X208566Y-172384D01*
X208495Y-172376D01*
X208444Y-172387D01*
X208392Y-172388D01*
X208324Y-172413D01*
X208254Y-172428D01*
X208209Y-172455D01*
X208161Y-172472D01*
X208105Y-172517D01*
X208043Y-172554D01*
X208009Y-172594D01*
X207969Y-172626D01*
X207930Y-172686D01*
X207883Y-172741D01*
X207864Y-172789D01*
X207836Y-172833D01*
X207818Y-172902D01*
X207791Y-172969D01*
X207783Y-173040D01*
X207775Y-173072D01*
X207777Y-173095D01*
X207773Y-173136D01*
X207773Y-182464D01*
X207784Y-182535D01*
X207786Y-182607D01*
X207804Y-182656D01*
X207812Y-182707D01*
X207846Y-182770D01*
X207871Y-182838D01*
X207903Y-182878D01*
X207928Y-182924D01*
X207979Y-182974D01*
X208024Y-183030D01*
X208068Y-183058D01*
X208106Y-183094D01*
X208171Y-183124D01*
X208231Y-183163D01*
X208282Y-183175D01*
X208329Y-183197D01*
X208400Y-183205D01*
X208470Y-183223D01*
X208522Y-183219D01*
X208573Y-183224D01*
X208644Y-183209D01*
X208715Y-183204D01*
X208763Y-183183D01*
X208814Y-183172D01*
X208875Y-183135D01*
X208941Y-183107D01*
X208997Y-183062D01*
X209025Y-183046D01*
X209040Y-183028D01*
X209067Y-183006D01*
X213888Y-183006D01*
X214781Y-183899D01*
X214781Y-187503D01*
X214795Y-187593D01*
X214803Y-187684D01*
X214815Y-187714D01*
X214820Y-187746D01*
X214863Y-187826D01*
X214899Y-187910D01*
X214925Y-187942D01*
X214936Y-187963D01*
X214959Y-187985D01*
X215004Y-188041D01*
X225527Y-198564D01*
X225601Y-198617D01*
X225670Y-198677D01*
X225700Y-198689D01*
X225726Y-198708D01*
X225813Y-198735D01*
X225898Y-198769D01*
X225939Y-198773D01*
X225961Y-198780D01*
X225994Y-198779D01*
X226065Y-198787D01*
X228652Y-198787D01*
X229545Y-199680D01*
X229545Y-207944D01*
X228652Y-208837D01*
X222763Y-208837D01*
X222673Y-208851D01*
X222582Y-208859D01*
X222552Y-208871D01*
X222520Y-208876D01*
X222439Y-208919D01*
X222356Y-208955D01*
X222323Y-208981D01*
X222303Y-208992D01*
X222281Y-209015D01*
X222225Y-209060D01*
X221813Y-209472D01*
X221771Y-209530D01*
X221721Y-209582D01*
X221699Y-209629D01*
X221669Y-209671D01*
X221648Y-209740D01*
X221618Y-209805D01*
X221612Y-209857D01*
X221597Y-209907D01*
X221599Y-209978D01*
X221591Y-210049D01*
X221602Y-210100D01*
X221603Y-210152D01*
X221628Y-210220D01*
X221643Y-210290D01*
X221670Y-210334D01*
X221688Y-210383D01*
X221732Y-210439D01*
X221769Y-210501D01*
X221809Y-210535D01*
X221841Y-210575D01*
X221902Y-210614D01*
X221956Y-210661D01*
X221997Y-210677D01*
X221997Y-216050D01*
X222000Y-216070D01*
X221998Y-216089D01*
X222020Y-216191D01*
X222037Y-216293D01*
X222046Y-216310D01*
X222050Y-216330D01*
X222103Y-216419D01*
X222152Y-216510D01*
X222166Y-216524D01*
X222176Y-216541D01*
X222255Y-216608D01*
X222330Y-216679D01*
X222348Y-216688D01*
X222363Y-216701D01*
X222459Y-216740D01*
X222553Y-216783D01*
X222573Y-216785D01*
X222591Y-216793D01*
X222758Y-216811D01*
X223521Y-216811D01*
X223521Y-216813D01*
X222758Y-216813D01*
X222738Y-216816D01*
X222719Y-216814D01*
X222617Y-216836D01*
X222515Y-216853D01*
X222498Y-216862D01*
X222478Y-216866D01*
X222389Y-216919D01*
X222298Y-216968D01*
X222284Y-216982D01*
X222267Y-216992D01*
X222200Y-217071D01*
X222129Y-217146D01*
X222120Y-217164D01*
X222107Y-217179D01*
X222068Y-217275D01*
X222025Y-217369D01*
X222023Y-217389D01*
X222015Y-217407D01*
X221997Y-217574D01*
X221997Y-222853D01*
X218686Y-222853D01*
X218637Y-222840D01*
X218625Y-222839D01*
X218467Y-222821D01*
X218456Y-222821D01*
X218401Y-222815D01*
X218396Y-222816D01*
X218392Y-222815D01*
X218276Y-222842D01*
X218160Y-222867D01*
X218157Y-222869D01*
X218153Y-222870D01*
X218051Y-222932D01*
X217949Y-222993D01*
X217946Y-222996D01*
X217943Y-222999D01*
X217866Y-223090D01*
X217819Y-223145D01*
X217810Y-223154D01*
X217809Y-223156D01*
X217789Y-223180D01*
X217788Y-223184D01*
X217785Y-223187D01*
X217742Y-223297D01*
X217728Y-223331D01*
X217707Y-223377D01*
X217706Y-223387D01*
X217697Y-223408D01*
X217697Y-223413D01*
X217695Y-223416D01*
X217695Y-223430D01*
X217679Y-223575D01*
X217679Y-226369D01*
X217693Y-226459D01*
X217701Y-226550D01*
X217713Y-226579D01*
X217718Y-226611D01*
X217761Y-226692D01*
X217797Y-226776D01*
X217823Y-226808D01*
X217834Y-226829D01*
X217857Y-226851D01*
X217902Y-226907D01*
X220191Y-229196D01*
X220191Y-233592D01*
X219925Y-233858D01*
X219883Y-233916D01*
X219834Y-233968D01*
X219812Y-234015D01*
X219782Y-234057D01*
X219760Y-234126D01*
X219730Y-234191D01*
X219725Y-234243D01*
X219709Y-234293D01*
X219711Y-234364D01*
X219703Y-234435D01*
X219714Y-234486D01*
X219716Y-234538D01*
X219740Y-234606D01*
X219755Y-234676D01*
X219782Y-234721D01*
X219800Y-234769D01*
X219845Y-234825D01*
X219882Y-234887D01*
X219921Y-234921D01*
X219954Y-234961D01*
X220014Y-235000D01*
X220069Y-235047D01*
X220117Y-235066D01*
X220161Y-235094D01*
X220230Y-235112D01*
X220297Y-235139D01*
X220368Y-235147D01*
X220399Y-235155D01*
X220422Y-235153D01*
X220463Y-235157D01*
X229062Y-235157D01*
X229082Y-235154D01*
X229101Y-235156D01*
X229203Y-235134D01*
X229305Y-235118D01*
X229322Y-235108D01*
X229342Y-235104D01*
X229431Y-235051D01*
X229522Y-235002D01*
X229536Y-234988D01*
X229553Y-234978D01*
X229620Y-234899D01*
X229692Y-234824D01*
X229700Y-234806D01*
X229713Y-234791D01*
X229752Y-234695D01*
X229795Y-234601D01*
X229797Y-234581D01*
X229805Y-234563D01*
X229823Y-234396D01*
X229823Y-225245D01*
X235338Y-219730D01*
X235391Y-219656D01*
X235451Y-219586D01*
X235463Y-219556D01*
X235482Y-219530D01*
X235509Y-219443D01*
X235543Y-219358D01*
X235547Y-219317D01*
X235554Y-219295D01*
X235553Y-219263D01*
X235561Y-219191D01*
X235561Y-214558D01*
X235558Y-214538D01*
X235560Y-214519D01*
X235538Y-214417D01*
X235522Y-214315D01*
X235512Y-214298D01*
X235508Y-214278D01*
X235455Y-214189D01*
X235406Y-214098D01*
X235392Y-214084D01*
X235382Y-214067D01*
X235303Y-214000D01*
X235228Y-213928D01*
X235210Y-213920D01*
X235195Y-213907D01*
X235099Y-213868D01*
X235023Y-213833D01*
X234093Y-212904D01*
X234093Y-202640D01*
X234392Y-202341D01*
X234404Y-202325D01*
X234420Y-202313D01*
X234476Y-202226D01*
X234536Y-202142D01*
X234542Y-202123D01*
X234553Y-202106D01*
X234578Y-202005D01*
X234608Y-201907D01*
X234608Y-201887D01*
X234613Y-201867D01*
X234605Y-201764D01*
X234602Y-201661D01*
X234595Y-201642D01*
X234594Y-201622D01*
X234553Y-201527D01*
X234518Y-201430D01*
X234505Y-201414D01*
X234497Y-201396D01*
X234392Y-201265D01*
X233839Y-200712D01*
X233839Y-190448D01*
X234769Y-189519D01*
X234789Y-189516D01*
X234806Y-189506D01*
X234826Y-189502D01*
X234915Y-189449D01*
X235006Y-189400D01*
X235020Y-189386D01*
X235037Y-189376D01*
X235104Y-189297D01*
X235176Y-189222D01*
X235184Y-189204D01*
X235197Y-189189D01*
X235236Y-189093D01*
X235279Y-188999D01*
X235281Y-188979D01*
X235289Y-188961D01*
X235307Y-188794D01*
X235307Y-179709D01*
X240488Y-174528D01*
X240530Y-174470D01*
X240579Y-174418D01*
X240601Y-174371D01*
X240631Y-174329D01*
X240652Y-174260D01*
X240683Y-174195D01*
X240688Y-174143D01*
X240704Y-174093D01*
X240702Y-174022D01*
X240710Y-173951D01*
X240699Y-173900D01*
X240697Y-173848D01*
X240673Y-173780D01*
X240657Y-173710D01*
X240631Y-173665D01*
X240613Y-173617D01*
X240568Y-173561D01*
X240531Y-173499D01*
X240492Y-173465D01*
X240459Y-173425D01*
X240399Y-173386D01*
X240344Y-173339D01*
X240296Y-173320D01*
X240252Y-173292D01*
X240183Y-173274D01*
X240116Y-173247D01*
X240045Y-173239D01*
X240014Y-173231D01*
X239990Y-173233D01*
X239949Y-173229D01*
X231068Y-173229D01*
X231048Y-173232D01*
X231029Y-173230D01*
X230927Y-173252D01*
X230825Y-173268D01*
X230808Y-173278D01*
X230788Y-173282D01*
X230699Y-173335D01*
X230608Y-173384D01*
X230594Y-173398D01*
X230577Y-173408D01*
X230510Y-173487D01*
X230438Y-173562D01*
X230430Y-173580D01*
X230417Y-173595D01*
X230378Y-173691D01*
X230335Y-173785D01*
X230333Y-173805D01*
X230325Y-173823D01*
X230307Y-173990D01*
X230307Y-174162D01*
X229414Y-175055D01*
X219150Y-175055D01*
X218257Y-174162D01*
X218257Y-165898D01*
X219150Y-165005D01*
X229414Y-165005D01*
X229550Y-165141D01*
X229608Y-165183D01*
X229660Y-165233D01*
X229707Y-165255D01*
X229749Y-165285D01*
X229818Y-165306D01*
X229883Y-165336D01*
X229935Y-165342D01*
X229985Y-165357D01*
X230056Y-165355D01*
X230127Y-165363D01*
X230178Y-165352D01*
X230230Y-165351D01*
X230298Y-165326D01*
X230368Y-165311D01*
X230413Y-165284D01*
X230461Y-165267D01*
X230517Y-165222D01*
X230579Y-165185D01*
X230613Y-165145D01*
X230653Y-165113D01*
X230692Y-165053D01*
X230739Y-164998D01*
X230758Y-164950D01*
X230786Y-164906D01*
X230804Y-164837D01*
X230831Y-164770D01*
X230839Y-164699D01*
X230847Y-164667D01*
X230845Y-164644D01*
X230849Y-164603D01*
X230849Y-161632D01*
X233475Y-159006D01*
X233517Y-158948D01*
X233566Y-158896D01*
X233588Y-158849D01*
X233618Y-158807D01*
X233640Y-158738D01*
X233670Y-158673D01*
X233675Y-158621D01*
X233691Y-158571D01*
X233689Y-158500D01*
X233697Y-158429D01*
X233686Y-158378D01*
X233684Y-158326D01*
X233660Y-158258D01*
X233645Y-158188D01*
X233618Y-158143D01*
X233600Y-158095D01*
X233555Y-158039D01*
X233518Y-157977D01*
X233479Y-157943D01*
X233446Y-157903D01*
X233386Y-157864D01*
X233331Y-157817D01*
X233283Y-157798D01*
X233239Y-157770D01*
X233170Y-157752D01*
X233103Y-157725D01*
X233032Y-157717D01*
X233001Y-157709D01*
X232978Y-157711D01*
X232937Y-157707D01*
X229958Y-157707D01*
X226849Y-154598D01*
X226849Y-150202D01*
X229958Y-147093D01*
X234354Y-147093D01*
X237463Y-150202D01*
X237463Y-152908D01*
X237466Y-152928D01*
X237464Y-152947D01*
X237486Y-153049D01*
X237502Y-153151D01*
X237512Y-153168D01*
X237516Y-153188D01*
X237569Y-153277D01*
X237618Y-153368D01*
X237632Y-153382D01*
X237642Y-153399D01*
X237721Y-153466D01*
X237796Y-153538D01*
X237814Y-153546D01*
X237829Y-153559D01*
X237925Y-153598D01*
X238019Y-153641D01*
X238039Y-153643D01*
X238057Y-153651D01*
X238224Y-153669D01*
X242224Y-153669D01*
X242244Y-153666D01*
X242263Y-153668D01*
X242365Y-153646D01*
X242467Y-153630D01*
X242484Y-153620D01*
X242504Y-153616D01*
X242593Y-153563D01*
X242684Y-153514D01*
X242698Y-153500D01*
X242715Y-153490D01*
X242782Y-153411D01*
X242854Y-153336D01*
X242862Y-153318D01*
X242875Y-153303D01*
X242914Y-153207D01*
X242957Y-153113D01*
X242959Y-153093D01*
X242967Y-153075D01*
X242985Y-152908D01*
X242985Y-152225D01*
X248526Y-152225D01*
X248545Y-152222D01*
X248565Y-152224D01*
X248666Y-152202D01*
X248768Y-152186D01*
X248786Y-152176D01*
X248805Y-152172D01*
X248895Y-152119D01*
X248986Y-152071D01*
X248999Y-152056D01*
X249017Y-152046D01*
X249084Y-151967D01*
X249155Y-151892D01*
X249164Y-151874D01*
X249177Y-151859D01*
X249215Y-151763D01*
X249259Y-151669D01*
X249261Y-151649D01*
X249268Y-151631D01*
X249287Y-151464D01*
X249284Y-151444D01*
X249286Y-151425D01*
X249286Y-151424D01*
X249264Y-151323D01*
X249247Y-151221D01*
X249238Y-151204D01*
X249234Y-151184D01*
X249180Y-151095D01*
X249132Y-151004D01*
X249118Y-150990D01*
X249107Y-150973D01*
X249029Y-150906D01*
X248954Y-150834D01*
X248936Y-150826D01*
X248921Y-150813D01*
X248824Y-150774D01*
X248731Y-150731D01*
X248711Y-150729D01*
X248692Y-150721D01*
X248526Y-150703D01*
X242985Y-150703D01*
X242985Y-149630D01*
X243158Y-148983D01*
X243493Y-148404D01*
X243778Y-148119D01*
X243831Y-148045D01*
X243891Y-147975D01*
X243903Y-147945D01*
X243922Y-147919D01*
X243949Y-147832D01*
X243983Y-147747D01*
X243987Y-147706D01*
X243994Y-147684D01*
X243993Y-147652D01*
X244001Y-147580D01*
X244001Y-144228D01*
X244017Y-144166D01*
X244047Y-144067D01*
X244047Y-144047D01*
X244052Y-144028D01*
X244044Y-143925D01*
X244041Y-143822D01*
X244034Y-143803D01*
X244033Y-143783D01*
X244001Y-143709D01*
X244001Y-139332D01*
X244894Y-138439D01*
X245024Y-138439D01*
X245044Y-138436D01*
X245063Y-138438D01*
X245165Y-138416D01*
X245267Y-138400D01*
X245284Y-138390D01*
X245304Y-138386D01*
X245393Y-138333D01*
X245484Y-138284D01*
X245498Y-138270D01*
X245515Y-138260D01*
X245582Y-138181D01*
X245654Y-138106D01*
X245662Y-138088D01*
X245675Y-138073D01*
X245714Y-137977D01*
X245757Y-137883D01*
X245759Y-137863D01*
X245767Y-137845D01*
X245785Y-137678D01*
X245785Y-136526D01*
X250175Y-136526D01*
X250195Y-136523D01*
X250215Y-136525D01*
X250316Y-136503D01*
X250418Y-136486D01*
X250436Y-136477D01*
X250455Y-136472D01*
X250544Y-136419D01*
X250635Y-136371D01*
X250649Y-136357D01*
X250666Y-136346D01*
X250734Y-136268D01*
X250805Y-136193D01*
X250813Y-136175D01*
X250826Y-136159D01*
X250865Y-136063D01*
X250908Y-135970D01*
X250911Y-135950D01*
X250918Y-135931D01*
X250926Y-135860D01*
X250967Y-135852D01*
X251069Y-135835D01*
X251087Y-135826D01*
X251106Y-135821D01*
X251195Y-135768D01*
X251287Y-135720D01*
X251300Y-135705D01*
X251317Y-135695D01*
X251385Y-135616D01*
X251456Y-135541D01*
X251464Y-135523D01*
X251477Y-135508D01*
X251516Y-135412D01*
X251560Y-135318D01*
X251562Y-135299D01*
X251569Y-135280D01*
X251588Y-135113D01*
X251588Y-130723D01*
X252740Y-130723D01*
X252760Y-130720D01*
X252779Y-130722D01*
X252881Y-130700D01*
X252983Y-130684D01*
X253000Y-130674D01*
X253020Y-130670D01*
X253109Y-130617D01*
X253200Y-130568D01*
X253214Y-130554D01*
X253231Y-130544D01*
X253298Y-130465D01*
X253370Y-130390D01*
X253378Y-130372D01*
X253391Y-130357D01*
X253430Y-130261D01*
X253473Y-130167D01*
X253475Y-130147D01*
X253483Y-130129D01*
X253501Y-129962D01*
X253501Y-129832D01*
X254394Y-128939D01*
X254471Y-128939D01*
X254541Y-128928D01*
X254613Y-128926D01*
X254662Y-128908D01*
X254713Y-128900D01*
X254777Y-128866D01*
X254844Y-128841D01*
X254885Y-128809D01*
X254931Y-128784D01*
X254980Y-128732D01*
X255036Y-128688D01*
X255064Y-128644D01*
X255100Y-128606D01*
X255130Y-128541D01*
X255169Y-128481D01*
X255182Y-128430D01*
X255204Y-128383D01*
X255212Y-128312D01*
X255229Y-128242D01*
X255225Y-128190D01*
X255231Y-128139D01*
X255216Y-128068D01*
X255210Y-127997D01*
X255190Y-127949D01*
X255179Y-127898D01*
X255142Y-127837D01*
X255114Y-127771D01*
X255069Y-127715D01*
X255052Y-127687D01*
X255035Y-127672D01*
X255009Y-127640D01*
X254535Y-127166D01*
X254535Y-122770D01*
X257644Y-119661D01*
X262040Y-119661D01*
X262502Y-120123D01*
X262560Y-120165D01*
X262612Y-120214D01*
X262659Y-120236D01*
X262701Y-120266D01*
X262770Y-120288D01*
X262835Y-120318D01*
X262887Y-120323D01*
X262937Y-120339D01*
X263008Y-120337D01*
X263079Y-120345D01*
X263130Y-120334D01*
X263182Y-120332D01*
X263250Y-120308D01*
X263320Y-120293D01*
X263365Y-120266D01*
X263413Y-120248D01*
X263469Y-120203D01*
X263531Y-120166D01*
X263565Y-120127D01*
X263605Y-120094D01*
X263644Y-120034D01*
X263691Y-119979D01*
X263710Y-119931D01*
X263738Y-119887D01*
X263756Y-119818D01*
X263783Y-119751D01*
X263791Y-119680D01*
X263799Y-119649D01*
X263797Y-119626D01*
X263801Y-119585D01*
X263801Y-113366D01*
X264954Y-112213D01*
X277111Y-112213D01*
X277182Y-112202D01*
X277254Y-112200D01*
X277303Y-112182D01*
X277354Y-112174D01*
X277417Y-112140D01*
X277485Y-112115D01*
X277525Y-112083D01*
X277571Y-112058D01*
X277621Y-112006D01*
X277677Y-111962D01*
X277705Y-111918D01*
X277741Y-111880D01*
X277771Y-111815D01*
X277810Y-111755D01*
X277822Y-111704D01*
X277844Y-111657D01*
X277852Y-111586D01*
X277870Y-111516D01*
X277866Y-111464D01*
X277871Y-111413D01*
X277856Y-111342D01*
X277851Y-111271D01*
X277830Y-111223D01*
X277819Y-111172D01*
X277782Y-111111D01*
X277754Y-111045D01*
X277709Y-110989D01*
X277693Y-110961D01*
X277675Y-110946D01*
X277649Y-110914D01*
X276941Y-110206D01*
X276867Y-110152D01*
X276798Y-110093D01*
X276768Y-110081D01*
X276742Y-110062D01*
X276654Y-110035D01*
X276570Y-110001D01*
X276529Y-109997D01*
X276506Y-109990D01*
X276474Y-109991D01*
X276403Y-109983D01*
X266050Y-109983D01*
X264190Y-108123D01*
X258825Y-102758D01*
X258825Y-91622D01*
X258822Y-91602D01*
X258824Y-91583D01*
X258802Y-91481D01*
X258786Y-91379D01*
X258776Y-91362D01*
X258772Y-91342D01*
X258719Y-91253D01*
X258670Y-91162D01*
X258656Y-91148D01*
X258646Y-91131D01*
X258567Y-91064D01*
X258492Y-90992D01*
X258474Y-90984D01*
X258459Y-90971D01*
X258421Y-90956D01*
X258421Y-84582D01*
X258418Y-84562D01*
X258420Y-84543D01*
X258398Y-84441D01*
X258381Y-84339D01*
X258372Y-84322D01*
X258368Y-84302D01*
X258315Y-84213D01*
X258266Y-84122D01*
X258252Y-84108D01*
X258242Y-84091D01*
X258163Y-84024D01*
X258088Y-83953D01*
X258070Y-83944D01*
X258055Y-83931D01*
X257959Y-83892D01*
X257865Y-83849D01*
X257845Y-83847D01*
X257827Y-83839D01*
X257660Y-83821D01*
X256897Y-83821D01*
X256897Y-83058D01*
X256894Y-83038D01*
X256896Y-83019D01*
X256874Y-82917D01*
X256857Y-82815D01*
X256848Y-82798D01*
X256844Y-82778D01*
X256791Y-82689D01*
X256742Y-82598D01*
X256728Y-82584D01*
X256718Y-82567D01*
X256639Y-82500D01*
X256564Y-82429D01*
X256546Y-82420D01*
X256531Y-82407D01*
X256435Y-82368D01*
X256341Y-82325D01*
X256321Y-82323D01*
X256303Y-82315D01*
X256136Y-82297D01*
X250857Y-82297D01*
X250857Y-79756D01*
X250854Y-79736D01*
X250856Y-79717D01*
X250834Y-79615D01*
X250818Y-79513D01*
X250808Y-79496D01*
X250804Y-79476D01*
X250751Y-79387D01*
X250702Y-79296D01*
X250688Y-79282D01*
X250678Y-79265D01*
X250599Y-79198D01*
X250524Y-79127D01*
X250506Y-79118D01*
X250491Y-79105D01*
X250395Y-79066D01*
X250301Y-79023D01*
X250281Y-79021D01*
X250263Y-79013D01*
X250096Y-78995D01*
X70104Y-78995D01*
X70084Y-78998D01*
X70065Y-78996D01*
X69963Y-79018D01*
X69861Y-79035D01*
X69844Y-79044D01*
X69824Y-79048D01*
X69735Y-79101D01*
X69644Y-79150D01*
X69630Y-79164D01*
X69613Y-79174D01*
X69546Y-79253D01*
X69474Y-79328D01*
X69466Y-79346D01*
X69453Y-79361D01*
X69414Y-79457D01*
X69371Y-79551D01*
X69369Y-79571D01*
X69361Y-79589D01*
X69343Y-79756D01*
X69343Y-138780D01*
X69346Y-138800D01*
X69344Y-138819D01*
X69366Y-138921D01*
X69382Y-139023D01*
X69392Y-139040D01*
X69396Y-139060D01*
X69449Y-139149D01*
X69498Y-139240D01*
X69512Y-139254D01*
X69522Y-139271D01*
X69601Y-139338D01*
X69676Y-139410D01*
X69694Y-139418D01*
X69709Y-139431D01*
X69805Y-139470D01*
X69899Y-139513D01*
X69919Y-139515D01*
X69937Y-139523D01*
X70104Y-139541D01*
X84700Y-139541D01*
X85593Y-140434D01*
X85593Y-153698D01*
X84700Y-154591D01*
X70104Y-154591D01*
X70084Y-154594D01*
X70065Y-154592D01*
X69963Y-154614D01*
X69861Y-154630D01*
X69844Y-154640D01*
X69824Y-154644D01*
X69735Y-154697D01*
X69644Y-154746D01*
X69630Y-154760D01*
X69613Y-154770D01*
X69546Y-154849D01*
X69474Y-154924D01*
X69466Y-154942D01*
X69453Y-154957D01*
X69414Y-155053D01*
X69371Y-155147D01*
X69369Y-155167D01*
X69361Y-155185D01*
X69343Y-155352D01*
X69343Y-278130D01*
X69347Y-278156D01*
X69346Y-278205D01*
X69512Y-279889D01*
X69520Y-279917D01*
X69520Y-279945D01*
X69567Y-280106D01*
X70167Y-281555D01*
X70218Y-281638D01*
X70264Y-281724D01*
X70282Y-281742D01*
X70296Y-281764D01*
X70372Y-281826D01*
X70442Y-281893D01*
X70466Y-281904D01*
X70486Y-281921D01*
X70577Y-281956D01*
X70665Y-281997D01*
X70691Y-282000D01*
X70715Y-282009D01*
X70813Y-282013D01*
X70909Y-282024D01*
X70935Y-282018D01*
X70961Y-282019D01*
X71055Y-281992D01*
X71150Y-281972D01*
X71172Y-281958D01*
X71197Y-281951D01*
X71277Y-281895D01*
X71361Y-281845D01*
X71378Y-281826D01*
X71399Y-281811D01*
X71458Y-281732D01*
X71521Y-281658D01*
X71531Y-281634D01*
X71546Y-281613D01*
X71576Y-281521D01*
X71613Y-281430D01*
X71616Y-281398D01*
X71622Y-281379D01*
X71622Y-281346D01*
X71631Y-281264D01*
X71631Y-266922D01*
X72524Y-266029D01*
X107788Y-266029D01*
X108681Y-266922D01*
X108681Y-284186D01*
X107788Y-285079D01*
X75220Y-285079D01*
X75124Y-285094D01*
X75027Y-285104D01*
X75003Y-285114D01*
X74977Y-285118D01*
X74891Y-285164D01*
X74802Y-285204D01*
X74783Y-285221D01*
X74760Y-285234D01*
X74693Y-285304D01*
X74621Y-285370D01*
X74609Y-285393D01*
X74591Y-285412D01*
X74550Y-285500D01*
X74503Y-285586D01*
X74498Y-285611D01*
X74487Y-285635D01*
X74476Y-285732D01*
X74459Y-285828D01*
X74463Y-285854D01*
X74460Y-285879D01*
X74481Y-285975D01*
X74495Y-286071D01*
X74507Y-286094D01*
X74512Y-286120D01*
X74562Y-286203D01*
X74606Y-286290D01*
X74625Y-286309D01*
X74638Y-286331D01*
X74712Y-286394D01*
X74782Y-286462D01*
X74810Y-286478D01*
X74825Y-286491D01*
X74856Y-286503D01*
X74929Y-286543D01*
X76764Y-287303D01*
X76791Y-287310D01*
X76816Y-287323D01*
X76981Y-287358D01*
X78665Y-287524D01*
X78692Y-287522D01*
X78740Y-287527D01*
X163688Y-287527D01*
X163784Y-287512D01*
G37*
G36*
X204998Y-17522D02*
X204998Y-17522D01*
X205017Y-17524D01*
X205119Y-17502D01*
X205221Y-17486D01*
X205238Y-17476D01*
X205258Y-17472D01*
X205347Y-17419D01*
X205438Y-17370D01*
X205452Y-17356D01*
X205469Y-17346D01*
X205536Y-17267D01*
X205608Y-17192D01*
X205616Y-17174D01*
X205629Y-17159D01*
X205668Y-17063D01*
X205711Y-16969D01*
X205713Y-16949D01*
X205721Y-16931D01*
X205739Y-16764D01*
X205739Y7516D01*
X205736Y7536D01*
X205738Y7555D01*
X205716Y7657D01*
X205700Y7759D01*
X205690Y7776D01*
X205686Y7796D01*
X205633Y7885D01*
X205584Y7976D01*
X205570Y7990D01*
X205560Y8007D01*
X205481Y8074D01*
X205406Y8146D01*
X205388Y8154D01*
X205373Y8167D01*
X205277Y8206D01*
X205183Y8249D01*
X205163Y8251D01*
X205145Y8259D01*
X204978Y8277D01*
X184112Y8277D01*
X132161Y60228D01*
X130824Y61565D01*
X130766Y61607D01*
X130714Y61657D01*
X130667Y61679D01*
X130625Y61709D01*
X130556Y61730D01*
X130491Y61760D01*
X130439Y61766D01*
X130389Y61781D01*
X130318Y61779D01*
X130247Y61787D01*
X130196Y61776D01*
X130144Y61775D01*
X130076Y61750D01*
X130006Y61735D01*
X129961Y61708D01*
X129913Y61690D01*
X129857Y61646D01*
X129795Y61609D01*
X129761Y61569D01*
X129721Y61537D01*
X129682Y61476D01*
X129635Y61422D01*
X129616Y61374D01*
X129588Y61330D01*
X129570Y61260D01*
X129543Y61194D01*
X129535Y61122D01*
X129527Y61091D01*
X129529Y61068D01*
X129525Y61027D01*
X129525Y53008D01*
X128695Y52178D01*
X128683Y52162D01*
X128667Y52150D01*
X128611Y52062D01*
X128551Y51979D01*
X128545Y51960D01*
X128534Y51943D01*
X128509Y51842D01*
X128479Y51743D01*
X128479Y51724D01*
X128474Y51704D01*
X128482Y51601D01*
X128485Y51498D01*
X128492Y51479D01*
X128493Y51459D01*
X128534Y51364D01*
X128569Y51267D01*
X128582Y51251D01*
X128590Y51233D01*
X128695Y51102D01*
X129525Y50272D01*
X129525Y42008D01*
X128695Y41178D01*
X128683Y41162D01*
X128667Y41150D01*
X128611Y41062D01*
X128551Y40979D01*
X128545Y40960D01*
X128534Y40943D01*
X128509Y40842D01*
X128479Y40743D01*
X128479Y40724D01*
X128474Y40704D01*
X128482Y40601D01*
X128485Y40498D01*
X128492Y40479D01*
X128493Y40459D01*
X128534Y40364D01*
X128569Y40267D01*
X128582Y40251D01*
X128590Y40233D01*
X128695Y40102D01*
X129525Y39272D01*
X129525Y31008D01*
X128632Y30115D01*
X112368Y30115D01*
X111475Y31008D01*
X111475Y32092D01*
X111472Y32112D01*
X111474Y32131D01*
X111452Y32233D01*
X111436Y32335D01*
X111426Y32352D01*
X111422Y32372D01*
X111369Y32461D01*
X111320Y32552D01*
X111306Y32566D01*
X111296Y32583D01*
X111217Y32650D01*
X111142Y32722D01*
X111124Y32730D01*
X111109Y32743D01*
X111013Y32782D01*
X110919Y32825D01*
X110899Y32827D01*
X110881Y32835D01*
X110714Y32853D01*
X108809Y32853D01*
X108718Y32839D01*
X108628Y32831D01*
X108598Y32819D01*
X108566Y32814D01*
X108485Y32771D01*
X108401Y32735D01*
X108369Y32709D01*
X108348Y32698D01*
X108326Y32675D01*
X108270Y32630D01*
X97991Y22351D01*
X90163Y22351D01*
X90073Y22337D01*
X89982Y22329D01*
X89952Y22317D01*
X89920Y22312D01*
X89839Y22269D01*
X89755Y22233D01*
X89723Y22207D01*
X89702Y22196D01*
X89680Y22173D01*
X89624Y22128D01*
X88870Y21374D01*
X88817Y21300D01*
X88757Y21230D01*
X88745Y21200D01*
X88726Y21174D01*
X88699Y21087D01*
X88665Y21002D01*
X88661Y20961D01*
X88654Y20939D01*
X88655Y20907D01*
X88647Y20836D01*
X88647Y18419D01*
X82546Y12318D01*
X73918Y12318D01*
X70642Y15594D01*
X70584Y15636D01*
X70532Y15685D01*
X70485Y15707D01*
X70443Y15738D01*
X70374Y15759D01*
X70309Y15789D01*
X70257Y15795D01*
X70207Y15810D01*
X70136Y15808D01*
X70065Y15816D01*
X70014Y15805D01*
X69962Y15804D01*
X69894Y15779D01*
X69824Y15764D01*
X69779Y15737D01*
X69731Y15719D01*
X69675Y15674D01*
X69613Y15638D01*
X69579Y15598D01*
X69539Y15565D01*
X69500Y15505D01*
X69453Y15451D01*
X69434Y15402D01*
X69406Y15359D01*
X69388Y15289D01*
X69361Y15223D01*
X69353Y15151D01*
X69345Y15120D01*
X69347Y15097D01*
X69343Y15056D01*
X69343Y6447D01*
X69354Y6376D01*
X69356Y6305D01*
X69374Y6256D01*
X69382Y6204D01*
X69416Y6141D01*
X69441Y6074D01*
X69473Y6033D01*
X69498Y5987D01*
X69550Y5938D01*
X69594Y5882D01*
X69638Y5853D01*
X69676Y5818D01*
X69741Y5787D01*
X69801Y5749D01*
X69852Y5736D01*
X69899Y5714D01*
X69970Y5706D01*
X70040Y5688D01*
X70092Y5693D01*
X70143Y5687D01*
X70214Y5702D01*
X70285Y5708D01*
X70333Y5728D01*
X70384Y5739D01*
X70445Y5776D01*
X70511Y5804D01*
X70567Y5849D01*
X70595Y5865D01*
X70610Y5883D01*
X70642Y5909D01*
X73497Y8764D01*
X76709Y8764D01*
X76709Y-1905D01*
X76712Y-1925D01*
X76710Y-1944D01*
X76732Y-2046D01*
X76749Y-2148D01*
X76758Y-2165D01*
X76762Y-2185D01*
X76815Y-2274D01*
X76864Y-2365D01*
X76878Y-2379D01*
X76888Y-2396D01*
X76967Y-2463D01*
X77042Y-2534D01*
X77060Y-2543D01*
X77075Y-2556D01*
X77171Y-2594D01*
X77265Y-2638D01*
X77285Y-2640D01*
X77303Y-2648D01*
X77470Y-2666D01*
X78233Y-2666D01*
X78233Y-2668D01*
X77470Y-2668D01*
X77450Y-2671D01*
X77431Y-2669D01*
X77329Y-2691D01*
X77227Y-2708D01*
X77210Y-2717D01*
X77190Y-2721D01*
X77101Y-2774D01*
X77010Y-2823D01*
X76996Y-2837D01*
X76979Y-2847D01*
X76912Y-2926D01*
X76841Y-3001D01*
X76832Y-3019D01*
X76819Y-3034D01*
X76780Y-3130D01*
X76737Y-3224D01*
X76735Y-3244D01*
X76727Y-3262D01*
X76709Y-3429D01*
X76709Y-14098D01*
X73497Y-14098D01*
X70642Y-11243D01*
X70584Y-11201D01*
X70532Y-11152D01*
X70485Y-11130D01*
X70443Y-11099D01*
X70374Y-11078D01*
X70309Y-11048D01*
X70257Y-11042D01*
X70207Y-11027D01*
X70136Y-11029D01*
X70065Y-11021D01*
X70014Y-11032D01*
X69962Y-11033D01*
X69894Y-11058D01*
X69824Y-11073D01*
X69779Y-11100D01*
X69731Y-11118D01*
X69675Y-11163D01*
X69613Y-11199D01*
X69579Y-11239D01*
X69539Y-11271D01*
X69500Y-11332D01*
X69453Y-11386D01*
X69434Y-11434D01*
X69406Y-11478D01*
X69388Y-11548D01*
X69361Y-11614D01*
X69353Y-11686D01*
X69345Y-11717D01*
X69347Y-11740D01*
X69343Y-11781D01*
X69343Y-16764D01*
X69346Y-16784D01*
X69344Y-16803D01*
X69366Y-16905D01*
X69382Y-17007D01*
X69392Y-17024D01*
X69396Y-17044D01*
X69449Y-17133D01*
X69498Y-17224D01*
X69512Y-17238D01*
X69522Y-17255D01*
X69601Y-17322D01*
X69676Y-17394D01*
X69694Y-17402D01*
X69709Y-17415D01*
X69805Y-17454D01*
X69899Y-17497D01*
X69919Y-17499D01*
X69937Y-17507D01*
X70104Y-17525D01*
X204978Y-17525D01*
X204998Y-17522D01*
G37*
G36*
X194347Y20332D02*
X194347Y20332D01*
X194419Y20334D01*
X194468Y20352D01*
X194519Y20360D01*
X194582Y20394D01*
X194650Y20419D01*
X194690Y20451D01*
X194736Y20476D01*
X194786Y20528D01*
X194842Y20572D01*
X194870Y20616D01*
X194906Y20654D01*
X194936Y20719D01*
X194975Y20779D01*
X194988Y20830D01*
X195009Y20877D01*
X195017Y20948D01*
X195035Y21018D01*
X195031Y21070D01*
X195037Y21121D01*
X195021Y21192D01*
X195016Y21263D01*
X194995Y21311D01*
X194984Y21362D01*
X194947Y21423D01*
X194919Y21489D01*
X194875Y21545D01*
X194858Y21573D01*
X194840Y21588D01*
X194815Y21620D01*
X182171Y34264D01*
X180459Y35976D01*
X180459Y39966D01*
X180445Y40057D01*
X180437Y40147D01*
X180425Y40177D01*
X180420Y40209D01*
X180377Y40290D01*
X180341Y40374D01*
X180315Y40406D01*
X180304Y40427D01*
X180281Y40449D01*
X180236Y40505D01*
X178475Y42266D01*
X178475Y46014D01*
X181126Y48665D01*
X184874Y48665D01*
X187525Y46014D01*
X187525Y42266D01*
X185764Y40505D01*
X185711Y40431D01*
X185651Y40361D01*
X185639Y40331D01*
X185620Y40305D01*
X185593Y40218D01*
X185559Y40133D01*
X185555Y40092D01*
X185548Y40070D01*
X185549Y40038D01*
X185541Y39966D01*
X185541Y38396D01*
X185555Y38306D01*
X185563Y38215D01*
X185575Y38185D01*
X185580Y38153D01*
X185623Y38072D01*
X185659Y37988D01*
X185685Y37956D01*
X185696Y37936D01*
X185719Y37913D01*
X185764Y37857D01*
X199478Y24143D01*
X199552Y24090D01*
X199622Y24030D01*
X199652Y24018D01*
X199678Y23999D01*
X199765Y23973D01*
X199850Y23939D01*
X199891Y23934D01*
X199913Y23927D01*
X199945Y23928D01*
X200016Y23920D01*
X207377Y23920D01*
X207448Y23932D01*
X207519Y23933D01*
X207568Y23951D01*
X207620Y23960D01*
X207683Y23993D01*
X207750Y24018D01*
X207791Y24050D01*
X207837Y24075D01*
X207886Y24127D01*
X207942Y24172D01*
X207971Y24215D01*
X208007Y24253D01*
X208037Y24318D01*
X208075Y24379D01*
X208088Y24429D01*
X208110Y24476D01*
X208118Y24548D01*
X208136Y24617D01*
X208131Y24669D01*
X208137Y24721D01*
X208122Y24791D01*
X208116Y24862D01*
X208096Y24910D01*
X208085Y24961D01*
X208048Y25023D01*
X208020Y25089D01*
X207975Y25145D01*
X207959Y25172D01*
X207941Y25187D01*
X207915Y25220D01*
X195459Y37676D01*
X195459Y39966D01*
X195445Y40057D01*
X195437Y40147D01*
X195425Y40177D01*
X195420Y40209D01*
X195377Y40290D01*
X195341Y40374D01*
X195315Y40406D01*
X195304Y40427D01*
X195281Y40449D01*
X195236Y40505D01*
X193475Y42266D01*
X193475Y46014D01*
X196126Y48665D01*
X199874Y48665D01*
X202525Y46014D01*
X202525Y42266D01*
X200828Y40569D01*
X200817Y40553D01*
X200801Y40541D01*
X200745Y40453D01*
X200685Y40370D01*
X200679Y40351D01*
X200668Y40334D01*
X200643Y40233D01*
X200612Y40135D01*
X200613Y40115D01*
X200608Y40095D01*
X200616Y39992D01*
X200619Y39889D01*
X200626Y39870D01*
X200627Y39850D01*
X200668Y39755D01*
X200703Y39658D01*
X200716Y39642D01*
X200724Y39624D01*
X200828Y39493D01*
X212622Y27699D01*
X212696Y27646D01*
X212766Y27586D01*
X212796Y27574D01*
X212822Y27555D01*
X212909Y27529D01*
X212994Y27495D01*
X213035Y27490D01*
X213057Y27483D01*
X213089Y27484D01*
X213160Y27476D01*
X213219Y27476D01*
X213290Y27488D01*
X213361Y27489D01*
X213410Y27507D01*
X213462Y27516D01*
X213525Y27549D01*
X213592Y27574D01*
X213633Y27606D01*
X213679Y27631D01*
X213728Y27683D01*
X213784Y27728D01*
X213813Y27771D01*
X213849Y27809D01*
X213879Y27874D01*
X213917Y27935D01*
X213930Y27985D01*
X213952Y28032D01*
X213960Y28104D01*
X213978Y28173D01*
X213973Y28225D01*
X213979Y28277D01*
X213964Y28347D01*
X213958Y28418D01*
X213938Y28466D01*
X213927Y28517D01*
X213890Y28579D01*
X213862Y28645D01*
X213817Y28701D01*
X213801Y28728D01*
X213783Y28743D01*
X213757Y28776D01*
X210459Y32074D01*
X210459Y39966D01*
X210445Y40057D01*
X210437Y40147D01*
X210425Y40177D01*
X210420Y40209D01*
X210377Y40290D01*
X210341Y40374D01*
X210315Y40406D01*
X210304Y40427D01*
X210281Y40449D01*
X210236Y40505D01*
X208475Y42266D01*
X208475Y46014D01*
X211126Y48665D01*
X214874Y48665D01*
X217525Y46014D01*
X217525Y43373D01*
X217536Y43303D01*
X217538Y43231D01*
X217556Y43182D01*
X217564Y43131D01*
X217598Y43067D01*
X217623Y43000D01*
X217655Y42959D01*
X217680Y42913D01*
X217732Y42864D01*
X217776Y42808D01*
X217820Y42780D01*
X217858Y42744D01*
X217923Y42714D01*
X217983Y42675D01*
X218034Y42662D01*
X218081Y42640D01*
X218152Y42632D01*
X218222Y42615D01*
X218274Y42619D01*
X218325Y42613D01*
X218396Y42628D01*
X218467Y42634D01*
X218515Y42654D01*
X218566Y42665D01*
X218627Y42702D01*
X218693Y42730D01*
X218749Y42775D01*
X218777Y42792D01*
X218792Y42809D01*
X218824Y42835D01*
X219544Y43555D01*
X223940Y43555D01*
X227049Y40446D01*
X227049Y39010D01*
X227052Y38990D01*
X227050Y38971D01*
X227072Y38869D01*
X227088Y38767D01*
X227098Y38750D01*
X227102Y38730D01*
X227155Y38641D01*
X227204Y38550D01*
X227218Y38536D01*
X227228Y38519D01*
X227307Y38452D01*
X227382Y38380D01*
X227400Y38372D01*
X227415Y38359D01*
X227511Y38320D01*
X227605Y38277D01*
X227625Y38275D01*
X227643Y38267D01*
X227810Y38249D01*
X250714Y38249D01*
X250734Y38252D01*
X250753Y38250D01*
X250855Y38272D01*
X250957Y38288D01*
X250974Y38298D01*
X250994Y38302D01*
X251083Y38355D01*
X251174Y38404D01*
X251188Y38418D01*
X251205Y38428D01*
X251272Y38507D01*
X251344Y38582D01*
X251352Y38600D01*
X251365Y38615D01*
X251404Y38711D01*
X251447Y38805D01*
X251449Y38825D01*
X251457Y38843D01*
X251475Y39010D01*
X251475Y39272D01*
X251607Y39404D01*
X251676Y39499D01*
X251747Y39596D01*
X251749Y39600D01*
X251751Y39603D01*
X251786Y39717D01*
X251822Y39830D01*
X251822Y39835D01*
X251823Y39838D01*
X251820Y39957D01*
X251818Y40076D01*
X251817Y40080D01*
X251817Y40084D01*
X251776Y40195D01*
X251737Y40308D01*
X251734Y40311D01*
X251733Y40315D01*
X251658Y40408D01*
X251585Y40502D01*
X251581Y40505D01*
X251579Y40507D01*
X251567Y40515D01*
X251450Y40601D01*
X251440Y40607D01*
X250967Y41080D01*
X250632Y41659D01*
X250459Y42306D01*
X250459Y44617D01*
X259738Y44617D01*
X259758Y44620D01*
X259777Y44618D01*
X259879Y44640D01*
X259981Y44657D01*
X259998Y44666D01*
X260018Y44670D01*
X260107Y44723D01*
X260198Y44772D01*
X260212Y44786D01*
X260229Y44796D01*
X260296Y44875D01*
X260367Y44950D01*
X260376Y44968D01*
X260389Y44983D01*
X260428Y45079D01*
X260471Y45173D01*
X260473Y45193D01*
X260481Y45211D01*
X260499Y45378D01*
X260499Y46902D01*
X260496Y46922D01*
X260498Y46941D01*
X260476Y47043D01*
X260459Y47145D01*
X260450Y47162D01*
X260446Y47182D01*
X260393Y47271D01*
X260344Y47362D01*
X260330Y47376D01*
X260320Y47393D01*
X260241Y47460D01*
X260166Y47531D01*
X260148Y47540D01*
X260133Y47553D01*
X260037Y47592D01*
X259943Y47635D01*
X259923Y47637D01*
X259905Y47645D01*
X259738Y47663D01*
X250459Y47663D01*
X250459Y49974D01*
X250632Y50621D01*
X250967Y51200D01*
X251440Y51673D01*
X251450Y51679D01*
X251541Y51754D01*
X251635Y51828D01*
X251637Y51832D01*
X251640Y51835D01*
X251703Y51934D01*
X251768Y52035D01*
X251769Y52039D01*
X251771Y52043D01*
X251799Y52158D01*
X251828Y52274D01*
X251827Y52278D01*
X251828Y52282D01*
X251818Y52401D01*
X251809Y52519D01*
X251807Y52523D01*
X251807Y52527D01*
X251759Y52635D01*
X251712Y52745D01*
X251709Y52749D01*
X251708Y52752D01*
X251699Y52762D01*
X251607Y52876D01*
X251475Y53008D01*
X251475Y61272D01*
X252305Y62102D01*
X252317Y62118D01*
X252333Y62130D01*
X252389Y62218D01*
X252449Y62301D01*
X252455Y62320D01*
X252466Y62337D01*
X252491Y62438D01*
X252492Y62443D01*
X252521Y62537D01*
X252521Y62556D01*
X252526Y62576D01*
X252518Y62673D01*
X252520Y62687D01*
X252517Y62699D01*
X252515Y62782D01*
X252508Y62801D01*
X252507Y62821D01*
X252474Y62898D01*
X252467Y62928D01*
X252453Y62951D01*
X252431Y63013D01*
X252418Y63029D01*
X252410Y63047D01*
X252353Y63119D01*
X252341Y63139D01*
X252328Y63150D01*
X252305Y63178D01*
X251475Y64008D01*
X251475Y64794D01*
X251464Y64864D01*
X251462Y64936D01*
X251444Y64985D01*
X251436Y65036D01*
X251402Y65100D01*
X251377Y65167D01*
X251345Y65208D01*
X251320Y65254D01*
X251268Y65303D01*
X251224Y65359D01*
X251180Y65387D01*
X251142Y65423D01*
X251077Y65453D01*
X251017Y65492D01*
X250966Y65505D01*
X250919Y65527D01*
X250848Y65535D01*
X250778Y65552D01*
X250726Y65548D01*
X250675Y65554D01*
X250604Y65539D01*
X250533Y65533D01*
X250485Y65513D01*
X250434Y65502D01*
X250373Y65465D01*
X250307Y65437D01*
X250251Y65392D01*
X250223Y65375D01*
X250208Y65358D01*
X250176Y65332D01*
X238697Y53853D01*
X217428Y53853D01*
X217337Y53839D01*
X217247Y53831D01*
X217217Y53819D01*
X217185Y53814D01*
X217104Y53771D01*
X217020Y53735D01*
X216988Y53709D01*
X216967Y53698D01*
X216945Y53675D01*
X216889Y53630D01*
X214874Y51615D01*
X211126Y51615D01*
X208475Y54266D01*
X208475Y58014D01*
X211126Y60665D01*
X214874Y60665D01*
X216889Y58650D01*
X216963Y58597D01*
X217033Y58537D01*
X217063Y58525D01*
X217089Y58506D01*
X217176Y58479D01*
X217261Y58445D01*
X217302Y58441D01*
X217324Y58434D01*
X217356Y58435D01*
X217428Y58427D01*
X236487Y58427D01*
X236578Y58441D01*
X236668Y58449D01*
X236698Y58461D01*
X236730Y58466D01*
X236811Y58509D01*
X236895Y58545D01*
X236927Y58571D01*
X236948Y58582D01*
X236970Y58605D01*
X237026Y58650D01*
X245902Y67526D01*
X245955Y67600D01*
X246015Y67670D01*
X246027Y67700D01*
X246046Y67726D01*
X246073Y67813D01*
X246107Y67898D01*
X246111Y67939D01*
X246118Y67961D01*
X246117Y67993D01*
X246125Y68065D01*
X246125Y117403D01*
X246111Y117493D01*
X246103Y117584D01*
X246091Y117613D01*
X246086Y117645D01*
X246043Y117726D01*
X246007Y117810D01*
X245981Y117842D01*
X245970Y117863D01*
X245947Y117885D01*
X245902Y117941D01*
X243105Y120738D01*
X243105Y125134D01*
X246214Y128243D01*
X250610Y128243D01*
X253719Y125134D01*
X253719Y120738D01*
X250922Y117941D01*
X250869Y117867D01*
X250809Y117797D01*
X250797Y117767D01*
X250778Y117741D01*
X250751Y117654D01*
X250717Y117569D01*
X250713Y117528D01*
X250706Y117506D01*
X250707Y117474D01*
X250699Y117403D01*
X250699Y117333D01*
X250710Y117262D01*
X250712Y117190D01*
X250730Y117141D01*
X250738Y117090D01*
X250772Y117027D01*
X250797Y116959D01*
X250829Y116919D01*
X250854Y116873D01*
X250906Y116823D01*
X250950Y116767D01*
X250994Y116739D01*
X251032Y116703D01*
X251097Y116673D01*
X251157Y116634D01*
X251208Y116622D01*
X251255Y116600D01*
X251326Y116592D01*
X251396Y116574D01*
X251448Y116578D01*
X251499Y116573D01*
X251570Y116588D01*
X251641Y116593D01*
X251689Y116614D01*
X251740Y116625D01*
X251801Y116662D01*
X251867Y116690D01*
X251923Y116735D01*
X251951Y116751D01*
X251966Y116769D01*
X251998Y116795D01*
X252368Y117165D01*
X261975Y117165D01*
X262066Y117179D01*
X262156Y117187D01*
X262186Y117199D01*
X262218Y117204D01*
X262299Y117247D01*
X262383Y117283D01*
X262415Y117309D01*
X262436Y117320D01*
X262458Y117343D01*
X262514Y117388D01*
X264086Y118960D01*
X264139Y119034D01*
X264199Y119104D01*
X264211Y119134D01*
X264230Y119160D01*
X264257Y119247D01*
X264291Y119332D01*
X264295Y119373D01*
X264302Y119395D01*
X264301Y119427D01*
X264309Y119499D01*
X264309Y130556D01*
X264306Y130576D01*
X264308Y130595D01*
X264286Y130697D01*
X264270Y130799D01*
X264260Y130816D01*
X264256Y130836D01*
X264203Y130925D01*
X264154Y131016D01*
X264140Y131030D01*
X264130Y131047D01*
X264051Y131114D01*
X263976Y131185D01*
X263958Y131194D01*
X263943Y131207D01*
X263847Y131246D01*
X263753Y131289D01*
X263733Y131291D01*
X263715Y131299D01*
X263548Y131317D01*
X213860Y131317D01*
X213790Y131306D01*
X213718Y131304D01*
X213669Y131286D01*
X213618Y131277D01*
X213554Y131244D01*
X213487Y131219D01*
X213446Y131187D01*
X213400Y131162D01*
X213351Y131110D01*
X213295Y131066D01*
X213267Y131022D01*
X213231Y130984D01*
X213201Y130919D01*
X213162Y130859D01*
X213149Y130808D01*
X213127Y130761D01*
X213119Y130690D01*
X213102Y130620D01*
X213106Y130568D01*
X213100Y130517D01*
X213116Y130446D01*
X213121Y130375D01*
X213141Y130327D01*
X213153Y130276D01*
X213189Y130214D01*
X213217Y130149D01*
X213262Y130093D01*
X213279Y130065D01*
X213297Y130050D01*
X213322Y130018D01*
X213386Y129954D01*
X217902Y125438D01*
X217902Y123104D01*
X217913Y123034D01*
X217915Y122962D01*
X217933Y122913D01*
X217942Y122862D01*
X217975Y122798D01*
X218000Y122731D01*
X218032Y122690D01*
X218057Y122644D01*
X218109Y122595D01*
X218153Y122539D01*
X218197Y122511D01*
X218235Y122475D01*
X218300Y122445D01*
X218360Y122406D01*
X218411Y122393D01*
X218458Y122371D01*
X218529Y122363D01*
X218599Y122346D01*
X218651Y122350D01*
X218702Y122344D01*
X218773Y122359D01*
X218844Y122365D01*
X218892Y122385D01*
X218943Y122396D01*
X219004Y122433D01*
X219070Y122461D01*
X219126Y122506D01*
X219154Y122523D01*
X219169Y122540D01*
X219201Y122566D01*
X220306Y123671D01*
X224702Y123671D01*
X227811Y120562D01*
X227811Y116166D01*
X225014Y113369D01*
X224961Y113295D01*
X224901Y113225D01*
X224889Y113195D01*
X224870Y113169D01*
X224843Y113082D01*
X224809Y112997D01*
X224805Y112956D01*
X224798Y112934D01*
X224799Y112902D01*
X224791Y112831D01*
X224791Y108657D01*
X224802Y108587D01*
X224804Y108515D01*
X224822Y108466D01*
X224830Y108415D01*
X224864Y108351D01*
X224889Y108284D01*
X224921Y108243D01*
X224946Y108197D01*
X224998Y108148D01*
X225042Y108092D01*
X225086Y108064D01*
X225124Y108028D01*
X225189Y107998D01*
X225249Y107959D01*
X225300Y107946D01*
X225347Y107924D01*
X225418Y107916D01*
X225488Y107899D01*
X225540Y107903D01*
X225591Y107897D01*
X225662Y107912D01*
X225733Y107918D01*
X225781Y107938D01*
X225832Y107949D01*
X225893Y107986D01*
X225959Y108014D01*
X226015Y108059D01*
X226043Y108076D01*
X226058Y108093D01*
X226090Y108119D01*
X228434Y110463D01*
X232938Y110463D01*
X232995Y110436D01*
X233047Y110431D01*
X233096Y110415D01*
X233168Y110417D01*
X233239Y110409D01*
X233290Y110420D01*
X233342Y110422D01*
X233410Y110446D01*
X233480Y110461D01*
X233524Y110488D01*
X233573Y110506D01*
X233629Y110551D01*
X233691Y110588D01*
X233725Y110627D01*
X233765Y110660D01*
X233804Y110720D01*
X233851Y110775D01*
X233870Y110823D01*
X233898Y110866D01*
X233916Y110936D01*
X233943Y111003D01*
X233951Y111074D01*
X233959Y111105D01*
X233957Y111128D01*
X233961Y111169D01*
X233961Y115228D01*
X237070Y118337D01*
X241466Y118337D01*
X244575Y115228D01*
X244575Y110832D01*
X244572Y110829D01*
X244519Y110755D01*
X244459Y110685D01*
X244447Y110655D01*
X244428Y110629D01*
X244401Y110542D01*
X244367Y110457D01*
X244363Y110416D01*
X244356Y110394D01*
X244357Y110362D01*
X244349Y110291D01*
X244349Y75507D01*
X234695Y65853D01*
X217428Y65853D01*
X217337Y65839D01*
X217247Y65831D01*
X217217Y65819D01*
X217185Y65814D01*
X217104Y65771D01*
X217020Y65735D01*
X216988Y65709D01*
X216967Y65698D01*
X216945Y65675D01*
X216889Y65630D01*
X214874Y63615D01*
X211126Y63615D01*
X208475Y66266D01*
X208475Y70014D01*
X211126Y72665D01*
X214874Y72665D01*
X216889Y70650D01*
X216963Y70597D01*
X217033Y70537D01*
X217063Y70525D01*
X217089Y70506D01*
X217176Y70479D01*
X217261Y70445D01*
X217302Y70441D01*
X217324Y70434D01*
X217356Y70435D01*
X217428Y70427D01*
X232485Y70427D01*
X232576Y70441D01*
X232666Y70449D01*
X232696Y70461D01*
X232728Y70466D01*
X232809Y70509D01*
X232893Y70545D01*
X232925Y70571D01*
X232946Y70582D01*
X232968Y70605D01*
X233024Y70650D01*
X239552Y77178D01*
X239605Y77252D01*
X239665Y77322D01*
X239677Y77352D01*
X239696Y77378D01*
X239723Y77465D01*
X239757Y77550D01*
X239761Y77591D01*
X239768Y77613D01*
X239767Y77645D01*
X239775Y77717D01*
X239775Y84590D01*
X239764Y84661D01*
X239762Y84734D01*
X239744Y84782D01*
X239736Y84832D01*
X239702Y84896D01*
X239677Y84964D01*
X239644Y85004D01*
X239620Y85050D01*
X239568Y85100D01*
X239522Y85156D01*
X239479Y85184D01*
X239442Y85219D01*
X239376Y85250D01*
X239315Y85289D01*
X239266Y85301D01*
X239219Y85323D01*
X239147Y85331D01*
X239077Y85348D01*
X239026Y85344D01*
X238975Y85350D01*
X238904Y85334D01*
X238831Y85329D01*
X238784Y85308D01*
X238734Y85298D01*
X238672Y85260D01*
X238605Y85232D01*
X238551Y85188D01*
X238523Y85171D01*
X238508Y85153D01*
X238475Y85127D01*
X238467Y85119D01*
X231201Y77853D01*
X217428Y77853D01*
X217337Y77839D01*
X217247Y77831D01*
X217217Y77819D01*
X217185Y77814D01*
X217104Y77771D01*
X217020Y77735D01*
X216988Y77709D01*
X216967Y77698D01*
X216945Y77675D01*
X216889Y77630D01*
X214874Y75615D01*
X211126Y75615D01*
X208437Y78304D01*
X208436Y78311D01*
X208402Y78374D01*
X208377Y78442D01*
X208345Y78482D01*
X208320Y78528D01*
X208269Y78577D01*
X208224Y78634D01*
X208180Y78662D01*
X208142Y78697D01*
X208077Y78728D01*
X208017Y78766D01*
X207966Y78779D01*
X207919Y78801D01*
X207848Y78809D01*
X207778Y78827D01*
X207726Y78822D01*
X207675Y78828D01*
X207604Y78813D01*
X207533Y78807D01*
X207485Y78787D01*
X207434Y78776D01*
X207373Y78739D01*
X207307Y78711D01*
X207251Y78666D01*
X207223Y78650D01*
X207208Y78632D01*
X207176Y78606D01*
X207058Y78489D01*
X201092Y72523D01*
X201081Y72507D01*
X201065Y72494D01*
X201009Y72407D01*
X200949Y72323D01*
X200943Y72304D01*
X200932Y72287D01*
X200907Y72187D01*
X200877Y72088D01*
X200877Y72068D01*
X200872Y72049D01*
X200880Y71946D01*
X200883Y71842D01*
X200890Y71824D01*
X200891Y71804D01*
X200932Y71709D01*
X200967Y71611D01*
X200980Y71596D01*
X200988Y71577D01*
X201092Y71446D01*
X202525Y70014D01*
X202525Y66266D01*
X199874Y63615D01*
X196126Y63615D01*
X193475Y66266D01*
X193475Y70014D01*
X195490Y72029D01*
X195536Y72093D01*
X195558Y72116D01*
X195562Y72125D01*
X195603Y72173D01*
X195615Y72203D01*
X195634Y72229D01*
X195661Y72316D01*
X195695Y72401D01*
X195699Y72442D01*
X195706Y72464D01*
X195705Y72496D01*
X195713Y72568D01*
X195713Y73612D01*
X196417Y74316D01*
X196459Y74374D01*
X196509Y74426D01*
X196531Y74473D01*
X196561Y74515D01*
X196582Y74584D01*
X196612Y74649D01*
X196618Y74701D01*
X196633Y74751D01*
X196631Y74822D01*
X196639Y74893D01*
X196628Y74944D01*
X196627Y74996D01*
X196602Y75064D01*
X196587Y75134D01*
X196560Y75179D01*
X196542Y75227D01*
X196498Y75283D01*
X196461Y75345D01*
X196421Y75379D01*
X196389Y75419D01*
X196328Y75458D01*
X196274Y75505D01*
X196226Y75524D01*
X196201Y75540D01*
X193475Y78266D01*
X193475Y82014D01*
X195490Y84029D01*
X195543Y84103D01*
X195603Y84173D01*
X195615Y84203D01*
X195634Y84229D01*
X195661Y84316D01*
X195695Y84401D01*
X195699Y84442D01*
X195706Y84464D01*
X195705Y84496D01*
X195713Y84568D01*
X195713Y85612D01*
X196417Y86316D01*
X196459Y86374D01*
X196509Y86426D01*
X196531Y86473D01*
X196561Y86515D01*
X196582Y86584D01*
X196612Y86649D01*
X196618Y86701D01*
X196633Y86751D01*
X196631Y86822D01*
X196639Y86893D01*
X196628Y86944D01*
X196627Y86996D01*
X196602Y87064D01*
X196587Y87134D01*
X196560Y87179D01*
X196542Y87227D01*
X196498Y87283D01*
X196461Y87345D01*
X196421Y87379D01*
X196389Y87419D01*
X196328Y87458D01*
X196274Y87505D01*
X196226Y87524D01*
X196201Y87540D01*
X193475Y90266D01*
X193475Y91214D01*
X193472Y91234D01*
X193474Y91253D01*
X193452Y91355D01*
X193436Y91457D01*
X193426Y91474D01*
X193422Y91494D01*
X193369Y91583D01*
X193320Y91674D01*
X193306Y91688D01*
X193296Y91705D01*
X193217Y91772D01*
X193142Y91844D01*
X193124Y91852D01*
X193109Y91865D01*
X193013Y91904D01*
X192919Y91947D01*
X192899Y91949D01*
X192881Y91957D01*
X192714Y91975D01*
X188286Y91975D01*
X188266Y91972D01*
X188247Y91974D01*
X188145Y91952D01*
X188043Y91936D01*
X188026Y91926D01*
X188006Y91922D01*
X187917Y91869D01*
X187826Y91820D01*
X187812Y91806D01*
X187795Y91796D01*
X187728Y91717D01*
X187656Y91642D01*
X187648Y91624D01*
X187635Y91609D01*
X187596Y91513D01*
X187553Y91419D01*
X187551Y91399D01*
X187543Y91381D01*
X187525Y91214D01*
X187525Y90266D01*
X184874Y87615D01*
X181126Y87615D01*
X178475Y90266D01*
X178475Y91214D01*
X178472Y91234D01*
X178474Y91253D01*
X178452Y91355D01*
X178436Y91457D01*
X178426Y91474D01*
X178422Y91494D01*
X178369Y91583D01*
X178320Y91674D01*
X178306Y91688D01*
X178296Y91705D01*
X178217Y91772D01*
X178142Y91844D01*
X178124Y91852D01*
X178109Y91865D01*
X178013Y91904D01*
X177919Y91947D01*
X177899Y91949D01*
X177881Y91957D01*
X177714Y91975D01*
X173286Y91975D01*
X173266Y91972D01*
X173247Y91974D01*
X173145Y91952D01*
X173043Y91936D01*
X173026Y91926D01*
X173006Y91922D01*
X172917Y91869D01*
X172826Y91820D01*
X172812Y91806D01*
X172795Y91796D01*
X172728Y91717D01*
X172656Y91642D01*
X172648Y91624D01*
X172635Y91609D01*
X172596Y91513D01*
X172553Y91419D01*
X172551Y91399D01*
X172543Y91381D01*
X172525Y91214D01*
X172525Y90266D01*
X169874Y87615D01*
X166126Y87615D01*
X163475Y90266D01*
X163475Y94014D01*
X166126Y96665D01*
X168257Y96665D01*
X168347Y96679D01*
X168438Y96687D01*
X168468Y96699D01*
X168500Y96704D01*
X168581Y96747D01*
X168664Y96783D01*
X168697Y96809D01*
X168717Y96820D01*
X168739Y96843D01*
X168795Y96888D01*
X169276Y97369D01*
X169329Y97443D01*
X169389Y97512D01*
X169401Y97542D01*
X169420Y97568D01*
X169447Y97655D01*
X169481Y97740D01*
X169485Y97781D01*
X169492Y97803D01*
X169491Y97836D01*
X169499Y97907D01*
X169499Y102641D01*
X174018Y102641D01*
X174102Y102607D01*
X174138Y102603D01*
X174159Y102597D01*
X174191Y102597D01*
X174268Y102589D01*
X176732Y102589D01*
X176825Y102604D01*
X176919Y102612D01*
X176946Y102624D01*
X176974Y102628D01*
X176998Y102641D01*
X181501Y102641D01*
X181501Y98751D01*
X181485Y98752D01*
X181395Y98725D01*
X181302Y98705D01*
X181277Y98690D01*
X181249Y98681D01*
X181172Y98627D01*
X181091Y98578D01*
X181072Y98556D01*
X181048Y98539D01*
X180993Y98463D01*
X180931Y98391D01*
X180920Y98364D01*
X180903Y98341D01*
X180875Y98251D01*
X180839Y98163D01*
X180835Y98127D01*
X180829Y98106D01*
X180829Y98074D01*
X180821Y97997D01*
X180821Y97426D01*
X180824Y97406D01*
X180822Y97387D01*
X180844Y97285D01*
X180860Y97183D01*
X180870Y97166D01*
X180874Y97146D01*
X180927Y97057D01*
X180976Y96966D01*
X180990Y96952D01*
X181000Y96935D01*
X181079Y96868D01*
X181154Y96796D01*
X181172Y96788D01*
X181187Y96775D01*
X181283Y96736D01*
X181377Y96693D01*
X181397Y96691D01*
X181415Y96683D01*
X181582Y96665D01*
X183257Y96665D01*
X183347Y96679D01*
X183438Y96687D01*
X183468Y96699D01*
X183500Y96704D01*
X183580Y96747D01*
X183664Y96783D01*
X183697Y96809D01*
X183717Y96820D01*
X183739Y96843D01*
X183795Y96888D01*
X184276Y97369D01*
X184330Y97443D01*
X184389Y97512D01*
X184401Y97542D01*
X184420Y97568D01*
X184447Y97655D01*
X184481Y97740D01*
X184485Y97781D01*
X184492Y97803D01*
X184491Y97836D01*
X184499Y97907D01*
X184499Y102641D01*
X189018Y102641D01*
X189102Y102607D01*
X189138Y102603D01*
X189159Y102597D01*
X189191Y102597D01*
X189268Y102589D01*
X191732Y102589D01*
X191825Y102604D01*
X191919Y102612D01*
X191946Y102624D01*
X191974Y102628D01*
X191998Y102641D01*
X197262Y102641D01*
X197281Y102644D01*
X197301Y102642D01*
X197403Y102664D01*
X197505Y102680D01*
X197522Y102690D01*
X197542Y102694D01*
X197631Y102747D01*
X197722Y102796D01*
X197736Y102810D01*
X197753Y102820D01*
X197820Y102899D01*
X197891Y102974D01*
X197900Y102992D01*
X197913Y103007D01*
X197951Y103103D01*
X197995Y103197D01*
X197997Y103217D01*
X198005Y103235D01*
X198023Y103402D01*
X198023Y104117D01*
X198738Y104117D01*
X198758Y104120D01*
X198777Y104118D01*
X198879Y104140D01*
X198981Y104157D01*
X198998Y104166D01*
X199018Y104170D01*
X199107Y104223D01*
X199198Y104272D01*
X199212Y104286D01*
X199229Y104296D01*
X199296Y104375D01*
X199368Y104450D01*
X199376Y104468D01*
X199389Y104483D01*
X199428Y104579D01*
X199471Y104673D01*
X199473Y104693D01*
X199481Y104711D01*
X199499Y104878D01*
X199499Y109879D01*
X199485Y109970D01*
X199477Y110060D01*
X199465Y110090D01*
X199460Y110122D01*
X199417Y110203D01*
X199381Y110287D01*
X199355Y110319D01*
X199344Y110340D01*
X199321Y110362D01*
X199276Y110418D01*
X197396Y112298D01*
X197322Y112351D01*
X197252Y112411D01*
X197222Y112423D01*
X197196Y112442D01*
X197109Y112469D01*
X197024Y112503D01*
X196983Y112507D01*
X196961Y112514D01*
X196929Y112513D01*
X196857Y112521D01*
X195525Y112521D01*
X195435Y112507D01*
X195344Y112499D01*
X195315Y112487D01*
X195283Y112482D01*
X195202Y112439D01*
X195118Y112403D01*
X195086Y112377D01*
X195065Y112366D01*
X195043Y112343D01*
X194987Y112298D01*
X192190Y109501D01*
X187794Y109501D01*
X184685Y112610D01*
X184685Y117006D01*
X186747Y119068D01*
X186789Y119126D01*
X186838Y119178D01*
X186860Y119225D01*
X186890Y119267D01*
X186912Y119336D01*
X186942Y119401D01*
X186947Y119453D01*
X186963Y119503D01*
X186961Y119574D01*
X186969Y119645D01*
X186958Y119696D01*
X186956Y119748D01*
X186932Y119816D01*
X186917Y119886D01*
X186890Y119931D01*
X186872Y119979D01*
X186827Y120035D01*
X186790Y120097D01*
X186751Y120131D01*
X186718Y120171D01*
X186658Y120210D01*
X186603Y120257D01*
X186555Y120276D01*
X186511Y120304D01*
X186442Y120322D01*
X186375Y120349D01*
X186304Y120357D01*
X186273Y120365D01*
X186250Y120363D01*
X186209Y120367D01*
X182825Y120367D01*
X182735Y120353D01*
X182644Y120345D01*
X182615Y120333D01*
X182583Y120328D01*
X182502Y120285D01*
X182418Y120249D01*
X182386Y120223D01*
X182365Y120212D01*
X182343Y120189D01*
X182287Y120144D01*
X179490Y117347D01*
X175094Y117347D01*
X171985Y120456D01*
X171985Y124852D01*
X172777Y125644D01*
X172819Y125702D01*
X172868Y125754D01*
X172890Y125801D01*
X172920Y125843D01*
X172942Y125912D01*
X172972Y125977D01*
X172977Y126029D01*
X172993Y126079D01*
X172991Y126150D01*
X172999Y126221D01*
X172988Y126272D01*
X172986Y126324D01*
X172962Y126392D01*
X172947Y126462D01*
X172920Y126507D01*
X172902Y126555D01*
X172857Y126611D01*
X172820Y126673D01*
X172781Y126707D01*
X172748Y126747D01*
X172688Y126786D01*
X172633Y126833D01*
X172585Y126852D01*
X172541Y126880D01*
X172472Y126898D01*
X172405Y126925D01*
X172334Y126933D01*
X172303Y126941D01*
X172280Y126939D01*
X172239Y126943D01*
X166596Y126943D01*
X166576Y126940D01*
X166557Y126942D01*
X166455Y126920D01*
X166353Y126904D01*
X166336Y126894D01*
X166316Y126890D01*
X166227Y126837D01*
X166136Y126788D01*
X166122Y126774D01*
X166105Y126764D01*
X166038Y126685D01*
X165966Y126610D01*
X165958Y126592D01*
X165945Y126577D01*
X165906Y126481D01*
X165863Y126387D01*
X165861Y126367D01*
X165853Y126349D01*
X165835Y126182D01*
X165835Y123730D01*
X162726Y120621D01*
X158330Y120621D01*
X155221Y123730D01*
X155221Y128126D01*
X157113Y130018D01*
X157155Y130076D01*
X157204Y130128D01*
X157226Y130175D01*
X157256Y130217D01*
X157277Y130286D01*
X157308Y130351D01*
X157313Y130403D01*
X157329Y130453D01*
X157327Y130524D01*
X157335Y130595D01*
X157324Y130646D01*
X157322Y130698D01*
X157298Y130766D01*
X157283Y130836D01*
X157256Y130880D01*
X157238Y130929D01*
X157193Y130985D01*
X157156Y131047D01*
X157117Y131081D01*
X157084Y131121D01*
X157024Y131160D01*
X156969Y131207D01*
X156921Y131226D01*
X156877Y131254D01*
X156808Y131272D01*
X156741Y131299D01*
X156670Y131307D01*
X156639Y131315D01*
X156616Y131313D01*
X156575Y131317D01*
X98044Y131317D01*
X98024Y131314D01*
X98005Y131316D01*
X97903Y131294D01*
X97801Y131277D01*
X97784Y131268D01*
X97764Y131264D01*
X97675Y131211D01*
X97584Y131162D01*
X97570Y131148D01*
X97553Y131138D01*
X97486Y131059D01*
X97414Y130984D01*
X97406Y130966D01*
X97393Y130951D01*
X97354Y130855D01*
X97311Y130761D01*
X97309Y130741D01*
X97301Y130723D01*
X97283Y130556D01*
X97283Y120642D01*
X97297Y120552D01*
X97305Y120461D01*
X97317Y120432D01*
X97322Y120400D01*
X97365Y120319D01*
X97401Y120235D01*
X97427Y120203D01*
X97438Y120182D01*
X97461Y120160D01*
X97506Y120104D01*
X102960Y114650D01*
X103034Y114597D01*
X103104Y114537D01*
X103134Y114525D01*
X103160Y114506D01*
X103247Y114479D01*
X103332Y114445D01*
X103373Y114441D01*
X103395Y114434D01*
X103427Y114435D01*
X103498Y114427D01*
X110714Y114427D01*
X110734Y114430D01*
X110753Y114428D01*
X110855Y114450D01*
X110957Y114466D01*
X110974Y114476D01*
X110994Y114480D01*
X111083Y114533D01*
X111174Y114582D01*
X111188Y114596D01*
X111205Y114606D01*
X111272Y114685D01*
X111344Y114760D01*
X111352Y114778D01*
X111365Y114793D01*
X111404Y114889D01*
X111447Y114983D01*
X111449Y115003D01*
X111457Y115021D01*
X111475Y115188D01*
X111475Y116272D01*
X112368Y117165D01*
X128632Y117165D01*
X129525Y116272D01*
X129525Y108008D01*
X128695Y107178D01*
X128683Y107162D01*
X128667Y107150D01*
X128611Y107062D01*
X128551Y106979D01*
X128545Y106960D01*
X128534Y106943D01*
X128509Y106842D01*
X128479Y106743D01*
X128479Y106724D01*
X128474Y106704D01*
X128482Y106601D01*
X128485Y106498D01*
X128492Y106479D01*
X128493Y106459D01*
X128534Y106364D01*
X128569Y106267D01*
X128582Y106251D01*
X128590Y106233D01*
X128695Y106102D01*
X129525Y105272D01*
X129525Y101021D01*
X129536Y100951D01*
X129538Y100879D01*
X129556Y100830D01*
X129564Y100779D01*
X129598Y100715D01*
X129623Y100648D01*
X129655Y100607D01*
X129680Y100561D01*
X129732Y100512D01*
X129776Y100456D01*
X129820Y100428D01*
X129858Y100392D01*
X129923Y100362D01*
X129983Y100323D01*
X130034Y100310D01*
X130081Y100288D01*
X130152Y100280D01*
X130222Y100263D01*
X130274Y100267D01*
X130325Y100261D01*
X130396Y100276D01*
X130467Y100282D01*
X130515Y100302D01*
X130566Y100313D01*
X130627Y100350D01*
X130693Y100378D01*
X130749Y100423D01*
X130777Y100440D01*
X130792Y100457D01*
X130824Y100483D01*
X133438Y103097D01*
X137696Y103097D01*
X137716Y103100D01*
X137735Y103098D01*
X137837Y103120D01*
X137939Y103136D01*
X137956Y103146D01*
X137976Y103150D01*
X138065Y103203D01*
X138156Y103252D01*
X138170Y103266D01*
X138187Y103276D01*
X138254Y103355D01*
X138326Y103430D01*
X138334Y103448D01*
X138347Y103463D01*
X138386Y103559D01*
X138429Y103653D01*
X138431Y103673D01*
X138439Y103691D01*
X138457Y103858D01*
X138457Y107354D01*
X141566Y110463D01*
X145962Y110463D01*
X146655Y109770D01*
X146671Y109759D01*
X146683Y109743D01*
X146771Y109687D01*
X146854Y109627D01*
X146873Y109621D01*
X146890Y109610D01*
X146991Y109585D01*
X147090Y109554D01*
X147109Y109555D01*
X147129Y109550D01*
X147232Y109558D01*
X147335Y109561D01*
X147354Y109567D01*
X147374Y109569D01*
X147469Y109609D01*
X147566Y109645D01*
X147582Y109658D01*
X147600Y109665D01*
X147731Y109770D01*
X150964Y113003D01*
X155360Y113003D01*
X158469Y109894D01*
X158469Y105429D01*
X158468Y105428D01*
X158458Y105411D01*
X158432Y105311D01*
X158402Y105212D01*
X158402Y105192D01*
X158398Y105173D01*
X158406Y105070D01*
X158408Y104966D01*
X158415Y104947D01*
X158417Y104928D01*
X158457Y104833D01*
X158493Y104735D01*
X158505Y104720D01*
X158513Y104701D01*
X158618Y104570D01*
X159149Y104040D01*
X159149Y104039D01*
X161009Y102180D01*
X161009Y86827D01*
X161023Y86737D01*
X161031Y86646D01*
X161043Y86616D01*
X161048Y86584D01*
X161091Y86504D01*
X161127Y86420D01*
X161153Y86387D01*
X161164Y86367D01*
X161187Y86345D01*
X161232Y86289D01*
X163952Y83568D01*
X163969Y83556D01*
X163981Y83541D01*
X164068Y83485D01*
X164152Y83424D01*
X164171Y83419D01*
X164188Y83408D01*
X164288Y83382D01*
X164387Y83352D01*
X164407Y83353D01*
X164426Y83348D01*
X164529Y83356D01*
X164633Y83358D01*
X164652Y83365D01*
X164672Y83367D01*
X164767Y83407D01*
X164864Y83443D01*
X164880Y83455D01*
X164898Y83463D01*
X165029Y83568D01*
X166126Y84665D01*
X169874Y84665D01*
X172525Y82014D01*
X172525Y78266D01*
X169874Y75615D01*
X166315Y75615D01*
X166244Y75604D01*
X166172Y75602D01*
X166123Y75584D01*
X166072Y75576D01*
X166009Y75542D01*
X165941Y75517D01*
X165901Y75485D01*
X165855Y75460D01*
X165805Y75408D01*
X165749Y75364D01*
X165721Y75320D01*
X165685Y75282D01*
X165655Y75217D01*
X165616Y75157D01*
X165604Y75106D01*
X165582Y75059D01*
X165574Y74988D01*
X165556Y74918D01*
X165560Y74866D01*
X165555Y74815D01*
X165570Y74744D01*
X165575Y74673D01*
X165596Y74625D01*
X165607Y74574D01*
X165644Y74513D01*
X165672Y74447D01*
X165717Y74391D01*
X165733Y74363D01*
X165751Y74348D01*
X165758Y74338D01*
X165759Y74337D01*
X165760Y74336D01*
X165777Y74316D01*
X167205Y72888D01*
X167279Y72835D01*
X167348Y72775D01*
X167378Y72763D01*
X167404Y72744D01*
X167492Y72717D01*
X167576Y72683D01*
X167617Y72679D01*
X167639Y72672D01*
X167672Y72673D01*
X167743Y72665D01*
X169874Y72665D01*
X172525Y70014D01*
X172525Y66266D01*
X169874Y63615D01*
X166315Y63615D01*
X166244Y63604D01*
X166172Y63602D01*
X166123Y63584D01*
X166072Y63576D01*
X166009Y63542D01*
X165941Y63517D01*
X165901Y63485D01*
X165855Y63460D01*
X165805Y63408D01*
X165749Y63364D01*
X165721Y63320D01*
X165685Y63282D01*
X165655Y63217D01*
X165616Y63157D01*
X165604Y63106D01*
X165582Y63059D01*
X165574Y62988D01*
X165556Y62918D01*
X165560Y62866D01*
X165555Y62815D01*
X165570Y62744D01*
X165575Y62673D01*
X165596Y62625D01*
X165607Y62574D01*
X165644Y62513D01*
X165672Y62447D01*
X165717Y62391D01*
X165733Y62363D01*
X165751Y62348D01*
X165777Y62316D01*
X167205Y60888D01*
X167279Y60835D01*
X167348Y60775D01*
X167378Y60763D01*
X167404Y60744D01*
X167492Y60717D01*
X167576Y60683D01*
X167617Y60679D01*
X167639Y60672D01*
X167672Y60673D01*
X167743Y60665D01*
X169874Y60665D01*
X172525Y58014D01*
X172525Y54266D01*
X169874Y51615D01*
X166315Y51615D01*
X166244Y51604D01*
X166172Y51602D01*
X166123Y51584D01*
X166072Y51576D01*
X166009Y51542D01*
X165941Y51517D01*
X165901Y51485D01*
X165855Y51460D01*
X165805Y51408D01*
X165749Y51364D01*
X165721Y51320D01*
X165685Y51282D01*
X165655Y51217D01*
X165616Y51157D01*
X165604Y51106D01*
X165582Y51059D01*
X165574Y50988D01*
X165556Y50918D01*
X165560Y50866D01*
X165555Y50815D01*
X165570Y50744D01*
X165575Y50673D01*
X165596Y50625D01*
X165607Y50574D01*
X165644Y50513D01*
X165672Y50447D01*
X165717Y50391D01*
X165733Y50363D01*
X165751Y50348D01*
X165777Y50316D01*
X167205Y48888D01*
X167279Y48835D01*
X167348Y48775D01*
X167378Y48763D01*
X167404Y48744D01*
X167492Y48717D01*
X167576Y48683D01*
X167617Y48679D01*
X167639Y48672D01*
X167672Y48673D01*
X167743Y48665D01*
X169874Y48665D01*
X172525Y46014D01*
X172525Y42266D01*
X169874Y39615D01*
X169121Y39615D01*
X169050Y39604D01*
X168978Y39602D01*
X168929Y39584D01*
X168878Y39576D01*
X168815Y39542D01*
X168747Y39517D01*
X168707Y39485D01*
X168661Y39460D01*
X168611Y39408D01*
X168555Y39364D01*
X168527Y39320D01*
X168491Y39282D01*
X168461Y39217D01*
X168422Y39157D01*
X168410Y39106D01*
X168388Y39059D01*
X168380Y38988D01*
X168362Y38918D01*
X168366Y38866D01*
X168361Y38815D01*
X168376Y38744D01*
X168381Y38673D01*
X168402Y38625D01*
X168413Y38574D01*
X168450Y38513D01*
X168478Y38447D01*
X168523Y38391D01*
X168539Y38363D01*
X168557Y38348D01*
X168583Y38316D01*
X186355Y20544D01*
X186429Y20491D01*
X186498Y20431D01*
X186528Y20419D01*
X186554Y20400D01*
X186641Y20373D01*
X186726Y20339D01*
X186767Y20335D01*
X186789Y20328D01*
X186822Y20329D01*
X186893Y20321D01*
X194276Y20321D01*
X194347Y20332D01*
G37*
G36*
X280643Y-17514D02*
X280643Y-17514D01*
X280715Y-17512D01*
X280764Y-17494D01*
X280815Y-17486D01*
X280878Y-17452D01*
X280946Y-17427D01*
X280986Y-17395D01*
X281032Y-17370D01*
X281082Y-17319D01*
X281138Y-17274D01*
X281166Y-17230D01*
X281202Y-17192D01*
X281232Y-17127D01*
X281271Y-17067D01*
X281283Y-17016D01*
X281305Y-16969D01*
X281313Y-16898D01*
X281331Y-16828D01*
X281327Y-16776D01*
X281333Y-16725D01*
X281317Y-16654D01*
X281312Y-16583D01*
X281291Y-16535D01*
X281280Y-16484D01*
X281243Y-16423D01*
X281215Y-16357D01*
X281171Y-16301D01*
X281154Y-16273D01*
X281136Y-16258D01*
X281111Y-16226D01*
X279653Y-14768D01*
X279653Y2286D01*
X279650Y2306D01*
X279652Y2325D01*
X279630Y2427D01*
X279614Y2529D01*
X279604Y2546D01*
X279600Y2566D01*
X279547Y2655D01*
X279498Y2746D01*
X279484Y2760D01*
X279474Y2777D01*
X279395Y2844D01*
X279320Y2916D01*
X279302Y2924D01*
X279287Y2937D01*
X279191Y2976D01*
X279097Y3019D01*
X279077Y3021D01*
X279059Y3029D01*
X278892Y3047D01*
X277078Y3047D01*
X273745Y6380D01*
X273239Y6886D01*
X273223Y6898D01*
X273210Y6913D01*
X273123Y6969D01*
X273039Y7030D01*
X273020Y7035D01*
X273003Y7046D01*
X272903Y7071D01*
X272804Y7102D01*
X272784Y7101D01*
X272765Y7106D01*
X272662Y7098D01*
X272558Y7096D01*
X272539Y7089D01*
X272520Y7087D01*
X272425Y7047D01*
X272327Y7011D01*
X272312Y6999D01*
X272293Y6991D01*
X272162Y6886D01*
X271070Y5793D01*
X260920Y5793D01*
X260900Y5790D01*
X260881Y5792D01*
X260779Y5770D01*
X260677Y5754D01*
X260660Y5744D01*
X260640Y5740D01*
X260551Y5687D01*
X260460Y5638D01*
X260446Y5624D01*
X260429Y5614D01*
X260362Y5535D01*
X260290Y5460D01*
X260282Y5442D01*
X260269Y5427D01*
X260230Y5331D01*
X260187Y5237D01*
X260185Y5217D01*
X260177Y5199D01*
X260159Y5032D01*
X260159Y4598D01*
X260178Y4481D01*
X260196Y4363D01*
X260198Y4359D01*
X260198Y4355D01*
X260253Y4251D01*
X260309Y4144D01*
X260312Y4141D01*
X260314Y4138D01*
X260399Y4056D01*
X260485Y3973D01*
X260489Y3971D01*
X260492Y3968D01*
X260600Y3918D01*
X260707Y3867D01*
X260711Y3866D01*
X260715Y3865D01*
X260832Y3851D01*
X260951Y3837D01*
X260956Y3838D01*
X260959Y3837D01*
X260973Y3840D01*
X261093Y3859D01*
X264415Y3859D01*
X264415Y-659D01*
X260081Y-659D01*
X259991Y-674D01*
X259900Y-681D01*
X259870Y-693D01*
X259838Y-699D01*
X259757Y-741D01*
X259673Y-777D01*
X259641Y-803D01*
X259621Y-814D01*
X259599Y-837D01*
X259542Y-882D01*
X259266Y-1159D01*
X251002Y-1159D01*
X250109Y-266D01*
X250109Y13489D01*
X250095Y13579D01*
X250087Y13670D01*
X250075Y13700D01*
X250070Y13732D01*
X250027Y13812D01*
X249991Y13896D01*
X249965Y13928D01*
X249954Y13949D01*
X249931Y13971D01*
X249886Y14027D01*
X249405Y14508D01*
X249331Y14561D01*
X249262Y14621D01*
X249232Y14633D01*
X249206Y14652D01*
X249119Y14679D01*
X249034Y14713D01*
X248993Y14717D01*
X248971Y14724D01*
X248938Y14723D01*
X248867Y14731D01*
X243920Y14731D01*
X243900Y14728D01*
X243881Y14730D01*
X243779Y14708D01*
X243677Y14692D01*
X243660Y14682D01*
X243640Y14678D01*
X243551Y14625D01*
X243460Y14576D01*
X243446Y14562D01*
X243429Y14552D01*
X243362Y14473D01*
X243290Y14398D01*
X243282Y14380D01*
X243269Y14365D01*
X243230Y14269D01*
X243187Y14175D01*
X243185Y14155D01*
X243177Y14137D01*
X243159Y13970D01*
X243159Y-266D01*
X242266Y-1159D01*
X234002Y-1159D01*
X233109Y-266D01*
X233109Y3810D01*
X233106Y3830D01*
X233108Y3849D01*
X233086Y3951D01*
X233070Y4053D01*
X233060Y4070D01*
X233056Y4090D01*
X233003Y4179D01*
X232954Y4270D01*
X232940Y4284D01*
X232930Y4301D01*
X232851Y4368D01*
X232776Y4440D01*
X232758Y4448D01*
X232743Y4461D01*
X232647Y4500D01*
X232553Y4543D01*
X232533Y4545D01*
X232515Y4553D01*
X232348Y4571D01*
X230626Y4571D01*
X228169Y7028D01*
X228153Y7040D01*
X228141Y7056D01*
X228053Y7112D01*
X227969Y7172D01*
X227951Y7178D01*
X227934Y7189D01*
X227833Y7214D01*
X227734Y7244D01*
X227714Y7244D01*
X227695Y7249D01*
X227592Y7241D01*
X227489Y7238D01*
X227470Y7231D01*
X227450Y7230D01*
X227355Y7189D01*
X227258Y7153D01*
X227242Y7141D01*
X227224Y7133D01*
X227093Y7028D01*
X226112Y6047D01*
X215848Y6047D01*
X214955Y6940D01*
X214955Y7516D01*
X214952Y7536D01*
X214954Y7555D01*
X214932Y7657D01*
X214916Y7759D01*
X214906Y7776D01*
X214902Y7796D01*
X214849Y7885D01*
X214800Y7976D01*
X214786Y7990D01*
X214776Y8007D01*
X214697Y8074D01*
X214622Y8146D01*
X214604Y8154D01*
X214589Y8167D01*
X214493Y8206D01*
X214399Y8249D01*
X214379Y8251D01*
X214361Y8259D01*
X214194Y8277D01*
X212598Y8277D01*
X212578Y8274D01*
X212559Y8276D01*
X212457Y8254D01*
X212355Y8238D01*
X212338Y8228D01*
X212318Y8224D01*
X212229Y8171D01*
X212138Y8122D01*
X212124Y8108D01*
X212107Y8098D01*
X212040Y8019D01*
X211969Y7944D01*
X211960Y7926D01*
X211947Y7911D01*
X211908Y7815D01*
X211865Y7721D01*
X211863Y7701D01*
X211855Y7683D01*
X211837Y7516D01*
X211837Y-16764D01*
X211840Y-16784D01*
X211838Y-16803D01*
X211860Y-16905D01*
X211877Y-17007D01*
X211886Y-17024D01*
X211890Y-17044D01*
X211943Y-17133D01*
X211992Y-17224D01*
X212006Y-17238D01*
X212016Y-17255D01*
X212095Y-17322D01*
X212170Y-17394D01*
X212188Y-17402D01*
X212203Y-17415D01*
X212299Y-17454D01*
X212393Y-17497D01*
X212413Y-17499D01*
X212431Y-17507D01*
X212598Y-17525D01*
X280572Y-17525D01*
X280643Y-17514D01*
G37*
G36*
X286984Y37119D02*
X286984Y37119D01*
X287088Y37121D01*
X287107Y37128D01*
X287127Y37130D01*
X287221Y37170D01*
X287319Y37206D01*
X287335Y37218D01*
X287353Y37226D01*
X287484Y37331D01*
X292561Y42408D01*
X292572Y42424D01*
X292588Y42437D01*
X292644Y42524D01*
X292704Y42608D01*
X292710Y42627D01*
X292721Y42643D01*
X292746Y42744D01*
X292777Y42843D01*
X292776Y42863D01*
X292781Y42882D01*
X292773Y42985D01*
X292770Y43089D01*
X292763Y43107D01*
X292762Y43127D01*
X292722Y43222D01*
X292686Y43320D01*
X292673Y43335D01*
X292666Y43354D01*
X292561Y43485D01*
X291845Y44200D01*
X291845Y52828D01*
X297946Y58929D01*
X306574Y58929D01*
X310358Y55145D01*
X310416Y55103D01*
X310468Y55054D01*
X310515Y55032D01*
X310557Y55001D01*
X310626Y54980D01*
X310691Y54950D01*
X310743Y54944D01*
X310793Y54929D01*
X310864Y54931D01*
X310935Y54923D01*
X310986Y54934D01*
X311038Y54935D01*
X311106Y54960D01*
X311176Y54975D01*
X311221Y55002D01*
X311269Y55020D01*
X311325Y55065D01*
X311387Y55101D01*
X311421Y55141D01*
X311461Y55174D01*
X311500Y55234D01*
X311547Y55288D01*
X311566Y55337D01*
X311594Y55380D01*
X311612Y55450D01*
X311639Y55516D01*
X311647Y55588D01*
X311655Y55619D01*
X311653Y55642D01*
X311657Y55683D01*
X311657Y65308D01*
X311646Y65379D01*
X311644Y65450D01*
X311626Y65499D01*
X311618Y65551D01*
X311584Y65614D01*
X311559Y65681D01*
X311527Y65722D01*
X311502Y65768D01*
X311450Y65817D01*
X311406Y65873D01*
X311362Y65902D01*
X311324Y65937D01*
X311259Y65968D01*
X311199Y66006D01*
X311148Y66019D01*
X311101Y66041D01*
X311030Y66049D01*
X310960Y66067D01*
X310908Y66062D01*
X310857Y66068D01*
X310786Y66053D01*
X310715Y66047D01*
X310667Y66027D01*
X310616Y66016D01*
X310555Y65979D01*
X310489Y65951D01*
X310433Y65906D01*
X310405Y65890D01*
X310390Y65872D01*
X310358Y65846D01*
X306995Y62483D01*
X303783Y62483D01*
X303783Y73152D01*
X303780Y73172D01*
X303782Y73191D01*
X303760Y73293D01*
X303743Y73395D01*
X303734Y73412D01*
X303730Y73432D01*
X303677Y73521D01*
X303628Y73612D01*
X303614Y73626D01*
X303604Y73643D01*
X303525Y73710D01*
X303450Y73781D01*
X303432Y73790D01*
X303417Y73803D01*
X303321Y73841D01*
X303227Y73885D01*
X303207Y73887D01*
X303189Y73895D01*
X303022Y73913D01*
X301498Y73913D01*
X301478Y73910D01*
X301459Y73912D01*
X301357Y73890D01*
X301255Y73873D01*
X301238Y73864D01*
X301218Y73860D01*
X301129Y73807D01*
X301038Y73758D01*
X301024Y73744D01*
X301007Y73734D01*
X300940Y73655D01*
X300869Y73580D01*
X300860Y73562D01*
X300847Y73547D01*
X300808Y73451D01*
X300765Y73357D01*
X300763Y73337D01*
X300755Y73319D01*
X300737Y73152D01*
X300737Y62483D01*
X297525Y62483D01*
X290829Y69179D01*
X290829Y70874D01*
X290818Y70944D01*
X290816Y71016D01*
X290798Y71065D01*
X290790Y71116D01*
X290756Y71180D01*
X290731Y71247D01*
X290699Y71288D01*
X290674Y71334D01*
X290622Y71383D01*
X290578Y71439D01*
X290534Y71467D01*
X290496Y71503D01*
X290431Y71533D01*
X290371Y71572D01*
X290320Y71585D01*
X290273Y71607D01*
X290202Y71615D01*
X290132Y71632D01*
X290080Y71628D01*
X290029Y71634D01*
X289958Y71619D01*
X289887Y71613D01*
X289839Y71593D01*
X289788Y71582D01*
X289727Y71545D01*
X289661Y71517D01*
X289605Y71472D01*
X289577Y71455D01*
X289562Y71438D01*
X289530Y71412D01*
X272971Y54853D01*
X270286Y54853D01*
X270266Y54850D01*
X270247Y54852D01*
X270145Y54830D01*
X270043Y54814D01*
X270026Y54804D01*
X270006Y54800D01*
X269917Y54747D01*
X269826Y54698D01*
X269812Y54684D01*
X269795Y54674D01*
X269728Y54595D01*
X269656Y54520D01*
X269648Y54502D01*
X269635Y54487D01*
X269596Y54391D01*
X269553Y54297D01*
X269551Y54277D01*
X269543Y54259D01*
X269525Y54092D01*
X269525Y53008D01*
X269393Y52876D01*
X269324Y52781D01*
X269253Y52684D01*
X269251Y52680D01*
X269249Y52677D01*
X269214Y52563D01*
X269178Y52450D01*
X269178Y52445D01*
X269177Y52442D01*
X269180Y52322D01*
X269182Y52204D01*
X269183Y52200D01*
X269183Y52196D01*
X269224Y52085D01*
X269263Y51972D01*
X269266Y51969D01*
X269267Y51965D01*
X269342Y51872D01*
X269415Y51778D01*
X269419Y51775D01*
X269421Y51773D01*
X269433Y51765D01*
X269550Y51679D01*
X269560Y51673D01*
X270033Y51200D01*
X270368Y50621D01*
X270541Y49974D01*
X270541Y47663D01*
X261262Y47663D01*
X261242Y47660D01*
X261223Y47662D01*
X261121Y47640D01*
X261019Y47623D01*
X261002Y47614D01*
X260982Y47610D01*
X260893Y47557D01*
X260802Y47508D01*
X260788Y47494D01*
X260771Y47484D01*
X260704Y47405D01*
X260633Y47330D01*
X260624Y47312D01*
X260611Y47297D01*
X260572Y47201D01*
X260529Y47107D01*
X260527Y47087D01*
X260519Y47069D01*
X260501Y46902D01*
X260501Y45378D01*
X260504Y45358D01*
X260502Y45339D01*
X260524Y45237D01*
X260541Y45135D01*
X260550Y45118D01*
X260554Y45098D01*
X260607Y45009D01*
X260656Y44918D01*
X260670Y44904D01*
X260680Y44887D01*
X260759Y44820D01*
X260834Y44749D01*
X260852Y44740D01*
X260867Y44727D01*
X260963Y44688D01*
X261057Y44645D01*
X261077Y44643D01*
X261095Y44635D01*
X261262Y44617D01*
X270541Y44617D01*
X270541Y42305D01*
X270368Y41659D01*
X270033Y41080D01*
X269560Y40607D01*
X269550Y40601D01*
X269459Y40526D01*
X269365Y40452D01*
X269363Y40448D01*
X269360Y40445D01*
X269297Y40346D01*
X269232Y40245D01*
X269231Y40241D01*
X269229Y40237D01*
X269201Y40122D01*
X269172Y40006D01*
X269173Y40002D01*
X269172Y39998D01*
X269182Y39879D01*
X269191Y39761D01*
X269193Y39757D01*
X269193Y39753D01*
X269241Y39645D01*
X269288Y39535D01*
X269291Y39531D01*
X269292Y39528D01*
X269301Y39518D01*
X269393Y39404D01*
X269525Y39272D01*
X269525Y38696D01*
X269528Y38676D01*
X269526Y38657D01*
X269548Y38555D01*
X269564Y38453D01*
X269574Y38436D01*
X269578Y38416D01*
X269631Y38327D01*
X269680Y38236D01*
X269694Y38222D01*
X269704Y38205D01*
X269783Y38138D01*
X269858Y38066D01*
X269876Y38058D01*
X269891Y38045D01*
X269987Y38006D01*
X270081Y37963D01*
X270101Y37961D01*
X270119Y37953D01*
X270286Y37935D01*
X285804Y37935D01*
X286407Y37331D01*
X286423Y37319D01*
X286436Y37304D01*
X286523Y37248D01*
X286607Y37187D01*
X286626Y37182D01*
X286643Y37171D01*
X286743Y37146D01*
X286842Y37115D01*
X286862Y37116D01*
X286881Y37111D01*
X286984Y37119D01*
G37*
%LPC*%
G36*
X72524Y-217079D02*
X72524Y-217079D01*
X71631Y-216186D01*
X71631Y-198922D01*
X72524Y-198029D01*
X107788Y-198029D01*
X108681Y-198922D01*
X108681Y-216186D01*
X107788Y-217079D01*
X72524Y-217079D01*
G37*
%LPD*%
G36*
X260176Y-216393D02*
X260176Y-216393D01*
X260266Y-216385D01*
X260296Y-216373D01*
X260328Y-216368D01*
X260409Y-216325D01*
X260493Y-216289D01*
X260525Y-216263D01*
X260546Y-216252D01*
X260568Y-216229D01*
X260624Y-216184D01*
X262412Y-214396D01*
X262465Y-214322D01*
X262525Y-214252D01*
X262537Y-214222D01*
X262556Y-214196D01*
X262583Y-214109D01*
X262617Y-214024D01*
X262621Y-213983D01*
X262628Y-213961D01*
X262627Y-213929D01*
X262635Y-213857D01*
X262635Y-197368D01*
X262621Y-197278D01*
X262613Y-197187D01*
X262601Y-197157D01*
X262596Y-197125D01*
X262553Y-197045D01*
X262517Y-196961D01*
X262491Y-196929D01*
X262480Y-196908D01*
X262457Y-196886D01*
X262412Y-196830D01*
X259204Y-193622D01*
X259146Y-193580D01*
X259094Y-193531D01*
X259047Y-193509D01*
X259005Y-193478D01*
X258936Y-193457D01*
X258871Y-193427D01*
X258819Y-193421D01*
X258769Y-193406D01*
X258698Y-193408D01*
X258627Y-193400D01*
X258576Y-193411D01*
X258524Y-193412D01*
X258456Y-193437D01*
X258386Y-193452D01*
X258341Y-193479D01*
X258293Y-193497D01*
X258237Y-193542D01*
X258175Y-193578D01*
X258141Y-193618D01*
X258101Y-193650D01*
X258062Y-193711D01*
X258015Y-193765D01*
X257996Y-193814D01*
X257968Y-193857D01*
X257950Y-193927D01*
X257923Y-193993D01*
X257916Y-194057D01*
X253387Y-194057D01*
X253387Y-188539D01*
X253676Y-188539D01*
X253696Y-188536D01*
X253715Y-188538D01*
X253817Y-188516D01*
X253919Y-188500D01*
X253936Y-188490D01*
X253956Y-188486D01*
X254045Y-188433D01*
X254136Y-188384D01*
X254150Y-188370D01*
X254167Y-188360D01*
X254234Y-188281D01*
X254306Y-188206D01*
X254314Y-188188D01*
X254327Y-188173D01*
X254366Y-188077D01*
X254409Y-187983D01*
X254411Y-187963D01*
X254419Y-187945D01*
X254437Y-187778D01*
X254437Y-186329D01*
X254722Y-186044D01*
X254766Y-185983D01*
X254800Y-185948D01*
X254806Y-185935D01*
X254835Y-185901D01*
X254847Y-185871D01*
X254866Y-185844D01*
X254893Y-185757D01*
X254927Y-185673D01*
X254931Y-185632D01*
X254938Y-185609D01*
X254937Y-185577D01*
X254945Y-185506D01*
X254945Y-184750D01*
X254943Y-184734D01*
X254944Y-184719D01*
X254944Y-184716D01*
X254944Y-184711D01*
X254922Y-184609D01*
X254906Y-184507D01*
X254896Y-184490D01*
X254892Y-184470D01*
X254839Y-184381D01*
X254790Y-184290D01*
X254776Y-184276D01*
X254766Y-184259D01*
X254687Y-184192D01*
X254612Y-184120D01*
X254594Y-184112D01*
X254579Y-184099D01*
X254483Y-184060D01*
X254452Y-184046D01*
X253501Y-183096D01*
X253501Y-175778D01*
X253506Y-175771D01*
X253512Y-175752D01*
X253523Y-175735D01*
X253549Y-175635D01*
X253579Y-175536D01*
X253578Y-175516D01*
X253583Y-175497D01*
X253575Y-175394D01*
X253573Y-175290D01*
X253566Y-175271D01*
X253564Y-175251D01*
X253524Y-175157D01*
X253488Y-175059D01*
X253476Y-175043D01*
X253468Y-175025D01*
X253363Y-174894D01*
X253096Y-174627D01*
X253080Y-174615D01*
X253067Y-174600D01*
X252980Y-174544D01*
X252896Y-174483D01*
X252877Y-174478D01*
X252860Y-174467D01*
X252759Y-174441D01*
X252661Y-174411D01*
X252641Y-174412D01*
X252622Y-174407D01*
X252519Y-174415D01*
X252415Y-174417D01*
X252396Y-174424D01*
X252376Y-174426D01*
X252282Y-174466D01*
X252220Y-174489D01*
X250903Y-174489D01*
X250812Y-174503D01*
X250722Y-174511D01*
X250692Y-174523D01*
X250660Y-174528D01*
X250579Y-174571D01*
X250495Y-174607D01*
X250463Y-174633D01*
X250442Y-174644D01*
X250420Y-174667D01*
X250364Y-174712D01*
X242644Y-182432D01*
X242591Y-182506D01*
X242531Y-182576D01*
X242519Y-182606D01*
X242500Y-182632D01*
X242473Y-182719D01*
X242439Y-182804D01*
X242435Y-182845D01*
X242428Y-182867D01*
X242429Y-182899D01*
X242421Y-182971D01*
X242421Y-188794D01*
X242424Y-188814D01*
X242422Y-188833D01*
X242444Y-188935D01*
X242460Y-189037D01*
X242470Y-189054D01*
X242474Y-189074D01*
X242527Y-189163D01*
X242576Y-189254D01*
X242590Y-189268D01*
X242600Y-189285D01*
X242679Y-189352D01*
X242754Y-189424D01*
X242772Y-189432D01*
X242787Y-189445D01*
X242883Y-189484D01*
X242959Y-189519D01*
X243889Y-190448D01*
X243889Y-200712D01*
X243590Y-201011D01*
X243578Y-201027D01*
X243562Y-201039D01*
X243506Y-201127D01*
X243446Y-201210D01*
X243440Y-201229D01*
X243429Y-201246D01*
X243404Y-201347D01*
X243374Y-201446D01*
X243374Y-201465D01*
X243369Y-201485D01*
X243377Y-201588D01*
X243380Y-201691D01*
X243387Y-201710D01*
X243388Y-201730D01*
X243429Y-201825D01*
X243464Y-201922D01*
X243477Y-201938D01*
X243485Y-201956D01*
X243590Y-202087D01*
X244143Y-202640D01*
X244143Y-212904D01*
X243213Y-213833D01*
X243193Y-213836D01*
X243176Y-213846D01*
X243156Y-213850D01*
X243067Y-213903D01*
X242976Y-213952D01*
X242962Y-213966D01*
X242945Y-213976D01*
X242878Y-214055D01*
X242806Y-214130D01*
X242798Y-214148D01*
X242785Y-214163D01*
X242746Y-214259D01*
X242703Y-214353D01*
X242701Y-214373D01*
X242693Y-214391D01*
X242675Y-214558D01*
X242675Y-215646D01*
X242678Y-215666D01*
X242676Y-215685D01*
X242698Y-215787D01*
X242714Y-215889D01*
X242724Y-215906D01*
X242728Y-215926D01*
X242781Y-216015D01*
X242830Y-216106D01*
X242844Y-216120D01*
X242854Y-216137D01*
X242933Y-216204D01*
X243008Y-216276D01*
X243026Y-216284D01*
X243041Y-216297D01*
X243137Y-216336D01*
X243231Y-216379D01*
X243251Y-216381D01*
X243269Y-216389D01*
X243436Y-216407D01*
X260085Y-216407D01*
X260176Y-216393D01*
G37*
G36*
X304756Y-78808D02*
X304756Y-78808D01*
X304775Y-78810D01*
X304877Y-78788D01*
X304979Y-78772D01*
X304996Y-78762D01*
X305016Y-78758D01*
X305105Y-78705D01*
X305196Y-78656D01*
X305210Y-78642D01*
X305227Y-78632D01*
X305294Y-78553D01*
X305366Y-78478D01*
X305374Y-78460D01*
X305387Y-78445D01*
X305426Y-78349D01*
X305469Y-78255D01*
X305471Y-78235D01*
X305479Y-78217D01*
X305497Y-78050D01*
X305497Y-32611D01*
X305494Y-32591D01*
X305496Y-32572D01*
X305474Y-32470D01*
X305458Y-32368D01*
X305448Y-32351D01*
X305444Y-32331D01*
X305391Y-32242D01*
X305342Y-32151D01*
X305328Y-32137D01*
X305318Y-32120D01*
X305239Y-32053D01*
X305164Y-31981D01*
X305146Y-31973D01*
X305131Y-31960D01*
X305035Y-31921D01*
X304941Y-31878D01*
X304921Y-31876D01*
X304903Y-31868D01*
X304736Y-31850D01*
X302447Y-31850D01*
X299338Y-28741D01*
X299338Y-25145D01*
X299324Y-25055D01*
X299316Y-24964D01*
X299304Y-24934D01*
X299299Y-24902D01*
X299256Y-24822D01*
X299220Y-24737D01*
X299194Y-24705D01*
X299183Y-24685D01*
X299160Y-24662D01*
X299115Y-24606D01*
X297972Y-23463D01*
X297914Y-23422D01*
X297862Y-23372D01*
X297815Y-23350D01*
X297773Y-23320D01*
X297704Y-23299D01*
X297639Y-23269D01*
X297587Y-23263D01*
X297537Y-23247D01*
X297466Y-23249D01*
X297395Y-23241D01*
X297344Y-23253D01*
X297292Y-23254D01*
X297224Y-23278D01*
X297154Y-23294D01*
X297109Y-23320D01*
X297061Y-23338D01*
X297005Y-23383D01*
X296943Y-23420D01*
X296909Y-23459D01*
X296869Y-23492D01*
X296830Y-23552D01*
X296783Y-23607D01*
X296764Y-23655D01*
X296736Y-23699D01*
X296718Y-23768D01*
X296691Y-23835D01*
X296683Y-23906D01*
X296675Y-23937D01*
X296677Y-23961D01*
X296673Y-24002D01*
X296673Y-78050D01*
X296676Y-78070D01*
X296674Y-78089D01*
X296696Y-78191D01*
X296712Y-78293D01*
X296722Y-78310D01*
X296726Y-78330D01*
X296779Y-78419D01*
X296828Y-78510D01*
X296842Y-78524D01*
X296852Y-78541D01*
X296931Y-78608D01*
X297006Y-78680D01*
X297024Y-78688D01*
X297039Y-78701D01*
X297135Y-78740D01*
X297229Y-78783D01*
X297249Y-78785D01*
X297267Y-78793D01*
X297434Y-78811D01*
X304736Y-78811D01*
X304756Y-78808D01*
G37*
G36*
X209375Y-235146D02*
X209375Y-235146D01*
X209447Y-235144D01*
X209496Y-235126D01*
X209547Y-235118D01*
X209611Y-235084D01*
X209678Y-235059D01*
X209719Y-235027D01*
X209765Y-235002D01*
X209814Y-234950D01*
X209870Y-234906D01*
X209898Y-234862D01*
X209934Y-234824D01*
X209964Y-234759D01*
X210003Y-234699D01*
X210016Y-234648D01*
X210038Y-234601D01*
X210046Y-234530D01*
X210063Y-234460D01*
X210059Y-234408D01*
X210065Y-234357D01*
X210050Y-234286D01*
X210044Y-234215D01*
X210024Y-234167D01*
X210013Y-234116D01*
X209976Y-234055D01*
X209948Y-233989D01*
X209903Y-233933D01*
X209886Y-233905D01*
X209869Y-233890D01*
X209843Y-233858D01*
X209577Y-233592D01*
X209577Y-229196D01*
X211866Y-226907D01*
X211919Y-226833D01*
X211979Y-226763D01*
X211991Y-226733D01*
X212010Y-226707D01*
X212037Y-226620D01*
X212071Y-226535D01*
X212075Y-226494D01*
X212082Y-226472D01*
X212081Y-226440D01*
X212089Y-226369D01*
X212089Y-223360D01*
X212086Y-223340D01*
X212088Y-223321D01*
X212066Y-223219D01*
X212050Y-223117D01*
X212040Y-223100D01*
X212036Y-223080D01*
X211983Y-222991D01*
X211934Y-222900D01*
X211920Y-222886D01*
X211910Y-222869D01*
X211831Y-222802D01*
X211756Y-222730D01*
X211738Y-222722D01*
X211723Y-222709D01*
X211627Y-222670D01*
X211533Y-222627D01*
X211513Y-222625D01*
X211495Y-222617D01*
X211328Y-222599D01*
X208025Y-222599D01*
X208025Y-217320D01*
X208022Y-217300D01*
X208024Y-217281D01*
X208002Y-217179D01*
X207985Y-217077D01*
X207976Y-217060D01*
X207972Y-217040D01*
X207919Y-216951D01*
X207870Y-216860D01*
X207856Y-216846D01*
X207846Y-216829D01*
X207767Y-216762D01*
X207692Y-216691D01*
X207674Y-216682D01*
X207659Y-216669D01*
X207563Y-216630D01*
X207469Y-216587D01*
X207449Y-216585D01*
X207431Y-216577D01*
X207264Y-216559D01*
X206501Y-216559D01*
X206501Y-216557D01*
X207264Y-216557D01*
X207284Y-216554D01*
X207303Y-216556D01*
X207405Y-216534D01*
X207507Y-216517D01*
X207524Y-216508D01*
X207544Y-216504D01*
X207633Y-216451D01*
X207724Y-216402D01*
X207738Y-216388D01*
X207755Y-216378D01*
X207822Y-216299D01*
X207893Y-216224D01*
X207902Y-216206D01*
X207915Y-216191D01*
X207954Y-216095D01*
X207997Y-216001D01*
X207999Y-215981D01*
X208007Y-215963D01*
X208025Y-215796D01*
X208025Y-210517D01*
X211336Y-210517D01*
X212001Y-210695D01*
X212003Y-210696D01*
X212030Y-210703D01*
X212079Y-210716D01*
X212082Y-210717D01*
X212154Y-210744D01*
X212198Y-210745D01*
X212241Y-210756D01*
X212320Y-210750D01*
X212400Y-210753D01*
X212442Y-210741D01*
X212486Y-210737D01*
X212560Y-210706D01*
X212636Y-210683D01*
X212672Y-210658D01*
X212713Y-210641D01*
X212825Y-210551D01*
X212837Y-210542D01*
X212839Y-210539D01*
X212844Y-210536D01*
X213949Y-209430D01*
X217272Y-206107D01*
X217325Y-206033D01*
X217385Y-205964D01*
X217397Y-205934D01*
X217416Y-205908D01*
X217443Y-205821D01*
X217477Y-205736D01*
X217481Y-205695D01*
X217488Y-205673D01*
X217487Y-205640D01*
X217495Y-205569D01*
X217495Y-199680D01*
X217578Y-199597D01*
X217590Y-199581D01*
X217606Y-199569D01*
X217662Y-199482D01*
X217722Y-199398D01*
X217728Y-199379D01*
X217739Y-199362D01*
X217764Y-199262D01*
X217794Y-199163D01*
X217794Y-199143D01*
X217799Y-199123D01*
X217791Y-199020D01*
X217788Y-198917D01*
X217781Y-198898D01*
X217780Y-198878D01*
X217739Y-198783D01*
X217703Y-198686D01*
X217691Y-198670D01*
X217683Y-198652D01*
X217578Y-198521D01*
X213210Y-194153D01*
X213136Y-194100D01*
X213067Y-194040D01*
X213037Y-194028D01*
X213011Y-194009D01*
X212924Y-193982D01*
X212839Y-193948D01*
X212798Y-193944D01*
X212776Y-193937D01*
X212743Y-193938D01*
X212672Y-193930D01*
X209067Y-193930D01*
X209014Y-193892D01*
X208962Y-193842D01*
X208915Y-193820D01*
X208873Y-193790D01*
X208804Y-193769D01*
X208739Y-193739D01*
X208687Y-193733D01*
X208638Y-193718D01*
X208566Y-193720D01*
X208495Y-193712D01*
X208444Y-193723D01*
X208392Y-193724D01*
X208324Y-193749D01*
X208254Y-193764D01*
X208209Y-193791D01*
X208161Y-193808D01*
X208105Y-193853D01*
X208043Y-193890D01*
X208009Y-193930D01*
X207969Y-193962D01*
X207930Y-194022D01*
X207883Y-194077D01*
X207864Y-194125D01*
X207836Y-194169D01*
X207818Y-194238D01*
X207791Y-194305D01*
X207783Y-194376D01*
X207775Y-194408D01*
X207777Y-194431D01*
X207773Y-194472D01*
X207773Y-197772D01*
X207776Y-197792D01*
X207774Y-197811D01*
X207796Y-197913D01*
X207812Y-198015D01*
X207822Y-198032D01*
X207826Y-198052D01*
X207879Y-198141D01*
X207928Y-198232D01*
X207942Y-198246D01*
X207952Y-198263D01*
X208031Y-198330D01*
X208106Y-198402D01*
X208124Y-198410D01*
X208139Y-198423D01*
X208235Y-198462D01*
X208329Y-198505D01*
X208349Y-198507D01*
X208367Y-198515D01*
X208534Y-198533D01*
X211634Y-198533D01*
X212527Y-199426D01*
X212527Y-207690D01*
X211634Y-208583D01*
X201354Y-208583D01*
X201308Y-208539D01*
X201261Y-208517D01*
X201219Y-208487D01*
X201150Y-208466D01*
X201085Y-208436D01*
X201033Y-208430D01*
X200984Y-208415D01*
X200912Y-208417D01*
X200841Y-208409D01*
X200790Y-208420D01*
X200738Y-208421D01*
X200670Y-208446D01*
X200600Y-208461D01*
X200555Y-208488D01*
X200507Y-208505D01*
X200451Y-208550D01*
X200389Y-208587D01*
X200355Y-208627D01*
X200315Y-208659D01*
X200276Y-208719D01*
X200229Y-208774D01*
X200210Y-208822D01*
X200182Y-208866D01*
X200164Y-208936D01*
X200137Y-209002D01*
X200129Y-209073D01*
X200121Y-209105D01*
X200123Y-209128D01*
X200119Y-209169D01*
X200119Y-209940D01*
X200138Y-210057D01*
X200156Y-210175D01*
X200158Y-210179D01*
X200158Y-210183D01*
X200214Y-210287D01*
X200269Y-210394D01*
X200272Y-210397D01*
X200274Y-210400D01*
X200359Y-210482D01*
X200445Y-210565D01*
X200449Y-210567D01*
X200452Y-210570D01*
X200559Y-210620D01*
X200667Y-210671D01*
X200671Y-210672D01*
X200675Y-210673D01*
X200793Y-210686D01*
X200911Y-210701D01*
X200916Y-210700D01*
X200919Y-210700D01*
X200933Y-210697D01*
X201077Y-210676D01*
X201668Y-210517D01*
X204979Y-210517D01*
X204979Y-215035D01*
X199461Y-215035D01*
X199461Y-212724D01*
X199532Y-212461D01*
X199544Y-212342D01*
X199557Y-212225D01*
X199556Y-212220D01*
X199556Y-212216D01*
X199530Y-212101D01*
X199504Y-211984D01*
X199502Y-211981D01*
X199501Y-211977D01*
X199439Y-211875D01*
X199378Y-211773D01*
X199375Y-211770D01*
X199373Y-211767D01*
X199282Y-211691D01*
X199191Y-211613D01*
X199187Y-211612D01*
X199184Y-211609D01*
X199075Y-211566D01*
X198963Y-211521D01*
X198958Y-211521D01*
X198955Y-211519D01*
X198941Y-211519D01*
X198796Y-211503D01*
X195892Y-211503D01*
X195873Y-211506D01*
X195854Y-211504D01*
X195752Y-211526D01*
X195649Y-211542D01*
X195632Y-211551D01*
X195614Y-211555D01*
X195524Y-211609D01*
X195432Y-211658D01*
X195419Y-211671D01*
X195402Y-211681D01*
X195334Y-211760D01*
X195262Y-211836D01*
X195254Y-211853D01*
X195242Y-211867D01*
X195203Y-211964D01*
X195159Y-212059D01*
X195157Y-212078D01*
X195149Y-212095D01*
X195131Y-212262D01*
X195077Y-231639D01*
X195091Y-231730D01*
X195098Y-231822D01*
X195111Y-231851D01*
X195116Y-231882D01*
X195159Y-231964D01*
X195195Y-232049D01*
X195220Y-232080D01*
X195230Y-232100D01*
X195254Y-232122D01*
X195300Y-232180D01*
X198054Y-234934D01*
X198128Y-234987D01*
X198198Y-235047D01*
X198228Y-235059D01*
X198254Y-235078D01*
X198341Y-235105D01*
X198426Y-235139D01*
X198467Y-235143D01*
X198489Y-235150D01*
X198521Y-235149D01*
X198593Y-235157D01*
X209305Y-235157D01*
X209375Y-235146D01*
G37*
%LPC*%
G36*
X260379Y-258455D02*
X260379Y-258455D01*
X260379Y-249402D01*
X260376Y-249383D01*
X260378Y-249363D01*
X260356Y-249261D01*
X260340Y-249159D01*
X260339Y-249158D01*
X260351Y-249131D01*
X260353Y-249111D01*
X260361Y-249093D01*
X260379Y-248926D01*
X260379Y-239873D01*
X261714Y-239873D01*
X262361Y-240046D01*
X262940Y-240381D01*
X263413Y-240854D01*
X263647Y-241259D01*
X263690Y-241311D01*
X263724Y-241369D01*
X263767Y-241405D01*
X263802Y-241449D01*
X263860Y-241485D01*
X263911Y-241529D01*
X263963Y-241550D01*
X264011Y-241580D01*
X264076Y-241595D01*
X264139Y-241621D01*
X264218Y-241630D01*
X264250Y-241637D01*
X264271Y-241635D01*
X264306Y-241639D01*
X279012Y-241639D01*
X279905Y-242532D01*
X279905Y-245688D01*
X279906Y-245696D01*
X279906Y-245698D01*
X279908Y-245710D01*
X279909Y-245712D01*
X279909Y-252116D01*
X279905Y-252152D01*
X279905Y-255296D01*
X279012Y-256189D01*
X264521Y-256189D01*
X264478Y-256196D01*
X264434Y-256194D01*
X264357Y-256216D01*
X264278Y-256228D01*
X264239Y-256249D01*
X264197Y-256261D01*
X264131Y-256306D01*
X264061Y-256344D01*
X264031Y-256375D01*
X263994Y-256400D01*
X263946Y-256464D01*
X263891Y-256522D01*
X263873Y-256562D01*
X263847Y-256597D01*
X263794Y-256732D01*
X263788Y-256745D01*
X263787Y-256748D01*
X263786Y-256753D01*
X263748Y-256895D01*
X263413Y-257474D01*
X262940Y-257947D01*
X262361Y-258282D01*
X261714Y-258455D01*
X260379Y-258455D01*
G37*
%LPD*%
G36*
X294074Y-122572D02*
X294074Y-122572D01*
X294126Y-122571D01*
X294194Y-122546D01*
X294264Y-122531D01*
X294308Y-122504D01*
X294357Y-122486D01*
X294413Y-122442D01*
X294475Y-122405D01*
X294509Y-122365D01*
X294549Y-122333D01*
X294588Y-122272D01*
X294635Y-122218D01*
X294654Y-122170D01*
X294682Y-122126D01*
X294700Y-122056D01*
X294727Y-121990D01*
X294735Y-121918D01*
X294742Y-121887D01*
X294741Y-121864D01*
X294745Y-121823D01*
X294745Y-121422D01*
X296179Y-119988D01*
X296221Y-119930D01*
X296270Y-119878D01*
X296292Y-119831D01*
X296322Y-119789D01*
X296344Y-119720D01*
X296374Y-119655D01*
X296379Y-119603D01*
X296395Y-119553D01*
X296393Y-119482D01*
X296401Y-119411D01*
X296390Y-119360D01*
X296388Y-119308D01*
X296364Y-119240D01*
X296349Y-119170D01*
X296322Y-119125D01*
X296304Y-119077D01*
X296259Y-119021D01*
X296222Y-118959D01*
X296183Y-118925D01*
X296150Y-118885D01*
X296090Y-118846D01*
X296035Y-118799D01*
X295987Y-118780D01*
X295943Y-118752D01*
X295874Y-118734D01*
X295807Y-118707D01*
X295736Y-118699D01*
X295705Y-118691D01*
X295682Y-118693D01*
X295641Y-118689D01*
X295640Y-118689D01*
X294993Y-118516D01*
X294387Y-118165D01*
X294302Y-118133D01*
X294219Y-118094D01*
X294187Y-118090D01*
X294157Y-118078D01*
X294065Y-118075D01*
X293975Y-118064D01*
X293934Y-118070D01*
X293911Y-118069D01*
X293880Y-118079D01*
X293809Y-118089D01*
X293378Y-118205D01*
X290067Y-118205D01*
X290067Y-113687D01*
X292672Y-113687D01*
X292692Y-113684D01*
X292711Y-113686D01*
X292780Y-113671D01*
X299212Y-113671D01*
X299232Y-113668D01*
X299251Y-113670D01*
X299353Y-113648D01*
X299455Y-113631D01*
X299472Y-113622D01*
X299492Y-113618D01*
X299581Y-113565D01*
X299672Y-113516D01*
X299686Y-113502D01*
X299703Y-113492D01*
X299770Y-113413D01*
X299841Y-113338D01*
X299850Y-113320D01*
X299863Y-113305D01*
X299902Y-113209D01*
X299945Y-113115D01*
X299947Y-113095D01*
X299955Y-113077D01*
X299973Y-112910D01*
X299973Y-112147D01*
X300736Y-112147D01*
X300756Y-112144D01*
X300775Y-112146D01*
X300877Y-112124D01*
X300979Y-112107D01*
X300996Y-112098D01*
X301016Y-112094D01*
X301105Y-112041D01*
X301196Y-111992D01*
X301210Y-111978D01*
X301227Y-111968D01*
X301294Y-111889D01*
X301365Y-111814D01*
X301374Y-111796D01*
X301387Y-111781D01*
X301426Y-111685D01*
X301469Y-111591D01*
X301471Y-111571D01*
X301479Y-111553D01*
X301497Y-111386D01*
X301497Y-105607D01*
X304308Y-105607D01*
X304539Y-105669D01*
X304658Y-105681D01*
X304775Y-105694D01*
X304780Y-105693D01*
X304784Y-105693D01*
X304900Y-105667D01*
X305016Y-105642D01*
X305019Y-105640D01*
X305023Y-105639D01*
X305125Y-105576D01*
X305227Y-105516D01*
X305230Y-105512D01*
X305233Y-105510D01*
X305310Y-105419D01*
X305387Y-105329D01*
X305388Y-105325D01*
X305391Y-105322D01*
X305434Y-105212D01*
X305479Y-105100D01*
X305479Y-105095D01*
X305481Y-105092D01*
X305481Y-105079D01*
X305497Y-104934D01*
X305497Y-103434D01*
X305494Y-103414D01*
X305496Y-103395D01*
X305474Y-103293D01*
X305458Y-103191D01*
X305448Y-103174D01*
X305444Y-103154D01*
X305391Y-103065D01*
X305342Y-102974D01*
X305328Y-102960D01*
X305318Y-102943D01*
X305239Y-102876D01*
X305164Y-102804D01*
X305146Y-102796D01*
X305131Y-102783D01*
X305035Y-102744D01*
X304941Y-102701D01*
X304921Y-102699D01*
X304903Y-102691D01*
X304736Y-102673D01*
X295330Y-102673D01*
X295310Y-102676D01*
X295291Y-102674D01*
X295189Y-102696D01*
X295087Y-102712D01*
X295070Y-102722D01*
X295050Y-102726D01*
X294961Y-102779D01*
X294870Y-102828D01*
X294856Y-102842D01*
X294839Y-102852D01*
X294772Y-102931D01*
X294700Y-103006D01*
X294692Y-103024D01*
X294679Y-103039D01*
X294640Y-103135D01*
X294597Y-103229D01*
X294595Y-103249D01*
X294587Y-103267D01*
X294586Y-103278D01*
X293676Y-104189D01*
X283412Y-104189D01*
X282519Y-103296D01*
X282519Y-102720D01*
X282516Y-102700D01*
X282518Y-102681D01*
X282496Y-102579D01*
X282480Y-102477D01*
X282470Y-102460D01*
X282466Y-102440D01*
X282413Y-102351D01*
X282364Y-102260D01*
X282350Y-102246D01*
X282340Y-102229D01*
X282261Y-102162D01*
X282186Y-102090D01*
X282168Y-102082D01*
X282153Y-102069D01*
X282057Y-102030D01*
X281963Y-101987D01*
X281943Y-101985D01*
X281925Y-101977D01*
X281758Y-101959D01*
X278318Y-101959D01*
X278228Y-101973D01*
X278137Y-101981D01*
X278107Y-101993D01*
X278075Y-101998D01*
X277994Y-102041D01*
X277910Y-102077D01*
X277878Y-102103D01*
X277858Y-102114D01*
X277835Y-102137D01*
X277803Y-102163D01*
X267973Y-102163D01*
X267902Y-102174D01*
X267830Y-102176D01*
X267781Y-102194D01*
X267730Y-102202D01*
X267667Y-102236D01*
X267599Y-102261D01*
X267559Y-102293D01*
X267513Y-102318D01*
X267463Y-102369D01*
X267407Y-102414D01*
X267379Y-102458D01*
X267343Y-102496D01*
X267313Y-102561D01*
X267274Y-102621D01*
X267262Y-102672D01*
X267240Y-102719D01*
X267232Y-102790D01*
X267214Y-102860D01*
X267218Y-102912D01*
X267213Y-102963D01*
X267228Y-103034D01*
X267233Y-103105D01*
X267254Y-103153D01*
X267265Y-103204D01*
X267302Y-103265D01*
X267330Y-103331D01*
X267375Y-103387D01*
X267391Y-103415D01*
X267409Y-103430D01*
X267435Y-103462D01*
X268143Y-104170D01*
X268217Y-104223D01*
X268286Y-104283D01*
X268316Y-104295D01*
X268342Y-104314D01*
X268429Y-104341D01*
X268514Y-104375D01*
X268555Y-104379D01*
X268577Y-104386D01*
X268610Y-104385D01*
X268681Y-104393D01*
X279034Y-104393D01*
X281339Y-106699D01*
X281356Y-106711D01*
X281368Y-106726D01*
X281455Y-106782D01*
X281539Y-106843D01*
X281558Y-106848D01*
X281575Y-106859D01*
X281675Y-106884D01*
X281774Y-106915D01*
X281794Y-106914D01*
X281813Y-106919D01*
X281917Y-106911D01*
X282020Y-106909D01*
X282039Y-106902D01*
X282059Y-106900D01*
X282154Y-106860D01*
X282251Y-106824D01*
X282267Y-106812D01*
X282285Y-106804D01*
X282416Y-106699D01*
X282484Y-106631D01*
X283063Y-106296D01*
X283710Y-106123D01*
X287021Y-106123D01*
X287021Y-111402D01*
X287024Y-111422D01*
X287022Y-111441D01*
X287044Y-111543D01*
X287061Y-111645D01*
X287070Y-111662D01*
X287074Y-111682D01*
X287127Y-111771D01*
X287176Y-111862D01*
X287190Y-111876D01*
X287200Y-111893D01*
X287279Y-111960D01*
X287354Y-112031D01*
X287372Y-112040D01*
X287387Y-112053D01*
X287483Y-112092D01*
X287577Y-112135D01*
X287597Y-112137D01*
X287615Y-112145D01*
X287782Y-112163D01*
X288545Y-112163D01*
X288545Y-112165D01*
X287782Y-112165D01*
X287762Y-112168D01*
X287743Y-112166D01*
X287641Y-112188D01*
X287539Y-112205D01*
X287522Y-112214D01*
X287502Y-112218D01*
X287413Y-112271D01*
X287322Y-112320D01*
X287308Y-112334D01*
X287291Y-112344D01*
X287224Y-112423D01*
X287153Y-112498D01*
X287144Y-112516D01*
X287131Y-112531D01*
X287092Y-112627D01*
X287049Y-112721D01*
X287047Y-112741D01*
X287039Y-112759D01*
X287021Y-112926D01*
X287021Y-118205D01*
X284480Y-118205D01*
X284460Y-118208D01*
X284441Y-118206D01*
X284339Y-118228D01*
X284237Y-118244D01*
X284220Y-118254D01*
X284200Y-118258D01*
X284111Y-118311D01*
X284020Y-118360D01*
X284006Y-118374D01*
X283989Y-118384D01*
X283922Y-118463D01*
X283850Y-118538D01*
X283842Y-118556D01*
X283829Y-118571D01*
X283790Y-118667D01*
X283747Y-118761D01*
X283745Y-118781D01*
X283737Y-118799D01*
X283719Y-118966D01*
X283719Y-119431D01*
X283733Y-119521D01*
X283741Y-119612D01*
X283753Y-119642D01*
X283758Y-119674D01*
X283801Y-119754D01*
X283837Y-119838D01*
X283863Y-119871D01*
X283874Y-119891D01*
X283897Y-119913D01*
X283942Y-119969D01*
X285669Y-121696D01*
X285743Y-121749D01*
X285812Y-121809D01*
X285842Y-121821D01*
X285868Y-121840D01*
X285956Y-121867D01*
X286040Y-121901D01*
X286081Y-121905D01*
X286103Y-121912D01*
X286136Y-121911D01*
X286207Y-121919D01*
X293004Y-121919D01*
X293446Y-122361D01*
X293504Y-122403D01*
X293556Y-122453D01*
X293603Y-122474D01*
X293645Y-122505D01*
X293714Y-122526D01*
X293779Y-122556D01*
X293831Y-122562D01*
X293880Y-122577D01*
X293952Y-122575D01*
X294023Y-122583D01*
X294074Y-122572D01*
G37*
G36*
X187697Y-131811D02*
X187697Y-131811D01*
X187788Y-131803D01*
X187818Y-131791D01*
X187850Y-131786D01*
X187930Y-131743D01*
X188014Y-131707D01*
X188046Y-131681D01*
X188067Y-131670D01*
X188089Y-131647D01*
X188145Y-131602D01*
X188834Y-130913D01*
X192096Y-130913D01*
X192116Y-130910D01*
X192135Y-130912D01*
X192237Y-130890D01*
X192339Y-130874D01*
X192356Y-130864D01*
X192376Y-130860D01*
X192465Y-130807D01*
X192556Y-130758D01*
X192570Y-130744D01*
X192587Y-130734D01*
X192654Y-130655D01*
X192726Y-130580D01*
X192734Y-130562D01*
X192747Y-130547D01*
X192786Y-130451D01*
X192829Y-130357D01*
X192831Y-130337D01*
X192839Y-130319D01*
X192857Y-130152D01*
X192857Y-129576D01*
X193750Y-128683D01*
X202419Y-128683D01*
X202490Y-128672D01*
X202562Y-128670D01*
X202611Y-128652D01*
X202662Y-128644D01*
X202725Y-128610D01*
X202793Y-128585D01*
X202833Y-128553D01*
X202879Y-128528D01*
X202929Y-128477D01*
X202985Y-128432D01*
X203013Y-128388D01*
X203049Y-128350D01*
X203079Y-128285D01*
X203118Y-128225D01*
X203130Y-128174D01*
X203152Y-128127D01*
X203160Y-128056D01*
X203178Y-127986D01*
X203174Y-127934D01*
X203179Y-127883D01*
X203164Y-127812D01*
X203159Y-127741D01*
X203138Y-127693D01*
X203127Y-127642D01*
X203090Y-127581D01*
X203062Y-127515D01*
X203017Y-127459D01*
X203001Y-127431D01*
X202983Y-127416D01*
X202957Y-127384D01*
X199931Y-124358D01*
X199857Y-124305D01*
X199788Y-124245D01*
X199758Y-124233D01*
X199732Y-124214D01*
X199645Y-124187D01*
X199560Y-124153D01*
X199519Y-124149D01*
X199497Y-124142D01*
X199464Y-124143D01*
X199393Y-124135D01*
X193838Y-124135D01*
X192945Y-123242D01*
X192945Y-120982D01*
X192942Y-120962D01*
X192944Y-120943D01*
X192922Y-120841D01*
X192906Y-120739D01*
X192896Y-120722D01*
X192892Y-120702D01*
X192839Y-120613D01*
X192790Y-120522D01*
X192776Y-120508D01*
X192766Y-120491D01*
X192687Y-120424D01*
X192612Y-120352D01*
X192594Y-120344D01*
X192579Y-120331D01*
X192483Y-120292D01*
X192389Y-120249D01*
X192369Y-120247D01*
X192351Y-120239D01*
X192184Y-120221D01*
X178076Y-120221D01*
X178056Y-120224D01*
X178037Y-120222D01*
X177935Y-120244D01*
X177833Y-120260D01*
X177816Y-120270D01*
X177796Y-120274D01*
X177707Y-120327D01*
X177616Y-120376D01*
X177602Y-120390D01*
X177585Y-120400D01*
X177518Y-120479D01*
X177446Y-120554D01*
X177438Y-120572D01*
X177425Y-120587D01*
X177386Y-120683D01*
X177343Y-120777D01*
X177341Y-120797D01*
X177333Y-120815D01*
X177315Y-120982D01*
X177315Y-125058D01*
X176422Y-125951D01*
X173990Y-125951D01*
X173970Y-125954D01*
X173951Y-125952D01*
X173849Y-125974D01*
X173747Y-125990D01*
X173730Y-126000D01*
X173710Y-126004D01*
X173621Y-126057D01*
X173530Y-126106D01*
X173516Y-126120D01*
X173499Y-126130D01*
X173432Y-126209D01*
X173360Y-126284D01*
X173352Y-126302D01*
X173339Y-126317D01*
X173300Y-126414D01*
X173257Y-126507D01*
X173255Y-126527D01*
X173247Y-126545D01*
X173229Y-126712D01*
X173229Y-131064D01*
X173232Y-131084D01*
X173230Y-131103D01*
X173252Y-131205D01*
X173268Y-131307D01*
X173278Y-131324D01*
X173282Y-131344D01*
X173335Y-131433D01*
X173384Y-131524D01*
X173398Y-131538D01*
X173408Y-131555D01*
X173487Y-131622D01*
X173562Y-131694D01*
X173580Y-131702D01*
X173595Y-131715D01*
X173691Y-131754D01*
X173785Y-131797D01*
X173805Y-131799D01*
X173823Y-131807D01*
X173990Y-131825D01*
X187607Y-131825D01*
X187697Y-131811D01*
G37*
G36*
X213758Y104120D02*
X213758Y104120D01*
X213777Y104118D01*
X213879Y104140D01*
X213981Y104157D01*
X213998Y104166D01*
X214018Y104170D01*
X214107Y104223D01*
X214198Y104272D01*
X214212Y104286D01*
X214229Y104296D01*
X214296Y104375D01*
X214368Y104450D01*
X214376Y104468D01*
X214389Y104483D01*
X214428Y104579D01*
X214471Y104673D01*
X214473Y104693D01*
X214481Y104711D01*
X214499Y104878D01*
X214499Y109491D01*
X214616Y109468D01*
X214947Y109331D01*
X214991Y109320D01*
X215033Y109301D01*
X215110Y109292D01*
X215186Y109275D01*
X215232Y109279D01*
X215277Y109274D01*
X215354Y109290D01*
X215431Y109298D01*
X215473Y109316D01*
X215518Y109326D01*
X215585Y109366D01*
X215656Y109398D01*
X215690Y109429D01*
X215729Y109452D01*
X215780Y109511D01*
X215837Y109564D01*
X215859Y109604D01*
X215889Y109639D01*
X215918Y109712D01*
X215955Y109780D01*
X215964Y109825D01*
X215981Y109867D01*
X215996Y110003D01*
X215999Y110022D01*
X215998Y110027D01*
X215999Y110034D01*
X215999Y111606D01*
X215985Y111696D01*
X215977Y111787D01*
X215965Y111816D01*
X215960Y111848D01*
X215917Y111929D01*
X215881Y112013D01*
X215855Y112045D01*
X215844Y112066D01*
X215821Y112088D01*
X215776Y112144D01*
X213328Y114592D01*
X213328Y123228D01*
X213314Y123319D01*
X213306Y123409D01*
X213294Y123439D01*
X213289Y123471D01*
X213246Y123552D01*
X213210Y123636D01*
X213184Y123668D01*
X213173Y123689D01*
X213150Y123711D01*
X213105Y123767D01*
X210152Y126720D01*
X210078Y126773D01*
X210008Y126833D01*
X209978Y126845D01*
X209952Y126864D01*
X209865Y126891D01*
X209780Y126925D01*
X209739Y126929D01*
X209717Y126936D01*
X209685Y126935D01*
X209613Y126943D01*
X182345Y126943D01*
X182275Y126932D01*
X182203Y126930D01*
X182154Y126912D01*
X182103Y126904D01*
X182039Y126870D01*
X181972Y126845D01*
X181931Y126813D01*
X181885Y126788D01*
X181836Y126736D01*
X181780Y126692D01*
X181752Y126648D01*
X181716Y126610D01*
X181686Y126545D01*
X181647Y126485D01*
X181634Y126434D01*
X181612Y126387D01*
X181604Y126316D01*
X181587Y126246D01*
X181591Y126194D01*
X181585Y126143D01*
X181600Y126072D01*
X181606Y126001D01*
X181626Y125953D01*
X181637Y125902D01*
X181674Y125841D01*
X181702Y125775D01*
X181747Y125719D01*
X181764Y125691D01*
X181781Y125676D01*
X181807Y125644D01*
X182287Y125164D01*
X182361Y125110D01*
X182431Y125051D01*
X182461Y125039D01*
X182487Y125020D01*
X182574Y124993D01*
X182659Y124959D01*
X182700Y124955D01*
X182722Y124948D01*
X182754Y124949D01*
X182825Y124941D01*
X198787Y124941D01*
X208621Y115107D01*
X208621Y109302D01*
X208640Y109184D01*
X208659Y109065D01*
X208660Y109062D01*
X208660Y109059D01*
X208716Y108955D01*
X208772Y108847D01*
X208774Y108844D01*
X208776Y108842D01*
X208862Y108760D01*
X208949Y108676D01*
X208952Y108675D01*
X208954Y108672D01*
X209063Y108622D01*
X209171Y108570D01*
X209174Y108570D01*
X209177Y108569D01*
X209295Y108556D01*
X209415Y108541D01*
X209418Y108542D01*
X209421Y108542D01*
X209538Y108567D01*
X209656Y108592D01*
X209659Y108593D01*
X209662Y108594D01*
X209671Y108600D01*
X209805Y108669D01*
X210375Y109050D01*
X211384Y109468D01*
X211501Y109491D01*
X211501Y104878D01*
X211504Y104859D01*
X211502Y104839D01*
X211524Y104737D01*
X211540Y104635D01*
X211550Y104618D01*
X211554Y104598D01*
X211607Y104509D01*
X211656Y104418D01*
X211670Y104404D01*
X211680Y104387D01*
X211759Y104320D01*
X211834Y104249D01*
X211852Y104240D01*
X211867Y104227D01*
X211963Y104189D01*
X212057Y104145D01*
X212077Y104143D01*
X212095Y104135D01*
X212262Y104117D01*
X213738Y104117D01*
X213758Y104120D01*
G37*
%LPC*%
G36*
X98168Y-188107D02*
X98168Y-188107D01*
X95580Y-187035D01*
X93599Y-185054D01*
X92527Y-182466D01*
X92527Y-179666D01*
X93599Y-177078D01*
X95580Y-175097D01*
X98168Y-174025D01*
X100968Y-174025D01*
X103556Y-175097D01*
X105537Y-177078D01*
X106609Y-179666D01*
X106609Y-182466D01*
X105537Y-185054D01*
X103556Y-187035D01*
X100968Y-188107D01*
X98168Y-188107D01*
G37*
%LPD*%
%LPC*%
G36*
X98168Y-120107D02*
X98168Y-120107D01*
X95580Y-119035D01*
X93599Y-117054D01*
X92527Y-114466D01*
X92527Y-111666D01*
X93599Y-109078D01*
X95580Y-107097D01*
X98168Y-106025D01*
X100968Y-106025D01*
X103556Y-107097D01*
X105537Y-109078D01*
X106609Y-111666D01*
X106609Y-114466D01*
X105537Y-117054D01*
X103556Y-119035D01*
X100968Y-120107D01*
X98168Y-120107D01*
G37*
%LPD*%
%LPC*%
G36*
X143679Y-259095D02*
X143679Y-259095D01*
X143679Y-253077D01*
X167697Y-253077D01*
X167697Y-256888D01*
X167524Y-257535D01*
X167189Y-258114D01*
X166716Y-258587D01*
X166137Y-258922D01*
X165490Y-259095D01*
X143679Y-259095D01*
G37*
%LPD*%
%LPC*%
G36*
X118822Y-259095D02*
X118822Y-259095D01*
X118175Y-258922D01*
X117596Y-258587D01*
X117123Y-258114D01*
X116788Y-257535D01*
X116615Y-256888D01*
X116615Y-253077D01*
X140633Y-253077D01*
X140633Y-259095D01*
X118822Y-259095D01*
G37*
%LPD*%
%LPC*%
G36*
X143679Y-250031D02*
X143679Y-250031D01*
X143679Y-244013D01*
X165490Y-244013D01*
X166137Y-244186D01*
X166716Y-244521D01*
X167189Y-244994D01*
X167524Y-245573D01*
X167697Y-246220D01*
X167697Y-250031D01*
X143679Y-250031D01*
G37*
%LPD*%
%LPC*%
G36*
X116615Y-250031D02*
X116615Y-250031D01*
X116615Y-246220D01*
X116788Y-245573D01*
X117123Y-244994D01*
X117596Y-244521D01*
X118175Y-244186D01*
X118822Y-244013D01*
X140633Y-244013D01*
X140633Y-250031D01*
X116615Y-250031D01*
G37*
%LPD*%
G36*
X303042Y73918D02*
X303042Y73918D01*
X303061Y73916D01*
X303163Y73938D01*
X303265Y73955D01*
X303282Y73964D01*
X303302Y73968D01*
X303391Y74021D01*
X303482Y74070D01*
X303496Y74084D01*
X303513Y74094D01*
X303580Y74173D01*
X303651Y74248D01*
X303660Y74266D01*
X303673Y74281D01*
X303712Y74377D01*
X303755Y74471D01*
X303757Y74491D01*
X303765Y74509D01*
X303783Y74676D01*
X303783Y85345D01*
X306995Y85345D01*
X310358Y81982D01*
X310416Y81940D01*
X310468Y81891D01*
X310515Y81869D01*
X310557Y81838D01*
X310626Y81817D01*
X310691Y81787D01*
X310743Y81781D01*
X310793Y81766D01*
X310864Y81768D01*
X310935Y81760D01*
X310986Y81771D01*
X311038Y81772D01*
X311106Y81797D01*
X311176Y81812D01*
X311221Y81839D01*
X311269Y81857D01*
X311325Y81902D01*
X311387Y81938D01*
X311421Y81978D01*
X311461Y82010D01*
X311500Y82071D01*
X311547Y82125D01*
X311566Y82173D01*
X311594Y82217D01*
X311612Y82287D01*
X311639Y82353D01*
X311647Y82425D01*
X311655Y82456D01*
X311653Y82479D01*
X311657Y82520D01*
X311657Y92145D01*
X311646Y92216D01*
X311644Y92287D01*
X311626Y92336D01*
X311618Y92388D01*
X311584Y92451D01*
X311559Y92518D01*
X311527Y92559D01*
X311502Y92605D01*
X311450Y92654D01*
X311406Y92710D01*
X311362Y92738D01*
X311324Y92774D01*
X311259Y92805D01*
X311199Y92843D01*
X311148Y92856D01*
X311101Y92878D01*
X311030Y92886D01*
X310960Y92903D01*
X310908Y92899D01*
X310857Y92905D01*
X310786Y92890D01*
X310715Y92884D01*
X310667Y92864D01*
X310616Y92853D01*
X310555Y92816D01*
X310489Y92788D01*
X310433Y92743D01*
X310405Y92727D01*
X310390Y92709D01*
X310358Y92683D01*
X306574Y88899D01*
X297946Y88899D01*
X297051Y89794D01*
X297035Y89806D01*
X297022Y89822D01*
X296935Y89878D01*
X296851Y89938D01*
X296832Y89944D01*
X296815Y89955D01*
X296715Y89980D01*
X296616Y90010D01*
X296596Y90010D01*
X296577Y90015D01*
X296474Y90007D01*
X296370Y90004D01*
X296351Y89997D01*
X296332Y89996D01*
X296237Y89955D01*
X296139Y89920D01*
X296124Y89907D01*
X296105Y89899D01*
X295974Y89794D01*
X291816Y85636D01*
X291763Y85562D01*
X291703Y85492D01*
X291691Y85462D01*
X291672Y85436D01*
X291645Y85349D01*
X291611Y85264D01*
X291607Y85223D01*
X291600Y85201D01*
X291601Y85169D01*
X291593Y85097D01*
X291593Y81250D01*
X291604Y81179D01*
X291606Y81108D01*
X291624Y81059D01*
X291632Y81007D01*
X291666Y80944D01*
X291691Y80877D01*
X291723Y80836D01*
X291748Y80790D01*
X291800Y80741D01*
X291844Y80685D01*
X291888Y80656D01*
X291926Y80621D01*
X291991Y80590D01*
X292051Y80552D01*
X292102Y80539D01*
X292149Y80517D01*
X292220Y80509D01*
X292290Y80491D01*
X292342Y80496D01*
X292393Y80490D01*
X292464Y80505D01*
X292535Y80511D01*
X292583Y80531D01*
X292634Y80542D01*
X292695Y80579D01*
X292761Y80607D01*
X292817Y80652D01*
X292845Y80668D01*
X292860Y80686D01*
X292892Y80712D01*
X297525Y85345D01*
X300737Y85345D01*
X300737Y74676D01*
X300740Y74656D01*
X300738Y74637D01*
X300760Y74535D01*
X300777Y74433D01*
X300786Y74416D01*
X300790Y74396D01*
X300843Y74307D01*
X300892Y74216D01*
X300906Y74202D01*
X300916Y74185D01*
X300995Y74118D01*
X301070Y74047D01*
X301088Y74038D01*
X301103Y74025D01*
X301199Y73987D01*
X301293Y73943D01*
X301313Y73941D01*
X301331Y73933D01*
X301498Y73915D01*
X303022Y73915D01*
X303042Y73918D01*
G37*
%LPC*%
G36*
X79755Y-14098D02*
X79755Y-14098D01*
X79755Y-4190D01*
X89663Y-4190D01*
X89663Y-7402D01*
X82967Y-14098D01*
X79755Y-14098D01*
G37*
%LPD*%
%LPC*%
G36*
X79755Y-1144D02*
X79755Y-1144D01*
X79755Y8764D01*
X82967Y8764D01*
X89663Y2068D01*
X89663Y-1144D01*
X79755Y-1144D01*
G37*
%LPD*%
%LPC*%
G36*
X231403Y-274391D02*
X231403Y-274391D01*
X231403Y-262873D01*
X235714Y-262873D01*
X236361Y-263046D01*
X236940Y-263381D01*
X237413Y-263854D01*
X237748Y-264433D01*
X237921Y-265080D01*
X237921Y-274391D01*
X231403Y-274391D01*
G37*
%LPD*%
%LPC*%
G36*
X254839Y-274391D02*
X254839Y-274391D01*
X254839Y-265080D01*
X255012Y-264433D01*
X255347Y-263854D01*
X255820Y-263381D01*
X256399Y-263046D01*
X257046Y-262873D01*
X261357Y-262873D01*
X261357Y-274391D01*
X254839Y-274391D01*
G37*
%LPD*%
%LPC*%
G36*
X181126Y51615D02*
X181126Y51615D01*
X178475Y54266D01*
X178475Y58014D01*
X181126Y60665D01*
X184874Y60665D01*
X187525Y58014D01*
X187525Y54266D01*
X184874Y51615D01*
X181126Y51615D01*
G37*
%LPD*%
%LPC*%
G36*
X196126Y51615D02*
X196126Y51615D01*
X193475Y54266D01*
X193475Y58014D01*
X196126Y60665D01*
X199874Y60665D01*
X202525Y58014D01*
X202525Y54266D01*
X199874Y51615D01*
X196126Y51615D01*
G37*
%LPD*%
%LPC*%
G36*
X181126Y63615D02*
X181126Y63615D01*
X178475Y66266D01*
X178475Y70014D01*
X181126Y72665D01*
X184874Y72665D01*
X187525Y70014D01*
X187525Y66266D01*
X184874Y63615D01*
X181126Y63615D01*
G37*
%LPD*%
%LPC*%
G36*
X181126Y75615D02*
X181126Y75615D01*
X178475Y78266D01*
X178475Y82014D01*
X181126Y84665D01*
X184874Y84665D01*
X187525Y82014D01*
X187525Y78266D01*
X184874Y75615D01*
X181126Y75615D01*
G37*
%LPD*%
%LPC*%
G36*
X200405Y-152749D02*
X200405Y-152749D01*
X200405Y-148231D01*
X205050Y-148231D01*
X205070Y-148228D01*
X205089Y-148230D01*
X205191Y-148208D01*
X205293Y-148191D01*
X205310Y-148182D01*
X205330Y-148178D01*
X205419Y-148125D01*
X205510Y-148076D01*
X205524Y-148062D01*
X205541Y-148052D01*
X205605Y-147977D01*
X211329Y-147977D01*
X211329Y-152495D01*
X208018Y-152495D01*
X207371Y-152322D01*
X206792Y-151987D01*
X206532Y-151727D01*
X206516Y-151716D01*
X206504Y-151700D01*
X206417Y-151644D01*
X206333Y-151584D01*
X206314Y-151578D01*
X206297Y-151567D01*
X206196Y-151542D01*
X206097Y-151512D01*
X206078Y-151512D01*
X206058Y-151507D01*
X205955Y-151515D01*
X205852Y-151518D01*
X205833Y-151525D01*
X205813Y-151526D01*
X205718Y-151567D01*
X205621Y-151602D01*
X205605Y-151615D01*
X205587Y-151623D01*
X205456Y-151727D01*
X204942Y-152241D01*
X204363Y-152576D01*
X203716Y-152749D01*
X200405Y-152749D01*
G37*
%LPD*%
%LPC*%
G36*
X200405Y-145185D02*
X200405Y-145185D01*
X200405Y-140667D01*
X203716Y-140667D01*
X204363Y-140840D01*
X204942Y-141175D01*
X205202Y-141435D01*
X205218Y-141446D01*
X205230Y-141462D01*
X205317Y-141518D01*
X205401Y-141578D01*
X205420Y-141584D01*
X205437Y-141595D01*
X205538Y-141620D01*
X205637Y-141650D01*
X205656Y-141650D01*
X205676Y-141655D01*
X205779Y-141647D01*
X205882Y-141644D01*
X205901Y-141637D01*
X205921Y-141636D01*
X206016Y-141595D01*
X206113Y-141560D01*
X206129Y-141547D01*
X206147Y-141539D01*
X206278Y-141435D01*
X206792Y-140921D01*
X207371Y-140586D01*
X208018Y-140413D01*
X211329Y-140413D01*
X211329Y-144931D01*
X206684Y-144931D01*
X206664Y-144934D01*
X206645Y-144932D01*
X206543Y-144954D01*
X206441Y-144971D01*
X206424Y-144980D01*
X206404Y-144984D01*
X206315Y-145037D01*
X206224Y-145086D01*
X206210Y-145100D01*
X206193Y-145110D01*
X206129Y-145185D01*
X200405Y-145185D01*
G37*
%LPD*%
%LPC*%
G36*
X253641Y-206249D02*
X253641Y-206249D01*
X253641Y-203382D01*
X253638Y-203362D01*
X253640Y-203343D01*
X253618Y-203241D01*
X253601Y-203139D01*
X253592Y-203122D01*
X253588Y-203102D01*
X253535Y-203013D01*
X253486Y-202922D01*
X253472Y-202908D01*
X253462Y-202891D01*
X253387Y-202827D01*
X253387Y-197103D01*
X257905Y-197103D01*
X257905Y-200414D01*
X257732Y-201061D01*
X257723Y-201075D01*
X257699Y-201139D01*
X257666Y-201198D01*
X257656Y-201253D01*
X257636Y-201305D01*
X257634Y-201373D01*
X257621Y-201439D01*
X257629Y-201495D01*
X257627Y-201551D01*
X257646Y-201616D01*
X257656Y-201683D01*
X257687Y-201755D01*
X257697Y-201787D01*
X257709Y-201804D01*
X257723Y-201837D01*
X257986Y-202291D01*
X258159Y-202938D01*
X258159Y-206249D01*
X253641Y-206249D01*
G37*
%LPD*%
%LPC*%
G36*
X246077Y-206249D02*
X246077Y-206249D01*
X246077Y-202938D01*
X246250Y-202291D01*
X246259Y-202277D01*
X246283Y-202213D01*
X246316Y-202154D01*
X246326Y-202099D01*
X246346Y-202047D01*
X246348Y-201979D01*
X246361Y-201912D01*
X246353Y-201857D01*
X246355Y-201801D01*
X246336Y-201736D01*
X246326Y-201669D01*
X246294Y-201596D01*
X246285Y-201565D01*
X246273Y-201548D01*
X246259Y-201515D01*
X245996Y-201061D01*
X245823Y-200414D01*
X245823Y-197103D01*
X250341Y-197103D01*
X250341Y-199970D01*
X250344Y-199990D01*
X250342Y-200009D01*
X250364Y-200111D01*
X250381Y-200213D01*
X250390Y-200230D01*
X250394Y-200250D01*
X250447Y-200339D01*
X250496Y-200430D01*
X250510Y-200444D01*
X250520Y-200461D01*
X250595Y-200525D01*
X250595Y-206249D01*
X246077Y-206249D01*
G37*
%LPD*%
%LPC*%
G36*
X290067Y-110641D02*
X290067Y-110641D01*
X290067Y-106123D01*
X293378Y-106123D01*
X293771Y-106229D01*
X293862Y-106238D01*
X293952Y-106254D01*
X293984Y-106250D01*
X294016Y-106253D01*
X294105Y-106233D01*
X294195Y-106220D01*
X294233Y-106203D01*
X294256Y-106198D01*
X294283Y-106181D01*
X294349Y-106152D01*
X294993Y-105780D01*
X295640Y-105607D01*
X298451Y-105607D01*
X298451Y-110625D01*
X296346Y-110625D01*
X296326Y-110628D01*
X296307Y-110626D01*
X296238Y-110641D01*
X290067Y-110641D01*
G37*
%LPD*%
%LPC*%
G36*
X212493Y-125151D02*
X212493Y-125151D01*
X212493Y-119633D01*
X217011Y-119633D01*
X217011Y-122944D01*
X216838Y-123591D01*
X216503Y-124170D01*
X216030Y-124643D01*
X215451Y-124978D01*
X214804Y-125151D01*
X212493Y-125151D01*
G37*
%LPD*%
%LPC*%
G36*
X253641Y-214813D02*
X253641Y-214813D01*
X253641Y-209295D01*
X258159Y-209295D01*
X258159Y-212606D01*
X257986Y-213253D01*
X257651Y-213832D01*
X257178Y-214305D01*
X256599Y-214640D01*
X255952Y-214813D01*
X253641Y-214813D01*
G37*
%LPD*%
%LPC*%
G36*
X229361Y-125317D02*
X229361Y-125317D01*
X229361Y-120799D01*
X234879Y-120799D01*
X234879Y-123111D01*
X234706Y-123757D01*
X234371Y-124336D01*
X233898Y-124809D01*
X233319Y-125144D01*
X232672Y-125317D01*
X229361Y-125317D01*
G37*
%LPD*%
%LPC*%
G36*
X214375Y-152495D02*
X214375Y-152495D01*
X214375Y-147977D01*
X219893Y-147977D01*
X219893Y-150289D01*
X219720Y-150935D01*
X219385Y-151514D01*
X218912Y-151987D01*
X218333Y-152322D01*
X217686Y-152495D01*
X214375Y-152495D01*
G37*
%LPD*%
%LPC*%
G36*
X225805Y-189071D02*
X225805Y-189071D01*
X225805Y-184553D01*
X231323Y-184553D01*
X231323Y-186865D01*
X231150Y-187511D01*
X230815Y-188090D01*
X230342Y-188563D01*
X229763Y-188898D01*
X229116Y-189071D01*
X225805Y-189071D01*
G37*
%LPD*%
%LPC*%
G36*
X225043Y-222853D02*
X225043Y-222853D01*
X225043Y-218335D01*
X230561Y-218335D01*
X230561Y-220647D01*
X230388Y-221293D01*
X230053Y-221872D01*
X229580Y-222345D01*
X229001Y-222680D01*
X228354Y-222853D01*
X225043Y-222853D01*
G37*
%LPD*%
%LPC*%
G36*
X222503Y-7969D02*
X222503Y-7969D01*
X222503Y-3451D01*
X228021Y-3451D01*
X228021Y-5763D01*
X227848Y-6409D01*
X227513Y-6988D01*
X227040Y-7461D01*
X226461Y-7796D01*
X225814Y-7969D01*
X222503Y-7969D01*
G37*
%LPD*%
%LPC*%
G36*
X267461Y-8223D02*
X267461Y-8223D01*
X267461Y-3705D01*
X272979Y-3705D01*
X272979Y-6017D01*
X272806Y-6663D01*
X272471Y-7242D01*
X271998Y-7715D01*
X271419Y-8050D01*
X270772Y-8223D01*
X267461Y-8223D01*
G37*
%LPD*%
%LPC*%
G36*
X225043Y-215289D02*
X225043Y-215289D01*
X225043Y-210771D01*
X228354Y-210771D01*
X229001Y-210944D01*
X229580Y-211279D01*
X230053Y-211752D01*
X230388Y-212331D01*
X230561Y-212978D01*
X230561Y-215289D01*
X225043Y-215289D01*
G37*
%LPD*%
%LPC*%
G36*
X225805Y-181507D02*
X225805Y-181507D01*
X225805Y-176989D01*
X229116Y-176989D01*
X229763Y-177162D01*
X230342Y-177497D01*
X230815Y-177970D01*
X231150Y-178549D01*
X231323Y-179196D01*
X231323Y-181507D01*
X225805Y-181507D01*
G37*
%LPD*%
%LPC*%
G36*
X214375Y-144931D02*
X214375Y-144931D01*
X214375Y-140413D01*
X217686Y-140413D01*
X218333Y-140586D01*
X218912Y-140921D01*
X219385Y-141394D01*
X219720Y-141973D01*
X219893Y-142620D01*
X219893Y-144931D01*
X214375Y-144931D01*
G37*
%LPD*%
%LPC*%
G36*
X135127Y-142853D02*
X135127Y-142853D01*
X135127Y-138335D01*
X138438Y-138335D01*
X139085Y-138508D01*
X139664Y-138843D01*
X140137Y-139316D01*
X140472Y-139895D01*
X140645Y-140542D01*
X140645Y-142853D01*
X135127Y-142853D01*
G37*
%LPD*%
%LPC*%
G36*
X212493Y-116587D02*
X212493Y-116587D01*
X212493Y-111069D01*
X214804Y-111069D01*
X215451Y-111242D01*
X216030Y-111577D01*
X216503Y-112050D01*
X216838Y-112629D01*
X217011Y-113276D01*
X217011Y-116587D01*
X212493Y-116587D01*
G37*
%LPD*%
%LPC*%
G36*
X223004Y-125317D02*
X223004Y-125317D01*
X222357Y-125144D01*
X221778Y-124809D01*
X221305Y-124336D01*
X220970Y-123757D01*
X220797Y-123110D01*
X220797Y-120799D01*
X226315Y-120799D01*
X226315Y-125317D01*
X223004Y-125317D01*
G37*
%LPD*%
%LPC*%
G36*
X219448Y-189071D02*
X219448Y-189071D01*
X218801Y-188898D01*
X218222Y-188563D01*
X217749Y-188090D01*
X217414Y-187511D01*
X217241Y-186864D01*
X217241Y-184553D01*
X222759Y-184553D01*
X222759Y-189071D01*
X219448Y-189071D01*
G37*
%LPD*%
%LPC*%
G36*
X201668Y-222599D02*
X201668Y-222599D01*
X201021Y-222426D01*
X200442Y-222091D01*
X199969Y-221618D01*
X199634Y-221039D01*
X199461Y-220392D01*
X199461Y-218081D01*
X204979Y-218081D01*
X204979Y-222599D01*
X201668Y-222599D01*
G37*
%LPD*%
%LPC*%
G36*
X128770Y-150417D02*
X128770Y-150417D01*
X128123Y-150244D01*
X127544Y-149909D01*
X127071Y-149436D01*
X126736Y-148857D01*
X126563Y-148210D01*
X126563Y-145899D01*
X132081Y-145899D01*
X132081Y-150417D01*
X128770Y-150417D01*
G37*
%LPD*%
%LPC*%
G36*
X216146Y-7969D02*
X216146Y-7969D01*
X215499Y-7796D01*
X214920Y-7461D01*
X214447Y-6988D01*
X214112Y-6409D01*
X213939Y-5762D01*
X213939Y-3451D01*
X219457Y-3451D01*
X219457Y-7969D01*
X216146Y-7969D01*
G37*
%LPD*%
%LPC*%
G36*
X261104Y-8223D02*
X261104Y-8223D01*
X260457Y-8050D01*
X259878Y-7715D01*
X259405Y-7242D01*
X259070Y-6663D01*
X258897Y-6016D01*
X258897Y-3705D01*
X264415Y-3705D01*
X264415Y-8223D01*
X261104Y-8223D01*
G37*
%LPD*%
%LPC*%
G36*
X194048Y-152749D02*
X194048Y-152749D01*
X193401Y-152576D01*
X192822Y-152241D01*
X192349Y-151768D01*
X192014Y-151189D01*
X191841Y-150542D01*
X191841Y-148231D01*
X197359Y-148231D01*
X197359Y-152749D01*
X194048Y-152749D01*
G37*
%LPD*%
%LPC*%
G36*
X252417Y-90688D02*
X252417Y-90688D01*
X251838Y-90353D01*
X251365Y-89880D01*
X251030Y-89301D01*
X250857Y-88654D01*
X250857Y-85343D01*
X255375Y-85343D01*
X255375Y-90861D01*
X253063Y-90861D01*
X252417Y-90688D01*
G37*
%LPD*%
%LPC*%
G36*
X247637Y-214640D02*
X247637Y-214640D01*
X247058Y-214305D01*
X246585Y-213832D01*
X246250Y-213253D01*
X246077Y-212606D01*
X246077Y-209295D01*
X250595Y-209295D01*
X250595Y-214813D01*
X248283Y-214813D01*
X247637Y-214640D01*
G37*
%LPD*%
%LPC*%
G36*
X204929Y-116587D02*
X204929Y-116587D01*
X204929Y-113276D01*
X205102Y-112629D01*
X205437Y-112050D01*
X205910Y-111577D01*
X206489Y-111242D01*
X207136Y-111069D01*
X209447Y-111069D01*
X209447Y-116587D01*
X204929Y-116587D01*
G37*
%LPD*%
%LPC*%
G36*
X245823Y-194057D02*
X245823Y-194057D01*
X245823Y-190746D01*
X245996Y-190099D01*
X246331Y-189520D01*
X246804Y-189047D01*
X247383Y-188712D01*
X248030Y-188539D01*
X250341Y-188539D01*
X250341Y-194057D01*
X245823Y-194057D01*
G37*
%LPD*%
%LPC*%
G36*
X126563Y-142853D02*
X126563Y-142853D01*
X126563Y-140542D01*
X126736Y-139895D01*
X127071Y-139316D01*
X127544Y-138843D01*
X128123Y-138508D01*
X128770Y-138335D01*
X132081Y-138335D01*
X132081Y-142853D01*
X126563Y-142853D01*
G37*
%LPD*%
%LPC*%
G36*
X191841Y-145185D02*
X191841Y-145185D01*
X191841Y-142874D01*
X192014Y-142227D01*
X192349Y-141648D01*
X192822Y-141175D01*
X193401Y-140840D01*
X194048Y-140667D01*
X197359Y-140667D01*
X197359Y-145185D01*
X191841Y-145185D01*
G37*
%LPD*%
%LPC*%
G36*
X220797Y-117753D02*
X220797Y-117753D01*
X220797Y-115442D01*
X220970Y-114795D01*
X221305Y-114216D01*
X221778Y-113743D01*
X222357Y-113408D01*
X223004Y-113235D01*
X226315Y-113235D01*
X226315Y-117753D01*
X220797Y-117753D01*
G37*
%LPD*%
%LPC*%
G36*
X217241Y-181507D02*
X217241Y-181507D01*
X217241Y-179196D01*
X217414Y-178549D01*
X217749Y-177970D01*
X218222Y-177497D01*
X218801Y-177162D01*
X219448Y-176989D01*
X222759Y-176989D01*
X222759Y-181507D01*
X217241Y-181507D01*
G37*
%LPD*%
%LPC*%
G36*
X267461Y-659D02*
X267461Y-659D01*
X267461Y3859D01*
X270772Y3859D01*
X271419Y3686D01*
X271998Y3351D01*
X272471Y2878D01*
X272806Y2299D01*
X272979Y1652D01*
X272979Y-659D01*
X267461Y-659D01*
G37*
%LPD*%
%LPC*%
G36*
X222503Y-405D02*
X222503Y-405D01*
X222503Y4113D01*
X225814Y4113D01*
X226461Y3940D01*
X227040Y3605D01*
X227513Y3132D01*
X227848Y2553D01*
X228021Y1906D01*
X228021Y-405D01*
X222503Y-405D01*
G37*
%LPD*%
%LPC*%
G36*
X213939Y-405D02*
X213939Y-405D01*
X213939Y1906D01*
X214112Y2553D01*
X214447Y3132D01*
X214920Y3605D01*
X215499Y3940D01*
X216146Y4113D01*
X219457Y4113D01*
X219457Y-405D01*
X213939Y-405D01*
G37*
%LPD*%
%LPC*%
G36*
X245785Y-134352D02*
X245785Y-134352D01*
X245785Y-132930D01*
X245958Y-132283D01*
X246293Y-131704D01*
X246766Y-131231D01*
X247345Y-130896D01*
X247992Y-130723D01*
X249414Y-130723D01*
X249414Y-134352D01*
X245785Y-134352D01*
G37*
%LPD*%
%LPC*%
G36*
X169499Y105639D02*
X169499Y105639D01*
X169499Y109491D01*
X169616Y109468D01*
X170625Y109050D01*
X171532Y108444D01*
X172304Y107672D01*
X172910Y106765D01*
X173328Y105756D01*
X173351Y105639D01*
X169499Y105639D01*
G37*
%LPD*%
%LPC*%
G36*
X184499Y105639D02*
X184499Y105639D01*
X184499Y109491D01*
X184616Y109468D01*
X185625Y109050D01*
X186532Y108444D01*
X187304Y107672D01*
X187910Y106765D01*
X188328Y105756D01*
X188351Y105639D01*
X184499Y105639D01*
G37*
%LPD*%
%LPC*%
G36*
X177649Y105639D02*
X177649Y105639D01*
X177672Y105756D01*
X178090Y106765D01*
X178696Y107672D01*
X179468Y108444D01*
X180375Y109050D01*
X181384Y109468D01*
X181501Y109491D01*
X181501Y105639D01*
X177649Y105639D01*
G37*
%LPD*%
%LPC*%
G36*
X192649Y105639D02*
X192649Y105639D01*
X192672Y105756D01*
X193090Y106765D01*
X193696Y107672D01*
X194468Y108444D01*
X195375Y109050D01*
X196384Y109468D01*
X196501Y109491D01*
X196501Y105639D01*
X192649Y105639D01*
G37*
%LPD*%
%LPC*%
G36*
X162649Y105639D02*
X162649Y105639D01*
X162672Y105756D01*
X163090Y106765D01*
X163696Y107672D01*
X164468Y108444D01*
X165375Y109050D01*
X166384Y109468D01*
X166501Y109491D01*
X166501Y105639D01*
X162649Y105639D01*
G37*
%LPD*%
%LPC*%
G36*
X166384Y98812D02*
X166384Y98812D01*
X165375Y99230D01*
X164468Y99836D01*
X163696Y100608D01*
X163090Y101515D01*
X162672Y102524D01*
X162649Y102641D01*
X166501Y102641D01*
X166501Y98789D01*
X166384Y98812D01*
G37*
%LPD*%
%LPC*%
G36*
X251863Y-195581D02*
X251863Y-195581D01*
X251863Y-195579D01*
X251865Y-195579D01*
X251865Y-195581D01*
X251863Y-195581D01*
G37*
%LPD*%
%LPC*%
G36*
X210969Y-118111D02*
X210969Y-118111D01*
X210969Y-118109D01*
X210971Y-118109D01*
X210971Y-118111D01*
X210969Y-118111D01*
G37*
%LPD*%
%LPC*%
G36*
X227837Y-119277D02*
X227837Y-119277D01*
X227837Y-119275D01*
X227839Y-119275D01*
X227839Y-119277D01*
X227837Y-119277D01*
G37*
%LPD*%
%LPC*%
G36*
X252117Y-207773D02*
X252117Y-207773D01*
X252117Y-207771D01*
X252119Y-207771D01*
X252119Y-207773D01*
X252117Y-207773D01*
G37*
%LPD*%
%LPC*%
G36*
X265937Y-2183D02*
X265937Y-2183D01*
X265937Y-2181D01*
X265939Y-2181D01*
X265939Y-2183D01*
X265937Y-2183D01*
G37*
%LPD*%
%LPC*%
G36*
X198881Y-146709D02*
X198881Y-146709D01*
X198881Y-146707D01*
X198883Y-146707D01*
X198883Y-146709D01*
X198881Y-146709D01*
G37*
%LPD*%
%LPC*%
G36*
X212851Y-146455D02*
X212851Y-146455D01*
X212851Y-146453D01*
X212853Y-146453D01*
X212853Y-146455D01*
X212851Y-146455D01*
G37*
%LPD*%
%LPC*%
G36*
X133603Y-144377D02*
X133603Y-144377D01*
X133603Y-144375D01*
X133605Y-144375D01*
X133605Y-144377D01*
X133603Y-144377D01*
G37*
%LPD*%
%LPC*%
G36*
X224281Y-183031D02*
X224281Y-183031D01*
X224281Y-183029D01*
X224283Y-183029D01*
X224283Y-183031D01*
X224281Y-183031D01*
G37*
%LPD*%
%LPC*%
G36*
X220979Y-1929D02*
X220979Y-1929D01*
X220979Y-1927D01*
X220981Y-1927D01*
X220981Y-1929D01*
X220979Y-1929D01*
G37*
%LPD*%
%LPC*%
G36*
X142155Y-251555D02*
X142155Y-251555D01*
X142155Y-251553D01*
X142157Y-251553D01*
X142157Y-251555D01*
X142155Y-251555D01*
G37*
%LPD*%
D10*
X120500Y112140D03*
X120500Y101140D03*
X120500Y90140D03*
X120500Y79140D03*
X120500Y68140D03*
X120500Y57140D03*
X120500Y46140D03*
X120500Y35140D03*
X260500Y35140D03*
X260500Y46140D03*
X260500Y57140D03*
X260500Y68140D03*
X260500Y79140D03*
X260500Y90140D03*
X260500Y101140D03*
X260500Y112140D03*
D11*
X168000Y104140D03*
X183000Y104140D03*
X198000Y104140D03*
X213000Y104140D03*
X168000Y92140D03*
X183000Y92140D03*
X198000Y92140D03*
X213000Y92140D03*
X168000Y80140D03*
X183000Y80140D03*
X198000Y80140D03*
X213000Y80140D03*
X168000Y68140D03*
X183000Y68140D03*
X198000Y68140D03*
X213000Y68140D03*
X168000Y56140D03*
X183000Y56140D03*
X198000Y56140D03*
X213000Y56140D03*
X168000Y44140D03*
X183000Y44140D03*
X198000Y44140D03*
X213000Y44140D03*
D12*
X240668Y-95180D02*
X240668Y-100196D01*
X240668Y-95180D02*
X251884Y-95180D01*
X251884Y-100196D01*
X240668Y-100196D01*
X240668Y-99355D02*
X251884Y-99355D01*
X251884Y-98514D02*
X240668Y-98514D01*
X240668Y-97673D02*
X251884Y-97673D01*
X251884Y-96832D02*
X240668Y-96832D01*
X240668Y-95991D02*
X251884Y-95991D01*
X265768Y-114180D02*
X265768Y-119196D01*
X265768Y-114180D02*
X276984Y-114180D01*
X276984Y-119196D01*
X265768Y-119196D01*
X265768Y-118355D02*
X276984Y-118355D01*
X276984Y-117514D02*
X265768Y-117514D01*
X265768Y-116673D02*
X276984Y-116673D01*
X276984Y-115832D02*
X265768Y-115832D01*
X265768Y-114991D02*
X276984Y-114991D01*
X240668Y-109696D02*
X240668Y-104680D01*
X251884Y-104680D01*
X251884Y-109696D01*
X240668Y-109696D01*
X240668Y-108855D02*
X251884Y-108855D01*
X251884Y-108014D02*
X240668Y-108014D01*
X240668Y-107173D02*
X251884Y-107173D01*
X251884Y-106332D02*
X240668Y-106332D01*
X240668Y-105491D02*
X251884Y-105491D01*
X240668Y-114180D02*
X240668Y-119196D01*
X240668Y-114180D02*
X251884Y-114180D01*
X251884Y-119196D01*
X240668Y-119196D01*
X240668Y-118355D02*
X251884Y-118355D01*
X251884Y-117514D02*
X240668Y-117514D01*
X240668Y-116673D02*
X251884Y-116673D01*
X251884Y-115832D02*
X240668Y-115832D01*
X240668Y-114991D02*
X251884Y-114991D01*
X265768Y-100196D02*
X265768Y-95180D01*
X276984Y-95180D01*
X276984Y-100196D01*
X265768Y-100196D01*
X265768Y-99355D02*
X276984Y-99355D01*
X276984Y-98514D02*
X265768Y-98514D01*
X265768Y-97673D02*
X276984Y-97673D01*
X276984Y-96832D02*
X265768Y-96832D01*
X265768Y-95991D02*
X276984Y-95991D01*
D13*
X238134Y7366D03*
X255134Y7366D03*
D14*
X220980Y-1928D03*
X220980Y11072D03*
X265938Y-2182D03*
X265938Y10818D03*
D15*
X248526Y-141464D03*
X248526Y-146464D03*
X248526Y-151464D03*
X248526Y-156464D03*
X248526Y-161464D03*
X248526Y-166464D03*
X248526Y-171464D03*
D16*
X256526Y-179464D03*
X261526Y-179464D03*
X266526Y-179464D03*
X271526Y-179464D03*
X276526Y-179464D03*
X281526Y-179464D03*
X286526Y-179464D03*
D15*
X294526Y-171464D03*
X294526Y-166464D03*
X294526Y-161464D03*
X294526Y-156464D03*
X294526Y-151464D03*
X294526Y-146464D03*
X294526Y-141464D03*
D16*
X286526Y-133464D03*
X281526Y-133464D03*
X276526Y-133464D03*
X271526Y-133464D03*
X266526Y-133464D03*
X261526Y-133464D03*
X256526Y-133464D03*
D17*
X271526Y-156464D03*
D18*
X250501Y-135439D03*
D19*
X212755Y-277914D03*
X280005Y-277914D03*
D20*
X221380Y-248914D03*
X271380Y-248914D03*
D21*
X233380Y-249164D03*
X239880Y-249164D03*
X246380Y-249164D03*
X252880Y-249164D03*
X259380Y-249164D03*
D22*
X229880Y-275914D03*
X262880Y-275914D03*
D23*
X142156Y-251554D03*
X142156Y-231554D03*
D24*
X90156Y-275554D03*
X90156Y-207554D03*
D25*
X277876Y-36576D03*
X277876Y-61976D03*
X252476Y-36576D03*
X252476Y-61976D03*
X227076Y-36576D03*
X227076Y-61976D03*
X201676Y-36576D03*
X201676Y-61976D03*
X176276Y-36576D03*
X176276Y-61976D03*
X150876Y-36576D03*
X150876Y-61976D03*
X125476Y-36576D03*
X125476Y-61976D03*
X100076Y-36576D03*
X100076Y-61976D03*
D26*
X252118Y-207772D03*
X239118Y-207772D03*
X251864Y-195580D03*
X238864Y-195580D03*
D14*
X288544Y-112164D03*
X288544Y-99164D03*
X227838Y-119276D03*
X227838Y-106276D03*
D27*
X152908Y-136144D03*
X152908Y-145542D03*
X152908Y-154940D03*
X180340Y-154940D03*
X180340Y-136144D03*
D28*
X211636Y-104140D03*
X186636Y-104140D03*
D29*
X191594Y-204978D03*
X169594Y-214478D03*
X169594Y-195478D03*
D30*
X161290Y-95426D03*
X170790Y-117426D03*
X151790Y-117426D03*
D31*
X198478Y-188468D03*
X204978Y-188468D03*
X211478Y-188468D03*
X211478Y-167132D03*
X204978Y-167132D03*
X198478Y-167132D03*
D32*
X172092Y-170434D03*
X157092Y-170434D03*
X299974Y-112148D03*
X299974Y-97148D03*
D26*
X179982Y-181610D03*
X166982Y-181610D03*
X300378Y-84836D03*
X287378Y-84836D03*
D14*
X206502Y-216558D03*
X206502Y-203558D03*
X223520Y-203812D03*
X223520Y-216812D03*
X198882Y-133708D03*
X198882Y-146708D03*
X212852Y-146454D03*
X212852Y-133454D03*
D33*
X122068Y-172066D03*
X77068Y-147066D03*
X122068Y-122066D03*
D34*
X302260Y175514D03*
X302260Y150114D03*
X302260Y124714D03*
X302260Y99314D03*
X302260Y73914D03*
X302260Y48514D03*
X302260Y23114D03*
X302260Y-2286D03*
X78232Y175133D03*
X78232Y149733D03*
X78232Y124333D03*
X78232Y98933D03*
X78232Y73533D03*
X78232Y48133D03*
X78232Y22733D03*
X78232Y-2667D03*
D35*
X102870Y197866D03*
X128270Y197866D03*
X153670Y197866D03*
X179070Y197866D03*
X204470Y197866D03*
X229870Y197866D03*
X255270Y197866D03*
X280670Y197866D03*
D14*
X224282Y-183030D03*
X224282Y-170030D03*
D26*
X256898Y-83820D03*
X269898Y-83820D03*
D14*
X133604Y-144376D03*
X133604Y-157376D03*
D26*
X210970Y-118110D03*
X197970Y-118110D03*
D36*
X271376Y-97688D02*
X272852Y-99164D01*
X288544Y-99164D01*
X288544Y-86002D02*
X287378Y-84836D01*
X288544Y-86002D02*
X288544Y-99164D01*
X284646Y35140D02*
X260500Y35140D01*
X293878Y-19558D02*
X293878Y-77216D01*
X293878Y-19558D02*
X286004Y-11684D01*
X286004Y8636D01*
X289306Y11938D01*
X289306Y30480D01*
X286639Y33147D01*
X284646Y35140D01*
X271376Y-84732D02*
X271376Y-97688D01*
X271376Y-84732D02*
X278892Y-77216D01*
X293878Y-77216D01*
D37*
X286893Y33147D02*
X302260Y48514D01*
X286893Y33147D02*
X286639Y33147D01*
D38*
X221742Y38248D03*
D36*
X224536Y35454D02*
X260186Y35454D01*
X224536Y35454D02*
X221742Y38248D01*
D39*
X260186Y35454D02*
X260500Y35140D01*
X269898Y-83820D02*
X270810Y-84732D01*
X271376Y-84732D01*
D36*
X199390Y-146200D02*
X198882Y-146708D01*
D38*
X276352Y42926D03*
X79248Y-101600D03*
X80264Y-184150D03*
X90932Y-240792D03*
X136144Y-275844D03*
X177038Y-246126D03*
X278130Y-228854D03*
X230886Y-140716D03*
X231648Y-87630D03*
X172212Y11938D03*
X159512Y13716D03*
X147066Y15748D03*
X147066Y27178D03*
X134366Y508D03*
X190500Y254D03*
X102108Y-8763D03*
D36*
X248526Y-151464D02*
X266526Y-151464D01*
X271526Y-156464D01*
D38*
X275844Y-2032D03*
X250190Y-184912D03*
X200406Y-227584D03*
X229616Y46990D03*
X78105Y-17526D03*
D36*
X259380Y-237698D02*
X259380Y-249164D01*
X268224Y-228854D02*
X278130Y-228854D01*
X268224Y-228854D02*
X259380Y-237698D01*
D38*
X208788Y121666D03*
X175514Y109982D03*
X260096Y124206D03*
D37*
X276352Y48006D02*
X276352Y42926D01*
X276352Y48006D02*
X302260Y73914D01*
D40*
X78105Y-17526D02*
X77978Y-17653D01*
X77978Y-100330D01*
X79248Y-101600D01*
D38*
X189484Y-276352D03*
X100076Y-148336D03*
X307340Y-184150D03*
X300228Y-250698D03*
X181356Y-125730D03*
X105156Y-254508D03*
X245618Y46482D03*
X301498Y-52070D03*
D39*
X248526Y-151464D02*
X241634Y-151464D01*
X230886Y-140716D01*
D38*
X104648Y-227584D03*
X135636Y97790D03*
D36*
X141986Y70154D02*
X168000Y44140D01*
X141986Y70154D02*
X141986Y91823D01*
X139605Y94204D01*
X139222Y94204D01*
X135636Y97790D01*
D38*
X143764Y105156D03*
D36*
X146050Y78090D02*
X168000Y56140D01*
X146050Y78090D02*
X146050Y93507D01*
X143764Y95793D01*
X143764Y105156D01*
X151638Y84502D02*
X168000Y68140D01*
X151638Y84502D02*
X151638Y98298D01*
D38*
X151638Y98298D03*
X153162Y107696D03*
D36*
X153162Y106074D01*
X158214Y101022D01*
X163428Y80140D02*
X168000Y80140D01*
X163428Y80140D02*
X158214Y85354D01*
X158214Y101022D01*
X168000Y92140D02*
X173142Y97282D01*
X175514Y97282D01*
D38*
X175514Y97282D03*
D36*
X188142Y97282D02*
X190754Y97282D01*
X188142Y97282D02*
X183000Y92140D01*
D38*
X190754Y97282D03*
D36*
X137922Y90140D02*
X120500Y90140D01*
X137922Y90140D02*
X137922Y65024D01*
X185420Y17526D01*
X257027Y10839D02*
X265938Y10818D01*
X257027Y10839D02*
X250340Y17526D01*
X185420Y17526D01*
X185270Y11072D02*
X220980Y11072D01*
X185270Y11072D02*
X133096Y63246D01*
X133096Y79140D01*
X120500Y79140D01*
X231784Y7366D02*
X238134Y7366D01*
X231784Y7366D02*
X228074Y11076D01*
X220980Y11072D01*
D37*
X213000Y33126D02*
X213000Y44140D01*
X213000Y33126D02*
X217127Y28999D01*
X277833Y28999D02*
X277876Y28956D01*
X277833Y28999D02*
X217127Y28999D01*
X277833Y28999D02*
X279865Y28999D01*
X279908Y28956D02*
X279908Y28448D01*
X279908Y28956D02*
X279865Y28999D01*
D38*
X279908Y28448D03*
X307693Y-17907D03*
D39*
X310832Y-21046D01*
X310832Y-128334D02*
X307291Y-131875D01*
X310832Y-128334D02*
X310832Y-21046D01*
D38*
X307291Y-131875D03*
X259842Y-124968D03*
D39*
X264414Y-124968D02*
X266526Y-127080D01*
X264414Y-124968D02*
X259842Y-124968D01*
X266526Y-127080D02*
X266526Y-133464D01*
D37*
X307693Y-17907D02*
X302895Y-13109D01*
X302895Y-2921D02*
X302260Y-2286D01*
X302895Y-2921D02*
X302895Y-13109D01*
X198000Y38728D02*
X198000Y44140D01*
X198000Y38728D02*
X211793Y24935D01*
X272448Y24935D01*
D38*
X280187Y18313D03*
X304645Y-26543D03*
D37*
X280187Y18313D02*
X279070Y18313D01*
X272448Y24935D01*
D39*
X304645Y-26543D02*
X307784Y-29682D01*
X307784Y-115888D01*
X300052Y-123620D01*
D38*
X300052Y-123620D03*
X274320Y-125158D03*
D39*
X271526Y-127952D01*
X271526Y-133464D01*
D37*
X304645Y-26543D02*
X297942Y-19840D01*
X290068Y-8545D02*
X290068Y4989D01*
X290068Y-8545D02*
X297942Y-16419D01*
X297942Y-19840D01*
X302260Y17181D02*
X302260Y23114D01*
X302260Y17181D02*
X290068Y4989D01*
D39*
X274290Y90140D02*
X260500Y90140D01*
X274290Y90140D02*
X276606Y92456D01*
X276606Y145796D01*
X302260Y171450D02*
X302260Y175514D01*
X302260Y171450D02*
X276606Y145796D01*
D40*
X191594Y-188468D02*
X191594Y-204978D01*
X191594Y-188468D02*
X198478Y-188468D01*
X233380Y-238714D02*
X233380Y-249164D01*
X191515Y-233425D02*
X191594Y-204978D01*
X191515Y-233425D02*
X196804Y-238714D01*
X233380Y-238714D01*
X233380Y-226718D01*
X239118Y-219964D02*
X239118Y-207772D01*
X240134Y-219964D02*
X233380Y-226718D01*
X238864Y-207518D02*
X238864Y-195580D01*
X238864Y-207518D02*
X239118Y-207772D01*
X238864Y-195580D02*
X238864Y-181182D01*
X248526Y-171520D01*
X266192Y-215646D02*
X261874Y-219964D01*
X266192Y-215646D02*
X266192Y-196298D01*
D41*
X257486Y-187592D01*
D40*
X261874Y-219964D02*
X240134Y-219964D01*
X239118Y-219964D01*
D37*
X257486Y-187592D02*
X257486Y-182956D01*
X256470Y-181940D01*
X256470Y-179520D02*
X256526Y-179464D01*
X256470Y-179520D02*
X256470Y-181940D01*
D36*
X239956Y-249088D02*
X239880Y-249164D01*
X239956Y-231902D02*
X240718Y-231140D01*
X239956Y-231902D02*
X239956Y-249088D01*
D38*
X240718Y-231140D03*
X236156Y-163830D03*
D36*
X238522Y-161464D02*
X248526Y-161464D01*
X238522Y-161464D02*
X236156Y-163830D01*
X246380Y-239776D02*
X246380Y-249164D01*
X250952Y-235204D02*
X250952Y-232156D01*
X251206Y-231902D01*
X250952Y-235204D02*
X246380Y-239776D01*
D38*
X251206Y-231902D03*
X232156Y-152400D03*
D36*
X236220Y-156464D02*
X248526Y-156464D01*
X236220Y-156464D02*
X232156Y-152400D01*
X261526Y-179464D02*
X261526Y-184910D01*
X262128Y-185512D01*
X295564Y-185512D01*
X300736Y-180340D02*
X300736Y-133604D01*
X300736Y-180340D02*
X295564Y-185512D01*
X184016Y44140D02*
X183000Y44140D01*
X261620Y-92202D02*
X261620Y-101600D01*
X261620Y-92202D02*
X263398Y-90424D01*
X263403Y-73152D01*
X289814Y-73152D01*
D37*
X289814Y-21336D01*
X282194Y-13716D01*
X282194Y5588D01*
D36*
X291846Y-124714D02*
X300736Y-133604D01*
X291846Y-124714D02*
X284734Y-124714D01*
X280924Y-120904D01*
X267208Y-107188D02*
X261620Y-101600D01*
X183000Y42926D02*
X183000Y44140D01*
D37*
X198649Y21379D02*
X268181Y21379D01*
X278130Y5588D02*
X282194Y5588D01*
X278130Y5588D02*
X274574Y9144D01*
X274574Y14986D01*
X268181Y21379D01*
X198649Y21379D02*
X183000Y37028D01*
X183000Y42926D01*
D36*
X267208Y-107188D02*
X277876Y-107188D01*
X280924Y-110236D02*
X280924Y-120904D01*
X280924Y-110236D02*
X277876Y-107188D01*
X299974Y-95908D02*
X300378Y-95504D01*
X299974Y-95908D02*
X299974Y-97148D01*
X300378Y-95504D02*
X300378Y-84836D01*
X204978Y-167132D02*
X198478Y-167132D01*
X204978Y-167132D02*
X204978Y-188468D01*
X204978Y-202034D01*
X206502Y-203558D01*
X211478Y-188468D02*
X224028Y-201018D01*
X224028Y-203304D01*
X223520Y-203812D01*
X174420Y-219304D02*
X174420Y-223950D01*
X181610Y-231140D01*
D38*
X181610Y-231140D03*
X214884Y-231394D03*
D36*
X214884Y-212448D02*
X223520Y-203812D01*
X214884Y-212448D02*
X214884Y-231394D01*
X186636Y-104140D02*
X181028Y-104140D01*
X170790Y-114378D01*
X170790Y-117426D01*
X212852Y-133326D02*
X212852Y-133454D01*
X212852Y-133326D02*
X197636Y-118110D01*
X196952Y-117426D02*
X170790Y-117426D01*
X180340Y-154940D02*
X179982Y-155298D01*
X179982Y-181610D01*
X170434Y-117782D02*
X170790Y-117426D01*
X170434Y-117782D02*
X170434Y-145034D01*
X180340Y-154940D01*
X179982Y-185090D02*
X169594Y-195478D01*
X179982Y-185090D02*
X179982Y-181610D01*
X211478Y-167132D02*
X211478Y-159385D01*
X195095Y-159385D01*
X179982Y-174498D01*
X179982Y-181610D01*
X197636Y-118110D02*
X197970Y-118110D01*
X197636Y-118110D02*
X196952Y-117426D01*
X198882Y-133708D02*
X189992Y-133708D01*
X187556Y-136144D01*
X180340Y-136144D01*
X157092Y-170434D02*
X157092Y-172736D01*
X165966Y-181610D02*
X166982Y-181610D01*
X165966Y-181610D02*
X161469Y-177113D01*
X157092Y-172736D01*
X152908Y-136144D02*
X165862Y-136144D01*
X165862Y-164204D01*
X172092Y-170434D01*
D42*
X122068Y-204288D02*
X142156Y-231554D01*
X122068Y-204288D02*
X122068Y-172066D01*
X122068Y-169270D01*
X136398Y-154940D02*
X152908Y-154940D01*
X136398Y-154940D02*
X133604Y-157734D01*
X122068Y-169270D01*
D39*
X133604Y-157734D02*
X133604Y-157376D01*
D36*
X227838Y-106276D02*
X227506Y-104140D01*
X211636Y-104140D01*
X233576Y-97688D02*
X246276Y-97688D01*
X233576Y-97688D02*
X227838Y-103426D01*
X227838Y-106276D01*
X180340Y-92964D02*
X166624Y-106680D01*
X160764Y-106680D01*
X151790Y-115558D01*
X151790Y-117426D01*
X212398Y-103378D02*
X212398Y-93980D01*
X212398Y-103378D02*
X211636Y-104140D01*
X212398Y-93980D02*
X211382Y-92964D01*
X180340Y-92964D01*
X227838Y-106530D02*
X237996Y-116688D01*
X227838Y-106530D02*
X227838Y-106276D01*
X237996Y-116688D02*
X246276Y-116688D01*
D38*
X212398Y-93980D03*
D39*
X260500Y112140D02*
X266596Y118236D01*
X266596Y186032D01*
X255270Y197358D02*
X255270Y197866D01*
X255270Y197358D02*
X266596Y186032D01*
X271320Y101140D02*
X260500Y101140D01*
X271320Y101140D02*
X272034Y101854D01*
X272034Y177038D01*
X280670Y185674D02*
X280670Y197866D01*
X280670Y185674D02*
X272034Y177038D01*
X233748Y68140D02*
X213000Y68140D01*
X233748Y68140D02*
X242062Y76454D01*
X242062Y110236D01*
X239268Y113030D01*
D38*
X239268Y113030D03*
D39*
X237750Y56140D02*
X213000Y56140D01*
X248412Y66802D02*
X248412Y122936D01*
D38*
X248412Y122936D03*
D39*
X248412Y66802D02*
X237750Y56140D01*
X260500Y57140D02*
X272024Y57140D01*
X289306Y74422D01*
X289306Y86360D02*
X302260Y99314D01*
X289306Y86360D02*
X289306Y74422D01*
X120500Y35140D02*
X107546Y35140D01*
X97044Y24638D01*
X88900Y24638D01*
X86995Y22733D02*
X78232Y22733D01*
X86995Y22733D02*
X88900Y24638D01*
X86956Y46140D02*
X120500Y46140D01*
X84963Y48133D02*
X78232Y48133D01*
X84963Y48133D02*
X86956Y46140D01*
X95260Y57140D02*
X120500Y57140D01*
X78867Y73533D02*
X78232Y73533D01*
X78867Y73533D02*
X95260Y57140D01*
X112200Y68140D02*
X120500Y68140D01*
X81407Y98933D02*
X78232Y98933D01*
X81407Y98933D02*
X112200Y68140D01*
X215190Y98854D02*
X218286Y101950D01*
X198000Y72664D02*
X198000Y68140D01*
X206334Y92950D02*
X212238Y98854D01*
X215190Y98854D01*
X206334Y80998D02*
X198000Y72664D01*
X206334Y80998D02*
X206334Y92950D01*
X218286Y101950D02*
X218286Y112868D01*
X163830Y129230D02*
X160528Y125928D01*
D38*
X160528Y125928D03*
D39*
X215615Y115539D02*
X218286Y112868D01*
X215615Y115539D02*
X215615Y124491D01*
X210876Y129230D01*
X163830Y129230D01*
X260500Y68140D02*
X273372Y68140D01*
X284988Y79756D02*
X284988Y110490D01*
X290068Y115570D01*
X284988Y79756D02*
X273372Y68140D01*
X293116Y115570D02*
X302260Y124714D01*
X293116Y115570D02*
X290068Y115570D01*
X230254Y80140D02*
X213000Y80140D01*
X230254Y80140D02*
X237744Y87630D01*
X237744Y98044D01*
X230632Y105156D01*
D38*
X230632Y105156D03*
D39*
X260500Y79140D02*
X276244Y79140D01*
X279654Y82550D01*
X279654Y127762D01*
X302006Y150114D02*
X302260Y150114D01*
X302006Y150114D02*
X279654Y127762D01*
D38*
X177292Y122654D03*
D39*
X198000Y84664D02*
X198000Y80140D01*
X197840Y122654D02*
X177292Y122654D01*
X197840Y122654D02*
X206334Y114160D01*
X203286Y97640D02*
X203286Y89950D01*
X203286Y97640D02*
X206334Y100688D01*
X203286Y89950D02*
X198000Y84664D01*
X206334Y100688D02*
X206334Y114160D01*
X213000Y92140D02*
X217826Y92140D01*
X222504Y96818D01*
X222504Y118364D01*
D38*
X222504Y118364D03*
X189992Y114808D03*
D39*
X198000Y96664D02*
X198000Y92140D01*
X198000Y96664D02*
X203286Y101950D01*
X203286Y109642D01*
X198120Y114808D01*
X189992Y114808D01*
X120500Y112140D02*
X102236Y112140D01*
X94996Y132969D02*
X78232Y149733D01*
X94996Y132969D02*
X94996Y119380D01*
X102236Y112140D01*
X101806Y101140D02*
X120500Y101140D01*
X78613Y124333D02*
X78232Y124333D01*
X78613Y124333D02*
X101806Y101140D01*
D42*
X135530Y-95426D02*
X135530Y-108604D01*
X122068Y-122066D01*
X135530Y-95426D02*
X161290Y-95426D01*
D39*
X247788Y-167202D02*
X248526Y-166464D01*
X247788Y-167202D02*
X245055Y-167202D01*
X241315Y-170942D01*
X225194Y-170942D02*
X224282Y-170030D01*
X225194Y-170942D02*
X241315Y-170942D01*
M02*
