M48
;GenerationSoftware,Autodesk,EAGLE,9.6.2*%
;CreationDate,2022-10-05T18:52:24Z*%
FMAT,2
ICI,OFF
METRIC,TZ,000.000
T3C0.200
T2C0.900
T1C2.000
%
G90
M71
T1
X9167Y65585
X38941Y65235
X9152Y43548
T2
X28896Y45167
X22096Y45167
T3
X35413Y50848
X33941Y50763
X26563Y46526
X25869Y44801
X24082Y45033
X22911Y48559
X24413Y58558
X11684Y43434
X12700Y61214
X21590Y42926
X37617Y42748
X39954Y47828
X36779Y52426
X37700Y48590
X30671Y42618
X25506Y42825
X13739Y43102
X30055Y48968
X31000Y51171
X31995Y51082
X29581Y56700
X36696Y51758
X17298Y45940
X16927Y47530
X23558Y52380
X25907Y53313
X22600Y51519
X21818Y50651
X22279Y50107
X21032Y56511
X13172Y56190
X22273Y48852
X18266Y59101
X18256Y57709
X35759Y43199
X37682Y46715
X37678Y47380
X35104Y44323
X32058Y43105
X25518Y54989
X25540Y55598
X25525Y56571
X22282Y59499
X35075Y60927
X22939Y59559
X37541Y58430
X23934Y59687
X37526Y57066
X29858Y55183
X27066Y58707
X37490Y53650
X18969Y56745
X28355Y56088
X25540Y57489
X37485Y54709
X20152Y59611
X37541Y63104
X33345Y51068
X27079Y57730
X34920Y52631
X34945Y54433
X30782Y49909
X25601Y58149
X35502Y52263
X35634Y54481
X29045Y42868
X35250Y48555
X31367Y46538
X26982Y42978
X34907Y50294
X30720Y48935
X18315Y56677
X20769Y57152
X37474Y55881
X21066Y57764
X37440Y59822
X20696Y58323
X37462Y62233
X21261Y59433
X37541Y60998
X29883Y54519
X35511Y49198
X29469Y48664
X31794Y43872
X32639Y50937
X32970Y48448
X33550Y47868
X32390Y47868
X32390Y49028
X33550Y49028
M30