G04 EAGLE Gerber RS-274X export*
G75*
%MOMM*%
%FSLAX34Y34*%
%LPD*%
%INTop Copper*%
%IPPOS*%
%AMOC8*
5,1,8,0,0,1.08239X$1,22.5*%
G01*
%ADD10R,1.508000X1.508000*%
%ADD11C,1.508000*%
%ADD12P,1.814519X8X22.500000*%
%ADD13P,1.814519X8X202.500000*%
%ADD14R,1.500000X1.500000*%
%ADD15P,1.649562X8X112.500000*%
%ADD16C,1.158000*%
%ADD17R,1.218000X1.218000*%
%ADD18C,1.218000*%
%ADD19C,0.254000*%
%ADD20C,1.270000*%
%ADD21C,1.016000*%
%ADD22C,0.756400*%
%ADD23C,0.203200*%

G36*
X584220Y115574D02*
X584220Y115574D01*
X584239Y115572D01*
X584341Y115594D01*
X584443Y115610D01*
X584460Y115620D01*
X584480Y115624D01*
X584569Y115677D01*
X584660Y115726D01*
X584674Y115740D01*
X584691Y115750D01*
X584758Y115829D01*
X584830Y115904D01*
X584838Y115922D01*
X584851Y115937D01*
X584890Y116033D01*
X584933Y116127D01*
X584935Y116147D01*
X584943Y116165D01*
X584961Y116332D01*
X584961Y244399D01*
X584947Y244489D01*
X584939Y244580D01*
X584927Y244610D01*
X584922Y244642D01*
X584879Y244723D01*
X584843Y244806D01*
X584817Y244839D01*
X584806Y244859D01*
X584783Y244881D01*
X584738Y244937D01*
X583011Y246664D01*
X582937Y246717D01*
X582868Y246777D01*
X582838Y246789D01*
X582812Y246808D01*
X582725Y246835D01*
X582640Y246869D01*
X582599Y246873D01*
X582577Y246880D01*
X582544Y246879D01*
X582473Y246887D01*
X327406Y246887D01*
X327386Y246884D01*
X327367Y246886D01*
X327265Y246864D01*
X327163Y246848D01*
X327146Y246838D01*
X327126Y246834D01*
X327037Y246781D01*
X326946Y246732D01*
X326932Y246718D01*
X326915Y246708D01*
X326848Y246629D01*
X326777Y246554D01*
X326768Y246536D01*
X326755Y246521D01*
X326716Y246425D01*
X326673Y246331D01*
X326671Y246311D01*
X326663Y246293D01*
X326645Y246126D01*
X326645Y214630D01*
X326648Y214610D01*
X326646Y214591D01*
X326668Y214489D01*
X326685Y214387D01*
X326694Y214370D01*
X326698Y214350D01*
X326751Y214261D01*
X326800Y214170D01*
X326814Y214156D01*
X326824Y214139D01*
X326903Y214072D01*
X326978Y214000D01*
X326996Y213992D01*
X327011Y213979D01*
X327107Y213940D01*
X327201Y213897D01*
X327221Y213895D01*
X327239Y213887D01*
X327406Y213869D01*
X465470Y213869D01*
X467330Y212009D01*
X507208Y172131D01*
X507266Y172089D01*
X507318Y172039D01*
X507365Y172017D01*
X507407Y171987D01*
X507476Y171966D01*
X507541Y171936D01*
X507593Y171930D01*
X507643Y171915D01*
X507714Y171917D01*
X507785Y171909D01*
X507836Y171920D01*
X507888Y171921D01*
X507956Y171946D01*
X508026Y171961D01*
X508071Y171988D01*
X508119Y172006D01*
X508175Y172050D01*
X508237Y172087D01*
X508271Y172127D01*
X508311Y172159D01*
X508350Y172220D01*
X508397Y172274D01*
X508416Y172322D01*
X508444Y172366D01*
X508462Y172436D01*
X508489Y172502D01*
X508497Y172574D01*
X508505Y172605D01*
X508503Y172628D01*
X508507Y172669D01*
X508507Y174161D01*
X508497Y174226D01*
X508496Y174292D01*
X508473Y174372D01*
X508468Y174404D01*
X508458Y174421D01*
X508449Y174453D01*
X508407Y174554D01*
X508407Y177182D01*
X509413Y179609D01*
X511271Y181467D01*
X511747Y181665D01*
X511847Y181726D01*
X511947Y181786D01*
X511951Y181791D01*
X511956Y181794D01*
X512031Y181884D01*
X512107Y181973D01*
X512109Y181979D01*
X512113Y181984D01*
X512155Y182092D01*
X512199Y182201D01*
X512200Y182209D01*
X512201Y182213D01*
X512202Y182232D01*
X512217Y182368D01*
X512217Y203850D01*
X514077Y205710D01*
X531858Y223490D01*
X531926Y223585D01*
X531996Y223679D01*
X531998Y223685D01*
X532001Y223690D01*
X532036Y223801D01*
X532072Y223913D01*
X532072Y223919D01*
X532074Y223925D01*
X532071Y224042D01*
X532069Y224159D01*
X532067Y224166D01*
X532067Y224171D01*
X532061Y224188D01*
X532023Y224320D01*
X531825Y224796D01*
X531825Y227424D01*
X532831Y229851D01*
X536812Y233833D01*
X536865Y233907D01*
X536925Y233976D01*
X536937Y234006D01*
X536956Y234033D01*
X536983Y234120D01*
X537017Y234204D01*
X537021Y234245D01*
X537028Y234268D01*
X537027Y234300D01*
X537035Y234371D01*
X537035Y235583D01*
X538415Y238915D01*
X540965Y241465D01*
X544297Y242845D01*
X547903Y242845D01*
X551235Y241465D01*
X553785Y238915D01*
X555165Y235583D01*
X555165Y231977D01*
X553785Y228645D01*
X551235Y226095D01*
X547903Y224715D01*
X546691Y224715D01*
X546601Y224701D01*
X546510Y224693D01*
X546480Y224681D01*
X546448Y224676D01*
X546368Y224633D01*
X546284Y224597D01*
X546252Y224571D01*
X546231Y224560D01*
X546209Y224537D01*
X546153Y224492D01*
X542171Y220511D01*
X539744Y219505D01*
X537116Y219505D01*
X536640Y219703D01*
X536526Y219729D01*
X536413Y219758D01*
X536406Y219757D01*
X536400Y219759D01*
X536284Y219748D01*
X536167Y219739D01*
X536162Y219736D01*
X536155Y219736D01*
X536048Y219688D01*
X535941Y219642D01*
X535935Y219638D01*
X535931Y219636D01*
X535917Y219623D01*
X535810Y219538D01*
X518030Y201757D01*
X517977Y201683D01*
X517917Y201614D01*
X517905Y201584D01*
X517886Y201558D01*
X517859Y201471D01*
X517825Y201386D01*
X517821Y201345D01*
X517814Y201323D01*
X517815Y201290D01*
X517807Y201219D01*
X517807Y182368D01*
X517826Y182253D01*
X517843Y182137D01*
X517845Y182131D01*
X517846Y182125D01*
X517901Y182023D01*
X517954Y181918D01*
X517959Y181913D01*
X517962Y181908D01*
X518046Y181828D01*
X518130Y181746D01*
X518136Y181742D01*
X518140Y181738D01*
X518157Y181731D01*
X518277Y181665D01*
X518753Y181467D01*
X520711Y179509D01*
X521717Y177082D01*
X521717Y167995D01*
X521731Y167905D01*
X521739Y167814D01*
X521751Y167784D01*
X521756Y167752D01*
X521799Y167671D01*
X521835Y167587D01*
X521861Y167555D01*
X521872Y167535D01*
X521895Y167513D01*
X521940Y167457D01*
X525019Y164378D01*
X525019Y156170D01*
X519216Y150367D01*
X511008Y150367D01*
X505205Y156170D01*
X505205Y158972D01*
X505203Y158988D01*
X505204Y159001D01*
X505195Y159046D01*
X505194Y159102D01*
X505171Y159182D01*
X505166Y159215D01*
X505156Y159232D01*
X505147Y159263D01*
X504062Y161883D01*
X504062Y165015D01*
X504558Y166211D01*
X504584Y166325D01*
X504613Y166438D01*
X504612Y166445D01*
X504614Y166451D01*
X504603Y166567D01*
X504594Y166684D01*
X504591Y166689D01*
X504591Y166696D01*
X504543Y166803D01*
X504497Y166910D01*
X504493Y166916D01*
X504491Y166920D01*
X504478Y166934D01*
X504393Y167041D01*
X463377Y208056D01*
X463303Y208109D01*
X463234Y208169D01*
X463204Y208181D01*
X463178Y208200D01*
X463091Y208227D01*
X463006Y208261D01*
X462965Y208265D01*
X462943Y208272D01*
X462910Y208271D01*
X462839Y208279D01*
X327406Y208279D01*
X327386Y208276D01*
X327367Y208278D01*
X327265Y208256D01*
X327163Y208240D01*
X327146Y208230D01*
X327126Y208226D01*
X327037Y208173D01*
X326946Y208124D01*
X326932Y208110D01*
X326915Y208100D01*
X326848Y208021D01*
X326777Y207946D01*
X326768Y207928D01*
X326755Y207913D01*
X326716Y207817D01*
X326673Y207723D01*
X326671Y207703D01*
X326663Y207685D01*
X326645Y207518D01*
X326645Y116332D01*
X326648Y116312D01*
X326646Y116293D01*
X326668Y116191D01*
X326685Y116089D01*
X326694Y116072D01*
X326698Y116052D01*
X326751Y115963D01*
X326800Y115872D01*
X326814Y115858D01*
X326824Y115841D01*
X326903Y115774D01*
X326978Y115702D01*
X326996Y115694D01*
X327011Y115681D01*
X327107Y115642D01*
X327201Y115599D01*
X327221Y115597D01*
X327239Y115589D01*
X327406Y115571D01*
X584200Y115571D01*
X584220Y115574D01*
G37*
%LPC*%
G36*
X358608Y123951D02*
X358608Y123951D01*
X352805Y129754D01*
X352805Y132313D01*
X352798Y132354D01*
X352799Y132358D01*
X352795Y132375D01*
X352791Y132403D01*
X352783Y132494D01*
X352771Y132524D01*
X352766Y132556D01*
X352749Y132587D01*
X352747Y132598D01*
X352721Y132642D01*
X352687Y132720D01*
X352661Y132752D01*
X352650Y132773D01*
X352631Y132792D01*
X352620Y132809D01*
X352606Y132821D01*
X352582Y132851D01*
X352480Y132953D01*
X351281Y135848D01*
X351281Y138980D01*
X351777Y140176D01*
X351803Y140290D01*
X351832Y140403D01*
X351831Y140410D01*
X351833Y140416D01*
X351822Y140532D01*
X351813Y140649D01*
X351810Y140654D01*
X351810Y140661D01*
X351762Y140768D01*
X351716Y140875D01*
X351712Y140881D01*
X351710Y140885D01*
X351697Y140899D01*
X351612Y141006D01*
X347299Y145318D01*
X347225Y145371D01*
X347156Y145431D01*
X347126Y145443D01*
X347100Y145462D01*
X347013Y145489D01*
X346928Y145523D01*
X346887Y145527D01*
X346865Y145534D01*
X346832Y145533D01*
X346761Y145541D01*
X344636Y145541D01*
X341741Y146740D01*
X339526Y148955D01*
X338327Y151850D01*
X338327Y152553D01*
X338313Y152643D01*
X338305Y152734D01*
X338293Y152764D01*
X338288Y152796D01*
X338245Y152877D01*
X338209Y152961D01*
X338183Y152993D01*
X338172Y153013D01*
X338149Y153035D01*
X338104Y153091D01*
X336295Y154900D01*
X336295Y163108D01*
X342098Y168911D01*
X350306Y168911D01*
X356109Y163108D01*
X356109Y154900D01*
X354300Y153091D01*
X354247Y153017D01*
X354187Y152948D01*
X354175Y152918D01*
X354156Y152892D01*
X354129Y152805D01*
X354095Y152720D01*
X354091Y152679D01*
X354084Y152657D01*
X354085Y152624D01*
X354077Y152553D01*
X354077Y151850D01*
X352878Y148955D01*
X352761Y148838D01*
X352749Y148822D01*
X352734Y148810D01*
X352705Y148765D01*
X352674Y148733D01*
X352654Y148690D01*
X352617Y148638D01*
X352611Y148619D01*
X352601Y148603D01*
X352585Y148541D01*
X352570Y148509D01*
X352567Y148474D01*
X352545Y148403D01*
X352545Y148383D01*
X352540Y148364D01*
X352546Y148291D01*
X352543Y148265D01*
X352549Y148239D01*
X352551Y148157D01*
X352558Y148139D01*
X352560Y148119D01*
X352591Y148044D01*
X352596Y148025D01*
X352606Y148007D01*
X352636Y147926D01*
X352648Y147911D01*
X352656Y147893D01*
X352761Y147762D01*
X355564Y144958D01*
X355659Y144890D01*
X355753Y144820D01*
X355759Y144818D01*
X355764Y144815D01*
X355876Y144780D01*
X355987Y144744D01*
X355993Y144744D01*
X355999Y144742D01*
X356116Y144745D01*
X356233Y144747D01*
X356240Y144749D01*
X356245Y144749D01*
X356262Y144755D01*
X356394Y144793D01*
X357590Y145289D01*
X360722Y145289D01*
X363617Y144090D01*
X363719Y143988D01*
X363793Y143935D01*
X363862Y143875D01*
X363892Y143863D01*
X363919Y143844D01*
X364006Y143817D01*
X364090Y143783D01*
X364131Y143779D01*
X364154Y143772D01*
X364186Y143773D01*
X364257Y143765D01*
X366816Y143765D01*
X372619Y137962D01*
X372619Y129754D01*
X366816Y123951D01*
X358608Y123951D01*
G37*
%LPD*%
%LPC*%
G36*
X537928Y173715D02*
X537928Y173715D01*
X537035Y174608D01*
X537035Y190952D01*
X537928Y191845D01*
X554272Y191845D01*
X555165Y190952D01*
X555165Y174608D01*
X554272Y173715D01*
X537928Y173715D01*
G37*
%LPD*%
%LPC*%
G36*
X367748Y173715D02*
X367748Y173715D01*
X366855Y174608D01*
X366855Y190952D01*
X367748Y191845D01*
X384092Y191845D01*
X384985Y190952D01*
X384985Y174608D01*
X384092Y173715D01*
X367748Y173715D01*
G37*
%LPD*%
%LPC*%
G36*
X528026Y123189D02*
X528026Y123189D01*
X522223Y128992D01*
X522223Y137200D01*
X528026Y143003D01*
X536234Y143003D01*
X542037Y137200D01*
X542037Y128992D01*
X536234Y123189D01*
X528026Y123189D01*
G37*
%LPD*%
%LPC*%
G36*
X374117Y224715D02*
X374117Y224715D01*
X370785Y226095D01*
X368235Y228645D01*
X366855Y231977D01*
X366855Y235583D01*
X368235Y238915D01*
X370785Y241465D01*
X374117Y242845D01*
X377723Y242845D01*
X381055Y241465D01*
X383605Y238915D01*
X384985Y235583D01*
X384985Y231977D01*
X383605Y228645D01*
X381055Y226095D01*
X377723Y224715D01*
X374117Y224715D01*
G37*
%LPD*%
%LPC*%
G36*
X567435Y161797D02*
X567435Y161797D01*
X567435Y171197D01*
X570436Y171197D01*
X576835Y164798D01*
X576835Y161797D01*
X567435Y161797D01*
G37*
%LPD*%
%LPC*%
G36*
X398525Y160527D02*
X398525Y160527D01*
X398525Y169927D01*
X401526Y169927D01*
X407925Y163528D01*
X407925Y160527D01*
X398525Y160527D01*
G37*
%LPD*%
%LPC*%
G36*
X389635Y135381D02*
X389635Y135381D01*
X389635Y144781D01*
X392636Y144781D01*
X399035Y138382D01*
X399035Y135381D01*
X389635Y135381D01*
G37*
%LPD*%
%LPC*%
G36*
X559053Y134619D02*
X559053Y134619D01*
X559053Y144019D01*
X562054Y144019D01*
X568453Y137620D01*
X568453Y134619D01*
X559053Y134619D01*
G37*
%LPD*%
%LPC*%
G36*
X554989Y161797D02*
X554989Y161797D01*
X554989Y164798D01*
X561388Y171197D01*
X564389Y171197D01*
X564389Y161797D01*
X554989Y161797D01*
G37*
%LPD*%
%LPC*%
G36*
X386079Y160527D02*
X386079Y160527D01*
X386079Y163528D01*
X392478Y169927D01*
X395479Y169927D01*
X395479Y160527D01*
X386079Y160527D01*
G37*
%LPD*%
%LPC*%
G36*
X567435Y149351D02*
X567435Y149351D01*
X567435Y158751D01*
X576835Y158751D01*
X576835Y155750D01*
X570436Y149351D01*
X567435Y149351D01*
G37*
%LPD*%
%LPC*%
G36*
X398525Y148081D02*
X398525Y148081D01*
X398525Y157481D01*
X407925Y157481D01*
X407925Y154480D01*
X401526Y148081D01*
X398525Y148081D01*
G37*
%LPD*%
%LPC*%
G36*
X377189Y135381D02*
X377189Y135381D01*
X377189Y138382D01*
X383588Y144781D01*
X386589Y144781D01*
X386589Y135381D01*
X377189Y135381D01*
G37*
%LPD*%
%LPC*%
G36*
X546607Y134619D02*
X546607Y134619D01*
X546607Y137620D01*
X553006Y144019D01*
X556007Y144019D01*
X556007Y134619D01*
X546607Y134619D01*
G37*
%LPD*%
%LPC*%
G36*
X389635Y122935D02*
X389635Y122935D01*
X389635Y132335D01*
X399035Y132335D01*
X399035Y129334D01*
X392636Y122935D01*
X389635Y122935D01*
G37*
%LPD*%
%LPC*%
G36*
X559053Y122173D02*
X559053Y122173D01*
X559053Y131573D01*
X568453Y131573D01*
X568453Y128572D01*
X562054Y122173D01*
X559053Y122173D01*
G37*
%LPD*%
%LPC*%
G36*
X561388Y149351D02*
X561388Y149351D01*
X554989Y155750D01*
X554989Y158751D01*
X564389Y158751D01*
X564389Y149351D01*
X561388Y149351D01*
G37*
%LPD*%
%LPC*%
G36*
X392478Y148081D02*
X392478Y148081D01*
X386079Y154480D01*
X386079Y157481D01*
X395479Y157481D01*
X395479Y148081D01*
X392478Y148081D01*
G37*
%LPD*%
%LPC*%
G36*
X383588Y122935D02*
X383588Y122935D01*
X377189Y129334D01*
X377189Y132335D01*
X386589Y132335D01*
X386589Y122935D01*
X383588Y122935D01*
G37*
%LPD*%
%LPC*%
G36*
X553006Y122173D02*
X553006Y122173D01*
X546607Y128572D01*
X546607Y131573D01*
X556007Y131573D01*
X556007Y122173D01*
X553006Y122173D01*
G37*
%LPD*%
%LPC*%
G36*
X565911Y160273D02*
X565911Y160273D01*
X565911Y160275D01*
X565913Y160275D01*
X565913Y160273D01*
X565911Y160273D01*
G37*
%LPD*%
%LPC*%
G36*
X397001Y159003D02*
X397001Y159003D01*
X397001Y159005D01*
X397003Y159005D01*
X397003Y159003D01*
X397001Y159003D01*
G37*
%LPD*%
%LPC*%
G36*
X388111Y133857D02*
X388111Y133857D01*
X388111Y133859D01*
X388113Y133859D01*
X388113Y133857D01*
X388111Y133857D01*
G37*
%LPD*%
%LPC*%
G36*
X557529Y133095D02*
X557529Y133095D01*
X557529Y133097D01*
X557531Y133097D01*
X557531Y133095D01*
X557529Y133095D01*
G37*
%LPD*%
D10*
X375920Y182780D03*
D11*
X375920Y233780D03*
D10*
X546100Y182780D03*
D11*
X546100Y233780D03*
D12*
X362712Y133858D03*
X388112Y133858D03*
X532130Y133096D03*
X557530Y133096D03*
D13*
X397002Y159004D03*
X346202Y159004D03*
X565912Y160274D03*
X515112Y160274D03*
D14*
X693140Y231140D03*
X658140Y231140D03*
X693140Y208280D03*
X658140Y208280D03*
X693140Y185420D03*
X658140Y185420D03*
D13*
X235712Y245415D03*
X184912Y245415D03*
X235864Y271170D03*
X185064Y271170D03*
X235763Y291592D03*
X184963Y291592D03*
D15*
X158496Y182118D03*
X158496Y207518D03*
X158496Y232918D03*
X158496Y258318D03*
X133096Y182118D03*
X133096Y207518D03*
X133096Y232918D03*
X133096Y258318D03*
D16*
X-355854Y246126D03*
X-355854Y233426D03*
X-355854Y220726D03*
X-355854Y208026D03*
X-355854Y195326D03*
X-355854Y182626D03*
X-355854Y169926D03*
X-355854Y157226D03*
X-355854Y144526D03*
X-355854Y131826D03*
X-368554Y131826D03*
X-368554Y144526D03*
X-368554Y157226D03*
X-368554Y169926D03*
X-368554Y182626D03*
X-368554Y195326D03*
X-368554Y208026D03*
X-368554Y220726D03*
X-368554Y233426D03*
X-368554Y246126D03*
D17*
X62992Y227330D03*
D18*
X50292Y227330D03*
X62992Y240030D03*
X50292Y240030D03*
X62992Y252730D03*
X50292Y252730D03*
X62992Y265430D03*
X50292Y265430D03*
X62992Y278130D03*
X50292Y278130D03*
X62992Y290830D03*
X50292Y290830D03*
X62992Y303530D03*
X50292Y303530D03*
X62992Y316230D03*
X50292Y316230D03*
D19*
X464312Y211074D02*
X511937Y163449D01*
X185420Y211074D02*
X164084Y232410D01*
X185420Y211074D02*
X464312Y211074D01*
D20*
X511937Y163449D02*
X515112Y160274D01*
D19*
X515012Y202692D02*
X538430Y226110D01*
X515012Y202692D02*
X515012Y175868D01*
D21*
X515112Y175768D02*
X515112Y160274D01*
X515112Y175768D02*
X515012Y175868D01*
X538430Y226110D02*
X546100Y233780D01*
X164084Y232410D02*
X159004Y232410D01*
X158496Y232918D01*
D22*
X-322580Y222250D03*
D19*
X-346456Y246126D01*
X-347980Y246126D01*
D21*
X-355854Y246126D01*
D19*
X648208Y185420D02*
X658140Y185420D01*
X648208Y185420D02*
X582574Y251054D01*
X241351Y251054D01*
X238735Y248437D01*
D20*
X235712Y245415D01*
D19*
X241300Y270662D02*
X585064Y270662D01*
X647446Y208280D02*
X658140Y208280D01*
X647446Y208280D02*
X585064Y270662D01*
D20*
X240792Y271170D02*
X235864Y271170D01*
X240792Y271170D02*
X241300Y270662D01*
D19*
X641401Y231140D02*
X658140Y231140D01*
X582168Y290373D02*
X240284Y290373D01*
X582168Y290373D02*
X641401Y231140D01*
D20*
X240284Y290373D02*
X238303Y292354D01*
X236525Y292354D02*
X235763Y291592D01*
X236525Y292354D02*
X238303Y292354D01*
D19*
X346202Y150368D02*
X359156Y137414D01*
X346202Y150368D02*
X346202Y153416D01*
D20*
X359156Y137414D02*
X362712Y133858D01*
X346202Y153416D02*
X346202Y159004D01*
D19*
X693140Y185420D02*
X693140Y196716D01*
X693140Y197460D02*
X693140Y208280D01*
X693140Y231140D01*
X647298Y196716D02*
X585493Y258521D01*
X647298Y196716D02*
X693140Y196716D01*
X585493Y258521D02*
X164338Y258521D01*
D21*
X158699Y258521D02*
X158496Y258318D01*
X158699Y258521D02*
X164338Y258521D01*
D19*
X553466Y145542D02*
X564642Y156718D01*
X553466Y145542D02*
X508000Y145542D01*
X486156Y167386D01*
D20*
X557530Y151892D02*
X565912Y160274D01*
X557530Y151892D02*
X557530Y139954D01*
X565912Y157988D02*
X565912Y160274D01*
X565912Y157988D02*
X564642Y156718D01*
D19*
X343916Y182118D02*
X166878Y182118D01*
X367030Y159004D02*
X384810Y159004D01*
X397002Y159004D01*
X367030Y159004D02*
X343916Y182118D01*
X393446Y150114D02*
X397002Y153670D01*
X393446Y139700D02*
X393700Y139446D01*
X393446Y139700D02*
X393446Y150114D01*
D20*
X392430Y159004D02*
X397002Y159004D01*
X397002Y153670D01*
D21*
X166116Y182118D02*
X158496Y182118D01*
D23*
X166116Y182118D02*
X166878Y182118D01*
D19*
X384810Y159004D02*
X393192Y167386D01*
X486156Y167386D01*
D21*
X556260Y134366D02*
X557530Y133096D01*
X556260Y134366D02*
X556260Y138684D01*
X557530Y139954D01*
X393700Y139446D02*
X388112Y133858D01*
D19*
X62992Y209550D02*
X62992Y221488D01*
X58166Y204724D02*
X25908Y204724D01*
D22*
X25908Y204724D03*
D19*
X58166Y204724D02*
X62992Y209550D01*
D22*
X339344Y230886D03*
D21*
X62992Y227330D02*
X62992Y240030D01*
X62992Y227330D02*
X62992Y221488D01*
D19*
X34544Y187198D02*
X29210Y181864D01*
X34544Y187198D02*
X77216Y187198D01*
X104648Y214630D01*
X104648Y237744D01*
X150906Y272542D02*
X178816Y272542D01*
X150906Y272542D02*
X145796Y267432D01*
X145796Y248412D01*
D20*
X134874Y235458D02*
X133096Y233680D01*
X134874Y235458D02*
X134874Y238506D01*
X180188Y271170D02*
X185064Y271170D01*
X180188Y271170D02*
X178816Y272542D01*
D19*
X135890Y238506D02*
X134874Y238506D01*
X142240Y244856D02*
X145796Y248412D01*
X142240Y244856D02*
X135890Y238506D01*
X111760Y244856D02*
X104648Y237744D01*
X111760Y244856D02*
X142240Y244856D01*
D21*
X-355600Y195580D02*
X-355854Y195326D01*
X-355600Y195580D02*
X-350520Y195580D01*
D19*
X-336804Y181864D01*
X29210Y181864D01*
X152908Y291592D02*
X179324Y291592D01*
D20*
X133858Y263398D02*
X133858Y259080D01*
D19*
X133858Y263398D02*
X133858Y272542D01*
X152908Y291592D01*
D20*
X179324Y291592D02*
X184963Y291592D01*
D19*
X133858Y272542D02*
X115062Y272542D01*
X97282Y254762D02*
X97282Y220472D01*
X97282Y254762D02*
X115062Y272542D01*
X34544Y195834D02*
X28956Y190246D01*
X34544Y195834D02*
X72644Y195834D01*
X97282Y220472D01*
D21*
X-355600Y220980D02*
X-355854Y220726D01*
X-355600Y220980D02*
X-347980Y220980D01*
D19*
X-317246Y190246D01*
X28956Y190246D01*
D20*
X179070Y245415D02*
X184912Y245415D01*
X179070Y245415D02*
X178901Y245584D01*
D19*
X145034Y219456D02*
X141478Y215900D01*
X145542Y238756D02*
X152201Y245415D01*
X184912Y245415D01*
X145542Y238756D02*
X145542Y219964D01*
X145034Y219456D01*
X123190Y219456D01*
X32512Y174752D02*
X-314960Y174752D01*
X32512Y174752D02*
X37338Y179578D01*
X83312Y179578D01*
X108712Y204978D01*
X108966Y205232D02*
X123190Y219456D01*
D21*
X133096Y207518D02*
X141478Y215900D01*
X-355600Y144780D02*
X-355854Y144526D01*
X-355600Y144780D02*
X-349250Y144780D01*
D19*
X-344932Y144780D01*
X-314960Y174752D01*
M02*
