G04 EAGLE Gerber RS-274X export*
G75*
%MOMM*%
%FSLAX34Y34*%
%LPD*%
%INSolderpaste Bottom*%
%IPPOS*%
%AMOC8*
5,1,8,0,0,1.08239X$1,22.5*%
G01*
%ADD10R,1.200000X1.800000*%
%ADD11R,0.700000X0.900000*%
%ADD12C,0.088500*%
%ADD13R,0.900000X0.700000*%
%ADD14C,0.065000*%


D10*
X250252Y63434D03*
X226252Y63434D03*
X226252Y23434D03*
X250252Y23434D03*
D11*
X236832Y5588D03*
X249832Y5588D03*
X239164Y89154D03*
X226164Y89154D03*
D12*
X168486Y-87052D02*
X168486Y-92068D01*
X168486Y-87052D02*
X179702Y-87052D01*
X179702Y-92068D01*
X168486Y-92068D01*
X168486Y-91227D02*
X179702Y-91227D01*
X179702Y-90386D02*
X168486Y-90386D01*
X168486Y-89545D02*
X179702Y-89545D01*
X179702Y-88704D02*
X168486Y-88704D01*
X168486Y-87863D02*
X179702Y-87863D01*
X143386Y-106052D02*
X143386Y-111068D01*
X143386Y-106052D02*
X154602Y-106052D01*
X154602Y-111068D01*
X143386Y-111068D01*
X143386Y-110227D02*
X154602Y-110227D01*
X154602Y-109386D02*
X143386Y-109386D01*
X143386Y-108545D02*
X154602Y-108545D01*
X154602Y-107704D02*
X143386Y-107704D01*
X143386Y-106863D02*
X154602Y-106863D01*
X168486Y-101568D02*
X168486Y-96552D01*
X179702Y-96552D01*
X179702Y-101568D01*
X168486Y-101568D01*
X168486Y-100727D02*
X179702Y-100727D01*
X179702Y-99886D02*
X168486Y-99886D01*
X168486Y-99045D02*
X179702Y-99045D01*
X179702Y-98204D02*
X168486Y-98204D01*
X168486Y-97363D02*
X179702Y-97363D01*
X168486Y-106052D02*
X168486Y-111068D01*
X168486Y-106052D02*
X179702Y-106052D01*
X179702Y-111068D01*
X168486Y-111068D01*
X168486Y-110227D02*
X179702Y-110227D01*
X179702Y-109386D02*
X168486Y-109386D01*
X168486Y-108545D02*
X179702Y-108545D01*
X179702Y-107704D02*
X168486Y-107704D01*
X168486Y-106863D02*
X179702Y-106863D01*
X143386Y-92068D02*
X143386Y-87052D01*
X154602Y-87052D01*
X154602Y-92068D01*
X143386Y-92068D01*
X143386Y-91227D02*
X154602Y-91227D01*
X154602Y-90386D02*
X143386Y-90386D01*
X143386Y-89545D02*
X154602Y-89545D01*
X154602Y-88704D02*
X143386Y-88704D01*
X143386Y-87863D02*
X154602Y-87863D01*
D13*
X108458Y36934D03*
X108458Y49934D03*
X211074Y64666D03*
X211074Y51666D03*
X191008Y-90274D03*
X191008Y-103274D03*
X133350Y-90528D03*
X133350Y-103528D03*
D14*
X137231Y9719D02*
X123481Y9719D01*
X123481Y11669D01*
X137231Y11669D01*
X137231Y9719D01*
X137231Y10336D02*
X123481Y10336D01*
X123481Y10953D02*
X137231Y10953D01*
X137231Y11570D02*
X123481Y11570D01*
X123481Y14719D02*
X137231Y14719D01*
X123481Y14719D02*
X123481Y16669D01*
X137231Y16669D01*
X137231Y14719D01*
X137231Y15336D02*
X123481Y15336D01*
X123481Y15953D02*
X137231Y15953D01*
X137231Y16570D02*
X123481Y16570D01*
X123481Y19719D02*
X137231Y19719D01*
X123481Y19719D02*
X123481Y21669D01*
X137231Y21669D01*
X137231Y19719D01*
X137231Y20336D02*
X123481Y20336D01*
X123481Y20953D02*
X137231Y20953D01*
X137231Y21570D02*
X123481Y21570D01*
X123481Y24719D02*
X137231Y24719D01*
X123481Y24719D02*
X123481Y26669D01*
X137231Y26669D01*
X137231Y24719D01*
X137231Y25336D02*
X123481Y25336D01*
X123481Y25953D02*
X137231Y25953D01*
X137231Y26570D02*
X123481Y26570D01*
X123481Y29719D02*
X137231Y29719D01*
X123481Y29719D02*
X123481Y31669D01*
X137231Y31669D01*
X137231Y29719D01*
X137231Y30336D02*
X123481Y30336D01*
X123481Y30953D02*
X137231Y30953D01*
X137231Y31570D02*
X123481Y31570D01*
X123481Y34719D02*
X137231Y34719D01*
X123481Y34719D02*
X123481Y36669D01*
X137231Y36669D01*
X137231Y34719D01*
X137231Y35336D02*
X123481Y35336D01*
X123481Y35953D02*
X137231Y35953D01*
X137231Y36570D02*
X123481Y36570D01*
X123481Y39719D02*
X137231Y39719D01*
X123481Y39719D02*
X123481Y41669D01*
X137231Y41669D01*
X137231Y39719D01*
X137231Y40336D02*
X123481Y40336D01*
X123481Y40953D02*
X137231Y40953D01*
X137231Y41570D02*
X123481Y41570D01*
X123481Y44719D02*
X137231Y44719D01*
X123481Y44719D02*
X123481Y46669D01*
X137231Y46669D01*
X137231Y44719D01*
X137231Y45336D02*
X123481Y45336D01*
X123481Y45953D02*
X137231Y45953D01*
X137231Y46570D02*
X123481Y46570D01*
X187381Y44719D02*
X201131Y44719D01*
X187381Y44719D02*
X187381Y46669D01*
X201131Y46669D01*
X201131Y44719D01*
X201131Y45336D02*
X187381Y45336D01*
X187381Y45953D02*
X201131Y45953D01*
X201131Y46570D02*
X187381Y46570D01*
X187381Y39719D02*
X201131Y39719D01*
X187381Y39719D02*
X187381Y41669D01*
X201131Y41669D01*
X201131Y39719D01*
X201131Y40336D02*
X187381Y40336D01*
X187381Y40953D02*
X201131Y40953D01*
X201131Y41570D02*
X187381Y41570D01*
X187381Y34719D02*
X201131Y34719D01*
X187381Y34719D02*
X187381Y36669D01*
X201131Y36669D01*
X201131Y34719D01*
X201131Y35336D02*
X187381Y35336D01*
X187381Y35953D02*
X201131Y35953D01*
X201131Y36570D02*
X187381Y36570D01*
X187381Y29719D02*
X201131Y29719D01*
X187381Y29719D02*
X187381Y31669D01*
X201131Y31669D01*
X201131Y29719D01*
X201131Y30336D02*
X187381Y30336D01*
X187381Y30953D02*
X201131Y30953D01*
X201131Y31570D02*
X187381Y31570D01*
X187381Y24719D02*
X201131Y24719D01*
X187381Y24719D02*
X187381Y26669D01*
X201131Y26669D01*
X201131Y24719D01*
X201131Y25336D02*
X187381Y25336D01*
X187381Y25953D02*
X201131Y25953D01*
X201131Y26570D02*
X187381Y26570D01*
X187381Y19719D02*
X201131Y19719D01*
X187381Y19719D02*
X187381Y21669D01*
X201131Y21669D01*
X201131Y19719D01*
X201131Y20336D02*
X187381Y20336D01*
X187381Y20953D02*
X201131Y20953D01*
X201131Y21570D02*
X187381Y21570D01*
X187381Y14719D02*
X201131Y14719D01*
X187381Y14719D02*
X187381Y16669D01*
X201131Y16669D01*
X201131Y14719D01*
X201131Y15336D02*
X187381Y15336D01*
X187381Y15953D02*
X201131Y15953D01*
X201131Y16570D02*
X187381Y16570D01*
X187381Y9719D02*
X201131Y9719D01*
X187381Y9719D02*
X187381Y11669D01*
X201131Y11669D01*
X201131Y9719D01*
X201131Y10336D02*
X187381Y10336D01*
X187381Y10953D02*
X201131Y10953D01*
X201131Y11570D02*
X187381Y11570D01*
X180781Y3119D02*
X180781Y-10631D01*
X178831Y-10631D01*
X178831Y3119D01*
X180781Y3119D01*
X180781Y-10014D02*
X178831Y-10014D01*
X178831Y-9397D02*
X180781Y-9397D01*
X180781Y-8780D02*
X178831Y-8780D01*
X178831Y-8163D02*
X180781Y-8163D01*
X180781Y-7546D02*
X178831Y-7546D01*
X178831Y-6929D02*
X180781Y-6929D01*
X180781Y-6312D02*
X178831Y-6312D01*
X178831Y-5695D02*
X180781Y-5695D01*
X180781Y-5078D02*
X178831Y-5078D01*
X178831Y-4461D02*
X180781Y-4461D01*
X180781Y-3844D02*
X178831Y-3844D01*
X178831Y-3227D02*
X180781Y-3227D01*
X180781Y-2610D02*
X178831Y-2610D01*
X178831Y-1993D02*
X180781Y-1993D01*
X180781Y-1376D02*
X178831Y-1376D01*
X178831Y-759D02*
X180781Y-759D01*
X180781Y-142D02*
X178831Y-142D01*
X178831Y475D02*
X180781Y475D01*
X180781Y1092D02*
X178831Y1092D01*
X178831Y1709D02*
X180781Y1709D01*
X180781Y2326D02*
X178831Y2326D01*
X178831Y2943D02*
X180781Y2943D01*
X175781Y3119D02*
X175781Y-10631D01*
X173831Y-10631D01*
X173831Y3119D01*
X175781Y3119D01*
X175781Y-10014D02*
X173831Y-10014D01*
X173831Y-9397D02*
X175781Y-9397D01*
X175781Y-8780D02*
X173831Y-8780D01*
X173831Y-8163D02*
X175781Y-8163D01*
X175781Y-7546D02*
X173831Y-7546D01*
X173831Y-6929D02*
X175781Y-6929D01*
X175781Y-6312D02*
X173831Y-6312D01*
X173831Y-5695D02*
X175781Y-5695D01*
X175781Y-5078D02*
X173831Y-5078D01*
X173831Y-4461D02*
X175781Y-4461D01*
X175781Y-3844D02*
X173831Y-3844D01*
X173831Y-3227D02*
X175781Y-3227D01*
X175781Y-2610D02*
X173831Y-2610D01*
X173831Y-1993D02*
X175781Y-1993D01*
X175781Y-1376D02*
X173831Y-1376D01*
X173831Y-759D02*
X175781Y-759D01*
X175781Y-142D02*
X173831Y-142D01*
X173831Y475D02*
X175781Y475D01*
X175781Y1092D02*
X173831Y1092D01*
X173831Y1709D02*
X175781Y1709D01*
X175781Y2326D02*
X173831Y2326D01*
X173831Y2943D02*
X175781Y2943D01*
X170781Y3119D02*
X170781Y-10631D01*
X168831Y-10631D01*
X168831Y3119D01*
X170781Y3119D01*
X170781Y-10014D02*
X168831Y-10014D01*
X168831Y-9397D02*
X170781Y-9397D01*
X170781Y-8780D02*
X168831Y-8780D01*
X168831Y-8163D02*
X170781Y-8163D01*
X170781Y-7546D02*
X168831Y-7546D01*
X168831Y-6929D02*
X170781Y-6929D01*
X170781Y-6312D02*
X168831Y-6312D01*
X168831Y-5695D02*
X170781Y-5695D01*
X170781Y-5078D02*
X168831Y-5078D01*
X168831Y-4461D02*
X170781Y-4461D01*
X170781Y-3844D02*
X168831Y-3844D01*
X168831Y-3227D02*
X170781Y-3227D01*
X170781Y-2610D02*
X168831Y-2610D01*
X168831Y-1993D02*
X170781Y-1993D01*
X170781Y-1376D02*
X168831Y-1376D01*
X168831Y-759D02*
X170781Y-759D01*
X170781Y-142D02*
X168831Y-142D01*
X168831Y475D02*
X170781Y475D01*
X170781Y1092D02*
X168831Y1092D01*
X168831Y1709D02*
X170781Y1709D01*
X170781Y2326D02*
X168831Y2326D01*
X168831Y2943D02*
X170781Y2943D01*
X165781Y3119D02*
X165781Y-10631D01*
X163831Y-10631D01*
X163831Y3119D01*
X165781Y3119D01*
X165781Y-10014D02*
X163831Y-10014D01*
X163831Y-9397D02*
X165781Y-9397D01*
X165781Y-8780D02*
X163831Y-8780D01*
X163831Y-8163D02*
X165781Y-8163D01*
X165781Y-7546D02*
X163831Y-7546D01*
X163831Y-6929D02*
X165781Y-6929D01*
X165781Y-6312D02*
X163831Y-6312D01*
X163831Y-5695D02*
X165781Y-5695D01*
X165781Y-5078D02*
X163831Y-5078D01*
X163831Y-4461D02*
X165781Y-4461D01*
X165781Y-3844D02*
X163831Y-3844D01*
X163831Y-3227D02*
X165781Y-3227D01*
X165781Y-2610D02*
X163831Y-2610D01*
X163831Y-1993D02*
X165781Y-1993D01*
X165781Y-1376D02*
X163831Y-1376D01*
X163831Y-759D02*
X165781Y-759D01*
X165781Y-142D02*
X163831Y-142D01*
X163831Y475D02*
X165781Y475D01*
X165781Y1092D02*
X163831Y1092D01*
X163831Y1709D02*
X165781Y1709D01*
X165781Y2326D02*
X163831Y2326D01*
X163831Y2943D02*
X165781Y2943D01*
X160781Y3119D02*
X160781Y-10631D01*
X158831Y-10631D01*
X158831Y3119D01*
X160781Y3119D01*
X160781Y-10014D02*
X158831Y-10014D01*
X158831Y-9397D02*
X160781Y-9397D01*
X160781Y-8780D02*
X158831Y-8780D01*
X158831Y-8163D02*
X160781Y-8163D01*
X160781Y-7546D02*
X158831Y-7546D01*
X158831Y-6929D02*
X160781Y-6929D01*
X160781Y-6312D02*
X158831Y-6312D01*
X158831Y-5695D02*
X160781Y-5695D01*
X160781Y-5078D02*
X158831Y-5078D01*
X158831Y-4461D02*
X160781Y-4461D01*
X160781Y-3844D02*
X158831Y-3844D01*
X158831Y-3227D02*
X160781Y-3227D01*
X160781Y-2610D02*
X158831Y-2610D01*
X158831Y-1993D02*
X160781Y-1993D01*
X160781Y-1376D02*
X158831Y-1376D01*
X158831Y-759D02*
X160781Y-759D01*
X160781Y-142D02*
X158831Y-142D01*
X158831Y475D02*
X160781Y475D01*
X160781Y1092D02*
X158831Y1092D01*
X158831Y1709D02*
X160781Y1709D01*
X160781Y2326D02*
X158831Y2326D01*
X158831Y2943D02*
X160781Y2943D01*
X155781Y3119D02*
X155781Y-10631D01*
X153831Y-10631D01*
X153831Y3119D01*
X155781Y3119D01*
X155781Y-10014D02*
X153831Y-10014D01*
X153831Y-9397D02*
X155781Y-9397D01*
X155781Y-8780D02*
X153831Y-8780D01*
X153831Y-8163D02*
X155781Y-8163D01*
X155781Y-7546D02*
X153831Y-7546D01*
X153831Y-6929D02*
X155781Y-6929D01*
X155781Y-6312D02*
X153831Y-6312D01*
X153831Y-5695D02*
X155781Y-5695D01*
X155781Y-5078D02*
X153831Y-5078D01*
X153831Y-4461D02*
X155781Y-4461D01*
X155781Y-3844D02*
X153831Y-3844D01*
X153831Y-3227D02*
X155781Y-3227D01*
X155781Y-2610D02*
X153831Y-2610D01*
X153831Y-1993D02*
X155781Y-1993D01*
X155781Y-1376D02*
X153831Y-1376D01*
X153831Y-759D02*
X155781Y-759D01*
X155781Y-142D02*
X153831Y-142D01*
X153831Y475D02*
X155781Y475D01*
X155781Y1092D02*
X153831Y1092D01*
X153831Y1709D02*
X155781Y1709D01*
X155781Y2326D02*
X153831Y2326D01*
X153831Y2943D02*
X155781Y2943D01*
X150781Y3119D02*
X150781Y-10631D01*
X148831Y-10631D01*
X148831Y3119D01*
X150781Y3119D01*
X150781Y-10014D02*
X148831Y-10014D01*
X148831Y-9397D02*
X150781Y-9397D01*
X150781Y-8780D02*
X148831Y-8780D01*
X148831Y-8163D02*
X150781Y-8163D01*
X150781Y-7546D02*
X148831Y-7546D01*
X148831Y-6929D02*
X150781Y-6929D01*
X150781Y-6312D02*
X148831Y-6312D01*
X148831Y-5695D02*
X150781Y-5695D01*
X150781Y-5078D02*
X148831Y-5078D01*
X148831Y-4461D02*
X150781Y-4461D01*
X150781Y-3844D02*
X148831Y-3844D01*
X148831Y-3227D02*
X150781Y-3227D01*
X150781Y-2610D02*
X148831Y-2610D01*
X148831Y-1993D02*
X150781Y-1993D01*
X150781Y-1376D02*
X148831Y-1376D01*
X148831Y-759D02*
X150781Y-759D01*
X150781Y-142D02*
X148831Y-142D01*
X148831Y475D02*
X150781Y475D01*
X150781Y1092D02*
X148831Y1092D01*
X148831Y1709D02*
X150781Y1709D01*
X150781Y2326D02*
X148831Y2326D01*
X148831Y2943D02*
X150781Y2943D01*
X145781Y3119D02*
X145781Y-10631D01*
X143831Y-10631D01*
X143831Y3119D01*
X145781Y3119D01*
X145781Y-10014D02*
X143831Y-10014D01*
X143831Y-9397D02*
X145781Y-9397D01*
X145781Y-8780D02*
X143831Y-8780D01*
X143831Y-8163D02*
X145781Y-8163D01*
X145781Y-7546D02*
X143831Y-7546D01*
X143831Y-6929D02*
X145781Y-6929D01*
X145781Y-6312D02*
X143831Y-6312D01*
X143831Y-5695D02*
X145781Y-5695D01*
X145781Y-5078D02*
X143831Y-5078D01*
X143831Y-4461D02*
X145781Y-4461D01*
X145781Y-3844D02*
X143831Y-3844D01*
X143831Y-3227D02*
X145781Y-3227D01*
X145781Y-2610D02*
X143831Y-2610D01*
X143831Y-1993D02*
X145781Y-1993D01*
X145781Y-1376D02*
X143831Y-1376D01*
X143831Y-759D02*
X145781Y-759D01*
X145781Y-142D02*
X143831Y-142D01*
X143831Y475D02*
X145781Y475D01*
X145781Y1092D02*
X143831Y1092D01*
X143831Y1709D02*
X145781Y1709D01*
X145781Y2326D02*
X143831Y2326D01*
X143831Y2943D02*
X145781Y2943D01*
X145781Y53269D02*
X145781Y67019D01*
X145781Y53269D02*
X143831Y53269D01*
X143831Y67019D01*
X145781Y67019D01*
X145781Y53886D02*
X143831Y53886D01*
X143831Y54503D02*
X145781Y54503D01*
X145781Y55120D02*
X143831Y55120D01*
X143831Y55737D02*
X145781Y55737D01*
X145781Y56354D02*
X143831Y56354D01*
X143831Y56971D02*
X145781Y56971D01*
X145781Y57588D02*
X143831Y57588D01*
X143831Y58205D02*
X145781Y58205D01*
X145781Y58822D02*
X143831Y58822D01*
X143831Y59439D02*
X145781Y59439D01*
X145781Y60056D02*
X143831Y60056D01*
X143831Y60673D02*
X145781Y60673D01*
X145781Y61290D02*
X143831Y61290D01*
X143831Y61907D02*
X145781Y61907D01*
X145781Y62524D02*
X143831Y62524D01*
X143831Y63141D02*
X145781Y63141D01*
X145781Y63758D02*
X143831Y63758D01*
X143831Y64375D02*
X145781Y64375D01*
X145781Y64992D02*
X143831Y64992D01*
X143831Y65609D02*
X145781Y65609D01*
X145781Y66226D02*
X143831Y66226D01*
X143831Y66843D02*
X145781Y66843D01*
X150781Y67019D02*
X150781Y53269D01*
X148831Y53269D01*
X148831Y67019D01*
X150781Y67019D01*
X150781Y53886D02*
X148831Y53886D01*
X148831Y54503D02*
X150781Y54503D01*
X150781Y55120D02*
X148831Y55120D01*
X148831Y55737D02*
X150781Y55737D01*
X150781Y56354D02*
X148831Y56354D01*
X148831Y56971D02*
X150781Y56971D01*
X150781Y57588D02*
X148831Y57588D01*
X148831Y58205D02*
X150781Y58205D01*
X150781Y58822D02*
X148831Y58822D01*
X148831Y59439D02*
X150781Y59439D01*
X150781Y60056D02*
X148831Y60056D01*
X148831Y60673D02*
X150781Y60673D01*
X150781Y61290D02*
X148831Y61290D01*
X148831Y61907D02*
X150781Y61907D01*
X150781Y62524D02*
X148831Y62524D01*
X148831Y63141D02*
X150781Y63141D01*
X150781Y63758D02*
X148831Y63758D01*
X148831Y64375D02*
X150781Y64375D01*
X150781Y64992D02*
X148831Y64992D01*
X148831Y65609D02*
X150781Y65609D01*
X150781Y66226D02*
X148831Y66226D01*
X148831Y66843D02*
X150781Y66843D01*
X155781Y67019D02*
X155781Y53269D01*
X153831Y53269D01*
X153831Y67019D01*
X155781Y67019D01*
X155781Y53886D02*
X153831Y53886D01*
X153831Y54503D02*
X155781Y54503D01*
X155781Y55120D02*
X153831Y55120D01*
X153831Y55737D02*
X155781Y55737D01*
X155781Y56354D02*
X153831Y56354D01*
X153831Y56971D02*
X155781Y56971D01*
X155781Y57588D02*
X153831Y57588D01*
X153831Y58205D02*
X155781Y58205D01*
X155781Y58822D02*
X153831Y58822D01*
X153831Y59439D02*
X155781Y59439D01*
X155781Y60056D02*
X153831Y60056D01*
X153831Y60673D02*
X155781Y60673D01*
X155781Y61290D02*
X153831Y61290D01*
X153831Y61907D02*
X155781Y61907D01*
X155781Y62524D02*
X153831Y62524D01*
X153831Y63141D02*
X155781Y63141D01*
X155781Y63758D02*
X153831Y63758D01*
X153831Y64375D02*
X155781Y64375D01*
X155781Y64992D02*
X153831Y64992D01*
X153831Y65609D02*
X155781Y65609D01*
X155781Y66226D02*
X153831Y66226D01*
X153831Y66843D02*
X155781Y66843D01*
X160781Y67019D02*
X160781Y53269D01*
X158831Y53269D01*
X158831Y67019D01*
X160781Y67019D01*
X160781Y53886D02*
X158831Y53886D01*
X158831Y54503D02*
X160781Y54503D01*
X160781Y55120D02*
X158831Y55120D01*
X158831Y55737D02*
X160781Y55737D01*
X160781Y56354D02*
X158831Y56354D01*
X158831Y56971D02*
X160781Y56971D01*
X160781Y57588D02*
X158831Y57588D01*
X158831Y58205D02*
X160781Y58205D01*
X160781Y58822D02*
X158831Y58822D01*
X158831Y59439D02*
X160781Y59439D01*
X160781Y60056D02*
X158831Y60056D01*
X158831Y60673D02*
X160781Y60673D01*
X160781Y61290D02*
X158831Y61290D01*
X158831Y61907D02*
X160781Y61907D01*
X160781Y62524D02*
X158831Y62524D01*
X158831Y63141D02*
X160781Y63141D01*
X160781Y63758D02*
X158831Y63758D01*
X158831Y64375D02*
X160781Y64375D01*
X160781Y64992D02*
X158831Y64992D01*
X158831Y65609D02*
X160781Y65609D01*
X160781Y66226D02*
X158831Y66226D01*
X158831Y66843D02*
X160781Y66843D01*
X165781Y67019D02*
X165781Y53269D01*
X163831Y53269D01*
X163831Y67019D01*
X165781Y67019D01*
X165781Y53886D02*
X163831Y53886D01*
X163831Y54503D02*
X165781Y54503D01*
X165781Y55120D02*
X163831Y55120D01*
X163831Y55737D02*
X165781Y55737D01*
X165781Y56354D02*
X163831Y56354D01*
X163831Y56971D02*
X165781Y56971D01*
X165781Y57588D02*
X163831Y57588D01*
X163831Y58205D02*
X165781Y58205D01*
X165781Y58822D02*
X163831Y58822D01*
X163831Y59439D02*
X165781Y59439D01*
X165781Y60056D02*
X163831Y60056D01*
X163831Y60673D02*
X165781Y60673D01*
X165781Y61290D02*
X163831Y61290D01*
X163831Y61907D02*
X165781Y61907D01*
X165781Y62524D02*
X163831Y62524D01*
X163831Y63141D02*
X165781Y63141D01*
X165781Y63758D02*
X163831Y63758D01*
X163831Y64375D02*
X165781Y64375D01*
X165781Y64992D02*
X163831Y64992D01*
X163831Y65609D02*
X165781Y65609D01*
X165781Y66226D02*
X163831Y66226D01*
X163831Y66843D02*
X165781Y66843D01*
X170781Y67019D02*
X170781Y53269D01*
X168831Y53269D01*
X168831Y67019D01*
X170781Y67019D01*
X170781Y53886D02*
X168831Y53886D01*
X168831Y54503D02*
X170781Y54503D01*
X170781Y55120D02*
X168831Y55120D01*
X168831Y55737D02*
X170781Y55737D01*
X170781Y56354D02*
X168831Y56354D01*
X168831Y56971D02*
X170781Y56971D01*
X170781Y57588D02*
X168831Y57588D01*
X168831Y58205D02*
X170781Y58205D01*
X170781Y58822D02*
X168831Y58822D01*
X168831Y59439D02*
X170781Y59439D01*
X170781Y60056D02*
X168831Y60056D01*
X168831Y60673D02*
X170781Y60673D01*
X170781Y61290D02*
X168831Y61290D01*
X168831Y61907D02*
X170781Y61907D01*
X170781Y62524D02*
X168831Y62524D01*
X168831Y63141D02*
X170781Y63141D01*
X170781Y63758D02*
X168831Y63758D01*
X168831Y64375D02*
X170781Y64375D01*
X170781Y64992D02*
X168831Y64992D01*
X168831Y65609D02*
X170781Y65609D01*
X170781Y66226D02*
X168831Y66226D01*
X168831Y66843D02*
X170781Y66843D01*
X175781Y67019D02*
X175781Y53269D01*
X173831Y53269D01*
X173831Y67019D01*
X175781Y67019D01*
X175781Y53886D02*
X173831Y53886D01*
X173831Y54503D02*
X175781Y54503D01*
X175781Y55120D02*
X173831Y55120D01*
X173831Y55737D02*
X175781Y55737D01*
X175781Y56354D02*
X173831Y56354D01*
X173831Y56971D02*
X175781Y56971D01*
X175781Y57588D02*
X173831Y57588D01*
X173831Y58205D02*
X175781Y58205D01*
X175781Y58822D02*
X173831Y58822D01*
X173831Y59439D02*
X175781Y59439D01*
X175781Y60056D02*
X173831Y60056D01*
X173831Y60673D02*
X175781Y60673D01*
X175781Y61290D02*
X173831Y61290D01*
X173831Y61907D02*
X175781Y61907D01*
X175781Y62524D02*
X173831Y62524D01*
X173831Y63141D02*
X175781Y63141D01*
X175781Y63758D02*
X173831Y63758D01*
X173831Y64375D02*
X175781Y64375D01*
X175781Y64992D02*
X173831Y64992D01*
X173831Y65609D02*
X175781Y65609D01*
X175781Y66226D02*
X173831Y66226D01*
X173831Y66843D02*
X175781Y66843D01*
X180781Y67019D02*
X180781Y53269D01*
X178831Y53269D01*
X178831Y67019D01*
X180781Y67019D01*
X180781Y53886D02*
X178831Y53886D01*
X178831Y54503D02*
X180781Y54503D01*
X180781Y55120D02*
X178831Y55120D01*
X178831Y55737D02*
X180781Y55737D01*
X180781Y56354D02*
X178831Y56354D01*
X178831Y56971D02*
X180781Y56971D01*
X180781Y57588D02*
X178831Y57588D01*
X178831Y58205D02*
X180781Y58205D01*
X180781Y58822D02*
X178831Y58822D01*
X178831Y59439D02*
X180781Y59439D01*
X180781Y60056D02*
X178831Y60056D01*
X178831Y60673D02*
X180781Y60673D01*
X180781Y61290D02*
X178831Y61290D01*
X178831Y61907D02*
X180781Y61907D01*
X180781Y62524D02*
X178831Y62524D01*
X178831Y63141D02*
X180781Y63141D01*
X180781Y63758D02*
X178831Y63758D01*
X178831Y64375D02*
X180781Y64375D01*
X180781Y64992D02*
X178831Y64992D01*
X178831Y65609D02*
X180781Y65609D01*
X180781Y66226D02*
X178831Y66226D01*
X178831Y66843D02*
X180781Y66843D01*
D13*
X100584Y4930D03*
X100584Y17930D03*
M02*
