G04 EAGLE Gerber RS-274X export*
G75*
%MOMM*%
%FSLAX34Y34*%
%LPD*%
%INBottom Copper*%
%IPPOS*%
%AMOC8*
5,1,8,0,0,1.08239X$1,22.5*%
G01*
%ADD10R,1.800000X1.200000*%
%ADD11R,0.350000X0.250000*%
%ADD12C,0.088500*%
%ADD13R,0.250000X0.350000*%
%ADD14C,0.065000*%
%ADD15C,0.504800*%
%ADD16R,2.032000X1.270000*%
%ADD17R,1.000000X0.650000*%
%ADD18R,0.650000X1.000000*%
%ADD19R,1.168400X1.600200*%
%ADD20C,0.700000*%
%ADD21R,1.400000X1.400000*%
%ADD22R,1.600200X1.168400*%
%ADD23R,0.500000X0.600000*%
%ADD24C,0.254000*%
%ADD25C,0.152400*%
%ADD26C,0.101600*%
%ADD27C,0.508000*%

G36*
X351196Y306885D02*
X351196Y306885D01*
X351213Y306884D01*
X355052Y307019D01*
X355058Y307020D01*
X355063Y307019D01*
X355229Y307046D01*
X358402Y307927D01*
X358509Y307976D01*
X358617Y308024D01*
X358621Y308028D01*
X358626Y308030D01*
X358711Y308111D01*
X358798Y308190D01*
X358800Y308195D01*
X358804Y308199D01*
X358859Y308302D01*
X358916Y308406D01*
X358917Y308411D01*
X358920Y308416D01*
X358939Y308532D01*
X358960Y308648D01*
X358959Y308653D01*
X358960Y308659D01*
X358941Y308775D01*
X358924Y308891D01*
X358922Y308896D01*
X358921Y308902D01*
X358866Y309005D01*
X358813Y309110D01*
X358809Y309114D01*
X358806Y309119D01*
X358721Y309200D01*
X358637Y309283D01*
X358631Y309286D01*
X358628Y309289D01*
X358613Y309296D01*
X358490Y309364D01*
X354948Y310831D01*
X351420Y314359D01*
X349511Y318968D01*
X349511Y323957D01*
X351420Y328566D01*
X354948Y332094D01*
X359557Y334003D01*
X364546Y334003D01*
X369155Y332094D01*
X372683Y328566D01*
X374592Y323957D01*
X374592Y323798D01*
X374610Y323689D01*
X374624Y323579D01*
X374630Y323568D01*
X374632Y323555D01*
X374684Y323458D01*
X374732Y323358D01*
X374741Y323349D01*
X374747Y323338D01*
X374827Y323262D01*
X374905Y323183D01*
X374916Y323177D01*
X374926Y323169D01*
X375026Y323122D01*
X375124Y323072D01*
X375137Y323070D01*
X375149Y323065D01*
X375258Y323053D01*
X375368Y323037D01*
X375380Y323039D01*
X375393Y323038D01*
X375501Y323061D01*
X375610Y323081D01*
X375621Y323087D01*
X375633Y323090D01*
X375729Y323147D01*
X375825Y323200D01*
X375834Y323210D01*
X375845Y323216D01*
X375917Y323301D01*
X375991Y323382D01*
X375998Y323395D01*
X376004Y323403D01*
X376015Y323429D01*
X376067Y323532D01*
X377553Y327510D01*
X377554Y327516D01*
X377557Y327521D01*
X377596Y327684D01*
X378073Y331574D01*
X378072Y331604D01*
X378078Y331666D01*
X378195Y652625D01*
X378192Y652644D01*
X378194Y652664D01*
X378172Y652765D01*
X378155Y652867D01*
X378146Y652885D01*
X378142Y652905D01*
X378089Y652993D01*
X378040Y653085D01*
X378026Y653099D01*
X378016Y653116D01*
X377937Y653183D01*
X377862Y653254D01*
X377844Y653263D01*
X377829Y653276D01*
X377733Y653314D01*
X377639Y653358D01*
X377619Y653360D01*
X377601Y653368D01*
X377434Y653386D01*
X376853Y653386D01*
X376853Y658439D01*
X376849Y658458D01*
X376852Y658478D01*
X376830Y658579D01*
X376813Y658681D01*
X376804Y658699D01*
X376799Y658718D01*
X376746Y658807D01*
X376698Y658899D01*
X376683Y658912D01*
X376673Y658930D01*
X376669Y658933D01*
X376721Y658987D01*
X376729Y659005D01*
X376742Y659020D01*
X376781Y659116D01*
X376825Y659210D01*
X376827Y659230D01*
X376834Y659248D01*
X376853Y659415D01*
X376853Y664468D01*
X377438Y664468D01*
X377458Y664471D01*
X377478Y664469D01*
X377579Y664491D01*
X377681Y664507D01*
X377699Y664517D01*
X377718Y664521D01*
X377807Y664574D01*
X377899Y664622D01*
X377912Y664637D01*
X377929Y664647D01*
X377997Y664726D01*
X378068Y664801D01*
X378076Y664819D01*
X378089Y664834D01*
X378128Y664930D01*
X378172Y665024D01*
X378174Y665043D01*
X378181Y665062D01*
X378200Y665229D01*
X378203Y674802D01*
X378200Y674821D01*
X378202Y674841D01*
X378180Y674942D01*
X378163Y675044D01*
X378154Y675062D01*
X378150Y675082D01*
X378097Y675170D01*
X378049Y675262D01*
X378034Y675276D01*
X378024Y675293D01*
X377945Y675360D01*
X377870Y675431D01*
X377852Y675440D01*
X377837Y675453D01*
X377741Y675491D01*
X377647Y675535D01*
X377627Y675537D01*
X377609Y675545D01*
X377442Y675563D01*
X365716Y675563D01*
X365651Y675552D01*
X365585Y675552D01*
X365505Y675529D01*
X365473Y675523D01*
X365456Y675514D01*
X365424Y675505D01*
X364724Y675215D01*
X359735Y675215D01*
X359035Y675505D01*
X358971Y675520D01*
X358910Y675545D01*
X358827Y675554D01*
X358795Y675561D01*
X358776Y675559D01*
X358743Y675563D01*
X314909Y675563D01*
X314889Y675560D01*
X314870Y675562D01*
X314768Y675540D01*
X314666Y675523D01*
X314649Y675514D01*
X314629Y675510D01*
X314540Y675457D01*
X314449Y675408D01*
X314435Y675394D01*
X314418Y675384D01*
X314351Y675305D01*
X314280Y675230D01*
X314271Y675212D01*
X314258Y675197D01*
X314220Y675100D01*
X314176Y675007D01*
X314174Y674987D01*
X314166Y674969D01*
X314148Y674802D01*
X314148Y673043D01*
X312957Y671852D01*
X306779Y671852D01*
X306689Y671837D01*
X306598Y671830D01*
X306568Y671818D01*
X306536Y671812D01*
X306455Y671770D01*
X306371Y671734D01*
X306339Y671708D01*
X306319Y671697D01*
X306296Y671674D01*
X306240Y671629D01*
X304874Y670263D01*
X304821Y670189D01*
X304761Y670119D01*
X304749Y670089D01*
X304730Y670063D01*
X304704Y669976D01*
X304669Y669891D01*
X304665Y669850D01*
X304658Y669828D01*
X304659Y669796D01*
X304651Y669724D01*
X304651Y667362D01*
X304654Y667342D01*
X304652Y667323D01*
X304674Y667221D01*
X304691Y667119D01*
X304700Y667102D01*
X304704Y667082D01*
X304757Y666993D01*
X304806Y666902D01*
X304820Y666888D01*
X304830Y666871D01*
X304909Y666804D01*
X304984Y666733D01*
X305002Y666724D01*
X305017Y666711D01*
X305114Y666673D01*
X305207Y666629D01*
X305227Y666627D01*
X305245Y666619D01*
X305412Y666601D01*
X323544Y666601D01*
X323634Y666616D01*
X323725Y666623D01*
X323755Y666635D01*
X323787Y666641D01*
X323868Y666683D01*
X323952Y666719D01*
X323984Y666745D01*
X324004Y666756D01*
X324027Y666779D01*
X324083Y666824D01*
X330408Y673149D01*
X345370Y673149D01*
X348971Y669548D01*
X348971Y669056D01*
X348983Y668986D01*
X348985Y668914D01*
X349003Y668865D01*
X349011Y668814D01*
X349045Y668750D01*
X349069Y668683D01*
X349102Y668642D01*
X349126Y668596D01*
X349178Y668547D01*
X349223Y668491D01*
X349267Y668463D01*
X349305Y668427D01*
X349370Y668397D01*
X349430Y668358D01*
X349480Y668345D01*
X349528Y668323D01*
X349599Y668315D01*
X349668Y668298D01*
X349720Y668302D01*
X349772Y668296D01*
X349842Y668311D01*
X349914Y668317D01*
X349961Y668337D01*
X350012Y668348D01*
X350074Y668385D01*
X350140Y668413D01*
X350196Y668458D01*
X350224Y668475D01*
X350239Y668492D01*
X350271Y668518D01*
X350342Y668589D01*
X352877Y668589D01*
X352967Y668604D01*
X353058Y668611D01*
X353088Y668623D01*
X353120Y668629D01*
X353201Y668671D01*
X353285Y668707D01*
X353317Y668733D01*
X353337Y668744D01*
X353360Y668767D01*
X353416Y668812D01*
X354428Y669824D01*
X357120Y669824D01*
X357210Y669839D01*
X357301Y669846D01*
X357331Y669859D01*
X357363Y669864D01*
X357444Y669907D01*
X357528Y669942D01*
X357560Y669968D01*
X357580Y669979D01*
X357602Y670002D01*
X357658Y670047D01*
X360427Y672816D01*
X364590Y672816D01*
X367105Y670301D01*
X367179Y670248D01*
X367249Y670189D01*
X367279Y670176D01*
X367305Y670158D01*
X367392Y670131D01*
X367477Y670097D01*
X367518Y670092D01*
X367540Y670085D01*
X367572Y670086D01*
X367643Y670078D01*
X368053Y670078D01*
X372416Y665716D01*
X372416Y665229D01*
X372419Y665209D01*
X372417Y665189D01*
X372439Y665088D01*
X372455Y664986D01*
X372465Y664969D01*
X372469Y664949D01*
X372522Y664860D01*
X372570Y664769D01*
X372585Y664755D01*
X372595Y664738D01*
X372674Y664671D01*
X372749Y664599D01*
X372767Y664591D01*
X372782Y664578D01*
X372878Y664539D01*
X372972Y664496D01*
X372992Y664494D01*
X373010Y664486D01*
X373177Y664468D01*
X374354Y664468D01*
X374354Y659415D01*
X374357Y659395D01*
X374355Y659376D01*
X374377Y659274D01*
X374394Y659172D01*
X374403Y659155D01*
X374407Y659135D01*
X374461Y659046D01*
X374509Y658955D01*
X374523Y658941D01*
X374534Y658924D01*
X374537Y658921D01*
X374486Y658867D01*
X374477Y658849D01*
X374465Y658834D01*
X374426Y658737D01*
X374382Y658644D01*
X374380Y658624D01*
X374373Y658605D01*
X374354Y658439D01*
X374354Y654593D01*
X374369Y654503D01*
X374376Y654412D01*
X374389Y654382D01*
X374394Y654350D01*
X374437Y654270D01*
X374472Y654186D01*
X374498Y654154D01*
X374509Y654133D01*
X374532Y654111D01*
X374577Y654055D01*
X375108Y653524D01*
X375108Y531640D01*
X373545Y530077D01*
X355073Y511605D01*
X355031Y511546D01*
X354981Y511494D01*
X354959Y511447D01*
X354929Y511405D01*
X354908Y511336D01*
X354878Y511271D01*
X354872Y511220D01*
X354857Y511170D01*
X354859Y511098D01*
X354851Y511027D01*
X354862Y510976D01*
X354863Y510924D01*
X354888Y510857D01*
X354903Y510787D01*
X354930Y510742D01*
X354947Y510693D01*
X354992Y510637D01*
X355029Y510575D01*
X355069Y510542D01*
X355101Y510501D01*
X355161Y510462D01*
X355216Y510416D01*
X355264Y510396D01*
X355308Y510368D01*
X355378Y510350D01*
X355444Y510324D01*
X355515Y510316D01*
X355547Y510308D01*
X355570Y510310D01*
X355611Y510305D01*
X368010Y510305D01*
X374041Y504274D01*
X374041Y422999D01*
X368339Y417297D01*
X350386Y417297D01*
X350367Y417294D01*
X350347Y417296D01*
X350245Y417274D01*
X350143Y417257D01*
X350126Y417248D01*
X350106Y417244D01*
X350017Y417191D01*
X349926Y417142D01*
X349912Y417128D01*
X349895Y417118D01*
X349828Y417039D01*
X349757Y416964D01*
X349748Y416946D01*
X349735Y416931D01*
X349697Y416834D01*
X349653Y416741D01*
X349651Y416721D01*
X349643Y416703D01*
X349625Y416536D01*
X349625Y416115D01*
X348732Y415222D01*
X329469Y415222D01*
X328575Y416115D01*
X328575Y429378D01*
X329469Y430271D01*
X341392Y430271D01*
X341482Y430286D01*
X341573Y430293D01*
X341603Y430306D01*
X341635Y430311D01*
X341716Y430354D01*
X341799Y430389D01*
X341832Y430415D01*
X341852Y430426D01*
X341874Y430449D01*
X341930Y430494D01*
X346223Y434787D01*
X346276Y434861D01*
X346335Y434930D01*
X346348Y434960D01*
X346366Y434986D01*
X346393Y435073D01*
X346427Y435158D01*
X346432Y435199D01*
X346439Y435221D01*
X346438Y435254D01*
X346446Y435325D01*
X346446Y436370D01*
X346982Y436906D01*
X347024Y436964D01*
X347073Y437016D01*
X347095Y437064D01*
X347126Y437106D01*
X347147Y437174D01*
X347177Y437239D01*
X347183Y437291D01*
X347198Y437341D01*
X347196Y437413D01*
X347204Y437484D01*
X347193Y437535D01*
X347192Y437587D01*
X347167Y437654D01*
X347152Y437724D01*
X347125Y437769D01*
X347107Y437818D01*
X347062Y437874D01*
X347025Y437935D01*
X346986Y437969D01*
X346953Y438010D01*
X346893Y438049D01*
X346839Y438095D01*
X346790Y438115D01*
X346746Y438143D01*
X346677Y438160D01*
X346610Y438187D01*
X346539Y438195D01*
X346508Y438203D01*
X346485Y438201D01*
X346444Y438206D01*
X340623Y438206D01*
X340623Y445223D01*
X350641Y445223D01*
X350641Y440412D01*
X350450Y439700D01*
X350438Y439581D01*
X350425Y439464D01*
X350426Y439459D01*
X350426Y439455D01*
X350452Y439339D01*
X350478Y439223D01*
X350480Y439220D01*
X350481Y439216D01*
X350543Y439114D01*
X350604Y439012D01*
X350607Y439009D01*
X350609Y439006D01*
X350700Y438930D01*
X350791Y438852D01*
X350795Y438851D01*
X350798Y438848D01*
X350907Y438805D01*
X351019Y438760D01*
X351024Y438760D01*
X351027Y438758D01*
X351040Y438758D01*
X351185Y438742D01*
X352172Y438742D01*
X354543Y436370D01*
X354543Y433016D01*
X352682Y431155D01*
X352668Y431135D01*
X352649Y431120D01*
X352596Y431036D01*
X352539Y430955D01*
X352532Y430932D01*
X352519Y430912D01*
X352495Y430815D01*
X352466Y430720D01*
X352467Y430696D01*
X352461Y430673D01*
X352464Y430639D01*
X352455Y430641D01*
X352431Y430640D01*
X352390Y430644D01*
X350301Y430644D01*
X350210Y430630D01*
X350120Y430622D01*
X350090Y430610D01*
X350058Y430605D01*
X349977Y430562D01*
X349893Y430526D01*
X349861Y430500D01*
X349840Y430489D01*
X349818Y430466D01*
X349762Y430421D01*
X349710Y430369D01*
X349699Y430353D01*
X349683Y430341D01*
X349627Y430253D01*
X349567Y430170D01*
X349561Y430151D01*
X349550Y430134D01*
X349525Y430033D01*
X349494Y429934D01*
X349495Y429915D01*
X349490Y429895D01*
X349498Y429792D01*
X349501Y429689D01*
X349508Y429670D01*
X349509Y429650D01*
X349549Y429555D01*
X349585Y429458D01*
X349598Y429442D01*
X349605Y429424D01*
X349625Y429399D01*
X349625Y423648D01*
X349628Y423628D01*
X349626Y423608D01*
X349648Y423507D01*
X349665Y423405D01*
X349674Y423387D01*
X349678Y423368D01*
X349731Y423279D01*
X349780Y423188D01*
X349794Y423174D01*
X349804Y423157D01*
X349883Y423089D01*
X349958Y423018D01*
X349976Y423010D01*
X349991Y422997D01*
X350088Y422958D01*
X350181Y422915D01*
X350201Y422912D01*
X350219Y422905D01*
X350386Y422887D01*
X352184Y422887D01*
X352278Y422902D01*
X352373Y422910D01*
X352399Y422922D01*
X352426Y422926D01*
X352511Y422971D01*
X352598Y423009D01*
X352619Y423028D01*
X352644Y423041D01*
X352709Y423110D01*
X352780Y423175D01*
X352794Y423199D01*
X352813Y423220D01*
X352853Y423306D01*
X352900Y423389D01*
X352905Y423417D01*
X352917Y423443D01*
X352927Y423538D01*
X352945Y423631D01*
X352941Y423659D01*
X352944Y423687D01*
X352924Y423780D01*
X352910Y423875D01*
X352896Y423907D01*
X352892Y423928D01*
X352875Y423956D01*
X352843Y424028D01*
X352651Y424361D01*
X352478Y425007D01*
X352478Y425830D01*
X356768Y425830D01*
X356769Y425830D01*
X361059Y425830D01*
X361059Y425007D01*
X360886Y424361D01*
X360694Y424028D01*
X360660Y423939D01*
X360620Y423853D01*
X360617Y423825D01*
X360607Y423798D01*
X360603Y423703D01*
X360593Y423608D01*
X360599Y423581D01*
X360598Y423553D01*
X360625Y423461D01*
X360645Y423368D01*
X360660Y423344D01*
X360668Y423317D01*
X360722Y423239D01*
X360771Y423157D01*
X360793Y423138D01*
X360809Y423115D01*
X360886Y423059D01*
X360958Y422997D01*
X360984Y422986D01*
X361007Y422970D01*
X361098Y422941D01*
X361186Y422905D01*
X361222Y422901D01*
X361241Y422895D01*
X361274Y422895D01*
X361353Y422887D01*
X365708Y422887D01*
X365798Y422901D01*
X365889Y422908D01*
X365919Y422921D01*
X365951Y422926D01*
X366032Y422969D01*
X366116Y423005D01*
X366148Y423030D01*
X366168Y423041D01*
X366191Y423065D01*
X366247Y423109D01*
X368229Y425092D01*
X368282Y425166D01*
X368341Y425235D01*
X368353Y425265D01*
X368372Y425291D01*
X368399Y425378D01*
X368406Y425396D01*
X368424Y425433D01*
X368424Y425441D01*
X368433Y425463D01*
X368438Y425504D01*
X368445Y425526D01*
X368444Y425559D01*
X368452Y425630D01*
X368452Y453350D01*
X368448Y453370D01*
X368451Y453390D01*
X368429Y453491D01*
X368412Y453593D01*
X368403Y453611D01*
X368398Y453630D01*
X368345Y453719D01*
X368297Y453811D01*
X368282Y453824D01*
X368272Y453841D01*
X368193Y453909D01*
X368118Y453980D01*
X368100Y453988D01*
X368085Y454001D01*
X367989Y454040D01*
X367895Y454084D01*
X367876Y454086D01*
X367857Y454093D01*
X367690Y454112D01*
X351357Y454112D01*
X351241Y454093D01*
X351122Y454075D01*
X351118Y454073D01*
X351114Y454072D01*
X351010Y454017D01*
X350903Y453962D01*
X350900Y453959D01*
X350897Y453957D01*
X350815Y453871D01*
X350732Y453785D01*
X350730Y453781D01*
X350727Y453778D01*
X350677Y453671D01*
X350626Y453563D01*
X350625Y453559D01*
X350624Y453555D01*
X350611Y453437D01*
X350596Y453319D01*
X350597Y453314D01*
X350597Y453311D01*
X350600Y453297D01*
X350622Y453153D01*
X350641Y453081D01*
X350641Y448270D01*
X339862Y448270D01*
X339843Y448266D01*
X339823Y448269D01*
X339722Y448247D01*
X339620Y448230D01*
X339602Y448221D01*
X339583Y448216D01*
X339493Y448163D01*
X339402Y448115D01*
X339389Y448100D01*
X339371Y448090D01*
X339304Y448011D01*
X339233Y447936D01*
X339224Y447918D01*
X339211Y447903D01*
X339173Y447807D01*
X339129Y447713D01*
X339127Y447694D01*
X339120Y447675D01*
X339101Y447508D01*
X339101Y446746D01*
X339099Y446746D01*
X339099Y447508D01*
X339096Y447528D01*
X339098Y447548D01*
X339076Y447649D01*
X339060Y447751D01*
X339050Y447769D01*
X339046Y447788D01*
X338993Y447877D01*
X338945Y447968D01*
X338930Y447982D01*
X338920Y447999D01*
X338841Y448067D01*
X338766Y448138D01*
X338748Y448146D01*
X338733Y448159D01*
X338637Y448198D01*
X338543Y448241D01*
X338523Y448244D01*
X338505Y448251D01*
X338338Y448270D01*
X327559Y448270D01*
X327559Y453081D01*
X327579Y453153D01*
X327591Y453271D01*
X327604Y453390D01*
X327603Y453394D01*
X327603Y453398D01*
X327577Y453514D01*
X327552Y453630D01*
X327549Y453634D01*
X327549Y453638D01*
X327486Y453740D01*
X327425Y453841D01*
X327422Y453844D01*
X327420Y453848D01*
X327329Y453924D01*
X327238Y454001D01*
X327235Y454003D01*
X327231Y454005D01*
X327121Y454049D01*
X327010Y454093D01*
X327005Y454094D01*
X327002Y454095D01*
X326989Y454096D01*
X326844Y454112D01*
X312003Y454112D01*
X311913Y454097D01*
X311822Y454090D01*
X311792Y454077D01*
X311760Y454072D01*
X311680Y454029D01*
X311596Y453994D01*
X311564Y453968D01*
X311543Y453957D01*
X311521Y453934D01*
X311465Y453889D01*
X309848Y452272D01*
X309795Y452198D01*
X309735Y452128D01*
X309723Y452098D01*
X309704Y452072D01*
X309678Y451985D01*
X309643Y451900D01*
X309639Y451859D01*
X309632Y451837D01*
X309633Y451805D01*
X309625Y451733D01*
X309625Y440115D01*
X308732Y439222D01*
X289469Y439222D01*
X288575Y440115D01*
X288575Y443952D01*
X288572Y443972D01*
X288574Y443992D01*
X288552Y444093D01*
X288536Y444195D01*
X288526Y444213D01*
X288522Y444232D01*
X288469Y444321D01*
X288421Y444413D01*
X288406Y444426D01*
X288396Y444443D01*
X288317Y444511D01*
X288242Y444582D01*
X288224Y444590D01*
X288209Y444603D01*
X288113Y444642D01*
X288019Y444686D01*
X287999Y444688D01*
X287981Y444695D01*
X287814Y444714D01*
X285290Y444714D01*
X285271Y444710D01*
X285251Y444713D01*
X285149Y444691D01*
X285047Y444674D01*
X285030Y444665D01*
X285010Y444660D01*
X284921Y444607D01*
X284830Y444559D01*
X284816Y444544D01*
X284799Y444534D01*
X284732Y444455D01*
X284661Y444380D01*
X284652Y444362D01*
X284639Y444347D01*
X284601Y444251D01*
X284557Y444157D01*
X284555Y444138D01*
X284547Y444119D01*
X284529Y443952D01*
X284529Y441703D01*
X284397Y441571D01*
X284328Y441475D01*
X284257Y441378D01*
X284256Y441374D01*
X284253Y441371D01*
X284218Y441258D01*
X284182Y441144D01*
X284182Y441140D01*
X284181Y441136D01*
X284184Y441018D01*
X284186Y440898D01*
X284187Y440894D01*
X284187Y440890D01*
X284228Y440779D01*
X284268Y440666D01*
X284270Y440663D01*
X284272Y440659D01*
X284346Y440566D01*
X284419Y440473D01*
X284423Y440470D01*
X284425Y440467D01*
X284437Y440460D01*
X284554Y440373D01*
X284564Y440367D01*
X285037Y439894D01*
X285372Y439315D01*
X285545Y438669D01*
X285545Y437846D01*
X281940Y437846D01*
X281920Y437843D01*
X281901Y437845D01*
X281799Y437823D01*
X281697Y437806D01*
X281680Y437797D01*
X281660Y437793D01*
X281571Y437739D01*
X281480Y437691D01*
X281466Y437677D01*
X281449Y437666D01*
X281382Y437588D01*
X281311Y437513D01*
X281302Y437495D01*
X281289Y437479D01*
X281250Y437383D01*
X281207Y437290D01*
X281205Y437270D01*
X281197Y437251D01*
X281179Y437085D01*
X281179Y437084D01*
X281182Y437065D01*
X281180Y437045D01*
X281202Y436944D01*
X281219Y436841D01*
X281228Y436824D01*
X281232Y436804D01*
X281285Y436715D01*
X281334Y436624D01*
X281348Y436610D01*
X281358Y436593D01*
X281437Y436526D01*
X281512Y436455D01*
X281530Y436446D01*
X281545Y436433D01*
X281641Y436395D01*
X281735Y436351D01*
X281755Y436349D01*
X281773Y436341D01*
X281940Y436323D01*
X285545Y436323D01*
X285545Y435500D01*
X285372Y434854D01*
X285037Y434274D01*
X284564Y433801D01*
X283985Y433467D01*
X283339Y433294D01*
X281940Y433294D01*
X281920Y433290D01*
X281901Y433293D01*
X281799Y433271D01*
X281697Y433254D01*
X281680Y433245D01*
X281660Y433240D01*
X281571Y433187D01*
X281480Y433139D01*
X281466Y433124D01*
X281449Y433114D01*
X281382Y433035D01*
X281311Y432960D01*
X281302Y432942D01*
X281289Y432927D01*
X281250Y432831D01*
X281207Y432737D01*
X281205Y432718D01*
X281197Y432699D01*
X281179Y432532D01*
X281179Y429575D01*
X260920Y409317D01*
X260885Y409298D01*
X260817Y409273D01*
X260776Y409241D01*
X260730Y409216D01*
X260681Y409164D01*
X260625Y409119D01*
X260597Y409076D01*
X260561Y409038D01*
X260531Y408973D01*
X260492Y408913D01*
X260479Y408862D01*
X260457Y408815D01*
X260450Y408744D01*
X260432Y408674D01*
X260436Y408622D01*
X260430Y408570D01*
X260446Y408500D01*
X260451Y408429D01*
X260472Y408381D01*
X260483Y408330D01*
X260519Y408268D01*
X260547Y408203D01*
X260592Y408147D01*
X260609Y408119D01*
X260627Y408104D01*
X260652Y408072D01*
X260825Y407899D01*
X260837Y407845D01*
X260853Y407743D01*
X260863Y407725D01*
X260867Y407706D01*
X260920Y407617D01*
X260969Y407525D01*
X260983Y407512D01*
X260993Y407495D01*
X261072Y407427D01*
X261147Y407356D01*
X261165Y407348D01*
X261180Y407335D01*
X261276Y407296D01*
X261370Y407252D01*
X261390Y407250D01*
X261408Y407243D01*
X261575Y407224D01*
X316322Y407224D01*
X316412Y407239D01*
X316503Y407246D01*
X316533Y407259D01*
X316564Y407264D01*
X316645Y407307D01*
X316729Y407342D01*
X316761Y407368D01*
X316782Y407379D01*
X316804Y407402D01*
X316815Y407411D01*
X320178Y407411D01*
X322550Y405040D01*
X322550Y401686D01*
X320178Y399314D01*
X318220Y399314D01*
X318174Y399307D01*
X318128Y399309D01*
X318053Y399287D01*
X317977Y399274D01*
X317936Y399253D01*
X317892Y399240D01*
X317828Y399196D01*
X317759Y399159D01*
X317728Y399126D01*
X317690Y399100D01*
X317644Y399037D01*
X317590Y398981D01*
X317571Y398939D01*
X317543Y398902D01*
X317519Y398828D01*
X317486Y398758D01*
X317481Y398712D01*
X317467Y398668D01*
X317468Y398591D01*
X317459Y398513D01*
X317469Y398468D01*
X317469Y398423D01*
X317508Y398291D01*
X317512Y398273D01*
X317514Y398269D01*
X317516Y398261D01*
X318079Y396904D01*
X318079Y394103D01*
X317007Y391515D01*
X315026Y389535D01*
X312438Y388463D01*
X309637Y388463D01*
X307050Y389535D01*
X305069Y391515D01*
X303997Y394103D01*
X303997Y396904D01*
X305069Y399492D01*
X307050Y401472D01*
X307585Y401694D01*
X307668Y401746D01*
X307754Y401791D01*
X307772Y401810D01*
X307794Y401824D01*
X307857Y401899D01*
X307924Y401969D01*
X307935Y401993D01*
X307951Y402013D01*
X307986Y402104D01*
X308027Y402192D01*
X308030Y402218D01*
X308039Y402243D01*
X308044Y402340D01*
X308054Y402437D01*
X308049Y402462D01*
X308050Y402489D01*
X308023Y402582D01*
X308002Y402677D01*
X307989Y402700D01*
X307981Y402725D01*
X307926Y402805D01*
X307876Y402888D01*
X307856Y402905D01*
X307841Y402927D01*
X307763Y402985D01*
X307689Y403048D01*
X307665Y403058D01*
X307644Y403074D01*
X307551Y403104D01*
X307461Y403140D01*
X307428Y403144D01*
X307410Y403150D01*
X307377Y403150D01*
X307294Y403159D01*
X259732Y403159D01*
X259642Y403144D01*
X259551Y403137D01*
X259521Y403124D01*
X259489Y403119D01*
X259408Y403076D01*
X259324Y403041D01*
X259292Y403015D01*
X259272Y403004D01*
X259249Y402981D01*
X259193Y402936D01*
X258442Y402184D01*
X255088Y402184D01*
X252716Y404556D01*
X252716Y406220D01*
X252713Y406240D01*
X252715Y406260D01*
X252693Y406361D01*
X252677Y406463D01*
X252667Y406481D01*
X252663Y406500D01*
X252610Y406589D01*
X252561Y406681D01*
X252547Y406694D01*
X252537Y406711D01*
X252458Y406779D01*
X252383Y406850D01*
X252365Y406858D01*
X252350Y406871D01*
X252254Y406910D01*
X252160Y406954D01*
X252140Y406956D01*
X252122Y406963D01*
X251955Y406982D01*
X242323Y406982D01*
X241430Y407875D01*
X241430Y408610D01*
X241427Y408630D01*
X241429Y408649D01*
X241407Y408751D01*
X241390Y408853D01*
X241381Y408870D01*
X241377Y408890D01*
X241324Y408979D01*
X241275Y409070D01*
X241261Y409084D01*
X241251Y409101D01*
X241172Y409168D01*
X241097Y409239D01*
X241079Y409248D01*
X241064Y409261D01*
X240967Y409299D01*
X240874Y409343D01*
X240854Y409345D01*
X240836Y409353D01*
X240669Y409371D01*
X237162Y409371D01*
X237142Y409368D01*
X237122Y409370D01*
X237021Y409348D01*
X236919Y409331D01*
X236901Y409322D01*
X236882Y409318D01*
X236793Y409265D01*
X236701Y409216D01*
X236688Y409202D01*
X236671Y409192D01*
X236603Y409113D01*
X236532Y409038D01*
X236524Y409020D01*
X236511Y409005D01*
X236472Y408908D01*
X236428Y408815D01*
X236426Y408795D01*
X236419Y408777D01*
X236400Y408610D01*
X236400Y403385D01*
X235507Y402491D01*
X227744Y402491D01*
X226851Y403385D01*
X226851Y408610D01*
X226848Y408630D01*
X226850Y408649D01*
X226828Y408751D01*
X226811Y408853D01*
X226802Y408870D01*
X226798Y408890D01*
X226744Y408979D01*
X226696Y409070D01*
X226682Y409084D01*
X226671Y409101D01*
X226593Y409168D01*
X226518Y409239D01*
X226500Y409248D01*
X226484Y409261D01*
X226388Y409299D01*
X226295Y409343D01*
X226275Y409345D01*
X226256Y409353D01*
X226090Y409371D01*
X221662Y409371D01*
X221642Y409368D01*
X221622Y409370D01*
X221521Y409348D01*
X221419Y409331D01*
X221401Y409322D01*
X221382Y409318D01*
X221293Y409265D01*
X221201Y409216D01*
X221188Y409202D01*
X221171Y409192D01*
X221103Y409113D01*
X221032Y409038D01*
X221024Y409020D01*
X221011Y409005D01*
X220972Y408908D01*
X220928Y408815D01*
X220926Y408795D01*
X220919Y408777D01*
X220900Y408610D01*
X220900Y403385D01*
X220007Y402491D01*
X212244Y402491D01*
X211351Y403385D01*
X211351Y408330D01*
X211348Y408350D01*
X211350Y408370D01*
X211328Y408471D01*
X211311Y408573D01*
X211302Y408591D01*
X211298Y408610D01*
X211244Y408699D01*
X211196Y408791D01*
X211182Y408804D01*
X211171Y408821D01*
X211093Y408889D01*
X211018Y408960D01*
X211000Y408968D01*
X210984Y408981D01*
X210888Y409020D01*
X210795Y409064D01*
X210775Y409066D01*
X210756Y409073D01*
X210590Y409092D01*
X151529Y409092D01*
X151473Y409148D01*
X151399Y409201D01*
X151329Y409261D01*
X151299Y409273D01*
X151273Y409292D01*
X151186Y409318D01*
X151101Y409353D01*
X151060Y409357D01*
X151038Y409364D01*
X151006Y409363D01*
X150934Y409371D01*
X130711Y409371D01*
X130691Y409368D01*
X130672Y409370D01*
X130570Y409348D01*
X130468Y409331D01*
X130451Y409322D01*
X130431Y409318D01*
X130342Y409265D01*
X130251Y409216D01*
X130237Y409202D01*
X130220Y409192D01*
X130153Y409113D01*
X130081Y409038D01*
X130073Y409020D01*
X130060Y409005D01*
X130021Y408909D01*
X129978Y408815D01*
X129976Y408795D01*
X129968Y408777D01*
X129950Y408610D01*
X129922Y331601D01*
X129922Y331546D01*
X129925Y331525D01*
X129924Y331487D01*
X130218Y327751D01*
X130219Y327746D01*
X130219Y327740D01*
X130253Y327576D01*
X131047Y325133D01*
X131093Y325043D01*
X131134Y324950D01*
X131149Y324934D01*
X131160Y324914D01*
X131232Y324844D01*
X131301Y324769D01*
X131320Y324758D01*
X131336Y324743D01*
X131427Y324699D01*
X131516Y324651D01*
X131538Y324647D01*
X131558Y324637D01*
X131659Y324625D01*
X131758Y324607D01*
X131780Y324610D01*
X131802Y324607D01*
X131901Y324628D01*
X132002Y324643D01*
X132022Y324653D01*
X132043Y324657D01*
X132131Y324708D01*
X132221Y324754D01*
X132237Y324770D01*
X132256Y324781D01*
X132322Y324857D01*
X132393Y324930D01*
X132407Y324954D01*
X132418Y324966D01*
X132430Y324996D01*
X132474Y325077D01*
X134225Y329303D01*
X137752Y332831D01*
X142362Y334740D01*
X147351Y334740D01*
X151960Y332831D01*
X155488Y329303D01*
X157397Y324694D01*
X157397Y319704D01*
X155488Y315095D01*
X151960Y311567D01*
X147409Y309682D01*
X147323Y309629D01*
X147234Y309581D01*
X147219Y309564D01*
X147200Y309553D01*
X147136Y309475D01*
X147066Y309401D01*
X147057Y309380D01*
X147043Y309363D01*
X147007Y309269D01*
X146965Y309176D01*
X146963Y309154D01*
X146955Y309134D01*
X146951Y309033D01*
X146941Y308932D01*
X146945Y308910D01*
X146945Y308888D01*
X146973Y308791D01*
X146995Y308692D01*
X147007Y308673D01*
X147013Y308652D01*
X147071Y308569D01*
X147124Y308482D01*
X147141Y308468D01*
X147153Y308450D01*
X147235Y308389D01*
X147312Y308324D01*
X147337Y308313D01*
X147351Y308303D01*
X147382Y308293D01*
X147465Y308255D01*
X150589Y307240D01*
X150594Y307239D01*
X150600Y307237D01*
X150764Y307205D01*
X154499Y306911D01*
X154521Y306913D01*
X154559Y306909D01*
X156241Y306909D01*
X156243Y306909D01*
X282045Y306892D01*
X282116Y306904D01*
X282188Y306906D01*
X282237Y306924D01*
X282288Y306932D01*
X282351Y306966D01*
X282419Y306990D01*
X282459Y307023D01*
X282505Y307047D01*
X282555Y307099D01*
X282611Y307144D01*
X282639Y307188D01*
X282675Y307226D01*
X282705Y307291D01*
X282744Y307351D01*
X282756Y307401D01*
X282778Y307449D01*
X282786Y307520D01*
X282804Y307589D01*
X282800Y307641D01*
X282805Y307693D01*
X282790Y307763D01*
X282785Y307835D01*
X282764Y307883D01*
X282753Y307933D01*
X282716Y307995D01*
X282688Y308061D01*
X282644Y308117D01*
X282627Y308145D01*
X282609Y308160D01*
X282583Y308192D01*
X275201Y315574D01*
X275127Y315628D01*
X275058Y315687D01*
X275027Y315699D01*
X275001Y315718D01*
X274914Y315745D01*
X274829Y315779D01*
X274788Y315784D01*
X274766Y315790D01*
X274734Y315790D01*
X274663Y315797D01*
X261968Y315797D01*
X261878Y315783D01*
X261787Y315776D01*
X261757Y315763D01*
X261725Y315758D01*
X261645Y315715D01*
X261561Y315679D01*
X261529Y315654D01*
X261508Y315643D01*
X261486Y315619D01*
X261430Y315574D01*
X254875Y309020D01*
X250393Y309020D01*
X250302Y309005D01*
X250212Y308998D01*
X250182Y308985D01*
X250150Y308980D01*
X250069Y308937D01*
X249985Y308902D01*
X249953Y308876D01*
X249932Y308865D01*
X249910Y308842D01*
X249854Y308797D01*
X249712Y308655D01*
X246358Y308655D01*
X244267Y310746D01*
X244231Y310772D01*
X244202Y310804D01*
X244132Y310843D01*
X244067Y310890D01*
X244025Y310902D01*
X243987Y310924D01*
X243909Y310938D01*
X243832Y310962D01*
X243788Y310961D01*
X243745Y310969D01*
X243666Y310958D01*
X243586Y310956D01*
X243545Y310941D01*
X243502Y310934D01*
X243369Y310876D01*
X243355Y310871D01*
X243353Y310869D01*
X243348Y310867D01*
X241197Y309625D01*
X235154Y309625D01*
X232561Y311123D01*
X231063Y313717D01*
X231063Y325500D01*
X232561Y328094D01*
X234759Y329363D01*
X234796Y329393D01*
X234839Y329416D01*
X234891Y329471D01*
X234949Y329519D01*
X234975Y329559D01*
X235008Y329594D01*
X235040Y329663D01*
X235080Y329727D01*
X235091Y329774D01*
X235112Y329817D01*
X235120Y329893D01*
X235138Y329966D01*
X235133Y330014D01*
X235139Y330062D01*
X235123Y330136D01*
X235116Y330211D01*
X235097Y330255D01*
X235086Y330302D01*
X235048Y330367D01*
X235017Y330436D01*
X234985Y330472D01*
X234960Y330513D01*
X234903Y330562D01*
X234852Y330619D01*
X234810Y330642D01*
X234773Y330673D01*
X234703Y330701D01*
X234637Y330738D01*
X234590Y330747D01*
X234545Y330765D01*
X234417Y330779D01*
X234395Y330783D01*
X234388Y330782D01*
X234378Y330783D01*
X204288Y330783D01*
X198322Y336749D01*
X198322Y349000D01*
X206651Y357328D01*
X212671Y357328D01*
X212761Y357343D01*
X212852Y357350D01*
X212881Y357362D01*
X212913Y357368D01*
X212994Y357410D01*
X213078Y357446D01*
X213110Y357472D01*
X213131Y357483D01*
X213153Y357506D01*
X213209Y357551D01*
X215207Y359549D01*
X215219Y359565D01*
X215234Y359578D01*
X215290Y359665D01*
X215351Y359749D01*
X215356Y359768D01*
X215367Y359785D01*
X215393Y359885D01*
X215423Y359984D01*
X215422Y360004D01*
X215427Y360023D01*
X215419Y360126D01*
X215417Y360230D01*
X215410Y360248D01*
X215408Y360268D01*
X215368Y360363D01*
X215332Y360461D01*
X215320Y360476D01*
X215312Y360495D01*
X215207Y360626D01*
X212730Y363103D01*
X212726Y363126D01*
X212717Y363143D01*
X212712Y363163D01*
X212659Y363252D01*
X212611Y363343D01*
X212596Y363357D01*
X212586Y363374D01*
X212507Y363441D01*
X212432Y363512D01*
X212414Y363521D01*
X212399Y363534D01*
X212303Y363572D01*
X212209Y363616D01*
X212190Y363618D01*
X212171Y363626D01*
X212004Y363644D01*
X206959Y363644D01*
X206939Y363641D01*
X206919Y363643D01*
X206818Y363621D01*
X206716Y363604D01*
X206699Y363595D01*
X206679Y363591D01*
X206590Y363538D01*
X206499Y363489D01*
X206485Y363475D01*
X206468Y363465D01*
X206401Y363386D01*
X206329Y363311D01*
X206321Y363293D01*
X206308Y363278D01*
X206269Y363181D01*
X206248Y363136D01*
X203826Y360714D01*
X200472Y360714D01*
X198100Y363085D01*
X198100Y366439D01*
X200472Y368811D01*
X203826Y368811D01*
X204196Y368441D01*
X204270Y368387D01*
X204340Y368328D01*
X204370Y368316D01*
X204396Y368297D01*
X204483Y368270D01*
X204568Y368236D01*
X204609Y368231D01*
X204631Y368225D01*
X204663Y368225D01*
X204735Y368218D01*
X212547Y368218D01*
X212567Y368221D01*
X212587Y368219D01*
X212688Y368241D01*
X212790Y368257D01*
X212807Y368267D01*
X212827Y368271D01*
X212916Y368324D01*
X213007Y368372D01*
X213021Y368387D01*
X213038Y368397D01*
X213105Y368476D01*
X213177Y368551D01*
X213185Y368569D01*
X213198Y368584D01*
X213237Y368680D01*
X213280Y368774D01*
X213282Y368794D01*
X213290Y368812D01*
X213308Y368979D01*
X213308Y375326D01*
X213305Y375346D01*
X213307Y375366D01*
X213285Y375467D01*
X213269Y375569D01*
X213259Y375587D01*
X213255Y375606D01*
X213202Y375695D01*
X213154Y375787D01*
X213139Y375800D01*
X213129Y375817D01*
X213050Y375885D01*
X212975Y375956D01*
X212957Y375964D01*
X212942Y375977D01*
X212846Y376016D01*
X212752Y376060D01*
X212732Y376062D01*
X212714Y376069D01*
X212547Y376088D01*
X212267Y376088D01*
X209895Y378459D01*
X209895Y381813D01*
X212267Y384185D01*
X215621Y384185D01*
X217993Y381813D01*
X217993Y378429D01*
X217992Y378428D01*
X217980Y378398D01*
X217961Y378372D01*
X217935Y378285D01*
X217900Y378200D01*
X217896Y378159D01*
X217889Y378137D01*
X217890Y378104D01*
X217882Y378033D01*
X217882Y377602D01*
X217894Y377532D01*
X217895Y377460D01*
X217913Y377411D01*
X217922Y377360D01*
X217955Y377296D01*
X217980Y377229D01*
X218012Y377188D01*
X218037Y377142D01*
X218089Y377093D01*
X218134Y377037D01*
X218177Y377009D01*
X218215Y376973D01*
X218280Y376943D01*
X218340Y376904D01*
X218391Y376891D01*
X218438Y376869D01*
X218509Y376861D01*
X218579Y376844D01*
X218631Y376848D01*
X218683Y376842D01*
X218753Y376857D01*
X218824Y376863D01*
X218872Y376883D01*
X218923Y376894D01*
X218985Y376931D01*
X219051Y376959D01*
X219107Y377004D01*
X219134Y377021D01*
X219149Y377038D01*
X219181Y377064D01*
X220758Y378641D01*
X224112Y378641D01*
X226484Y376269D01*
X226484Y373826D01*
X226487Y373806D01*
X226485Y373786D01*
X226507Y373685D01*
X226524Y373583D01*
X226533Y373565D01*
X226537Y373546D01*
X226590Y373457D01*
X226639Y373366D01*
X226653Y373352D01*
X226663Y373335D01*
X226742Y373267D01*
X226817Y373196D01*
X226835Y373188D01*
X226850Y373175D01*
X226946Y373136D01*
X227040Y373093D01*
X227060Y373090D01*
X227078Y373083D01*
X227245Y373065D01*
X227742Y373065D01*
X230113Y370693D01*
X230113Y367339D01*
X227635Y364860D01*
X227581Y364786D01*
X227522Y364717D01*
X227510Y364686D01*
X227491Y364660D01*
X227464Y364573D01*
X227430Y364488D01*
X227426Y364447D01*
X227419Y364425D01*
X227419Y364393D01*
X227412Y364322D01*
X227412Y362005D01*
X221009Y355602D01*
X220994Y355583D01*
X220976Y355568D01*
X220923Y355483D01*
X220865Y355403D01*
X220858Y355380D01*
X220845Y355359D01*
X220822Y355263D01*
X220793Y355168D01*
X220793Y355144D01*
X220788Y355120D01*
X220796Y355021D01*
X220799Y354922D01*
X220803Y354910D01*
X220764Y354923D01*
X220740Y354922D01*
X220716Y354928D01*
X220618Y354920D01*
X220518Y354919D01*
X220495Y354911D01*
X220471Y354909D01*
X220380Y354870D01*
X220286Y354837D01*
X220267Y354822D01*
X220245Y354813D01*
X220114Y354708D01*
X217364Y351958D01*
X215951Y350545D01*
X209818Y350545D01*
X209728Y350530D01*
X209637Y350523D01*
X209607Y350510D01*
X209575Y350505D01*
X209495Y350462D01*
X209411Y350426D01*
X209379Y350401D01*
X209358Y350390D01*
X209336Y350366D01*
X209280Y350322D01*
X205253Y346294D01*
X205199Y346220D01*
X205140Y346151D01*
X205128Y346121D01*
X205109Y346094D01*
X205082Y346008D01*
X205048Y345923D01*
X205043Y345882D01*
X205037Y345859D01*
X205037Y345827D01*
X205030Y345756D01*
X205030Y339943D01*
X205044Y339852D01*
X205051Y339762D01*
X205064Y339732D01*
X205069Y339700D01*
X205112Y339619D01*
X205148Y339535D01*
X205173Y339503D01*
X205184Y339482D01*
X205208Y339460D01*
X205253Y339404D01*
X206994Y337663D01*
X207068Y337610D01*
X207137Y337550D01*
X207168Y337538D01*
X207194Y337519D01*
X207281Y337492D01*
X207366Y337458D01*
X207407Y337454D01*
X207429Y337447D01*
X207461Y337448D01*
X207532Y337440D01*
X248492Y337440D01*
X257684Y328248D01*
X257684Y324347D01*
X257698Y324257D01*
X257706Y324166D01*
X257718Y324136D01*
X257723Y324104D01*
X257766Y324023D01*
X257802Y323940D01*
X257828Y323907D01*
X257839Y323887D01*
X257862Y323865D01*
X257907Y323809D01*
X258200Y323515D01*
X258274Y323462D01*
X258344Y323402D01*
X258374Y323390D01*
X258400Y323371D01*
X258487Y323345D01*
X258572Y323310D01*
X258613Y323306D01*
X258635Y323299D01*
X258667Y323300D01*
X258739Y323292D01*
X282230Y323292D01*
X282321Y323307D01*
X282411Y323314D01*
X282441Y323326D01*
X282473Y323332D01*
X282554Y323374D01*
X282638Y323410D01*
X282670Y323436D01*
X282691Y323447D01*
X282713Y323470D01*
X282769Y323515D01*
X285171Y325918D01*
X288711Y325918D01*
X288801Y325932D01*
X288892Y325939D01*
X288922Y325952D01*
X288953Y325957D01*
X289034Y326000D01*
X289118Y326036D01*
X289150Y326061D01*
X289171Y326072D01*
X289193Y326096D01*
X289249Y326141D01*
X289438Y326329D01*
X292792Y326329D01*
X295164Y323958D01*
X295164Y320604D01*
X292792Y318232D01*
X289438Y318232D01*
X286875Y320795D01*
X286859Y320807D01*
X286846Y320822D01*
X286759Y320878D01*
X286675Y320938D01*
X286656Y320944D01*
X286639Y320955D01*
X286539Y320980D01*
X286440Y321011D01*
X286420Y321010D01*
X286401Y321015D01*
X286298Y321007D01*
X286194Y321004D01*
X286175Y320998D01*
X286156Y320996D01*
X286061Y320956D01*
X285963Y320920D01*
X285948Y320908D01*
X285929Y320900D01*
X285798Y320795D01*
X284230Y319226D01*
X279855Y319226D01*
X279784Y319215D01*
X279712Y319213D01*
X279663Y319195D01*
X279612Y319187D01*
X279549Y319153D01*
X279481Y319129D01*
X279441Y319096D01*
X279394Y319072D01*
X279345Y319020D01*
X279289Y318975D01*
X279261Y318931D01*
X279225Y318893D01*
X279195Y318828D01*
X279156Y318768D01*
X279143Y318717D01*
X279121Y318670D01*
X279114Y318599D01*
X279096Y318529D01*
X279100Y318477D01*
X279094Y318426D01*
X279110Y318356D01*
X279115Y318284D01*
X279136Y318236D01*
X279147Y318185D01*
X279183Y318124D01*
X279212Y318058D01*
X279256Y318002D01*
X279273Y317974D01*
X279291Y317959D01*
X279316Y317927D01*
X285975Y311268D01*
X286049Y311215D01*
X286119Y311156D01*
X286149Y311143D01*
X286175Y311125D01*
X286262Y311098D01*
X286347Y311064D01*
X286388Y311059D01*
X286410Y311052D01*
X286442Y311053D01*
X286513Y311045D01*
X301827Y311045D01*
X301917Y311060D01*
X302008Y311067D01*
X302038Y311080D01*
X302070Y311085D01*
X302150Y311128D01*
X302234Y311163D01*
X302266Y311189D01*
X302287Y311200D01*
X302309Y311223D01*
X302365Y311268D01*
X314203Y323106D01*
X314247Y323167D01*
X314281Y323203D01*
X314287Y323216D01*
X314315Y323249D01*
X314328Y323279D01*
X314346Y323306D01*
X314373Y323393D01*
X314407Y323477D01*
X314412Y323518D01*
X314419Y323541D01*
X314418Y323573D01*
X314426Y323644D01*
X314426Y328833D01*
X314411Y328923D01*
X314404Y329014D01*
X314391Y329044D01*
X314386Y329076D01*
X314343Y329157D01*
X314308Y329241D01*
X314282Y329273D01*
X314271Y329293D01*
X314248Y329316D01*
X314203Y329372D01*
X312664Y330911D01*
X312664Y334265D01*
X315036Y336636D01*
X318390Y336636D01*
X320761Y334265D01*
X320761Y330911D01*
X319222Y329372D01*
X319169Y329298D01*
X319110Y329228D01*
X319098Y329198D01*
X319079Y329172D01*
X319052Y329085D01*
X319018Y329000D01*
X319013Y328959D01*
X319006Y328937D01*
X319007Y328905D01*
X318999Y328833D01*
X318999Y321434D01*
X305754Y308189D01*
X305712Y308131D01*
X305663Y308079D01*
X305641Y308031D01*
X305610Y307989D01*
X305589Y307921D01*
X305559Y307856D01*
X305553Y307804D01*
X305538Y307754D01*
X305540Y307682D01*
X305532Y307611D01*
X305543Y307560D01*
X305544Y307508D01*
X305569Y307441D01*
X305584Y307371D01*
X305611Y307326D01*
X305629Y307277D01*
X305673Y307221D01*
X305710Y307160D01*
X305750Y307126D01*
X305782Y307085D01*
X305843Y307046D01*
X305897Y307000D01*
X305945Y306980D01*
X305989Y306952D01*
X306059Y306935D01*
X306125Y306908D01*
X306197Y306900D01*
X306228Y306892D01*
X306251Y306894D01*
X306292Y306889D01*
X349320Y306884D01*
X349394Y306896D01*
X349469Y306898D01*
X349515Y306916D01*
X349563Y306923D01*
X349600Y306943D01*
X350956Y306884D01*
X350969Y306886D01*
X350989Y306884D01*
X351186Y306883D01*
X351196Y306885D01*
G37*
G36*
X226109Y410620D02*
X226109Y410620D01*
X226129Y410618D01*
X226230Y410640D01*
X226332Y410657D01*
X226350Y410666D01*
X226369Y410670D01*
X226458Y410724D01*
X226550Y410772D01*
X226563Y410786D01*
X226581Y410797D01*
X226648Y410875D01*
X226719Y410950D01*
X226727Y410968D01*
X226740Y410984D01*
X226779Y411080D01*
X226823Y411173D01*
X226825Y411193D01*
X226832Y411212D01*
X226851Y411378D01*
X226851Y414648D01*
X227744Y415541D01*
X235507Y415541D01*
X236431Y414617D01*
X236440Y414562D01*
X236449Y414544D01*
X236454Y414525D01*
X236507Y414436D01*
X236555Y414344D01*
X236570Y414331D01*
X236580Y414313D01*
X236659Y414246D01*
X236734Y414175D01*
X236752Y414167D01*
X236767Y414154D01*
X236863Y414115D01*
X236957Y414071D01*
X236976Y414069D01*
X236995Y414062D01*
X237162Y414043D01*
X240669Y414043D01*
X240688Y414046D01*
X240708Y414044D01*
X240810Y414066D01*
X240912Y414083D01*
X240929Y414092D01*
X240949Y414096D01*
X241038Y414150D01*
X241129Y414198D01*
X241143Y414212D01*
X241160Y414223D01*
X241227Y414301D01*
X241298Y414376D01*
X241307Y414394D01*
X241320Y414410D01*
X241358Y414506D01*
X241402Y414599D01*
X241404Y414619D01*
X241412Y414638D01*
X241430Y414804D01*
X241430Y415638D01*
X242323Y416531D01*
X250704Y416531D01*
X250794Y416546D01*
X250885Y416553D01*
X250915Y416566D01*
X250947Y416571D01*
X251028Y416614D01*
X251112Y416649D01*
X251144Y416675D01*
X251164Y416686D01*
X251187Y416709D01*
X251243Y416754D01*
X266730Y432242D01*
X266783Y432316D01*
X266843Y432385D01*
X266855Y432415D01*
X266874Y432442D01*
X266901Y432529D01*
X266935Y432613D01*
X266939Y432654D01*
X266946Y432677D01*
X266945Y432709D01*
X266953Y432780D01*
X266953Y449842D01*
X266942Y449912D01*
X266940Y449984D01*
X266922Y450033D01*
X266914Y450084D01*
X266880Y450148D01*
X266855Y450215D01*
X266823Y450256D01*
X266798Y450302D01*
X266746Y450351D01*
X266702Y450407D01*
X266658Y450435D01*
X266620Y450471D01*
X266555Y450501D01*
X266495Y450540D01*
X266444Y450553D01*
X266397Y450575D01*
X266326Y450583D01*
X266256Y450600D01*
X266204Y450596D01*
X266153Y450602D01*
X266082Y450587D01*
X266011Y450581D01*
X265963Y450561D01*
X265912Y450550D01*
X265851Y450513D01*
X265785Y450485D01*
X265729Y450440D01*
X265701Y450423D01*
X265686Y450406D01*
X265654Y450380D01*
X258618Y443344D01*
X258565Y443270D01*
X258505Y443201D01*
X258493Y443170D01*
X258474Y443144D01*
X258448Y443057D01*
X258413Y442972D01*
X258409Y442931D01*
X258402Y442909D01*
X258403Y442877D01*
X258395Y442806D01*
X258395Y432685D01*
X254702Y428992D01*
X254649Y428918D01*
X254590Y428849D01*
X254578Y428819D01*
X254559Y428792D01*
X254532Y428705D01*
X254498Y428621D01*
X254493Y428580D01*
X254487Y428557D01*
X254487Y428525D01*
X254480Y428454D01*
X254480Y423375D01*
X253586Y422482D01*
X242323Y422482D01*
X241430Y423375D01*
X241430Y424078D01*
X241427Y424098D01*
X241429Y424118D01*
X241407Y424219D01*
X241390Y424321D01*
X241381Y424339D01*
X241377Y424358D01*
X241324Y424447D01*
X241275Y424539D01*
X241261Y424552D01*
X241251Y424569D01*
X241172Y424637D01*
X241097Y424708D01*
X241079Y424716D01*
X241064Y424729D01*
X240967Y424768D01*
X240874Y424812D01*
X240854Y424814D01*
X240836Y424821D01*
X240669Y424840D01*
X240159Y424840D01*
X240139Y424836D01*
X240119Y424839D01*
X240018Y424817D01*
X239916Y424800D01*
X239898Y424791D01*
X239879Y424786D01*
X239790Y424733D01*
X239699Y424685D01*
X239685Y424670D01*
X239668Y424660D01*
X239600Y424581D01*
X239529Y424506D01*
X239521Y424488D01*
X239508Y424473D01*
X239469Y424377D01*
X239426Y424283D01*
X239423Y424264D01*
X239416Y424245D01*
X239398Y424078D01*
X239398Y419209D01*
X238504Y418316D01*
X230741Y418316D01*
X229848Y419209D01*
X229848Y430472D01*
X230663Y431287D01*
X230675Y431303D01*
X230690Y431316D01*
X230746Y431403D01*
X230807Y431487D01*
X230813Y431506D01*
X230823Y431523D01*
X230849Y431623D01*
X230879Y431722D01*
X230879Y431742D01*
X230883Y431761D01*
X230875Y431864D01*
X230873Y431968D01*
X230866Y431987D01*
X230864Y432006D01*
X230824Y432101D01*
X230788Y432199D01*
X230776Y432214D01*
X230768Y432233D01*
X230663Y432364D01*
X229848Y433179D01*
X229848Y444442D01*
X230663Y445257D01*
X230675Y445273D01*
X230690Y445286D01*
X230746Y445373D01*
X230807Y445457D01*
X230813Y445476D01*
X230823Y445493D01*
X230849Y445593D01*
X230879Y445692D01*
X230879Y445712D01*
X230883Y445731D01*
X230875Y445834D01*
X230873Y445938D01*
X230866Y445957D01*
X230864Y445976D01*
X230824Y446071D01*
X230788Y446169D01*
X230776Y446184D01*
X230768Y446203D01*
X230663Y446334D01*
X229848Y447149D01*
X229848Y458412D01*
X230741Y459305D01*
X238504Y459305D01*
X239398Y458412D01*
X239398Y455828D01*
X239401Y455809D01*
X239399Y455789D01*
X239421Y455688D01*
X239437Y455586D01*
X239447Y455568D01*
X239451Y455549D01*
X239504Y455460D01*
X239552Y455368D01*
X239567Y455355D01*
X239577Y455337D01*
X239656Y455270D01*
X239731Y455199D01*
X239749Y455191D01*
X239764Y455178D01*
X239860Y455139D01*
X239954Y455095D01*
X239974Y455093D01*
X239992Y455086D01*
X240159Y455067D01*
X240669Y455067D01*
X240688Y455070D01*
X240708Y455068D01*
X240810Y455090D01*
X240912Y455107D01*
X240929Y455116D01*
X240949Y455120D01*
X241038Y455174D01*
X241129Y455222D01*
X241143Y455236D01*
X241160Y455247D01*
X241227Y455325D01*
X241298Y455400D01*
X241307Y455418D01*
X241320Y455434D01*
X241358Y455530D01*
X241402Y455623D01*
X241404Y455643D01*
X241412Y455662D01*
X241430Y455828D01*
X241430Y457808D01*
X242323Y458701D01*
X249180Y458701D01*
X249188Y458702D01*
X255963Y458702D01*
X256053Y458717D01*
X256144Y458724D01*
X256174Y458737D01*
X256206Y458742D01*
X256287Y458785D01*
X256371Y458821D01*
X256403Y458846D01*
X256423Y458857D01*
X256446Y458881D01*
X256502Y458925D01*
X276243Y478667D01*
X289200Y478667D01*
X289220Y478670D01*
X289240Y478668D01*
X289341Y478690D01*
X289443Y478706D01*
X289461Y478716D01*
X289480Y478720D01*
X289569Y478773D01*
X289661Y478822D01*
X289674Y478836D01*
X289691Y478846D01*
X289759Y478925D01*
X289830Y479000D01*
X289838Y479018D01*
X289851Y479033D01*
X289890Y479129D01*
X289934Y479223D01*
X289936Y479243D01*
X289943Y479261D01*
X289962Y479428D01*
X289962Y490702D01*
X291045Y491785D01*
X294528Y491785D01*
X294748Y491565D01*
X294764Y491553D01*
X294777Y491537D01*
X294864Y491481D01*
X294948Y491421D01*
X294967Y491415D01*
X294984Y491404D01*
X295084Y491379D01*
X295183Y491349D01*
X295203Y491349D01*
X295222Y491344D01*
X295325Y491352D01*
X295429Y491355D01*
X295448Y491362D01*
X295467Y491363D01*
X295562Y491404D01*
X295660Y491440D01*
X295675Y491452D01*
X295694Y491460D01*
X295825Y491565D01*
X296045Y491785D01*
X299528Y491785D01*
X299748Y491565D01*
X299764Y491553D01*
X299777Y491537D01*
X299864Y491481D01*
X299948Y491421D01*
X299967Y491415D01*
X299984Y491404D01*
X300084Y491379D01*
X300183Y491349D01*
X300203Y491349D01*
X300222Y491344D01*
X300325Y491352D01*
X300429Y491355D01*
X300448Y491362D01*
X300467Y491363D01*
X300562Y491404D01*
X300660Y491440D01*
X300675Y491452D01*
X300694Y491460D01*
X300825Y491565D01*
X301045Y491785D01*
X304528Y491785D01*
X304748Y491565D01*
X304764Y491553D01*
X304777Y491537D01*
X304864Y491481D01*
X304948Y491421D01*
X304967Y491415D01*
X304984Y491404D01*
X305084Y491379D01*
X305183Y491349D01*
X305203Y491349D01*
X305222Y491344D01*
X305325Y491352D01*
X305429Y491355D01*
X305448Y491362D01*
X305467Y491363D01*
X305562Y491404D01*
X305660Y491440D01*
X305675Y491452D01*
X305694Y491460D01*
X305825Y491565D01*
X306045Y491785D01*
X309293Y491785D01*
X309383Y491800D01*
X309474Y491807D01*
X309504Y491820D01*
X309536Y491825D01*
X309616Y491868D01*
X309700Y491903D01*
X309732Y491929D01*
X309753Y491940D01*
X309775Y491963D01*
X309831Y492008D01*
X310052Y492229D01*
X310705Y492606D01*
X311434Y492801D01*
X312025Y492801D01*
X312025Y483061D01*
X312025Y483060D01*
X312025Y473320D01*
X311434Y473320D01*
X311031Y473428D01*
X310912Y473440D01*
X310795Y473453D01*
X310791Y473452D01*
X310787Y473452D01*
X310670Y473425D01*
X310555Y473400D01*
X310551Y473398D01*
X310547Y473397D01*
X310445Y473335D01*
X310343Y473274D01*
X310341Y473271D01*
X310337Y473269D01*
X310261Y473177D01*
X310184Y473087D01*
X310182Y473083D01*
X310179Y473080D01*
X310136Y472970D01*
X310092Y472859D01*
X310091Y472854D01*
X310090Y472851D01*
X310089Y472837D01*
X310073Y472692D01*
X310073Y464635D01*
X308734Y463295D01*
X283306Y463295D01*
X283201Y463278D01*
X283095Y463266D01*
X283080Y463258D01*
X283063Y463256D01*
X282969Y463206D01*
X282873Y463160D01*
X282857Y463147D01*
X282846Y463140D01*
X282825Y463118D01*
X282746Y463050D01*
X271728Y451107D01*
X271687Y451043D01*
X271637Y450985D01*
X271619Y450941D01*
X271593Y450901D01*
X271574Y450828D01*
X271545Y450757D01*
X271538Y450693D01*
X271530Y450664D01*
X271532Y450638D01*
X271527Y450591D01*
X271527Y430570D01*
X254702Y413746D01*
X254649Y413672D01*
X254590Y413603D01*
X254578Y413573D01*
X254559Y413546D01*
X254532Y413460D01*
X254498Y413375D01*
X254493Y413334D01*
X254487Y413311D01*
X254487Y413279D01*
X254480Y413208D01*
X254480Y411378D01*
X254483Y411359D01*
X254481Y411339D01*
X254503Y411238D01*
X254519Y411136D01*
X254529Y411118D01*
X254533Y411099D01*
X254586Y411010D01*
X254634Y410918D01*
X254649Y410905D01*
X254659Y410887D01*
X254738Y410820D01*
X254813Y410749D01*
X254831Y410741D01*
X254846Y410728D01*
X254942Y410689D01*
X255036Y410645D01*
X255056Y410643D01*
X255074Y410636D01*
X255241Y410617D01*
X258978Y410617D01*
X259069Y410632D01*
X259159Y410639D01*
X259189Y410652D01*
X259221Y410657D01*
X259302Y410700D01*
X259386Y410735D01*
X259418Y410761D01*
X259439Y410772D01*
X259461Y410795D01*
X259517Y410840D01*
X277398Y428722D01*
X277451Y428796D01*
X277511Y428865D01*
X277523Y428895D01*
X277542Y428921D01*
X277569Y429008D01*
X277603Y429093D01*
X277607Y429134D01*
X277614Y429157D01*
X277613Y429189D01*
X277621Y429260D01*
X277621Y433810D01*
X277603Y433923D01*
X277587Y434037D01*
X277583Y434047D01*
X277582Y434053D01*
X277571Y434073D01*
X277519Y434191D01*
X277137Y434854D01*
X276963Y435500D01*
X276963Y436338D01*
X277001Y436346D01*
X277103Y436363D01*
X277120Y436372D01*
X277140Y436376D01*
X277229Y436429D01*
X277320Y436478D01*
X277334Y436492D01*
X277351Y436502D01*
X277418Y436581D01*
X277490Y436656D01*
X277498Y436674D01*
X277511Y436689D01*
X277550Y436786D01*
X277593Y436879D01*
X277595Y436899D01*
X277603Y436918D01*
X277621Y437084D01*
X277621Y437085D01*
X277618Y437104D01*
X277620Y437124D01*
X277598Y437225D01*
X277582Y437327D01*
X277572Y437345D01*
X277568Y437364D01*
X277515Y437453D01*
X277466Y437545D01*
X277452Y437558D01*
X277442Y437575D01*
X277363Y437643D01*
X277288Y437714D01*
X277270Y437722D01*
X277255Y437735D01*
X277159Y437774D01*
X277065Y437818D01*
X277045Y437820D01*
X277027Y437827D01*
X276963Y437834D01*
X276963Y438669D01*
X277137Y439315D01*
X277519Y439978D01*
X277560Y440085D01*
X277603Y440192D01*
X277604Y440202D01*
X277606Y440208D01*
X277607Y440230D01*
X277621Y440358D01*
X277621Y448808D01*
X285100Y456286D01*
X305642Y456286D01*
X305733Y456301D01*
X305823Y456308D01*
X305853Y456321D01*
X305885Y456326D01*
X305966Y456369D01*
X306050Y456405D01*
X306082Y456430D01*
X306103Y456441D01*
X306108Y456447D01*
X306126Y456466D01*
X306181Y456509D01*
X309373Y459701D01*
X314960Y459701D01*
X314980Y459704D01*
X314999Y459702D01*
X315101Y459724D01*
X315203Y459741D01*
X315220Y459750D01*
X315240Y459754D01*
X315329Y459808D01*
X315420Y459856D01*
X315434Y459870D01*
X315451Y459881D01*
X315518Y459959D01*
X315590Y460034D01*
X315598Y460052D01*
X315611Y460068D01*
X315650Y460164D01*
X315693Y460257D01*
X315695Y460277D01*
X315703Y460296D01*
X315721Y460462D01*
X315721Y472752D01*
X315702Y472868D01*
X315684Y472987D01*
X315682Y472990D01*
X315682Y472994D01*
X315626Y473099D01*
X315571Y473205D01*
X315568Y473208D01*
X315566Y473212D01*
X315481Y473293D01*
X315395Y473376D01*
X315391Y473378D01*
X315388Y473381D01*
X315281Y473431D01*
X315173Y473483D01*
X315169Y473483D01*
X315165Y473485D01*
X315047Y473498D01*
X314929Y473512D01*
X314924Y473512D01*
X314921Y473512D01*
X314907Y473509D01*
X314763Y473487D01*
X314139Y473320D01*
X313548Y473320D01*
X313548Y483060D01*
X313548Y483061D01*
X313548Y492801D01*
X314139Y492801D01*
X314868Y492606D01*
X315521Y492229D01*
X315741Y492008D01*
X315815Y491955D01*
X315885Y491896D01*
X315915Y491883D01*
X315941Y491865D01*
X316028Y491838D01*
X316113Y491804D01*
X316154Y491799D01*
X316176Y491792D01*
X316208Y491793D01*
X316280Y491785D01*
X319826Y491785D01*
X319916Y491800D01*
X320007Y491807D01*
X320037Y491820D01*
X320069Y491825D01*
X320150Y491868D01*
X320234Y491903D01*
X320266Y491929D01*
X320287Y491940D01*
X320309Y491963D01*
X320365Y492008D01*
X330383Y502026D01*
X330436Y502100D01*
X330495Y502170D01*
X330507Y502200D01*
X330526Y502226D01*
X330553Y502313D01*
X330587Y502398D01*
X330592Y502439D01*
X330599Y502461D01*
X330598Y502493D01*
X330606Y502564D01*
X330606Y537476D01*
X330602Y537500D01*
X330603Y537514D01*
X330594Y537557D01*
X330592Y537618D01*
X330574Y537667D01*
X330566Y537719D01*
X330554Y537742D01*
X330551Y537754D01*
X330529Y537790D01*
X330508Y537849D01*
X330475Y537890D01*
X330451Y537936D01*
X330431Y537955D01*
X330425Y537965D01*
X330394Y537992D01*
X330354Y538041D01*
X330310Y538070D01*
X330272Y538105D01*
X330247Y538117D01*
X330238Y538125D01*
X330200Y538141D01*
X330147Y538174D01*
X330097Y538187D01*
X330049Y538209D01*
X330022Y538212D01*
X330010Y538217D01*
X329952Y538224D01*
X329909Y538234D01*
X329877Y538232D01*
X329843Y538236D01*
X329809Y538236D01*
X329805Y538236D01*
X329803Y538236D01*
X326045Y538236D01*
X325825Y538456D01*
X325809Y538468D01*
X325796Y538483D01*
X325709Y538540D01*
X325625Y538600D01*
X325606Y538606D01*
X325589Y538616D01*
X325489Y538642D01*
X325390Y538672D01*
X325370Y538672D01*
X325351Y538676D01*
X325248Y538668D01*
X325144Y538666D01*
X325125Y538659D01*
X325105Y538657D01*
X325010Y538617D01*
X324913Y538581D01*
X324897Y538569D01*
X324879Y538561D01*
X324748Y538456D01*
X324528Y538236D01*
X321280Y538236D01*
X321190Y538221D01*
X321099Y538214D01*
X321069Y538201D01*
X321037Y538196D01*
X320956Y538153D01*
X320872Y538118D01*
X320840Y538092D01*
X320820Y538081D01*
X320797Y538057D01*
X320741Y538013D01*
X320521Y537792D01*
X319868Y537415D01*
X319139Y537220D01*
X318548Y537220D01*
X318548Y546960D01*
X318548Y546961D01*
X318548Y556701D01*
X319230Y556701D01*
X319250Y556704D01*
X319270Y556702D01*
X319371Y556724D01*
X319473Y556741D01*
X319491Y556750D01*
X319510Y556754D01*
X319599Y556808D01*
X319691Y556856D01*
X319704Y556870D01*
X319721Y556881D01*
X319789Y556959D01*
X319860Y557034D01*
X319868Y557052D01*
X319881Y557068D01*
X319920Y557164D01*
X319964Y557257D01*
X319966Y557277D01*
X319973Y557296D01*
X319992Y557462D01*
X319992Y560248D01*
X319988Y560267D01*
X319991Y560287D01*
X319969Y560388D01*
X319952Y560491D01*
X319943Y560508D01*
X319938Y560528D01*
X319885Y560617D01*
X319837Y560708D01*
X319822Y560722D01*
X319812Y560739D01*
X319733Y560806D01*
X319658Y560877D01*
X319640Y560886D01*
X319625Y560899D01*
X319529Y560937D01*
X319435Y560981D01*
X319416Y560983D01*
X319397Y560991D01*
X319230Y561009D01*
X317550Y561009D01*
X317533Y561016D01*
X317492Y561020D01*
X317470Y561027D01*
X317438Y561027D01*
X317366Y561034D01*
X315299Y561034D01*
X315209Y561020D01*
X315118Y561013D01*
X315088Y561000D01*
X315056Y560995D01*
X314975Y560952D01*
X314892Y560916D01*
X314859Y560891D01*
X314839Y560880D01*
X314817Y560856D01*
X314761Y560811D01*
X314072Y560123D01*
X310309Y560123D01*
X310177Y560255D01*
X310081Y560323D01*
X309984Y560395D01*
X309980Y560396D01*
X309977Y560398D01*
X309864Y560433D01*
X309750Y560470D01*
X309746Y560469D01*
X309742Y560471D01*
X309623Y560468D01*
X309504Y560466D01*
X309500Y560464D01*
X309496Y560464D01*
X309385Y560424D01*
X309272Y560384D01*
X309269Y560381D01*
X309265Y560380D01*
X309172Y560305D01*
X309078Y560232D01*
X309075Y560228D01*
X309073Y560226D01*
X309065Y560215D01*
X308979Y560097D01*
X308973Y560087D01*
X308500Y559614D01*
X307921Y559280D01*
X307703Y559221D01*
X307617Y559182D01*
X307527Y559150D01*
X307505Y559132D01*
X307479Y559120D01*
X307409Y559055D01*
X307335Y558996D01*
X307320Y558972D01*
X307299Y558953D01*
X307253Y558869D01*
X307202Y558789D01*
X307195Y558762D01*
X307181Y558737D01*
X307165Y558643D01*
X307142Y558550D01*
X307144Y558522D01*
X307139Y558494D01*
X307153Y558400D01*
X307161Y558305D01*
X307172Y558279D01*
X307176Y558251D01*
X307220Y558166D01*
X307257Y558079D01*
X307279Y558051D01*
X307289Y558033D01*
X307313Y558010D01*
X307362Y557948D01*
X309087Y556223D01*
X309123Y556197D01*
X309152Y556165D01*
X309202Y556137D01*
X309214Y556126D01*
X309230Y556120D01*
X309287Y556079D01*
X309329Y556067D01*
X309367Y556045D01*
X309445Y556031D01*
X309522Y556007D01*
X309566Y556008D01*
X309609Y556000D01*
X309688Y556011D01*
X309768Y556013D01*
X309809Y556029D01*
X309852Y556035D01*
X309985Y556093D01*
X309999Y556098D01*
X310001Y556100D01*
X310006Y556102D01*
X310705Y556506D01*
X311434Y556701D01*
X312025Y556701D01*
X312025Y546961D01*
X312025Y546960D01*
X312025Y537220D01*
X311434Y537220D01*
X310705Y537415D01*
X310052Y537792D01*
X309831Y538013D01*
X309757Y538066D01*
X309688Y538125D01*
X309658Y538137D01*
X309632Y538156D01*
X309545Y538183D01*
X309460Y538217D01*
X309419Y538222D01*
X309397Y538229D01*
X309364Y538228D01*
X309293Y538236D01*
X306045Y538236D01*
X305825Y538456D01*
X305809Y538468D01*
X305796Y538483D01*
X305709Y538540D01*
X305625Y538600D01*
X305606Y538606D01*
X305589Y538616D01*
X305489Y538642D01*
X305390Y538672D01*
X305370Y538672D01*
X305351Y538676D01*
X305248Y538668D01*
X305144Y538666D01*
X305125Y538659D01*
X305105Y538657D01*
X305010Y538617D01*
X304913Y538581D01*
X304897Y538569D01*
X304879Y538561D01*
X304748Y538456D01*
X304528Y538236D01*
X301045Y538236D01*
X300825Y538456D01*
X300809Y538468D01*
X300796Y538483D01*
X300709Y538540D01*
X300625Y538600D01*
X300606Y538606D01*
X300589Y538616D01*
X300489Y538642D01*
X300390Y538672D01*
X300370Y538672D01*
X300351Y538676D01*
X300248Y538668D01*
X300144Y538666D01*
X300125Y538659D01*
X300105Y538657D01*
X300010Y538617D01*
X299913Y538581D01*
X299897Y538569D01*
X299879Y538561D01*
X299748Y538456D01*
X299528Y538236D01*
X296045Y538236D01*
X295825Y538456D01*
X295809Y538468D01*
X295796Y538483D01*
X295709Y538540D01*
X295625Y538600D01*
X295606Y538606D01*
X295589Y538616D01*
X295489Y538642D01*
X295390Y538672D01*
X295370Y538672D01*
X295351Y538676D01*
X295248Y538668D01*
X295144Y538666D01*
X295125Y538659D01*
X295105Y538657D01*
X295010Y538617D01*
X294913Y538581D01*
X294897Y538569D01*
X294879Y538561D01*
X294748Y538456D01*
X294528Y538236D01*
X291045Y538236D01*
X289962Y539319D01*
X289962Y552574D01*
X289958Y552594D01*
X289961Y552613D01*
X289939Y552715D01*
X289922Y552817D01*
X289913Y552834D01*
X289908Y552854D01*
X289855Y552943D01*
X289807Y553034D01*
X289792Y553048D01*
X289782Y553065D01*
X289703Y553132D01*
X289628Y553204D01*
X289610Y553212D01*
X289595Y553225D01*
X289499Y553264D01*
X289405Y553307D01*
X289386Y553309D01*
X289367Y553317D01*
X289200Y553335D01*
X270458Y553335D01*
X270387Y553324D01*
X270315Y553322D01*
X270266Y553304D01*
X270215Y553296D01*
X270152Y553262D01*
X270084Y553237D01*
X270044Y553205D01*
X269998Y553180D01*
X269948Y553128D01*
X269892Y553084D01*
X269864Y553040D01*
X269828Y553002D01*
X269798Y552937D01*
X269759Y552877D01*
X269746Y552826D01*
X269725Y552779D01*
X269717Y552708D01*
X269699Y552638D01*
X269703Y552586D01*
X269697Y552535D01*
X269713Y552464D01*
X269718Y552393D01*
X269739Y552345D01*
X269750Y552294D01*
X269786Y552233D01*
X269815Y552167D01*
X269859Y552111D01*
X269876Y552083D01*
X269894Y552068D01*
X269919Y552036D01*
X271987Y549968D01*
X271987Y536096D01*
X271990Y536077D01*
X271988Y536057D01*
X272010Y535956D01*
X272027Y535854D01*
X272036Y535836D01*
X272040Y535817D01*
X272094Y535728D01*
X272142Y535636D01*
X272156Y535623D01*
X272167Y535605D01*
X272245Y535538D01*
X272320Y535467D01*
X272338Y535459D01*
X272354Y535446D01*
X272450Y535407D01*
X272543Y535363D01*
X272563Y535361D01*
X272582Y535354D01*
X272748Y535335D01*
X285978Y535335D01*
X287061Y534252D01*
X287061Y530769D01*
X286841Y530549D01*
X286829Y530533D01*
X286813Y530520D01*
X286757Y530433D01*
X286697Y530349D01*
X286691Y530330D01*
X286680Y530313D01*
X286655Y530213D01*
X286625Y530114D01*
X286625Y530094D01*
X286620Y530075D01*
X286628Y529972D01*
X286631Y529868D01*
X286638Y529849D01*
X286639Y529829D01*
X286680Y529734D01*
X286716Y529637D01*
X286728Y529621D01*
X286736Y529603D01*
X286841Y529472D01*
X287061Y529252D01*
X287061Y525769D01*
X286841Y525549D01*
X286829Y525533D01*
X286813Y525520D01*
X286757Y525433D01*
X286697Y525349D01*
X286691Y525330D01*
X286680Y525313D01*
X286655Y525213D01*
X286625Y525114D01*
X286625Y525094D01*
X286620Y525075D01*
X286628Y524972D01*
X286631Y524868D01*
X286638Y524849D01*
X286639Y524829D01*
X286680Y524734D01*
X286716Y524637D01*
X286728Y524621D01*
X286736Y524603D01*
X286841Y524472D01*
X287061Y524252D01*
X287061Y520769D01*
X286841Y520549D01*
X286829Y520533D01*
X286813Y520520D01*
X286757Y520433D01*
X286697Y520349D01*
X286691Y520330D01*
X286680Y520313D01*
X286655Y520213D01*
X286625Y520114D01*
X286625Y520094D01*
X286620Y520075D01*
X286628Y519972D01*
X286631Y519868D01*
X286638Y519849D01*
X286639Y519829D01*
X286680Y519734D01*
X286716Y519637D01*
X286728Y519621D01*
X286736Y519603D01*
X286841Y519472D01*
X287061Y519252D01*
X287061Y515769D01*
X286841Y515549D01*
X286829Y515533D01*
X286813Y515520D01*
X286757Y515433D01*
X286697Y515349D01*
X286691Y515330D01*
X286680Y515313D01*
X286655Y515213D01*
X286625Y515114D01*
X286625Y515094D01*
X286620Y515075D01*
X286628Y514972D01*
X286631Y514868D01*
X286638Y514849D01*
X286639Y514829D01*
X286680Y514734D01*
X286716Y514637D01*
X286728Y514621D01*
X286736Y514603D01*
X286841Y514472D01*
X287061Y514252D01*
X287061Y510769D01*
X286841Y510549D01*
X286829Y510533D01*
X286813Y510520D01*
X286757Y510433D01*
X286697Y510349D01*
X286691Y510330D01*
X286680Y510313D01*
X286655Y510213D01*
X286625Y510114D01*
X286625Y510094D01*
X286620Y510075D01*
X286628Y509972D01*
X286631Y509868D01*
X286638Y509849D01*
X286639Y509829D01*
X286680Y509734D01*
X286716Y509637D01*
X286728Y509621D01*
X286736Y509603D01*
X286841Y509472D01*
X287061Y509252D01*
X287061Y505769D01*
X286841Y505549D01*
X286829Y505533D01*
X286813Y505520D01*
X286785Y505476D01*
X286751Y505440D01*
X286730Y505395D01*
X286697Y505349D01*
X286691Y505330D01*
X286680Y505313D01*
X286667Y505258D01*
X286648Y505217D01*
X286643Y505172D01*
X286625Y505114D01*
X286625Y505094D01*
X286620Y505075D01*
X286625Y505014D01*
X286620Y504973D01*
X286629Y504931D01*
X286631Y504868D01*
X286638Y504849D01*
X286639Y504829D01*
X286664Y504771D01*
X286673Y504732D01*
X286693Y504698D01*
X286716Y504637D01*
X286728Y504621D01*
X286736Y504603D01*
X286792Y504533D01*
X286799Y504521D01*
X286806Y504515D01*
X286841Y504472D01*
X287061Y504252D01*
X287061Y500769D01*
X286841Y500549D01*
X286829Y500533D01*
X286813Y500520D01*
X286757Y500433D01*
X286697Y500349D01*
X286691Y500330D01*
X286680Y500313D01*
X286655Y500213D01*
X286625Y500114D01*
X286625Y500094D01*
X286620Y500075D01*
X286628Y499972D01*
X286631Y499868D01*
X286638Y499849D01*
X286639Y499829D01*
X286680Y499734D01*
X286716Y499637D01*
X286728Y499621D01*
X286736Y499603D01*
X286841Y499472D01*
X287061Y499252D01*
X287061Y495769D01*
X285978Y494686D01*
X272686Y494686D01*
X272596Y494671D01*
X272505Y494664D01*
X272475Y494651D01*
X272443Y494646D01*
X272362Y494603D01*
X272279Y494568D01*
X272246Y494542D01*
X272226Y494531D01*
X272204Y494507D01*
X272148Y494463D01*
X258161Y480476D01*
X258108Y480402D01*
X258048Y480332D01*
X258036Y480302D01*
X258017Y480276D01*
X257990Y480189D01*
X257956Y480104D01*
X257952Y480063D01*
X257945Y480041D01*
X257946Y480009D01*
X257938Y479938D01*
X257938Y473801D01*
X256375Y472239D01*
X253890Y469753D01*
X253845Y469691D01*
X253817Y469661D01*
X253812Y469650D01*
X253777Y469610D01*
X253765Y469580D01*
X253746Y469553D01*
X253719Y469467D01*
X253685Y469382D01*
X253681Y469341D01*
X253674Y469318D01*
X253675Y469286D01*
X253667Y469215D01*
X253667Y463653D01*
X252774Y462760D01*
X241510Y462760D01*
X240697Y463573D01*
X240639Y463615D01*
X240587Y463665D01*
X240540Y463687D01*
X240497Y463717D01*
X240429Y463738D01*
X240364Y463768D01*
X240312Y463774D01*
X240262Y463789D01*
X240190Y463788D01*
X240119Y463795D01*
X240068Y463784D01*
X240016Y463783D01*
X239949Y463758D01*
X239879Y463743D01*
X239834Y463716D01*
X239785Y463699D01*
X239729Y463654D01*
X239668Y463617D01*
X239634Y463577D01*
X239593Y463545D01*
X239555Y463485D01*
X239508Y463430D01*
X239488Y463382D01*
X239460Y463338D01*
X239443Y463268D01*
X239416Y463202D01*
X239412Y463165D01*
X238504Y462258D01*
X230741Y462258D01*
X229848Y463151D01*
X229848Y474414D01*
X230409Y474975D01*
X230421Y474991D01*
X230436Y475004D01*
X230492Y475091D01*
X230553Y475175D01*
X230559Y475194D01*
X230569Y475211D01*
X230595Y475311D01*
X230625Y475410D01*
X230625Y475430D01*
X230629Y475449D01*
X230621Y475552D01*
X230619Y475656D01*
X230612Y475675D01*
X230610Y475694D01*
X230570Y475789D01*
X230534Y475887D01*
X230522Y475902D01*
X230514Y475921D01*
X230409Y476052D01*
X229848Y476613D01*
X229848Y487876D01*
X230741Y488769D01*
X238504Y488769D01*
X239398Y487876D01*
X239398Y487534D01*
X239409Y487464D01*
X239411Y487392D01*
X239429Y487343D01*
X239437Y487292D01*
X239471Y487228D01*
X239495Y487161D01*
X239528Y487120D01*
X239552Y487074D01*
X239604Y487025D01*
X239649Y486969D01*
X239693Y486941D01*
X239731Y486905D01*
X239796Y486875D01*
X239856Y486836D01*
X239907Y486823D01*
X239954Y486801D01*
X240025Y486793D01*
X240095Y486776D01*
X240146Y486780D01*
X240198Y486774D01*
X240268Y486789D01*
X240340Y486795D01*
X240388Y486815D01*
X240439Y486826D01*
X240500Y486863D01*
X240566Y486891D01*
X240622Y486936D01*
X240650Y486953D01*
X240665Y486970D01*
X240697Y486996D01*
X241510Y487810D01*
X252889Y487810D01*
X252979Y487824D01*
X253070Y487831D01*
X253099Y487844D01*
X253131Y487849D01*
X253212Y487892D01*
X253296Y487928D01*
X253328Y487953D01*
X253349Y487964D01*
X253371Y487988D01*
X253427Y488032D01*
X253627Y488232D01*
X253668Y488290D01*
X253718Y488342D01*
X253740Y488390D01*
X253770Y488432D01*
X253791Y488500D01*
X253821Y488565D01*
X253827Y488617D01*
X253843Y488667D01*
X253841Y488739D01*
X253849Y488810D01*
X253838Y488861D01*
X253836Y488913D01*
X253812Y488980D01*
X253796Y489050D01*
X253770Y489095D01*
X253752Y489144D01*
X253707Y489200D01*
X253670Y489261D01*
X253631Y489295D01*
X253598Y489336D01*
X253538Y489375D01*
X253483Y489421D01*
X253435Y489441D01*
X253391Y489469D01*
X253322Y489486D01*
X253255Y489513D01*
X253184Y489521D01*
X253153Y489529D01*
X253129Y489527D01*
X253088Y489532D01*
X241815Y489532D01*
X240922Y490425D01*
X240922Y491004D01*
X240919Y491024D01*
X240921Y491044D01*
X240899Y491145D01*
X240882Y491247D01*
X240873Y491265D01*
X240869Y491284D01*
X240816Y491373D01*
X240767Y491465D01*
X240753Y491478D01*
X240743Y491495D01*
X240664Y491563D01*
X240589Y491634D01*
X240571Y491642D01*
X240556Y491655D01*
X240459Y491694D01*
X240366Y491738D01*
X240346Y491740D01*
X240328Y491747D01*
X240161Y491766D01*
X239372Y491766D01*
X239282Y491751D01*
X239191Y491744D01*
X239161Y491731D01*
X239129Y491726D01*
X239048Y491683D01*
X238964Y491648D01*
X238932Y491622D01*
X238912Y491611D01*
X238889Y491588D01*
X238833Y491543D01*
X238758Y491468D01*
X230995Y491468D01*
X230102Y492361D01*
X230102Y503624D01*
X230917Y504439D01*
X230929Y504455D01*
X230944Y504468D01*
X231000Y504555D01*
X231061Y504639D01*
X231067Y504658D01*
X231077Y504675D01*
X231103Y504775D01*
X231133Y504874D01*
X231133Y504894D01*
X231137Y504913D01*
X231129Y505016D01*
X231127Y505120D01*
X231120Y505139D01*
X231118Y505158D01*
X231078Y505253D01*
X231042Y505351D01*
X231030Y505366D01*
X231022Y505385D01*
X230917Y505516D01*
X230102Y506331D01*
X230102Y517594D01*
X231024Y518516D01*
X231031Y518518D01*
X231083Y518527D01*
X231146Y518560D01*
X231213Y518585D01*
X231254Y518618D01*
X231300Y518642D01*
X231349Y518694D01*
X231405Y518739D01*
X231434Y518783D01*
X231469Y518820D01*
X231500Y518885D01*
X231538Y518946D01*
X231551Y518996D01*
X231573Y519043D01*
X231581Y519115D01*
X231598Y519184D01*
X231594Y519236D01*
X231600Y519288D01*
X231585Y519358D01*
X231579Y519429D01*
X231559Y519477D01*
X231548Y519528D01*
X231511Y519590D01*
X231483Y519656D01*
X231438Y519712D01*
X231422Y519739D01*
X231404Y519755D01*
X231378Y519787D01*
X230610Y520555D01*
X230610Y531818D01*
X231552Y532760D01*
X231564Y532776D01*
X231579Y532789D01*
X231635Y532876D01*
X231696Y532960D01*
X231702Y532979D01*
X231712Y532996D01*
X231738Y533096D01*
X231768Y533195D01*
X231768Y533215D01*
X231772Y533234D01*
X231764Y533337D01*
X231762Y533441D01*
X231755Y533460D01*
X231753Y533479D01*
X231713Y533574D01*
X231677Y533672D01*
X231665Y533687D01*
X231657Y533706D01*
X231552Y533837D01*
X230610Y534779D01*
X230610Y546042D01*
X231503Y546935D01*
X239266Y546935D01*
X240160Y546042D01*
X240160Y546005D01*
X240171Y545935D01*
X240173Y545863D01*
X240191Y545814D01*
X240199Y545762D01*
X240233Y545699D01*
X240257Y545632D01*
X240290Y545591D01*
X240314Y545545D01*
X240366Y545496D01*
X240411Y545440D01*
X240455Y545412D01*
X240493Y545376D01*
X240558Y545346D01*
X240618Y545307D01*
X240669Y545294D01*
X240716Y545272D01*
X240787Y545264D01*
X240857Y545247D01*
X240908Y545251D01*
X240960Y545245D01*
X241030Y545260D01*
X241102Y545266D01*
X241150Y545286D01*
X241201Y545297D01*
X241262Y545334D01*
X241328Y545362D01*
X241384Y545407D01*
X241412Y545423D01*
X241427Y545441D01*
X241459Y545467D01*
X242069Y546077D01*
X249558Y546077D01*
X249628Y546089D01*
X249700Y546091D01*
X249749Y546108D01*
X249800Y546117D01*
X249864Y546150D01*
X249931Y546175D01*
X249972Y546208D01*
X250018Y546232D01*
X250067Y546284D01*
X250123Y546329D01*
X250151Y546373D01*
X250187Y546410D01*
X250217Y546475D01*
X250256Y546536D01*
X250269Y546586D01*
X250291Y546633D01*
X250299Y546705D01*
X250316Y546774D01*
X250312Y546826D01*
X250318Y546878D01*
X250303Y546948D01*
X250297Y547019D01*
X250277Y547067D01*
X250266Y547118D01*
X250229Y547180D01*
X250201Y547246D01*
X250156Y547302D01*
X250139Y547329D01*
X250122Y547344D01*
X250096Y547377D01*
X249388Y548084D01*
X249314Y548138D01*
X249245Y548197D01*
X249215Y548209D01*
X249189Y548228D01*
X249101Y548255D01*
X249017Y548289D01*
X248976Y548293D01*
X248953Y548300D01*
X248921Y548299D01*
X248850Y548307D01*
X241993Y548307D01*
X241100Y549200D01*
X241100Y549922D01*
X241097Y549941D01*
X241099Y549961D01*
X241077Y550062D01*
X241060Y550164D01*
X241051Y550182D01*
X241047Y550201D01*
X240993Y550291D01*
X240945Y550382D01*
X240931Y550395D01*
X240920Y550413D01*
X240842Y550480D01*
X240767Y550551D01*
X240749Y550560D01*
X240733Y550573D01*
X240637Y550611D01*
X240544Y550655D01*
X240524Y550657D01*
X240505Y550664D01*
X240339Y550683D01*
X240072Y550683D01*
X239982Y550668D01*
X239891Y550661D01*
X239861Y550648D01*
X239829Y550643D01*
X239749Y550600D01*
X239665Y550565D01*
X239633Y550539D01*
X239612Y550528D01*
X239590Y550505D01*
X239534Y550460D01*
X238987Y549913D01*
X231224Y549913D01*
X230331Y550806D01*
X230331Y562069D01*
X231171Y562910D01*
X231183Y562926D01*
X231198Y562939D01*
X231254Y563026D01*
X231315Y563110D01*
X231321Y563129D01*
X231331Y563146D01*
X231357Y563246D01*
X231387Y563345D01*
X231387Y563365D01*
X231391Y563384D01*
X231383Y563487D01*
X231381Y563591D01*
X231374Y563609D01*
X231372Y563629D01*
X231332Y563724D01*
X231296Y563822D01*
X231284Y563837D01*
X231276Y563856D01*
X231171Y563987D01*
X230407Y564751D01*
X230407Y576014D01*
X230870Y576477D01*
X230912Y576536D01*
X230962Y576588D01*
X230984Y576635D01*
X231014Y576677D01*
X231035Y576746D01*
X231065Y576811D01*
X231071Y576862D01*
X231086Y576912D01*
X231084Y576984D01*
X231092Y577055D01*
X231081Y577106D01*
X231080Y577158D01*
X231055Y577225D01*
X231040Y577295D01*
X231013Y577340D01*
X230995Y577389D01*
X230951Y577445D01*
X230914Y577507D01*
X230874Y577540D01*
X230842Y577581D01*
X230781Y577620D01*
X230727Y577666D01*
X230679Y577686D01*
X230635Y577714D01*
X230565Y577732D01*
X230499Y577758D01*
X230428Y577766D01*
X230396Y577774D01*
X230373Y577772D01*
X230332Y577777D01*
X229497Y577777D01*
X228603Y578670D01*
X228603Y589933D01*
X229497Y590826D01*
X237260Y590826D01*
X238153Y589933D01*
X238153Y586658D01*
X238168Y586567D01*
X238175Y586477D01*
X238187Y586447D01*
X238193Y586415D01*
X238235Y586334D01*
X238271Y586250D01*
X238297Y586218D01*
X238308Y586197D01*
X238331Y586175D01*
X238376Y586119D01*
X239469Y585026D01*
X240747Y583748D01*
X240763Y583736D01*
X240776Y583721D01*
X240863Y583665D01*
X240947Y583604D01*
X240966Y583598D01*
X240983Y583588D01*
X241083Y583562D01*
X241182Y583532D01*
X241202Y583533D01*
X241221Y583528D01*
X241324Y583536D01*
X241428Y583538D01*
X241447Y583545D01*
X241467Y583547D01*
X241562Y583587D01*
X241659Y583623D01*
X241675Y583635D01*
X241693Y583643D01*
X241824Y583748D01*
X242018Y583943D01*
X253282Y583943D01*
X254175Y583049D01*
X254175Y579520D01*
X254189Y579430D01*
X254197Y579339D01*
X254209Y579309D01*
X254214Y579277D01*
X254257Y579196D01*
X254293Y579112D01*
X254319Y579080D01*
X254330Y579060D01*
X254353Y579037D01*
X254398Y578981D01*
X257354Y576026D01*
X257354Y569483D01*
X257368Y569393D01*
X257375Y569302D01*
X257388Y569272D01*
X257393Y569240D01*
X257436Y569159D01*
X257472Y569076D01*
X257497Y569043D01*
X257508Y569023D01*
X257532Y569001D01*
X257576Y568945D01*
X268389Y558132D01*
X268463Y558079D01*
X268533Y558019D01*
X268563Y558007D01*
X268589Y557988D01*
X268676Y557961D01*
X268761Y557927D01*
X268802Y557923D01*
X268824Y557916D01*
X268856Y557917D01*
X268928Y557909D01*
X270016Y557909D01*
X270086Y557920D01*
X270158Y557922D01*
X270207Y557940D01*
X270258Y557948D01*
X270322Y557982D01*
X270389Y558007D01*
X270430Y558039D01*
X270476Y558064D01*
X270525Y558116D01*
X270581Y558160D01*
X270609Y558204D01*
X270645Y558242D01*
X270675Y558307D01*
X270714Y558367D01*
X270727Y558418D01*
X270749Y558465D01*
X270757Y558536D01*
X270774Y558606D01*
X270770Y558658D01*
X270776Y558709D01*
X270761Y558780D01*
X270755Y558851D01*
X270735Y558899D01*
X270724Y558950D01*
X270687Y559011D01*
X270659Y559077D01*
X270614Y559133D01*
X270597Y559161D01*
X270580Y559176D01*
X270554Y559208D01*
X262674Y567088D01*
X261111Y568651D01*
X261111Y582255D01*
X261097Y582345D01*
X261089Y582436D01*
X261077Y582465D01*
X261072Y582497D01*
X261029Y582578D01*
X260993Y582662D01*
X260967Y582694D01*
X260956Y582715D01*
X260933Y582737D01*
X260888Y582793D01*
X254011Y589670D01*
X253937Y589723D01*
X253868Y589783D01*
X253838Y589795D01*
X253811Y589814D01*
X253724Y589840D01*
X253640Y589875D01*
X253599Y589879D01*
X253576Y589886D01*
X253544Y589885D01*
X253473Y589893D01*
X242018Y589893D01*
X241125Y590786D01*
X241125Y592919D01*
X241110Y593009D01*
X241103Y593100D01*
X241091Y593130D01*
X241085Y593162D01*
X241043Y593242D01*
X241007Y593326D01*
X240981Y593358D01*
X240970Y593379D01*
X240947Y593401D01*
X240902Y593457D01*
X240416Y593943D01*
X240416Y593944D01*
X239452Y594907D01*
X239394Y594949D01*
X239342Y594998D01*
X239295Y595020D01*
X239253Y595051D01*
X239184Y595072D01*
X239119Y595102D01*
X239067Y595108D01*
X239018Y595123D01*
X238946Y595121D01*
X238875Y595129D01*
X238824Y595118D01*
X238772Y595117D01*
X238704Y595092D01*
X238634Y595077D01*
X238590Y595050D01*
X238541Y595032D01*
X238485Y594987D01*
X238423Y594951D01*
X238389Y594911D01*
X238349Y594878D01*
X238310Y594818D01*
X238263Y594764D01*
X238244Y594715D01*
X238216Y594671D01*
X238198Y594602D01*
X238171Y594535D01*
X238163Y594464D01*
X238156Y594433D01*
X238157Y594410D01*
X238153Y594369D01*
X238153Y593377D01*
X237260Y592483D01*
X229497Y592483D01*
X228603Y593377D01*
X228603Y604640D01*
X229685Y605722D01*
X229697Y605738D01*
X229713Y605750D01*
X229741Y605794D01*
X229775Y605830D01*
X229796Y605876D01*
X229829Y605921D01*
X229835Y605940D01*
X229846Y605957D01*
X229859Y606011D01*
X229879Y606053D01*
X229884Y606100D01*
X229901Y606156D01*
X229901Y606176D01*
X229906Y606196D01*
X229901Y606255D01*
X229906Y606298D01*
X229896Y606341D01*
X229895Y606402D01*
X229888Y606421D01*
X229886Y606441D01*
X229862Y606498D01*
X229854Y606538D01*
X229832Y606574D01*
X229810Y606633D01*
X229798Y606649D01*
X229790Y606667D01*
X229736Y606735D01*
X229727Y606749D01*
X229718Y606757D01*
X229685Y606798D01*
X228578Y607905D01*
X228578Y619169D01*
X229471Y620062D01*
X237234Y620062D01*
X237870Y619426D01*
X237928Y619384D01*
X237980Y619335D01*
X238027Y619313D01*
X238070Y619283D01*
X238138Y619262D01*
X238203Y619231D01*
X238255Y619226D01*
X238305Y619210D01*
X238376Y619212D01*
X238448Y619204D01*
X238499Y619215D01*
X238551Y619217D01*
X238618Y619241D01*
X238688Y619256D01*
X238733Y619283D01*
X238782Y619301D01*
X238838Y619346D01*
X238899Y619383D01*
X238933Y619422D01*
X238974Y619455D01*
X239012Y619515D01*
X239059Y619570D01*
X239079Y619618D01*
X239107Y619662D01*
X239124Y619731D01*
X239151Y619798D01*
X239159Y619869D01*
X239167Y619900D01*
X239165Y619924D01*
X239169Y619964D01*
X239169Y621892D01*
X239158Y621963D01*
X239156Y622035D01*
X239138Y622084D01*
X239130Y622135D01*
X239096Y622198D01*
X239072Y622266D01*
X239039Y622306D01*
X239015Y622353D01*
X238963Y622402D01*
X238918Y622458D01*
X238874Y622486D01*
X238836Y622522D01*
X238771Y622552D01*
X238711Y622591D01*
X238660Y622604D01*
X238613Y622626D01*
X238542Y622633D01*
X238472Y622651D01*
X238420Y622647D01*
X238369Y622653D01*
X238299Y622637D01*
X238227Y622632D01*
X238179Y622611D01*
X238128Y622600D01*
X238067Y622564D01*
X238001Y622535D01*
X237945Y622491D01*
X237917Y622474D01*
X237902Y622456D01*
X237870Y622431D01*
X237133Y621693D01*
X229370Y621693D01*
X228476Y622587D01*
X228476Y633850D01*
X229088Y634462D01*
X229130Y634520D01*
X229180Y634572D01*
X229202Y634619D01*
X229232Y634661D01*
X229253Y634730D01*
X229283Y634795D01*
X229289Y634847D01*
X229304Y634897D01*
X229302Y634968D01*
X229310Y635039D01*
X229299Y635090D01*
X229298Y635142D01*
X229273Y635210D01*
X229258Y635280D01*
X229231Y635324D01*
X229213Y635373D01*
X229169Y635429D01*
X229132Y635491D01*
X229092Y635525D01*
X229060Y635565D01*
X228999Y635604D01*
X228945Y635651D01*
X228897Y635670D01*
X228853Y635698D01*
X228783Y635716D01*
X228717Y635743D01*
X228645Y635751D01*
X228614Y635759D01*
X228591Y635757D01*
X228550Y635761D01*
X222452Y635761D01*
X222382Y635750D01*
X222310Y635748D01*
X222261Y635730D01*
X222210Y635722D01*
X222146Y635688D01*
X222079Y635663D01*
X222038Y635631D01*
X221992Y635606D01*
X221943Y635555D01*
X221887Y635510D01*
X221859Y635466D01*
X221823Y635428D01*
X221793Y635363D01*
X221754Y635303D01*
X221741Y635252D01*
X221719Y635205D01*
X221711Y635134D01*
X221694Y635064D01*
X221698Y635012D01*
X221692Y634961D01*
X221707Y634890D01*
X221713Y634819D01*
X221733Y634771D01*
X221744Y634720D01*
X221781Y634659D01*
X221809Y634593D01*
X221854Y634537D01*
X221870Y634509D01*
X221888Y634494D01*
X221914Y634462D01*
X222526Y633850D01*
X222526Y622587D01*
X221633Y621693D01*
X213870Y621693D01*
X212976Y622587D01*
X212976Y625170D01*
X212973Y625190D01*
X212975Y625210D01*
X212953Y625311D01*
X212937Y625413D01*
X212927Y625431D01*
X212923Y625450D01*
X212870Y625539D01*
X212822Y625630D01*
X212807Y625644D01*
X212797Y625661D01*
X212718Y625729D01*
X212643Y625800D01*
X212625Y625808D01*
X212610Y625821D01*
X212514Y625860D01*
X212420Y625903D01*
X212400Y625906D01*
X212382Y625913D01*
X212215Y625931D01*
X180660Y625931D01*
X180570Y625917D01*
X180479Y625910D01*
X180449Y625897D01*
X180417Y625892D01*
X180336Y625849D01*
X180252Y625813D01*
X180220Y625788D01*
X180200Y625777D01*
X180177Y625753D01*
X180121Y625709D01*
X158613Y604200D01*
X155423Y604200D01*
X155403Y604196D01*
X155383Y604199D01*
X155282Y604177D01*
X155180Y604160D01*
X155162Y604151D01*
X155143Y604146D01*
X155054Y604093D01*
X154962Y604045D01*
X154949Y604030D01*
X154932Y604020D01*
X154864Y603942D01*
X154793Y603867D01*
X154785Y603848D01*
X154772Y603833D01*
X154733Y603737D01*
X154689Y603643D01*
X154687Y603624D01*
X154680Y603605D01*
X154661Y603438D01*
X154661Y599164D01*
X153768Y598271D01*
X132185Y598271D01*
X131318Y599138D01*
X131260Y599180D01*
X131208Y599229D01*
X131161Y599251D01*
X131118Y599281D01*
X131050Y599302D01*
X130985Y599333D01*
X130933Y599338D01*
X130883Y599354D01*
X130812Y599352D01*
X130741Y599360D01*
X130690Y599349D01*
X130637Y599347D01*
X130570Y599323D01*
X130500Y599308D01*
X130455Y599281D01*
X130406Y599263D01*
X130350Y599218D01*
X130289Y599182D01*
X130255Y599142D01*
X130214Y599109D01*
X130176Y599049D01*
X130129Y598995D01*
X130110Y598946D01*
X130081Y598902D01*
X130064Y598833D01*
X130037Y598767D01*
X130029Y598695D01*
X130021Y598664D01*
X130023Y598641D01*
X130019Y598600D01*
X130016Y591882D01*
X130028Y591811D01*
X130030Y591739D01*
X130047Y591690D01*
X130056Y591639D01*
X130089Y591575D01*
X130114Y591508D01*
X130146Y591467D01*
X130171Y591421D01*
X130223Y591372D01*
X130268Y591316D01*
X130311Y591288D01*
X130349Y591252D01*
X130414Y591222D01*
X130475Y591183D01*
X130525Y591170D01*
X130572Y591148D01*
X130644Y591140D01*
X130713Y591123D01*
X130765Y591127D01*
X130817Y591121D01*
X130887Y591136D01*
X130958Y591142D01*
X131006Y591162D01*
X131057Y591173D01*
X131119Y591210D01*
X131185Y591238D01*
X131240Y591283D01*
X131268Y591299D01*
X131283Y591317D01*
X131316Y591343D01*
X132106Y592134D01*
X166211Y592134D01*
X166301Y592148D01*
X166392Y592155D01*
X166422Y592168D01*
X166454Y592173D01*
X166535Y592216D01*
X166619Y592252D01*
X166651Y592277D01*
X166671Y592288D01*
X166694Y592312D01*
X166750Y592356D01*
X178684Y604291D01*
X178738Y604365D01*
X178797Y604435D01*
X178809Y604465D01*
X178828Y604491D01*
X178855Y604578D01*
X178889Y604663D01*
X178894Y604704D01*
X178900Y604726D01*
X178900Y604758D01*
X178907Y604830D01*
X178907Y607264D01*
X181279Y609636D01*
X184633Y609636D01*
X187005Y607264D01*
X187005Y603910D01*
X184633Y601538D01*
X181996Y601538D01*
X181906Y601523D01*
X181815Y601516D01*
X181785Y601504D01*
X181753Y601498D01*
X181672Y601456D01*
X181589Y601420D01*
X181556Y601394D01*
X181536Y601383D01*
X181514Y601360D01*
X181458Y601315D01*
X168211Y588068D01*
X155423Y588068D01*
X155403Y588065D01*
X155383Y588067D01*
X155282Y588045D01*
X155180Y588028D01*
X155162Y588019D01*
X155143Y588015D01*
X155054Y587962D01*
X154962Y587913D01*
X154949Y587899D01*
X154932Y587889D01*
X154864Y587810D01*
X154793Y587735D01*
X154785Y587717D01*
X154772Y587702D01*
X154733Y587605D01*
X154689Y587512D01*
X154687Y587492D01*
X154680Y587474D01*
X154661Y587307D01*
X154661Y574980D01*
X154665Y574960D01*
X154662Y574940D01*
X154684Y574839D01*
X154701Y574737D01*
X154710Y574720D01*
X154715Y574700D01*
X154768Y574611D01*
X154816Y574520D01*
X154831Y574506D01*
X154841Y574489D01*
X154920Y574422D01*
X154995Y574350D01*
X155013Y574342D01*
X155028Y574329D01*
X155124Y574290D01*
X155218Y574247D01*
X155237Y574245D01*
X155256Y574237D01*
X155423Y574219D01*
X188951Y574219D01*
X188970Y574222D01*
X188990Y574220D01*
X189091Y574242D01*
X189193Y574258D01*
X189211Y574268D01*
X189230Y574272D01*
X189319Y574325D01*
X189411Y574373D01*
X189424Y574388D01*
X189442Y574398D01*
X189509Y574477D01*
X189580Y574552D01*
X189589Y574570D01*
X189601Y574585D01*
X189640Y574681D01*
X189684Y574775D01*
X189686Y574795D01*
X189693Y574813D01*
X189712Y574980D01*
X189712Y587727D01*
X190605Y588620D01*
X204935Y588620D01*
X205025Y588635D01*
X205116Y588642D01*
X205146Y588655D01*
X205178Y588660D01*
X205258Y588703D01*
X205342Y588739D01*
X205374Y588764D01*
X205395Y588775D01*
X205417Y588799D01*
X205473Y588843D01*
X212880Y596251D01*
X212934Y596325D01*
X212993Y596394D01*
X213005Y596424D01*
X213024Y596451D01*
X213051Y596537D01*
X213085Y596622D01*
X213090Y596663D01*
X213096Y596686D01*
X213096Y596718D01*
X213103Y596789D01*
X213103Y597510D01*
X213100Y597529D01*
X213102Y597549D01*
X213080Y597650D01*
X213064Y597752D01*
X213054Y597770D01*
X213050Y597789D01*
X212997Y597878D01*
X212949Y597970D01*
X212934Y597983D01*
X212924Y598001D01*
X212845Y598068D01*
X212770Y598139D01*
X212752Y598148D01*
X212737Y598160D01*
X212641Y598199D01*
X212547Y598243D01*
X212527Y598245D01*
X212509Y598252D01*
X212342Y598271D01*
X190605Y598271D01*
X189712Y599164D01*
X189712Y613127D01*
X190605Y614020D01*
X212317Y614020D01*
X212336Y614024D01*
X212356Y614021D01*
X212458Y614043D01*
X212560Y614060D01*
X212577Y614069D01*
X212597Y614074D01*
X212686Y614127D01*
X212777Y614175D01*
X212791Y614190D01*
X212808Y614200D01*
X212875Y614279D01*
X212946Y614354D01*
X212955Y614372D01*
X212968Y614387D01*
X213006Y614483D01*
X213050Y614577D01*
X213052Y614596D01*
X213060Y614615D01*
X213078Y614782D01*
X213078Y619169D01*
X213971Y620062D01*
X221734Y620062D01*
X222628Y619169D01*
X222628Y607905D01*
X221546Y606824D01*
X221534Y606807D01*
X221518Y606795D01*
X221462Y606708D01*
X221402Y606624D01*
X221396Y606605D01*
X221385Y606588D01*
X221360Y606488D01*
X221330Y606389D01*
X221330Y606369D01*
X221325Y606350D01*
X221333Y606247D01*
X221336Y606143D01*
X221343Y606124D01*
X221345Y606104D01*
X221385Y606010D01*
X221421Y605912D01*
X221433Y605896D01*
X221441Y605878D01*
X221528Y605769D01*
X221529Y605767D01*
X221530Y605767D01*
X221546Y605747D01*
X222653Y604640D01*
X222653Y593377D01*
X221760Y592483D01*
X215896Y592483D01*
X215806Y592469D01*
X215715Y592462D01*
X215686Y592449D01*
X215654Y592444D01*
X215573Y592401D01*
X215489Y592365D01*
X215457Y592340D01*
X215436Y592329D01*
X215414Y592305D01*
X215358Y592261D01*
X215223Y592126D01*
X215182Y592068D01*
X215132Y592016D01*
X215110Y591968D01*
X215080Y591926D01*
X215059Y591858D01*
X215029Y591793D01*
X215023Y591741D01*
X215008Y591691D01*
X215009Y591619D01*
X215001Y591548D01*
X215013Y591497D01*
X215014Y591445D01*
X215039Y591378D01*
X215054Y591308D01*
X215080Y591263D01*
X215098Y591214D01*
X215143Y591158D01*
X215180Y591097D01*
X215219Y591063D01*
X215252Y591022D01*
X215312Y590983D01*
X215367Y590937D01*
X215415Y590917D01*
X215459Y590889D01*
X215528Y590872D01*
X215595Y590845D01*
X215666Y590837D01*
X215697Y590829D01*
X215721Y590831D01*
X215762Y590826D01*
X221760Y590826D01*
X222653Y589933D01*
X222653Y578670D01*
X222189Y578207D01*
X222148Y578148D01*
X222098Y578096D01*
X222076Y578049D01*
X222046Y578007D01*
X222025Y577938D01*
X221995Y577873D01*
X221989Y577822D01*
X221974Y577772D01*
X221975Y577700D01*
X221968Y577629D01*
X221979Y577578D01*
X221980Y577526D01*
X222005Y577459D01*
X222020Y577389D01*
X222047Y577344D01*
X222064Y577295D01*
X222109Y577239D01*
X222146Y577177D01*
X222186Y577144D01*
X222218Y577103D01*
X222278Y577064D01*
X222333Y577018D01*
X222381Y576998D01*
X222425Y576970D01*
X222495Y576952D01*
X222561Y576926D01*
X222632Y576918D01*
X222664Y576910D01*
X222687Y576912D01*
X222728Y576907D01*
X223563Y576907D01*
X224456Y576014D01*
X224456Y564751D01*
X223616Y563910D01*
X223604Y563894D01*
X223589Y563882D01*
X223533Y563795D01*
X223472Y563711D01*
X223466Y563691D01*
X223456Y563675D01*
X223430Y563574D01*
X223400Y563475D01*
X223400Y563455D01*
X223396Y563436D01*
X223404Y563333D01*
X223406Y563230D01*
X223413Y563211D01*
X223415Y563191D01*
X223455Y563096D01*
X223491Y562999D01*
X223503Y562983D01*
X223511Y562965D01*
X223616Y562834D01*
X224380Y562069D01*
X224380Y550806D01*
X223487Y549913D01*
X215724Y549913D01*
X214831Y550806D01*
X214831Y553390D01*
X214827Y553410D01*
X214830Y553429D01*
X214808Y553531D01*
X214791Y553633D01*
X214782Y553650D01*
X214777Y553670D01*
X214724Y553759D01*
X214676Y553850D01*
X214661Y553864D01*
X214651Y553881D01*
X214572Y553948D01*
X214497Y554019D01*
X214479Y554028D01*
X214464Y554041D01*
X214368Y554079D01*
X214274Y554123D01*
X214255Y554125D01*
X214236Y554133D01*
X214069Y554151D01*
X213843Y554151D01*
X213823Y554148D01*
X213803Y554150D01*
X213702Y554128D01*
X213600Y554111D01*
X213582Y554102D01*
X213563Y554098D01*
X213474Y554045D01*
X213382Y553996D01*
X213369Y553982D01*
X213352Y553972D01*
X213284Y553893D01*
X213213Y553818D01*
X213205Y553800D01*
X213192Y553785D01*
X213153Y553688D01*
X213109Y553595D01*
X213107Y553575D01*
X213100Y553557D01*
X213081Y553390D01*
X213081Y548364D01*
X212188Y547471D01*
X190605Y547471D01*
X189983Y548093D01*
X189967Y548105D01*
X189954Y548120D01*
X189867Y548176D01*
X189783Y548237D01*
X189764Y548242D01*
X189747Y548253D01*
X189647Y548278D01*
X189548Y548309D01*
X189528Y548308D01*
X189509Y548313D01*
X189406Y548305D01*
X189302Y548303D01*
X189284Y548296D01*
X189264Y548294D01*
X189169Y548254D01*
X189071Y548218D01*
X189056Y548206D01*
X189037Y548198D01*
X188906Y548093D01*
X188641Y547827D01*
X188588Y547754D01*
X188528Y547684D01*
X188516Y547654D01*
X188497Y547628D01*
X188471Y547541D01*
X188436Y547456D01*
X188432Y547415D01*
X188425Y547393D01*
X188426Y547360D01*
X188418Y547289D01*
X188418Y544416D01*
X186037Y542035D01*
X182670Y542035D01*
X180288Y544416D01*
X180288Y546975D01*
X180274Y547065D01*
X180267Y547156D01*
X180254Y547185D01*
X180249Y547217D01*
X180206Y547298D01*
X180170Y547382D01*
X180145Y547414D01*
X180134Y547435D01*
X180110Y547457D01*
X180065Y547513D01*
X179492Y548086D01*
X179492Y548857D01*
X179492Y550084D01*
X179492Y550086D01*
X179493Y555845D01*
X179478Y555935D01*
X179471Y556026D01*
X179458Y556055D01*
X179453Y556087D01*
X179410Y556168D01*
X179375Y556252D01*
X179349Y556284D01*
X179338Y556305D01*
X179315Y556327D01*
X179270Y556383D01*
X177512Y558141D01*
X177512Y561508D01*
X178711Y562707D01*
X178753Y562765D01*
X178802Y562817D01*
X178824Y562864D01*
X178854Y562906D01*
X178875Y562975D01*
X178906Y563040D01*
X178911Y563092D01*
X178927Y563142D01*
X178925Y563213D01*
X178933Y563284D01*
X178922Y563335D01*
X178920Y563387D01*
X178896Y563455D01*
X178880Y563525D01*
X178854Y563570D01*
X178836Y563618D01*
X178791Y563674D01*
X178754Y563736D01*
X178715Y563770D01*
X178682Y563810D01*
X178622Y563849D01*
X178567Y563896D01*
X178519Y563915D01*
X178475Y563943D01*
X178406Y563961D01*
X178339Y563988D01*
X178268Y563996D01*
X178237Y564004D01*
X178213Y564002D01*
X178172Y564006D01*
X174668Y564006D01*
X174578Y563992D01*
X174487Y563984D01*
X174457Y563972D01*
X174425Y563967D01*
X174345Y563924D01*
X174261Y563888D01*
X174229Y563862D01*
X174208Y563851D01*
X174186Y563828D01*
X174130Y563783D01*
X155278Y544931D01*
X131029Y544931D01*
X130965Y544960D01*
X130913Y544966D01*
X130864Y544981D01*
X130792Y544980D01*
X130721Y544987D01*
X130670Y544976D01*
X130618Y544975D01*
X130551Y544950D01*
X130481Y544935D01*
X130436Y544909D01*
X130387Y544891D01*
X130331Y544846D01*
X130269Y544809D01*
X130235Y544770D01*
X130195Y544737D01*
X130156Y544677D01*
X130109Y544622D01*
X130090Y544574D01*
X130062Y544530D01*
X130044Y544461D01*
X130017Y544394D01*
X130009Y544323D01*
X130002Y544292D01*
X130003Y544268D01*
X129999Y544227D01*
X129996Y537470D01*
X130008Y537399D01*
X130010Y537327D01*
X130028Y537278D01*
X130036Y537227D01*
X130070Y537164D01*
X130094Y537096D01*
X130127Y537055D01*
X130151Y537010D01*
X130203Y536960D01*
X130248Y536904D01*
X130292Y536876D01*
X130329Y536840D01*
X130394Y536810D01*
X130455Y536771D01*
X130505Y536758D01*
X130552Y536736D01*
X130624Y536728D01*
X130693Y536711D01*
X130745Y536715D01*
X130797Y536709D01*
X130867Y536725D01*
X130939Y536730D01*
X130986Y536750D01*
X131037Y536761D01*
X131099Y536798D01*
X131165Y536826D01*
X131221Y536871D01*
X131248Y536888D01*
X131264Y536905D01*
X131296Y536931D01*
X132185Y537820D01*
X153768Y537820D01*
X154661Y536927D01*
X154661Y525138D01*
X154676Y525047D01*
X154683Y524957D01*
X154696Y524927D01*
X154701Y524895D01*
X154744Y524814D01*
X154780Y524730D01*
X154805Y524698D01*
X154816Y524677D01*
X154840Y524655D01*
X154884Y524599D01*
X158534Y520949D01*
X158608Y520896D01*
X158678Y520837D01*
X158708Y520824D01*
X158734Y520806D01*
X158821Y520779D01*
X158906Y520745D01*
X158947Y520740D01*
X158969Y520733D01*
X159001Y520734D01*
X159073Y520726D01*
X190112Y520726D01*
X190183Y520738D01*
X190254Y520740D01*
X190303Y520757D01*
X190355Y520766D01*
X190418Y520799D01*
X190485Y520824D01*
X190526Y520857D01*
X190572Y520881D01*
X190621Y520933D01*
X190677Y520978D01*
X190706Y521022D01*
X190742Y521059D01*
X190772Y521124D01*
X190810Y521185D01*
X190823Y521235D01*
X190845Y521282D01*
X190853Y521354D01*
X190871Y521423D01*
X190866Y521475D01*
X190872Y521527D01*
X190857Y521597D01*
X190851Y521668D01*
X190831Y521716D01*
X190820Y521767D01*
X190783Y521829D01*
X190755Y521895D01*
X190710Y521951D01*
X190694Y521978D01*
X190676Y521994D01*
X190650Y522026D01*
X189712Y522964D01*
X189712Y536927D01*
X190605Y537820D01*
X209430Y537820D01*
X209521Y537835D01*
X209611Y537842D01*
X209641Y537855D01*
X209673Y537860D01*
X209754Y537903D01*
X209838Y537939D01*
X209870Y537964D01*
X209891Y537975D01*
X209913Y537999D01*
X209969Y538043D01*
X214742Y542816D01*
X214809Y542852D01*
X214823Y542866D01*
X214840Y542877D01*
X214907Y542955D01*
X214978Y543030D01*
X214987Y543048D01*
X215000Y543064D01*
X215038Y543160D01*
X215082Y543253D01*
X215084Y543273D01*
X215092Y543292D01*
X215110Y543458D01*
X215110Y546042D01*
X216003Y546935D01*
X223766Y546935D01*
X224660Y546042D01*
X224660Y534779D01*
X223717Y533837D01*
X223706Y533821D01*
X223690Y533808D01*
X223634Y533721D01*
X223574Y533637D01*
X223568Y533618D01*
X223557Y533601D01*
X223532Y533501D01*
X223501Y533402D01*
X223502Y533382D01*
X223497Y533363D01*
X223505Y533260D01*
X223508Y533156D01*
X223515Y533137D01*
X223516Y533117D01*
X223557Y533023D01*
X223592Y532925D01*
X223605Y532909D01*
X223613Y532891D01*
X223717Y532760D01*
X224660Y531818D01*
X224660Y520555D01*
X223738Y519633D01*
X223730Y519630D01*
X223679Y519622D01*
X223616Y519588D01*
X223548Y519564D01*
X223508Y519531D01*
X223461Y519507D01*
X223412Y519455D01*
X223356Y519410D01*
X223328Y519366D01*
X223292Y519328D01*
X223262Y519263D01*
X223223Y519203D01*
X223210Y519153D01*
X223188Y519105D01*
X223181Y519034D01*
X223163Y518965D01*
X223167Y518913D01*
X223161Y518861D01*
X223177Y518791D01*
X223182Y518719D01*
X223203Y518672D01*
X223214Y518621D01*
X223250Y518559D01*
X223279Y518493D01*
X223323Y518437D01*
X223340Y518409D01*
X223358Y518394D01*
X223383Y518362D01*
X224152Y517594D01*
X224152Y506331D01*
X223336Y505516D01*
X223325Y505500D01*
X223309Y505487D01*
X223253Y505400D01*
X223193Y505316D01*
X223187Y505297D01*
X223176Y505280D01*
X223151Y505180D01*
X223120Y505081D01*
X223121Y505061D01*
X223116Y505042D01*
X223124Y504939D01*
X223127Y504835D01*
X223134Y504816D01*
X223135Y504796D01*
X223176Y504702D01*
X223211Y504604D01*
X223224Y504588D01*
X223232Y504570D01*
X223336Y504439D01*
X224152Y503624D01*
X224152Y492361D01*
X223258Y491468D01*
X215495Y491468D01*
X214602Y492361D01*
X214602Y495154D01*
X214587Y495244D01*
X214580Y495335D01*
X214568Y495365D01*
X214562Y495397D01*
X214520Y495477D01*
X214484Y495561D01*
X214458Y495593D01*
X214447Y495614D01*
X214424Y495636D01*
X214379Y495692D01*
X213333Y496739D01*
X213316Y496750D01*
X213304Y496766D01*
X213217Y496822D01*
X213133Y496882D01*
X213114Y496888D01*
X213097Y496899D01*
X212997Y496924D01*
X212898Y496955D01*
X212878Y496954D01*
X212859Y496959D01*
X212756Y496951D01*
X212652Y496948D01*
X212633Y496941D01*
X212613Y496940D01*
X212518Y496899D01*
X212421Y496864D01*
X212405Y496851D01*
X212387Y496844D01*
X212256Y496739D01*
X212188Y496671D01*
X190605Y496671D01*
X189712Y497564D01*
X189712Y511527D01*
X189964Y511780D01*
X190006Y511838D01*
X190056Y511890D01*
X190078Y511937D01*
X190108Y511979D01*
X190129Y512048D01*
X190159Y512113D01*
X190165Y512165D01*
X190180Y512215D01*
X190178Y512286D01*
X190186Y512357D01*
X190175Y512408D01*
X190174Y512460D01*
X190149Y512528D01*
X190134Y512598D01*
X190107Y512643D01*
X190090Y512691D01*
X190045Y512747D01*
X190008Y512809D01*
X189968Y512843D01*
X189936Y512883D01*
X189876Y512922D01*
X189821Y512969D01*
X189773Y512988D01*
X189729Y513016D01*
X189660Y513034D01*
X189593Y513061D01*
X189522Y513069D01*
X189490Y513077D01*
X189467Y513075D01*
X189426Y513079D01*
X157854Y513079D01*
X157763Y513065D01*
X157673Y513057D01*
X157643Y513045D01*
X157611Y513040D01*
X157530Y512997D01*
X157446Y512961D01*
X157414Y512935D01*
X157393Y512924D01*
X157371Y512901D01*
X157315Y512856D01*
X154884Y510425D01*
X154831Y510351D01*
X154772Y510282D01*
X154760Y510252D01*
X154741Y510226D01*
X154714Y510139D01*
X154680Y510054D01*
X154675Y510013D01*
X154668Y509991D01*
X154669Y509958D01*
X154661Y509887D01*
X154661Y497564D01*
X153768Y496671D01*
X132185Y496671D01*
X131281Y497575D01*
X131223Y497616D01*
X131171Y497666D01*
X131124Y497688D01*
X131082Y497718D01*
X131013Y497739D01*
X130948Y497769D01*
X130896Y497775D01*
X130846Y497791D01*
X130775Y497789D01*
X130704Y497797D01*
X130653Y497786D01*
X130601Y497784D01*
X130533Y497760D01*
X130463Y497744D01*
X130419Y497718D01*
X130370Y497700D01*
X130314Y497655D01*
X130252Y497618D01*
X130218Y497579D01*
X130178Y497546D01*
X130139Y497486D01*
X130092Y497432D01*
X130073Y497383D01*
X130045Y497339D01*
X130027Y497270D01*
X130000Y497203D01*
X129992Y497132D01*
X129984Y497101D01*
X129986Y497077D01*
X129982Y497037D01*
X129978Y486651D01*
X129990Y486580D01*
X129991Y486509D01*
X130009Y486460D01*
X130018Y486409D01*
X130051Y486345D01*
X130076Y486278D01*
X130108Y486237D01*
X130133Y486191D01*
X130185Y486142D01*
X130230Y486086D01*
X130273Y486058D01*
X130311Y486022D01*
X130376Y485991D01*
X130436Y485953D01*
X130487Y485940D01*
X130534Y485918D01*
X130605Y485910D01*
X130675Y485893D01*
X130727Y485897D01*
X130778Y485891D01*
X130849Y485906D01*
X130920Y485912D01*
X130968Y485932D01*
X131019Y485943D01*
X131081Y485980D01*
X131147Y486008D01*
X131202Y486053D01*
X131230Y486069D01*
X131245Y486087D01*
X131277Y486113D01*
X132185Y487020D01*
X153768Y487020D01*
X154661Y486127D01*
X154661Y471975D01*
X154676Y471885D01*
X154683Y471794D01*
X154696Y471765D01*
X154701Y471733D01*
X154744Y471652D01*
X154780Y471568D01*
X154805Y471536D01*
X154816Y471515D01*
X154839Y471493D01*
X154884Y471437D01*
X156706Y469616D01*
X156780Y469563D01*
X156849Y469503D01*
X156879Y469491D01*
X156905Y469472D01*
X156993Y469445D01*
X157077Y469411D01*
X157118Y469407D01*
X157140Y469400D01*
X157173Y469401D01*
X157244Y469393D01*
X213587Y469393D01*
X213606Y469396D01*
X213626Y469394D01*
X213728Y469416D01*
X213830Y469432D01*
X213847Y469442D01*
X213867Y469446D01*
X213956Y469499D01*
X214047Y469548D01*
X214061Y469562D01*
X214078Y469572D01*
X214145Y469651D01*
X214216Y469726D01*
X214225Y469744D01*
X214238Y469759D01*
X214276Y469855D01*
X214320Y469949D01*
X214322Y469969D01*
X214330Y469987D01*
X214348Y470154D01*
X214348Y471593D01*
X214336Y471664D01*
X214335Y471735D01*
X214317Y471784D01*
X214308Y471836D01*
X214275Y471899D01*
X214250Y471966D01*
X214218Y472007D01*
X214193Y472053D01*
X214141Y472102D01*
X214096Y472158D01*
X214053Y472187D01*
X214015Y472222D01*
X213950Y472253D01*
X213890Y472291D01*
X213839Y472304D01*
X213792Y472326D01*
X213721Y472334D01*
X213651Y472351D01*
X213599Y472347D01*
X213547Y472353D01*
X213477Y472338D01*
X213406Y472332D01*
X213358Y472312D01*
X213307Y472301D01*
X213245Y472264D01*
X213179Y472236D01*
X213123Y472191D01*
X213096Y472175D01*
X213081Y472157D01*
X213049Y472131D01*
X212188Y471271D01*
X190605Y471271D01*
X189712Y472164D01*
X189712Y486127D01*
X190605Y487020D01*
X212188Y487020D01*
X213049Y486160D01*
X213107Y486118D01*
X213159Y486069D01*
X213206Y486047D01*
X213248Y486016D01*
X213317Y485995D01*
X213382Y485965D01*
X213434Y485959D01*
X213483Y485944D01*
X213555Y485946D01*
X213626Y485938D01*
X213677Y485949D01*
X213729Y485950D01*
X213797Y485975D01*
X213867Y485990D01*
X213911Y486017D01*
X213960Y486035D01*
X214016Y486080D01*
X214078Y486117D01*
X214112Y486156D01*
X214152Y486189D01*
X214191Y486249D01*
X214238Y486303D01*
X214257Y486352D01*
X214285Y486396D01*
X214303Y486465D01*
X214330Y486532D01*
X214337Y486603D01*
X214345Y486634D01*
X214344Y486657D01*
X214348Y486698D01*
X214348Y487876D01*
X215241Y488769D01*
X223004Y488769D01*
X223898Y487876D01*
X223898Y476613D01*
X223336Y476052D01*
X223325Y476036D01*
X223309Y476023D01*
X223253Y475936D01*
X223193Y475852D01*
X223187Y475833D01*
X223176Y475816D01*
X223151Y475716D01*
X223120Y475617D01*
X223121Y475597D01*
X223116Y475578D01*
X223124Y475475D01*
X223127Y475371D01*
X223134Y475352D01*
X223135Y475332D01*
X223176Y475238D01*
X223211Y475140D01*
X223224Y475124D01*
X223232Y475106D01*
X223336Y474975D01*
X223898Y474414D01*
X223898Y463151D01*
X223004Y462258D01*
X218400Y462258D01*
X218329Y462246D01*
X218258Y462244D01*
X218209Y462226D01*
X218157Y462218D01*
X218094Y462184D01*
X218027Y462160D01*
X217986Y462127D01*
X217940Y462103D01*
X217891Y462051D01*
X217835Y462006D01*
X217807Y461962D01*
X217771Y461924D01*
X217741Y461860D01*
X217702Y461799D01*
X217689Y461749D01*
X217667Y461701D01*
X217659Y461630D01*
X217642Y461561D01*
X217646Y461509D01*
X217640Y461457D01*
X217655Y461387D01*
X217661Y461315D01*
X217681Y461268D01*
X217692Y461217D01*
X217729Y461155D01*
X217757Y461089D01*
X217802Y461033D01*
X217818Y461005D01*
X217836Y460990D01*
X217862Y460958D01*
X219292Y459528D01*
X219366Y459475D01*
X219435Y459416D01*
X219466Y459403D01*
X219492Y459385D01*
X219579Y459358D01*
X219664Y459324D01*
X219704Y459319D01*
X219727Y459312D01*
X219759Y459313D01*
X219830Y459305D01*
X223004Y459305D01*
X223898Y458412D01*
X223898Y447149D01*
X223082Y446334D01*
X223071Y446318D01*
X223055Y446305D01*
X222999Y446218D01*
X222939Y446134D01*
X222933Y446115D01*
X222922Y446098D01*
X222897Y445998D01*
X222866Y445899D01*
X222867Y445879D01*
X222862Y445860D01*
X222870Y445757D01*
X222873Y445653D01*
X222880Y445634D01*
X222881Y445614D01*
X222922Y445520D01*
X222957Y445422D01*
X222970Y445406D01*
X222978Y445388D01*
X223082Y445257D01*
X223898Y444442D01*
X223898Y433179D01*
X223082Y432364D01*
X223071Y432348D01*
X223055Y432335D01*
X222999Y432248D01*
X222939Y432164D01*
X222933Y432145D01*
X222922Y432128D01*
X222897Y432028D01*
X222866Y431929D01*
X222867Y431909D01*
X222862Y431890D01*
X222870Y431787D01*
X222873Y431683D01*
X222880Y431664D01*
X222881Y431644D01*
X222922Y431550D01*
X222957Y431452D01*
X222970Y431436D01*
X222978Y431418D01*
X223082Y431287D01*
X223898Y430472D01*
X223898Y419209D01*
X223004Y418316D01*
X215241Y418316D01*
X214348Y419209D01*
X214348Y420793D01*
X214336Y420864D01*
X214335Y420935D01*
X214317Y420984D01*
X214308Y421036D01*
X214275Y421099D01*
X214250Y421166D01*
X214218Y421207D01*
X214193Y421253D01*
X214141Y421302D01*
X214096Y421358D01*
X214053Y421387D01*
X214015Y421422D01*
X213950Y421453D01*
X213890Y421491D01*
X213839Y421504D01*
X213792Y421526D01*
X213721Y421534D01*
X213651Y421551D01*
X213599Y421547D01*
X213547Y421553D01*
X213477Y421538D01*
X213406Y421532D01*
X213358Y421512D01*
X213307Y421501D01*
X213245Y421464D01*
X213179Y421436D01*
X213123Y421391D01*
X213096Y421375D01*
X213081Y421357D01*
X213049Y421331D01*
X212188Y420471D01*
X190605Y420471D01*
X189712Y421364D01*
X189712Y435327D01*
X190605Y436220D01*
X212188Y436220D01*
X213049Y435360D01*
X213107Y435318D01*
X213159Y435269D01*
X213206Y435247D01*
X213248Y435216D01*
X213317Y435195D01*
X213382Y435165D01*
X213434Y435159D01*
X213483Y435144D01*
X213555Y435146D01*
X213626Y435138D01*
X213677Y435149D01*
X213729Y435150D01*
X213797Y435175D01*
X213867Y435190D01*
X213911Y435217D01*
X213960Y435235D01*
X214016Y435280D01*
X214078Y435317D01*
X214112Y435356D01*
X214152Y435389D01*
X214191Y435449D01*
X214238Y435503D01*
X214257Y435552D01*
X214285Y435596D01*
X214303Y435665D01*
X214330Y435732D01*
X214337Y435803D01*
X214345Y435834D01*
X214344Y435857D01*
X214348Y435898D01*
X214348Y437245D01*
X214333Y437335D01*
X214326Y437426D01*
X214314Y437456D01*
X214308Y437488D01*
X214266Y437568D01*
X214230Y437652D01*
X214204Y437684D01*
X214193Y437705D01*
X214170Y437727D01*
X214160Y437740D01*
X214153Y437752D01*
X214145Y437758D01*
X214125Y437783D01*
X206260Y445648D01*
X206186Y445701D01*
X206117Y445760D01*
X206087Y445773D01*
X206061Y445791D01*
X205974Y445818D01*
X205889Y445852D01*
X205848Y445857D01*
X205826Y445864D01*
X205793Y445863D01*
X205722Y445871D01*
X190605Y445871D01*
X189712Y446764D01*
X189712Y461010D01*
X189709Y461030D01*
X189711Y461049D01*
X189689Y461151D01*
X189672Y461253D01*
X189663Y461270D01*
X189659Y461290D01*
X189605Y461379D01*
X189557Y461470D01*
X189543Y461484D01*
X189532Y461501D01*
X189454Y461568D01*
X189379Y461640D01*
X189361Y461648D01*
X189346Y461661D01*
X189249Y461700D01*
X189156Y461743D01*
X189136Y461745D01*
X189117Y461753D01*
X188951Y461771D01*
X157650Y461771D01*
X157560Y461757D01*
X157469Y461749D01*
X157440Y461737D01*
X157408Y461732D01*
X157327Y461689D01*
X157243Y461653D01*
X157211Y461627D01*
X157190Y461616D01*
X157168Y461593D01*
X157112Y461548D01*
X154884Y459321D01*
X154831Y459247D01*
X154772Y459177D01*
X154760Y459147D01*
X154741Y459121D01*
X154714Y459034D01*
X154680Y458949D01*
X154675Y458908D01*
X154668Y458886D01*
X154669Y458854D01*
X154661Y458782D01*
X154661Y446764D01*
X153768Y445871D01*
X132185Y445871D01*
X131263Y446793D01*
X131205Y446835D01*
X131153Y446884D01*
X131105Y446906D01*
X131063Y446937D01*
X130995Y446958D01*
X130930Y446988D01*
X130878Y446994D01*
X130828Y447009D01*
X130757Y447007D01*
X130685Y447015D01*
X130634Y447004D01*
X130582Y447003D01*
X130515Y446978D01*
X130445Y446963D01*
X130400Y446936D01*
X130351Y446918D01*
X130295Y446873D01*
X130234Y446837D01*
X130200Y446797D01*
X130159Y446764D01*
X130120Y446704D01*
X130074Y446650D01*
X130054Y446602D01*
X130026Y446558D01*
X130009Y446488D01*
X129982Y446422D01*
X129974Y446350D01*
X129966Y446319D01*
X129968Y446296D01*
X129963Y446255D01*
X129960Y435833D01*
X129971Y435762D01*
X129973Y435690D01*
X129991Y435641D01*
X129999Y435590D01*
X130033Y435527D01*
X130057Y435459D01*
X130090Y435419D01*
X130114Y435373D01*
X130166Y435323D01*
X130211Y435267D01*
X130255Y435239D01*
X130292Y435203D01*
X130358Y435173D01*
X130418Y435134D01*
X130468Y435122D01*
X130516Y435100D01*
X130587Y435092D01*
X130657Y435074D01*
X130708Y435078D01*
X130760Y435072D01*
X130830Y435088D01*
X130902Y435093D01*
X130950Y435114D01*
X131000Y435125D01*
X131062Y435161D01*
X131128Y435190D01*
X131184Y435234D01*
X131212Y435251D01*
X131227Y435269D01*
X131259Y435294D01*
X132185Y436220D01*
X153768Y436220D01*
X154661Y435327D01*
X154661Y421364D01*
X153768Y420471D01*
X148455Y420471D01*
X148385Y420459D01*
X148313Y420457D01*
X148264Y420440D01*
X148213Y420431D01*
X148149Y420398D01*
X148082Y420373D01*
X148041Y420340D01*
X147995Y420316D01*
X147946Y420264D01*
X147890Y420219D01*
X147862Y420175D01*
X147826Y420138D01*
X147796Y420073D01*
X147757Y420012D01*
X147744Y419962D01*
X147722Y419915D01*
X147714Y419843D01*
X147697Y419774D01*
X147701Y419722D01*
X147695Y419670D01*
X147710Y419600D01*
X147716Y419529D01*
X147736Y419481D01*
X147747Y419430D01*
X147784Y419368D01*
X147812Y419302D01*
X147857Y419246D01*
X147874Y419219D01*
X147891Y419203D01*
X147917Y419171D01*
X153200Y413888D01*
X153274Y413835D01*
X153344Y413776D01*
X153374Y413763D01*
X153400Y413745D01*
X153487Y413718D01*
X153572Y413684D01*
X153613Y413679D01*
X153635Y413672D01*
X153667Y413673D01*
X153739Y413665D01*
X210590Y413665D01*
X210609Y413668D01*
X210629Y413666D01*
X210730Y413688D01*
X210832Y413705D01*
X210850Y413714D01*
X210869Y413718D01*
X210958Y413772D01*
X211050Y413820D01*
X211063Y413834D01*
X211081Y413845D01*
X211148Y413923D01*
X211219Y413998D01*
X211227Y414016D01*
X211240Y414032D01*
X211279Y414128D01*
X211323Y414221D01*
X211325Y414241D01*
X211332Y414260D01*
X211351Y414426D01*
X211351Y414648D01*
X212244Y415541D01*
X220007Y415541D01*
X220900Y414648D01*
X220900Y411378D01*
X220904Y411359D01*
X220901Y411339D01*
X220923Y411238D01*
X220940Y411136D01*
X220949Y411118D01*
X220954Y411099D01*
X221007Y411010D01*
X221055Y410918D01*
X221070Y410905D01*
X221080Y410887D01*
X221159Y410820D01*
X221234Y410749D01*
X221252Y410741D01*
X221267Y410728D01*
X221363Y410689D01*
X221457Y410645D01*
X221476Y410643D01*
X221495Y410636D01*
X221662Y410617D01*
X226090Y410617D01*
X226109Y410620D01*
G37*
G36*
X144749Y617224D02*
X144749Y617224D01*
X144769Y617222D01*
X144870Y617244D01*
X144972Y617261D01*
X144990Y617270D01*
X145009Y617274D01*
X145098Y617327D01*
X145189Y617376D01*
X145203Y617390D01*
X145220Y617400D01*
X145288Y617479D01*
X145359Y617554D01*
X145367Y617572D01*
X145380Y617587D01*
X145419Y617683D01*
X145462Y617777D01*
X145465Y617797D01*
X145472Y617815D01*
X145490Y617982D01*
X145490Y619767D01*
X147300Y621576D01*
X147353Y621650D01*
X147412Y621720D01*
X147424Y621750D01*
X147443Y621776D01*
X147470Y621863D01*
X147504Y621948D01*
X147509Y621989D01*
X147515Y622011D01*
X147515Y622043D01*
X147522Y622115D01*
X147522Y622532D01*
X166451Y641461D01*
X166504Y641535D01*
X166564Y641605D01*
X166576Y641635D01*
X166595Y641661D01*
X166622Y641748D01*
X166656Y641833D01*
X166660Y641874D01*
X166667Y641896D01*
X166666Y641928D01*
X166674Y641999D01*
X166674Y642968D01*
X169055Y645349D01*
X172423Y645349D01*
X174804Y642968D01*
X174804Y639601D01*
X172423Y637220D01*
X169055Y637220D01*
X169046Y637229D01*
X169029Y637241D01*
X169017Y637257D01*
X168930Y637313D01*
X168846Y637373D01*
X168827Y637379D01*
X168810Y637390D01*
X168710Y637415D01*
X168611Y637445D01*
X168591Y637445D01*
X168571Y637450D01*
X168468Y637442D01*
X168365Y637439D01*
X168346Y637432D01*
X168326Y637431D01*
X168231Y637390D01*
X168134Y637354D01*
X168118Y637342D01*
X168100Y637334D01*
X167969Y637229D01*
X152602Y621862D01*
X152590Y621846D01*
X152574Y621833D01*
X152518Y621746D01*
X152458Y621662D01*
X152452Y621643D01*
X152441Y621627D01*
X152416Y621526D01*
X152386Y621427D01*
X152386Y621407D01*
X152381Y621388D01*
X152389Y621285D01*
X152392Y621181D01*
X152399Y621163D01*
X152401Y621143D01*
X152441Y621048D01*
X152477Y620950D01*
X152489Y620935D01*
X152497Y620916D01*
X152602Y620786D01*
X153620Y619767D01*
X153620Y617982D01*
X153623Y617962D01*
X153621Y617943D01*
X153643Y617841D01*
X153660Y617739D01*
X153669Y617722D01*
X153673Y617702D01*
X153726Y617613D01*
X153775Y617522D01*
X153789Y617508D01*
X153799Y617491D01*
X153878Y617424D01*
X153953Y617353D01*
X153971Y617344D01*
X153986Y617331D01*
X154083Y617292D01*
X154176Y617249D01*
X154196Y617247D01*
X154214Y617239D01*
X154381Y617221D01*
X164850Y617221D01*
X164941Y617236D01*
X165031Y617243D01*
X165061Y617255D01*
X165093Y617261D01*
X165174Y617303D01*
X165258Y617339D01*
X165290Y617365D01*
X165311Y617376D01*
X165333Y617399D01*
X165389Y617444D01*
X178450Y630505D01*
X179984Y630505D01*
X180074Y630520D01*
X180165Y630527D01*
X180195Y630539D01*
X180227Y630545D01*
X180308Y630587D01*
X180392Y630623D01*
X180424Y630649D01*
X180445Y630660D01*
X180467Y630683D01*
X180523Y630728D01*
X186675Y636880D01*
X243423Y636880D01*
X247105Y633199D01*
X247121Y633187D01*
X247133Y633172D01*
X247220Y633116D01*
X247304Y633055D01*
X247323Y633050D01*
X247340Y633039D01*
X247441Y633013D01*
X247539Y632983D01*
X247559Y632984D01*
X247579Y632979D01*
X247682Y632987D01*
X247785Y632989D01*
X247804Y632996D01*
X247824Y632998D01*
X247919Y633038D01*
X248016Y633074D01*
X248032Y633086D01*
X248050Y633094D01*
X248181Y633199D01*
X256443Y641461D01*
X257857Y642875D01*
X295479Y642875D01*
X295569Y642889D01*
X295660Y642897D01*
X295689Y642909D01*
X295721Y642914D01*
X295802Y642957D01*
X295886Y642993D01*
X295918Y643019D01*
X295939Y643030D01*
X295961Y643053D01*
X296017Y643098D01*
X309561Y656642D01*
X330313Y656642D01*
X330403Y656656D01*
X330494Y656663D01*
X330524Y656676D01*
X330556Y656681D01*
X330636Y656724D01*
X330720Y656760D01*
X330752Y656785D01*
X330773Y656796D01*
X330795Y656820D01*
X330851Y656865D01*
X333121Y659135D01*
X333133Y659151D01*
X333148Y659163D01*
X333205Y659251D01*
X333265Y659334D01*
X333271Y659353D01*
X333281Y659370D01*
X333307Y659471D01*
X333337Y659570D01*
X333337Y659589D01*
X333342Y659609D01*
X333333Y659712D01*
X333331Y659815D01*
X333324Y659834D01*
X333322Y659854D01*
X333282Y659949D01*
X333246Y660046D01*
X333234Y660062D01*
X333226Y660080D01*
X333121Y660211D01*
X331384Y661949D01*
X331384Y662869D01*
X331372Y662940D01*
X331370Y663012D01*
X331352Y663061D01*
X331344Y663112D01*
X331310Y663176D01*
X331286Y663243D01*
X331253Y663284D01*
X331229Y663330D01*
X331177Y663379D01*
X331132Y663435D01*
X331088Y663463D01*
X331051Y663499D01*
X330986Y663529D01*
X330925Y663568D01*
X330875Y663581D01*
X330827Y663603D01*
X330756Y663610D01*
X330687Y663628D01*
X330635Y663624D01*
X330583Y663630D01*
X330513Y663614D01*
X330441Y663609D01*
X330394Y663588D01*
X330343Y663577D01*
X330281Y663541D01*
X330215Y663513D01*
X330159Y663468D01*
X330132Y663451D01*
X330116Y663433D01*
X330084Y663408D01*
X328009Y661333D01*
X326596Y659919D01*
X300479Y659919D01*
X298043Y662355D01*
X298027Y662367D01*
X298015Y662383D01*
X297927Y662439D01*
X297843Y662499D01*
X297825Y662505D01*
X297808Y662516D01*
X297707Y662541D01*
X297608Y662571D01*
X297588Y662571D01*
X297569Y662576D01*
X297466Y662568D01*
X297363Y662565D01*
X297344Y662558D01*
X297324Y662557D01*
X297229Y662516D01*
X297132Y662481D01*
X297116Y662468D01*
X297098Y662460D01*
X296967Y662355D01*
X289931Y655319D01*
X130800Y655319D01*
X130781Y655316D01*
X130761Y655318D01*
X130659Y655296D01*
X130557Y655280D01*
X130540Y655270D01*
X130520Y655266D01*
X130431Y655213D01*
X130340Y655164D01*
X130326Y655150D01*
X130309Y655140D01*
X130242Y655061D01*
X130171Y654986D01*
X130162Y654968D01*
X130149Y654953D01*
X130111Y654857D01*
X130067Y654763D01*
X130065Y654743D01*
X130057Y654725D01*
X130039Y654558D01*
X130026Y617982D01*
X130029Y617962D01*
X130027Y617943D01*
X130049Y617841D01*
X130065Y617740D01*
X130075Y617722D01*
X130079Y617702D01*
X130132Y617613D01*
X130180Y617522D01*
X130195Y617508D01*
X130205Y617491D01*
X130283Y617424D01*
X130358Y617353D01*
X130377Y617344D01*
X130392Y617331D01*
X130488Y617293D01*
X130582Y617249D01*
X130601Y617247D01*
X130620Y617239D01*
X130787Y617221D01*
X144729Y617221D01*
X144749Y617224D01*
G37*
G36*
X363463Y466593D02*
X363463Y466593D01*
X363515Y466594D01*
X363582Y466619D01*
X363652Y466634D01*
X363697Y466660D01*
X363746Y466678D01*
X363802Y466723D01*
X363863Y466760D01*
X363897Y466799D01*
X363938Y466832D01*
X363977Y466892D01*
X364023Y466947D01*
X364043Y466995D01*
X364071Y467039D01*
X364088Y467108D01*
X364115Y467175D01*
X364123Y467246D01*
X364131Y467277D01*
X364129Y467301D01*
X364134Y467342D01*
X364134Y497173D01*
X364119Y497264D01*
X364112Y497354D01*
X364099Y497384D01*
X364094Y497416D01*
X364051Y497497D01*
X364016Y497581D01*
X363990Y497613D01*
X363979Y497634D01*
X363955Y497656D01*
X363935Y497681D01*
X363932Y497687D01*
X363928Y497690D01*
X363911Y497712D01*
X362130Y499493D01*
X362056Y499546D01*
X361986Y499605D01*
X361956Y499617D01*
X361930Y499636D01*
X361843Y499663D01*
X361758Y499697D01*
X361717Y499702D01*
X361695Y499709D01*
X361663Y499708D01*
X361591Y499716D01*
X361310Y499716D01*
X361290Y499712D01*
X361271Y499715D01*
X361169Y499693D01*
X361067Y499676D01*
X361050Y499667D01*
X361030Y499662D01*
X360941Y499609D01*
X360850Y499561D01*
X360836Y499546D01*
X360819Y499536D01*
X360752Y499457D01*
X360681Y499382D01*
X360672Y499364D01*
X360659Y499349D01*
X360620Y499253D01*
X360577Y499159D01*
X360575Y499140D01*
X360567Y499121D01*
X360549Y498954D01*
X360549Y498206D01*
X360559Y498143D01*
X360559Y498080D01*
X360583Y497995D01*
X360589Y497963D01*
X360597Y497947D01*
X360605Y497919D01*
X360779Y497490D01*
X360609Y497087D01*
X360593Y497021D01*
X360567Y496958D01*
X360559Y496880D01*
X360551Y496848D01*
X360553Y496827D01*
X360549Y496791D01*
X360549Y496189D01*
X360547Y496184D01*
X360542Y496143D01*
X360535Y496120D01*
X360536Y496088D01*
X360528Y496017D01*
X360528Y492235D01*
X360543Y492145D01*
X360550Y492054D01*
X360563Y492024D01*
X360568Y491993D01*
X360611Y491912D01*
X360646Y491828D01*
X360672Y491796D01*
X360683Y491775D01*
X360706Y491753D01*
X360751Y491697D01*
X361008Y491440D01*
X361008Y487677D01*
X360876Y487545D01*
X360808Y487449D01*
X360736Y487352D01*
X360735Y487348D01*
X360733Y487345D01*
X360698Y487232D01*
X360661Y487118D01*
X360661Y487114D01*
X360660Y487110D01*
X360663Y486992D01*
X360665Y486872D01*
X360667Y486868D01*
X360667Y486864D01*
X360707Y486753D01*
X360747Y486640D01*
X360750Y486637D01*
X360751Y486633D01*
X360826Y486540D01*
X360899Y486447D01*
X360903Y486444D01*
X360905Y486441D01*
X360916Y486434D01*
X361034Y486347D01*
X361044Y486341D01*
X361517Y485868D01*
X361851Y485289D01*
X362024Y484643D01*
X362024Y483820D01*
X357734Y483820D01*
X357733Y483820D01*
X353443Y483820D01*
X353443Y484643D01*
X353616Y485289D01*
X353950Y485868D01*
X354423Y486341D01*
X354433Y486347D01*
X354525Y486422D01*
X354618Y486497D01*
X354621Y486500D01*
X354624Y486503D01*
X354686Y486602D01*
X354751Y486704D01*
X354752Y486708D01*
X354754Y486711D01*
X354782Y486827D01*
X354811Y486942D01*
X354811Y486946D01*
X354812Y486950D01*
X354801Y487069D01*
X354792Y487187D01*
X354791Y487191D01*
X354790Y487195D01*
X354743Y487304D01*
X354696Y487414D01*
X354693Y487418D01*
X354691Y487421D01*
X354682Y487431D01*
X354591Y487545D01*
X354459Y487677D01*
X354459Y491440D01*
X354716Y491697D01*
X354769Y491771D01*
X354828Y491840D01*
X354841Y491870D01*
X354859Y491897D01*
X354886Y491984D01*
X354920Y492069D01*
X354925Y492109D01*
X354932Y492132D01*
X354931Y492164D01*
X354939Y492235D01*
X354939Y493954D01*
X354936Y493974D01*
X354938Y493994D01*
X354916Y494095D01*
X354899Y494197D01*
X354890Y494215D01*
X354886Y494234D01*
X354832Y494323D01*
X354784Y494415D01*
X354770Y494428D01*
X354759Y494445D01*
X354681Y494513D01*
X354606Y494584D01*
X354588Y494592D01*
X354572Y494605D01*
X354476Y494644D01*
X354383Y494688D01*
X354363Y494690D01*
X354344Y494697D01*
X354178Y494716D01*
X350223Y494716D01*
X350133Y494701D01*
X350042Y494694D01*
X350023Y494686D01*
X334595Y494686D01*
X333512Y495769D01*
X333512Y499252D01*
X333732Y499472D01*
X333744Y499488D01*
X333759Y499501D01*
X333816Y499588D01*
X333876Y499672D01*
X333882Y499691D01*
X333892Y499708D01*
X333918Y499808D01*
X333948Y499907D01*
X333948Y499927D01*
X333952Y499946D01*
X333944Y500049D01*
X333942Y500153D01*
X333935Y500172D01*
X333933Y500191D01*
X333893Y500286D01*
X333857Y500384D01*
X333845Y500399D01*
X333837Y500418D01*
X333732Y500549D01*
X333512Y500769D01*
X333512Y504252D01*
X333732Y504472D01*
X333744Y504488D01*
X333759Y504501D01*
X333816Y504588D01*
X333876Y504672D01*
X333882Y504691D01*
X333892Y504708D01*
X333918Y504808D01*
X333948Y504907D01*
X333948Y504927D01*
X333952Y504946D01*
X333944Y505049D01*
X333942Y505153D01*
X333935Y505172D01*
X333933Y505191D01*
X333893Y505286D01*
X333857Y505384D01*
X333845Y505399D01*
X333837Y505418D01*
X333732Y505549D01*
X333512Y505769D01*
X333512Y509252D01*
X333732Y509472D01*
X333744Y509488D01*
X333759Y509501D01*
X333816Y509588D01*
X333876Y509672D01*
X333882Y509691D01*
X333892Y509708D01*
X333918Y509808D01*
X333948Y509907D01*
X333948Y509927D01*
X333952Y509946D01*
X333944Y510049D01*
X333942Y510153D01*
X333935Y510172D01*
X333933Y510191D01*
X333893Y510286D01*
X333857Y510384D01*
X333845Y510399D01*
X333837Y510418D01*
X333732Y510549D01*
X333512Y510769D01*
X333512Y514252D01*
X333732Y514472D01*
X333744Y514488D01*
X333759Y514501D01*
X333815Y514588D01*
X333876Y514672D01*
X333882Y514691D01*
X333892Y514708D01*
X333918Y514808D01*
X333948Y514907D01*
X333948Y514927D01*
X333952Y514946D01*
X333944Y515049D01*
X333942Y515153D01*
X333935Y515172D01*
X333933Y515191D01*
X333893Y515286D01*
X333857Y515384D01*
X333845Y515399D01*
X333837Y515418D01*
X333732Y515549D01*
X333512Y515769D01*
X333512Y519252D01*
X333732Y519472D01*
X333744Y519488D01*
X333759Y519501D01*
X333816Y519588D01*
X333876Y519672D01*
X333882Y519691D01*
X333892Y519708D01*
X333918Y519808D01*
X333948Y519907D01*
X333948Y519927D01*
X333952Y519946D01*
X333944Y520049D01*
X333942Y520153D01*
X333935Y520172D01*
X333933Y520191D01*
X333893Y520286D01*
X333857Y520384D01*
X333845Y520399D01*
X333837Y520418D01*
X333755Y520520D01*
X333753Y520524D01*
X333750Y520527D01*
X333732Y520549D01*
X333512Y520769D01*
X333512Y524252D01*
X333732Y524472D01*
X333744Y524488D01*
X333759Y524501D01*
X333816Y524588D01*
X333876Y524672D01*
X333882Y524691D01*
X333892Y524708D01*
X333918Y524808D01*
X333948Y524907D01*
X333948Y524927D01*
X333952Y524946D01*
X333944Y525049D01*
X333942Y525153D01*
X333935Y525172D01*
X333933Y525191D01*
X333893Y525286D01*
X333857Y525384D01*
X333845Y525399D01*
X333837Y525418D01*
X333732Y525549D01*
X333512Y525769D01*
X333512Y529252D01*
X333732Y529472D01*
X333744Y529488D01*
X333759Y529501D01*
X333816Y529588D01*
X333876Y529672D01*
X333882Y529691D01*
X333892Y529708D01*
X333918Y529808D01*
X333948Y529907D01*
X333948Y529927D01*
X333952Y529946D01*
X333944Y530049D01*
X333942Y530153D01*
X333935Y530172D01*
X333933Y530191D01*
X333893Y530286D01*
X333857Y530384D01*
X333845Y530399D01*
X333837Y530418D01*
X333732Y530549D01*
X333512Y530769D01*
X333512Y534252D01*
X334595Y535335D01*
X349922Y535335D01*
X350012Y535350D01*
X350103Y535357D01*
X350133Y535370D01*
X350165Y535375D01*
X350245Y535418D01*
X350329Y535453D01*
X350361Y535479D01*
X350382Y535490D01*
X350404Y535513D01*
X350460Y535558D01*
X357459Y542557D01*
X357512Y542631D01*
X357572Y542700D01*
X357584Y542731D01*
X357603Y542757D01*
X357629Y542844D01*
X357664Y542929D01*
X357668Y542970D01*
X357675Y542992D01*
X357674Y543024D01*
X357682Y543095D01*
X357682Y549704D01*
X357679Y549724D01*
X357681Y549743D01*
X357659Y549845D01*
X357642Y549947D01*
X357633Y549964D01*
X357629Y549984D01*
X357576Y550073D01*
X357527Y550164D01*
X357513Y550178D01*
X357503Y550195D01*
X357424Y550262D01*
X357349Y550333D01*
X357331Y550342D01*
X357316Y550355D01*
X357219Y550394D01*
X357126Y550437D01*
X357106Y550439D01*
X357088Y550447D01*
X356921Y550465D01*
X355603Y550465D01*
X355583Y550462D01*
X355563Y550464D01*
X355462Y550442D01*
X355360Y550425D01*
X355342Y550416D01*
X355323Y550412D01*
X355234Y550359D01*
X355143Y550310D01*
X355129Y550296D01*
X355112Y550286D01*
X355044Y550207D01*
X354973Y550132D01*
X354965Y550114D01*
X354952Y550099D01*
X354913Y550003D01*
X354870Y549909D01*
X354867Y549889D01*
X354860Y549871D01*
X354841Y549704D01*
X354841Y548328D01*
X353502Y546988D01*
X332664Y546988D01*
X332644Y546985D01*
X332624Y546987D01*
X332523Y546965D01*
X332421Y546949D01*
X332404Y546939D01*
X332384Y546935D01*
X332295Y546882D01*
X332204Y546833D01*
X332190Y546819D01*
X332173Y546809D01*
X332106Y546730D01*
X332034Y546655D01*
X332026Y546637D01*
X332013Y546622D01*
X331974Y546526D01*
X331931Y546432D01*
X331929Y546412D01*
X331921Y546394D01*
X331903Y546227D01*
X331903Y500619D01*
X325233Y493950D01*
X325205Y493911D01*
X325170Y493878D01*
X325134Y493812D01*
X325090Y493750D01*
X325076Y493704D01*
X325053Y493662D01*
X325040Y493588D01*
X325018Y493515D01*
X325019Y493467D01*
X325011Y493420D01*
X325022Y493345D01*
X325024Y493269D01*
X325040Y493224D01*
X325048Y493177D01*
X325082Y493110D01*
X325108Y493038D01*
X325138Y493001D01*
X325160Y492958D01*
X325215Y492905D01*
X325262Y492846D01*
X325302Y492820D01*
X325337Y492787D01*
X325405Y492754D01*
X325469Y492713D01*
X325515Y492702D01*
X325559Y492681D01*
X325634Y492672D01*
X325708Y492653D01*
X325755Y492657D01*
X325803Y492651D01*
X325931Y492671D01*
X325953Y492672D01*
X325959Y492675D01*
X325969Y492676D01*
X326434Y492801D01*
X327025Y492801D01*
X327025Y483061D01*
X327025Y483060D01*
X327025Y473281D01*
X327019Y473280D01*
X326956Y473246D01*
X326888Y473222D01*
X326848Y473189D01*
X326802Y473165D01*
X326752Y473113D01*
X326696Y473068D01*
X326668Y473024D01*
X326632Y472986D01*
X326602Y472922D01*
X326563Y472861D01*
X326551Y472811D01*
X326529Y472763D01*
X326521Y472692D01*
X326503Y472623D01*
X326507Y472571D01*
X326502Y472519D01*
X326517Y472449D01*
X326522Y472377D01*
X326543Y472330D01*
X326554Y472279D01*
X326591Y472217D01*
X326619Y472151D01*
X326664Y472095D01*
X326680Y472067D01*
X326698Y472052D01*
X326724Y472020D01*
X327934Y470810D01*
X328008Y470756D01*
X328078Y470697D01*
X328108Y470685D01*
X328134Y470666D01*
X328221Y470639D01*
X328306Y470605D01*
X328347Y470600D01*
X328369Y470594D01*
X328401Y470594D01*
X328473Y470587D01*
X328909Y470587D01*
X329000Y470601D01*
X329090Y470608D01*
X329120Y470621D01*
X329152Y470626D01*
X329233Y470669D01*
X329317Y470705D01*
X329349Y470730D01*
X329370Y470741D01*
X329392Y470765D01*
X329448Y470810D01*
X330657Y472018D01*
X334011Y472018D01*
X335321Y470708D01*
X335395Y470655D01*
X335465Y470595D01*
X335495Y470583D01*
X335521Y470564D01*
X335608Y470538D01*
X335693Y470503D01*
X335734Y470499D01*
X335756Y470492D01*
X335788Y470493D01*
X335859Y470485D01*
X357379Y470485D01*
X359814Y468050D01*
X359888Y467997D01*
X359957Y467938D01*
X359987Y467926D01*
X360014Y467907D01*
X360101Y467880D01*
X360185Y467846D01*
X360226Y467841D01*
X360249Y467834D01*
X360281Y467835D01*
X360352Y467827D01*
X361810Y467827D01*
X362834Y466803D01*
X362892Y466762D01*
X362944Y466712D01*
X362992Y466690D01*
X363034Y466660D01*
X363102Y466639D01*
X363167Y466609D01*
X363219Y466603D01*
X363269Y466588D01*
X363341Y466589D01*
X363412Y466581D01*
X363463Y466593D01*
G37*
G36*
X292958Y584687D02*
X292958Y584687D01*
X292978Y584684D01*
X293079Y584706D01*
X293181Y584723D01*
X293199Y584732D01*
X293218Y584737D01*
X293307Y584790D01*
X293398Y584838D01*
X293412Y584853D01*
X293429Y584863D01*
X293496Y584942D01*
X293568Y585017D01*
X293576Y585035D01*
X293589Y585050D01*
X293628Y585146D01*
X293671Y585240D01*
X293674Y585259D01*
X293681Y585278D01*
X293699Y585445D01*
X293699Y589175D01*
X293883Y589358D01*
X293936Y589432D01*
X293995Y589502D01*
X294008Y589532D01*
X294026Y589558D01*
X294053Y589645D01*
X294087Y589730D01*
X294092Y589771D01*
X294099Y589793D01*
X294098Y589825D01*
X294106Y589897D01*
X294106Y590746D01*
X294091Y590836D01*
X294084Y590927D01*
X294071Y590957D01*
X294066Y590989D01*
X294023Y591069D01*
X293988Y591153D01*
X293962Y591186D01*
X293951Y591206D01*
X293928Y591228D01*
X293883Y591284D01*
X293699Y591468D01*
X293699Y604415D01*
X294636Y605352D01*
X294709Y605391D01*
X294793Y605426D01*
X294825Y605452D01*
X294846Y605463D01*
X294868Y605486D01*
X294924Y605531D01*
X313472Y624079D01*
X329885Y624079D01*
X337059Y616905D01*
X337059Y616035D01*
X337070Y615964D01*
X337072Y615892D01*
X337090Y615843D01*
X337099Y615792D01*
X337132Y615728D01*
X337157Y615661D01*
X337189Y615620D01*
X337214Y615574D01*
X337266Y615525D01*
X337310Y615469D01*
X337354Y615441D01*
X337392Y615405D01*
X337457Y615375D01*
X337517Y615336D01*
X337568Y615323D01*
X337615Y615301D01*
X337686Y615293D01*
X337756Y615276D01*
X337808Y615280D01*
X337859Y615274D01*
X337930Y615290D01*
X338001Y615295D01*
X338049Y615315D01*
X338100Y615327D01*
X338161Y615363D01*
X338227Y615391D01*
X338283Y615436D01*
X338311Y615453D01*
X338326Y615470D01*
X338358Y615496D01*
X338715Y615853D01*
X341756Y615853D01*
X341776Y615856D01*
X341795Y615854D01*
X341897Y615876D01*
X341999Y615893D01*
X342016Y615902D01*
X342036Y615906D01*
X342125Y615960D01*
X342216Y616008D01*
X342230Y616022D01*
X342247Y616033D01*
X342314Y616111D01*
X342385Y616186D01*
X342394Y616204D01*
X342407Y616220D01*
X342445Y616316D01*
X342489Y616409D01*
X342491Y616429D01*
X342499Y616448D01*
X342517Y616614D01*
X342517Y619315D01*
X342502Y619409D01*
X342493Y619505D01*
X342482Y619530D01*
X342477Y619558D01*
X342433Y619642D01*
X342394Y619730D01*
X342375Y619751D01*
X342362Y619776D01*
X342293Y619841D01*
X342229Y619912D01*
X342204Y619926D01*
X342184Y619945D01*
X342097Y619985D01*
X342014Y620032D01*
X341986Y620037D01*
X341961Y620049D01*
X341866Y620059D01*
X341772Y620077D01*
X341744Y620073D01*
X341716Y620076D01*
X341623Y620055D01*
X341529Y620042D01*
X341496Y620028D01*
X341476Y620023D01*
X341448Y620007D01*
X341375Y619975D01*
X341042Y619783D01*
X340396Y619609D01*
X339573Y619609D01*
X339573Y623900D01*
X339573Y623901D01*
X339573Y628173D01*
X339570Y628192D01*
X339572Y628212D01*
X339550Y628313D01*
X339533Y628415D01*
X339524Y628433D01*
X339520Y628452D01*
X339467Y628541D01*
X339418Y628633D01*
X339404Y628646D01*
X339394Y628664D01*
X339315Y628731D01*
X339240Y628802D01*
X339222Y628811D01*
X339207Y628823D01*
X339111Y628862D01*
X339017Y628906D01*
X338997Y628908D01*
X338979Y628915D01*
X338812Y628934D01*
X338792Y628931D01*
X338772Y628933D01*
X338671Y628911D01*
X338569Y628894D01*
X338551Y628885D01*
X338532Y628881D01*
X338443Y628827D01*
X338352Y628779D01*
X338338Y628765D01*
X338321Y628754D01*
X338253Y628676D01*
X338182Y628601D01*
X338174Y628583D01*
X338161Y628568D01*
X338122Y628471D01*
X338079Y628378D01*
X338076Y628358D01*
X338069Y628339D01*
X338050Y628173D01*
X338050Y624662D01*
X335021Y624662D01*
X335021Y625985D01*
X335194Y626631D01*
X335529Y627210D01*
X336002Y627683D01*
X336581Y628018D01*
X336968Y628122D01*
X337055Y628161D01*
X337145Y628193D01*
X337167Y628211D01*
X337192Y628223D01*
X337262Y628288D01*
X337337Y628347D01*
X337352Y628371D01*
X337373Y628390D01*
X337418Y628474D01*
X337470Y628554D01*
X337477Y628581D01*
X337490Y628606D01*
X337506Y628700D01*
X337530Y628793D01*
X337528Y628821D01*
X337532Y628849D01*
X337518Y628943D01*
X337511Y629038D01*
X337500Y629064D01*
X337495Y629092D01*
X337452Y629177D01*
X337414Y629264D01*
X337392Y629292D01*
X337383Y629310D01*
X337359Y629333D01*
X337310Y629395D01*
X335154Y631551D01*
X335080Y631604D01*
X335011Y631663D01*
X334981Y631675D01*
X334954Y631694D01*
X334867Y631721D01*
X334783Y631755D01*
X334742Y631760D01*
X334719Y631766D01*
X334687Y631766D01*
X334616Y631774D01*
X313527Y631774D01*
X313436Y631759D01*
X313346Y631752D01*
X313316Y631739D01*
X313284Y631734D01*
X313203Y631691D01*
X313119Y631655D01*
X313087Y631630D01*
X313066Y631619D01*
X313044Y631595D01*
X312988Y631551D01*
X293069Y611631D01*
X258107Y611631D01*
X258017Y611617D01*
X257926Y611609D01*
X257896Y611597D01*
X257864Y611592D01*
X257784Y611549D01*
X257700Y611513D01*
X257668Y611487D01*
X257647Y611476D01*
X257625Y611453D01*
X257569Y611408D01*
X257132Y610971D01*
X257099Y610971D01*
X257028Y610959D01*
X256956Y610958D01*
X256907Y610940D01*
X256856Y610931D01*
X256793Y610898D01*
X256725Y610873D01*
X256685Y610841D01*
X256639Y610816D01*
X256589Y610764D01*
X256533Y610719D01*
X256505Y610676D01*
X256469Y610638D01*
X256439Y610573D01*
X256400Y610512D01*
X256388Y610462D01*
X256366Y610415D01*
X256358Y610343D01*
X256340Y610274D01*
X256344Y610222D01*
X256338Y610170D01*
X256354Y610100D01*
X256359Y610029D01*
X256380Y609981D01*
X256391Y609930D01*
X256428Y609868D01*
X256456Y609802D01*
X256500Y609746D01*
X256517Y609719D01*
X256535Y609704D01*
X256560Y609671D01*
X281326Y584906D01*
X281399Y584853D01*
X281469Y584794D01*
X281499Y584782D01*
X281525Y584763D01*
X281612Y584736D01*
X281697Y584702D01*
X281738Y584697D01*
X281760Y584690D01*
X281793Y584691D01*
X281864Y584683D01*
X292938Y584683D01*
X292958Y584687D01*
G37*
G36*
X301229Y564499D02*
X301229Y564499D01*
X301281Y564500D01*
X301348Y564525D01*
X301418Y564540D01*
X301463Y564567D01*
X301512Y564585D01*
X301568Y564630D01*
X301629Y564666D01*
X301663Y564706D01*
X301704Y564739D01*
X301742Y564799D01*
X301789Y564853D01*
X301809Y564902D01*
X301837Y564946D01*
X301854Y565015D01*
X301881Y565082D01*
X301889Y565153D01*
X301897Y565184D01*
X301895Y565207D01*
X301899Y565248D01*
X301899Y565482D01*
X302073Y566128D01*
X302267Y566465D01*
X302283Y566506D01*
X302306Y566543D01*
X302326Y566620D01*
X302354Y566695D01*
X302356Y566739D01*
X302367Y566782D01*
X302360Y566861D01*
X302363Y566941D01*
X302351Y566983D01*
X302347Y567027D01*
X302316Y567100D01*
X302293Y567177D01*
X302268Y567213D01*
X302251Y567253D01*
X302160Y567367D01*
X302152Y567378D01*
X302149Y567380D01*
X302146Y567384D01*
X301874Y567657D01*
X301539Y568236D01*
X301366Y568882D01*
X301366Y570205D01*
X305157Y570205D01*
X305176Y570208D01*
X305196Y570206D01*
X305297Y570228D01*
X305399Y570245D01*
X305417Y570254D01*
X305436Y570258D01*
X305525Y570312D01*
X305617Y570360D01*
X305630Y570374D01*
X305647Y570385D01*
X305715Y570463D01*
X305786Y570538D01*
X305794Y570556D01*
X305807Y570572D01*
X305846Y570668D01*
X305890Y570761D01*
X305892Y570781D01*
X305899Y570800D01*
X305918Y570966D01*
X305918Y570967D01*
X305915Y570986D01*
X305917Y571006D01*
X305895Y571107D01*
X305878Y571209D01*
X305869Y571227D01*
X305864Y571247D01*
X305811Y571336D01*
X305763Y571427D01*
X305749Y571441D01*
X305738Y571458D01*
X305660Y571525D01*
X305585Y571596D01*
X305567Y571605D01*
X305551Y571618D01*
X305455Y571656D01*
X305362Y571700D01*
X305342Y571702D01*
X305323Y571710D01*
X305157Y571728D01*
X301366Y571728D01*
X301366Y573051D01*
X301539Y573697D01*
X301825Y574193D01*
X301859Y574282D01*
X301899Y574368D01*
X301902Y574396D01*
X301912Y574423D01*
X301916Y574518D01*
X301926Y574613D01*
X301920Y574640D01*
X301921Y574669D01*
X301894Y574760D01*
X301874Y574853D01*
X301860Y574877D01*
X301852Y574905D01*
X301797Y574982D01*
X301748Y575064D01*
X301726Y575083D01*
X301710Y575106D01*
X301634Y575162D01*
X301561Y575224D01*
X301535Y575235D01*
X301512Y575252D01*
X301421Y575280D01*
X301333Y575316D01*
X301298Y575320D01*
X301278Y575326D01*
X301245Y575326D01*
X301166Y575335D01*
X294593Y575335D01*
X293699Y576228D01*
X293699Y582397D01*
X293696Y582416D01*
X293698Y582436D01*
X293676Y582537D01*
X293660Y582639D01*
X293650Y582657D01*
X293646Y582676D01*
X293593Y582765D01*
X293545Y582857D01*
X293530Y582870D01*
X293520Y582888D01*
X293441Y582955D01*
X293366Y583026D01*
X293348Y583034D01*
X293333Y583047D01*
X293237Y583086D01*
X293143Y583130D01*
X293123Y583132D01*
X293105Y583139D01*
X292938Y583158D01*
X280579Y583158D01*
X273080Y590656D01*
X273022Y590698D01*
X272970Y590748D01*
X272923Y590770D01*
X272881Y590800D01*
X272812Y590821D01*
X272747Y590851D01*
X272695Y590857D01*
X272645Y590872D01*
X272574Y590871D01*
X272503Y590878D01*
X272452Y590867D01*
X272400Y590866D01*
X272332Y590841D01*
X272262Y590826D01*
X272217Y590799D01*
X272169Y590782D01*
X272113Y590737D01*
X272051Y590700D01*
X272017Y590660D01*
X271977Y590628D01*
X271938Y590568D01*
X271891Y590513D01*
X271872Y590465D01*
X271844Y590421D01*
X271826Y590351D01*
X271799Y590285D01*
X271791Y590214D01*
X271783Y590182D01*
X271785Y590159D01*
X271781Y590118D01*
X271781Y574033D01*
X271795Y573942D01*
X271803Y573852D01*
X271815Y573822D01*
X271820Y573790D01*
X271863Y573709D01*
X271899Y573625D01*
X271925Y573593D01*
X271936Y573572D01*
X271959Y573550D01*
X272004Y573494D01*
X278092Y567406D01*
X278166Y567353D01*
X278236Y567293D01*
X278266Y567281D01*
X278292Y567262D01*
X278379Y567235D01*
X278464Y567201D01*
X278505Y567197D01*
X278527Y567190D01*
X278559Y567191D01*
X278631Y567183D01*
X298127Y567183D01*
X299690Y565620D01*
X300600Y564710D01*
X300658Y564668D01*
X300710Y564619D01*
X300757Y564597D01*
X300800Y564566D01*
X300868Y564545D01*
X300933Y564515D01*
X300985Y564509D01*
X301035Y564494D01*
X301106Y564496D01*
X301178Y564488D01*
X301229Y564499D01*
G37*
%LPC*%
G36*
X146126Y384673D02*
X146126Y384673D01*
X143754Y387045D01*
X143754Y390399D01*
X146126Y392770D01*
X149530Y392770D01*
X149550Y392756D01*
X149569Y392750D01*
X149586Y392740D01*
X149686Y392714D01*
X149785Y392684D01*
X149805Y392684D01*
X149824Y392680D01*
X149927Y392688D01*
X150031Y392690D01*
X150050Y392697D01*
X150070Y392699D01*
X150164Y392739D01*
X150262Y392775D01*
X150278Y392787D01*
X150296Y392795D01*
X150427Y392900D01*
X152014Y394487D01*
X153428Y395901D01*
X227334Y395901D01*
X227424Y395915D01*
X227515Y395922D01*
X227545Y395935D01*
X227577Y395940D01*
X227657Y395983D01*
X227741Y396019D01*
X227773Y396044D01*
X227794Y396055D01*
X227816Y396079D01*
X227872Y396124D01*
X228500Y396752D01*
X231854Y396752D01*
X234226Y394380D01*
X234226Y391026D01*
X231854Y388654D01*
X228500Y388654D01*
X226129Y391026D01*
X226129Y391074D01*
X226125Y391094D01*
X226128Y391113D01*
X226106Y391215D01*
X226089Y391317D01*
X226080Y391334D01*
X226075Y391354D01*
X226022Y391443D01*
X225974Y391534D01*
X225959Y391548D01*
X225949Y391565D01*
X225870Y391632D01*
X225795Y391703D01*
X225777Y391712D01*
X225762Y391725D01*
X225666Y391764D01*
X225572Y391807D01*
X225553Y391809D01*
X225534Y391817D01*
X225367Y391835D01*
X155427Y391835D01*
X155337Y391820D01*
X155246Y391813D01*
X155216Y391801D01*
X155184Y391795D01*
X155104Y391753D01*
X155020Y391717D01*
X154988Y391691D01*
X154967Y391680D01*
X154945Y391657D01*
X154889Y391612D01*
X152074Y388798D01*
X152021Y388724D01*
X151962Y388654D01*
X151950Y388624D01*
X151931Y388598D01*
X151904Y388511D01*
X151870Y388426D01*
X151865Y388385D01*
X151858Y388363D01*
X151859Y388331D01*
X151851Y388260D01*
X151851Y387045D01*
X149480Y384673D01*
X146126Y384673D01*
G37*
%LPD*%
%LPC*%
G36*
X159174Y445464D02*
X159174Y445464D01*
X158876Y445762D01*
X158876Y455557D01*
X159174Y455855D01*
X187561Y455855D01*
X187859Y455557D01*
X187859Y445762D01*
X187561Y445464D01*
X159174Y445464D01*
G37*
%LPD*%
%LPC*%
G36*
X293319Y350357D02*
X293319Y350357D01*
X290947Y352729D01*
X290947Y356083D01*
X292486Y357622D01*
X292539Y357696D01*
X292598Y357766D01*
X292611Y357796D01*
X292629Y357822D01*
X292656Y357909D01*
X292690Y357994D01*
X292695Y358035D01*
X292702Y358057D01*
X292701Y358089D01*
X292709Y358161D01*
X292709Y374048D01*
X292694Y374138D01*
X292687Y374229D01*
X292674Y374259D01*
X292669Y374291D01*
X292626Y374371D01*
X292591Y374455D01*
X292565Y374487D01*
X292554Y374508D01*
X292531Y374530D01*
X292486Y374586D01*
X281470Y385602D01*
X281396Y385655D01*
X281326Y385715D01*
X281296Y385727D01*
X281270Y385746D01*
X281183Y385773D01*
X281098Y385807D01*
X281057Y385811D01*
X281035Y385818D01*
X281003Y385817D01*
X280931Y385825D01*
X275280Y385825D01*
X275190Y385811D01*
X275099Y385803D01*
X275070Y385791D01*
X275038Y385786D01*
X274957Y385743D01*
X274873Y385707D01*
X274841Y385681D01*
X274820Y385670D01*
X274798Y385647D01*
X274742Y385602D01*
X273203Y384063D01*
X269849Y384063D01*
X267477Y386435D01*
X267477Y389789D01*
X269849Y392161D01*
X273203Y392161D01*
X274742Y390622D01*
X274816Y390569D01*
X274885Y390509D01*
X274916Y390497D01*
X274942Y390478D01*
X275029Y390451D01*
X275114Y390417D01*
X275155Y390413D01*
X275177Y390406D01*
X275209Y390407D01*
X275280Y390399D01*
X283141Y390399D01*
X297282Y376258D01*
X297282Y358161D01*
X297297Y358070D01*
X297304Y357980D01*
X297317Y357950D01*
X297322Y357918D01*
X297365Y357837D01*
X297400Y357753D01*
X297426Y357721D01*
X297437Y357700D01*
X297461Y357678D01*
X297505Y357622D01*
X299044Y356083D01*
X299044Y352729D01*
X296673Y350357D01*
X293319Y350357D01*
G37*
%LPD*%
%LPC*%
G36*
X265751Y325406D02*
X265751Y325406D01*
X263379Y327778D01*
X263379Y331132D01*
X265751Y333503D01*
X268418Y333503D01*
X268437Y333507D01*
X268457Y333504D01*
X268559Y333526D01*
X268661Y333543D01*
X268678Y333552D01*
X268698Y333557D01*
X268787Y333610D01*
X268878Y333658D01*
X268892Y333673D01*
X268909Y333683D01*
X268976Y333762D01*
X269047Y333837D01*
X269056Y333855D01*
X269069Y333870D01*
X269107Y333966D01*
X269151Y334060D01*
X269153Y334079D01*
X269161Y334098D01*
X269179Y334265D01*
X269179Y336245D01*
X269176Y336264D01*
X269178Y336284D01*
X269156Y336385D01*
X269139Y336487D01*
X269130Y336505D01*
X269126Y336524D01*
X269073Y336613D01*
X269024Y336705D01*
X269010Y336718D01*
X269000Y336736D01*
X268921Y336803D01*
X268846Y336874D01*
X268828Y336883D01*
X268813Y336895D01*
X268716Y336934D01*
X268623Y336978D01*
X268603Y336980D01*
X268585Y336987D01*
X268418Y337006D01*
X265751Y337006D01*
X263379Y339378D01*
X263379Y342732D01*
X265751Y345103D01*
X269105Y345103D01*
X271477Y342732D01*
X271477Y340065D01*
X271480Y340045D01*
X271478Y340025D01*
X271500Y339924D01*
X271516Y339822D01*
X271526Y339804D01*
X271530Y339785D01*
X271583Y339696D01*
X271631Y339604D01*
X271646Y339591D01*
X271656Y339574D01*
X271735Y339506D01*
X271810Y339435D01*
X271828Y339427D01*
X271843Y339414D01*
X271939Y339375D01*
X272033Y339331D01*
X272053Y339329D01*
X272071Y339322D01*
X272238Y339303D01*
X274218Y339303D01*
X274237Y339307D01*
X274257Y339304D01*
X274359Y339326D01*
X274461Y339343D01*
X274478Y339352D01*
X274498Y339357D01*
X274587Y339410D01*
X274678Y339458D01*
X274692Y339473D01*
X274709Y339483D01*
X274776Y339562D01*
X274847Y339637D01*
X274856Y339655D01*
X274869Y339670D01*
X274907Y339766D01*
X274951Y339860D01*
X274953Y339879D01*
X274961Y339898D01*
X274979Y340065D01*
X274979Y342732D01*
X277351Y345103D01*
X280705Y345103D01*
X283077Y342732D01*
X283077Y339378D01*
X280705Y337006D01*
X278038Y337006D01*
X278018Y337003D01*
X277998Y337005D01*
X277897Y336983D01*
X277795Y336966D01*
X277777Y336957D01*
X277758Y336953D01*
X277669Y336899D01*
X277578Y336851D01*
X277564Y336837D01*
X277547Y336826D01*
X277479Y336748D01*
X277408Y336673D01*
X277400Y336655D01*
X277387Y336640D01*
X277348Y336543D01*
X277305Y336450D01*
X277302Y336430D01*
X277295Y336411D01*
X277277Y336245D01*
X277277Y334265D01*
X277278Y334255D01*
X277278Y334249D01*
X277279Y334241D01*
X277278Y334225D01*
X277300Y334124D01*
X277316Y334022D01*
X277326Y334004D01*
X277330Y333985D01*
X277383Y333896D01*
X277431Y333804D01*
X277446Y333791D01*
X277456Y333774D01*
X277535Y333706D01*
X277610Y333635D01*
X277628Y333627D01*
X277643Y333614D01*
X277739Y333575D01*
X277833Y333531D01*
X277853Y333529D01*
X277871Y333522D01*
X278038Y333503D01*
X280705Y333503D01*
X283077Y331132D01*
X283077Y327778D01*
X280705Y325406D01*
X277351Y325406D01*
X274979Y327778D01*
X274979Y330445D01*
X274976Y330464D01*
X274978Y330484D01*
X274956Y330585D01*
X274939Y330687D01*
X274930Y330705D01*
X274926Y330724D01*
X274873Y330813D01*
X274824Y330905D01*
X274810Y330918D01*
X274800Y330936D01*
X274721Y331003D01*
X274646Y331074D01*
X274628Y331083D01*
X274613Y331095D01*
X274516Y331134D01*
X274423Y331178D01*
X274403Y331180D01*
X274385Y331187D01*
X274218Y331206D01*
X272238Y331206D01*
X272218Y331203D01*
X272198Y331205D01*
X272097Y331183D01*
X271995Y331166D01*
X271977Y331157D01*
X271958Y331153D01*
X271869Y331099D01*
X271778Y331051D01*
X271764Y331037D01*
X271747Y331026D01*
X271679Y330948D01*
X271608Y330873D01*
X271600Y330855D01*
X271587Y330840D01*
X271548Y330743D01*
X271505Y330650D01*
X271502Y330630D01*
X271495Y330611D01*
X271477Y330445D01*
X271477Y327778D01*
X269105Y325406D01*
X265751Y325406D01*
G37*
%LPD*%
%LPC*%
G36*
X166269Y309524D02*
X166269Y309524D01*
X163676Y311021D01*
X162178Y313615D01*
X162178Y325373D01*
X163676Y327967D01*
X166269Y329464D01*
X172313Y329464D01*
X174906Y327967D01*
X176404Y325373D01*
X176404Y313615D01*
X174906Y311021D01*
X172313Y309524D01*
X166269Y309524D01*
G37*
%LPD*%
%LPC*%
G36*
X230092Y341070D02*
X230092Y341070D01*
X224131Y341070D01*
X221537Y342568D01*
X220039Y345162D01*
X220039Y351586D01*
X221311Y353789D01*
X221320Y353811D01*
X221334Y353831D01*
X221363Y353926D01*
X221398Y354019D01*
X221399Y354043D01*
X221406Y354066D01*
X221404Y354165D01*
X221408Y354265D01*
X221401Y354288D01*
X221400Y354312D01*
X221394Y354328D01*
X221483Y354306D01*
X221507Y354308D01*
X221530Y354303D01*
X221629Y354317D01*
X221728Y354325D01*
X221750Y354334D01*
X221774Y354338D01*
X221927Y354405D01*
X224131Y355677D01*
X227311Y355677D01*
X227312Y355677D01*
X233273Y355677D01*
X235866Y354179D01*
X237364Y351586D01*
X237364Y345162D01*
X235866Y342568D01*
X233273Y341070D01*
X230092Y341070D01*
G37*
%LPD*%
%LPC*%
G36*
X180181Y341375D02*
X180181Y341375D01*
X174220Y341375D01*
X171626Y342873D01*
X170128Y345467D01*
X170128Y351891D01*
X171626Y354484D01*
X174220Y355982D01*
X177400Y355982D01*
X177401Y355982D01*
X183362Y355982D01*
X185955Y354484D01*
X187453Y351891D01*
X187453Y345466D01*
X185955Y342873D01*
X183362Y341375D01*
X180181Y341375D01*
G37*
%LPD*%
%LPC*%
G36*
X241637Y388463D02*
X241637Y388463D01*
X239050Y389535D01*
X237069Y391515D01*
X235997Y394103D01*
X235997Y396904D01*
X237069Y399492D01*
X239050Y401472D01*
X241637Y402544D01*
X244438Y402544D01*
X247026Y401472D01*
X249007Y399492D01*
X250079Y396904D01*
X250079Y394103D01*
X249007Y391515D01*
X247026Y389535D01*
X244438Y388463D01*
X241637Y388463D01*
G37*
%LPD*%
G36*
X353762Y606005D02*
X353762Y606005D01*
X353814Y606007D01*
X353882Y606031D01*
X353952Y606046D01*
X353997Y606073D01*
X354045Y606091D01*
X354101Y606136D01*
X354163Y606173D01*
X354197Y606212D01*
X354238Y606245D01*
X354276Y606305D01*
X354323Y606360D01*
X354342Y606408D01*
X354371Y606452D01*
X354388Y606521D01*
X354415Y606588D01*
X354423Y606659D01*
X354431Y606690D01*
X354429Y606713D01*
X354433Y606754D01*
X354433Y623448D01*
X354419Y623538D01*
X354411Y623629D01*
X354399Y623659D01*
X354394Y623691D01*
X354351Y623771D01*
X354315Y623855D01*
X354289Y623887D01*
X354279Y623908D01*
X354255Y623930D01*
X354210Y623986D01*
X349587Y628609D01*
X349513Y628662D01*
X349444Y628722D01*
X349414Y628734D01*
X349388Y628753D01*
X349301Y628780D01*
X349216Y628814D01*
X349175Y628818D01*
X349152Y628825D01*
X349120Y628824D01*
X349049Y628832D01*
X346160Y628832D01*
X344534Y630458D01*
X344518Y630470D01*
X344506Y630485D01*
X344418Y630542D01*
X344335Y630602D01*
X344316Y630608D01*
X344299Y630618D01*
X344198Y630644D01*
X344099Y630674D01*
X344080Y630674D01*
X344060Y630679D01*
X343957Y630671D01*
X343854Y630668D01*
X343835Y630661D01*
X343815Y630659D01*
X343720Y630619D01*
X343623Y630583D01*
X343607Y630571D01*
X343589Y630563D01*
X343458Y630458D01*
X341835Y628835D01*
X341795Y628803D01*
X341749Y628779D01*
X341700Y628727D01*
X341644Y628682D01*
X341615Y628639D01*
X341580Y628601D01*
X341549Y628536D01*
X341511Y628475D01*
X341498Y628425D01*
X341476Y628378D01*
X341468Y628306D01*
X341451Y628237D01*
X341455Y628185D01*
X341449Y628133D01*
X341464Y628063D01*
X341470Y627992D01*
X341490Y627944D01*
X341501Y627893D01*
X341538Y627831D01*
X341566Y627765D01*
X341611Y627709D01*
X341627Y627682D01*
X341645Y627667D01*
X341671Y627634D01*
X342095Y627210D01*
X342101Y627200D01*
X342175Y627109D01*
X342250Y627016D01*
X342254Y627013D01*
X342256Y627010D01*
X342356Y626948D01*
X342457Y626883D01*
X342461Y626882D01*
X342465Y626879D01*
X342580Y626852D01*
X342696Y626823D01*
X342700Y626823D01*
X342704Y626822D01*
X342822Y626832D01*
X342941Y626842D01*
X342945Y626843D01*
X342949Y626844D01*
X343057Y626891D01*
X343167Y626938D01*
X343171Y626941D01*
X343174Y626942D01*
X343184Y626952D01*
X343298Y627043D01*
X343430Y627175D01*
X347193Y627175D01*
X348087Y626282D01*
X348087Y625393D01*
X348101Y625303D01*
X348107Y625237D01*
X348107Y616614D01*
X348110Y616595D01*
X348108Y616575D01*
X348130Y616474D01*
X348146Y616372D01*
X348156Y616354D01*
X348160Y616335D01*
X348213Y616246D01*
X348261Y616154D01*
X348276Y616141D01*
X348286Y616123D01*
X348365Y616056D01*
X348440Y615985D01*
X348458Y615977D01*
X348473Y615964D01*
X348569Y615925D01*
X348663Y615881D01*
X348683Y615879D01*
X348701Y615872D01*
X348868Y615853D01*
X351560Y615853D01*
X352712Y614701D01*
X352712Y608056D01*
X352541Y607885D01*
X352530Y607869D01*
X352514Y607857D01*
X352458Y607769D01*
X352398Y607685D01*
X352392Y607666D01*
X352381Y607650D01*
X352356Y607549D01*
X352325Y607450D01*
X352326Y607430D01*
X352321Y607411D01*
X352329Y607308D01*
X352332Y607204D01*
X352339Y607186D01*
X352340Y607166D01*
X352381Y607071D01*
X352416Y606973D01*
X352429Y606958D01*
X352437Y606940D01*
X352541Y606809D01*
X353134Y606216D01*
X353192Y606174D01*
X353244Y606125D01*
X353291Y606103D01*
X353334Y606073D01*
X353402Y606051D01*
X353467Y606021D01*
X353519Y606016D01*
X353569Y606000D01*
X353640Y606002D01*
X353712Y605994D01*
X353762Y606005D01*
G37*
%LPC*%
G36*
X300623Y424270D02*
X300623Y424270D01*
X300623Y431287D01*
X308435Y431287D01*
X309081Y431114D01*
X309660Y430780D01*
X310133Y430306D01*
X310468Y429727D01*
X310641Y429081D01*
X310641Y424270D01*
X300623Y424270D01*
G37*
%LPD*%
%LPC*%
G36*
X287559Y424270D02*
X287559Y424270D01*
X287559Y429081D01*
X287733Y429727D01*
X288067Y430306D01*
X288540Y430780D01*
X289119Y431114D01*
X289766Y431287D01*
X297577Y431287D01*
X297577Y424270D01*
X287559Y424270D01*
G37*
%LPD*%
%LPC*%
G36*
X300623Y414206D02*
X300623Y414206D01*
X300623Y421223D01*
X310641Y421223D01*
X310641Y416412D01*
X310468Y415766D01*
X310133Y415186D01*
X309660Y414713D01*
X309081Y414379D01*
X308435Y414206D01*
X300623Y414206D01*
G37*
%LPD*%
%LPC*%
G36*
X329766Y438206D02*
X329766Y438206D01*
X329119Y438379D01*
X328540Y438713D01*
X328067Y439186D01*
X327733Y439766D01*
X327559Y440412D01*
X327559Y445223D01*
X337577Y445223D01*
X337577Y438206D01*
X329766Y438206D01*
G37*
%LPD*%
%LPC*%
G36*
X289766Y414206D02*
X289766Y414206D01*
X289119Y414379D01*
X288540Y414713D01*
X288067Y415186D01*
X287733Y415766D01*
X287559Y416412D01*
X287559Y421223D01*
X297577Y421223D01*
X297577Y414206D01*
X289766Y414206D01*
G37*
%LPD*%
%LPC*%
G36*
X313548Y547722D02*
X313548Y547722D01*
X313548Y556701D01*
X314139Y556701D01*
X314868Y556506D01*
X314906Y556484D01*
X314969Y556460D01*
X315028Y556427D01*
X315083Y556417D01*
X315136Y556397D01*
X315204Y556394D01*
X315270Y556382D01*
X315325Y556390D01*
X315382Y556388D01*
X315447Y556407D01*
X315514Y556416D01*
X315586Y556448D01*
X315618Y556458D01*
X315635Y556470D01*
X315667Y556484D01*
X315705Y556506D01*
X316434Y556701D01*
X317025Y556701D01*
X317025Y547722D01*
X313548Y547722D01*
G37*
%LPD*%
%LPC*%
G36*
X313548Y537220D02*
X313548Y537220D01*
X313548Y546199D01*
X317025Y546199D01*
X317025Y537220D01*
X316434Y537220D01*
X315705Y537415D01*
X315667Y537437D01*
X315604Y537461D01*
X315545Y537494D01*
X315490Y537504D01*
X315437Y537524D01*
X315369Y537526D01*
X315303Y537539D01*
X315247Y537531D01*
X315191Y537533D01*
X315126Y537514D01*
X315059Y537504D01*
X314987Y537473D01*
X314955Y537463D01*
X314938Y537451D01*
X314906Y537437D01*
X314868Y537415D01*
X314139Y537220D01*
X313548Y537220D01*
G37*
%LPD*%
G36*
X353692Y600407D02*
X353692Y600407D01*
X353712Y600405D01*
X353813Y600427D01*
X353915Y600444D01*
X353932Y600453D01*
X353952Y600457D01*
X354041Y600511D01*
X354132Y600559D01*
X354146Y600573D01*
X354163Y600584D01*
X354230Y600662D01*
X354302Y600737D01*
X354310Y600755D01*
X354323Y600771D01*
X354362Y600867D01*
X354405Y600960D01*
X354407Y600980D01*
X354415Y600999D01*
X354433Y601165D01*
X354433Y602591D01*
X354430Y602611D01*
X354432Y602631D01*
X354410Y602732D01*
X354394Y602834D01*
X354384Y602852D01*
X354380Y602871D01*
X354327Y602960D01*
X354279Y603052D01*
X354264Y603065D01*
X354254Y603082D01*
X354175Y603150D01*
X354100Y603221D01*
X354082Y603229D01*
X354067Y603242D01*
X353971Y603281D01*
X353877Y603325D01*
X353857Y603327D01*
X353839Y603334D01*
X353672Y603353D01*
X345851Y603353D01*
X345831Y603349D01*
X345811Y603352D01*
X345710Y603330D01*
X345608Y603313D01*
X345590Y603304D01*
X345571Y603299D01*
X345482Y603246D01*
X345391Y603198D01*
X345377Y603183D01*
X345360Y603173D01*
X345292Y603095D01*
X345221Y603020D01*
X345213Y603001D01*
X345200Y602986D01*
X345161Y602890D01*
X345118Y602796D01*
X345115Y602777D01*
X345108Y602758D01*
X345090Y602591D01*
X345090Y601165D01*
X345093Y601146D01*
X345091Y601126D01*
X345113Y601025D01*
X345129Y600923D01*
X345139Y600905D01*
X345143Y600886D01*
X345196Y600797D01*
X345244Y600705D01*
X345259Y600692D01*
X345269Y600674D01*
X345348Y600607D01*
X345423Y600536D01*
X345441Y600528D01*
X345456Y600515D01*
X345552Y600476D01*
X345646Y600432D01*
X345666Y600430D01*
X345684Y600423D01*
X345851Y600404D01*
X353672Y600404D01*
X353692Y600407D01*
G37*
%LPC*%
G36*
X328548Y483822D02*
X328548Y483822D01*
X328548Y492801D01*
X329139Y492801D01*
X329868Y492606D01*
X330521Y492229D01*
X331055Y491695D01*
X331432Y491042D01*
X331627Y490313D01*
X331627Y483822D01*
X328548Y483822D01*
G37*
%LPD*%
%LPC*%
G36*
X328548Y473320D02*
X328548Y473320D01*
X328548Y482299D01*
X331627Y482299D01*
X331627Y475808D01*
X331432Y475079D01*
X331055Y474426D01*
X330521Y473892D01*
X329868Y473515D01*
X329139Y473320D01*
X328548Y473320D01*
G37*
%LPD*%
%LPC*%
G36*
X352478Y427353D02*
X352478Y427353D01*
X352478Y428176D01*
X352651Y428823D01*
X353011Y429446D01*
X353019Y429455D01*
X353034Y429486D01*
X353035Y429489D01*
X353037Y429492D01*
X353041Y429502D01*
X353071Y429544D01*
X353093Y429613D01*
X353123Y429678D01*
X353129Y429729D01*
X353144Y429779D01*
X353142Y429851D01*
X353143Y429861D01*
X353156Y429858D01*
X353180Y429860D01*
X353204Y429855D01*
X353302Y429869D01*
X353401Y429877D01*
X353424Y429887D01*
X353447Y429890D01*
X353601Y429957D01*
X354038Y430209D01*
X354684Y430383D01*
X356007Y430383D01*
X356007Y427353D01*
X352478Y427353D01*
G37*
%LPD*%
%LPC*%
G36*
X357530Y427353D02*
X357530Y427353D01*
X357530Y430382D01*
X358853Y430383D01*
X359499Y430209D01*
X360078Y429875D01*
X360552Y429402D01*
X360886Y428823D01*
X361059Y428176D01*
X361059Y427353D01*
X357530Y427353D01*
G37*
%LPD*%
%LPC*%
G36*
X358495Y479268D02*
X358495Y479268D01*
X358495Y482297D01*
X362024Y482297D01*
X362024Y481474D01*
X361851Y480828D01*
X361517Y480248D01*
X361044Y479775D01*
X360464Y479441D01*
X359818Y479268D01*
X358495Y479268D01*
G37*
%LPD*%
%LPC*%
G36*
X337227Y619609D02*
X337227Y619609D01*
X336581Y619783D01*
X336002Y620117D01*
X335529Y620590D01*
X335194Y621169D01*
X335021Y621816D01*
X335021Y623139D01*
X338050Y623139D01*
X338050Y619609D01*
X337227Y619609D01*
G37*
%LPD*%
%LPC*%
G36*
X355649Y479268D02*
X355649Y479268D01*
X355003Y479441D01*
X354424Y479775D01*
X353950Y480248D01*
X353616Y480828D01*
X353443Y481474D01*
X353443Y482297D01*
X356972Y482297D01*
X356972Y479268D01*
X355649Y479268D01*
G37*
%LPD*%
%LPC*%
G36*
X299099Y422746D02*
X299099Y422746D01*
X299099Y422747D01*
X299101Y422747D01*
X299101Y422746D01*
X299099Y422746D01*
G37*
%LPD*%
D10*
X339100Y422746D03*
X339100Y446746D03*
X299100Y446746D03*
X299100Y422746D03*
D11*
X281254Y443584D03*
X281254Y437084D03*
X356768Y420092D03*
X356768Y426592D03*
D12*
X339530Y608870D02*
X339530Y613886D01*
X350746Y613886D01*
X350746Y608870D01*
X339530Y608870D01*
X339530Y609711D02*
X350746Y609711D01*
X350746Y610552D02*
X339530Y610552D01*
X339530Y611393D02*
X350746Y611393D01*
X350746Y612234D02*
X339530Y612234D01*
X339530Y613075D02*
X350746Y613075D01*
X314430Y594886D02*
X314430Y589870D01*
X314430Y594886D02*
X325646Y594886D01*
X325646Y589870D01*
X314430Y589870D01*
X314430Y590711D02*
X325646Y590711D01*
X325646Y591552D02*
X314430Y591552D01*
X314430Y592393D02*
X325646Y592393D01*
X325646Y593234D02*
X314430Y593234D01*
X314430Y594075D02*
X325646Y594075D01*
X339530Y599370D02*
X339530Y604386D01*
X350746Y604386D01*
X350746Y599370D01*
X339530Y599370D01*
X339530Y600211D02*
X350746Y600211D01*
X350746Y601052D02*
X339530Y601052D01*
X339530Y601893D02*
X350746Y601893D01*
X350746Y602734D02*
X339530Y602734D01*
X339530Y603575D02*
X350746Y603575D01*
X339530Y594886D02*
X339530Y589870D01*
X339530Y594886D02*
X350746Y594886D01*
X350746Y589870D01*
X339530Y589870D01*
X339530Y590711D02*
X350746Y590711D01*
X350746Y591552D02*
X339530Y591552D01*
X339530Y592393D02*
X350746Y592393D01*
X350746Y593234D02*
X339530Y593234D01*
X339530Y594075D02*
X350746Y594075D01*
X314430Y608870D02*
X314430Y613886D01*
X325646Y613886D01*
X325646Y608870D01*
X314430Y608870D01*
X314430Y609711D02*
X325646Y609711D01*
X325646Y610552D02*
X314430Y610552D01*
X314430Y611393D02*
X325646Y611393D01*
X325646Y612234D02*
X314430Y612234D01*
X314430Y613075D02*
X325646Y613075D01*
D13*
X305690Y563397D03*
X312190Y563397D03*
D11*
X357734Y489558D03*
X357734Y483058D03*
D13*
X345312Y623900D03*
X338812Y623900D03*
X311657Y570967D03*
X305157Y570967D03*
D14*
X291811Y553835D02*
X291811Y540085D01*
X291811Y553835D02*
X293761Y553835D01*
X293761Y540085D01*
X291811Y540085D01*
X291811Y540702D02*
X293761Y540702D01*
X293761Y541319D02*
X291811Y541319D01*
X291811Y541936D02*
X293761Y541936D01*
X293761Y542553D02*
X291811Y542553D01*
X291811Y543170D02*
X293761Y543170D01*
X293761Y543787D02*
X291811Y543787D01*
X291811Y544404D02*
X293761Y544404D01*
X293761Y545021D02*
X291811Y545021D01*
X291811Y545638D02*
X293761Y545638D01*
X293761Y546255D02*
X291811Y546255D01*
X291811Y546872D02*
X293761Y546872D01*
X293761Y547489D02*
X291811Y547489D01*
X291811Y548106D02*
X293761Y548106D01*
X293761Y548723D02*
X291811Y548723D01*
X291811Y549340D02*
X293761Y549340D01*
X293761Y549957D02*
X291811Y549957D01*
X291811Y550574D02*
X293761Y550574D01*
X293761Y551191D02*
X291811Y551191D01*
X291811Y551808D02*
X293761Y551808D01*
X293761Y552425D02*
X291811Y552425D01*
X291811Y553042D02*
X293761Y553042D01*
X293761Y553659D02*
X291811Y553659D01*
X296811Y553835D02*
X296811Y540085D01*
X296811Y553835D02*
X298761Y553835D01*
X298761Y540085D01*
X296811Y540085D01*
X296811Y540702D02*
X298761Y540702D01*
X298761Y541319D02*
X296811Y541319D01*
X296811Y541936D02*
X298761Y541936D01*
X298761Y542553D02*
X296811Y542553D01*
X296811Y543170D02*
X298761Y543170D01*
X298761Y543787D02*
X296811Y543787D01*
X296811Y544404D02*
X298761Y544404D01*
X298761Y545021D02*
X296811Y545021D01*
X296811Y545638D02*
X298761Y545638D01*
X298761Y546255D02*
X296811Y546255D01*
X296811Y546872D02*
X298761Y546872D01*
X298761Y547489D02*
X296811Y547489D01*
X296811Y548106D02*
X298761Y548106D01*
X298761Y548723D02*
X296811Y548723D01*
X296811Y549340D02*
X298761Y549340D01*
X298761Y549957D02*
X296811Y549957D01*
X296811Y550574D02*
X298761Y550574D01*
X298761Y551191D02*
X296811Y551191D01*
X296811Y551808D02*
X298761Y551808D01*
X298761Y552425D02*
X296811Y552425D01*
X296811Y553042D02*
X298761Y553042D01*
X298761Y553659D02*
X296811Y553659D01*
X301811Y553835D02*
X301811Y540085D01*
X301811Y553835D02*
X303761Y553835D01*
X303761Y540085D01*
X301811Y540085D01*
X301811Y540702D02*
X303761Y540702D01*
X303761Y541319D02*
X301811Y541319D01*
X301811Y541936D02*
X303761Y541936D01*
X303761Y542553D02*
X301811Y542553D01*
X301811Y543170D02*
X303761Y543170D01*
X303761Y543787D02*
X301811Y543787D01*
X301811Y544404D02*
X303761Y544404D01*
X303761Y545021D02*
X301811Y545021D01*
X301811Y545638D02*
X303761Y545638D01*
X303761Y546255D02*
X301811Y546255D01*
X301811Y546872D02*
X303761Y546872D01*
X303761Y547489D02*
X301811Y547489D01*
X301811Y548106D02*
X303761Y548106D01*
X303761Y548723D02*
X301811Y548723D01*
X301811Y549340D02*
X303761Y549340D01*
X303761Y549957D02*
X301811Y549957D01*
X301811Y550574D02*
X303761Y550574D01*
X303761Y551191D02*
X301811Y551191D01*
X301811Y551808D02*
X303761Y551808D01*
X303761Y552425D02*
X301811Y552425D01*
X301811Y553042D02*
X303761Y553042D01*
X303761Y553659D02*
X301811Y553659D01*
X306811Y553835D02*
X306811Y540085D01*
X306811Y553835D02*
X308761Y553835D01*
X308761Y540085D01*
X306811Y540085D01*
X306811Y540702D02*
X308761Y540702D01*
X308761Y541319D02*
X306811Y541319D01*
X306811Y541936D02*
X308761Y541936D01*
X308761Y542553D02*
X306811Y542553D01*
X306811Y543170D02*
X308761Y543170D01*
X308761Y543787D02*
X306811Y543787D01*
X306811Y544404D02*
X308761Y544404D01*
X308761Y545021D02*
X306811Y545021D01*
X306811Y545638D02*
X308761Y545638D01*
X308761Y546255D02*
X306811Y546255D01*
X306811Y546872D02*
X308761Y546872D01*
X308761Y547489D02*
X306811Y547489D01*
X306811Y548106D02*
X308761Y548106D01*
X308761Y548723D02*
X306811Y548723D01*
X306811Y549340D02*
X308761Y549340D01*
X308761Y549957D02*
X306811Y549957D01*
X306811Y550574D02*
X308761Y550574D01*
X308761Y551191D02*
X306811Y551191D01*
X306811Y551808D02*
X308761Y551808D01*
X308761Y552425D02*
X306811Y552425D01*
X306811Y553042D02*
X308761Y553042D01*
X308761Y553659D02*
X306811Y553659D01*
X311811Y553835D02*
X311811Y540085D01*
X311811Y553835D02*
X313761Y553835D01*
X313761Y540085D01*
X311811Y540085D01*
X311811Y540702D02*
X313761Y540702D01*
X313761Y541319D02*
X311811Y541319D01*
X311811Y541936D02*
X313761Y541936D01*
X313761Y542553D02*
X311811Y542553D01*
X311811Y543170D02*
X313761Y543170D01*
X313761Y543787D02*
X311811Y543787D01*
X311811Y544404D02*
X313761Y544404D01*
X313761Y545021D02*
X311811Y545021D01*
X311811Y545638D02*
X313761Y545638D01*
X313761Y546255D02*
X311811Y546255D01*
X311811Y546872D02*
X313761Y546872D01*
X313761Y547489D02*
X311811Y547489D01*
X311811Y548106D02*
X313761Y548106D01*
X313761Y548723D02*
X311811Y548723D01*
X311811Y549340D02*
X313761Y549340D01*
X313761Y549957D02*
X311811Y549957D01*
X311811Y550574D02*
X313761Y550574D01*
X313761Y551191D02*
X311811Y551191D01*
X311811Y551808D02*
X313761Y551808D01*
X313761Y552425D02*
X311811Y552425D01*
X311811Y553042D02*
X313761Y553042D01*
X313761Y553659D02*
X311811Y553659D01*
X316811Y553835D02*
X316811Y540085D01*
X316811Y553835D02*
X318761Y553835D01*
X318761Y540085D01*
X316811Y540085D01*
X316811Y540702D02*
X318761Y540702D01*
X318761Y541319D02*
X316811Y541319D01*
X316811Y541936D02*
X318761Y541936D01*
X318761Y542553D02*
X316811Y542553D01*
X316811Y543170D02*
X318761Y543170D01*
X318761Y543787D02*
X316811Y543787D01*
X316811Y544404D02*
X318761Y544404D01*
X318761Y545021D02*
X316811Y545021D01*
X316811Y545638D02*
X318761Y545638D01*
X318761Y546255D02*
X316811Y546255D01*
X316811Y546872D02*
X318761Y546872D01*
X318761Y547489D02*
X316811Y547489D01*
X316811Y548106D02*
X318761Y548106D01*
X318761Y548723D02*
X316811Y548723D01*
X316811Y549340D02*
X318761Y549340D01*
X318761Y549957D02*
X316811Y549957D01*
X316811Y550574D02*
X318761Y550574D01*
X318761Y551191D02*
X316811Y551191D01*
X316811Y551808D02*
X318761Y551808D01*
X318761Y552425D02*
X316811Y552425D01*
X316811Y553042D02*
X318761Y553042D01*
X318761Y553659D02*
X316811Y553659D01*
X321811Y553835D02*
X321811Y540085D01*
X321811Y553835D02*
X323761Y553835D01*
X323761Y540085D01*
X321811Y540085D01*
X321811Y540702D02*
X323761Y540702D01*
X323761Y541319D02*
X321811Y541319D01*
X321811Y541936D02*
X323761Y541936D01*
X323761Y542553D02*
X321811Y542553D01*
X321811Y543170D02*
X323761Y543170D01*
X323761Y543787D02*
X321811Y543787D01*
X321811Y544404D02*
X323761Y544404D01*
X323761Y545021D02*
X321811Y545021D01*
X321811Y545638D02*
X323761Y545638D01*
X323761Y546255D02*
X321811Y546255D01*
X321811Y546872D02*
X323761Y546872D01*
X323761Y547489D02*
X321811Y547489D01*
X321811Y548106D02*
X323761Y548106D01*
X323761Y548723D02*
X321811Y548723D01*
X321811Y549340D02*
X323761Y549340D01*
X323761Y549957D02*
X321811Y549957D01*
X321811Y550574D02*
X323761Y550574D01*
X323761Y551191D02*
X321811Y551191D01*
X321811Y551808D02*
X323761Y551808D01*
X323761Y552425D02*
X321811Y552425D01*
X321811Y553042D02*
X323761Y553042D01*
X323761Y553659D02*
X321811Y553659D01*
X326811Y553835D02*
X326811Y540085D01*
X326811Y553835D02*
X328761Y553835D01*
X328761Y540085D01*
X326811Y540085D01*
X326811Y540702D02*
X328761Y540702D01*
X328761Y541319D02*
X326811Y541319D01*
X326811Y541936D02*
X328761Y541936D01*
X328761Y542553D02*
X326811Y542553D01*
X326811Y543170D02*
X328761Y543170D01*
X328761Y543787D02*
X326811Y543787D01*
X326811Y544404D02*
X328761Y544404D01*
X328761Y545021D02*
X326811Y545021D01*
X326811Y545638D02*
X328761Y545638D01*
X328761Y546255D02*
X326811Y546255D01*
X326811Y546872D02*
X328761Y546872D01*
X328761Y547489D02*
X326811Y547489D01*
X326811Y548106D02*
X328761Y548106D01*
X328761Y548723D02*
X326811Y548723D01*
X326811Y549340D02*
X328761Y549340D01*
X328761Y549957D02*
X326811Y549957D01*
X326811Y550574D02*
X328761Y550574D01*
X328761Y551191D02*
X326811Y551191D01*
X326811Y551808D02*
X328761Y551808D01*
X328761Y552425D02*
X326811Y552425D01*
X326811Y553042D02*
X328761Y553042D01*
X328761Y553659D02*
X326811Y553659D01*
X326811Y489935D02*
X326811Y476185D01*
X326811Y489935D02*
X328761Y489935D01*
X328761Y476185D01*
X326811Y476185D01*
X326811Y476802D02*
X328761Y476802D01*
X328761Y477419D02*
X326811Y477419D01*
X326811Y478036D02*
X328761Y478036D01*
X328761Y478653D02*
X326811Y478653D01*
X326811Y479270D02*
X328761Y479270D01*
X328761Y479887D02*
X326811Y479887D01*
X326811Y480504D02*
X328761Y480504D01*
X328761Y481121D02*
X326811Y481121D01*
X326811Y481738D02*
X328761Y481738D01*
X328761Y482355D02*
X326811Y482355D01*
X326811Y482972D02*
X328761Y482972D01*
X328761Y483589D02*
X326811Y483589D01*
X326811Y484206D02*
X328761Y484206D01*
X328761Y484823D02*
X326811Y484823D01*
X326811Y485440D02*
X328761Y485440D01*
X328761Y486057D02*
X326811Y486057D01*
X326811Y486674D02*
X328761Y486674D01*
X328761Y487291D02*
X326811Y487291D01*
X326811Y487908D02*
X328761Y487908D01*
X328761Y488525D02*
X326811Y488525D01*
X326811Y489142D02*
X328761Y489142D01*
X328761Y489759D02*
X326811Y489759D01*
X321811Y489935D02*
X321811Y476185D01*
X321811Y489935D02*
X323761Y489935D01*
X323761Y476185D01*
X321811Y476185D01*
X321811Y476802D02*
X323761Y476802D01*
X323761Y477419D02*
X321811Y477419D01*
X321811Y478036D02*
X323761Y478036D01*
X323761Y478653D02*
X321811Y478653D01*
X321811Y479270D02*
X323761Y479270D01*
X323761Y479887D02*
X321811Y479887D01*
X321811Y480504D02*
X323761Y480504D01*
X323761Y481121D02*
X321811Y481121D01*
X321811Y481738D02*
X323761Y481738D01*
X323761Y482355D02*
X321811Y482355D01*
X321811Y482972D02*
X323761Y482972D01*
X323761Y483589D02*
X321811Y483589D01*
X321811Y484206D02*
X323761Y484206D01*
X323761Y484823D02*
X321811Y484823D01*
X321811Y485440D02*
X323761Y485440D01*
X323761Y486057D02*
X321811Y486057D01*
X321811Y486674D02*
X323761Y486674D01*
X323761Y487291D02*
X321811Y487291D01*
X321811Y487908D02*
X323761Y487908D01*
X323761Y488525D02*
X321811Y488525D01*
X321811Y489142D02*
X323761Y489142D01*
X323761Y489759D02*
X321811Y489759D01*
X316811Y489935D02*
X316811Y476185D01*
X316811Y489935D02*
X318761Y489935D01*
X318761Y476185D01*
X316811Y476185D01*
X316811Y476802D02*
X318761Y476802D01*
X318761Y477419D02*
X316811Y477419D01*
X316811Y478036D02*
X318761Y478036D01*
X318761Y478653D02*
X316811Y478653D01*
X316811Y479270D02*
X318761Y479270D01*
X318761Y479887D02*
X316811Y479887D01*
X316811Y480504D02*
X318761Y480504D01*
X318761Y481121D02*
X316811Y481121D01*
X316811Y481738D02*
X318761Y481738D01*
X318761Y482355D02*
X316811Y482355D01*
X316811Y482972D02*
X318761Y482972D01*
X318761Y483589D02*
X316811Y483589D01*
X316811Y484206D02*
X318761Y484206D01*
X318761Y484823D02*
X316811Y484823D01*
X316811Y485440D02*
X318761Y485440D01*
X318761Y486057D02*
X316811Y486057D01*
X316811Y486674D02*
X318761Y486674D01*
X318761Y487291D02*
X316811Y487291D01*
X316811Y487908D02*
X318761Y487908D01*
X318761Y488525D02*
X316811Y488525D01*
X316811Y489142D02*
X318761Y489142D01*
X318761Y489759D02*
X316811Y489759D01*
X311811Y489935D02*
X311811Y476185D01*
X311811Y489935D02*
X313761Y489935D01*
X313761Y476185D01*
X311811Y476185D01*
X311811Y476802D02*
X313761Y476802D01*
X313761Y477419D02*
X311811Y477419D01*
X311811Y478036D02*
X313761Y478036D01*
X313761Y478653D02*
X311811Y478653D01*
X311811Y479270D02*
X313761Y479270D01*
X313761Y479887D02*
X311811Y479887D01*
X311811Y480504D02*
X313761Y480504D01*
X313761Y481121D02*
X311811Y481121D01*
X311811Y481738D02*
X313761Y481738D01*
X313761Y482355D02*
X311811Y482355D01*
X311811Y482972D02*
X313761Y482972D01*
X313761Y483589D02*
X311811Y483589D01*
X311811Y484206D02*
X313761Y484206D01*
X313761Y484823D02*
X311811Y484823D01*
X311811Y485440D02*
X313761Y485440D01*
X313761Y486057D02*
X311811Y486057D01*
X311811Y486674D02*
X313761Y486674D01*
X313761Y487291D02*
X311811Y487291D01*
X311811Y487908D02*
X313761Y487908D01*
X313761Y488525D02*
X311811Y488525D01*
X311811Y489142D02*
X313761Y489142D01*
X313761Y489759D02*
X311811Y489759D01*
X306811Y489935D02*
X306811Y476185D01*
X306811Y489935D02*
X308761Y489935D01*
X308761Y476185D01*
X306811Y476185D01*
X306811Y476802D02*
X308761Y476802D01*
X308761Y477419D02*
X306811Y477419D01*
X306811Y478036D02*
X308761Y478036D01*
X308761Y478653D02*
X306811Y478653D01*
X306811Y479270D02*
X308761Y479270D01*
X308761Y479887D02*
X306811Y479887D01*
X306811Y480504D02*
X308761Y480504D01*
X308761Y481121D02*
X306811Y481121D01*
X306811Y481738D02*
X308761Y481738D01*
X308761Y482355D02*
X306811Y482355D01*
X306811Y482972D02*
X308761Y482972D01*
X308761Y483589D02*
X306811Y483589D01*
X306811Y484206D02*
X308761Y484206D01*
X308761Y484823D02*
X306811Y484823D01*
X306811Y485440D02*
X308761Y485440D01*
X308761Y486057D02*
X306811Y486057D01*
X306811Y486674D02*
X308761Y486674D01*
X308761Y487291D02*
X306811Y487291D01*
X306811Y487908D02*
X308761Y487908D01*
X308761Y488525D02*
X306811Y488525D01*
X306811Y489142D02*
X308761Y489142D01*
X308761Y489759D02*
X306811Y489759D01*
X301811Y489935D02*
X301811Y476185D01*
X301811Y489935D02*
X303761Y489935D01*
X303761Y476185D01*
X301811Y476185D01*
X301811Y476802D02*
X303761Y476802D01*
X303761Y477419D02*
X301811Y477419D01*
X301811Y478036D02*
X303761Y478036D01*
X303761Y478653D02*
X301811Y478653D01*
X301811Y479270D02*
X303761Y479270D01*
X303761Y479887D02*
X301811Y479887D01*
X301811Y480504D02*
X303761Y480504D01*
X303761Y481121D02*
X301811Y481121D01*
X301811Y481738D02*
X303761Y481738D01*
X303761Y482355D02*
X301811Y482355D01*
X301811Y482972D02*
X303761Y482972D01*
X303761Y483589D02*
X301811Y483589D01*
X301811Y484206D02*
X303761Y484206D01*
X303761Y484823D02*
X301811Y484823D01*
X301811Y485440D02*
X303761Y485440D01*
X303761Y486057D02*
X301811Y486057D01*
X301811Y486674D02*
X303761Y486674D01*
X303761Y487291D02*
X301811Y487291D01*
X301811Y487908D02*
X303761Y487908D01*
X303761Y488525D02*
X301811Y488525D01*
X301811Y489142D02*
X303761Y489142D01*
X303761Y489759D02*
X301811Y489759D01*
X296811Y489935D02*
X296811Y476185D01*
X296811Y489935D02*
X298761Y489935D01*
X298761Y476185D01*
X296811Y476185D01*
X296811Y476802D02*
X298761Y476802D01*
X298761Y477419D02*
X296811Y477419D01*
X296811Y478036D02*
X298761Y478036D01*
X298761Y478653D02*
X296811Y478653D01*
X296811Y479270D02*
X298761Y479270D01*
X298761Y479887D02*
X296811Y479887D01*
X296811Y480504D02*
X298761Y480504D01*
X298761Y481121D02*
X296811Y481121D01*
X296811Y481738D02*
X298761Y481738D01*
X298761Y482355D02*
X296811Y482355D01*
X296811Y482972D02*
X298761Y482972D01*
X298761Y483589D02*
X296811Y483589D01*
X296811Y484206D02*
X298761Y484206D01*
X298761Y484823D02*
X296811Y484823D01*
X296811Y485440D02*
X298761Y485440D01*
X298761Y486057D02*
X296811Y486057D01*
X296811Y486674D02*
X298761Y486674D01*
X298761Y487291D02*
X296811Y487291D01*
X296811Y487908D02*
X298761Y487908D01*
X298761Y488525D02*
X296811Y488525D01*
X296811Y489142D02*
X298761Y489142D01*
X298761Y489759D02*
X296811Y489759D01*
X291811Y489935D02*
X291811Y476185D01*
X291811Y489935D02*
X293761Y489935D01*
X293761Y476185D01*
X291811Y476185D01*
X291811Y476802D02*
X293761Y476802D01*
X293761Y477419D02*
X291811Y477419D01*
X291811Y478036D02*
X293761Y478036D01*
X293761Y478653D02*
X291811Y478653D01*
X291811Y479270D02*
X293761Y479270D01*
X293761Y479887D02*
X291811Y479887D01*
X291811Y480504D02*
X293761Y480504D01*
X293761Y481121D02*
X291811Y481121D01*
X291811Y481738D02*
X293761Y481738D01*
X293761Y482355D02*
X291811Y482355D01*
X291811Y482972D02*
X293761Y482972D01*
X293761Y483589D02*
X291811Y483589D01*
X291811Y484206D02*
X293761Y484206D01*
X293761Y484823D02*
X291811Y484823D01*
X291811Y485440D02*
X293761Y485440D01*
X293761Y486057D02*
X291811Y486057D01*
X291811Y486674D02*
X293761Y486674D01*
X293761Y487291D02*
X291811Y487291D01*
X291811Y487908D02*
X293761Y487908D01*
X293761Y488525D02*
X291811Y488525D01*
X291811Y489142D02*
X293761Y489142D01*
X293761Y489759D02*
X291811Y489759D01*
X285211Y496535D02*
X271461Y496535D01*
X271461Y498485D01*
X285211Y498485D01*
X285211Y496535D01*
X285211Y497152D02*
X271461Y497152D01*
X271461Y497769D02*
X285211Y497769D01*
X285211Y498386D02*
X271461Y498386D01*
X271461Y501535D02*
X285211Y501535D01*
X271461Y501535D02*
X271461Y503485D01*
X285211Y503485D01*
X285211Y501535D01*
X285211Y502152D02*
X271461Y502152D01*
X271461Y502769D02*
X285211Y502769D01*
X285211Y503386D02*
X271461Y503386D01*
X271461Y506535D02*
X285211Y506535D01*
X271461Y506535D02*
X271461Y508485D01*
X285211Y508485D01*
X285211Y506535D01*
X285211Y507152D02*
X271461Y507152D01*
X271461Y507769D02*
X285211Y507769D01*
X285211Y508386D02*
X271461Y508386D01*
X271461Y511535D02*
X285211Y511535D01*
X271461Y511535D02*
X271461Y513485D01*
X285211Y513485D01*
X285211Y511535D01*
X285211Y512152D02*
X271461Y512152D01*
X271461Y512769D02*
X285211Y512769D01*
X285211Y513386D02*
X271461Y513386D01*
X271461Y516535D02*
X285211Y516535D01*
X271461Y516535D02*
X271461Y518485D01*
X285211Y518485D01*
X285211Y516535D01*
X285211Y517152D02*
X271461Y517152D01*
X271461Y517769D02*
X285211Y517769D01*
X285211Y518386D02*
X271461Y518386D01*
X271461Y521535D02*
X285211Y521535D01*
X271461Y521535D02*
X271461Y523485D01*
X285211Y523485D01*
X285211Y521535D01*
X285211Y522152D02*
X271461Y522152D01*
X271461Y522769D02*
X285211Y522769D01*
X285211Y523386D02*
X271461Y523386D01*
X271461Y526535D02*
X285211Y526535D01*
X271461Y526535D02*
X271461Y528485D01*
X285211Y528485D01*
X285211Y526535D01*
X285211Y527152D02*
X271461Y527152D01*
X271461Y527769D02*
X285211Y527769D01*
X285211Y528386D02*
X271461Y528386D01*
X271461Y531535D02*
X285211Y531535D01*
X271461Y531535D02*
X271461Y533485D01*
X285211Y533485D01*
X285211Y531535D01*
X285211Y532152D02*
X271461Y532152D01*
X271461Y532769D02*
X285211Y532769D01*
X285211Y533386D02*
X271461Y533386D01*
X335361Y531535D02*
X349111Y531535D01*
X335361Y531535D02*
X335361Y533485D01*
X349111Y533485D01*
X349111Y531535D01*
X349111Y532152D02*
X335361Y532152D01*
X335361Y532769D02*
X349111Y532769D01*
X349111Y533386D02*
X335361Y533386D01*
X335361Y526535D02*
X349111Y526535D01*
X335361Y526535D02*
X335361Y528485D01*
X349111Y528485D01*
X349111Y526535D01*
X349111Y527152D02*
X335361Y527152D01*
X335361Y527769D02*
X349111Y527769D01*
X349111Y528386D02*
X335361Y528386D01*
X335361Y521535D02*
X349111Y521535D01*
X335361Y521535D02*
X335361Y523485D01*
X349111Y523485D01*
X349111Y521535D01*
X349111Y522152D02*
X335361Y522152D01*
X335361Y522769D02*
X349111Y522769D01*
X349111Y523386D02*
X335361Y523386D01*
X335361Y516535D02*
X349111Y516535D01*
X335361Y516535D02*
X335361Y518485D01*
X349111Y518485D01*
X349111Y516535D01*
X349111Y517152D02*
X335361Y517152D01*
X335361Y517769D02*
X349111Y517769D01*
X349111Y518386D02*
X335361Y518386D01*
X335361Y511535D02*
X349111Y511535D01*
X335361Y511535D02*
X335361Y513485D01*
X349111Y513485D01*
X349111Y511535D01*
X349111Y512152D02*
X335361Y512152D01*
X335361Y512769D02*
X349111Y512769D01*
X349111Y513386D02*
X335361Y513386D01*
X335361Y506535D02*
X349111Y506535D01*
X335361Y506535D02*
X335361Y508485D01*
X349111Y508485D01*
X349111Y506535D01*
X349111Y507152D02*
X335361Y507152D01*
X335361Y507769D02*
X349111Y507769D01*
X349111Y508386D02*
X335361Y508386D01*
X335361Y501535D02*
X349111Y501535D01*
X335361Y501535D02*
X335361Y503485D01*
X349111Y503485D01*
X349111Y501535D01*
X349111Y502152D02*
X335361Y502152D01*
X335361Y502769D02*
X349111Y502769D01*
X349111Y503386D02*
X335361Y503386D01*
X335361Y496535D02*
X349111Y496535D01*
X335361Y496535D02*
X335361Y498485D01*
X349111Y498485D01*
X349111Y496535D01*
X349111Y497152D02*
X335361Y497152D01*
X335361Y497769D02*
X349111Y497769D01*
X349111Y498386D02*
X335361Y498386D01*
D15*
X273228Y335255D03*
X267428Y341055D03*
X279028Y341055D03*
X279028Y329455D03*
X267428Y329455D03*
D16*
X201397Y428346D03*
X142977Y428346D03*
X142977Y453746D03*
X201397Y453746D03*
X142977Y479146D03*
X201397Y479146D03*
X142977Y504546D03*
X201397Y504546D03*
X142977Y529946D03*
X201397Y529946D03*
X142977Y555346D03*
X201397Y555346D03*
X142977Y580746D03*
X201397Y580746D03*
X142977Y606146D03*
X201397Y606146D03*
D17*
X247955Y411756D03*
X247955Y427256D03*
D18*
X216126Y409016D03*
X231626Y409016D03*
D17*
X247955Y453926D03*
X247955Y438426D03*
D18*
X219123Y452780D03*
X234623Y452780D03*
X219123Y424840D03*
X234623Y424840D03*
X219123Y438810D03*
X234623Y438810D03*
D17*
X247142Y467535D03*
X247142Y483035D03*
D18*
X219123Y468782D03*
X234623Y468782D03*
D17*
X247447Y509806D03*
X247447Y494306D03*
D18*
X219377Y511962D03*
X234877Y511962D03*
X219123Y482244D03*
X234623Y482244D03*
X219377Y497992D03*
X234877Y497992D03*
D17*
X247701Y525802D03*
X247701Y541302D03*
D18*
X219885Y526186D03*
X235385Y526186D03*
D17*
X247625Y568582D03*
X247625Y553082D03*
D18*
X219682Y570382D03*
X235182Y570382D03*
X219885Y540410D03*
X235385Y540410D03*
X219605Y556438D03*
X235105Y556438D03*
D17*
X247650Y579168D03*
X247650Y594668D03*
D18*
X217878Y584302D03*
X233378Y584302D03*
D17*
X245694Y621033D03*
X245694Y605533D03*
D18*
X217751Y628218D03*
X233251Y628218D03*
X217878Y599008D03*
X233378Y599008D03*
X217853Y613537D03*
X233353Y613537D03*
D19*
X339420Y570535D03*
X324180Y570535D03*
D20*
X362509Y667791D03*
X356997Y658749D03*
X360121Y650570D03*
X356692Y642595D03*
X350012Y637007D03*
D21*
X318440Y686740D03*
X302362Y686740D03*
D20*
X339852Y633959D03*
D22*
X303225Y597941D03*
X303225Y582701D03*
D23*
X364603Y658927D03*
X375603Y658927D03*
X358027Y554990D03*
X347027Y554990D03*
D24*
X332334Y467970D02*
X332156Y467792D01*
X327000Y467792D01*
X322786Y472005D01*
X322786Y483060D01*
D15*
X332334Y467970D03*
X335506Y583311D03*
D25*
X339420Y579397D01*
X339420Y570535D01*
D24*
X332334Y467970D02*
X332334Y467690D01*
X356222Y467690D01*
X360133Y463779D01*
D15*
X360133Y463779D03*
D25*
X347027Y560411D02*
X339443Y567995D01*
X339443Y579374D02*
X335506Y583311D01*
X339443Y579374D02*
X339443Y567995D01*
X347027Y560411D02*
X347027Y554990D01*
D15*
X286156Y316763D03*
D25*
X352580Y601878D02*
X353672Y602971D01*
X352580Y601878D02*
X345138Y601878D01*
X353672Y602971D02*
X353672Y622958D01*
X348564Y628066D01*
X338607Y628066D01*
D15*
X289636Y588899D03*
X308127Y669163D03*
X277546Y376225D03*
X322961Y344932D03*
X147955Y362915D03*
X370078Y359664D03*
X307264Y409804D03*
X291541Y394208D03*
D25*
X325069Y669163D02*
X329816Y673910D01*
X325069Y669163D02*
X308127Y669163D01*
X375920Y665480D02*
X375920Y659243D01*
X375920Y365506D01*
X375920Y665480D02*
X367490Y673910D01*
X375920Y365506D02*
X370078Y359664D01*
D15*
X345313Y331775D03*
X171704Y418338D03*
X350545Y476529D03*
X355346Y364490D03*
X136703Y649072D03*
D26*
X305055Y570865D02*
X305157Y570967D01*
D15*
X359156Y398018D03*
X203454Y317246D03*
X157658Y338303D03*
X170917Y384810D03*
X154584Y385242D03*
X329540Y680720D03*
D25*
X329816Y673910D02*
X334696Y673910D01*
X332740Y677415D02*
X329540Y680616D01*
X329540Y680720D01*
D15*
X336118Y687883D03*
D25*
X334696Y686460D01*
X334696Y675460D01*
X334696Y673910D01*
D15*
X276200Y649021D03*
D25*
X338607Y628066D02*
X338812Y627861D01*
X338812Y623900D01*
D15*
X164465Y348615D03*
X319684Y314071D03*
X209525Y389001D03*
D25*
X289636Y588899D02*
X289636Y607122D01*
X310580Y628066D01*
X338607Y628066D01*
X313599Y556581D02*
X314361Y555819D01*
X313599Y555488D02*
X312230Y556857D01*
X313599Y556581D02*
X313599Y558077D01*
X313599Y556581D02*
X313599Y555488D01*
D15*
X327000Y434873D03*
D24*
X310234Y558853D02*
X309783Y558853D01*
X310234Y558853D02*
X312230Y556857D01*
X314361Y555819D02*
X314361Y548535D01*
X312786Y546960D01*
X316161Y556610D02*
X314694Y558077D01*
X313599Y558077D01*
X316161Y556610D02*
X316161Y548586D01*
X317786Y546960D01*
X307613Y568511D02*
X305157Y570967D01*
X307613Y561023D02*
X308146Y560490D01*
X307613Y561023D02*
X307613Y568511D01*
D15*
X143027Y342392D03*
D24*
X223327Y416843D02*
X225167Y418683D01*
X317786Y524700D02*
X317786Y546960D01*
X230216Y460574D02*
X225167Y455526D01*
X225167Y418683D01*
X312786Y519700D02*
X317786Y524700D01*
X312786Y519700D02*
X304036Y510949D01*
X253661Y460574D01*
X230216Y460574D01*
X173199Y416843D02*
X171704Y418338D01*
X173199Y416843D02*
X223327Y416843D01*
X312786Y483060D02*
X312786Y502198D01*
X304036Y510949D01*
X312786Y519700D02*
X312786Y546960D01*
X305690Y570433D02*
X305157Y570967D01*
X305690Y570433D02*
X305690Y563397D01*
X308146Y560941D01*
X308146Y560490D01*
X309783Y558853D01*
X312786Y555850D01*
X312786Y546960D01*
D15*
X270635Y312523D03*
D25*
X375603Y658927D02*
X375920Y659243D01*
X334696Y675460D02*
X332740Y677415D01*
X334696Y673910D02*
X367490Y673910D01*
D15*
X228473Y358648D03*
D25*
X327786Y476529D02*
X327786Y483060D01*
X327786Y476529D02*
X350545Y476529D01*
X311227Y434873D02*
X299100Y422746D01*
X311227Y434873D02*
X327000Y434873D01*
X327227Y434873D02*
X339100Y446746D01*
X327227Y434873D02*
X327000Y434873D01*
X270635Y312523D02*
X259455Y312523D01*
X212806Y307894D02*
X203454Y317246D01*
X212806Y307894D02*
X254826Y307894D01*
X259455Y312523D01*
D15*
X194515Y378230D03*
D24*
X300370Y446746D02*
X310530Y456906D01*
X300370Y446746D02*
X299100Y446746D01*
X310530Y456906D02*
X366928Y456906D01*
X366928Y498646D02*
X363064Y502510D01*
X342236Y502510D01*
X366928Y498646D02*
X366928Y456906D01*
X299100Y446746D02*
X298338Y447508D01*
X281928Y447508D01*
X281254Y443584D01*
X322786Y546960D02*
X322786Y563829D01*
X312622Y563829D02*
X312190Y563397D01*
X312622Y563829D02*
X322786Y563829D01*
X311657Y570967D02*
X311593Y571031D01*
X311657Y570967D02*
X312190Y570433D01*
X312190Y563397D01*
X311657Y570967D02*
X311657Y576124D01*
X305079Y582701D01*
X303225Y582701D01*
X323748Y570967D02*
X324180Y570535D01*
X323748Y570967D02*
X311657Y570967D01*
D25*
X216126Y411378D02*
X216126Y409016D01*
X216126Y411378D02*
X152476Y411378D01*
X142977Y420878D01*
X142977Y428346D01*
X204902Y424840D02*
X219123Y424840D01*
X204902Y424840D02*
X201397Y428346D01*
X218473Y439461D02*
X219123Y438810D01*
X218473Y439461D02*
X215682Y439461D01*
X201397Y453746D01*
X219123Y452780D02*
X219123Y456463D01*
X211528Y464058D01*
X156388Y464058D01*
X146075Y453746D01*
X142977Y453746D01*
X217446Y467106D02*
X219123Y468782D01*
X217446Y467106D02*
X155981Y467106D01*
X143942Y479146D01*
X142977Y479146D01*
X216430Y479552D02*
X219123Y482244D01*
X216430Y479552D02*
X201803Y479552D01*
X201397Y479146D01*
X215313Y497992D02*
X219377Y497992D01*
X215313Y497992D02*
X208353Y504952D01*
X201803Y504952D01*
X201397Y504546D01*
X215973Y515366D02*
X219377Y511962D01*
X215973Y515366D02*
X156591Y515366D01*
X145771Y504546D01*
X142977Y504546D01*
X212138Y518439D02*
X219885Y526186D01*
X212138Y518439D02*
X157810Y518439D01*
X146304Y529946D01*
X142977Y529946D01*
X201397Y529946D02*
X205105Y529946D01*
X215570Y540410D01*
X219885Y540410D01*
X219605Y556438D02*
X202489Y556438D01*
X201397Y555346D01*
X218158Y568858D02*
X219682Y570382D01*
X218158Y568858D02*
X160299Y568858D01*
X146787Y555346D01*
X142977Y555346D01*
X213865Y580288D02*
X217878Y584302D01*
X213865Y580288D02*
X213865Y573329D01*
X212468Y571932D01*
X151790Y571932D01*
X142977Y580746D01*
X217370Y598500D02*
X217878Y599008D01*
X217370Y598500D02*
X217370Y597507D01*
X201524Y581660D01*
X201524Y580873D01*
X201397Y580746D01*
X210868Y606552D02*
X217853Y613537D01*
X210868Y606552D02*
X201803Y606552D01*
X201397Y606146D01*
X179397Y628218D02*
X157665Y606486D01*
X179397Y628218D02*
X217751Y628218D01*
X143111Y606486D02*
X142977Y606352D01*
X142977Y606146D01*
X143111Y606486D02*
X157665Y606486D01*
X327786Y549275D02*
X327786Y546960D01*
X327786Y549275D02*
X352555Y549275D01*
D27*
X255448Y615036D03*
D26*
X256820Y613664D01*
X292227Y613664D02*
X312369Y633806D01*
X292227Y613664D02*
X256820Y613664D01*
X339700Y633806D02*
X339852Y633959D01*
X339700Y633806D02*
X312369Y633806D01*
D25*
X347107Y631119D02*
X350312Y631119D01*
X344268Y633959D02*
X339852Y633959D01*
X344268Y633959D02*
X347107Y631119D01*
X352555Y563179D02*
X352555Y549275D01*
X352555Y563179D02*
X356720Y567344D01*
X356720Y624711D01*
X350312Y631119D01*
D24*
X342236Y532510D02*
X342464Y532282D01*
D25*
X342236Y532510D02*
X350646Y532510D01*
X359969Y541833D01*
X359969Y560299D01*
X359969Y628142D01*
D27*
X263550Y623087D03*
D26*
X263550Y619709D02*
X265887Y617372D01*
X263550Y619709D02*
X263550Y623087D01*
X265887Y617372D02*
X291897Y617372D01*
X314935Y640410D01*
X346609Y640410D02*
X350012Y637007D01*
X346609Y640410D02*
X314935Y640410D01*
D25*
X351104Y637007D02*
X359969Y628142D01*
X351104Y637007D02*
X350012Y637007D01*
X358027Y558356D02*
X358027Y554990D01*
X358027Y558356D02*
X359969Y560299D01*
X350472Y527510D02*
X342236Y527510D01*
X350472Y527510D02*
X363144Y540182D01*
X363144Y635152D01*
X356197Y642099D02*
X356692Y642595D01*
X356197Y642099D02*
X363144Y635152D01*
D15*
X342976Y645008D03*
D26*
X353263Y645008D01*
X355676Y642595D02*
X356692Y642595D01*
X355676Y642595D02*
X353263Y645008D01*
D25*
X351314Y522510D02*
X342236Y522510D01*
X351314Y522510D02*
X366395Y537591D01*
X366395Y645084D01*
X360909Y650570D01*
X360121Y650570D01*
D27*
X271399Y623113D03*
D26*
X293929Y623113D02*
X314554Y643738D01*
X293929Y623113D02*
X271399Y623113D01*
X314554Y643738D02*
X335229Y643738D01*
X341173Y649681D01*
X347751Y649681D01*
D15*
X347751Y649681D03*
D26*
X359232Y649681D02*
X360121Y650570D01*
X359232Y649681D02*
X347751Y649681D01*
D25*
X352410Y517510D02*
X342236Y517510D01*
X352410Y517510D02*
X369570Y534670D01*
X369570Y647852D02*
X366065Y651358D01*
X366065Y656565D01*
X369570Y647852D02*
X369570Y534670D01*
X366065Y656565D02*
X363880Y658749D01*
X356997Y658749D01*
D27*
X271501Y631038D03*
D26*
X295961Y628879D02*
X314020Y646938D01*
X295961Y628879D02*
X273660Y628879D01*
X271501Y631038D01*
X334797Y646938D02*
X344043Y656184D01*
X348945Y656184D02*
X351333Y658571D01*
X334797Y646938D02*
X314020Y646938D01*
D15*
X348945Y656184D03*
D26*
X344043Y656184D01*
X356819Y658571D02*
X356997Y658749D01*
X356819Y658571D02*
X351333Y658571D01*
D25*
X364426Y658749D02*
X364603Y658927D01*
X364426Y658749D02*
X363880Y658749D01*
X352744Y512510D02*
X342236Y512510D01*
X352744Y512510D02*
X372821Y532587D01*
X372821Y652577D01*
X370129Y655269D01*
X367106Y667791D02*
X362509Y667791D01*
X367106Y667791D02*
X370129Y664769D01*
X370129Y655269D01*
D15*
X352019Y664540D03*
D26*
X355270Y667791D01*
X362509Y667791D01*
D24*
X357754Y497510D02*
X342236Y497510D01*
X357734Y497462D02*
X357754Y497510D01*
X357734Y497462D02*
X357734Y489558D01*
D15*
X213944Y380136D03*
D25*
X215595Y378485D01*
X215595Y365963D01*
X216814Y364744D01*
D15*
X216814Y364744D03*
X202149Y364762D03*
D25*
X203317Y365931D01*
X215628Y365931D01*
X216814Y364744D01*
D24*
X345138Y592378D02*
X344760Y592756D01*
X340348Y592756D01*
X335686Y597418D01*
X335686Y611378D01*
X345138Y611378D01*
X345312Y611553D01*
X345312Y623900D01*
D15*
X334213Y590118D03*
D24*
X345138Y590118D02*
X345138Y592378D01*
X345138Y590118D02*
X334213Y590118D01*
D27*
X170739Y641284D03*
X149555Y618084D03*
D26*
X169926Y640472D02*
X170739Y641284D01*
X169926Y640472D02*
X168336Y640472D01*
X149555Y621690D01*
X149555Y618084D01*
D15*
X182956Y605587D03*
D26*
X182855Y605587D01*
X167369Y590101D01*
X132948Y590101D01*
X130785Y587937D01*
X130785Y548154D02*
X131975Y546964D01*
X154436Y546964D01*
X130785Y548154D02*
X130785Y587937D01*
X154436Y546964D02*
X173511Y566039D01*
X187131Y563448D02*
X187131Y552094D01*
X187157Y552069D01*
D15*
X187157Y552069D03*
D26*
X187131Y563448D02*
X184540Y566039D01*
X173511Y566039D01*
D27*
X181577Y559824D03*
D26*
X181525Y548928D02*
X184353Y546100D01*
X181526Y559774D02*
X181577Y559824D01*
X181526Y559774D02*
X181525Y548928D01*
D27*
X184353Y546100D03*
X255499Y622910D03*
D26*
X254967Y622910D01*
X247867Y630010D01*
X258699Y640842D01*
D15*
X335432Y663626D03*
D26*
X310403Y654609D02*
X296636Y640842D01*
X310403Y654609D02*
X331470Y654609D01*
X296636Y640842D02*
X258699Y640842D01*
X335432Y658571D02*
X335432Y663626D01*
X335432Y658571D02*
X331470Y654609D01*
X324702Y664568D02*
X302755Y664568D01*
X302618Y664705D01*
X302618Y671132D01*
X305371Y673885D01*
X312115Y673885D01*
X312115Y680415D01*
X318440Y686740D01*
D15*
X263363Y630869D03*
D26*
X273699Y635660D02*
X276798Y632562D01*
X268154Y635660D02*
X263363Y630869D01*
X268154Y635660D02*
X273699Y635660D01*
X296052Y632562D02*
X312968Y649478D01*
X333745Y649478D01*
X346939Y662671D02*
X346939Y668706D01*
X344528Y671116D01*
X296052Y632562D02*
X276798Y632562D01*
X333745Y649478D02*
X346939Y662671D01*
X344528Y671116D02*
X331250Y671116D01*
X324702Y664568D01*
D15*
X230177Y392703D03*
D26*
X229013Y393868D01*
X154270Y393868D01*
D15*
X147803Y388722D03*
D26*
X149123Y388722D01*
X154270Y393868D01*
D15*
X256765Y406233D03*
D26*
X257807Y405191D02*
X316673Y405191D01*
X257807Y405191D02*
X256765Y406233D01*
X316673Y405191D02*
X318501Y403363D01*
D15*
X318501Y403363D03*
X226065Y369016D03*
X291115Y322281D03*
D26*
X226065Y369016D02*
X225379Y368330D01*
X225379Y362847D01*
X215109Y352577D01*
X208661Y352577D01*
X202997Y346913D01*
X202997Y338785D01*
X206375Y335407D01*
X255651Y327406D02*
X255651Y323190D01*
X257581Y321259D01*
X286013Y323885D02*
X291115Y323885D01*
X291115Y322281D01*
X247650Y335407D02*
X206375Y335407D01*
X247650Y335407D02*
X255651Y327406D01*
X257581Y321259D02*
X283388Y321259D01*
X286013Y323885D01*
D15*
X222435Y374592D03*
X252578Y318364D03*
D26*
X221435Y373592D02*
X222435Y374592D01*
X221435Y373592D02*
X221435Y362902D01*
X213828Y355295D01*
X207493Y355295D01*
X200355Y348158D01*
X200355Y337591D01*
X205130Y332816D01*
X243942Y332816D01*
X251257Y325501D01*
X251257Y319684D01*
X252578Y318364D01*
D25*
X307786Y465582D02*
X307786Y483060D01*
X307786Y465582D02*
X281971Y465582D01*
X269240Y451782D01*
X269240Y431518D01*
X249479Y411756D01*
X247955Y411756D01*
X234366Y411756D02*
X231626Y409016D01*
X234366Y411756D02*
X247955Y411756D01*
X302786Y468630D02*
X302786Y483060D01*
X302786Y468630D02*
X280670Y468630D01*
X247955Y427256D02*
X247825Y427126D01*
X236909Y427126D01*
X234623Y424840D01*
X256108Y444068D02*
X280670Y468630D01*
X256108Y444068D02*
X256108Y433632D01*
X249733Y427256D01*
X247955Y427256D01*
X292786Y476380D02*
X292786Y483060D01*
X292786Y476380D02*
X277190Y476380D01*
X257226Y456416D01*
X250444Y456416D01*
X247955Y453926D01*
X246809Y452780D01*
X234623Y452780D01*
X297786Y471932D02*
X297786Y483060D01*
X297786Y471932D02*
X278514Y471932D01*
X247955Y438556D02*
X247955Y438426D01*
X247955Y438556D02*
X234877Y438556D01*
X234623Y438810D01*
X252451Y445869D02*
X278514Y471932D01*
X252451Y445869D02*
X252451Y441652D01*
X249225Y438426D01*
X247955Y438426D01*
X271961Y497510D02*
X278336Y497510D01*
X271961Y497510D02*
X255651Y481200D01*
X255651Y474748D01*
X248437Y467535D01*
X247142Y467535D01*
X247120Y467512D01*
X235893Y467512D01*
X234623Y468782D01*
X246352Y482244D02*
X247142Y483035D01*
X246352Y482244D02*
X234623Y482244D01*
X278336Y502460D02*
X278336Y502460D01*
X278336Y502510D01*
X278336Y502460D02*
X271088Y502460D01*
X251663Y483035D01*
X247142Y483035D01*
X277930Y512917D02*
X278336Y512510D01*
X277930Y512917D02*
X253351Y512917D01*
X250241Y509806D01*
X247447Y509806D01*
X246561Y510692D01*
X236147Y510692D01*
X234877Y511962D01*
X247447Y494306D02*
X247193Y494052D01*
X238817Y494052D01*
X234877Y497992D01*
X278101Y507746D02*
X278336Y507510D01*
X278101Y507746D02*
X262156Y507746D01*
X248717Y494306D01*
X247447Y494306D01*
X277930Y517917D02*
X278336Y517510D01*
X277930Y517917D02*
X256986Y517917D01*
X249101Y525802D01*
X247701Y525802D01*
X247701Y526186D01*
X235385Y526186D01*
X277930Y522917D02*
X278336Y522510D01*
X277930Y522917D02*
X267864Y522917D01*
X249479Y541302D01*
X247701Y541302D01*
X247591Y541193D01*
X236167Y541193D01*
X235385Y540410D01*
X271986Y532510D02*
X278336Y532510D01*
X271986Y532510D02*
X269700Y534796D01*
X269700Y549021D01*
X250139Y568582D01*
X247625Y568582D01*
X245824Y570382D01*
X235182Y570382D01*
X278082Y527764D02*
X278336Y527510D01*
X278082Y527764D02*
X270885Y527764D01*
X247625Y553082D02*
X239082Y552970D01*
X235613Y556438D01*
X235105Y556438D01*
X264897Y533753D02*
X270885Y527764D01*
X264897Y535810D02*
X247625Y553082D01*
X264897Y535810D02*
X264897Y533753D01*
X292786Y546960D02*
X292786Y554072D01*
X291237Y555622D01*
X267665Y555622D01*
X255067Y568220D01*
X255067Y575078D02*
X250977Y579168D01*
X247650Y579168D01*
X255067Y575078D02*
X255067Y568220D01*
X247650Y579168D02*
X242093Y579168D01*
X236960Y584302D01*
X233378Y584302D01*
X297786Y554326D02*
X297786Y546960D01*
X297786Y554326D02*
X293437Y558676D01*
X274320Y558676D02*
X263398Y569598D01*
X263398Y583517D02*
X252247Y594668D01*
X247650Y594668D01*
X263398Y583517D02*
X263398Y569598D01*
X274320Y558676D02*
X293437Y558676D01*
X247650Y594668D02*
X242926Y594668D01*
X238763Y598830D01*
X233556Y598830D01*
X233378Y599008D01*
X307786Y554290D02*
X307786Y546960D01*
X307786Y554290D02*
X297180Y564896D01*
X277368Y564896D01*
X269494Y572770D01*
X269494Y593372D01*
X245694Y617172D01*
X245694Y621033D01*
X238179Y628548D01*
X233581Y628548D01*
X233251Y628218D01*
D24*
X302896Y547070D02*
X302786Y546960D01*
D25*
X302786Y554464D01*
X245694Y605533D02*
X237690Y613537D01*
X233353Y613537D01*
X295402Y561848D02*
X302786Y554464D01*
X295402Y561848D02*
X275590Y561848D01*
X266446Y570992D01*
X266446Y585673D01*
X255067Y597052D01*
X255067Y600250D02*
X249784Y605533D01*
X245694Y605533D01*
X255067Y600250D02*
X255067Y597052D01*
D15*
X248035Y312704D03*
D25*
X316713Y322382D02*
X316713Y332588D01*
D15*
X316713Y332588D03*
D25*
X253928Y311307D02*
X249432Y311307D01*
X248035Y312704D01*
X253928Y311307D02*
X260706Y318084D01*
X275925Y318084D02*
X285251Y308758D01*
X303089Y308758D01*
X275925Y318084D02*
X260706Y318084D01*
X303089Y308758D02*
X316713Y322382D01*
D15*
X183626Y450139D03*
D26*
X183601Y450164D01*
X163224Y450164D01*
X163173Y450215D01*
D15*
X163173Y450215D03*
X271526Y388112D03*
D25*
X282194Y388112D02*
X294996Y375310D01*
X282194Y388112D02*
X271526Y388112D01*
X294996Y375310D02*
X294996Y354406D01*
D15*
X294996Y354406D03*
X255438Y631041D03*
D26*
X262699Y638302D01*
X297688Y638302D01*
X311404Y652018D02*
X332693Y652018D01*
X343205Y662530D02*
X343205Y666979D01*
X341607Y668576D01*
X332378Y668576D02*
X325754Y661952D01*
X301321Y661952D01*
X300027Y663246D01*
X300027Y672565D01*
X304394Y676932D01*
X304394Y684708D02*
X302362Y686740D01*
X304394Y684708D02*
X304394Y676932D01*
X311404Y652018D02*
X297688Y638302D01*
X332693Y652018D02*
X343205Y662530D01*
X341607Y668576D02*
X332378Y668576D01*
D24*
X339100Y422746D02*
X343164Y422746D01*
X356768Y420092D02*
X367181Y420092D01*
X371246Y424157D01*
X371246Y503116D02*
X366852Y507510D01*
X342236Y507510D01*
X371246Y503116D02*
X371246Y424157D01*
X341755Y420092D02*
X339100Y422746D01*
X341755Y420092D02*
X356768Y420092D01*
D15*
X350495Y434693D03*
D24*
X350082Y434693D01*
X339100Y423712D02*
X339100Y422746D01*
X339100Y423712D02*
X350082Y434693D01*
X320038Y611378D02*
X309830Y611378D01*
X303225Y604774D02*
X303225Y597941D01*
X303225Y604774D02*
X309830Y611378D01*
M02*
