G04 EAGLE Gerber RS-274X export*
G75*
%MOMM*%
%FSLAX34Y34*%
%LPD*%
%IN*%
%IPPOS*%
%AMOC8*
5,1,8,0,0,1.08239X$1,22.5*%
G01*
%ADD10C,0.254000*%


D10*
X66040Y-278130D02*
X66088Y-279237D01*
X66233Y-280335D01*
X66473Y-281417D01*
X66806Y-282474D01*
X67230Y-283497D01*
X67741Y-284480D01*
X68337Y-285414D01*
X69011Y-286293D01*
X69760Y-287110D01*
X70577Y-287859D01*
X71456Y-288533D01*
X72390Y-289129D01*
X73373Y-289640D01*
X74396Y-290064D01*
X75453Y-290397D01*
X76535Y-290637D01*
X77633Y-290782D01*
X78740Y-290830D01*
X302260Y-290830D01*
X303314Y-290839D01*
X304365Y-290757D01*
X305404Y-290583D01*
X306425Y-290320D01*
X307418Y-289968D01*
X308378Y-289531D01*
X309295Y-289012D01*
X310164Y-288416D01*
X310977Y-287745D01*
X311729Y-287007D01*
X312414Y-286205D01*
X313026Y-285347D01*
X313561Y-284439D01*
X314015Y-283488D01*
X314385Y-282501D01*
X314666Y-281485D01*
X314859Y-280449D01*
X314960Y-279400D01*
X314960Y195580D01*
X314912Y196687D01*
X314767Y197785D01*
X314527Y198867D01*
X314194Y199924D01*
X313770Y200947D01*
X313259Y201930D01*
X312663Y202864D01*
X311989Y203743D01*
X311240Y204560D01*
X310423Y205309D01*
X309544Y205983D01*
X308610Y206579D01*
X307627Y207090D01*
X306604Y207514D01*
X305547Y207847D01*
X304465Y208087D01*
X303367Y208232D01*
X302260Y208280D01*
X78740Y208280D01*
X77633Y208232D01*
X76535Y208087D01*
X75453Y207847D01*
X74396Y207514D01*
X73373Y207090D01*
X72390Y206579D01*
X71456Y205983D01*
X70577Y205309D01*
X69760Y204560D01*
X69011Y203743D01*
X68337Y202864D01*
X67741Y201930D01*
X67230Y200947D01*
X66806Y199924D01*
X66473Y198867D01*
X66233Y197785D01*
X66088Y196687D01*
X66040Y195580D01*
X66040Y-278130D01*
X309506Y195720D02*
X309434Y194986D01*
X309290Y194263D01*
X309076Y193558D01*
X308794Y192877D01*
X308447Y192228D01*
X308037Y191615D01*
X307570Y191045D01*
X307049Y190524D01*
X306479Y190057D01*
X305866Y189647D01*
X305217Y189300D01*
X304536Y189018D01*
X303831Y188804D01*
X303108Y188660D01*
X302374Y188588D01*
X301638Y188588D01*
X300904Y188660D01*
X300181Y188804D01*
X299476Y189018D01*
X298795Y189300D01*
X298146Y189647D01*
X297533Y190057D01*
X296963Y190524D01*
X296442Y191045D01*
X295975Y191615D01*
X295565Y192228D01*
X295218Y192877D01*
X294936Y193558D01*
X294722Y194263D01*
X294578Y194986D01*
X294506Y195720D01*
X294506Y196456D01*
X294578Y197190D01*
X294722Y197913D01*
X294936Y198618D01*
X295218Y199299D01*
X295565Y199948D01*
X295975Y200561D01*
X296442Y201131D01*
X296963Y201652D01*
X297533Y202119D01*
X298146Y202529D01*
X298795Y202876D01*
X299476Y203158D01*
X300181Y203372D01*
X300904Y203516D01*
X301638Y203588D01*
X302374Y203588D01*
X303108Y203516D01*
X303831Y203372D01*
X304536Y203158D01*
X305217Y202876D01*
X305866Y202529D01*
X306479Y202119D01*
X307049Y201652D01*
X307570Y201131D01*
X308037Y200561D01*
X308447Y199948D01*
X308794Y199299D01*
X309076Y198618D01*
X309290Y197913D01*
X309434Y197190D01*
X309506Y196456D01*
X309506Y195720D01*
X85732Y196228D02*
X85660Y195494D01*
X85516Y194771D01*
X85302Y194066D01*
X85020Y193385D01*
X84673Y192736D01*
X84263Y192123D01*
X83796Y191553D01*
X83275Y191032D01*
X82705Y190565D01*
X82092Y190155D01*
X81443Y189808D01*
X80762Y189526D01*
X80057Y189312D01*
X79334Y189168D01*
X78600Y189096D01*
X77864Y189096D01*
X77130Y189168D01*
X76407Y189312D01*
X75702Y189526D01*
X75021Y189808D01*
X74372Y190155D01*
X73759Y190565D01*
X73189Y191032D01*
X72668Y191553D01*
X72201Y192123D01*
X71791Y192736D01*
X71444Y193385D01*
X71162Y194066D01*
X70948Y194771D01*
X70804Y195494D01*
X70732Y196228D01*
X70732Y196964D01*
X70804Y197698D01*
X70948Y198421D01*
X71162Y199126D01*
X71444Y199807D01*
X71791Y200456D01*
X72201Y201069D01*
X72668Y201639D01*
X73189Y202160D01*
X73759Y202627D01*
X74372Y203037D01*
X75021Y203384D01*
X75702Y203666D01*
X76407Y203880D01*
X77130Y204024D01*
X77864Y204096D01*
X78600Y204096D01*
X79334Y204024D01*
X80057Y203880D01*
X80762Y203666D01*
X81443Y203384D01*
X82092Y203037D01*
X82705Y202627D01*
X83275Y202160D01*
X83796Y201639D01*
X84263Y201069D01*
X84673Y200456D01*
X85020Y199807D01*
X85302Y199126D01*
X85516Y198421D01*
X85660Y197698D01*
X85732Y196964D01*
X85732Y196228D01*
X309252Y-277228D02*
X309180Y-277962D01*
X309036Y-278685D01*
X308822Y-279390D01*
X308540Y-280071D01*
X308193Y-280720D01*
X307783Y-281333D01*
X307316Y-281903D01*
X306795Y-282424D01*
X306225Y-282891D01*
X305612Y-283301D01*
X304963Y-283648D01*
X304282Y-283930D01*
X303577Y-284144D01*
X302854Y-284288D01*
X302120Y-284360D01*
X301384Y-284360D01*
X300650Y-284288D01*
X299927Y-284144D01*
X299222Y-283930D01*
X298541Y-283648D01*
X297892Y-283301D01*
X297279Y-282891D01*
X296709Y-282424D01*
X296188Y-281903D01*
X295721Y-281333D01*
X295311Y-280720D01*
X294964Y-280071D01*
X294682Y-279390D01*
X294468Y-278685D01*
X294324Y-277962D01*
X294252Y-277228D01*
X294252Y-276492D01*
X294324Y-275758D01*
X294468Y-275035D01*
X294682Y-274330D01*
X294964Y-273649D01*
X295311Y-273000D01*
X295721Y-272387D01*
X296188Y-271817D01*
X296709Y-271296D01*
X297279Y-270829D01*
X297892Y-270419D01*
X298541Y-270072D01*
X299222Y-269790D01*
X299927Y-269576D01*
X300650Y-269432D01*
X301384Y-269360D01*
X302120Y-269360D01*
X302854Y-269432D01*
X303577Y-269576D01*
X304282Y-269790D01*
X304963Y-270072D01*
X305612Y-270419D01*
X306225Y-270829D01*
X306795Y-271296D01*
X307316Y-271817D01*
X307783Y-272387D01*
X308193Y-273000D01*
X308540Y-273649D01*
X308822Y-274330D01*
X309036Y-275035D01*
X309180Y-275758D01*
X309252Y-276492D01*
X309252Y-277228D01*
X174886Y-276974D02*
X174814Y-277708D01*
X174670Y-278431D01*
X174456Y-279136D01*
X174174Y-279817D01*
X173827Y-280466D01*
X173417Y-281079D01*
X172950Y-281649D01*
X172429Y-282170D01*
X171859Y-282637D01*
X171246Y-283047D01*
X170597Y-283394D01*
X169916Y-283676D01*
X169211Y-283890D01*
X168488Y-284034D01*
X167754Y-284106D01*
X167018Y-284106D01*
X166284Y-284034D01*
X165561Y-283890D01*
X164856Y-283676D01*
X164175Y-283394D01*
X163526Y-283047D01*
X162913Y-282637D01*
X162343Y-282170D01*
X161822Y-281649D01*
X161355Y-281079D01*
X160945Y-280466D01*
X160598Y-279817D01*
X160316Y-279136D01*
X160102Y-278431D01*
X159958Y-277708D01*
X159886Y-276974D01*
X159886Y-276238D01*
X159958Y-275504D01*
X160102Y-274781D01*
X160316Y-274076D01*
X160598Y-273395D01*
X160945Y-272746D01*
X161355Y-272133D01*
X161822Y-271563D01*
X162343Y-271042D01*
X162913Y-270575D01*
X163526Y-270165D01*
X164175Y-269818D01*
X164856Y-269536D01*
X165561Y-269322D01*
X166284Y-269178D01*
X167018Y-269106D01*
X167754Y-269106D01*
X168488Y-269178D01*
X169211Y-269322D01*
X169916Y-269536D01*
X170597Y-269818D01*
X171246Y-270165D01*
X171859Y-270575D01*
X172429Y-271042D01*
X172950Y-271563D01*
X173417Y-272133D01*
X173827Y-272746D01*
X174174Y-273395D01*
X174456Y-274076D01*
X174670Y-274781D01*
X174814Y-275504D01*
X174886Y-276238D01*
X174886Y-276974D01*
X309252Y-201536D02*
X309180Y-202270D01*
X309036Y-202993D01*
X308822Y-203698D01*
X308540Y-204379D01*
X308193Y-205028D01*
X307783Y-205641D01*
X307316Y-206211D01*
X306795Y-206732D01*
X306225Y-207199D01*
X305612Y-207609D01*
X304963Y-207956D01*
X304282Y-208238D01*
X303577Y-208452D01*
X302854Y-208596D01*
X302120Y-208668D01*
X301384Y-208668D01*
X300650Y-208596D01*
X299927Y-208452D01*
X299222Y-208238D01*
X298541Y-207956D01*
X297892Y-207609D01*
X297279Y-207199D01*
X296709Y-206732D01*
X296188Y-206211D01*
X295721Y-205641D01*
X295311Y-205028D01*
X294964Y-204379D01*
X294682Y-203698D01*
X294468Y-202993D01*
X294324Y-202270D01*
X294252Y-201536D01*
X294252Y-200800D01*
X294324Y-200066D01*
X294468Y-199343D01*
X294682Y-198638D01*
X294964Y-197957D01*
X295311Y-197308D01*
X295721Y-196695D01*
X296188Y-196125D01*
X296709Y-195604D01*
X297279Y-195137D01*
X297892Y-194727D01*
X298541Y-194380D01*
X299222Y-194098D01*
X299927Y-193884D01*
X300650Y-193740D01*
X301384Y-193668D01*
X302120Y-193668D01*
X302854Y-193740D01*
X303577Y-193884D01*
X304282Y-194098D01*
X304963Y-194380D01*
X305612Y-194727D01*
X306225Y-195137D01*
X306795Y-195604D01*
X307316Y-196125D01*
X307783Y-196695D01*
X308193Y-197308D01*
X308540Y-197957D01*
X308822Y-198638D01*
X309036Y-199343D01*
X309180Y-200066D01*
X309252Y-200800D01*
X309252Y-201536D01*
X107991Y-111614D02*
X108576Y-111691D01*
X109146Y-111844D01*
X109691Y-112069D01*
X110201Y-112364D01*
X110669Y-112723D01*
X111087Y-113141D01*
X111446Y-113609D01*
X111741Y-114119D01*
X111966Y-114664D01*
X112119Y-115234D01*
X112196Y-115819D01*
X112196Y-116409D01*
X112119Y-116994D01*
X111966Y-117564D01*
X111741Y-118109D01*
X111446Y-118619D01*
X111087Y-119087D01*
X110669Y-119505D01*
X110201Y-119864D01*
X109691Y-120159D01*
X109146Y-120384D01*
X108576Y-120537D01*
X107991Y-120614D01*
X107401Y-120614D01*
X106816Y-120537D01*
X106246Y-120384D01*
X105701Y-120159D01*
X105191Y-119864D01*
X104723Y-119505D01*
X104305Y-119087D01*
X103946Y-118619D01*
X103651Y-118109D01*
X103426Y-117564D01*
X103273Y-116994D01*
X103196Y-116409D01*
X103196Y-115819D01*
X103273Y-115234D01*
X103426Y-114664D01*
X103651Y-114119D01*
X103946Y-113609D01*
X104305Y-113141D01*
X104723Y-112723D01*
X105191Y-112364D01*
X105701Y-112069D01*
X106246Y-111844D01*
X106816Y-111691D01*
X107401Y-111614D01*
X107991Y-111614D01*
X107991Y-179614D02*
X108576Y-179691D01*
X109146Y-179844D01*
X109691Y-180069D01*
X110201Y-180364D01*
X110669Y-180723D01*
X111087Y-181141D01*
X111446Y-181609D01*
X111741Y-182119D01*
X111966Y-182664D01*
X112119Y-183234D01*
X112196Y-183819D01*
X112196Y-184409D01*
X112119Y-184994D01*
X111966Y-185564D01*
X111741Y-186109D01*
X111446Y-186619D01*
X111087Y-187087D01*
X110669Y-187505D01*
X110201Y-187864D01*
X109691Y-188159D01*
X109146Y-188384D01*
X108576Y-188537D01*
X107991Y-188614D01*
X107401Y-188614D01*
X106816Y-188537D01*
X106246Y-188384D01*
X105701Y-188159D01*
X105191Y-187864D01*
X104723Y-187505D01*
X104305Y-187087D01*
X103946Y-186619D01*
X103651Y-186109D01*
X103426Y-185564D01*
X103273Y-184994D01*
X103196Y-184409D01*
X103196Y-183819D01*
X103273Y-183234D01*
X103426Y-182664D01*
X103651Y-182119D01*
X103946Y-181609D01*
X104305Y-181141D01*
X104723Y-180723D01*
X105191Y-180364D01*
X105701Y-180069D01*
X106246Y-179844D01*
X106816Y-179691D01*
X107401Y-179614D01*
X107991Y-179614D01*
M02*
