G04 EAGLE Gerber RS-274X export*
G75*
%MOMM*%
%FSLAX34Y34*%
%LPD*%
%IN*%
%IPPOS*%
%AMOC8*
5,1,8,0,0,1.08239X$1,22.5*%
G01*
%ADD10C,0.254000*%


D10*
X126619Y331546D02*
X126725Y329111D01*
X127044Y326695D01*
X127571Y324315D01*
X128304Y321990D01*
X129237Y319738D01*
X130362Y317576D01*
X131672Y315521D01*
X133156Y313587D01*
X134803Y311790D01*
X136600Y310143D01*
X138533Y308659D01*
X140589Y307349D01*
X142751Y306224D01*
X145003Y305291D01*
X147328Y304558D01*
X149707Y304031D01*
X152124Y303713D01*
X154559Y303606D01*
X350901Y303581D01*
X353452Y303581D01*
X355993Y303804D01*
X358504Y304247D01*
X360968Y304908D01*
X363365Y305781D01*
X365676Y306859D01*
X367885Y308135D01*
X369974Y309598D01*
X371928Y311238D01*
X373731Y313042D01*
X375370Y314996D01*
X376833Y317086D01*
X378108Y319295D01*
X379185Y321607D01*
X380057Y324004D01*
X380717Y326468D01*
X381159Y328980D01*
X381381Y331521D01*
X381508Y680720D01*
X381329Y682797D01*
X380969Y684851D01*
X380432Y686865D01*
X379721Y688825D01*
X378842Y690715D01*
X377801Y692522D01*
X376607Y694231D01*
X375269Y695830D01*
X373796Y697305D01*
X372201Y698647D01*
X370494Y699845D01*
X368690Y700889D01*
X366802Y701772D01*
X364843Y702488D01*
X362830Y703029D01*
X360777Y703394D01*
X358701Y703578D01*
X356616Y703580D01*
X149606Y703605D01*
X147667Y703576D01*
X145737Y703378D01*
X143832Y703012D01*
X141966Y702482D01*
X140154Y701791D01*
X138408Y700945D01*
X136743Y699950D01*
X135171Y698814D01*
X133705Y697545D01*
X132354Y696153D01*
X131130Y694648D01*
X130041Y693043D01*
X129097Y691349D01*
X128304Y689579D01*
X127668Y687746D01*
X127194Y685865D01*
X126886Y683950D01*
X126746Y682015D01*
X126619Y331546D01*
X155186Y687141D02*
X155110Y686272D01*
X154959Y685412D01*
X154733Y684568D01*
X154434Y683748D01*
X154065Y682956D01*
X153628Y682200D01*
X153127Y681485D01*
X152566Y680816D01*
X151949Y680198D01*
X151280Y679637D01*
X150565Y679136D01*
X149808Y678699D01*
X149017Y678330D01*
X148196Y678032D01*
X147353Y677806D01*
X146493Y677654D01*
X145623Y677578D01*
X144750Y677578D01*
X143880Y677654D01*
X143020Y677806D01*
X142176Y678032D01*
X141356Y678330D01*
X140565Y678699D01*
X139808Y679136D01*
X139093Y679637D01*
X138424Y680198D01*
X137807Y680816D01*
X137245Y681485D01*
X136744Y682200D01*
X136308Y682956D01*
X135939Y683748D01*
X135640Y684568D01*
X135414Y685412D01*
X135262Y686272D01*
X135186Y687141D01*
X135186Y688015D01*
X135262Y688885D01*
X135414Y689744D01*
X135640Y690588D01*
X135939Y691408D01*
X136308Y692200D01*
X136744Y692956D01*
X137245Y693671D01*
X137807Y694340D01*
X138424Y694958D01*
X139093Y695519D01*
X139808Y696020D01*
X140565Y696457D01*
X141356Y696826D01*
X142176Y697124D01*
X143020Y697350D01*
X143880Y697502D01*
X144750Y697578D01*
X145623Y697578D01*
X146493Y697502D01*
X147353Y697350D01*
X148196Y697124D01*
X149017Y696826D01*
X149808Y696457D01*
X150565Y696020D01*
X151280Y695519D01*
X151949Y694958D01*
X152566Y694340D01*
X153127Y693671D01*
X153628Y692956D01*
X154065Y692200D01*
X154434Y691408D01*
X154733Y690588D01*
X154959Y689744D01*
X155110Y688885D01*
X155186Y688015D01*
X155186Y687141D01*
X372229Y687319D02*
X372153Y686449D01*
X372002Y685589D01*
X371776Y684746D01*
X371477Y683925D01*
X371108Y683134D01*
X370671Y682378D01*
X370171Y681662D01*
X369609Y680993D01*
X368992Y680376D01*
X368323Y679815D01*
X367608Y679314D01*
X366851Y678877D01*
X366060Y678508D01*
X365239Y678210D01*
X364396Y677984D01*
X363536Y677832D01*
X362666Y677756D01*
X361793Y677756D01*
X360923Y677832D01*
X360063Y677984D01*
X359219Y678210D01*
X358399Y678508D01*
X357608Y678877D01*
X356851Y679314D01*
X356136Y679815D01*
X355467Y680376D01*
X354850Y680993D01*
X354288Y681662D01*
X353787Y682378D01*
X353351Y683134D01*
X352982Y683925D01*
X352683Y684746D01*
X352457Y685589D01*
X352306Y686449D01*
X352229Y687319D01*
X352229Y688192D01*
X352306Y689062D01*
X352457Y689922D01*
X352683Y690766D01*
X352982Y691586D01*
X353351Y692378D01*
X353787Y693134D01*
X354288Y693849D01*
X354850Y694518D01*
X355467Y695136D01*
X356136Y695697D01*
X356851Y696198D01*
X357608Y696634D01*
X358399Y697003D01*
X359219Y697302D01*
X360063Y697528D01*
X360923Y697680D01*
X361793Y697756D01*
X362666Y697756D01*
X363536Y697680D01*
X364396Y697528D01*
X365239Y697302D01*
X366060Y697003D01*
X366851Y696634D01*
X367608Y696198D01*
X368323Y695697D01*
X368992Y695136D01*
X369609Y694518D01*
X370171Y693849D01*
X370671Y693134D01*
X371108Y692378D01*
X371477Y691586D01*
X371776Y690766D01*
X372002Y689922D01*
X372153Y689062D01*
X372229Y688192D01*
X372229Y687319D01*
X154856Y321762D02*
X154780Y320893D01*
X154628Y320033D01*
X154402Y319189D01*
X154104Y318369D01*
X153735Y317577D01*
X153298Y316821D01*
X152797Y316106D01*
X152236Y315437D01*
X151619Y314819D01*
X150950Y314258D01*
X150234Y313757D01*
X149478Y313320D01*
X148687Y312951D01*
X147866Y312653D01*
X147023Y312427D01*
X146163Y312275D01*
X145293Y312199D01*
X144420Y312199D01*
X143550Y312275D01*
X142690Y312427D01*
X141846Y312653D01*
X141026Y312951D01*
X140234Y313320D01*
X139478Y313757D01*
X138763Y314258D01*
X138094Y314819D01*
X137476Y315437D01*
X136915Y316106D01*
X136414Y316821D01*
X135978Y317577D01*
X135609Y318369D01*
X135310Y319189D01*
X135084Y320033D01*
X134932Y320893D01*
X134856Y321762D01*
X134856Y322636D01*
X134932Y323506D01*
X135084Y324365D01*
X135310Y325209D01*
X135609Y326029D01*
X135978Y326821D01*
X136414Y327577D01*
X136915Y328292D01*
X137476Y328961D01*
X138094Y329579D01*
X138763Y330140D01*
X139478Y330641D01*
X140234Y331078D01*
X141026Y331447D01*
X141846Y331745D01*
X142690Y331971D01*
X143550Y332123D01*
X144420Y332199D01*
X145293Y332199D01*
X146163Y332123D01*
X147023Y331971D01*
X147866Y331745D01*
X148687Y331447D01*
X149478Y331078D01*
X150234Y330641D01*
X150950Y330140D01*
X151619Y329579D01*
X152236Y328961D01*
X152797Y328292D01*
X153298Y327577D01*
X153735Y326821D01*
X154104Y326029D01*
X154402Y325209D01*
X154628Y324365D01*
X154780Y323506D01*
X154856Y322636D01*
X154856Y321762D01*
X372052Y321026D02*
X371976Y320156D01*
X371824Y319296D01*
X371598Y318452D01*
X371299Y317632D01*
X370930Y316841D01*
X370494Y316084D01*
X369993Y315369D01*
X369431Y314700D01*
X368814Y314083D01*
X368145Y313521D01*
X367430Y313020D01*
X366673Y312584D01*
X365882Y312215D01*
X365062Y311916D01*
X364218Y311690D01*
X363358Y311538D01*
X362488Y311462D01*
X361615Y311462D01*
X360745Y311538D01*
X359885Y311690D01*
X359042Y311916D01*
X358221Y312215D01*
X357430Y312584D01*
X356673Y313020D01*
X355958Y313521D01*
X355289Y314083D01*
X354672Y314700D01*
X354111Y315369D01*
X353610Y316084D01*
X353173Y316841D01*
X352804Y317632D01*
X352505Y318452D01*
X352279Y319296D01*
X352128Y320156D01*
X352052Y321026D01*
X352052Y321899D01*
X352128Y322769D01*
X352279Y323629D01*
X352505Y324472D01*
X352804Y325293D01*
X353173Y326084D01*
X353610Y326841D01*
X354111Y327556D01*
X354672Y328225D01*
X355289Y328842D01*
X355958Y329403D01*
X356673Y329904D01*
X357430Y330341D01*
X358221Y330710D01*
X359042Y331009D01*
X359885Y331235D01*
X360745Y331386D01*
X361615Y331462D01*
X362488Y331462D01*
X363358Y331386D01*
X364218Y331235D01*
X365062Y331009D01*
X365882Y330710D01*
X366673Y330341D01*
X367430Y329904D01*
X368145Y329403D01*
X368814Y328842D01*
X369431Y328225D01*
X369993Y327556D01*
X370494Y326841D01*
X370930Y326084D01*
X371299Y325293D01*
X371598Y324472D01*
X371824Y323629D01*
X371976Y322769D01*
X372052Y321899D01*
X372052Y321026D01*
X315538Y395208D02*
X315461Y394624D01*
X315308Y394054D01*
X315082Y393509D01*
X314787Y392998D01*
X314428Y392530D01*
X314011Y392113D01*
X313543Y391754D01*
X313032Y391459D01*
X312487Y391233D01*
X311918Y391080D01*
X311333Y391003D01*
X310743Y391003D01*
X310158Y391080D01*
X309588Y391233D01*
X309043Y391459D01*
X308532Y391754D01*
X308064Y392113D01*
X307647Y392530D01*
X307288Y392998D01*
X306993Y393509D01*
X306767Y394054D01*
X306615Y394624D01*
X306538Y395208D01*
X306538Y395798D01*
X306615Y396383D01*
X306767Y396953D01*
X306993Y397498D01*
X307288Y398009D01*
X307647Y398477D01*
X308064Y398894D01*
X308532Y399253D01*
X309043Y399548D01*
X309588Y399774D01*
X310158Y399926D01*
X310743Y400003D01*
X311333Y400003D01*
X311918Y399926D01*
X312487Y399774D01*
X313032Y399548D01*
X313543Y399253D01*
X314011Y398894D01*
X314428Y398477D01*
X314787Y398009D01*
X315082Y397498D01*
X315308Y396953D01*
X315461Y396383D01*
X315538Y395798D01*
X315538Y395208D01*
X247538Y395208D02*
X247461Y394624D01*
X247308Y394054D01*
X247082Y393509D01*
X246787Y392998D01*
X246428Y392530D01*
X246011Y392113D01*
X245543Y391754D01*
X245032Y391459D01*
X244487Y391233D01*
X243918Y391080D01*
X243333Y391003D01*
X242743Y391003D01*
X242158Y391080D01*
X241588Y391233D01*
X241043Y391459D01*
X240532Y391754D01*
X240064Y392113D01*
X239647Y392530D01*
X239288Y392998D01*
X238993Y393509D01*
X238767Y394054D01*
X238615Y394624D01*
X238538Y395208D01*
X238538Y395798D01*
X238615Y396383D01*
X238767Y396953D01*
X238993Y397498D01*
X239288Y398009D01*
X239647Y398477D01*
X240064Y398894D01*
X240532Y399253D01*
X241043Y399548D01*
X241588Y399774D01*
X242158Y399926D01*
X242743Y400003D01*
X243333Y400003D01*
X243918Y399926D01*
X244487Y399774D01*
X245032Y399548D01*
X245543Y399253D01*
X246011Y398894D01*
X246428Y398477D01*
X246787Y398009D01*
X247082Y397498D01*
X247308Y396953D01*
X247461Y396383D01*
X247538Y395798D01*
X247538Y395208D01*
M02*
