G04 EAGLE Gerber RS-274X export*
G75*
%MOMM*%
%FSLAX34Y34*%
%LPD*%
%INSilkscreen Top*%
%IPPOS*%
%AMOC8*
5,1,8,0,0,1.08239X$1,22.5*%
G01*
%ADD10C,0.050800*%
%ADD11C,0.127000*%
%ADD12C,0.200000*%
%ADD13C,0.076200*%
%ADD14C,0.140000*%
%ADD15C,0.025400*%
%ADD16C,0.350000*%
%ADD17C,0.100000*%
%ADD18C,0.203200*%
%ADD19C,0.152400*%
%ADD20C,0.101600*%
%ADD21R,0.600000X1.100000*%
%ADD22R,0.300000X0.150000*%
%ADD23R,0.300000X0.300000*%
%ADD24R,0.150000X0.300000*%


D10*
X105215Y-138938D02*
X105285Y-138936D01*
X105354Y-138930D01*
X105423Y-138920D01*
X105491Y-138907D01*
X105559Y-138889D01*
X105625Y-138868D01*
X105690Y-138843D01*
X105754Y-138815D01*
X105816Y-138783D01*
X105876Y-138748D01*
X105934Y-138709D01*
X105989Y-138667D01*
X106043Y-138622D01*
X106093Y-138574D01*
X106141Y-138524D01*
X106186Y-138470D01*
X106228Y-138415D01*
X106267Y-138357D01*
X106302Y-138297D01*
X106334Y-138235D01*
X106362Y-138171D01*
X106387Y-138106D01*
X106408Y-138040D01*
X106426Y-137972D01*
X106439Y-137904D01*
X106449Y-137835D01*
X106455Y-137766D01*
X106457Y-137696D01*
X105215Y-138938D02*
X105116Y-138936D01*
X105018Y-138931D01*
X104920Y-138921D01*
X104822Y-138908D01*
X104725Y-138892D01*
X104628Y-138872D01*
X104533Y-138848D01*
X104438Y-138820D01*
X104344Y-138789D01*
X104252Y-138755D01*
X104161Y-138717D01*
X104071Y-138676D01*
X103983Y-138631D01*
X103897Y-138583D01*
X103813Y-138532D01*
X103731Y-138478D01*
X103650Y-138420D01*
X103572Y-138360D01*
X103497Y-138297D01*
X103423Y-138231D01*
X103353Y-138162D01*
X103507Y-134592D02*
X103509Y-134522D01*
X103515Y-134453D01*
X103525Y-134384D01*
X103538Y-134316D01*
X103556Y-134248D01*
X103577Y-134182D01*
X103602Y-134117D01*
X103630Y-134053D01*
X103662Y-133991D01*
X103697Y-133931D01*
X103736Y-133873D01*
X103778Y-133818D01*
X103823Y-133764D01*
X103871Y-133714D01*
X103921Y-133666D01*
X103975Y-133621D01*
X104030Y-133579D01*
X104088Y-133540D01*
X104148Y-133505D01*
X104210Y-133473D01*
X104274Y-133445D01*
X104339Y-133420D01*
X104405Y-133399D01*
X104473Y-133381D01*
X104541Y-133368D01*
X104610Y-133358D01*
X104679Y-133352D01*
X104749Y-133350D01*
X104843Y-133352D01*
X104936Y-133358D01*
X105029Y-133367D01*
X105122Y-133380D01*
X105214Y-133397D01*
X105305Y-133417D01*
X105396Y-133442D01*
X105485Y-133469D01*
X105573Y-133501D01*
X105660Y-133536D01*
X105746Y-133574D01*
X105829Y-133616D01*
X105912Y-133661D01*
X105992Y-133709D01*
X106070Y-133761D01*
X106146Y-133816D01*
X104129Y-135678D02*
X104070Y-135642D01*
X104014Y-135602D01*
X103960Y-135559D01*
X103908Y-135514D01*
X103859Y-135465D01*
X103813Y-135414D01*
X103770Y-135361D01*
X103729Y-135305D01*
X103692Y-135247D01*
X103657Y-135187D01*
X103627Y-135126D01*
X103599Y-135063D01*
X103575Y-134998D01*
X103555Y-134932D01*
X103538Y-134865D01*
X103525Y-134798D01*
X103516Y-134730D01*
X103510Y-134661D01*
X103508Y-134592D01*
X105835Y-136610D02*
X105894Y-136646D01*
X105950Y-136686D01*
X106004Y-136729D01*
X106056Y-136774D01*
X106105Y-136823D01*
X106151Y-136874D01*
X106194Y-136927D01*
X106235Y-136983D01*
X106272Y-137041D01*
X106307Y-137101D01*
X106337Y-137162D01*
X106365Y-137225D01*
X106389Y-137290D01*
X106409Y-137356D01*
X106426Y-137423D01*
X106439Y-137490D01*
X106448Y-137558D01*
X106454Y-137627D01*
X106456Y-137696D01*
X105836Y-136610D02*
X104128Y-135678D01*
X108656Y-134592D02*
X110208Y-133350D01*
X110208Y-138938D01*
X108656Y-138938D02*
X111760Y-138938D01*
X73886Y-170744D02*
X71402Y-170744D01*
X71325Y-170742D01*
X71247Y-170736D01*
X71171Y-170727D01*
X71094Y-170713D01*
X71019Y-170696D01*
X70945Y-170675D01*
X70871Y-170650D01*
X70799Y-170622D01*
X70729Y-170590D01*
X70660Y-170555D01*
X70593Y-170516D01*
X70528Y-170474D01*
X70465Y-170429D01*
X70404Y-170381D01*
X70346Y-170330D01*
X70291Y-170276D01*
X70238Y-170219D01*
X70189Y-170160D01*
X70142Y-170098D01*
X70098Y-170034D01*
X70058Y-169968D01*
X70021Y-169900D01*
X69987Y-169830D01*
X69957Y-169759D01*
X69931Y-169686D01*
X69908Y-169612D01*
X69889Y-169537D01*
X69874Y-169462D01*
X69862Y-169385D01*
X69854Y-169308D01*
X69850Y-169231D01*
X69850Y-169153D01*
X69854Y-169076D01*
X69862Y-168999D01*
X69874Y-168922D01*
X69889Y-168847D01*
X69908Y-168772D01*
X69931Y-168698D01*
X69957Y-168625D01*
X69987Y-168554D01*
X70021Y-168484D01*
X70058Y-168416D01*
X70098Y-168350D01*
X70142Y-168286D01*
X70189Y-168224D01*
X70238Y-168165D01*
X70291Y-168108D01*
X70346Y-168054D01*
X70404Y-168003D01*
X70465Y-167955D01*
X70528Y-167910D01*
X70593Y-167868D01*
X70660Y-167829D01*
X70729Y-167794D01*
X70799Y-167762D01*
X70871Y-167734D01*
X70945Y-167709D01*
X71019Y-167688D01*
X71094Y-167671D01*
X71171Y-167657D01*
X71247Y-167648D01*
X71325Y-167642D01*
X71402Y-167640D01*
X71402Y-167639D02*
X73886Y-167639D01*
X73886Y-167640D02*
X73963Y-167642D01*
X74041Y-167648D01*
X74117Y-167657D01*
X74194Y-167671D01*
X74269Y-167688D01*
X74343Y-167709D01*
X74417Y-167734D01*
X74489Y-167762D01*
X74559Y-167794D01*
X74628Y-167829D01*
X74695Y-167868D01*
X74760Y-167910D01*
X74823Y-167955D01*
X74884Y-168003D01*
X74942Y-168054D01*
X74997Y-168108D01*
X75050Y-168165D01*
X75099Y-168224D01*
X75146Y-168286D01*
X75190Y-168350D01*
X75230Y-168416D01*
X75267Y-168484D01*
X75301Y-168554D01*
X75331Y-168625D01*
X75357Y-168698D01*
X75380Y-168772D01*
X75399Y-168847D01*
X75414Y-168922D01*
X75426Y-168999D01*
X75434Y-169076D01*
X75438Y-169153D01*
X75438Y-169231D01*
X75434Y-169308D01*
X75426Y-169385D01*
X75414Y-169462D01*
X75399Y-169537D01*
X75380Y-169612D01*
X75357Y-169686D01*
X75331Y-169759D01*
X75301Y-169830D01*
X75267Y-169900D01*
X75230Y-169968D01*
X75190Y-170034D01*
X75146Y-170098D01*
X75099Y-170160D01*
X75050Y-170219D01*
X74997Y-170276D01*
X74942Y-170330D01*
X74884Y-170381D01*
X74823Y-170429D01*
X74760Y-170474D01*
X74695Y-170516D01*
X74628Y-170555D01*
X74559Y-170590D01*
X74489Y-170622D01*
X74417Y-170650D01*
X74343Y-170675D01*
X74269Y-170696D01*
X74194Y-170713D01*
X74117Y-170727D01*
X74041Y-170736D01*
X73963Y-170742D01*
X73886Y-170744D01*
X75438Y-165064D02*
X69850Y-165064D01*
X69850Y-162580D01*
X72334Y-162580D02*
X72334Y-165064D01*
X69850Y-160309D02*
X75438Y-160309D01*
X69850Y-160309D02*
X69850Y-157825D01*
X72334Y-157825D02*
X72334Y-160309D01*
X71402Y-135266D02*
X73886Y-135266D01*
X71402Y-135265D02*
X71325Y-135263D01*
X71247Y-135257D01*
X71171Y-135248D01*
X71094Y-135234D01*
X71019Y-135217D01*
X70945Y-135196D01*
X70871Y-135171D01*
X70799Y-135143D01*
X70729Y-135111D01*
X70660Y-135076D01*
X70593Y-135037D01*
X70528Y-134995D01*
X70465Y-134950D01*
X70404Y-134902D01*
X70346Y-134851D01*
X70291Y-134797D01*
X70238Y-134740D01*
X70189Y-134681D01*
X70142Y-134619D01*
X70098Y-134555D01*
X70058Y-134489D01*
X70021Y-134421D01*
X69987Y-134351D01*
X69957Y-134280D01*
X69931Y-134207D01*
X69908Y-134133D01*
X69889Y-134058D01*
X69874Y-133983D01*
X69862Y-133906D01*
X69854Y-133829D01*
X69850Y-133752D01*
X69850Y-133674D01*
X69854Y-133597D01*
X69862Y-133520D01*
X69874Y-133443D01*
X69889Y-133368D01*
X69908Y-133293D01*
X69931Y-133219D01*
X69957Y-133146D01*
X69987Y-133075D01*
X70021Y-133005D01*
X70058Y-132937D01*
X70098Y-132871D01*
X70142Y-132807D01*
X70189Y-132745D01*
X70238Y-132686D01*
X70291Y-132629D01*
X70346Y-132575D01*
X70404Y-132524D01*
X70465Y-132476D01*
X70528Y-132431D01*
X70593Y-132389D01*
X70660Y-132350D01*
X70729Y-132315D01*
X70799Y-132283D01*
X70871Y-132255D01*
X70945Y-132230D01*
X71019Y-132209D01*
X71094Y-132192D01*
X71171Y-132178D01*
X71247Y-132169D01*
X71325Y-132163D01*
X71402Y-132161D01*
X73886Y-132161D01*
X73963Y-132163D01*
X74041Y-132169D01*
X74117Y-132178D01*
X74194Y-132192D01*
X74269Y-132209D01*
X74343Y-132230D01*
X74417Y-132255D01*
X74489Y-132283D01*
X74559Y-132315D01*
X74628Y-132350D01*
X74695Y-132389D01*
X74760Y-132431D01*
X74823Y-132476D01*
X74884Y-132524D01*
X74942Y-132575D01*
X74997Y-132629D01*
X75050Y-132686D01*
X75099Y-132745D01*
X75146Y-132807D01*
X75190Y-132871D01*
X75230Y-132937D01*
X75267Y-133005D01*
X75301Y-133075D01*
X75331Y-133146D01*
X75357Y-133219D01*
X75380Y-133293D01*
X75399Y-133368D01*
X75414Y-133443D01*
X75426Y-133520D01*
X75434Y-133597D01*
X75438Y-133674D01*
X75438Y-133752D01*
X75434Y-133829D01*
X75426Y-133906D01*
X75414Y-133983D01*
X75399Y-134058D01*
X75380Y-134133D01*
X75357Y-134207D01*
X75331Y-134280D01*
X75301Y-134351D01*
X75267Y-134421D01*
X75230Y-134489D01*
X75190Y-134555D01*
X75146Y-134619D01*
X75099Y-134681D01*
X75050Y-134740D01*
X74997Y-134797D01*
X74942Y-134851D01*
X74884Y-134902D01*
X74823Y-134950D01*
X74760Y-134995D01*
X74695Y-135037D01*
X74628Y-135076D01*
X74559Y-135111D01*
X74489Y-135143D01*
X74417Y-135171D01*
X74343Y-135196D01*
X74269Y-135217D01*
X74194Y-135234D01*
X74117Y-135248D01*
X74041Y-135257D01*
X73963Y-135263D01*
X73886Y-135265D01*
X75438Y-129596D02*
X69850Y-129596D01*
X75438Y-126492D01*
X69850Y-126492D01*
D11*
X120500Y118040D02*
X120500Y184140D01*
X260500Y184140D01*
X260500Y118040D01*
X120500Y28240D02*
X120500Y24140D01*
X260500Y24140D01*
X260500Y28240D01*
D12*
X106500Y112040D02*
X106502Y112103D01*
X106508Y112165D01*
X106518Y112227D01*
X106531Y112289D01*
X106549Y112349D01*
X106570Y112408D01*
X106595Y112466D01*
X106624Y112522D01*
X106656Y112576D01*
X106691Y112628D01*
X106729Y112677D01*
X106771Y112725D01*
X106815Y112769D01*
X106863Y112811D01*
X106912Y112849D01*
X106964Y112884D01*
X107018Y112916D01*
X107074Y112945D01*
X107132Y112970D01*
X107191Y112991D01*
X107251Y113009D01*
X107313Y113022D01*
X107375Y113032D01*
X107437Y113038D01*
X107500Y113040D01*
X107563Y113038D01*
X107625Y113032D01*
X107687Y113022D01*
X107749Y113009D01*
X107809Y112991D01*
X107868Y112970D01*
X107926Y112945D01*
X107982Y112916D01*
X108036Y112884D01*
X108088Y112849D01*
X108137Y112811D01*
X108185Y112769D01*
X108229Y112725D01*
X108271Y112677D01*
X108309Y112628D01*
X108344Y112576D01*
X108376Y112522D01*
X108405Y112466D01*
X108430Y112408D01*
X108451Y112349D01*
X108469Y112289D01*
X108482Y112227D01*
X108492Y112165D01*
X108498Y112103D01*
X108500Y112040D01*
X108498Y111977D01*
X108492Y111915D01*
X108482Y111853D01*
X108469Y111791D01*
X108451Y111731D01*
X108430Y111672D01*
X108405Y111614D01*
X108376Y111558D01*
X108344Y111504D01*
X108309Y111452D01*
X108271Y111403D01*
X108229Y111355D01*
X108185Y111311D01*
X108137Y111269D01*
X108088Y111231D01*
X108036Y111196D01*
X107982Y111164D01*
X107926Y111135D01*
X107868Y111110D01*
X107809Y111089D01*
X107749Y111071D01*
X107687Y111058D01*
X107625Y111048D01*
X107563Y111042D01*
X107500Y111040D01*
X107437Y111042D01*
X107375Y111048D01*
X107313Y111058D01*
X107251Y111071D01*
X107191Y111089D01*
X107132Y111110D01*
X107074Y111135D01*
X107018Y111164D01*
X106964Y111196D01*
X106912Y111231D01*
X106863Y111269D01*
X106815Y111311D01*
X106771Y111355D01*
X106729Y111403D01*
X106691Y111452D01*
X106656Y111504D01*
X106624Y111558D01*
X106595Y111614D01*
X106570Y111672D01*
X106549Y111731D01*
X106531Y111791D01*
X106518Y111853D01*
X106508Y111915D01*
X106502Y111977D01*
X106500Y112040D01*
D13*
X185143Y143254D02*
X185143Y150061D01*
X185143Y143254D02*
X185145Y143152D01*
X185151Y143051D01*
X185161Y142950D01*
X185174Y142849D01*
X185192Y142749D01*
X185214Y142650D01*
X185239Y142552D01*
X185268Y142455D01*
X185301Y142359D01*
X185337Y142264D01*
X185378Y142171D01*
X185421Y142079D01*
X185469Y141989D01*
X185520Y141901D01*
X185574Y141815D01*
X185631Y141732D01*
X185692Y141650D01*
X185755Y141571D01*
X185822Y141495D01*
X185892Y141421D01*
X185964Y141350D01*
X186040Y141282D01*
X186117Y141216D01*
X186198Y141154D01*
X186280Y141095D01*
X186365Y141039D01*
X186452Y140987D01*
X186541Y140938D01*
X186632Y140892D01*
X186724Y140850D01*
X186818Y140812D01*
X186913Y140777D01*
X187010Y140746D01*
X187108Y140719D01*
X187207Y140695D01*
X187306Y140676D01*
X187407Y140660D01*
X187508Y140648D01*
X187609Y140640D01*
X187710Y140636D01*
X187812Y140636D01*
X187913Y140640D01*
X188014Y140648D01*
X188115Y140660D01*
X188216Y140676D01*
X188315Y140695D01*
X188414Y140719D01*
X188512Y140746D01*
X188609Y140777D01*
X188704Y140812D01*
X188798Y140850D01*
X188890Y140892D01*
X188981Y140938D01*
X189070Y140987D01*
X189157Y141039D01*
X189242Y141095D01*
X189324Y141154D01*
X189405Y141216D01*
X189482Y141282D01*
X189558Y141350D01*
X189630Y141421D01*
X189700Y141495D01*
X189767Y141571D01*
X189830Y141650D01*
X189891Y141732D01*
X189948Y141815D01*
X190002Y141901D01*
X190053Y141989D01*
X190101Y142079D01*
X190144Y142171D01*
X190185Y142264D01*
X190221Y142359D01*
X190254Y142455D01*
X190283Y142552D01*
X190308Y142650D01*
X190330Y142749D01*
X190348Y142849D01*
X190361Y142950D01*
X190371Y143051D01*
X190377Y143152D01*
X190379Y143254D01*
X190379Y150061D01*
X197497Y150061D02*
X197592Y150059D01*
X197687Y150053D01*
X197781Y150044D01*
X197875Y150030D01*
X197968Y150013D01*
X198061Y149993D01*
X198153Y149968D01*
X198243Y149940D01*
X198332Y149908D01*
X198421Y149872D01*
X198507Y149834D01*
X198592Y149791D01*
X198675Y149745D01*
X198756Y149696D01*
X198835Y149644D01*
X198912Y149588D01*
X198987Y149530D01*
X199059Y149468D01*
X199129Y149404D01*
X199196Y149337D01*
X199261Y149267D01*
X199322Y149195D01*
X199381Y149120D01*
X199436Y149043D01*
X199488Y148964D01*
X199537Y148883D01*
X199583Y148800D01*
X199626Y148715D01*
X199664Y148628D01*
X199700Y148540D01*
X199732Y148451D01*
X199760Y148360D01*
X199785Y148269D01*
X199805Y148176D01*
X199822Y148083D01*
X199836Y147989D01*
X199845Y147895D01*
X199851Y147800D01*
X199853Y147705D01*
X197497Y150061D02*
X197388Y150059D01*
X197280Y150053D01*
X197171Y150043D01*
X197064Y150030D01*
X196956Y150012D01*
X196850Y149991D01*
X196744Y149966D01*
X196639Y149937D01*
X196535Y149904D01*
X196433Y149868D01*
X196332Y149828D01*
X196232Y149784D01*
X196134Y149737D01*
X196038Y149686D01*
X195943Y149632D01*
X195851Y149574D01*
X195761Y149514D01*
X195673Y149450D01*
X195587Y149383D01*
X195504Y149312D01*
X195424Y149239D01*
X195346Y149163D01*
X195271Y149085D01*
X195198Y149003D01*
X195129Y148920D01*
X195063Y148833D01*
X195000Y148745D01*
X194940Y148654D01*
X194883Y148561D01*
X194830Y148466D01*
X194780Y148369D01*
X194734Y148271D01*
X194692Y148171D01*
X194653Y148069D01*
X194617Y147967D01*
X199069Y145872D02*
X199138Y145941D01*
X199205Y146012D01*
X199268Y146086D01*
X199329Y146162D01*
X199387Y146241D01*
X199442Y146321D01*
X199494Y146404D01*
X199543Y146489D01*
X199588Y146575D01*
X199630Y146663D01*
X199668Y146753D01*
X199703Y146844D01*
X199735Y146937D01*
X199762Y147030D01*
X199787Y147125D01*
X199807Y147220D01*
X199824Y147316D01*
X199837Y147413D01*
X199846Y147510D01*
X199852Y147607D01*
X199854Y147705D01*
X199068Y145872D02*
X194617Y140636D01*
X199854Y140636D01*
X172906Y122533D02*
X170286Y122533D01*
X172906Y122532D02*
X173008Y122530D01*
X173109Y122524D01*
X173210Y122514D01*
X173311Y122501D01*
X173411Y122483D01*
X173510Y122461D01*
X173608Y122436D01*
X173706Y122407D01*
X173802Y122374D01*
X173897Y122337D01*
X173990Y122297D01*
X174081Y122253D01*
X174171Y122206D01*
X174259Y122155D01*
X174345Y122101D01*
X174429Y122044D01*
X174510Y121983D01*
X174589Y121919D01*
X174666Y121852D01*
X174740Y121783D01*
X174811Y121710D01*
X174879Y121635D01*
X174945Y121557D01*
X175007Y121477D01*
X175066Y121394D01*
X175122Y121309D01*
X175174Y121222D01*
X175223Y121134D01*
X175269Y121043D01*
X175311Y120950D01*
X175349Y120856D01*
X175384Y120761D01*
X175415Y120664D01*
X175442Y120566D01*
X175466Y120467D01*
X175485Y120368D01*
X175501Y120267D01*
X175513Y120167D01*
X175521Y120065D01*
X175525Y119964D01*
X175525Y119862D01*
X175521Y119761D01*
X175513Y119659D01*
X175501Y119559D01*
X175485Y119458D01*
X175466Y119359D01*
X175442Y119260D01*
X175415Y119162D01*
X175384Y119065D01*
X175349Y118970D01*
X175311Y118876D01*
X175269Y118783D01*
X175223Y118692D01*
X175174Y118603D01*
X175122Y118517D01*
X175066Y118432D01*
X175007Y118349D01*
X174945Y118269D01*
X174879Y118191D01*
X174811Y118116D01*
X174740Y118043D01*
X174666Y117974D01*
X174589Y117907D01*
X174510Y117843D01*
X174429Y117782D01*
X174345Y117725D01*
X174259Y117671D01*
X174171Y117620D01*
X174081Y117573D01*
X173990Y117529D01*
X173897Y117489D01*
X173802Y117452D01*
X173706Y117419D01*
X173608Y117390D01*
X173510Y117365D01*
X173411Y117343D01*
X173311Y117325D01*
X173210Y117312D01*
X173109Y117302D01*
X173008Y117296D01*
X172906Y117294D01*
X170286Y117294D01*
X170286Y126724D01*
X172906Y126724D01*
X172996Y126722D01*
X173086Y126716D01*
X173176Y126707D01*
X173265Y126693D01*
X173354Y126676D01*
X173441Y126655D01*
X173528Y126630D01*
X173613Y126601D01*
X173698Y126569D01*
X173780Y126533D01*
X173862Y126493D01*
X173941Y126451D01*
X174018Y126404D01*
X174094Y126355D01*
X174167Y126302D01*
X174238Y126246D01*
X174306Y126188D01*
X174372Y126126D01*
X174435Y126061D01*
X174495Y125994D01*
X174553Y125925D01*
X174607Y125853D01*
X174658Y125778D01*
X174706Y125702D01*
X174751Y125623D01*
X174792Y125543D01*
X174829Y125461D01*
X174863Y125378D01*
X174894Y125293D01*
X174921Y125207D01*
X174944Y125119D01*
X174963Y125031D01*
X174978Y124943D01*
X174990Y124853D01*
X174998Y124763D01*
X175002Y124673D01*
X175002Y124583D01*
X174998Y124493D01*
X174990Y124403D01*
X174978Y124313D01*
X174963Y124225D01*
X174944Y124137D01*
X174921Y124049D01*
X174894Y123963D01*
X174863Y123878D01*
X174829Y123795D01*
X174792Y123713D01*
X174751Y123633D01*
X174706Y123554D01*
X174658Y123478D01*
X174607Y123403D01*
X174553Y123331D01*
X174495Y123262D01*
X174435Y123195D01*
X174372Y123130D01*
X174306Y123068D01*
X174238Y123010D01*
X174167Y122954D01*
X174094Y122901D01*
X174018Y122852D01*
X173941Y122805D01*
X173862Y122763D01*
X173780Y122723D01*
X173698Y122687D01*
X173613Y122655D01*
X173528Y122626D01*
X173441Y122601D01*
X173354Y122580D01*
X173265Y122563D01*
X173176Y122549D01*
X173086Y122540D01*
X172996Y122534D01*
X172906Y122532D01*
X181030Y126724D02*
X181030Y117294D01*
X183649Y126724D02*
X178410Y126724D01*
X186972Y119913D02*
X186974Y120015D01*
X186980Y120116D01*
X186990Y120217D01*
X187003Y120318D01*
X187021Y120418D01*
X187043Y120517D01*
X187068Y120615D01*
X187097Y120713D01*
X187130Y120809D01*
X187167Y120904D01*
X187207Y120997D01*
X187251Y121088D01*
X187298Y121178D01*
X187349Y121266D01*
X187403Y121352D01*
X187460Y121436D01*
X187521Y121517D01*
X187585Y121596D01*
X187652Y121673D01*
X187721Y121747D01*
X187794Y121818D01*
X187869Y121886D01*
X187947Y121952D01*
X188027Y122014D01*
X188110Y122073D01*
X188195Y122129D01*
X188282Y122181D01*
X188370Y122230D01*
X188461Y122276D01*
X188554Y122318D01*
X188648Y122356D01*
X188743Y122391D01*
X188840Y122422D01*
X188938Y122449D01*
X189037Y122473D01*
X189136Y122492D01*
X189237Y122508D01*
X189337Y122520D01*
X189439Y122528D01*
X189540Y122532D01*
X189642Y122532D01*
X189743Y122528D01*
X189845Y122520D01*
X189945Y122508D01*
X190046Y122492D01*
X190145Y122473D01*
X190244Y122449D01*
X190342Y122422D01*
X190439Y122391D01*
X190534Y122356D01*
X190628Y122318D01*
X190721Y122276D01*
X190812Y122230D01*
X190901Y122181D01*
X190987Y122129D01*
X191072Y122073D01*
X191155Y122014D01*
X191235Y121952D01*
X191313Y121886D01*
X191388Y121818D01*
X191461Y121747D01*
X191530Y121673D01*
X191597Y121596D01*
X191661Y121517D01*
X191722Y121436D01*
X191779Y121352D01*
X191833Y121266D01*
X191884Y121178D01*
X191931Y121088D01*
X191975Y120997D01*
X192015Y120904D01*
X192052Y120809D01*
X192085Y120713D01*
X192114Y120615D01*
X192139Y120517D01*
X192161Y120418D01*
X192179Y120318D01*
X192192Y120217D01*
X192202Y120116D01*
X192208Y120015D01*
X192210Y119913D01*
X192208Y119811D01*
X192202Y119710D01*
X192192Y119609D01*
X192179Y119508D01*
X192161Y119408D01*
X192139Y119309D01*
X192114Y119211D01*
X192085Y119113D01*
X192052Y119017D01*
X192015Y118922D01*
X191975Y118829D01*
X191931Y118738D01*
X191884Y118648D01*
X191833Y118560D01*
X191779Y118474D01*
X191722Y118390D01*
X191661Y118309D01*
X191597Y118230D01*
X191530Y118153D01*
X191461Y118079D01*
X191388Y118008D01*
X191313Y117940D01*
X191235Y117874D01*
X191155Y117812D01*
X191072Y117753D01*
X190987Y117697D01*
X190900Y117645D01*
X190812Y117596D01*
X190721Y117550D01*
X190628Y117508D01*
X190534Y117470D01*
X190439Y117435D01*
X190342Y117404D01*
X190244Y117377D01*
X190145Y117353D01*
X190046Y117334D01*
X189945Y117318D01*
X189845Y117306D01*
X189743Y117298D01*
X189642Y117294D01*
X189540Y117294D01*
X189439Y117298D01*
X189337Y117306D01*
X189237Y117318D01*
X189136Y117334D01*
X189037Y117353D01*
X188938Y117377D01*
X188840Y117404D01*
X188743Y117435D01*
X188648Y117470D01*
X188554Y117508D01*
X188461Y117550D01*
X188370Y117596D01*
X188282Y117645D01*
X188195Y117697D01*
X188110Y117753D01*
X188027Y117812D01*
X187947Y117874D01*
X187869Y117940D01*
X187794Y118008D01*
X187721Y118079D01*
X187652Y118153D01*
X187585Y118230D01*
X187521Y118309D01*
X187460Y118390D01*
X187403Y118474D01*
X187349Y118560D01*
X187298Y118648D01*
X187251Y118738D01*
X187207Y118829D01*
X187167Y118922D01*
X187130Y119017D01*
X187097Y119113D01*
X187068Y119211D01*
X187043Y119309D01*
X187021Y119408D01*
X187003Y119508D01*
X186990Y119609D01*
X186980Y119710D01*
X186974Y119811D01*
X186972Y119913D01*
X187495Y124628D02*
X187497Y124718D01*
X187503Y124808D01*
X187512Y124898D01*
X187526Y124987D01*
X187543Y125076D01*
X187564Y125163D01*
X187589Y125250D01*
X187618Y125335D01*
X187650Y125420D01*
X187686Y125502D01*
X187726Y125584D01*
X187768Y125663D01*
X187815Y125740D01*
X187864Y125816D01*
X187917Y125889D01*
X187973Y125960D01*
X188031Y126028D01*
X188093Y126094D01*
X188158Y126157D01*
X188225Y126217D01*
X188294Y126275D01*
X188366Y126329D01*
X188441Y126380D01*
X188517Y126428D01*
X188596Y126473D01*
X188676Y126514D01*
X188758Y126551D01*
X188841Y126585D01*
X188926Y126616D01*
X189012Y126643D01*
X189100Y126666D01*
X189188Y126685D01*
X189276Y126700D01*
X189366Y126712D01*
X189456Y126720D01*
X189546Y126724D01*
X189636Y126724D01*
X189726Y126720D01*
X189816Y126712D01*
X189906Y126700D01*
X189994Y126685D01*
X190082Y126666D01*
X190170Y126643D01*
X190256Y126616D01*
X190341Y126585D01*
X190424Y126551D01*
X190506Y126514D01*
X190586Y126473D01*
X190665Y126428D01*
X190741Y126380D01*
X190816Y126329D01*
X190888Y126275D01*
X190957Y126217D01*
X191024Y126157D01*
X191089Y126094D01*
X191151Y126028D01*
X191209Y125960D01*
X191265Y125889D01*
X191318Y125816D01*
X191367Y125740D01*
X191414Y125663D01*
X191456Y125584D01*
X191496Y125502D01*
X191532Y125420D01*
X191564Y125335D01*
X191593Y125250D01*
X191618Y125163D01*
X191639Y125076D01*
X191656Y124987D01*
X191670Y124898D01*
X191679Y124808D01*
X191685Y124718D01*
X191687Y124628D01*
X191685Y124538D01*
X191679Y124448D01*
X191670Y124358D01*
X191656Y124269D01*
X191639Y124180D01*
X191618Y124093D01*
X191593Y124006D01*
X191564Y123921D01*
X191532Y123836D01*
X191496Y123754D01*
X191456Y123672D01*
X191414Y123593D01*
X191367Y123516D01*
X191318Y123440D01*
X191265Y123367D01*
X191209Y123296D01*
X191151Y123228D01*
X191089Y123162D01*
X191024Y123099D01*
X190957Y123039D01*
X190888Y122981D01*
X190816Y122927D01*
X190741Y122876D01*
X190665Y122828D01*
X190586Y122783D01*
X190506Y122742D01*
X190424Y122705D01*
X190341Y122671D01*
X190256Y122640D01*
X190170Y122613D01*
X190082Y122590D01*
X189994Y122571D01*
X189906Y122556D01*
X189816Y122544D01*
X189726Y122536D01*
X189636Y122532D01*
X189546Y122532D01*
X189456Y122536D01*
X189366Y122544D01*
X189276Y122556D01*
X189188Y122571D01*
X189100Y122590D01*
X189012Y122613D01*
X188926Y122640D01*
X188841Y122671D01*
X188758Y122705D01*
X188676Y122742D01*
X188596Y122783D01*
X188517Y122828D01*
X188441Y122876D01*
X188366Y122927D01*
X188294Y122981D01*
X188225Y123039D01*
X188158Y123099D01*
X188093Y123162D01*
X188031Y123228D01*
X187973Y123296D01*
X187917Y123367D01*
X187864Y123440D01*
X187815Y123516D01*
X187768Y123593D01*
X187726Y123672D01*
X187686Y123754D01*
X187650Y123836D01*
X187618Y123921D01*
X187589Y124006D01*
X187564Y124093D01*
X187543Y124180D01*
X187526Y124269D01*
X187512Y124358D01*
X187503Y124448D01*
X187497Y124538D01*
X187495Y124628D01*
X196144Y117294D02*
X198764Y117294D01*
X198866Y117296D01*
X198967Y117302D01*
X199068Y117312D01*
X199169Y117325D01*
X199269Y117343D01*
X199368Y117365D01*
X199466Y117390D01*
X199564Y117419D01*
X199660Y117452D01*
X199755Y117489D01*
X199848Y117529D01*
X199939Y117573D01*
X200029Y117620D01*
X200117Y117671D01*
X200203Y117725D01*
X200287Y117782D01*
X200368Y117843D01*
X200447Y117907D01*
X200524Y117974D01*
X200598Y118043D01*
X200669Y118116D01*
X200737Y118191D01*
X200803Y118269D01*
X200865Y118349D01*
X200924Y118432D01*
X200980Y118517D01*
X201032Y118603D01*
X201081Y118692D01*
X201127Y118783D01*
X201169Y118876D01*
X201207Y118970D01*
X201242Y119065D01*
X201273Y119162D01*
X201300Y119260D01*
X201324Y119359D01*
X201343Y119458D01*
X201359Y119559D01*
X201371Y119659D01*
X201379Y119761D01*
X201383Y119862D01*
X201383Y119964D01*
X201379Y120065D01*
X201371Y120167D01*
X201359Y120267D01*
X201343Y120368D01*
X201324Y120467D01*
X201300Y120566D01*
X201273Y120664D01*
X201242Y120761D01*
X201207Y120856D01*
X201169Y120950D01*
X201127Y121043D01*
X201081Y121134D01*
X201032Y121222D01*
X200980Y121309D01*
X200924Y121394D01*
X200865Y121477D01*
X200803Y121557D01*
X200737Y121635D01*
X200669Y121710D01*
X200598Y121783D01*
X200524Y121852D01*
X200447Y121919D01*
X200368Y121983D01*
X200287Y122044D01*
X200203Y122101D01*
X200117Y122155D01*
X200029Y122206D01*
X199939Y122253D01*
X199848Y122297D01*
X199755Y122337D01*
X199660Y122374D01*
X199564Y122407D01*
X199466Y122436D01*
X199368Y122461D01*
X199269Y122483D01*
X199169Y122501D01*
X199068Y122514D01*
X198967Y122524D01*
X198866Y122530D01*
X198764Y122532D01*
X199288Y126724D02*
X196144Y126724D01*
X199288Y126724D02*
X199378Y126722D01*
X199468Y126716D01*
X199558Y126707D01*
X199647Y126693D01*
X199736Y126676D01*
X199823Y126655D01*
X199910Y126630D01*
X199995Y126601D01*
X200080Y126569D01*
X200162Y126533D01*
X200244Y126493D01*
X200323Y126451D01*
X200400Y126404D01*
X200476Y126355D01*
X200549Y126302D01*
X200620Y126246D01*
X200688Y126188D01*
X200754Y126126D01*
X200817Y126061D01*
X200877Y125994D01*
X200935Y125925D01*
X200989Y125853D01*
X201040Y125778D01*
X201088Y125702D01*
X201133Y125623D01*
X201174Y125543D01*
X201211Y125461D01*
X201245Y125378D01*
X201276Y125293D01*
X201303Y125207D01*
X201326Y125119D01*
X201345Y125031D01*
X201360Y124943D01*
X201372Y124853D01*
X201380Y124763D01*
X201384Y124673D01*
X201384Y124583D01*
X201380Y124493D01*
X201372Y124403D01*
X201360Y124313D01*
X201345Y124225D01*
X201326Y124137D01*
X201303Y124049D01*
X201276Y123963D01*
X201245Y123878D01*
X201211Y123795D01*
X201174Y123713D01*
X201133Y123633D01*
X201088Y123554D01*
X201040Y123478D01*
X200989Y123403D01*
X200935Y123331D01*
X200877Y123262D01*
X200817Y123195D01*
X200754Y123130D01*
X200688Y123068D01*
X200620Y123010D01*
X200549Y122954D01*
X200476Y122901D01*
X200400Y122852D01*
X200323Y122805D01*
X200244Y122763D01*
X200162Y122723D01*
X200080Y122687D01*
X199995Y122655D01*
X199910Y122626D01*
X199823Y122601D01*
X199736Y122580D01*
X199647Y122563D01*
X199558Y122549D01*
X199468Y122540D01*
X199378Y122534D01*
X199288Y122532D01*
X199288Y122533D02*
X197192Y122533D01*
X208198Y126724D02*
X208293Y126722D01*
X208388Y126716D01*
X208482Y126707D01*
X208576Y126693D01*
X208670Y126676D01*
X208762Y126655D01*
X208854Y126631D01*
X208945Y126603D01*
X209034Y126571D01*
X209122Y126535D01*
X209209Y126496D01*
X209294Y126454D01*
X209377Y126408D01*
X209458Y126359D01*
X209537Y126307D01*
X209615Y126251D01*
X209689Y126193D01*
X209762Y126131D01*
X209831Y126067D01*
X209899Y125999D01*
X209963Y125930D01*
X210025Y125857D01*
X210083Y125783D01*
X210139Y125705D01*
X210191Y125626D01*
X210240Y125545D01*
X210286Y125462D01*
X210328Y125377D01*
X210367Y125290D01*
X210403Y125202D01*
X210435Y125113D01*
X210463Y125022D01*
X210487Y124930D01*
X210508Y124838D01*
X210525Y124744D01*
X210539Y124650D01*
X210548Y124556D01*
X210554Y124461D01*
X210556Y124366D01*
X208198Y126724D02*
X208089Y126722D01*
X207981Y126716D01*
X207872Y126706D01*
X207764Y126693D01*
X207657Y126675D01*
X207550Y126654D01*
X207444Y126629D01*
X207339Y126600D01*
X207235Y126567D01*
X207133Y126531D01*
X207032Y126490D01*
X206932Y126447D01*
X206834Y126400D01*
X206738Y126349D01*
X206643Y126295D01*
X206551Y126237D01*
X206461Y126176D01*
X206373Y126112D01*
X206287Y126045D01*
X206204Y125975D01*
X206123Y125902D01*
X206045Y125826D01*
X205970Y125747D01*
X205898Y125666D01*
X205829Y125582D01*
X205762Y125496D01*
X205699Y125407D01*
X205639Y125316D01*
X205583Y125223D01*
X205529Y125128D01*
X205480Y125031D01*
X205433Y124933D01*
X205391Y124833D01*
X205352Y124731D01*
X205316Y124628D01*
X209770Y122532D02*
X209840Y122601D01*
X209906Y122672D01*
X209970Y122746D01*
X210031Y122823D01*
X210089Y122901D01*
X210144Y122982D01*
X210196Y123065D01*
X210244Y123149D01*
X210290Y123236D01*
X210332Y123324D01*
X210370Y123414D01*
X210405Y123505D01*
X210436Y123597D01*
X210464Y123691D01*
X210489Y123785D01*
X210509Y123881D01*
X210526Y123977D01*
X210539Y124074D01*
X210548Y124171D01*
X210554Y124268D01*
X210556Y124366D01*
X209770Y122533D02*
X205317Y117294D01*
X210556Y117294D01*
D14*
X236126Y-97188D02*
X236128Y-97136D01*
X236134Y-97084D01*
X236144Y-97032D01*
X236157Y-96982D01*
X236174Y-96932D01*
X236195Y-96884D01*
X236220Y-96838D01*
X236248Y-96794D01*
X236279Y-96752D01*
X236313Y-96712D01*
X236350Y-96675D01*
X236390Y-96641D01*
X236432Y-96610D01*
X236476Y-96582D01*
X236522Y-96557D01*
X236570Y-96536D01*
X236620Y-96519D01*
X236670Y-96506D01*
X236722Y-96496D01*
X236774Y-96490D01*
X236826Y-96488D01*
X236878Y-96490D01*
X236930Y-96496D01*
X236982Y-96506D01*
X237032Y-96519D01*
X237082Y-96536D01*
X237130Y-96557D01*
X237176Y-96582D01*
X237220Y-96610D01*
X237262Y-96641D01*
X237302Y-96675D01*
X237339Y-96712D01*
X237373Y-96752D01*
X237404Y-96794D01*
X237432Y-96838D01*
X237457Y-96884D01*
X237478Y-96932D01*
X237495Y-96982D01*
X237508Y-97032D01*
X237518Y-97084D01*
X237524Y-97136D01*
X237526Y-97188D01*
X237524Y-97240D01*
X237518Y-97292D01*
X237508Y-97344D01*
X237495Y-97394D01*
X237478Y-97444D01*
X237457Y-97492D01*
X237432Y-97538D01*
X237404Y-97582D01*
X237373Y-97624D01*
X237339Y-97664D01*
X237302Y-97701D01*
X237262Y-97735D01*
X237220Y-97766D01*
X237176Y-97794D01*
X237130Y-97819D01*
X237082Y-97840D01*
X237032Y-97857D01*
X236982Y-97870D01*
X236930Y-97880D01*
X236878Y-97886D01*
X236826Y-97888D01*
X236774Y-97886D01*
X236722Y-97880D01*
X236670Y-97870D01*
X236620Y-97857D01*
X236570Y-97840D01*
X236522Y-97819D01*
X236476Y-97794D01*
X236432Y-97766D01*
X236390Y-97735D01*
X236350Y-97701D01*
X236313Y-97664D01*
X236279Y-97624D01*
X236248Y-97582D01*
X236220Y-97538D01*
X236195Y-97492D01*
X236174Y-97444D01*
X236157Y-97394D01*
X236144Y-97344D01*
X236134Y-97292D01*
X236128Y-97240D01*
X236126Y-97188D01*
D11*
X250026Y-91888D02*
X267626Y-91888D01*
X267626Y-122488D02*
X250026Y-122488D01*
D10*
X256226Y-108392D02*
X256226Y-105090D01*
X256226Y-108392D02*
X256228Y-108462D01*
X256234Y-108532D01*
X256243Y-108601D01*
X256257Y-108670D01*
X256274Y-108738D01*
X256295Y-108804D01*
X256319Y-108870D01*
X256347Y-108934D01*
X256379Y-108996D01*
X256414Y-109057D01*
X256452Y-109116D01*
X256494Y-109172D01*
X256538Y-109226D01*
X256586Y-109278D01*
X256636Y-109326D01*
X256689Y-109372D01*
X256744Y-109415D01*
X256801Y-109455D01*
X256861Y-109492D01*
X256923Y-109525D01*
X256986Y-109555D01*
X257051Y-109581D01*
X257117Y-109604D01*
X257184Y-109623D01*
X257253Y-109638D01*
X257322Y-109650D01*
X257391Y-109658D01*
X257461Y-109662D01*
X257531Y-109662D01*
X257601Y-109658D01*
X257670Y-109650D01*
X257739Y-109638D01*
X257808Y-109623D01*
X257875Y-109604D01*
X257941Y-109581D01*
X258006Y-109555D01*
X258069Y-109525D01*
X258131Y-109492D01*
X258191Y-109455D01*
X258248Y-109415D01*
X258303Y-109372D01*
X258356Y-109326D01*
X258406Y-109278D01*
X258454Y-109226D01*
X258498Y-109172D01*
X258540Y-109116D01*
X258578Y-109057D01*
X258613Y-108996D01*
X258645Y-108934D01*
X258673Y-108870D01*
X258697Y-108804D01*
X258718Y-108738D01*
X258735Y-108670D01*
X258749Y-108601D01*
X258758Y-108532D01*
X258764Y-108462D01*
X258766Y-108392D01*
X258766Y-105090D01*
X260950Y-109662D02*
X262220Y-109662D01*
X262290Y-109660D01*
X262360Y-109654D01*
X262429Y-109645D01*
X262498Y-109631D01*
X262566Y-109614D01*
X262632Y-109593D01*
X262698Y-109569D01*
X262762Y-109541D01*
X262824Y-109509D01*
X262885Y-109474D01*
X262944Y-109436D01*
X263000Y-109394D01*
X263054Y-109350D01*
X263106Y-109302D01*
X263154Y-109252D01*
X263200Y-109199D01*
X263243Y-109144D01*
X263283Y-109087D01*
X263320Y-109027D01*
X263353Y-108965D01*
X263383Y-108902D01*
X263409Y-108837D01*
X263432Y-108771D01*
X263451Y-108704D01*
X263466Y-108635D01*
X263478Y-108566D01*
X263486Y-108497D01*
X263490Y-108427D01*
X263490Y-108357D01*
X263486Y-108287D01*
X263478Y-108218D01*
X263466Y-108149D01*
X263451Y-108080D01*
X263432Y-108013D01*
X263409Y-107947D01*
X263383Y-107882D01*
X263353Y-107819D01*
X263320Y-107757D01*
X263283Y-107697D01*
X263243Y-107640D01*
X263200Y-107585D01*
X263154Y-107532D01*
X263106Y-107482D01*
X263054Y-107434D01*
X263000Y-107390D01*
X262944Y-107348D01*
X262885Y-107310D01*
X262824Y-107275D01*
X262762Y-107243D01*
X262698Y-107215D01*
X262632Y-107191D01*
X262566Y-107170D01*
X262498Y-107153D01*
X262429Y-107139D01*
X262360Y-107130D01*
X262290Y-107124D01*
X262220Y-107122D01*
X262474Y-105090D02*
X260950Y-105090D01*
X262474Y-105090D02*
X262537Y-105092D01*
X262599Y-105098D01*
X262661Y-105107D01*
X262722Y-105121D01*
X262782Y-105138D01*
X262841Y-105159D01*
X262899Y-105183D01*
X262955Y-105211D01*
X263009Y-105242D01*
X263061Y-105277D01*
X263111Y-105314D01*
X263158Y-105355D01*
X263203Y-105399D01*
X263246Y-105445D01*
X263285Y-105494D01*
X263321Y-105545D01*
X263354Y-105598D01*
X263383Y-105653D01*
X263410Y-105710D01*
X263432Y-105768D01*
X263451Y-105828D01*
X263466Y-105889D01*
X263478Y-105950D01*
X263486Y-106012D01*
X263490Y-106075D01*
X263490Y-106137D01*
X263486Y-106200D01*
X263478Y-106262D01*
X263466Y-106323D01*
X263451Y-106384D01*
X263432Y-106444D01*
X263410Y-106502D01*
X263383Y-106559D01*
X263354Y-106614D01*
X263321Y-106667D01*
X263285Y-106718D01*
X263246Y-106767D01*
X263203Y-106813D01*
X263158Y-106857D01*
X263111Y-106898D01*
X263061Y-106935D01*
X263009Y-106970D01*
X262955Y-107001D01*
X262899Y-107029D01*
X262841Y-107053D01*
X262782Y-107074D01*
X262722Y-107091D01*
X262661Y-107105D01*
X262599Y-107114D01*
X262537Y-107120D01*
X262474Y-107122D01*
X261458Y-107122D01*
D15*
X236281Y-125949D02*
X233995Y-125949D01*
X236281Y-125949D02*
X236281Y-124933D01*
X236281Y-123935D02*
X233995Y-123935D01*
X233995Y-123300D01*
X233997Y-123251D01*
X234002Y-123203D01*
X234012Y-123155D01*
X234025Y-123108D01*
X234041Y-123063D01*
X234061Y-123018D01*
X234084Y-122976D01*
X234111Y-122935D01*
X234140Y-122896D01*
X234172Y-122860D01*
X234208Y-122826D01*
X234245Y-122795D01*
X234285Y-122767D01*
X234327Y-122742D01*
X234370Y-122721D01*
X234415Y-122702D01*
X234462Y-122688D01*
X234509Y-122677D01*
X234557Y-122669D01*
X234606Y-122665D01*
X234654Y-122665D01*
X234703Y-122669D01*
X234751Y-122677D01*
X234798Y-122688D01*
X234845Y-122702D01*
X234890Y-122721D01*
X234933Y-122742D01*
X234975Y-122767D01*
X235015Y-122795D01*
X235052Y-122826D01*
X235088Y-122860D01*
X235120Y-122896D01*
X235149Y-122935D01*
X235176Y-122976D01*
X235199Y-123018D01*
X235219Y-123063D01*
X235235Y-123108D01*
X235248Y-123155D01*
X235258Y-123203D01*
X235263Y-123251D01*
X235265Y-123300D01*
X235265Y-123935D01*
X236281Y-121763D02*
X236281Y-121001D01*
X236279Y-120957D01*
X236273Y-120913D01*
X236264Y-120870D01*
X236250Y-120827D01*
X236233Y-120786D01*
X236213Y-120747D01*
X236189Y-120710D01*
X236162Y-120674D01*
X236132Y-120642D01*
X236100Y-120612D01*
X236064Y-120585D01*
X236027Y-120561D01*
X235988Y-120541D01*
X235947Y-120524D01*
X235904Y-120510D01*
X235861Y-120501D01*
X235817Y-120495D01*
X235773Y-120493D01*
X235519Y-120493D01*
X235475Y-120495D01*
X235431Y-120501D01*
X235388Y-120510D01*
X235345Y-120524D01*
X235304Y-120541D01*
X235265Y-120561D01*
X235228Y-120585D01*
X235192Y-120612D01*
X235160Y-120642D01*
X235130Y-120674D01*
X235103Y-120710D01*
X235079Y-120747D01*
X235059Y-120786D01*
X235042Y-120827D01*
X235028Y-120870D01*
X235019Y-120913D01*
X235013Y-120957D01*
X235011Y-121001D01*
X235011Y-121763D01*
X233995Y-121763D01*
X233995Y-120493D01*
X235265Y-118969D02*
X235265Y-118207D01*
X235265Y-118969D02*
X235263Y-119013D01*
X235257Y-119057D01*
X235248Y-119100D01*
X235234Y-119143D01*
X235217Y-119184D01*
X235197Y-119223D01*
X235173Y-119260D01*
X235146Y-119296D01*
X235116Y-119328D01*
X235084Y-119358D01*
X235048Y-119385D01*
X235011Y-119409D01*
X234972Y-119429D01*
X234931Y-119446D01*
X234888Y-119460D01*
X234845Y-119469D01*
X234801Y-119475D01*
X234757Y-119477D01*
X234630Y-119477D01*
X234581Y-119475D01*
X234533Y-119470D01*
X234485Y-119460D01*
X234438Y-119447D01*
X234393Y-119431D01*
X234348Y-119411D01*
X234306Y-119388D01*
X234265Y-119361D01*
X234226Y-119332D01*
X234190Y-119300D01*
X234156Y-119264D01*
X234125Y-119227D01*
X234097Y-119187D01*
X234072Y-119145D01*
X234051Y-119102D01*
X234032Y-119057D01*
X234018Y-119010D01*
X234007Y-118963D01*
X233999Y-118915D01*
X233995Y-118866D01*
X233995Y-118818D01*
X233999Y-118769D01*
X234007Y-118721D01*
X234018Y-118674D01*
X234032Y-118627D01*
X234051Y-118582D01*
X234072Y-118539D01*
X234097Y-118497D01*
X234125Y-118457D01*
X234156Y-118420D01*
X234190Y-118384D01*
X234226Y-118352D01*
X234265Y-118323D01*
X234306Y-118296D01*
X234348Y-118273D01*
X234393Y-118253D01*
X234438Y-118237D01*
X234485Y-118224D01*
X234533Y-118214D01*
X234581Y-118209D01*
X234630Y-118207D01*
X235265Y-118207D01*
X235326Y-118209D01*
X235387Y-118214D01*
X235448Y-118224D01*
X235508Y-118237D01*
X235567Y-118253D01*
X235625Y-118273D01*
X235682Y-118297D01*
X235737Y-118323D01*
X235791Y-118354D01*
X235842Y-118387D01*
X235892Y-118423D01*
X235939Y-118463D01*
X235983Y-118505D01*
X236025Y-118549D01*
X236065Y-118596D01*
X236101Y-118646D01*
X236134Y-118697D01*
X236165Y-118751D01*
X236191Y-118806D01*
X236215Y-118863D01*
X236235Y-118921D01*
X236251Y-118980D01*
X236264Y-119040D01*
X236274Y-119101D01*
X236279Y-119162D01*
X236281Y-119223D01*
X235138Y-117191D02*
X235053Y-117189D01*
X234967Y-117183D01*
X234882Y-117174D01*
X234798Y-117160D01*
X234714Y-117143D01*
X234632Y-117122D01*
X234550Y-117097D01*
X234469Y-117068D01*
X234390Y-117036D01*
X234312Y-117000D01*
X234313Y-117001D02*
X234274Y-116985D01*
X234237Y-116967D01*
X234201Y-116945D01*
X234168Y-116920D01*
X234137Y-116892D01*
X234108Y-116862D01*
X234083Y-116829D01*
X234060Y-116794D01*
X234040Y-116757D01*
X234024Y-116719D01*
X234012Y-116679D01*
X234002Y-116639D01*
X233997Y-116598D01*
X233995Y-116556D01*
X233997Y-116514D01*
X234002Y-116473D01*
X234012Y-116433D01*
X234024Y-116393D01*
X234040Y-116355D01*
X234060Y-116318D01*
X234083Y-116283D01*
X234108Y-116250D01*
X234137Y-116220D01*
X234168Y-116192D01*
X234201Y-116167D01*
X234237Y-116145D01*
X234274Y-116127D01*
X234313Y-116111D01*
X234312Y-116112D02*
X234390Y-116076D01*
X234469Y-116044D01*
X234550Y-116015D01*
X234632Y-115990D01*
X234714Y-115969D01*
X234798Y-115952D01*
X234882Y-115938D01*
X234967Y-115929D01*
X235053Y-115923D01*
X235138Y-115921D01*
X235138Y-117191D02*
X235223Y-117189D01*
X235309Y-117183D01*
X235394Y-117174D01*
X235478Y-117160D01*
X235562Y-117143D01*
X235644Y-117122D01*
X235726Y-117097D01*
X235807Y-117068D01*
X235886Y-117036D01*
X235964Y-117000D01*
X235963Y-117001D02*
X236002Y-116985D01*
X236039Y-116967D01*
X236075Y-116945D01*
X236108Y-116920D01*
X236139Y-116892D01*
X236168Y-116862D01*
X236193Y-116829D01*
X236216Y-116794D01*
X236236Y-116757D01*
X236252Y-116719D01*
X236264Y-116679D01*
X236274Y-116639D01*
X236279Y-116598D01*
X236281Y-116556D01*
X235964Y-116112D02*
X235886Y-116076D01*
X235807Y-116044D01*
X235726Y-116015D01*
X235644Y-115990D01*
X235562Y-115969D01*
X235478Y-115952D01*
X235394Y-115938D01*
X235309Y-115929D01*
X235223Y-115923D01*
X235138Y-115921D01*
X235963Y-116111D02*
X236002Y-116127D01*
X236039Y-116145D01*
X236075Y-116167D01*
X236108Y-116192D01*
X236139Y-116220D01*
X236168Y-116250D01*
X236193Y-116283D01*
X236216Y-116318D01*
X236236Y-116355D01*
X236252Y-116393D01*
X236264Y-116433D01*
X236274Y-116473D01*
X236279Y-116514D01*
X236281Y-116556D01*
X235773Y-117064D02*
X234503Y-116048D01*
X234249Y-114905D02*
X233995Y-114905D01*
X233995Y-113635D01*
X236281Y-114270D01*
X236281Y-112518D02*
X233995Y-112518D01*
X235265Y-111756D01*
X233995Y-110994D01*
X236281Y-110994D01*
X236281Y-109795D02*
X233995Y-109795D01*
X233995Y-108779D01*
X235011Y-108779D02*
X235011Y-109795D01*
X236281Y-108022D02*
X233995Y-106498D01*
X233995Y-108022D02*
X236281Y-106498D01*
X235392Y-105584D02*
X235392Y-104060D01*
X236281Y-103018D02*
X236281Y-102383D01*
X236279Y-102334D01*
X236274Y-102286D01*
X236264Y-102238D01*
X236251Y-102191D01*
X236235Y-102146D01*
X236215Y-102101D01*
X236192Y-102059D01*
X236165Y-102018D01*
X236136Y-101979D01*
X236104Y-101943D01*
X236068Y-101909D01*
X236031Y-101878D01*
X235991Y-101850D01*
X235949Y-101825D01*
X235906Y-101804D01*
X235861Y-101785D01*
X235814Y-101771D01*
X235767Y-101760D01*
X235719Y-101752D01*
X235670Y-101748D01*
X235622Y-101748D01*
X235573Y-101752D01*
X235525Y-101760D01*
X235478Y-101771D01*
X235431Y-101785D01*
X235386Y-101804D01*
X235343Y-101825D01*
X235301Y-101850D01*
X235261Y-101878D01*
X235224Y-101909D01*
X235188Y-101943D01*
X235156Y-101979D01*
X235127Y-102018D01*
X235100Y-102059D01*
X235077Y-102101D01*
X235057Y-102146D01*
X235041Y-102191D01*
X235028Y-102238D01*
X235018Y-102286D01*
X235013Y-102334D01*
X235011Y-102383D01*
X233995Y-102256D02*
X233995Y-103018D01*
X233995Y-102256D02*
X233997Y-102212D01*
X234003Y-102168D01*
X234012Y-102125D01*
X234026Y-102082D01*
X234043Y-102041D01*
X234063Y-102002D01*
X234087Y-101965D01*
X234114Y-101929D01*
X234144Y-101897D01*
X234176Y-101867D01*
X234212Y-101840D01*
X234249Y-101816D01*
X234288Y-101796D01*
X234329Y-101779D01*
X234372Y-101765D01*
X234415Y-101756D01*
X234459Y-101750D01*
X234503Y-101748D01*
X234547Y-101750D01*
X234591Y-101756D01*
X234634Y-101765D01*
X234677Y-101779D01*
X234718Y-101796D01*
X234757Y-101816D01*
X234794Y-101840D01*
X234830Y-101867D01*
X234862Y-101897D01*
X234892Y-101929D01*
X234919Y-101965D01*
X234943Y-102002D01*
X234963Y-102041D01*
X234980Y-102082D01*
X234994Y-102125D01*
X235003Y-102168D01*
X235009Y-102212D01*
X235011Y-102256D01*
X235011Y-102764D01*
X236154Y-100846D02*
X236281Y-100846D01*
X236154Y-100846D02*
X236154Y-100719D01*
X236281Y-100719D01*
X236281Y-100846D01*
X236281Y-99818D02*
X236281Y-99183D01*
X236279Y-99134D01*
X236274Y-99086D01*
X236264Y-99038D01*
X236251Y-98991D01*
X236235Y-98946D01*
X236215Y-98901D01*
X236192Y-98859D01*
X236165Y-98818D01*
X236136Y-98779D01*
X236104Y-98743D01*
X236068Y-98709D01*
X236031Y-98678D01*
X235991Y-98650D01*
X235949Y-98625D01*
X235906Y-98604D01*
X235861Y-98585D01*
X235814Y-98571D01*
X235767Y-98560D01*
X235719Y-98552D01*
X235670Y-98548D01*
X235622Y-98548D01*
X235573Y-98552D01*
X235525Y-98560D01*
X235478Y-98571D01*
X235431Y-98585D01*
X235386Y-98604D01*
X235343Y-98625D01*
X235301Y-98650D01*
X235261Y-98678D01*
X235224Y-98709D01*
X235188Y-98743D01*
X235156Y-98779D01*
X235127Y-98818D01*
X235100Y-98859D01*
X235077Y-98901D01*
X235057Y-98946D01*
X235041Y-98991D01*
X235028Y-99038D01*
X235018Y-99086D01*
X235013Y-99134D01*
X235011Y-99183D01*
X233995Y-99056D02*
X233995Y-99818D01*
X233995Y-99056D02*
X233997Y-99012D01*
X234003Y-98968D01*
X234012Y-98925D01*
X234026Y-98882D01*
X234043Y-98841D01*
X234063Y-98802D01*
X234087Y-98765D01*
X234114Y-98729D01*
X234144Y-98697D01*
X234176Y-98667D01*
X234212Y-98640D01*
X234249Y-98616D01*
X234288Y-98596D01*
X234329Y-98579D01*
X234372Y-98565D01*
X234415Y-98556D01*
X234459Y-98550D01*
X234503Y-98548D01*
X234547Y-98550D01*
X234591Y-98556D01*
X234634Y-98565D01*
X234677Y-98579D01*
X234718Y-98596D01*
X234757Y-98616D01*
X234794Y-98640D01*
X234830Y-98667D01*
X234862Y-98697D01*
X234892Y-98729D01*
X234919Y-98765D01*
X234943Y-98802D01*
X234963Y-98841D01*
X234980Y-98882D01*
X234994Y-98925D01*
X235003Y-98968D01*
X235009Y-99012D01*
X235011Y-99056D01*
X235011Y-99564D01*
X236535Y-97633D02*
X233741Y-96617D01*
X233995Y-95627D02*
X236281Y-95627D01*
X236281Y-94357D02*
X233995Y-95627D01*
X233995Y-94357D02*
X236281Y-94357D01*
X235646Y-93265D02*
X234630Y-93265D01*
X234581Y-93263D01*
X234533Y-93258D01*
X234485Y-93248D01*
X234438Y-93235D01*
X234393Y-93219D01*
X234348Y-93199D01*
X234306Y-93176D01*
X234265Y-93149D01*
X234226Y-93120D01*
X234190Y-93088D01*
X234156Y-93052D01*
X234125Y-93015D01*
X234097Y-92975D01*
X234072Y-92933D01*
X234051Y-92890D01*
X234032Y-92845D01*
X234018Y-92798D01*
X234007Y-92751D01*
X233999Y-92703D01*
X233995Y-92654D01*
X233995Y-92606D01*
X233999Y-92557D01*
X234007Y-92509D01*
X234018Y-92462D01*
X234032Y-92415D01*
X234051Y-92370D01*
X234072Y-92327D01*
X234097Y-92285D01*
X234125Y-92245D01*
X234156Y-92208D01*
X234190Y-92172D01*
X234226Y-92140D01*
X234265Y-92111D01*
X234306Y-92084D01*
X234348Y-92061D01*
X234393Y-92041D01*
X234438Y-92025D01*
X234485Y-92012D01*
X234533Y-92002D01*
X234581Y-91997D01*
X234630Y-91995D01*
X235646Y-91995D01*
X235695Y-91997D01*
X235743Y-92002D01*
X235791Y-92012D01*
X235838Y-92025D01*
X235883Y-92041D01*
X235928Y-92061D01*
X235970Y-92084D01*
X236011Y-92111D01*
X236050Y-92140D01*
X236086Y-92172D01*
X236120Y-92208D01*
X236151Y-92245D01*
X236179Y-92285D01*
X236204Y-92327D01*
X236225Y-92370D01*
X236244Y-92415D01*
X236258Y-92462D01*
X236269Y-92509D01*
X236277Y-92557D01*
X236281Y-92606D01*
X236281Y-92654D01*
X236277Y-92703D01*
X236269Y-92751D01*
X236258Y-92798D01*
X236244Y-92845D01*
X236225Y-92890D01*
X236204Y-92933D01*
X236179Y-92975D01*
X236151Y-93015D01*
X236120Y-93052D01*
X236086Y-93088D01*
X236050Y-93120D01*
X236011Y-93149D01*
X235970Y-93176D01*
X235928Y-93199D01*
X235883Y-93219D01*
X235838Y-93235D01*
X235791Y-93248D01*
X235743Y-93258D01*
X235695Y-93263D01*
X235646Y-93265D01*
X236281Y-90864D02*
X233995Y-90864D01*
X233995Y-90229D01*
X233997Y-90180D01*
X234002Y-90132D01*
X234012Y-90084D01*
X234025Y-90037D01*
X234041Y-89992D01*
X234061Y-89947D01*
X234084Y-89905D01*
X234111Y-89864D01*
X234140Y-89825D01*
X234172Y-89789D01*
X234208Y-89755D01*
X234245Y-89724D01*
X234285Y-89696D01*
X234327Y-89671D01*
X234370Y-89650D01*
X234415Y-89631D01*
X234462Y-89617D01*
X234509Y-89606D01*
X234557Y-89598D01*
X234606Y-89594D01*
X234654Y-89594D01*
X234703Y-89598D01*
X234751Y-89606D01*
X234798Y-89617D01*
X234845Y-89631D01*
X234890Y-89650D01*
X234933Y-89671D01*
X234975Y-89696D01*
X235015Y-89724D01*
X235052Y-89755D01*
X235088Y-89789D01*
X235120Y-89825D01*
X235149Y-89864D01*
X235176Y-89905D01*
X235199Y-89947D01*
X235219Y-89992D01*
X235235Y-90037D01*
X235248Y-90084D01*
X235258Y-90132D01*
X235263Y-90180D01*
X235265Y-90229D01*
X235265Y-90864D01*
X235011Y-88578D02*
X235011Y-87943D01*
X235013Y-87894D01*
X235018Y-87846D01*
X235028Y-87798D01*
X235041Y-87751D01*
X235057Y-87706D01*
X235077Y-87661D01*
X235100Y-87619D01*
X235127Y-87578D01*
X235156Y-87539D01*
X235188Y-87503D01*
X235224Y-87469D01*
X235261Y-87438D01*
X235301Y-87410D01*
X235343Y-87385D01*
X235386Y-87364D01*
X235431Y-87345D01*
X235478Y-87331D01*
X235525Y-87320D01*
X235573Y-87312D01*
X235622Y-87308D01*
X235670Y-87308D01*
X235719Y-87312D01*
X235767Y-87320D01*
X235814Y-87331D01*
X235861Y-87345D01*
X235906Y-87364D01*
X235949Y-87385D01*
X235991Y-87410D01*
X236031Y-87438D01*
X236068Y-87469D01*
X236104Y-87503D01*
X236136Y-87539D01*
X236165Y-87578D01*
X236192Y-87619D01*
X236215Y-87661D01*
X236235Y-87706D01*
X236251Y-87751D01*
X236264Y-87798D01*
X236274Y-87846D01*
X236279Y-87894D01*
X236281Y-87943D01*
X236281Y-88578D01*
X233995Y-88578D01*
X233995Y-87943D01*
X233997Y-87899D01*
X234003Y-87855D01*
X234012Y-87812D01*
X234026Y-87769D01*
X234043Y-87728D01*
X234063Y-87689D01*
X234087Y-87652D01*
X234114Y-87616D01*
X234144Y-87584D01*
X234176Y-87554D01*
X234212Y-87527D01*
X234249Y-87503D01*
X234288Y-87483D01*
X234329Y-87466D01*
X234372Y-87452D01*
X234415Y-87443D01*
X234459Y-87437D01*
X234503Y-87435D01*
X234547Y-87437D01*
X234591Y-87443D01*
X234634Y-87452D01*
X234677Y-87466D01*
X234718Y-87483D01*
X234757Y-87503D01*
X234794Y-87527D01*
X234830Y-87554D01*
X234862Y-87584D01*
X234892Y-87616D01*
X234919Y-87652D01*
X234943Y-87689D01*
X234963Y-87728D01*
X234980Y-87769D01*
X234994Y-87812D01*
X235003Y-87855D01*
X235009Y-87899D01*
X235011Y-87943D01*
D16*
X246634Y7366D03*
D10*
X237580Y-3138D02*
X234532Y-7710D01*
X237580Y-7710D02*
X234532Y-3138D01*
X240755Y-3138D02*
X240821Y-3140D01*
X240888Y-3146D01*
X240953Y-3155D01*
X241019Y-3169D01*
X241083Y-3186D01*
X241146Y-3207D01*
X241208Y-3231D01*
X241268Y-3260D01*
X241327Y-3291D01*
X241383Y-3326D01*
X241438Y-3364D01*
X241490Y-3405D01*
X241539Y-3450D01*
X241586Y-3497D01*
X241631Y-3546D01*
X241672Y-3598D01*
X241710Y-3653D01*
X241745Y-3710D01*
X241776Y-3768D01*
X241805Y-3828D01*
X241829Y-3890D01*
X241850Y-3953D01*
X241867Y-4017D01*
X241881Y-4083D01*
X241890Y-4148D01*
X241896Y-4215D01*
X241898Y-4281D01*
X240755Y-3138D02*
X240681Y-3140D01*
X240608Y-3145D01*
X240534Y-3155D01*
X240462Y-3168D01*
X240390Y-3184D01*
X240319Y-3204D01*
X240249Y-3228D01*
X240180Y-3255D01*
X240113Y-3286D01*
X240047Y-3320D01*
X239984Y-3357D01*
X239922Y-3397D01*
X239862Y-3441D01*
X239805Y-3487D01*
X239749Y-3536D01*
X239697Y-3588D01*
X239647Y-3643D01*
X239600Y-3700D01*
X239556Y-3759D01*
X239515Y-3820D01*
X239477Y-3884D01*
X239442Y-3949D01*
X239411Y-4016D01*
X239383Y-4084D01*
X239358Y-4154D01*
X241517Y-5170D02*
X241564Y-5123D01*
X241608Y-5074D01*
X241649Y-5022D01*
X241688Y-4968D01*
X241723Y-4912D01*
X241756Y-4854D01*
X241785Y-4795D01*
X241811Y-4734D01*
X241834Y-4672D01*
X241854Y-4608D01*
X241869Y-4544D01*
X241882Y-4479D01*
X241891Y-4413D01*
X241896Y-4347D01*
X241898Y-4281D01*
X241517Y-5170D02*
X239358Y-7710D01*
X241898Y-7710D01*
X239736Y41628D02*
X235164Y44676D01*
X235164Y41628D02*
X239736Y44676D01*
X236180Y46454D02*
X235164Y47724D01*
X239736Y47724D01*
X239736Y46454D02*
X239736Y48994D01*
X219202Y-17272D02*
X218186Y-17272D01*
X218125Y-17270D01*
X218064Y-17265D01*
X218003Y-17255D01*
X217943Y-17242D01*
X217884Y-17226D01*
X217826Y-17206D01*
X217769Y-17182D01*
X217714Y-17156D01*
X217660Y-17125D01*
X217609Y-17092D01*
X217559Y-17056D01*
X217512Y-17016D01*
X217468Y-16974D01*
X217426Y-16930D01*
X217386Y-16883D01*
X217350Y-16833D01*
X217317Y-16782D01*
X217286Y-16728D01*
X217260Y-16673D01*
X217236Y-16616D01*
X217216Y-16558D01*
X217200Y-16499D01*
X217187Y-16439D01*
X217177Y-16378D01*
X217172Y-16317D01*
X217170Y-16256D01*
X217170Y-13716D01*
X217172Y-13655D01*
X217177Y-13594D01*
X217187Y-13533D01*
X217200Y-13473D01*
X217216Y-13414D01*
X217236Y-13356D01*
X217260Y-13299D01*
X217286Y-13244D01*
X217317Y-13190D01*
X217350Y-13139D01*
X217386Y-13089D01*
X217426Y-13042D01*
X217468Y-12998D01*
X217512Y-12956D01*
X217559Y-12916D01*
X217609Y-12880D01*
X217660Y-12847D01*
X217714Y-12816D01*
X217769Y-12790D01*
X217826Y-12766D01*
X217884Y-12746D01*
X217943Y-12730D01*
X218003Y-12717D01*
X218064Y-12707D01*
X218125Y-12702D01*
X218186Y-12700D01*
X219202Y-12700D01*
X220995Y-13716D02*
X222265Y-12700D01*
X222265Y-17272D01*
X220995Y-17272D02*
X223535Y-17272D01*
X210058Y-5842D02*
X209042Y-4572D01*
X213614Y-4572D01*
X213614Y-5842D02*
X213614Y-3302D01*
X210185Y1270D02*
X210119Y1268D01*
X210052Y1262D01*
X209987Y1253D01*
X209921Y1239D01*
X209857Y1222D01*
X209794Y1201D01*
X209732Y1177D01*
X209672Y1148D01*
X209614Y1117D01*
X209557Y1082D01*
X209502Y1044D01*
X209450Y1003D01*
X209401Y958D01*
X209354Y911D01*
X209309Y862D01*
X209268Y810D01*
X209230Y755D01*
X209195Y699D01*
X209164Y640D01*
X209135Y580D01*
X209111Y518D01*
X209090Y455D01*
X209073Y391D01*
X209059Y325D01*
X209050Y260D01*
X209044Y193D01*
X209042Y127D01*
X209044Y53D01*
X209049Y-20D01*
X209059Y-94D01*
X209072Y-166D01*
X209088Y-238D01*
X209108Y-309D01*
X209132Y-379D01*
X209159Y-448D01*
X209190Y-515D01*
X209224Y-581D01*
X209261Y-644D01*
X209301Y-706D01*
X209345Y-766D01*
X209391Y-823D01*
X209440Y-879D01*
X209492Y-931D01*
X209547Y-981D01*
X209604Y-1028D01*
X209663Y-1072D01*
X209724Y-1113D01*
X209788Y-1151D01*
X209853Y-1186D01*
X209920Y-1217D01*
X209988Y-1245D01*
X210058Y-1270D01*
X211074Y889D02*
X211027Y936D01*
X210978Y980D01*
X210926Y1021D01*
X210872Y1060D01*
X210816Y1095D01*
X210758Y1128D01*
X210699Y1157D01*
X210638Y1183D01*
X210576Y1206D01*
X210512Y1226D01*
X210448Y1241D01*
X210383Y1254D01*
X210317Y1263D01*
X210251Y1268D01*
X210185Y1270D01*
X211074Y889D02*
X213614Y-1270D01*
X213614Y1270D01*
X213614Y3073D02*
X213360Y3073D01*
X213360Y3327D01*
X213614Y3327D01*
X213614Y3073D01*
X213614Y5131D02*
X213614Y6655D01*
X213612Y6716D01*
X213607Y6777D01*
X213597Y6838D01*
X213584Y6898D01*
X213568Y6957D01*
X213548Y7015D01*
X213524Y7072D01*
X213498Y7127D01*
X213467Y7181D01*
X213434Y7232D01*
X213398Y7282D01*
X213358Y7329D01*
X213316Y7373D01*
X213272Y7415D01*
X213225Y7455D01*
X213175Y7491D01*
X213124Y7524D01*
X213070Y7555D01*
X213015Y7581D01*
X212958Y7605D01*
X212900Y7625D01*
X212841Y7641D01*
X212781Y7654D01*
X212720Y7664D01*
X212659Y7669D01*
X212598Y7671D01*
X212090Y7671D01*
X212029Y7669D01*
X211968Y7664D01*
X211907Y7654D01*
X211847Y7641D01*
X211788Y7625D01*
X211730Y7605D01*
X211673Y7581D01*
X211618Y7555D01*
X211564Y7524D01*
X211513Y7491D01*
X211463Y7455D01*
X211416Y7415D01*
X211372Y7373D01*
X211330Y7329D01*
X211290Y7282D01*
X211254Y7232D01*
X211221Y7181D01*
X211190Y7127D01*
X211164Y7072D01*
X211140Y7015D01*
X211120Y6957D01*
X211104Y6898D01*
X211091Y6838D01*
X211081Y6777D01*
X211076Y6716D01*
X211074Y6655D01*
X211074Y5131D01*
X209042Y5131D01*
X209042Y7671D01*
X210566Y9831D02*
X215138Y9831D01*
X210566Y9831D02*
X210566Y11101D01*
X210568Y11155D01*
X210574Y11209D01*
X210583Y11263D01*
X210597Y11316D01*
X210614Y11367D01*
X210635Y11418D01*
X210659Y11466D01*
X210687Y11513D01*
X210718Y11558D01*
X210752Y11600D01*
X210789Y11640D01*
X210829Y11677D01*
X210871Y11711D01*
X210916Y11742D01*
X210963Y11770D01*
X211011Y11794D01*
X211062Y11815D01*
X211113Y11832D01*
X211166Y11846D01*
X211220Y11855D01*
X211274Y11861D01*
X211328Y11863D01*
X212852Y11863D01*
X212906Y11861D01*
X212960Y11855D01*
X213014Y11846D01*
X213067Y11832D01*
X213118Y11815D01*
X213169Y11794D01*
X213217Y11770D01*
X213264Y11742D01*
X213309Y11711D01*
X213351Y11677D01*
X213391Y11640D01*
X213428Y11600D01*
X213462Y11558D01*
X213493Y11513D01*
X213521Y11466D01*
X213545Y11418D01*
X213566Y11367D01*
X213583Y11316D01*
X213597Y11263D01*
X213606Y11209D01*
X213612Y11155D01*
X213614Y11101D01*
X213614Y9831D01*
X213614Y13980D02*
X209042Y13980D01*
X209042Y16012D01*
X211074Y16012D02*
X211074Y13980D01*
X262890Y-17526D02*
X263906Y-17526D01*
X262890Y-17526D02*
X262829Y-17524D01*
X262768Y-17519D01*
X262707Y-17509D01*
X262647Y-17496D01*
X262588Y-17480D01*
X262530Y-17460D01*
X262473Y-17436D01*
X262418Y-17410D01*
X262364Y-17379D01*
X262313Y-17346D01*
X262263Y-17310D01*
X262216Y-17270D01*
X262172Y-17228D01*
X262130Y-17184D01*
X262090Y-17137D01*
X262054Y-17087D01*
X262021Y-17036D01*
X261990Y-16982D01*
X261964Y-16927D01*
X261940Y-16870D01*
X261920Y-16812D01*
X261904Y-16753D01*
X261891Y-16693D01*
X261881Y-16632D01*
X261876Y-16571D01*
X261874Y-16510D01*
X261874Y-13970D01*
X261876Y-13909D01*
X261881Y-13848D01*
X261891Y-13787D01*
X261904Y-13727D01*
X261920Y-13668D01*
X261940Y-13610D01*
X261964Y-13553D01*
X261990Y-13498D01*
X262021Y-13444D01*
X262054Y-13393D01*
X262090Y-13343D01*
X262130Y-13296D01*
X262172Y-13252D01*
X262216Y-13210D01*
X262263Y-13170D01*
X262313Y-13134D01*
X262364Y-13101D01*
X262418Y-13070D01*
X262473Y-13044D01*
X262530Y-13020D01*
X262588Y-13000D01*
X262647Y-12984D01*
X262707Y-12971D01*
X262768Y-12961D01*
X262829Y-12956D01*
X262890Y-12954D01*
X263906Y-12954D01*
X267096Y-12954D02*
X267162Y-12956D01*
X267229Y-12962D01*
X267294Y-12971D01*
X267360Y-12985D01*
X267424Y-13002D01*
X267487Y-13023D01*
X267549Y-13047D01*
X267609Y-13076D01*
X267668Y-13107D01*
X267724Y-13142D01*
X267779Y-13180D01*
X267831Y-13221D01*
X267880Y-13266D01*
X267927Y-13313D01*
X267972Y-13362D01*
X268013Y-13414D01*
X268051Y-13469D01*
X268086Y-13526D01*
X268117Y-13584D01*
X268146Y-13644D01*
X268170Y-13706D01*
X268191Y-13769D01*
X268208Y-13833D01*
X268222Y-13899D01*
X268231Y-13964D01*
X268237Y-14031D01*
X268239Y-14097D01*
X267096Y-12954D02*
X267022Y-12956D01*
X266949Y-12961D01*
X266875Y-12971D01*
X266803Y-12984D01*
X266731Y-13000D01*
X266660Y-13020D01*
X266590Y-13044D01*
X266521Y-13071D01*
X266454Y-13102D01*
X266388Y-13136D01*
X266325Y-13173D01*
X266263Y-13213D01*
X266203Y-13257D01*
X266146Y-13303D01*
X266090Y-13352D01*
X266038Y-13404D01*
X265988Y-13459D01*
X265941Y-13516D01*
X265897Y-13575D01*
X265856Y-13636D01*
X265818Y-13700D01*
X265783Y-13765D01*
X265752Y-13832D01*
X265724Y-13900D01*
X265699Y-13970D01*
X267858Y-14986D02*
X267905Y-14939D01*
X267949Y-14890D01*
X267990Y-14838D01*
X268029Y-14784D01*
X268064Y-14728D01*
X268097Y-14670D01*
X268126Y-14611D01*
X268152Y-14550D01*
X268175Y-14488D01*
X268195Y-14424D01*
X268210Y-14360D01*
X268223Y-14295D01*
X268232Y-14229D01*
X268237Y-14163D01*
X268239Y-14097D01*
X267858Y-14986D02*
X265699Y-17526D01*
X268239Y-17526D01*
X275082Y-6096D02*
X274066Y-4826D01*
X278638Y-4826D01*
X278638Y-6096D02*
X278638Y-3556D01*
X275209Y1016D02*
X275143Y1014D01*
X275076Y1008D01*
X275011Y999D01*
X274945Y985D01*
X274881Y968D01*
X274818Y947D01*
X274756Y923D01*
X274696Y894D01*
X274638Y863D01*
X274581Y828D01*
X274526Y790D01*
X274474Y749D01*
X274425Y704D01*
X274378Y657D01*
X274333Y608D01*
X274292Y556D01*
X274254Y501D01*
X274219Y445D01*
X274188Y386D01*
X274159Y326D01*
X274135Y264D01*
X274114Y201D01*
X274097Y137D01*
X274083Y71D01*
X274074Y6D01*
X274068Y-61D01*
X274066Y-127D01*
X274068Y-201D01*
X274073Y-274D01*
X274083Y-348D01*
X274096Y-420D01*
X274112Y-492D01*
X274132Y-563D01*
X274156Y-633D01*
X274183Y-702D01*
X274214Y-769D01*
X274248Y-835D01*
X274285Y-898D01*
X274325Y-960D01*
X274369Y-1020D01*
X274415Y-1077D01*
X274464Y-1133D01*
X274516Y-1185D01*
X274571Y-1235D01*
X274628Y-1282D01*
X274687Y-1326D01*
X274748Y-1367D01*
X274812Y-1405D01*
X274877Y-1440D01*
X274944Y-1471D01*
X275012Y-1499D01*
X275082Y-1524D01*
X276098Y635D02*
X276051Y682D01*
X276002Y726D01*
X275950Y767D01*
X275896Y806D01*
X275840Y841D01*
X275782Y874D01*
X275723Y903D01*
X275662Y929D01*
X275600Y952D01*
X275536Y972D01*
X275472Y987D01*
X275407Y1000D01*
X275341Y1009D01*
X275275Y1014D01*
X275209Y1016D01*
X276098Y635D02*
X278638Y-1524D01*
X278638Y1016D01*
X278638Y2819D02*
X278384Y2819D01*
X278384Y3073D01*
X278638Y3073D01*
X278638Y2819D01*
X278638Y4877D02*
X278638Y6401D01*
X278636Y6462D01*
X278631Y6523D01*
X278621Y6584D01*
X278608Y6644D01*
X278592Y6703D01*
X278572Y6761D01*
X278548Y6818D01*
X278522Y6873D01*
X278491Y6927D01*
X278458Y6978D01*
X278422Y7028D01*
X278382Y7075D01*
X278340Y7119D01*
X278296Y7161D01*
X278249Y7201D01*
X278199Y7237D01*
X278148Y7270D01*
X278094Y7301D01*
X278039Y7327D01*
X277982Y7351D01*
X277924Y7371D01*
X277865Y7387D01*
X277805Y7400D01*
X277744Y7410D01*
X277683Y7415D01*
X277622Y7417D01*
X277114Y7417D01*
X277053Y7415D01*
X276992Y7410D01*
X276931Y7400D01*
X276871Y7387D01*
X276812Y7371D01*
X276754Y7351D01*
X276697Y7327D01*
X276642Y7301D01*
X276588Y7270D01*
X276537Y7237D01*
X276487Y7201D01*
X276440Y7161D01*
X276396Y7119D01*
X276354Y7075D01*
X276314Y7028D01*
X276278Y6978D01*
X276245Y6927D01*
X276214Y6873D01*
X276188Y6818D01*
X276164Y6761D01*
X276144Y6703D01*
X276128Y6644D01*
X276115Y6584D01*
X276105Y6523D01*
X276100Y6462D01*
X276098Y6401D01*
X276098Y4877D01*
X274066Y4877D01*
X274066Y7417D01*
X275590Y9577D02*
X280162Y9577D01*
X275590Y9577D02*
X275590Y10847D01*
X275592Y10901D01*
X275598Y10955D01*
X275607Y11009D01*
X275621Y11062D01*
X275638Y11113D01*
X275659Y11164D01*
X275683Y11212D01*
X275711Y11259D01*
X275742Y11304D01*
X275776Y11346D01*
X275813Y11386D01*
X275853Y11423D01*
X275895Y11457D01*
X275940Y11488D01*
X275987Y11516D01*
X276035Y11540D01*
X276086Y11561D01*
X276137Y11578D01*
X276190Y11592D01*
X276244Y11601D01*
X276298Y11607D01*
X276352Y11609D01*
X277876Y11609D01*
X277930Y11607D01*
X277984Y11601D01*
X278038Y11592D01*
X278091Y11578D01*
X278142Y11561D01*
X278193Y11540D01*
X278241Y11516D01*
X278288Y11488D01*
X278333Y11457D01*
X278375Y11423D01*
X278415Y11386D01*
X278452Y11346D01*
X278486Y11304D01*
X278517Y11259D01*
X278545Y11212D01*
X278569Y11164D01*
X278590Y11113D01*
X278607Y11062D01*
X278621Y11009D01*
X278630Y10955D01*
X278636Y10901D01*
X278638Y10847D01*
X278638Y9577D01*
X278638Y13726D02*
X274066Y13726D01*
X274066Y15758D01*
X276098Y15758D02*
X276098Y13726D01*
X301244Y-147320D02*
X301244Y-151892D01*
X300736Y-151892D02*
X301752Y-151892D01*
X301752Y-147320D02*
X300736Y-147320D01*
X304633Y-151892D02*
X305649Y-151892D01*
X304633Y-151892D02*
X304572Y-151890D01*
X304511Y-151885D01*
X304450Y-151875D01*
X304390Y-151862D01*
X304331Y-151846D01*
X304273Y-151826D01*
X304216Y-151802D01*
X304161Y-151776D01*
X304107Y-151745D01*
X304056Y-151712D01*
X304006Y-151676D01*
X303959Y-151636D01*
X303915Y-151594D01*
X303873Y-151550D01*
X303833Y-151503D01*
X303797Y-151453D01*
X303764Y-151402D01*
X303733Y-151348D01*
X303707Y-151293D01*
X303683Y-151236D01*
X303663Y-151178D01*
X303647Y-151119D01*
X303634Y-151059D01*
X303624Y-150998D01*
X303619Y-150937D01*
X303617Y-150876D01*
X303617Y-148336D01*
X303619Y-148275D01*
X303624Y-148214D01*
X303634Y-148153D01*
X303647Y-148093D01*
X303663Y-148034D01*
X303683Y-147976D01*
X303707Y-147919D01*
X303733Y-147864D01*
X303764Y-147810D01*
X303797Y-147759D01*
X303833Y-147709D01*
X303873Y-147662D01*
X303915Y-147618D01*
X303959Y-147576D01*
X304006Y-147536D01*
X304056Y-147500D01*
X304107Y-147467D01*
X304161Y-147436D01*
X304216Y-147410D01*
X304273Y-147386D01*
X304331Y-147366D01*
X304390Y-147350D01*
X304450Y-147337D01*
X304511Y-147327D01*
X304572Y-147322D01*
X304633Y-147320D01*
X305649Y-147320D01*
X307442Y-148336D02*
X308712Y-147320D01*
X308712Y-151892D01*
X307442Y-151892D02*
X309982Y-151892D01*
X276591Y-188976D02*
X275575Y-188976D01*
X275514Y-188974D01*
X275453Y-188969D01*
X275392Y-188959D01*
X275332Y-188946D01*
X275273Y-188930D01*
X275215Y-188910D01*
X275158Y-188886D01*
X275103Y-188860D01*
X275049Y-188829D01*
X274998Y-188796D01*
X274948Y-188760D01*
X274901Y-188720D01*
X274857Y-188678D01*
X274815Y-188634D01*
X274775Y-188587D01*
X274739Y-188537D01*
X274706Y-188486D01*
X274675Y-188432D01*
X274649Y-188377D01*
X274625Y-188320D01*
X274605Y-188262D01*
X274589Y-188203D01*
X274576Y-188143D01*
X274566Y-188082D01*
X274561Y-188021D01*
X274559Y-187960D01*
X274559Y-185420D01*
X274561Y-185359D01*
X274566Y-185298D01*
X274576Y-185237D01*
X274589Y-185177D01*
X274605Y-185118D01*
X274625Y-185060D01*
X274649Y-185003D01*
X274675Y-184948D01*
X274706Y-184894D01*
X274739Y-184843D01*
X274775Y-184793D01*
X274815Y-184746D01*
X274857Y-184702D01*
X274901Y-184660D01*
X274948Y-184620D01*
X274998Y-184584D01*
X275049Y-184551D01*
X275103Y-184520D01*
X275158Y-184494D01*
X275215Y-184470D01*
X275273Y-184450D01*
X275332Y-184434D01*
X275392Y-184421D01*
X275453Y-184411D01*
X275514Y-184406D01*
X275575Y-184404D01*
X276591Y-184404D01*
X278613Y-184404D02*
X278613Y-188976D01*
X278613Y-184404D02*
X279883Y-184404D01*
X279953Y-184406D01*
X280023Y-184412D01*
X280092Y-184421D01*
X280161Y-184435D01*
X280229Y-184452D01*
X280295Y-184473D01*
X280361Y-184497D01*
X280425Y-184525D01*
X280487Y-184557D01*
X280548Y-184592D01*
X280607Y-184630D01*
X280663Y-184672D01*
X280717Y-184716D01*
X280769Y-184764D01*
X280817Y-184814D01*
X280863Y-184867D01*
X280906Y-184922D01*
X280946Y-184979D01*
X280983Y-185039D01*
X281016Y-185101D01*
X281046Y-185164D01*
X281072Y-185229D01*
X281095Y-185295D01*
X281114Y-185362D01*
X281129Y-185431D01*
X281141Y-185500D01*
X281149Y-185569D01*
X281153Y-185639D01*
X281153Y-185709D01*
X281149Y-185779D01*
X281141Y-185848D01*
X281129Y-185917D01*
X281114Y-185986D01*
X281095Y-186053D01*
X281072Y-186119D01*
X281046Y-186184D01*
X281016Y-186247D01*
X280983Y-186309D01*
X280946Y-186369D01*
X280906Y-186426D01*
X280863Y-186481D01*
X280817Y-186534D01*
X280769Y-186584D01*
X280717Y-186632D01*
X280663Y-186676D01*
X280607Y-186718D01*
X280548Y-186756D01*
X280487Y-186791D01*
X280425Y-186823D01*
X280361Y-186851D01*
X280295Y-186875D01*
X280229Y-186896D01*
X280161Y-186913D01*
X280092Y-186927D01*
X280023Y-186936D01*
X279953Y-186942D01*
X279883Y-186944D01*
X278613Y-186944D01*
X284353Y-184404D02*
X284419Y-184406D01*
X284486Y-184412D01*
X284551Y-184421D01*
X284617Y-184435D01*
X284681Y-184452D01*
X284744Y-184473D01*
X284806Y-184497D01*
X284866Y-184526D01*
X284925Y-184557D01*
X284981Y-184592D01*
X285036Y-184630D01*
X285088Y-184671D01*
X285137Y-184716D01*
X285184Y-184763D01*
X285229Y-184812D01*
X285270Y-184864D01*
X285308Y-184919D01*
X285343Y-184976D01*
X285374Y-185034D01*
X285403Y-185094D01*
X285427Y-185156D01*
X285448Y-185219D01*
X285465Y-185283D01*
X285479Y-185349D01*
X285488Y-185414D01*
X285494Y-185481D01*
X285496Y-185547D01*
X284353Y-184404D02*
X284279Y-184406D01*
X284206Y-184411D01*
X284132Y-184421D01*
X284060Y-184434D01*
X283988Y-184450D01*
X283917Y-184470D01*
X283847Y-184494D01*
X283778Y-184521D01*
X283711Y-184552D01*
X283645Y-184586D01*
X283582Y-184623D01*
X283520Y-184663D01*
X283460Y-184707D01*
X283403Y-184753D01*
X283347Y-184802D01*
X283295Y-184854D01*
X283245Y-184909D01*
X283198Y-184966D01*
X283154Y-185025D01*
X283113Y-185086D01*
X283075Y-185150D01*
X283040Y-185215D01*
X283009Y-185282D01*
X282981Y-185350D01*
X282956Y-185420D01*
X285115Y-186436D02*
X285162Y-186389D01*
X285206Y-186340D01*
X285247Y-186288D01*
X285286Y-186234D01*
X285321Y-186178D01*
X285354Y-186120D01*
X285383Y-186061D01*
X285409Y-186000D01*
X285432Y-185938D01*
X285452Y-185874D01*
X285467Y-185810D01*
X285480Y-185745D01*
X285489Y-185679D01*
X285494Y-185613D01*
X285496Y-185547D01*
X285115Y-186436D02*
X282956Y-188976D01*
X285496Y-188976D01*
X287528Y-185420D02*
X288798Y-184404D01*
X288798Y-188976D01*
X287528Y-188976D02*
X290068Y-188976D01*
X292100Y-186690D02*
X292102Y-186568D01*
X292108Y-186446D01*
X292118Y-186324D01*
X292132Y-186203D01*
X292149Y-186082D01*
X292171Y-185962D01*
X292196Y-185843D01*
X292226Y-185724D01*
X292259Y-185607D01*
X292296Y-185490D01*
X292337Y-185375D01*
X292381Y-185262D01*
X292429Y-185149D01*
X292481Y-185039D01*
X292501Y-184985D01*
X292525Y-184931D01*
X292553Y-184880D01*
X292583Y-184830D01*
X292616Y-184782D01*
X292653Y-184737D01*
X292692Y-184693D01*
X292733Y-184653D01*
X292777Y-184614D01*
X292824Y-184579D01*
X292872Y-184547D01*
X292922Y-184517D01*
X292975Y-184491D01*
X293028Y-184468D01*
X293083Y-184449D01*
X293139Y-184433D01*
X293196Y-184420D01*
X293254Y-184411D01*
X293312Y-184406D01*
X293370Y-184404D01*
X293428Y-184406D01*
X293486Y-184411D01*
X293544Y-184420D01*
X293601Y-184433D01*
X293657Y-184449D01*
X293712Y-184468D01*
X293765Y-184491D01*
X293818Y-184517D01*
X293868Y-184547D01*
X293916Y-184579D01*
X293963Y-184614D01*
X294007Y-184653D01*
X294048Y-184693D01*
X294087Y-184737D01*
X294124Y-184782D01*
X294157Y-184830D01*
X294187Y-184880D01*
X294215Y-184931D01*
X294239Y-184985D01*
X294259Y-185039D01*
X294311Y-185149D01*
X294359Y-185262D01*
X294403Y-185375D01*
X294444Y-185490D01*
X294481Y-185607D01*
X294514Y-185724D01*
X294544Y-185843D01*
X294569Y-185962D01*
X294591Y-186082D01*
X294608Y-186203D01*
X294622Y-186324D01*
X294632Y-186446D01*
X294638Y-186568D01*
X294640Y-186690D01*
X292100Y-186690D02*
X292102Y-186812D01*
X292108Y-186934D01*
X292118Y-187056D01*
X292132Y-187177D01*
X292149Y-187298D01*
X292171Y-187418D01*
X292196Y-187537D01*
X292226Y-187656D01*
X292259Y-187773D01*
X292296Y-187890D01*
X292337Y-188005D01*
X292381Y-188118D01*
X292429Y-188231D01*
X292481Y-188341D01*
X292501Y-188395D01*
X292525Y-188449D01*
X292553Y-188500D01*
X292583Y-188550D01*
X292616Y-188598D01*
X292653Y-188643D01*
X292692Y-188687D01*
X292733Y-188727D01*
X292777Y-188766D01*
X292824Y-188801D01*
X292872Y-188833D01*
X292922Y-188863D01*
X292975Y-188889D01*
X293028Y-188912D01*
X293083Y-188931D01*
X293139Y-188947D01*
X293196Y-188960D01*
X293254Y-188969D01*
X293312Y-188974D01*
X293370Y-188976D01*
X294259Y-188341D02*
X294311Y-188231D01*
X294359Y-188118D01*
X294403Y-188005D01*
X294444Y-187890D01*
X294481Y-187773D01*
X294514Y-187656D01*
X294544Y-187537D01*
X294569Y-187418D01*
X294591Y-187298D01*
X294608Y-187177D01*
X294622Y-187056D01*
X294632Y-186934D01*
X294638Y-186812D01*
X294640Y-186690D01*
X294259Y-188341D02*
X294239Y-188395D01*
X294215Y-188449D01*
X294187Y-188500D01*
X294157Y-188550D01*
X294124Y-188598D01*
X294087Y-188643D01*
X294048Y-188687D01*
X294007Y-188727D01*
X293963Y-188766D01*
X293916Y-188801D01*
X293868Y-188833D01*
X293818Y-188863D01*
X293765Y-188889D01*
X293712Y-188912D01*
X293657Y-188931D01*
X293601Y-188947D01*
X293544Y-188960D01*
X293486Y-188969D01*
X293428Y-188974D01*
X293370Y-188976D01*
X292354Y-187960D02*
X294386Y-185420D01*
X298069Y-184404D02*
X298135Y-184406D01*
X298202Y-184412D01*
X298267Y-184421D01*
X298333Y-184435D01*
X298397Y-184452D01*
X298460Y-184473D01*
X298522Y-184497D01*
X298582Y-184526D01*
X298641Y-184557D01*
X298697Y-184592D01*
X298752Y-184630D01*
X298804Y-184671D01*
X298853Y-184716D01*
X298900Y-184763D01*
X298945Y-184812D01*
X298986Y-184864D01*
X299024Y-184919D01*
X299059Y-184976D01*
X299090Y-185034D01*
X299119Y-185094D01*
X299143Y-185156D01*
X299164Y-185219D01*
X299181Y-185283D01*
X299195Y-185349D01*
X299204Y-185414D01*
X299210Y-185481D01*
X299212Y-185547D01*
X298069Y-184404D02*
X297995Y-184406D01*
X297922Y-184411D01*
X297848Y-184421D01*
X297776Y-184434D01*
X297704Y-184450D01*
X297633Y-184470D01*
X297563Y-184494D01*
X297494Y-184521D01*
X297427Y-184552D01*
X297361Y-184586D01*
X297298Y-184623D01*
X297236Y-184663D01*
X297176Y-184707D01*
X297119Y-184753D01*
X297063Y-184802D01*
X297011Y-184854D01*
X296961Y-184909D01*
X296914Y-184966D01*
X296870Y-185025D01*
X296829Y-185086D01*
X296791Y-185150D01*
X296756Y-185215D01*
X296725Y-185282D01*
X296697Y-185350D01*
X296672Y-185420D01*
X298831Y-186436D02*
X298878Y-186389D01*
X298922Y-186340D01*
X298963Y-186288D01*
X299002Y-186234D01*
X299037Y-186178D01*
X299070Y-186120D01*
X299099Y-186061D01*
X299125Y-186000D01*
X299148Y-185938D01*
X299168Y-185874D01*
X299183Y-185810D01*
X299196Y-185745D01*
X299205Y-185679D01*
X299210Y-185613D01*
X299212Y-185547D01*
X298831Y-186436D02*
X296672Y-188976D01*
X299212Y-188976D01*
D17*
X209280Y-250914D02*
X209280Y-300914D01*
X283480Y-300914D01*
X283480Y-250914D01*
X209280Y-250914D01*
D18*
X150156Y-281554D02*
X115156Y-281554D01*
X150156Y-281554D02*
X150156Y-273554D01*
X125156Y-273554D01*
X125156Y-261554D01*
X125156Y-221554D02*
X125156Y-209554D01*
X150156Y-209554D01*
X150156Y-201554D01*
X115156Y-201554D01*
X75156Y-221554D02*
X75156Y-261554D01*
D11*
X81915Y-253280D02*
X85669Y-253280D01*
X85669Y-253281D02*
X85734Y-253283D01*
X85798Y-253289D01*
X85862Y-253299D01*
X85926Y-253312D01*
X85988Y-253330D01*
X86049Y-253351D01*
X86109Y-253375D01*
X86167Y-253404D01*
X86224Y-253436D01*
X86278Y-253471D01*
X86330Y-253509D01*
X86380Y-253551D01*
X86427Y-253595D01*
X86471Y-253642D01*
X86513Y-253692D01*
X86551Y-253744D01*
X86586Y-253798D01*
X86618Y-253855D01*
X86647Y-253913D01*
X86671Y-253973D01*
X86692Y-254034D01*
X86710Y-254096D01*
X86723Y-254160D01*
X86733Y-254224D01*
X86739Y-254288D01*
X86741Y-254353D01*
X86741Y-254889D01*
X82987Y-250332D02*
X81915Y-248992D01*
X86741Y-248992D01*
X86741Y-250332D02*
X86741Y-247651D01*
D10*
X266446Y-212867D02*
X266446Y-211851D01*
X266446Y-212867D02*
X266444Y-212928D01*
X266439Y-212989D01*
X266429Y-213050D01*
X266416Y-213110D01*
X266400Y-213169D01*
X266380Y-213227D01*
X266356Y-213284D01*
X266330Y-213339D01*
X266299Y-213393D01*
X266266Y-213444D01*
X266230Y-213494D01*
X266190Y-213541D01*
X266148Y-213585D01*
X266104Y-213627D01*
X266057Y-213667D01*
X266007Y-213703D01*
X265956Y-213736D01*
X265902Y-213767D01*
X265847Y-213793D01*
X265790Y-213817D01*
X265732Y-213837D01*
X265673Y-213853D01*
X265613Y-213866D01*
X265552Y-213876D01*
X265491Y-213881D01*
X265430Y-213883D01*
X262890Y-213883D01*
X262829Y-213881D01*
X262768Y-213876D01*
X262707Y-213866D01*
X262647Y-213853D01*
X262588Y-213837D01*
X262530Y-213817D01*
X262473Y-213793D01*
X262418Y-213767D01*
X262364Y-213736D01*
X262313Y-213703D01*
X262263Y-213667D01*
X262216Y-213627D01*
X262172Y-213585D01*
X262130Y-213541D01*
X262090Y-213494D01*
X262054Y-213444D01*
X262021Y-213393D01*
X261990Y-213339D01*
X261964Y-213284D01*
X261940Y-213227D01*
X261920Y-213169D01*
X261904Y-213110D01*
X261891Y-213050D01*
X261881Y-212989D01*
X261876Y-212928D01*
X261874Y-212867D01*
X261874Y-211851D01*
X262890Y-210058D02*
X261874Y-208788D01*
X266446Y-208788D01*
X266446Y-210058D02*
X266446Y-207518D01*
X264160Y-205486D02*
X264038Y-205484D01*
X263916Y-205478D01*
X263794Y-205468D01*
X263673Y-205454D01*
X263552Y-205437D01*
X263432Y-205415D01*
X263313Y-205390D01*
X263194Y-205360D01*
X263077Y-205327D01*
X262960Y-205290D01*
X262845Y-205249D01*
X262732Y-205205D01*
X262619Y-205157D01*
X262509Y-205105D01*
X262455Y-205085D01*
X262401Y-205061D01*
X262350Y-205033D01*
X262300Y-205003D01*
X262252Y-204970D01*
X262207Y-204933D01*
X262163Y-204894D01*
X262123Y-204853D01*
X262084Y-204809D01*
X262049Y-204762D01*
X262017Y-204714D01*
X261987Y-204664D01*
X261961Y-204611D01*
X261938Y-204558D01*
X261919Y-204503D01*
X261903Y-204447D01*
X261890Y-204390D01*
X261881Y-204332D01*
X261876Y-204274D01*
X261874Y-204216D01*
X261876Y-204158D01*
X261881Y-204100D01*
X261890Y-204042D01*
X261903Y-203985D01*
X261919Y-203929D01*
X261938Y-203874D01*
X261961Y-203821D01*
X261987Y-203768D01*
X262017Y-203718D01*
X262049Y-203670D01*
X262084Y-203623D01*
X262123Y-203579D01*
X262163Y-203538D01*
X262207Y-203499D01*
X262252Y-203462D01*
X262300Y-203429D01*
X262350Y-203399D01*
X262401Y-203371D01*
X262455Y-203347D01*
X262509Y-203327D01*
X262619Y-203275D01*
X262732Y-203227D01*
X262845Y-203183D01*
X262960Y-203142D01*
X263077Y-203105D01*
X263194Y-203072D01*
X263313Y-203042D01*
X263432Y-203017D01*
X263552Y-202995D01*
X263673Y-202978D01*
X263794Y-202964D01*
X263916Y-202954D01*
X264038Y-202948D01*
X264160Y-202946D01*
X264160Y-205486D02*
X264282Y-205484D01*
X264404Y-205478D01*
X264526Y-205468D01*
X264647Y-205454D01*
X264768Y-205437D01*
X264888Y-205415D01*
X265007Y-205390D01*
X265126Y-205360D01*
X265243Y-205327D01*
X265360Y-205290D01*
X265475Y-205249D01*
X265588Y-205205D01*
X265701Y-205157D01*
X265811Y-205105D01*
X265865Y-205085D01*
X265919Y-205061D01*
X265970Y-205033D01*
X266020Y-205003D01*
X266068Y-204970D01*
X266113Y-204933D01*
X266157Y-204894D01*
X266197Y-204853D01*
X266236Y-204809D01*
X266271Y-204762D01*
X266303Y-204714D01*
X266333Y-204664D01*
X266359Y-204611D01*
X266382Y-204558D01*
X266401Y-204503D01*
X266417Y-204447D01*
X266430Y-204390D01*
X266439Y-204332D01*
X266444Y-204274D01*
X266446Y-204216D01*
X265811Y-203327D02*
X265701Y-203275D01*
X265588Y-203227D01*
X265475Y-203183D01*
X265360Y-203142D01*
X265243Y-203105D01*
X265126Y-203072D01*
X265007Y-203042D01*
X264888Y-203017D01*
X264768Y-202995D01*
X264647Y-202978D01*
X264526Y-202964D01*
X264404Y-202954D01*
X264282Y-202948D01*
X264160Y-202946D01*
X265811Y-203327D02*
X265865Y-203347D01*
X265919Y-203371D01*
X265970Y-203399D01*
X266020Y-203429D01*
X266068Y-203462D01*
X266113Y-203499D01*
X266157Y-203538D01*
X266197Y-203579D01*
X266236Y-203623D01*
X266271Y-203670D01*
X266303Y-203718D01*
X266333Y-203768D01*
X266359Y-203821D01*
X266382Y-203874D01*
X266401Y-203929D01*
X266417Y-203985D01*
X266430Y-204042D01*
X266439Y-204100D01*
X266444Y-204158D01*
X266446Y-204216D01*
X265430Y-205232D02*
X262890Y-203200D01*
D15*
X269621Y-214277D02*
X270411Y-215265D01*
X269621Y-214277D02*
X273177Y-214277D01*
X273177Y-215265D02*
X273177Y-213289D01*
X273177Y-211976D02*
X272979Y-211976D01*
X272979Y-211778D01*
X273177Y-211778D01*
X273177Y-211976D01*
X271399Y-210465D02*
X271297Y-210463D01*
X271195Y-210458D01*
X271093Y-210449D01*
X270991Y-210437D01*
X270890Y-210421D01*
X270790Y-210401D01*
X270690Y-210378D01*
X270591Y-210352D01*
X270494Y-210322D01*
X270397Y-210288D01*
X270302Y-210252D01*
X270207Y-210212D01*
X270115Y-210169D01*
X270115Y-210168D02*
X270065Y-210149D01*
X270017Y-210127D01*
X269970Y-210101D01*
X269926Y-210071D01*
X269884Y-210038D01*
X269844Y-210003D01*
X269807Y-209964D01*
X269773Y-209923D01*
X269742Y-209880D01*
X269714Y-209834D01*
X269690Y-209787D01*
X269669Y-209738D01*
X269652Y-209687D01*
X269638Y-209636D01*
X269629Y-209583D01*
X269623Y-209530D01*
X269621Y-209477D01*
X269623Y-209424D01*
X269629Y-209371D01*
X269638Y-209318D01*
X269652Y-209267D01*
X269669Y-209216D01*
X269690Y-209167D01*
X269714Y-209120D01*
X269742Y-209074D01*
X269773Y-209031D01*
X269807Y-208990D01*
X269844Y-208951D01*
X269884Y-208916D01*
X269926Y-208883D01*
X269970Y-208854D01*
X270017Y-208827D01*
X270065Y-208805D01*
X270115Y-208786D01*
X270115Y-208785D02*
X270207Y-208742D01*
X270302Y-208702D01*
X270397Y-208666D01*
X270494Y-208632D01*
X270591Y-208602D01*
X270690Y-208576D01*
X270790Y-208553D01*
X270890Y-208533D01*
X270991Y-208517D01*
X271093Y-208505D01*
X271195Y-208496D01*
X271297Y-208491D01*
X271399Y-208489D01*
X271399Y-210465D02*
X271501Y-210463D01*
X271603Y-210458D01*
X271705Y-210449D01*
X271807Y-210437D01*
X271908Y-210421D01*
X272008Y-210401D01*
X272108Y-210378D01*
X272207Y-210352D01*
X272304Y-210322D01*
X272401Y-210288D01*
X272496Y-210252D01*
X272591Y-210212D01*
X272683Y-210169D01*
X272683Y-210168D02*
X272733Y-210149D01*
X272781Y-210127D01*
X272828Y-210100D01*
X272872Y-210071D01*
X272914Y-210038D01*
X272954Y-210003D01*
X272991Y-209964D01*
X273025Y-209923D01*
X273056Y-209880D01*
X273084Y-209834D01*
X273108Y-209787D01*
X273129Y-209738D01*
X273146Y-209687D01*
X273160Y-209636D01*
X273169Y-209583D01*
X273175Y-209530D01*
X273177Y-209477D01*
X272683Y-208785D02*
X272591Y-208742D01*
X272496Y-208702D01*
X272401Y-208666D01*
X272304Y-208632D01*
X272207Y-208602D01*
X272108Y-208576D01*
X272008Y-208553D01*
X271908Y-208533D01*
X271807Y-208517D01*
X271705Y-208505D01*
X271603Y-208496D01*
X271501Y-208491D01*
X271399Y-208489D01*
X272683Y-208786D02*
X272733Y-208805D01*
X272781Y-208827D01*
X272828Y-208854D01*
X272872Y-208883D01*
X272914Y-208916D01*
X272954Y-208951D01*
X272991Y-208990D01*
X273025Y-209031D01*
X273056Y-209074D01*
X273084Y-209120D01*
X273108Y-209167D01*
X273129Y-209216D01*
X273146Y-209267D01*
X273160Y-209318D01*
X273169Y-209371D01*
X273175Y-209424D01*
X273177Y-209477D01*
X272387Y-210267D02*
X270411Y-208686D01*
X270806Y-206952D02*
X272584Y-206952D01*
X272584Y-206953D02*
X272631Y-206951D01*
X272677Y-206946D01*
X272722Y-206937D01*
X272767Y-206924D01*
X272811Y-206908D01*
X272853Y-206888D01*
X272894Y-206866D01*
X272933Y-206840D01*
X272969Y-206811D01*
X273003Y-206779D01*
X273035Y-206745D01*
X273064Y-206709D01*
X273090Y-206670D01*
X273112Y-206629D01*
X273132Y-206587D01*
X273148Y-206543D01*
X273161Y-206498D01*
X273170Y-206453D01*
X273175Y-206407D01*
X273177Y-206360D01*
X273177Y-205372D01*
X270806Y-205372D01*
X269621Y-203715D02*
X273177Y-203715D01*
X269621Y-203715D02*
X269621Y-202134D01*
X271201Y-202134D02*
X271201Y-203715D01*
D10*
X266192Y-198643D02*
X266192Y-197627D01*
X266192Y-198643D02*
X266190Y-198704D01*
X266185Y-198765D01*
X266175Y-198826D01*
X266162Y-198886D01*
X266146Y-198945D01*
X266126Y-199003D01*
X266102Y-199060D01*
X266076Y-199115D01*
X266045Y-199169D01*
X266012Y-199220D01*
X265976Y-199270D01*
X265936Y-199317D01*
X265894Y-199361D01*
X265850Y-199403D01*
X265803Y-199443D01*
X265753Y-199479D01*
X265702Y-199512D01*
X265648Y-199543D01*
X265593Y-199569D01*
X265536Y-199593D01*
X265478Y-199613D01*
X265419Y-199629D01*
X265359Y-199642D01*
X265298Y-199652D01*
X265237Y-199657D01*
X265176Y-199659D01*
X262636Y-199659D01*
X262575Y-199657D01*
X262514Y-199652D01*
X262453Y-199642D01*
X262393Y-199629D01*
X262334Y-199613D01*
X262276Y-199593D01*
X262219Y-199569D01*
X262164Y-199543D01*
X262110Y-199512D01*
X262059Y-199479D01*
X262009Y-199443D01*
X261962Y-199403D01*
X261918Y-199361D01*
X261876Y-199317D01*
X261836Y-199270D01*
X261800Y-199220D01*
X261767Y-199169D01*
X261736Y-199115D01*
X261710Y-199060D01*
X261686Y-199003D01*
X261666Y-198945D01*
X261650Y-198886D01*
X261637Y-198826D01*
X261627Y-198765D01*
X261622Y-198704D01*
X261620Y-198643D01*
X261620Y-197627D01*
X262636Y-195834D02*
X261620Y-194564D01*
X266192Y-194564D01*
X266192Y-195834D02*
X266192Y-193294D01*
X262636Y-191262D02*
X261620Y-189992D01*
X266192Y-189992D01*
X266192Y-191262D02*
X266192Y-188722D01*
D15*
X269607Y-199652D02*
X269699Y-199695D01*
X269794Y-199735D01*
X269889Y-199771D01*
X269986Y-199805D01*
X270083Y-199835D01*
X270182Y-199861D01*
X270282Y-199884D01*
X270382Y-199904D01*
X270483Y-199920D01*
X270585Y-199932D01*
X270687Y-199941D01*
X270789Y-199946D01*
X270891Y-199948D01*
X269607Y-199651D02*
X269557Y-199632D01*
X269509Y-199610D01*
X269462Y-199584D01*
X269418Y-199554D01*
X269376Y-199521D01*
X269336Y-199486D01*
X269299Y-199447D01*
X269265Y-199406D01*
X269234Y-199363D01*
X269206Y-199317D01*
X269182Y-199270D01*
X269161Y-199221D01*
X269144Y-199170D01*
X269130Y-199119D01*
X269121Y-199066D01*
X269115Y-199013D01*
X269113Y-198960D01*
X269115Y-198907D01*
X269121Y-198854D01*
X269130Y-198801D01*
X269144Y-198750D01*
X269161Y-198699D01*
X269182Y-198650D01*
X269206Y-198603D01*
X269234Y-198557D01*
X269265Y-198514D01*
X269299Y-198473D01*
X269336Y-198434D01*
X269376Y-198399D01*
X269418Y-198366D01*
X269462Y-198337D01*
X269509Y-198310D01*
X269557Y-198288D01*
X269607Y-198269D01*
X269607Y-198268D02*
X269699Y-198225D01*
X269794Y-198185D01*
X269889Y-198149D01*
X269986Y-198115D01*
X270083Y-198085D01*
X270182Y-198059D01*
X270282Y-198036D01*
X270382Y-198016D01*
X270483Y-198000D01*
X270585Y-197988D01*
X270687Y-197979D01*
X270789Y-197974D01*
X270891Y-197972D01*
X270891Y-199948D02*
X270993Y-199946D01*
X271095Y-199941D01*
X271197Y-199932D01*
X271299Y-199920D01*
X271400Y-199904D01*
X271500Y-199884D01*
X271600Y-199861D01*
X271699Y-199835D01*
X271796Y-199805D01*
X271893Y-199771D01*
X271988Y-199735D01*
X272083Y-199695D01*
X272175Y-199652D01*
X272175Y-199651D02*
X272225Y-199632D01*
X272273Y-199610D01*
X272320Y-199583D01*
X272364Y-199554D01*
X272406Y-199521D01*
X272446Y-199486D01*
X272483Y-199447D01*
X272517Y-199406D01*
X272548Y-199363D01*
X272576Y-199317D01*
X272600Y-199270D01*
X272621Y-199221D01*
X272638Y-199170D01*
X272652Y-199119D01*
X272661Y-199066D01*
X272667Y-199013D01*
X272669Y-198960D01*
X272175Y-198268D02*
X272083Y-198225D01*
X271988Y-198185D01*
X271893Y-198149D01*
X271796Y-198115D01*
X271699Y-198085D01*
X271600Y-198059D01*
X271500Y-198036D01*
X271400Y-198016D01*
X271299Y-198000D01*
X271197Y-197988D01*
X271095Y-197979D01*
X270993Y-197974D01*
X270891Y-197972D01*
X272175Y-198269D02*
X272225Y-198288D01*
X272273Y-198310D01*
X272320Y-198337D01*
X272364Y-198366D01*
X272406Y-198399D01*
X272446Y-198434D01*
X272483Y-198473D01*
X272517Y-198514D01*
X272548Y-198557D01*
X272576Y-198603D01*
X272600Y-198650D01*
X272621Y-198699D01*
X272638Y-198750D01*
X272652Y-198801D01*
X272661Y-198854D01*
X272667Y-198907D01*
X272669Y-198960D01*
X271879Y-199750D02*
X269903Y-198170D01*
X272471Y-196659D02*
X272669Y-196659D01*
X272471Y-196659D02*
X272471Y-196461D01*
X272669Y-196461D01*
X272669Y-196659D01*
X269903Y-195147D02*
X269113Y-194160D01*
X272669Y-194160D01*
X272669Y-195147D02*
X272669Y-193172D01*
X272076Y-191635D02*
X270298Y-191635D01*
X272076Y-191635D02*
X272123Y-191633D01*
X272169Y-191628D01*
X272214Y-191619D01*
X272259Y-191606D01*
X272303Y-191590D01*
X272345Y-191570D01*
X272386Y-191548D01*
X272425Y-191522D01*
X272461Y-191493D01*
X272495Y-191461D01*
X272527Y-191427D01*
X272556Y-191391D01*
X272582Y-191352D01*
X272604Y-191311D01*
X272624Y-191269D01*
X272640Y-191225D01*
X272653Y-191180D01*
X272662Y-191135D01*
X272667Y-191089D01*
X272669Y-191042D01*
X272669Y-190055D01*
X270298Y-190055D01*
X269113Y-188397D02*
X272669Y-188397D01*
X269113Y-188397D02*
X269113Y-186817D01*
X270693Y-186817D02*
X270693Y-188397D01*
D10*
X283195Y-126746D02*
X284211Y-126746D01*
X283195Y-126746D02*
X283134Y-126744D01*
X283073Y-126739D01*
X283012Y-126729D01*
X282952Y-126716D01*
X282893Y-126700D01*
X282835Y-126680D01*
X282778Y-126656D01*
X282723Y-126630D01*
X282669Y-126599D01*
X282618Y-126566D01*
X282568Y-126530D01*
X282521Y-126490D01*
X282477Y-126448D01*
X282435Y-126404D01*
X282395Y-126357D01*
X282359Y-126307D01*
X282326Y-126256D01*
X282295Y-126202D01*
X282269Y-126147D01*
X282245Y-126090D01*
X282225Y-126032D01*
X282209Y-125973D01*
X282196Y-125913D01*
X282186Y-125852D01*
X282181Y-125791D01*
X282179Y-125730D01*
X282179Y-123190D01*
X282181Y-123129D01*
X282186Y-123068D01*
X282196Y-123007D01*
X282209Y-122947D01*
X282225Y-122888D01*
X282245Y-122830D01*
X282269Y-122773D01*
X282295Y-122718D01*
X282326Y-122664D01*
X282359Y-122613D01*
X282395Y-122563D01*
X282435Y-122516D01*
X282477Y-122472D01*
X282521Y-122430D01*
X282568Y-122390D01*
X282618Y-122354D01*
X282669Y-122321D01*
X282723Y-122290D01*
X282778Y-122264D01*
X282835Y-122240D01*
X282893Y-122220D01*
X282952Y-122204D01*
X283012Y-122191D01*
X283073Y-122181D01*
X283134Y-122176D01*
X283195Y-122174D01*
X284211Y-122174D01*
X286004Y-123190D02*
X287274Y-122174D01*
X287274Y-126746D01*
X286004Y-126746D02*
X288544Y-126746D01*
X293116Y-123317D02*
X293114Y-123251D01*
X293108Y-123184D01*
X293099Y-123119D01*
X293085Y-123053D01*
X293068Y-122989D01*
X293047Y-122926D01*
X293023Y-122864D01*
X292994Y-122804D01*
X292963Y-122746D01*
X292928Y-122689D01*
X292890Y-122634D01*
X292849Y-122582D01*
X292804Y-122533D01*
X292757Y-122486D01*
X292708Y-122441D01*
X292656Y-122400D01*
X292601Y-122362D01*
X292545Y-122327D01*
X292486Y-122296D01*
X292426Y-122267D01*
X292364Y-122243D01*
X292301Y-122222D01*
X292237Y-122205D01*
X292171Y-122191D01*
X292106Y-122182D01*
X292039Y-122176D01*
X291973Y-122174D01*
X291899Y-122176D01*
X291826Y-122181D01*
X291752Y-122191D01*
X291680Y-122204D01*
X291608Y-122220D01*
X291537Y-122240D01*
X291467Y-122264D01*
X291398Y-122291D01*
X291331Y-122322D01*
X291265Y-122356D01*
X291202Y-122393D01*
X291140Y-122433D01*
X291080Y-122477D01*
X291023Y-122523D01*
X290967Y-122572D01*
X290915Y-122624D01*
X290865Y-122679D01*
X290818Y-122736D01*
X290774Y-122795D01*
X290733Y-122856D01*
X290695Y-122920D01*
X290660Y-122985D01*
X290629Y-123052D01*
X290601Y-123120D01*
X290576Y-123190D01*
X292735Y-124206D02*
X292782Y-124159D01*
X292826Y-124110D01*
X292867Y-124058D01*
X292906Y-124004D01*
X292941Y-123948D01*
X292974Y-123890D01*
X293003Y-123831D01*
X293029Y-123770D01*
X293052Y-123708D01*
X293072Y-123644D01*
X293087Y-123580D01*
X293100Y-123515D01*
X293109Y-123449D01*
X293114Y-123383D01*
X293116Y-123317D01*
X292735Y-124206D02*
X290576Y-126746D01*
X293116Y-126746D01*
X296306Y-123190D02*
X297576Y-122174D01*
X297576Y-126746D01*
X296306Y-126746D02*
X298846Y-126746D01*
X300980Y-125984D02*
X300980Y-123698D01*
X300980Y-125984D02*
X300982Y-126038D01*
X300988Y-126092D01*
X300997Y-126146D01*
X301011Y-126199D01*
X301028Y-126250D01*
X301049Y-126301D01*
X301073Y-126349D01*
X301101Y-126396D01*
X301132Y-126441D01*
X301166Y-126483D01*
X301203Y-126523D01*
X301243Y-126560D01*
X301285Y-126594D01*
X301330Y-126625D01*
X301377Y-126653D01*
X301425Y-126677D01*
X301476Y-126698D01*
X301527Y-126715D01*
X301580Y-126729D01*
X301634Y-126738D01*
X301688Y-126744D01*
X301742Y-126746D01*
X303012Y-126746D01*
X303012Y-123698D01*
X305308Y-122174D02*
X305308Y-126746D01*
X305308Y-122174D02*
X307340Y-122174D01*
X307340Y-124206D02*
X305308Y-124206D01*
X221234Y-117602D02*
X221234Y-116586D01*
X221234Y-117602D02*
X221232Y-117663D01*
X221227Y-117724D01*
X221217Y-117785D01*
X221204Y-117845D01*
X221188Y-117904D01*
X221168Y-117962D01*
X221144Y-118019D01*
X221118Y-118074D01*
X221087Y-118128D01*
X221054Y-118179D01*
X221018Y-118229D01*
X220978Y-118276D01*
X220936Y-118320D01*
X220892Y-118362D01*
X220845Y-118402D01*
X220795Y-118438D01*
X220744Y-118471D01*
X220690Y-118502D01*
X220635Y-118528D01*
X220578Y-118552D01*
X220520Y-118572D01*
X220461Y-118588D01*
X220401Y-118601D01*
X220340Y-118611D01*
X220279Y-118616D01*
X220218Y-118618D01*
X217678Y-118618D01*
X217617Y-118616D01*
X217556Y-118611D01*
X217495Y-118601D01*
X217435Y-118588D01*
X217376Y-118572D01*
X217318Y-118552D01*
X217261Y-118528D01*
X217206Y-118502D01*
X217152Y-118471D01*
X217101Y-118438D01*
X217051Y-118402D01*
X217004Y-118362D01*
X216960Y-118320D01*
X216918Y-118276D01*
X216878Y-118229D01*
X216842Y-118179D01*
X216809Y-118128D01*
X216778Y-118074D01*
X216752Y-118019D01*
X216728Y-117962D01*
X216708Y-117904D01*
X216692Y-117845D01*
X216679Y-117785D01*
X216669Y-117724D01*
X216664Y-117663D01*
X216662Y-117602D01*
X216662Y-116586D01*
X217678Y-114793D02*
X216662Y-113523D01*
X221234Y-113523D01*
X221234Y-114793D02*
X221234Y-112253D01*
X221234Y-110221D02*
X221234Y-108951D01*
X221232Y-108881D01*
X221226Y-108811D01*
X221217Y-108742D01*
X221203Y-108673D01*
X221186Y-108605D01*
X221165Y-108539D01*
X221141Y-108473D01*
X221113Y-108409D01*
X221081Y-108347D01*
X221046Y-108286D01*
X221008Y-108227D01*
X220966Y-108171D01*
X220922Y-108117D01*
X220874Y-108065D01*
X220824Y-108017D01*
X220771Y-107971D01*
X220716Y-107928D01*
X220659Y-107888D01*
X220599Y-107851D01*
X220537Y-107818D01*
X220474Y-107788D01*
X220409Y-107762D01*
X220343Y-107739D01*
X220276Y-107720D01*
X220207Y-107705D01*
X220138Y-107693D01*
X220069Y-107685D01*
X219999Y-107681D01*
X219929Y-107681D01*
X219859Y-107685D01*
X219790Y-107693D01*
X219721Y-107705D01*
X219652Y-107720D01*
X219585Y-107739D01*
X219519Y-107762D01*
X219454Y-107788D01*
X219391Y-107818D01*
X219329Y-107851D01*
X219269Y-107888D01*
X219212Y-107928D01*
X219157Y-107971D01*
X219104Y-108017D01*
X219054Y-108065D01*
X219006Y-108117D01*
X218962Y-108171D01*
X218920Y-108227D01*
X218882Y-108286D01*
X218847Y-108347D01*
X218815Y-108409D01*
X218787Y-108473D01*
X218763Y-108539D01*
X218742Y-108605D01*
X218725Y-108673D01*
X218711Y-108742D01*
X218702Y-108811D01*
X218696Y-108881D01*
X218694Y-108951D01*
X216662Y-108697D02*
X216662Y-110221D01*
X216662Y-108697D02*
X216664Y-108634D01*
X216670Y-108572D01*
X216679Y-108510D01*
X216693Y-108449D01*
X216710Y-108389D01*
X216731Y-108330D01*
X216755Y-108272D01*
X216783Y-108216D01*
X216814Y-108162D01*
X216849Y-108110D01*
X216886Y-108060D01*
X216927Y-108013D01*
X216971Y-107968D01*
X217017Y-107925D01*
X217066Y-107886D01*
X217117Y-107850D01*
X217170Y-107817D01*
X217225Y-107788D01*
X217282Y-107761D01*
X217340Y-107739D01*
X217400Y-107720D01*
X217461Y-107705D01*
X217522Y-107693D01*
X217584Y-107685D01*
X217647Y-107681D01*
X217709Y-107681D01*
X217772Y-107685D01*
X217834Y-107693D01*
X217895Y-107705D01*
X217956Y-107720D01*
X218016Y-107739D01*
X218074Y-107761D01*
X218131Y-107788D01*
X218186Y-107817D01*
X218239Y-107850D01*
X218290Y-107886D01*
X218339Y-107925D01*
X218385Y-107968D01*
X218429Y-108013D01*
X218470Y-108060D01*
X218507Y-108110D01*
X218542Y-108162D01*
X218573Y-108216D01*
X218601Y-108272D01*
X218625Y-108330D01*
X218646Y-108389D01*
X218663Y-108449D01*
X218677Y-108510D01*
X218686Y-108572D01*
X218692Y-108634D01*
X218694Y-108697D01*
X218694Y-109713D01*
X223916Y-129032D02*
X222646Y-130048D01*
X223916Y-129032D02*
X223916Y-133604D01*
X222646Y-133604D02*
X225186Y-133604D01*
X227320Y-132842D02*
X227320Y-130556D01*
X227320Y-132842D02*
X227322Y-132896D01*
X227328Y-132950D01*
X227337Y-133004D01*
X227351Y-133057D01*
X227368Y-133108D01*
X227389Y-133159D01*
X227413Y-133207D01*
X227441Y-133254D01*
X227472Y-133299D01*
X227506Y-133341D01*
X227543Y-133381D01*
X227583Y-133418D01*
X227625Y-133452D01*
X227670Y-133483D01*
X227717Y-133511D01*
X227765Y-133535D01*
X227816Y-133556D01*
X227867Y-133573D01*
X227920Y-133587D01*
X227974Y-133596D01*
X228028Y-133602D01*
X228082Y-133604D01*
X229352Y-133604D01*
X229352Y-130556D01*
X231648Y-129032D02*
X231648Y-133604D01*
X231648Y-129032D02*
X233680Y-129032D01*
X233680Y-131064D02*
X231648Y-131064D01*
D19*
X172974Y-130048D02*
X169672Y-130048D01*
X163576Y-130048D01*
X160274Y-130048D01*
X163576Y-130048D02*
X163578Y-130157D01*
X163584Y-130265D01*
X163593Y-130374D01*
X163607Y-130482D01*
X163624Y-130589D01*
X163646Y-130696D01*
X163671Y-130802D01*
X163699Y-130907D01*
X163732Y-131011D01*
X163768Y-131113D01*
X163808Y-131214D01*
X163851Y-131314D01*
X163898Y-131412D01*
X163949Y-131509D01*
X164003Y-131603D01*
X164060Y-131696D01*
X164120Y-131786D01*
X164184Y-131875D01*
X164251Y-131961D01*
X164320Y-132044D01*
X164393Y-132125D01*
X164469Y-132203D01*
X164547Y-132279D01*
X164628Y-132352D01*
X164711Y-132421D01*
X164797Y-132488D01*
X164886Y-132552D01*
X164976Y-132612D01*
X165069Y-132669D01*
X165163Y-132723D01*
X165260Y-132774D01*
X165358Y-132821D01*
X165458Y-132864D01*
X165559Y-132904D01*
X165661Y-132940D01*
X165765Y-132973D01*
X165870Y-133001D01*
X165976Y-133026D01*
X166083Y-133048D01*
X166190Y-133065D01*
X166298Y-133079D01*
X166407Y-133088D01*
X166515Y-133094D01*
X166624Y-133096D01*
X166733Y-133094D01*
X166841Y-133088D01*
X166950Y-133079D01*
X167058Y-133065D01*
X167165Y-133048D01*
X167272Y-133026D01*
X167378Y-133001D01*
X167483Y-132973D01*
X167587Y-132940D01*
X167689Y-132904D01*
X167790Y-132864D01*
X167890Y-132821D01*
X167988Y-132774D01*
X168085Y-132723D01*
X168179Y-132669D01*
X168272Y-132612D01*
X168362Y-132552D01*
X168451Y-132488D01*
X168537Y-132421D01*
X168620Y-132352D01*
X168701Y-132279D01*
X168779Y-132203D01*
X168855Y-132125D01*
X168928Y-132044D01*
X168997Y-131961D01*
X169064Y-131875D01*
X169128Y-131786D01*
X169188Y-131696D01*
X169245Y-131603D01*
X169299Y-131509D01*
X169350Y-131412D01*
X169397Y-131314D01*
X169440Y-131214D01*
X169480Y-131113D01*
X169516Y-131011D01*
X169549Y-130907D01*
X169577Y-130802D01*
X169602Y-130696D01*
X169624Y-130589D01*
X169641Y-130482D01*
X169655Y-130374D01*
X169664Y-130265D01*
X169670Y-130157D01*
X169672Y-130048D01*
D13*
X161112Y-143356D02*
X161112Y-148309D01*
X161114Y-148394D01*
X161120Y-148480D01*
X161129Y-148565D01*
X161143Y-148649D01*
X161160Y-148733D01*
X161181Y-148816D01*
X161205Y-148898D01*
X161233Y-148978D01*
X161265Y-149058D01*
X161301Y-149136D01*
X161339Y-149212D01*
X161382Y-149286D01*
X161427Y-149358D01*
X161476Y-149429D01*
X161528Y-149497D01*
X161582Y-149562D01*
X161640Y-149625D01*
X161701Y-149686D01*
X161764Y-149744D01*
X161829Y-149798D01*
X161897Y-149850D01*
X161968Y-149899D01*
X162040Y-149944D01*
X162114Y-149987D01*
X162190Y-150025D01*
X162268Y-150061D01*
X162348Y-150093D01*
X162428Y-150121D01*
X162510Y-150145D01*
X162593Y-150166D01*
X162677Y-150183D01*
X162761Y-150197D01*
X162846Y-150206D01*
X162932Y-150212D01*
X163017Y-150214D01*
X163102Y-150212D01*
X163188Y-150206D01*
X163273Y-150197D01*
X163357Y-150183D01*
X163441Y-150166D01*
X163524Y-150145D01*
X163606Y-150121D01*
X163686Y-150093D01*
X163766Y-150061D01*
X163844Y-150025D01*
X163920Y-149987D01*
X163994Y-149944D01*
X164066Y-149899D01*
X164137Y-149850D01*
X164205Y-149798D01*
X164270Y-149744D01*
X164333Y-149686D01*
X164394Y-149625D01*
X164452Y-149562D01*
X164506Y-149497D01*
X164558Y-149429D01*
X164607Y-149358D01*
X164652Y-149286D01*
X164695Y-149212D01*
X164733Y-149136D01*
X164769Y-149058D01*
X164801Y-148978D01*
X164829Y-148898D01*
X164853Y-148816D01*
X164874Y-148733D01*
X164891Y-148649D01*
X164905Y-148565D01*
X164914Y-148480D01*
X164920Y-148394D01*
X164922Y-148309D01*
X164922Y-143356D01*
X168198Y-144880D02*
X170103Y-143356D01*
X170103Y-150214D01*
X168198Y-150214D02*
X172008Y-150214D01*
D10*
X143348Y-175381D02*
X140046Y-175381D01*
X141881Y-174280D01*
X140046Y-173180D01*
X143348Y-173180D01*
X143348Y-170705D02*
X143348Y-169971D01*
X143348Y-170705D02*
X143346Y-170757D01*
X143341Y-170809D01*
X143331Y-170861D01*
X143318Y-170912D01*
X143302Y-170962D01*
X143282Y-171010D01*
X143258Y-171057D01*
X143231Y-171102D01*
X143202Y-171145D01*
X143169Y-171186D01*
X143133Y-171224D01*
X143095Y-171260D01*
X143054Y-171293D01*
X143011Y-171322D01*
X142966Y-171349D01*
X142919Y-171373D01*
X142871Y-171393D01*
X142821Y-171409D01*
X142770Y-171422D01*
X142718Y-171432D01*
X142666Y-171437D01*
X142614Y-171439D01*
X140780Y-171439D01*
X140728Y-171437D01*
X140676Y-171432D01*
X140624Y-171422D01*
X140573Y-171409D01*
X140524Y-171393D01*
X140475Y-171373D01*
X140428Y-171349D01*
X140383Y-171322D01*
X140340Y-171293D01*
X140299Y-171260D01*
X140261Y-171224D01*
X140225Y-171186D01*
X140192Y-171145D01*
X140163Y-171102D01*
X140136Y-171057D01*
X140112Y-171010D01*
X140092Y-170962D01*
X140076Y-170912D01*
X140063Y-170861D01*
X140053Y-170810D01*
X140048Y-170757D01*
X140046Y-170705D01*
X140046Y-169971D01*
X140046Y-168386D02*
X143348Y-168386D01*
X140046Y-168386D02*
X140046Y-167469D01*
X140048Y-167410D01*
X140054Y-167352D01*
X140063Y-167294D01*
X140076Y-167236D01*
X140093Y-167180D01*
X140113Y-167125D01*
X140137Y-167071D01*
X140164Y-167019D01*
X140194Y-166969D01*
X140228Y-166921D01*
X140265Y-166875D01*
X140304Y-166831D01*
X140347Y-166790D01*
X140391Y-166752D01*
X140438Y-166717D01*
X140488Y-166685D01*
X140539Y-166656D01*
X140592Y-166630D01*
X140646Y-166608D01*
X140702Y-166590D01*
X140759Y-166575D01*
X140817Y-166564D01*
X140875Y-166556D01*
X140934Y-166552D01*
X140992Y-166552D01*
X141051Y-166556D01*
X141109Y-166564D01*
X141167Y-166575D01*
X141224Y-166590D01*
X141280Y-166608D01*
X141334Y-166630D01*
X141387Y-166656D01*
X141438Y-166685D01*
X141488Y-166717D01*
X141535Y-166752D01*
X141579Y-166790D01*
X141622Y-166831D01*
X141661Y-166875D01*
X141698Y-166921D01*
X141732Y-166969D01*
X141762Y-167019D01*
X141789Y-167071D01*
X141813Y-167125D01*
X141833Y-167180D01*
X141850Y-167236D01*
X141863Y-167294D01*
X141872Y-167352D01*
X141878Y-167410D01*
X141880Y-167469D01*
X141881Y-167469D02*
X141881Y-168386D01*
X140413Y-165139D02*
X140046Y-165139D01*
X140046Y-163305D01*
X143348Y-164222D01*
X143348Y-161710D02*
X143348Y-160793D01*
X143346Y-160734D01*
X143340Y-160676D01*
X143331Y-160618D01*
X143318Y-160560D01*
X143301Y-160504D01*
X143281Y-160449D01*
X143257Y-160395D01*
X143230Y-160343D01*
X143200Y-160293D01*
X143166Y-160245D01*
X143129Y-160199D01*
X143090Y-160155D01*
X143047Y-160114D01*
X143003Y-160076D01*
X142956Y-160041D01*
X142906Y-160009D01*
X142855Y-159980D01*
X142802Y-159954D01*
X142748Y-159932D01*
X142692Y-159914D01*
X142635Y-159899D01*
X142577Y-159888D01*
X142519Y-159880D01*
X142460Y-159876D01*
X142402Y-159876D01*
X142343Y-159880D01*
X142285Y-159888D01*
X142227Y-159899D01*
X142170Y-159914D01*
X142114Y-159932D01*
X142060Y-159954D01*
X142007Y-159980D01*
X141956Y-160009D01*
X141906Y-160041D01*
X141859Y-160076D01*
X141815Y-160114D01*
X141772Y-160155D01*
X141733Y-160199D01*
X141696Y-160245D01*
X141662Y-160293D01*
X141632Y-160343D01*
X141605Y-160395D01*
X141581Y-160449D01*
X141561Y-160504D01*
X141544Y-160560D01*
X141531Y-160618D01*
X141522Y-160676D01*
X141516Y-160734D01*
X141514Y-160793D01*
X140046Y-160610D02*
X140046Y-161710D01*
X140046Y-160610D02*
X140048Y-160558D01*
X140053Y-160506D01*
X140063Y-160454D01*
X140076Y-160403D01*
X140092Y-160353D01*
X140112Y-160305D01*
X140136Y-160258D01*
X140163Y-160213D01*
X140192Y-160170D01*
X140225Y-160129D01*
X140261Y-160091D01*
X140299Y-160055D01*
X140340Y-160022D01*
X140383Y-159993D01*
X140428Y-159966D01*
X140475Y-159942D01*
X140523Y-159922D01*
X140573Y-159906D01*
X140624Y-159893D01*
X140676Y-159883D01*
X140728Y-159878D01*
X140780Y-159876D01*
X140832Y-159878D01*
X140884Y-159883D01*
X140936Y-159893D01*
X140987Y-159906D01*
X141037Y-159922D01*
X141085Y-159942D01*
X141132Y-159966D01*
X141177Y-159993D01*
X141220Y-160022D01*
X141261Y-160055D01*
X141299Y-160091D01*
X141335Y-160129D01*
X141368Y-160170D01*
X141397Y-160213D01*
X141424Y-160258D01*
X141448Y-160305D01*
X141468Y-160353D01*
X141484Y-160403D01*
X141497Y-160454D01*
X141507Y-160506D01*
X141512Y-160558D01*
X141514Y-160610D01*
X141514Y-161343D01*
X142431Y-158281D02*
X142372Y-158279D01*
X142314Y-158273D01*
X142256Y-158264D01*
X142198Y-158251D01*
X142142Y-158234D01*
X142087Y-158214D01*
X142033Y-158190D01*
X141981Y-158163D01*
X141931Y-158133D01*
X141883Y-158099D01*
X141837Y-158062D01*
X141793Y-158023D01*
X141752Y-157980D01*
X141714Y-157936D01*
X141679Y-157889D01*
X141647Y-157839D01*
X141618Y-157788D01*
X141592Y-157735D01*
X141570Y-157681D01*
X141552Y-157625D01*
X141537Y-157568D01*
X141526Y-157510D01*
X141518Y-157452D01*
X141514Y-157393D01*
X141514Y-157335D01*
X141518Y-157276D01*
X141526Y-157218D01*
X141537Y-157160D01*
X141552Y-157103D01*
X141570Y-157047D01*
X141592Y-156993D01*
X141618Y-156940D01*
X141647Y-156889D01*
X141679Y-156839D01*
X141714Y-156792D01*
X141752Y-156748D01*
X141793Y-156705D01*
X141837Y-156666D01*
X141883Y-156629D01*
X141931Y-156595D01*
X141981Y-156565D01*
X142033Y-156538D01*
X142087Y-156514D01*
X142142Y-156494D01*
X142198Y-156477D01*
X142256Y-156464D01*
X142314Y-156455D01*
X142372Y-156449D01*
X142431Y-156447D01*
X142490Y-156449D01*
X142548Y-156455D01*
X142606Y-156464D01*
X142664Y-156477D01*
X142720Y-156494D01*
X142775Y-156514D01*
X142829Y-156538D01*
X142881Y-156565D01*
X142931Y-156595D01*
X142979Y-156629D01*
X143025Y-156666D01*
X143069Y-156705D01*
X143110Y-156748D01*
X143148Y-156792D01*
X143183Y-156839D01*
X143215Y-156889D01*
X143244Y-156940D01*
X143270Y-156993D01*
X143292Y-157047D01*
X143310Y-157103D01*
X143325Y-157160D01*
X143336Y-157218D01*
X143344Y-157276D01*
X143348Y-157335D01*
X143348Y-157393D01*
X143344Y-157452D01*
X143336Y-157510D01*
X143325Y-157568D01*
X143310Y-157625D01*
X143292Y-157681D01*
X143270Y-157735D01*
X143244Y-157788D01*
X143215Y-157839D01*
X143183Y-157889D01*
X143148Y-157936D01*
X143110Y-157980D01*
X143069Y-158023D01*
X143025Y-158062D01*
X142979Y-158099D01*
X142931Y-158133D01*
X142881Y-158163D01*
X142829Y-158190D01*
X142775Y-158214D01*
X142720Y-158234D01*
X142664Y-158251D01*
X142606Y-158264D01*
X142548Y-158273D01*
X142490Y-158279D01*
X142431Y-158281D01*
X140780Y-158098D02*
X140728Y-158096D01*
X140676Y-158091D01*
X140624Y-158081D01*
X140573Y-158068D01*
X140523Y-158052D01*
X140475Y-158032D01*
X140428Y-158008D01*
X140383Y-157981D01*
X140340Y-157952D01*
X140299Y-157919D01*
X140261Y-157883D01*
X140225Y-157845D01*
X140192Y-157804D01*
X140163Y-157761D01*
X140136Y-157716D01*
X140112Y-157669D01*
X140092Y-157621D01*
X140076Y-157571D01*
X140063Y-157520D01*
X140053Y-157468D01*
X140048Y-157416D01*
X140046Y-157364D01*
X140048Y-157312D01*
X140053Y-157260D01*
X140063Y-157208D01*
X140076Y-157157D01*
X140092Y-157107D01*
X140112Y-157059D01*
X140136Y-157012D01*
X140163Y-156967D01*
X140192Y-156924D01*
X140225Y-156883D01*
X140261Y-156845D01*
X140299Y-156809D01*
X140340Y-156776D01*
X140383Y-156747D01*
X140428Y-156720D01*
X140475Y-156696D01*
X140523Y-156676D01*
X140573Y-156660D01*
X140624Y-156647D01*
X140676Y-156637D01*
X140728Y-156632D01*
X140780Y-156630D01*
X140832Y-156632D01*
X140884Y-156637D01*
X140936Y-156647D01*
X140987Y-156660D01*
X141037Y-156676D01*
X141085Y-156696D01*
X141132Y-156720D01*
X141177Y-156747D01*
X141220Y-156776D01*
X141261Y-156809D01*
X141299Y-156845D01*
X141335Y-156883D01*
X141368Y-156924D01*
X141397Y-156967D01*
X141424Y-157012D01*
X141448Y-157059D01*
X141468Y-157107D01*
X141484Y-157157D01*
X141497Y-157208D01*
X141507Y-157260D01*
X141512Y-157312D01*
X141514Y-157364D01*
X141512Y-157416D01*
X141507Y-157468D01*
X141497Y-157520D01*
X141484Y-157571D01*
X141468Y-157621D01*
X141448Y-157669D01*
X141424Y-157716D01*
X141397Y-157761D01*
X141368Y-157804D01*
X141335Y-157845D01*
X141299Y-157883D01*
X141261Y-157919D01*
X141220Y-157952D01*
X141177Y-157981D01*
X141132Y-158008D01*
X141085Y-158032D01*
X141037Y-158052D01*
X140987Y-158068D01*
X140936Y-158081D01*
X140884Y-158091D01*
X140832Y-158096D01*
X140780Y-158098D01*
X143348Y-154852D02*
X143348Y-153935D01*
X143346Y-153876D01*
X143340Y-153818D01*
X143331Y-153760D01*
X143318Y-153702D01*
X143301Y-153646D01*
X143281Y-153591D01*
X143257Y-153537D01*
X143230Y-153485D01*
X143200Y-153435D01*
X143166Y-153387D01*
X143129Y-153341D01*
X143090Y-153297D01*
X143047Y-153256D01*
X143003Y-153218D01*
X142956Y-153183D01*
X142906Y-153151D01*
X142855Y-153122D01*
X142802Y-153096D01*
X142748Y-153074D01*
X142692Y-153056D01*
X142635Y-153041D01*
X142577Y-153030D01*
X142519Y-153022D01*
X142460Y-153018D01*
X142402Y-153018D01*
X142343Y-153022D01*
X142285Y-153030D01*
X142227Y-153041D01*
X142170Y-153056D01*
X142114Y-153074D01*
X142060Y-153096D01*
X142007Y-153122D01*
X141956Y-153151D01*
X141906Y-153183D01*
X141859Y-153218D01*
X141815Y-153256D01*
X141772Y-153297D01*
X141733Y-153341D01*
X141696Y-153387D01*
X141662Y-153435D01*
X141632Y-153485D01*
X141605Y-153537D01*
X141581Y-153591D01*
X141561Y-153646D01*
X141544Y-153702D01*
X141531Y-153760D01*
X141522Y-153818D01*
X141516Y-153876D01*
X141514Y-153935D01*
X140046Y-153752D02*
X140046Y-154852D01*
X140046Y-153752D02*
X140048Y-153700D01*
X140053Y-153648D01*
X140063Y-153596D01*
X140076Y-153545D01*
X140092Y-153495D01*
X140112Y-153447D01*
X140136Y-153400D01*
X140163Y-153355D01*
X140192Y-153312D01*
X140225Y-153271D01*
X140261Y-153233D01*
X140299Y-153197D01*
X140340Y-153164D01*
X140383Y-153135D01*
X140428Y-153108D01*
X140475Y-153084D01*
X140523Y-153064D01*
X140573Y-153048D01*
X140624Y-153035D01*
X140676Y-153025D01*
X140728Y-153020D01*
X140780Y-153018D01*
X140832Y-153020D01*
X140884Y-153025D01*
X140936Y-153035D01*
X140987Y-153048D01*
X141037Y-153064D01*
X141085Y-153084D01*
X141132Y-153108D01*
X141177Y-153135D01*
X141220Y-153164D01*
X141261Y-153197D01*
X141299Y-153233D01*
X141335Y-153271D01*
X141368Y-153312D01*
X141397Y-153355D01*
X141424Y-153400D01*
X141448Y-153447D01*
X141468Y-153495D01*
X141484Y-153545D01*
X141497Y-153596D01*
X141507Y-153648D01*
X141512Y-153700D01*
X141514Y-153752D01*
X141514Y-154485D01*
X140780Y-151423D02*
X140046Y-150506D01*
X143348Y-150506D01*
X143348Y-151423D02*
X143348Y-149589D01*
X143348Y-147306D02*
X140046Y-147306D01*
X140046Y-148223D02*
X140046Y-146388D01*
X142064Y-144977D02*
X142064Y-142776D01*
X143348Y-141136D02*
X143348Y-140219D01*
X143346Y-140160D01*
X143340Y-140102D01*
X143331Y-140044D01*
X143318Y-139986D01*
X143301Y-139930D01*
X143281Y-139875D01*
X143257Y-139821D01*
X143230Y-139769D01*
X143200Y-139719D01*
X143166Y-139671D01*
X143129Y-139625D01*
X143090Y-139581D01*
X143047Y-139540D01*
X143003Y-139502D01*
X142956Y-139467D01*
X142906Y-139435D01*
X142855Y-139406D01*
X142802Y-139380D01*
X142748Y-139358D01*
X142692Y-139340D01*
X142635Y-139325D01*
X142577Y-139314D01*
X142519Y-139306D01*
X142460Y-139302D01*
X142402Y-139302D01*
X142343Y-139306D01*
X142285Y-139314D01*
X142227Y-139325D01*
X142170Y-139340D01*
X142114Y-139358D01*
X142060Y-139380D01*
X142007Y-139406D01*
X141956Y-139435D01*
X141906Y-139467D01*
X141859Y-139502D01*
X141815Y-139540D01*
X141772Y-139581D01*
X141733Y-139625D01*
X141696Y-139671D01*
X141662Y-139719D01*
X141632Y-139769D01*
X141605Y-139821D01*
X141581Y-139875D01*
X141561Y-139930D01*
X141544Y-139986D01*
X141531Y-140044D01*
X141522Y-140102D01*
X141516Y-140160D01*
X141514Y-140219D01*
X140046Y-140036D02*
X140046Y-141136D01*
X140046Y-140036D02*
X140048Y-139984D01*
X140053Y-139932D01*
X140063Y-139880D01*
X140076Y-139829D01*
X140092Y-139779D01*
X140112Y-139731D01*
X140136Y-139684D01*
X140163Y-139639D01*
X140192Y-139596D01*
X140225Y-139555D01*
X140261Y-139517D01*
X140299Y-139481D01*
X140340Y-139448D01*
X140383Y-139419D01*
X140428Y-139392D01*
X140475Y-139368D01*
X140523Y-139348D01*
X140573Y-139332D01*
X140624Y-139319D01*
X140676Y-139309D01*
X140728Y-139304D01*
X140780Y-139302D01*
X140832Y-139304D01*
X140884Y-139309D01*
X140936Y-139319D01*
X140987Y-139332D01*
X141037Y-139348D01*
X141085Y-139368D01*
X141132Y-139392D01*
X141177Y-139419D01*
X141220Y-139448D01*
X141261Y-139481D01*
X141299Y-139517D01*
X141335Y-139555D01*
X141368Y-139596D01*
X141397Y-139639D01*
X141424Y-139684D01*
X141448Y-139731D01*
X141468Y-139779D01*
X141484Y-139829D01*
X141497Y-139880D01*
X141507Y-139932D01*
X141512Y-139984D01*
X141514Y-140036D01*
X141514Y-140769D01*
X143348Y-137891D02*
X140046Y-136790D01*
X143348Y-135689D01*
X142523Y-135965D02*
X142523Y-137616D01*
X143348Y-133558D02*
X143348Y-132824D01*
X143348Y-133558D02*
X143346Y-133610D01*
X143341Y-133662D01*
X143331Y-133714D01*
X143318Y-133765D01*
X143302Y-133815D01*
X143282Y-133863D01*
X143258Y-133910D01*
X143231Y-133955D01*
X143202Y-133998D01*
X143169Y-134039D01*
X143133Y-134077D01*
X143095Y-134113D01*
X143054Y-134146D01*
X143011Y-134175D01*
X142966Y-134202D01*
X142919Y-134226D01*
X142871Y-134246D01*
X142821Y-134262D01*
X142770Y-134275D01*
X142718Y-134285D01*
X142666Y-134290D01*
X142614Y-134292D01*
X140780Y-134292D01*
X140728Y-134290D01*
X140676Y-134285D01*
X140624Y-134275D01*
X140573Y-134262D01*
X140524Y-134246D01*
X140475Y-134226D01*
X140428Y-134202D01*
X140383Y-134175D01*
X140340Y-134146D01*
X140299Y-134113D01*
X140261Y-134077D01*
X140225Y-134039D01*
X140192Y-133998D01*
X140163Y-133955D01*
X140136Y-133910D01*
X140112Y-133863D01*
X140092Y-133815D01*
X140076Y-133765D01*
X140063Y-133714D01*
X140053Y-133663D01*
X140048Y-133610D01*
X140046Y-133558D01*
X140046Y-132824D01*
X140046Y-131189D02*
X143348Y-131189D01*
X143348Y-130823D02*
X143348Y-131556D01*
X140046Y-131556D02*
X140046Y-130823D01*
X139679Y-128055D02*
X143715Y-129523D01*
X142431Y-126620D02*
X140963Y-126620D01*
X140904Y-126618D01*
X140846Y-126612D01*
X140788Y-126603D01*
X140730Y-126590D01*
X140674Y-126573D01*
X140619Y-126553D01*
X140565Y-126529D01*
X140513Y-126502D01*
X140463Y-126472D01*
X140415Y-126438D01*
X140369Y-126401D01*
X140325Y-126362D01*
X140284Y-126319D01*
X140246Y-126275D01*
X140211Y-126228D01*
X140179Y-126178D01*
X140150Y-126127D01*
X140124Y-126074D01*
X140102Y-126020D01*
X140084Y-125964D01*
X140069Y-125907D01*
X140058Y-125849D01*
X140050Y-125791D01*
X140046Y-125732D01*
X140046Y-125674D01*
X140050Y-125615D01*
X140058Y-125557D01*
X140069Y-125499D01*
X140084Y-125442D01*
X140102Y-125386D01*
X140124Y-125332D01*
X140150Y-125279D01*
X140179Y-125228D01*
X140211Y-125178D01*
X140246Y-125131D01*
X140284Y-125087D01*
X140325Y-125044D01*
X140369Y-125005D01*
X140415Y-124968D01*
X140463Y-124934D01*
X140513Y-124904D01*
X140565Y-124877D01*
X140619Y-124853D01*
X140674Y-124833D01*
X140730Y-124816D01*
X140788Y-124803D01*
X140846Y-124794D01*
X140904Y-124788D01*
X140963Y-124786D01*
X142431Y-124786D01*
X142490Y-124788D01*
X142548Y-124794D01*
X142606Y-124803D01*
X142664Y-124816D01*
X142720Y-124833D01*
X142775Y-124853D01*
X142829Y-124877D01*
X142881Y-124904D01*
X142931Y-124934D01*
X142979Y-124968D01*
X143025Y-125005D01*
X143069Y-125044D01*
X143110Y-125087D01*
X143148Y-125131D01*
X143183Y-125178D01*
X143215Y-125228D01*
X143244Y-125279D01*
X143270Y-125332D01*
X143292Y-125386D01*
X143310Y-125442D01*
X143325Y-125499D01*
X143336Y-125557D01*
X143344Y-125615D01*
X143348Y-125674D01*
X143348Y-125732D01*
X143344Y-125791D01*
X143336Y-125849D01*
X143325Y-125907D01*
X143310Y-125964D01*
X143292Y-126020D01*
X143270Y-126074D01*
X143244Y-126127D01*
X143215Y-126178D01*
X143183Y-126228D01*
X143148Y-126275D01*
X143110Y-126319D01*
X143069Y-126362D01*
X143025Y-126401D01*
X142979Y-126438D01*
X142931Y-126472D01*
X142881Y-126502D01*
X142829Y-126529D01*
X142775Y-126553D01*
X142720Y-126573D01*
X142664Y-126590D01*
X142606Y-126603D01*
X142548Y-126612D01*
X142490Y-126618D01*
X142431Y-126620D01*
X143348Y-122503D02*
X140046Y-122503D01*
X140046Y-123420D02*
X140046Y-121585D01*
D20*
X188096Y-111672D02*
X205096Y-111672D01*
X205096Y-100672D02*
X188096Y-100672D01*
D21*
X200096Y-106172D03*
D10*
X195418Y-98178D02*
X195418Y-93606D01*
X196688Y-93606D01*
X196757Y-93608D01*
X196825Y-93613D01*
X196893Y-93623D01*
X196961Y-93636D01*
X197028Y-93652D01*
X197094Y-93672D01*
X197158Y-93696D01*
X197221Y-93723D01*
X197283Y-93754D01*
X197343Y-93788D01*
X197401Y-93825D01*
X197457Y-93865D01*
X197510Y-93908D01*
X197561Y-93954D01*
X197610Y-94003D01*
X197656Y-94054D01*
X197699Y-94107D01*
X197739Y-94163D01*
X197776Y-94221D01*
X197810Y-94281D01*
X197841Y-94343D01*
X197868Y-94406D01*
X197892Y-94470D01*
X197912Y-94536D01*
X197928Y-94603D01*
X197941Y-94671D01*
X197951Y-94739D01*
X197956Y-94807D01*
X197958Y-94876D01*
X197958Y-96908D01*
X197956Y-96977D01*
X197951Y-97045D01*
X197941Y-97113D01*
X197928Y-97181D01*
X197912Y-97248D01*
X197892Y-97314D01*
X197868Y-97378D01*
X197841Y-97441D01*
X197810Y-97503D01*
X197776Y-97563D01*
X197739Y-97621D01*
X197699Y-97677D01*
X197656Y-97730D01*
X197610Y-97781D01*
X197561Y-97830D01*
X197510Y-97876D01*
X197457Y-97919D01*
X197401Y-97959D01*
X197343Y-97996D01*
X197283Y-98030D01*
X197221Y-98061D01*
X197158Y-98088D01*
X197094Y-98112D01*
X197028Y-98132D01*
X196961Y-98148D01*
X196893Y-98161D01*
X196825Y-98171D01*
X196757Y-98176D01*
X196688Y-98178D01*
X195418Y-98178D01*
X200142Y-94622D02*
X201412Y-93606D01*
X201412Y-98178D01*
X200142Y-98178D02*
X202682Y-98178D01*
D19*
X187198Y-190754D02*
X179070Y-190754D01*
X187198Y-190754D02*
X187198Y-196342D01*
X187198Y-219202D02*
X179070Y-219202D01*
X187198Y-219202D02*
X187198Y-213614D01*
D10*
X159004Y-210312D02*
X154432Y-210312D01*
X154432Y-209042D01*
X154434Y-208973D01*
X154439Y-208905D01*
X154449Y-208837D01*
X154462Y-208769D01*
X154478Y-208702D01*
X154498Y-208636D01*
X154522Y-208572D01*
X154549Y-208509D01*
X154580Y-208447D01*
X154614Y-208387D01*
X154651Y-208329D01*
X154691Y-208273D01*
X154734Y-208220D01*
X154780Y-208169D01*
X154829Y-208120D01*
X154880Y-208074D01*
X154933Y-208031D01*
X154989Y-207991D01*
X155047Y-207954D01*
X155107Y-207920D01*
X155169Y-207889D01*
X155232Y-207862D01*
X155296Y-207838D01*
X155362Y-207818D01*
X155429Y-207802D01*
X155497Y-207789D01*
X155565Y-207779D01*
X155633Y-207774D01*
X155702Y-207772D01*
X157734Y-207772D01*
X157803Y-207774D01*
X157871Y-207779D01*
X157939Y-207789D01*
X158007Y-207802D01*
X158074Y-207818D01*
X158140Y-207838D01*
X158204Y-207862D01*
X158267Y-207889D01*
X158329Y-207920D01*
X158389Y-207954D01*
X158447Y-207991D01*
X158503Y-208031D01*
X158556Y-208074D01*
X158607Y-208120D01*
X158656Y-208169D01*
X158702Y-208220D01*
X158745Y-208273D01*
X158785Y-208329D01*
X158822Y-208387D01*
X158856Y-208447D01*
X158887Y-208509D01*
X158914Y-208572D01*
X158938Y-208636D01*
X158958Y-208702D01*
X158974Y-208769D01*
X158987Y-208837D01*
X158997Y-208905D01*
X159002Y-208973D01*
X159004Y-209042D01*
X159004Y-210312D01*
X154432Y-204191D02*
X154434Y-204125D01*
X154440Y-204058D01*
X154449Y-203993D01*
X154463Y-203927D01*
X154480Y-203863D01*
X154501Y-203800D01*
X154525Y-203738D01*
X154554Y-203678D01*
X154585Y-203620D01*
X154620Y-203563D01*
X154658Y-203508D01*
X154699Y-203456D01*
X154744Y-203407D01*
X154791Y-203360D01*
X154840Y-203315D01*
X154892Y-203274D01*
X154947Y-203236D01*
X155004Y-203201D01*
X155062Y-203170D01*
X155122Y-203141D01*
X155184Y-203117D01*
X155247Y-203096D01*
X155311Y-203079D01*
X155377Y-203065D01*
X155442Y-203056D01*
X155509Y-203050D01*
X155575Y-203048D01*
X154432Y-204191D02*
X154434Y-204265D01*
X154439Y-204338D01*
X154449Y-204412D01*
X154462Y-204484D01*
X154478Y-204556D01*
X154498Y-204627D01*
X154522Y-204697D01*
X154549Y-204766D01*
X154580Y-204833D01*
X154614Y-204899D01*
X154651Y-204962D01*
X154691Y-205024D01*
X154735Y-205084D01*
X154781Y-205141D01*
X154830Y-205197D01*
X154882Y-205249D01*
X154937Y-205299D01*
X154994Y-205346D01*
X155053Y-205390D01*
X155114Y-205431D01*
X155178Y-205469D01*
X155243Y-205504D01*
X155310Y-205535D01*
X155378Y-205563D01*
X155448Y-205588D01*
X156464Y-203428D02*
X156417Y-203381D01*
X156368Y-203337D01*
X156316Y-203296D01*
X156262Y-203257D01*
X156206Y-203222D01*
X156148Y-203189D01*
X156089Y-203160D01*
X156028Y-203134D01*
X155966Y-203111D01*
X155902Y-203091D01*
X155838Y-203076D01*
X155773Y-203063D01*
X155707Y-203054D01*
X155641Y-203049D01*
X155575Y-203047D01*
X156464Y-203429D02*
X159004Y-205588D01*
X159004Y-203048D01*
D19*
X147066Y-107950D02*
X147066Y-99822D01*
X152654Y-99822D01*
X175514Y-99822D02*
X175514Y-107950D01*
X175514Y-99822D02*
X169926Y-99822D01*
D10*
X143256Y-110490D02*
X138684Y-110490D01*
X138684Y-109220D01*
X138686Y-109151D01*
X138691Y-109083D01*
X138701Y-109015D01*
X138714Y-108947D01*
X138730Y-108880D01*
X138750Y-108814D01*
X138774Y-108750D01*
X138801Y-108687D01*
X138832Y-108625D01*
X138866Y-108565D01*
X138903Y-108507D01*
X138943Y-108451D01*
X138986Y-108398D01*
X139032Y-108347D01*
X139081Y-108298D01*
X139132Y-108252D01*
X139185Y-108209D01*
X139241Y-108169D01*
X139299Y-108132D01*
X139359Y-108098D01*
X139421Y-108067D01*
X139484Y-108040D01*
X139548Y-108016D01*
X139614Y-107996D01*
X139681Y-107980D01*
X139749Y-107967D01*
X139817Y-107957D01*
X139885Y-107952D01*
X139954Y-107950D01*
X141986Y-107950D01*
X142055Y-107952D01*
X142123Y-107957D01*
X142191Y-107967D01*
X142259Y-107980D01*
X142326Y-107996D01*
X142392Y-108016D01*
X142456Y-108040D01*
X142519Y-108067D01*
X142581Y-108098D01*
X142641Y-108132D01*
X142699Y-108169D01*
X142755Y-108209D01*
X142808Y-108252D01*
X142859Y-108298D01*
X142908Y-108347D01*
X142954Y-108398D01*
X142997Y-108451D01*
X143037Y-108507D01*
X143074Y-108565D01*
X143108Y-108625D01*
X143139Y-108687D01*
X143166Y-108750D01*
X143190Y-108814D01*
X143210Y-108880D01*
X143226Y-108947D01*
X143239Y-109015D01*
X143249Y-109083D01*
X143254Y-109151D01*
X143256Y-109220D01*
X143256Y-110490D01*
X143256Y-105766D02*
X143256Y-104496D01*
X143254Y-104426D01*
X143248Y-104356D01*
X143239Y-104287D01*
X143225Y-104218D01*
X143208Y-104150D01*
X143187Y-104084D01*
X143163Y-104018D01*
X143135Y-103954D01*
X143103Y-103892D01*
X143068Y-103831D01*
X143030Y-103772D01*
X142988Y-103716D01*
X142944Y-103662D01*
X142896Y-103610D01*
X142846Y-103562D01*
X142793Y-103516D01*
X142738Y-103473D01*
X142681Y-103433D01*
X142621Y-103396D01*
X142559Y-103363D01*
X142496Y-103333D01*
X142431Y-103307D01*
X142365Y-103284D01*
X142298Y-103265D01*
X142229Y-103250D01*
X142160Y-103238D01*
X142091Y-103230D01*
X142021Y-103226D01*
X141951Y-103226D01*
X141881Y-103230D01*
X141812Y-103238D01*
X141743Y-103250D01*
X141674Y-103265D01*
X141607Y-103284D01*
X141541Y-103307D01*
X141476Y-103333D01*
X141413Y-103363D01*
X141351Y-103396D01*
X141291Y-103433D01*
X141234Y-103473D01*
X141179Y-103516D01*
X141126Y-103562D01*
X141076Y-103610D01*
X141028Y-103662D01*
X140984Y-103716D01*
X140942Y-103772D01*
X140904Y-103831D01*
X140869Y-103892D01*
X140837Y-103954D01*
X140809Y-104018D01*
X140785Y-104084D01*
X140764Y-104150D01*
X140747Y-104218D01*
X140733Y-104287D01*
X140724Y-104356D01*
X140718Y-104426D01*
X140716Y-104496D01*
X138684Y-104242D02*
X138684Y-105766D01*
X138684Y-104242D02*
X138686Y-104179D01*
X138692Y-104117D01*
X138701Y-104055D01*
X138715Y-103994D01*
X138732Y-103934D01*
X138753Y-103875D01*
X138777Y-103817D01*
X138805Y-103761D01*
X138836Y-103707D01*
X138871Y-103655D01*
X138908Y-103605D01*
X138949Y-103558D01*
X138993Y-103513D01*
X139039Y-103470D01*
X139088Y-103431D01*
X139139Y-103395D01*
X139192Y-103362D01*
X139247Y-103333D01*
X139304Y-103306D01*
X139362Y-103284D01*
X139422Y-103265D01*
X139483Y-103250D01*
X139544Y-103238D01*
X139606Y-103230D01*
X139669Y-103226D01*
X139731Y-103226D01*
X139794Y-103230D01*
X139856Y-103238D01*
X139917Y-103250D01*
X139978Y-103265D01*
X140038Y-103284D01*
X140096Y-103306D01*
X140153Y-103333D01*
X140208Y-103362D01*
X140261Y-103395D01*
X140312Y-103431D01*
X140361Y-103470D01*
X140407Y-103513D01*
X140451Y-103558D01*
X140492Y-103605D01*
X140529Y-103655D01*
X140564Y-103707D01*
X140595Y-103761D01*
X140623Y-103817D01*
X140647Y-103875D01*
X140668Y-103934D01*
X140685Y-103994D01*
X140699Y-104055D01*
X140708Y-104117D01*
X140714Y-104179D01*
X140716Y-104242D01*
X140716Y-105258D01*
D19*
X217170Y-169672D02*
X217170Y-185928D01*
X192786Y-185928D02*
X192786Y-169672D01*
D13*
X191064Y-192821D02*
X187085Y-192821D01*
X191064Y-192821D02*
X194049Y-190500D01*
X191064Y-192821D02*
X194049Y-195143D01*
X191064Y-192821D02*
X189738Y-189174D01*
X191064Y-192821D02*
X189738Y-196469D01*
D15*
X189540Y-181483D02*
X186055Y-181483D01*
X189540Y-181483D02*
X189611Y-181481D01*
X189683Y-181475D01*
X189753Y-181466D01*
X189823Y-181453D01*
X189893Y-181436D01*
X189961Y-181415D01*
X190028Y-181391D01*
X190094Y-181363D01*
X190158Y-181332D01*
X190221Y-181297D01*
X190281Y-181259D01*
X190340Y-181218D01*
X190396Y-181174D01*
X190450Y-181127D01*
X190501Y-181078D01*
X190549Y-181025D01*
X190595Y-180970D01*
X190637Y-180913D01*
X190677Y-180853D01*
X190713Y-180792D01*
X190746Y-180728D01*
X190775Y-180663D01*
X190801Y-180597D01*
X190824Y-180529D01*
X190843Y-180460D01*
X190858Y-180390D01*
X190869Y-180320D01*
X190877Y-180249D01*
X190881Y-180178D01*
X190881Y-180106D01*
X190877Y-180035D01*
X190869Y-179964D01*
X190858Y-179894D01*
X190843Y-179824D01*
X190824Y-179755D01*
X190801Y-179687D01*
X190775Y-179621D01*
X190746Y-179556D01*
X190713Y-179492D01*
X190677Y-179431D01*
X190637Y-179371D01*
X190595Y-179314D01*
X190549Y-179259D01*
X190501Y-179206D01*
X190450Y-179157D01*
X190396Y-179110D01*
X190340Y-179066D01*
X190281Y-179025D01*
X190221Y-178987D01*
X190158Y-178952D01*
X190094Y-178921D01*
X190028Y-178893D01*
X189961Y-178869D01*
X189893Y-178848D01*
X189823Y-178831D01*
X189753Y-178818D01*
X189683Y-178809D01*
X189611Y-178803D01*
X189540Y-178801D01*
X189540Y-178802D02*
X186055Y-178802D01*
X188200Y-176759D02*
X188200Y-175150D01*
X188202Y-175085D01*
X188208Y-175021D01*
X188218Y-174957D01*
X188231Y-174893D01*
X188249Y-174831D01*
X188270Y-174770D01*
X188294Y-174710D01*
X188323Y-174652D01*
X188355Y-174595D01*
X188390Y-174541D01*
X188428Y-174489D01*
X188470Y-174439D01*
X188514Y-174392D01*
X188561Y-174348D01*
X188611Y-174306D01*
X188663Y-174268D01*
X188717Y-174233D01*
X188774Y-174201D01*
X188832Y-174172D01*
X188892Y-174148D01*
X188953Y-174127D01*
X189015Y-174109D01*
X189079Y-174096D01*
X189143Y-174086D01*
X189207Y-174080D01*
X189272Y-174078D01*
X189540Y-174078D01*
X189540Y-174077D02*
X189611Y-174079D01*
X189683Y-174085D01*
X189753Y-174094D01*
X189823Y-174107D01*
X189893Y-174124D01*
X189961Y-174145D01*
X190028Y-174169D01*
X190094Y-174197D01*
X190158Y-174228D01*
X190221Y-174263D01*
X190281Y-174301D01*
X190340Y-174342D01*
X190396Y-174386D01*
X190450Y-174433D01*
X190501Y-174482D01*
X190549Y-174535D01*
X190595Y-174590D01*
X190637Y-174647D01*
X190677Y-174707D01*
X190713Y-174768D01*
X190746Y-174832D01*
X190775Y-174897D01*
X190801Y-174963D01*
X190824Y-175031D01*
X190843Y-175100D01*
X190858Y-175170D01*
X190869Y-175240D01*
X190877Y-175311D01*
X190881Y-175382D01*
X190881Y-175454D01*
X190877Y-175525D01*
X190869Y-175596D01*
X190858Y-175666D01*
X190843Y-175736D01*
X190824Y-175805D01*
X190801Y-175873D01*
X190775Y-175939D01*
X190746Y-176004D01*
X190713Y-176068D01*
X190677Y-176129D01*
X190637Y-176189D01*
X190595Y-176246D01*
X190549Y-176301D01*
X190501Y-176354D01*
X190450Y-176403D01*
X190396Y-176450D01*
X190340Y-176494D01*
X190281Y-176535D01*
X190221Y-176573D01*
X190158Y-176608D01*
X190094Y-176639D01*
X190028Y-176667D01*
X189961Y-176691D01*
X189893Y-176712D01*
X189823Y-176729D01*
X189753Y-176742D01*
X189683Y-176751D01*
X189611Y-176757D01*
X189540Y-176759D01*
X188200Y-176759D01*
X188109Y-176757D01*
X188018Y-176751D01*
X187928Y-176742D01*
X187837Y-176728D01*
X187748Y-176711D01*
X187660Y-176690D01*
X187572Y-176665D01*
X187485Y-176636D01*
X187400Y-176604D01*
X187316Y-176569D01*
X187234Y-176529D01*
X187154Y-176487D01*
X187075Y-176441D01*
X186999Y-176391D01*
X186925Y-176339D01*
X186852Y-176283D01*
X186783Y-176224D01*
X186716Y-176163D01*
X186651Y-176098D01*
X186590Y-176031D01*
X186531Y-175962D01*
X186475Y-175890D01*
X186423Y-175815D01*
X186373Y-175739D01*
X186327Y-175660D01*
X186285Y-175580D01*
X186245Y-175498D01*
X186210Y-175414D01*
X186178Y-175329D01*
X186149Y-175242D01*
X186124Y-175155D01*
X186103Y-175066D01*
X186086Y-174977D01*
X186072Y-174887D01*
X186063Y-174796D01*
X186057Y-174705D01*
X186055Y-174614D01*
X216817Y-196413D02*
X217805Y-196413D01*
X216817Y-196413D02*
X216755Y-196411D01*
X216693Y-196405D01*
X216632Y-196395D01*
X216571Y-196382D01*
X216512Y-196365D01*
X216453Y-196344D01*
X216396Y-196319D01*
X216341Y-196291D01*
X216288Y-196259D01*
X216236Y-196224D01*
X216187Y-196186D01*
X216141Y-196145D01*
X216097Y-196101D01*
X216056Y-196055D01*
X216018Y-196006D01*
X215983Y-195954D01*
X215951Y-195901D01*
X215923Y-195846D01*
X215898Y-195789D01*
X215877Y-195730D01*
X215860Y-195671D01*
X215847Y-195610D01*
X215837Y-195549D01*
X215831Y-195487D01*
X215829Y-195425D01*
X215831Y-195363D01*
X215837Y-195301D01*
X215847Y-195240D01*
X215860Y-195179D01*
X215877Y-195120D01*
X215898Y-195061D01*
X215923Y-195004D01*
X215951Y-194949D01*
X215983Y-194896D01*
X216018Y-194844D01*
X216056Y-194795D01*
X216097Y-194749D01*
X216141Y-194705D01*
X216187Y-194664D01*
X216236Y-194626D01*
X216288Y-194591D01*
X216341Y-194559D01*
X216396Y-194531D01*
X216453Y-194506D01*
X216512Y-194485D01*
X216571Y-194468D01*
X216632Y-194455D01*
X216693Y-194445D01*
X216755Y-194439D01*
X216817Y-194437D01*
X217805Y-194437D01*
X217805Y-197993D01*
X216817Y-197993D01*
X216762Y-197991D01*
X216707Y-197985D01*
X216653Y-197976D01*
X216599Y-197962D01*
X216547Y-197945D01*
X216496Y-197925D01*
X216446Y-197901D01*
X216398Y-197873D01*
X216353Y-197842D01*
X216309Y-197808D01*
X216268Y-197771D01*
X216230Y-197732D01*
X216194Y-197689D01*
X216162Y-197645D01*
X216133Y-197598D01*
X216107Y-197549D01*
X216085Y-197499D01*
X216066Y-197447D01*
X216050Y-197394D01*
X216039Y-197340D01*
X216031Y-197286D01*
X216027Y-197231D01*
X216027Y-197175D01*
X216031Y-197120D01*
X216039Y-197066D01*
X216050Y-197012D01*
X216066Y-196959D01*
X216085Y-196907D01*
X216107Y-196857D01*
X216133Y-196808D01*
X216162Y-196761D01*
X216194Y-196717D01*
X216230Y-196674D01*
X216268Y-196635D01*
X216309Y-196598D01*
X216353Y-196564D01*
X216398Y-196533D01*
X216446Y-196505D01*
X216496Y-196481D01*
X216547Y-196461D01*
X216599Y-196444D01*
X216653Y-196430D01*
X216707Y-196421D01*
X216762Y-196415D01*
X216817Y-196413D01*
X213756Y-194437D02*
X212966Y-194437D01*
X213756Y-194437D02*
X213810Y-194439D01*
X213864Y-194444D01*
X213917Y-194454D01*
X213969Y-194466D01*
X214021Y-194483D01*
X214071Y-194502D01*
X214119Y-194526D01*
X214166Y-194552D01*
X214212Y-194582D01*
X214255Y-194614D01*
X214295Y-194650D01*
X214333Y-194688D01*
X214369Y-194728D01*
X214401Y-194771D01*
X214431Y-194817D01*
X214457Y-194864D01*
X214481Y-194912D01*
X214500Y-194962D01*
X214517Y-195014D01*
X214529Y-195066D01*
X214539Y-195119D01*
X214544Y-195173D01*
X214546Y-195227D01*
X214546Y-197203D01*
X214544Y-197257D01*
X214539Y-197311D01*
X214529Y-197364D01*
X214517Y-197416D01*
X214500Y-197468D01*
X214481Y-197518D01*
X214457Y-197566D01*
X214431Y-197613D01*
X214401Y-197659D01*
X214369Y-197702D01*
X214333Y-197742D01*
X214295Y-197780D01*
X214255Y-197816D01*
X214212Y-197848D01*
X214167Y-197878D01*
X214119Y-197904D01*
X214071Y-197928D01*
X214021Y-197947D01*
X213969Y-197964D01*
X213917Y-197976D01*
X213864Y-197986D01*
X213810Y-197991D01*
X213756Y-197993D01*
X212966Y-197993D01*
X211534Y-197993D02*
X211534Y-194437D01*
X210349Y-196017D02*
X211534Y-197993D01*
X210349Y-196017D02*
X209163Y-197993D01*
X209163Y-194437D01*
X207565Y-195425D02*
X207563Y-195487D01*
X207557Y-195549D01*
X207547Y-195610D01*
X207534Y-195671D01*
X207517Y-195730D01*
X207496Y-195789D01*
X207471Y-195846D01*
X207443Y-195901D01*
X207411Y-195954D01*
X207376Y-196006D01*
X207338Y-196055D01*
X207297Y-196101D01*
X207253Y-196145D01*
X207207Y-196186D01*
X207158Y-196224D01*
X207106Y-196259D01*
X207053Y-196291D01*
X206998Y-196319D01*
X206941Y-196344D01*
X206882Y-196365D01*
X206823Y-196382D01*
X206762Y-196395D01*
X206701Y-196405D01*
X206639Y-196411D01*
X206577Y-196413D01*
X206515Y-196411D01*
X206453Y-196405D01*
X206392Y-196395D01*
X206331Y-196382D01*
X206272Y-196365D01*
X206213Y-196344D01*
X206156Y-196319D01*
X206101Y-196291D01*
X206048Y-196259D01*
X205996Y-196224D01*
X205947Y-196186D01*
X205901Y-196145D01*
X205857Y-196101D01*
X205816Y-196055D01*
X205778Y-196006D01*
X205743Y-195954D01*
X205711Y-195901D01*
X205683Y-195846D01*
X205658Y-195789D01*
X205637Y-195730D01*
X205620Y-195671D01*
X205607Y-195610D01*
X205597Y-195549D01*
X205591Y-195487D01*
X205589Y-195425D01*
X205591Y-195363D01*
X205597Y-195301D01*
X205607Y-195240D01*
X205620Y-195179D01*
X205637Y-195120D01*
X205658Y-195061D01*
X205683Y-195004D01*
X205711Y-194949D01*
X205743Y-194896D01*
X205778Y-194844D01*
X205816Y-194795D01*
X205857Y-194749D01*
X205901Y-194705D01*
X205947Y-194664D01*
X205996Y-194626D01*
X206048Y-194591D01*
X206101Y-194559D01*
X206156Y-194531D01*
X206213Y-194506D01*
X206272Y-194485D01*
X206331Y-194468D01*
X206392Y-194455D01*
X206453Y-194445D01*
X206515Y-194439D01*
X206577Y-194437D01*
X206639Y-194439D01*
X206701Y-194445D01*
X206762Y-194455D01*
X206823Y-194468D01*
X206882Y-194485D01*
X206941Y-194506D01*
X206998Y-194531D01*
X207053Y-194559D01*
X207106Y-194591D01*
X207158Y-194626D01*
X207207Y-194664D01*
X207253Y-194705D01*
X207297Y-194749D01*
X207338Y-194795D01*
X207376Y-194844D01*
X207411Y-194896D01*
X207443Y-194949D01*
X207471Y-195004D01*
X207496Y-195061D01*
X207517Y-195120D01*
X207534Y-195179D01*
X207547Y-195240D01*
X207557Y-195301D01*
X207563Y-195363D01*
X207565Y-195425D01*
X207367Y-197203D02*
X207365Y-197258D01*
X207359Y-197313D01*
X207350Y-197367D01*
X207336Y-197421D01*
X207319Y-197473D01*
X207299Y-197524D01*
X207275Y-197574D01*
X207247Y-197622D01*
X207216Y-197667D01*
X207182Y-197711D01*
X207145Y-197752D01*
X207106Y-197790D01*
X207063Y-197826D01*
X207019Y-197858D01*
X206972Y-197887D01*
X206923Y-197913D01*
X206873Y-197935D01*
X206821Y-197954D01*
X206768Y-197970D01*
X206714Y-197981D01*
X206660Y-197989D01*
X206605Y-197993D01*
X206549Y-197993D01*
X206494Y-197989D01*
X206440Y-197981D01*
X206386Y-197970D01*
X206333Y-197954D01*
X206281Y-197935D01*
X206231Y-197913D01*
X206182Y-197887D01*
X206135Y-197858D01*
X206091Y-197826D01*
X206048Y-197790D01*
X206009Y-197752D01*
X205972Y-197711D01*
X205938Y-197667D01*
X205907Y-197622D01*
X205879Y-197574D01*
X205855Y-197524D01*
X205835Y-197473D01*
X205818Y-197421D01*
X205804Y-197367D01*
X205795Y-197313D01*
X205789Y-197258D01*
X205787Y-197203D01*
X205789Y-197148D01*
X205795Y-197093D01*
X205804Y-197039D01*
X205818Y-196985D01*
X205835Y-196933D01*
X205855Y-196882D01*
X205879Y-196832D01*
X205907Y-196784D01*
X205938Y-196739D01*
X205972Y-196695D01*
X206009Y-196654D01*
X206048Y-196616D01*
X206091Y-196580D01*
X206135Y-196548D01*
X206182Y-196519D01*
X206231Y-196493D01*
X206281Y-196471D01*
X206333Y-196452D01*
X206386Y-196436D01*
X206440Y-196425D01*
X206494Y-196417D01*
X206549Y-196413D01*
X206605Y-196413D01*
X206660Y-196417D01*
X206714Y-196425D01*
X206768Y-196436D01*
X206821Y-196452D01*
X206873Y-196471D01*
X206923Y-196493D01*
X206972Y-196519D01*
X207019Y-196548D01*
X207063Y-196580D01*
X207106Y-196616D01*
X207145Y-196654D01*
X207182Y-196695D01*
X207216Y-196739D01*
X207247Y-196784D01*
X207275Y-196832D01*
X207299Y-196882D01*
X207319Y-196933D01*
X207336Y-196985D01*
X207350Y-197039D01*
X207359Y-197093D01*
X207365Y-197148D01*
X207367Y-197203D01*
X204136Y-194437D02*
X202950Y-194437D01*
X202896Y-194439D01*
X202842Y-194444D01*
X202789Y-194454D01*
X202737Y-194466D01*
X202685Y-194483D01*
X202635Y-194502D01*
X202587Y-194526D01*
X202540Y-194552D01*
X202494Y-194582D01*
X202451Y-194614D01*
X202411Y-194650D01*
X202373Y-194688D01*
X202337Y-194728D01*
X202305Y-194771D01*
X202275Y-194817D01*
X202249Y-194864D01*
X202225Y-194912D01*
X202206Y-194962D01*
X202189Y-195014D01*
X202177Y-195066D01*
X202167Y-195119D01*
X202162Y-195173D01*
X202160Y-195227D01*
X202160Y-195622D01*
X202162Y-195676D01*
X202167Y-195730D01*
X202177Y-195783D01*
X202189Y-195835D01*
X202206Y-195887D01*
X202225Y-195937D01*
X202249Y-195985D01*
X202275Y-196032D01*
X202305Y-196078D01*
X202337Y-196121D01*
X202373Y-196161D01*
X202411Y-196199D01*
X202451Y-196235D01*
X202494Y-196267D01*
X202540Y-196297D01*
X202587Y-196323D01*
X202635Y-196347D01*
X202685Y-196366D01*
X202737Y-196383D01*
X202789Y-196395D01*
X202842Y-196405D01*
X202896Y-196410D01*
X202950Y-196412D01*
X202950Y-196413D02*
X204136Y-196413D01*
X204136Y-197993D01*
X202160Y-197993D01*
X200707Y-197993D02*
X200707Y-197598D01*
X200707Y-197993D02*
X198731Y-197993D01*
X199719Y-194437D01*
X197117Y-196413D02*
X196129Y-196413D01*
X196067Y-196411D01*
X196005Y-196405D01*
X195944Y-196395D01*
X195883Y-196382D01*
X195824Y-196365D01*
X195765Y-196344D01*
X195708Y-196319D01*
X195653Y-196291D01*
X195600Y-196259D01*
X195548Y-196224D01*
X195499Y-196186D01*
X195453Y-196145D01*
X195409Y-196101D01*
X195368Y-196055D01*
X195330Y-196006D01*
X195295Y-195954D01*
X195263Y-195901D01*
X195235Y-195846D01*
X195210Y-195789D01*
X195189Y-195730D01*
X195172Y-195671D01*
X195159Y-195610D01*
X195149Y-195549D01*
X195143Y-195487D01*
X195141Y-195425D01*
X195143Y-195363D01*
X195149Y-195301D01*
X195159Y-195240D01*
X195172Y-195179D01*
X195189Y-195120D01*
X195210Y-195061D01*
X195235Y-195004D01*
X195263Y-194949D01*
X195295Y-194896D01*
X195330Y-194844D01*
X195368Y-194795D01*
X195409Y-194749D01*
X195453Y-194705D01*
X195499Y-194664D01*
X195548Y-194626D01*
X195600Y-194591D01*
X195653Y-194559D01*
X195708Y-194531D01*
X195765Y-194506D01*
X195824Y-194485D01*
X195883Y-194468D01*
X195944Y-194455D01*
X196005Y-194445D01*
X196067Y-194439D01*
X196129Y-194437D01*
X197117Y-194437D01*
X197117Y-197993D01*
X196129Y-197993D01*
X196074Y-197991D01*
X196019Y-197985D01*
X195965Y-197976D01*
X195911Y-197962D01*
X195859Y-197945D01*
X195808Y-197925D01*
X195758Y-197901D01*
X195710Y-197873D01*
X195665Y-197842D01*
X195621Y-197808D01*
X195580Y-197771D01*
X195542Y-197732D01*
X195506Y-197689D01*
X195474Y-197645D01*
X195445Y-197598D01*
X195419Y-197549D01*
X195397Y-197499D01*
X195378Y-197447D01*
X195362Y-197394D01*
X195351Y-197340D01*
X195343Y-197286D01*
X195339Y-197231D01*
X195339Y-197175D01*
X195343Y-197120D01*
X195351Y-197066D01*
X195362Y-197012D01*
X195378Y-196959D01*
X195397Y-196907D01*
X195419Y-196857D01*
X195445Y-196808D01*
X195474Y-196761D01*
X195506Y-196717D01*
X195542Y-196674D01*
X195580Y-196635D01*
X195621Y-196598D01*
X195665Y-196564D01*
X195710Y-196533D01*
X195758Y-196505D01*
X195808Y-196481D01*
X195859Y-196461D01*
X195911Y-196444D01*
X195965Y-196430D01*
X196019Y-196421D01*
X196074Y-196415D01*
X196129Y-196413D01*
X192778Y-194437D02*
X192724Y-194439D01*
X192670Y-194444D01*
X192617Y-194454D01*
X192565Y-194466D01*
X192513Y-194483D01*
X192463Y-194502D01*
X192415Y-194526D01*
X192368Y-194552D01*
X192322Y-194582D01*
X192279Y-194614D01*
X192239Y-194650D01*
X192201Y-194688D01*
X192165Y-194728D01*
X192133Y-194771D01*
X192103Y-194817D01*
X192077Y-194864D01*
X192053Y-194912D01*
X192034Y-194962D01*
X192017Y-195014D01*
X192005Y-195066D01*
X191995Y-195119D01*
X191990Y-195173D01*
X191988Y-195227D01*
X192778Y-194437D02*
X192855Y-194439D01*
X192933Y-194444D01*
X193010Y-194453D01*
X193086Y-194466D01*
X193162Y-194482D01*
X193237Y-194501D01*
X193311Y-194524D01*
X193384Y-194551D01*
X193456Y-194581D01*
X193526Y-194614D01*
X193594Y-194650D01*
X193661Y-194690D01*
X193726Y-194732D01*
X193788Y-194778D01*
X193849Y-194826D01*
X193907Y-194877D01*
X193963Y-194931D01*
X193864Y-197203D02*
X193862Y-197257D01*
X193857Y-197311D01*
X193847Y-197364D01*
X193835Y-197416D01*
X193818Y-197468D01*
X193799Y-197518D01*
X193775Y-197566D01*
X193749Y-197613D01*
X193719Y-197659D01*
X193687Y-197702D01*
X193651Y-197742D01*
X193613Y-197780D01*
X193573Y-197816D01*
X193530Y-197848D01*
X193484Y-197878D01*
X193437Y-197904D01*
X193389Y-197928D01*
X193339Y-197947D01*
X193287Y-197964D01*
X193235Y-197976D01*
X193182Y-197986D01*
X193128Y-197991D01*
X193074Y-197993D01*
X193001Y-197991D01*
X192928Y-197986D01*
X192855Y-197977D01*
X192782Y-197964D01*
X192711Y-197948D01*
X192640Y-197928D01*
X192571Y-197905D01*
X192502Y-197878D01*
X192435Y-197848D01*
X192370Y-197815D01*
X192306Y-197779D01*
X192245Y-197739D01*
X192185Y-197697D01*
X193470Y-196511D02*
X193517Y-196541D01*
X193561Y-196574D01*
X193604Y-196610D01*
X193643Y-196649D01*
X193680Y-196690D01*
X193714Y-196734D01*
X193745Y-196781D01*
X193773Y-196829D01*
X193797Y-196879D01*
X193817Y-196931D01*
X193834Y-196983D01*
X193848Y-197037D01*
X193857Y-197092D01*
X193863Y-197147D01*
X193865Y-197203D01*
X192382Y-195919D02*
X192335Y-195889D01*
X192291Y-195856D01*
X192248Y-195820D01*
X192209Y-195781D01*
X192172Y-195739D01*
X192138Y-195696D01*
X192107Y-195649D01*
X192079Y-195601D01*
X192055Y-195551D01*
X192035Y-195499D01*
X192018Y-195446D01*
X192004Y-195393D01*
X191995Y-195338D01*
X191989Y-195283D01*
X191987Y-195227D01*
X192383Y-195919D02*
X193469Y-196511D01*
D22*
X166092Y-166684D03*
X166092Y-174184D03*
D23*
X166092Y-170434D03*
D15*
X149987Y-177165D02*
X146431Y-177165D01*
X149987Y-177165D02*
X149987Y-175585D01*
X149987Y-174193D02*
X149987Y-172613D01*
X149987Y-174193D02*
X146431Y-174193D01*
X146431Y-172613D01*
X148011Y-173008D02*
X148011Y-174193D01*
X146431Y-171228D02*
X149987Y-171228D01*
X146431Y-171228D02*
X146431Y-170240D01*
X146433Y-170178D01*
X146439Y-170116D01*
X146449Y-170055D01*
X146462Y-169994D01*
X146479Y-169935D01*
X146500Y-169876D01*
X146525Y-169819D01*
X146553Y-169764D01*
X146585Y-169711D01*
X146620Y-169659D01*
X146658Y-169610D01*
X146699Y-169564D01*
X146743Y-169520D01*
X146789Y-169479D01*
X146838Y-169441D01*
X146890Y-169406D01*
X146943Y-169374D01*
X146998Y-169346D01*
X147055Y-169321D01*
X147114Y-169300D01*
X147173Y-169283D01*
X147234Y-169270D01*
X147295Y-169260D01*
X147357Y-169254D01*
X147419Y-169252D01*
X148999Y-169252D01*
X149061Y-169254D01*
X149123Y-169260D01*
X149184Y-169270D01*
X149245Y-169283D01*
X149304Y-169300D01*
X149363Y-169321D01*
X149420Y-169346D01*
X149475Y-169374D01*
X149528Y-169406D01*
X149580Y-169441D01*
X149629Y-169479D01*
X149675Y-169520D01*
X149719Y-169564D01*
X149760Y-169610D01*
X149798Y-169659D01*
X149833Y-169711D01*
X149865Y-169764D01*
X149893Y-169819D01*
X149918Y-169876D01*
X149939Y-169935D01*
X149956Y-169994D01*
X149970Y-170055D01*
X149979Y-170116D01*
X149985Y-170178D01*
X149987Y-170240D01*
X149987Y-171228D01*
X147221Y-167684D02*
X146431Y-166697D01*
X149987Y-166697D01*
X149987Y-167684D02*
X149987Y-165709D01*
D24*
X303724Y-106148D03*
X296224Y-106148D03*
D23*
X299974Y-106148D03*
D10*
X307086Y-112715D02*
X311658Y-112715D01*
X311658Y-110683D01*
X311658Y-108753D02*
X311658Y-106721D01*
X311658Y-108753D02*
X307086Y-108753D01*
X307086Y-106721D01*
X309118Y-107229D02*
X309118Y-108753D01*
X307086Y-104800D02*
X311658Y-104800D01*
X307086Y-104800D02*
X307086Y-103530D01*
X307088Y-103461D01*
X307093Y-103393D01*
X307103Y-103325D01*
X307116Y-103257D01*
X307132Y-103190D01*
X307152Y-103124D01*
X307176Y-103060D01*
X307203Y-102997D01*
X307234Y-102935D01*
X307268Y-102875D01*
X307305Y-102817D01*
X307345Y-102761D01*
X307388Y-102708D01*
X307434Y-102657D01*
X307483Y-102608D01*
X307534Y-102562D01*
X307587Y-102519D01*
X307643Y-102479D01*
X307701Y-102442D01*
X307761Y-102408D01*
X307823Y-102377D01*
X307886Y-102350D01*
X307950Y-102326D01*
X308016Y-102306D01*
X308083Y-102290D01*
X308151Y-102277D01*
X308219Y-102267D01*
X308287Y-102262D01*
X308356Y-102260D01*
X310388Y-102260D01*
X310457Y-102262D01*
X310525Y-102267D01*
X310593Y-102277D01*
X310661Y-102290D01*
X310728Y-102306D01*
X310794Y-102326D01*
X310858Y-102350D01*
X310921Y-102377D01*
X310983Y-102408D01*
X311043Y-102442D01*
X311101Y-102479D01*
X311157Y-102519D01*
X311210Y-102562D01*
X311261Y-102608D01*
X311310Y-102657D01*
X311356Y-102708D01*
X311399Y-102761D01*
X311439Y-102817D01*
X311476Y-102875D01*
X311510Y-102935D01*
X311541Y-102997D01*
X311568Y-103060D01*
X311592Y-103124D01*
X311612Y-103190D01*
X311628Y-103257D01*
X311641Y-103325D01*
X311651Y-103393D01*
X311656Y-103461D01*
X311658Y-103530D01*
X311658Y-104800D01*
X307086Y-98679D02*
X307088Y-98613D01*
X307094Y-98546D01*
X307103Y-98481D01*
X307117Y-98415D01*
X307134Y-98351D01*
X307155Y-98288D01*
X307179Y-98226D01*
X307208Y-98166D01*
X307239Y-98108D01*
X307274Y-98051D01*
X307312Y-97996D01*
X307353Y-97944D01*
X307398Y-97895D01*
X307445Y-97848D01*
X307494Y-97803D01*
X307546Y-97762D01*
X307601Y-97724D01*
X307658Y-97689D01*
X307716Y-97658D01*
X307776Y-97629D01*
X307838Y-97605D01*
X307901Y-97584D01*
X307965Y-97567D01*
X308031Y-97553D01*
X308096Y-97544D01*
X308163Y-97538D01*
X308229Y-97536D01*
X307086Y-98679D02*
X307088Y-98753D01*
X307093Y-98826D01*
X307103Y-98900D01*
X307116Y-98972D01*
X307132Y-99044D01*
X307152Y-99115D01*
X307176Y-99185D01*
X307203Y-99254D01*
X307234Y-99321D01*
X307268Y-99387D01*
X307305Y-99450D01*
X307345Y-99512D01*
X307389Y-99572D01*
X307435Y-99629D01*
X307484Y-99685D01*
X307536Y-99737D01*
X307591Y-99787D01*
X307648Y-99834D01*
X307707Y-99878D01*
X307768Y-99919D01*
X307832Y-99957D01*
X307897Y-99992D01*
X307964Y-100023D01*
X308032Y-100051D01*
X308102Y-100076D01*
X309118Y-97917D02*
X309071Y-97870D01*
X309022Y-97826D01*
X308970Y-97785D01*
X308916Y-97746D01*
X308860Y-97711D01*
X308802Y-97678D01*
X308743Y-97649D01*
X308682Y-97623D01*
X308620Y-97600D01*
X308556Y-97580D01*
X308492Y-97565D01*
X308427Y-97552D01*
X308361Y-97543D01*
X308295Y-97538D01*
X308229Y-97536D01*
X309118Y-97917D02*
X311658Y-100076D01*
X311658Y-97536D01*
X160274Y-184117D02*
X155702Y-184117D01*
X155702Y-182847D01*
X155704Y-182777D01*
X155710Y-182707D01*
X155719Y-182638D01*
X155733Y-182569D01*
X155750Y-182501D01*
X155771Y-182435D01*
X155795Y-182369D01*
X155823Y-182305D01*
X155855Y-182243D01*
X155890Y-182182D01*
X155928Y-182123D01*
X155970Y-182067D01*
X156014Y-182013D01*
X156062Y-181961D01*
X156112Y-181913D01*
X156165Y-181867D01*
X156220Y-181824D01*
X156277Y-181784D01*
X156337Y-181747D01*
X156399Y-181714D01*
X156462Y-181684D01*
X156527Y-181658D01*
X156593Y-181635D01*
X156660Y-181616D01*
X156729Y-181601D01*
X156798Y-181589D01*
X156867Y-181581D01*
X156937Y-181577D01*
X157007Y-181577D01*
X157077Y-181581D01*
X157146Y-181589D01*
X157215Y-181601D01*
X157284Y-181616D01*
X157351Y-181635D01*
X157417Y-181658D01*
X157482Y-181684D01*
X157545Y-181714D01*
X157607Y-181747D01*
X157667Y-181784D01*
X157724Y-181824D01*
X157779Y-181867D01*
X157832Y-181913D01*
X157882Y-181961D01*
X157930Y-182013D01*
X157974Y-182067D01*
X158016Y-182123D01*
X158054Y-182182D01*
X158089Y-182243D01*
X158121Y-182305D01*
X158149Y-182369D01*
X158173Y-182435D01*
X158194Y-182501D01*
X158211Y-182569D01*
X158225Y-182638D01*
X158234Y-182707D01*
X158240Y-182777D01*
X158242Y-182847D01*
X158242Y-184117D01*
X158242Y-182593D02*
X160274Y-181577D01*
X156718Y-179578D02*
X155702Y-178308D01*
X160274Y-178308D01*
X160274Y-179578D02*
X160274Y-177038D01*
D15*
X182499Y-174879D02*
X182499Y-173891D01*
X182497Y-173829D01*
X182491Y-173767D01*
X182481Y-173706D01*
X182468Y-173645D01*
X182451Y-173586D01*
X182430Y-173527D01*
X182405Y-173470D01*
X182377Y-173415D01*
X182345Y-173362D01*
X182310Y-173310D01*
X182272Y-173261D01*
X182231Y-173215D01*
X182187Y-173171D01*
X182141Y-173130D01*
X182092Y-173092D01*
X182040Y-173057D01*
X181987Y-173025D01*
X181932Y-172997D01*
X181875Y-172972D01*
X181816Y-172951D01*
X181757Y-172934D01*
X181696Y-172921D01*
X181635Y-172911D01*
X181573Y-172905D01*
X181511Y-172903D01*
X181449Y-172905D01*
X181387Y-172911D01*
X181326Y-172921D01*
X181265Y-172934D01*
X181206Y-172951D01*
X181147Y-172972D01*
X181090Y-172997D01*
X181035Y-173025D01*
X180982Y-173057D01*
X180930Y-173092D01*
X180881Y-173130D01*
X180835Y-173171D01*
X180791Y-173215D01*
X180750Y-173261D01*
X180712Y-173310D01*
X180677Y-173362D01*
X180645Y-173415D01*
X180617Y-173470D01*
X180592Y-173527D01*
X180571Y-173586D01*
X180554Y-173645D01*
X180541Y-173706D01*
X180531Y-173767D01*
X180525Y-173829D01*
X180523Y-173891D01*
X178943Y-173694D02*
X178943Y-174879D01*
X178943Y-173694D02*
X178945Y-173639D01*
X178951Y-173584D01*
X178960Y-173530D01*
X178974Y-173476D01*
X178991Y-173424D01*
X179011Y-173373D01*
X179035Y-173323D01*
X179063Y-173275D01*
X179094Y-173230D01*
X179128Y-173186D01*
X179165Y-173145D01*
X179204Y-173107D01*
X179247Y-173071D01*
X179291Y-173039D01*
X179338Y-173010D01*
X179387Y-172984D01*
X179437Y-172962D01*
X179489Y-172943D01*
X179542Y-172927D01*
X179596Y-172916D01*
X179650Y-172908D01*
X179705Y-172904D01*
X179761Y-172904D01*
X179816Y-172908D01*
X179870Y-172916D01*
X179924Y-172927D01*
X179977Y-172943D01*
X180029Y-172962D01*
X180079Y-172984D01*
X180128Y-173010D01*
X180175Y-173039D01*
X180219Y-173071D01*
X180262Y-173107D01*
X180301Y-173145D01*
X180338Y-173186D01*
X180372Y-173230D01*
X180403Y-173275D01*
X180431Y-173323D01*
X180455Y-173373D01*
X180475Y-173424D01*
X180492Y-173476D01*
X180506Y-173530D01*
X180515Y-173584D01*
X180521Y-173639D01*
X180523Y-173694D01*
X180523Y-174484D01*
X182301Y-171590D02*
X182499Y-171590D01*
X182301Y-171590D02*
X182301Y-171392D01*
X182499Y-171392D01*
X182499Y-171590D01*
X182499Y-170078D02*
X182499Y-169091D01*
X182497Y-169029D01*
X182491Y-168967D01*
X182481Y-168906D01*
X182468Y-168845D01*
X182451Y-168786D01*
X182430Y-168727D01*
X182405Y-168670D01*
X182377Y-168615D01*
X182345Y-168562D01*
X182310Y-168510D01*
X182272Y-168461D01*
X182231Y-168415D01*
X182187Y-168371D01*
X182141Y-168330D01*
X182092Y-168292D01*
X182040Y-168257D01*
X181987Y-168225D01*
X181932Y-168197D01*
X181875Y-168172D01*
X181816Y-168151D01*
X181757Y-168134D01*
X181696Y-168121D01*
X181635Y-168111D01*
X181573Y-168105D01*
X181511Y-168103D01*
X181449Y-168105D01*
X181387Y-168111D01*
X181326Y-168121D01*
X181265Y-168134D01*
X181206Y-168151D01*
X181147Y-168172D01*
X181090Y-168197D01*
X181035Y-168225D01*
X180982Y-168257D01*
X180930Y-168292D01*
X180881Y-168330D01*
X180835Y-168371D01*
X180791Y-168415D01*
X180750Y-168461D01*
X180712Y-168510D01*
X180677Y-168562D01*
X180645Y-168615D01*
X180617Y-168670D01*
X180592Y-168727D01*
X180571Y-168786D01*
X180554Y-168845D01*
X180541Y-168906D01*
X180531Y-168967D01*
X180525Y-169029D01*
X180523Y-169091D01*
X178943Y-168893D02*
X178943Y-170078D01*
X178943Y-168893D02*
X178945Y-168838D01*
X178951Y-168783D01*
X178960Y-168729D01*
X178974Y-168675D01*
X178991Y-168623D01*
X179011Y-168572D01*
X179035Y-168522D01*
X179063Y-168474D01*
X179094Y-168429D01*
X179128Y-168385D01*
X179165Y-168344D01*
X179204Y-168306D01*
X179247Y-168270D01*
X179291Y-168238D01*
X179338Y-168209D01*
X179387Y-168183D01*
X179437Y-168161D01*
X179489Y-168142D01*
X179542Y-168126D01*
X179596Y-168115D01*
X179650Y-168107D01*
X179705Y-168103D01*
X179761Y-168103D01*
X179816Y-168107D01*
X179870Y-168115D01*
X179924Y-168126D01*
X179977Y-168142D01*
X180029Y-168161D01*
X180079Y-168183D01*
X180128Y-168209D01*
X180175Y-168238D01*
X180219Y-168270D01*
X180262Y-168306D01*
X180301Y-168344D01*
X180338Y-168385D01*
X180372Y-168429D01*
X180403Y-168474D01*
X180431Y-168522D01*
X180455Y-168572D01*
X180475Y-168623D01*
X180492Y-168675D01*
X180506Y-168729D01*
X180515Y-168783D01*
X180521Y-168838D01*
X180523Y-168893D01*
X180523Y-169683D01*
X178943Y-166529D02*
X182499Y-166529D01*
X181314Y-166529D02*
X180128Y-164949D01*
X180820Y-165838D02*
X182499Y-164949D01*
X180128Y-163646D02*
X180062Y-163644D01*
X179995Y-163639D01*
X179930Y-163629D01*
X179864Y-163616D01*
X179800Y-163600D01*
X179737Y-163580D01*
X179675Y-163556D01*
X179614Y-163529D01*
X179555Y-163498D01*
X179498Y-163464D01*
X179442Y-163427D01*
X179389Y-163387D01*
X179338Y-163345D01*
X179290Y-163299D01*
X179244Y-163251D01*
X179202Y-163200D01*
X179162Y-163147D01*
X179125Y-163091D01*
X179091Y-163034D01*
X179060Y-162975D01*
X179033Y-162914D01*
X179010Y-162852D01*
X178989Y-162789D01*
X178973Y-162725D01*
X178960Y-162659D01*
X178950Y-162594D01*
X178945Y-162527D01*
X178943Y-162461D01*
X180128Y-163647D02*
X180523Y-163647D01*
X180587Y-163645D01*
X180650Y-163640D01*
X180713Y-163631D01*
X180776Y-163618D01*
X180837Y-163602D01*
X180898Y-163582D01*
X180957Y-163559D01*
X181015Y-163533D01*
X181072Y-163503D01*
X181126Y-163471D01*
X181179Y-163435D01*
X181230Y-163396D01*
X181278Y-163354D01*
X181324Y-163310D01*
X181367Y-163263D01*
X181407Y-163214D01*
X181445Y-163163D01*
X181480Y-163109D01*
X181511Y-163054D01*
X182499Y-163054D01*
X182499Y-163647D01*
X180128Y-161276D02*
X180062Y-161278D01*
X179995Y-161283D01*
X179930Y-161293D01*
X179864Y-161306D01*
X179800Y-161322D01*
X179737Y-161342D01*
X179675Y-161366D01*
X179614Y-161393D01*
X179555Y-161424D01*
X179498Y-161458D01*
X179442Y-161495D01*
X179389Y-161535D01*
X179338Y-161577D01*
X179290Y-161623D01*
X179244Y-161671D01*
X179202Y-161722D01*
X179162Y-161775D01*
X179125Y-161831D01*
X179091Y-161888D01*
X179060Y-161947D01*
X179033Y-162008D01*
X179009Y-162070D01*
X178989Y-162133D01*
X178973Y-162197D01*
X178960Y-162263D01*
X178950Y-162328D01*
X178945Y-162395D01*
X178943Y-162461D01*
X180128Y-161276D02*
X180523Y-161276D01*
X180523Y-161277D02*
X180587Y-161279D01*
X180650Y-161284D01*
X180713Y-161293D01*
X180775Y-161306D01*
X180837Y-161322D01*
X180898Y-161342D01*
X180957Y-161365D01*
X181015Y-161391D01*
X181071Y-161420D01*
X181126Y-161453D01*
X181178Y-161489D01*
X181229Y-161528D01*
X181277Y-161569D01*
X181323Y-161614D01*
X181366Y-161660D01*
X181407Y-161709D01*
X181444Y-161761D01*
X181479Y-161814D01*
X181510Y-161869D01*
X181511Y-161869D02*
X182499Y-161869D01*
X182499Y-161276D01*
D10*
X307340Y-89408D02*
X311912Y-89408D01*
X307340Y-89408D02*
X307340Y-88138D01*
X307342Y-88068D01*
X307348Y-87998D01*
X307357Y-87929D01*
X307371Y-87860D01*
X307388Y-87792D01*
X307409Y-87726D01*
X307433Y-87660D01*
X307461Y-87596D01*
X307493Y-87534D01*
X307528Y-87473D01*
X307566Y-87414D01*
X307608Y-87358D01*
X307652Y-87304D01*
X307700Y-87252D01*
X307750Y-87204D01*
X307803Y-87158D01*
X307858Y-87115D01*
X307915Y-87075D01*
X307975Y-87038D01*
X308037Y-87005D01*
X308100Y-86975D01*
X308165Y-86949D01*
X308231Y-86926D01*
X308298Y-86907D01*
X308367Y-86892D01*
X308436Y-86880D01*
X308505Y-86872D01*
X308575Y-86868D01*
X308645Y-86868D01*
X308715Y-86872D01*
X308784Y-86880D01*
X308853Y-86892D01*
X308922Y-86907D01*
X308989Y-86926D01*
X309055Y-86949D01*
X309120Y-86975D01*
X309183Y-87005D01*
X309245Y-87038D01*
X309305Y-87075D01*
X309362Y-87115D01*
X309417Y-87158D01*
X309470Y-87204D01*
X309520Y-87252D01*
X309568Y-87304D01*
X309612Y-87358D01*
X309654Y-87414D01*
X309692Y-87473D01*
X309727Y-87534D01*
X309759Y-87596D01*
X309787Y-87660D01*
X309811Y-87726D01*
X309832Y-87792D01*
X309849Y-87860D01*
X309863Y-87929D01*
X309872Y-87998D01*
X309878Y-88068D01*
X309880Y-88138D01*
X309880Y-89408D01*
X309880Y-87884D02*
X311912Y-86868D01*
X308483Y-82329D02*
X308417Y-82331D01*
X308350Y-82337D01*
X308285Y-82346D01*
X308219Y-82360D01*
X308155Y-82377D01*
X308092Y-82398D01*
X308030Y-82422D01*
X307970Y-82451D01*
X307912Y-82482D01*
X307855Y-82517D01*
X307800Y-82555D01*
X307748Y-82596D01*
X307699Y-82641D01*
X307652Y-82688D01*
X307607Y-82737D01*
X307566Y-82789D01*
X307528Y-82844D01*
X307493Y-82901D01*
X307462Y-82959D01*
X307433Y-83019D01*
X307409Y-83081D01*
X307388Y-83144D01*
X307371Y-83208D01*
X307357Y-83274D01*
X307348Y-83339D01*
X307342Y-83406D01*
X307340Y-83472D01*
X307342Y-83546D01*
X307347Y-83619D01*
X307357Y-83693D01*
X307370Y-83765D01*
X307386Y-83837D01*
X307406Y-83908D01*
X307430Y-83978D01*
X307457Y-84047D01*
X307488Y-84114D01*
X307522Y-84180D01*
X307559Y-84243D01*
X307599Y-84305D01*
X307643Y-84365D01*
X307689Y-84422D01*
X307738Y-84478D01*
X307790Y-84530D01*
X307845Y-84580D01*
X307902Y-84627D01*
X307961Y-84671D01*
X308022Y-84712D01*
X308086Y-84750D01*
X308151Y-84785D01*
X308218Y-84816D01*
X308286Y-84844D01*
X308356Y-84869D01*
X309372Y-82710D02*
X309325Y-82663D01*
X309276Y-82619D01*
X309224Y-82578D01*
X309170Y-82539D01*
X309114Y-82504D01*
X309056Y-82471D01*
X308997Y-82442D01*
X308936Y-82416D01*
X308874Y-82393D01*
X308810Y-82373D01*
X308746Y-82358D01*
X308681Y-82345D01*
X308615Y-82336D01*
X308549Y-82331D01*
X308483Y-82329D01*
X309372Y-82710D02*
X311912Y-84869D01*
X311912Y-82329D01*
X303022Y-76708D02*
X303022Y-75438D01*
X303020Y-75368D01*
X303014Y-75298D01*
X303005Y-75229D01*
X302991Y-75160D01*
X302974Y-75092D01*
X302953Y-75026D01*
X302929Y-74960D01*
X302901Y-74896D01*
X302869Y-74834D01*
X302834Y-74773D01*
X302796Y-74714D01*
X302754Y-74658D01*
X302710Y-74604D01*
X302662Y-74552D01*
X302612Y-74504D01*
X302559Y-74458D01*
X302504Y-74415D01*
X302447Y-74375D01*
X302387Y-74338D01*
X302325Y-74305D01*
X302262Y-74275D01*
X302197Y-74249D01*
X302131Y-74226D01*
X302064Y-74207D01*
X301995Y-74192D01*
X301926Y-74180D01*
X301857Y-74172D01*
X301787Y-74168D01*
X301717Y-74168D01*
X301647Y-74172D01*
X301578Y-74180D01*
X301509Y-74192D01*
X301440Y-74207D01*
X301373Y-74226D01*
X301307Y-74249D01*
X301242Y-74275D01*
X301179Y-74305D01*
X301117Y-74338D01*
X301057Y-74375D01*
X301000Y-74415D01*
X300945Y-74458D01*
X300892Y-74504D01*
X300842Y-74552D01*
X300794Y-74604D01*
X300750Y-74658D01*
X300708Y-74714D01*
X300670Y-74773D01*
X300635Y-74834D01*
X300603Y-74896D01*
X300575Y-74960D01*
X300551Y-75026D01*
X300530Y-75092D01*
X300513Y-75160D01*
X300499Y-75229D01*
X300490Y-75298D01*
X300484Y-75368D01*
X300482Y-75438D01*
X298450Y-75184D02*
X298450Y-76708D01*
X298450Y-75184D02*
X298452Y-75121D01*
X298458Y-75059D01*
X298467Y-74997D01*
X298481Y-74936D01*
X298498Y-74876D01*
X298519Y-74817D01*
X298543Y-74759D01*
X298571Y-74703D01*
X298602Y-74649D01*
X298637Y-74597D01*
X298674Y-74547D01*
X298715Y-74500D01*
X298759Y-74455D01*
X298805Y-74412D01*
X298854Y-74373D01*
X298905Y-74337D01*
X298958Y-74304D01*
X299013Y-74275D01*
X299070Y-74248D01*
X299128Y-74226D01*
X299188Y-74207D01*
X299249Y-74192D01*
X299310Y-74180D01*
X299372Y-74172D01*
X299435Y-74168D01*
X299497Y-74168D01*
X299560Y-74172D01*
X299622Y-74180D01*
X299683Y-74192D01*
X299744Y-74207D01*
X299804Y-74226D01*
X299862Y-74248D01*
X299919Y-74275D01*
X299974Y-74304D01*
X300027Y-74337D01*
X300078Y-74373D01*
X300127Y-74412D01*
X300173Y-74455D01*
X300217Y-74500D01*
X300258Y-74547D01*
X300295Y-74597D01*
X300330Y-74649D01*
X300361Y-74703D01*
X300389Y-74759D01*
X300413Y-74817D01*
X300434Y-74876D01*
X300451Y-74936D01*
X300465Y-74997D01*
X300474Y-75059D01*
X300480Y-75121D01*
X300482Y-75184D01*
X300482Y-76200D01*
X302768Y-72365D02*
X303022Y-72365D01*
X302768Y-72365D02*
X302768Y-72111D01*
X303022Y-72111D01*
X303022Y-72365D01*
X303022Y-70307D02*
X303022Y-69037D01*
X303020Y-68967D01*
X303014Y-68897D01*
X303005Y-68828D01*
X302991Y-68759D01*
X302974Y-68691D01*
X302953Y-68625D01*
X302929Y-68559D01*
X302901Y-68495D01*
X302869Y-68433D01*
X302834Y-68372D01*
X302796Y-68313D01*
X302754Y-68257D01*
X302710Y-68203D01*
X302662Y-68151D01*
X302612Y-68103D01*
X302559Y-68057D01*
X302504Y-68014D01*
X302447Y-67974D01*
X302387Y-67937D01*
X302325Y-67904D01*
X302262Y-67874D01*
X302197Y-67848D01*
X302131Y-67825D01*
X302064Y-67806D01*
X301995Y-67791D01*
X301926Y-67779D01*
X301857Y-67771D01*
X301787Y-67767D01*
X301717Y-67767D01*
X301647Y-67771D01*
X301578Y-67779D01*
X301509Y-67791D01*
X301440Y-67806D01*
X301373Y-67825D01*
X301307Y-67848D01*
X301242Y-67874D01*
X301179Y-67904D01*
X301117Y-67937D01*
X301057Y-67974D01*
X301000Y-68014D01*
X300945Y-68057D01*
X300892Y-68103D01*
X300842Y-68151D01*
X300794Y-68203D01*
X300750Y-68257D01*
X300708Y-68313D01*
X300670Y-68372D01*
X300635Y-68433D01*
X300603Y-68495D01*
X300575Y-68559D01*
X300551Y-68625D01*
X300530Y-68691D01*
X300513Y-68759D01*
X300499Y-68828D01*
X300490Y-68897D01*
X300484Y-68967D01*
X300482Y-69037D01*
X298450Y-68783D02*
X298450Y-70307D01*
X298450Y-68783D02*
X298452Y-68720D01*
X298458Y-68658D01*
X298467Y-68596D01*
X298481Y-68535D01*
X298498Y-68475D01*
X298519Y-68416D01*
X298543Y-68358D01*
X298571Y-68302D01*
X298602Y-68248D01*
X298637Y-68196D01*
X298674Y-68146D01*
X298715Y-68099D01*
X298759Y-68054D01*
X298805Y-68011D01*
X298854Y-67972D01*
X298905Y-67936D01*
X298958Y-67903D01*
X299013Y-67874D01*
X299070Y-67847D01*
X299128Y-67825D01*
X299188Y-67806D01*
X299249Y-67791D01*
X299310Y-67779D01*
X299372Y-67771D01*
X299435Y-67767D01*
X299497Y-67767D01*
X299560Y-67771D01*
X299622Y-67779D01*
X299683Y-67791D01*
X299744Y-67806D01*
X299804Y-67825D01*
X299862Y-67847D01*
X299919Y-67874D01*
X299974Y-67903D01*
X300027Y-67936D01*
X300078Y-67972D01*
X300127Y-68011D01*
X300173Y-68054D01*
X300217Y-68099D01*
X300258Y-68146D01*
X300295Y-68196D01*
X300330Y-68248D01*
X300361Y-68302D01*
X300389Y-68358D01*
X300413Y-68416D01*
X300434Y-68475D01*
X300451Y-68535D01*
X300465Y-68596D01*
X300474Y-68658D01*
X300480Y-68720D01*
X300482Y-68783D01*
X300482Y-69799D01*
X298450Y-65573D02*
X303022Y-65573D01*
X301498Y-65573D02*
X299974Y-63541D01*
X300863Y-64684D02*
X303022Y-63541D01*
X299974Y-61722D02*
X299897Y-61720D01*
X299820Y-61714D01*
X299743Y-61704D01*
X299667Y-61691D01*
X299592Y-61673D01*
X299518Y-61652D01*
X299445Y-61627D01*
X299373Y-61598D01*
X299303Y-61566D01*
X299234Y-61531D01*
X299168Y-61491D01*
X299103Y-61449D01*
X299041Y-61403D01*
X298981Y-61354D01*
X298924Y-61303D01*
X298869Y-61248D01*
X298818Y-61191D01*
X298769Y-61131D01*
X298723Y-61069D01*
X298681Y-61004D01*
X298641Y-60938D01*
X298606Y-60869D01*
X298574Y-60799D01*
X298545Y-60727D01*
X298520Y-60654D01*
X298499Y-60580D01*
X298481Y-60505D01*
X298468Y-60429D01*
X298458Y-60352D01*
X298452Y-60275D01*
X298450Y-60198D01*
X299974Y-61722D02*
X300482Y-61722D01*
X300556Y-61720D01*
X300630Y-61714D01*
X300703Y-61705D01*
X300776Y-61692D01*
X300848Y-61675D01*
X300919Y-61654D01*
X300989Y-61630D01*
X301058Y-61602D01*
X301125Y-61570D01*
X301190Y-61536D01*
X301254Y-61497D01*
X301315Y-61456D01*
X301375Y-61412D01*
X301431Y-61364D01*
X301486Y-61314D01*
X301538Y-61261D01*
X301586Y-61205D01*
X301632Y-61147D01*
X301675Y-61087D01*
X301715Y-61025D01*
X301752Y-60960D01*
X303022Y-60960D01*
X303022Y-61722D01*
X299974Y-58674D02*
X299897Y-58676D01*
X299820Y-58682D01*
X299743Y-58692D01*
X299667Y-58705D01*
X299592Y-58723D01*
X299518Y-58744D01*
X299445Y-58769D01*
X299373Y-58798D01*
X299303Y-58830D01*
X299234Y-58865D01*
X299168Y-58905D01*
X299103Y-58947D01*
X299041Y-58993D01*
X298981Y-59042D01*
X298924Y-59093D01*
X298869Y-59148D01*
X298818Y-59205D01*
X298769Y-59265D01*
X298723Y-59327D01*
X298681Y-59392D01*
X298641Y-59458D01*
X298606Y-59527D01*
X298574Y-59597D01*
X298545Y-59669D01*
X298520Y-59742D01*
X298499Y-59816D01*
X298481Y-59891D01*
X298468Y-59967D01*
X298458Y-60044D01*
X298452Y-60121D01*
X298450Y-60198D01*
X299974Y-58674D02*
X300482Y-58674D01*
X300556Y-58676D01*
X300630Y-58682D01*
X300703Y-58691D01*
X300776Y-58704D01*
X300848Y-58721D01*
X300919Y-58742D01*
X300989Y-58766D01*
X301058Y-58794D01*
X301125Y-58826D01*
X301190Y-58860D01*
X301254Y-58899D01*
X301315Y-58940D01*
X301375Y-58984D01*
X301431Y-59032D01*
X301486Y-59082D01*
X301538Y-59135D01*
X301586Y-59191D01*
X301632Y-59249D01*
X301675Y-59309D01*
X301715Y-59371D01*
X301752Y-59436D01*
X303022Y-59436D01*
X303022Y-58674D01*
X198882Y-221996D02*
X194310Y-221996D01*
X194310Y-220726D01*
X194312Y-220656D01*
X194318Y-220586D01*
X194327Y-220517D01*
X194341Y-220448D01*
X194358Y-220380D01*
X194379Y-220314D01*
X194403Y-220248D01*
X194431Y-220184D01*
X194463Y-220122D01*
X194498Y-220061D01*
X194536Y-220002D01*
X194578Y-219946D01*
X194622Y-219892D01*
X194670Y-219840D01*
X194720Y-219792D01*
X194773Y-219746D01*
X194828Y-219703D01*
X194885Y-219663D01*
X194945Y-219626D01*
X195007Y-219593D01*
X195070Y-219563D01*
X195135Y-219537D01*
X195201Y-219514D01*
X195268Y-219495D01*
X195337Y-219480D01*
X195406Y-219468D01*
X195475Y-219460D01*
X195545Y-219456D01*
X195615Y-219456D01*
X195685Y-219460D01*
X195754Y-219468D01*
X195823Y-219480D01*
X195892Y-219495D01*
X195959Y-219514D01*
X196025Y-219537D01*
X196090Y-219563D01*
X196153Y-219593D01*
X196215Y-219626D01*
X196275Y-219663D01*
X196332Y-219703D01*
X196387Y-219746D01*
X196440Y-219792D01*
X196490Y-219840D01*
X196538Y-219892D01*
X196582Y-219946D01*
X196624Y-220002D01*
X196662Y-220061D01*
X196697Y-220122D01*
X196729Y-220184D01*
X196757Y-220248D01*
X196781Y-220314D01*
X196802Y-220380D01*
X196819Y-220448D01*
X196833Y-220517D01*
X196842Y-220586D01*
X196848Y-220656D01*
X196850Y-220726D01*
X196850Y-221996D01*
X196850Y-220472D02*
X198882Y-219456D01*
X198882Y-217457D02*
X198882Y-216187D01*
X198880Y-216117D01*
X198874Y-216047D01*
X198865Y-215978D01*
X198851Y-215909D01*
X198834Y-215841D01*
X198813Y-215775D01*
X198789Y-215709D01*
X198761Y-215645D01*
X198729Y-215583D01*
X198694Y-215522D01*
X198656Y-215463D01*
X198614Y-215407D01*
X198570Y-215353D01*
X198522Y-215301D01*
X198472Y-215253D01*
X198419Y-215207D01*
X198364Y-215164D01*
X198307Y-215124D01*
X198247Y-215087D01*
X198185Y-215054D01*
X198122Y-215024D01*
X198057Y-214998D01*
X197991Y-214975D01*
X197924Y-214956D01*
X197855Y-214941D01*
X197786Y-214929D01*
X197717Y-214921D01*
X197647Y-214917D01*
X197577Y-214917D01*
X197507Y-214921D01*
X197438Y-214929D01*
X197369Y-214941D01*
X197300Y-214956D01*
X197233Y-214975D01*
X197167Y-214998D01*
X197102Y-215024D01*
X197039Y-215054D01*
X196977Y-215087D01*
X196917Y-215124D01*
X196860Y-215164D01*
X196805Y-215207D01*
X196752Y-215253D01*
X196702Y-215301D01*
X196654Y-215353D01*
X196610Y-215407D01*
X196568Y-215463D01*
X196530Y-215522D01*
X196495Y-215583D01*
X196463Y-215645D01*
X196435Y-215709D01*
X196411Y-215775D01*
X196390Y-215841D01*
X196373Y-215909D01*
X196359Y-215978D01*
X196350Y-216047D01*
X196344Y-216117D01*
X196342Y-216187D01*
X194310Y-215933D02*
X194310Y-217457D01*
X194310Y-215933D02*
X194312Y-215870D01*
X194318Y-215808D01*
X194327Y-215746D01*
X194341Y-215685D01*
X194358Y-215625D01*
X194379Y-215566D01*
X194403Y-215508D01*
X194431Y-215452D01*
X194462Y-215398D01*
X194497Y-215346D01*
X194534Y-215296D01*
X194575Y-215249D01*
X194619Y-215204D01*
X194665Y-215161D01*
X194714Y-215122D01*
X194765Y-215086D01*
X194818Y-215053D01*
X194873Y-215024D01*
X194930Y-214997D01*
X194988Y-214975D01*
X195048Y-214956D01*
X195109Y-214941D01*
X195170Y-214929D01*
X195232Y-214921D01*
X195295Y-214917D01*
X195357Y-214917D01*
X195420Y-214921D01*
X195482Y-214929D01*
X195543Y-214941D01*
X195604Y-214956D01*
X195664Y-214975D01*
X195722Y-214997D01*
X195779Y-215024D01*
X195834Y-215053D01*
X195887Y-215086D01*
X195938Y-215122D01*
X195987Y-215161D01*
X196033Y-215204D01*
X196077Y-215249D01*
X196118Y-215296D01*
X196155Y-215346D01*
X196190Y-215398D01*
X196221Y-215452D01*
X196249Y-215508D01*
X196273Y-215566D01*
X196294Y-215625D01*
X196311Y-215685D01*
X196325Y-215746D01*
X196334Y-215808D01*
X196340Y-215870D01*
X196342Y-215933D01*
X196342Y-216949D01*
X198679Y-228092D02*
X197409Y-229108D01*
X198679Y-228092D02*
X198679Y-232664D01*
X197409Y-232664D02*
X199949Y-232664D01*
X201981Y-230378D02*
X201983Y-230256D01*
X201989Y-230134D01*
X201999Y-230012D01*
X202013Y-229891D01*
X202030Y-229770D01*
X202052Y-229650D01*
X202077Y-229531D01*
X202107Y-229412D01*
X202140Y-229295D01*
X202177Y-229178D01*
X202218Y-229063D01*
X202262Y-228950D01*
X202310Y-228837D01*
X202362Y-228727D01*
X202382Y-228673D01*
X202406Y-228619D01*
X202434Y-228568D01*
X202464Y-228518D01*
X202497Y-228470D01*
X202534Y-228425D01*
X202573Y-228381D01*
X202614Y-228341D01*
X202658Y-228302D01*
X202705Y-228267D01*
X202753Y-228235D01*
X202803Y-228205D01*
X202856Y-228179D01*
X202909Y-228156D01*
X202964Y-228137D01*
X203020Y-228121D01*
X203077Y-228108D01*
X203135Y-228099D01*
X203193Y-228094D01*
X203251Y-228092D01*
X203309Y-228094D01*
X203367Y-228099D01*
X203425Y-228108D01*
X203482Y-228121D01*
X203538Y-228137D01*
X203593Y-228156D01*
X203646Y-228179D01*
X203699Y-228205D01*
X203749Y-228235D01*
X203797Y-228267D01*
X203844Y-228302D01*
X203888Y-228341D01*
X203929Y-228381D01*
X203968Y-228425D01*
X204005Y-228470D01*
X204038Y-228518D01*
X204068Y-228568D01*
X204096Y-228619D01*
X204120Y-228673D01*
X204140Y-228727D01*
X204192Y-228837D01*
X204240Y-228950D01*
X204284Y-229063D01*
X204325Y-229178D01*
X204362Y-229295D01*
X204395Y-229412D01*
X204425Y-229531D01*
X204450Y-229650D01*
X204472Y-229770D01*
X204489Y-229891D01*
X204503Y-230012D01*
X204513Y-230134D01*
X204519Y-230256D01*
X204521Y-230378D01*
X201981Y-230378D02*
X201983Y-230500D01*
X201989Y-230622D01*
X201999Y-230744D01*
X202013Y-230865D01*
X202030Y-230986D01*
X202052Y-231106D01*
X202077Y-231225D01*
X202107Y-231344D01*
X202140Y-231461D01*
X202177Y-231578D01*
X202218Y-231693D01*
X202262Y-231806D01*
X202310Y-231919D01*
X202362Y-232029D01*
X202382Y-232083D01*
X202406Y-232137D01*
X202434Y-232188D01*
X202464Y-232238D01*
X202497Y-232286D01*
X202534Y-232331D01*
X202573Y-232375D01*
X202614Y-232415D01*
X202658Y-232454D01*
X202705Y-232489D01*
X202753Y-232521D01*
X202803Y-232551D01*
X202856Y-232577D01*
X202909Y-232600D01*
X202964Y-232619D01*
X203020Y-232635D01*
X203077Y-232648D01*
X203135Y-232657D01*
X203193Y-232662D01*
X203251Y-232664D01*
X204140Y-232029D02*
X204192Y-231919D01*
X204240Y-231806D01*
X204284Y-231693D01*
X204325Y-231578D01*
X204362Y-231461D01*
X204395Y-231344D01*
X204425Y-231225D01*
X204450Y-231106D01*
X204472Y-230986D01*
X204489Y-230865D01*
X204503Y-230744D01*
X204513Y-230622D01*
X204519Y-230500D01*
X204521Y-230378D01*
X204140Y-232029D02*
X204120Y-232083D01*
X204096Y-232137D01*
X204068Y-232188D01*
X204038Y-232238D01*
X204005Y-232286D01*
X203968Y-232331D01*
X203929Y-232375D01*
X203888Y-232415D01*
X203844Y-232454D01*
X203797Y-232489D01*
X203749Y-232521D01*
X203699Y-232551D01*
X203646Y-232577D01*
X203593Y-232600D01*
X203538Y-232619D01*
X203482Y-232635D01*
X203425Y-232648D01*
X203367Y-232657D01*
X203309Y-232662D01*
X203251Y-232664D01*
X202235Y-231648D02*
X204267Y-229108D01*
X206715Y-228092D02*
X206715Y-232664D01*
X206715Y-231140D02*
X208747Y-229616D01*
X207604Y-230505D02*
X208747Y-232664D01*
X210566Y-229616D02*
X210568Y-229539D01*
X210574Y-229462D01*
X210584Y-229385D01*
X210597Y-229309D01*
X210615Y-229234D01*
X210636Y-229160D01*
X210661Y-229087D01*
X210690Y-229015D01*
X210722Y-228945D01*
X210757Y-228876D01*
X210797Y-228810D01*
X210839Y-228745D01*
X210885Y-228683D01*
X210934Y-228623D01*
X210985Y-228566D01*
X211040Y-228511D01*
X211097Y-228460D01*
X211157Y-228411D01*
X211219Y-228365D01*
X211284Y-228323D01*
X211350Y-228283D01*
X211419Y-228248D01*
X211489Y-228216D01*
X211561Y-228187D01*
X211634Y-228162D01*
X211708Y-228141D01*
X211783Y-228123D01*
X211859Y-228110D01*
X211936Y-228100D01*
X212013Y-228094D01*
X212090Y-228092D01*
X210566Y-229616D02*
X210566Y-230124D01*
X210568Y-230198D01*
X210574Y-230272D01*
X210583Y-230345D01*
X210596Y-230418D01*
X210613Y-230490D01*
X210634Y-230561D01*
X210658Y-230631D01*
X210686Y-230700D01*
X210718Y-230767D01*
X210752Y-230832D01*
X210791Y-230896D01*
X210832Y-230957D01*
X210876Y-231017D01*
X210924Y-231073D01*
X210974Y-231128D01*
X211027Y-231180D01*
X211083Y-231228D01*
X211141Y-231274D01*
X211201Y-231317D01*
X211263Y-231357D01*
X211328Y-231394D01*
X211328Y-232664D01*
X210566Y-232664D01*
X213614Y-229616D02*
X213612Y-229539D01*
X213606Y-229462D01*
X213596Y-229385D01*
X213583Y-229309D01*
X213565Y-229234D01*
X213544Y-229160D01*
X213519Y-229087D01*
X213490Y-229015D01*
X213458Y-228945D01*
X213423Y-228876D01*
X213383Y-228810D01*
X213341Y-228745D01*
X213295Y-228683D01*
X213246Y-228623D01*
X213195Y-228566D01*
X213140Y-228511D01*
X213083Y-228460D01*
X213023Y-228411D01*
X212961Y-228365D01*
X212896Y-228323D01*
X212830Y-228283D01*
X212761Y-228248D01*
X212691Y-228216D01*
X212619Y-228187D01*
X212546Y-228162D01*
X212472Y-228141D01*
X212397Y-228123D01*
X212321Y-228110D01*
X212244Y-228100D01*
X212167Y-228094D01*
X212090Y-228092D01*
X213614Y-229616D02*
X213614Y-230124D01*
X213612Y-230198D01*
X213606Y-230272D01*
X213597Y-230345D01*
X213584Y-230418D01*
X213567Y-230490D01*
X213546Y-230561D01*
X213522Y-230631D01*
X213494Y-230700D01*
X213462Y-230767D01*
X213428Y-230832D01*
X213389Y-230896D01*
X213348Y-230957D01*
X213304Y-231017D01*
X213256Y-231073D01*
X213206Y-231128D01*
X213153Y-231180D01*
X213097Y-231228D01*
X213039Y-231274D01*
X212979Y-231317D01*
X212917Y-231357D01*
X212852Y-231394D01*
X212852Y-232664D01*
X213614Y-232664D01*
X220759Y-230124D02*
X220759Y-225552D01*
X222029Y-225552D01*
X222099Y-225554D01*
X222169Y-225560D01*
X222238Y-225569D01*
X222307Y-225583D01*
X222375Y-225600D01*
X222441Y-225621D01*
X222507Y-225645D01*
X222571Y-225673D01*
X222633Y-225705D01*
X222694Y-225740D01*
X222753Y-225778D01*
X222809Y-225820D01*
X222863Y-225864D01*
X222915Y-225912D01*
X222963Y-225962D01*
X223009Y-226015D01*
X223052Y-226070D01*
X223092Y-226127D01*
X223129Y-226187D01*
X223162Y-226249D01*
X223192Y-226312D01*
X223218Y-226377D01*
X223241Y-226443D01*
X223260Y-226510D01*
X223275Y-226579D01*
X223287Y-226648D01*
X223295Y-226717D01*
X223299Y-226787D01*
X223299Y-226857D01*
X223295Y-226927D01*
X223287Y-226996D01*
X223275Y-227065D01*
X223260Y-227134D01*
X223241Y-227201D01*
X223218Y-227267D01*
X223192Y-227332D01*
X223162Y-227395D01*
X223129Y-227457D01*
X223092Y-227517D01*
X223052Y-227574D01*
X223009Y-227629D01*
X222963Y-227682D01*
X222915Y-227732D01*
X222863Y-227780D01*
X222809Y-227824D01*
X222753Y-227866D01*
X222694Y-227904D01*
X222633Y-227939D01*
X222571Y-227971D01*
X222507Y-227999D01*
X222441Y-228023D01*
X222375Y-228044D01*
X222307Y-228061D01*
X222238Y-228075D01*
X222169Y-228084D01*
X222099Y-228090D01*
X222029Y-228092D01*
X220759Y-228092D01*
X222283Y-228092D02*
X223299Y-230124D01*
X225298Y-229108D02*
X226314Y-225552D01*
X225298Y-229108D02*
X227838Y-229108D01*
X227076Y-228092D02*
X227076Y-230124D01*
X216408Y-231648D02*
X215392Y-235204D01*
X217932Y-235204D01*
X217170Y-234188D02*
X217170Y-236220D01*
X219964Y-232156D02*
X219964Y-231648D01*
X222504Y-231648D01*
X221234Y-236220D01*
X224699Y-236220D02*
X224699Y-231648D01*
X226731Y-233172D02*
X224699Y-234696D01*
X225588Y-234061D02*
X226731Y-236220D01*
X228549Y-233172D02*
X228551Y-233095D01*
X228557Y-233018D01*
X228567Y-232941D01*
X228580Y-232865D01*
X228598Y-232790D01*
X228619Y-232716D01*
X228644Y-232643D01*
X228673Y-232571D01*
X228705Y-232501D01*
X228740Y-232432D01*
X228780Y-232366D01*
X228822Y-232301D01*
X228868Y-232239D01*
X228917Y-232179D01*
X228968Y-232122D01*
X229023Y-232067D01*
X229080Y-232016D01*
X229140Y-231967D01*
X229202Y-231921D01*
X229267Y-231879D01*
X229333Y-231839D01*
X229402Y-231804D01*
X229472Y-231772D01*
X229544Y-231743D01*
X229617Y-231718D01*
X229691Y-231697D01*
X229766Y-231679D01*
X229842Y-231666D01*
X229919Y-231656D01*
X229996Y-231650D01*
X230073Y-231648D01*
X228549Y-233172D02*
X228549Y-233680D01*
X228551Y-233754D01*
X228557Y-233828D01*
X228566Y-233901D01*
X228579Y-233974D01*
X228596Y-234046D01*
X228617Y-234117D01*
X228641Y-234187D01*
X228669Y-234256D01*
X228701Y-234323D01*
X228735Y-234388D01*
X228774Y-234452D01*
X228815Y-234513D01*
X228859Y-234573D01*
X228907Y-234629D01*
X228957Y-234684D01*
X229010Y-234736D01*
X229066Y-234784D01*
X229124Y-234830D01*
X229184Y-234873D01*
X229246Y-234913D01*
X229311Y-234950D01*
X229311Y-236220D01*
X228549Y-236220D01*
X231597Y-233172D02*
X231595Y-233095D01*
X231589Y-233018D01*
X231579Y-232941D01*
X231566Y-232865D01*
X231548Y-232790D01*
X231527Y-232716D01*
X231502Y-232643D01*
X231473Y-232571D01*
X231441Y-232501D01*
X231406Y-232432D01*
X231366Y-232366D01*
X231324Y-232301D01*
X231278Y-232239D01*
X231229Y-232179D01*
X231178Y-232122D01*
X231123Y-232067D01*
X231066Y-232016D01*
X231006Y-231967D01*
X230944Y-231921D01*
X230879Y-231879D01*
X230813Y-231839D01*
X230744Y-231804D01*
X230674Y-231772D01*
X230602Y-231743D01*
X230529Y-231718D01*
X230455Y-231697D01*
X230380Y-231679D01*
X230304Y-231666D01*
X230227Y-231656D01*
X230150Y-231650D01*
X230073Y-231648D01*
X231597Y-233172D02*
X231597Y-233680D01*
X231595Y-233754D01*
X231589Y-233828D01*
X231580Y-233901D01*
X231567Y-233974D01*
X231550Y-234046D01*
X231529Y-234117D01*
X231505Y-234187D01*
X231477Y-234256D01*
X231445Y-234323D01*
X231411Y-234388D01*
X231372Y-234452D01*
X231331Y-234513D01*
X231287Y-234573D01*
X231239Y-234629D01*
X231189Y-234684D01*
X231136Y-234736D01*
X231080Y-234784D01*
X231022Y-234830D01*
X230962Y-234873D01*
X230900Y-234913D01*
X230835Y-234950D01*
X230835Y-236220D01*
X231597Y-236220D01*
X194564Y-156972D02*
X194564Y-152400D01*
X195834Y-152400D01*
X195904Y-152402D01*
X195974Y-152408D01*
X196043Y-152417D01*
X196112Y-152431D01*
X196180Y-152448D01*
X196246Y-152469D01*
X196312Y-152493D01*
X196376Y-152521D01*
X196438Y-152553D01*
X196499Y-152588D01*
X196558Y-152626D01*
X196614Y-152668D01*
X196668Y-152712D01*
X196720Y-152760D01*
X196768Y-152810D01*
X196814Y-152863D01*
X196857Y-152918D01*
X196897Y-152975D01*
X196934Y-153035D01*
X196967Y-153097D01*
X196997Y-153160D01*
X197023Y-153225D01*
X197046Y-153291D01*
X197065Y-153358D01*
X197080Y-153427D01*
X197092Y-153496D01*
X197100Y-153565D01*
X197104Y-153635D01*
X197104Y-153705D01*
X197100Y-153775D01*
X197092Y-153844D01*
X197080Y-153913D01*
X197065Y-153982D01*
X197046Y-154049D01*
X197023Y-154115D01*
X196997Y-154180D01*
X196967Y-154243D01*
X196934Y-154305D01*
X196897Y-154365D01*
X196857Y-154422D01*
X196814Y-154477D01*
X196768Y-154530D01*
X196720Y-154580D01*
X196668Y-154628D01*
X196614Y-154672D01*
X196558Y-154714D01*
X196499Y-154752D01*
X196438Y-154787D01*
X196376Y-154819D01*
X196312Y-154847D01*
X196246Y-154871D01*
X196180Y-154892D01*
X196112Y-154909D01*
X196043Y-154923D01*
X195974Y-154932D01*
X195904Y-154938D01*
X195834Y-154940D01*
X194564Y-154940D01*
X196088Y-154940D02*
X197104Y-156972D01*
X199103Y-156972D02*
X200627Y-156972D01*
X200688Y-156970D01*
X200749Y-156965D01*
X200810Y-156955D01*
X200870Y-156942D01*
X200929Y-156926D01*
X200987Y-156906D01*
X201044Y-156882D01*
X201099Y-156856D01*
X201153Y-156825D01*
X201204Y-156792D01*
X201254Y-156756D01*
X201301Y-156716D01*
X201345Y-156674D01*
X201387Y-156630D01*
X201427Y-156583D01*
X201463Y-156533D01*
X201496Y-156482D01*
X201527Y-156428D01*
X201553Y-156373D01*
X201577Y-156316D01*
X201597Y-156258D01*
X201613Y-156199D01*
X201626Y-156139D01*
X201636Y-156078D01*
X201641Y-156017D01*
X201643Y-155956D01*
X201643Y-155448D01*
X201641Y-155387D01*
X201636Y-155326D01*
X201626Y-155265D01*
X201613Y-155205D01*
X201597Y-155146D01*
X201577Y-155088D01*
X201553Y-155031D01*
X201527Y-154976D01*
X201496Y-154922D01*
X201463Y-154871D01*
X201427Y-154821D01*
X201387Y-154774D01*
X201345Y-154730D01*
X201301Y-154688D01*
X201254Y-154648D01*
X201204Y-154612D01*
X201153Y-154579D01*
X201099Y-154548D01*
X201044Y-154522D01*
X200987Y-154498D01*
X200929Y-154478D01*
X200870Y-154462D01*
X200810Y-154449D01*
X200749Y-154439D01*
X200688Y-154434D01*
X200627Y-154432D01*
X199103Y-154432D01*
X199103Y-152400D01*
X201643Y-152400D01*
D15*
X195524Y-157861D02*
X195582Y-157863D01*
X195640Y-157869D01*
X195697Y-157878D01*
X195754Y-157891D01*
X195810Y-157908D01*
X195864Y-157929D01*
X195917Y-157953D01*
X195969Y-157980D01*
X196018Y-158011D01*
X196065Y-158045D01*
X196110Y-158082D01*
X196153Y-158121D01*
X196192Y-158164D01*
X196229Y-158209D01*
X196263Y-158256D01*
X196294Y-158306D01*
X196321Y-158357D01*
X196345Y-158410D01*
X196366Y-158464D01*
X196383Y-158520D01*
X196396Y-158577D01*
X196405Y-158634D01*
X196411Y-158692D01*
X196413Y-158750D01*
X195524Y-157861D02*
X195459Y-157863D01*
X195394Y-157868D01*
X195329Y-157878D01*
X195265Y-157891D01*
X195202Y-157907D01*
X195140Y-157928D01*
X195079Y-157951D01*
X195020Y-157978D01*
X194962Y-158009D01*
X194906Y-158043D01*
X194852Y-158079D01*
X194801Y-158119D01*
X194751Y-158162D01*
X194705Y-158208D01*
X194660Y-158256D01*
X194619Y-158306D01*
X194581Y-158359D01*
X194546Y-158414D01*
X194514Y-158471D01*
X194485Y-158530D01*
X194459Y-158590D01*
X194438Y-158651D01*
X196117Y-159442D02*
X196158Y-159399D01*
X196197Y-159354D01*
X196234Y-159307D01*
X196267Y-159258D01*
X196297Y-159206D01*
X196324Y-159153D01*
X196347Y-159099D01*
X196367Y-159043D01*
X196384Y-158985D01*
X196396Y-158927D01*
X196406Y-158869D01*
X196411Y-158809D01*
X196413Y-158750D01*
X196116Y-159441D02*
X194437Y-161417D01*
X196413Y-161417D01*
X197986Y-161417D02*
X197986Y-157861D01*
X199567Y-159046D02*
X197986Y-160232D01*
X198678Y-159738D02*
X199567Y-161417D01*
X200869Y-159046D02*
X200871Y-158980D01*
X200876Y-158913D01*
X200886Y-158848D01*
X200899Y-158782D01*
X200915Y-158718D01*
X200935Y-158655D01*
X200959Y-158593D01*
X200986Y-158532D01*
X201017Y-158473D01*
X201051Y-158416D01*
X201088Y-158360D01*
X201128Y-158307D01*
X201170Y-158256D01*
X201216Y-158208D01*
X201264Y-158162D01*
X201315Y-158120D01*
X201368Y-158080D01*
X201424Y-158043D01*
X201481Y-158009D01*
X201540Y-157978D01*
X201601Y-157951D01*
X201663Y-157928D01*
X201726Y-157907D01*
X201790Y-157891D01*
X201856Y-157878D01*
X201921Y-157868D01*
X201988Y-157863D01*
X202054Y-157861D01*
X200869Y-159046D02*
X200869Y-159441D01*
X200871Y-159505D01*
X200876Y-159568D01*
X200885Y-159631D01*
X200898Y-159693D01*
X200914Y-159755D01*
X200934Y-159816D01*
X200957Y-159875D01*
X200983Y-159933D01*
X201012Y-159989D01*
X201045Y-160044D01*
X201081Y-160096D01*
X201120Y-160147D01*
X201161Y-160195D01*
X201206Y-160241D01*
X201252Y-160284D01*
X201301Y-160325D01*
X201353Y-160362D01*
X201406Y-160397D01*
X201461Y-160428D01*
X201461Y-160429D02*
X201461Y-161417D01*
X200869Y-161417D01*
X203239Y-159046D02*
X203237Y-158980D01*
X203232Y-158913D01*
X203222Y-158848D01*
X203209Y-158782D01*
X203193Y-158718D01*
X203173Y-158655D01*
X203149Y-158593D01*
X203122Y-158532D01*
X203091Y-158473D01*
X203057Y-158416D01*
X203020Y-158360D01*
X202980Y-158307D01*
X202938Y-158256D01*
X202892Y-158208D01*
X202844Y-158162D01*
X202793Y-158120D01*
X202740Y-158080D01*
X202684Y-158043D01*
X202627Y-158009D01*
X202568Y-157978D01*
X202507Y-157951D01*
X202445Y-157928D01*
X202382Y-157907D01*
X202318Y-157891D01*
X202252Y-157878D01*
X202187Y-157868D01*
X202120Y-157863D01*
X202054Y-157861D01*
X203239Y-159046D02*
X203239Y-159441D01*
X203240Y-159441D02*
X203238Y-159505D01*
X203233Y-159568D01*
X203224Y-159631D01*
X203211Y-159694D01*
X203195Y-159755D01*
X203175Y-159816D01*
X203152Y-159875D01*
X203126Y-159933D01*
X203096Y-159990D01*
X203064Y-160044D01*
X203028Y-160097D01*
X202989Y-160148D01*
X202947Y-160196D01*
X202903Y-160242D01*
X202856Y-160285D01*
X202807Y-160325D01*
X202756Y-160363D01*
X202702Y-160398D01*
X202647Y-160429D01*
X202647Y-161417D01*
X203239Y-161417D01*
D10*
X209837Y-156464D02*
X209837Y-151892D01*
X211107Y-151892D01*
X211177Y-151894D01*
X211247Y-151900D01*
X211316Y-151909D01*
X211385Y-151923D01*
X211453Y-151940D01*
X211519Y-151961D01*
X211585Y-151985D01*
X211649Y-152013D01*
X211711Y-152045D01*
X211772Y-152080D01*
X211831Y-152118D01*
X211887Y-152160D01*
X211941Y-152204D01*
X211993Y-152252D01*
X212041Y-152302D01*
X212087Y-152355D01*
X212130Y-152410D01*
X212170Y-152467D01*
X212207Y-152527D01*
X212240Y-152589D01*
X212270Y-152652D01*
X212296Y-152717D01*
X212319Y-152783D01*
X212338Y-152850D01*
X212353Y-152919D01*
X212365Y-152988D01*
X212373Y-153057D01*
X212377Y-153127D01*
X212377Y-153197D01*
X212373Y-153267D01*
X212365Y-153336D01*
X212353Y-153405D01*
X212338Y-153474D01*
X212319Y-153541D01*
X212296Y-153607D01*
X212270Y-153672D01*
X212240Y-153735D01*
X212207Y-153797D01*
X212170Y-153857D01*
X212130Y-153914D01*
X212087Y-153969D01*
X212041Y-154022D01*
X211993Y-154072D01*
X211941Y-154120D01*
X211887Y-154164D01*
X211831Y-154206D01*
X211772Y-154244D01*
X211711Y-154279D01*
X211649Y-154311D01*
X211585Y-154339D01*
X211519Y-154363D01*
X211453Y-154384D01*
X211385Y-154401D01*
X211316Y-154415D01*
X211247Y-154424D01*
X211177Y-154430D01*
X211107Y-154432D01*
X209837Y-154432D01*
X211361Y-154432D02*
X212377Y-156464D01*
X214376Y-153924D02*
X215900Y-153924D01*
X215961Y-153926D01*
X216022Y-153931D01*
X216083Y-153941D01*
X216143Y-153954D01*
X216202Y-153970D01*
X216260Y-153990D01*
X216317Y-154014D01*
X216372Y-154040D01*
X216426Y-154071D01*
X216477Y-154104D01*
X216527Y-154140D01*
X216574Y-154180D01*
X216618Y-154222D01*
X216660Y-154266D01*
X216700Y-154313D01*
X216736Y-154363D01*
X216769Y-154414D01*
X216800Y-154468D01*
X216826Y-154523D01*
X216850Y-154580D01*
X216870Y-154638D01*
X216886Y-154697D01*
X216899Y-154757D01*
X216909Y-154818D01*
X216914Y-154879D01*
X216916Y-154940D01*
X216916Y-155194D01*
X216914Y-155264D01*
X216908Y-155334D01*
X216899Y-155403D01*
X216885Y-155472D01*
X216868Y-155540D01*
X216847Y-155606D01*
X216823Y-155672D01*
X216795Y-155736D01*
X216763Y-155798D01*
X216728Y-155859D01*
X216690Y-155918D01*
X216648Y-155974D01*
X216604Y-156028D01*
X216556Y-156080D01*
X216506Y-156128D01*
X216453Y-156174D01*
X216398Y-156217D01*
X216341Y-156257D01*
X216281Y-156294D01*
X216219Y-156327D01*
X216156Y-156357D01*
X216091Y-156383D01*
X216025Y-156406D01*
X215958Y-156425D01*
X215889Y-156440D01*
X215820Y-156452D01*
X215751Y-156460D01*
X215681Y-156464D01*
X215611Y-156464D01*
X215541Y-156460D01*
X215472Y-156452D01*
X215403Y-156440D01*
X215334Y-156425D01*
X215267Y-156406D01*
X215201Y-156383D01*
X215136Y-156357D01*
X215073Y-156327D01*
X215011Y-156294D01*
X214951Y-156257D01*
X214894Y-156217D01*
X214839Y-156174D01*
X214786Y-156128D01*
X214736Y-156080D01*
X214688Y-156028D01*
X214644Y-155974D01*
X214602Y-155918D01*
X214564Y-155859D01*
X214529Y-155798D01*
X214497Y-155736D01*
X214469Y-155672D01*
X214445Y-155606D01*
X214424Y-155540D01*
X214407Y-155472D01*
X214393Y-155403D01*
X214384Y-155334D01*
X214378Y-155264D01*
X214376Y-155194D01*
X214376Y-153924D01*
X214378Y-153835D01*
X214384Y-153747D01*
X214393Y-153659D01*
X214407Y-153571D01*
X214424Y-153484D01*
X214445Y-153398D01*
X214470Y-153313D01*
X214499Y-153229D01*
X214531Y-153146D01*
X214566Y-153065D01*
X214606Y-152986D01*
X214648Y-152908D01*
X214694Y-152832D01*
X214743Y-152758D01*
X214796Y-152687D01*
X214851Y-152618D01*
X214910Y-152551D01*
X214971Y-152487D01*
X215035Y-152426D01*
X215102Y-152367D01*
X215171Y-152312D01*
X215242Y-152259D01*
X215316Y-152210D01*
X215392Y-152164D01*
X215470Y-152122D01*
X215549Y-152082D01*
X215630Y-152047D01*
X215713Y-152015D01*
X215797Y-151986D01*
X215882Y-151961D01*
X215968Y-151940D01*
X216055Y-151923D01*
X216143Y-151909D01*
X216231Y-151900D01*
X216319Y-151894D01*
X216408Y-151892D01*
D15*
X206053Y-157353D02*
X205066Y-158143D01*
X206053Y-157353D02*
X206053Y-160909D01*
X205066Y-160909D02*
X207041Y-160909D01*
X208494Y-159131D02*
X208496Y-159029D01*
X208501Y-158927D01*
X208510Y-158825D01*
X208522Y-158723D01*
X208538Y-158622D01*
X208558Y-158522D01*
X208581Y-158422D01*
X208607Y-158323D01*
X208637Y-158226D01*
X208671Y-158129D01*
X208707Y-158034D01*
X208747Y-157939D01*
X208790Y-157847D01*
X208791Y-157847D02*
X208810Y-157797D01*
X208832Y-157749D01*
X208858Y-157702D01*
X208888Y-157658D01*
X208921Y-157616D01*
X208956Y-157576D01*
X208995Y-157539D01*
X209036Y-157505D01*
X209079Y-157474D01*
X209125Y-157446D01*
X209172Y-157422D01*
X209221Y-157401D01*
X209272Y-157384D01*
X209323Y-157370D01*
X209376Y-157361D01*
X209429Y-157355D01*
X209482Y-157353D01*
X209535Y-157355D01*
X209588Y-157361D01*
X209641Y-157370D01*
X209692Y-157384D01*
X209743Y-157401D01*
X209792Y-157422D01*
X209839Y-157446D01*
X209885Y-157474D01*
X209928Y-157505D01*
X209969Y-157539D01*
X210008Y-157576D01*
X210043Y-157616D01*
X210076Y-157658D01*
X210106Y-157702D01*
X210132Y-157749D01*
X210154Y-157797D01*
X210173Y-157847D01*
X210175Y-157847D02*
X210218Y-157939D01*
X210258Y-158034D01*
X210294Y-158129D01*
X210328Y-158226D01*
X210358Y-158323D01*
X210384Y-158422D01*
X210407Y-158522D01*
X210427Y-158622D01*
X210443Y-158723D01*
X210455Y-158825D01*
X210464Y-158927D01*
X210469Y-159029D01*
X210471Y-159131D01*
X208494Y-159131D02*
X208496Y-159233D01*
X208501Y-159335D01*
X208510Y-159437D01*
X208522Y-159539D01*
X208538Y-159640D01*
X208558Y-159740D01*
X208581Y-159840D01*
X208607Y-159939D01*
X208637Y-160036D01*
X208671Y-160133D01*
X208707Y-160228D01*
X208747Y-160323D01*
X208790Y-160415D01*
X208791Y-160415D02*
X208810Y-160465D01*
X208832Y-160513D01*
X208859Y-160560D01*
X208888Y-160604D01*
X208921Y-160646D01*
X208956Y-160686D01*
X208995Y-160723D01*
X209036Y-160757D01*
X209079Y-160788D01*
X209125Y-160816D01*
X209172Y-160840D01*
X209221Y-160861D01*
X209272Y-160878D01*
X209323Y-160892D01*
X209376Y-160901D01*
X209429Y-160907D01*
X209482Y-160909D01*
X210174Y-160415D02*
X210217Y-160323D01*
X210257Y-160228D01*
X210293Y-160133D01*
X210327Y-160036D01*
X210357Y-159939D01*
X210383Y-159840D01*
X210406Y-159740D01*
X210426Y-159640D01*
X210442Y-159539D01*
X210454Y-159437D01*
X210463Y-159335D01*
X210468Y-159233D01*
X210470Y-159131D01*
X210173Y-160415D02*
X210154Y-160465D01*
X210132Y-160513D01*
X210105Y-160560D01*
X210076Y-160604D01*
X210043Y-160646D01*
X210008Y-160686D01*
X209969Y-160723D01*
X209928Y-160757D01*
X209885Y-160788D01*
X209839Y-160816D01*
X209792Y-160840D01*
X209743Y-160861D01*
X209692Y-160878D01*
X209641Y-160892D01*
X209588Y-160901D01*
X209535Y-160907D01*
X209482Y-160909D01*
X208692Y-160119D02*
X210273Y-158143D01*
X212044Y-157353D02*
X212044Y-160909D01*
X212044Y-159724D02*
X213625Y-158538D01*
X212736Y-159230D02*
X213625Y-160909D01*
X214927Y-158538D02*
X214929Y-158472D01*
X214934Y-158405D01*
X214944Y-158340D01*
X214957Y-158274D01*
X214973Y-158210D01*
X214993Y-158147D01*
X215017Y-158085D01*
X215044Y-158024D01*
X215075Y-157965D01*
X215109Y-157908D01*
X215146Y-157852D01*
X215186Y-157799D01*
X215228Y-157748D01*
X215274Y-157700D01*
X215322Y-157654D01*
X215373Y-157612D01*
X215426Y-157572D01*
X215482Y-157535D01*
X215539Y-157501D01*
X215598Y-157470D01*
X215659Y-157443D01*
X215721Y-157420D01*
X215784Y-157399D01*
X215848Y-157383D01*
X215914Y-157370D01*
X215979Y-157360D01*
X216046Y-157355D01*
X216112Y-157353D01*
X214926Y-158538D02*
X214926Y-158933D01*
X214927Y-158933D02*
X214929Y-158997D01*
X214934Y-159060D01*
X214943Y-159123D01*
X214956Y-159185D01*
X214972Y-159247D01*
X214992Y-159308D01*
X215015Y-159367D01*
X215041Y-159425D01*
X215070Y-159481D01*
X215103Y-159536D01*
X215139Y-159588D01*
X215178Y-159639D01*
X215219Y-159687D01*
X215264Y-159733D01*
X215310Y-159776D01*
X215359Y-159817D01*
X215411Y-159854D01*
X215464Y-159889D01*
X215519Y-159920D01*
X215519Y-159921D02*
X215519Y-160909D01*
X214926Y-160909D01*
X217297Y-158538D02*
X217295Y-158472D01*
X217290Y-158405D01*
X217280Y-158340D01*
X217267Y-158274D01*
X217251Y-158210D01*
X217231Y-158147D01*
X217207Y-158085D01*
X217180Y-158024D01*
X217149Y-157965D01*
X217115Y-157908D01*
X217078Y-157852D01*
X217038Y-157799D01*
X216996Y-157748D01*
X216950Y-157700D01*
X216902Y-157654D01*
X216851Y-157612D01*
X216798Y-157572D01*
X216742Y-157535D01*
X216685Y-157501D01*
X216626Y-157470D01*
X216565Y-157443D01*
X216503Y-157420D01*
X216440Y-157399D01*
X216376Y-157383D01*
X216310Y-157370D01*
X216245Y-157360D01*
X216178Y-157355D01*
X216112Y-157353D01*
X217297Y-158538D02*
X217297Y-158933D01*
X217298Y-158933D02*
X217296Y-158997D01*
X217291Y-159060D01*
X217282Y-159123D01*
X217269Y-159186D01*
X217253Y-159247D01*
X217233Y-159308D01*
X217210Y-159367D01*
X217184Y-159425D01*
X217154Y-159482D01*
X217122Y-159536D01*
X217086Y-159589D01*
X217047Y-159640D01*
X217005Y-159688D01*
X216961Y-159734D01*
X216914Y-159777D01*
X216865Y-159817D01*
X216814Y-159855D01*
X216760Y-159890D01*
X216705Y-159921D01*
X216704Y-159921D02*
X216704Y-160909D01*
X217297Y-160909D01*
D11*
X82068Y-189566D02*
X82068Y-104566D01*
X117068Y-104566D01*
X117068Y-189566D01*
X82068Y-189566D01*
D10*
X219949Y-164592D02*
X220965Y-164592D01*
X219949Y-164592D02*
X219888Y-164590D01*
X219827Y-164585D01*
X219766Y-164575D01*
X219706Y-164562D01*
X219647Y-164546D01*
X219589Y-164526D01*
X219532Y-164502D01*
X219477Y-164476D01*
X219423Y-164445D01*
X219372Y-164412D01*
X219322Y-164376D01*
X219275Y-164336D01*
X219231Y-164294D01*
X219189Y-164250D01*
X219149Y-164203D01*
X219113Y-164153D01*
X219080Y-164102D01*
X219049Y-164048D01*
X219023Y-163993D01*
X218999Y-163936D01*
X218979Y-163878D01*
X218963Y-163819D01*
X218950Y-163759D01*
X218940Y-163698D01*
X218935Y-163637D01*
X218933Y-163576D01*
X218933Y-161036D01*
X218935Y-160975D01*
X218940Y-160914D01*
X218950Y-160853D01*
X218963Y-160793D01*
X218979Y-160734D01*
X218999Y-160676D01*
X219023Y-160619D01*
X219049Y-160564D01*
X219080Y-160510D01*
X219113Y-160459D01*
X219149Y-160409D01*
X219189Y-160362D01*
X219231Y-160318D01*
X219275Y-160276D01*
X219322Y-160236D01*
X219372Y-160200D01*
X219423Y-160167D01*
X219477Y-160136D01*
X219532Y-160110D01*
X219589Y-160086D01*
X219647Y-160066D01*
X219706Y-160050D01*
X219766Y-160037D01*
X219827Y-160027D01*
X219888Y-160022D01*
X219949Y-160020D01*
X220965Y-160020D01*
X222758Y-161036D02*
X224028Y-160020D01*
X224028Y-164592D01*
X222758Y-164592D02*
X225298Y-164592D01*
X227330Y-163576D02*
X228346Y-160020D01*
X227330Y-163576D02*
X229870Y-163576D01*
X229108Y-162560D02*
X229108Y-164592D01*
X231521Y-186563D02*
X231631Y-186615D01*
X231744Y-186663D01*
X231857Y-186707D01*
X231972Y-186748D01*
X232089Y-186785D01*
X232206Y-186818D01*
X232325Y-186848D01*
X232444Y-186873D01*
X232564Y-186895D01*
X232685Y-186912D01*
X232806Y-186926D01*
X232928Y-186936D01*
X233050Y-186942D01*
X233172Y-186944D01*
X231521Y-186563D02*
X231467Y-186543D01*
X231413Y-186519D01*
X231362Y-186491D01*
X231312Y-186461D01*
X231264Y-186428D01*
X231219Y-186391D01*
X231175Y-186352D01*
X231135Y-186311D01*
X231096Y-186267D01*
X231061Y-186220D01*
X231029Y-186172D01*
X230999Y-186122D01*
X230973Y-186069D01*
X230950Y-186016D01*
X230931Y-185961D01*
X230915Y-185905D01*
X230902Y-185848D01*
X230893Y-185790D01*
X230888Y-185732D01*
X230886Y-185674D01*
X230888Y-185616D01*
X230893Y-185558D01*
X230902Y-185500D01*
X230915Y-185443D01*
X230931Y-185387D01*
X230950Y-185332D01*
X230973Y-185279D01*
X230999Y-185226D01*
X231029Y-185176D01*
X231061Y-185128D01*
X231096Y-185081D01*
X231135Y-185037D01*
X231175Y-184996D01*
X231219Y-184957D01*
X231264Y-184920D01*
X231312Y-184887D01*
X231362Y-184857D01*
X231413Y-184829D01*
X231467Y-184805D01*
X231521Y-184785D01*
X231631Y-184733D01*
X231744Y-184685D01*
X231857Y-184641D01*
X231972Y-184600D01*
X232089Y-184563D01*
X232206Y-184530D01*
X232325Y-184500D01*
X232444Y-184475D01*
X232564Y-184453D01*
X232685Y-184436D01*
X232806Y-184422D01*
X232928Y-184412D01*
X233050Y-184406D01*
X233172Y-184404D01*
X233172Y-186944D02*
X233294Y-186942D01*
X233416Y-186936D01*
X233538Y-186926D01*
X233659Y-186912D01*
X233780Y-186895D01*
X233900Y-186873D01*
X234019Y-186848D01*
X234138Y-186818D01*
X234255Y-186785D01*
X234372Y-186748D01*
X234487Y-186707D01*
X234600Y-186663D01*
X234713Y-186615D01*
X234823Y-186563D01*
X234877Y-186543D01*
X234931Y-186519D01*
X234982Y-186491D01*
X235032Y-186461D01*
X235080Y-186428D01*
X235125Y-186391D01*
X235169Y-186352D01*
X235209Y-186311D01*
X235248Y-186267D01*
X235283Y-186220D01*
X235315Y-186172D01*
X235345Y-186122D01*
X235371Y-186069D01*
X235394Y-186016D01*
X235413Y-185961D01*
X235429Y-185905D01*
X235442Y-185848D01*
X235451Y-185790D01*
X235456Y-185732D01*
X235458Y-185674D01*
X234823Y-184785D02*
X234713Y-184733D01*
X234600Y-184685D01*
X234487Y-184641D01*
X234372Y-184600D01*
X234255Y-184563D01*
X234138Y-184530D01*
X234019Y-184500D01*
X233900Y-184475D01*
X233780Y-184453D01*
X233659Y-184436D01*
X233538Y-184422D01*
X233416Y-184412D01*
X233294Y-184406D01*
X233172Y-184404D01*
X234823Y-184785D02*
X234877Y-184805D01*
X234931Y-184829D01*
X234982Y-184857D01*
X235032Y-184887D01*
X235080Y-184920D01*
X235125Y-184957D01*
X235169Y-184996D01*
X235209Y-185037D01*
X235248Y-185081D01*
X235283Y-185128D01*
X235315Y-185176D01*
X235345Y-185226D01*
X235371Y-185279D01*
X235394Y-185332D01*
X235413Y-185387D01*
X235429Y-185443D01*
X235442Y-185500D01*
X235451Y-185558D01*
X235456Y-185616D01*
X235458Y-185674D01*
X234442Y-186690D02*
X231902Y-184658D01*
X235204Y-182601D02*
X235458Y-182601D01*
X235204Y-182601D02*
X235204Y-182347D01*
X235458Y-182347D01*
X235458Y-182601D01*
X231902Y-180543D02*
X230886Y-179273D01*
X235458Y-179273D01*
X235458Y-180543D02*
X235458Y-178003D01*
X234696Y-175870D02*
X232410Y-175870D01*
X234696Y-175870D02*
X234750Y-175868D01*
X234804Y-175862D01*
X234858Y-175853D01*
X234911Y-175839D01*
X234962Y-175822D01*
X235013Y-175801D01*
X235061Y-175777D01*
X235108Y-175749D01*
X235153Y-175718D01*
X235195Y-175684D01*
X235235Y-175647D01*
X235272Y-175607D01*
X235306Y-175565D01*
X235337Y-175520D01*
X235365Y-175473D01*
X235389Y-175425D01*
X235410Y-175374D01*
X235427Y-175323D01*
X235441Y-175270D01*
X235450Y-175216D01*
X235456Y-175162D01*
X235458Y-175108D01*
X235458Y-173838D01*
X232410Y-173838D01*
X230886Y-171542D02*
X235458Y-171542D01*
X230886Y-171542D02*
X230886Y-169510D01*
X232918Y-169510D02*
X232918Y-171542D01*
X249428Y-88900D02*
X249428Y-87884D01*
X249428Y-88900D02*
X249426Y-88961D01*
X249421Y-89022D01*
X249411Y-89083D01*
X249398Y-89143D01*
X249382Y-89202D01*
X249362Y-89260D01*
X249338Y-89317D01*
X249312Y-89372D01*
X249281Y-89426D01*
X249248Y-89477D01*
X249212Y-89527D01*
X249172Y-89574D01*
X249130Y-89618D01*
X249086Y-89660D01*
X249039Y-89700D01*
X248989Y-89736D01*
X248938Y-89769D01*
X248884Y-89800D01*
X248829Y-89826D01*
X248772Y-89850D01*
X248714Y-89870D01*
X248655Y-89886D01*
X248595Y-89899D01*
X248534Y-89909D01*
X248473Y-89914D01*
X248412Y-89916D01*
X245872Y-89916D01*
X245811Y-89914D01*
X245750Y-89909D01*
X245689Y-89899D01*
X245629Y-89886D01*
X245570Y-89870D01*
X245512Y-89850D01*
X245455Y-89826D01*
X245400Y-89800D01*
X245346Y-89769D01*
X245295Y-89736D01*
X245245Y-89700D01*
X245198Y-89660D01*
X245154Y-89618D01*
X245112Y-89574D01*
X245072Y-89527D01*
X245036Y-89477D01*
X245003Y-89426D01*
X244972Y-89372D01*
X244946Y-89317D01*
X244922Y-89260D01*
X244902Y-89202D01*
X244886Y-89143D01*
X244873Y-89083D01*
X244863Y-89022D01*
X244858Y-88961D01*
X244856Y-88900D01*
X244856Y-87884D01*
X245872Y-86091D02*
X244856Y-84821D01*
X249428Y-84821D01*
X249428Y-86091D02*
X249428Y-83551D01*
X249428Y-81519D02*
X249428Y-79995D01*
X249426Y-79934D01*
X249421Y-79873D01*
X249411Y-79812D01*
X249398Y-79752D01*
X249382Y-79693D01*
X249362Y-79635D01*
X249338Y-79578D01*
X249312Y-79523D01*
X249281Y-79469D01*
X249248Y-79418D01*
X249212Y-79368D01*
X249172Y-79321D01*
X249130Y-79277D01*
X249086Y-79235D01*
X249039Y-79195D01*
X248989Y-79159D01*
X248938Y-79126D01*
X248884Y-79095D01*
X248829Y-79069D01*
X248772Y-79045D01*
X248714Y-79025D01*
X248655Y-79009D01*
X248595Y-78996D01*
X248534Y-78986D01*
X248473Y-78981D01*
X248412Y-78979D01*
X247904Y-78979D01*
X247843Y-78981D01*
X247782Y-78986D01*
X247721Y-78996D01*
X247661Y-79009D01*
X247602Y-79025D01*
X247544Y-79045D01*
X247487Y-79069D01*
X247432Y-79095D01*
X247378Y-79126D01*
X247327Y-79159D01*
X247277Y-79195D01*
X247230Y-79235D01*
X247186Y-79277D01*
X247144Y-79321D01*
X247104Y-79368D01*
X247068Y-79418D01*
X247035Y-79469D01*
X247004Y-79523D01*
X246978Y-79578D01*
X246954Y-79635D01*
X246934Y-79693D01*
X246918Y-79752D01*
X246905Y-79812D01*
X246895Y-79873D01*
X246890Y-79934D01*
X246888Y-79995D01*
X246888Y-81519D01*
X244856Y-81519D01*
X244856Y-78979D01*
X276098Y-89916D02*
X277114Y-91186D01*
X276098Y-89916D02*
X280670Y-89916D01*
X280670Y-91186D02*
X280670Y-88646D01*
X278384Y-86614D02*
X278262Y-86612D01*
X278140Y-86606D01*
X278018Y-86596D01*
X277897Y-86582D01*
X277776Y-86565D01*
X277656Y-86543D01*
X277537Y-86518D01*
X277418Y-86488D01*
X277301Y-86455D01*
X277184Y-86418D01*
X277069Y-86377D01*
X276956Y-86333D01*
X276843Y-86285D01*
X276733Y-86233D01*
X276679Y-86213D01*
X276625Y-86189D01*
X276574Y-86161D01*
X276524Y-86131D01*
X276476Y-86098D01*
X276431Y-86061D01*
X276387Y-86022D01*
X276347Y-85981D01*
X276308Y-85937D01*
X276273Y-85890D01*
X276241Y-85842D01*
X276211Y-85792D01*
X276185Y-85739D01*
X276162Y-85686D01*
X276143Y-85631D01*
X276127Y-85575D01*
X276114Y-85518D01*
X276105Y-85460D01*
X276100Y-85402D01*
X276098Y-85344D01*
X276100Y-85286D01*
X276105Y-85228D01*
X276114Y-85170D01*
X276127Y-85113D01*
X276143Y-85057D01*
X276162Y-85002D01*
X276185Y-84949D01*
X276211Y-84896D01*
X276241Y-84846D01*
X276273Y-84798D01*
X276308Y-84751D01*
X276347Y-84707D01*
X276387Y-84666D01*
X276431Y-84627D01*
X276476Y-84590D01*
X276524Y-84557D01*
X276574Y-84527D01*
X276625Y-84499D01*
X276679Y-84475D01*
X276733Y-84455D01*
X276843Y-84403D01*
X276956Y-84355D01*
X277069Y-84311D01*
X277184Y-84270D01*
X277301Y-84233D01*
X277418Y-84200D01*
X277537Y-84170D01*
X277656Y-84145D01*
X277776Y-84123D01*
X277897Y-84106D01*
X278018Y-84092D01*
X278140Y-84082D01*
X278262Y-84076D01*
X278384Y-84074D01*
X278384Y-86614D02*
X278506Y-86612D01*
X278628Y-86606D01*
X278750Y-86596D01*
X278871Y-86582D01*
X278992Y-86565D01*
X279112Y-86543D01*
X279231Y-86518D01*
X279350Y-86488D01*
X279467Y-86455D01*
X279584Y-86418D01*
X279699Y-86377D01*
X279812Y-86333D01*
X279925Y-86285D01*
X280035Y-86233D01*
X280089Y-86213D01*
X280143Y-86189D01*
X280194Y-86161D01*
X280244Y-86131D01*
X280292Y-86098D01*
X280337Y-86061D01*
X280381Y-86022D01*
X280421Y-85981D01*
X280460Y-85937D01*
X280495Y-85890D01*
X280527Y-85842D01*
X280557Y-85792D01*
X280583Y-85739D01*
X280606Y-85686D01*
X280625Y-85631D01*
X280641Y-85575D01*
X280654Y-85518D01*
X280663Y-85460D01*
X280668Y-85402D01*
X280670Y-85344D01*
X280035Y-84455D02*
X279925Y-84403D01*
X279812Y-84355D01*
X279699Y-84311D01*
X279584Y-84270D01*
X279467Y-84233D01*
X279350Y-84200D01*
X279231Y-84170D01*
X279112Y-84145D01*
X278992Y-84123D01*
X278871Y-84106D01*
X278750Y-84092D01*
X278628Y-84082D01*
X278506Y-84076D01*
X278384Y-84074D01*
X280035Y-84455D02*
X280089Y-84475D01*
X280143Y-84499D01*
X280194Y-84527D01*
X280244Y-84557D01*
X280292Y-84590D01*
X280337Y-84627D01*
X280381Y-84666D01*
X280421Y-84707D01*
X280460Y-84751D01*
X280495Y-84798D01*
X280527Y-84846D01*
X280557Y-84896D01*
X280583Y-84949D01*
X280606Y-85002D01*
X280625Y-85057D01*
X280641Y-85113D01*
X280654Y-85170D01*
X280663Y-85228D01*
X280668Y-85286D01*
X280670Y-85344D01*
X279654Y-86360D02*
X277114Y-84328D01*
X277622Y-81940D02*
X279908Y-81940D01*
X279962Y-81938D01*
X280016Y-81932D01*
X280070Y-81923D01*
X280123Y-81909D01*
X280174Y-81892D01*
X280225Y-81871D01*
X280273Y-81847D01*
X280320Y-81819D01*
X280365Y-81788D01*
X280407Y-81754D01*
X280447Y-81717D01*
X280484Y-81677D01*
X280518Y-81635D01*
X280549Y-81590D01*
X280577Y-81543D01*
X280601Y-81495D01*
X280622Y-81444D01*
X280639Y-81393D01*
X280653Y-81340D01*
X280662Y-81286D01*
X280668Y-81232D01*
X280670Y-81178D01*
X280670Y-79908D01*
X277622Y-79908D01*
X276098Y-77612D02*
X280670Y-77612D01*
X276098Y-77612D02*
X276098Y-75580D01*
X278130Y-75580D02*
X278130Y-77612D01*
X128524Y-138430D02*
X127508Y-138430D01*
X127447Y-138428D01*
X127386Y-138423D01*
X127325Y-138413D01*
X127265Y-138400D01*
X127206Y-138384D01*
X127148Y-138364D01*
X127091Y-138340D01*
X127036Y-138314D01*
X126982Y-138283D01*
X126931Y-138250D01*
X126881Y-138214D01*
X126834Y-138174D01*
X126790Y-138132D01*
X126748Y-138088D01*
X126708Y-138041D01*
X126672Y-137991D01*
X126639Y-137940D01*
X126608Y-137886D01*
X126582Y-137831D01*
X126558Y-137774D01*
X126538Y-137716D01*
X126522Y-137657D01*
X126509Y-137597D01*
X126499Y-137536D01*
X126494Y-137475D01*
X126492Y-137414D01*
X126492Y-134874D01*
X126494Y-134813D01*
X126499Y-134752D01*
X126509Y-134691D01*
X126522Y-134631D01*
X126538Y-134572D01*
X126558Y-134514D01*
X126582Y-134457D01*
X126608Y-134402D01*
X126639Y-134348D01*
X126672Y-134297D01*
X126708Y-134247D01*
X126748Y-134200D01*
X126790Y-134156D01*
X126834Y-134114D01*
X126881Y-134074D01*
X126931Y-134038D01*
X126982Y-134005D01*
X127036Y-133974D01*
X127091Y-133948D01*
X127148Y-133924D01*
X127206Y-133904D01*
X127265Y-133888D01*
X127325Y-133875D01*
X127386Y-133865D01*
X127447Y-133860D01*
X127508Y-133858D01*
X128524Y-133858D01*
X130317Y-134874D02*
X131587Y-133858D01*
X131587Y-138430D01*
X130317Y-138430D02*
X132857Y-138430D01*
X134889Y-135890D02*
X136413Y-135890D01*
X136474Y-135892D01*
X136535Y-135897D01*
X136596Y-135907D01*
X136656Y-135920D01*
X136715Y-135936D01*
X136773Y-135956D01*
X136830Y-135980D01*
X136885Y-136006D01*
X136939Y-136037D01*
X136990Y-136070D01*
X137040Y-136106D01*
X137087Y-136146D01*
X137131Y-136188D01*
X137173Y-136232D01*
X137213Y-136279D01*
X137249Y-136329D01*
X137282Y-136380D01*
X137313Y-136434D01*
X137339Y-136489D01*
X137363Y-136546D01*
X137383Y-136604D01*
X137399Y-136663D01*
X137412Y-136723D01*
X137422Y-136784D01*
X137427Y-136845D01*
X137429Y-136906D01*
X137429Y-137160D01*
X137427Y-137230D01*
X137421Y-137300D01*
X137412Y-137369D01*
X137398Y-137438D01*
X137381Y-137506D01*
X137360Y-137572D01*
X137336Y-137638D01*
X137308Y-137702D01*
X137276Y-137764D01*
X137241Y-137825D01*
X137203Y-137884D01*
X137161Y-137940D01*
X137117Y-137994D01*
X137069Y-138046D01*
X137019Y-138094D01*
X136966Y-138140D01*
X136911Y-138183D01*
X136854Y-138223D01*
X136794Y-138260D01*
X136732Y-138293D01*
X136669Y-138323D01*
X136604Y-138349D01*
X136538Y-138372D01*
X136471Y-138391D01*
X136402Y-138406D01*
X136333Y-138418D01*
X136264Y-138426D01*
X136194Y-138430D01*
X136124Y-138430D01*
X136054Y-138426D01*
X135985Y-138418D01*
X135916Y-138406D01*
X135847Y-138391D01*
X135780Y-138372D01*
X135714Y-138349D01*
X135649Y-138323D01*
X135586Y-138293D01*
X135524Y-138260D01*
X135464Y-138223D01*
X135407Y-138183D01*
X135352Y-138140D01*
X135299Y-138094D01*
X135249Y-138046D01*
X135201Y-137994D01*
X135157Y-137940D01*
X135115Y-137884D01*
X135077Y-137825D01*
X135042Y-137764D01*
X135010Y-137702D01*
X134982Y-137638D01*
X134958Y-137572D01*
X134937Y-137506D01*
X134920Y-137438D01*
X134906Y-137369D01*
X134897Y-137300D01*
X134891Y-137230D01*
X134889Y-137160D01*
X134889Y-135890D01*
X134891Y-135801D01*
X134897Y-135713D01*
X134906Y-135625D01*
X134920Y-135537D01*
X134937Y-135450D01*
X134958Y-135364D01*
X134983Y-135279D01*
X135012Y-135195D01*
X135044Y-135112D01*
X135079Y-135031D01*
X135119Y-134952D01*
X135161Y-134874D01*
X135207Y-134798D01*
X135256Y-134724D01*
X135309Y-134653D01*
X135364Y-134584D01*
X135423Y-134517D01*
X135484Y-134453D01*
X135548Y-134392D01*
X135615Y-134333D01*
X135684Y-134278D01*
X135755Y-134225D01*
X135829Y-134176D01*
X135905Y-134130D01*
X135983Y-134088D01*
X136062Y-134048D01*
X136143Y-134013D01*
X136226Y-133981D01*
X136310Y-133952D01*
X136395Y-133927D01*
X136481Y-133906D01*
X136568Y-133889D01*
X136656Y-133875D01*
X136744Y-133866D01*
X136832Y-133860D01*
X136921Y-133858D01*
X123698Y-159004D02*
X120142Y-157988D01*
X123698Y-159004D02*
X123698Y-156464D01*
X122682Y-157226D02*
X124714Y-157226D01*
X124714Y-154661D02*
X124460Y-154661D01*
X124460Y-154407D01*
X124714Y-154407D01*
X124714Y-154661D01*
X120650Y-152603D02*
X120142Y-152603D01*
X120142Y-150063D01*
X124714Y-151333D01*
X123952Y-147930D02*
X121666Y-147930D01*
X123952Y-147930D02*
X124006Y-147928D01*
X124060Y-147922D01*
X124114Y-147913D01*
X124167Y-147899D01*
X124218Y-147882D01*
X124269Y-147861D01*
X124317Y-147837D01*
X124364Y-147809D01*
X124409Y-147778D01*
X124451Y-147744D01*
X124491Y-147707D01*
X124528Y-147667D01*
X124562Y-147625D01*
X124593Y-147580D01*
X124621Y-147533D01*
X124645Y-147485D01*
X124666Y-147434D01*
X124683Y-147383D01*
X124697Y-147330D01*
X124706Y-147276D01*
X124712Y-147222D01*
X124714Y-147168D01*
X124714Y-145898D01*
X121666Y-145898D01*
X120142Y-143602D02*
X124714Y-143602D01*
X120142Y-143602D02*
X120142Y-141570D01*
X122174Y-141570D02*
X122174Y-143602D01*
X189484Y-122951D02*
X189484Y-121935D01*
X189484Y-122951D02*
X189482Y-123012D01*
X189477Y-123073D01*
X189467Y-123134D01*
X189454Y-123194D01*
X189438Y-123253D01*
X189418Y-123311D01*
X189394Y-123368D01*
X189368Y-123423D01*
X189337Y-123477D01*
X189304Y-123528D01*
X189268Y-123578D01*
X189228Y-123625D01*
X189186Y-123669D01*
X189142Y-123711D01*
X189095Y-123751D01*
X189045Y-123787D01*
X188994Y-123820D01*
X188940Y-123851D01*
X188885Y-123877D01*
X188828Y-123901D01*
X188770Y-123921D01*
X188711Y-123937D01*
X188651Y-123950D01*
X188590Y-123960D01*
X188529Y-123965D01*
X188468Y-123967D01*
X185928Y-123967D01*
X185867Y-123965D01*
X185806Y-123960D01*
X185745Y-123950D01*
X185685Y-123937D01*
X185626Y-123921D01*
X185568Y-123901D01*
X185511Y-123877D01*
X185456Y-123851D01*
X185402Y-123820D01*
X185351Y-123787D01*
X185301Y-123751D01*
X185254Y-123711D01*
X185210Y-123669D01*
X185168Y-123625D01*
X185128Y-123578D01*
X185092Y-123528D01*
X185059Y-123477D01*
X185028Y-123423D01*
X185002Y-123368D01*
X184978Y-123311D01*
X184958Y-123253D01*
X184942Y-123194D01*
X184929Y-123134D01*
X184919Y-123073D01*
X184914Y-123012D01*
X184912Y-122951D01*
X184912Y-121935D01*
X185928Y-120142D02*
X184912Y-118872D01*
X189484Y-118872D01*
X189484Y-120142D02*
X189484Y-117602D01*
X185420Y-115570D02*
X184912Y-115570D01*
X184912Y-113030D01*
X189484Y-114300D01*
D15*
X199368Y-124333D02*
X198578Y-127099D01*
X200554Y-127099D01*
X199961Y-126309D02*
X199961Y-127889D01*
X201867Y-127889D02*
X201867Y-127691D01*
X202065Y-127691D01*
X202065Y-127889D01*
X201867Y-127889D01*
X203379Y-124728D02*
X203379Y-124333D01*
X205354Y-124333D01*
X204366Y-127889D01*
X206891Y-127296D02*
X206891Y-125518D01*
X206891Y-127296D02*
X206893Y-127343D01*
X206898Y-127389D01*
X206907Y-127434D01*
X206920Y-127479D01*
X206936Y-127523D01*
X206956Y-127565D01*
X206978Y-127606D01*
X207004Y-127645D01*
X207033Y-127681D01*
X207065Y-127715D01*
X207099Y-127747D01*
X207135Y-127776D01*
X207174Y-127802D01*
X207215Y-127824D01*
X207257Y-127844D01*
X207301Y-127860D01*
X207346Y-127873D01*
X207391Y-127882D01*
X207438Y-127887D01*
X207484Y-127889D01*
X208471Y-127889D01*
X208471Y-125518D01*
X210129Y-124333D02*
X210129Y-127889D01*
X210129Y-124333D02*
X211709Y-124333D01*
X211709Y-125913D02*
X210129Y-125913D01*
M02*
