G04 EAGLE Gerber RS-274X export*
G75*
%MOMM*%
%FSLAX34Y34*%
%LPD*%
%INSolderpaste Bottom*%
%IPPOS*%
%AMOC8*
5,1,8,0,0,1.08239X$1,22.5*%
G01*
%ADD10R,1.800000X1.200000*%
%ADD11R,0.350000X0.250000*%
%ADD12C,0.088500*%
%ADD13R,0.250000X0.350000*%
%ADD14C,0.065000*%
%ADD15R,2.032000X1.270000*%
%ADD16R,1.000000X0.650000*%
%ADD17R,0.650000X1.000000*%
%ADD18R,1.168400X1.600200*%
%ADD19R,1.600200X1.168400*%
%ADD20R,0.500000X0.600000*%


D10*
X339100Y422746D03*
X339100Y446746D03*
X299100Y446746D03*
X299100Y422746D03*
D11*
X281254Y443584D03*
X281254Y437084D03*
X356768Y420092D03*
X356768Y426592D03*
D12*
X339530Y608870D02*
X339530Y613886D01*
X350746Y613886D01*
X350746Y608870D01*
X339530Y608870D01*
X339530Y609711D02*
X350746Y609711D01*
X350746Y610552D02*
X339530Y610552D01*
X339530Y611393D02*
X350746Y611393D01*
X350746Y612234D02*
X339530Y612234D01*
X339530Y613075D02*
X350746Y613075D01*
X314430Y594886D02*
X314430Y589870D01*
X314430Y594886D02*
X325646Y594886D01*
X325646Y589870D01*
X314430Y589870D01*
X314430Y590711D02*
X325646Y590711D01*
X325646Y591552D02*
X314430Y591552D01*
X314430Y592393D02*
X325646Y592393D01*
X325646Y593234D02*
X314430Y593234D01*
X314430Y594075D02*
X325646Y594075D01*
X339530Y599370D02*
X339530Y604386D01*
X350746Y604386D01*
X350746Y599370D01*
X339530Y599370D01*
X339530Y600211D02*
X350746Y600211D01*
X350746Y601052D02*
X339530Y601052D01*
X339530Y601893D02*
X350746Y601893D01*
X350746Y602734D02*
X339530Y602734D01*
X339530Y603575D02*
X350746Y603575D01*
X339530Y594886D02*
X339530Y589870D01*
X339530Y594886D02*
X350746Y594886D01*
X350746Y589870D01*
X339530Y589870D01*
X339530Y590711D02*
X350746Y590711D01*
X350746Y591552D02*
X339530Y591552D01*
X339530Y592393D02*
X350746Y592393D01*
X350746Y593234D02*
X339530Y593234D01*
X339530Y594075D02*
X350746Y594075D01*
X314430Y608870D02*
X314430Y613886D01*
X325646Y613886D01*
X325646Y608870D01*
X314430Y608870D01*
X314430Y609711D02*
X325646Y609711D01*
X325646Y610552D02*
X314430Y610552D01*
X314430Y611393D02*
X325646Y611393D01*
X325646Y612234D02*
X314430Y612234D01*
X314430Y613075D02*
X325646Y613075D01*
D13*
X305690Y563397D03*
X312190Y563397D03*
D11*
X357734Y489558D03*
X357734Y483058D03*
D13*
X345312Y623900D03*
X338812Y623900D03*
X311657Y570967D03*
X305157Y570967D03*
D14*
X291811Y553835D02*
X291811Y540085D01*
X291811Y553835D02*
X293761Y553835D01*
X293761Y540085D01*
X291811Y540085D01*
X291811Y540702D02*
X293761Y540702D01*
X293761Y541319D02*
X291811Y541319D01*
X291811Y541936D02*
X293761Y541936D01*
X293761Y542553D02*
X291811Y542553D01*
X291811Y543170D02*
X293761Y543170D01*
X293761Y543787D02*
X291811Y543787D01*
X291811Y544404D02*
X293761Y544404D01*
X293761Y545021D02*
X291811Y545021D01*
X291811Y545638D02*
X293761Y545638D01*
X293761Y546255D02*
X291811Y546255D01*
X291811Y546872D02*
X293761Y546872D01*
X293761Y547489D02*
X291811Y547489D01*
X291811Y548106D02*
X293761Y548106D01*
X293761Y548723D02*
X291811Y548723D01*
X291811Y549340D02*
X293761Y549340D01*
X293761Y549957D02*
X291811Y549957D01*
X291811Y550574D02*
X293761Y550574D01*
X293761Y551191D02*
X291811Y551191D01*
X291811Y551808D02*
X293761Y551808D01*
X293761Y552425D02*
X291811Y552425D01*
X291811Y553042D02*
X293761Y553042D01*
X293761Y553659D02*
X291811Y553659D01*
X296811Y553835D02*
X296811Y540085D01*
X296811Y553835D02*
X298761Y553835D01*
X298761Y540085D01*
X296811Y540085D01*
X296811Y540702D02*
X298761Y540702D01*
X298761Y541319D02*
X296811Y541319D01*
X296811Y541936D02*
X298761Y541936D01*
X298761Y542553D02*
X296811Y542553D01*
X296811Y543170D02*
X298761Y543170D01*
X298761Y543787D02*
X296811Y543787D01*
X296811Y544404D02*
X298761Y544404D01*
X298761Y545021D02*
X296811Y545021D01*
X296811Y545638D02*
X298761Y545638D01*
X298761Y546255D02*
X296811Y546255D01*
X296811Y546872D02*
X298761Y546872D01*
X298761Y547489D02*
X296811Y547489D01*
X296811Y548106D02*
X298761Y548106D01*
X298761Y548723D02*
X296811Y548723D01*
X296811Y549340D02*
X298761Y549340D01*
X298761Y549957D02*
X296811Y549957D01*
X296811Y550574D02*
X298761Y550574D01*
X298761Y551191D02*
X296811Y551191D01*
X296811Y551808D02*
X298761Y551808D01*
X298761Y552425D02*
X296811Y552425D01*
X296811Y553042D02*
X298761Y553042D01*
X298761Y553659D02*
X296811Y553659D01*
X301811Y553835D02*
X301811Y540085D01*
X301811Y553835D02*
X303761Y553835D01*
X303761Y540085D01*
X301811Y540085D01*
X301811Y540702D02*
X303761Y540702D01*
X303761Y541319D02*
X301811Y541319D01*
X301811Y541936D02*
X303761Y541936D01*
X303761Y542553D02*
X301811Y542553D01*
X301811Y543170D02*
X303761Y543170D01*
X303761Y543787D02*
X301811Y543787D01*
X301811Y544404D02*
X303761Y544404D01*
X303761Y545021D02*
X301811Y545021D01*
X301811Y545638D02*
X303761Y545638D01*
X303761Y546255D02*
X301811Y546255D01*
X301811Y546872D02*
X303761Y546872D01*
X303761Y547489D02*
X301811Y547489D01*
X301811Y548106D02*
X303761Y548106D01*
X303761Y548723D02*
X301811Y548723D01*
X301811Y549340D02*
X303761Y549340D01*
X303761Y549957D02*
X301811Y549957D01*
X301811Y550574D02*
X303761Y550574D01*
X303761Y551191D02*
X301811Y551191D01*
X301811Y551808D02*
X303761Y551808D01*
X303761Y552425D02*
X301811Y552425D01*
X301811Y553042D02*
X303761Y553042D01*
X303761Y553659D02*
X301811Y553659D01*
X306811Y553835D02*
X306811Y540085D01*
X306811Y553835D02*
X308761Y553835D01*
X308761Y540085D01*
X306811Y540085D01*
X306811Y540702D02*
X308761Y540702D01*
X308761Y541319D02*
X306811Y541319D01*
X306811Y541936D02*
X308761Y541936D01*
X308761Y542553D02*
X306811Y542553D01*
X306811Y543170D02*
X308761Y543170D01*
X308761Y543787D02*
X306811Y543787D01*
X306811Y544404D02*
X308761Y544404D01*
X308761Y545021D02*
X306811Y545021D01*
X306811Y545638D02*
X308761Y545638D01*
X308761Y546255D02*
X306811Y546255D01*
X306811Y546872D02*
X308761Y546872D01*
X308761Y547489D02*
X306811Y547489D01*
X306811Y548106D02*
X308761Y548106D01*
X308761Y548723D02*
X306811Y548723D01*
X306811Y549340D02*
X308761Y549340D01*
X308761Y549957D02*
X306811Y549957D01*
X306811Y550574D02*
X308761Y550574D01*
X308761Y551191D02*
X306811Y551191D01*
X306811Y551808D02*
X308761Y551808D01*
X308761Y552425D02*
X306811Y552425D01*
X306811Y553042D02*
X308761Y553042D01*
X308761Y553659D02*
X306811Y553659D01*
X311811Y553835D02*
X311811Y540085D01*
X311811Y553835D02*
X313761Y553835D01*
X313761Y540085D01*
X311811Y540085D01*
X311811Y540702D02*
X313761Y540702D01*
X313761Y541319D02*
X311811Y541319D01*
X311811Y541936D02*
X313761Y541936D01*
X313761Y542553D02*
X311811Y542553D01*
X311811Y543170D02*
X313761Y543170D01*
X313761Y543787D02*
X311811Y543787D01*
X311811Y544404D02*
X313761Y544404D01*
X313761Y545021D02*
X311811Y545021D01*
X311811Y545638D02*
X313761Y545638D01*
X313761Y546255D02*
X311811Y546255D01*
X311811Y546872D02*
X313761Y546872D01*
X313761Y547489D02*
X311811Y547489D01*
X311811Y548106D02*
X313761Y548106D01*
X313761Y548723D02*
X311811Y548723D01*
X311811Y549340D02*
X313761Y549340D01*
X313761Y549957D02*
X311811Y549957D01*
X311811Y550574D02*
X313761Y550574D01*
X313761Y551191D02*
X311811Y551191D01*
X311811Y551808D02*
X313761Y551808D01*
X313761Y552425D02*
X311811Y552425D01*
X311811Y553042D02*
X313761Y553042D01*
X313761Y553659D02*
X311811Y553659D01*
X316811Y553835D02*
X316811Y540085D01*
X316811Y553835D02*
X318761Y553835D01*
X318761Y540085D01*
X316811Y540085D01*
X316811Y540702D02*
X318761Y540702D01*
X318761Y541319D02*
X316811Y541319D01*
X316811Y541936D02*
X318761Y541936D01*
X318761Y542553D02*
X316811Y542553D01*
X316811Y543170D02*
X318761Y543170D01*
X318761Y543787D02*
X316811Y543787D01*
X316811Y544404D02*
X318761Y544404D01*
X318761Y545021D02*
X316811Y545021D01*
X316811Y545638D02*
X318761Y545638D01*
X318761Y546255D02*
X316811Y546255D01*
X316811Y546872D02*
X318761Y546872D01*
X318761Y547489D02*
X316811Y547489D01*
X316811Y548106D02*
X318761Y548106D01*
X318761Y548723D02*
X316811Y548723D01*
X316811Y549340D02*
X318761Y549340D01*
X318761Y549957D02*
X316811Y549957D01*
X316811Y550574D02*
X318761Y550574D01*
X318761Y551191D02*
X316811Y551191D01*
X316811Y551808D02*
X318761Y551808D01*
X318761Y552425D02*
X316811Y552425D01*
X316811Y553042D02*
X318761Y553042D01*
X318761Y553659D02*
X316811Y553659D01*
X321811Y553835D02*
X321811Y540085D01*
X321811Y553835D02*
X323761Y553835D01*
X323761Y540085D01*
X321811Y540085D01*
X321811Y540702D02*
X323761Y540702D01*
X323761Y541319D02*
X321811Y541319D01*
X321811Y541936D02*
X323761Y541936D01*
X323761Y542553D02*
X321811Y542553D01*
X321811Y543170D02*
X323761Y543170D01*
X323761Y543787D02*
X321811Y543787D01*
X321811Y544404D02*
X323761Y544404D01*
X323761Y545021D02*
X321811Y545021D01*
X321811Y545638D02*
X323761Y545638D01*
X323761Y546255D02*
X321811Y546255D01*
X321811Y546872D02*
X323761Y546872D01*
X323761Y547489D02*
X321811Y547489D01*
X321811Y548106D02*
X323761Y548106D01*
X323761Y548723D02*
X321811Y548723D01*
X321811Y549340D02*
X323761Y549340D01*
X323761Y549957D02*
X321811Y549957D01*
X321811Y550574D02*
X323761Y550574D01*
X323761Y551191D02*
X321811Y551191D01*
X321811Y551808D02*
X323761Y551808D01*
X323761Y552425D02*
X321811Y552425D01*
X321811Y553042D02*
X323761Y553042D01*
X323761Y553659D02*
X321811Y553659D01*
X326811Y553835D02*
X326811Y540085D01*
X326811Y553835D02*
X328761Y553835D01*
X328761Y540085D01*
X326811Y540085D01*
X326811Y540702D02*
X328761Y540702D01*
X328761Y541319D02*
X326811Y541319D01*
X326811Y541936D02*
X328761Y541936D01*
X328761Y542553D02*
X326811Y542553D01*
X326811Y543170D02*
X328761Y543170D01*
X328761Y543787D02*
X326811Y543787D01*
X326811Y544404D02*
X328761Y544404D01*
X328761Y545021D02*
X326811Y545021D01*
X326811Y545638D02*
X328761Y545638D01*
X328761Y546255D02*
X326811Y546255D01*
X326811Y546872D02*
X328761Y546872D01*
X328761Y547489D02*
X326811Y547489D01*
X326811Y548106D02*
X328761Y548106D01*
X328761Y548723D02*
X326811Y548723D01*
X326811Y549340D02*
X328761Y549340D01*
X328761Y549957D02*
X326811Y549957D01*
X326811Y550574D02*
X328761Y550574D01*
X328761Y551191D02*
X326811Y551191D01*
X326811Y551808D02*
X328761Y551808D01*
X328761Y552425D02*
X326811Y552425D01*
X326811Y553042D02*
X328761Y553042D01*
X328761Y553659D02*
X326811Y553659D01*
X326811Y489935D02*
X326811Y476185D01*
X326811Y489935D02*
X328761Y489935D01*
X328761Y476185D01*
X326811Y476185D01*
X326811Y476802D02*
X328761Y476802D01*
X328761Y477419D02*
X326811Y477419D01*
X326811Y478036D02*
X328761Y478036D01*
X328761Y478653D02*
X326811Y478653D01*
X326811Y479270D02*
X328761Y479270D01*
X328761Y479887D02*
X326811Y479887D01*
X326811Y480504D02*
X328761Y480504D01*
X328761Y481121D02*
X326811Y481121D01*
X326811Y481738D02*
X328761Y481738D01*
X328761Y482355D02*
X326811Y482355D01*
X326811Y482972D02*
X328761Y482972D01*
X328761Y483589D02*
X326811Y483589D01*
X326811Y484206D02*
X328761Y484206D01*
X328761Y484823D02*
X326811Y484823D01*
X326811Y485440D02*
X328761Y485440D01*
X328761Y486057D02*
X326811Y486057D01*
X326811Y486674D02*
X328761Y486674D01*
X328761Y487291D02*
X326811Y487291D01*
X326811Y487908D02*
X328761Y487908D01*
X328761Y488525D02*
X326811Y488525D01*
X326811Y489142D02*
X328761Y489142D01*
X328761Y489759D02*
X326811Y489759D01*
X321811Y489935D02*
X321811Y476185D01*
X321811Y489935D02*
X323761Y489935D01*
X323761Y476185D01*
X321811Y476185D01*
X321811Y476802D02*
X323761Y476802D01*
X323761Y477419D02*
X321811Y477419D01*
X321811Y478036D02*
X323761Y478036D01*
X323761Y478653D02*
X321811Y478653D01*
X321811Y479270D02*
X323761Y479270D01*
X323761Y479887D02*
X321811Y479887D01*
X321811Y480504D02*
X323761Y480504D01*
X323761Y481121D02*
X321811Y481121D01*
X321811Y481738D02*
X323761Y481738D01*
X323761Y482355D02*
X321811Y482355D01*
X321811Y482972D02*
X323761Y482972D01*
X323761Y483589D02*
X321811Y483589D01*
X321811Y484206D02*
X323761Y484206D01*
X323761Y484823D02*
X321811Y484823D01*
X321811Y485440D02*
X323761Y485440D01*
X323761Y486057D02*
X321811Y486057D01*
X321811Y486674D02*
X323761Y486674D01*
X323761Y487291D02*
X321811Y487291D01*
X321811Y487908D02*
X323761Y487908D01*
X323761Y488525D02*
X321811Y488525D01*
X321811Y489142D02*
X323761Y489142D01*
X323761Y489759D02*
X321811Y489759D01*
X316811Y489935D02*
X316811Y476185D01*
X316811Y489935D02*
X318761Y489935D01*
X318761Y476185D01*
X316811Y476185D01*
X316811Y476802D02*
X318761Y476802D01*
X318761Y477419D02*
X316811Y477419D01*
X316811Y478036D02*
X318761Y478036D01*
X318761Y478653D02*
X316811Y478653D01*
X316811Y479270D02*
X318761Y479270D01*
X318761Y479887D02*
X316811Y479887D01*
X316811Y480504D02*
X318761Y480504D01*
X318761Y481121D02*
X316811Y481121D01*
X316811Y481738D02*
X318761Y481738D01*
X318761Y482355D02*
X316811Y482355D01*
X316811Y482972D02*
X318761Y482972D01*
X318761Y483589D02*
X316811Y483589D01*
X316811Y484206D02*
X318761Y484206D01*
X318761Y484823D02*
X316811Y484823D01*
X316811Y485440D02*
X318761Y485440D01*
X318761Y486057D02*
X316811Y486057D01*
X316811Y486674D02*
X318761Y486674D01*
X318761Y487291D02*
X316811Y487291D01*
X316811Y487908D02*
X318761Y487908D01*
X318761Y488525D02*
X316811Y488525D01*
X316811Y489142D02*
X318761Y489142D01*
X318761Y489759D02*
X316811Y489759D01*
X311811Y489935D02*
X311811Y476185D01*
X311811Y489935D02*
X313761Y489935D01*
X313761Y476185D01*
X311811Y476185D01*
X311811Y476802D02*
X313761Y476802D01*
X313761Y477419D02*
X311811Y477419D01*
X311811Y478036D02*
X313761Y478036D01*
X313761Y478653D02*
X311811Y478653D01*
X311811Y479270D02*
X313761Y479270D01*
X313761Y479887D02*
X311811Y479887D01*
X311811Y480504D02*
X313761Y480504D01*
X313761Y481121D02*
X311811Y481121D01*
X311811Y481738D02*
X313761Y481738D01*
X313761Y482355D02*
X311811Y482355D01*
X311811Y482972D02*
X313761Y482972D01*
X313761Y483589D02*
X311811Y483589D01*
X311811Y484206D02*
X313761Y484206D01*
X313761Y484823D02*
X311811Y484823D01*
X311811Y485440D02*
X313761Y485440D01*
X313761Y486057D02*
X311811Y486057D01*
X311811Y486674D02*
X313761Y486674D01*
X313761Y487291D02*
X311811Y487291D01*
X311811Y487908D02*
X313761Y487908D01*
X313761Y488525D02*
X311811Y488525D01*
X311811Y489142D02*
X313761Y489142D01*
X313761Y489759D02*
X311811Y489759D01*
X306811Y489935D02*
X306811Y476185D01*
X306811Y489935D02*
X308761Y489935D01*
X308761Y476185D01*
X306811Y476185D01*
X306811Y476802D02*
X308761Y476802D01*
X308761Y477419D02*
X306811Y477419D01*
X306811Y478036D02*
X308761Y478036D01*
X308761Y478653D02*
X306811Y478653D01*
X306811Y479270D02*
X308761Y479270D01*
X308761Y479887D02*
X306811Y479887D01*
X306811Y480504D02*
X308761Y480504D01*
X308761Y481121D02*
X306811Y481121D01*
X306811Y481738D02*
X308761Y481738D01*
X308761Y482355D02*
X306811Y482355D01*
X306811Y482972D02*
X308761Y482972D01*
X308761Y483589D02*
X306811Y483589D01*
X306811Y484206D02*
X308761Y484206D01*
X308761Y484823D02*
X306811Y484823D01*
X306811Y485440D02*
X308761Y485440D01*
X308761Y486057D02*
X306811Y486057D01*
X306811Y486674D02*
X308761Y486674D01*
X308761Y487291D02*
X306811Y487291D01*
X306811Y487908D02*
X308761Y487908D01*
X308761Y488525D02*
X306811Y488525D01*
X306811Y489142D02*
X308761Y489142D01*
X308761Y489759D02*
X306811Y489759D01*
X301811Y489935D02*
X301811Y476185D01*
X301811Y489935D02*
X303761Y489935D01*
X303761Y476185D01*
X301811Y476185D01*
X301811Y476802D02*
X303761Y476802D01*
X303761Y477419D02*
X301811Y477419D01*
X301811Y478036D02*
X303761Y478036D01*
X303761Y478653D02*
X301811Y478653D01*
X301811Y479270D02*
X303761Y479270D01*
X303761Y479887D02*
X301811Y479887D01*
X301811Y480504D02*
X303761Y480504D01*
X303761Y481121D02*
X301811Y481121D01*
X301811Y481738D02*
X303761Y481738D01*
X303761Y482355D02*
X301811Y482355D01*
X301811Y482972D02*
X303761Y482972D01*
X303761Y483589D02*
X301811Y483589D01*
X301811Y484206D02*
X303761Y484206D01*
X303761Y484823D02*
X301811Y484823D01*
X301811Y485440D02*
X303761Y485440D01*
X303761Y486057D02*
X301811Y486057D01*
X301811Y486674D02*
X303761Y486674D01*
X303761Y487291D02*
X301811Y487291D01*
X301811Y487908D02*
X303761Y487908D01*
X303761Y488525D02*
X301811Y488525D01*
X301811Y489142D02*
X303761Y489142D01*
X303761Y489759D02*
X301811Y489759D01*
X296811Y489935D02*
X296811Y476185D01*
X296811Y489935D02*
X298761Y489935D01*
X298761Y476185D01*
X296811Y476185D01*
X296811Y476802D02*
X298761Y476802D01*
X298761Y477419D02*
X296811Y477419D01*
X296811Y478036D02*
X298761Y478036D01*
X298761Y478653D02*
X296811Y478653D01*
X296811Y479270D02*
X298761Y479270D01*
X298761Y479887D02*
X296811Y479887D01*
X296811Y480504D02*
X298761Y480504D01*
X298761Y481121D02*
X296811Y481121D01*
X296811Y481738D02*
X298761Y481738D01*
X298761Y482355D02*
X296811Y482355D01*
X296811Y482972D02*
X298761Y482972D01*
X298761Y483589D02*
X296811Y483589D01*
X296811Y484206D02*
X298761Y484206D01*
X298761Y484823D02*
X296811Y484823D01*
X296811Y485440D02*
X298761Y485440D01*
X298761Y486057D02*
X296811Y486057D01*
X296811Y486674D02*
X298761Y486674D01*
X298761Y487291D02*
X296811Y487291D01*
X296811Y487908D02*
X298761Y487908D01*
X298761Y488525D02*
X296811Y488525D01*
X296811Y489142D02*
X298761Y489142D01*
X298761Y489759D02*
X296811Y489759D01*
X291811Y489935D02*
X291811Y476185D01*
X291811Y489935D02*
X293761Y489935D01*
X293761Y476185D01*
X291811Y476185D01*
X291811Y476802D02*
X293761Y476802D01*
X293761Y477419D02*
X291811Y477419D01*
X291811Y478036D02*
X293761Y478036D01*
X293761Y478653D02*
X291811Y478653D01*
X291811Y479270D02*
X293761Y479270D01*
X293761Y479887D02*
X291811Y479887D01*
X291811Y480504D02*
X293761Y480504D01*
X293761Y481121D02*
X291811Y481121D01*
X291811Y481738D02*
X293761Y481738D01*
X293761Y482355D02*
X291811Y482355D01*
X291811Y482972D02*
X293761Y482972D01*
X293761Y483589D02*
X291811Y483589D01*
X291811Y484206D02*
X293761Y484206D01*
X293761Y484823D02*
X291811Y484823D01*
X291811Y485440D02*
X293761Y485440D01*
X293761Y486057D02*
X291811Y486057D01*
X291811Y486674D02*
X293761Y486674D01*
X293761Y487291D02*
X291811Y487291D01*
X291811Y487908D02*
X293761Y487908D01*
X293761Y488525D02*
X291811Y488525D01*
X291811Y489142D02*
X293761Y489142D01*
X293761Y489759D02*
X291811Y489759D01*
X285211Y496535D02*
X271461Y496535D01*
X271461Y498485D01*
X285211Y498485D01*
X285211Y496535D01*
X285211Y497152D02*
X271461Y497152D01*
X271461Y497769D02*
X285211Y497769D01*
X285211Y498386D02*
X271461Y498386D01*
X271461Y501535D02*
X285211Y501535D01*
X271461Y501535D02*
X271461Y503485D01*
X285211Y503485D01*
X285211Y501535D01*
X285211Y502152D02*
X271461Y502152D01*
X271461Y502769D02*
X285211Y502769D01*
X285211Y503386D02*
X271461Y503386D01*
X271461Y506535D02*
X285211Y506535D01*
X271461Y506535D02*
X271461Y508485D01*
X285211Y508485D01*
X285211Y506535D01*
X285211Y507152D02*
X271461Y507152D01*
X271461Y507769D02*
X285211Y507769D01*
X285211Y508386D02*
X271461Y508386D01*
X271461Y511535D02*
X285211Y511535D01*
X271461Y511535D02*
X271461Y513485D01*
X285211Y513485D01*
X285211Y511535D01*
X285211Y512152D02*
X271461Y512152D01*
X271461Y512769D02*
X285211Y512769D01*
X285211Y513386D02*
X271461Y513386D01*
X271461Y516535D02*
X285211Y516535D01*
X271461Y516535D02*
X271461Y518485D01*
X285211Y518485D01*
X285211Y516535D01*
X285211Y517152D02*
X271461Y517152D01*
X271461Y517769D02*
X285211Y517769D01*
X285211Y518386D02*
X271461Y518386D01*
X271461Y521535D02*
X285211Y521535D01*
X271461Y521535D02*
X271461Y523485D01*
X285211Y523485D01*
X285211Y521535D01*
X285211Y522152D02*
X271461Y522152D01*
X271461Y522769D02*
X285211Y522769D01*
X285211Y523386D02*
X271461Y523386D01*
X271461Y526535D02*
X285211Y526535D01*
X271461Y526535D02*
X271461Y528485D01*
X285211Y528485D01*
X285211Y526535D01*
X285211Y527152D02*
X271461Y527152D01*
X271461Y527769D02*
X285211Y527769D01*
X285211Y528386D02*
X271461Y528386D01*
X271461Y531535D02*
X285211Y531535D01*
X271461Y531535D02*
X271461Y533485D01*
X285211Y533485D01*
X285211Y531535D01*
X285211Y532152D02*
X271461Y532152D01*
X271461Y532769D02*
X285211Y532769D01*
X285211Y533386D02*
X271461Y533386D01*
X335361Y531535D02*
X349111Y531535D01*
X335361Y531535D02*
X335361Y533485D01*
X349111Y533485D01*
X349111Y531535D01*
X349111Y532152D02*
X335361Y532152D01*
X335361Y532769D02*
X349111Y532769D01*
X349111Y533386D02*
X335361Y533386D01*
X335361Y526535D02*
X349111Y526535D01*
X335361Y526535D02*
X335361Y528485D01*
X349111Y528485D01*
X349111Y526535D01*
X349111Y527152D02*
X335361Y527152D01*
X335361Y527769D02*
X349111Y527769D01*
X349111Y528386D02*
X335361Y528386D01*
X335361Y521535D02*
X349111Y521535D01*
X335361Y521535D02*
X335361Y523485D01*
X349111Y523485D01*
X349111Y521535D01*
X349111Y522152D02*
X335361Y522152D01*
X335361Y522769D02*
X349111Y522769D01*
X349111Y523386D02*
X335361Y523386D01*
X335361Y516535D02*
X349111Y516535D01*
X335361Y516535D02*
X335361Y518485D01*
X349111Y518485D01*
X349111Y516535D01*
X349111Y517152D02*
X335361Y517152D01*
X335361Y517769D02*
X349111Y517769D01*
X349111Y518386D02*
X335361Y518386D01*
X335361Y511535D02*
X349111Y511535D01*
X335361Y511535D02*
X335361Y513485D01*
X349111Y513485D01*
X349111Y511535D01*
X349111Y512152D02*
X335361Y512152D01*
X335361Y512769D02*
X349111Y512769D01*
X349111Y513386D02*
X335361Y513386D01*
X335361Y506535D02*
X349111Y506535D01*
X335361Y506535D02*
X335361Y508485D01*
X349111Y508485D01*
X349111Y506535D01*
X349111Y507152D02*
X335361Y507152D01*
X335361Y507769D02*
X349111Y507769D01*
X349111Y508386D02*
X335361Y508386D01*
X335361Y501535D02*
X349111Y501535D01*
X335361Y501535D02*
X335361Y503485D01*
X349111Y503485D01*
X349111Y501535D01*
X349111Y502152D02*
X335361Y502152D01*
X335361Y502769D02*
X349111Y502769D01*
X349111Y503386D02*
X335361Y503386D01*
X335361Y496535D02*
X349111Y496535D01*
X335361Y496535D02*
X335361Y498485D01*
X349111Y498485D01*
X349111Y496535D01*
X349111Y497152D02*
X335361Y497152D01*
X335361Y497769D02*
X349111Y497769D01*
X349111Y498386D02*
X335361Y498386D01*
D15*
X201397Y428346D03*
X142977Y428346D03*
X142977Y453746D03*
X201397Y453746D03*
X142977Y479146D03*
X201397Y479146D03*
X142977Y504546D03*
X201397Y504546D03*
X142977Y529946D03*
X201397Y529946D03*
X142977Y555346D03*
X201397Y555346D03*
X142977Y580746D03*
X201397Y580746D03*
X142977Y606146D03*
X201397Y606146D03*
D16*
X247955Y411756D03*
X247955Y427256D03*
D17*
X216126Y409016D03*
X231626Y409016D03*
D16*
X247955Y453926D03*
X247955Y438426D03*
D17*
X219123Y452780D03*
X234623Y452780D03*
X219123Y424840D03*
X234623Y424840D03*
X219123Y438810D03*
X234623Y438810D03*
D16*
X247142Y467535D03*
X247142Y483035D03*
D17*
X219123Y468782D03*
X234623Y468782D03*
D16*
X247447Y509806D03*
X247447Y494306D03*
D17*
X219377Y511962D03*
X234877Y511962D03*
X219123Y482244D03*
X234623Y482244D03*
X219377Y497992D03*
X234877Y497992D03*
D16*
X247701Y525802D03*
X247701Y541302D03*
D17*
X219885Y526186D03*
X235385Y526186D03*
D16*
X247625Y568582D03*
X247625Y553082D03*
D17*
X219682Y570382D03*
X235182Y570382D03*
X219885Y540410D03*
X235385Y540410D03*
X219605Y556438D03*
X235105Y556438D03*
D16*
X247650Y579168D03*
X247650Y594668D03*
D17*
X217878Y584302D03*
X233378Y584302D03*
D16*
X245694Y621033D03*
X245694Y605533D03*
D17*
X217751Y628218D03*
X233251Y628218D03*
X217878Y599008D03*
X233378Y599008D03*
X217853Y613537D03*
X233353Y613537D03*
D18*
X339420Y570535D03*
X324180Y570535D03*
D19*
X303225Y597941D03*
X303225Y582701D03*
D20*
X364603Y658927D03*
X375603Y658927D03*
X358027Y554990D03*
X347027Y554990D03*
M02*
