G04 EAGLE Gerber RS-274X export*
G75*
%MOMM*%
%FSLAX34Y34*%
%LPD*%
%INSoldermask Top*%
%IPPOS*%
%AMOC8*
5,1,8,0,0,1.08239X$1,22.5*%
G01*
%ADD10C,1.703200*%
%ADD11R,1.703200X0.903200*%
%ADD12C,0.803200*%
%ADD13C,0.293481*%
%ADD14R,0.903200X1.603200*%
%ADD15R,1.103200X0.903200*%
%ADD16R,0.600000X0.300000*%
%ADD17R,0.300000X0.600000*%
%ADD18R,0.500000X0.500000*%
%ADD19R,0.603200X1.553200*%
%ADD20R,1.303200X2.303200*%
%ADD21R,4.803200X1.203200*%
%ADD22R,3.603200X1.803200*%
%ADD23P,1.759533X8X202.500000*%
%ADD24R,0.903200X1.103200*%
%ADD25R,1.524000X0.762000*%
%ADD26R,1.003200X0.803200*%
%ADD27R,1.603200X1.203200*%
%ADD28R,1.203200X1.603200*%
%ADD29R,0.558800X0.990600*%
%ADD30R,1.003200X1.003200*%
%ADD31C,1.103200*%
%ADD32R,1.603200X1.403200*%
%ADD33P,2.144431X8X22.500000*%
%ADD34P,2.144431X8X112.500000*%
%ADD35C,0.959600*%


D10*
X302006Y196088D03*
X78232Y196596D03*
X301752Y-276860D03*
X167386Y-276606D03*
X301752Y-201168D03*
D11*
X120500Y112140D03*
X120500Y101140D03*
X120500Y90140D03*
X120500Y79140D03*
X120500Y68140D03*
X120500Y57140D03*
X120500Y46140D03*
X120500Y35140D03*
X260500Y35140D03*
X260500Y46140D03*
X260500Y57140D03*
X260500Y68140D03*
X260500Y79140D03*
X260500Y90140D03*
X260500Y101140D03*
X260500Y112140D03*
D12*
X168000Y104140D03*
X183000Y104140D03*
X198000Y104140D03*
X213000Y104140D03*
X168000Y92140D03*
X183000Y92140D03*
X198000Y92140D03*
X213000Y92140D03*
X168000Y80140D03*
X183000Y80140D03*
X198000Y80140D03*
X213000Y80140D03*
X168000Y68140D03*
X183000Y68140D03*
X198000Y68140D03*
X213000Y68140D03*
X168000Y56140D03*
X183000Y56140D03*
X198000Y56140D03*
X213000Y56140D03*
X168000Y44140D03*
X183000Y44140D03*
X198000Y44140D03*
X213000Y44140D03*
D13*
X240677Y-95189D02*
X240677Y-100187D01*
X240677Y-95189D02*
X251875Y-95189D01*
X251875Y-100187D01*
X240677Y-100187D01*
X240677Y-97399D02*
X251875Y-97399D01*
X265777Y-114189D02*
X265777Y-119187D01*
X265777Y-114189D02*
X276975Y-114189D01*
X276975Y-119187D01*
X265777Y-119187D01*
X265777Y-116399D02*
X276975Y-116399D01*
X240677Y-109687D02*
X240677Y-104689D01*
X251875Y-104689D01*
X251875Y-109687D01*
X240677Y-109687D01*
X240677Y-106899D02*
X251875Y-106899D01*
X240677Y-114189D02*
X240677Y-119187D01*
X240677Y-114189D02*
X251875Y-114189D01*
X251875Y-119187D01*
X240677Y-119187D01*
X240677Y-116399D02*
X251875Y-116399D01*
X265777Y-100187D02*
X265777Y-95189D01*
X276975Y-95189D01*
X276975Y-100187D01*
X265777Y-100187D01*
X265777Y-97399D02*
X276975Y-97399D01*
D14*
X238134Y7366D03*
X255134Y7366D03*
D15*
X220980Y-1928D03*
X220980Y11072D03*
X265938Y-2182D03*
X265938Y10818D03*
D16*
X248526Y-141464D03*
X248526Y-146464D03*
X248526Y-151464D03*
X248526Y-156464D03*
X248526Y-161464D03*
X248526Y-166464D03*
X248526Y-171464D03*
D17*
X256526Y-179464D03*
X261526Y-179464D03*
X266526Y-179464D03*
X271526Y-179464D03*
X276526Y-179464D03*
X281526Y-179464D03*
X286526Y-179464D03*
D16*
X294526Y-171464D03*
X294526Y-166464D03*
X294526Y-161464D03*
X294526Y-156464D03*
X294526Y-151464D03*
X294526Y-146464D03*
X294526Y-141464D03*
D17*
X286526Y-133464D03*
X281526Y-133464D03*
X276526Y-133464D03*
X271526Y-133464D03*
X266526Y-133464D03*
X261526Y-133464D03*
X256526Y-133464D03*
D18*
X250501Y-135439D03*
D16*
X261526Y-143964D03*
X271526Y-143964D03*
X281526Y-143964D03*
X261526Y-148964D03*
X271526Y-148964D03*
X281526Y-148964D03*
X261526Y-153964D03*
X271526Y-153964D03*
X281526Y-153964D03*
X261526Y-158964D03*
X271526Y-158964D03*
X281526Y-158964D03*
X261526Y-163964D03*
X271526Y-163964D03*
X281526Y-163964D03*
X261526Y-168964D03*
X271526Y-168964D03*
X281526Y-168964D03*
D19*
X233380Y-249164D03*
X239880Y-249164D03*
X246380Y-249164D03*
X252880Y-249164D03*
X259380Y-249164D03*
D20*
X229880Y-275914D03*
X262880Y-275914D03*
D21*
X142156Y-251554D03*
X142156Y-231554D03*
D22*
X90156Y-275554D03*
X90156Y-207554D03*
D23*
X277876Y-36576D03*
X277876Y-61976D03*
X252476Y-36576D03*
X252476Y-61976D03*
X227076Y-36576D03*
X227076Y-61976D03*
X201676Y-36576D03*
X201676Y-61976D03*
X176276Y-36576D03*
X176276Y-61976D03*
X150876Y-36576D03*
X150876Y-61976D03*
X125476Y-36576D03*
X125476Y-61976D03*
X100076Y-36576D03*
X100076Y-61976D03*
D24*
X252118Y-207772D03*
X239118Y-207772D03*
X251864Y-195580D03*
X238864Y-195580D03*
D15*
X288544Y-112164D03*
X288544Y-99164D03*
X227838Y-119276D03*
X227838Y-106276D03*
D25*
X152908Y-136144D03*
X152908Y-145542D03*
X152908Y-154940D03*
X180340Y-154940D03*
X180340Y-136144D03*
D26*
X209096Y-106172D03*
X184096Y-106172D03*
D27*
X191594Y-204978D03*
X169594Y-214478D03*
X169594Y-195478D03*
D28*
X161290Y-95426D03*
X170790Y-117426D03*
X151790Y-117426D03*
D29*
X198478Y-188468D03*
X204978Y-188468D03*
X211478Y-188468D03*
X211478Y-167132D03*
X204978Y-167132D03*
X198478Y-167132D03*
D30*
X172092Y-170434D03*
X157092Y-170434D03*
X299974Y-112148D03*
X299974Y-97148D03*
D24*
X179982Y-181610D03*
X166982Y-181610D03*
X300378Y-84836D03*
X287378Y-84836D03*
D15*
X206502Y-216558D03*
X206502Y-203558D03*
X223520Y-203812D03*
X223520Y-216812D03*
X198882Y-133708D03*
X198882Y-146708D03*
X212852Y-146454D03*
X212852Y-133454D03*
D31*
X107696Y-116114D03*
D32*
X130196Y-175114D03*
X85196Y-150114D03*
X130196Y-125114D03*
D31*
X107696Y-184114D03*
D33*
X302260Y175514D03*
X302260Y150114D03*
X302260Y124714D03*
X302260Y99314D03*
X302260Y73914D03*
X302260Y48514D03*
X302260Y23114D03*
X302260Y-2286D03*
X78232Y175133D03*
X78232Y149733D03*
X78232Y124333D03*
X78232Y98933D03*
X78232Y73533D03*
X78232Y48133D03*
X78232Y22733D03*
X78232Y-2667D03*
D34*
X102870Y197866D03*
X128270Y197866D03*
X153670Y197866D03*
X179070Y197866D03*
X204470Y197866D03*
X229870Y197866D03*
X255270Y197866D03*
X280670Y197866D03*
D15*
X224282Y-183030D03*
X224282Y-170030D03*
D24*
X256898Y-83820D03*
X269898Y-83820D03*
D15*
X133604Y-144376D03*
X133604Y-157376D03*
D24*
X210970Y-118110D03*
X197970Y-118110D03*
D35*
X221742Y38248D03*
X276352Y42926D03*
X79248Y-101600D03*
X80264Y-184150D03*
X90932Y-240792D03*
X136144Y-275844D03*
X177038Y-246126D03*
X278130Y-228854D03*
X230886Y-140716D03*
X231648Y-87630D03*
X172212Y11938D03*
X159512Y13716D03*
X147066Y15748D03*
X147066Y27178D03*
X134366Y508D03*
X190500Y254D03*
X102108Y-8763D03*
X275844Y-2032D03*
X250190Y-184912D03*
X200406Y-227584D03*
X229616Y46990D03*
X78105Y-17526D03*
X208788Y121666D03*
X175514Y109982D03*
X260096Y124206D03*
X189484Y-276352D03*
X107696Y-150622D03*
X307340Y-184150D03*
X300228Y-250698D03*
X181356Y-125730D03*
X105156Y-254508D03*
X245618Y46482D03*
X301498Y-52070D03*
X104648Y-227584D03*
X135636Y97790D03*
X143764Y105156D03*
X151638Y98298D03*
X153162Y107696D03*
X175514Y97282D03*
X190754Y97282D03*
X279908Y28448D03*
X307693Y-17907D03*
X307291Y-131875D03*
X259842Y-124968D03*
X280187Y18313D03*
X304645Y-26543D03*
X300052Y-123620D03*
X274320Y-125158D03*
X240718Y-231140D03*
X236156Y-163830D03*
X251206Y-231902D03*
X232156Y-152400D03*
X181610Y-231140D03*
X214884Y-231394D03*
X211128Y-95758D03*
X239268Y113030D03*
X248412Y122936D03*
X160528Y125928D03*
X230632Y105156D03*
X177292Y122654D03*
X222504Y118364D03*
X189992Y114808D03*
M02*
