G04 EAGLE Gerber RS-274X export*
G75*
%MOMM*%
%FSLAX34Y34*%
%LPD*%
%INSolderpaste Top*%
%IPPOS*%
%AMOC8*
5,1,8,0,0,1.08239X$1,22.5*%
G01*
%ADD10R,1.500000X0.700000*%
%ADD11C,0.600000*%
%ADD12C,0.088500*%
%ADD13R,0.700000X1.400000*%
%ADD14R,0.900000X0.700000*%
%ADD15R,0.400000X1.350000*%
%ADD16R,1.100000X2.100000*%
%ADD17R,4.600000X1.000000*%
%ADD18R,3.400000X1.600000*%
%ADD19R,1.320800X0.558800*%
%ADD20R,0.800000X0.600000*%
%ADD21R,1.400000X1.000000*%
%ADD22R,1.000000X1.400000*%
%ADD23R,0.355600X0.787400*%
%ADD24R,0.800000X0.800000*%
%ADD25R,0.700000X0.900000*%
%ADD26R,1.400000X1.200000*%
%ADD27R,0.750000X0.750000*%
%ADD28R,0.300000X0.300000*%
%ADD29R,0.900000X0.300000*%
%ADD30R,0.300000X0.900000*%


D10*
X120500Y112140D03*
X120500Y101140D03*
X120500Y90140D03*
X120500Y79140D03*
X120500Y68140D03*
X120500Y57140D03*
X120500Y46140D03*
X120500Y35140D03*
X260500Y35140D03*
X260500Y46140D03*
X260500Y57140D03*
X260500Y68140D03*
X260500Y79140D03*
X260500Y90140D03*
X260500Y101140D03*
X260500Y112140D03*
D11*
X168000Y104140D03*
X183000Y104140D03*
X198000Y104140D03*
X213000Y104140D03*
X168000Y92140D03*
X183000Y92140D03*
X198000Y92140D03*
X213000Y92140D03*
X168000Y80140D03*
X183000Y80140D03*
X198000Y80140D03*
X213000Y80140D03*
X168000Y68140D03*
X183000Y68140D03*
X198000Y68140D03*
X213000Y68140D03*
X168000Y56140D03*
X183000Y56140D03*
X198000Y56140D03*
X213000Y56140D03*
X168000Y44140D03*
X183000Y44140D03*
X198000Y44140D03*
X213000Y44140D03*
D12*
X240668Y-95180D02*
X240668Y-100196D01*
X240668Y-95180D02*
X251884Y-95180D01*
X251884Y-100196D01*
X240668Y-100196D01*
X240668Y-99355D02*
X251884Y-99355D01*
X251884Y-98514D02*
X240668Y-98514D01*
X240668Y-97673D02*
X251884Y-97673D01*
X251884Y-96832D02*
X240668Y-96832D01*
X240668Y-95991D02*
X251884Y-95991D01*
X265768Y-114180D02*
X265768Y-119196D01*
X265768Y-114180D02*
X276984Y-114180D01*
X276984Y-119196D01*
X265768Y-119196D01*
X265768Y-118355D02*
X276984Y-118355D01*
X276984Y-117514D02*
X265768Y-117514D01*
X265768Y-116673D02*
X276984Y-116673D01*
X276984Y-115832D02*
X265768Y-115832D01*
X265768Y-114991D02*
X276984Y-114991D01*
X240668Y-109696D02*
X240668Y-104680D01*
X251884Y-104680D01*
X251884Y-109696D01*
X240668Y-109696D01*
X240668Y-108855D02*
X251884Y-108855D01*
X251884Y-108014D02*
X240668Y-108014D01*
X240668Y-107173D02*
X251884Y-107173D01*
X251884Y-106332D02*
X240668Y-106332D01*
X240668Y-105491D02*
X251884Y-105491D01*
X240668Y-114180D02*
X240668Y-119196D01*
X240668Y-114180D02*
X251884Y-114180D01*
X251884Y-119196D01*
X240668Y-119196D01*
X240668Y-118355D02*
X251884Y-118355D01*
X251884Y-117514D02*
X240668Y-117514D01*
X240668Y-116673D02*
X251884Y-116673D01*
X251884Y-115832D02*
X240668Y-115832D01*
X240668Y-114991D02*
X251884Y-114991D01*
X265768Y-100196D02*
X265768Y-95180D01*
X276984Y-95180D01*
X276984Y-100196D01*
X265768Y-100196D01*
X265768Y-99355D02*
X276984Y-99355D01*
X276984Y-98514D02*
X265768Y-98514D01*
X265768Y-97673D02*
X276984Y-97673D01*
X276984Y-96832D02*
X265768Y-96832D01*
X265768Y-95991D02*
X276984Y-95991D01*
D13*
X238134Y7366D03*
X255134Y7366D03*
D14*
X220980Y-1928D03*
X220980Y11072D03*
X265938Y-2182D03*
X265938Y10818D03*
D15*
X233380Y-249164D03*
X239880Y-249164D03*
X246380Y-249164D03*
X252880Y-249164D03*
X259380Y-249164D03*
D16*
X229880Y-275914D03*
X262880Y-275914D03*
D17*
X142156Y-251554D03*
X142156Y-231554D03*
D18*
X90156Y-275554D03*
X90156Y-207554D03*
D14*
X288544Y-112164D03*
X288544Y-99164D03*
X227838Y-119276D03*
X227838Y-106276D03*
D19*
X152908Y-136144D03*
X152908Y-145542D03*
X152908Y-154940D03*
X180340Y-154940D03*
X180340Y-136144D03*
D20*
X209096Y-106172D03*
X184096Y-106172D03*
D21*
X191594Y-204978D03*
X169594Y-214478D03*
X169594Y-195478D03*
D22*
X161290Y-95426D03*
X170790Y-117426D03*
X151790Y-117426D03*
D23*
X198478Y-188468D03*
X204978Y-188468D03*
X211478Y-188468D03*
X211478Y-167132D03*
X204978Y-167132D03*
X198478Y-167132D03*
D24*
X172092Y-170434D03*
X157092Y-170434D03*
X299974Y-112148D03*
X299974Y-97148D03*
D25*
X179982Y-181610D03*
X166982Y-181610D03*
X300378Y-84836D03*
X287378Y-84836D03*
D14*
X206502Y-216558D03*
X206502Y-203558D03*
X223520Y-203812D03*
X223520Y-216812D03*
X198628Y-132946D03*
X198628Y-145946D03*
X212852Y-146454D03*
X212852Y-133454D03*
D26*
X122068Y-172066D03*
X77068Y-147066D03*
X122068Y-122066D03*
D25*
X256898Y-83820D03*
X269898Y-83820D03*
D14*
X133604Y-144376D03*
X133604Y-157376D03*
D25*
X210970Y-118110D03*
X197970Y-118110D03*
D27*
X285674Y-165278D03*
X276174Y-155778D03*
X285674Y-155778D03*
X276174Y-165278D03*
D28*
X268424Y-148028D03*
D29*
X265424Y-153028D03*
X265424Y-158028D03*
X265424Y-163028D03*
X265424Y-168028D03*
D28*
X268424Y-173028D03*
D30*
X273424Y-176028D03*
X278424Y-176028D03*
X283424Y-176028D03*
X288424Y-176028D03*
D28*
X293424Y-173028D03*
D29*
X296424Y-168028D03*
X296424Y-163028D03*
X296424Y-158028D03*
X296424Y-153028D03*
D28*
X293424Y-148028D03*
D30*
X288424Y-145028D03*
X283424Y-145028D03*
X278424Y-145028D03*
X273424Y-145028D03*
D14*
X252222Y-209446D03*
X252222Y-196446D03*
X264668Y-209446D03*
X264668Y-196446D03*
D25*
X235562Y-176784D03*
X248562Y-176784D03*
M02*
