M48
;GenerationSoftware,Autodesk,EAGLE,9.6.2*%
;CreationDate,2021-11-24T22:08:19Z*%
FMAT,2
ICI,OFF
METRIC,TZ,000.000
T4C0.200
T3C0.203
T2C0.900
T1C2.000
%
G90
M71
T1
X14519Y68758
X36223Y68776
X14486Y32220
X36205Y32146
T2
X31104Y39550
X24304Y39550
T3
X18435Y54610
X27150Y63104
X27140Y62311
X25545Y61504
X26355Y62309
X17074Y64128
X14956Y61808
X18158Y55982
X25550Y62291
T4
X30726Y40980
X29154Y39421
X34531Y33177
X17170Y41834
X35055Y47653
X35535Y36449
X13670Y64907
X35916Y39802
X20345Y31725
X15766Y33830
X17092Y38481
X15458Y38524
X32954Y68072
X33612Y68788
X27620Y64902
X16447Y34862
X31968Y31407
X20952Y38900
X32700Y43487
X14303Y34239
X22847Y35560
X19452Y37823
X34298Y64501
X34775Y64968
X34895Y65618
X27064Y31252
X21394Y38014
X21681Y36474
X20367Y36560
X33421Y59012
X33233Y46797
X33551Y58331
X18296Y60559
X18716Y55207
X36013Y46378
X35202Y66454
X28616Y31676
X33543Y66363
X26336Y63087
X23018Y39270
X14780Y38872
X25676Y40623
X31850Y40336
X22606Y36749
X29111Y32228
X28964Y58890
X25258Y31836
X24804Y31270
X31671Y33259
X18363Y45014
X16317Y45021
X27153Y38811
X29500Y35441
X25544Y63104
X35049Y43469
X22091Y37231
X30813Y66916
X27755Y37622
X32296Y34493
X14795Y36292
X37008Y35966
X27323Y33525
X26743Y34105
X27903Y34105
X27903Y32945
X26743Y32945
M30