M48
;GenerationSoftware,Autodesk,EAGLE,9.6.2*%
;CreationDate,2023-05-03T18:05:50Z*%
FMAT,2
ICI,OFF
METRIC,TZ,000.000
T7C0.350
T6C0.406
T5C0.650
T4C0.813
T3C0.914
T2C1.000
T1C1.016
%
G90
M71
T1
X-38583Y69647
X-38583Y62027
X-38583Y72187
X-38583Y67107
X-38583Y64567
X-38583Y59487
X-38583Y56947
X-38583Y54407
X-38583Y51867
X-38583Y49327
T2
X-52121Y40284
X-44501Y40284
X-47041Y40284
X-49581Y40284
X-54661Y40284
X-57201Y40284
X-59741Y40284
X-41961Y40284
T3
X-88519Y66472
X-78664Y48844
X-76124Y48844
X-76124Y51384
X-78664Y53924
X-76124Y53924
X-78664Y56464
X-76124Y56464
X-78664Y59004
X-76124Y59004
X-78664Y61544
X-76124Y61544
X-78664Y64084
X-78664Y51384
X-76124Y64084
X-78664Y66624
X-76124Y66624
X-78664Y69164
X-76124Y69164
X-59690Y53950
X-76124Y71704
X-88519Y48692
X-85979Y48692
X-88519Y51232
X-85979Y51232
X-88519Y53772
X-85979Y53772
X-88519Y56312
X-85979Y56312
X-88519Y58852
X-85979Y58852
X-88519Y61392
X-85979Y61392
X-88519Y63932
X-62230Y64110
X-59690Y64110
X-62230Y61570
X-59690Y61570
X-62230Y59030
X-59690Y59030
X-62230Y56490
X-59690Y56490
X-62230Y53950
X-85979Y63932
X-62230Y51410
X-59690Y51410
X-78664Y71704
X-85979Y71552
X-88519Y71552
X-85979Y69012
X-88519Y69012
X-85979Y66472
X-62230Y69190
X-59690Y69190
X-62230Y66650
X-59690Y66650
T4
X-42469Y52324
X-47549Y52324
X-42469Y54585
X-47549Y54585
X-42469Y56871
X-47549Y56871
X-42443Y59182
X-47523Y59182
X-42443Y61366
X-47523Y61366
X-42393Y63627
X-47473Y63627
X-42393Y65862
X-47473Y65862
X-42367Y68047
X-47447Y68047
X-50673Y53315
X-55753Y53315
X-50673Y55575
X-55753Y55575
X-50673Y57861
X-55753Y57861
X-50648Y60173
X-55728Y60173
X-50648Y62357
X-55728Y62357
X-50597Y64618
X-55677Y64618
X-55677Y66853
X-50571Y69037
X-55651Y69037
X-69139Y50673
X-66599Y50673
X-69139Y53442
X-66599Y53442
X-69139Y56185
X-66599Y56185
X-69139Y58928
X-66599Y58928
X-69139Y61697
X-66599Y61697
X-69139Y64491
X-66599Y64491
X-69139Y67310
X-66599Y67310
X-69139Y70155
X-66599Y70155
X-42367Y70231
X-47447Y70231
X-42367Y72466
X-47447Y72466
X-50597Y66853
T5
X-28473Y60223
X-4089Y62001
X-4089Y60731
X-4089Y59461
X-4089Y58191
X-4089Y56921
X-5359Y56921
X-5359Y58191
X-5359Y59461
X-5359Y60731
X-5359Y62001
X-5359Y63271
X-5359Y64541
X-5359Y65811
X-5359Y67081
X-28473Y64033
X-5359Y68351
X-28473Y67843
X-28473Y66573
X-28473Y65303
X-28473Y62763
X-28473Y61493
X-28473Y58953
X-28473Y57683
X-28473Y56413
X-29743Y56413
X-29743Y57683
X-29743Y58953
X-29743Y60223
X-29743Y61493
X-29743Y62763
X-29743Y64033
X-29743Y65303
X-29743Y66573
X-29743Y67843
X-4089Y68351
X-4089Y67081
X-4089Y65811
X-4089Y64541
X-4089Y63271
T6
X-33426Y45517
X-34696Y45517
X-33426Y46787
X-33426Y48057
X-34696Y48057
X-33426Y49327
X-34696Y49327
X-22936Y23724
X-24206Y23724
X-22936Y24994
X-24206Y31344
X-22936Y32614
X-24206Y24994
X-22936Y26264
X-24206Y26264
X-22936Y27534
X-24206Y27534
X-22936Y28804
X-24206Y28804
X-22936Y30074
X-24206Y30074
X-22936Y31344
X-34696Y46787
X-24206Y32614
X6375Y42012
X5105Y42012
X6375Y40742
X5105Y40742
X6375Y39472
X5105Y39472
X6375Y38202
X5105Y38202
X6375Y36932
X5105Y36932
X6375Y35662
X5105Y35662
X6375Y34392
X5105Y34392
X6375Y33122
X5105Y33122
X-33426Y40437
X-34696Y40437
X-33426Y41707
X-34696Y41707
X-33426Y42977
X-34696Y42977
X-33426Y44247
X-34696Y44247
T7
X-30709Y53540
X-40996Y74117
X-40996Y48117
X-33795Y54115
X-10312Y72873
X-30941Y66017
X-30839Y67287
X-26848Y56566
X-32741Y60808
X-10363Y70409
X-34061Y57633
X-33426Y59588
X-8433Y61366
X-73584Y54762
X-74498Y51206
X-81712Y49784
X-92100Y59233
X-92126Y62052
X-92075Y64618
X-92126Y67005
X-30874Y64706
X-1930Y62586
X-34124Y51854
X-711Y69698
X-73914Y56871
X-1143Y63348
X864Y65532
X-6248Y70180
X-71653Y46965
X-32080Y64160
X-13056Y72032
X-34773Y62560
X-12141Y72647
X-7188Y71120
X-12192Y71298
X-11379Y70990
M30