M48
;GenerationSoftware,Autodesk,EAGLE,9.6.2*%
;CreationDate,2023-06-12T06:27:00Z*%
FMAT,2
ICI,OFF
METRIC,TZ,000.000
T7C0.350
T6C0.650
T5C0.710
T4C0.813
T3C0.914
T2C1.000
T1C1.016
%
G90
M71
T1
X-40996Y49327
X-40996Y51867
X-40996Y54407
X-40996Y56947
X-40996Y59487
X-40996Y72187
X-40996Y62027
X-40996Y69647
X-40996Y67107
X-40996Y64567
T2
X-47041Y40284
X-49581Y40284
X-52121Y40284
X-54661Y40284
X-57201Y40284
X-59741Y40284
X-44501Y40284
X-41961Y40284
T3
X-76124Y53924
X-78664Y56464
X-76124Y56464
X-78664Y59004
X-76124Y59004
X-78664Y61544
X-76124Y61544
X-78664Y64084
X-76124Y64084
X-76124Y51384
X-78664Y66624
X-76124Y66624
X-78664Y69164
X-76124Y69164
X-78664Y71704
X-76124Y71704
X-85979Y48692
X-88519Y51232
X-85979Y51232
X-88519Y53772
X-85979Y53772
X-88519Y56312
X-85979Y56312
X-88519Y58852
X-85979Y58852
X-62230Y61570
X-88519Y61392
X-85979Y61392
X-88519Y63932
X-85979Y63932
X-88519Y66472
X-88519Y69012
X-85979Y69012
X-88519Y71552
X-85979Y71552
X-59690Y51410
X-62230Y51410
X-59690Y53950
X-62230Y53950
X-59690Y56490
X-62230Y56490
X-59690Y59030
X-62230Y59030
X-59690Y61570
X-85979Y66472
X-88519Y48692
X-62230Y69190
X-59690Y69190
X-62230Y66650
X-59690Y66650
X-62230Y64110
X-59690Y64110
X-78664Y48844
X-76124Y48844
X-78664Y51384
X-78664Y53924
T4
X-48971Y72339
X-43891Y72339
X-48971Y70104
X-43891Y70104
X-66599Y70155
X-69139Y70155
X-66599Y67310
X-69139Y67310
X-66599Y64491
X-66599Y61697
X-69139Y61697
X-66599Y58928
X-69139Y58928
X-66599Y56185
X-69139Y56185
X-66599Y53442
X-69139Y53442
X-66599Y50673
X-69139Y50673
X-55651Y69037
X-50571Y69037
X-55677Y66853
X-50597Y66853
X-55677Y64618
X-50597Y64618
X-55728Y62357
X-50648Y62357
X-55728Y60173
X-50648Y60173
X-55753Y57861
X-50673Y57861
X-55753Y55575
X-50673Y55575
X-55753Y53315
X-50673Y53315
X-48971Y67920
X-43891Y67920
X-48997Y65735
X-43917Y65735
X-48997Y63500
X-49047Y61239
X-43967Y61239
X-49047Y59055
X-49073Y56744
X-69139Y64491
X-49073Y54458
X-43917Y63500
X-43993Y56744
X-43993Y52197
X-49073Y52197
X-43967Y59055
X-43993Y54458
T5
X9271Y40615
X-37744Y40564
X-36474Y40564
X-37744Y41834
X-36474Y41834
X-37744Y43104
X-36474Y43104
X-37744Y44374
X-36474Y44374
X-37744Y45644
X-36474Y45644
X-37744Y46914
X-36474Y46914
X-37744Y48184
X-36474Y48184
X-37744Y49454
X-36474Y49454
X10541Y40615
X9271Y41885
X10541Y41885
X9271Y43155
X10541Y43155
X9271Y44425
X10541Y44425
X9271Y45695
X10541Y45695
X9271Y46965
X10541Y46965
X9271Y48235
X10541Y48235
X9271Y49505
X10541Y49505
X19990Y64770
X21260Y64770
X19990Y66040
X21260Y66040
X19990Y67310
X21260Y67310
X19990Y68580
X21260Y68580
X19990Y69850
X21260Y69850
X19990Y71120
X21260Y71120
X19990Y72390
X21260Y72390
X19990Y73660
X21260Y73660
T6
X-1397Y62001
X-1397Y63271
X-1397Y64541
X-1397Y65811
X-1397Y67081
X-27026Y65253
X-27026Y63983
X-27026Y62713
X-27026Y61443
X-27026Y66523
X-27026Y60173
X-27026Y58903
X-27026Y57633
X-27026Y56363
X-27026Y55093
X-25756Y55093
X-25756Y56363
X-25756Y57633
X-25756Y58903
X-25756Y60173
X-25756Y61443
X-25756Y62713
X-25756Y63983
X-25756Y65253
X-1397Y58191
X-2667Y67081
X-2667Y65811
X-2667Y64541
X-2667Y63271
X-2667Y62001
X-2667Y60731
X-2667Y59461
X-2667Y58191
X-2667Y56921
X-2667Y55651
X-1397Y55651
X-1397Y56921
X-25756Y66523
X-1397Y59461
X-1397Y60731
T7
X-73914Y56871
X-73584Y54762
X-74498Y51206
X-81712Y49784
X-92100Y59233
X-92126Y62052
X-92075Y64618
X-92126Y67005
X-32334Y63627
X-28677Y63398
X-31953Y68456
X-71653Y46965
X-24701Y58154
X-44755Y46304
X-28071Y64544
X-24209Y63805
X-33985Y64541
X-4496Y65202
X-39850Y50169
X-5334Y42926
X-83058Y40132
X-37287Y51892
X-42697Y50581
X-43536Y74244
X3302Y51054
X-31039Y66624
X3302Y53543
X3302Y52730
X3302Y51918
X3302Y50165
X3302Y49276
X3302Y54356
X-23495Y52832
X-25095Y50140
X-43866Y46178
M30