G04 EAGLE Gerber RS-274X export*
G75*
%MOMM*%
%FSLAX34Y34*%
%LPD*%
%INBottom Copper*%
%IPPOS*%
%AMOC8*
5,1,8,0,0,1.08239X$1,22.5*%
G01*
%ADD10R,1.508000X1.508000*%
%ADD11C,1.508000*%
%ADD12P,1.814519X8X22.500000*%
%ADD13P,1.814519X8X202.500000*%
%ADD14C,1.158000*%
%ADD15R,1.218000X1.218000*%
%ADD16C,1.218000*%
%ADD17C,1.320800*%
%ADD18P,1.649562X8X112.500000*%
%ADD19C,1.016000*%
%ADD20C,0.756400*%
%ADD21C,0.304800*%

G36*
X2981726Y755654D02*
X2981726Y755654D01*
X2981745Y755652D01*
X2981847Y755674D01*
X2981949Y755690D01*
X2981966Y755700D01*
X2981986Y755704D01*
X2982075Y755757D01*
X2982166Y755806D01*
X2982180Y755820D01*
X2982197Y755830D01*
X2982264Y755909D01*
X2982336Y755984D01*
X2982344Y756002D01*
X2982357Y756017D01*
X2982396Y756113D01*
X2982439Y756207D01*
X2982441Y756227D01*
X2982449Y756245D01*
X2982467Y756412D01*
X2982467Y958850D01*
X2982464Y958870D01*
X2982466Y958889D01*
X2982444Y958991D01*
X2982428Y959093D01*
X2982418Y959110D01*
X2982414Y959130D01*
X2982361Y959219D01*
X2982312Y959310D01*
X2982298Y959324D01*
X2982288Y959341D01*
X2982209Y959408D01*
X2982134Y959480D01*
X2982116Y959488D01*
X2982101Y959501D01*
X2982005Y959540D01*
X2981911Y959583D01*
X2981891Y959585D01*
X2981873Y959593D01*
X2981706Y959611D01*
X1211228Y959611D01*
X1165731Y1005108D01*
X1165657Y1005161D01*
X1165588Y1005221D01*
X1165557Y1005233D01*
X1165531Y1005252D01*
X1165444Y1005279D01*
X1165359Y1005313D01*
X1165318Y1005317D01*
X1165296Y1005324D01*
X1165264Y1005323D01*
X1165193Y1005331D01*
X1014889Y1005331D01*
X1014799Y1005317D01*
X1014708Y1005309D01*
X1014679Y1005297D01*
X1014647Y1005292D01*
X1014566Y1005249D01*
X1014482Y1005213D01*
X1014450Y1005187D01*
X1014429Y1005176D01*
X1014407Y1005153D01*
X1014351Y1005108D01*
X992348Y983105D01*
X992295Y983031D01*
X992235Y982962D01*
X992223Y982931D01*
X992204Y982905D01*
X992177Y982818D01*
X992143Y982733D01*
X992139Y982692D01*
X992132Y982670D01*
X992133Y982638D01*
X992125Y982567D01*
X992125Y916568D01*
X992132Y916522D01*
X992130Y916477D01*
X992152Y916402D01*
X992164Y916325D01*
X992186Y916285D01*
X992199Y916240D01*
X992243Y916176D01*
X992280Y916108D01*
X992313Y916076D01*
X992339Y916038D01*
X992402Y915992D01*
X992458Y915938D01*
X992499Y915919D01*
X992536Y915891D01*
X992610Y915867D01*
X992681Y915835D01*
X992727Y915830D01*
X992770Y915815D01*
X992848Y915816D01*
X992925Y915808D01*
X992970Y915817D01*
X993016Y915818D01*
X993147Y915856D01*
X993166Y915860D01*
X993170Y915862D01*
X993177Y915864D01*
X993323Y915925D01*
X1014315Y915925D01*
X1014385Y915936D01*
X1014457Y915938D01*
X1014506Y915956D01*
X1014557Y915964D01*
X1014621Y915998D01*
X1014688Y916023D01*
X1014729Y916055D01*
X1014775Y916080D01*
X1014824Y916132D01*
X1014880Y916176D01*
X1014908Y916220D01*
X1014944Y916258D01*
X1014974Y916323D01*
X1015013Y916383D01*
X1015026Y916434D01*
X1015048Y916481D01*
X1015056Y916552D01*
X1015073Y916622D01*
X1015069Y916674D01*
X1015075Y916725D01*
X1015060Y916796D01*
X1015054Y916867D01*
X1015034Y916915D01*
X1015023Y916966D01*
X1014986Y917027D01*
X1014958Y917093D01*
X1014913Y917149D01*
X1014896Y917177D01*
X1014879Y917192D01*
X1014853Y917224D01*
X1014371Y917707D01*
X1013211Y920505D01*
X1013211Y923535D01*
X1014371Y926333D01*
X1015869Y927832D01*
X1015880Y927848D01*
X1015896Y927860D01*
X1015952Y927948D01*
X1016012Y928031D01*
X1016018Y928050D01*
X1016029Y928067D01*
X1016054Y928168D01*
X1016085Y928267D01*
X1016084Y928286D01*
X1016089Y928306D01*
X1016081Y928409D01*
X1016078Y928512D01*
X1016072Y928531D01*
X1016070Y928551D01*
X1016030Y928646D01*
X1015994Y928743D01*
X1015981Y928759D01*
X1015974Y928777D01*
X1015869Y928908D01*
X1014371Y930407D01*
X1013211Y933205D01*
X1013211Y936235D01*
X1014371Y939033D01*
X1015869Y940532D01*
X1015880Y940548D01*
X1015896Y940560D01*
X1015952Y940648D01*
X1016012Y940731D01*
X1016018Y940750D01*
X1016029Y940767D01*
X1016054Y940868D01*
X1016085Y940967D01*
X1016084Y940986D01*
X1016089Y941006D01*
X1016081Y941109D01*
X1016078Y941212D01*
X1016072Y941231D01*
X1016070Y941251D01*
X1016030Y941346D01*
X1015994Y941443D01*
X1015981Y941459D01*
X1015974Y941477D01*
X1015869Y941608D01*
X1014371Y943107D01*
X1013211Y945905D01*
X1013211Y948935D01*
X1014371Y951733D01*
X1015869Y953232D01*
X1015880Y953248D01*
X1015896Y953260D01*
X1015952Y953348D01*
X1016012Y953431D01*
X1016018Y953450D01*
X1016029Y953467D01*
X1016054Y953568D01*
X1016085Y953667D01*
X1016084Y953686D01*
X1016089Y953706D01*
X1016081Y953809D01*
X1016078Y953912D01*
X1016072Y953931D01*
X1016070Y953951D01*
X1016030Y954046D01*
X1015994Y954143D01*
X1015981Y954159D01*
X1015974Y954177D01*
X1015869Y954308D01*
X1014371Y955807D01*
X1013211Y958605D01*
X1013211Y961635D01*
X1014371Y964433D01*
X1016513Y966575D01*
X1019311Y967735D01*
X1022341Y967735D01*
X1025139Y966575D01*
X1026638Y965077D01*
X1026654Y965066D01*
X1026666Y965050D01*
X1026754Y964994D01*
X1026837Y964934D01*
X1026856Y964928D01*
X1026873Y964917D01*
X1026974Y964892D01*
X1027073Y964861D01*
X1027092Y964862D01*
X1027112Y964857D01*
X1027215Y964865D01*
X1027318Y964868D01*
X1027337Y964874D01*
X1027357Y964876D01*
X1027452Y964916D01*
X1027549Y964952D01*
X1027565Y964965D01*
X1027583Y964972D01*
X1027714Y965077D01*
X1029213Y966575D01*
X1032011Y967735D01*
X1035041Y967735D01*
X1035656Y967480D01*
X1035770Y967453D01*
X1035883Y967425D01*
X1035889Y967425D01*
X1035895Y967424D01*
X1036012Y967435D01*
X1036128Y967444D01*
X1036134Y967446D01*
X1036140Y967447D01*
X1036248Y967495D01*
X1036354Y967540D01*
X1036360Y967545D01*
X1036365Y967547D01*
X1036379Y967560D01*
X1036485Y967645D01*
X1070132Y1001292D01*
X1072141Y1003301D01*
X1156686Y1003301D01*
X1171957Y988030D01*
X1171957Y927107D01*
X1153176Y908327D01*
X1153165Y908311D01*
X1153149Y908298D01*
X1153093Y908211D01*
X1153033Y908127D01*
X1153027Y908108D01*
X1153016Y908091D01*
X1152991Y907991D01*
X1152960Y907892D01*
X1152961Y907872D01*
X1152956Y907853D01*
X1152964Y907750D01*
X1152967Y907646D01*
X1152974Y907627D01*
X1152975Y907607D01*
X1153016Y907513D01*
X1153051Y907415D01*
X1153064Y907399D01*
X1153072Y907381D01*
X1153161Y907270D01*
X1153161Y899690D01*
X1147804Y894333D01*
X1140228Y894333D01*
X1134871Y899690D01*
X1134871Y907266D01*
X1140228Y912623D01*
X1147808Y912623D01*
X1147817Y912611D01*
X1147904Y912555D01*
X1147988Y912495D01*
X1148007Y912489D01*
X1148024Y912478D01*
X1148124Y912453D01*
X1148223Y912422D01*
X1148243Y912423D01*
X1148262Y912418D01*
X1148365Y912426D01*
X1148469Y912429D01*
X1148488Y912436D01*
X1148507Y912437D01*
X1148603Y912478D01*
X1148700Y912513D01*
X1148715Y912526D01*
X1148734Y912534D01*
X1148865Y912638D01*
X1165636Y929410D01*
X1165689Y929484D01*
X1165749Y929553D01*
X1165761Y929583D01*
X1165780Y929610D01*
X1165807Y929697D01*
X1165841Y929781D01*
X1165845Y929822D01*
X1165852Y929845D01*
X1165851Y929877D01*
X1165859Y929948D01*
X1165859Y942439D01*
X1165848Y942510D01*
X1165846Y942581D01*
X1165828Y942630D01*
X1165820Y942682D01*
X1165786Y942745D01*
X1165761Y942812D01*
X1165729Y942853D01*
X1165704Y942899D01*
X1165652Y942948D01*
X1165608Y943004D01*
X1165564Y943033D01*
X1165526Y943069D01*
X1165461Y943099D01*
X1165401Y943137D01*
X1165350Y943150D01*
X1165303Y943172D01*
X1165232Y943180D01*
X1165162Y943198D01*
X1165110Y943193D01*
X1165059Y943199D01*
X1164988Y943184D01*
X1164917Y943178D01*
X1164869Y943158D01*
X1164818Y943147D01*
X1164757Y943110D01*
X1164691Y943082D01*
X1164635Y943037D01*
X1164607Y943021D01*
X1164592Y943003D01*
X1164560Y942977D01*
X1153384Y931801D01*
X1153331Y931727D01*
X1153271Y931658D01*
X1153259Y931628D01*
X1153240Y931601D01*
X1153213Y931515D01*
X1153179Y931430D01*
X1153175Y931389D01*
X1153168Y931366D01*
X1153169Y931334D01*
X1153161Y931263D01*
X1153161Y925090D01*
X1147804Y919733D01*
X1140228Y919733D01*
X1134871Y925090D01*
X1134871Y932666D01*
X1140228Y938023D01*
X1147804Y938023D01*
X1148855Y936972D01*
X1148871Y936960D01*
X1148883Y936945D01*
X1148970Y936889D01*
X1149054Y936828D01*
X1149073Y936823D01*
X1149090Y936812D01*
X1149191Y936786D01*
X1149289Y936756D01*
X1149309Y936757D01*
X1149329Y936752D01*
X1149432Y936760D01*
X1149535Y936762D01*
X1149554Y936769D01*
X1149574Y936771D01*
X1149669Y936811D01*
X1149766Y936847D01*
X1149782Y936859D01*
X1149800Y936867D01*
X1149931Y936972D01*
X1160302Y947343D01*
X1160355Y947417D01*
X1160415Y947486D01*
X1160427Y947517D01*
X1160446Y947543D01*
X1160473Y947630D01*
X1160507Y947715D01*
X1160511Y947756D01*
X1160518Y947778D01*
X1160517Y947810D01*
X1160525Y947881D01*
X1160525Y964638D01*
X1160514Y964709D01*
X1160512Y964780D01*
X1160494Y964829D01*
X1160486Y964881D01*
X1160452Y964944D01*
X1160427Y965011D01*
X1160395Y965052D01*
X1160370Y965098D01*
X1160318Y965147D01*
X1160274Y965203D01*
X1160230Y965232D01*
X1160192Y965267D01*
X1160127Y965298D01*
X1160067Y965336D01*
X1160016Y965349D01*
X1159969Y965371D01*
X1159898Y965379D01*
X1159828Y965396D01*
X1159776Y965392D01*
X1159725Y965398D01*
X1159654Y965383D01*
X1159583Y965377D01*
X1159535Y965357D01*
X1159484Y965346D01*
X1159423Y965309D01*
X1159357Y965281D01*
X1159301Y965236D01*
X1159273Y965220D01*
X1159258Y965202D01*
X1159226Y965176D01*
X1158518Y964468D01*
X1153176Y959127D01*
X1153165Y959111D01*
X1153149Y959098D01*
X1153093Y959011D01*
X1153033Y958927D01*
X1153027Y958908D01*
X1153016Y958891D01*
X1152991Y958791D01*
X1152960Y958692D01*
X1152961Y958672D01*
X1152956Y958653D01*
X1152964Y958550D01*
X1152967Y958446D01*
X1152974Y958427D01*
X1152975Y958407D01*
X1153016Y958313D01*
X1153051Y958215D01*
X1153064Y958199D01*
X1153072Y958181D01*
X1153161Y958070D01*
X1153161Y950490D01*
X1147804Y945133D01*
X1140228Y945133D01*
X1134871Y950490D01*
X1134871Y958066D01*
X1140228Y963423D01*
X1147808Y963423D01*
X1147817Y963411D01*
X1147904Y963355D01*
X1147988Y963295D01*
X1148007Y963289D01*
X1148024Y963278D01*
X1148124Y963253D01*
X1148223Y963222D01*
X1148243Y963223D01*
X1148262Y963218D01*
X1148365Y963226D01*
X1148469Y963229D01*
X1148488Y963236D01*
X1148507Y963237D01*
X1148603Y963278D01*
X1148700Y963313D01*
X1148715Y963326D01*
X1148734Y963334D01*
X1148865Y963438D01*
X1154206Y968780D01*
X1154259Y968854D01*
X1154319Y968923D01*
X1154331Y968953D01*
X1154350Y968980D01*
X1154377Y969067D01*
X1154411Y969151D01*
X1154415Y969192D01*
X1154422Y969215D01*
X1154421Y969247D01*
X1154429Y969318D01*
X1154429Y975321D01*
X1154418Y975392D01*
X1154416Y975463D01*
X1154398Y975512D01*
X1154390Y975564D01*
X1154356Y975627D01*
X1154331Y975694D01*
X1154299Y975735D01*
X1154274Y975781D01*
X1154222Y975830D01*
X1154178Y975886D01*
X1154134Y975915D01*
X1154096Y975950D01*
X1154031Y975981D01*
X1153971Y976019D01*
X1153920Y976032D01*
X1153873Y976054D01*
X1153802Y976062D01*
X1153732Y976079D01*
X1153680Y976075D01*
X1153629Y976081D01*
X1153558Y976066D01*
X1153487Y976060D01*
X1153439Y976040D01*
X1153388Y976029D01*
X1153327Y975992D01*
X1153261Y975964D01*
X1153205Y975919D01*
X1153177Y975903D01*
X1153162Y975885D01*
X1153130Y975859D01*
X1147804Y970533D01*
X1140228Y970533D01*
X1140167Y970594D01*
X1140151Y970606D01*
X1140139Y970621D01*
X1140052Y970677D01*
X1139968Y970738D01*
X1139948Y970744D01*
X1139932Y970754D01*
X1139831Y970780D01*
X1139732Y970810D01*
X1139712Y970810D01*
X1139693Y970814D01*
X1139590Y970806D01*
X1139487Y970804D01*
X1139468Y970797D01*
X1139448Y970795D01*
X1139353Y970755D01*
X1139256Y970719D01*
X1139240Y970707D01*
X1139222Y970699D01*
X1139091Y970594D01*
X1132426Y963929D01*
X1123735Y963929D01*
X1123664Y963918D01*
X1123593Y963916D01*
X1123544Y963898D01*
X1123492Y963890D01*
X1123429Y963856D01*
X1123362Y963831D01*
X1123321Y963799D01*
X1123275Y963774D01*
X1123226Y963722D01*
X1123170Y963678D01*
X1123141Y963634D01*
X1123106Y963596D01*
X1123075Y963531D01*
X1123037Y963471D01*
X1123024Y963420D01*
X1123002Y963373D01*
X1122994Y963302D01*
X1122977Y963232D01*
X1122981Y963180D01*
X1122975Y963129D01*
X1122990Y963058D01*
X1122996Y962987D01*
X1123016Y962939D01*
X1123027Y962888D01*
X1123064Y962827D01*
X1123092Y962761D01*
X1123137Y962705D01*
X1123153Y962677D01*
X1123171Y962662D01*
X1123197Y962630D01*
X1127761Y958066D01*
X1127761Y950490D01*
X1122404Y945133D01*
X1114828Y945133D01*
X1109471Y950490D01*
X1109471Y958066D01*
X1114035Y962630D01*
X1114077Y962688D01*
X1114126Y962740D01*
X1114148Y962787D01*
X1114179Y962829D01*
X1114200Y962898D01*
X1114230Y962963D01*
X1114236Y963015D01*
X1114251Y963065D01*
X1114249Y963136D01*
X1114257Y963207D01*
X1114246Y963258D01*
X1114245Y963310D01*
X1114220Y963378D01*
X1114205Y963448D01*
X1114178Y963493D01*
X1114160Y963541D01*
X1114115Y963597D01*
X1114079Y963659D01*
X1114039Y963693D01*
X1114007Y963733D01*
X1113946Y963772D01*
X1113892Y963819D01*
X1113843Y963838D01*
X1113800Y963866D01*
X1113730Y963884D01*
X1113664Y963911D01*
X1113592Y963919D01*
X1113561Y963927D01*
X1113538Y963925D01*
X1113497Y963929D01*
X1081555Y963929D01*
X1081465Y963915D01*
X1081374Y963907D01*
X1081345Y963895D01*
X1081313Y963890D01*
X1081232Y963847D01*
X1081148Y963811D01*
X1081116Y963785D01*
X1081095Y963774D01*
X1081073Y963751D01*
X1081017Y963706D01*
X1041364Y924053D01*
X1041311Y923979D01*
X1041251Y923910D01*
X1041239Y923879D01*
X1041220Y923853D01*
X1041193Y923766D01*
X1041159Y923681D01*
X1041155Y923641D01*
X1041148Y923618D01*
X1041149Y923586D01*
X1041141Y923515D01*
X1041141Y920505D01*
X1039981Y917707D01*
X1039202Y916927D01*
X1039190Y916911D01*
X1039174Y916898D01*
X1039118Y916811D01*
X1039058Y916727D01*
X1039052Y916708D01*
X1039041Y916691D01*
X1039016Y916591D01*
X1038986Y916492D01*
X1038986Y916472D01*
X1038981Y916453D01*
X1038989Y916350D01*
X1038992Y916246D01*
X1038999Y916227D01*
X1039000Y916207D01*
X1039041Y916112D01*
X1039076Y916015D01*
X1039089Y915999D01*
X1039097Y915981D01*
X1039202Y915850D01*
X1040230Y914822D01*
X1041174Y913408D01*
X1041825Y911837D01*
X1042023Y910843D01*
X1034288Y910843D01*
X1034268Y910840D01*
X1034249Y910842D01*
X1034147Y910820D01*
X1034045Y910803D01*
X1034028Y910794D01*
X1034008Y910790D01*
X1033919Y910737D01*
X1033828Y910688D01*
X1033814Y910674D01*
X1033797Y910664D01*
X1033730Y910585D01*
X1033659Y910510D01*
X1033650Y910492D01*
X1033637Y910477D01*
X1033599Y910381D01*
X1033555Y910287D01*
X1033553Y910267D01*
X1033545Y910249D01*
X1033527Y910082D01*
X1033527Y909319D01*
X1032764Y909319D01*
X1032744Y909316D01*
X1032725Y909318D01*
X1032623Y909296D01*
X1032521Y909279D01*
X1032504Y909270D01*
X1032484Y909266D01*
X1032395Y909213D01*
X1032304Y909164D01*
X1032290Y909150D01*
X1032273Y909140D01*
X1032206Y909061D01*
X1032135Y908986D01*
X1032126Y908968D01*
X1032113Y908953D01*
X1032074Y908857D01*
X1032031Y908763D01*
X1032029Y908743D01*
X1032021Y908725D01*
X1032003Y908558D01*
X1032003Y897382D01*
X1032006Y897362D01*
X1032004Y897343D01*
X1032026Y897241D01*
X1032043Y897139D01*
X1032052Y897122D01*
X1032056Y897102D01*
X1032109Y897013D01*
X1032158Y896922D01*
X1032172Y896908D01*
X1032182Y896891D01*
X1032261Y896824D01*
X1032336Y896753D01*
X1032354Y896744D01*
X1032369Y896731D01*
X1032465Y896693D01*
X1032559Y896649D01*
X1032579Y896647D01*
X1032597Y896639D01*
X1032764Y896621D01*
X1033527Y896621D01*
X1033527Y896619D01*
X1032764Y896619D01*
X1032744Y896616D01*
X1032725Y896618D01*
X1032623Y896596D01*
X1032521Y896579D01*
X1032504Y896570D01*
X1032484Y896566D01*
X1032395Y896513D01*
X1032304Y896464D01*
X1032290Y896450D01*
X1032273Y896440D01*
X1032206Y896361D01*
X1032135Y896286D01*
X1032126Y896268D01*
X1032113Y896253D01*
X1032074Y896157D01*
X1032031Y896063D01*
X1032029Y896043D01*
X1032021Y896025D01*
X1032003Y895858D01*
X1032003Y884682D01*
X1032006Y884662D01*
X1032004Y884643D01*
X1032026Y884541D01*
X1032043Y884439D01*
X1032052Y884422D01*
X1032056Y884402D01*
X1032109Y884313D01*
X1032158Y884222D01*
X1032172Y884208D01*
X1032182Y884191D01*
X1032261Y884124D01*
X1032336Y884053D01*
X1032354Y884044D01*
X1032369Y884031D01*
X1032465Y883993D01*
X1032559Y883949D01*
X1032579Y883947D01*
X1032597Y883939D01*
X1032764Y883921D01*
X1033527Y883921D01*
X1033527Y883919D01*
X1032764Y883919D01*
X1032744Y883916D01*
X1032725Y883918D01*
X1032623Y883896D01*
X1032521Y883879D01*
X1032504Y883870D01*
X1032484Y883866D01*
X1032395Y883813D01*
X1032304Y883764D01*
X1032290Y883750D01*
X1032273Y883740D01*
X1032206Y883661D01*
X1032135Y883586D01*
X1032126Y883568D01*
X1032113Y883553D01*
X1032074Y883457D01*
X1032031Y883363D01*
X1032029Y883343D01*
X1032021Y883325D01*
X1032003Y883158D01*
X1032003Y871982D01*
X1032006Y871962D01*
X1032004Y871943D01*
X1032026Y871841D01*
X1032043Y871739D01*
X1032052Y871722D01*
X1032056Y871702D01*
X1032109Y871613D01*
X1032158Y871522D01*
X1032172Y871508D01*
X1032182Y871491D01*
X1032261Y871424D01*
X1032336Y871353D01*
X1032354Y871344D01*
X1032369Y871331D01*
X1032465Y871293D01*
X1032559Y871249D01*
X1032579Y871247D01*
X1032597Y871239D01*
X1032764Y871221D01*
X1033527Y871221D01*
X1033527Y871219D01*
X1032764Y871219D01*
X1032744Y871216D01*
X1032725Y871218D01*
X1032623Y871196D01*
X1032521Y871179D01*
X1032504Y871170D01*
X1032484Y871166D01*
X1032395Y871113D01*
X1032304Y871064D01*
X1032290Y871050D01*
X1032273Y871040D01*
X1032206Y870961D01*
X1032135Y870886D01*
X1032126Y870868D01*
X1032113Y870853D01*
X1032074Y870757D01*
X1032031Y870663D01*
X1032029Y870643D01*
X1032021Y870625D01*
X1032003Y870458D01*
X1032003Y862589D01*
X1027938Y862589D01*
X1027918Y862586D01*
X1027899Y862588D01*
X1027797Y862566D01*
X1027695Y862550D01*
X1027678Y862540D01*
X1027658Y862536D01*
X1027569Y862483D01*
X1027478Y862434D01*
X1027464Y862420D01*
X1027447Y862410D01*
X1027380Y862331D01*
X1027308Y862256D01*
X1027300Y862238D01*
X1027287Y862223D01*
X1027248Y862127D01*
X1027205Y862033D01*
X1027203Y862013D01*
X1027195Y861995D01*
X1027177Y861828D01*
X1027177Y858774D01*
X1027180Y858754D01*
X1027178Y858735D01*
X1027200Y858633D01*
X1027216Y858531D01*
X1027226Y858514D01*
X1027230Y858494D01*
X1027283Y858405D01*
X1027332Y858314D01*
X1027346Y858300D01*
X1027356Y858283D01*
X1027435Y858216D01*
X1027510Y858144D01*
X1027528Y858136D01*
X1027543Y858123D01*
X1027639Y858084D01*
X1027733Y858041D01*
X1027753Y858039D01*
X1027771Y858031D01*
X1027938Y858013D01*
X1134554Y858013D01*
X1134644Y858027D01*
X1134735Y858035D01*
X1134765Y858047D01*
X1134797Y858052D01*
X1134878Y858095D01*
X1134962Y858131D01*
X1134994Y858157D01*
X1135014Y858168D01*
X1135037Y858191D01*
X1135092Y858236D01*
X1143475Y866618D01*
X1143516Y866676D01*
X1143566Y866728D01*
X1143588Y866775D01*
X1143618Y866817D01*
X1143639Y866886D01*
X1143669Y866951D01*
X1143675Y867003D01*
X1143690Y867053D01*
X1143689Y867124D01*
X1143696Y867195D01*
X1143685Y867246D01*
X1143684Y867298D01*
X1143659Y867366D01*
X1143644Y867436D01*
X1143618Y867481D01*
X1143600Y867529D01*
X1143555Y867585D01*
X1143518Y867647D01*
X1143478Y867681D01*
X1143446Y867721D01*
X1143386Y867760D01*
X1143331Y867807D01*
X1143283Y867826D01*
X1143239Y867854D01*
X1143170Y867872D01*
X1143103Y867899D01*
X1143032Y867907D01*
X1143000Y867915D01*
X1142977Y867913D01*
X1142936Y867917D01*
X1139807Y867917D01*
X1133855Y873869D01*
X1133855Y876555D01*
X1143254Y876555D01*
X1143274Y876558D01*
X1143293Y876556D01*
X1143395Y876578D01*
X1143497Y876595D01*
X1143514Y876604D01*
X1143534Y876608D01*
X1143623Y876661D01*
X1143714Y876710D01*
X1143728Y876724D01*
X1143745Y876734D01*
X1143812Y876813D01*
X1143883Y876888D01*
X1143892Y876906D01*
X1143905Y876921D01*
X1143943Y877017D01*
X1143987Y877111D01*
X1143989Y877131D01*
X1143997Y877149D01*
X1144015Y877316D01*
X1144015Y878079D01*
X1144778Y878079D01*
X1144798Y878082D01*
X1144817Y878080D01*
X1144919Y878102D01*
X1145021Y878119D01*
X1145038Y878128D01*
X1145058Y878132D01*
X1145147Y878185D01*
X1145238Y878234D01*
X1145252Y878248D01*
X1145269Y878258D01*
X1145336Y878337D01*
X1145407Y878412D01*
X1145416Y878430D01*
X1145429Y878445D01*
X1145468Y878541D01*
X1145511Y878635D01*
X1145513Y878655D01*
X1145521Y878673D01*
X1145539Y878840D01*
X1145539Y888239D01*
X1148225Y888239D01*
X1154177Y882287D01*
X1154177Y879158D01*
X1154188Y879087D01*
X1154190Y879015D01*
X1154208Y878966D01*
X1154216Y878915D01*
X1154250Y878852D01*
X1154275Y878784D01*
X1154307Y878744D01*
X1154332Y878698D01*
X1154383Y878648D01*
X1154428Y878592D01*
X1154472Y878564D01*
X1154510Y878528D01*
X1154575Y878498D01*
X1154635Y878459D01*
X1154686Y878447D01*
X1154733Y878425D01*
X1154804Y878417D01*
X1154874Y878399D01*
X1154926Y878403D01*
X1154977Y878398D01*
X1155048Y878413D01*
X1155119Y878418D01*
X1155167Y878439D01*
X1155218Y878450D01*
X1155279Y878487D01*
X1155345Y878515D01*
X1155401Y878559D01*
X1155429Y878576D01*
X1155444Y878594D01*
X1155476Y878619D01*
X1220291Y943434D01*
X1222256Y945399D01*
X1224684Y946405D01*
X1424235Y946405D01*
X1426663Y945399D01*
X1548117Y823946D01*
X1548190Y823893D01*
X1548260Y823833D01*
X1548290Y823821D01*
X1548316Y823802D01*
X1548403Y823775D01*
X1548488Y823741D01*
X1548529Y823737D01*
X1548551Y823730D01*
X1548584Y823731D01*
X1548655Y823723D01*
X1607211Y823723D01*
X1607301Y823737D01*
X1607392Y823745D01*
X1607422Y823757D01*
X1607454Y823762D01*
X1607535Y823805D01*
X1607618Y823841D01*
X1607651Y823867D01*
X1607671Y823878D01*
X1607693Y823901D01*
X1607749Y823946D01*
X1608104Y824301D01*
X1608157Y824374D01*
X1608217Y824444D01*
X1608229Y824474D01*
X1608248Y824500D01*
X1608275Y824587D01*
X1608309Y824672D01*
X1608313Y824713D01*
X1608320Y824735D01*
X1608319Y824768D01*
X1608327Y824839D01*
X1608327Y825544D01*
X1609333Y827971D01*
X1611298Y829936D01*
X1617958Y836597D01*
X1617970Y836613D01*
X1617986Y836625D01*
X1618017Y836674D01*
X1618019Y836676D01*
X1618021Y836680D01*
X1618042Y836713D01*
X1618102Y836797D01*
X1618108Y836816D01*
X1618119Y836832D01*
X1618144Y836933D01*
X1618174Y837032D01*
X1618174Y837052D01*
X1618179Y837071D01*
X1618171Y837174D01*
X1618168Y837278D01*
X1618161Y837296D01*
X1618159Y837316D01*
X1618119Y837411D01*
X1618083Y837509D01*
X1618071Y837524D01*
X1618063Y837542D01*
X1617958Y837673D01*
X1617471Y838161D01*
X1617471Y846368D01*
X1621093Y849989D01*
X1621131Y850042D01*
X1621177Y850089D01*
X1621217Y850162D01*
X1621237Y850189D01*
X1621242Y850208D01*
X1621258Y850236D01*
X1621779Y851493D01*
X1623744Y853458D01*
X1633159Y862873D01*
X1633170Y862889D01*
X1633186Y862902D01*
X1633242Y862989D01*
X1633302Y863073D01*
X1633308Y863092D01*
X1633319Y863109D01*
X1633344Y863209D01*
X1633375Y863308D01*
X1633374Y863328D01*
X1633379Y863347D01*
X1633371Y863450D01*
X1633368Y863554D01*
X1633361Y863573D01*
X1633360Y863593D01*
X1633319Y863688D01*
X1633284Y863785D01*
X1633271Y863801D01*
X1633264Y863819D01*
X1633159Y863950D01*
X1632647Y864461D01*
X1631267Y867793D01*
X1631267Y871399D01*
X1632647Y874731D01*
X1635197Y877281D01*
X1638529Y878661D01*
X1642135Y878661D01*
X1645467Y877281D01*
X1648017Y874731D01*
X1649397Y871399D01*
X1649397Y867793D01*
X1648017Y864461D01*
X1647160Y863604D01*
X1647107Y863530D01*
X1647047Y863461D01*
X1647035Y863431D01*
X1647016Y863404D01*
X1646989Y863318D01*
X1646955Y863233D01*
X1646951Y863192D01*
X1646944Y863169D01*
X1646945Y863137D01*
X1646937Y863066D01*
X1646937Y859392D01*
X1645931Y856965D01*
X1636848Y847881D01*
X1636836Y847865D01*
X1636820Y847853D01*
X1636764Y847765D01*
X1636704Y847681D01*
X1636698Y847662D01*
X1636687Y847646D01*
X1636662Y847545D01*
X1636632Y847446D01*
X1636632Y847426D01*
X1636627Y847407D01*
X1636635Y847304D01*
X1636638Y847200D01*
X1636645Y847182D01*
X1636647Y847162D01*
X1636687Y847067D01*
X1636723Y846969D01*
X1636735Y846954D01*
X1636743Y846936D01*
X1636848Y846805D01*
X1637285Y846367D01*
X1637285Y838160D01*
X1633734Y834609D01*
X1633695Y834556D01*
X1633649Y834509D01*
X1633609Y834436D01*
X1633590Y834410D01*
X1633584Y834391D01*
X1633569Y834362D01*
X1632977Y832935D01*
X1623590Y823547D01*
X1623578Y823531D01*
X1623562Y823519D01*
X1623506Y823431D01*
X1623446Y823347D01*
X1623440Y823328D01*
X1623429Y823312D01*
X1623404Y823211D01*
X1623374Y823112D01*
X1623374Y823092D01*
X1623369Y823073D01*
X1623377Y822970D01*
X1623380Y822866D01*
X1623387Y822848D01*
X1623389Y822828D01*
X1623429Y822733D01*
X1623465Y822635D01*
X1623477Y822620D01*
X1623485Y822602D01*
X1623590Y822471D01*
X1624839Y821222D01*
X1624839Y813014D01*
X1620590Y808766D01*
X1620549Y808708D01*
X1620499Y808656D01*
X1620477Y808609D01*
X1620447Y808567D01*
X1620426Y808498D01*
X1620396Y808433D01*
X1620390Y808381D01*
X1620375Y808331D01*
X1620376Y808260D01*
X1620369Y808189D01*
X1620380Y808138D01*
X1620381Y808086D01*
X1620406Y808018D01*
X1620421Y807948D01*
X1620448Y807903D01*
X1620465Y807855D01*
X1620510Y807799D01*
X1620547Y807737D01*
X1620587Y807703D01*
X1620619Y807663D01*
X1620679Y807624D01*
X1620734Y807577D01*
X1620782Y807558D01*
X1620826Y807530D01*
X1620895Y807512D01*
X1620962Y807485D01*
X1621033Y807477D01*
X1621065Y807469D01*
X1621088Y807471D01*
X1621129Y807467D01*
X1658098Y807467D01*
X1658169Y807478D01*
X1658241Y807480D01*
X1658290Y807498D01*
X1658341Y807506D01*
X1658404Y807540D01*
X1658472Y807565D01*
X1658512Y807597D01*
X1658559Y807622D01*
X1658608Y807674D01*
X1658664Y807718D01*
X1658692Y807762D01*
X1658728Y807800D01*
X1658758Y807865D01*
X1658797Y807925D01*
X1658810Y807976D01*
X1658832Y808023D01*
X1658839Y808094D01*
X1658857Y808164D01*
X1658853Y808216D01*
X1658859Y808267D01*
X1658843Y808338D01*
X1658838Y808409D01*
X1658817Y808457D01*
X1658806Y808508D01*
X1658770Y808569D01*
X1658741Y808635D01*
X1658697Y808691D01*
X1658680Y808719D01*
X1658662Y808734D01*
X1658637Y808766D01*
X1654809Y812594D01*
X1654809Y815595D01*
X1664970Y815595D01*
X1664990Y815598D01*
X1665009Y815596D01*
X1665111Y815618D01*
X1665213Y815635D01*
X1665230Y815644D01*
X1665250Y815648D01*
X1665339Y815701D01*
X1665430Y815750D01*
X1665444Y815764D01*
X1665461Y815774D01*
X1665528Y815853D01*
X1665599Y815928D01*
X1665608Y815946D01*
X1665621Y815961D01*
X1665659Y816057D01*
X1665703Y816151D01*
X1665705Y816171D01*
X1665713Y816189D01*
X1665731Y816356D01*
X1665731Y817119D01*
X1665733Y817119D01*
X1665733Y816356D01*
X1665736Y816336D01*
X1665734Y816317D01*
X1665756Y816215D01*
X1665773Y816113D01*
X1665782Y816096D01*
X1665786Y816076D01*
X1665839Y815987D01*
X1665888Y815896D01*
X1665902Y815882D01*
X1665912Y815865D01*
X1665991Y815798D01*
X1666066Y815727D01*
X1666084Y815718D01*
X1666099Y815705D01*
X1666195Y815666D01*
X1666289Y815623D01*
X1666309Y815621D01*
X1666327Y815613D01*
X1666494Y815595D01*
X1676655Y815595D01*
X1676655Y814073D01*
X1676666Y814002D01*
X1676668Y813931D01*
X1676686Y813882D01*
X1676694Y813830D01*
X1676728Y813767D01*
X1676753Y813700D01*
X1676785Y813659D01*
X1676810Y813613D01*
X1676862Y813564D01*
X1676906Y813508D01*
X1676950Y813479D01*
X1676988Y813444D01*
X1677053Y813413D01*
X1677113Y813375D01*
X1677164Y813362D01*
X1677211Y813340D01*
X1677282Y813332D01*
X1677352Y813315D01*
X1677404Y813319D01*
X1677455Y813313D01*
X1677526Y813328D01*
X1677597Y813334D01*
X1677645Y813354D01*
X1677696Y813365D01*
X1677757Y813402D01*
X1677823Y813430D01*
X1677879Y813475D01*
X1677907Y813491D01*
X1677922Y813509D01*
X1677954Y813535D01*
X1686248Y821828D01*
X1688675Y822834D01*
X1905102Y822834D01*
X1905192Y822848D01*
X1905283Y822856D01*
X1905313Y822868D01*
X1905345Y822873D01*
X1905426Y822916D01*
X1905510Y822952D01*
X1905542Y822978D01*
X1905563Y822989D01*
X1905585Y823012D01*
X1905641Y823057D01*
X1908747Y826163D01*
X1908764Y826170D01*
X1908796Y826175D01*
X1908876Y826218D01*
X1908960Y826254D01*
X1908992Y826280D01*
X1909013Y826291D01*
X1909035Y826314D01*
X1909091Y826359D01*
X1909189Y826457D01*
X1918110Y835378D01*
X1918122Y835394D01*
X1918137Y835406D01*
X1918193Y835494D01*
X1918254Y835577D01*
X1918260Y835596D01*
X1918270Y835613D01*
X1918296Y835714D01*
X1918326Y835812D01*
X1918326Y835832D01*
X1918330Y835852D01*
X1918322Y835955D01*
X1918320Y836058D01*
X1918313Y836077D01*
X1918311Y836097D01*
X1918271Y836192D01*
X1918235Y836289D01*
X1918223Y836305D01*
X1918215Y836323D01*
X1918110Y836454D01*
X1916226Y838338D01*
X1916226Y846545D01*
X1920099Y850419D01*
X1920138Y850472D01*
X1920184Y850519D01*
X1920224Y850592D01*
X1920243Y850618D01*
X1920249Y850637D01*
X1920264Y850666D01*
X1920534Y851315D01*
X1922498Y853280D01*
X1922499Y853280D01*
X1931565Y862347D01*
X1931632Y862441D01*
X1931703Y862535D01*
X1931705Y862541D01*
X1931708Y862546D01*
X1931742Y862657D01*
X1931779Y862769D01*
X1931779Y862775D01*
X1931781Y862781D01*
X1931778Y862898D01*
X1931777Y863015D01*
X1931774Y863022D01*
X1931774Y863027D01*
X1931768Y863045D01*
X1931730Y863176D01*
X1930301Y866625D01*
X1930301Y870231D01*
X1931682Y873562D01*
X1934231Y876112D01*
X1937563Y877492D01*
X1941169Y877492D01*
X1944501Y876112D01*
X1947051Y873562D01*
X1948431Y870231D01*
X1948431Y866625D01*
X1947051Y863293D01*
X1946194Y862436D01*
X1946141Y862362D01*
X1946081Y862292D01*
X1946069Y862262D01*
X1946050Y862236D01*
X1946024Y862149D01*
X1945989Y862064D01*
X1945985Y862023D01*
X1945978Y862001D01*
X1945979Y861969D01*
X1945971Y861898D01*
X1945971Y859494D01*
X1944965Y857066D01*
X1935780Y847881D01*
X1935769Y847865D01*
X1935753Y847853D01*
X1935697Y847765D01*
X1935637Y847681D01*
X1935631Y847662D01*
X1935620Y847646D01*
X1935595Y847545D01*
X1935564Y847446D01*
X1935565Y847426D01*
X1935560Y847407D01*
X1935568Y847304D01*
X1935571Y847200D01*
X1935578Y847182D01*
X1935579Y847162D01*
X1935620Y847067D01*
X1935655Y846969D01*
X1935668Y846954D01*
X1935675Y846936D01*
X1935780Y846805D01*
X1936040Y846545D01*
X1936040Y838338D01*
X1932960Y835259D01*
X1932907Y835185D01*
X1932848Y835116D01*
X1932836Y835086D01*
X1932817Y835060D01*
X1932790Y834973D01*
X1932756Y834888D01*
X1932751Y834847D01*
X1932745Y834824D01*
X1932745Y834792D01*
X1932738Y834721D01*
X1932738Y832746D01*
X1931732Y830318D01*
X1922776Y821363D01*
X1922765Y821347D01*
X1922749Y821334D01*
X1922693Y821247D01*
X1922633Y821163D01*
X1922627Y821144D01*
X1922616Y821127D01*
X1922591Y821027D01*
X1922560Y820928D01*
X1922561Y820908D01*
X1922556Y820889D01*
X1922564Y820786D01*
X1922567Y820682D01*
X1922574Y820663D01*
X1922575Y820643D01*
X1922615Y820549D01*
X1922651Y820451D01*
X1922664Y820435D01*
X1922671Y820417D01*
X1922730Y820344D01*
X1922730Y812125D01*
X1918101Y807496D01*
X1918059Y807438D01*
X1918010Y807386D01*
X1917988Y807339D01*
X1917957Y807297D01*
X1917936Y807228D01*
X1917906Y807163D01*
X1917900Y807111D01*
X1917885Y807061D01*
X1917887Y806990D01*
X1917879Y806919D01*
X1917890Y806868D01*
X1917891Y806816D01*
X1917916Y806748D01*
X1917931Y806678D01*
X1917958Y806633D01*
X1917976Y806585D01*
X1918021Y806529D01*
X1918057Y806467D01*
X1918097Y806433D01*
X1918129Y806393D01*
X1918190Y806354D01*
X1918244Y806307D01*
X1918292Y806288D01*
X1918336Y806260D01*
X1918406Y806242D01*
X1918472Y806215D01*
X1918544Y806207D01*
X1918575Y806199D01*
X1918598Y806201D01*
X1918639Y806197D01*
X1956371Y806197D01*
X1956441Y806208D01*
X1956513Y806210D01*
X1956562Y806228D01*
X1956613Y806236D01*
X1956677Y806270D01*
X1956744Y806295D01*
X1956785Y806327D01*
X1956831Y806352D01*
X1956880Y806404D01*
X1956936Y806448D01*
X1956964Y806492D01*
X1957000Y806530D01*
X1957030Y806595D01*
X1957069Y806655D01*
X1957082Y806706D01*
X1957104Y806753D01*
X1957112Y806824D01*
X1957129Y806894D01*
X1957125Y806946D01*
X1957131Y806997D01*
X1957116Y807068D01*
X1957110Y807139D01*
X1957090Y807187D01*
X1957079Y807238D01*
X1957042Y807299D01*
X1957014Y807365D01*
X1956969Y807421D01*
X1956952Y807449D01*
X1956935Y807464D01*
X1956909Y807496D01*
X1952700Y811705D01*
X1952700Y814706D01*
X1962861Y814706D01*
X1962881Y814709D01*
X1962901Y814707D01*
X1963002Y814729D01*
X1963104Y814745D01*
X1963121Y814755D01*
X1963141Y814759D01*
X1963230Y814812D01*
X1963321Y814861D01*
X1963335Y814875D01*
X1963352Y814885D01*
X1963419Y814964D01*
X1963491Y815039D01*
X1963499Y815057D01*
X1963512Y815072D01*
X1963551Y815168D01*
X1963594Y815262D01*
X1963596Y815282D01*
X1963604Y815300D01*
X1963622Y815467D01*
X1963622Y816230D01*
X1963624Y816230D01*
X1963624Y815467D01*
X1963627Y815447D01*
X1963625Y815428D01*
X1963647Y815326D01*
X1963664Y815224D01*
X1963673Y815207D01*
X1963677Y815187D01*
X1963731Y815098D01*
X1963779Y815007D01*
X1963793Y814993D01*
X1963804Y814976D01*
X1963882Y814909D01*
X1963957Y814837D01*
X1963975Y814829D01*
X1963990Y814816D01*
X1964087Y814777D01*
X1964180Y814734D01*
X1964200Y814732D01*
X1964219Y814724D01*
X1964385Y814706D01*
X1974830Y814706D01*
X1974841Y814699D01*
X1974879Y814663D01*
X1974944Y814633D01*
X1975004Y814594D01*
X1975055Y814581D01*
X1975102Y814559D01*
X1975173Y814551D01*
X1975243Y814534D01*
X1975295Y814538D01*
X1975347Y814532D01*
X1975417Y814547D01*
X1975488Y814553D01*
X1975536Y814573D01*
X1975587Y814584D01*
X1975649Y814621D01*
X1975715Y814649D01*
X1975770Y814694D01*
X1975798Y814710D01*
X1975813Y814728D01*
X1975845Y814754D01*
X2007177Y846085D01*
X2009604Y847091D01*
X2492190Y847091D01*
X2494618Y846085D01*
X2510379Y830324D01*
X2510395Y830313D01*
X2510407Y830297D01*
X2510495Y830241D01*
X2510578Y830181D01*
X2510597Y830175D01*
X2510614Y830164D01*
X2510715Y830139D01*
X2510814Y830108D01*
X2510833Y830109D01*
X2510853Y830104D01*
X2510956Y830112D01*
X2511059Y830115D01*
X2511078Y830122D01*
X2511098Y830123D01*
X2511193Y830163D01*
X2511290Y830199D01*
X2511306Y830212D01*
X2511324Y830219D01*
X2511455Y830324D01*
X2517093Y835962D01*
X2517105Y835978D01*
X2517120Y835990D01*
X2517176Y836078D01*
X2517236Y836162D01*
X2517242Y836181D01*
X2517253Y836197D01*
X2517278Y836298D01*
X2517309Y836397D01*
X2517308Y836417D01*
X2517313Y836436D01*
X2517305Y836539D01*
X2517302Y836643D01*
X2517296Y836661D01*
X2517294Y836681D01*
X2517254Y836776D01*
X2517218Y836874D01*
X2517206Y836889D01*
X2517198Y836907D01*
X2517093Y837038D01*
X2515336Y838795D01*
X2515336Y847003D01*
X2521139Y852806D01*
X2521225Y852806D01*
X2521315Y852820D01*
X2521406Y852828D01*
X2521435Y852840D01*
X2521467Y852845D01*
X2521548Y852888D01*
X2521632Y852924D01*
X2521664Y852950D01*
X2521685Y852961D01*
X2521707Y852984D01*
X2521763Y853029D01*
X2530338Y861603D01*
X2530349Y861619D01*
X2530365Y861632D01*
X2530421Y861719D01*
X2530481Y861803D01*
X2530487Y861822D01*
X2530498Y861839D01*
X2530523Y861939D01*
X2530553Y862038D01*
X2530553Y862058D01*
X2530558Y862077D01*
X2530550Y862180D01*
X2530547Y862284D01*
X2530540Y862303D01*
X2530539Y862323D01*
X2530498Y862417D01*
X2530463Y862515D01*
X2530450Y862531D01*
X2530442Y862549D01*
X2530338Y862680D01*
X2529572Y863445D01*
X2528192Y866777D01*
X2528192Y870383D01*
X2529572Y873715D01*
X2532122Y876265D01*
X2535454Y877645D01*
X2539060Y877645D01*
X2542392Y876265D01*
X2544941Y873715D01*
X2546322Y870383D01*
X2546322Y866777D01*
X2544941Y863445D01*
X2544084Y862588D01*
X2544031Y862514D01*
X2543972Y862445D01*
X2543960Y862415D01*
X2543941Y862388D01*
X2543914Y862302D01*
X2543880Y862217D01*
X2543875Y862176D01*
X2543869Y862153D01*
X2543869Y862121D01*
X2543862Y862050D01*
X2543862Y857868D01*
X2542856Y855441D01*
X2535322Y847907D01*
X2535310Y847890D01*
X2535294Y847878D01*
X2535239Y847791D01*
X2535178Y847707D01*
X2535172Y847688D01*
X2535162Y847671D01*
X2535136Y847570D01*
X2535106Y847472D01*
X2535106Y847452D01*
X2535102Y847432D01*
X2535110Y847329D01*
X2535112Y847226D01*
X2535119Y847207D01*
X2535121Y847187D01*
X2535149Y847120D01*
X2535149Y838795D01*
X2532070Y835716D01*
X2532017Y835643D01*
X2531958Y835573D01*
X2531946Y835543D01*
X2531927Y835517D01*
X2531900Y835430D01*
X2531866Y835345D01*
X2531861Y835304D01*
X2531854Y835282D01*
X2531855Y835249D01*
X2531847Y835178D01*
X2531847Y833457D01*
X2530842Y831030D01*
X2523131Y823319D01*
X2523119Y823302D01*
X2523103Y823290D01*
X2523048Y823203D01*
X2522987Y823119D01*
X2522981Y823100D01*
X2522970Y823083D01*
X2522945Y822983D01*
X2522915Y822884D01*
X2522915Y822864D01*
X2522910Y822844D01*
X2522918Y822741D01*
X2522921Y822638D01*
X2522928Y822619D01*
X2522930Y822599D01*
X2522970Y822504D01*
X2523006Y822407D01*
X2523008Y822404D01*
X2523008Y814157D01*
X2517363Y808512D01*
X2517321Y808454D01*
X2517272Y808402D01*
X2517250Y808355D01*
X2517219Y808313D01*
X2517198Y808244D01*
X2517168Y808179D01*
X2517162Y808127D01*
X2517147Y808077D01*
X2517149Y808006D01*
X2517141Y807935D01*
X2517152Y807884D01*
X2517153Y807832D01*
X2517178Y807764D01*
X2517193Y807694D01*
X2517220Y807649D01*
X2517238Y807601D01*
X2517283Y807545D01*
X2517319Y807483D01*
X2517359Y807449D01*
X2517392Y807409D01*
X2517452Y807370D01*
X2517506Y807323D01*
X2517555Y807304D01*
X2517598Y807276D01*
X2517668Y807258D01*
X2517734Y807231D01*
X2517806Y807223D01*
X2517837Y807215D01*
X2517860Y807217D01*
X2517901Y807213D01*
X2557665Y807213D01*
X2557736Y807224D01*
X2557807Y807226D01*
X2557856Y807244D01*
X2557908Y807252D01*
X2557971Y807286D01*
X2558038Y807311D01*
X2558079Y807343D01*
X2558125Y807368D01*
X2558174Y807420D01*
X2558230Y807464D01*
X2558258Y807508D01*
X2558294Y807546D01*
X2558324Y807611D01*
X2558363Y807671D01*
X2558376Y807722D01*
X2558398Y807769D01*
X2558406Y807840D01*
X2558423Y807910D01*
X2558419Y807962D01*
X2558425Y808013D01*
X2558410Y808084D01*
X2558404Y808155D01*
X2558384Y808203D01*
X2558373Y808254D01*
X2558336Y808315D01*
X2558308Y808381D01*
X2558263Y808437D01*
X2558247Y808465D01*
X2558229Y808480D01*
X2558203Y808512D01*
X2552979Y813737D01*
X2552979Y816738D01*
X2563139Y816738D01*
X2563159Y816741D01*
X2563179Y816739D01*
X2563280Y816761D01*
X2563382Y816778D01*
X2563400Y816787D01*
X2563419Y816791D01*
X2563508Y816844D01*
X2563599Y816893D01*
X2563613Y816907D01*
X2563630Y816917D01*
X2563698Y816996D01*
X2563769Y817071D01*
X2563777Y817089D01*
X2563790Y817104D01*
X2563829Y817200D01*
X2563872Y817294D01*
X2563875Y817314D01*
X2563882Y817332D01*
X2563901Y817499D01*
X2563901Y818262D01*
X2563902Y818262D01*
X2563902Y817499D01*
X2563906Y817479D01*
X2563903Y817460D01*
X2563925Y817358D01*
X2563942Y817256D01*
X2563951Y817239D01*
X2563956Y817219D01*
X2564009Y817130D01*
X2564057Y817039D01*
X2564072Y817025D01*
X2564082Y817008D01*
X2564160Y816941D01*
X2564235Y816870D01*
X2564254Y816861D01*
X2564269Y816848D01*
X2564365Y816809D01*
X2564459Y816766D01*
X2564478Y816764D01*
X2564497Y816756D01*
X2564664Y816738D01*
X2574824Y816738D01*
X2574824Y813737D01*
X2569600Y808512D01*
X2569558Y808454D01*
X2569509Y808402D01*
X2569487Y808355D01*
X2569456Y808313D01*
X2569435Y808244D01*
X2569405Y808179D01*
X2569399Y808127D01*
X2569384Y808077D01*
X2569386Y808006D01*
X2569378Y807935D01*
X2569389Y807884D01*
X2569390Y807832D01*
X2569415Y807764D01*
X2569430Y807694D01*
X2569457Y807649D01*
X2569475Y807601D01*
X2569520Y807545D01*
X2569556Y807483D01*
X2569596Y807449D01*
X2569628Y807409D01*
X2569689Y807370D01*
X2569743Y807323D01*
X2569791Y807304D01*
X2569835Y807276D01*
X2569905Y807258D01*
X2569971Y807231D01*
X2570043Y807223D01*
X2570074Y807215D01*
X2570097Y807217D01*
X2570138Y807213D01*
X2793235Y807213D01*
X2793325Y807227D01*
X2793416Y807235D01*
X2793446Y807247D01*
X2793478Y807252D01*
X2793558Y807295D01*
X2793642Y807331D01*
X2793674Y807357D01*
X2793695Y807368D01*
X2793717Y807391D01*
X2793773Y807436D01*
X2803428Y817091D01*
X2803481Y817165D01*
X2803541Y817234D01*
X2803553Y817264D01*
X2803572Y817291D01*
X2803599Y817378D01*
X2803633Y817462D01*
X2803637Y817503D01*
X2803644Y817526D01*
X2803643Y817558D01*
X2803651Y817629D01*
X2803651Y821984D01*
X2809454Y827787D01*
X2809491Y827787D01*
X2809581Y827801D01*
X2809672Y827809D01*
X2809702Y827821D01*
X2809734Y827826D01*
X2809814Y827869D01*
X2809898Y827905D01*
X2809930Y827931D01*
X2809951Y827942D01*
X2809973Y827965D01*
X2810029Y828010D01*
X2817981Y835962D01*
X2817993Y835978D01*
X2818009Y835990D01*
X2818065Y836078D01*
X2818125Y836162D01*
X2818131Y836181D01*
X2818142Y836197D01*
X2818167Y836298D01*
X2818197Y836397D01*
X2818197Y836417D01*
X2818202Y836436D01*
X2818194Y836539D01*
X2818191Y836643D01*
X2818184Y836661D01*
X2818182Y836681D01*
X2818142Y836776D01*
X2818106Y836874D01*
X2818094Y836889D01*
X2818086Y836907D01*
X2817981Y837038D01*
X2816097Y838922D01*
X2816097Y847130D01*
X2821915Y852948D01*
X2822003Y852955D01*
X2822033Y852967D01*
X2822065Y852972D01*
X2822146Y853015D01*
X2822230Y853051D01*
X2822262Y853077D01*
X2822283Y853088D01*
X2822305Y853111D01*
X2822361Y853156D01*
X2822370Y853165D01*
X2831783Y862578D01*
X2831795Y862594D01*
X2831810Y862607D01*
X2831866Y862694D01*
X2831927Y862778D01*
X2831933Y862797D01*
X2831943Y862814D01*
X2831968Y862913D01*
X2831999Y863013D01*
X2831999Y863033D01*
X2832003Y863052D01*
X2831995Y863155D01*
X2831993Y863259D01*
X2831986Y863277D01*
X2831984Y863297D01*
X2831944Y863393D01*
X2831908Y863490D01*
X2831896Y863505D01*
X2831888Y863524D01*
X2831783Y863655D01*
X2831653Y863785D01*
X2830273Y867117D01*
X2830273Y870723D01*
X2831653Y874055D01*
X2834203Y876605D01*
X2837534Y877985D01*
X2841140Y877985D01*
X2844472Y876605D01*
X2847022Y874055D01*
X2848402Y870723D01*
X2848402Y867117D01*
X2847022Y863785D01*
X2846165Y862928D01*
X2846112Y862854D01*
X2846053Y862785D01*
X2846040Y862755D01*
X2846022Y862728D01*
X2845995Y862641D01*
X2845961Y862556D01*
X2845956Y862516D01*
X2845949Y862493D01*
X2845950Y862461D01*
X2845942Y862390D01*
X2845942Y859478D01*
X2844937Y857050D01*
X2836001Y848115D01*
X2835990Y848099D01*
X2835974Y848087D01*
X2835918Y847999D01*
X2835858Y847916D01*
X2835852Y847897D01*
X2835841Y847880D01*
X2835816Y847779D01*
X2835786Y847681D01*
X2835786Y847660D01*
X2835781Y847641D01*
X2835789Y847538D01*
X2835792Y847435D01*
X2835799Y847416D01*
X2835800Y847396D01*
X2835841Y847301D01*
X2835876Y847204D01*
X2835889Y847188D01*
X2835897Y847170D01*
X2835911Y847152D01*
X2835911Y838922D01*
X2832832Y835843D01*
X2832779Y835769D01*
X2832719Y835700D01*
X2832707Y835670D01*
X2832688Y835644D01*
X2832661Y835557D01*
X2832627Y835472D01*
X2832623Y835431D01*
X2832616Y835409D01*
X2832617Y835376D01*
X2832609Y835305D01*
X2832609Y833330D01*
X2831603Y830903D01*
X2823613Y822912D01*
X2823601Y822896D01*
X2823585Y822883D01*
X2823529Y822796D01*
X2823469Y822712D01*
X2823463Y822693D01*
X2823452Y822676D01*
X2823427Y822576D01*
X2823397Y822477D01*
X2823397Y822457D01*
X2823392Y822438D01*
X2823400Y822335D01*
X2823403Y822231D01*
X2823410Y822213D01*
X2823412Y822193D01*
X2823452Y822098D01*
X2823465Y822063D01*
X2823465Y813776D01*
X2817662Y807973D01*
X2813307Y807973D01*
X2813217Y807959D01*
X2813126Y807951D01*
X2813096Y807939D01*
X2813064Y807934D01*
X2812984Y807891D01*
X2812900Y807855D01*
X2812868Y807829D01*
X2812847Y807818D01*
X2812825Y807795D01*
X2812769Y807750D01*
X2800027Y795009D01*
X2797600Y794003D01*
X2504142Y794003D01*
X2501715Y795009D01*
X2477543Y819180D01*
X2477469Y819233D01*
X2477400Y819293D01*
X2477370Y819305D01*
X2477343Y819324D01*
X2477256Y819351D01*
X2477172Y819385D01*
X2477131Y819389D01*
X2477108Y819396D01*
X2477076Y819395D01*
X2477005Y819403D01*
X2019571Y819403D01*
X2019481Y819389D01*
X2019390Y819381D01*
X2019360Y819369D01*
X2019328Y819364D01*
X2019247Y819321D01*
X2019163Y819285D01*
X2019131Y819259D01*
X2019111Y819248D01*
X2019088Y819225D01*
X2019033Y819180D01*
X1982161Y782309D01*
X1979733Y781303D01*
X1697766Y781303D01*
X1697676Y781289D01*
X1697585Y781281D01*
X1697556Y781269D01*
X1697524Y781264D01*
X1697443Y781221D01*
X1697359Y781185D01*
X1697327Y781159D01*
X1697306Y781148D01*
X1697284Y781125D01*
X1697228Y781080D01*
X1688043Y771895D01*
X1685615Y770889D01*
X1534343Y770889D01*
X1531915Y771895D01*
X1405890Y897920D01*
X1405816Y897973D01*
X1405746Y898033D01*
X1405716Y898045D01*
X1405690Y898064D01*
X1405603Y898091D01*
X1405518Y898125D01*
X1405477Y898129D01*
X1405455Y898136D01*
X1405423Y898135D01*
X1405352Y898143D01*
X1308506Y898143D01*
X1308435Y898132D01*
X1308363Y898130D01*
X1308314Y898112D01*
X1308263Y898104D01*
X1308199Y898070D01*
X1308132Y898045D01*
X1308091Y898013D01*
X1308045Y897988D01*
X1307996Y897936D01*
X1307940Y897892D01*
X1307912Y897848D01*
X1307876Y897810D01*
X1307846Y897745D01*
X1307807Y897685D01*
X1307794Y897634D01*
X1307772Y897587D01*
X1307765Y897516D01*
X1307747Y897446D01*
X1307751Y897394D01*
X1307745Y897343D01*
X1307761Y897272D01*
X1307766Y897201D01*
X1307786Y897153D01*
X1307798Y897102D01*
X1307834Y897041D01*
X1307862Y896975D01*
X1307907Y896919D01*
X1307924Y896891D01*
X1307942Y896876D01*
X1307967Y896844D01*
X1311962Y892850D01*
X1311962Y884642D01*
X1306316Y878997D01*
X1306305Y878981D01*
X1306289Y878969D01*
X1306233Y878881D01*
X1306173Y878798D01*
X1306167Y878779D01*
X1306156Y878762D01*
X1306131Y878661D01*
X1306100Y878562D01*
X1306101Y878543D01*
X1306096Y878523D01*
X1306104Y878420D01*
X1306107Y878317D01*
X1306114Y878298D01*
X1306115Y878278D01*
X1306156Y878183D01*
X1306191Y878086D01*
X1306204Y878070D01*
X1306212Y878052D01*
X1306316Y877921D01*
X1311809Y872428D01*
X1311809Y864221D01*
X1305783Y858195D01*
X1305772Y858179D01*
X1305756Y858166D01*
X1305727Y858122D01*
X1305692Y858085D01*
X1305669Y858037D01*
X1305639Y857995D01*
X1305634Y857976D01*
X1305623Y857959D01*
X1305610Y857909D01*
X1305588Y857861D01*
X1305582Y857809D01*
X1305567Y857760D01*
X1305568Y857740D01*
X1305563Y857721D01*
X1305567Y857669D01*
X1305561Y857617D01*
X1305572Y857565D01*
X1305573Y857514D01*
X1305580Y857496D01*
X1305582Y857475D01*
X1305602Y857428D01*
X1305613Y857377D01*
X1305640Y857331D01*
X1305658Y857283D01*
X1305670Y857268D01*
X1305678Y857249D01*
X1305723Y857193D01*
X1305739Y857166D01*
X1305757Y857150D01*
X1305783Y857118D01*
X1311657Y851244D01*
X1311657Y843037D01*
X1305854Y837234D01*
X1297646Y837234D01*
X1291843Y843037D01*
X1291843Y851244D01*
X1297869Y857270D01*
X1297881Y857286D01*
X1297897Y857299D01*
X1297925Y857343D01*
X1297961Y857381D01*
X1297983Y857429D01*
X1298013Y857470D01*
X1298019Y857489D01*
X1298030Y857506D01*
X1298042Y857557D01*
X1298064Y857604D01*
X1298070Y857656D01*
X1298085Y857705D01*
X1298085Y857725D01*
X1298090Y857745D01*
X1298086Y857796D01*
X1298092Y857848D01*
X1298080Y857900D01*
X1298079Y857951D01*
X1298072Y857970D01*
X1298071Y857990D01*
X1298050Y858038D01*
X1298039Y858089D01*
X1298012Y858134D01*
X1297995Y858182D01*
X1297982Y858198D01*
X1297974Y858216D01*
X1297930Y858272D01*
X1297913Y858300D01*
X1297895Y858315D01*
X1297870Y858347D01*
X1291996Y864221D01*
X1291996Y872428D01*
X1297641Y878073D01*
X1297652Y878089D01*
X1297668Y878102D01*
X1297724Y878189D01*
X1297784Y878273D01*
X1297790Y878292D01*
X1297801Y878309D01*
X1297826Y878409D01*
X1297857Y878508D01*
X1297856Y878528D01*
X1297861Y878547D01*
X1297853Y878650D01*
X1297850Y878754D01*
X1297844Y878773D01*
X1297842Y878792D01*
X1297802Y878887D01*
X1297766Y878985D01*
X1297753Y879000D01*
X1297746Y879019D01*
X1297641Y879150D01*
X1292148Y884642D01*
X1292148Y892850D01*
X1296142Y896844D01*
X1296184Y896902D01*
X1296234Y896954D01*
X1296255Y897001D01*
X1296286Y897043D01*
X1296307Y897112D01*
X1296337Y897177D01*
X1296343Y897229D01*
X1296358Y897279D01*
X1296356Y897350D01*
X1296364Y897421D01*
X1296353Y897472D01*
X1296352Y897524D01*
X1296327Y897592D01*
X1296312Y897662D01*
X1296285Y897707D01*
X1296267Y897755D01*
X1296223Y897811D01*
X1296186Y897873D01*
X1296146Y897907D01*
X1296114Y897947D01*
X1296053Y897986D01*
X1295999Y898033D01*
X1295951Y898052D01*
X1295907Y898080D01*
X1295837Y898098D01*
X1295771Y898125D01*
X1295699Y898133D01*
X1295668Y898141D01*
X1295645Y898139D01*
X1295604Y898143D01*
X1257706Y898143D01*
X1257635Y898132D01*
X1257563Y898130D01*
X1257514Y898112D01*
X1257463Y898104D01*
X1257399Y898070D01*
X1257332Y898045D01*
X1257291Y898013D01*
X1257245Y897988D01*
X1257196Y897936D01*
X1257140Y897892D01*
X1257112Y897848D01*
X1257076Y897810D01*
X1257046Y897745D01*
X1257007Y897685D01*
X1256994Y897634D01*
X1256972Y897587D01*
X1256965Y897516D01*
X1256947Y897446D01*
X1256951Y897394D01*
X1256945Y897343D01*
X1256961Y897272D01*
X1256966Y897201D01*
X1256986Y897153D01*
X1256998Y897102D01*
X1257034Y897041D01*
X1257062Y896975D01*
X1257107Y896919D01*
X1257124Y896891D01*
X1257142Y896876D01*
X1257167Y896844D01*
X1261162Y892850D01*
X1261162Y884642D01*
X1255516Y878997D01*
X1255505Y878981D01*
X1255489Y878969D01*
X1255433Y878881D01*
X1255373Y878798D01*
X1255367Y878779D01*
X1255356Y878762D01*
X1255331Y878661D01*
X1255300Y878562D01*
X1255301Y878543D01*
X1255296Y878523D01*
X1255304Y878420D01*
X1255307Y878317D01*
X1255314Y878298D01*
X1255315Y878278D01*
X1255356Y878183D01*
X1255391Y878086D01*
X1255404Y878070D01*
X1255412Y878052D01*
X1255516Y877921D01*
X1261009Y872428D01*
X1261009Y864221D01*
X1254983Y858195D01*
X1254972Y858179D01*
X1254956Y858166D01*
X1254927Y858122D01*
X1254892Y858085D01*
X1254869Y858037D01*
X1254839Y857995D01*
X1254834Y857976D01*
X1254823Y857959D01*
X1254810Y857909D01*
X1254788Y857861D01*
X1254782Y857809D01*
X1254767Y857760D01*
X1254768Y857740D01*
X1254763Y857721D01*
X1254767Y857669D01*
X1254761Y857617D01*
X1254772Y857565D01*
X1254773Y857514D01*
X1254780Y857496D01*
X1254782Y857475D01*
X1254802Y857428D01*
X1254813Y857377D01*
X1254840Y857331D01*
X1254858Y857283D01*
X1254870Y857268D01*
X1254878Y857249D01*
X1254923Y857193D01*
X1254939Y857166D01*
X1254957Y857150D01*
X1254983Y857118D01*
X1260857Y851244D01*
X1260857Y843037D01*
X1255054Y837234D01*
X1246846Y837234D01*
X1244099Y839982D01*
X1244083Y839993D01*
X1244070Y840009D01*
X1243983Y840065D01*
X1243899Y840125D01*
X1243880Y840131D01*
X1243863Y840142D01*
X1243763Y840167D01*
X1243664Y840198D01*
X1243644Y840197D01*
X1243625Y840202D01*
X1243522Y840194D01*
X1243418Y840191D01*
X1243399Y840184D01*
X1243380Y840183D01*
X1243285Y840142D01*
X1243187Y840107D01*
X1243172Y840094D01*
X1243153Y840086D01*
X1243022Y839982D01*
X1199869Y796828D01*
X1199827Y796770D01*
X1199778Y796718D01*
X1199756Y796671D01*
X1199726Y796629D01*
X1199704Y796560D01*
X1199674Y796495D01*
X1199668Y796443D01*
X1199653Y796393D01*
X1199655Y796322D01*
X1199647Y796251D01*
X1199658Y796200D01*
X1199660Y796148D01*
X1199684Y796080D01*
X1199699Y796010D01*
X1199726Y795966D01*
X1199744Y795917D01*
X1199789Y795861D01*
X1199826Y795799D01*
X1199865Y795765D01*
X1199898Y795725D01*
X1199958Y795686D01*
X1200012Y795639D01*
X1200061Y795620D01*
X1200105Y795592D01*
X1200174Y795574D01*
X1200241Y795547D01*
X1200312Y795539D01*
X1200343Y795531D01*
X1200366Y795533D01*
X1200407Y795529D01*
X1215590Y795529D01*
X1215680Y795543D01*
X1215771Y795551D01*
X1215801Y795563D01*
X1215833Y795568D01*
X1215913Y795611D01*
X1215997Y795647D01*
X1216029Y795673D01*
X1216050Y795684D01*
X1216072Y795707D01*
X1216128Y795752D01*
X1240058Y819682D01*
X1240111Y819756D01*
X1240171Y819825D01*
X1240183Y819855D01*
X1240202Y819882D01*
X1240229Y819969D01*
X1240263Y820053D01*
X1240267Y820094D01*
X1240274Y820117D01*
X1240273Y820149D01*
X1240281Y820220D01*
X1240281Y820714D01*
X1246084Y826517D01*
X1254292Y826517D01*
X1260095Y820714D01*
X1260095Y812506D01*
X1254292Y806703D01*
X1246084Y806703D01*
X1241432Y811356D01*
X1241416Y811367D01*
X1241403Y811383D01*
X1241316Y811439D01*
X1241232Y811499D01*
X1241213Y811505D01*
X1241196Y811516D01*
X1241096Y811541D01*
X1240997Y811572D01*
X1240977Y811571D01*
X1240958Y811576D01*
X1240855Y811568D01*
X1240751Y811565D01*
X1240732Y811558D01*
X1240713Y811557D01*
X1240618Y811517D01*
X1240520Y811481D01*
X1240505Y811468D01*
X1240486Y811461D01*
X1240355Y811356D01*
X1220748Y791748D01*
X1220706Y791690D01*
X1220657Y791638D01*
X1220635Y791591D01*
X1220604Y791549D01*
X1220583Y791480D01*
X1220553Y791415D01*
X1220547Y791363D01*
X1220532Y791313D01*
X1220534Y791242D01*
X1220526Y791171D01*
X1220537Y791120D01*
X1220538Y791068D01*
X1220563Y791000D01*
X1220578Y790930D01*
X1220605Y790886D01*
X1220623Y790837D01*
X1220668Y790781D01*
X1220704Y790719D01*
X1220744Y790685D01*
X1220776Y790645D01*
X1220837Y790606D01*
X1220891Y790559D01*
X1220940Y790540D01*
X1220983Y790512D01*
X1221053Y790494D01*
X1221119Y790467D01*
X1221191Y790459D01*
X1221222Y790451D01*
X1221245Y790453D01*
X1221286Y790449D01*
X1230830Y790449D01*
X1230920Y790463D01*
X1231011Y790471D01*
X1231041Y790483D01*
X1231073Y790488D01*
X1231153Y790531D01*
X1231237Y790567D01*
X1231269Y790593D01*
X1231290Y790604D01*
X1231312Y790627D01*
X1231368Y790672D01*
X1238765Y798069D01*
X1239520Y798069D01*
X1239540Y798072D01*
X1239559Y798070D01*
X1239661Y798092D01*
X1239763Y798108D01*
X1239780Y798118D01*
X1239800Y798122D01*
X1239889Y798175D01*
X1239980Y798224D01*
X1239994Y798238D01*
X1240011Y798248D01*
X1240078Y798327D01*
X1240150Y798402D01*
X1240158Y798420D01*
X1240171Y798435D01*
X1240210Y798531D01*
X1240253Y798625D01*
X1240255Y798645D01*
X1240263Y798663D01*
X1240281Y798830D01*
X1240281Y799124D01*
X1246084Y804927D01*
X1254292Y804927D01*
X1260095Y799124D01*
X1260095Y790916D01*
X1256354Y787176D01*
X1256313Y787118D01*
X1256263Y787066D01*
X1256241Y787019D01*
X1256211Y786977D01*
X1256190Y786908D01*
X1256160Y786843D01*
X1256154Y786791D01*
X1256139Y786741D01*
X1256140Y786670D01*
X1256133Y786599D01*
X1256144Y786548D01*
X1256145Y786496D01*
X1256170Y786428D01*
X1256185Y786358D01*
X1256212Y786313D01*
X1256229Y786265D01*
X1256274Y786209D01*
X1256311Y786147D01*
X1256351Y786113D01*
X1256383Y786073D01*
X1256443Y786034D01*
X1256498Y785987D01*
X1256546Y785968D01*
X1256590Y785940D01*
X1256659Y785922D01*
X1256726Y785895D01*
X1256797Y785887D01*
X1256829Y785879D01*
X1256852Y785881D01*
X1256893Y785877D01*
X1294283Y785877D01*
X1294354Y785888D01*
X1294426Y785890D01*
X1294475Y785908D01*
X1294526Y785916D01*
X1294589Y785950D01*
X1294657Y785975D01*
X1294697Y786007D01*
X1294743Y786032D01*
X1294793Y786084D01*
X1294849Y786128D01*
X1294877Y786172D01*
X1294913Y786210D01*
X1294943Y786275D01*
X1294982Y786335D01*
X1294994Y786386D01*
X1295016Y786433D01*
X1295024Y786504D01*
X1295042Y786574D01*
X1295038Y786626D01*
X1295043Y786677D01*
X1295028Y786748D01*
X1295023Y786819D01*
X1295002Y786867D01*
X1294991Y786918D01*
X1294954Y786979D01*
X1294926Y787045D01*
X1294882Y787101D01*
X1294865Y787129D01*
X1294847Y787144D01*
X1294822Y787176D01*
X1291081Y790916D01*
X1291081Y799124D01*
X1296884Y804927D01*
X1305092Y804927D01*
X1310895Y799124D01*
X1310895Y791264D01*
X1310906Y791193D01*
X1310908Y791122D01*
X1310926Y791073D01*
X1310934Y791021D01*
X1310968Y790958D01*
X1310993Y790891D01*
X1311025Y790850D01*
X1311050Y790804D01*
X1311101Y790755D01*
X1311146Y790699D01*
X1311190Y790670D01*
X1311228Y790635D01*
X1311293Y790604D01*
X1311353Y790566D01*
X1311404Y790553D01*
X1311451Y790531D01*
X1311522Y790523D01*
X1311592Y790506D01*
X1311644Y790510D01*
X1311695Y790504D01*
X1311766Y790519D01*
X1311837Y790525D01*
X1311885Y790545D01*
X1311936Y790556D01*
X1311997Y790593D01*
X1312063Y790621D01*
X1312119Y790666D01*
X1312147Y790682D01*
X1312162Y790700D01*
X1312194Y790726D01*
X1315242Y793774D01*
X1315295Y793848D01*
X1315355Y793917D01*
X1315367Y793947D01*
X1315386Y793974D01*
X1315413Y794061D01*
X1315447Y794145D01*
X1315451Y794186D01*
X1315458Y794209D01*
X1315457Y794241D01*
X1315465Y794312D01*
X1315465Y856227D01*
X1317474Y858236D01*
X1339295Y880056D01*
X1339306Y880073D01*
X1339322Y880085D01*
X1339378Y880172D01*
X1339438Y880256D01*
X1339444Y880275D01*
X1339455Y880292D01*
X1339480Y880392D01*
X1339511Y880491D01*
X1339510Y880511D01*
X1339515Y880530D01*
X1339507Y880633D01*
X1339504Y880737D01*
X1339498Y880756D01*
X1339496Y880776D01*
X1339456Y880871D01*
X1339420Y880968D01*
X1339407Y880984D01*
X1339400Y881002D01*
X1339295Y881133D01*
X1339087Y881341D01*
X1339087Y889548D01*
X1344890Y895351D01*
X1353098Y895351D01*
X1358901Y889548D01*
X1358901Y881340D01*
X1353002Y875441D01*
X1352990Y875425D01*
X1352974Y875413D01*
X1352918Y875325D01*
X1352858Y875242D01*
X1352852Y875223D01*
X1352841Y875206D01*
X1352816Y875105D01*
X1352786Y875006D01*
X1352786Y874987D01*
X1352781Y874967D01*
X1352789Y874864D01*
X1352792Y874761D01*
X1352799Y874742D01*
X1352800Y874722D01*
X1352841Y874627D01*
X1352876Y874530D01*
X1352889Y874514D01*
X1352897Y874496D01*
X1353002Y874365D01*
X1358901Y868466D01*
X1358901Y860258D01*
X1353256Y854613D01*
X1353244Y854597D01*
X1353228Y854585D01*
X1353172Y854497D01*
X1353112Y854414D01*
X1353106Y854395D01*
X1353095Y854378D01*
X1353070Y854277D01*
X1353040Y854178D01*
X1353040Y854159D01*
X1353035Y854139D01*
X1353043Y854036D01*
X1353046Y853933D01*
X1353053Y853914D01*
X1353054Y853894D01*
X1353095Y853799D01*
X1353130Y853702D01*
X1353143Y853686D01*
X1353151Y853668D01*
X1353256Y853537D01*
X1358901Y847892D01*
X1358901Y839684D01*
X1353256Y834039D01*
X1353244Y834023D01*
X1353228Y834011D01*
X1353172Y833923D01*
X1353112Y833840D01*
X1353106Y833821D01*
X1353095Y833804D01*
X1353070Y833703D01*
X1353040Y833604D01*
X1353040Y833585D01*
X1353035Y833565D01*
X1353043Y833462D01*
X1353046Y833359D01*
X1353053Y833340D01*
X1353054Y833320D01*
X1353095Y833225D01*
X1353130Y833128D01*
X1353143Y833112D01*
X1353151Y833094D01*
X1353256Y832963D01*
X1359155Y827064D01*
X1359155Y818856D01*
X1353352Y813053D01*
X1353058Y813053D01*
X1353038Y813050D01*
X1353019Y813052D01*
X1352917Y813030D01*
X1352815Y813014D01*
X1352798Y813004D01*
X1352778Y813000D01*
X1352689Y812947D01*
X1352598Y812898D01*
X1352584Y812884D01*
X1352567Y812874D01*
X1352500Y812795D01*
X1352428Y812720D01*
X1352420Y812702D01*
X1352407Y812687D01*
X1352368Y812591D01*
X1352325Y812497D01*
X1352323Y812477D01*
X1352315Y812459D01*
X1352297Y812292D01*
X1352297Y795950D01*
X1322410Y766063D01*
X992886Y766063D01*
X992866Y766060D01*
X992847Y766062D01*
X992745Y766040D01*
X992643Y766024D01*
X992626Y766014D01*
X992606Y766010D01*
X992517Y765957D01*
X992426Y765908D01*
X992412Y765894D01*
X992395Y765884D01*
X992328Y765805D01*
X992256Y765730D01*
X992248Y765712D01*
X992235Y765697D01*
X992196Y765601D01*
X992153Y765507D01*
X992151Y765487D01*
X992143Y765469D01*
X992125Y765302D01*
X992125Y756412D01*
X992128Y756392D01*
X992126Y756373D01*
X992148Y756271D01*
X992164Y756169D01*
X992174Y756152D01*
X992178Y756132D01*
X992231Y756043D01*
X992280Y755952D01*
X992294Y755938D01*
X992304Y755921D01*
X992383Y755854D01*
X992458Y755782D01*
X992476Y755774D01*
X992491Y755761D01*
X992587Y755722D01*
X992681Y755679D01*
X992701Y755677D01*
X992719Y755669D01*
X992886Y755651D01*
X2981706Y755651D01*
X2981726Y755654D01*
G37*
%LPC*%
G36*
X1730604Y853959D02*
X1730604Y853959D01*
X1719330Y858384D01*
X1709861Y865935D01*
X1703038Y875942D01*
X1699468Y887516D01*
X1699468Y899628D01*
X1703038Y911202D01*
X1703609Y912040D01*
X1703610Y912040D01*
X1704128Y912801D01*
X1705166Y914324D01*
X1705167Y914324D01*
X1706204Y915846D01*
X1706205Y915846D01*
X1706205Y915847D01*
X1707761Y918130D01*
X1707762Y918130D01*
X1708800Y919653D01*
X1709838Y921175D01*
X1709861Y921209D01*
X1719330Y928760D01*
X1730604Y933185D01*
X1742682Y934091D01*
X1743948Y933802D01*
X1747283Y933040D01*
X1750618Y932279D01*
X1753954Y931518D01*
X1754491Y931395D01*
X1764980Y925339D01*
X1773218Y916461D01*
X1778473Y905549D01*
X1780278Y893572D01*
X1778473Y881595D01*
X1773218Y870683D01*
X1764980Y861804D01*
X1754491Y855749D01*
X1742682Y853053D01*
X1730604Y853959D01*
G37*
%LPD*%
%LPC*%
G36*
X2732634Y854721D02*
X2732634Y854721D01*
X2721360Y859146D01*
X2711891Y866697D01*
X2705068Y876704D01*
X2701498Y888278D01*
X2701498Y900390D01*
X2705068Y911964D01*
X2705120Y912040D01*
X2706158Y913563D01*
X2707715Y915846D01*
X2707715Y915847D01*
X2708753Y917369D01*
X2709791Y918891D01*
X2709791Y918892D01*
X2711348Y921175D01*
X2711891Y921971D01*
X2721360Y929522D01*
X2732634Y933947D01*
X2744712Y934853D01*
X2745981Y934563D01*
X2749316Y933802D01*
X2752652Y933040D01*
X2755987Y932279D01*
X2756521Y932157D01*
X2767010Y926101D01*
X2775248Y917223D01*
X2780503Y906311D01*
X2782308Y894334D01*
X2780503Y882357D01*
X2775248Y871445D01*
X2767010Y862567D01*
X2756521Y856511D01*
X2744712Y853815D01*
X2732634Y854721D01*
G37*
%LPD*%
%LPC*%
G36*
X2926182Y853451D02*
X2926182Y853451D01*
X2914908Y857876D01*
X2905439Y865427D01*
X2898616Y875434D01*
X2895046Y887008D01*
X2895046Y899120D01*
X2898616Y910694D01*
X2899534Y912040D01*
X2900572Y913563D01*
X2902129Y915846D01*
X2902129Y915847D01*
X2903167Y917369D01*
X2904205Y918891D01*
X2904205Y918892D01*
X2904724Y919653D01*
X2905439Y920701D01*
X2914908Y928252D01*
X2926182Y932677D01*
X2938260Y933583D01*
X2940635Y933040D01*
X2943971Y932279D01*
X2947306Y931518D01*
X2950069Y930887D01*
X2960558Y924831D01*
X2968796Y915953D01*
X2974051Y905041D01*
X2975856Y893064D01*
X2974051Y881087D01*
X2968796Y870175D01*
X2960558Y861297D01*
X2950069Y855241D01*
X2938260Y852545D01*
X2926182Y853451D01*
G37*
%LPD*%
%LPC*%
G36*
X2381352Y855229D02*
X2381352Y855229D01*
X2370078Y859654D01*
X2360609Y867205D01*
X2353786Y877212D01*
X2350216Y888786D01*
X2350216Y900898D01*
X2353786Y912472D01*
X2354011Y912801D01*
X2355049Y914324D01*
X2356087Y915846D01*
X2356087Y915847D01*
X2357125Y917369D01*
X2357644Y918130D01*
X2358682Y919653D01*
X2359720Y921175D01*
X2360609Y922479D01*
X2370078Y930030D01*
X2381352Y934455D01*
X2393430Y935361D01*
X2393589Y935324D01*
X2393590Y935324D01*
X2396925Y934563D01*
X2400260Y933802D01*
X2403595Y933040D01*
X2405239Y932665D01*
X2415728Y926609D01*
X2423966Y917731D01*
X2429221Y906819D01*
X2431026Y894842D01*
X2429221Y882865D01*
X2423966Y871953D01*
X2415728Y863074D01*
X2405239Y857019D01*
X2393430Y854323D01*
X2381352Y855229D01*
G37*
%LPD*%
%LPC*%
G36*
X1535532Y854975D02*
X1535532Y854975D01*
X1524258Y859400D01*
X1514789Y866951D01*
X1507966Y876958D01*
X1504396Y888532D01*
X1504396Y900644D01*
X1507966Y912218D01*
X1508364Y912801D01*
X1508364Y912802D01*
X1509921Y915085D01*
X1510959Y916608D01*
X1511997Y918130D01*
X1512516Y918891D01*
X1513554Y920414D01*
X1514592Y921936D01*
X1514592Y921937D01*
X1514789Y922225D01*
X1524258Y929776D01*
X1535532Y934201D01*
X1547610Y935107D01*
X1549992Y934563D01*
X1553327Y933802D01*
X1556662Y933040D01*
X1559419Y932411D01*
X1569908Y926355D01*
X1578146Y917477D01*
X1583401Y906565D01*
X1585206Y894588D01*
X1583401Y882611D01*
X1578146Y871699D01*
X1569908Y862820D01*
X1559419Y856765D01*
X1547610Y854069D01*
X1535532Y854975D01*
G37*
%LPD*%
%LPC*%
G36*
X2080108Y854467D02*
X2080108Y854467D01*
X2068834Y858892D01*
X2059365Y866443D01*
X2052542Y876450D01*
X2048972Y888024D01*
X2048972Y900136D01*
X2052542Y911710D01*
X2053286Y912801D01*
X2053286Y912802D01*
X2054324Y914324D01*
X2055881Y916608D01*
X2056919Y918130D01*
X2057957Y919653D01*
X2059365Y921717D01*
X2068834Y929268D01*
X2080108Y933693D01*
X2092186Y934598D01*
X2092342Y934563D01*
X2095677Y933802D01*
X2099013Y933040D01*
X2102348Y932279D01*
X2103995Y931903D01*
X2114484Y925848D01*
X2122722Y916969D01*
X2127977Y906057D01*
X2129782Y894080D01*
X2127977Y882103D01*
X2122722Y871191D01*
X2114484Y862313D01*
X2103995Y856257D01*
X2092186Y853561D01*
X2080108Y854467D01*
G37*
%LPD*%
%LPC*%
G36*
X1395944Y813053D02*
X1395944Y813053D01*
X1390141Y818856D01*
X1390141Y827064D01*
X1395786Y832709D01*
X1395798Y832725D01*
X1395814Y832737D01*
X1395870Y832825D01*
X1395930Y832908D01*
X1395936Y832927D01*
X1395947Y832944D01*
X1395972Y833045D01*
X1396002Y833144D01*
X1396002Y833163D01*
X1396007Y833183D01*
X1395999Y833286D01*
X1395996Y833389D01*
X1395989Y833408D01*
X1395988Y833428D01*
X1395947Y833523D01*
X1395912Y833620D01*
X1395899Y833636D01*
X1395891Y833654D01*
X1395786Y833785D01*
X1389887Y839684D01*
X1389887Y847892D01*
X1395532Y853537D01*
X1395544Y853553D01*
X1395560Y853565D01*
X1395616Y853653D01*
X1395676Y853736D01*
X1395682Y853755D01*
X1395693Y853772D01*
X1395718Y853873D01*
X1395748Y853972D01*
X1395748Y853991D01*
X1395753Y854011D01*
X1395745Y854114D01*
X1395742Y854217D01*
X1395735Y854236D01*
X1395734Y854256D01*
X1395693Y854351D01*
X1395658Y854448D01*
X1395645Y854464D01*
X1395637Y854482D01*
X1395532Y854613D01*
X1389887Y860258D01*
X1389887Y868466D01*
X1395786Y874365D01*
X1395798Y874381D01*
X1395814Y874393D01*
X1395870Y874481D01*
X1395930Y874564D01*
X1395936Y874583D01*
X1395947Y874600D01*
X1395972Y874701D01*
X1396002Y874800D01*
X1396002Y874819D01*
X1396007Y874839D01*
X1395999Y874942D01*
X1395996Y875045D01*
X1395989Y875064D01*
X1395988Y875084D01*
X1395947Y875179D01*
X1395912Y875276D01*
X1395899Y875292D01*
X1395891Y875310D01*
X1395786Y875441D01*
X1389887Y881340D01*
X1389887Y889548D01*
X1395690Y895351D01*
X1403898Y895351D01*
X1409701Y889548D01*
X1409701Y881340D01*
X1403802Y875441D01*
X1403790Y875425D01*
X1403774Y875413D01*
X1403718Y875325D01*
X1403658Y875242D01*
X1403652Y875223D01*
X1403641Y875206D01*
X1403616Y875105D01*
X1403586Y875006D01*
X1403586Y874987D01*
X1403581Y874967D01*
X1403589Y874864D01*
X1403592Y874761D01*
X1403599Y874742D01*
X1403600Y874722D01*
X1403641Y874627D01*
X1403676Y874530D01*
X1403689Y874514D01*
X1403697Y874496D01*
X1403802Y874365D01*
X1409701Y868466D01*
X1409701Y860258D01*
X1404056Y854613D01*
X1404044Y854597D01*
X1404028Y854585D01*
X1403972Y854497D01*
X1403912Y854414D01*
X1403906Y854395D01*
X1403895Y854378D01*
X1403870Y854277D01*
X1403840Y854178D01*
X1403840Y854159D01*
X1403835Y854139D01*
X1403843Y854036D01*
X1403846Y853933D01*
X1403853Y853914D01*
X1403854Y853894D01*
X1403895Y853799D01*
X1403930Y853702D01*
X1403943Y853686D01*
X1403951Y853668D01*
X1404056Y853537D01*
X1409701Y847892D01*
X1409701Y839684D01*
X1404056Y834039D01*
X1404044Y834023D01*
X1404028Y834011D01*
X1403972Y833923D01*
X1403912Y833840D01*
X1403906Y833821D01*
X1403895Y833804D01*
X1403870Y833703D01*
X1403840Y833604D01*
X1403840Y833585D01*
X1403835Y833565D01*
X1403843Y833462D01*
X1403846Y833359D01*
X1403853Y833340D01*
X1403854Y833320D01*
X1403895Y833225D01*
X1403930Y833128D01*
X1403943Y833112D01*
X1403951Y833094D01*
X1404056Y832963D01*
X1409955Y827064D01*
X1409955Y818856D01*
X1404152Y813053D01*
X1395944Y813053D01*
G37*
%LPD*%
%LPC*%
G36*
X2166941Y878317D02*
X2166941Y878317D01*
X2160494Y880988D01*
X2155560Y885922D01*
X2152889Y892369D01*
X2152889Y899347D01*
X2155560Y905794D01*
X2160494Y910728D01*
X2166941Y913399D01*
X2173919Y913399D01*
X2180366Y910728D01*
X2185300Y905794D01*
X2187971Y899347D01*
X2187971Y892369D01*
X2185300Y885922D01*
X2180366Y880988D01*
X2173919Y878317D01*
X2166941Y878317D01*
G37*
%LPD*%
%LPC*%
G36*
X2306641Y877809D02*
X2306641Y877809D01*
X2300194Y880480D01*
X2295260Y885414D01*
X2292589Y891861D01*
X2292589Y898839D01*
X2295260Y905286D01*
X2300194Y910220D01*
X2306641Y912891D01*
X2313619Y912891D01*
X2320066Y910220D01*
X2325000Y905286D01*
X2327671Y898839D01*
X2327671Y891861D01*
X2325000Y885414D01*
X2320066Y880480D01*
X2313619Y877809D01*
X2306641Y877809D01*
G37*
%LPD*%
%LPC*%
G36*
X2613219Y876285D02*
X2613219Y876285D01*
X2606772Y878956D01*
X2601838Y883890D01*
X2599167Y890337D01*
X2599167Y897315D01*
X2601838Y903762D01*
X2606772Y908696D01*
X2613219Y911367D01*
X2620197Y911367D01*
X2626644Y908696D01*
X2631578Y903762D01*
X2634249Y897315D01*
X2634249Y890337D01*
X2631578Y883890D01*
X2626644Y878956D01*
X2620197Y876285D01*
X2613219Y876285D01*
G37*
%LPD*%
%LPC*%
G36*
X1844107Y876031D02*
X1844107Y876031D01*
X1837660Y878702D01*
X1832726Y883636D01*
X1830055Y890083D01*
X1830055Y897061D01*
X1832726Y903508D01*
X1837660Y908442D01*
X1844107Y911113D01*
X1851085Y911113D01*
X1857532Y908442D01*
X1862466Y903508D01*
X1865137Y897061D01*
X1865137Y890083D01*
X1862466Y883636D01*
X1857532Y878702D01*
X1851085Y876031D01*
X1844107Y876031D01*
G37*
%LPD*%
%LPC*%
G36*
X1632160Y911531D02*
X1632160Y911531D01*
X1631267Y912424D01*
X1631267Y928768D01*
X1632160Y929661D01*
X1648504Y929661D01*
X1649397Y928768D01*
X1649397Y912424D01*
X1648504Y911531D01*
X1632160Y911531D01*
G37*
%LPD*%
%LPC*%
G36*
X2831166Y910855D02*
X2831166Y910855D01*
X2830273Y911748D01*
X2830273Y928091D01*
X2831166Y928985D01*
X2847509Y928985D01*
X2848402Y928091D01*
X2848402Y911748D01*
X2847509Y910855D01*
X2831166Y910855D01*
G37*
%LPD*%
%LPC*%
G36*
X2529085Y910515D02*
X2529085Y910515D01*
X2528192Y911408D01*
X2528192Y927752D01*
X2529085Y928645D01*
X2545428Y928645D01*
X2546322Y927752D01*
X2546322Y911408D01*
X2545428Y910515D01*
X2529085Y910515D01*
G37*
%LPD*%
%LPC*%
G36*
X1931195Y910363D02*
X1931195Y910363D01*
X1930301Y911256D01*
X1930301Y927599D01*
X1931195Y928492D01*
X1947538Y928492D01*
X1948431Y927599D01*
X1948431Y911256D01*
X1947538Y910363D01*
X1931195Y910363D01*
G37*
%LPD*%
%LPC*%
G36*
X1296884Y806703D02*
X1296884Y806703D01*
X1291081Y812506D01*
X1291081Y820714D01*
X1296884Y826517D01*
X1305092Y826517D01*
X1310895Y820714D01*
X1310895Y812506D01*
X1305092Y806703D01*
X1296884Y806703D01*
G37*
%LPD*%
%LPC*%
G36*
X1114828Y919733D02*
X1114828Y919733D01*
X1109471Y925090D01*
X1109471Y932666D01*
X1114828Y938023D01*
X1122404Y938023D01*
X1127761Y932666D01*
X1127761Y925090D01*
X1122404Y919733D01*
X1114828Y919733D01*
G37*
%LPD*%
%LPC*%
G36*
X1114828Y894333D02*
X1114828Y894333D01*
X1109471Y899690D01*
X1109471Y907266D01*
X1114828Y912623D01*
X1122404Y912623D01*
X1127761Y907266D01*
X1127761Y899690D01*
X1122404Y894333D01*
X1114828Y894333D01*
G37*
%LPD*%
%LPC*%
G36*
X1114828Y868933D02*
X1114828Y868933D01*
X1109471Y874290D01*
X1109471Y881866D01*
X1114828Y887223D01*
X1122404Y887223D01*
X1127761Y881866D01*
X1127761Y874290D01*
X1122404Y868933D01*
X1114828Y868933D01*
G37*
%LPD*%
%LPC*%
G36*
X1953056Y843965D02*
X1953056Y843965D01*
X1953056Y853365D01*
X1956057Y853365D01*
X1962456Y846966D01*
X1962456Y843965D01*
X1953056Y843965D01*
G37*
%LPD*%
%LPC*%
G36*
X1654301Y843787D02*
X1654301Y843787D01*
X1654301Y853187D01*
X1657302Y853187D01*
X1663701Y846788D01*
X1663701Y843787D01*
X1654301Y843787D01*
G37*
%LPD*%
%LPC*%
G36*
X2565425Y819784D02*
X2565425Y819784D01*
X2565425Y829184D01*
X2568426Y829184D01*
X2574824Y822785D01*
X2574824Y819784D01*
X2565425Y819784D01*
G37*
%LPD*%
%LPC*%
G36*
X2865881Y819403D02*
X2865881Y819403D01*
X2865881Y828803D01*
X2868882Y828803D01*
X2875281Y822404D01*
X2875281Y819403D01*
X2865881Y819403D01*
G37*
%LPD*%
%LPC*%
G36*
X1667255Y818641D02*
X1667255Y818641D01*
X1667255Y828041D01*
X1670256Y828041D01*
X1676655Y821642D01*
X1676655Y818641D01*
X1667255Y818641D01*
G37*
%LPD*%
%LPC*%
G36*
X2852927Y844549D02*
X2852927Y844549D01*
X2852927Y853949D01*
X2855928Y853949D01*
X2862327Y847550D01*
X2862327Y844549D01*
X2852927Y844549D01*
G37*
%LPD*%
%LPC*%
G36*
X1965146Y817752D02*
X1965146Y817752D01*
X1965146Y827152D01*
X1968148Y827152D01*
X1974546Y820753D01*
X1974546Y817752D01*
X1965146Y817752D01*
G37*
%LPD*%
%LPC*%
G36*
X2552166Y844422D02*
X2552166Y844422D01*
X2552166Y853822D01*
X2555167Y853822D01*
X2561565Y847423D01*
X2561565Y844422D01*
X2552166Y844422D01*
G37*
%LPD*%
%LPC*%
G36*
X2840481Y844549D02*
X2840481Y844549D01*
X2840481Y847550D01*
X2846880Y853949D01*
X2849881Y853949D01*
X2849881Y844549D01*
X2840481Y844549D01*
G37*
%LPD*%
%LPC*%
G36*
X2852927Y832103D02*
X2852927Y832103D01*
X2852927Y841503D01*
X2862327Y841503D01*
X2862327Y838502D01*
X2855928Y832103D01*
X2852927Y832103D01*
G37*
%LPD*%
%LPC*%
G36*
X2552166Y831976D02*
X2552166Y831976D01*
X2552166Y841376D01*
X2561565Y841376D01*
X2561565Y838375D01*
X2555167Y831976D01*
X2552166Y831976D01*
G37*
%LPD*%
%LPC*%
G36*
X1953056Y831519D02*
X1953056Y831519D01*
X1953056Y840919D01*
X1962456Y840919D01*
X1962456Y837917D01*
X1956057Y831519D01*
X1953056Y831519D01*
G37*
%LPD*%
%LPC*%
G36*
X1654301Y831341D02*
X1654301Y831341D01*
X1654301Y840741D01*
X1663701Y840741D01*
X1663701Y837740D01*
X1657302Y831341D01*
X1654301Y831341D01*
G37*
%LPD*%
%LPC*%
G36*
X1641855Y843787D02*
X1641855Y843787D01*
X1641855Y846788D01*
X1648254Y853187D01*
X1651255Y853187D01*
X1651255Y843787D01*
X1641855Y843787D01*
G37*
%LPD*%
%LPC*%
G36*
X2552979Y819784D02*
X2552979Y819784D01*
X2552979Y822785D01*
X2559377Y829184D01*
X2562378Y829184D01*
X2562378Y819784D01*
X2552979Y819784D01*
G37*
%LPD*%
%LPC*%
G36*
X2853435Y819403D02*
X2853435Y819403D01*
X2853435Y822404D01*
X2859834Y828803D01*
X2862835Y828803D01*
X2862835Y819403D01*
X2853435Y819403D01*
G37*
%LPD*%
%LPC*%
G36*
X1940610Y843965D02*
X1940610Y843965D01*
X1940610Y846966D01*
X1947008Y853365D01*
X1950010Y853365D01*
X1950010Y843965D01*
X1940610Y843965D01*
G37*
%LPD*%
%LPC*%
G36*
X1654809Y818641D02*
X1654809Y818641D01*
X1654809Y821642D01*
X1661208Y828041D01*
X1664209Y828041D01*
X1664209Y818641D01*
X1654809Y818641D01*
G37*
%LPD*%
%LPC*%
G36*
X1952700Y817752D02*
X1952700Y817752D01*
X1952700Y820753D01*
X1959099Y827152D01*
X1962100Y827152D01*
X1962100Y817752D01*
X1952700Y817752D01*
G37*
%LPD*%
%LPC*%
G36*
X2539720Y844422D02*
X2539720Y844422D01*
X2539720Y847423D01*
X2546118Y853822D01*
X2549119Y853822D01*
X2549119Y844422D01*
X2539720Y844422D01*
G37*
%LPD*%
%LPC*%
G36*
X2865881Y806957D02*
X2865881Y806957D01*
X2865881Y816357D01*
X2875281Y816357D01*
X2875281Y813356D01*
X2868882Y806957D01*
X2865881Y806957D01*
G37*
%LPD*%
%LPC*%
G36*
X2846880Y832103D02*
X2846880Y832103D01*
X2840481Y838502D01*
X2840481Y841503D01*
X2849881Y841503D01*
X2849881Y832103D01*
X2846880Y832103D01*
G37*
%LPD*%
%LPC*%
G36*
X2546118Y831976D02*
X2546118Y831976D01*
X2539720Y838375D01*
X2539720Y841376D01*
X2549119Y841376D01*
X2549119Y831976D01*
X2546118Y831976D01*
G37*
%LPD*%
%LPC*%
G36*
X1947008Y831519D02*
X1947008Y831519D01*
X1940610Y837917D01*
X1940610Y840919D01*
X1950010Y840919D01*
X1950010Y831519D01*
X1947008Y831519D01*
G37*
%LPD*%
%LPC*%
G36*
X1648254Y831341D02*
X1648254Y831341D01*
X1641855Y837740D01*
X1641855Y840741D01*
X1651255Y840741D01*
X1651255Y831341D01*
X1648254Y831341D01*
G37*
%LPD*%
%LPC*%
G36*
X2859834Y806957D02*
X2859834Y806957D01*
X2853435Y813356D01*
X2853435Y816357D01*
X2862835Y816357D01*
X2862835Y806957D01*
X2859834Y806957D01*
G37*
%LPD*%
%LPC*%
G36*
X1035049Y872743D02*
X1035049Y872743D01*
X1035049Y882397D01*
X1042023Y882397D01*
X1041825Y881403D01*
X1041226Y879957D01*
X1041200Y879844D01*
X1041171Y879730D01*
X1041172Y879724D01*
X1041170Y879718D01*
X1041181Y879600D01*
X1041190Y879485D01*
X1041193Y879479D01*
X1041193Y879473D01*
X1041241Y879365D01*
X1041287Y879259D01*
X1041291Y879253D01*
X1041293Y879248D01*
X1041306Y879234D01*
X1041391Y879128D01*
X1041649Y878870D01*
X1041984Y878291D01*
X1042157Y877644D01*
X1042157Y872743D01*
X1035049Y872743D01*
G37*
%LPD*%
%LPC*%
G36*
X1035049Y898143D02*
X1035049Y898143D01*
X1035049Y907797D01*
X1042023Y907797D01*
X1041825Y906803D01*
X1041174Y905232D01*
X1040230Y903818D01*
X1039920Y903508D01*
X1039908Y903492D01*
X1039893Y903480D01*
X1039837Y903392D01*
X1039776Y903309D01*
X1039771Y903290D01*
X1039760Y903273D01*
X1039735Y903172D01*
X1039704Y903073D01*
X1039705Y903053D01*
X1039700Y903034D01*
X1039708Y902931D01*
X1039710Y902828D01*
X1039717Y902809D01*
X1039719Y902789D01*
X1039759Y902694D01*
X1039795Y902597D01*
X1039807Y902581D01*
X1039815Y902563D01*
X1039920Y902432D01*
X1040230Y902122D01*
X1041174Y900708D01*
X1041825Y899137D01*
X1042023Y898143D01*
X1035049Y898143D01*
G37*
%LPD*%
%LPC*%
G36*
X1035049Y885443D02*
X1035049Y885443D01*
X1035049Y895097D01*
X1042023Y895097D01*
X1041825Y894103D01*
X1041174Y892532D01*
X1040230Y891118D01*
X1039920Y890808D01*
X1039908Y890792D01*
X1039893Y890780D01*
X1039837Y890692D01*
X1039776Y890609D01*
X1039771Y890590D01*
X1039760Y890573D01*
X1039735Y890472D01*
X1039704Y890373D01*
X1039705Y890353D01*
X1039700Y890334D01*
X1039708Y890231D01*
X1039710Y890128D01*
X1039717Y890109D01*
X1039719Y890089D01*
X1039759Y889994D01*
X1039795Y889897D01*
X1039807Y889881D01*
X1039815Y889863D01*
X1039920Y889732D01*
X1040230Y889422D01*
X1041174Y888008D01*
X1041825Y886437D01*
X1042023Y885443D01*
X1035049Y885443D01*
G37*
%LPD*%
%LPC*%
G36*
X1133855Y879601D02*
X1133855Y879601D01*
X1133855Y882287D01*
X1139807Y888239D01*
X1142493Y888239D01*
X1142493Y879601D01*
X1133855Y879601D01*
G37*
%LPD*%
%LPC*%
G36*
X1035049Y862589D02*
X1035049Y862589D01*
X1035049Y869697D01*
X1042157Y869697D01*
X1042157Y864796D01*
X1041984Y864149D01*
X1041649Y863570D01*
X1041176Y863097D01*
X1040597Y862762D01*
X1039950Y862589D01*
X1035049Y862589D01*
G37*
%LPD*%
%LPC*%
G36*
X1951532Y842441D02*
X1951532Y842441D01*
X1951532Y842443D01*
X1951534Y842443D01*
X1951534Y842441D01*
X1951532Y842441D01*
G37*
%LPD*%
%LPC*%
G36*
X1652777Y842263D02*
X1652777Y842263D01*
X1652777Y842265D01*
X1652779Y842265D01*
X1652779Y842263D01*
X1652777Y842263D01*
G37*
%LPD*%
%LPC*%
G36*
X2851403Y843025D02*
X2851403Y843025D01*
X2851403Y843027D01*
X2851405Y843027D01*
X2851405Y843025D01*
X2851403Y843025D01*
G37*
%LPD*%
%LPC*%
G36*
X2550642Y842898D02*
X2550642Y842898D01*
X2550642Y842900D01*
X2550643Y842900D01*
X2550643Y842898D01*
X2550642Y842898D01*
G37*
%LPD*%
%LPC*%
G36*
X2864357Y817879D02*
X2864357Y817879D01*
X2864357Y817881D01*
X2864359Y817881D01*
X2864359Y817879D01*
X2864357Y817879D01*
G37*
%LPD*%
D10*
X1640332Y920596D03*
D11*
X1640332Y869596D03*
D12*
X1627378Y842264D03*
X1652778Y842264D03*
D13*
X1665732Y817118D03*
X1614932Y817118D03*
X1301750Y847141D03*
X1250950Y847141D03*
X1301902Y868324D03*
X1251102Y868324D03*
X1302055Y888746D03*
X1251255Y888746D03*
D14*
X546100Y890016D03*
X546100Y877316D03*
X546100Y864616D03*
X546100Y851916D03*
X546100Y839216D03*
X546100Y826516D03*
X546100Y813816D03*
X546100Y801116D03*
X546100Y788416D03*
X546100Y775716D03*
X533400Y775716D03*
X533400Y788416D03*
X533400Y801116D03*
X533400Y813816D03*
X533400Y826516D03*
X533400Y839216D03*
X533400Y851916D03*
X533400Y864616D03*
X533400Y877316D03*
X533400Y890016D03*
D15*
X1033526Y871220D03*
D16*
X1020826Y871220D03*
X1033526Y883920D03*
X1020826Y883920D03*
X1033526Y896620D03*
X1020826Y896620D03*
X1033526Y909320D03*
X1020826Y909320D03*
X1033526Y922020D03*
X1020826Y922020D03*
X1033526Y934720D03*
X1020826Y934720D03*
X1033526Y947420D03*
X1020826Y947420D03*
X1033526Y960120D03*
X1020826Y960120D03*
D10*
X2537257Y919580D03*
D11*
X2537257Y868580D03*
D12*
X2525243Y842899D03*
X2550643Y842899D03*
D13*
X2563901Y818261D03*
X2513101Y818261D03*
D10*
X2839337Y919920D03*
D11*
X2839337Y868920D03*
D12*
X2826004Y843026D03*
X2851404Y843026D03*
D13*
X2864358Y817880D03*
X2813558Y817880D03*
D10*
X1939366Y919428D03*
D11*
X1939366Y868428D03*
D12*
X1926133Y842442D03*
X1951533Y842442D03*
D13*
X1963623Y816229D03*
X1912823Y816229D03*
D17*
X365760Y733298D02*
X365760Y720090D01*
X340360Y720090D02*
X340360Y733298D01*
X314960Y733298D02*
X314960Y720090D01*
X289560Y720090D02*
X289560Y733298D01*
X264160Y733298D02*
X264160Y720090D01*
X238760Y720090D02*
X238760Y733298D01*
X213360Y733298D02*
X213360Y720090D01*
X187960Y720090D02*
X187960Y733298D01*
X162560Y733298D02*
X162560Y720090D01*
X365760Y872490D02*
X365760Y885698D01*
X340360Y885698D02*
X340360Y872490D01*
X314960Y872490D02*
X314960Y885698D01*
X289560Y885698D02*
X289560Y872490D01*
X264160Y872490D02*
X264160Y885698D01*
X238760Y885698D02*
X238760Y872490D01*
X213360Y872490D02*
X213360Y885698D01*
X187960Y885698D02*
X187960Y872490D01*
X162560Y872490D02*
X162560Y885698D01*
X169164Y752094D02*
X155956Y752094D01*
X155956Y777494D02*
X169164Y777494D01*
X169164Y802894D02*
X155956Y802894D01*
X155956Y828294D02*
X169164Y828294D01*
X169164Y853694D02*
X155956Y853694D01*
D13*
X1399794Y885444D03*
X1348994Y885444D03*
X1300988Y795020D03*
X1250188Y795020D03*
X1300988Y816610D03*
X1250188Y816610D03*
X1400048Y822960D03*
X1349248Y822960D03*
X1399794Y843788D03*
X1348994Y843788D03*
X1399794Y864362D03*
X1348994Y864362D03*
D18*
X1144016Y878078D03*
X1144016Y903478D03*
X1144016Y928878D03*
X1144016Y954278D03*
X1144016Y979678D03*
X1118616Y878078D03*
X1118616Y903478D03*
X1118616Y928878D03*
X1118616Y954278D03*
X1118616Y979678D03*
D19*
X1939366Y868428D02*
X1939366Y860808D01*
X1926133Y847574D01*
X1926133Y842442D01*
X1926133Y834060D01*
X1912823Y820750D01*
X1912823Y816229D01*
X1689989Y816229D01*
X1674622Y800862D01*
X1545336Y800862D01*
X1418082Y928116D01*
X1230837Y928116D01*
X1142191Y839470D02*
X1013192Y839470D01*
X1001000Y851662D02*
X997966Y851662D01*
X1001000Y851662D02*
X1013192Y839470D01*
X997966Y851662D02*
X997966Y879602D01*
X1002284Y883920D01*
X1142191Y839470D02*
X1230837Y928116D01*
X1020826Y883920D02*
X1002284Y883920D01*
X314960Y879094D02*
X314960Y865124D01*
X524510Y902716D02*
X546100Y902716D01*
X546100Y890016D01*
D20*
X969264Y829310D03*
D19*
X945134Y853440D01*
X945134Y853694D01*
D20*
X945134Y853694D03*
D19*
X524510Y902716D02*
X436118Y814324D01*
X365760Y814324D01*
X314960Y865124D01*
X1640332Y869596D02*
X1640332Y860706D01*
X1627378Y847752D01*
X1627378Y842264D01*
X1627378Y836676D01*
X1614932Y824230D01*
X1614932Y817118D01*
X1020826Y870712D02*
X1020826Y871220D01*
X1020826Y870712D02*
X1020572Y870458D01*
X1020572Y851408D01*
X1137605Y851408D01*
X1225997Y939800D01*
X1545604Y817118D02*
X1614932Y817118D01*
X1422922Y939800D02*
X1225997Y939800D01*
X1422922Y939800D02*
X1545604Y817118D01*
X1033653Y883793D02*
X1033526Y883920D01*
X1033653Y883793D02*
X1033526Y883666D01*
X1033526Y871220D01*
X1033526Y896620D02*
X1033526Y909320D01*
X1033526Y896620D02*
X1033526Y883920D01*
D20*
X565404Y877570D03*
D19*
X1150112Y883666D02*
X1218184Y951738D01*
X1150112Y883666D02*
X1144524Y878078D01*
X1144016Y878078D01*
X2851404Y830834D02*
X2864358Y817880D01*
X2851404Y830834D02*
X2851404Y843026D01*
X2563901Y818261D02*
X2550643Y831520D01*
X2550643Y842899D01*
X1665732Y829310D02*
X1665732Y817118D01*
X1665732Y829310D02*
X1652778Y842264D01*
X2851404Y843026D02*
X2864866Y856488D01*
X1645666Y951738D02*
X1218184Y951738D01*
X1650492Y946912D02*
X1947672Y946912D01*
X1947926Y946658D02*
X2541524Y946658D01*
X2845562Y946658D01*
X2864866Y927354D01*
X2864866Y856488D01*
X2560828Y927354D02*
X2541524Y946658D01*
X2560828Y853084D02*
X2550643Y842899D01*
X2560828Y853084D02*
X2560828Y927354D01*
X1960880Y851789D02*
X1951533Y842442D01*
X1960880Y933704D02*
X1947926Y946658D01*
X1947672Y946912D01*
X1960880Y933704D02*
X1960880Y851789D01*
X1662938Y852424D02*
X1652778Y842264D01*
X1662938Y934466D02*
X1650492Y946912D01*
X1645666Y951738D01*
X1662938Y934466D02*
X1662938Y852424D01*
D20*
X2021586Y804418D03*
D19*
X1997075Y779907D01*
D20*
X645414Y760984D03*
X2241042Y811276D03*
D19*
X2209673Y779907D01*
X1997075Y779907D01*
D20*
X2209673Y779907D03*
D19*
X1963623Y816229D02*
X1951533Y828319D01*
X1951533Y842442D01*
X1978152Y760984D02*
X645414Y760984D01*
X1978152Y760984D02*
X1997075Y779907D01*
X1144016Y878078D02*
X1138809Y872871D01*
X1129030Y863092D01*
X1041654Y863092D02*
X1033526Y871220D01*
X1041654Y863092D02*
X1129030Y863092D01*
X1141984Y883666D02*
X1150112Y883666D01*
X1141984Y883666D02*
X1138682Y880364D01*
X1138682Y872998D01*
X1138809Y872871D01*
D21*
X1033774Y921772D02*
X1033526Y922020D01*
X1033774Y921772D02*
X1034771Y921772D01*
X1143863Y979678D02*
X1144016Y979678D01*
X1143863Y979678D02*
X1131163Y966978D01*
X1079977Y966978D01*
X1034771Y921772D01*
X1144016Y954278D02*
X1157478Y967740D01*
X1157478Y983742D02*
X1150112Y991108D01*
X1090391Y991108D01*
X1034003Y934720D02*
X1033526Y934720D01*
X1034003Y934720D02*
X1090391Y991108D01*
X1157478Y983742D02*
X1157478Y967740D01*
X1163574Y984366D02*
X1152260Y995680D01*
X1163574Y946303D02*
X1146149Y928878D01*
X1144016Y928878D01*
X1163574Y946303D02*
X1163574Y984366D01*
X1034257Y947420D02*
X1033526Y947420D01*
X1034257Y947420D02*
X1082517Y995680D01*
X1152260Y995680D01*
X1168908Y928370D02*
X1144016Y903478D01*
X1168908Y986768D02*
X1155424Y1000252D01*
X1073404Y1000252D02*
X1033526Y960374D01*
X1033526Y960120D01*
X1168908Y986768D02*
X1168908Y928370D01*
X1155424Y1000252D02*
X1073404Y1000252D01*
D19*
X518922Y851916D02*
X393700Y726694D01*
X365760Y726694D01*
X518922Y851916D02*
X533400Y851916D01*
X511048Y864616D02*
X395986Y749554D01*
X352806Y749554D01*
X340360Y737108D01*
X340360Y726694D01*
X511048Y864616D02*
X533400Y864616D01*
D21*
X615086Y807872D02*
X516636Y709422D01*
X318262Y709422D01*
X314960Y712724D02*
X314960Y726694D01*
X615086Y807872D02*
X1168552Y807872D01*
X318262Y709422D02*
X314960Y712724D01*
X1249426Y888746D02*
X1251255Y888746D01*
X1249426Y888746D02*
X1168552Y807872D01*
X1245768Y868324D02*
X1251102Y868324D01*
X1245768Y868324D02*
X1180084Y802640D01*
X518530Y704850D02*
X298704Y704850D01*
X289560Y713994D01*
X289560Y726694D01*
X616320Y802640D02*
X1180084Y802640D01*
X616320Y802640D02*
X518530Y704850D01*
X1245870Y847141D02*
X1250950Y847141D01*
X1245870Y847141D02*
X1196289Y797560D01*
X520170Y700024D02*
X273050Y700024D01*
X264160Y708914D02*
X264160Y726694D01*
X617706Y797560D02*
X1196289Y797560D01*
X617706Y797560D02*
X520170Y700024D01*
X273050Y700024D02*
X264160Y708914D01*
X1241298Y816610D02*
X1250188Y816610D01*
X1241298Y816610D02*
X1217168Y792480D01*
X522063Y695452D02*
X256032Y695452D01*
X238760Y712724D02*
X238760Y726694D01*
X619091Y792480D02*
X1217168Y792480D01*
X619091Y792480D02*
X522063Y695452D01*
X256032Y695452D02*
X238760Y712724D01*
X523957Y690880D02*
X620477Y787400D01*
X230124Y690880D02*
X213360Y707644D01*
X213360Y726694D01*
X1240028Y795020D02*
X1250188Y795020D01*
X1240028Y795020D02*
X1232408Y787400D01*
X620477Y787400D01*
X523957Y690880D02*
X230124Y690880D01*
X1308608Y782828D02*
X1318514Y792734D01*
X1308608Y782828D02*
X622371Y782828D01*
X1318514Y854964D02*
X1348994Y885444D01*
X1318514Y854964D02*
X1318514Y792734D01*
X622371Y782828D02*
X525851Y686308D01*
X187960Y706374D02*
X187960Y726694D01*
X208026Y686308D02*
X525851Y686308D01*
X208026Y686308D02*
X187960Y706374D01*
X1323086Y838454D02*
X1348994Y864362D01*
X1323086Y838454D02*
X1323086Y788554D01*
X1312788Y778256D01*
X624265Y778256D01*
X527745Y681736D01*
X191008Y681736D01*
X162560Y710184D02*
X162560Y726694D01*
X162560Y710184D02*
X191008Y681736D01*
X1335024Y829818D02*
X1348994Y843788D01*
X1335024Y829818D02*
X1335024Y792226D01*
X1316482Y773684D01*
X630428Y773684D01*
X609854Y753110D01*
D20*
X609854Y753110D03*
D21*
X1349248Y797213D02*
X1349248Y822960D01*
X1349248Y797213D02*
X1321147Y769112D01*
X636168Y769112D01*
X627560Y760504D01*
D20*
X627560Y760504D03*
D19*
X2537257Y859182D02*
X2537257Y868580D01*
X2537257Y859182D02*
X2525243Y847168D01*
X2525243Y842899D01*
X2525243Y834771D01*
X2513101Y822630D01*
X2513101Y818261D01*
X2490876Y840486D01*
X2010918Y840486D01*
X1970024Y799592D01*
X1689876Y799592D02*
X1679462Y789178D01*
X1689876Y799592D02*
X1970024Y799592D01*
X1679462Y789178D02*
X1540496Y789178D01*
X1413242Y916432D01*
X1235677Y916432D01*
X1005318Y827786D02*
X986282Y846822D01*
X1005318Y827786D02*
X1147031Y827786D01*
X1020826Y896620D02*
X998460Y896620D01*
X986282Y884442D01*
X986282Y846822D01*
X1147031Y827786D02*
X1235677Y916432D01*
X2839337Y868920D02*
X2839337Y860792D01*
X2826004Y847458D01*
X2826004Y843026D01*
X2826004Y834644D01*
X2813558Y822198D01*
X2813558Y817880D01*
X2796286Y800608D01*
X2505456Y800608D01*
X2480056Y826008D01*
X2016520Y826008D01*
X1694715Y787908D02*
X1684301Y777494D01*
X1978420Y787908D02*
X2016520Y826008D01*
X1978420Y787908D02*
X1694715Y787908D01*
X1684301Y777494D02*
X1535657Y777494D01*
X1408403Y904748D01*
X1240516Y904748D01*
X1151769Y816000D01*
X974598Y841983D02*
X974598Y889281D01*
X1000580Y816000D02*
X1151769Y816000D01*
X1000580Y816000D02*
X974598Y841983D01*
X974598Y889281D02*
X994637Y909320D01*
X1020826Y909320D01*
M02*
