G04 EAGLE Gerber RS-274X export*
G75*
%MOMM*%
%FSLAX34Y34*%
%LPD*%
%INTop Copper*%
%IPPOS*%
%AMOC8*
5,1,8,0,0,1.08239X$1,22.5*%
G01*
%ADD10R,1.508000X1.508000*%
%ADD11C,1.508000*%
%ADD12P,1.814519X8X22.500000*%
%ADD13P,1.814519X8X202.500000*%
%ADD14R,1.500000X1.500000*%
%ADD15C,1.158000*%
%ADD16R,1.218000X1.218000*%
%ADD17C,1.218000*%
%ADD18C,1.320800*%
%ADD19P,1.649562X8X112.500000*%
%ADD20C,1.016000*%
%ADD21C,0.756400*%
%ADD22C,0.304800*%


D10*
X1640332Y920596D03*
D11*
X1640332Y869596D03*
D12*
X1627378Y842264D03*
X1652778Y842264D03*
D13*
X1665732Y817118D03*
X1614932Y817118D03*
D14*
X2254732Y914908D03*
X2219732Y914908D03*
X2254732Y894588D03*
X2219732Y894588D03*
X2254732Y874268D03*
X2219732Y874268D03*
D13*
X1301750Y847141D03*
X1250950Y847141D03*
X1301902Y868324D03*
X1251102Y868324D03*
X1302055Y888746D03*
X1251255Y888746D03*
D15*
X546100Y890016D03*
X546100Y877316D03*
X546100Y864616D03*
X546100Y851916D03*
X546100Y839216D03*
X546100Y826516D03*
X546100Y813816D03*
X546100Y801116D03*
X546100Y788416D03*
X546100Y775716D03*
X533400Y775716D03*
X533400Y788416D03*
X533400Y801116D03*
X533400Y813816D03*
X533400Y826516D03*
X533400Y839216D03*
X533400Y851916D03*
X533400Y864616D03*
X533400Y877316D03*
X533400Y890016D03*
D16*
X1033526Y871220D03*
D17*
X1020826Y871220D03*
X1033526Y883920D03*
X1020826Y883920D03*
X1033526Y896620D03*
X1020826Y896620D03*
X1033526Y909320D03*
X1020826Y909320D03*
X1033526Y922020D03*
X1020826Y922020D03*
X1033526Y934720D03*
X1020826Y934720D03*
X1033526Y947420D03*
X1020826Y947420D03*
X1033526Y960120D03*
X1020826Y960120D03*
D10*
X2537257Y919580D03*
D11*
X2537257Y868580D03*
D12*
X2525243Y842899D03*
X2550643Y842899D03*
D13*
X2563901Y818261D03*
X2513101Y818261D03*
D10*
X2839337Y919920D03*
D11*
X2839337Y868920D03*
D12*
X2826004Y843026D03*
X2851404Y843026D03*
D13*
X2864358Y817880D03*
X2813558Y817880D03*
D10*
X1939366Y919428D03*
D11*
X1939366Y868428D03*
D12*
X1926133Y842442D03*
X1951533Y842442D03*
D13*
X1963623Y816229D03*
X1912823Y816229D03*
D18*
X365760Y733298D02*
X365760Y720090D01*
X340360Y720090D02*
X340360Y733298D01*
X314960Y733298D02*
X314960Y720090D01*
X289560Y720090D02*
X289560Y733298D01*
X264160Y733298D02*
X264160Y720090D01*
X238760Y720090D02*
X238760Y733298D01*
X213360Y733298D02*
X213360Y720090D01*
X187960Y720090D02*
X187960Y733298D01*
X162560Y733298D02*
X162560Y720090D01*
X365760Y872490D02*
X365760Y885698D01*
X340360Y885698D02*
X340360Y872490D01*
X314960Y872490D02*
X314960Y885698D01*
X289560Y885698D02*
X289560Y872490D01*
X264160Y872490D02*
X264160Y885698D01*
X238760Y885698D02*
X238760Y872490D01*
X213360Y872490D02*
X213360Y885698D01*
X187960Y885698D02*
X187960Y872490D01*
X162560Y872490D02*
X162560Y885698D01*
X169164Y752094D02*
X155956Y752094D01*
X155956Y777494D02*
X169164Y777494D01*
X169164Y802894D02*
X155956Y802894D01*
X155956Y828294D02*
X169164Y828294D01*
X169164Y853694D02*
X155956Y853694D01*
D14*
X2021306Y916432D03*
X1986306Y916432D03*
X2021306Y894842D03*
X1986306Y894842D03*
X2021306Y873252D03*
X1986306Y873252D03*
X2494000Y917702D03*
X2459000Y917702D03*
X2494000Y896112D03*
X2459000Y896112D03*
X2494000Y874522D03*
X2459000Y874522D03*
D13*
X1399794Y885444D03*
X1348994Y885444D03*
X1300988Y795020D03*
X1250188Y795020D03*
X1300988Y816610D03*
X1250188Y816610D03*
X1400048Y822960D03*
X1349248Y822960D03*
X1399794Y843788D03*
X1348994Y843788D03*
X1399794Y864362D03*
X1348994Y864362D03*
D19*
X1144016Y878078D03*
X1144016Y903478D03*
X1144016Y928878D03*
X1144016Y954278D03*
X1144016Y979678D03*
X1118616Y878078D03*
X1118616Y903478D03*
X1118616Y928878D03*
X1118616Y954278D03*
X1118616Y979678D03*
D20*
X546100Y890270D02*
X546100Y890016D01*
X908318Y890270D02*
X944894Y853694D01*
X908318Y890270D02*
X546100Y890270D01*
X944894Y853694D02*
X945134Y853694D01*
D21*
X969264Y829310D03*
D20*
X1118616Y865886D02*
X1118616Y878078D01*
X1118616Y865886D02*
X1081786Y829056D01*
D21*
X945134Y853694D03*
D20*
X969518Y829056D02*
X1081786Y829056D01*
X969518Y829056D02*
X969264Y829310D01*
X1118616Y862330D02*
X1118616Y878078D01*
X1118616Y862330D02*
X1119886Y861060D01*
X1152906Y861060D01*
X1237996Y946150D01*
X2813615Y945642D02*
X2839337Y919920D01*
X1614778Y946150D02*
X1237996Y946150D01*
X1614778Y946150D02*
X1912644Y946150D01*
X2510687Y946150D01*
X2511195Y945642D02*
X2813615Y945642D01*
X2537257Y919580D02*
X2511195Y945642D01*
X2510687Y946150D01*
X1939366Y919428D02*
X1912644Y946150D01*
X1640332Y920596D02*
X1614778Y946150D01*
D22*
X1301750Y847141D02*
X1293927Y847141D01*
X1279652Y832866D01*
X1279652Y773430D01*
X2206270Y874268D02*
X2219732Y874268D01*
X2206270Y874268D02*
X2137690Y805688D01*
X2115084Y805688D01*
X1321263Y779272D02*
X1315421Y773430D01*
X1279652Y773430D01*
X1321263Y779272D02*
X2088668Y779272D01*
X2115084Y805688D01*
X2135658Y810514D02*
X2219732Y894588D01*
X2135658Y810514D02*
X2113280Y810514D01*
X1288888Y834136D02*
X1284224Y829473D01*
X1309624Y834136D02*
X1315974Y840486D01*
X1309624Y834136D02*
X1288888Y834136D01*
X1284224Y829473D02*
X1284224Y778002D01*
X1315974Y840486D02*
X1315974Y854253D01*
X1301902Y868324D01*
X1312765Y778002D02*
X1284224Y778002D01*
X1312765Y778002D02*
X1318607Y783844D01*
X2086610Y783844D01*
X2113280Y810514D01*
X2208048Y889370D02*
X2208048Y903224D01*
X2219732Y914908D01*
X2112645Y816483D02*
X2084578Y788416D01*
X1288912Y782574D02*
X1288912Y827695D01*
X1290781Y829564D02*
X1311518Y829564D01*
X1320546Y838592D01*
X1320546Y870255D02*
X1302055Y888746D01*
X1290781Y829564D02*
X1288912Y827695D01*
X1320546Y838592D02*
X1320546Y870255D01*
X1310872Y782574D02*
X1288912Y782574D01*
X1310872Y782574D02*
X1316714Y788416D01*
X2084578Y788416D01*
X2112645Y816483D02*
X2135161Y816483D01*
X2208048Y889370D01*
D20*
X1033526Y871220D02*
X1033526Y861568D01*
X546406Y877010D02*
X546100Y877316D01*
X565404Y877570D02*
X565404Y877010D01*
X546406Y877010D01*
D21*
X565404Y877570D03*
D20*
X565912Y877062D02*
X905002Y877062D01*
X565912Y877062D02*
X565404Y877570D01*
X905002Y877062D02*
X940054Y842010D01*
X1013968Y842010D01*
X1033526Y861568D01*
X2021306Y894842D02*
X2021306Y916432D01*
X2021306Y894842D02*
X2021306Y873252D01*
X2021052Y872998D02*
X2021052Y804952D01*
X2021586Y804418D01*
X2021052Y872998D02*
X2021306Y873252D01*
D21*
X2021586Y804418D03*
X645414Y760984D03*
D20*
X605155Y801243D01*
X565404Y840994D01*
X565404Y877010D01*
X2254732Y894588D02*
X2254732Y914908D01*
X2254732Y894588D02*
X2254732Y874268D01*
X2254732Y824966D01*
X2241042Y811276D01*
D21*
X2241042Y811276D03*
D20*
X2494000Y896112D02*
X2494000Y917702D01*
X2494000Y896112D02*
X2494000Y874522D01*
X2494000Y866876D01*
X2407031Y779907D02*
X2209673Y779907D01*
D21*
X2209673Y779907D03*
D20*
X2407031Y779907D02*
X2494000Y866876D01*
X340360Y879094D02*
X340106Y878840D01*
X340106Y827532D01*
X409702Y757936D01*
X561848Y757936D01*
X605155Y801243D01*
D22*
X1335116Y816610D02*
X1354166Y797560D01*
X1335116Y816610D02*
X1300988Y816610D01*
X1986306Y916432D02*
X1994916Y916432D01*
X1982586Y797560D02*
X1354166Y797560D01*
X1998218Y813192D02*
X1998218Y913130D01*
X1994916Y916432D01*
X1998218Y813192D02*
X1982586Y797560D01*
X1303020Y792988D02*
X1300988Y795020D01*
X2005330Y813838D02*
X2005330Y921545D01*
X1997101Y929774D01*
X1979068Y929774D02*
X1973472Y924179D01*
X1973472Y897516D01*
X1976146Y894842D02*
X1986306Y894842D01*
X1976146Y894842D02*
X1973472Y897516D01*
X1979068Y929774D02*
X1997101Y929774D01*
X1984480Y792988D02*
X1303020Y792988D01*
X1984480Y792988D02*
X2005330Y813838D01*
X1399794Y864362D02*
X1387348Y876808D01*
X2459000Y917702D02*
X2474722Y917702D01*
X2482088Y910336D01*
X2482088Y868680D01*
X1387348Y879718D02*
X1353936Y913130D01*
X1291247Y913130D02*
X1265936Y887819D01*
X1265936Y759714D01*
X1387348Y876808D02*
X1387348Y879718D01*
X1353936Y913130D02*
X1291247Y913130D01*
X1329231Y765556D02*
X1323389Y759714D01*
X2095732Y765556D02*
X2120751Y790575D01*
X2403983Y790575D01*
X1323389Y759714D02*
X1265936Y759714D01*
X1329231Y765556D02*
X2095732Y765556D01*
X2403983Y790575D02*
X2482088Y868680D01*
X1399794Y843788D02*
X1382776Y860806D01*
X1382776Y877824D01*
X2459000Y896112D02*
X2471166Y883946D01*
X2471166Y864362D01*
X1270508Y885926D02*
X1270508Y764286D01*
X1270508Y885926D02*
X1293140Y908558D01*
X1352042Y908558D02*
X1382776Y877824D01*
X1352042Y908558D02*
X1293140Y908558D01*
X1327337Y770128D02*
X1321495Y764286D01*
X2118857Y795147D02*
X2401951Y795147D01*
X1321495Y764286D02*
X1270508Y764286D01*
X1327337Y770128D02*
X2093838Y770128D01*
X2118857Y795147D01*
X2401951Y795147D02*
X2471166Y864362D01*
X1118616Y903478D02*
X1078992Y903478D01*
X1062482Y919988D02*
X1062482Y976630D01*
X1062482Y919988D02*
X1078992Y903478D01*
X1062482Y976630D02*
X1027684Y976630D01*
X1020826Y969772D01*
X1020826Y960120D01*
X1082802Y928878D02*
X1118616Y928878D01*
X1067054Y944626D02*
X1067054Y979032D01*
X1064376Y981710D01*
X1020826Y947420D02*
X1009142Y947420D01*
X1067054Y944626D02*
X1082802Y928878D01*
X1064376Y981710D02*
X1012444Y981710D01*
X1009142Y978408D01*
X1009142Y947420D01*
X1079339Y979678D02*
X1118616Y979678D01*
X1079339Y979678D02*
X1068163Y990854D01*
X1004962Y990854D02*
X999744Y985636D01*
X1006094Y922020D02*
X1020826Y922020D01*
X1004962Y990854D02*
X1068163Y990854D01*
X999744Y985636D02*
X999744Y928370D01*
X1006094Y922020D01*
X1098274Y954278D02*
X1118616Y954278D01*
X1066270Y986282D02*
X1006856Y986282D01*
X1004570Y983996D01*
X1007364Y934720D02*
X1020826Y934720D01*
X1066270Y986282D02*
X1098274Y954278D01*
X1004570Y937514D02*
X1004570Y983996D01*
X1004570Y937514D02*
X1007364Y934720D01*
D21*
X609854Y753110D03*
D22*
X542798Y686054D01*
X196850Y686054D01*
X175260Y707644D02*
X175260Y744474D01*
X167640Y752094D01*
X162560Y752094D01*
X175260Y707644D02*
X196850Y686054D01*
D21*
X627560Y760504D03*
D22*
X603684Y760504D01*
X537616Y694436D01*
X214376Y694436D01*
X201676Y707136D01*
X175006Y777494D02*
X162560Y777494D01*
X175006Y777494D02*
X201676Y750824D01*
X201676Y707136D01*
X1403350Y885444D02*
X1486662Y802132D01*
X1403350Y885444D02*
X1399794Y885444D01*
X1986306Y873252D02*
X1986306Y807746D01*
X1980692Y802132D02*
X1486662Y802132D01*
X1980692Y802132D02*
X1986306Y807746D01*
X1400048Y822960D02*
X1378204Y844804D01*
X1378204Y875701D01*
X2459000Y874522D02*
X2459000Y859308D01*
X1275080Y884032D02*
X1275080Y768858D01*
X1275080Y884032D02*
X1295034Y903986D01*
X1349919Y903986D01*
X1378204Y875701D01*
X1324681Y774700D02*
X1318839Y768858D01*
X1275080Y768858D01*
X1324681Y774700D02*
X2091944Y774700D01*
X2399665Y799973D02*
X2459000Y859308D01*
X2117217Y799973D02*
X2091944Y774700D01*
X2117217Y799973D02*
X2399665Y799973D01*
M02*
