G04 EAGLE Gerber RS-274X export*
G75*
%MOMM*%
%FSLAX34Y34*%
%LPD*%
%INSoldermask Bottom*%
%IPPOS*%
%AMOC8*
5,1,8,0,0,1.08239X$1,22.5*%
G01*
%ADD10C,3.203200*%
%ADD11R,1.711200X1.711200*%
%ADD12C,1.711200*%
%ADD13P,2.034460X8X22.500000*%
%ADD14P,2.034460X8X202.500000*%
%ADD15C,1.361200*%
%ADD16R,1.421200X1.421200*%
%ADD17C,1.421200*%
%ADD18C,1.524000*%
%ADD19P,1.869504X8X112.500000*%
%ADD20C,3.803200*%
%ADD21C,0.959600*%


D10*
X2616708Y893826D03*
X2170430Y895858D03*
X1847596Y893572D03*
X3005582Y782828D03*
X3005074Y932180D03*
X2310130Y895350D03*
D11*
X1640332Y920596D03*
D12*
X1640332Y869596D03*
D13*
X1627378Y842264D03*
X1652778Y842264D03*
D14*
X1665732Y817118D03*
X1614932Y817118D03*
X1301750Y847141D03*
X1250950Y847141D03*
X1301902Y868324D03*
X1251102Y868324D03*
X1302055Y888746D03*
X1251255Y888746D03*
D15*
X546100Y890016D03*
X546100Y877316D03*
X546100Y864616D03*
X546100Y851916D03*
X546100Y839216D03*
X546100Y826516D03*
X546100Y813816D03*
X546100Y801116D03*
X546100Y788416D03*
X546100Y775716D03*
X533400Y775716D03*
X533400Y788416D03*
X533400Y801116D03*
X533400Y813816D03*
X533400Y826516D03*
X533400Y839216D03*
X533400Y851916D03*
X533400Y864616D03*
X533400Y877316D03*
X533400Y890016D03*
D16*
X1033526Y871220D03*
D17*
X1020826Y871220D03*
X1033526Y883920D03*
X1020826Y883920D03*
X1033526Y896620D03*
X1020826Y896620D03*
X1033526Y909320D03*
X1020826Y909320D03*
X1033526Y922020D03*
X1020826Y922020D03*
X1033526Y934720D03*
X1020826Y934720D03*
X1033526Y947420D03*
X1020826Y947420D03*
X1033526Y960120D03*
X1020826Y960120D03*
D11*
X2537257Y919580D03*
D12*
X2537257Y868580D03*
D13*
X2525243Y842899D03*
X2550643Y842899D03*
D14*
X2563901Y818261D03*
X2513101Y818261D03*
D11*
X2839337Y919920D03*
D12*
X2839337Y868920D03*
D13*
X2826004Y843026D03*
X2851404Y843026D03*
D14*
X2864358Y817880D03*
X2813558Y817880D03*
D11*
X1939366Y919428D03*
D12*
X1939366Y868428D03*
D13*
X1926133Y842442D03*
X1951533Y842442D03*
D14*
X1963623Y816229D03*
X1912823Y816229D03*
D18*
X365760Y733298D02*
X365760Y720090D01*
X340360Y720090D02*
X340360Y733298D01*
X314960Y733298D02*
X314960Y720090D01*
X289560Y720090D02*
X289560Y733298D01*
X264160Y733298D02*
X264160Y720090D01*
X238760Y720090D02*
X238760Y733298D01*
X213360Y733298D02*
X213360Y720090D01*
X187960Y720090D02*
X187960Y733298D01*
X162560Y733298D02*
X162560Y720090D01*
X365760Y872490D02*
X365760Y885698D01*
X340360Y885698D02*
X340360Y872490D01*
X314960Y872490D02*
X314960Y885698D01*
X289560Y885698D02*
X289560Y872490D01*
X264160Y872490D02*
X264160Y885698D01*
X238760Y885698D02*
X238760Y872490D01*
X213360Y872490D02*
X213360Y885698D01*
X187960Y885698D02*
X187960Y872490D01*
X162560Y872490D02*
X162560Y885698D01*
X169164Y752094D02*
X155956Y752094D01*
X155956Y777494D02*
X169164Y777494D01*
X169164Y802894D02*
X155956Y802894D01*
X155956Y828294D02*
X169164Y828294D01*
X169164Y853694D02*
X155956Y853694D01*
D14*
X1399794Y885444D03*
X1348994Y885444D03*
X1300988Y795020D03*
X1250188Y795020D03*
X1300988Y816610D03*
X1250188Y816610D03*
X1400048Y822960D03*
X1349248Y822960D03*
X1399794Y843788D03*
X1348994Y843788D03*
X1399794Y864362D03*
X1348994Y864362D03*
D19*
X1144016Y878078D03*
X1144016Y903478D03*
X1144016Y928878D03*
X1144016Y954278D03*
X1144016Y979678D03*
X1118616Y878078D03*
X1118616Y903478D03*
X1118616Y928878D03*
X1118616Y954278D03*
X1118616Y979678D03*
D20*
X1544574Y894588D03*
X1739646Y893572D03*
X2089150Y894080D03*
X2390394Y894842D03*
X2741676Y894334D03*
X2935224Y893064D03*
D21*
X969264Y829310D03*
X945134Y853694D03*
X565404Y877570D03*
X2021586Y804418D03*
X645414Y760984D03*
X2241042Y811276D03*
X2209673Y779907D03*
X609854Y753110D03*
X627560Y760504D03*
M02*
