M48
;GenerationSoftware,Autodesk,EAGLE,9.5.1*%
;CreationDate,2024-02-09T02:55:30Z*%
FMAT,2
ICI,OFF
METRIC,TZ,000.000
T8C0.350
T7C0.650
T6C0.710
T5C0.813
T4C1.000
T3C1.016
T2C3.000
T1C3.600
%
G90
M71
T1
X154457Y89459
X173965Y89357
X208915Y89408
X239039Y89484
X274168Y89433
X293522Y89306
T2
X217043Y89586
X261671Y89383
X184760Y89357
X300558Y78283
X300507Y93218
X231013Y89535
T3
X111862Y95428
X111862Y92888
X111862Y90348
X111862Y87808
X114402Y97968
X114402Y95428
X114402Y92888
X114402Y90348
X114402Y87808
X111862Y97968
T4
X283934Y86892
X283934Y91992
X253726Y86858
X253726Y91958
X193937Y86843
X164033Y92060
X164033Y86960
X193937Y91943
T5
X16256Y72669
X36576Y87909
X34036Y87909
X31496Y87909
X26416Y87909
X23876Y87909
X21336Y87909
X18796Y87909
X125125Y88875
X162738Y84226
X165278Y84226
X166573Y81712
X161493Y81712
X130175Y84714
X125095Y84714
X130190Y86832
X125110Y86832
X130205Y88875
X16256Y87909
X16256Y75209
X16256Y77749
X16256Y80289
X16256Y82829
X16256Y85369
X139979Y88544
X134899Y88544
X130099Y79502
X125019Y79502
X130099Y81661
X140005Y82296
X134925Y82296
X139979Y84379
X134899Y84379
X139979Y86436
X134899Y86436
X125019Y81661
X28956Y87909
X252524Y84290
X255064Y84290
X256390Y81826
X251310Y81826
X282600Y84303
X285140Y84303
X286436Y81788
X281356Y81788
X192613Y84244
X195153Y84244
X196362Y81623
X191282Y81623
X36576Y72669
X34036Y72669
X31496Y72669
X28956Y72669
X26416Y72669
X23876Y72669
X21336Y72669
X18796Y72669
T6
X103353Y94742
X103353Y90932
X103353Y96012
X102083Y92202
X103353Y93472
X103353Y88392
X102083Y90932
X103353Y92202
X102083Y94742
X102083Y93472
X102083Y89662
X103353Y89662
X102083Y88392
X102083Y87122
X103353Y87122
X102083Y96012
T7
X54610Y81382
X54610Y80112
X54610Y77572
X53340Y77572
X53340Y78842
X53340Y80112
X54610Y78842
X53340Y82652
X53340Y83922
X53340Y85192
X53340Y81382
X53340Y86462
X54610Y87732
X54610Y89002
X54610Y86462
X54610Y85192
X54610Y83922
X53340Y89002
X53340Y87732
X54610Y82652
T8
X96926Y82931
X62756Y76050
X220967Y77991
X94513Y85369
X60985Y75311
X224104Y81128
X64541Y76098
X202159Y80442
X56540Y87757
M30