G04 EAGLE Gerber RS-274X export*
G75*
%MOMM*%
%FSLAX34Y34*%
%LPD*%
%INSilkscreen Top*%
%IPPOS*%
%AMOC8*
5,1,8,0,0,1.08239X$1,22.5*%
G01*
%ADD10C,0.127000*%
%ADD11C,0.200000*%
%ADD12C,0.076200*%
%ADD13C,0.152400*%
%ADD14C,0.254000*%
%ADD15C,0.101600*%
%ADD16C,0.015238*%


D10*
X129910Y127061D02*
X176410Y127061D01*
X176410Y137861D01*
X176410Y170061D02*
X129910Y170061D01*
X129910Y137861D02*
X129910Y127061D01*
X176410Y159261D02*
X176410Y170061D01*
X129910Y170061D02*
X129910Y159261D01*
D11*
X192160Y148561D02*
X192162Y148624D01*
X192168Y148686D01*
X192178Y148748D01*
X192191Y148810D01*
X192209Y148870D01*
X192230Y148929D01*
X192255Y148987D01*
X192284Y149043D01*
X192316Y149097D01*
X192351Y149149D01*
X192389Y149198D01*
X192431Y149246D01*
X192475Y149290D01*
X192523Y149332D01*
X192572Y149370D01*
X192624Y149405D01*
X192678Y149437D01*
X192734Y149466D01*
X192792Y149491D01*
X192851Y149512D01*
X192911Y149530D01*
X192973Y149543D01*
X193035Y149553D01*
X193097Y149559D01*
X193160Y149561D01*
X193223Y149559D01*
X193285Y149553D01*
X193347Y149543D01*
X193409Y149530D01*
X193469Y149512D01*
X193528Y149491D01*
X193586Y149466D01*
X193642Y149437D01*
X193696Y149405D01*
X193748Y149370D01*
X193797Y149332D01*
X193845Y149290D01*
X193889Y149246D01*
X193931Y149198D01*
X193969Y149149D01*
X194004Y149097D01*
X194036Y149043D01*
X194065Y148987D01*
X194090Y148929D01*
X194111Y148870D01*
X194129Y148810D01*
X194142Y148748D01*
X194152Y148686D01*
X194158Y148624D01*
X194160Y148561D01*
X194158Y148498D01*
X194152Y148436D01*
X194142Y148374D01*
X194129Y148312D01*
X194111Y148252D01*
X194090Y148193D01*
X194065Y148135D01*
X194036Y148079D01*
X194004Y148025D01*
X193969Y147973D01*
X193931Y147924D01*
X193889Y147876D01*
X193845Y147832D01*
X193797Y147790D01*
X193748Y147752D01*
X193696Y147717D01*
X193642Y147685D01*
X193586Y147656D01*
X193528Y147631D01*
X193469Y147610D01*
X193409Y147592D01*
X193347Y147579D01*
X193285Y147569D01*
X193223Y147563D01*
X193160Y147561D01*
X193097Y147563D01*
X193035Y147569D01*
X192973Y147579D01*
X192911Y147592D01*
X192851Y147610D01*
X192792Y147631D01*
X192734Y147656D01*
X192678Y147685D01*
X192624Y147717D01*
X192572Y147752D01*
X192523Y147790D01*
X192475Y147832D01*
X192431Y147876D01*
X192389Y147924D01*
X192351Y147973D01*
X192316Y148025D01*
X192284Y148079D01*
X192255Y148135D01*
X192230Y148193D01*
X192209Y148252D01*
X192191Y148312D01*
X192178Y148374D01*
X192168Y148436D01*
X192162Y148498D01*
X192160Y148561D01*
D12*
X147635Y140191D02*
X147635Y132825D01*
X147635Y140191D02*
X149681Y140191D01*
X149770Y140189D01*
X149859Y140183D01*
X149948Y140173D01*
X150036Y140160D01*
X150124Y140143D01*
X150211Y140121D01*
X150296Y140096D01*
X150381Y140068D01*
X150464Y140035D01*
X150546Y139999D01*
X150626Y139960D01*
X150704Y139917D01*
X150780Y139871D01*
X150855Y139821D01*
X150927Y139768D01*
X150996Y139712D01*
X151063Y139653D01*
X151128Y139592D01*
X151189Y139527D01*
X151248Y139460D01*
X151304Y139391D01*
X151357Y139319D01*
X151407Y139244D01*
X151453Y139168D01*
X151496Y139090D01*
X151535Y139010D01*
X151571Y138928D01*
X151604Y138845D01*
X151632Y138760D01*
X151657Y138675D01*
X151679Y138588D01*
X151696Y138500D01*
X151709Y138412D01*
X151719Y138323D01*
X151725Y138234D01*
X151727Y138145D01*
X151727Y134872D01*
X151725Y134783D01*
X151719Y134694D01*
X151709Y134605D01*
X151696Y134517D01*
X151679Y134429D01*
X151657Y134342D01*
X151632Y134257D01*
X151604Y134172D01*
X151571Y134089D01*
X151535Y134007D01*
X151496Y133927D01*
X151453Y133849D01*
X151407Y133773D01*
X151357Y133698D01*
X151304Y133626D01*
X151248Y133557D01*
X151189Y133490D01*
X151128Y133425D01*
X151063Y133364D01*
X150996Y133305D01*
X150927Y133249D01*
X150855Y133196D01*
X150780Y133146D01*
X150704Y133100D01*
X150626Y133057D01*
X150546Y133018D01*
X150464Y132982D01*
X150381Y132949D01*
X150296Y132921D01*
X150211Y132896D01*
X150124Y132874D01*
X150036Y132857D01*
X149948Y132844D01*
X149859Y132834D01*
X149770Y132828D01*
X149681Y132826D01*
X149681Y132825D02*
X147635Y132825D01*
X155194Y138555D02*
X157240Y140191D01*
X157240Y132825D01*
X155194Y132825D02*
X159286Y132825D01*
D13*
X208483Y144526D02*
X208483Y101346D01*
X233883Y101346D02*
X233883Y144526D01*
X231343Y147066D02*
X211023Y147066D01*
X211023Y98806D02*
X231343Y98806D01*
X208483Y144526D02*
X208485Y144626D01*
X208491Y144725D01*
X208501Y144825D01*
X208514Y144923D01*
X208532Y145022D01*
X208553Y145119D01*
X208578Y145215D01*
X208607Y145311D01*
X208640Y145405D01*
X208676Y145498D01*
X208716Y145589D01*
X208760Y145679D01*
X208807Y145767D01*
X208857Y145853D01*
X208911Y145937D01*
X208968Y146019D01*
X209028Y146098D01*
X209092Y146176D01*
X209158Y146250D01*
X209227Y146322D01*
X209299Y146391D01*
X209373Y146457D01*
X209451Y146521D01*
X209530Y146581D01*
X209612Y146638D01*
X209696Y146692D01*
X209782Y146742D01*
X209870Y146789D01*
X209960Y146833D01*
X210051Y146873D01*
X210144Y146909D01*
X210238Y146942D01*
X210334Y146971D01*
X210430Y146996D01*
X210527Y147017D01*
X210626Y147035D01*
X210724Y147048D01*
X210824Y147058D01*
X210923Y147064D01*
X211023Y147066D01*
X208483Y101346D02*
X208485Y101246D01*
X208491Y101147D01*
X208501Y101047D01*
X208514Y100949D01*
X208532Y100850D01*
X208553Y100753D01*
X208578Y100657D01*
X208607Y100561D01*
X208640Y100467D01*
X208676Y100374D01*
X208716Y100283D01*
X208760Y100193D01*
X208807Y100105D01*
X208857Y100019D01*
X208911Y99935D01*
X208968Y99853D01*
X209028Y99774D01*
X209092Y99696D01*
X209158Y99622D01*
X209227Y99550D01*
X209299Y99481D01*
X209373Y99415D01*
X209451Y99351D01*
X209530Y99291D01*
X209612Y99234D01*
X209696Y99180D01*
X209782Y99130D01*
X209870Y99083D01*
X209960Y99039D01*
X210051Y98999D01*
X210144Y98963D01*
X210238Y98930D01*
X210334Y98901D01*
X210430Y98876D01*
X210527Y98855D01*
X210626Y98837D01*
X210724Y98824D01*
X210824Y98814D01*
X210923Y98808D01*
X211023Y98806D01*
X233883Y144526D02*
X233881Y144626D01*
X233875Y144725D01*
X233865Y144825D01*
X233852Y144923D01*
X233834Y145022D01*
X233813Y145119D01*
X233788Y145215D01*
X233759Y145311D01*
X233726Y145405D01*
X233690Y145498D01*
X233650Y145589D01*
X233606Y145679D01*
X233559Y145767D01*
X233509Y145853D01*
X233455Y145937D01*
X233398Y146019D01*
X233338Y146098D01*
X233274Y146176D01*
X233208Y146250D01*
X233139Y146322D01*
X233067Y146391D01*
X232993Y146457D01*
X232915Y146521D01*
X232836Y146581D01*
X232754Y146638D01*
X232670Y146692D01*
X232584Y146742D01*
X232496Y146789D01*
X232406Y146833D01*
X232315Y146873D01*
X232222Y146909D01*
X232128Y146942D01*
X232032Y146971D01*
X231936Y146996D01*
X231839Y147017D01*
X231740Y147035D01*
X231642Y147048D01*
X231542Y147058D01*
X231443Y147064D01*
X231343Y147066D01*
X233883Y101346D02*
X233881Y101246D01*
X233875Y101147D01*
X233865Y101047D01*
X233852Y100949D01*
X233834Y100850D01*
X233813Y100753D01*
X233788Y100657D01*
X233759Y100561D01*
X233726Y100467D01*
X233690Y100374D01*
X233650Y100283D01*
X233606Y100193D01*
X233559Y100105D01*
X233509Y100019D01*
X233455Y99935D01*
X233398Y99853D01*
X233338Y99774D01*
X233274Y99696D01*
X233208Y99622D01*
X233139Y99550D01*
X233067Y99481D01*
X232993Y99415D01*
X232915Y99351D01*
X232836Y99291D01*
X232754Y99234D01*
X232670Y99180D01*
X232584Y99130D01*
X232496Y99083D01*
X232406Y99039D01*
X232315Y98999D01*
X232222Y98963D01*
X232128Y98930D01*
X232032Y98901D01*
X231936Y98876D01*
X231839Y98855D01*
X231740Y98837D01*
X231642Y98824D01*
X231542Y98814D01*
X231443Y98808D01*
X231343Y98806D01*
X221183Y125476D02*
X221183Y126746D01*
D14*
X221183Y125476D02*
X213563Y125476D01*
X221183Y125476D02*
X228803Y125476D01*
X221183Y120396D02*
X213563Y120396D01*
X221183Y120396D02*
X228803Y120396D01*
D13*
X221183Y120396D02*
X221183Y119126D01*
D15*
X221652Y151206D02*
X219676Y151206D01*
X219590Y151208D01*
X219504Y151214D01*
X219418Y151223D01*
X219333Y151236D01*
X219248Y151253D01*
X219165Y151273D01*
X219082Y151297D01*
X219000Y151325D01*
X218920Y151356D01*
X218841Y151391D01*
X218764Y151429D01*
X218688Y151471D01*
X218614Y151515D01*
X218543Y151563D01*
X218473Y151614D01*
X218406Y151668D01*
X218341Y151725D01*
X218279Y151785D01*
X218219Y151847D01*
X218162Y151912D01*
X218108Y151979D01*
X218057Y152049D01*
X218009Y152120D01*
X217965Y152194D01*
X217923Y152270D01*
X217885Y152347D01*
X217850Y152426D01*
X217819Y152506D01*
X217791Y152588D01*
X217767Y152671D01*
X217747Y152754D01*
X217730Y152839D01*
X217717Y152924D01*
X217708Y153010D01*
X217702Y153096D01*
X217700Y153182D01*
X217701Y153182D02*
X217701Y158121D01*
X217700Y158121D02*
X217702Y158210D01*
X217708Y158298D01*
X217718Y158386D01*
X217732Y158474D01*
X217750Y158561D01*
X217771Y158647D01*
X217797Y158732D01*
X217826Y158815D01*
X217859Y158898D01*
X217896Y158978D01*
X217936Y159057D01*
X217980Y159134D01*
X218027Y159210D01*
X218077Y159282D01*
X218131Y159353D01*
X218188Y159421D01*
X218248Y159487D01*
X218310Y159549D01*
X218376Y159609D01*
X218444Y159666D01*
X218515Y159720D01*
X218587Y159770D01*
X218662Y159817D01*
X218740Y159861D01*
X218819Y159901D01*
X218899Y159938D01*
X218982Y159971D01*
X219065Y160000D01*
X219150Y160026D01*
X219236Y160047D01*
X219323Y160065D01*
X219411Y160079D01*
X219499Y160089D01*
X219587Y160095D01*
X219676Y160097D01*
X219676Y160096D02*
X221652Y160096D01*
X225160Y158121D02*
X227629Y160096D01*
X227629Y151206D01*
X225160Y151206D02*
X230099Y151206D01*
D16*
X209422Y134416D02*
X208049Y134416D01*
X208049Y134417D02*
X208044Y134500D01*
X208035Y134584D01*
X208022Y134666D01*
X208006Y134748D01*
X207986Y134829D01*
X207962Y134910D01*
X207934Y134989D01*
X207903Y135066D01*
X207869Y135142D01*
X207831Y135217D01*
X207790Y135290D01*
X207745Y135361D01*
X207698Y135430D01*
X207647Y135496D01*
X207594Y135560D01*
X207537Y135622D01*
X207478Y135681D01*
X207416Y135738D01*
X207352Y135791D01*
X207286Y135842D01*
X207217Y135889D01*
X207146Y135934D01*
X207073Y135975D01*
X206998Y136013D01*
X206922Y136047D01*
X206845Y136078D01*
X206766Y136106D01*
X206685Y136130D01*
X206604Y136150D01*
X206522Y136166D01*
X206440Y136179D01*
X206356Y136188D01*
X206273Y136193D01*
X206272Y137566D01*
X206273Y137566D01*
X206385Y137562D01*
X206496Y137553D01*
X206607Y137541D01*
X206718Y137525D01*
X206827Y137505D01*
X206937Y137481D01*
X207045Y137454D01*
X207152Y137422D01*
X207258Y137387D01*
X207363Y137349D01*
X207467Y137307D01*
X207568Y137261D01*
X207669Y137212D01*
X207767Y137159D01*
X207864Y137103D01*
X207959Y137044D01*
X208051Y136981D01*
X208141Y136915D01*
X208229Y136846D01*
X208315Y136775D01*
X208398Y136700D01*
X208478Y136622D01*
X208556Y136542D01*
X208631Y136459D01*
X208702Y136373D01*
X208771Y136285D01*
X208837Y136195D01*
X208900Y136103D01*
X208959Y136008D01*
X209015Y135911D01*
X209068Y135813D01*
X209117Y135712D01*
X209163Y135611D01*
X209205Y135507D01*
X209243Y135402D01*
X209278Y135296D01*
X209310Y135189D01*
X209337Y135081D01*
X209361Y134971D01*
X209381Y134862D01*
X209397Y134751D01*
X209409Y134640D01*
X209418Y134529D01*
X209422Y134417D01*
X209279Y134417D01*
X209274Y134526D01*
X209266Y134635D01*
X209254Y134743D01*
X209238Y134851D01*
X209218Y134958D01*
X209194Y135065D01*
X209166Y135170D01*
X209135Y135275D01*
X209100Y135378D01*
X209062Y135480D01*
X209020Y135581D01*
X208974Y135680D01*
X208925Y135777D01*
X208872Y135873D01*
X208817Y135967D01*
X208757Y136058D01*
X208695Y136148D01*
X208630Y136235D01*
X208561Y136320D01*
X208490Y136402D01*
X208415Y136482D01*
X208338Y136559D01*
X208258Y136634D01*
X208176Y136705D01*
X208091Y136774D01*
X208004Y136839D01*
X207914Y136901D01*
X207823Y136961D01*
X207729Y137016D01*
X207633Y137069D01*
X207536Y137118D01*
X207437Y137164D01*
X207336Y137206D01*
X207234Y137244D01*
X207131Y137279D01*
X207026Y137310D01*
X206921Y137338D01*
X206814Y137362D01*
X206707Y137382D01*
X206599Y137398D01*
X206491Y137410D01*
X206382Y137418D01*
X206273Y137423D01*
X206273Y137280D01*
X206379Y137275D01*
X206485Y137267D01*
X206591Y137255D01*
X206696Y137238D01*
X206800Y137218D01*
X206904Y137195D01*
X207007Y137167D01*
X207108Y137136D01*
X207209Y137101D01*
X207308Y137063D01*
X207406Y137021D01*
X207502Y136976D01*
X207596Y136927D01*
X207689Y136874D01*
X207780Y136819D01*
X207868Y136760D01*
X207954Y136698D01*
X208039Y136633D01*
X208120Y136565D01*
X208199Y136494D01*
X208276Y136420D01*
X208350Y136343D01*
X208421Y136264D01*
X208489Y136183D01*
X208554Y136098D01*
X208616Y136012D01*
X208675Y135924D01*
X208730Y135833D01*
X208783Y135740D01*
X208832Y135646D01*
X208877Y135550D01*
X208919Y135452D01*
X208957Y135353D01*
X208992Y135252D01*
X209023Y135151D01*
X209051Y135048D01*
X209074Y134944D01*
X209094Y134840D01*
X209111Y134735D01*
X209123Y134629D01*
X209131Y134523D01*
X209136Y134417D01*
X208993Y134417D01*
X208988Y134520D01*
X208980Y134623D01*
X208967Y134726D01*
X208951Y134828D01*
X208931Y134930D01*
X208908Y135031D01*
X208880Y135130D01*
X208849Y135229D01*
X208815Y135326D01*
X208776Y135423D01*
X208735Y135517D01*
X208689Y135610D01*
X208641Y135702D01*
X208589Y135791D01*
X208534Y135878D01*
X208475Y135964D01*
X208414Y136047D01*
X208349Y136128D01*
X208281Y136206D01*
X208211Y136282D01*
X208138Y136355D01*
X208062Y136425D01*
X207984Y136493D01*
X207903Y136558D01*
X207820Y136619D01*
X207734Y136678D01*
X207647Y136733D01*
X207558Y136785D01*
X207466Y136833D01*
X207373Y136879D01*
X207279Y136920D01*
X207182Y136959D01*
X207085Y136993D01*
X206986Y137024D01*
X206887Y137052D01*
X206786Y137075D01*
X206684Y137095D01*
X206582Y137111D01*
X206479Y137124D01*
X206376Y137132D01*
X206273Y137137D01*
X206273Y136994D01*
X206373Y136989D01*
X206473Y136981D01*
X206573Y136968D01*
X206672Y136952D01*
X206771Y136932D01*
X206868Y136909D01*
X206965Y136882D01*
X207060Y136851D01*
X207155Y136816D01*
X207248Y136778D01*
X207339Y136737D01*
X207429Y136692D01*
X207517Y136643D01*
X207603Y136592D01*
X207687Y136537D01*
X207769Y136479D01*
X207849Y136418D01*
X207926Y136354D01*
X208001Y136287D01*
X208074Y136218D01*
X208143Y136145D01*
X208210Y136070D01*
X208274Y135993D01*
X208335Y135913D01*
X208393Y135831D01*
X208448Y135747D01*
X208499Y135661D01*
X208548Y135573D01*
X208593Y135483D01*
X208634Y135392D01*
X208672Y135299D01*
X208707Y135204D01*
X208738Y135109D01*
X208765Y135012D01*
X208788Y134915D01*
X208808Y134816D01*
X208824Y134717D01*
X208837Y134617D01*
X208845Y134517D01*
X208850Y134417D01*
X208707Y134417D01*
X208702Y134517D01*
X208693Y134616D01*
X208680Y134715D01*
X208663Y134813D01*
X208642Y134911D01*
X208618Y135008D01*
X208589Y135103D01*
X208557Y135198D01*
X208521Y135291D01*
X208482Y135383D01*
X208439Y135472D01*
X208392Y135561D01*
X208342Y135647D01*
X208288Y135731D01*
X208231Y135813D01*
X208171Y135893D01*
X208108Y135970D01*
X208042Y136045D01*
X207973Y136117D01*
X207901Y136186D01*
X207826Y136252D01*
X207749Y136315D01*
X207669Y136375D01*
X207587Y136432D01*
X207503Y136486D01*
X207417Y136536D01*
X207328Y136583D01*
X207239Y136626D01*
X207147Y136665D01*
X207054Y136701D01*
X206959Y136733D01*
X206864Y136762D01*
X206767Y136786D01*
X206669Y136807D01*
X206571Y136824D01*
X206472Y136837D01*
X206373Y136846D01*
X206273Y136851D01*
X206273Y136708D01*
X206369Y136703D01*
X206465Y136694D01*
X206561Y136681D01*
X206656Y136664D01*
X206750Y136644D01*
X206843Y136619D01*
X206935Y136591D01*
X207026Y136559D01*
X207116Y136523D01*
X207204Y136484D01*
X207291Y136441D01*
X207375Y136395D01*
X207458Y136345D01*
X207538Y136292D01*
X207617Y136236D01*
X207693Y136177D01*
X207766Y136115D01*
X207837Y136049D01*
X207905Y135981D01*
X207971Y135910D01*
X208033Y135837D01*
X208092Y135761D01*
X208148Y135682D01*
X208201Y135602D01*
X208251Y135519D01*
X208297Y135435D01*
X208340Y135348D01*
X208379Y135260D01*
X208415Y135170D01*
X208447Y135079D01*
X208475Y134987D01*
X208500Y134894D01*
X208520Y134800D01*
X208537Y134705D01*
X208550Y134609D01*
X208559Y134513D01*
X208564Y134417D01*
X208421Y134417D01*
X208416Y134510D01*
X208407Y134602D01*
X208394Y134694D01*
X208377Y134785D01*
X208357Y134876D01*
X208333Y134966D01*
X208305Y135054D01*
X208273Y135142D01*
X208238Y135227D01*
X208199Y135312D01*
X208157Y135395D01*
X208111Y135475D01*
X208062Y135554D01*
X208010Y135631D01*
X207954Y135706D01*
X207896Y135778D01*
X207835Y135847D01*
X207770Y135914D01*
X207703Y135979D01*
X207634Y136040D01*
X207562Y136098D01*
X207487Y136154D01*
X207410Y136206D01*
X207331Y136255D01*
X207251Y136301D01*
X207168Y136343D01*
X207083Y136382D01*
X206998Y136417D01*
X206910Y136449D01*
X206822Y136477D01*
X206732Y136501D01*
X206641Y136521D01*
X206550Y136538D01*
X206458Y136551D01*
X206366Y136560D01*
X206273Y136565D01*
X206273Y136422D01*
X206362Y136416D01*
X206451Y136408D01*
X206539Y136395D01*
X206626Y136378D01*
X206713Y136358D01*
X206799Y136334D01*
X206884Y136307D01*
X206967Y136275D01*
X207049Y136241D01*
X207130Y136202D01*
X207208Y136161D01*
X207285Y136116D01*
X207360Y136068D01*
X207433Y136016D01*
X207504Y135962D01*
X207572Y135905D01*
X207637Y135844D01*
X207700Y135781D01*
X207761Y135716D01*
X207818Y135648D01*
X207872Y135577D01*
X207924Y135504D01*
X207972Y135429D01*
X208017Y135352D01*
X208058Y135274D01*
X208097Y135193D01*
X208131Y135111D01*
X208163Y135028D01*
X208190Y134943D01*
X208214Y134857D01*
X208234Y134770D01*
X208251Y134683D01*
X208264Y134595D01*
X208272Y134506D01*
X208278Y134417D01*
X208135Y134417D01*
X208129Y134502D01*
X208120Y134587D01*
X208108Y134671D01*
X208091Y134754D01*
X208071Y134837D01*
X208048Y134919D01*
X208021Y134999D01*
X207990Y135079D01*
X207956Y135157D01*
X207919Y135233D01*
X207878Y135308D01*
X207834Y135381D01*
X207786Y135452D01*
X207736Y135520D01*
X207683Y135587D01*
X207627Y135651D01*
X207568Y135712D01*
X207507Y135771D01*
X207443Y135827D01*
X207376Y135880D01*
X207308Y135930D01*
X207237Y135978D01*
X207164Y136022D01*
X207089Y136063D01*
X207013Y136100D01*
X206935Y136134D01*
X206855Y136165D01*
X206775Y136192D01*
X206693Y136215D01*
X206610Y136235D01*
X206527Y136252D01*
X206443Y136264D01*
X206358Y136273D01*
X206273Y136279D01*
X193422Y137566D02*
X193422Y136193D01*
X193421Y136193D02*
X193338Y136188D01*
X193254Y136179D01*
X193172Y136166D01*
X193090Y136150D01*
X193009Y136130D01*
X192928Y136106D01*
X192849Y136078D01*
X192772Y136047D01*
X192696Y136013D01*
X192621Y135975D01*
X192548Y135934D01*
X192477Y135889D01*
X192408Y135842D01*
X192342Y135791D01*
X192278Y135738D01*
X192216Y135681D01*
X192157Y135622D01*
X192100Y135560D01*
X192047Y135496D01*
X191996Y135430D01*
X191949Y135361D01*
X191904Y135290D01*
X191863Y135217D01*
X191825Y135142D01*
X191791Y135066D01*
X191760Y134989D01*
X191732Y134910D01*
X191708Y134829D01*
X191688Y134748D01*
X191672Y134666D01*
X191659Y134584D01*
X191650Y134500D01*
X191645Y134417D01*
X190272Y134416D01*
X190272Y134417D01*
X190276Y134529D01*
X190285Y134640D01*
X190297Y134751D01*
X190313Y134862D01*
X190333Y134971D01*
X190357Y135081D01*
X190384Y135189D01*
X190416Y135296D01*
X190451Y135402D01*
X190489Y135507D01*
X190531Y135611D01*
X190577Y135712D01*
X190626Y135813D01*
X190679Y135911D01*
X190735Y136008D01*
X190794Y136103D01*
X190857Y136195D01*
X190923Y136285D01*
X190992Y136373D01*
X191063Y136459D01*
X191138Y136542D01*
X191216Y136622D01*
X191296Y136700D01*
X191379Y136775D01*
X191465Y136846D01*
X191553Y136915D01*
X191643Y136981D01*
X191735Y137044D01*
X191830Y137103D01*
X191927Y137159D01*
X192025Y137212D01*
X192126Y137261D01*
X192227Y137307D01*
X192331Y137349D01*
X192436Y137387D01*
X192542Y137422D01*
X192649Y137454D01*
X192757Y137481D01*
X192867Y137505D01*
X192976Y137525D01*
X193087Y137541D01*
X193198Y137553D01*
X193309Y137562D01*
X193421Y137566D01*
X193421Y137423D01*
X193312Y137418D01*
X193203Y137410D01*
X193095Y137398D01*
X192987Y137382D01*
X192880Y137362D01*
X192773Y137338D01*
X192668Y137310D01*
X192563Y137279D01*
X192460Y137244D01*
X192358Y137206D01*
X192257Y137164D01*
X192158Y137118D01*
X192061Y137069D01*
X191965Y137016D01*
X191871Y136961D01*
X191780Y136901D01*
X191690Y136839D01*
X191603Y136774D01*
X191518Y136705D01*
X191436Y136634D01*
X191356Y136559D01*
X191279Y136482D01*
X191204Y136402D01*
X191133Y136320D01*
X191064Y136235D01*
X190999Y136148D01*
X190937Y136058D01*
X190877Y135967D01*
X190822Y135873D01*
X190769Y135777D01*
X190720Y135680D01*
X190674Y135581D01*
X190632Y135480D01*
X190594Y135378D01*
X190559Y135275D01*
X190528Y135170D01*
X190500Y135065D01*
X190476Y134958D01*
X190456Y134851D01*
X190440Y134743D01*
X190428Y134635D01*
X190420Y134526D01*
X190415Y134417D01*
X190558Y134417D01*
X190563Y134523D01*
X190571Y134629D01*
X190583Y134735D01*
X190600Y134840D01*
X190620Y134944D01*
X190643Y135048D01*
X190671Y135151D01*
X190702Y135252D01*
X190737Y135353D01*
X190775Y135452D01*
X190817Y135550D01*
X190862Y135646D01*
X190911Y135740D01*
X190964Y135833D01*
X191019Y135924D01*
X191078Y136012D01*
X191140Y136098D01*
X191205Y136183D01*
X191273Y136264D01*
X191344Y136343D01*
X191418Y136420D01*
X191495Y136494D01*
X191574Y136565D01*
X191655Y136633D01*
X191740Y136698D01*
X191826Y136760D01*
X191914Y136819D01*
X192005Y136874D01*
X192098Y136927D01*
X192192Y136976D01*
X192288Y137021D01*
X192386Y137063D01*
X192485Y137101D01*
X192586Y137136D01*
X192687Y137167D01*
X192790Y137195D01*
X192894Y137218D01*
X192998Y137238D01*
X193103Y137255D01*
X193209Y137267D01*
X193315Y137275D01*
X193421Y137280D01*
X193421Y137137D01*
X193318Y137132D01*
X193215Y137124D01*
X193112Y137111D01*
X193010Y137095D01*
X192908Y137075D01*
X192807Y137052D01*
X192708Y137024D01*
X192609Y136993D01*
X192512Y136959D01*
X192415Y136920D01*
X192321Y136879D01*
X192228Y136833D01*
X192136Y136785D01*
X192047Y136733D01*
X191960Y136678D01*
X191874Y136619D01*
X191791Y136558D01*
X191710Y136493D01*
X191632Y136425D01*
X191556Y136355D01*
X191483Y136282D01*
X191413Y136206D01*
X191345Y136128D01*
X191280Y136047D01*
X191219Y135964D01*
X191160Y135878D01*
X191105Y135791D01*
X191053Y135702D01*
X191005Y135610D01*
X190959Y135517D01*
X190918Y135423D01*
X190879Y135326D01*
X190845Y135229D01*
X190814Y135130D01*
X190786Y135031D01*
X190763Y134930D01*
X190743Y134828D01*
X190727Y134726D01*
X190714Y134623D01*
X190706Y134520D01*
X190701Y134417D01*
X190844Y134417D01*
X190849Y134517D01*
X190857Y134617D01*
X190870Y134717D01*
X190886Y134816D01*
X190906Y134915D01*
X190929Y135012D01*
X190956Y135109D01*
X190987Y135204D01*
X191022Y135299D01*
X191060Y135392D01*
X191101Y135483D01*
X191146Y135573D01*
X191195Y135661D01*
X191246Y135747D01*
X191301Y135831D01*
X191359Y135913D01*
X191420Y135993D01*
X191484Y136070D01*
X191551Y136145D01*
X191620Y136218D01*
X191693Y136287D01*
X191768Y136354D01*
X191845Y136418D01*
X191925Y136479D01*
X192007Y136537D01*
X192091Y136592D01*
X192177Y136643D01*
X192265Y136692D01*
X192355Y136737D01*
X192446Y136778D01*
X192539Y136816D01*
X192634Y136851D01*
X192729Y136882D01*
X192826Y136909D01*
X192923Y136932D01*
X193022Y136952D01*
X193121Y136968D01*
X193221Y136981D01*
X193321Y136989D01*
X193421Y136994D01*
X193421Y136851D01*
X193321Y136846D01*
X193222Y136837D01*
X193123Y136824D01*
X193025Y136807D01*
X192927Y136786D01*
X192830Y136762D01*
X192735Y136733D01*
X192640Y136701D01*
X192547Y136665D01*
X192455Y136626D01*
X192366Y136583D01*
X192277Y136536D01*
X192191Y136486D01*
X192107Y136432D01*
X192025Y136375D01*
X191945Y136315D01*
X191868Y136252D01*
X191793Y136186D01*
X191721Y136117D01*
X191652Y136045D01*
X191586Y135970D01*
X191523Y135893D01*
X191463Y135813D01*
X191406Y135731D01*
X191352Y135647D01*
X191302Y135561D01*
X191255Y135472D01*
X191212Y135383D01*
X191173Y135291D01*
X191137Y135198D01*
X191105Y135103D01*
X191076Y135008D01*
X191052Y134911D01*
X191031Y134813D01*
X191014Y134715D01*
X191001Y134616D01*
X190992Y134517D01*
X190987Y134417D01*
X191130Y134417D01*
X191135Y134513D01*
X191144Y134609D01*
X191157Y134705D01*
X191174Y134800D01*
X191194Y134894D01*
X191219Y134987D01*
X191247Y135079D01*
X191279Y135170D01*
X191315Y135260D01*
X191354Y135348D01*
X191397Y135435D01*
X191443Y135519D01*
X191493Y135602D01*
X191546Y135682D01*
X191602Y135761D01*
X191661Y135837D01*
X191723Y135910D01*
X191789Y135981D01*
X191857Y136049D01*
X191928Y136115D01*
X192001Y136177D01*
X192077Y136236D01*
X192156Y136292D01*
X192236Y136345D01*
X192319Y136395D01*
X192403Y136441D01*
X192490Y136484D01*
X192578Y136523D01*
X192668Y136559D01*
X192759Y136591D01*
X192851Y136619D01*
X192944Y136644D01*
X193038Y136664D01*
X193133Y136681D01*
X193229Y136694D01*
X193325Y136703D01*
X193421Y136708D01*
X193421Y136565D01*
X193328Y136560D01*
X193236Y136551D01*
X193144Y136538D01*
X193053Y136521D01*
X192962Y136501D01*
X192872Y136477D01*
X192784Y136449D01*
X192696Y136417D01*
X192611Y136382D01*
X192526Y136343D01*
X192443Y136301D01*
X192363Y136255D01*
X192284Y136206D01*
X192207Y136154D01*
X192132Y136098D01*
X192060Y136040D01*
X191991Y135979D01*
X191924Y135914D01*
X191859Y135847D01*
X191798Y135778D01*
X191740Y135706D01*
X191684Y135631D01*
X191632Y135554D01*
X191583Y135475D01*
X191537Y135395D01*
X191495Y135312D01*
X191456Y135227D01*
X191421Y135142D01*
X191389Y135054D01*
X191361Y134966D01*
X191337Y134876D01*
X191317Y134785D01*
X191300Y134694D01*
X191287Y134602D01*
X191278Y134510D01*
X191273Y134417D01*
X191416Y134417D01*
X191422Y134506D01*
X191430Y134595D01*
X191443Y134683D01*
X191460Y134770D01*
X191480Y134857D01*
X191504Y134943D01*
X191531Y135028D01*
X191563Y135111D01*
X191597Y135193D01*
X191636Y135274D01*
X191677Y135352D01*
X191722Y135429D01*
X191770Y135504D01*
X191822Y135577D01*
X191876Y135648D01*
X191933Y135716D01*
X191994Y135781D01*
X192057Y135844D01*
X192122Y135905D01*
X192190Y135962D01*
X192261Y136016D01*
X192334Y136068D01*
X192409Y136116D01*
X192486Y136161D01*
X192564Y136202D01*
X192645Y136241D01*
X192727Y136275D01*
X192810Y136307D01*
X192895Y136334D01*
X192981Y136358D01*
X193068Y136378D01*
X193155Y136395D01*
X193243Y136408D01*
X193332Y136416D01*
X193421Y136422D01*
X193421Y136279D01*
X193336Y136273D01*
X193251Y136264D01*
X193167Y136252D01*
X193084Y136235D01*
X193001Y136215D01*
X192919Y136192D01*
X192839Y136165D01*
X192759Y136134D01*
X192681Y136100D01*
X192605Y136063D01*
X192530Y136022D01*
X192457Y135978D01*
X192386Y135930D01*
X192318Y135880D01*
X192251Y135827D01*
X192187Y135771D01*
X192126Y135712D01*
X192067Y135651D01*
X192011Y135587D01*
X191958Y135520D01*
X191908Y135452D01*
X191860Y135381D01*
X191816Y135308D01*
X191775Y135233D01*
X191738Y135157D01*
X191704Y135079D01*
X191673Y134999D01*
X191646Y134919D01*
X191623Y134837D01*
X191603Y134754D01*
X191586Y134671D01*
X191574Y134587D01*
X191565Y134502D01*
X191559Y134417D01*
X190272Y103786D02*
X191645Y103786D01*
X191645Y103785D02*
X191650Y103702D01*
X191659Y103618D01*
X191672Y103536D01*
X191688Y103454D01*
X191708Y103373D01*
X191732Y103292D01*
X191760Y103213D01*
X191791Y103136D01*
X191825Y103060D01*
X191863Y102985D01*
X191904Y102912D01*
X191949Y102841D01*
X191996Y102772D01*
X192047Y102706D01*
X192100Y102642D01*
X192157Y102580D01*
X192216Y102521D01*
X192278Y102464D01*
X192342Y102411D01*
X192408Y102360D01*
X192477Y102313D01*
X192548Y102268D01*
X192621Y102227D01*
X192696Y102189D01*
X192772Y102155D01*
X192849Y102124D01*
X192928Y102096D01*
X193009Y102072D01*
X193090Y102052D01*
X193172Y102036D01*
X193254Y102023D01*
X193338Y102014D01*
X193421Y102009D01*
X193422Y100636D01*
X193421Y100636D01*
X193309Y100640D01*
X193198Y100649D01*
X193087Y100661D01*
X192976Y100677D01*
X192867Y100697D01*
X192757Y100721D01*
X192649Y100748D01*
X192542Y100780D01*
X192436Y100815D01*
X192331Y100853D01*
X192227Y100895D01*
X192126Y100941D01*
X192025Y100990D01*
X191927Y101043D01*
X191830Y101099D01*
X191735Y101158D01*
X191643Y101221D01*
X191553Y101287D01*
X191465Y101356D01*
X191379Y101427D01*
X191296Y101502D01*
X191216Y101580D01*
X191138Y101660D01*
X191063Y101743D01*
X190992Y101829D01*
X190923Y101917D01*
X190857Y102007D01*
X190794Y102099D01*
X190735Y102194D01*
X190679Y102291D01*
X190626Y102389D01*
X190577Y102490D01*
X190531Y102591D01*
X190489Y102695D01*
X190451Y102800D01*
X190416Y102906D01*
X190384Y103013D01*
X190357Y103121D01*
X190333Y103231D01*
X190313Y103340D01*
X190297Y103451D01*
X190285Y103562D01*
X190276Y103673D01*
X190272Y103785D01*
X190415Y103785D01*
X190420Y103676D01*
X190428Y103567D01*
X190440Y103459D01*
X190456Y103351D01*
X190476Y103244D01*
X190500Y103137D01*
X190528Y103032D01*
X190559Y102927D01*
X190594Y102824D01*
X190632Y102722D01*
X190674Y102621D01*
X190720Y102522D01*
X190769Y102425D01*
X190822Y102329D01*
X190877Y102235D01*
X190937Y102144D01*
X190999Y102054D01*
X191064Y101967D01*
X191133Y101882D01*
X191204Y101800D01*
X191279Y101720D01*
X191356Y101643D01*
X191436Y101568D01*
X191518Y101497D01*
X191603Y101428D01*
X191690Y101363D01*
X191780Y101301D01*
X191871Y101241D01*
X191965Y101186D01*
X192061Y101133D01*
X192158Y101084D01*
X192257Y101038D01*
X192358Y100996D01*
X192460Y100958D01*
X192563Y100923D01*
X192668Y100892D01*
X192773Y100864D01*
X192880Y100840D01*
X192987Y100820D01*
X193095Y100804D01*
X193203Y100792D01*
X193312Y100784D01*
X193421Y100779D01*
X193421Y100922D01*
X193315Y100927D01*
X193209Y100935D01*
X193103Y100947D01*
X192998Y100964D01*
X192894Y100984D01*
X192790Y101007D01*
X192687Y101035D01*
X192586Y101066D01*
X192485Y101101D01*
X192386Y101139D01*
X192288Y101181D01*
X192192Y101226D01*
X192098Y101275D01*
X192005Y101328D01*
X191914Y101383D01*
X191826Y101442D01*
X191740Y101504D01*
X191655Y101569D01*
X191574Y101637D01*
X191495Y101708D01*
X191418Y101782D01*
X191344Y101859D01*
X191273Y101938D01*
X191205Y102019D01*
X191140Y102104D01*
X191078Y102190D01*
X191019Y102278D01*
X190964Y102369D01*
X190911Y102462D01*
X190862Y102556D01*
X190817Y102652D01*
X190775Y102750D01*
X190737Y102849D01*
X190702Y102950D01*
X190671Y103051D01*
X190643Y103154D01*
X190620Y103258D01*
X190600Y103362D01*
X190583Y103467D01*
X190571Y103573D01*
X190563Y103679D01*
X190558Y103785D01*
X190701Y103785D01*
X190706Y103682D01*
X190714Y103579D01*
X190727Y103476D01*
X190743Y103374D01*
X190763Y103272D01*
X190786Y103171D01*
X190814Y103072D01*
X190845Y102973D01*
X190879Y102876D01*
X190918Y102779D01*
X190959Y102685D01*
X191005Y102592D01*
X191053Y102500D01*
X191105Y102411D01*
X191160Y102324D01*
X191219Y102238D01*
X191280Y102155D01*
X191345Y102074D01*
X191413Y101996D01*
X191483Y101920D01*
X191556Y101847D01*
X191632Y101777D01*
X191710Y101709D01*
X191791Y101644D01*
X191874Y101583D01*
X191960Y101524D01*
X192047Y101469D01*
X192136Y101417D01*
X192228Y101369D01*
X192321Y101323D01*
X192415Y101282D01*
X192512Y101243D01*
X192609Y101209D01*
X192708Y101178D01*
X192807Y101150D01*
X192908Y101127D01*
X193010Y101107D01*
X193112Y101091D01*
X193215Y101078D01*
X193318Y101070D01*
X193421Y101065D01*
X193421Y101208D01*
X193321Y101213D01*
X193221Y101221D01*
X193121Y101234D01*
X193022Y101250D01*
X192923Y101270D01*
X192826Y101293D01*
X192729Y101320D01*
X192634Y101351D01*
X192539Y101386D01*
X192446Y101424D01*
X192355Y101465D01*
X192265Y101510D01*
X192177Y101559D01*
X192091Y101610D01*
X192007Y101665D01*
X191925Y101723D01*
X191845Y101784D01*
X191768Y101848D01*
X191693Y101915D01*
X191620Y101984D01*
X191551Y102057D01*
X191484Y102132D01*
X191420Y102209D01*
X191359Y102289D01*
X191301Y102371D01*
X191246Y102455D01*
X191195Y102541D01*
X191146Y102629D01*
X191101Y102719D01*
X191060Y102810D01*
X191022Y102903D01*
X190987Y102998D01*
X190956Y103093D01*
X190929Y103190D01*
X190906Y103287D01*
X190886Y103386D01*
X190870Y103485D01*
X190857Y103585D01*
X190849Y103685D01*
X190844Y103785D01*
X190987Y103785D01*
X190992Y103685D01*
X191001Y103586D01*
X191014Y103487D01*
X191031Y103389D01*
X191052Y103291D01*
X191076Y103194D01*
X191105Y103099D01*
X191137Y103004D01*
X191173Y102911D01*
X191212Y102819D01*
X191255Y102730D01*
X191302Y102641D01*
X191352Y102555D01*
X191406Y102471D01*
X191463Y102389D01*
X191523Y102309D01*
X191586Y102232D01*
X191652Y102157D01*
X191721Y102085D01*
X191793Y102016D01*
X191868Y101950D01*
X191945Y101887D01*
X192025Y101827D01*
X192107Y101770D01*
X192191Y101716D01*
X192277Y101666D01*
X192366Y101619D01*
X192455Y101576D01*
X192547Y101537D01*
X192640Y101501D01*
X192735Y101469D01*
X192830Y101440D01*
X192927Y101416D01*
X193025Y101395D01*
X193123Y101378D01*
X193222Y101365D01*
X193321Y101356D01*
X193421Y101351D01*
X193421Y101494D01*
X193325Y101499D01*
X193229Y101508D01*
X193133Y101521D01*
X193038Y101538D01*
X192944Y101558D01*
X192851Y101583D01*
X192759Y101611D01*
X192668Y101643D01*
X192578Y101679D01*
X192490Y101718D01*
X192403Y101761D01*
X192319Y101807D01*
X192236Y101857D01*
X192156Y101910D01*
X192077Y101966D01*
X192001Y102025D01*
X191928Y102087D01*
X191857Y102153D01*
X191789Y102221D01*
X191723Y102292D01*
X191661Y102365D01*
X191602Y102441D01*
X191546Y102520D01*
X191493Y102600D01*
X191443Y102683D01*
X191397Y102767D01*
X191354Y102854D01*
X191315Y102942D01*
X191279Y103032D01*
X191247Y103123D01*
X191219Y103215D01*
X191194Y103308D01*
X191174Y103402D01*
X191157Y103497D01*
X191144Y103593D01*
X191135Y103689D01*
X191130Y103785D01*
X191273Y103785D01*
X191278Y103692D01*
X191287Y103600D01*
X191300Y103508D01*
X191317Y103417D01*
X191337Y103326D01*
X191361Y103236D01*
X191389Y103148D01*
X191421Y103060D01*
X191456Y102975D01*
X191495Y102890D01*
X191537Y102807D01*
X191583Y102727D01*
X191632Y102648D01*
X191684Y102571D01*
X191740Y102496D01*
X191798Y102424D01*
X191859Y102355D01*
X191924Y102288D01*
X191991Y102223D01*
X192060Y102162D01*
X192132Y102104D01*
X192207Y102048D01*
X192284Y101996D01*
X192363Y101947D01*
X192443Y101901D01*
X192526Y101859D01*
X192611Y101820D01*
X192696Y101785D01*
X192784Y101753D01*
X192872Y101725D01*
X192962Y101701D01*
X193053Y101681D01*
X193144Y101664D01*
X193236Y101651D01*
X193328Y101642D01*
X193421Y101637D01*
X193421Y101780D01*
X193332Y101786D01*
X193243Y101794D01*
X193155Y101807D01*
X193068Y101824D01*
X192981Y101844D01*
X192895Y101868D01*
X192810Y101895D01*
X192727Y101927D01*
X192645Y101961D01*
X192564Y102000D01*
X192486Y102041D01*
X192409Y102086D01*
X192334Y102134D01*
X192261Y102186D01*
X192190Y102240D01*
X192122Y102297D01*
X192057Y102358D01*
X191994Y102421D01*
X191933Y102486D01*
X191876Y102554D01*
X191822Y102625D01*
X191770Y102698D01*
X191722Y102773D01*
X191677Y102850D01*
X191636Y102928D01*
X191597Y103009D01*
X191563Y103091D01*
X191531Y103174D01*
X191504Y103259D01*
X191480Y103345D01*
X191460Y103432D01*
X191443Y103519D01*
X191430Y103607D01*
X191422Y103696D01*
X191416Y103785D01*
X191559Y103785D01*
X191565Y103700D01*
X191574Y103615D01*
X191586Y103531D01*
X191603Y103448D01*
X191623Y103365D01*
X191646Y103283D01*
X191673Y103203D01*
X191704Y103123D01*
X191738Y103045D01*
X191775Y102969D01*
X191816Y102894D01*
X191860Y102821D01*
X191908Y102750D01*
X191958Y102682D01*
X192011Y102615D01*
X192067Y102551D01*
X192126Y102490D01*
X192187Y102431D01*
X192251Y102375D01*
X192318Y102322D01*
X192386Y102272D01*
X192457Y102224D01*
X192530Y102180D01*
X192605Y102139D01*
X192681Y102102D01*
X192759Y102068D01*
X192839Y102037D01*
X192919Y102010D01*
X193001Y101987D01*
X193084Y101967D01*
X193167Y101950D01*
X193251Y101938D01*
X193336Y101929D01*
X193421Y101923D01*
X206272Y100636D02*
X206272Y102009D01*
X206273Y102009D02*
X206356Y102014D01*
X206440Y102023D01*
X206522Y102036D01*
X206604Y102052D01*
X206685Y102072D01*
X206766Y102096D01*
X206845Y102124D01*
X206922Y102155D01*
X206998Y102189D01*
X207073Y102227D01*
X207146Y102268D01*
X207217Y102313D01*
X207286Y102360D01*
X207352Y102411D01*
X207416Y102464D01*
X207478Y102521D01*
X207537Y102580D01*
X207594Y102642D01*
X207647Y102706D01*
X207698Y102772D01*
X207745Y102841D01*
X207790Y102912D01*
X207831Y102985D01*
X207869Y103060D01*
X207903Y103136D01*
X207934Y103213D01*
X207962Y103292D01*
X207986Y103373D01*
X208006Y103454D01*
X208022Y103536D01*
X208035Y103618D01*
X208044Y103702D01*
X208049Y103785D01*
X209422Y103786D01*
X209422Y103785D01*
X209418Y103673D01*
X209409Y103562D01*
X209397Y103451D01*
X209381Y103340D01*
X209361Y103231D01*
X209337Y103121D01*
X209310Y103013D01*
X209278Y102906D01*
X209243Y102800D01*
X209205Y102695D01*
X209163Y102591D01*
X209117Y102490D01*
X209068Y102389D01*
X209015Y102291D01*
X208959Y102194D01*
X208900Y102099D01*
X208837Y102007D01*
X208771Y101917D01*
X208702Y101829D01*
X208631Y101743D01*
X208556Y101660D01*
X208478Y101580D01*
X208398Y101502D01*
X208315Y101427D01*
X208229Y101356D01*
X208141Y101287D01*
X208051Y101221D01*
X207959Y101158D01*
X207864Y101099D01*
X207767Y101043D01*
X207669Y100990D01*
X207568Y100941D01*
X207467Y100895D01*
X207363Y100853D01*
X207258Y100815D01*
X207152Y100780D01*
X207045Y100748D01*
X206937Y100721D01*
X206827Y100697D01*
X206718Y100677D01*
X206607Y100661D01*
X206496Y100649D01*
X206385Y100640D01*
X206273Y100636D01*
X206273Y100779D01*
X206382Y100784D01*
X206491Y100792D01*
X206599Y100804D01*
X206707Y100820D01*
X206814Y100840D01*
X206921Y100864D01*
X207026Y100892D01*
X207131Y100923D01*
X207234Y100958D01*
X207336Y100996D01*
X207437Y101038D01*
X207536Y101084D01*
X207633Y101133D01*
X207729Y101186D01*
X207823Y101241D01*
X207914Y101301D01*
X208004Y101363D01*
X208091Y101428D01*
X208176Y101497D01*
X208258Y101568D01*
X208338Y101643D01*
X208415Y101720D01*
X208490Y101800D01*
X208561Y101882D01*
X208630Y101967D01*
X208695Y102054D01*
X208757Y102144D01*
X208817Y102235D01*
X208872Y102329D01*
X208925Y102425D01*
X208974Y102522D01*
X209020Y102621D01*
X209062Y102722D01*
X209100Y102824D01*
X209135Y102927D01*
X209166Y103032D01*
X209194Y103137D01*
X209218Y103244D01*
X209238Y103351D01*
X209254Y103459D01*
X209266Y103567D01*
X209274Y103676D01*
X209279Y103785D01*
X209136Y103785D01*
X209131Y103679D01*
X209123Y103573D01*
X209111Y103467D01*
X209094Y103362D01*
X209074Y103258D01*
X209051Y103154D01*
X209023Y103051D01*
X208992Y102950D01*
X208957Y102849D01*
X208919Y102750D01*
X208877Y102652D01*
X208832Y102556D01*
X208783Y102462D01*
X208730Y102369D01*
X208675Y102278D01*
X208616Y102190D01*
X208554Y102104D01*
X208489Y102019D01*
X208421Y101938D01*
X208350Y101859D01*
X208276Y101782D01*
X208199Y101708D01*
X208120Y101637D01*
X208039Y101569D01*
X207954Y101504D01*
X207868Y101442D01*
X207780Y101383D01*
X207689Y101328D01*
X207596Y101275D01*
X207502Y101226D01*
X207406Y101181D01*
X207308Y101139D01*
X207209Y101101D01*
X207108Y101066D01*
X207007Y101035D01*
X206904Y101007D01*
X206800Y100984D01*
X206696Y100964D01*
X206591Y100947D01*
X206485Y100935D01*
X206379Y100927D01*
X206273Y100922D01*
X206273Y101065D01*
X206376Y101070D01*
X206479Y101078D01*
X206582Y101091D01*
X206684Y101107D01*
X206786Y101127D01*
X206887Y101150D01*
X206986Y101178D01*
X207085Y101209D01*
X207182Y101243D01*
X207279Y101282D01*
X207373Y101323D01*
X207466Y101369D01*
X207558Y101417D01*
X207647Y101469D01*
X207734Y101524D01*
X207820Y101583D01*
X207903Y101644D01*
X207984Y101709D01*
X208062Y101777D01*
X208138Y101847D01*
X208211Y101920D01*
X208281Y101996D01*
X208349Y102074D01*
X208414Y102155D01*
X208475Y102238D01*
X208534Y102324D01*
X208589Y102411D01*
X208641Y102500D01*
X208689Y102592D01*
X208735Y102685D01*
X208776Y102779D01*
X208815Y102876D01*
X208849Y102973D01*
X208880Y103072D01*
X208908Y103171D01*
X208931Y103272D01*
X208951Y103374D01*
X208967Y103476D01*
X208980Y103579D01*
X208988Y103682D01*
X208993Y103785D01*
X208850Y103785D01*
X208845Y103685D01*
X208837Y103585D01*
X208824Y103485D01*
X208808Y103386D01*
X208788Y103287D01*
X208765Y103190D01*
X208738Y103093D01*
X208707Y102998D01*
X208672Y102903D01*
X208634Y102810D01*
X208593Y102719D01*
X208548Y102629D01*
X208499Y102541D01*
X208448Y102455D01*
X208393Y102371D01*
X208335Y102289D01*
X208274Y102209D01*
X208210Y102132D01*
X208143Y102057D01*
X208074Y101984D01*
X208001Y101915D01*
X207926Y101848D01*
X207849Y101784D01*
X207769Y101723D01*
X207687Y101665D01*
X207603Y101610D01*
X207517Y101559D01*
X207429Y101510D01*
X207339Y101465D01*
X207248Y101424D01*
X207155Y101386D01*
X207060Y101351D01*
X206965Y101320D01*
X206868Y101293D01*
X206771Y101270D01*
X206672Y101250D01*
X206573Y101234D01*
X206473Y101221D01*
X206373Y101213D01*
X206273Y101208D01*
X206273Y101351D01*
X206373Y101356D01*
X206472Y101365D01*
X206571Y101378D01*
X206669Y101395D01*
X206767Y101416D01*
X206864Y101440D01*
X206959Y101469D01*
X207054Y101501D01*
X207147Y101537D01*
X207239Y101576D01*
X207328Y101619D01*
X207417Y101666D01*
X207503Y101716D01*
X207587Y101770D01*
X207669Y101827D01*
X207749Y101887D01*
X207826Y101950D01*
X207901Y102016D01*
X207973Y102085D01*
X208042Y102157D01*
X208108Y102232D01*
X208171Y102309D01*
X208231Y102389D01*
X208288Y102471D01*
X208342Y102555D01*
X208392Y102641D01*
X208439Y102730D01*
X208482Y102819D01*
X208521Y102911D01*
X208557Y103004D01*
X208589Y103099D01*
X208618Y103194D01*
X208642Y103291D01*
X208663Y103389D01*
X208680Y103487D01*
X208693Y103586D01*
X208702Y103685D01*
X208707Y103785D01*
X208564Y103785D01*
X208559Y103689D01*
X208550Y103593D01*
X208537Y103497D01*
X208520Y103402D01*
X208500Y103308D01*
X208475Y103215D01*
X208447Y103123D01*
X208415Y103032D01*
X208379Y102942D01*
X208340Y102854D01*
X208297Y102767D01*
X208251Y102683D01*
X208201Y102600D01*
X208148Y102520D01*
X208092Y102441D01*
X208033Y102365D01*
X207971Y102292D01*
X207905Y102221D01*
X207837Y102153D01*
X207766Y102087D01*
X207693Y102025D01*
X207617Y101966D01*
X207538Y101910D01*
X207458Y101857D01*
X207375Y101807D01*
X207291Y101761D01*
X207204Y101718D01*
X207116Y101679D01*
X207026Y101643D01*
X206935Y101611D01*
X206843Y101583D01*
X206750Y101558D01*
X206656Y101538D01*
X206561Y101521D01*
X206465Y101508D01*
X206369Y101499D01*
X206273Y101494D01*
X206273Y101637D01*
X206366Y101642D01*
X206458Y101651D01*
X206550Y101664D01*
X206641Y101681D01*
X206732Y101701D01*
X206822Y101725D01*
X206910Y101753D01*
X206998Y101785D01*
X207083Y101820D01*
X207168Y101859D01*
X207251Y101901D01*
X207331Y101947D01*
X207410Y101996D01*
X207487Y102048D01*
X207562Y102104D01*
X207634Y102162D01*
X207703Y102223D01*
X207770Y102288D01*
X207835Y102355D01*
X207896Y102424D01*
X207954Y102496D01*
X208010Y102571D01*
X208062Y102648D01*
X208111Y102727D01*
X208157Y102807D01*
X208199Y102890D01*
X208238Y102975D01*
X208273Y103060D01*
X208305Y103148D01*
X208333Y103236D01*
X208357Y103326D01*
X208377Y103417D01*
X208394Y103508D01*
X208407Y103600D01*
X208416Y103692D01*
X208421Y103785D01*
X208278Y103785D01*
X208272Y103696D01*
X208264Y103607D01*
X208251Y103519D01*
X208234Y103432D01*
X208214Y103345D01*
X208190Y103259D01*
X208163Y103174D01*
X208131Y103091D01*
X208097Y103009D01*
X208058Y102928D01*
X208017Y102850D01*
X207972Y102773D01*
X207924Y102698D01*
X207872Y102625D01*
X207818Y102554D01*
X207761Y102486D01*
X207700Y102421D01*
X207637Y102358D01*
X207572Y102297D01*
X207504Y102240D01*
X207433Y102186D01*
X207360Y102134D01*
X207285Y102086D01*
X207208Y102041D01*
X207130Y102000D01*
X207049Y101961D01*
X206967Y101927D01*
X206884Y101895D01*
X206799Y101868D01*
X206713Y101844D01*
X206626Y101824D01*
X206539Y101807D01*
X206451Y101794D01*
X206362Y101786D01*
X206273Y101780D01*
X206273Y101923D01*
X206358Y101929D01*
X206443Y101938D01*
X206527Y101950D01*
X206610Y101967D01*
X206693Y101987D01*
X206775Y102010D01*
X206855Y102037D01*
X206935Y102068D01*
X207013Y102102D01*
X207089Y102139D01*
X207164Y102180D01*
X207237Y102224D01*
X207308Y102272D01*
X207376Y102322D01*
X207443Y102375D01*
X207507Y102431D01*
X207568Y102490D01*
X207627Y102551D01*
X207683Y102615D01*
X207736Y102682D01*
X207786Y102750D01*
X207834Y102821D01*
X207878Y102894D01*
X207919Y102969D01*
X207956Y103045D01*
X207990Y103123D01*
X208021Y103203D01*
X208048Y103283D01*
X208071Y103365D01*
X208091Y103448D01*
X208108Y103531D01*
X208120Y103615D01*
X208129Y103700D01*
X208135Y103785D01*
D13*
X208737Y131801D02*
X208737Y134341D01*
X208737Y131801D02*
X207467Y130531D01*
X190957Y131801D02*
X190957Y134341D01*
X190957Y131801D02*
X192227Y130531D01*
X207467Y107671D02*
X208737Y106401D01*
X207467Y107671D02*
X207467Y130531D01*
X192227Y107671D02*
X190957Y106401D01*
X192227Y107671D02*
X192227Y130531D01*
X208737Y106401D02*
X208737Y103861D01*
X190957Y103861D02*
X190957Y106401D01*
D10*
X193116Y156820D02*
X193116Y165456D01*
X195515Y165456D01*
X195612Y165454D01*
X195708Y165448D01*
X195804Y165439D01*
X195900Y165425D01*
X195995Y165408D01*
X196089Y165386D01*
X196182Y165361D01*
X196275Y165333D01*
X196366Y165300D01*
X196455Y165264D01*
X196543Y165224D01*
X196630Y165181D01*
X196715Y165135D01*
X196797Y165085D01*
X196878Y165031D01*
X196956Y164975D01*
X197032Y164915D01*
X197106Y164853D01*
X197177Y164787D01*
X197245Y164719D01*
X197311Y164648D01*
X197373Y164574D01*
X197433Y164498D01*
X197489Y164420D01*
X197543Y164339D01*
X197593Y164256D01*
X197639Y164172D01*
X197682Y164085D01*
X197722Y163997D01*
X197758Y163908D01*
X197791Y163817D01*
X197819Y163724D01*
X197844Y163631D01*
X197866Y163537D01*
X197883Y163442D01*
X197897Y163346D01*
X197906Y163250D01*
X197912Y163154D01*
X197914Y163057D01*
X197912Y162960D01*
X197906Y162864D01*
X197897Y162768D01*
X197883Y162672D01*
X197866Y162577D01*
X197844Y162483D01*
X197819Y162390D01*
X197791Y162297D01*
X197758Y162206D01*
X197722Y162117D01*
X197682Y162029D01*
X197639Y161942D01*
X197593Y161858D01*
X197543Y161775D01*
X197489Y161694D01*
X197433Y161616D01*
X197373Y161540D01*
X197311Y161466D01*
X197245Y161395D01*
X197177Y161327D01*
X197106Y161261D01*
X197032Y161199D01*
X196956Y161139D01*
X196878Y161083D01*
X196797Y161029D01*
X196715Y160979D01*
X196630Y160933D01*
X196543Y160890D01*
X196455Y160850D01*
X196366Y160814D01*
X196275Y160781D01*
X196182Y160753D01*
X196089Y160728D01*
X195995Y160706D01*
X195900Y160689D01*
X195804Y160675D01*
X195708Y160666D01*
X195612Y160660D01*
X195515Y160658D01*
X193116Y160658D01*
X195995Y160658D02*
X197914Y156820D01*
X201957Y163536D02*
X204356Y165456D01*
X204356Y156820D01*
X201957Y156820D02*
X206755Y156820D01*
D13*
X87097Y167081D02*
X87097Y123901D01*
X112497Y123901D02*
X112497Y167081D01*
X109957Y169621D02*
X89637Y169621D01*
X89637Y121361D02*
X109957Y121361D01*
X87097Y167081D02*
X87099Y167181D01*
X87105Y167280D01*
X87115Y167380D01*
X87128Y167478D01*
X87146Y167577D01*
X87167Y167674D01*
X87192Y167770D01*
X87221Y167866D01*
X87254Y167960D01*
X87290Y168053D01*
X87330Y168144D01*
X87374Y168234D01*
X87421Y168322D01*
X87471Y168408D01*
X87525Y168492D01*
X87582Y168574D01*
X87642Y168653D01*
X87706Y168731D01*
X87772Y168805D01*
X87841Y168877D01*
X87913Y168946D01*
X87987Y169012D01*
X88065Y169076D01*
X88144Y169136D01*
X88226Y169193D01*
X88310Y169247D01*
X88396Y169297D01*
X88484Y169344D01*
X88574Y169388D01*
X88665Y169428D01*
X88758Y169464D01*
X88852Y169497D01*
X88948Y169526D01*
X89044Y169551D01*
X89141Y169572D01*
X89240Y169590D01*
X89338Y169603D01*
X89438Y169613D01*
X89537Y169619D01*
X89637Y169621D01*
X87097Y123901D02*
X87099Y123801D01*
X87105Y123702D01*
X87115Y123602D01*
X87128Y123504D01*
X87146Y123405D01*
X87167Y123308D01*
X87192Y123212D01*
X87221Y123116D01*
X87254Y123022D01*
X87290Y122929D01*
X87330Y122838D01*
X87374Y122748D01*
X87421Y122660D01*
X87471Y122574D01*
X87525Y122490D01*
X87582Y122408D01*
X87642Y122329D01*
X87706Y122251D01*
X87772Y122177D01*
X87841Y122105D01*
X87913Y122036D01*
X87987Y121970D01*
X88065Y121906D01*
X88144Y121846D01*
X88226Y121789D01*
X88310Y121735D01*
X88396Y121685D01*
X88484Y121638D01*
X88574Y121594D01*
X88665Y121554D01*
X88758Y121518D01*
X88852Y121485D01*
X88948Y121456D01*
X89044Y121431D01*
X89141Y121410D01*
X89240Y121392D01*
X89338Y121379D01*
X89438Y121369D01*
X89537Y121363D01*
X89637Y121361D01*
X112497Y167081D02*
X112495Y167181D01*
X112489Y167280D01*
X112479Y167380D01*
X112466Y167478D01*
X112448Y167577D01*
X112427Y167674D01*
X112402Y167770D01*
X112373Y167866D01*
X112340Y167960D01*
X112304Y168053D01*
X112264Y168144D01*
X112220Y168234D01*
X112173Y168322D01*
X112123Y168408D01*
X112069Y168492D01*
X112012Y168574D01*
X111952Y168653D01*
X111888Y168731D01*
X111822Y168805D01*
X111753Y168877D01*
X111681Y168946D01*
X111607Y169012D01*
X111529Y169076D01*
X111450Y169136D01*
X111368Y169193D01*
X111284Y169247D01*
X111198Y169297D01*
X111110Y169344D01*
X111020Y169388D01*
X110929Y169428D01*
X110836Y169464D01*
X110742Y169497D01*
X110646Y169526D01*
X110550Y169551D01*
X110453Y169572D01*
X110354Y169590D01*
X110256Y169603D01*
X110156Y169613D01*
X110057Y169619D01*
X109957Y169621D01*
X112497Y123901D02*
X112495Y123801D01*
X112489Y123702D01*
X112479Y123602D01*
X112466Y123504D01*
X112448Y123405D01*
X112427Y123308D01*
X112402Y123212D01*
X112373Y123116D01*
X112340Y123022D01*
X112304Y122929D01*
X112264Y122838D01*
X112220Y122748D01*
X112173Y122660D01*
X112123Y122574D01*
X112069Y122490D01*
X112012Y122408D01*
X111952Y122329D01*
X111888Y122251D01*
X111822Y122177D01*
X111753Y122105D01*
X111681Y122036D01*
X111607Y121970D01*
X111529Y121906D01*
X111450Y121846D01*
X111368Y121789D01*
X111284Y121735D01*
X111198Y121685D01*
X111110Y121638D01*
X111020Y121594D01*
X110929Y121554D01*
X110836Y121518D01*
X110742Y121485D01*
X110646Y121456D01*
X110550Y121431D01*
X110453Y121410D01*
X110354Y121392D01*
X110256Y121379D01*
X110156Y121369D01*
X110057Y121363D01*
X109957Y121361D01*
X99797Y148031D02*
X99797Y149301D01*
D14*
X99797Y148031D02*
X92177Y148031D01*
X99797Y148031D02*
X107417Y148031D01*
X99797Y142951D02*
X92177Y142951D01*
X99797Y142951D02*
X107417Y142951D01*
D13*
X99797Y142951D02*
X99797Y141681D01*
D15*
X123952Y160040D02*
X123952Y162015D01*
X123952Y160040D02*
X123950Y159951D01*
X123944Y159863D01*
X123934Y159775D01*
X123920Y159687D01*
X123902Y159600D01*
X123881Y159514D01*
X123855Y159429D01*
X123826Y159346D01*
X123793Y159263D01*
X123756Y159183D01*
X123716Y159104D01*
X123672Y159027D01*
X123625Y158951D01*
X123575Y158879D01*
X123521Y158808D01*
X123464Y158740D01*
X123404Y158674D01*
X123342Y158612D01*
X123276Y158552D01*
X123208Y158495D01*
X123137Y158441D01*
X123065Y158391D01*
X122990Y158344D01*
X122912Y158300D01*
X122833Y158260D01*
X122753Y158223D01*
X122670Y158190D01*
X122587Y158161D01*
X122502Y158135D01*
X122416Y158114D01*
X122329Y158096D01*
X122241Y158082D01*
X122153Y158072D01*
X122065Y158066D01*
X121976Y158064D01*
X117038Y158064D01*
X116949Y158066D01*
X116861Y158072D01*
X116773Y158082D01*
X116685Y158096D01*
X116598Y158114D01*
X116512Y158135D01*
X116427Y158161D01*
X116344Y158190D01*
X116261Y158223D01*
X116181Y158260D01*
X116102Y158300D01*
X116025Y158344D01*
X115949Y158391D01*
X115877Y158441D01*
X115806Y158495D01*
X115738Y158552D01*
X115672Y158612D01*
X115610Y158674D01*
X115550Y158740D01*
X115493Y158808D01*
X115439Y158879D01*
X115389Y158951D01*
X115342Y159026D01*
X115298Y159104D01*
X115258Y159183D01*
X115221Y159263D01*
X115188Y159346D01*
X115159Y159429D01*
X115133Y159514D01*
X115112Y159600D01*
X115094Y159687D01*
X115080Y159775D01*
X115070Y159863D01*
X115064Y159951D01*
X115062Y160040D01*
X115062Y162015D01*
X123952Y165523D02*
X123952Y167993D01*
X123950Y168091D01*
X123944Y168189D01*
X123934Y168287D01*
X123921Y168384D01*
X123903Y168481D01*
X123882Y168577D01*
X123857Y168671D01*
X123828Y168765D01*
X123796Y168858D01*
X123759Y168949D01*
X123720Y169039D01*
X123676Y169127D01*
X123629Y169213D01*
X123579Y169298D01*
X123526Y169380D01*
X123469Y169460D01*
X123409Y169538D01*
X123346Y169613D01*
X123280Y169686D01*
X123211Y169756D01*
X123140Y169823D01*
X123066Y169888D01*
X122989Y169949D01*
X122910Y170008D01*
X122829Y170063D01*
X122746Y170115D01*
X122660Y170163D01*
X122573Y170208D01*
X122484Y170250D01*
X122394Y170288D01*
X122302Y170322D01*
X122209Y170353D01*
X122114Y170380D01*
X122019Y170403D01*
X121922Y170423D01*
X121826Y170438D01*
X121728Y170450D01*
X121630Y170458D01*
X121532Y170462D01*
X121434Y170462D01*
X121336Y170458D01*
X121238Y170450D01*
X121140Y170438D01*
X121044Y170423D01*
X120947Y170403D01*
X120852Y170380D01*
X120757Y170353D01*
X120664Y170322D01*
X120572Y170288D01*
X120482Y170250D01*
X120393Y170208D01*
X120306Y170163D01*
X120220Y170115D01*
X120137Y170063D01*
X120056Y170008D01*
X119977Y169949D01*
X119900Y169888D01*
X119826Y169823D01*
X119755Y169756D01*
X119686Y169686D01*
X119620Y169613D01*
X119557Y169538D01*
X119497Y169460D01*
X119440Y169380D01*
X119387Y169298D01*
X119337Y169213D01*
X119290Y169127D01*
X119246Y169039D01*
X119207Y168949D01*
X119170Y168858D01*
X119138Y168765D01*
X119109Y168671D01*
X119084Y168577D01*
X119063Y168481D01*
X119045Y168384D01*
X119032Y168287D01*
X119022Y168189D01*
X119016Y168091D01*
X119014Y167993D01*
X115062Y168487D02*
X115062Y165523D01*
X115062Y168487D02*
X115064Y168574D01*
X115070Y168662D01*
X115079Y168749D01*
X115093Y168835D01*
X115110Y168921D01*
X115131Y169005D01*
X115156Y169089D01*
X115185Y169172D01*
X115217Y169253D01*
X115252Y169333D01*
X115291Y169411D01*
X115334Y169488D01*
X115380Y169562D01*
X115429Y169634D01*
X115481Y169704D01*
X115537Y169772D01*
X115595Y169837D01*
X115656Y169900D01*
X115720Y169959D01*
X115787Y170016D01*
X115855Y170070D01*
X115927Y170121D01*
X116000Y170168D01*
X116075Y170213D01*
X116153Y170254D01*
X116232Y170291D01*
X116312Y170325D01*
X116394Y170355D01*
X116477Y170382D01*
X116562Y170405D01*
X116647Y170424D01*
X116733Y170439D01*
X116820Y170451D01*
X116907Y170459D01*
X116994Y170463D01*
X117082Y170463D01*
X117169Y170459D01*
X117256Y170451D01*
X117343Y170439D01*
X117429Y170424D01*
X117514Y170405D01*
X117599Y170382D01*
X117682Y170355D01*
X117764Y170325D01*
X117844Y170291D01*
X117923Y170254D01*
X118001Y170213D01*
X118076Y170168D01*
X118149Y170121D01*
X118221Y170070D01*
X118289Y170016D01*
X118356Y169959D01*
X118420Y169900D01*
X118481Y169837D01*
X118539Y169772D01*
X118595Y169704D01*
X118647Y169634D01*
X118696Y169562D01*
X118742Y169488D01*
X118785Y169411D01*
X118824Y169333D01*
X118859Y169253D01*
X118891Y169172D01*
X118920Y169089D01*
X118945Y169005D01*
X118966Y168921D01*
X118983Y168835D01*
X118997Y168749D01*
X119006Y168662D01*
X119012Y168574D01*
X119014Y168487D01*
X119013Y168487D02*
X119013Y166511D01*
D11*
X105913Y115852D02*
X105915Y115915D01*
X105921Y115977D01*
X105931Y116039D01*
X105944Y116101D01*
X105962Y116161D01*
X105983Y116220D01*
X106008Y116278D01*
X106037Y116334D01*
X106069Y116388D01*
X106104Y116440D01*
X106142Y116489D01*
X106184Y116537D01*
X106228Y116581D01*
X106276Y116623D01*
X106325Y116661D01*
X106377Y116696D01*
X106431Y116728D01*
X106487Y116757D01*
X106545Y116782D01*
X106604Y116803D01*
X106664Y116821D01*
X106726Y116834D01*
X106788Y116844D01*
X106850Y116850D01*
X106913Y116852D01*
X106976Y116850D01*
X107038Y116844D01*
X107100Y116834D01*
X107162Y116821D01*
X107222Y116803D01*
X107281Y116782D01*
X107339Y116757D01*
X107395Y116728D01*
X107449Y116696D01*
X107501Y116661D01*
X107550Y116623D01*
X107598Y116581D01*
X107642Y116537D01*
X107684Y116489D01*
X107722Y116440D01*
X107757Y116388D01*
X107789Y116334D01*
X107818Y116278D01*
X107843Y116220D01*
X107864Y116161D01*
X107882Y116101D01*
X107895Y116039D01*
X107905Y115977D01*
X107911Y115915D01*
X107913Y115852D01*
X107911Y115789D01*
X107905Y115727D01*
X107895Y115665D01*
X107882Y115603D01*
X107864Y115543D01*
X107843Y115484D01*
X107818Y115426D01*
X107789Y115370D01*
X107757Y115316D01*
X107722Y115264D01*
X107684Y115215D01*
X107642Y115167D01*
X107598Y115123D01*
X107550Y115081D01*
X107501Y115043D01*
X107449Y115008D01*
X107395Y114976D01*
X107339Y114947D01*
X107281Y114922D01*
X107222Y114901D01*
X107162Y114883D01*
X107100Y114870D01*
X107038Y114860D01*
X106976Y114854D01*
X106913Y114852D01*
X106850Y114854D01*
X106788Y114860D01*
X106726Y114870D01*
X106664Y114883D01*
X106604Y114901D01*
X106545Y114922D01*
X106487Y114947D01*
X106431Y114976D01*
X106377Y115008D01*
X106325Y115043D01*
X106276Y115081D01*
X106228Y115123D01*
X106184Y115167D01*
X106142Y115215D01*
X106104Y115264D01*
X106069Y115316D01*
X106037Y115370D01*
X106008Y115426D01*
X105983Y115484D01*
X105962Y115543D01*
X105944Y115603D01*
X105931Y115665D01*
X105921Y115727D01*
X105915Y115789D01*
X105913Y115852D01*
D10*
X127113Y118652D02*
X157113Y118652D01*
X157113Y87952D02*
X127113Y87952D01*
D15*
X134812Y101644D02*
X134812Y110083D01*
X134811Y101644D02*
X134813Y101531D01*
X134819Y101418D01*
X134829Y101305D01*
X134843Y101192D01*
X134860Y101080D01*
X134882Y100969D01*
X134907Y100859D01*
X134937Y100749D01*
X134970Y100641D01*
X135007Y100534D01*
X135047Y100428D01*
X135092Y100324D01*
X135140Y100221D01*
X135191Y100120D01*
X135246Y100021D01*
X135304Y99924D01*
X135366Y99829D01*
X135431Y99736D01*
X135499Y99646D01*
X135570Y99558D01*
X135645Y99472D01*
X135722Y99389D01*
X135802Y99309D01*
X135885Y99232D01*
X135971Y99157D01*
X136059Y99086D01*
X136149Y99018D01*
X136242Y98953D01*
X136337Y98891D01*
X136434Y98833D01*
X136533Y98778D01*
X136634Y98727D01*
X136737Y98679D01*
X136841Y98634D01*
X136947Y98594D01*
X137054Y98557D01*
X137162Y98524D01*
X137272Y98494D01*
X137382Y98469D01*
X137493Y98447D01*
X137605Y98430D01*
X137718Y98416D01*
X137831Y98406D01*
X137944Y98400D01*
X138057Y98398D01*
X138170Y98400D01*
X138283Y98406D01*
X138396Y98416D01*
X138509Y98430D01*
X138621Y98447D01*
X138732Y98469D01*
X138842Y98494D01*
X138952Y98524D01*
X139060Y98557D01*
X139167Y98594D01*
X139273Y98634D01*
X139377Y98679D01*
X139480Y98727D01*
X139581Y98778D01*
X139680Y98833D01*
X139777Y98891D01*
X139872Y98953D01*
X139965Y99018D01*
X140055Y99086D01*
X140143Y99157D01*
X140229Y99232D01*
X140312Y99309D01*
X140392Y99389D01*
X140469Y99472D01*
X140544Y99558D01*
X140615Y99646D01*
X140683Y99736D01*
X140748Y99829D01*
X140810Y99924D01*
X140868Y100021D01*
X140923Y100120D01*
X140974Y100221D01*
X141022Y100324D01*
X141067Y100428D01*
X141107Y100534D01*
X141144Y100641D01*
X141177Y100749D01*
X141207Y100859D01*
X141232Y100969D01*
X141254Y101080D01*
X141271Y101192D01*
X141285Y101305D01*
X141295Y101418D01*
X141301Y101531D01*
X141303Y101644D01*
X141303Y110083D01*
X146623Y107486D02*
X149868Y110083D01*
X149868Y98399D01*
X146623Y98399D02*
X153114Y98399D01*
D13*
X138278Y79858D02*
X125578Y79858D01*
X138278Y79858D02*
X144628Y73508D01*
X144628Y60808D01*
X138278Y54458D01*
X144628Y73508D02*
X150978Y79858D01*
X163678Y79858D01*
X170028Y73508D01*
X170028Y60808D01*
X163678Y54458D01*
X150978Y54458D01*
X144628Y60808D01*
X119228Y60808D02*
X119228Y73508D01*
X125578Y79858D01*
X119228Y60808D02*
X125578Y54458D01*
X138278Y54458D01*
X170028Y73508D02*
X176378Y79858D01*
X189078Y79858D01*
X195428Y73508D01*
X195428Y60808D01*
X189078Y54458D01*
X176378Y54458D01*
X170028Y60808D01*
D12*
X176892Y84074D02*
X176892Y89408D01*
X176892Y84074D02*
X176890Y83997D01*
X176884Y83920D01*
X176874Y83843D01*
X176861Y83767D01*
X176843Y83692D01*
X176822Y83618D01*
X176797Y83545D01*
X176768Y83473D01*
X176736Y83403D01*
X176701Y83334D01*
X176661Y83268D01*
X176619Y83203D01*
X176573Y83141D01*
X176524Y83081D01*
X176473Y83024D01*
X176418Y82969D01*
X176361Y82918D01*
X176301Y82869D01*
X176239Y82823D01*
X176174Y82781D01*
X176108Y82741D01*
X176039Y82706D01*
X175969Y82674D01*
X175897Y82645D01*
X175824Y82620D01*
X175750Y82599D01*
X175675Y82581D01*
X175599Y82568D01*
X175522Y82558D01*
X175445Y82552D01*
X175368Y82550D01*
X174606Y82550D01*
X180480Y82550D02*
X180480Y89408D01*
X182385Y89408D01*
X182470Y89406D01*
X182556Y89400D01*
X182641Y89391D01*
X182725Y89377D01*
X182809Y89360D01*
X182892Y89339D01*
X182974Y89315D01*
X183054Y89287D01*
X183134Y89255D01*
X183212Y89219D01*
X183288Y89181D01*
X183362Y89138D01*
X183434Y89093D01*
X183505Y89044D01*
X183573Y88992D01*
X183638Y88938D01*
X183701Y88880D01*
X183762Y88819D01*
X183820Y88756D01*
X183874Y88691D01*
X183926Y88623D01*
X183975Y88552D01*
X184020Y88480D01*
X184063Y88406D01*
X184101Y88330D01*
X184137Y88252D01*
X184169Y88172D01*
X184197Y88092D01*
X184221Y88010D01*
X184242Y87927D01*
X184259Y87843D01*
X184273Y87759D01*
X184282Y87674D01*
X184288Y87588D01*
X184290Y87503D01*
X184288Y87418D01*
X184282Y87332D01*
X184273Y87247D01*
X184259Y87163D01*
X184242Y87079D01*
X184221Y86996D01*
X184197Y86914D01*
X184169Y86834D01*
X184137Y86754D01*
X184101Y86676D01*
X184063Y86600D01*
X184020Y86526D01*
X183975Y86454D01*
X183926Y86383D01*
X183874Y86315D01*
X183820Y86250D01*
X183762Y86187D01*
X183701Y86126D01*
X183638Y86068D01*
X183573Y86014D01*
X183505Y85962D01*
X183434Y85913D01*
X183362Y85868D01*
X183288Y85825D01*
X183212Y85787D01*
X183134Y85751D01*
X183054Y85719D01*
X182974Y85691D01*
X182892Y85667D01*
X182809Y85646D01*
X182725Y85629D01*
X182641Y85615D01*
X182556Y85606D01*
X182470Y85600D01*
X182385Y85598D01*
X180480Y85598D01*
X186995Y87884D02*
X188900Y89408D01*
X188900Y82550D01*
X186995Y82550D02*
X190805Y82550D01*
M02*
