G04 EAGLE Gerber RS-274X export*
G75*
%MOMM*%
%FSLAX34Y34*%
%LPD*%
%INSilkscreen Bottom*%
%IPPOS*%
%AMOC8*
5,1,8,0,0,1.08239X$1,22.5*%
G01*
%ADD10C,0.050800*%


D10*
X139206Y86304D02*
X138232Y86304D01*
X138232Y83058D01*
X140180Y83058D01*
X140250Y83060D01*
X140320Y83066D01*
X140390Y83075D01*
X140459Y83088D01*
X140527Y83105D01*
X140594Y83126D01*
X140660Y83150D01*
X140725Y83178D01*
X140788Y83209D01*
X140849Y83244D01*
X140908Y83282D01*
X140966Y83323D01*
X141020Y83367D01*
X141073Y83414D01*
X141122Y83463D01*
X141169Y83516D01*
X141213Y83570D01*
X141254Y83628D01*
X141292Y83687D01*
X141327Y83748D01*
X141358Y83811D01*
X141386Y83876D01*
X141410Y83942D01*
X141431Y84009D01*
X141448Y84077D01*
X141461Y84146D01*
X141470Y84216D01*
X141476Y84286D01*
X141478Y84356D01*
X141478Y87602D01*
X141476Y87672D01*
X141470Y87742D01*
X141461Y87812D01*
X141448Y87881D01*
X141431Y87949D01*
X141410Y88016D01*
X141386Y88082D01*
X141358Y88147D01*
X141327Y88210D01*
X141292Y88271D01*
X141254Y88330D01*
X141213Y88387D01*
X141169Y88442D01*
X141122Y88495D01*
X141073Y88544D01*
X141020Y88591D01*
X140966Y88635D01*
X140908Y88676D01*
X140849Y88714D01*
X140788Y88749D01*
X140725Y88780D01*
X140660Y88808D01*
X140595Y88832D01*
X140527Y88853D01*
X140459Y88870D01*
X140390Y88883D01*
X140320Y88892D01*
X140250Y88898D01*
X140180Y88900D01*
X138232Y88900D01*
X135382Y88900D02*
X135382Y83058D01*
X132137Y83058D02*
X135382Y88900D01*
X132137Y88900D02*
X132137Y83058D01*
X129286Y83058D02*
X129286Y88900D01*
X127663Y88900D01*
X127583Y88898D01*
X127504Y88892D01*
X127425Y88882D01*
X127346Y88869D01*
X127269Y88851D01*
X127192Y88830D01*
X127116Y88805D01*
X127042Y88776D01*
X126969Y88744D01*
X126898Y88708D01*
X126829Y88669D01*
X126761Y88626D01*
X126696Y88581D01*
X126633Y88532D01*
X126573Y88480D01*
X126515Y88425D01*
X126460Y88367D01*
X126408Y88307D01*
X126359Y88244D01*
X126314Y88179D01*
X126271Y88111D01*
X126232Y88042D01*
X126196Y87971D01*
X126164Y87898D01*
X126135Y87824D01*
X126110Y87748D01*
X126089Y87671D01*
X126071Y87594D01*
X126058Y87515D01*
X126048Y87436D01*
X126042Y87357D01*
X126040Y87277D01*
X126041Y87277D02*
X126041Y84681D01*
X126040Y84681D02*
X126042Y84601D01*
X126048Y84522D01*
X126058Y84443D01*
X126071Y84364D01*
X126089Y84287D01*
X126110Y84210D01*
X126135Y84134D01*
X126164Y84060D01*
X126196Y83987D01*
X126232Y83916D01*
X126271Y83847D01*
X126314Y83779D01*
X126359Y83714D01*
X126408Y83651D01*
X126460Y83591D01*
X126515Y83533D01*
X126573Y83478D01*
X126633Y83426D01*
X126696Y83377D01*
X126761Y83332D01*
X126829Y83289D01*
X126898Y83250D01*
X126969Y83214D01*
X127042Y83182D01*
X127116Y83153D01*
X127192Y83128D01*
X127269Y83107D01*
X127346Y83089D01*
X127425Y83076D01*
X127504Y83066D01*
X127583Y83060D01*
X127663Y83058D01*
X129286Y83058D01*
X159173Y84314D02*
X163068Y84314D01*
X161121Y82367D02*
X161121Y86261D01*
X156972Y87884D02*
X155025Y82042D01*
X153077Y87884D01*
X191093Y87884D02*
X193040Y82042D01*
X189145Y82042D02*
X191093Y87884D01*
X192553Y83503D02*
X189632Y83503D01*
X187000Y83665D02*
X187000Y86261D01*
X187001Y86261D02*
X186999Y86341D01*
X186993Y86420D01*
X186983Y86499D01*
X186970Y86578D01*
X186952Y86655D01*
X186931Y86732D01*
X186906Y86808D01*
X186877Y86882D01*
X186845Y86955D01*
X186809Y87026D01*
X186770Y87095D01*
X186727Y87163D01*
X186682Y87228D01*
X186633Y87291D01*
X186581Y87351D01*
X186526Y87409D01*
X186468Y87464D01*
X186408Y87516D01*
X186345Y87565D01*
X186280Y87610D01*
X186212Y87653D01*
X186143Y87692D01*
X186072Y87728D01*
X185999Y87760D01*
X185925Y87789D01*
X185849Y87814D01*
X185772Y87835D01*
X185695Y87853D01*
X185616Y87866D01*
X185537Y87876D01*
X185458Y87882D01*
X185378Y87884D01*
X185298Y87882D01*
X185219Y87876D01*
X185140Y87866D01*
X185061Y87853D01*
X184984Y87835D01*
X184907Y87814D01*
X184831Y87789D01*
X184757Y87760D01*
X184684Y87728D01*
X184613Y87692D01*
X184544Y87653D01*
X184476Y87610D01*
X184411Y87565D01*
X184348Y87516D01*
X184288Y87464D01*
X184230Y87409D01*
X184175Y87351D01*
X184123Y87291D01*
X184074Y87228D01*
X184029Y87163D01*
X183986Y87095D01*
X183947Y87026D01*
X183911Y86955D01*
X183879Y86882D01*
X183850Y86808D01*
X183825Y86732D01*
X183804Y86655D01*
X183786Y86578D01*
X183773Y86499D01*
X183763Y86420D01*
X183757Y86341D01*
X183755Y86261D01*
X183755Y83665D01*
X183757Y83585D01*
X183763Y83506D01*
X183773Y83427D01*
X183786Y83348D01*
X183804Y83271D01*
X183825Y83194D01*
X183850Y83118D01*
X183879Y83044D01*
X183911Y82971D01*
X183947Y82900D01*
X183986Y82831D01*
X184029Y82763D01*
X184074Y82698D01*
X184123Y82635D01*
X184175Y82575D01*
X184230Y82517D01*
X184288Y82462D01*
X184348Y82410D01*
X184411Y82361D01*
X184476Y82316D01*
X184544Y82273D01*
X184613Y82234D01*
X184684Y82198D01*
X184757Y82166D01*
X184831Y82137D01*
X184907Y82112D01*
X184984Y82091D01*
X185061Y82073D01*
X185140Y82060D01*
X185219Y82050D01*
X185298Y82044D01*
X185378Y82042D01*
X185458Y82044D01*
X185537Y82050D01*
X185616Y82060D01*
X185695Y82073D01*
X185772Y82091D01*
X185849Y82112D01*
X185925Y82137D01*
X185999Y82166D01*
X186072Y82198D01*
X186143Y82234D01*
X186212Y82273D01*
X186280Y82316D01*
X186345Y82361D01*
X186408Y82410D01*
X186468Y82462D01*
X186526Y82517D01*
X186581Y82575D01*
X186633Y82635D01*
X186682Y82698D01*
X186727Y82763D01*
X186770Y82831D01*
X186809Y82900D01*
X186845Y82971D01*
X186877Y83044D01*
X186906Y83118D01*
X186931Y83194D01*
X186952Y83271D01*
X186970Y83348D01*
X186983Y83427D01*
X186993Y83506D01*
X186999Y83585D01*
X187001Y83665D01*
X181095Y83665D02*
X181095Y87884D01*
X181095Y83665D02*
X181093Y83585D01*
X181087Y83506D01*
X181077Y83427D01*
X181064Y83348D01*
X181046Y83271D01*
X181025Y83194D01*
X181000Y83118D01*
X180971Y83044D01*
X180939Y82971D01*
X180903Y82900D01*
X180864Y82831D01*
X180821Y82763D01*
X180776Y82698D01*
X180727Y82635D01*
X180675Y82575D01*
X180620Y82517D01*
X180562Y82462D01*
X180502Y82410D01*
X180439Y82361D01*
X180374Y82316D01*
X180306Y82273D01*
X180237Y82234D01*
X180166Y82198D01*
X180093Y82166D01*
X180019Y82137D01*
X179943Y82112D01*
X179866Y82091D01*
X179789Y82073D01*
X179710Y82060D01*
X179631Y82050D01*
X179552Y82044D01*
X179472Y82042D01*
X179392Y82044D01*
X179313Y82050D01*
X179234Y82060D01*
X179155Y82073D01*
X179078Y82091D01*
X179001Y82112D01*
X178925Y82137D01*
X178851Y82166D01*
X178778Y82198D01*
X178707Y82234D01*
X178638Y82273D01*
X178570Y82316D01*
X178505Y82361D01*
X178442Y82410D01*
X178382Y82462D01*
X178324Y82517D01*
X178269Y82575D01*
X178217Y82635D01*
X178168Y82698D01*
X178123Y82763D01*
X178080Y82831D01*
X178041Y82900D01*
X178005Y82971D01*
X177973Y83044D01*
X177944Y83118D01*
X177919Y83194D01*
X177898Y83271D01*
X177880Y83348D01*
X177867Y83427D01*
X177857Y83506D01*
X177851Y83585D01*
X177849Y83665D01*
X177849Y87884D01*
X173948Y87884D02*
X173948Y82042D01*
X175571Y87884D02*
X172325Y87884D01*
M02*
