G04 EAGLE Gerber RS-274X export*
G75*
%MOMM*%
%FSLAX34Y34*%
%LPD*%
%INTop Copper*%
%IPPOS*%
%AMOC8*
5,1,8,0,0,1.08239X$1,22.5*%
G01*
%ADD10R,1.432556X0.477519*%
%ADD11R,1.508000X1.508000*%
%ADD12C,1.508000*%
%ADD13P,1.814519X8X112.500000*%
%ADD14P,1.814519X8X292.500000*%
%ADD15C,0.120000*%
%ADD16C,1.524000*%
%ADD17C,0.254000*%

G36*
X144272Y59700D02*
X144272Y59700D01*
X144390Y59715D01*
X144509Y59723D01*
X144547Y59735D01*
X144588Y59740D01*
X144698Y59784D01*
X144811Y59821D01*
X144846Y59842D01*
X144883Y59857D01*
X144980Y59927D01*
X145080Y59991D01*
X145108Y60021D01*
X145141Y60044D01*
X145217Y60136D01*
X145298Y60223D01*
X145318Y60258D01*
X145344Y60289D01*
X145394Y60397D01*
X145452Y60501D01*
X145462Y60540D01*
X145479Y60577D01*
X145501Y60694D01*
X145531Y60809D01*
X145535Y60869D01*
X145539Y60889D01*
X145537Y60910D01*
X145541Y60970D01*
X145541Y72626D01*
X145826Y72911D01*
X145899Y73006D01*
X145978Y73095D01*
X145997Y73131D01*
X146021Y73163D01*
X146069Y73272D01*
X146123Y73378D01*
X146132Y73417D01*
X146148Y73455D01*
X146166Y73572D01*
X146192Y73688D01*
X146191Y73729D01*
X146198Y73769D01*
X146186Y73887D01*
X146183Y74006D01*
X146172Y74045D01*
X146168Y74085D01*
X146127Y74197D01*
X146094Y74312D01*
X146074Y74346D01*
X146060Y74385D01*
X145993Y74483D01*
X145933Y74586D01*
X145893Y74631D01*
X145882Y74648D01*
X145866Y74661D01*
X145826Y74706D01*
X142950Y77582D01*
X142950Y102330D01*
X142933Y102467D01*
X142920Y102606D01*
X142913Y102625D01*
X142911Y102645D01*
X142860Y102774D01*
X142812Y102905D01*
X142801Y102922D01*
X142794Y102941D01*
X142712Y103053D01*
X142634Y103168D01*
X142619Y103182D01*
X142607Y103198D01*
X142499Y103287D01*
X142395Y103379D01*
X142377Y103388D01*
X142362Y103401D01*
X142236Y103460D01*
X142112Y103524D01*
X142092Y103528D01*
X142074Y103537D01*
X141938Y103563D01*
X141802Y103593D01*
X141782Y103593D01*
X141762Y103596D01*
X141623Y103588D01*
X141484Y103584D01*
X141464Y103578D01*
X141444Y103577D01*
X141312Y103534D01*
X141178Y103495D01*
X141161Y103485D01*
X141142Y103479D01*
X141024Y103404D01*
X140905Y103334D01*
X140884Y103315D01*
X140873Y103308D01*
X140859Y103293D01*
X140784Y103227D01*
X134814Y97257D01*
X131758Y97257D01*
X131633Y97241D01*
X131507Y97232D01*
X131476Y97221D01*
X131443Y97217D01*
X131326Y97171D01*
X131206Y97131D01*
X131178Y97112D01*
X131147Y97100D01*
X131045Y97026D01*
X130939Y96958D01*
X130917Y96933D01*
X130890Y96913D01*
X130809Y96816D01*
X130724Y96724D01*
X130708Y96694D01*
X130687Y96668D01*
X130633Y96554D01*
X130573Y96443D01*
X130565Y96411D01*
X130551Y96381D01*
X130528Y96257D01*
X130497Y96135D01*
X130498Y96101D01*
X130491Y96068D01*
X130499Y95943D01*
X130500Y95817D01*
X130504Y95800D01*
X130504Y94821D01*
X120613Y94821D01*
X120495Y94806D01*
X120376Y94799D01*
X120338Y94786D01*
X120298Y94781D01*
X120187Y94738D01*
X120074Y94701D01*
X120040Y94679D01*
X120002Y94664D01*
X119906Y94594D01*
X119805Y94531D01*
X119805Y94530D01*
X119777Y94501D01*
X119745Y94477D01*
X119744Y94477D01*
X119668Y94385D01*
X119587Y94299D01*
X119567Y94263D01*
X119541Y94232D01*
X119491Y94124D01*
X119433Y94020D01*
X119423Y93981D01*
X119406Y93944D01*
X119384Y93828D01*
X119354Y93712D01*
X119350Y93652D01*
X119346Y93632D01*
X119347Y93612D01*
X119344Y93551D01*
X119344Y88611D01*
X113449Y88611D01*
X112651Y88825D01*
X111935Y89239D01*
X111909Y89264D01*
X111831Y89325D01*
X111759Y89393D01*
X111706Y89422D01*
X111658Y89459D01*
X111567Y89498D01*
X111480Y89546D01*
X111422Y89561D01*
X111366Y89585D01*
X111268Y89601D01*
X111172Y89626D01*
X111072Y89632D01*
X111052Y89635D01*
X111040Y89634D01*
X111012Y89636D01*
X98936Y89636D01*
X98043Y90529D01*
X98043Y96899D01*
X98058Y96958D01*
X98065Y97058D01*
X98068Y97078D01*
X98067Y97091D01*
X98069Y97119D01*
X98069Y109536D01*
X98069Y116100D01*
X98962Y116993D01*
X114907Y116993D01*
X114932Y116987D01*
X115031Y116980D01*
X115051Y116977D01*
X115064Y116978D01*
X115093Y116977D01*
X128243Y116977D01*
X129488Y115732D01*
X129488Y111194D01*
X129500Y111096D01*
X129503Y110997D01*
X129520Y110939D01*
X129528Y110879D01*
X129564Y110787D01*
X129592Y110692D01*
X129622Y110640D01*
X129645Y110583D01*
X129703Y110503D01*
X129753Y110418D01*
X129819Y110342D01*
X129831Y110326D01*
X129841Y110318D01*
X129859Y110297D01*
X129876Y110280D01*
X130290Y109564D01*
X130504Y108765D01*
X130504Y107821D01*
X120613Y107821D01*
X120495Y107806D01*
X120376Y107799D01*
X120338Y107786D01*
X120298Y107781D01*
X120187Y107738D01*
X120074Y107701D01*
X120040Y107679D01*
X120002Y107664D01*
X119906Y107594D01*
X119805Y107531D01*
X119777Y107501D01*
X119745Y107477D01*
X119669Y107386D01*
X119587Y107299D01*
X119568Y107264D01*
X119542Y107233D01*
X119491Y107125D01*
X119434Y107021D01*
X119424Y106981D01*
X119406Y106945D01*
X119384Y106828D01*
X119354Y106713D01*
X119350Y106652D01*
X119347Y106632D01*
X119348Y106612D01*
X119344Y106552D01*
X119359Y106433D01*
X119366Y106315D01*
X119379Y106276D01*
X119384Y106236D01*
X119428Y106125D01*
X119464Y106012D01*
X119486Y105978D01*
X119501Y105940D01*
X119571Y105844D01*
X119635Y105744D01*
X119664Y105716D01*
X119688Y105683D01*
X119780Y105607D01*
X119866Y105526D01*
X119902Y105506D01*
X119933Y105480D01*
X120040Y105430D01*
X120145Y105372D01*
X120184Y105362D01*
X120220Y105345D01*
X120337Y105322D01*
X120453Y105293D01*
X120513Y105289D01*
X120533Y105285D01*
X120553Y105286D01*
X120613Y105282D01*
X130504Y105282D01*
X130504Y104260D01*
X130491Y104196D01*
X130494Y104163D01*
X130489Y104129D01*
X130503Y104004D01*
X130511Y103879D01*
X130522Y103847D01*
X130525Y103813D01*
X130570Y103696D01*
X130609Y103576D01*
X130627Y103548D01*
X130639Y103516D01*
X130712Y103414D01*
X130779Y103308D01*
X130804Y103285D01*
X130824Y103257D01*
X130920Y103176D01*
X131011Y103090D01*
X131041Y103073D01*
X131066Y103052D01*
X131180Y102997D01*
X131290Y102936D01*
X131322Y102928D01*
X131353Y102913D01*
X131476Y102888D01*
X131597Y102857D01*
X131646Y102854D01*
X131664Y102850D01*
X131686Y102851D01*
X131758Y102847D01*
X131973Y102847D01*
X132071Y102859D01*
X132170Y102862D01*
X132228Y102879D01*
X132288Y102886D01*
X132380Y102923D01*
X132475Y102950D01*
X132528Y102981D01*
X132584Y103003D01*
X132664Y103062D01*
X132749Y103112D01*
X132825Y103178D01*
X132841Y103190D01*
X132846Y103196D01*
X132849Y103198D01*
X132854Y103204D01*
X132870Y103218D01*
X169224Y139572D01*
X169285Y139650D01*
X169353Y139722D01*
X169382Y139775D01*
X169419Y139823D01*
X169458Y139914D01*
X169506Y140001D01*
X169521Y140060D01*
X169545Y140115D01*
X169561Y140213D01*
X169585Y140309D01*
X169592Y140409D01*
X169595Y140429D01*
X169594Y140442D01*
X169596Y140470D01*
X169596Y156733D01*
X170508Y157645D01*
X170628Y157656D01*
X170647Y157663D01*
X170667Y157666D01*
X170796Y157717D01*
X170927Y157764D01*
X170944Y157775D01*
X170963Y157783D01*
X171075Y157864D01*
X171190Y157942D01*
X171204Y157958D01*
X171220Y157969D01*
X171309Y158077D01*
X171401Y158181D01*
X171410Y158199D01*
X171423Y158214D01*
X171482Y158340D01*
X171545Y158464D01*
X171550Y158484D01*
X171558Y158502D01*
X171585Y158639D01*
X171615Y158774D01*
X171614Y158795D01*
X171618Y158814D01*
X171610Y158953D01*
X171605Y159092D01*
X171600Y159112D01*
X171598Y159132D01*
X171556Y159264D01*
X171517Y159398D01*
X171507Y159415D01*
X171500Y159434D01*
X171426Y159552D01*
X171355Y159672D01*
X171337Y159693D01*
X171330Y159703D01*
X171315Y159717D01*
X171249Y159792D01*
X169819Y161222D01*
X169741Y161283D01*
X169669Y161351D01*
X169616Y161380D01*
X169568Y161417D01*
X169477Y161457D01*
X169390Y161504D01*
X169332Y161520D01*
X169276Y161544D01*
X169178Y161559D01*
X169082Y161584D01*
X168982Y161590D01*
X168962Y161593D01*
X168950Y161592D01*
X168922Y161594D01*
X110973Y161594D01*
X110854Y161579D01*
X110736Y161572D01*
X110697Y161559D01*
X110657Y161554D01*
X110546Y161510D01*
X110433Y161474D01*
X110399Y161452D01*
X110361Y161437D01*
X110265Y161367D01*
X110164Y161304D01*
X110137Y161274D01*
X110104Y161250D01*
X110028Y161159D01*
X109947Y161072D01*
X109927Y161037D01*
X109901Y161005D01*
X109850Y160898D01*
X109793Y160793D01*
X109783Y160754D01*
X109766Y160718D01*
X109743Y160601D01*
X109714Y160486D01*
X109710Y160425D01*
X109706Y160405D01*
X109707Y160385D01*
X109703Y160325D01*
X109703Y154088D01*
X103900Y148284D01*
X95693Y148284D01*
X89890Y154088D01*
X89890Y162295D01*
X91648Y164052D01*
X91660Y164068D01*
X91675Y164081D01*
X91757Y164193D01*
X91843Y164304D01*
X91850Y164322D01*
X91862Y164338D01*
X91913Y164468D01*
X91969Y164596D01*
X91972Y164615D01*
X91979Y164634D01*
X91997Y164772D01*
X92019Y164910D01*
X92017Y164930D01*
X92019Y164949D01*
X92002Y165087D01*
X91989Y165226D01*
X91982Y165245D01*
X91980Y165265D01*
X91929Y165394D01*
X91881Y165526D01*
X91870Y165542D01*
X91863Y165561D01*
X91781Y165673D01*
X91703Y165789D01*
X91688Y165802D01*
X91676Y165818D01*
X91569Y165907D01*
X91464Y165999D01*
X91447Y166008D01*
X91431Y166021D01*
X91305Y166080D01*
X91181Y166144D01*
X91162Y166148D01*
X91144Y166157D01*
X91007Y166183D01*
X90871Y166213D01*
X90851Y166213D01*
X90831Y166217D01*
X90692Y166208D01*
X90553Y166204D01*
X90534Y166198D01*
X90514Y166197D01*
X90358Y166157D01*
X88975Y165708D01*
X88868Y165657D01*
X88757Y165614D01*
X88706Y165581D01*
X88687Y165572D01*
X88672Y165559D01*
X88621Y165527D01*
X86050Y163659D01*
X85963Y163578D01*
X85872Y163502D01*
X85833Y163455D01*
X85818Y163441D01*
X85807Y163424D01*
X85769Y163378D01*
X83901Y160807D01*
X83843Y160703D01*
X83780Y160602D01*
X83757Y160546D01*
X83747Y160528D01*
X83742Y160508D01*
X83720Y160453D01*
X82738Y157430D01*
X82725Y157362D01*
X82703Y157296D01*
X82680Y157137D01*
X82555Y155548D01*
X82556Y155526D01*
X82551Y155448D01*
X82551Y85344D01*
X82566Y85226D01*
X82573Y85107D01*
X82586Y85069D01*
X82591Y85028D01*
X82634Y84918D01*
X82671Y84805D01*
X82693Y84770D01*
X82708Y84733D01*
X82777Y84637D01*
X82841Y84536D01*
X82871Y84508D01*
X82894Y84475D01*
X82986Y84400D01*
X83073Y84318D01*
X83108Y84298D01*
X83139Y84273D01*
X83247Y84222D01*
X83351Y84164D01*
X83391Y84154D01*
X83427Y84137D01*
X83544Y84115D01*
X83659Y84085D01*
X83719Y84081D01*
X83739Y84077D01*
X83760Y84079D01*
X83820Y84075D01*
X93475Y84075D01*
X93484Y84076D01*
X93493Y84075D01*
X93642Y84096D01*
X93790Y84115D01*
X93799Y84118D01*
X93808Y84119D01*
X93961Y84171D01*
X98860Y86201D01*
X106880Y86201D01*
X114290Y83131D01*
X119961Y77460D01*
X121597Y73512D01*
X121670Y73383D01*
X121742Y73253D01*
X121749Y73245D01*
X121754Y73236D01*
X121858Y73129D01*
X121960Y73021D01*
X121968Y73015D01*
X121975Y73008D01*
X122103Y72929D01*
X122228Y72850D01*
X122238Y72847D01*
X122247Y72841D01*
X122389Y72798D01*
X122530Y72752D01*
X122541Y72751D01*
X122551Y72748D01*
X122699Y72741D01*
X122848Y72731D01*
X122858Y72733D01*
X122868Y72733D01*
X123014Y72763D01*
X123160Y72791D01*
X123170Y72795D01*
X123180Y72797D01*
X123313Y72862D01*
X123448Y72926D01*
X123456Y72932D01*
X123465Y72937D01*
X123578Y73033D01*
X123693Y73128D01*
X123702Y73139D01*
X123707Y73143D01*
X123716Y73155D01*
X123796Y73252D01*
X124177Y73777D01*
X125308Y74908D01*
X126602Y75848D01*
X128027Y76574D01*
X129388Y77016D01*
X129388Y68428D01*
X129403Y68310D01*
X129411Y68191D01*
X129423Y68152D01*
X129428Y68112D01*
X129472Y68001D01*
X129509Y67888D01*
X129530Y67854D01*
X129545Y67817D01*
X129615Y67720D01*
X129679Y67620D01*
X129708Y67592D01*
X129732Y67559D01*
X129824Y67483D01*
X129910Y67402D01*
X129946Y67382D01*
X129977Y67356D01*
X130085Y67306D01*
X130189Y67248D01*
X130228Y67238D01*
X130265Y67221D01*
X130382Y67198D01*
X130497Y67169D01*
X130557Y67165D01*
X130577Y67161D01*
X130597Y67162D01*
X130658Y67158D01*
X131928Y67158D01*
X131928Y65888D01*
X131943Y65769D01*
X131951Y65651D01*
X131963Y65612D01*
X131968Y65572D01*
X132012Y65461D01*
X132049Y65348D01*
X132070Y65314D01*
X132085Y65276D01*
X132155Y65180D01*
X132219Y65079D01*
X132248Y65052D01*
X132272Y65019D01*
X132364Y64943D01*
X132451Y64862D01*
X132486Y64842D01*
X132517Y64816D01*
X132625Y64766D01*
X132729Y64708D01*
X132768Y64698D01*
X132805Y64681D01*
X132922Y64658D01*
X133037Y64629D01*
X133097Y64625D01*
X133117Y64621D01*
X133138Y64622D01*
X133198Y64618D01*
X141786Y64618D01*
X141344Y63257D01*
X140618Y61832D01*
X140533Y61715D01*
X140514Y61680D01*
X140488Y61649D01*
X140437Y61541D01*
X140380Y61437D01*
X140370Y61398D01*
X140353Y61362D01*
X140330Y61244D01*
X140300Y61129D01*
X140300Y61089D01*
X140293Y61049D01*
X140300Y60930D01*
X140300Y60810D01*
X140310Y60772D01*
X140313Y60732D01*
X140350Y60618D01*
X140379Y60502D01*
X140398Y60467D01*
X140411Y60429D01*
X140475Y60328D01*
X140532Y60224D01*
X140560Y60195D01*
X140581Y60161D01*
X140668Y60079D01*
X140750Y59992D01*
X140784Y59970D01*
X140813Y59943D01*
X140917Y59885D01*
X141018Y59821D01*
X141056Y59809D01*
X141091Y59789D01*
X141207Y59760D01*
X141321Y59723D01*
X141361Y59720D01*
X141399Y59710D01*
X141560Y59700D01*
X144272Y59700D01*
G37*
%LPC*%
G36*
X101828Y134822D02*
X101828Y134822D01*
X101828Y143714D01*
X104321Y143714D01*
X110719Y137316D01*
X110719Y134822D01*
X101828Y134822D01*
G37*
%LPD*%
%LPC*%
G36*
X88874Y134822D02*
X88874Y134822D01*
X88874Y137316D01*
X95272Y143714D01*
X97765Y143714D01*
X97765Y134822D01*
X88874Y134822D01*
G37*
%LPD*%
%LPC*%
G36*
X101828Y121868D02*
X101828Y121868D01*
X101828Y130760D01*
X110719Y130760D01*
X110719Y128267D01*
X104321Y121868D01*
X101828Y121868D01*
G37*
%LPD*%
%LPC*%
G36*
X95272Y121868D02*
X95272Y121868D01*
X88874Y128267D01*
X88874Y130760D01*
X97765Y130760D01*
X97765Y121868D01*
X95272Y121868D01*
G37*
%LPD*%
%LPC*%
G36*
X134467Y69697D02*
X134467Y69697D01*
X134467Y77016D01*
X135828Y76574D01*
X137253Y75848D01*
X138180Y75174D01*
X138547Y74908D01*
X139678Y73777D01*
X140618Y72483D01*
X141344Y71058D01*
X141786Y69697D01*
X134467Y69697D01*
G37*
%LPD*%
%LPC*%
G36*
X130160Y151060D02*
X130160Y151060D01*
X130160Y158348D01*
X131530Y157903D01*
X132944Y157183D01*
X134228Y156250D01*
X135350Y155128D01*
X136282Y153844D01*
X137003Y152431D01*
X137448Y151060D01*
X130160Y151060D01*
G37*
%LPD*%
%LPC*%
G36*
X117873Y151060D02*
X117873Y151060D01*
X118318Y152431D01*
X119039Y153844D01*
X119971Y155128D01*
X121093Y156250D01*
X122377Y157183D01*
X123791Y157903D01*
X125161Y158348D01*
X125161Y151060D01*
X117873Y151060D01*
G37*
%LPD*%
%LPC*%
G36*
X130160Y146062D02*
X130160Y146062D01*
X137448Y146062D01*
X137003Y144691D01*
X136282Y143278D01*
X135350Y141994D01*
X134228Y140872D01*
X132944Y139939D01*
X131530Y139219D01*
X130160Y138774D01*
X130160Y146062D01*
G37*
%LPD*%
%LPC*%
G36*
X123791Y139219D02*
X123791Y139219D01*
X122377Y139939D01*
X121093Y140872D01*
X119971Y141994D01*
X119039Y143278D01*
X118318Y144691D01*
X117873Y146062D01*
X125161Y146062D01*
X125161Y138774D01*
X123791Y139219D01*
G37*
%LPD*%
%LPC*%
G36*
X121882Y88611D02*
X121882Y88611D01*
X121882Y92282D01*
X130504Y92282D01*
X130504Y91338D01*
X130290Y90539D01*
X129876Y89823D01*
X129291Y89239D01*
X128575Y88825D01*
X127777Y88611D01*
X121882Y88611D01*
G37*
%LPD*%
D10*
X106756Y106553D03*
X106756Y113081D03*
X106756Y100076D03*
X106731Y93548D03*
X177343Y106502D03*
X177343Y113030D03*
X177343Y100025D03*
X177317Y93497D03*
D11*
X178660Y148561D03*
D12*
X127660Y148561D03*
D13*
X221183Y110236D03*
X221183Y135636D03*
D14*
X199847Y144501D03*
X199847Y93701D03*
D13*
X99797Y132791D03*
X99797Y158191D03*
D15*
X113863Y111252D02*
X127363Y111252D01*
X113863Y111252D02*
X113863Y114852D01*
X127363Y114852D01*
X127363Y111252D01*
X127363Y112392D02*
X113863Y112392D01*
X113863Y113532D02*
X127363Y113532D01*
X127363Y114672D02*
X113863Y114672D01*
X113863Y104752D02*
X127363Y104752D01*
X113863Y104752D02*
X113863Y108352D01*
X127363Y108352D01*
X127363Y104752D01*
X127363Y105892D02*
X113863Y105892D01*
X113863Y107032D02*
X127363Y107032D01*
X127363Y108172D02*
X113863Y108172D01*
X113863Y98252D02*
X127363Y98252D01*
X113863Y98252D02*
X113863Y101852D01*
X127363Y101852D01*
X127363Y98252D01*
X127363Y99392D02*
X113863Y99392D01*
X113863Y100532D02*
X127363Y100532D01*
X127363Y101672D02*
X113863Y101672D01*
X113863Y91752D02*
X127363Y91752D01*
X113863Y91752D02*
X113863Y95352D01*
X127363Y95352D01*
X127363Y91752D01*
X127363Y92892D02*
X113863Y92892D01*
X113863Y94032D02*
X127363Y94032D01*
X127363Y95172D02*
X113863Y95172D01*
X156863Y91752D02*
X170363Y91752D01*
X156863Y91752D02*
X156863Y95352D01*
X170363Y95352D01*
X170363Y91752D01*
X170363Y92892D02*
X156863Y92892D01*
X156863Y94032D02*
X170363Y94032D01*
X170363Y95172D02*
X156863Y95172D01*
X156863Y98252D02*
X170363Y98252D01*
X156863Y98252D02*
X156863Y101852D01*
X170363Y101852D01*
X170363Y98252D01*
X170363Y99392D02*
X156863Y99392D01*
X156863Y100532D02*
X170363Y100532D01*
X170363Y101672D02*
X156863Y101672D01*
X156863Y104752D02*
X170363Y104752D01*
X156863Y104752D02*
X156863Y108352D01*
X170363Y108352D01*
X170363Y104752D01*
X170363Y105892D02*
X156863Y105892D01*
X156863Y107032D02*
X170363Y107032D01*
X170363Y108172D02*
X156863Y108172D01*
X156863Y111252D02*
X170363Y111252D01*
X156863Y111252D02*
X156863Y114852D01*
X170363Y114852D01*
X170363Y111252D01*
X170363Y112392D02*
X156863Y112392D01*
X156863Y113532D02*
X170363Y113532D01*
X170363Y114672D02*
X156863Y114672D01*
D16*
X131928Y67158D03*
X157328Y67158D03*
X182728Y67158D03*
D17*
X129286Y148561D02*
X127660Y148561D01*
X129286Y148561D02*
X135458Y142389D01*
X133063Y106552D02*
X120613Y106552D01*
X135458Y108947D02*
X135458Y142389D01*
X135458Y108947D02*
X133063Y106552D01*
X120613Y106552D02*
X96087Y106552D01*
X94945Y105410D01*
X94945Y94717D01*
X96110Y93552D01*
X120613Y93552D01*
X94945Y127940D02*
X99797Y132791D01*
X94945Y127940D02*
X94945Y107694D01*
X96087Y106552D01*
X120613Y93552D02*
X139446Y93552D01*
X139446Y74676D02*
X131928Y67158D01*
X139446Y74676D02*
X139446Y93552D01*
X133656Y100052D02*
X120613Y100052D01*
X178564Y144960D02*
X178564Y148561D01*
X178660Y148561D01*
X178564Y144960D02*
X133656Y100052D01*
X104292Y164389D02*
X170605Y164389D01*
X104292Y164389D02*
X99797Y159893D01*
X99797Y158191D01*
X178660Y156333D02*
X178660Y148561D01*
X178660Y156333D02*
X170605Y164389D01*
X199847Y144900D02*
X199847Y144501D01*
X199847Y144900D02*
X196186Y148561D01*
X178660Y148561D01*
X199847Y144501D02*
X202667Y141681D01*
X215138Y141681D02*
X221183Y135636D01*
X215138Y141681D02*
X202667Y141681D01*
X163613Y106552D02*
X150571Y106552D01*
X145745Y101726D01*
X145745Y78740D01*
X157328Y67158D01*
X221183Y97714D02*
X221183Y110236D01*
X221183Y97714D02*
X217170Y93701D01*
X199847Y93701D01*
X200050Y93497D01*
X199847Y93701D02*
X195148Y93701D01*
X189178Y99671D01*
X163994Y99671D01*
X163613Y100052D01*
X151282Y100052D01*
X151282Y88443D01*
X166472Y83414D02*
X182728Y67158D01*
X166472Y83414D02*
X156312Y83414D01*
X151282Y88443D01*
M02*
