G04 EAGLE Gerber RS-274X export*
G75*
%MOMM*%
%FSLAX34Y34*%
%LPD*%
%IN*%
%IPPOS*%
%AMOC8*
5,1,8,0,0,1.08239X$1,22.5*%
G01*
%ADD10C,0.254000*%


D10*
X71120Y76200D02*
X71169Y73818D01*
X71425Y71449D01*
X71886Y69111D01*
X72550Y66823D01*
X73410Y64601D01*
X74461Y62462D01*
X75694Y60424D01*
X77100Y58500D01*
X78668Y56706D01*
X80387Y55056D01*
X82243Y53562D01*
X84223Y52236D01*
X86310Y51087D01*
X88489Y50124D01*
X90745Y49355D01*
X93058Y48785D01*
X95413Y48419D01*
X97790Y48260D01*
X219685Y48285D01*
X221513Y48310D01*
X223333Y48494D01*
X225130Y48835D01*
X226890Y49332D01*
X228600Y49980D01*
X230247Y50775D01*
X231819Y51711D01*
X233303Y52780D01*
X234688Y53974D01*
X235964Y55284D01*
X237121Y56701D01*
X238150Y58213D01*
X239043Y59809D01*
X239794Y61477D01*
X240396Y63204D01*
X240846Y64976D01*
X241140Y66781D01*
X241275Y68605D01*
X241275Y155473D01*
X241188Y157466D01*
X240927Y159443D01*
X240496Y161390D01*
X239896Y163292D01*
X239133Y165134D01*
X238212Y166903D01*
X237140Y168585D01*
X235926Y170168D01*
X234579Y171638D01*
X233109Y172985D01*
X231527Y174199D01*
X229845Y175271D01*
X228076Y176192D01*
X226233Y176955D01*
X224331Y177554D01*
X222384Y177986D01*
X220407Y178246D01*
X218415Y178333D01*
X93980Y178308D01*
X91988Y178221D01*
X90010Y177961D01*
X88063Y177529D01*
X86161Y176929D01*
X84319Y176166D01*
X82550Y175245D01*
X80868Y174174D01*
X79286Y172960D01*
X77816Y171612D01*
X76468Y170142D01*
X75254Y168560D01*
X74183Y166878D01*
X73262Y165109D01*
X72499Y163267D01*
X71899Y161365D01*
X71467Y159418D01*
X71207Y157440D01*
X71120Y155448D01*
X71120Y76200D01*
X112870Y65603D02*
X112794Y64734D01*
X112642Y63874D01*
X112416Y63030D01*
X112118Y62210D01*
X111749Y61418D01*
X111312Y60662D01*
X110811Y59947D01*
X110250Y59278D01*
X109632Y58660D01*
X108963Y58099D01*
X108248Y57598D01*
X107492Y57161D01*
X106700Y56792D01*
X105880Y56494D01*
X105036Y56268D01*
X104177Y56116D01*
X103307Y56040D01*
X102433Y56040D01*
X101564Y56116D01*
X100704Y56268D01*
X99860Y56494D01*
X99040Y56792D01*
X98248Y57161D01*
X97492Y57598D01*
X96777Y58099D01*
X96108Y58660D01*
X95490Y59278D01*
X94929Y59947D01*
X94428Y60662D01*
X93991Y61418D01*
X93622Y62210D01*
X93324Y63030D01*
X93098Y63874D01*
X92946Y64734D01*
X92870Y65603D01*
X92870Y66477D01*
X92946Y67347D01*
X93098Y68206D01*
X93324Y69050D01*
X93622Y69870D01*
X93991Y70662D01*
X94428Y71418D01*
X94929Y72133D01*
X95490Y72802D01*
X96108Y73420D01*
X96777Y73981D01*
X97492Y74482D01*
X98248Y74919D01*
X99040Y75288D01*
X99860Y75586D01*
X100704Y75812D01*
X101564Y75964D01*
X102433Y76040D01*
X103307Y76040D01*
X104177Y75964D01*
X105036Y75812D01*
X105880Y75586D01*
X106700Y75288D01*
X107492Y74919D01*
X108248Y74482D01*
X108963Y73981D01*
X109632Y73420D01*
X110250Y72802D01*
X110811Y72133D01*
X111312Y71418D01*
X111749Y70662D01*
X112118Y69870D01*
X112416Y69050D01*
X112642Y68206D01*
X112794Y67347D01*
X112870Y66477D01*
X112870Y65603D01*
X221836Y66619D02*
X221760Y65750D01*
X221608Y64890D01*
X221382Y64046D01*
X221084Y63226D01*
X220715Y62434D01*
X220278Y61678D01*
X219777Y60963D01*
X219216Y60294D01*
X218598Y59676D01*
X217929Y59115D01*
X217214Y58614D01*
X216458Y58177D01*
X215666Y57808D01*
X214846Y57510D01*
X214002Y57284D01*
X213143Y57132D01*
X212273Y57056D01*
X211399Y57056D01*
X210530Y57132D01*
X209670Y57284D01*
X208826Y57510D01*
X208006Y57808D01*
X207214Y58177D01*
X206458Y58614D01*
X205743Y59115D01*
X205074Y59676D01*
X204456Y60294D01*
X203895Y60963D01*
X203394Y61678D01*
X202957Y62434D01*
X202588Y63226D01*
X202290Y64046D01*
X202064Y64890D01*
X201912Y65750D01*
X201836Y66619D01*
X201836Y67493D01*
X201912Y68363D01*
X202064Y69222D01*
X202290Y70066D01*
X202588Y70886D01*
X202957Y71678D01*
X203394Y72434D01*
X203895Y73149D01*
X204456Y73818D01*
X205074Y74436D01*
X205743Y74997D01*
X206458Y75498D01*
X207214Y75935D01*
X208006Y76304D01*
X208826Y76602D01*
X209670Y76828D01*
X210530Y76980D01*
X211399Y77056D01*
X212273Y77056D01*
X213143Y76980D01*
X214002Y76828D01*
X214846Y76602D01*
X215666Y76304D01*
X216458Y75935D01*
X217214Y75498D01*
X217929Y74997D01*
X218598Y74436D01*
X219216Y73818D01*
X219777Y73149D01*
X220278Y72434D01*
X220715Y71678D01*
X221084Y70886D01*
X221382Y70066D01*
X221608Y69222D01*
X221760Y68363D01*
X221836Y67493D01*
X221836Y66619D01*
M02*
