G04 EAGLE Gerber RS-274X export*
G75*
%MOMM*%
%FSLAX34Y34*%
%LPD*%
%INSolderpaste Top*%
%IPPOS*%
%AMOC8*
5,1,8,0,0,1.08239X$1,22.5*%
G01*
%ADD10R,1.432556X0.477519*%
%ADD11C,0.120000*%


D10*
X106680Y106553D03*
X106680Y113081D03*
X106680Y100076D03*
X106655Y93548D03*
X177343Y106502D03*
X177343Y113030D03*
X177343Y100025D03*
X177317Y93497D03*
D11*
X127363Y111252D02*
X113863Y111252D01*
X113863Y114852D01*
X127363Y114852D01*
X127363Y111252D01*
X127363Y112392D02*
X113863Y112392D01*
X113863Y113532D02*
X127363Y113532D01*
X127363Y114672D02*
X113863Y114672D01*
X113863Y104752D02*
X127363Y104752D01*
X113863Y104752D02*
X113863Y108352D01*
X127363Y108352D01*
X127363Y104752D01*
X127363Y105892D02*
X113863Y105892D01*
X113863Y107032D02*
X127363Y107032D01*
X127363Y108172D02*
X113863Y108172D01*
X113863Y98252D02*
X127363Y98252D01*
X113863Y98252D02*
X113863Y101852D01*
X127363Y101852D01*
X127363Y98252D01*
X127363Y99392D02*
X113863Y99392D01*
X113863Y100532D02*
X127363Y100532D01*
X127363Y101672D02*
X113863Y101672D01*
X113863Y91752D02*
X127363Y91752D01*
X113863Y91752D02*
X113863Y95352D01*
X127363Y95352D01*
X127363Y91752D01*
X127363Y92892D02*
X113863Y92892D01*
X113863Y94032D02*
X127363Y94032D01*
X127363Y95172D02*
X113863Y95172D01*
X156863Y91752D02*
X170363Y91752D01*
X156863Y91752D02*
X156863Y95352D01*
X170363Y95352D01*
X170363Y91752D01*
X170363Y92892D02*
X156863Y92892D01*
X156863Y94032D02*
X170363Y94032D01*
X170363Y95172D02*
X156863Y95172D01*
X156863Y98252D02*
X170363Y98252D01*
X156863Y98252D02*
X156863Y101852D01*
X170363Y101852D01*
X170363Y98252D01*
X170363Y99392D02*
X156863Y99392D01*
X156863Y100532D02*
X170363Y100532D01*
X170363Y101672D02*
X156863Y101672D01*
X156863Y104752D02*
X170363Y104752D01*
X156863Y104752D02*
X156863Y108352D01*
X170363Y108352D01*
X170363Y104752D01*
X170363Y105892D02*
X156863Y105892D01*
X156863Y107032D02*
X170363Y107032D01*
X170363Y108172D02*
X156863Y108172D01*
X156863Y111252D02*
X170363Y111252D01*
X156863Y111252D02*
X156863Y114852D01*
X170363Y114852D01*
X170363Y111252D01*
X170363Y112392D02*
X156863Y112392D01*
X156863Y113532D02*
X170363Y113532D01*
X170363Y114672D02*
X156863Y114672D01*
M02*
