G04 EAGLE Gerber RS-274X export*
G75*
%MOMM*%
%FSLAX34Y34*%
%LPD*%
%INBottom Copper*%
%IPPOS*%
%AMOC8*
5,1,8,0,0,1.08239X$1,22.5*%
G01*
%ADD10C,0.975000*%
%ADD11C,0.914400*%
%ADD12P,1.484606X8X112.500000*%
%ADD13P,1.924489X8X22.500000*%
%ADD14P,1.319650X8X202.500000*%
%ADD15P,1.732040X8X22.500000*%
%ADD16P,1.623585X8X22.500000*%
%ADD17C,0.152400*%
%ADD18C,0.654800*%


D10*
X-40894Y683514D03*
X-40894Y670814D03*
X-40894Y658114D03*
X-40894Y645414D03*
X-40894Y632714D03*
X-40894Y620014D03*
X-40894Y607314D03*
X-40894Y594614D03*
X-40894Y581914D03*
X-40894Y569214D03*
X-53594Y569214D03*
X-53594Y581914D03*
X-53594Y594614D03*
X-53594Y607314D03*
X-53594Y620014D03*
X-53594Y632714D03*
X-53594Y645414D03*
X-53594Y658114D03*
X-53594Y670814D03*
X-53594Y683514D03*
X-284734Y678434D03*
X-284734Y665734D03*
X-284734Y653034D03*
X-284734Y640334D03*
X-284734Y627634D03*
X-284734Y614934D03*
X-284734Y602234D03*
X-284734Y589534D03*
X-284734Y576834D03*
X-284734Y564134D03*
X-297434Y564134D03*
X-297434Y576834D03*
X-297434Y589534D03*
X-297434Y602234D03*
X-297434Y614934D03*
X-297434Y627634D03*
X-297434Y640334D03*
X-297434Y653034D03*
X-297434Y665734D03*
X-297434Y678434D03*
D11*
X7874Y318516D03*
X20574Y318516D03*
X7874Y331216D03*
X20574Y331216D03*
X7874Y343916D03*
X20574Y343916D03*
X7874Y356616D03*
X20574Y356616D03*
X7874Y369316D03*
X20574Y369316D03*
X7874Y382016D03*
X20574Y382016D03*
X7874Y394716D03*
X20574Y394716D03*
X7874Y407416D03*
X20574Y407416D03*
D12*
X-786638Y488442D03*
X-761238Y488442D03*
X-786638Y513842D03*
X-761238Y513842D03*
X-786638Y539242D03*
X-761238Y539242D03*
X-786638Y564642D03*
X-761238Y564642D03*
X-786638Y590042D03*
X-761238Y590042D03*
X-786638Y615442D03*
X-761238Y615442D03*
X-786638Y640842D03*
X-761238Y640842D03*
X-786638Y666242D03*
X-761238Y666242D03*
X-786638Y691642D03*
X-761238Y691642D03*
X-786638Y717042D03*
X-761238Y717042D03*
X-885190Y486918D03*
X-859790Y486918D03*
X-885190Y512318D03*
X-859790Y512318D03*
X-885190Y537718D03*
X-859790Y537718D03*
X-885190Y563118D03*
X-859790Y563118D03*
X-885190Y588518D03*
X-859790Y588518D03*
X-885190Y613918D03*
X-859790Y613918D03*
X-885190Y639318D03*
X-859790Y639318D03*
X-885190Y664718D03*
X-859790Y664718D03*
X-885190Y690118D03*
X-859790Y690118D03*
X-885190Y715518D03*
X-859790Y715518D03*
X-596900Y514096D03*
X-622300Y514096D03*
X-596900Y539496D03*
X-622300Y539496D03*
X-596900Y564896D03*
X-622300Y564896D03*
X-596900Y590296D03*
X-622300Y590296D03*
X-596900Y615696D03*
X-622300Y615696D03*
X-596900Y641096D03*
X-622300Y641096D03*
X-596900Y666496D03*
X-622300Y666496D03*
X-596900Y691896D03*
X-622300Y691896D03*
D13*
X-385826Y493268D03*
X-385826Y518668D03*
X-385826Y544068D03*
X-385826Y569468D03*
X-385826Y594868D03*
X-385826Y620268D03*
X-385826Y645668D03*
X-385826Y671068D03*
X-385826Y696468D03*
X-385826Y721868D03*
D11*
X-278384Y440944D03*
X-291084Y440944D03*
X-278384Y453644D03*
X-291084Y453644D03*
X-278384Y466344D03*
X-291084Y466344D03*
X-278384Y479044D03*
X-291084Y479044D03*
X-278384Y491744D03*
X-291084Y491744D03*
X-278384Y504444D03*
X-291084Y504444D03*
X-278384Y517144D03*
X-291084Y517144D03*
X-278384Y529844D03*
X-291084Y529844D03*
X-216662Y261112D03*
X-229362Y261112D03*
X-216662Y273812D03*
X-229362Y273812D03*
X-216662Y286512D03*
X-229362Y286512D03*
X-216662Y299212D03*
X-229362Y299212D03*
X-216662Y311912D03*
X-229362Y311912D03*
X-216662Y324612D03*
X-229362Y324612D03*
X-216662Y337312D03*
X-229362Y337312D03*
X-216662Y350012D03*
X-229362Y350012D03*
D14*
X-424688Y523240D03*
X-475488Y523240D03*
X-424688Y545846D03*
X-475488Y545846D03*
X-424688Y568706D03*
X-475488Y568706D03*
X-424434Y591820D03*
X-475234Y591820D03*
X-424434Y613664D03*
X-475234Y613664D03*
X-423926Y636270D03*
X-474726Y636270D03*
X-423926Y658622D03*
X-474726Y658622D03*
X-423672Y680466D03*
X-474472Y680466D03*
X-506730Y533146D03*
X-557530Y533146D03*
X-506730Y555752D03*
X-557530Y555752D03*
X-506730Y578612D03*
X-557530Y578612D03*
X-506476Y601726D03*
X-557276Y601726D03*
X-506476Y623570D03*
X-557276Y623570D03*
X-505968Y646176D03*
X-556768Y646176D03*
X-505968Y668528D03*
X-556768Y668528D03*
X-505714Y690372D03*
X-556514Y690372D03*
D15*
X-691388Y506730D03*
X-665988Y506730D03*
X-691388Y534416D03*
X-665988Y534416D03*
X-691388Y561848D03*
X-665988Y561848D03*
X-691388Y589280D03*
X-665988Y589280D03*
X-691388Y616966D03*
X-665988Y616966D03*
X-691388Y644906D03*
X-665988Y644906D03*
X-691388Y673100D03*
X-665988Y673100D03*
X-691388Y701548D03*
X-665988Y701548D03*
D14*
X-423672Y702310D03*
X-474472Y702310D03*
X-423672Y724662D03*
X-474472Y724662D03*
D16*
X-597408Y402844D03*
X-572008Y402844D03*
X-546608Y402844D03*
X-521208Y402844D03*
X-495808Y402844D03*
X-470408Y402844D03*
X-445008Y402844D03*
X-419608Y402844D03*
D17*
X-786638Y615442D02*
X-803910Y632714D01*
X-803910Y721360D01*
X-784098Y741172D01*
X-278384Y529844D02*
X-267208Y529844D01*
X-245872Y551180D01*
X-258826Y440944D02*
X-278384Y440944D01*
X-245872Y453898D02*
X-245872Y467868D01*
X-245872Y482600D01*
X-245872Y494538D01*
X-245872Y508508D01*
X-245872Y521970D01*
X-245872Y535940D01*
X-245872Y551180D01*
X-245872Y453898D02*
X-258826Y440944D01*
X-262128Y466344D02*
X-278384Y466344D01*
X-262128Y466344D02*
X-245872Y482600D01*
X-261366Y479044D02*
X-278384Y479044D01*
X-261366Y479044D02*
X-245872Y494538D01*
X-262636Y491744D02*
X-278384Y491744D01*
X-262636Y491744D02*
X-245872Y508508D01*
X-263398Y504444D02*
X-278384Y504444D01*
X-263398Y504444D02*
X-245872Y521970D01*
X-264668Y517144D02*
X-278384Y517144D01*
X-264668Y517144D02*
X-245872Y535940D01*
X-245872Y551180D02*
X-245872Y560832D01*
X-260096Y453644D02*
X-278384Y453644D01*
X-260096Y453644D02*
X-245872Y467868D01*
X-834136Y461264D02*
X-859790Y486918D01*
X-341244Y518292D02*
X-341244Y518536D01*
D18*
X-341244Y518536D03*
D17*
X-582422Y461264D02*
X-834136Y461264D01*
X-341244Y518292D02*
X-341122Y518414D01*
X-341244Y518292D02*
X-380873Y478663D01*
X-859790Y715518D02*
X-872236Y703072D01*
X-936244Y669036D02*
X-936244Y542036D01*
X-894080Y499872D01*
X-863600Y486918D02*
X-859790Y486918D01*
X-872236Y703072D02*
X-902208Y703072D01*
X-936244Y669036D01*
X-894080Y499872D02*
X-876554Y499872D01*
X-863600Y486918D01*
X-786638Y590042D02*
X-803910Y607314D01*
X-803910Y632714D01*
X-572008Y454914D02*
X-572008Y402844D01*
D18*
X-307086Y535404D03*
D17*
X-556006Y470916D02*
X-572008Y454914D01*
X-556006Y470916D02*
X-373387Y470916D01*
X-308899Y535404D02*
X-307086Y535404D01*
X-308899Y535404D02*
X-373387Y470916D01*
X-380873Y478663D02*
X-409956Y478663D01*
X-565023Y478663D01*
X-582422Y461264D01*
X-385826Y518668D02*
X-341376Y518668D01*
X-341122Y518414D01*
D18*
X-409956Y741172D03*
D17*
X-784098Y741172D01*
D18*
X-409956Y481175D03*
D17*
X-409956Y478663D01*
X-261874Y576834D02*
X-245872Y560832D01*
X-261874Y576834D02*
X-284734Y576834D01*
X-596900Y514096D02*
X-596900Y510540D01*
X-565023Y478663D01*
X-871855Y473583D02*
X-885190Y486918D01*
X-871855Y473583D02*
X-853948Y455676D01*
X-584454Y455676D01*
X-579882Y455676D01*
X-375793Y475615D02*
X-326644Y524764D01*
X-885190Y715518D02*
X-897636Y715518D01*
X-941324Y671830D02*
X-941324Y511302D01*
X-903605Y473583D01*
X-871855Y473583D01*
X-941324Y671830D02*
X-897636Y715518D01*
X-597408Y442722D02*
X-597408Y402844D01*
X-597408Y442722D02*
X-584454Y455676D01*
X-559943Y475615D02*
X-375793Y475615D01*
X-559943Y475615D02*
X-579882Y455676D01*
X-326644Y524764D02*
X-326644Y529844D01*
X-337947Y541147D01*
D18*
X-337947Y541147D03*
X-103124Y728726D03*
D17*
X-42926Y728726D01*
X-25654Y711454D01*
X-25654Y591058D01*
X-34798Y581914D02*
X-40894Y581914D01*
X-34798Y581914D02*
X-25654Y591058D01*
X-403098Y636270D02*
X-423926Y636270D01*
X-308356Y627634D02*
X-297434Y627634D01*
X-401320Y634492D02*
X-403098Y636270D01*
X-401320Y634492D02*
X-315214Y634492D01*
X-308356Y627634D01*
X-419862Y609092D02*
X-424434Y613664D01*
X-359410Y614934D02*
X-297434Y614934D01*
X-365252Y609092D02*
X-419862Y609092D01*
X-365252Y609092D02*
X-359410Y614934D01*
D18*
X-309411Y660174D03*
D17*
X-390455Y707644D02*
X-409251Y688848D01*
X-427144Y688848D01*
X-390455Y707644D02*
X-356881Y707644D01*
X-309411Y660174D01*
X-447464Y668528D02*
X-505968Y668528D01*
X-447464Y668528D02*
X-427144Y688848D01*
X-424688Y545846D02*
X-411734Y532892D01*
X-373634Y532892D01*
X-347980Y558546D01*
X-347980Y558800D01*
X-329946Y576834D01*
X-297434Y576834D01*
D18*
X-308395Y672874D03*
D17*
X-416553Y713740D02*
X-424096Y713740D01*
X-416553Y713740D02*
X-397249Y733044D01*
X-368565Y733044D01*
X-308395Y672874D01*
X-447464Y690372D02*
X-505714Y690372D01*
X-447464Y690372D02*
X-424096Y713740D01*
X-424688Y523240D02*
X-400812Y523240D01*
X-394208Y529844D02*
X-372371Y529844D01*
X-394208Y529844D02*
X-400812Y523240D01*
X-372371Y529844D02*
X-348241Y553974D01*
X-280162Y553974D02*
X-268478Y565658D01*
D18*
X-268478Y565658D03*
D17*
X-280162Y553974D02*
X-348241Y553974D01*
X-414274Y558292D02*
X-424688Y568706D01*
X-340868Y589534D02*
X-297434Y589534D01*
X-372110Y558292D02*
X-414274Y558292D01*
X-372110Y558292D02*
X-340868Y589534D01*
X-468630Y578612D02*
X-506730Y578612D01*
D18*
X-327406Y608076D03*
D17*
X-359664Y608076D01*
X-361696Y606044D01*
X-392684Y606044D01*
D18*
X-103632Y704088D03*
D17*
X-85090Y704088D01*
X-64516Y683514D02*
X-53594Y683514D01*
X-64516Y683514D02*
X-85090Y704088D01*
X-392684Y606044D02*
X-395986Y602742D01*
X-444500Y602742D02*
X-468630Y578612D01*
X-444500Y602742D02*
X-395986Y602742D01*
X-414782Y724662D02*
X-423672Y724662D01*
X-414782Y724662D02*
X-397256Y742188D01*
X-373126Y742188D01*
X-309372Y678434D02*
X-297434Y678434D01*
X-309372Y678434D02*
X-373126Y742188D01*
X-505460Y534416D02*
X-506730Y533146D01*
X-505460Y534416D02*
X-465074Y534416D01*
X-444246Y555244D01*
X-361696Y555244D02*
X-340614Y576326D01*
X-361696Y555244D02*
X-444246Y555244D01*
D18*
X-340614Y576326D03*
X-121920Y712978D03*
D17*
X-118579Y712978D01*
X-116095Y715462D01*
X-108006Y715462D02*
X-107950Y715518D01*
X-108006Y715462D02*
X-116095Y715462D01*
X-108006Y715462D02*
X-76144Y715462D01*
X-71882Y711200D01*
D18*
X-71882Y711200D03*
X-121412Y726468D03*
D17*
X-37067Y734794D02*
X14196Y683531D01*
X14196Y605762D01*
X-113086Y734794D02*
X-121412Y726468D01*
X-113086Y734794D02*
X-37067Y734794D01*
X14196Y605762D02*
X-22352Y569214D01*
X-40894Y569214D01*
X-448226Y646176D02*
X-505968Y646176D01*
X-448226Y646176D02*
X-427398Y667004D01*
X-411480Y667004D01*
D18*
X-308742Y647060D03*
D17*
X-343927Y682244D02*
X-396240Y682244D01*
X-343927Y682244D02*
X-308742Y647060D01*
X-396240Y682244D02*
X-411480Y667004D01*
X-546608Y459232D02*
X-546608Y402844D01*
X-546608Y459232D02*
X-542290Y463550D01*
X-391922Y463550D01*
X-340614Y412242D01*
X-249174Y412242D01*
X-119380Y542036D02*
X-106680Y542036D01*
X-89916Y558800D01*
X-89916Y619760D01*
X-76962Y632714D01*
X-53594Y632714D01*
X-119380Y542036D02*
X-249174Y412242D01*
X-416306Y583692D02*
X-424434Y591820D01*
X-350012Y602234D02*
X-297434Y602234D01*
X-368554Y583692D02*
X-416306Y583692D01*
X-368554Y583692D02*
X-350012Y602234D01*
X-329438Y659892D02*
X-422656Y659892D01*
X-423926Y658622D01*
X-309880Y640334D02*
X-297434Y640334D01*
X-309880Y640334D02*
X-329438Y659892D01*
X-470408Y601726D02*
X-506476Y601726D01*
X-470408Y601726D02*
X-443992Y628142D01*
X-427652Y628142D02*
X-427398Y627888D01*
X-394011Y627888D01*
X-390455Y631444D01*
X-353568Y631444D01*
X-347726Y625602D01*
X-427652Y628142D02*
X-443992Y628142D01*
D18*
X-347726Y625602D03*
X-130556Y720316D03*
D17*
X-130528Y720344D02*
X-68845Y720344D01*
X-40922Y683542D02*
X-40894Y683514D01*
X-40922Y692421D02*
X-68845Y720344D01*
X-40922Y692421D02*
X-40922Y683542D01*
X-130528Y720344D02*
X-130556Y720316D01*
X-415290Y710692D02*
X-423672Y702310D01*
X-309118Y665734D02*
X-297434Y665734D01*
X-354076Y710692D02*
X-415290Y710692D01*
X-354076Y710692D02*
X-309118Y665734D01*
X-504444Y625602D02*
X-506476Y623570D01*
X-427990Y650240D02*
X-420454Y650240D01*
X-413850Y656844D01*
X-336042Y656844D02*
X-320802Y641604D01*
D18*
X-320802Y641604D03*
D17*
X-452628Y625602D02*
X-504444Y625602D01*
X-452628Y625602D02*
X-427990Y650240D01*
X-413850Y656844D02*
X-336042Y656844D01*
X-418846Y685292D02*
X-423672Y680466D01*
X-310134Y653034D02*
X-297434Y653034D01*
X-342392Y685292D02*
X-418846Y685292D01*
X-342392Y685292D02*
X-310134Y653034D01*
X-474726Y636270D02*
X-576094Y636270D01*
X-583714Y628650D01*
X-748030Y628650D02*
X-761238Y615442D01*
X-748030Y628650D02*
X-583714Y628650D01*
X-575586Y613664D02*
X-475234Y613664D01*
X-575586Y613664D02*
X-584476Y604774D01*
X-746506Y604774D02*
X-761238Y590042D01*
X-746506Y604774D02*
X-584476Y604774D01*
X-580412Y655574D02*
X-577364Y658622D01*
X-474726Y658622D01*
X-746506Y655574D02*
X-761238Y640842D01*
X-746506Y655574D02*
X-580412Y655574D01*
X-575840Y591820D02*
X-475234Y591820D01*
X-575840Y591820D02*
X-585619Y601599D01*
X-724281Y601599D01*
X-761238Y564642D01*
X-645598Y680466D02*
X-474472Y680466D01*
X-645598Y680466D02*
X-651567Y686435D01*
X-741045Y686435D01*
X-761238Y666242D01*
X-593112Y574040D02*
X-587778Y568706D01*
X-475488Y568706D01*
X-756158Y539242D02*
X-761238Y539242D01*
X-756158Y539242D02*
X-721360Y574040D01*
X-593112Y574040D01*
X-733552Y719328D02*
X-761238Y691642D01*
X-491490Y719328D02*
X-474472Y702310D01*
X-491490Y719328D02*
X-733552Y719328D01*
X-579396Y545846D02*
X-475488Y545846D01*
X-579396Y545846D02*
X-582190Y548640D01*
X-723138Y548640D01*
X-757936Y513842D01*
X-761238Y513842D01*
D18*
X-716534Y469646D03*
D17*
X-767842Y469646D01*
X-786638Y488442D01*
X-753618Y724662D02*
X-474472Y724662D01*
X-753618Y724662D02*
X-761238Y717042D01*
X-721360Y523240D02*
X-756158Y488442D01*
X-761238Y488442D01*
X-721360Y523240D02*
X-475488Y523240D01*
D18*
X8636Y655320D03*
D17*
X8636Y653542D01*
X-11430Y633476D01*
D18*
X-11430Y633476D03*
X-7112Y696976D03*
D17*
X-7112Y695452D01*
X-19304Y683260D01*
X-19304Y625856D01*
D18*
X-19304Y625856D03*
D17*
X-859790Y690118D02*
X-872744Y677164D01*
X-914146Y677164D02*
X-921258Y670052D01*
D18*
X-921258Y670052D03*
D17*
X-914146Y677164D02*
X-872744Y677164D01*
D18*
X-920750Y646176D03*
D17*
X-915416Y651510D01*
X-872744Y651510D01*
X-859790Y664464D01*
X-859790Y664718D01*
D18*
X-921258Y620522D03*
D17*
X-915416Y626364D01*
X-870458Y626364D01*
X-859790Y637032D01*
X-859790Y639318D01*
D18*
X-921004Y592328D03*
D17*
X-912114Y601218D01*
X-872490Y601218D02*
X-859790Y613918D01*
X-872490Y601218D02*
X-912114Y601218D01*
D18*
X-817118Y497840D03*
D17*
X-818642Y499364D01*
X-868426Y499364D01*
X-881380Y512318D01*
X-885190Y512318D01*
D18*
X-744982Y512064D03*
D17*
X-872236Y524764D02*
X-885190Y537718D01*
X-755904Y501142D02*
X-744982Y512064D01*
X-755904Y501142D02*
X-805180Y501142D01*
X-828802Y524764D01*
X-872236Y524764D01*
D18*
X-735838Y547624D03*
D17*
X-735838Y547370D01*
X-757174Y526034D01*
X-815848Y526034D01*
X-872490Y550418D02*
X-885190Y563118D01*
X-840232Y550418D02*
X-815848Y526034D01*
X-840232Y550418D02*
X-872490Y550418D01*
D18*
X-739140Y568706D03*
D17*
X-756158Y551688D01*
X-828294Y551688D01*
X-872490Y575818D02*
X-885190Y588518D01*
X-852424Y575818D02*
X-828294Y551688D01*
X-852424Y575818D02*
X-872490Y575818D01*
X-521208Y450596D02*
X-521208Y402844D01*
X-521208Y450596D02*
X-515366Y456438D01*
X-391160Y456438D01*
X-342900Y408178D01*
X-247904Y408178D01*
X-117094Y538988D02*
X-104909Y538988D01*
X-84836Y559061D01*
X-117094Y538988D02*
X-247904Y408178D01*
X-84836Y613156D02*
X-84328Y613664D01*
D18*
X-84328Y613664D03*
D17*
X-84836Y613156D02*
X-84836Y559061D01*
X-472186Y555752D02*
X-506730Y555752D01*
X-472186Y555752D02*
X-447294Y580644D01*
X-345186Y595884D02*
X-334264Y595884D01*
X-345186Y595884D02*
X-360426Y580644D01*
D18*
X-334264Y595884D03*
X-113792Y709902D03*
D17*
X-82522Y709902D01*
X-74422Y701802D02*
X-62484Y701802D01*
X-74422Y701802D02*
X-82522Y709902D01*
D18*
X-62484Y701802D03*
D17*
X-360426Y580644D02*
X-447294Y580644D01*
M02*
