G04 EAGLE Gerber RS-274X export*
G75*
%MOMM*%
%FSLAX34Y34*%
%LPD*%
%INSilkscreen Bottom*%
%IPPOS*%
%AMOC8*
5,1,8,0,0,1.08239X$1,22.5*%
G01*
%ADD10C,0.076200*%
%ADD11C,0.127000*%
%ADD12C,0.152400*%
%ADD13C,0.254000*%


D10*
X-404749Y744347D02*
X-407204Y751713D01*
X-409660Y744347D01*
X-409046Y746189D02*
X-405363Y746189D01*
X-412717Y744347D02*
X-412717Y751713D01*
X-414763Y751713D01*
X-414852Y751711D01*
X-414941Y751705D01*
X-415030Y751695D01*
X-415118Y751682D01*
X-415206Y751665D01*
X-415293Y751643D01*
X-415378Y751618D01*
X-415463Y751590D01*
X-415546Y751557D01*
X-415628Y751521D01*
X-415708Y751482D01*
X-415786Y751439D01*
X-415862Y751393D01*
X-415937Y751343D01*
X-416009Y751290D01*
X-416078Y751234D01*
X-416145Y751175D01*
X-416210Y751114D01*
X-416271Y751049D01*
X-416330Y750982D01*
X-416386Y750913D01*
X-416439Y750841D01*
X-416489Y750766D01*
X-416535Y750690D01*
X-416578Y750612D01*
X-416617Y750532D01*
X-416653Y750450D01*
X-416686Y750367D01*
X-416714Y750282D01*
X-416739Y750197D01*
X-416761Y750110D01*
X-416778Y750022D01*
X-416791Y749934D01*
X-416801Y749845D01*
X-416807Y749756D01*
X-416809Y749667D01*
X-416809Y746393D01*
X-416807Y746304D01*
X-416801Y746215D01*
X-416791Y746126D01*
X-416778Y746038D01*
X-416761Y745950D01*
X-416739Y745863D01*
X-416714Y745778D01*
X-416686Y745693D01*
X-416653Y745610D01*
X-416617Y745528D01*
X-416578Y745448D01*
X-416535Y745370D01*
X-416489Y745294D01*
X-416439Y745219D01*
X-416386Y745147D01*
X-416330Y745078D01*
X-416271Y745011D01*
X-416210Y744946D01*
X-416145Y744885D01*
X-416078Y744826D01*
X-416009Y744770D01*
X-415937Y744717D01*
X-415862Y744667D01*
X-415786Y744621D01*
X-415708Y744578D01*
X-415628Y744539D01*
X-415546Y744503D01*
X-415463Y744470D01*
X-415378Y744442D01*
X-415293Y744417D01*
X-415206Y744395D01*
X-415118Y744378D01*
X-415030Y744365D01*
X-414941Y744355D01*
X-414852Y744349D01*
X-414763Y744347D01*
X-412717Y744347D01*
X-421890Y744347D02*
X-423527Y744347D01*
X-421890Y744347D02*
X-421812Y744349D01*
X-421734Y744354D01*
X-421657Y744364D01*
X-421580Y744377D01*
X-421504Y744393D01*
X-421429Y744413D01*
X-421355Y744437D01*
X-421282Y744464D01*
X-421210Y744495D01*
X-421140Y744529D01*
X-421072Y744566D01*
X-421005Y744607D01*
X-420940Y744651D01*
X-420878Y744697D01*
X-420818Y744747D01*
X-420760Y744799D01*
X-420705Y744854D01*
X-420653Y744912D01*
X-420603Y744972D01*
X-420557Y745034D01*
X-420513Y745099D01*
X-420472Y745166D01*
X-420435Y745234D01*
X-420401Y745304D01*
X-420370Y745376D01*
X-420343Y745449D01*
X-420319Y745523D01*
X-420299Y745598D01*
X-420283Y745674D01*
X-420270Y745751D01*
X-420260Y745828D01*
X-420255Y745906D01*
X-420253Y745984D01*
X-420253Y750076D01*
X-420255Y750156D01*
X-420261Y750236D01*
X-420271Y750316D01*
X-420284Y750395D01*
X-420302Y750474D01*
X-420323Y750551D01*
X-420349Y750627D01*
X-420378Y750702D01*
X-420410Y750776D01*
X-420446Y750848D01*
X-420486Y750918D01*
X-420529Y750985D01*
X-420575Y751051D01*
X-420625Y751114D01*
X-420677Y751175D01*
X-420732Y751234D01*
X-420791Y751289D01*
X-420851Y751341D01*
X-420915Y751391D01*
X-420981Y751437D01*
X-421048Y751480D01*
X-421118Y751520D01*
X-421190Y751556D01*
X-421264Y751588D01*
X-421338Y751617D01*
X-421415Y751643D01*
X-421492Y751664D01*
X-421571Y751682D01*
X-421650Y751695D01*
X-421730Y751705D01*
X-421810Y751711D01*
X-421890Y751713D01*
X-423527Y751713D01*
X-432524Y751714D02*
X-432609Y751712D01*
X-432694Y751706D01*
X-432778Y751696D01*
X-432862Y751683D01*
X-432946Y751665D01*
X-433028Y751644D01*
X-433109Y751619D01*
X-433189Y751590D01*
X-433268Y751557D01*
X-433345Y751521D01*
X-433420Y751481D01*
X-433494Y751438D01*
X-433565Y751392D01*
X-433634Y751342D01*
X-433701Y751289D01*
X-433765Y751233D01*
X-433826Y751174D01*
X-433885Y751113D01*
X-433941Y751049D01*
X-433994Y750982D01*
X-434044Y750913D01*
X-434090Y750842D01*
X-434133Y750768D01*
X-434173Y750693D01*
X-434209Y750616D01*
X-434242Y750537D01*
X-434271Y750457D01*
X-434296Y750376D01*
X-434317Y750294D01*
X-434335Y750210D01*
X-434348Y750126D01*
X-434358Y750042D01*
X-434364Y749957D01*
X-434366Y749872D01*
X-432524Y751713D02*
X-432428Y751711D01*
X-432332Y751705D01*
X-432237Y751695D01*
X-432142Y751682D01*
X-432047Y751664D01*
X-431954Y751643D01*
X-431861Y751618D01*
X-431770Y751589D01*
X-431679Y751557D01*
X-431590Y751521D01*
X-431503Y751481D01*
X-431417Y751438D01*
X-431333Y751392D01*
X-431251Y751342D01*
X-431171Y751288D01*
X-431094Y751232D01*
X-431019Y751172D01*
X-430946Y751110D01*
X-430876Y751044D01*
X-430808Y750976D01*
X-430743Y750905D01*
X-430682Y750832D01*
X-430623Y750756D01*
X-430567Y750677D01*
X-430515Y750597D01*
X-430466Y750514D01*
X-430420Y750430D01*
X-430378Y750344D01*
X-430340Y750256D01*
X-430305Y750167D01*
X-430273Y750076D01*
X-433752Y748440D02*
X-433812Y748499D01*
X-433869Y748561D01*
X-433924Y748625D01*
X-433975Y748692D01*
X-434024Y748761D01*
X-434070Y748831D01*
X-434113Y748904D01*
X-434153Y748978D01*
X-434189Y749054D01*
X-434222Y749132D01*
X-434252Y749211D01*
X-434279Y749291D01*
X-434302Y749372D01*
X-434321Y749454D01*
X-434337Y749536D01*
X-434350Y749620D01*
X-434359Y749704D01*
X-434364Y749788D01*
X-434366Y749872D01*
X-433752Y748439D02*
X-430274Y744347D01*
X-434366Y744347D01*
X-441697Y744347D02*
X-441697Y751713D01*
X-441697Y744347D02*
X-443743Y744347D01*
X-443812Y744349D01*
X-443880Y744355D01*
X-443949Y744364D01*
X-444016Y744378D01*
X-444083Y744395D01*
X-444149Y744416D01*
X-444213Y744440D01*
X-444276Y744469D01*
X-444337Y744500D01*
X-444396Y744535D01*
X-444454Y744573D01*
X-444509Y744615D01*
X-444561Y744659D01*
X-444611Y744707D01*
X-444659Y744757D01*
X-444703Y744809D01*
X-444745Y744864D01*
X-444783Y744922D01*
X-444818Y744981D01*
X-444849Y745042D01*
X-444878Y745105D01*
X-444902Y745169D01*
X-444923Y745235D01*
X-444940Y745302D01*
X-444954Y745369D01*
X-444963Y745438D01*
X-444969Y745506D01*
X-444971Y745575D01*
X-444970Y745575D02*
X-444970Y748030D01*
X-444971Y748030D02*
X-444969Y748099D01*
X-444963Y748167D01*
X-444954Y748236D01*
X-444940Y748303D01*
X-444923Y748370D01*
X-444902Y748436D01*
X-444878Y748500D01*
X-444849Y748563D01*
X-444818Y748624D01*
X-444783Y748683D01*
X-444745Y748741D01*
X-444703Y748796D01*
X-444659Y748848D01*
X-444611Y748898D01*
X-444561Y748946D01*
X-444509Y748990D01*
X-444454Y749032D01*
X-444396Y749070D01*
X-444337Y749105D01*
X-444276Y749136D01*
X-444213Y749165D01*
X-444149Y749189D01*
X-444083Y749210D01*
X-444016Y749227D01*
X-443949Y749241D01*
X-443880Y749250D01*
X-443812Y749256D01*
X-443743Y749258D01*
X-441697Y749258D01*
X-448285Y749258D02*
X-448285Y744347D01*
X-448285Y749258D02*
X-450741Y749258D01*
X-450741Y748439D01*
X-454344Y744347D02*
X-456390Y744347D01*
X-454344Y744347D02*
X-454275Y744349D01*
X-454207Y744355D01*
X-454138Y744364D01*
X-454071Y744378D01*
X-454004Y744395D01*
X-453938Y744416D01*
X-453874Y744440D01*
X-453811Y744469D01*
X-453750Y744500D01*
X-453691Y744535D01*
X-453633Y744573D01*
X-453578Y744615D01*
X-453526Y744659D01*
X-453476Y744707D01*
X-453428Y744757D01*
X-453384Y744809D01*
X-453342Y744864D01*
X-453304Y744922D01*
X-453269Y744981D01*
X-453238Y745042D01*
X-453209Y745105D01*
X-453185Y745169D01*
X-453164Y745235D01*
X-453147Y745302D01*
X-453133Y745369D01*
X-453124Y745438D01*
X-453118Y745506D01*
X-453116Y745575D01*
X-453116Y747621D01*
X-453118Y747700D01*
X-453124Y747779D01*
X-453133Y747858D01*
X-453146Y747936D01*
X-453164Y748013D01*
X-453184Y748089D01*
X-453209Y748164D01*
X-453237Y748238D01*
X-453268Y748311D01*
X-453304Y748382D01*
X-453342Y748451D01*
X-453384Y748518D01*
X-453429Y748583D01*
X-453477Y748646D01*
X-453528Y748707D01*
X-453582Y748764D01*
X-453638Y748820D01*
X-453697Y748872D01*
X-453759Y748922D01*
X-453823Y748968D01*
X-453889Y749012D01*
X-453957Y749052D01*
X-454027Y749088D01*
X-454099Y749122D01*
X-454173Y749152D01*
X-454247Y749178D01*
X-454323Y749201D01*
X-454400Y749219D01*
X-454477Y749235D01*
X-454556Y749246D01*
X-454634Y749254D01*
X-454713Y749258D01*
X-454793Y749258D01*
X-454872Y749254D01*
X-454950Y749246D01*
X-455029Y749235D01*
X-455106Y749219D01*
X-455183Y749201D01*
X-455259Y749178D01*
X-455333Y749152D01*
X-455407Y749122D01*
X-455479Y749088D01*
X-455549Y749052D01*
X-455617Y749012D01*
X-455683Y748968D01*
X-455747Y748922D01*
X-455809Y748872D01*
X-455868Y748820D01*
X-455924Y748764D01*
X-455978Y748707D01*
X-456029Y748646D01*
X-456077Y748583D01*
X-456122Y748518D01*
X-456164Y748451D01*
X-456202Y748382D01*
X-456238Y748311D01*
X-456269Y748238D01*
X-456297Y748164D01*
X-456322Y748089D01*
X-456342Y748013D01*
X-456360Y747936D01*
X-456373Y747858D01*
X-456382Y747779D01*
X-456388Y747700D01*
X-456390Y747621D01*
X-456390Y746802D01*
X-453116Y746802D01*
X-460847Y747212D02*
X-462689Y747212D01*
X-460847Y747211D02*
X-460772Y747209D01*
X-460697Y747203D01*
X-460623Y747193D01*
X-460549Y747180D01*
X-460476Y747162D01*
X-460404Y747141D01*
X-460334Y747116D01*
X-460265Y747087D01*
X-460197Y747055D01*
X-460131Y747019D01*
X-460067Y746980D01*
X-460005Y746938D01*
X-459946Y746892D01*
X-459889Y746843D01*
X-459834Y746792D01*
X-459783Y746737D01*
X-459734Y746680D01*
X-459688Y746621D01*
X-459646Y746559D01*
X-459607Y746495D01*
X-459571Y746429D01*
X-459539Y746361D01*
X-459510Y746292D01*
X-459485Y746222D01*
X-459464Y746150D01*
X-459446Y746077D01*
X-459433Y746003D01*
X-459423Y745929D01*
X-459417Y745854D01*
X-459415Y745779D01*
X-459417Y745704D01*
X-459423Y745629D01*
X-459433Y745555D01*
X-459446Y745481D01*
X-459464Y745408D01*
X-459485Y745336D01*
X-459510Y745266D01*
X-459539Y745197D01*
X-459571Y745129D01*
X-459607Y745063D01*
X-459646Y744999D01*
X-459688Y744937D01*
X-459734Y744878D01*
X-459783Y744821D01*
X-459834Y744766D01*
X-459889Y744715D01*
X-459946Y744666D01*
X-460005Y744620D01*
X-460067Y744578D01*
X-460131Y744539D01*
X-460197Y744503D01*
X-460265Y744471D01*
X-460334Y744442D01*
X-460404Y744417D01*
X-460476Y744396D01*
X-460549Y744378D01*
X-460623Y744365D01*
X-460697Y744355D01*
X-460772Y744349D01*
X-460847Y744347D01*
X-462689Y744347D01*
X-462689Y748030D01*
X-462687Y748099D01*
X-462681Y748167D01*
X-462672Y748236D01*
X-462658Y748303D01*
X-462641Y748370D01*
X-462620Y748436D01*
X-462596Y748500D01*
X-462567Y748563D01*
X-462536Y748624D01*
X-462501Y748683D01*
X-462463Y748741D01*
X-462421Y748796D01*
X-462377Y748848D01*
X-462329Y748898D01*
X-462279Y748946D01*
X-462227Y748990D01*
X-462172Y749032D01*
X-462114Y749070D01*
X-462055Y749105D01*
X-461994Y749136D01*
X-461931Y749165D01*
X-461867Y749189D01*
X-461801Y749210D01*
X-461734Y749227D01*
X-461667Y749241D01*
X-461598Y749250D01*
X-461530Y749256D01*
X-461461Y749258D01*
X-459824Y749258D01*
X-466378Y751713D02*
X-466378Y744347D01*
X-466378Y746802D02*
X-469651Y749258D01*
X-467810Y747825D02*
X-469651Y744347D01*
X-472379Y745984D02*
X-472379Y747621D01*
X-472381Y747700D01*
X-472387Y747779D01*
X-472396Y747858D01*
X-472409Y747936D01*
X-472427Y748013D01*
X-472447Y748089D01*
X-472472Y748164D01*
X-472500Y748238D01*
X-472531Y748311D01*
X-472567Y748382D01*
X-472605Y748451D01*
X-472647Y748518D01*
X-472692Y748583D01*
X-472740Y748646D01*
X-472791Y748707D01*
X-472845Y748764D01*
X-472901Y748820D01*
X-472960Y748872D01*
X-473022Y748922D01*
X-473086Y748968D01*
X-473152Y749012D01*
X-473220Y749052D01*
X-473290Y749088D01*
X-473362Y749122D01*
X-473436Y749152D01*
X-473510Y749178D01*
X-473586Y749201D01*
X-473663Y749219D01*
X-473740Y749235D01*
X-473819Y749246D01*
X-473897Y749254D01*
X-473976Y749258D01*
X-474056Y749258D01*
X-474135Y749254D01*
X-474213Y749246D01*
X-474292Y749235D01*
X-474369Y749219D01*
X-474446Y749201D01*
X-474522Y749178D01*
X-474596Y749152D01*
X-474670Y749122D01*
X-474742Y749088D01*
X-474812Y749052D01*
X-474880Y749012D01*
X-474946Y748968D01*
X-475010Y748922D01*
X-475072Y748872D01*
X-475131Y748820D01*
X-475187Y748764D01*
X-475241Y748707D01*
X-475292Y748646D01*
X-475340Y748583D01*
X-475385Y748518D01*
X-475427Y748451D01*
X-475465Y748382D01*
X-475501Y748311D01*
X-475532Y748238D01*
X-475560Y748164D01*
X-475585Y748089D01*
X-475605Y748013D01*
X-475623Y747936D01*
X-475636Y747858D01*
X-475645Y747779D01*
X-475651Y747700D01*
X-475653Y747621D01*
X-475653Y745984D01*
X-475651Y745905D01*
X-475645Y745826D01*
X-475636Y745747D01*
X-475623Y745669D01*
X-475605Y745592D01*
X-475585Y745516D01*
X-475560Y745441D01*
X-475532Y745367D01*
X-475501Y745294D01*
X-475465Y745223D01*
X-475427Y745154D01*
X-475385Y745087D01*
X-475340Y745022D01*
X-475292Y744959D01*
X-475241Y744898D01*
X-475187Y744841D01*
X-475131Y744785D01*
X-475072Y744733D01*
X-475010Y744683D01*
X-474946Y744637D01*
X-474880Y744593D01*
X-474812Y744553D01*
X-474742Y744517D01*
X-474670Y744483D01*
X-474596Y744453D01*
X-474522Y744427D01*
X-474446Y744404D01*
X-474369Y744386D01*
X-474292Y744370D01*
X-474213Y744359D01*
X-474135Y744351D01*
X-474056Y744347D01*
X-473976Y744347D01*
X-473897Y744351D01*
X-473819Y744359D01*
X-473740Y744370D01*
X-473663Y744386D01*
X-473586Y744404D01*
X-473510Y744427D01*
X-473436Y744453D01*
X-473362Y744483D01*
X-473290Y744517D01*
X-473220Y744553D01*
X-473152Y744593D01*
X-473086Y744637D01*
X-473022Y744683D01*
X-472960Y744733D01*
X-472901Y744785D01*
X-472845Y744841D01*
X-472791Y744898D01*
X-472740Y744959D01*
X-472692Y745022D01*
X-472647Y745087D01*
X-472605Y745154D01*
X-472567Y745223D01*
X-472531Y745294D01*
X-472500Y745367D01*
X-472472Y745441D01*
X-472447Y745516D01*
X-472427Y745592D01*
X-472409Y745669D01*
X-472396Y745747D01*
X-472387Y745826D01*
X-472381Y745905D01*
X-472379Y745984D01*
X-478963Y745575D02*
X-478963Y749258D01*
X-478963Y745575D02*
X-478965Y745506D01*
X-478971Y745438D01*
X-478980Y745369D01*
X-478994Y745302D01*
X-479011Y745235D01*
X-479032Y745169D01*
X-479056Y745105D01*
X-479085Y745042D01*
X-479116Y744981D01*
X-479151Y744922D01*
X-479189Y744864D01*
X-479231Y744809D01*
X-479275Y744757D01*
X-479323Y744707D01*
X-479373Y744659D01*
X-479425Y744615D01*
X-479480Y744573D01*
X-479538Y744535D01*
X-479597Y744500D01*
X-479658Y744469D01*
X-479721Y744440D01*
X-479785Y744416D01*
X-479851Y744395D01*
X-479918Y744378D01*
X-479985Y744364D01*
X-480054Y744355D01*
X-480122Y744349D01*
X-480191Y744347D01*
X-482237Y744347D01*
X-482237Y749258D01*
X-484916Y749258D02*
X-487372Y749258D01*
X-485735Y751713D02*
X-485735Y745575D01*
X-485734Y745575D02*
X-485736Y745506D01*
X-485742Y745438D01*
X-485751Y745369D01*
X-485765Y745302D01*
X-485782Y745235D01*
X-485803Y745169D01*
X-485827Y745105D01*
X-485856Y745042D01*
X-485887Y744981D01*
X-485922Y744922D01*
X-485960Y744864D01*
X-486002Y744809D01*
X-486046Y744757D01*
X-486094Y744707D01*
X-486144Y744659D01*
X-486196Y744615D01*
X-486251Y744573D01*
X-486309Y744535D01*
X-486368Y744500D01*
X-486429Y744469D01*
X-486492Y744440D01*
X-486556Y744416D01*
X-486622Y744395D01*
X-486689Y744378D01*
X-486756Y744364D01*
X-486825Y744355D01*
X-486893Y744349D01*
X-486962Y744347D01*
X-487372Y744347D01*
X-495268Y744347D02*
X-497314Y744347D01*
X-495268Y744347D02*
X-495199Y744349D01*
X-495131Y744355D01*
X-495062Y744364D01*
X-494995Y744378D01*
X-494928Y744395D01*
X-494862Y744416D01*
X-494798Y744440D01*
X-494735Y744469D01*
X-494674Y744500D01*
X-494615Y744535D01*
X-494557Y744573D01*
X-494502Y744615D01*
X-494450Y744659D01*
X-494400Y744707D01*
X-494352Y744757D01*
X-494308Y744809D01*
X-494266Y744864D01*
X-494228Y744922D01*
X-494193Y744981D01*
X-494162Y745042D01*
X-494133Y745105D01*
X-494109Y745169D01*
X-494088Y745235D01*
X-494071Y745302D01*
X-494057Y745369D01*
X-494048Y745438D01*
X-494042Y745506D01*
X-494040Y745575D01*
X-494040Y748030D01*
X-494042Y748099D01*
X-494048Y748167D01*
X-494057Y748236D01*
X-494071Y748303D01*
X-494088Y748370D01*
X-494109Y748436D01*
X-494133Y748500D01*
X-494162Y748563D01*
X-494193Y748624D01*
X-494228Y748683D01*
X-494266Y748741D01*
X-494308Y748796D01*
X-494352Y748848D01*
X-494400Y748898D01*
X-494450Y748946D01*
X-494502Y748990D01*
X-494557Y749032D01*
X-494615Y749070D01*
X-494674Y749105D01*
X-494735Y749136D01*
X-494798Y749165D01*
X-494862Y749189D01*
X-494928Y749210D01*
X-494995Y749227D01*
X-495062Y749241D01*
X-495131Y749250D01*
X-495199Y749256D01*
X-495268Y749258D01*
X-497314Y749258D01*
X-497314Y743119D01*
X-497312Y743050D01*
X-497306Y742982D01*
X-497297Y742913D01*
X-497283Y742846D01*
X-497266Y742779D01*
X-497245Y742713D01*
X-497221Y742649D01*
X-497192Y742586D01*
X-497161Y742525D01*
X-497126Y742466D01*
X-497088Y742408D01*
X-497046Y742353D01*
X-497002Y742301D01*
X-496954Y742251D01*
X-496904Y742203D01*
X-496852Y742159D01*
X-496797Y742118D01*
X-496739Y742079D01*
X-496680Y742044D01*
X-496619Y742013D01*
X-496556Y741984D01*
X-496492Y741960D01*
X-496426Y741939D01*
X-496359Y741922D01*
X-496292Y741908D01*
X-496224Y741899D01*
X-496155Y741893D01*
X-496086Y741891D01*
X-496086Y741892D02*
X-494449Y741892D01*
X-500665Y745984D02*
X-500665Y747621D01*
X-500667Y747700D01*
X-500673Y747779D01*
X-500682Y747858D01*
X-500695Y747936D01*
X-500713Y748013D01*
X-500733Y748089D01*
X-500758Y748164D01*
X-500786Y748238D01*
X-500817Y748311D01*
X-500853Y748382D01*
X-500891Y748451D01*
X-500933Y748518D01*
X-500978Y748583D01*
X-501026Y748646D01*
X-501077Y748707D01*
X-501131Y748764D01*
X-501187Y748820D01*
X-501246Y748872D01*
X-501308Y748922D01*
X-501372Y748968D01*
X-501438Y749012D01*
X-501506Y749052D01*
X-501576Y749088D01*
X-501648Y749122D01*
X-501722Y749152D01*
X-501796Y749178D01*
X-501872Y749201D01*
X-501949Y749219D01*
X-502026Y749235D01*
X-502105Y749246D01*
X-502183Y749254D01*
X-502262Y749258D01*
X-502342Y749258D01*
X-502421Y749254D01*
X-502499Y749246D01*
X-502578Y749235D01*
X-502655Y749219D01*
X-502732Y749201D01*
X-502808Y749178D01*
X-502882Y749152D01*
X-502956Y749122D01*
X-503028Y749088D01*
X-503098Y749052D01*
X-503166Y749012D01*
X-503232Y748968D01*
X-503296Y748922D01*
X-503358Y748872D01*
X-503417Y748820D01*
X-503473Y748764D01*
X-503527Y748707D01*
X-503578Y748646D01*
X-503626Y748583D01*
X-503671Y748518D01*
X-503713Y748451D01*
X-503751Y748382D01*
X-503787Y748311D01*
X-503818Y748238D01*
X-503846Y748164D01*
X-503871Y748089D01*
X-503891Y748013D01*
X-503909Y747936D01*
X-503922Y747858D01*
X-503931Y747779D01*
X-503937Y747700D01*
X-503939Y747621D01*
X-503938Y747621D02*
X-503938Y745984D01*
X-503939Y745984D02*
X-503937Y745905D01*
X-503931Y745826D01*
X-503922Y745747D01*
X-503909Y745669D01*
X-503891Y745592D01*
X-503871Y745516D01*
X-503846Y745441D01*
X-503818Y745367D01*
X-503787Y745294D01*
X-503751Y745223D01*
X-503713Y745154D01*
X-503671Y745087D01*
X-503626Y745022D01*
X-503578Y744959D01*
X-503527Y744898D01*
X-503473Y744841D01*
X-503417Y744785D01*
X-503358Y744733D01*
X-503296Y744683D01*
X-503232Y744637D01*
X-503166Y744593D01*
X-503098Y744553D01*
X-503028Y744517D01*
X-502956Y744483D01*
X-502882Y744453D01*
X-502808Y744427D01*
X-502732Y744404D01*
X-502655Y744386D01*
X-502578Y744370D01*
X-502499Y744359D01*
X-502421Y744351D01*
X-502342Y744347D01*
X-502262Y744347D01*
X-502183Y744351D01*
X-502105Y744359D01*
X-502026Y744370D01*
X-501949Y744386D01*
X-501872Y744404D01*
X-501796Y744427D01*
X-501722Y744453D01*
X-501648Y744483D01*
X-501576Y744517D01*
X-501506Y744553D01*
X-501438Y744593D01*
X-501372Y744637D01*
X-501308Y744683D01*
X-501246Y744733D01*
X-501187Y744785D01*
X-501131Y744841D01*
X-501077Y744898D01*
X-501026Y744959D01*
X-500978Y745022D01*
X-500933Y745087D01*
X-500891Y745154D01*
X-500853Y745223D01*
X-500817Y745294D01*
X-500786Y745367D01*
X-500758Y745441D01*
X-500733Y745516D01*
X-500713Y745592D01*
X-500695Y745669D01*
X-500682Y745747D01*
X-500673Y745826D01*
X-500667Y745905D01*
X-500665Y745984D01*
X-508232Y744347D02*
X-510278Y744347D01*
X-508232Y744347D02*
X-508163Y744349D01*
X-508095Y744355D01*
X-508026Y744364D01*
X-507959Y744378D01*
X-507892Y744395D01*
X-507826Y744416D01*
X-507762Y744440D01*
X-507699Y744469D01*
X-507638Y744500D01*
X-507579Y744535D01*
X-507521Y744573D01*
X-507466Y744615D01*
X-507414Y744659D01*
X-507364Y744707D01*
X-507316Y744757D01*
X-507272Y744809D01*
X-507230Y744864D01*
X-507192Y744922D01*
X-507157Y744981D01*
X-507126Y745042D01*
X-507097Y745105D01*
X-507073Y745169D01*
X-507052Y745235D01*
X-507035Y745302D01*
X-507021Y745369D01*
X-507012Y745438D01*
X-507006Y745506D01*
X-507004Y745575D01*
X-507005Y745575D02*
X-507005Y747621D01*
X-507004Y747621D02*
X-507006Y747700D01*
X-507012Y747779D01*
X-507021Y747858D01*
X-507034Y747936D01*
X-507052Y748013D01*
X-507072Y748089D01*
X-507097Y748164D01*
X-507125Y748238D01*
X-507156Y748311D01*
X-507192Y748382D01*
X-507230Y748451D01*
X-507272Y748518D01*
X-507317Y748583D01*
X-507365Y748646D01*
X-507416Y748707D01*
X-507470Y748764D01*
X-507526Y748820D01*
X-507585Y748872D01*
X-507647Y748922D01*
X-507711Y748968D01*
X-507777Y749012D01*
X-507845Y749052D01*
X-507915Y749088D01*
X-507987Y749122D01*
X-508061Y749152D01*
X-508135Y749178D01*
X-508211Y749201D01*
X-508288Y749219D01*
X-508365Y749235D01*
X-508444Y749246D01*
X-508522Y749254D01*
X-508601Y749258D01*
X-508681Y749258D01*
X-508760Y749254D01*
X-508838Y749246D01*
X-508917Y749235D01*
X-508994Y749219D01*
X-509071Y749201D01*
X-509147Y749178D01*
X-509221Y749152D01*
X-509295Y749122D01*
X-509367Y749088D01*
X-509437Y749052D01*
X-509505Y749012D01*
X-509571Y748968D01*
X-509635Y748922D01*
X-509697Y748872D01*
X-509756Y748820D01*
X-509812Y748764D01*
X-509866Y748707D01*
X-509917Y748646D01*
X-509965Y748583D01*
X-510010Y748518D01*
X-510052Y748451D01*
X-510090Y748382D01*
X-510126Y748311D01*
X-510157Y748238D01*
X-510185Y748164D01*
X-510210Y748089D01*
X-510230Y748013D01*
X-510248Y747936D01*
X-510261Y747858D01*
X-510270Y747779D01*
X-510276Y747700D01*
X-510278Y747621D01*
X-510278Y746802D01*
X-507005Y746802D01*
X-513958Y747212D02*
X-516004Y746393D01*
X-513958Y747212D02*
X-513899Y747237D01*
X-513842Y747266D01*
X-513787Y747299D01*
X-513734Y747335D01*
X-513683Y747373D01*
X-513635Y747415D01*
X-513589Y747460D01*
X-513546Y747507D01*
X-513506Y747557D01*
X-513469Y747609D01*
X-513435Y747664D01*
X-513404Y747720D01*
X-513377Y747778D01*
X-513354Y747838D01*
X-513334Y747898D01*
X-513318Y747960D01*
X-513305Y748023D01*
X-513297Y748087D01*
X-513292Y748150D01*
X-513291Y748214D01*
X-513294Y748278D01*
X-513301Y748342D01*
X-513312Y748405D01*
X-513326Y748467D01*
X-513344Y748529D01*
X-513366Y748589D01*
X-513391Y748648D01*
X-513420Y748705D01*
X-513453Y748760D01*
X-513488Y748813D01*
X-513527Y748864D01*
X-513569Y748913D01*
X-513613Y748959D01*
X-513661Y749002D01*
X-513710Y749042D01*
X-513763Y749079D01*
X-513817Y749113D01*
X-513873Y749144D01*
X-513931Y749171D01*
X-513990Y749195D01*
X-514051Y749214D01*
X-514113Y749231D01*
X-514176Y749243D01*
X-514239Y749252D01*
X-514303Y749257D01*
X-514367Y749258D01*
X-514503Y749254D01*
X-514638Y749246D01*
X-514774Y749234D01*
X-514908Y749218D01*
X-515043Y749198D01*
X-515176Y749175D01*
X-515309Y749147D01*
X-515441Y749116D01*
X-515572Y749081D01*
X-515702Y749042D01*
X-515831Y748999D01*
X-515958Y748952D01*
X-516084Y748902D01*
X-516209Y748848D01*
X-516004Y746393D02*
X-516063Y746368D01*
X-516120Y746339D01*
X-516175Y746306D01*
X-516228Y746270D01*
X-516279Y746232D01*
X-516327Y746190D01*
X-516373Y746145D01*
X-516416Y746098D01*
X-516456Y746048D01*
X-516493Y745996D01*
X-516527Y745941D01*
X-516558Y745885D01*
X-516585Y745827D01*
X-516608Y745767D01*
X-516628Y745707D01*
X-516644Y745645D01*
X-516657Y745582D01*
X-516665Y745518D01*
X-516670Y745455D01*
X-516671Y745391D01*
X-516668Y745327D01*
X-516661Y745263D01*
X-516650Y745200D01*
X-516636Y745138D01*
X-516618Y745076D01*
X-516596Y745016D01*
X-516571Y744957D01*
X-516542Y744900D01*
X-516509Y744845D01*
X-516474Y744792D01*
X-516435Y744741D01*
X-516393Y744692D01*
X-516349Y744646D01*
X-516301Y744603D01*
X-516252Y744563D01*
X-516199Y744526D01*
X-516145Y744492D01*
X-516089Y744461D01*
X-516031Y744434D01*
X-515972Y744410D01*
X-515911Y744391D01*
X-515849Y744374D01*
X-515786Y744362D01*
X-515723Y744353D01*
X-515659Y744348D01*
X-515595Y744347D01*
X-515431Y744351D01*
X-515267Y744359D01*
X-515103Y744371D01*
X-514940Y744387D01*
X-514777Y744407D01*
X-514614Y744430D01*
X-514453Y744458D01*
X-514291Y744489D01*
X-514131Y744524D01*
X-513972Y744563D01*
X-513813Y744606D01*
X-513656Y744652D01*
X-513499Y744702D01*
X-513344Y744756D01*
X-523586Y745984D02*
X-523586Y747621D01*
X-523585Y747621D02*
X-523587Y747700D01*
X-523593Y747779D01*
X-523602Y747858D01*
X-523615Y747936D01*
X-523633Y748013D01*
X-523653Y748089D01*
X-523678Y748164D01*
X-523706Y748238D01*
X-523737Y748311D01*
X-523773Y748382D01*
X-523811Y748451D01*
X-523853Y748518D01*
X-523898Y748583D01*
X-523946Y748646D01*
X-523997Y748707D01*
X-524051Y748764D01*
X-524107Y748820D01*
X-524166Y748872D01*
X-524228Y748922D01*
X-524292Y748968D01*
X-524358Y749012D01*
X-524426Y749052D01*
X-524496Y749088D01*
X-524568Y749122D01*
X-524642Y749152D01*
X-524716Y749178D01*
X-524792Y749201D01*
X-524869Y749219D01*
X-524946Y749235D01*
X-525025Y749246D01*
X-525103Y749254D01*
X-525182Y749258D01*
X-525262Y749258D01*
X-525341Y749254D01*
X-525419Y749246D01*
X-525498Y749235D01*
X-525575Y749219D01*
X-525652Y749201D01*
X-525728Y749178D01*
X-525802Y749152D01*
X-525876Y749122D01*
X-525948Y749088D01*
X-526018Y749052D01*
X-526086Y749012D01*
X-526152Y748968D01*
X-526216Y748922D01*
X-526278Y748872D01*
X-526337Y748820D01*
X-526393Y748764D01*
X-526447Y748707D01*
X-526498Y748646D01*
X-526546Y748583D01*
X-526591Y748518D01*
X-526633Y748451D01*
X-526671Y748382D01*
X-526707Y748311D01*
X-526738Y748238D01*
X-526766Y748164D01*
X-526791Y748089D01*
X-526811Y748013D01*
X-526829Y747936D01*
X-526842Y747858D01*
X-526851Y747779D01*
X-526857Y747700D01*
X-526859Y747621D01*
X-526859Y745984D01*
X-526857Y745905D01*
X-526851Y745826D01*
X-526842Y745747D01*
X-526829Y745669D01*
X-526811Y745592D01*
X-526791Y745516D01*
X-526766Y745441D01*
X-526738Y745367D01*
X-526707Y745294D01*
X-526671Y745223D01*
X-526633Y745154D01*
X-526591Y745087D01*
X-526546Y745022D01*
X-526498Y744959D01*
X-526447Y744898D01*
X-526393Y744841D01*
X-526337Y744785D01*
X-526278Y744733D01*
X-526216Y744683D01*
X-526152Y744637D01*
X-526086Y744593D01*
X-526018Y744553D01*
X-525948Y744517D01*
X-525876Y744483D01*
X-525802Y744453D01*
X-525728Y744427D01*
X-525652Y744404D01*
X-525575Y744386D01*
X-525498Y744370D01*
X-525419Y744359D01*
X-525341Y744351D01*
X-525262Y744347D01*
X-525182Y744347D01*
X-525103Y744351D01*
X-525025Y744359D01*
X-524946Y744370D01*
X-524869Y744386D01*
X-524792Y744404D01*
X-524716Y744427D01*
X-524642Y744453D01*
X-524568Y744483D01*
X-524496Y744517D01*
X-524426Y744553D01*
X-524358Y744593D01*
X-524292Y744637D01*
X-524228Y744683D01*
X-524166Y744733D01*
X-524107Y744785D01*
X-524051Y744841D01*
X-523997Y744898D01*
X-523946Y744959D01*
X-523898Y745022D01*
X-523853Y745087D01*
X-523811Y745154D01*
X-523773Y745223D01*
X-523737Y745294D01*
X-523706Y745367D01*
X-523678Y745441D01*
X-523653Y745516D01*
X-523633Y745592D01*
X-523615Y745669D01*
X-523602Y745747D01*
X-523593Y745826D01*
X-523587Y745905D01*
X-523585Y745984D01*
X-530169Y744347D02*
X-530169Y749258D01*
X-532215Y749258D01*
X-532284Y749256D01*
X-532352Y749250D01*
X-532421Y749241D01*
X-532488Y749227D01*
X-532555Y749210D01*
X-532621Y749189D01*
X-532685Y749165D01*
X-532748Y749136D01*
X-532809Y749105D01*
X-532868Y749070D01*
X-532926Y749032D01*
X-532981Y748990D01*
X-533033Y748946D01*
X-533083Y748898D01*
X-533131Y748848D01*
X-533175Y748796D01*
X-533217Y748741D01*
X-533255Y748683D01*
X-533290Y748624D01*
X-533321Y748563D01*
X-533350Y748500D01*
X-533374Y748436D01*
X-533395Y748370D01*
X-533412Y748303D01*
X-533426Y748236D01*
X-533435Y748167D01*
X-533441Y748099D01*
X-533443Y748030D01*
X-533443Y744347D01*
X-540024Y749258D02*
X-542479Y749258D01*
X-540842Y751713D02*
X-540842Y745575D01*
X-540844Y745506D01*
X-540850Y745438D01*
X-540859Y745369D01*
X-540873Y745302D01*
X-540890Y745235D01*
X-540911Y745169D01*
X-540935Y745105D01*
X-540964Y745042D01*
X-540995Y744981D01*
X-541030Y744922D01*
X-541068Y744864D01*
X-541110Y744809D01*
X-541154Y744757D01*
X-541202Y744707D01*
X-541252Y744659D01*
X-541304Y744615D01*
X-541359Y744573D01*
X-541417Y744535D01*
X-541476Y744500D01*
X-541537Y744469D01*
X-541600Y744440D01*
X-541664Y744416D01*
X-541730Y744395D01*
X-541797Y744378D01*
X-541864Y744364D01*
X-541933Y744355D01*
X-542001Y744349D01*
X-542070Y744347D01*
X-542479Y744347D01*
X-545531Y744347D02*
X-545531Y751713D01*
X-545531Y749258D02*
X-547577Y749258D01*
X-547646Y749256D01*
X-547714Y749250D01*
X-547783Y749241D01*
X-547850Y749227D01*
X-547917Y749210D01*
X-547983Y749189D01*
X-548047Y749165D01*
X-548110Y749136D01*
X-548171Y749105D01*
X-548230Y749070D01*
X-548288Y749032D01*
X-548343Y748990D01*
X-548395Y748946D01*
X-548445Y748898D01*
X-548493Y748848D01*
X-548537Y748796D01*
X-548579Y748741D01*
X-548617Y748683D01*
X-548652Y748624D01*
X-548683Y748563D01*
X-548712Y748500D01*
X-548736Y748436D01*
X-548757Y748370D01*
X-548774Y748303D01*
X-548788Y748236D01*
X-548797Y748167D01*
X-548803Y748099D01*
X-548805Y748030D01*
X-548805Y744347D01*
X-552045Y744347D02*
X-552045Y749258D01*
X-551840Y751304D02*
X-551840Y751713D01*
X-552249Y751713D01*
X-552249Y751304D01*
X-551840Y751304D01*
X-555655Y747212D02*
X-557701Y746393D01*
X-555655Y747212D02*
X-555596Y747237D01*
X-555539Y747266D01*
X-555484Y747299D01*
X-555431Y747335D01*
X-555380Y747373D01*
X-555332Y747415D01*
X-555286Y747460D01*
X-555243Y747507D01*
X-555203Y747557D01*
X-555166Y747609D01*
X-555132Y747664D01*
X-555101Y747720D01*
X-555074Y747778D01*
X-555051Y747838D01*
X-555031Y747898D01*
X-555015Y747960D01*
X-555002Y748023D01*
X-554994Y748087D01*
X-554989Y748150D01*
X-554988Y748214D01*
X-554991Y748278D01*
X-554998Y748342D01*
X-555009Y748405D01*
X-555023Y748467D01*
X-555041Y748529D01*
X-555063Y748589D01*
X-555088Y748648D01*
X-555117Y748705D01*
X-555150Y748760D01*
X-555185Y748813D01*
X-555224Y748864D01*
X-555266Y748913D01*
X-555310Y748959D01*
X-555358Y749002D01*
X-555407Y749042D01*
X-555460Y749079D01*
X-555514Y749113D01*
X-555570Y749144D01*
X-555628Y749171D01*
X-555687Y749195D01*
X-555748Y749214D01*
X-555810Y749231D01*
X-555873Y749243D01*
X-555936Y749252D01*
X-556000Y749257D01*
X-556064Y749258D01*
X-556063Y749258D02*
X-556199Y749254D01*
X-556334Y749246D01*
X-556470Y749234D01*
X-556604Y749218D01*
X-556739Y749198D01*
X-556872Y749175D01*
X-557005Y749147D01*
X-557137Y749116D01*
X-557268Y749081D01*
X-557398Y749042D01*
X-557527Y748999D01*
X-557654Y748952D01*
X-557780Y748902D01*
X-557905Y748848D01*
X-557701Y746393D02*
X-557760Y746368D01*
X-557817Y746339D01*
X-557872Y746306D01*
X-557925Y746270D01*
X-557976Y746232D01*
X-558024Y746190D01*
X-558070Y746145D01*
X-558113Y746098D01*
X-558153Y746048D01*
X-558190Y745996D01*
X-558224Y745941D01*
X-558255Y745885D01*
X-558282Y745827D01*
X-558305Y745767D01*
X-558325Y745707D01*
X-558341Y745645D01*
X-558354Y745582D01*
X-558362Y745518D01*
X-558367Y745455D01*
X-558368Y745391D01*
X-558365Y745327D01*
X-558358Y745263D01*
X-558347Y745200D01*
X-558333Y745138D01*
X-558315Y745076D01*
X-558293Y745016D01*
X-558268Y744957D01*
X-558239Y744900D01*
X-558206Y744845D01*
X-558171Y744792D01*
X-558132Y744741D01*
X-558090Y744692D01*
X-558046Y744646D01*
X-557998Y744603D01*
X-557949Y744563D01*
X-557896Y744526D01*
X-557842Y744492D01*
X-557786Y744461D01*
X-557728Y744434D01*
X-557669Y744410D01*
X-557608Y744391D01*
X-557546Y744374D01*
X-557483Y744362D01*
X-557420Y744353D01*
X-557356Y744348D01*
X-557292Y744347D01*
X-557128Y744351D01*
X-556964Y744359D01*
X-556800Y744371D01*
X-556637Y744387D01*
X-556474Y744407D01*
X-556311Y744430D01*
X-556150Y744458D01*
X-555988Y744489D01*
X-555828Y744524D01*
X-555669Y744563D01*
X-555510Y744606D01*
X-555353Y744652D01*
X-555196Y744702D01*
X-555041Y744756D01*
X-565896Y747212D02*
X-567942Y746393D01*
X-565896Y747212D02*
X-565837Y747237D01*
X-565780Y747266D01*
X-565725Y747299D01*
X-565672Y747335D01*
X-565621Y747373D01*
X-565573Y747415D01*
X-565527Y747460D01*
X-565484Y747507D01*
X-565444Y747557D01*
X-565407Y747609D01*
X-565373Y747664D01*
X-565342Y747720D01*
X-565315Y747778D01*
X-565292Y747838D01*
X-565272Y747898D01*
X-565256Y747960D01*
X-565243Y748023D01*
X-565235Y748087D01*
X-565230Y748150D01*
X-565229Y748214D01*
X-565232Y748278D01*
X-565239Y748342D01*
X-565250Y748405D01*
X-565264Y748467D01*
X-565282Y748529D01*
X-565304Y748589D01*
X-565329Y748648D01*
X-565358Y748705D01*
X-565391Y748760D01*
X-565426Y748813D01*
X-565465Y748864D01*
X-565507Y748913D01*
X-565551Y748959D01*
X-565599Y749002D01*
X-565648Y749042D01*
X-565701Y749079D01*
X-565755Y749113D01*
X-565811Y749144D01*
X-565869Y749171D01*
X-565928Y749195D01*
X-565989Y749214D01*
X-566051Y749231D01*
X-566114Y749243D01*
X-566177Y749252D01*
X-566241Y749257D01*
X-566305Y749258D01*
X-566441Y749254D01*
X-566576Y749246D01*
X-566712Y749234D01*
X-566846Y749218D01*
X-566981Y749198D01*
X-567114Y749175D01*
X-567247Y749147D01*
X-567379Y749116D01*
X-567510Y749081D01*
X-567640Y749042D01*
X-567769Y748999D01*
X-567896Y748952D01*
X-568022Y748902D01*
X-568147Y748848D01*
X-567942Y746393D02*
X-568001Y746368D01*
X-568058Y746339D01*
X-568113Y746306D01*
X-568166Y746270D01*
X-568217Y746232D01*
X-568265Y746190D01*
X-568311Y746145D01*
X-568354Y746098D01*
X-568394Y746048D01*
X-568431Y745996D01*
X-568465Y745941D01*
X-568496Y745885D01*
X-568523Y745827D01*
X-568546Y745767D01*
X-568566Y745707D01*
X-568582Y745645D01*
X-568595Y745582D01*
X-568603Y745518D01*
X-568608Y745455D01*
X-568609Y745391D01*
X-568606Y745327D01*
X-568599Y745263D01*
X-568588Y745200D01*
X-568574Y745138D01*
X-568556Y745076D01*
X-568534Y745016D01*
X-568509Y744957D01*
X-568480Y744900D01*
X-568447Y744845D01*
X-568412Y744792D01*
X-568373Y744741D01*
X-568331Y744692D01*
X-568287Y744646D01*
X-568239Y744603D01*
X-568190Y744563D01*
X-568137Y744526D01*
X-568083Y744492D01*
X-568027Y744461D01*
X-567969Y744434D01*
X-567910Y744410D01*
X-567849Y744391D01*
X-567787Y744374D01*
X-567724Y744362D01*
X-567661Y744353D01*
X-567597Y744348D01*
X-567533Y744347D01*
X-567369Y744351D01*
X-567205Y744359D01*
X-567041Y744371D01*
X-566878Y744387D01*
X-566715Y744407D01*
X-566552Y744430D01*
X-566391Y744458D01*
X-566229Y744489D01*
X-566069Y744524D01*
X-565910Y744563D01*
X-565751Y744606D01*
X-565594Y744652D01*
X-565437Y744702D01*
X-565282Y744756D01*
X-571552Y744347D02*
X-571552Y749258D01*
X-571347Y751304D02*
X-571347Y751713D01*
X-571756Y751713D01*
X-571756Y751304D01*
X-571347Y751304D01*
X-577781Y751713D02*
X-577781Y744347D01*
X-575735Y744347D01*
X-575666Y744349D01*
X-575598Y744355D01*
X-575529Y744364D01*
X-575462Y744378D01*
X-575395Y744395D01*
X-575329Y744416D01*
X-575265Y744440D01*
X-575202Y744469D01*
X-575141Y744500D01*
X-575082Y744535D01*
X-575024Y744573D01*
X-574969Y744615D01*
X-574917Y744659D01*
X-574867Y744707D01*
X-574819Y744757D01*
X-574775Y744809D01*
X-574733Y744864D01*
X-574695Y744922D01*
X-574660Y744981D01*
X-574629Y745042D01*
X-574600Y745105D01*
X-574576Y745169D01*
X-574555Y745235D01*
X-574538Y745302D01*
X-574524Y745369D01*
X-574515Y745438D01*
X-574509Y745506D01*
X-574507Y745575D01*
X-574507Y748030D01*
X-574509Y748099D01*
X-574515Y748167D01*
X-574524Y748236D01*
X-574538Y748303D01*
X-574555Y748370D01*
X-574576Y748436D01*
X-574600Y748500D01*
X-574629Y748563D01*
X-574660Y748624D01*
X-574695Y748683D01*
X-574733Y748741D01*
X-574775Y748796D01*
X-574819Y748848D01*
X-574867Y748898D01*
X-574917Y748946D01*
X-574969Y748990D01*
X-575024Y749032D01*
X-575082Y749070D01*
X-575141Y749105D01*
X-575202Y749136D01*
X-575265Y749165D01*
X-575329Y749189D01*
X-575395Y749210D01*
X-575462Y749227D01*
X-575529Y749241D01*
X-575598Y749250D01*
X-575666Y749256D01*
X-575735Y749258D01*
X-577781Y749258D01*
X-582359Y744347D02*
X-584405Y744347D01*
X-582359Y744347D02*
X-582290Y744349D01*
X-582222Y744355D01*
X-582153Y744364D01*
X-582086Y744378D01*
X-582019Y744395D01*
X-581953Y744416D01*
X-581889Y744440D01*
X-581826Y744469D01*
X-581765Y744500D01*
X-581706Y744535D01*
X-581648Y744573D01*
X-581593Y744615D01*
X-581541Y744659D01*
X-581491Y744707D01*
X-581443Y744757D01*
X-581399Y744809D01*
X-581357Y744864D01*
X-581319Y744922D01*
X-581284Y744981D01*
X-581253Y745042D01*
X-581224Y745105D01*
X-581200Y745169D01*
X-581179Y745235D01*
X-581162Y745302D01*
X-581148Y745369D01*
X-581139Y745438D01*
X-581133Y745506D01*
X-581131Y745575D01*
X-581132Y745575D02*
X-581132Y747621D01*
X-581131Y747621D02*
X-581133Y747700D01*
X-581139Y747779D01*
X-581148Y747858D01*
X-581161Y747936D01*
X-581179Y748013D01*
X-581199Y748089D01*
X-581224Y748164D01*
X-581252Y748238D01*
X-581283Y748311D01*
X-581319Y748382D01*
X-581357Y748451D01*
X-581399Y748518D01*
X-581444Y748583D01*
X-581492Y748646D01*
X-581543Y748707D01*
X-581597Y748764D01*
X-581653Y748820D01*
X-581712Y748872D01*
X-581774Y748922D01*
X-581838Y748968D01*
X-581904Y749012D01*
X-581972Y749052D01*
X-582042Y749088D01*
X-582114Y749122D01*
X-582188Y749152D01*
X-582262Y749178D01*
X-582338Y749201D01*
X-582415Y749219D01*
X-582492Y749235D01*
X-582571Y749246D01*
X-582649Y749254D01*
X-582728Y749258D01*
X-582808Y749258D01*
X-582887Y749254D01*
X-582965Y749246D01*
X-583044Y749235D01*
X-583121Y749219D01*
X-583198Y749201D01*
X-583274Y749178D01*
X-583348Y749152D01*
X-583422Y749122D01*
X-583494Y749088D01*
X-583564Y749052D01*
X-583632Y749012D01*
X-583698Y748968D01*
X-583762Y748922D01*
X-583824Y748872D01*
X-583883Y748820D01*
X-583939Y748764D01*
X-583993Y748707D01*
X-584044Y748646D01*
X-584092Y748583D01*
X-584137Y748518D01*
X-584179Y748451D01*
X-584217Y748382D01*
X-584253Y748311D01*
X-584284Y748238D01*
X-584312Y748164D01*
X-584337Y748089D01*
X-584357Y748013D01*
X-584375Y747936D01*
X-584388Y747858D01*
X-584397Y747779D01*
X-584403Y747700D01*
X-584405Y747621D01*
X-584405Y746802D01*
X-581132Y746802D01*
X-591480Y748030D02*
X-591482Y748199D01*
X-591488Y748367D01*
X-591498Y748535D01*
X-591512Y748703D01*
X-591531Y748871D01*
X-591553Y749038D01*
X-591579Y749204D01*
X-591609Y749370D01*
X-591644Y749535D01*
X-591682Y749699D01*
X-591724Y749863D01*
X-591770Y750025D01*
X-591820Y750186D01*
X-591874Y750346D01*
X-591931Y750504D01*
X-591993Y750661D01*
X-592058Y750816D01*
X-592127Y750970D01*
X-592199Y751122D01*
X-592275Y751273D01*
X-592355Y751421D01*
X-592438Y751568D01*
X-592525Y751712D01*
X-592616Y751855D01*
X-592709Y751995D01*
X-592806Y752133D01*
X-592907Y752268D01*
X-593010Y752401D01*
X-593117Y752531D01*
X-591480Y748030D02*
X-591482Y747861D01*
X-591488Y747693D01*
X-591498Y747525D01*
X-591512Y747357D01*
X-591531Y747189D01*
X-591553Y747022D01*
X-591579Y746856D01*
X-591609Y746690D01*
X-591644Y746525D01*
X-591682Y746361D01*
X-591724Y746197D01*
X-591770Y746035D01*
X-591820Y745874D01*
X-591874Y745714D01*
X-591931Y745556D01*
X-591993Y745399D01*
X-592058Y745244D01*
X-592127Y745090D01*
X-592199Y744938D01*
X-592275Y744787D01*
X-592355Y744639D01*
X-592438Y744492D01*
X-592525Y744348D01*
X-592616Y744205D01*
X-592709Y744065D01*
X-592806Y743927D01*
X-592907Y743792D01*
X-593010Y743659D01*
X-593117Y743529D01*
X-596290Y744347D02*
X-596290Y751713D01*
X-596290Y744347D02*
X-598337Y744347D01*
X-598406Y744349D01*
X-598474Y744355D01*
X-598543Y744364D01*
X-598610Y744378D01*
X-598677Y744395D01*
X-598743Y744416D01*
X-598807Y744440D01*
X-598870Y744469D01*
X-598931Y744500D01*
X-598990Y744535D01*
X-599048Y744573D01*
X-599103Y744615D01*
X-599155Y744659D01*
X-599205Y744707D01*
X-599253Y744757D01*
X-599297Y744809D01*
X-599339Y744864D01*
X-599377Y744922D01*
X-599412Y744981D01*
X-599443Y745042D01*
X-599472Y745105D01*
X-599496Y745169D01*
X-599517Y745235D01*
X-599534Y745302D01*
X-599548Y745369D01*
X-599557Y745438D01*
X-599563Y745506D01*
X-599565Y745575D01*
X-599564Y745575D02*
X-599564Y748030D01*
X-599565Y748030D02*
X-599563Y748099D01*
X-599557Y748167D01*
X-599548Y748236D01*
X-599534Y748303D01*
X-599517Y748370D01*
X-599496Y748436D01*
X-599472Y748500D01*
X-599443Y748563D01*
X-599412Y748624D01*
X-599377Y748683D01*
X-599339Y748741D01*
X-599297Y748796D01*
X-599253Y748848D01*
X-599205Y748898D01*
X-599155Y748946D01*
X-599103Y748990D01*
X-599048Y749032D01*
X-598990Y749070D01*
X-598931Y749105D01*
X-598870Y749136D01*
X-598807Y749165D01*
X-598743Y749189D01*
X-598677Y749210D01*
X-598610Y749227D01*
X-598543Y749241D01*
X-598474Y749250D01*
X-598406Y749256D01*
X-598337Y749258D01*
X-596290Y749258D01*
X-603981Y747212D02*
X-605822Y747212D01*
X-603981Y747211D02*
X-603906Y747209D01*
X-603831Y747203D01*
X-603757Y747193D01*
X-603683Y747180D01*
X-603610Y747162D01*
X-603538Y747141D01*
X-603468Y747116D01*
X-603399Y747087D01*
X-603331Y747055D01*
X-603265Y747019D01*
X-603201Y746980D01*
X-603139Y746938D01*
X-603080Y746892D01*
X-603023Y746843D01*
X-602968Y746792D01*
X-602917Y746737D01*
X-602868Y746680D01*
X-602822Y746621D01*
X-602780Y746559D01*
X-602741Y746495D01*
X-602705Y746429D01*
X-602673Y746361D01*
X-602644Y746292D01*
X-602619Y746222D01*
X-602598Y746150D01*
X-602580Y746077D01*
X-602567Y746003D01*
X-602557Y745929D01*
X-602551Y745854D01*
X-602549Y745779D01*
X-602551Y745704D01*
X-602557Y745629D01*
X-602567Y745555D01*
X-602580Y745481D01*
X-602598Y745408D01*
X-602619Y745336D01*
X-602644Y745266D01*
X-602673Y745197D01*
X-602705Y745129D01*
X-602741Y745063D01*
X-602780Y744999D01*
X-602822Y744937D01*
X-602868Y744878D01*
X-602917Y744821D01*
X-602968Y744766D01*
X-603023Y744715D01*
X-603080Y744666D01*
X-603139Y744620D01*
X-603201Y744578D01*
X-603265Y744539D01*
X-603331Y744503D01*
X-603399Y744471D01*
X-603468Y744442D01*
X-603538Y744417D01*
X-603610Y744396D01*
X-603683Y744378D01*
X-603757Y744365D01*
X-603831Y744355D01*
X-603906Y744349D01*
X-603981Y744347D01*
X-605822Y744347D01*
X-605822Y748030D01*
X-605823Y748030D02*
X-605821Y748099D01*
X-605815Y748167D01*
X-605806Y748236D01*
X-605792Y748303D01*
X-605775Y748370D01*
X-605754Y748436D01*
X-605730Y748500D01*
X-605701Y748563D01*
X-605670Y748624D01*
X-605635Y748683D01*
X-605597Y748741D01*
X-605555Y748796D01*
X-605511Y748848D01*
X-605463Y748898D01*
X-605413Y748946D01*
X-605361Y748990D01*
X-605306Y749032D01*
X-605248Y749070D01*
X-605189Y749105D01*
X-605128Y749136D01*
X-605065Y749165D01*
X-605001Y749189D01*
X-604935Y749210D01*
X-604868Y749227D01*
X-604801Y749241D01*
X-604732Y749250D01*
X-604664Y749256D01*
X-604595Y749258D01*
X-602958Y749258D01*
X-610410Y744347D02*
X-612047Y744347D01*
X-610410Y744347D02*
X-610341Y744349D01*
X-610273Y744355D01*
X-610204Y744364D01*
X-610137Y744378D01*
X-610070Y744395D01*
X-610004Y744416D01*
X-609940Y744440D01*
X-609877Y744469D01*
X-609816Y744500D01*
X-609757Y744535D01*
X-609699Y744573D01*
X-609644Y744615D01*
X-609592Y744659D01*
X-609542Y744707D01*
X-609494Y744757D01*
X-609450Y744809D01*
X-609408Y744864D01*
X-609370Y744922D01*
X-609335Y744981D01*
X-609304Y745042D01*
X-609275Y745105D01*
X-609251Y745169D01*
X-609230Y745235D01*
X-609213Y745302D01*
X-609199Y745369D01*
X-609190Y745438D01*
X-609184Y745506D01*
X-609182Y745575D01*
X-609182Y748030D01*
X-609184Y748099D01*
X-609190Y748167D01*
X-609199Y748236D01*
X-609213Y748303D01*
X-609230Y748370D01*
X-609251Y748436D01*
X-609275Y748500D01*
X-609304Y748563D01*
X-609335Y748624D01*
X-609370Y748683D01*
X-609408Y748741D01*
X-609450Y748796D01*
X-609494Y748848D01*
X-609542Y748898D01*
X-609592Y748946D01*
X-609644Y748990D01*
X-609699Y749032D01*
X-609757Y749070D01*
X-609816Y749105D01*
X-609877Y749136D01*
X-609940Y749165D01*
X-610004Y749189D01*
X-610070Y749210D01*
X-610137Y749227D01*
X-610204Y749241D01*
X-610273Y749250D01*
X-610341Y749256D01*
X-610410Y749258D01*
X-612047Y749258D01*
X-615119Y751713D02*
X-615119Y744347D01*
X-615119Y746802D02*
X-618393Y749258D01*
X-616552Y747825D02*
X-618393Y744347D01*
X-620944Y743529D02*
X-621051Y743659D01*
X-621154Y743792D01*
X-621255Y743927D01*
X-621352Y744065D01*
X-621445Y744205D01*
X-621536Y744348D01*
X-621623Y744492D01*
X-621706Y744639D01*
X-621786Y744787D01*
X-621862Y744938D01*
X-621934Y745090D01*
X-622003Y745244D01*
X-622068Y745399D01*
X-622130Y745556D01*
X-622187Y745714D01*
X-622241Y745874D01*
X-622291Y746035D01*
X-622337Y746197D01*
X-622379Y746361D01*
X-622417Y746525D01*
X-622452Y746690D01*
X-622482Y746856D01*
X-622508Y747022D01*
X-622530Y747189D01*
X-622549Y747357D01*
X-622563Y747525D01*
X-622573Y747693D01*
X-622579Y747861D01*
X-622581Y748030D01*
X-622579Y748199D01*
X-622573Y748367D01*
X-622563Y748535D01*
X-622549Y748703D01*
X-622530Y748871D01*
X-622508Y749038D01*
X-622482Y749204D01*
X-622452Y749370D01*
X-622417Y749535D01*
X-622379Y749699D01*
X-622337Y749863D01*
X-622291Y750025D01*
X-622241Y750186D01*
X-622187Y750346D01*
X-622130Y750504D01*
X-622068Y750661D01*
X-622003Y750816D01*
X-621934Y750970D01*
X-621862Y751122D01*
X-621786Y751273D01*
X-621706Y751421D01*
X-621623Y751568D01*
X-621536Y751712D01*
X-621445Y751855D01*
X-621352Y751995D01*
X-621255Y752133D01*
X-621154Y752268D01*
X-621051Y752401D01*
X-620944Y752531D01*
D11*
X-30244Y689864D02*
X-30244Y562864D01*
X-64244Y562864D01*
X-64244Y689864D01*
X-30244Y689864D01*
X-274084Y684784D02*
X-274084Y557784D01*
X-308084Y557784D01*
X-308084Y684784D01*
X-274084Y684784D01*
D12*
X38862Y429768D02*
X38862Y321564D01*
X38862Y429768D02*
X75946Y429768D01*
X75946Y321564D01*
X38862Y321564D01*
X-585470Y501396D02*
X-633730Y501396D01*
X-585470Y501396D02*
X-585312Y501398D01*
X-585153Y501404D01*
X-584995Y501414D01*
X-584838Y501428D01*
X-584680Y501445D01*
X-584524Y501467D01*
X-584367Y501492D01*
X-584212Y501522D01*
X-584057Y501555D01*
X-583903Y501592D01*
X-583750Y501633D01*
X-583598Y501678D01*
X-583448Y501727D01*
X-583298Y501779D01*
X-583150Y501835D01*
X-583003Y501895D01*
X-582858Y501958D01*
X-582715Y502025D01*
X-582573Y502095D01*
X-582433Y502169D01*
X-582295Y502247D01*
X-582159Y502328D01*
X-582025Y502412D01*
X-581893Y502499D01*
X-581763Y502590D01*
X-581636Y502684D01*
X-581511Y502781D01*
X-581388Y502882D01*
X-581268Y502985D01*
X-581151Y503091D01*
X-581036Y503200D01*
X-580924Y503312D01*
X-580815Y503427D01*
X-580709Y503544D01*
X-580606Y503664D01*
X-580505Y503787D01*
X-580408Y503912D01*
X-580314Y504039D01*
X-580223Y504169D01*
X-580136Y504301D01*
X-580052Y504435D01*
X-579971Y504571D01*
X-579893Y504709D01*
X-579819Y504849D01*
X-579749Y504991D01*
X-579682Y505134D01*
X-579619Y505279D01*
X-579559Y505426D01*
X-579503Y505574D01*
X-579451Y505724D01*
X-579402Y505874D01*
X-579357Y506026D01*
X-579316Y506179D01*
X-579279Y506333D01*
X-579246Y506488D01*
X-579216Y506643D01*
X-579191Y506800D01*
X-579169Y506956D01*
X-579152Y507114D01*
X-579138Y507271D01*
X-579128Y507429D01*
X-579122Y507588D01*
X-579120Y507746D01*
X-633730Y501396D02*
X-633888Y501398D01*
X-634047Y501404D01*
X-634205Y501414D01*
X-634362Y501428D01*
X-634520Y501445D01*
X-634676Y501467D01*
X-634833Y501492D01*
X-634988Y501522D01*
X-635143Y501555D01*
X-635297Y501592D01*
X-635450Y501633D01*
X-635602Y501678D01*
X-635752Y501727D01*
X-635902Y501779D01*
X-636050Y501835D01*
X-636197Y501895D01*
X-636342Y501958D01*
X-636485Y502025D01*
X-636627Y502095D01*
X-636767Y502169D01*
X-636905Y502247D01*
X-637041Y502328D01*
X-637175Y502412D01*
X-637307Y502499D01*
X-637437Y502590D01*
X-637564Y502684D01*
X-637689Y502781D01*
X-637812Y502882D01*
X-637932Y502985D01*
X-638049Y503091D01*
X-638164Y503200D01*
X-638276Y503312D01*
X-638385Y503427D01*
X-638491Y503544D01*
X-638594Y503664D01*
X-638695Y503787D01*
X-638792Y503912D01*
X-638886Y504039D01*
X-638977Y504169D01*
X-639064Y504301D01*
X-639148Y504435D01*
X-639229Y504571D01*
X-639307Y504709D01*
X-639381Y504849D01*
X-639451Y504991D01*
X-639518Y505134D01*
X-639581Y505279D01*
X-639641Y505426D01*
X-639697Y505574D01*
X-639749Y505724D01*
X-639798Y505874D01*
X-639843Y506026D01*
X-639884Y506179D01*
X-639921Y506333D01*
X-639954Y506488D01*
X-639984Y506643D01*
X-640009Y506800D01*
X-640031Y506956D01*
X-640048Y507114D01*
X-640062Y507271D01*
X-640072Y507429D01*
X-640078Y507588D01*
X-640080Y507746D01*
X-579120Y507746D02*
X-579120Y698246D01*
X-585470Y704596D02*
X-633730Y704596D01*
X-640080Y698246D02*
X-640080Y507746D01*
X-579120Y698246D02*
X-579122Y698404D01*
X-579128Y698563D01*
X-579138Y698721D01*
X-579152Y698878D01*
X-579169Y699036D01*
X-579191Y699192D01*
X-579216Y699349D01*
X-579246Y699504D01*
X-579279Y699659D01*
X-579316Y699813D01*
X-579357Y699966D01*
X-579402Y700118D01*
X-579451Y700268D01*
X-579503Y700418D01*
X-579559Y700566D01*
X-579619Y700713D01*
X-579682Y700858D01*
X-579749Y701001D01*
X-579819Y701143D01*
X-579893Y701283D01*
X-579971Y701421D01*
X-580052Y701557D01*
X-580136Y701691D01*
X-580223Y701823D01*
X-580314Y701953D01*
X-580408Y702080D01*
X-580505Y702205D01*
X-580606Y702328D01*
X-580709Y702448D01*
X-580815Y702565D01*
X-580924Y702680D01*
X-581036Y702792D01*
X-581151Y702901D01*
X-581268Y703007D01*
X-581388Y703110D01*
X-581511Y703211D01*
X-581636Y703308D01*
X-581763Y703402D01*
X-581893Y703493D01*
X-582025Y703580D01*
X-582159Y703664D01*
X-582295Y703745D01*
X-582433Y703823D01*
X-582573Y703897D01*
X-582715Y703967D01*
X-582858Y704034D01*
X-583003Y704097D01*
X-583150Y704157D01*
X-583298Y704213D01*
X-583448Y704265D01*
X-583598Y704314D01*
X-583750Y704359D01*
X-583903Y704400D01*
X-584057Y704437D01*
X-584212Y704470D01*
X-584367Y704500D01*
X-584524Y704525D01*
X-584680Y704547D01*
X-584838Y704564D01*
X-584995Y704578D01*
X-585153Y704588D01*
X-585312Y704594D01*
X-585470Y704596D01*
X-633730Y704596D02*
X-633888Y704594D01*
X-634047Y704588D01*
X-634205Y704578D01*
X-634362Y704564D01*
X-634520Y704547D01*
X-634676Y704525D01*
X-634833Y704500D01*
X-634988Y704470D01*
X-635143Y704437D01*
X-635297Y704400D01*
X-635450Y704359D01*
X-635602Y704314D01*
X-635752Y704265D01*
X-635902Y704213D01*
X-636050Y704157D01*
X-636197Y704097D01*
X-636342Y704034D01*
X-636485Y703967D01*
X-636627Y703897D01*
X-636767Y703823D01*
X-636905Y703745D01*
X-637041Y703664D01*
X-637175Y703580D01*
X-637307Y703493D01*
X-637437Y703402D01*
X-637564Y703308D01*
X-637689Y703211D01*
X-637812Y703110D01*
X-637932Y703007D01*
X-638049Y702901D01*
X-638164Y702792D01*
X-638276Y702680D01*
X-638385Y702565D01*
X-638491Y702448D01*
X-638594Y702328D01*
X-638695Y702205D01*
X-638792Y702080D01*
X-638886Y701953D01*
X-638977Y701823D01*
X-639064Y701691D01*
X-639148Y701557D01*
X-639229Y701421D01*
X-639307Y701283D01*
X-639381Y701143D01*
X-639451Y701001D01*
X-639518Y700858D01*
X-639581Y700713D01*
X-639641Y700566D01*
X-639697Y700418D01*
X-639749Y700268D01*
X-639798Y700118D01*
X-639843Y699966D01*
X-639884Y699813D01*
X-639921Y699659D01*
X-639954Y699504D01*
X-639984Y699349D01*
X-640009Y699192D01*
X-640031Y699036D01*
X-640048Y698878D01*
X-640062Y698721D01*
X-640072Y698563D01*
X-640078Y698404D01*
X-640080Y698246D01*
D11*
X-563245Y514096D02*
X-565785Y510921D01*
X-563245Y514096D02*
X-574675Y514096D01*
X-574675Y510921D02*
X-574675Y517271D01*
X-647065Y683641D02*
X-644525Y686816D01*
X-655955Y686816D01*
X-655955Y683641D02*
X-655955Y689991D01*
X-649605Y695071D02*
X-649605Y698881D01*
X-649607Y698981D01*
X-649613Y699080D01*
X-649623Y699180D01*
X-649636Y699278D01*
X-649654Y699377D01*
X-649675Y699474D01*
X-649700Y699570D01*
X-649729Y699666D01*
X-649762Y699760D01*
X-649798Y699853D01*
X-649838Y699944D01*
X-649882Y700034D01*
X-649929Y700122D01*
X-649979Y700208D01*
X-650033Y700292D01*
X-650090Y700374D01*
X-650150Y700453D01*
X-650214Y700531D01*
X-650280Y700605D01*
X-650349Y700677D01*
X-650421Y700746D01*
X-650495Y700812D01*
X-650573Y700876D01*
X-650652Y700936D01*
X-650734Y700993D01*
X-650818Y701047D01*
X-650904Y701097D01*
X-650992Y701144D01*
X-651082Y701188D01*
X-651173Y701228D01*
X-651266Y701264D01*
X-651360Y701297D01*
X-651456Y701326D01*
X-651552Y701351D01*
X-651649Y701372D01*
X-651748Y701390D01*
X-651846Y701403D01*
X-651946Y701413D01*
X-652045Y701419D01*
X-652145Y701421D01*
X-652780Y701421D01*
X-652891Y701419D01*
X-653001Y701413D01*
X-653112Y701404D01*
X-653222Y701390D01*
X-653331Y701373D01*
X-653440Y701352D01*
X-653548Y701327D01*
X-653655Y701298D01*
X-653761Y701266D01*
X-653866Y701230D01*
X-653969Y701190D01*
X-654071Y701147D01*
X-654172Y701100D01*
X-654271Y701049D01*
X-654368Y700996D01*
X-654462Y700939D01*
X-654555Y700878D01*
X-654646Y700815D01*
X-654735Y700748D01*
X-654821Y700678D01*
X-654904Y700605D01*
X-654986Y700530D01*
X-655064Y700452D01*
X-655139Y700370D01*
X-655212Y700287D01*
X-655282Y700201D01*
X-655349Y700112D01*
X-655412Y700021D01*
X-655473Y699928D01*
X-655530Y699834D01*
X-655583Y699737D01*
X-655634Y699638D01*
X-655681Y699537D01*
X-655724Y699435D01*
X-655764Y699332D01*
X-655800Y699227D01*
X-655832Y699121D01*
X-655861Y699014D01*
X-655886Y698906D01*
X-655907Y698797D01*
X-655924Y698688D01*
X-655938Y698578D01*
X-655947Y698467D01*
X-655953Y698357D01*
X-655955Y698246D01*
X-655953Y698135D01*
X-655947Y698025D01*
X-655938Y697914D01*
X-655924Y697804D01*
X-655907Y697695D01*
X-655886Y697586D01*
X-655861Y697478D01*
X-655832Y697371D01*
X-655800Y697265D01*
X-655764Y697160D01*
X-655724Y697057D01*
X-655681Y696955D01*
X-655634Y696854D01*
X-655583Y696755D01*
X-655530Y696659D01*
X-655473Y696564D01*
X-655412Y696471D01*
X-655349Y696380D01*
X-655282Y696291D01*
X-655212Y696205D01*
X-655139Y696122D01*
X-655064Y696040D01*
X-654986Y695962D01*
X-654904Y695887D01*
X-654821Y695814D01*
X-654735Y695744D01*
X-654646Y695677D01*
X-654555Y695614D01*
X-654462Y695553D01*
X-654368Y695496D01*
X-654271Y695443D01*
X-654172Y695392D01*
X-654071Y695345D01*
X-653969Y695302D01*
X-653866Y695262D01*
X-653761Y695226D01*
X-653655Y695194D01*
X-653548Y695165D01*
X-653440Y695140D01*
X-653331Y695119D01*
X-653222Y695102D01*
X-653112Y695088D01*
X-653001Y695079D01*
X-652891Y695073D01*
X-652780Y695071D01*
X-649605Y695071D01*
X-649465Y695073D01*
X-649325Y695079D01*
X-649185Y695088D01*
X-649046Y695102D01*
X-648907Y695119D01*
X-648769Y695140D01*
X-648631Y695165D01*
X-648494Y695194D01*
X-648358Y695226D01*
X-648223Y695263D01*
X-648089Y695303D01*
X-647956Y695346D01*
X-647824Y695394D01*
X-647693Y695444D01*
X-647564Y695499D01*
X-647437Y695557D01*
X-647311Y695618D01*
X-647187Y695683D01*
X-647065Y695752D01*
X-646945Y695823D01*
X-646827Y695898D01*
X-646710Y695976D01*
X-646596Y696058D01*
X-646485Y696142D01*
X-646376Y696230D01*
X-646269Y696320D01*
X-646164Y696414D01*
X-646063Y696510D01*
X-645964Y696609D01*
X-645868Y696710D01*
X-645774Y696815D01*
X-645684Y696922D01*
X-645596Y697031D01*
X-645512Y697142D01*
X-645430Y697256D01*
X-645352Y697373D01*
X-645277Y697491D01*
X-645206Y697611D01*
X-645137Y697733D01*
X-645072Y697857D01*
X-645011Y697983D01*
X-644953Y698110D01*
X-644898Y698239D01*
X-644848Y698370D01*
X-644800Y698502D01*
X-644757Y698635D01*
X-644717Y698769D01*
X-644680Y698904D01*
X-644648Y699040D01*
X-644619Y699177D01*
X-644594Y699315D01*
X-644573Y699453D01*
X-644556Y699592D01*
X-644542Y699731D01*
X-644533Y699871D01*
X-644527Y700011D01*
X-644525Y700151D01*
X-373126Y734568D02*
X-373126Y480568D01*
X-373126Y734568D02*
X-398526Y734568D01*
X-398526Y480568D01*
X-373126Y480568D01*
D12*
X-657098Y494030D02*
X-700278Y494030D01*
X-700278Y519430D02*
X-657098Y519430D01*
X-654558Y516890D02*
X-654558Y496570D01*
X-702818Y496570D02*
X-702818Y516890D01*
X-657098Y494030D02*
X-656998Y494032D01*
X-656899Y494038D01*
X-656799Y494048D01*
X-656701Y494061D01*
X-656602Y494079D01*
X-656505Y494100D01*
X-656409Y494125D01*
X-656313Y494154D01*
X-656219Y494187D01*
X-656126Y494223D01*
X-656035Y494263D01*
X-655945Y494307D01*
X-655857Y494354D01*
X-655771Y494404D01*
X-655687Y494458D01*
X-655605Y494515D01*
X-655526Y494575D01*
X-655448Y494639D01*
X-655374Y494705D01*
X-655302Y494774D01*
X-655233Y494846D01*
X-655167Y494920D01*
X-655103Y494998D01*
X-655043Y495077D01*
X-654986Y495159D01*
X-654932Y495243D01*
X-654882Y495329D01*
X-654835Y495417D01*
X-654791Y495507D01*
X-654751Y495598D01*
X-654715Y495691D01*
X-654682Y495785D01*
X-654653Y495881D01*
X-654628Y495977D01*
X-654607Y496074D01*
X-654589Y496173D01*
X-654576Y496271D01*
X-654566Y496371D01*
X-654560Y496470D01*
X-654558Y496570D01*
X-700278Y494030D02*
X-700378Y494032D01*
X-700477Y494038D01*
X-700577Y494048D01*
X-700675Y494061D01*
X-700774Y494079D01*
X-700871Y494100D01*
X-700967Y494125D01*
X-701063Y494154D01*
X-701157Y494187D01*
X-701250Y494223D01*
X-701341Y494263D01*
X-701431Y494307D01*
X-701519Y494354D01*
X-701605Y494404D01*
X-701689Y494458D01*
X-701771Y494515D01*
X-701850Y494575D01*
X-701928Y494639D01*
X-702002Y494705D01*
X-702074Y494774D01*
X-702143Y494846D01*
X-702209Y494920D01*
X-702273Y494998D01*
X-702333Y495077D01*
X-702390Y495159D01*
X-702444Y495243D01*
X-702494Y495329D01*
X-702541Y495417D01*
X-702585Y495507D01*
X-702625Y495598D01*
X-702661Y495691D01*
X-702694Y495785D01*
X-702723Y495881D01*
X-702748Y495977D01*
X-702769Y496074D01*
X-702787Y496173D01*
X-702800Y496271D01*
X-702810Y496371D01*
X-702816Y496470D01*
X-702818Y496570D01*
X-657098Y519430D02*
X-656998Y519428D01*
X-656899Y519422D01*
X-656799Y519412D01*
X-656701Y519399D01*
X-656602Y519381D01*
X-656505Y519360D01*
X-656409Y519335D01*
X-656313Y519306D01*
X-656219Y519273D01*
X-656126Y519237D01*
X-656035Y519197D01*
X-655945Y519153D01*
X-655857Y519106D01*
X-655771Y519056D01*
X-655687Y519002D01*
X-655605Y518945D01*
X-655526Y518885D01*
X-655448Y518821D01*
X-655374Y518755D01*
X-655302Y518686D01*
X-655233Y518614D01*
X-655167Y518540D01*
X-655103Y518462D01*
X-655043Y518383D01*
X-654986Y518301D01*
X-654932Y518217D01*
X-654882Y518131D01*
X-654835Y518043D01*
X-654791Y517953D01*
X-654751Y517862D01*
X-654715Y517769D01*
X-654682Y517675D01*
X-654653Y517579D01*
X-654628Y517483D01*
X-654607Y517386D01*
X-654589Y517287D01*
X-654576Y517189D01*
X-654566Y517089D01*
X-654560Y516990D01*
X-654558Y516890D01*
X-700278Y519430D02*
X-700378Y519428D01*
X-700477Y519422D01*
X-700577Y519412D01*
X-700675Y519399D01*
X-700774Y519381D01*
X-700871Y519360D01*
X-700967Y519335D01*
X-701063Y519306D01*
X-701157Y519273D01*
X-701250Y519237D01*
X-701341Y519197D01*
X-701431Y519153D01*
X-701519Y519106D01*
X-701605Y519056D01*
X-701689Y519002D01*
X-701771Y518945D01*
X-701850Y518885D01*
X-701928Y518821D01*
X-702002Y518755D01*
X-702074Y518686D01*
X-702143Y518614D01*
X-702209Y518540D01*
X-702273Y518462D01*
X-702333Y518383D01*
X-702390Y518301D01*
X-702444Y518217D01*
X-702494Y518131D01*
X-702541Y518043D01*
X-702585Y517953D01*
X-702625Y517862D01*
X-702661Y517769D01*
X-702694Y517675D01*
X-702723Y517579D01*
X-702748Y517483D01*
X-702769Y517386D01*
X-702787Y517287D01*
X-702800Y517189D01*
X-702810Y517089D01*
X-702816Y516990D01*
X-702818Y516890D01*
X-676148Y506730D02*
X-674878Y506730D01*
D13*
X-676148Y506730D02*
X-676148Y499110D01*
X-676148Y506730D02*
X-676148Y514350D01*
X-681228Y506730D02*
X-681228Y499110D01*
X-681228Y506730D02*
X-681228Y514350D01*
D12*
X-681228Y506730D02*
X-682498Y506730D01*
X-700278Y521716D02*
X-657098Y521716D01*
X-657098Y547116D02*
X-700278Y547116D01*
X-654558Y544576D02*
X-654558Y524256D01*
X-702818Y524256D02*
X-702818Y544576D01*
X-657098Y521716D02*
X-656998Y521718D01*
X-656899Y521724D01*
X-656799Y521734D01*
X-656701Y521747D01*
X-656602Y521765D01*
X-656505Y521786D01*
X-656409Y521811D01*
X-656313Y521840D01*
X-656219Y521873D01*
X-656126Y521909D01*
X-656035Y521949D01*
X-655945Y521993D01*
X-655857Y522040D01*
X-655771Y522090D01*
X-655687Y522144D01*
X-655605Y522201D01*
X-655526Y522261D01*
X-655448Y522325D01*
X-655374Y522391D01*
X-655302Y522460D01*
X-655233Y522532D01*
X-655167Y522606D01*
X-655103Y522684D01*
X-655043Y522763D01*
X-654986Y522845D01*
X-654932Y522929D01*
X-654882Y523015D01*
X-654835Y523103D01*
X-654791Y523193D01*
X-654751Y523284D01*
X-654715Y523377D01*
X-654682Y523471D01*
X-654653Y523567D01*
X-654628Y523663D01*
X-654607Y523760D01*
X-654589Y523859D01*
X-654576Y523957D01*
X-654566Y524057D01*
X-654560Y524156D01*
X-654558Y524256D01*
X-700278Y521716D02*
X-700378Y521718D01*
X-700477Y521724D01*
X-700577Y521734D01*
X-700675Y521747D01*
X-700774Y521765D01*
X-700871Y521786D01*
X-700967Y521811D01*
X-701063Y521840D01*
X-701157Y521873D01*
X-701250Y521909D01*
X-701341Y521949D01*
X-701431Y521993D01*
X-701519Y522040D01*
X-701605Y522090D01*
X-701689Y522144D01*
X-701771Y522201D01*
X-701850Y522261D01*
X-701928Y522325D01*
X-702002Y522391D01*
X-702074Y522460D01*
X-702143Y522532D01*
X-702209Y522606D01*
X-702273Y522684D01*
X-702333Y522763D01*
X-702390Y522845D01*
X-702444Y522929D01*
X-702494Y523015D01*
X-702541Y523103D01*
X-702585Y523193D01*
X-702625Y523284D01*
X-702661Y523377D01*
X-702694Y523471D01*
X-702723Y523567D01*
X-702748Y523663D01*
X-702769Y523760D01*
X-702787Y523859D01*
X-702800Y523957D01*
X-702810Y524057D01*
X-702816Y524156D01*
X-702818Y524256D01*
X-657098Y547116D02*
X-656998Y547114D01*
X-656899Y547108D01*
X-656799Y547098D01*
X-656701Y547085D01*
X-656602Y547067D01*
X-656505Y547046D01*
X-656409Y547021D01*
X-656313Y546992D01*
X-656219Y546959D01*
X-656126Y546923D01*
X-656035Y546883D01*
X-655945Y546839D01*
X-655857Y546792D01*
X-655771Y546742D01*
X-655687Y546688D01*
X-655605Y546631D01*
X-655526Y546571D01*
X-655448Y546507D01*
X-655374Y546441D01*
X-655302Y546372D01*
X-655233Y546300D01*
X-655167Y546226D01*
X-655103Y546148D01*
X-655043Y546069D01*
X-654986Y545987D01*
X-654932Y545903D01*
X-654882Y545817D01*
X-654835Y545729D01*
X-654791Y545639D01*
X-654751Y545548D01*
X-654715Y545455D01*
X-654682Y545361D01*
X-654653Y545265D01*
X-654628Y545169D01*
X-654607Y545072D01*
X-654589Y544973D01*
X-654576Y544875D01*
X-654566Y544775D01*
X-654560Y544676D01*
X-654558Y544576D01*
X-700278Y547116D02*
X-700378Y547114D01*
X-700477Y547108D01*
X-700577Y547098D01*
X-700675Y547085D01*
X-700774Y547067D01*
X-700871Y547046D01*
X-700967Y547021D01*
X-701063Y546992D01*
X-701157Y546959D01*
X-701250Y546923D01*
X-701341Y546883D01*
X-701431Y546839D01*
X-701519Y546792D01*
X-701605Y546742D01*
X-701689Y546688D01*
X-701771Y546631D01*
X-701850Y546571D01*
X-701928Y546507D01*
X-702002Y546441D01*
X-702074Y546372D01*
X-702143Y546300D01*
X-702209Y546226D01*
X-702273Y546148D01*
X-702333Y546069D01*
X-702390Y545987D01*
X-702444Y545903D01*
X-702494Y545817D01*
X-702541Y545729D01*
X-702585Y545639D01*
X-702625Y545548D01*
X-702661Y545455D01*
X-702694Y545361D01*
X-702723Y545265D01*
X-702748Y545169D01*
X-702769Y545072D01*
X-702787Y544973D01*
X-702800Y544875D01*
X-702810Y544775D01*
X-702816Y544676D01*
X-702818Y544576D01*
X-676148Y534416D02*
X-674878Y534416D01*
D13*
X-676148Y534416D02*
X-676148Y526796D01*
X-676148Y534416D02*
X-676148Y542036D01*
X-681228Y534416D02*
X-681228Y526796D01*
X-681228Y534416D02*
X-681228Y542036D01*
D12*
X-681228Y534416D02*
X-682498Y534416D01*
X-700278Y549148D02*
X-657098Y549148D01*
X-657098Y574548D02*
X-700278Y574548D01*
X-654558Y572008D02*
X-654558Y551688D01*
X-702818Y551688D02*
X-702818Y572008D01*
X-657098Y549148D02*
X-656998Y549150D01*
X-656899Y549156D01*
X-656799Y549166D01*
X-656701Y549179D01*
X-656602Y549197D01*
X-656505Y549218D01*
X-656409Y549243D01*
X-656313Y549272D01*
X-656219Y549305D01*
X-656126Y549341D01*
X-656035Y549381D01*
X-655945Y549425D01*
X-655857Y549472D01*
X-655771Y549522D01*
X-655687Y549576D01*
X-655605Y549633D01*
X-655526Y549693D01*
X-655448Y549757D01*
X-655374Y549823D01*
X-655302Y549892D01*
X-655233Y549964D01*
X-655167Y550038D01*
X-655103Y550116D01*
X-655043Y550195D01*
X-654986Y550277D01*
X-654932Y550361D01*
X-654882Y550447D01*
X-654835Y550535D01*
X-654791Y550625D01*
X-654751Y550716D01*
X-654715Y550809D01*
X-654682Y550903D01*
X-654653Y550999D01*
X-654628Y551095D01*
X-654607Y551192D01*
X-654589Y551291D01*
X-654576Y551389D01*
X-654566Y551489D01*
X-654560Y551588D01*
X-654558Y551688D01*
X-700278Y549148D02*
X-700378Y549150D01*
X-700477Y549156D01*
X-700577Y549166D01*
X-700675Y549179D01*
X-700774Y549197D01*
X-700871Y549218D01*
X-700967Y549243D01*
X-701063Y549272D01*
X-701157Y549305D01*
X-701250Y549341D01*
X-701341Y549381D01*
X-701431Y549425D01*
X-701519Y549472D01*
X-701605Y549522D01*
X-701689Y549576D01*
X-701771Y549633D01*
X-701850Y549693D01*
X-701928Y549757D01*
X-702002Y549823D01*
X-702074Y549892D01*
X-702143Y549964D01*
X-702209Y550038D01*
X-702273Y550116D01*
X-702333Y550195D01*
X-702390Y550277D01*
X-702444Y550361D01*
X-702494Y550447D01*
X-702541Y550535D01*
X-702585Y550625D01*
X-702625Y550716D01*
X-702661Y550809D01*
X-702694Y550903D01*
X-702723Y550999D01*
X-702748Y551095D01*
X-702769Y551192D01*
X-702787Y551291D01*
X-702800Y551389D01*
X-702810Y551489D01*
X-702816Y551588D01*
X-702818Y551688D01*
X-657098Y574548D02*
X-656998Y574546D01*
X-656899Y574540D01*
X-656799Y574530D01*
X-656701Y574517D01*
X-656602Y574499D01*
X-656505Y574478D01*
X-656409Y574453D01*
X-656313Y574424D01*
X-656219Y574391D01*
X-656126Y574355D01*
X-656035Y574315D01*
X-655945Y574271D01*
X-655857Y574224D01*
X-655771Y574174D01*
X-655687Y574120D01*
X-655605Y574063D01*
X-655526Y574003D01*
X-655448Y573939D01*
X-655374Y573873D01*
X-655302Y573804D01*
X-655233Y573732D01*
X-655167Y573658D01*
X-655103Y573580D01*
X-655043Y573501D01*
X-654986Y573419D01*
X-654932Y573335D01*
X-654882Y573249D01*
X-654835Y573161D01*
X-654791Y573071D01*
X-654751Y572980D01*
X-654715Y572887D01*
X-654682Y572793D01*
X-654653Y572697D01*
X-654628Y572601D01*
X-654607Y572504D01*
X-654589Y572405D01*
X-654576Y572307D01*
X-654566Y572207D01*
X-654560Y572108D01*
X-654558Y572008D01*
X-700278Y574548D02*
X-700378Y574546D01*
X-700477Y574540D01*
X-700577Y574530D01*
X-700675Y574517D01*
X-700774Y574499D01*
X-700871Y574478D01*
X-700967Y574453D01*
X-701063Y574424D01*
X-701157Y574391D01*
X-701250Y574355D01*
X-701341Y574315D01*
X-701431Y574271D01*
X-701519Y574224D01*
X-701605Y574174D01*
X-701689Y574120D01*
X-701771Y574063D01*
X-701850Y574003D01*
X-701928Y573939D01*
X-702002Y573873D01*
X-702074Y573804D01*
X-702143Y573732D01*
X-702209Y573658D01*
X-702273Y573580D01*
X-702333Y573501D01*
X-702390Y573419D01*
X-702444Y573335D01*
X-702494Y573249D01*
X-702541Y573161D01*
X-702585Y573071D01*
X-702625Y572980D01*
X-702661Y572887D01*
X-702694Y572793D01*
X-702723Y572697D01*
X-702748Y572601D01*
X-702769Y572504D01*
X-702787Y572405D01*
X-702800Y572307D01*
X-702810Y572207D01*
X-702816Y572108D01*
X-702818Y572008D01*
X-676148Y561848D02*
X-674878Y561848D01*
D13*
X-676148Y561848D02*
X-676148Y554228D01*
X-676148Y561848D02*
X-676148Y569468D01*
X-681228Y561848D02*
X-681228Y554228D01*
X-681228Y561848D02*
X-681228Y569468D01*
D12*
X-681228Y561848D02*
X-682498Y561848D01*
X-700278Y576580D02*
X-657098Y576580D01*
X-657098Y601980D02*
X-700278Y601980D01*
X-654558Y599440D02*
X-654558Y579120D01*
X-702818Y579120D02*
X-702818Y599440D01*
X-657098Y576580D02*
X-656998Y576582D01*
X-656899Y576588D01*
X-656799Y576598D01*
X-656701Y576611D01*
X-656602Y576629D01*
X-656505Y576650D01*
X-656409Y576675D01*
X-656313Y576704D01*
X-656219Y576737D01*
X-656126Y576773D01*
X-656035Y576813D01*
X-655945Y576857D01*
X-655857Y576904D01*
X-655771Y576954D01*
X-655687Y577008D01*
X-655605Y577065D01*
X-655526Y577125D01*
X-655448Y577189D01*
X-655374Y577255D01*
X-655302Y577324D01*
X-655233Y577396D01*
X-655167Y577470D01*
X-655103Y577548D01*
X-655043Y577627D01*
X-654986Y577709D01*
X-654932Y577793D01*
X-654882Y577879D01*
X-654835Y577967D01*
X-654791Y578057D01*
X-654751Y578148D01*
X-654715Y578241D01*
X-654682Y578335D01*
X-654653Y578431D01*
X-654628Y578527D01*
X-654607Y578624D01*
X-654589Y578723D01*
X-654576Y578821D01*
X-654566Y578921D01*
X-654560Y579020D01*
X-654558Y579120D01*
X-700278Y576580D02*
X-700378Y576582D01*
X-700477Y576588D01*
X-700577Y576598D01*
X-700675Y576611D01*
X-700774Y576629D01*
X-700871Y576650D01*
X-700967Y576675D01*
X-701063Y576704D01*
X-701157Y576737D01*
X-701250Y576773D01*
X-701341Y576813D01*
X-701431Y576857D01*
X-701519Y576904D01*
X-701605Y576954D01*
X-701689Y577008D01*
X-701771Y577065D01*
X-701850Y577125D01*
X-701928Y577189D01*
X-702002Y577255D01*
X-702074Y577324D01*
X-702143Y577396D01*
X-702209Y577470D01*
X-702273Y577548D01*
X-702333Y577627D01*
X-702390Y577709D01*
X-702444Y577793D01*
X-702494Y577879D01*
X-702541Y577967D01*
X-702585Y578057D01*
X-702625Y578148D01*
X-702661Y578241D01*
X-702694Y578335D01*
X-702723Y578431D01*
X-702748Y578527D01*
X-702769Y578624D01*
X-702787Y578723D01*
X-702800Y578821D01*
X-702810Y578921D01*
X-702816Y579020D01*
X-702818Y579120D01*
X-657098Y601980D02*
X-656998Y601978D01*
X-656899Y601972D01*
X-656799Y601962D01*
X-656701Y601949D01*
X-656602Y601931D01*
X-656505Y601910D01*
X-656409Y601885D01*
X-656313Y601856D01*
X-656219Y601823D01*
X-656126Y601787D01*
X-656035Y601747D01*
X-655945Y601703D01*
X-655857Y601656D01*
X-655771Y601606D01*
X-655687Y601552D01*
X-655605Y601495D01*
X-655526Y601435D01*
X-655448Y601371D01*
X-655374Y601305D01*
X-655302Y601236D01*
X-655233Y601164D01*
X-655167Y601090D01*
X-655103Y601012D01*
X-655043Y600933D01*
X-654986Y600851D01*
X-654932Y600767D01*
X-654882Y600681D01*
X-654835Y600593D01*
X-654791Y600503D01*
X-654751Y600412D01*
X-654715Y600319D01*
X-654682Y600225D01*
X-654653Y600129D01*
X-654628Y600033D01*
X-654607Y599936D01*
X-654589Y599837D01*
X-654576Y599739D01*
X-654566Y599639D01*
X-654560Y599540D01*
X-654558Y599440D01*
X-700278Y601980D02*
X-700378Y601978D01*
X-700477Y601972D01*
X-700577Y601962D01*
X-700675Y601949D01*
X-700774Y601931D01*
X-700871Y601910D01*
X-700967Y601885D01*
X-701063Y601856D01*
X-701157Y601823D01*
X-701250Y601787D01*
X-701341Y601747D01*
X-701431Y601703D01*
X-701519Y601656D01*
X-701605Y601606D01*
X-701689Y601552D01*
X-701771Y601495D01*
X-701850Y601435D01*
X-701928Y601371D01*
X-702002Y601305D01*
X-702074Y601236D01*
X-702143Y601164D01*
X-702209Y601090D01*
X-702273Y601012D01*
X-702333Y600933D01*
X-702390Y600851D01*
X-702444Y600767D01*
X-702494Y600681D01*
X-702541Y600593D01*
X-702585Y600503D01*
X-702625Y600412D01*
X-702661Y600319D01*
X-702694Y600225D01*
X-702723Y600129D01*
X-702748Y600033D01*
X-702769Y599936D01*
X-702787Y599837D01*
X-702800Y599739D01*
X-702810Y599639D01*
X-702816Y599540D01*
X-702818Y599440D01*
X-676148Y589280D02*
X-674878Y589280D01*
D13*
X-676148Y589280D02*
X-676148Y581660D01*
X-676148Y589280D02*
X-676148Y596900D01*
X-681228Y589280D02*
X-681228Y581660D01*
X-681228Y589280D02*
X-681228Y596900D01*
D12*
X-681228Y589280D02*
X-682498Y589280D01*
X-700278Y604266D02*
X-657098Y604266D01*
X-657098Y629666D02*
X-700278Y629666D01*
X-654558Y627126D02*
X-654558Y606806D01*
X-702818Y606806D02*
X-702818Y627126D01*
X-657098Y604266D02*
X-656998Y604268D01*
X-656899Y604274D01*
X-656799Y604284D01*
X-656701Y604297D01*
X-656602Y604315D01*
X-656505Y604336D01*
X-656409Y604361D01*
X-656313Y604390D01*
X-656219Y604423D01*
X-656126Y604459D01*
X-656035Y604499D01*
X-655945Y604543D01*
X-655857Y604590D01*
X-655771Y604640D01*
X-655687Y604694D01*
X-655605Y604751D01*
X-655526Y604811D01*
X-655448Y604875D01*
X-655374Y604941D01*
X-655302Y605010D01*
X-655233Y605082D01*
X-655167Y605156D01*
X-655103Y605234D01*
X-655043Y605313D01*
X-654986Y605395D01*
X-654932Y605479D01*
X-654882Y605565D01*
X-654835Y605653D01*
X-654791Y605743D01*
X-654751Y605834D01*
X-654715Y605927D01*
X-654682Y606021D01*
X-654653Y606117D01*
X-654628Y606213D01*
X-654607Y606310D01*
X-654589Y606409D01*
X-654576Y606507D01*
X-654566Y606607D01*
X-654560Y606706D01*
X-654558Y606806D01*
X-700278Y604266D02*
X-700378Y604268D01*
X-700477Y604274D01*
X-700577Y604284D01*
X-700675Y604297D01*
X-700774Y604315D01*
X-700871Y604336D01*
X-700967Y604361D01*
X-701063Y604390D01*
X-701157Y604423D01*
X-701250Y604459D01*
X-701341Y604499D01*
X-701431Y604543D01*
X-701519Y604590D01*
X-701605Y604640D01*
X-701689Y604694D01*
X-701771Y604751D01*
X-701850Y604811D01*
X-701928Y604875D01*
X-702002Y604941D01*
X-702074Y605010D01*
X-702143Y605082D01*
X-702209Y605156D01*
X-702273Y605234D01*
X-702333Y605313D01*
X-702390Y605395D01*
X-702444Y605479D01*
X-702494Y605565D01*
X-702541Y605653D01*
X-702585Y605743D01*
X-702625Y605834D01*
X-702661Y605927D01*
X-702694Y606021D01*
X-702723Y606117D01*
X-702748Y606213D01*
X-702769Y606310D01*
X-702787Y606409D01*
X-702800Y606507D01*
X-702810Y606607D01*
X-702816Y606706D01*
X-702818Y606806D01*
X-657098Y629666D02*
X-656998Y629664D01*
X-656899Y629658D01*
X-656799Y629648D01*
X-656701Y629635D01*
X-656602Y629617D01*
X-656505Y629596D01*
X-656409Y629571D01*
X-656313Y629542D01*
X-656219Y629509D01*
X-656126Y629473D01*
X-656035Y629433D01*
X-655945Y629389D01*
X-655857Y629342D01*
X-655771Y629292D01*
X-655687Y629238D01*
X-655605Y629181D01*
X-655526Y629121D01*
X-655448Y629057D01*
X-655374Y628991D01*
X-655302Y628922D01*
X-655233Y628850D01*
X-655167Y628776D01*
X-655103Y628698D01*
X-655043Y628619D01*
X-654986Y628537D01*
X-654932Y628453D01*
X-654882Y628367D01*
X-654835Y628279D01*
X-654791Y628189D01*
X-654751Y628098D01*
X-654715Y628005D01*
X-654682Y627911D01*
X-654653Y627815D01*
X-654628Y627719D01*
X-654607Y627622D01*
X-654589Y627523D01*
X-654576Y627425D01*
X-654566Y627325D01*
X-654560Y627226D01*
X-654558Y627126D01*
X-700278Y629666D02*
X-700378Y629664D01*
X-700477Y629658D01*
X-700577Y629648D01*
X-700675Y629635D01*
X-700774Y629617D01*
X-700871Y629596D01*
X-700967Y629571D01*
X-701063Y629542D01*
X-701157Y629509D01*
X-701250Y629473D01*
X-701341Y629433D01*
X-701431Y629389D01*
X-701519Y629342D01*
X-701605Y629292D01*
X-701689Y629238D01*
X-701771Y629181D01*
X-701850Y629121D01*
X-701928Y629057D01*
X-702002Y628991D01*
X-702074Y628922D01*
X-702143Y628850D01*
X-702209Y628776D01*
X-702273Y628698D01*
X-702333Y628619D01*
X-702390Y628537D01*
X-702444Y628453D01*
X-702494Y628367D01*
X-702541Y628279D01*
X-702585Y628189D01*
X-702625Y628098D01*
X-702661Y628005D01*
X-702694Y627911D01*
X-702723Y627815D01*
X-702748Y627719D01*
X-702769Y627622D01*
X-702787Y627523D01*
X-702800Y627425D01*
X-702810Y627325D01*
X-702816Y627226D01*
X-702818Y627126D01*
X-676148Y616966D02*
X-674878Y616966D01*
D13*
X-676148Y616966D02*
X-676148Y609346D01*
X-676148Y616966D02*
X-676148Y624586D01*
X-681228Y616966D02*
X-681228Y609346D01*
X-681228Y616966D02*
X-681228Y624586D01*
D12*
X-681228Y616966D02*
X-682498Y616966D01*
X-700278Y632206D02*
X-657098Y632206D01*
X-657098Y657606D02*
X-700278Y657606D01*
X-654558Y655066D02*
X-654558Y634746D01*
X-702818Y634746D02*
X-702818Y655066D01*
X-657098Y632206D02*
X-656998Y632208D01*
X-656899Y632214D01*
X-656799Y632224D01*
X-656701Y632237D01*
X-656602Y632255D01*
X-656505Y632276D01*
X-656409Y632301D01*
X-656313Y632330D01*
X-656219Y632363D01*
X-656126Y632399D01*
X-656035Y632439D01*
X-655945Y632483D01*
X-655857Y632530D01*
X-655771Y632580D01*
X-655687Y632634D01*
X-655605Y632691D01*
X-655526Y632751D01*
X-655448Y632815D01*
X-655374Y632881D01*
X-655302Y632950D01*
X-655233Y633022D01*
X-655167Y633096D01*
X-655103Y633174D01*
X-655043Y633253D01*
X-654986Y633335D01*
X-654932Y633419D01*
X-654882Y633505D01*
X-654835Y633593D01*
X-654791Y633683D01*
X-654751Y633774D01*
X-654715Y633867D01*
X-654682Y633961D01*
X-654653Y634057D01*
X-654628Y634153D01*
X-654607Y634250D01*
X-654589Y634349D01*
X-654576Y634447D01*
X-654566Y634547D01*
X-654560Y634646D01*
X-654558Y634746D01*
X-700278Y632206D02*
X-700378Y632208D01*
X-700477Y632214D01*
X-700577Y632224D01*
X-700675Y632237D01*
X-700774Y632255D01*
X-700871Y632276D01*
X-700967Y632301D01*
X-701063Y632330D01*
X-701157Y632363D01*
X-701250Y632399D01*
X-701341Y632439D01*
X-701431Y632483D01*
X-701519Y632530D01*
X-701605Y632580D01*
X-701689Y632634D01*
X-701771Y632691D01*
X-701850Y632751D01*
X-701928Y632815D01*
X-702002Y632881D01*
X-702074Y632950D01*
X-702143Y633022D01*
X-702209Y633096D01*
X-702273Y633174D01*
X-702333Y633253D01*
X-702390Y633335D01*
X-702444Y633419D01*
X-702494Y633505D01*
X-702541Y633593D01*
X-702585Y633683D01*
X-702625Y633774D01*
X-702661Y633867D01*
X-702694Y633961D01*
X-702723Y634057D01*
X-702748Y634153D01*
X-702769Y634250D01*
X-702787Y634349D01*
X-702800Y634447D01*
X-702810Y634547D01*
X-702816Y634646D01*
X-702818Y634746D01*
X-657098Y657606D02*
X-656998Y657604D01*
X-656899Y657598D01*
X-656799Y657588D01*
X-656701Y657575D01*
X-656602Y657557D01*
X-656505Y657536D01*
X-656409Y657511D01*
X-656313Y657482D01*
X-656219Y657449D01*
X-656126Y657413D01*
X-656035Y657373D01*
X-655945Y657329D01*
X-655857Y657282D01*
X-655771Y657232D01*
X-655687Y657178D01*
X-655605Y657121D01*
X-655526Y657061D01*
X-655448Y656997D01*
X-655374Y656931D01*
X-655302Y656862D01*
X-655233Y656790D01*
X-655167Y656716D01*
X-655103Y656638D01*
X-655043Y656559D01*
X-654986Y656477D01*
X-654932Y656393D01*
X-654882Y656307D01*
X-654835Y656219D01*
X-654791Y656129D01*
X-654751Y656038D01*
X-654715Y655945D01*
X-654682Y655851D01*
X-654653Y655755D01*
X-654628Y655659D01*
X-654607Y655562D01*
X-654589Y655463D01*
X-654576Y655365D01*
X-654566Y655265D01*
X-654560Y655166D01*
X-654558Y655066D01*
X-700278Y657606D02*
X-700378Y657604D01*
X-700477Y657598D01*
X-700577Y657588D01*
X-700675Y657575D01*
X-700774Y657557D01*
X-700871Y657536D01*
X-700967Y657511D01*
X-701063Y657482D01*
X-701157Y657449D01*
X-701250Y657413D01*
X-701341Y657373D01*
X-701431Y657329D01*
X-701519Y657282D01*
X-701605Y657232D01*
X-701689Y657178D01*
X-701771Y657121D01*
X-701850Y657061D01*
X-701928Y656997D01*
X-702002Y656931D01*
X-702074Y656862D01*
X-702143Y656790D01*
X-702209Y656716D01*
X-702273Y656638D01*
X-702333Y656559D01*
X-702390Y656477D01*
X-702444Y656393D01*
X-702494Y656307D01*
X-702541Y656219D01*
X-702585Y656129D01*
X-702625Y656038D01*
X-702661Y655945D01*
X-702694Y655851D01*
X-702723Y655755D01*
X-702748Y655659D01*
X-702769Y655562D01*
X-702787Y655463D01*
X-702800Y655365D01*
X-702810Y655265D01*
X-702816Y655166D01*
X-702818Y655066D01*
X-676148Y644906D02*
X-674878Y644906D01*
D13*
X-676148Y644906D02*
X-676148Y637286D01*
X-676148Y644906D02*
X-676148Y652526D01*
X-681228Y644906D02*
X-681228Y637286D01*
X-681228Y644906D02*
X-681228Y652526D01*
D12*
X-681228Y644906D02*
X-682498Y644906D01*
X-700278Y660400D02*
X-657098Y660400D01*
X-657098Y685800D02*
X-700278Y685800D01*
X-654558Y683260D02*
X-654558Y662940D01*
X-702818Y662940D02*
X-702818Y683260D01*
X-657098Y660400D02*
X-656998Y660402D01*
X-656899Y660408D01*
X-656799Y660418D01*
X-656701Y660431D01*
X-656602Y660449D01*
X-656505Y660470D01*
X-656409Y660495D01*
X-656313Y660524D01*
X-656219Y660557D01*
X-656126Y660593D01*
X-656035Y660633D01*
X-655945Y660677D01*
X-655857Y660724D01*
X-655771Y660774D01*
X-655687Y660828D01*
X-655605Y660885D01*
X-655526Y660945D01*
X-655448Y661009D01*
X-655374Y661075D01*
X-655302Y661144D01*
X-655233Y661216D01*
X-655167Y661290D01*
X-655103Y661368D01*
X-655043Y661447D01*
X-654986Y661529D01*
X-654932Y661613D01*
X-654882Y661699D01*
X-654835Y661787D01*
X-654791Y661877D01*
X-654751Y661968D01*
X-654715Y662061D01*
X-654682Y662155D01*
X-654653Y662251D01*
X-654628Y662347D01*
X-654607Y662444D01*
X-654589Y662543D01*
X-654576Y662641D01*
X-654566Y662741D01*
X-654560Y662840D01*
X-654558Y662940D01*
X-700278Y660400D02*
X-700378Y660402D01*
X-700477Y660408D01*
X-700577Y660418D01*
X-700675Y660431D01*
X-700774Y660449D01*
X-700871Y660470D01*
X-700967Y660495D01*
X-701063Y660524D01*
X-701157Y660557D01*
X-701250Y660593D01*
X-701341Y660633D01*
X-701431Y660677D01*
X-701519Y660724D01*
X-701605Y660774D01*
X-701689Y660828D01*
X-701771Y660885D01*
X-701850Y660945D01*
X-701928Y661009D01*
X-702002Y661075D01*
X-702074Y661144D01*
X-702143Y661216D01*
X-702209Y661290D01*
X-702273Y661368D01*
X-702333Y661447D01*
X-702390Y661529D01*
X-702444Y661613D01*
X-702494Y661699D01*
X-702541Y661787D01*
X-702585Y661877D01*
X-702625Y661968D01*
X-702661Y662061D01*
X-702694Y662155D01*
X-702723Y662251D01*
X-702748Y662347D01*
X-702769Y662444D01*
X-702787Y662543D01*
X-702800Y662641D01*
X-702810Y662741D01*
X-702816Y662840D01*
X-702818Y662940D01*
X-657098Y685800D02*
X-656998Y685798D01*
X-656899Y685792D01*
X-656799Y685782D01*
X-656701Y685769D01*
X-656602Y685751D01*
X-656505Y685730D01*
X-656409Y685705D01*
X-656313Y685676D01*
X-656219Y685643D01*
X-656126Y685607D01*
X-656035Y685567D01*
X-655945Y685523D01*
X-655857Y685476D01*
X-655771Y685426D01*
X-655687Y685372D01*
X-655605Y685315D01*
X-655526Y685255D01*
X-655448Y685191D01*
X-655374Y685125D01*
X-655302Y685056D01*
X-655233Y684984D01*
X-655167Y684910D01*
X-655103Y684832D01*
X-655043Y684753D01*
X-654986Y684671D01*
X-654932Y684587D01*
X-654882Y684501D01*
X-654835Y684413D01*
X-654791Y684323D01*
X-654751Y684232D01*
X-654715Y684139D01*
X-654682Y684045D01*
X-654653Y683949D01*
X-654628Y683853D01*
X-654607Y683756D01*
X-654589Y683657D01*
X-654576Y683559D01*
X-654566Y683459D01*
X-654560Y683360D01*
X-654558Y683260D01*
X-700278Y685800D02*
X-700378Y685798D01*
X-700477Y685792D01*
X-700577Y685782D01*
X-700675Y685769D01*
X-700774Y685751D01*
X-700871Y685730D01*
X-700967Y685705D01*
X-701063Y685676D01*
X-701157Y685643D01*
X-701250Y685607D01*
X-701341Y685567D01*
X-701431Y685523D01*
X-701519Y685476D01*
X-701605Y685426D01*
X-701689Y685372D01*
X-701771Y685315D01*
X-701850Y685255D01*
X-701928Y685191D01*
X-702002Y685125D01*
X-702074Y685056D01*
X-702143Y684984D01*
X-702209Y684910D01*
X-702273Y684832D01*
X-702333Y684753D01*
X-702390Y684671D01*
X-702444Y684587D01*
X-702494Y684501D01*
X-702541Y684413D01*
X-702585Y684323D01*
X-702625Y684232D01*
X-702661Y684139D01*
X-702694Y684045D01*
X-702723Y683949D01*
X-702748Y683853D01*
X-702769Y683756D01*
X-702787Y683657D01*
X-702800Y683559D01*
X-702810Y683459D01*
X-702816Y683360D01*
X-702818Y683260D01*
X-676148Y673100D02*
X-674878Y673100D01*
D13*
X-676148Y673100D02*
X-676148Y665480D01*
X-676148Y673100D02*
X-676148Y680720D01*
X-681228Y673100D02*
X-681228Y665480D01*
X-681228Y673100D02*
X-681228Y680720D01*
D12*
X-681228Y673100D02*
X-682498Y673100D01*
X-700278Y688848D02*
X-657098Y688848D01*
X-657098Y714248D02*
X-700278Y714248D01*
X-654558Y711708D02*
X-654558Y691388D01*
X-702818Y691388D02*
X-702818Y711708D01*
X-657098Y688848D02*
X-656998Y688850D01*
X-656899Y688856D01*
X-656799Y688866D01*
X-656701Y688879D01*
X-656602Y688897D01*
X-656505Y688918D01*
X-656409Y688943D01*
X-656313Y688972D01*
X-656219Y689005D01*
X-656126Y689041D01*
X-656035Y689081D01*
X-655945Y689125D01*
X-655857Y689172D01*
X-655771Y689222D01*
X-655687Y689276D01*
X-655605Y689333D01*
X-655526Y689393D01*
X-655448Y689457D01*
X-655374Y689523D01*
X-655302Y689592D01*
X-655233Y689664D01*
X-655167Y689738D01*
X-655103Y689816D01*
X-655043Y689895D01*
X-654986Y689977D01*
X-654932Y690061D01*
X-654882Y690147D01*
X-654835Y690235D01*
X-654791Y690325D01*
X-654751Y690416D01*
X-654715Y690509D01*
X-654682Y690603D01*
X-654653Y690699D01*
X-654628Y690795D01*
X-654607Y690892D01*
X-654589Y690991D01*
X-654576Y691089D01*
X-654566Y691189D01*
X-654560Y691288D01*
X-654558Y691388D01*
X-700278Y688848D02*
X-700378Y688850D01*
X-700477Y688856D01*
X-700577Y688866D01*
X-700675Y688879D01*
X-700774Y688897D01*
X-700871Y688918D01*
X-700967Y688943D01*
X-701063Y688972D01*
X-701157Y689005D01*
X-701250Y689041D01*
X-701341Y689081D01*
X-701431Y689125D01*
X-701519Y689172D01*
X-701605Y689222D01*
X-701689Y689276D01*
X-701771Y689333D01*
X-701850Y689393D01*
X-701928Y689457D01*
X-702002Y689523D01*
X-702074Y689592D01*
X-702143Y689664D01*
X-702209Y689738D01*
X-702273Y689816D01*
X-702333Y689895D01*
X-702390Y689977D01*
X-702444Y690061D01*
X-702494Y690147D01*
X-702541Y690235D01*
X-702585Y690325D01*
X-702625Y690416D01*
X-702661Y690509D01*
X-702694Y690603D01*
X-702723Y690699D01*
X-702748Y690795D01*
X-702769Y690892D01*
X-702787Y690991D01*
X-702800Y691089D01*
X-702810Y691189D01*
X-702816Y691288D01*
X-702818Y691388D01*
X-657098Y714248D02*
X-656998Y714246D01*
X-656899Y714240D01*
X-656799Y714230D01*
X-656701Y714217D01*
X-656602Y714199D01*
X-656505Y714178D01*
X-656409Y714153D01*
X-656313Y714124D01*
X-656219Y714091D01*
X-656126Y714055D01*
X-656035Y714015D01*
X-655945Y713971D01*
X-655857Y713924D01*
X-655771Y713874D01*
X-655687Y713820D01*
X-655605Y713763D01*
X-655526Y713703D01*
X-655448Y713639D01*
X-655374Y713573D01*
X-655302Y713504D01*
X-655233Y713432D01*
X-655167Y713358D01*
X-655103Y713280D01*
X-655043Y713201D01*
X-654986Y713119D01*
X-654932Y713035D01*
X-654882Y712949D01*
X-654835Y712861D01*
X-654791Y712771D01*
X-654751Y712680D01*
X-654715Y712587D01*
X-654682Y712493D01*
X-654653Y712397D01*
X-654628Y712301D01*
X-654607Y712204D01*
X-654589Y712105D01*
X-654576Y712007D01*
X-654566Y711907D01*
X-654560Y711808D01*
X-654558Y711708D01*
X-700278Y714248D02*
X-700378Y714246D01*
X-700477Y714240D01*
X-700577Y714230D01*
X-700675Y714217D01*
X-700774Y714199D01*
X-700871Y714178D01*
X-700967Y714153D01*
X-701063Y714124D01*
X-701157Y714091D01*
X-701250Y714055D01*
X-701341Y714015D01*
X-701431Y713971D01*
X-701519Y713924D01*
X-701605Y713874D01*
X-701689Y713820D01*
X-701771Y713763D01*
X-701850Y713703D01*
X-701928Y713639D01*
X-702002Y713573D01*
X-702074Y713504D01*
X-702143Y713432D01*
X-702209Y713358D01*
X-702273Y713280D01*
X-702333Y713201D01*
X-702390Y713119D01*
X-702444Y713035D01*
X-702494Y712949D01*
X-702541Y712861D01*
X-702585Y712771D01*
X-702625Y712680D01*
X-702661Y712587D01*
X-702694Y712493D01*
X-702723Y712397D01*
X-702748Y712301D01*
X-702769Y712204D01*
X-702787Y712105D01*
X-702800Y712007D01*
X-702810Y711907D01*
X-702816Y711808D01*
X-702818Y711708D01*
X-676148Y701548D02*
X-674878Y701548D01*
D13*
X-676148Y701548D02*
X-676148Y693928D01*
X-676148Y701548D02*
X-676148Y709168D01*
X-681228Y701548D02*
X-681228Y693928D01*
X-681228Y701548D02*
X-681228Y709168D01*
D12*
X-681228Y701548D02*
X-682498Y701548D01*
M02*
