G04 EAGLE Gerber RS-274X export*
G75*
%MOMM*%
%FSLAX34Y34*%
%LPD*%
%INSilkscreen Bottom*%
%IPPOS*%
%AMOC8*
5,1,8,0,0,1.08239X$1,22.5*%
G01*
%ADD10C,0.076200*%
%ADD11C,0.127000*%
%ADD12C,0.152400*%
%ADD13C,0.254000*%
%ADD14C,0.200000*%


D10*
X-423799Y748411D02*
X-426254Y755777D01*
X-428710Y748411D01*
X-428096Y750253D02*
X-424413Y750253D01*
X-431767Y748411D02*
X-431767Y755777D01*
X-433813Y755777D01*
X-433902Y755775D01*
X-433991Y755769D01*
X-434080Y755759D01*
X-434168Y755746D01*
X-434256Y755729D01*
X-434343Y755707D01*
X-434428Y755682D01*
X-434513Y755654D01*
X-434596Y755621D01*
X-434678Y755585D01*
X-434758Y755546D01*
X-434836Y755503D01*
X-434912Y755457D01*
X-434987Y755407D01*
X-435059Y755354D01*
X-435128Y755298D01*
X-435195Y755239D01*
X-435260Y755178D01*
X-435321Y755113D01*
X-435380Y755046D01*
X-435436Y754977D01*
X-435489Y754905D01*
X-435539Y754830D01*
X-435585Y754754D01*
X-435628Y754676D01*
X-435667Y754596D01*
X-435703Y754514D01*
X-435736Y754431D01*
X-435764Y754346D01*
X-435789Y754261D01*
X-435811Y754174D01*
X-435828Y754086D01*
X-435841Y753998D01*
X-435851Y753909D01*
X-435857Y753820D01*
X-435859Y753731D01*
X-435859Y750457D01*
X-435857Y750368D01*
X-435851Y750279D01*
X-435841Y750190D01*
X-435828Y750102D01*
X-435811Y750014D01*
X-435789Y749927D01*
X-435764Y749842D01*
X-435736Y749757D01*
X-435703Y749674D01*
X-435667Y749592D01*
X-435628Y749512D01*
X-435585Y749434D01*
X-435539Y749358D01*
X-435489Y749283D01*
X-435436Y749211D01*
X-435380Y749142D01*
X-435321Y749075D01*
X-435260Y749010D01*
X-435195Y748949D01*
X-435128Y748890D01*
X-435059Y748834D01*
X-434987Y748781D01*
X-434912Y748731D01*
X-434836Y748685D01*
X-434758Y748642D01*
X-434678Y748603D01*
X-434596Y748567D01*
X-434513Y748534D01*
X-434428Y748506D01*
X-434343Y748481D01*
X-434256Y748459D01*
X-434168Y748442D01*
X-434080Y748429D01*
X-433991Y748419D01*
X-433902Y748413D01*
X-433813Y748411D01*
X-431767Y748411D01*
X-440940Y748411D02*
X-442577Y748411D01*
X-440940Y748411D02*
X-440862Y748413D01*
X-440784Y748418D01*
X-440707Y748428D01*
X-440630Y748441D01*
X-440554Y748457D01*
X-440479Y748477D01*
X-440405Y748501D01*
X-440332Y748528D01*
X-440260Y748559D01*
X-440190Y748593D01*
X-440122Y748630D01*
X-440055Y748671D01*
X-439990Y748715D01*
X-439928Y748761D01*
X-439868Y748811D01*
X-439810Y748863D01*
X-439755Y748918D01*
X-439703Y748976D01*
X-439653Y749036D01*
X-439607Y749098D01*
X-439563Y749163D01*
X-439522Y749230D01*
X-439485Y749298D01*
X-439451Y749368D01*
X-439420Y749440D01*
X-439393Y749513D01*
X-439369Y749587D01*
X-439349Y749662D01*
X-439333Y749738D01*
X-439320Y749815D01*
X-439310Y749892D01*
X-439305Y749970D01*
X-439303Y750048D01*
X-439303Y754140D01*
X-439305Y754220D01*
X-439311Y754300D01*
X-439321Y754380D01*
X-439334Y754459D01*
X-439352Y754538D01*
X-439373Y754615D01*
X-439399Y754691D01*
X-439428Y754766D01*
X-439460Y754840D01*
X-439496Y754912D01*
X-439536Y754982D01*
X-439579Y755049D01*
X-439625Y755115D01*
X-439675Y755178D01*
X-439727Y755239D01*
X-439782Y755298D01*
X-439841Y755353D01*
X-439901Y755405D01*
X-439965Y755455D01*
X-440031Y755501D01*
X-440098Y755544D01*
X-440168Y755584D01*
X-440240Y755620D01*
X-440314Y755652D01*
X-440388Y755681D01*
X-440465Y755707D01*
X-440542Y755728D01*
X-440621Y755746D01*
X-440700Y755759D01*
X-440780Y755769D01*
X-440860Y755775D01*
X-440940Y755777D01*
X-442577Y755777D01*
X-451574Y755778D02*
X-451659Y755776D01*
X-451744Y755770D01*
X-451828Y755760D01*
X-451912Y755747D01*
X-451996Y755729D01*
X-452078Y755708D01*
X-452159Y755683D01*
X-452239Y755654D01*
X-452318Y755621D01*
X-452395Y755585D01*
X-452470Y755545D01*
X-452544Y755502D01*
X-452615Y755456D01*
X-452684Y755406D01*
X-452751Y755353D01*
X-452815Y755297D01*
X-452876Y755238D01*
X-452935Y755177D01*
X-452991Y755113D01*
X-453044Y755046D01*
X-453094Y754977D01*
X-453140Y754906D01*
X-453183Y754832D01*
X-453223Y754757D01*
X-453259Y754680D01*
X-453292Y754601D01*
X-453321Y754521D01*
X-453346Y754440D01*
X-453367Y754358D01*
X-453385Y754274D01*
X-453398Y754190D01*
X-453408Y754106D01*
X-453414Y754021D01*
X-453416Y753936D01*
X-451574Y755777D02*
X-451478Y755775D01*
X-451382Y755769D01*
X-451287Y755759D01*
X-451192Y755746D01*
X-451097Y755728D01*
X-451004Y755707D01*
X-450911Y755682D01*
X-450820Y755653D01*
X-450729Y755621D01*
X-450640Y755585D01*
X-450553Y755545D01*
X-450467Y755502D01*
X-450383Y755456D01*
X-450301Y755406D01*
X-450221Y755352D01*
X-450144Y755296D01*
X-450069Y755236D01*
X-449996Y755174D01*
X-449926Y755108D01*
X-449858Y755040D01*
X-449793Y754969D01*
X-449732Y754896D01*
X-449673Y754820D01*
X-449617Y754741D01*
X-449565Y754661D01*
X-449516Y754578D01*
X-449470Y754494D01*
X-449428Y754408D01*
X-449390Y754320D01*
X-449355Y754231D01*
X-449323Y754140D01*
X-452802Y752504D02*
X-452862Y752563D01*
X-452919Y752625D01*
X-452974Y752689D01*
X-453025Y752756D01*
X-453074Y752825D01*
X-453120Y752895D01*
X-453163Y752968D01*
X-453203Y753042D01*
X-453239Y753118D01*
X-453272Y753196D01*
X-453302Y753275D01*
X-453329Y753355D01*
X-453352Y753436D01*
X-453371Y753518D01*
X-453387Y753600D01*
X-453400Y753684D01*
X-453409Y753768D01*
X-453414Y753852D01*
X-453416Y753936D01*
X-452802Y752503D02*
X-449324Y748411D01*
X-453416Y748411D01*
X-460747Y748411D02*
X-460747Y755777D01*
X-460747Y748411D02*
X-462793Y748411D01*
X-462862Y748413D01*
X-462930Y748419D01*
X-462999Y748428D01*
X-463066Y748442D01*
X-463133Y748459D01*
X-463199Y748480D01*
X-463263Y748504D01*
X-463326Y748533D01*
X-463387Y748564D01*
X-463446Y748599D01*
X-463504Y748637D01*
X-463559Y748679D01*
X-463611Y748723D01*
X-463661Y748771D01*
X-463709Y748821D01*
X-463753Y748873D01*
X-463795Y748928D01*
X-463833Y748986D01*
X-463868Y749045D01*
X-463899Y749106D01*
X-463928Y749169D01*
X-463952Y749233D01*
X-463973Y749299D01*
X-463990Y749366D01*
X-464004Y749433D01*
X-464013Y749502D01*
X-464019Y749570D01*
X-464021Y749639D01*
X-464020Y749639D02*
X-464020Y752094D01*
X-464021Y752094D02*
X-464019Y752163D01*
X-464013Y752231D01*
X-464004Y752300D01*
X-463990Y752367D01*
X-463973Y752434D01*
X-463952Y752500D01*
X-463928Y752564D01*
X-463899Y752627D01*
X-463868Y752688D01*
X-463833Y752747D01*
X-463795Y752805D01*
X-463753Y752860D01*
X-463709Y752912D01*
X-463661Y752962D01*
X-463611Y753010D01*
X-463559Y753054D01*
X-463504Y753096D01*
X-463446Y753134D01*
X-463387Y753169D01*
X-463326Y753200D01*
X-463263Y753229D01*
X-463199Y753253D01*
X-463133Y753274D01*
X-463066Y753291D01*
X-462999Y753305D01*
X-462930Y753314D01*
X-462862Y753320D01*
X-462793Y753322D01*
X-460747Y753322D01*
X-467335Y753322D02*
X-467335Y748411D01*
X-467335Y753322D02*
X-469791Y753322D01*
X-469791Y752503D01*
X-473394Y748411D02*
X-475440Y748411D01*
X-473394Y748411D02*
X-473325Y748413D01*
X-473257Y748419D01*
X-473188Y748428D01*
X-473121Y748442D01*
X-473054Y748459D01*
X-472988Y748480D01*
X-472924Y748504D01*
X-472861Y748533D01*
X-472800Y748564D01*
X-472741Y748599D01*
X-472683Y748637D01*
X-472628Y748679D01*
X-472576Y748723D01*
X-472526Y748771D01*
X-472478Y748821D01*
X-472434Y748873D01*
X-472392Y748928D01*
X-472354Y748986D01*
X-472319Y749045D01*
X-472288Y749106D01*
X-472259Y749169D01*
X-472235Y749233D01*
X-472214Y749299D01*
X-472197Y749366D01*
X-472183Y749433D01*
X-472174Y749502D01*
X-472168Y749570D01*
X-472166Y749639D01*
X-472166Y751685D01*
X-472168Y751764D01*
X-472174Y751843D01*
X-472183Y751922D01*
X-472196Y752000D01*
X-472214Y752077D01*
X-472234Y752153D01*
X-472259Y752228D01*
X-472287Y752302D01*
X-472318Y752375D01*
X-472354Y752446D01*
X-472392Y752515D01*
X-472434Y752582D01*
X-472479Y752647D01*
X-472527Y752710D01*
X-472578Y752771D01*
X-472632Y752828D01*
X-472688Y752884D01*
X-472747Y752936D01*
X-472809Y752986D01*
X-472873Y753032D01*
X-472939Y753076D01*
X-473007Y753116D01*
X-473077Y753152D01*
X-473149Y753186D01*
X-473223Y753216D01*
X-473297Y753242D01*
X-473373Y753265D01*
X-473450Y753283D01*
X-473527Y753299D01*
X-473606Y753310D01*
X-473684Y753318D01*
X-473763Y753322D01*
X-473843Y753322D01*
X-473922Y753318D01*
X-474000Y753310D01*
X-474079Y753299D01*
X-474156Y753283D01*
X-474233Y753265D01*
X-474309Y753242D01*
X-474383Y753216D01*
X-474457Y753186D01*
X-474529Y753152D01*
X-474599Y753116D01*
X-474667Y753076D01*
X-474733Y753032D01*
X-474797Y752986D01*
X-474859Y752936D01*
X-474918Y752884D01*
X-474974Y752828D01*
X-475028Y752771D01*
X-475079Y752710D01*
X-475127Y752647D01*
X-475172Y752582D01*
X-475214Y752515D01*
X-475252Y752446D01*
X-475288Y752375D01*
X-475319Y752302D01*
X-475347Y752228D01*
X-475372Y752153D01*
X-475392Y752077D01*
X-475410Y752000D01*
X-475423Y751922D01*
X-475432Y751843D01*
X-475438Y751764D01*
X-475440Y751685D01*
X-475440Y750866D01*
X-472166Y750866D01*
X-479897Y751276D02*
X-481739Y751276D01*
X-479897Y751275D02*
X-479822Y751273D01*
X-479747Y751267D01*
X-479673Y751257D01*
X-479599Y751244D01*
X-479526Y751226D01*
X-479454Y751205D01*
X-479384Y751180D01*
X-479315Y751151D01*
X-479247Y751119D01*
X-479181Y751083D01*
X-479117Y751044D01*
X-479055Y751002D01*
X-478996Y750956D01*
X-478939Y750907D01*
X-478884Y750856D01*
X-478833Y750801D01*
X-478784Y750744D01*
X-478738Y750685D01*
X-478696Y750623D01*
X-478657Y750559D01*
X-478621Y750493D01*
X-478589Y750425D01*
X-478560Y750356D01*
X-478535Y750286D01*
X-478514Y750214D01*
X-478496Y750141D01*
X-478483Y750067D01*
X-478473Y749993D01*
X-478467Y749918D01*
X-478465Y749843D01*
X-478467Y749768D01*
X-478473Y749693D01*
X-478483Y749619D01*
X-478496Y749545D01*
X-478514Y749472D01*
X-478535Y749400D01*
X-478560Y749330D01*
X-478589Y749261D01*
X-478621Y749193D01*
X-478657Y749127D01*
X-478696Y749063D01*
X-478738Y749001D01*
X-478784Y748942D01*
X-478833Y748885D01*
X-478884Y748830D01*
X-478939Y748779D01*
X-478996Y748730D01*
X-479055Y748684D01*
X-479117Y748642D01*
X-479181Y748603D01*
X-479247Y748567D01*
X-479315Y748535D01*
X-479384Y748506D01*
X-479454Y748481D01*
X-479526Y748460D01*
X-479599Y748442D01*
X-479673Y748429D01*
X-479747Y748419D01*
X-479822Y748413D01*
X-479897Y748411D01*
X-481739Y748411D01*
X-481739Y752094D01*
X-481737Y752163D01*
X-481731Y752231D01*
X-481722Y752300D01*
X-481708Y752367D01*
X-481691Y752434D01*
X-481670Y752500D01*
X-481646Y752564D01*
X-481617Y752627D01*
X-481586Y752688D01*
X-481551Y752747D01*
X-481513Y752805D01*
X-481471Y752860D01*
X-481427Y752912D01*
X-481379Y752962D01*
X-481329Y753010D01*
X-481277Y753054D01*
X-481222Y753096D01*
X-481164Y753134D01*
X-481105Y753169D01*
X-481044Y753200D01*
X-480981Y753229D01*
X-480917Y753253D01*
X-480851Y753274D01*
X-480784Y753291D01*
X-480717Y753305D01*
X-480648Y753314D01*
X-480580Y753320D01*
X-480511Y753322D01*
X-478874Y753322D01*
X-485428Y755777D02*
X-485428Y748411D01*
X-485428Y750866D02*
X-488701Y753322D01*
X-486860Y751889D02*
X-488701Y748411D01*
X-491429Y750048D02*
X-491429Y751685D01*
X-491431Y751764D01*
X-491437Y751843D01*
X-491446Y751922D01*
X-491459Y752000D01*
X-491477Y752077D01*
X-491497Y752153D01*
X-491522Y752228D01*
X-491550Y752302D01*
X-491581Y752375D01*
X-491617Y752446D01*
X-491655Y752515D01*
X-491697Y752582D01*
X-491742Y752647D01*
X-491790Y752710D01*
X-491841Y752771D01*
X-491895Y752828D01*
X-491951Y752884D01*
X-492010Y752936D01*
X-492072Y752986D01*
X-492136Y753032D01*
X-492202Y753076D01*
X-492270Y753116D01*
X-492340Y753152D01*
X-492412Y753186D01*
X-492486Y753216D01*
X-492560Y753242D01*
X-492636Y753265D01*
X-492713Y753283D01*
X-492790Y753299D01*
X-492869Y753310D01*
X-492947Y753318D01*
X-493026Y753322D01*
X-493106Y753322D01*
X-493185Y753318D01*
X-493263Y753310D01*
X-493342Y753299D01*
X-493419Y753283D01*
X-493496Y753265D01*
X-493572Y753242D01*
X-493646Y753216D01*
X-493720Y753186D01*
X-493792Y753152D01*
X-493862Y753116D01*
X-493930Y753076D01*
X-493996Y753032D01*
X-494060Y752986D01*
X-494122Y752936D01*
X-494181Y752884D01*
X-494237Y752828D01*
X-494291Y752771D01*
X-494342Y752710D01*
X-494390Y752647D01*
X-494435Y752582D01*
X-494477Y752515D01*
X-494515Y752446D01*
X-494551Y752375D01*
X-494582Y752302D01*
X-494610Y752228D01*
X-494635Y752153D01*
X-494655Y752077D01*
X-494673Y752000D01*
X-494686Y751922D01*
X-494695Y751843D01*
X-494701Y751764D01*
X-494703Y751685D01*
X-494703Y750048D01*
X-494701Y749969D01*
X-494695Y749890D01*
X-494686Y749811D01*
X-494673Y749733D01*
X-494655Y749656D01*
X-494635Y749580D01*
X-494610Y749505D01*
X-494582Y749431D01*
X-494551Y749358D01*
X-494515Y749287D01*
X-494477Y749218D01*
X-494435Y749151D01*
X-494390Y749086D01*
X-494342Y749023D01*
X-494291Y748962D01*
X-494237Y748905D01*
X-494181Y748849D01*
X-494122Y748797D01*
X-494060Y748747D01*
X-493996Y748701D01*
X-493930Y748657D01*
X-493862Y748617D01*
X-493792Y748581D01*
X-493720Y748547D01*
X-493646Y748517D01*
X-493572Y748491D01*
X-493496Y748468D01*
X-493419Y748450D01*
X-493342Y748434D01*
X-493263Y748423D01*
X-493185Y748415D01*
X-493106Y748411D01*
X-493026Y748411D01*
X-492947Y748415D01*
X-492869Y748423D01*
X-492790Y748434D01*
X-492713Y748450D01*
X-492636Y748468D01*
X-492560Y748491D01*
X-492486Y748517D01*
X-492412Y748547D01*
X-492340Y748581D01*
X-492270Y748617D01*
X-492202Y748657D01*
X-492136Y748701D01*
X-492072Y748747D01*
X-492010Y748797D01*
X-491951Y748849D01*
X-491895Y748905D01*
X-491841Y748962D01*
X-491790Y749023D01*
X-491742Y749086D01*
X-491697Y749151D01*
X-491655Y749218D01*
X-491617Y749287D01*
X-491581Y749358D01*
X-491550Y749431D01*
X-491522Y749505D01*
X-491497Y749580D01*
X-491477Y749656D01*
X-491459Y749733D01*
X-491446Y749811D01*
X-491437Y749890D01*
X-491431Y749969D01*
X-491429Y750048D01*
X-498013Y749639D02*
X-498013Y753322D01*
X-498013Y749639D02*
X-498015Y749570D01*
X-498021Y749502D01*
X-498030Y749433D01*
X-498044Y749366D01*
X-498061Y749299D01*
X-498082Y749233D01*
X-498106Y749169D01*
X-498135Y749106D01*
X-498166Y749045D01*
X-498201Y748986D01*
X-498239Y748928D01*
X-498281Y748873D01*
X-498325Y748821D01*
X-498373Y748771D01*
X-498423Y748723D01*
X-498475Y748679D01*
X-498530Y748637D01*
X-498588Y748599D01*
X-498647Y748564D01*
X-498708Y748533D01*
X-498771Y748504D01*
X-498835Y748480D01*
X-498901Y748459D01*
X-498968Y748442D01*
X-499035Y748428D01*
X-499104Y748419D01*
X-499172Y748413D01*
X-499241Y748411D01*
X-501287Y748411D01*
X-501287Y753322D01*
X-503966Y753322D02*
X-506422Y753322D01*
X-504785Y755777D02*
X-504785Y749639D01*
X-504784Y749639D02*
X-504786Y749570D01*
X-504792Y749502D01*
X-504801Y749433D01*
X-504815Y749366D01*
X-504832Y749299D01*
X-504853Y749233D01*
X-504877Y749169D01*
X-504906Y749106D01*
X-504937Y749045D01*
X-504972Y748986D01*
X-505010Y748928D01*
X-505052Y748873D01*
X-505096Y748821D01*
X-505144Y748771D01*
X-505194Y748723D01*
X-505246Y748679D01*
X-505301Y748637D01*
X-505359Y748599D01*
X-505418Y748564D01*
X-505479Y748533D01*
X-505542Y748504D01*
X-505606Y748480D01*
X-505672Y748459D01*
X-505739Y748442D01*
X-505806Y748428D01*
X-505875Y748419D01*
X-505943Y748413D01*
X-506012Y748411D01*
X-506422Y748411D01*
X-514318Y748411D02*
X-516364Y748411D01*
X-514318Y748411D02*
X-514249Y748413D01*
X-514181Y748419D01*
X-514112Y748428D01*
X-514045Y748442D01*
X-513978Y748459D01*
X-513912Y748480D01*
X-513848Y748504D01*
X-513785Y748533D01*
X-513724Y748564D01*
X-513665Y748599D01*
X-513607Y748637D01*
X-513552Y748679D01*
X-513500Y748723D01*
X-513450Y748771D01*
X-513402Y748821D01*
X-513358Y748873D01*
X-513316Y748928D01*
X-513278Y748986D01*
X-513243Y749045D01*
X-513212Y749106D01*
X-513183Y749169D01*
X-513159Y749233D01*
X-513138Y749299D01*
X-513121Y749366D01*
X-513107Y749433D01*
X-513098Y749502D01*
X-513092Y749570D01*
X-513090Y749639D01*
X-513090Y752094D01*
X-513092Y752163D01*
X-513098Y752231D01*
X-513107Y752300D01*
X-513121Y752367D01*
X-513138Y752434D01*
X-513159Y752500D01*
X-513183Y752564D01*
X-513212Y752627D01*
X-513243Y752688D01*
X-513278Y752747D01*
X-513316Y752805D01*
X-513358Y752860D01*
X-513402Y752912D01*
X-513450Y752962D01*
X-513500Y753010D01*
X-513552Y753054D01*
X-513607Y753096D01*
X-513665Y753134D01*
X-513724Y753169D01*
X-513785Y753200D01*
X-513848Y753229D01*
X-513912Y753253D01*
X-513978Y753274D01*
X-514045Y753291D01*
X-514112Y753305D01*
X-514181Y753314D01*
X-514249Y753320D01*
X-514318Y753322D01*
X-516364Y753322D01*
X-516364Y747183D01*
X-516362Y747114D01*
X-516356Y747046D01*
X-516347Y746977D01*
X-516333Y746910D01*
X-516316Y746843D01*
X-516295Y746777D01*
X-516271Y746713D01*
X-516242Y746650D01*
X-516211Y746589D01*
X-516176Y746530D01*
X-516138Y746472D01*
X-516096Y746417D01*
X-516052Y746365D01*
X-516004Y746315D01*
X-515954Y746267D01*
X-515902Y746223D01*
X-515847Y746182D01*
X-515789Y746143D01*
X-515730Y746108D01*
X-515669Y746077D01*
X-515606Y746048D01*
X-515542Y746024D01*
X-515476Y746003D01*
X-515409Y745986D01*
X-515342Y745972D01*
X-515274Y745963D01*
X-515205Y745957D01*
X-515136Y745955D01*
X-515136Y745956D02*
X-513499Y745956D01*
X-519715Y750048D02*
X-519715Y751685D01*
X-519717Y751764D01*
X-519723Y751843D01*
X-519732Y751922D01*
X-519745Y752000D01*
X-519763Y752077D01*
X-519783Y752153D01*
X-519808Y752228D01*
X-519836Y752302D01*
X-519867Y752375D01*
X-519903Y752446D01*
X-519941Y752515D01*
X-519983Y752582D01*
X-520028Y752647D01*
X-520076Y752710D01*
X-520127Y752771D01*
X-520181Y752828D01*
X-520237Y752884D01*
X-520296Y752936D01*
X-520358Y752986D01*
X-520422Y753032D01*
X-520488Y753076D01*
X-520556Y753116D01*
X-520626Y753152D01*
X-520698Y753186D01*
X-520772Y753216D01*
X-520846Y753242D01*
X-520922Y753265D01*
X-520999Y753283D01*
X-521076Y753299D01*
X-521155Y753310D01*
X-521233Y753318D01*
X-521312Y753322D01*
X-521392Y753322D01*
X-521471Y753318D01*
X-521549Y753310D01*
X-521628Y753299D01*
X-521705Y753283D01*
X-521782Y753265D01*
X-521858Y753242D01*
X-521932Y753216D01*
X-522006Y753186D01*
X-522078Y753152D01*
X-522148Y753116D01*
X-522216Y753076D01*
X-522282Y753032D01*
X-522346Y752986D01*
X-522408Y752936D01*
X-522467Y752884D01*
X-522523Y752828D01*
X-522577Y752771D01*
X-522628Y752710D01*
X-522676Y752647D01*
X-522721Y752582D01*
X-522763Y752515D01*
X-522801Y752446D01*
X-522837Y752375D01*
X-522868Y752302D01*
X-522896Y752228D01*
X-522921Y752153D01*
X-522941Y752077D01*
X-522959Y752000D01*
X-522972Y751922D01*
X-522981Y751843D01*
X-522987Y751764D01*
X-522989Y751685D01*
X-522988Y751685D02*
X-522988Y750048D01*
X-522989Y750048D02*
X-522987Y749969D01*
X-522981Y749890D01*
X-522972Y749811D01*
X-522959Y749733D01*
X-522941Y749656D01*
X-522921Y749580D01*
X-522896Y749505D01*
X-522868Y749431D01*
X-522837Y749358D01*
X-522801Y749287D01*
X-522763Y749218D01*
X-522721Y749151D01*
X-522676Y749086D01*
X-522628Y749023D01*
X-522577Y748962D01*
X-522523Y748905D01*
X-522467Y748849D01*
X-522408Y748797D01*
X-522346Y748747D01*
X-522282Y748701D01*
X-522216Y748657D01*
X-522148Y748617D01*
X-522078Y748581D01*
X-522006Y748547D01*
X-521932Y748517D01*
X-521858Y748491D01*
X-521782Y748468D01*
X-521705Y748450D01*
X-521628Y748434D01*
X-521549Y748423D01*
X-521471Y748415D01*
X-521392Y748411D01*
X-521312Y748411D01*
X-521233Y748415D01*
X-521155Y748423D01*
X-521076Y748434D01*
X-520999Y748450D01*
X-520922Y748468D01*
X-520846Y748491D01*
X-520772Y748517D01*
X-520698Y748547D01*
X-520626Y748581D01*
X-520556Y748617D01*
X-520488Y748657D01*
X-520422Y748701D01*
X-520358Y748747D01*
X-520296Y748797D01*
X-520237Y748849D01*
X-520181Y748905D01*
X-520127Y748962D01*
X-520076Y749023D01*
X-520028Y749086D01*
X-519983Y749151D01*
X-519941Y749218D01*
X-519903Y749287D01*
X-519867Y749358D01*
X-519836Y749431D01*
X-519808Y749505D01*
X-519783Y749580D01*
X-519763Y749656D01*
X-519745Y749733D01*
X-519732Y749811D01*
X-519723Y749890D01*
X-519717Y749969D01*
X-519715Y750048D01*
X-527282Y748411D02*
X-529328Y748411D01*
X-527282Y748411D02*
X-527213Y748413D01*
X-527145Y748419D01*
X-527076Y748428D01*
X-527009Y748442D01*
X-526942Y748459D01*
X-526876Y748480D01*
X-526812Y748504D01*
X-526749Y748533D01*
X-526688Y748564D01*
X-526629Y748599D01*
X-526571Y748637D01*
X-526516Y748679D01*
X-526464Y748723D01*
X-526414Y748771D01*
X-526366Y748821D01*
X-526322Y748873D01*
X-526280Y748928D01*
X-526242Y748986D01*
X-526207Y749045D01*
X-526176Y749106D01*
X-526147Y749169D01*
X-526123Y749233D01*
X-526102Y749299D01*
X-526085Y749366D01*
X-526071Y749433D01*
X-526062Y749502D01*
X-526056Y749570D01*
X-526054Y749639D01*
X-526055Y749639D02*
X-526055Y751685D01*
X-526054Y751685D02*
X-526056Y751764D01*
X-526062Y751843D01*
X-526071Y751922D01*
X-526084Y752000D01*
X-526102Y752077D01*
X-526122Y752153D01*
X-526147Y752228D01*
X-526175Y752302D01*
X-526206Y752375D01*
X-526242Y752446D01*
X-526280Y752515D01*
X-526322Y752582D01*
X-526367Y752647D01*
X-526415Y752710D01*
X-526466Y752771D01*
X-526520Y752828D01*
X-526576Y752884D01*
X-526635Y752936D01*
X-526697Y752986D01*
X-526761Y753032D01*
X-526827Y753076D01*
X-526895Y753116D01*
X-526965Y753152D01*
X-527037Y753186D01*
X-527111Y753216D01*
X-527185Y753242D01*
X-527261Y753265D01*
X-527338Y753283D01*
X-527415Y753299D01*
X-527494Y753310D01*
X-527572Y753318D01*
X-527651Y753322D01*
X-527731Y753322D01*
X-527810Y753318D01*
X-527888Y753310D01*
X-527967Y753299D01*
X-528044Y753283D01*
X-528121Y753265D01*
X-528197Y753242D01*
X-528271Y753216D01*
X-528345Y753186D01*
X-528417Y753152D01*
X-528487Y753116D01*
X-528555Y753076D01*
X-528621Y753032D01*
X-528685Y752986D01*
X-528747Y752936D01*
X-528806Y752884D01*
X-528862Y752828D01*
X-528916Y752771D01*
X-528967Y752710D01*
X-529015Y752647D01*
X-529060Y752582D01*
X-529102Y752515D01*
X-529140Y752446D01*
X-529176Y752375D01*
X-529207Y752302D01*
X-529235Y752228D01*
X-529260Y752153D01*
X-529280Y752077D01*
X-529298Y752000D01*
X-529311Y751922D01*
X-529320Y751843D01*
X-529326Y751764D01*
X-529328Y751685D01*
X-529328Y750866D01*
X-526055Y750866D01*
X-533008Y751276D02*
X-535054Y750457D01*
X-533008Y751276D02*
X-532949Y751301D01*
X-532892Y751330D01*
X-532837Y751363D01*
X-532784Y751399D01*
X-532733Y751437D01*
X-532685Y751479D01*
X-532639Y751524D01*
X-532596Y751571D01*
X-532556Y751621D01*
X-532519Y751673D01*
X-532485Y751728D01*
X-532454Y751784D01*
X-532427Y751842D01*
X-532404Y751902D01*
X-532384Y751962D01*
X-532368Y752024D01*
X-532355Y752087D01*
X-532347Y752151D01*
X-532342Y752214D01*
X-532341Y752278D01*
X-532344Y752342D01*
X-532351Y752406D01*
X-532362Y752469D01*
X-532376Y752531D01*
X-532394Y752593D01*
X-532416Y752653D01*
X-532441Y752712D01*
X-532470Y752769D01*
X-532503Y752824D01*
X-532538Y752877D01*
X-532577Y752928D01*
X-532619Y752977D01*
X-532663Y753023D01*
X-532711Y753066D01*
X-532760Y753106D01*
X-532813Y753143D01*
X-532867Y753177D01*
X-532923Y753208D01*
X-532981Y753235D01*
X-533040Y753259D01*
X-533101Y753278D01*
X-533163Y753295D01*
X-533226Y753307D01*
X-533289Y753316D01*
X-533353Y753321D01*
X-533417Y753322D01*
X-533553Y753318D01*
X-533688Y753310D01*
X-533824Y753298D01*
X-533958Y753282D01*
X-534093Y753262D01*
X-534226Y753239D01*
X-534359Y753211D01*
X-534491Y753180D01*
X-534622Y753145D01*
X-534752Y753106D01*
X-534881Y753063D01*
X-535008Y753016D01*
X-535134Y752966D01*
X-535259Y752912D01*
X-535054Y750457D02*
X-535113Y750432D01*
X-535170Y750403D01*
X-535225Y750370D01*
X-535278Y750334D01*
X-535329Y750296D01*
X-535377Y750254D01*
X-535423Y750209D01*
X-535466Y750162D01*
X-535506Y750112D01*
X-535543Y750060D01*
X-535577Y750005D01*
X-535608Y749949D01*
X-535635Y749891D01*
X-535658Y749831D01*
X-535678Y749771D01*
X-535694Y749709D01*
X-535707Y749646D01*
X-535715Y749582D01*
X-535720Y749519D01*
X-535721Y749455D01*
X-535718Y749391D01*
X-535711Y749327D01*
X-535700Y749264D01*
X-535686Y749202D01*
X-535668Y749140D01*
X-535646Y749080D01*
X-535621Y749021D01*
X-535592Y748964D01*
X-535559Y748909D01*
X-535524Y748856D01*
X-535485Y748805D01*
X-535443Y748756D01*
X-535399Y748710D01*
X-535351Y748667D01*
X-535302Y748627D01*
X-535249Y748590D01*
X-535195Y748556D01*
X-535139Y748525D01*
X-535081Y748498D01*
X-535022Y748474D01*
X-534961Y748455D01*
X-534899Y748438D01*
X-534836Y748426D01*
X-534773Y748417D01*
X-534709Y748412D01*
X-534645Y748411D01*
X-534481Y748415D01*
X-534317Y748423D01*
X-534153Y748435D01*
X-533990Y748451D01*
X-533827Y748471D01*
X-533664Y748494D01*
X-533503Y748522D01*
X-533341Y748553D01*
X-533181Y748588D01*
X-533022Y748627D01*
X-532863Y748670D01*
X-532706Y748716D01*
X-532549Y748766D01*
X-532394Y748820D01*
X-542636Y750048D02*
X-542636Y751685D01*
X-542635Y751685D02*
X-542637Y751764D01*
X-542643Y751843D01*
X-542652Y751922D01*
X-542665Y752000D01*
X-542683Y752077D01*
X-542703Y752153D01*
X-542728Y752228D01*
X-542756Y752302D01*
X-542787Y752375D01*
X-542823Y752446D01*
X-542861Y752515D01*
X-542903Y752582D01*
X-542948Y752647D01*
X-542996Y752710D01*
X-543047Y752771D01*
X-543101Y752828D01*
X-543157Y752884D01*
X-543216Y752936D01*
X-543278Y752986D01*
X-543342Y753032D01*
X-543408Y753076D01*
X-543476Y753116D01*
X-543546Y753152D01*
X-543618Y753186D01*
X-543692Y753216D01*
X-543766Y753242D01*
X-543842Y753265D01*
X-543919Y753283D01*
X-543996Y753299D01*
X-544075Y753310D01*
X-544153Y753318D01*
X-544232Y753322D01*
X-544312Y753322D01*
X-544391Y753318D01*
X-544469Y753310D01*
X-544548Y753299D01*
X-544625Y753283D01*
X-544702Y753265D01*
X-544778Y753242D01*
X-544852Y753216D01*
X-544926Y753186D01*
X-544998Y753152D01*
X-545068Y753116D01*
X-545136Y753076D01*
X-545202Y753032D01*
X-545266Y752986D01*
X-545328Y752936D01*
X-545387Y752884D01*
X-545443Y752828D01*
X-545497Y752771D01*
X-545548Y752710D01*
X-545596Y752647D01*
X-545641Y752582D01*
X-545683Y752515D01*
X-545721Y752446D01*
X-545757Y752375D01*
X-545788Y752302D01*
X-545816Y752228D01*
X-545841Y752153D01*
X-545861Y752077D01*
X-545879Y752000D01*
X-545892Y751922D01*
X-545901Y751843D01*
X-545907Y751764D01*
X-545909Y751685D01*
X-545909Y750048D01*
X-545907Y749969D01*
X-545901Y749890D01*
X-545892Y749811D01*
X-545879Y749733D01*
X-545861Y749656D01*
X-545841Y749580D01*
X-545816Y749505D01*
X-545788Y749431D01*
X-545757Y749358D01*
X-545721Y749287D01*
X-545683Y749218D01*
X-545641Y749151D01*
X-545596Y749086D01*
X-545548Y749023D01*
X-545497Y748962D01*
X-545443Y748905D01*
X-545387Y748849D01*
X-545328Y748797D01*
X-545266Y748747D01*
X-545202Y748701D01*
X-545136Y748657D01*
X-545068Y748617D01*
X-544998Y748581D01*
X-544926Y748547D01*
X-544852Y748517D01*
X-544778Y748491D01*
X-544702Y748468D01*
X-544625Y748450D01*
X-544548Y748434D01*
X-544469Y748423D01*
X-544391Y748415D01*
X-544312Y748411D01*
X-544232Y748411D01*
X-544153Y748415D01*
X-544075Y748423D01*
X-543996Y748434D01*
X-543919Y748450D01*
X-543842Y748468D01*
X-543766Y748491D01*
X-543692Y748517D01*
X-543618Y748547D01*
X-543546Y748581D01*
X-543476Y748617D01*
X-543408Y748657D01*
X-543342Y748701D01*
X-543278Y748747D01*
X-543216Y748797D01*
X-543157Y748849D01*
X-543101Y748905D01*
X-543047Y748962D01*
X-542996Y749023D01*
X-542948Y749086D01*
X-542903Y749151D01*
X-542861Y749218D01*
X-542823Y749287D01*
X-542787Y749358D01*
X-542756Y749431D01*
X-542728Y749505D01*
X-542703Y749580D01*
X-542683Y749656D01*
X-542665Y749733D01*
X-542652Y749811D01*
X-542643Y749890D01*
X-542637Y749969D01*
X-542635Y750048D01*
X-549219Y748411D02*
X-549219Y753322D01*
X-551265Y753322D01*
X-551334Y753320D01*
X-551402Y753314D01*
X-551471Y753305D01*
X-551538Y753291D01*
X-551605Y753274D01*
X-551671Y753253D01*
X-551735Y753229D01*
X-551798Y753200D01*
X-551859Y753169D01*
X-551918Y753134D01*
X-551976Y753096D01*
X-552031Y753054D01*
X-552083Y753010D01*
X-552133Y752962D01*
X-552181Y752912D01*
X-552225Y752860D01*
X-552267Y752805D01*
X-552305Y752747D01*
X-552340Y752688D01*
X-552371Y752627D01*
X-552400Y752564D01*
X-552424Y752500D01*
X-552445Y752434D01*
X-552462Y752367D01*
X-552476Y752300D01*
X-552485Y752231D01*
X-552491Y752163D01*
X-552493Y752094D01*
X-552493Y748411D01*
X-559074Y753322D02*
X-561529Y753322D01*
X-559892Y755777D02*
X-559892Y749639D01*
X-559894Y749570D01*
X-559900Y749502D01*
X-559909Y749433D01*
X-559923Y749366D01*
X-559940Y749299D01*
X-559961Y749233D01*
X-559985Y749169D01*
X-560014Y749106D01*
X-560045Y749045D01*
X-560080Y748986D01*
X-560118Y748928D01*
X-560160Y748873D01*
X-560204Y748821D01*
X-560252Y748771D01*
X-560302Y748723D01*
X-560354Y748679D01*
X-560409Y748637D01*
X-560467Y748599D01*
X-560526Y748564D01*
X-560587Y748533D01*
X-560650Y748504D01*
X-560714Y748480D01*
X-560780Y748459D01*
X-560847Y748442D01*
X-560914Y748428D01*
X-560983Y748419D01*
X-561051Y748413D01*
X-561120Y748411D01*
X-561529Y748411D01*
X-564581Y748411D02*
X-564581Y755777D01*
X-564581Y753322D02*
X-566627Y753322D01*
X-566696Y753320D01*
X-566764Y753314D01*
X-566833Y753305D01*
X-566900Y753291D01*
X-566967Y753274D01*
X-567033Y753253D01*
X-567097Y753229D01*
X-567160Y753200D01*
X-567221Y753169D01*
X-567280Y753134D01*
X-567338Y753096D01*
X-567393Y753054D01*
X-567445Y753010D01*
X-567495Y752962D01*
X-567543Y752912D01*
X-567587Y752860D01*
X-567629Y752805D01*
X-567667Y752747D01*
X-567702Y752688D01*
X-567733Y752627D01*
X-567762Y752564D01*
X-567786Y752500D01*
X-567807Y752434D01*
X-567824Y752367D01*
X-567838Y752300D01*
X-567847Y752231D01*
X-567853Y752163D01*
X-567855Y752094D01*
X-567855Y748411D01*
X-571095Y748411D02*
X-571095Y753322D01*
X-570890Y755368D02*
X-570890Y755777D01*
X-571299Y755777D01*
X-571299Y755368D01*
X-570890Y755368D01*
X-574705Y751276D02*
X-576751Y750457D01*
X-574705Y751276D02*
X-574646Y751301D01*
X-574589Y751330D01*
X-574534Y751363D01*
X-574481Y751399D01*
X-574430Y751437D01*
X-574382Y751479D01*
X-574336Y751524D01*
X-574293Y751571D01*
X-574253Y751621D01*
X-574216Y751673D01*
X-574182Y751728D01*
X-574151Y751784D01*
X-574124Y751842D01*
X-574101Y751902D01*
X-574081Y751962D01*
X-574065Y752024D01*
X-574052Y752087D01*
X-574044Y752151D01*
X-574039Y752214D01*
X-574038Y752278D01*
X-574041Y752342D01*
X-574048Y752406D01*
X-574059Y752469D01*
X-574073Y752531D01*
X-574091Y752593D01*
X-574113Y752653D01*
X-574138Y752712D01*
X-574167Y752769D01*
X-574200Y752824D01*
X-574235Y752877D01*
X-574274Y752928D01*
X-574316Y752977D01*
X-574360Y753023D01*
X-574408Y753066D01*
X-574457Y753106D01*
X-574510Y753143D01*
X-574564Y753177D01*
X-574620Y753208D01*
X-574678Y753235D01*
X-574737Y753259D01*
X-574798Y753278D01*
X-574860Y753295D01*
X-574923Y753307D01*
X-574986Y753316D01*
X-575050Y753321D01*
X-575114Y753322D01*
X-575113Y753322D02*
X-575249Y753318D01*
X-575384Y753310D01*
X-575520Y753298D01*
X-575654Y753282D01*
X-575789Y753262D01*
X-575922Y753239D01*
X-576055Y753211D01*
X-576187Y753180D01*
X-576318Y753145D01*
X-576448Y753106D01*
X-576577Y753063D01*
X-576704Y753016D01*
X-576830Y752966D01*
X-576955Y752912D01*
X-576751Y750457D02*
X-576810Y750432D01*
X-576867Y750403D01*
X-576922Y750370D01*
X-576975Y750334D01*
X-577026Y750296D01*
X-577074Y750254D01*
X-577120Y750209D01*
X-577163Y750162D01*
X-577203Y750112D01*
X-577240Y750060D01*
X-577274Y750005D01*
X-577305Y749949D01*
X-577332Y749891D01*
X-577355Y749831D01*
X-577375Y749771D01*
X-577391Y749709D01*
X-577404Y749646D01*
X-577412Y749582D01*
X-577417Y749519D01*
X-577418Y749455D01*
X-577415Y749391D01*
X-577408Y749327D01*
X-577397Y749264D01*
X-577383Y749202D01*
X-577365Y749140D01*
X-577343Y749080D01*
X-577318Y749021D01*
X-577289Y748964D01*
X-577256Y748909D01*
X-577221Y748856D01*
X-577182Y748805D01*
X-577140Y748756D01*
X-577096Y748710D01*
X-577048Y748667D01*
X-576999Y748627D01*
X-576946Y748590D01*
X-576892Y748556D01*
X-576836Y748525D01*
X-576778Y748498D01*
X-576719Y748474D01*
X-576658Y748455D01*
X-576596Y748438D01*
X-576533Y748426D01*
X-576470Y748417D01*
X-576406Y748412D01*
X-576342Y748411D01*
X-576178Y748415D01*
X-576014Y748423D01*
X-575850Y748435D01*
X-575687Y748451D01*
X-575524Y748471D01*
X-575361Y748494D01*
X-575200Y748522D01*
X-575038Y748553D01*
X-574878Y748588D01*
X-574719Y748627D01*
X-574560Y748670D01*
X-574403Y748716D01*
X-574246Y748766D01*
X-574091Y748820D01*
X-584946Y751276D02*
X-586992Y750457D01*
X-584946Y751276D02*
X-584887Y751301D01*
X-584830Y751330D01*
X-584775Y751363D01*
X-584722Y751399D01*
X-584671Y751437D01*
X-584623Y751479D01*
X-584577Y751524D01*
X-584534Y751571D01*
X-584494Y751621D01*
X-584457Y751673D01*
X-584423Y751728D01*
X-584392Y751784D01*
X-584365Y751842D01*
X-584342Y751902D01*
X-584322Y751962D01*
X-584306Y752024D01*
X-584293Y752087D01*
X-584285Y752151D01*
X-584280Y752214D01*
X-584279Y752278D01*
X-584282Y752342D01*
X-584289Y752406D01*
X-584300Y752469D01*
X-584314Y752531D01*
X-584332Y752593D01*
X-584354Y752653D01*
X-584379Y752712D01*
X-584408Y752769D01*
X-584441Y752824D01*
X-584476Y752877D01*
X-584515Y752928D01*
X-584557Y752977D01*
X-584601Y753023D01*
X-584649Y753066D01*
X-584698Y753106D01*
X-584751Y753143D01*
X-584805Y753177D01*
X-584861Y753208D01*
X-584919Y753235D01*
X-584978Y753259D01*
X-585039Y753278D01*
X-585101Y753295D01*
X-585164Y753307D01*
X-585227Y753316D01*
X-585291Y753321D01*
X-585355Y753322D01*
X-585491Y753318D01*
X-585626Y753310D01*
X-585762Y753298D01*
X-585896Y753282D01*
X-586031Y753262D01*
X-586164Y753239D01*
X-586297Y753211D01*
X-586429Y753180D01*
X-586560Y753145D01*
X-586690Y753106D01*
X-586819Y753063D01*
X-586946Y753016D01*
X-587072Y752966D01*
X-587197Y752912D01*
X-586992Y750457D02*
X-587051Y750432D01*
X-587108Y750403D01*
X-587163Y750370D01*
X-587216Y750334D01*
X-587267Y750296D01*
X-587315Y750254D01*
X-587361Y750209D01*
X-587404Y750162D01*
X-587444Y750112D01*
X-587481Y750060D01*
X-587515Y750005D01*
X-587546Y749949D01*
X-587573Y749891D01*
X-587596Y749831D01*
X-587616Y749771D01*
X-587632Y749709D01*
X-587645Y749646D01*
X-587653Y749582D01*
X-587658Y749519D01*
X-587659Y749455D01*
X-587656Y749391D01*
X-587649Y749327D01*
X-587638Y749264D01*
X-587624Y749202D01*
X-587606Y749140D01*
X-587584Y749080D01*
X-587559Y749021D01*
X-587530Y748964D01*
X-587497Y748909D01*
X-587462Y748856D01*
X-587423Y748805D01*
X-587381Y748756D01*
X-587337Y748710D01*
X-587289Y748667D01*
X-587240Y748627D01*
X-587187Y748590D01*
X-587133Y748556D01*
X-587077Y748525D01*
X-587019Y748498D01*
X-586960Y748474D01*
X-586899Y748455D01*
X-586837Y748438D01*
X-586774Y748426D01*
X-586711Y748417D01*
X-586647Y748412D01*
X-586583Y748411D01*
X-586419Y748415D01*
X-586255Y748423D01*
X-586091Y748435D01*
X-585928Y748451D01*
X-585765Y748471D01*
X-585602Y748494D01*
X-585441Y748522D01*
X-585279Y748553D01*
X-585119Y748588D01*
X-584960Y748627D01*
X-584801Y748670D01*
X-584644Y748716D01*
X-584487Y748766D01*
X-584332Y748820D01*
X-590602Y748411D02*
X-590602Y753322D01*
X-590397Y755368D02*
X-590397Y755777D01*
X-590806Y755777D01*
X-590806Y755368D01*
X-590397Y755368D01*
X-596831Y755777D02*
X-596831Y748411D01*
X-594785Y748411D01*
X-594716Y748413D01*
X-594648Y748419D01*
X-594579Y748428D01*
X-594512Y748442D01*
X-594445Y748459D01*
X-594379Y748480D01*
X-594315Y748504D01*
X-594252Y748533D01*
X-594191Y748564D01*
X-594132Y748599D01*
X-594074Y748637D01*
X-594019Y748679D01*
X-593967Y748723D01*
X-593917Y748771D01*
X-593869Y748821D01*
X-593825Y748873D01*
X-593783Y748928D01*
X-593745Y748986D01*
X-593710Y749045D01*
X-593679Y749106D01*
X-593650Y749169D01*
X-593626Y749233D01*
X-593605Y749299D01*
X-593588Y749366D01*
X-593574Y749433D01*
X-593565Y749502D01*
X-593559Y749570D01*
X-593557Y749639D01*
X-593557Y752094D01*
X-593559Y752163D01*
X-593565Y752231D01*
X-593574Y752300D01*
X-593588Y752367D01*
X-593605Y752434D01*
X-593626Y752500D01*
X-593650Y752564D01*
X-593679Y752627D01*
X-593710Y752688D01*
X-593745Y752747D01*
X-593783Y752805D01*
X-593825Y752860D01*
X-593869Y752912D01*
X-593917Y752962D01*
X-593967Y753010D01*
X-594019Y753054D01*
X-594074Y753096D01*
X-594132Y753134D01*
X-594191Y753169D01*
X-594252Y753200D01*
X-594315Y753229D01*
X-594379Y753253D01*
X-594445Y753274D01*
X-594512Y753291D01*
X-594579Y753305D01*
X-594648Y753314D01*
X-594716Y753320D01*
X-594785Y753322D01*
X-596831Y753322D01*
X-601409Y748411D02*
X-603455Y748411D01*
X-601409Y748411D02*
X-601340Y748413D01*
X-601272Y748419D01*
X-601203Y748428D01*
X-601136Y748442D01*
X-601069Y748459D01*
X-601003Y748480D01*
X-600939Y748504D01*
X-600876Y748533D01*
X-600815Y748564D01*
X-600756Y748599D01*
X-600698Y748637D01*
X-600643Y748679D01*
X-600591Y748723D01*
X-600541Y748771D01*
X-600493Y748821D01*
X-600449Y748873D01*
X-600407Y748928D01*
X-600369Y748986D01*
X-600334Y749045D01*
X-600303Y749106D01*
X-600274Y749169D01*
X-600250Y749233D01*
X-600229Y749299D01*
X-600212Y749366D01*
X-600198Y749433D01*
X-600189Y749502D01*
X-600183Y749570D01*
X-600181Y749639D01*
X-600182Y749639D02*
X-600182Y751685D01*
X-600181Y751685D02*
X-600183Y751764D01*
X-600189Y751843D01*
X-600198Y751922D01*
X-600211Y752000D01*
X-600229Y752077D01*
X-600249Y752153D01*
X-600274Y752228D01*
X-600302Y752302D01*
X-600333Y752375D01*
X-600369Y752446D01*
X-600407Y752515D01*
X-600449Y752582D01*
X-600494Y752647D01*
X-600542Y752710D01*
X-600593Y752771D01*
X-600647Y752828D01*
X-600703Y752884D01*
X-600762Y752936D01*
X-600824Y752986D01*
X-600888Y753032D01*
X-600954Y753076D01*
X-601022Y753116D01*
X-601092Y753152D01*
X-601164Y753186D01*
X-601238Y753216D01*
X-601312Y753242D01*
X-601388Y753265D01*
X-601465Y753283D01*
X-601542Y753299D01*
X-601621Y753310D01*
X-601699Y753318D01*
X-601778Y753322D01*
X-601858Y753322D01*
X-601937Y753318D01*
X-602015Y753310D01*
X-602094Y753299D01*
X-602171Y753283D01*
X-602248Y753265D01*
X-602324Y753242D01*
X-602398Y753216D01*
X-602472Y753186D01*
X-602544Y753152D01*
X-602614Y753116D01*
X-602682Y753076D01*
X-602748Y753032D01*
X-602812Y752986D01*
X-602874Y752936D01*
X-602933Y752884D01*
X-602989Y752828D01*
X-603043Y752771D01*
X-603094Y752710D01*
X-603142Y752647D01*
X-603187Y752582D01*
X-603229Y752515D01*
X-603267Y752446D01*
X-603303Y752375D01*
X-603334Y752302D01*
X-603362Y752228D01*
X-603387Y752153D01*
X-603407Y752077D01*
X-603425Y752000D01*
X-603438Y751922D01*
X-603447Y751843D01*
X-603453Y751764D01*
X-603455Y751685D01*
X-603455Y750866D01*
X-600182Y750866D01*
X-610530Y752094D02*
X-610532Y752263D01*
X-610538Y752431D01*
X-610548Y752599D01*
X-610562Y752767D01*
X-610581Y752935D01*
X-610603Y753102D01*
X-610629Y753268D01*
X-610659Y753434D01*
X-610694Y753599D01*
X-610732Y753763D01*
X-610774Y753927D01*
X-610820Y754089D01*
X-610870Y754250D01*
X-610924Y754410D01*
X-610981Y754568D01*
X-611043Y754725D01*
X-611108Y754880D01*
X-611177Y755034D01*
X-611249Y755186D01*
X-611325Y755337D01*
X-611405Y755485D01*
X-611488Y755632D01*
X-611575Y755776D01*
X-611666Y755919D01*
X-611759Y756059D01*
X-611856Y756197D01*
X-611957Y756332D01*
X-612060Y756465D01*
X-612167Y756595D01*
X-610530Y752094D02*
X-610532Y751925D01*
X-610538Y751757D01*
X-610548Y751589D01*
X-610562Y751421D01*
X-610581Y751253D01*
X-610603Y751086D01*
X-610629Y750920D01*
X-610659Y750754D01*
X-610694Y750589D01*
X-610732Y750425D01*
X-610774Y750261D01*
X-610820Y750099D01*
X-610870Y749938D01*
X-610924Y749778D01*
X-610981Y749620D01*
X-611043Y749463D01*
X-611108Y749308D01*
X-611177Y749154D01*
X-611249Y749002D01*
X-611325Y748851D01*
X-611405Y748703D01*
X-611488Y748556D01*
X-611575Y748412D01*
X-611666Y748269D01*
X-611759Y748129D01*
X-611856Y747991D01*
X-611957Y747856D01*
X-612060Y747723D01*
X-612167Y747593D01*
X-615340Y748411D02*
X-615340Y755777D01*
X-615340Y748411D02*
X-617387Y748411D01*
X-617456Y748413D01*
X-617524Y748419D01*
X-617593Y748428D01*
X-617660Y748442D01*
X-617727Y748459D01*
X-617793Y748480D01*
X-617857Y748504D01*
X-617920Y748533D01*
X-617981Y748564D01*
X-618040Y748599D01*
X-618098Y748637D01*
X-618153Y748679D01*
X-618205Y748723D01*
X-618255Y748771D01*
X-618303Y748821D01*
X-618347Y748873D01*
X-618389Y748928D01*
X-618427Y748986D01*
X-618462Y749045D01*
X-618493Y749106D01*
X-618522Y749169D01*
X-618546Y749233D01*
X-618567Y749299D01*
X-618584Y749366D01*
X-618598Y749433D01*
X-618607Y749502D01*
X-618613Y749570D01*
X-618615Y749639D01*
X-618614Y749639D02*
X-618614Y752094D01*
X-618615Y752094D02*
X-618613Y752163D01*
X-618607Y752231D01*
X-618598Y752300D01*
X-618584Y752367D01*
X-618567Y752434D01*
X-618546Y752500D01*
X-618522Y752564D01*
X-618493Y752627D01*
X-618462Y752688D01*
X-618427Y752747D01*
X-618389Y752805D01*
X-618347Y752860D01*
X-618303Y752912D01*
X-618255Y752962D01*
X-618205Y753010D01*
X-618153Y753054D01*
X-618098Y753096D01*
X-618040Y753134D01*
X-617981Y753169D01*
X-617920Y753200D01*
X-617857Y753229D01*
X-617793Y753253D01*
X-617727Y753274D01*
X-617660Y753291D01*
X-617593Y753305D01*
X-617524Y753314D01*
X-617456Y753320D01*
X-617387Y753322D01*
X-615340Y753322D01*
X-623031Y751276D02*
X-624872Y751276D01*
X-623031Y751275D02*
X-622956Y751273D01*
X-622881Y751267D01*
X-622807Y751257D01*
X-622733Y751244D01*
X-622660Y751226D01*
X-622588Y751205D01*
X-622518Y751180D01*
X-622449Y751151D01*
X-622381Y751119D01*
X-622315Y751083D01*
X-622251Y751044D01*
X-622189Y751002D01*
X-622130Y750956D01*
X-622073Y750907D01*
X-622018Y750856D01*
X-621967Y750801D01*
X-621918Y750744D01*
X-621872Y750685D01*
X-621830Y750623D01*
X-621791Y750559D01*
X-621755Y750493D01*
X-621723Y750425D01*
X-621694Y750356D01*
X-621669Y750286D01*
X-621648Y750214D01*
X-621630Y750141D01*
X-621617Y750067D01*
X-621607Y749993D01*
X-621601Y749918D01*
X-621599Y749843D01*
X-621601Y749768D01*
X-621607Y749693D01*
X-621617Y749619D01*
X-621630Y749545D01*
X-621648Y749472D01*
X-621669Y749400D01*
X-621694Y749330D01*
X-621723Y749261D01*
X-621755Y749193D01*
X-621791Y749127D01*
X-621830Y749063D01*
X-621872Y749001D01*
X-621918Y748942D01*
X-621967Y748885D01*
X-622018Y748830D01*
X-622073Y748779D01*
X-622130Y748730D01*
X-622189Y748684D01*
X-622251Y748642D01*
X-622315Y748603D01*
X-622381Y748567D01*
X-622449Y748535D01*
X-622518Y748506D01*
X-622588Y748481D01*
X-622660Y748460D01*
X-622733Y748442D01*
X-622807Y748429D01*
X-622881Y748419D01*
X-622956Y748413D01*
X-623031Y748411D01*
X-624872Y748411D01*
X-624872Y752094D01*
X-624873Y752094D02*
X-624871Y752163D01*
X-624865Y752231D01*
X-624856Y752300D01*
X-624842Y752367D01*
X-624825Y752434D01*
X-624804Y752500D01*
X-624780Y752564D01*
X-624751Y752627D01*
X-624720Y752688D01*
X-624685Y752747D01*
X-624647Y752805D01*
X-624605Y752860D01*
X-624561Y752912D01*
X-624513Y752962D01*
X-624463Y753010D01*
X-624411Y753054D01*
X-624356Y753096D01*
X-624298Y753134D01*
X-624239Y753169D01*
X-624178Y753200D01*
X-624115Y753229D01*
X-624051Y753253D01*
X-623985Y753274D01*
X-623918Y753291D01*
X-623851Y753305D01*
X-623782Y753314D01*
X-623714Y753320D01*
X-623645Y753322D01*
X-622008Y753322D01*
X-629460Y748411D02*
X-631097Y748411D01*
X-629460Y748411D02*
X-629391Y748413D01*
X-629323Y748419D01*
X-629254Y748428D01*
X-629187Y748442D01*
X-629120Y748459D01*
X-629054Y748480D01*
X-628990Y748504D01*
X-628927Y748533D01*
X-628866Y748564D01*
X-628807Y748599D01*
X-628749Y748637D01*
X-628694Y748679D01*
X-628642Y748723D01*
X-628592Y748771D01*
X-628544Y748821D01*
X-628500Y748873D01*
X-628458Y748928D01*
X-628420Y748986D01*
X-628385Y749045D01*
X-628354Y749106D01*
X-628325Y749169D01*
X-628301Y749233D01*
X-628280Y749299D01*
X-628263Y749366D01*
X-628249Y749433D01*
X-628240Y749502D01*
X-628234Y749570D01*
X-628232Y749639D01*
X-628232Y752094D01*
X-628234Y752163D01*
X-628240Y752231D01*
X-628249Y752300D01*
X-628263Y752367D01*
X-628280Y752434D01*
X-628301Y752500D01*
X-628325Y752564D01*
X-628354Y752627D01*
X-628385Y752688D01*
X-628420Y752747D01*
X-628458Y752805D01*
X-628500Y752860D01*
X-628544Y752912D01*
X-628592Y752962D01*
X-628642Y753010D01*
X-628694Y753054D01*
X-628749Y753096D01*
X-628807Y753134D01*
X-628866Y753169D01*
X-628927Y753200D01*
X-628990Y753229D01*
X-629054Y753253D01*
X-629120Y753274D01*
X-629187Y753291D01*
X-629254Y753305D01*
X-629323Y753314D01*
X-629391Y753320D01*
X-629460Y753322D01*
X-631097Y753322D01*
X-634169Y755777D02*
X-634169Y748411D01*
X-634169Y750866D02*
X-637443Y753322D01*
X-635602Y751889D02*
X-637443Y748411D01*
X-639994Y747593D02*
X-640101Y747723D01*
X-640204Y747856D01*
X-640305Y747991D01*
X-640402Y748129D01*
X-640495Y748269D01*
X-640586Y748412D01*
X-640673Y748556D01*
X-640756Y748703D01*
X-640836Y748851D01*
X-640912Y749002D01*
X-640984Y749154D01*
X-641053Y749308D01*
X-641118Y749463D01*
X-641180Y749620D01*
X-641237Y749778D01*
X-641291Y749938D01*
X-641341Y750099D01*
X-641387Y750261D01*
X-641429Y750425D01*
X-641467Y750589D01*
X-641502Y750754D01*
X-641532Y750920D01*
X-641558Y751086D01*
X-641580Y751253D01*
X-641599Y751421D01*
X-641613Y751589D01*
X-641623Y751757D01*
X-641629Y751925D01*
X-641631Y752094D01*
X-641629Y752263D01*
X-641623Y752431D01*
X-641613Y752599D01*
X-641599Y752767D01*
X-641580Y752935D01*
X-641558Y753102D01*
X-641532Y753268D01*
X-641502Y753434D01*
X-641467Y753599D01*
X-641429Y753763D01*
X-641387Y753927D01*
X-641341Y754089D01*
X-641291Y754250D01*
X-641237Y754410D01*
X-641180Y754568D01*
X-641118Y754725D01*
X-641053Y754880D01*
X-640984Y755034D01*
X-640912Y755186D01*
X-640836Y755337D01*
X-640756Y755485D01*
X-640673Y755632D01*
X-640586Y755776D01*
X-640495Y755919D01*
X-640402Y756059D01*
X-640305Y756197D01*
X-640204Y756332D01*
X-640101Y756465D01*
X-639994Y756595D01*
X154305Y534797D02*
X163703Y534797D01*
X163703Y538974D01*
X159526Y538974D02*
X159526Y534797D01*
X154305Y543878D02*
X154305Y546489D01*
X154305Y543878D02*
X154307Y543801D01*
X154313Y543725D01*
X154322Y543648D01*
X154335Y543572D01*
X154352Y543497D01*
X154372Y543423D01*
X154397Y543350D01*
X154424Y543279D01*
X154455Y543208D01*
X154490Y543140D01*
X154528Y543073D01*
X154569Y543008D01*
X154613Y542945D01*
X154660Y542885D01*
X154711Y542826D01*
X154764Y542771D01*
X154819Y542718D01*
X154878Y542667D01*
X154938Y542620D01*
X155001Y542576D01*
X155066Y542535D01*
X155133Y542497D01*
X155201Y542462D01*
X155272Y542431D01*
X155343Y542404D01*
X155416Y542379D01*
X155490Y542359D01*
X155565Y542342D01*
X155641Y542329D01*
X155718Y542320D01*
X155794Y542314D01*
X155871Y542312D01*
X158482Y542312D01*
X158572Y542314D01*
X158661Y542320D01*
X158751Y542329D01*
X158840Y542343D01*
X158928Y542360D01*
X159015Y542381D01*
X159102Y542406D01*
X159187Y542435D01*
X159271Y542467D01*
X159353Y542502D01*
X159434Y542542D01*
X159513Y542584D01*
X159590Y542630D01*
X159665Y542680D01*
X159738Y542732D01*
X159809Y542788D01*
X159877Y542846D01*
X159942Y542908D01*
X160005Y542972D01*
X160065Y543039D01*
X160122Y543108D01*
X160176Y543180D01*
X160227Y543254D01*
X160275Y543330D01*
X160319Y543408D01*
X160360Y543488D01*
X160398Y543570D01*
X160432Y543653D01*
X160462Y543738D01*
X160489Y543824D01*
X160512Y543910D01*
X160531Y543998D01*
X160546Y544087D01*
X160558Y544176D01*
X160566Y544265D01*
X160570Y544355D01*
X160570Y544445D01*
X160566Y544535D01*
X160558Y544624D01*
X160546Y544713D01*
X160531Y544802D01*
X160512Y544890D01*
X160489Y544976D01*
X160462Y545062D01*
X160432Y545147D01*
X160398Y545230D01*
X160360Y545312D01*
X160319Y545392D01*
X160275Y545470D01*
X160227Y545546D01*
X160176Y545620D01*
X160122Y545692D01*
X160065Y545761D01*
X160005Y545828D01*
X159942Y545892D01*
X159877Y545954D01*
X159809Y546012D01*
X159738Y546068D01*
X159665Y546120D01*
X159590Y546170D01*
X159513Y546216D01*
X159434Y546258D01*
X159353Y546298D01*
X159271Y546333D01*
X159187Y546365D01*
X159102Y546394D01*
X159015Y546419D01*
X158928Y546440D01*
X158840Y546457D01*
X158751Y546471D01*
X158661Y546480D01*
X158572Y546486D01*
X158482Y546488D01*
X158482Y546489D02*
X157438Y546489D01*
X157438Y542312D01*
X154305Y550717D02*
X160570Y550717D01*
X160570Y555416D01*
X160568Y555493D01*
X160562Y555569D01*
X160553Y555646D01*
X160540Y555722D01*
X160523Y555797D01*
X160503Y555871D01*
X160478Y555944D01*
X160451Y556015D01*
X160420Y556086D01*
X160385Y556154D01*
X160347Y556221D01*
X160306Y556286D01*
X160262Y556349D01*
X160215Y556409D01*
X160164Y556468D01*
X160111Y556523D01*
X160056Y556576D01*
X159997Y556627D01*
X159937Y556674D01*
X159874Y556718D01*
X159809Y556759D01*
X159742Y556797D01*
X159674Y556832D01*
X159603Y556863D01*
X159532Y556890D01*
X159459Y556915D01*
X159385Y556935D01*
X159310Y556952D01*
X159234Y556965D01*
X159157Y556974D01*
X159081Y556980D01*
X159004Y556982D01*
X154305Y556982D01*
X154305Y553849D02*
X160570Y553849D01*
X157960Y562991D02*
X157960Y565341D01*
X157959Y562991D02*
X157957Y562907D01*
X157951Y562822D01*
X157941Y562739D01*
X157928Y562655D01*
X157910Y562573D01*
X157889Y562491D01*
X157864Y562410D01*
X157836Y562331D01*
X157803Y562253D01*
X157767Y562177D01*
X157728Y562102D01*
X157685Y562029D01*
X157639Y561958D01*
X157590Y561890D01*
X157538Y561824D01*
X157482Y561760D01*
X157424Y561699D01*
X157363Y561641D01*
X157299Y561585D01*
X157233Y561533D01*
X157165Y561484D01*
X157094Y561438D01*
X157021Y561395D01*
X156946Y561356D01*
X156870Y561320D01*
X156792Y561287D01*
X156713Y561259D01*
X156632Y561234D01*
X156550Y561213D01*
X156468Y561195D01*
X156384Y561182D01*
X156301Y561172D01*
X156216Y561166D01*
X156132Y561164D01*
X156048Y561166D01*
X155963Y561172D01*
X155880Y561182D01*
X155796Y561195D01*
X155714Y561213D01*
X155632Y561234D01*
X155551Y561259D01*
X155472Y561287D01*
X155394Y561320D01*
X155318Y561356D01*
X155243Y561395D01*
X155170Y561438D01*
X155099Y561484D01*
X155031Y561533D01*
X154965Y561585D01*
X154901Y561641D01*
X154840Y561699D01*
X154782Y561760D01*
X154726Y561824D01*
X154674Y561890D01*
X154625Y561958D01*
X154579Y562029D01*
X154536Y562102D01*
X154497Y562177D01*
X154461Y562253D01*
X154428Y562331D01*
X154400Y562410D01*
X154375Y562491D01*
X154354Y562573D01*
X154336Y562655D01*
X154323Y562739D01*
X154313Y562822D01*
X154307Y562907D01*
X154305Y562991D01*
X154305Y565341D01*
X159004Y565341D01*
X159004Y565340D02*
X159081Y565338D01*
X159157Y565332D01*
X159234Y565323D01*
X159310Y565310D01*
X159385Y565293D01*
X159459Y565273D01*
X159532Y565248D01*
X159603Y565221D01*
X159674Y565190D01*
X159742Y565155D01*
X159809Y565117D01*
X159874Y565076D01*
X159937Y565032D01*
X159997Y564985D01*
X160056Y564934D01*
X160111Y564881D01*
X160164Y564826D01*
X160215Y564767D01*
X160262Y564707D01*
X160306Y564644D01*
X160347Y564579D01*
X160385Y564512D01*
X160420Y564444D01*
X160451Y564373D01*
X160478Y564302D01*
X160503Y564229D01*
X160523Y564155D01*
X160540Y564080D01*
X160553Y564004D01*
X160562Y563927D01*
X160568Y563851D01*
X160570Y563774D01*
X160570Y561686D01*
X163703Y569564D02*
X155871Y569564D01*
X155871Y569565D02*
X155794Y569567D01*
X155718Y569573D01*
X155641Y569582D01*
X155565Y569595D01*
X155490Y569612D01*
X155416Y569632D01*
X155343Y569657D01*
X155272Y569684D01*
X155201Y569715D01*
X155133Y569750D01*
X155066Y569788D01*
X155001Y569829D01*
X154938Y569873D01*
X154878Y569920D01*
X154819Y569971D01*
X154764Y570024D01*
X154711Y570079D01*
X154660Y570138D01*
X154613Y570198D01*
X154569Y570261D01*
X154528Y570326D01*
X154490Y570393D01*
X154455Y570461D01*
X154424Y570532D01*
X154397Y570603D01*
X154372Y570676D01*
X154352Y570750D01*
X154335Y570825D01*
X154322Y570901D01*
X154313Y570978D01*
X154307Y571054D01*
X154305Y571131D01*
X154305Y575882D02*
X154305Y578493D01*
X154305Y575882D02*
X154307Y575805D01*
X154313Y575729D01*
X154322Y575652D01*
X154335Y575576D01*
X154352Y575501D01*
X154372Y575427D01*
X154397Y575354D01*
X154424Y575283D01*
X154455Y575212D01*
X154490Y575144D01*
X154528Y575077D01*
X154569Y575012D01*
X154613Y574949D01*
X154660Y574889D01*
X154711Y574830D01*
X154764Y574775D01*
X154819Y574722D01*
X154878Y574671D01*
X154938Y574624D01*
X155001Y574580D01*
X155066Y574539D01*
X155133Y574501D01*
X155201Y574466D01*
X155272Y574435D01*
X155343Y574408D01*
X155416Y574383D01*
X155490Y574363D01*
X155565Y574346D01*
X155641Y574333D01*
X155718Y574324D01*
X155794Y574318D01*
X155871Y574316D01*
X158482Y574316D01*
X158572Y574318D01*
X158661Y574324D01*
X158751Y574333D01*
X158840Y574347D01*
X158928Y574364D01*
X159015Y574385D01*
X159102Y574410D01*
X159187Y574439D01*
X159271Y574471D01*
X159353Y574506D01*
X159434Y574546D01*
X159513Y574588D01*
X159590Y574634D01*
X159665Y574684D01*
X159738Y574736D01*
X159809Y574792D01*
X159877Y574850D01*
X159942Y574912D01*
X160005Y574976D01*
X160065Y575043D01*
X160122Y575112D01*
X160176Y575184D01*
X160227Y575258D01*
X160275Y575334D01*
X160319Y575412D01*
X160360Y575492D01*
X160398Y575574D01*
X160432Y575657D01*
X160462Y575742D01*
X160489Y575828D01*
X160512Y575914D01*
X160531Y576002D01*
X160546Y576091D01*
X160558Y576180D01*
X160566Y576269D01*
X160570Y576359D01*
X160570Y576449D01*
X160566Y576539D01*
X160558Y576628D01*
X160546Y576717D01*
X160531Y576806D01*
X160512Y576894D01*
X160489Y576980D01*
X160462Y577066D01*
X160432Y577151D01*
X160398Y577234D01*
X160360Y577316D01*
X160319Y577396D01*
X160275Y577474D01*
X160227Y577550D01*
X160176Y577624D01*
X160122Y577696D01*
X160065Y577765D01*
X160005Y577832D01*
X159942Y577896D01*
X159877Y577958D01*
X159809Y578016D01*
X159738Y578072D01*
X159665Y578124D01*
X159590Y578174D01*
X159513Y578220D01*
X159434Y578262D01*
X159353Y578302D01*
X159271Y578337D01*
X159187Y578369D01*
X159102Y578398D01*
X159015Y578423D01*
X158928Y578444D01*
X158840Y578461D01*
X158751Y578475D01*
X158661Y578484D01*
X158572Y578490D01*
X158482Y578492D01*
X158482Y578493D02*
X157438Y578493D01*
X157438Y574316D01*
X154305Y587422D02*
X163703Y587422D01*
X160570Y587422D02*
X160570Y590033D01*
X160568Y590110D01*
X160562Y590186D01*
X160553Y590263D01*
X160540Y590339D01*
X160523Y590414D01*
X160503Y590488D01*
X160478Y590561D01*
X160451Y590632D01*
X160420Y590703D01*
X160385Y590771D01*
X160347Y590838D01*
X160306Y590903D01*
X160262Y590966D01*
X160215Y591026D01*
X160164Y591085D01*
X160111Y591140D01*
X160056Y591193D01*
X159997Y591244D01*
X159937Y591291D01*
X159874Y591335D01*
X159809Y591376D01*
X159742Y591414D01*
X159674Y591449D01*
X159603Y591480D01*
X159532Y591507D01*
X159459Y591532D01*
X159385Y591552D01*
X159310Y591569D01*
X159234Y591582D01*
X159157Y591591D01*
X159081Y591597D01*
X159004Y591599D01*
X154305Y591599D01*
X154305Y597218D02*
X154305Y599829D01*
X154305Y597218D02*
X154307Y597141D01*
X154313Y597065D01*
X154322Y596988D01*
X154335Y596912D01*
X154352Y596837D01*
X154372Y596763D01*
X154397Y596690D01*
X154424Y596619D01*
X154455Y596548D01*
X154490Y596480D01*
X154528Y596413D01*
X154569Y596348D01*
X154613Y596285D01*
X154660Y596225D01*
X154711Y596166D01*
X154764Y596111D01*
X154819Y596058D01*
X154878Y596007D01*
X154938Y595960D01*
X155001Y595916D01*
X155066Y595875D01*
X155133Y595837D01*
X155201Y595802D01*
X155272Y595771D01*
X155343Y595744D01*
X155416Y595719D01*
X155490Y595699D01*
X155565Y595682D01*
X155641Y595669D01*
X155718Y595660D01*
X155794Y595654D01*
X155871Y595652D01*
X158482Y595652D01*
X158572Y595654D01*
X158661Y595660D01*
X158751Y595669D01*
X158840Y595683D01*
X158928Y595700D01*
X159015Y595721D01*
X159102Y595746D01*
X159187Y595775D01*
X159271Y595807D01*
X159353Y595842D01*
X159434Y595882D01*
X159513Y595924D01*
X159590Y595970D01*
X159665Y596020D01*
X159738Y596072D01*
X159809Y596128D01*
X159877Y596186D01*
X159942Y596248D01*
X160005Y596312D01*
X160065Y596379D01*
X160122Y596448D01*
X160176Y596520D01*
X160227Y596594D01*
X160275Y596670D01*
X160319Y596748D01*
X160360Y596828D01*
X160398Y596910D01*
X160432Y596993D01*
X160462Y597078D01*
X160489Y597164D01*
X160512Y597250D01*
X160531Y597338D01*
X160546Y597427D01*
X160558Y597516D01*
X160566Y597605D01*
X160570Y597695D01*
X160570Y597785D01*
X160566Y597875D01*
X160558Y597964D01*
X160546Y598053D01*
X160531Y598142D01*
X160512Y598230D01*
X160489Y598316D01*
X160462Y598402D01*
X160432Y598487D01*
X160398Y598570D01*
X160360Y598652D01*
X160319Y598732D01*
X160275Y598810D01*
X160227Y598886D01*
X160176Y598960D01*
X160122Y599032D01*
X160065Y599101D01*
X160005Y599168D01*
X159942Y599232D01*
X159877Y599294D01*
X159809Y599352D01*
X159738Y599408D01*
X159665Y599460D01*
X159590Y599510D01*
X159513Y599556D01*
X159434Y599598D01*
X159353Y599638D01*
X159271Y599673D01*
X159187Y599705D01*
X159102Y599734D01*
X159015Y599759D01*
X158928Y599780D01*
X158840Y599797D01*
X158751Y599811D01*
X158661Y599820D01*
X158572Y599826D01*
X158482Y599828D01*
X158482Y599829D02*
X157438Y599829D01*
X157438Y595652D01*
X157960Y605358D02*
X157960Y607708D01*
X157959Y605358D02*
X157957Y605274D01*
X157951Y605189D01*
X157941Y605106D01*
X157928Y605022D01*
X157910Y604940D01*
X157889Y604858D01*
X157864Y604777D01*
X157836Y604698D01*
X157803Y604620D01*
X157767Y604544D01*
X157728Y604469D01*
X157685Y604396D01*
X157639Y604325D01*
X157590Y604257D01*
X157538Y604191D01*
X157482Y604127D01*
X157424Y604066D01*
X157363Y604008D01*
X157299Y603952D01*
X157233Y603900D01*
X157165Y603851D01*
X157094Y603805D01*
X157021Y603762D01*
X156946Y603723D01*
X156870Y603687D01*
X156792Y603654D01*
X156713Y603626D01*
X156632Y603601D01*
X156550Y603580D01*
X156468Y603562D01*
X156384Y603549D01*
X156301Y603539D01*
X156216Y603533D01*
X156132Y603531D01*
X156048Y603533D01*
X155963Y603539D01*
X155880Y603549D01*
X155796Y603562D01*
X155714Y603580D01*
X155632Y603601D01*
X155551Y603626D01*
X155472Y603654D01*
X155394Y603687D01*
X155318Y603723D01*
X155243Y603762D01*
X155170Y603805D01*
X155099Y603851D01*
X155031Y603900D01*
X154965Y603952D01*
X154901Y604008D01*
X154840Y604066D01*
X154782Y604127D01*
X154726Y604191D01*
X154674Y604257D01*
X154625Y604325D01*
X154579Y604396D01*
X154536Y604469D01*
X154497Y604544D01*
X154461Y604620D01*
X154428Y604698D01*
X154400Y604777D01*
X154375Y604858D01*
X154354Y604940D01*
X154336Y605022D01*
X154323Y605106D01*
X154313Y605189D01*
X154307Y605274D01*
X154305Y605358D01*
X154305Y607708D01*
X159004Y607708D01*
X159004Y607707D02*
X159081Y607705D01*
X159157Y607699D01*
X159234Y607690D01*
X159310Y607677D01*
X159385Y607660D01*
X159459Y607640D01*
X159532Y607615D01*
X159603Y607588D01*
X159674Y607557D01*
X159742Y607522D01*
X159809Y607484D01*
X159874Y607443D01*
X159937Y607399D01*
X159997Y607352D01*
X160056Y607301D01*
X160111Y607248D01*
X160164Y607193D01*
X160215Y607134D01*
X160262Y607074D01*
X160306Y607011D01*
X160347Y606946D01*
X160385Y606879D01*
X160420Y606811D01*
X160451Y606740D01*
X160478Y606669D01*
X160503Y606596D01*
X160523Y606522D01*
X160540Y606447D01*
X160553Y606371D01*
X160562Y606294D01*
X160568Y606218D01*
X160570Y606141D01*
X160570Y604053D01*
X163703Y615937D02*
X154305Y615937D01*
X154305Y613327D01*
X154307Y613250D01*
X154313Y613174D01*
X154322Y613097D01*
X154335Y613021D01*
X154352Y612946D01*
X154372Y612872D01*
X154397Y612799D01*
X154424Y612728D01*
X154455Y612657D01*
X154490Y612589D01*
X154528Y612522D01*
X154569Y612457D01*
X154613Y612394D01*
X154660Y612334D01*
X154711Y612275D01*
X154764Y612220D01*
X154819Y612167D01*
X154878Y612116D01*
X154938Y612069D01*
X155001Y612025D01*
X155066Y611984D01*
X155133Y611946D01*
X155201Y611911D01*
X155272Y611880D01*
X155343Y611853D01*
X155416Y611828D01*
X155490Y611808D01*
X155565Y611791D01*
X155641Y611778D01*
X155718Y611769D01*
X155794Y611763D01*
X155871Y611761D01*
X155871Y611760D02*
X159004Y611760D01*
X159004Y611761D02*
X159081Y611763D01*
X159157Y611769D01*
X159234Y611778D01*
X159310Y611791D01*
X159385Y611808D01*
X159459Y611828D01*
X159532Y611853D01*
X159603Y611880D01*
X159674Y611911D01*
X159742Y611946D01*
X159809Y611984D01*
X159874Y612025D01*
X159937Y612069D01*
X159997Y612116D01*
X160056Y612167D01*
X160111Y612220D01*
X160164Y612275D01*
X160215Y612334D01*
X160262Y612394D01*
X160306Y612457D01*
X160347Y612522D01*
X160385Y612589D01*
X160420Y612657D01*
X160451Y612728D01*
X160478Y612799D01*
X160503Y612872D01*
X160523Y612946D01*
X160540Y613021D01*
X160553Y613097D01*
X160562Y613174D01*
X160568Y613250D01*
X160570Y613327D01*
X160570Y615937D01*
X154305Y621602D02*
X154305Y624212D01*
X154305Y621602D02*
X154307Y621525D01*
X154313Y621449D01*
X154322Y621372D01*
X154335Y621296D01*
X154352Y621221D01*
X154372Y621147D01*
X154397Y621074D01*
X154424Y621003D01*
X154455Y620932D01*
X154490Y620864D01*
X154528Y620797D01*
X154569Y620732D01*
X154613Y620669D01*
X154660Y620609D01*
X154711Y620550D01*
X154764Y620495D01*
X154819Y620442D01*
X154878Y620391D01*
X154938Y620344D01*
X155001Y620300D01*
X155066Y620259D01*
X155133Y620221D01*
X155201Y620186D01*
X155272Y620155D01*
X155343Y620128D01*
X155416Y620103D01*
X155490Y620083D01*
X155565Y620066D01*
X155641Y620053D01*
X155718Y620044D01*
X155794Y620038D01*
X155871Y620036D01*
X155871Y620035D02*
X158482Y620035D01*
X158482Y620036D02*
X158572Y620038D01*
X158661Y620044D01*
X158751Y620053D01*
X158840Y620067D01*
X158928Y620084D01*
X159015Y620105D01*
X159102Y620130D01*
X159187Y620159D01*
X159271Y620191D01*
X159353Y620226D01*
X159434Y620266D01*
X159513Y620308D01*
X159590Y620354D01*
X159665Y620404D01*
X159738Y620456D01*
X159809Y620512D01*
X159877Y620570D01*
X159942Y620632D01*
X160005Y620696D01*
X160065Y620763D01*
X160122Y620832D01*
X160176Y620904D01*
X160227Y620978D01*
X160275Y621054D01*
X160319Y621132D01*
X160360Y621212D01*
X160398Y621294D01*
X160432Y621377D01*
X160462Y621462D01*
X160489Y621548D01*
X160512Y621634D01*
X160531Y621722D01*
X160546Y621811D01*
X160558Y621900D01*
X160566Y621989D01*
X160570Y622079D01*
X160570Y622169D01*
X160566Y622259D01*
X160558Y622348D01*
X160546Y622437D01*
X160531Y622526D01*
X160512Y622614D01*
X160489Y622700D01*
X160462Y622786D01*
X160432Y622871D01*
X160398Y622954D01*
X160360Y623036D01*
X160319Y623116D01*
X160275Y623194D01*
X160227Y623270D01*
X160176Y623344D01*
X160122Y623416D01*
X160065Y623485D01*
X160005Y623552D01*
X159942Y623616D01*
X159877Y623678D01*
X159809Y623736D01*
X159738Y623792D01*
X159665Y623844D01*
X159590Y623894D01*
X159513Y623940D01*
X159434Y623982D01*
X159353Y624022D01*
X159271Y624057D01*
X159187Y624089D01*
X159102Y624118D01*
X159015Y624143D01*
X158928Y624164D01*
X158840Y624181D01*
X158751Y624195D01*
X158661Y624204D01*
X158572Y624210D01*
X158482Y624212D01*
X157438Y624212D01*
X157438Y620035D01*
X154305Y628316D02*
X160570Y628316D01*
X160570Y631449D01*
X159526Y631449D01*
X157960Y635144D02*
X156916Y637755D01*
X157960Y635144D02*
X157988Y635078D01*
X158021Y635013D01*
X158056Y634950D01*
X158095Y634889D01*
X158137Y634830D01*
X158182Y634774D01*
X158230Y634720D01*
X158281Y634669D01*
X158334Y634620D01*
X158391Y634575D01*
X158449Y634532D01*
X158509Y634493D01*
X158572Y634456D01*
X158637Y634424D01*
X158703Y634395D01*
X158770Y634369D01*
X158839Y634347D01*
X158909Y634329D01*
X158980Y634314D01*
X159051Y634303D01*
X159123Y634296D01*
X159195Y634293D01*
X159267Y634294D01*
X159340Y634299D01*
X159411Y634307D01*
X159483Y634319D01*
X159553Y634335D01*
X159622Y634355D01*
X159691Y634379D01*
X159758Y634406D01*
X159823Y634436D01*
X159887Y634470D01*
X159949Y634508D01*
X160009Y634548D01*
X160066Y634592D01*
X160121Y634639D01*
X160174Y634689D01*
X160223Y634741D01*
X160270Y634796D01*
X160314Y634853D01*
X160355Y634913D01*
X160392Y634975D01*
X160427Y635039D01*
X160457Y635104D01*
X160485Y635171D01*
X160508Y635239D01*
X160528Y635309D01*
X160544Y635379D01*
X160557Y635450D01*
X160565Y635522D01*
X160570Y635594D01*
X160571Y635666D01*
X160570Y635667D02*
X160566Y635818D01*
X160558Y635969D01*
X160547Y636120D01*
X160531Y636271D01*
X160511Y636421D01*
X160488Y636571D01*
X160461Y636720D01*
X160430Y636868D01*
X160395Y637016D01*
X160357Y637162D01*
X160314Y637308D01*
X160268Y637452D01*
X160219Y637595D01*
X160166Y637737D01*
X160109Y637877D01*
X160048Y638016D01*
X156916Y637755D02*
X156888Y637821D01*
X156855Y637886D01*
X156820Y637949D01*
X156781Y638010D01*
X156739Y638069D01*
X156694Y638125D01*
X156646Y638179D01*
X156595Y638230D01*
X156542Y638279D01*
X156485Y638324D01*
X156427Y638367D01*
X156367Y638406D01*
X156304Y638443D01*
X156239Y638475D01*
X156173Y638504D01*
X156106Y638530D01*
X156037Y638552D01*
X155967Y638570D01*
X155896Y638585D01*
X155825Y638596D01*
X155753Y638603D01*
X155681Y638606D01*
X155609Y638605D01*
X155536Y638600D01*
X155465Y638592D01*
X155393Y638580D01*
X155323Y638564D01*
X155254Y638544D01*
X155185Y638520D01*
X155118Y638493D01*
X155053Y638463D01*
X154989Y638429D01*
X154927Y638391D01*
X154867Y638351D01*
X154810Y638307D01*
X154755Y638260D01*
X154702Y638210D01*
X154653Y638158D01*
X154606Y638103D01*
X154562Y638046D01*
X154521Y637986D01*
X154484Y637924D01*
X154449Y637860D01*
X154419Y637795D01*
X154391Y637728D01*
X154368Y637660D01*
X154348Y637590D01*
X154332Y637520D01*
X154319Y637449D01*
X154311Y637377D01*
X154306Y637305D01*
X154305Y637233D01*
X154310Y637023D01*
X154321Y636814D01*
X154336Y636605D01*
X154356Y636397D01*
X154382Y636189D01*
X154412Y635982D01*
X154447Y635775D01*
X154487Y635570D01*
X154531Y635365D01*
X154581Y635162D01*
X154635Y634959D01*
X154695Y634758D01*
X154758Y634559D01*
X154827Y634361D01*
X160570Y646394D02*
X160570Y649526D01*
X163703Y647438D02*
X155871Y647438D01*
X155794Y647440D01*
X155718Y647446D01*
X155641Y647455D01*
X155565Y647468D01*
X155490Y647485D01*
X155416Y647505D01*
X155343Y647530D01*
X155272Y647557D01*
X155201Y647588D01*
X155133Y647623D01*
X155066Y647661D01*
X155001Y647702D01*
X154938Y647746D01*
X154878Y647793D01*
X154819Y647844D01*
X154764Y647897D01*
X154711Y647952D01*
X154660Y648011D01*
X154613Y648071D01*
X154569Y648134D01*
X154528Y648199D01*
X154490Y648266D01*
X154455Y648334D01*
X154424Y648405D01*
X154397Y648476D01*
X154372Y648549D01*
X154352Y648623D01*
X154335Y648698D01*
X154322Y648774D01*
X154313Y648851D01*
X154307Y648927D01*
X154305Y649004D01*
X154305Y649526D01*
X154305Y653258D02*
X163703Y653258D01*
X160570Y653258D02*
X160570Y655869D01*
X160568Y655946D01*
X160562Y656022D01*
X160553Y656099D01*
X160540Y656175D01*
X160523Y656250D01*
X160503Y656324D01*
X160478Y656397D01*
X160451Y656468D01*
X160420Y656539D01*
X160385Y656607D01*
X160347Y656674D01*
X160306Y656739D01*
X160262Y656802D01*
X160215Y656862D01*
X160164Y656921D01*
X160111Y656976D01*
X160056Y657029D01*
X159997Y657080D01*
X159937Y657127D01*
X159874Y657171D01*
X159809Y657212D01*
X159742Y657250D01*
X159674Y657285D01*
X159603Y657316D01*
X159532Y657343D01*
X159459Y657368D01*
X159385Y657388D01*
X159310Y657405D01*
X159234Y657418D01*
X159157Y657427D01*
X159081Y657433D01*
X159004Y657435D01*
X154305Y657435D01*
X154305Y661443D02*
X160570Y661443D01*
X163181Y661182D02*
X163703Y661182D01*
X163703Y661704D01*
X163181Y661704D01*
X163181Y661182D01*
X157960Y665929D02*
X156916Y668539D01*
X157960Y665929D02*
X157988Y665863D01*
X158021Y665798D01*
X158056Y665735D01*
X158095Y665674D01*
X158137Y665615D01*
X158182Y665559D01*
X158230Y665505D01*
X158281Y665454D01*
X158334Y665405D01*
X158391Y665360D01*
X158449Y665317D01*
X158509Y665278D01*
X158572Y665241D01*
X158637Y665209D01*
X158703Y665180D01*
X158770Y665154D01*
X158839Y665132D01*
X158909Y665114D01*
X158980Y665099D01*
X159051Y665088D01*
X159123Y665081D01*
X159195Y665078D01*
X159267Y665079D01*
X159340Y665084D01*
X159411Y665092D01*
X159483Y665104D01*
X159553Y665120D01*
X159622Y665140D01*
X159691Y665164D01*
X159758Y665191D01*
X159823Y665221D01*
X159887Y665255D01*
X159949Y665293D01*
X160009Y665333D01*
X160066Y665377D01*
X160121Y665424D01*
X160174Y665474D01*
X160223Y665526D01*
X160270Y665581D01*
X160314Y665638D01*
X160355Y665698D01*
X160392Y665760D01*
X160427Y665824D01*
X160457Y665889D01*
X160485Y665956D01*
X160508Y666024D01*
X160528Y666094D01*
X160544Y666164D01*
X160557Y666235D01*
X160565Y666307D01*
X160570Y666379D01*
X160571Y666451D01*
X160570Y666451D02*
X160566Y666602D01*
X160558Y666753D01*
X160547Y666904D01*
X160531Y667055D01*
X160511Y667205D01*
X160488Y667355D01*
X160461Y667504D01*
X160430Y667652D01*
X160395Y667800D01*
X160357Y667946D01*
X160314Y668092D01*
X160268Y668236D01*
X160219Y668379D01*
X160166Y668521D01*
X160109Y668661D01*
X160048Y668800D01*
X156916Y668540D02*
X156888Y668606D01*
X156855Y668671D01*
X156820Y668734D01*
X156781Y668795D01*
X156739Y668854D01*
X156694Y668910D01*
X156646Y668964D01*
X156595Y669015D01*
X156542Y669064D01*
X156485Y669109D01*
X156427Y669152D01*
X156367Y669191D01*
X156304Y669228D01*
X156239Y669260D01*
X156173Y669289D01*
X156106Y669315D01*
X156037Y669337D01*
X155967Y669355D01*
X155896Y669370D01*
X155825Y669381D01*
X155753Y669388D01*
X155681Y669391D01*
X155609Y669390D01*
X155536Y669385D01*
X155465Y669377D01*
X155393Y669365D01*
X155323Y669349D01*
X155254Y669329D01*
X155185Y669305D01*
X155118Y669278D01*
X155053Y669248D01*
X154989Y669214D01*
X154927Y669176D01*
X154867Y669136D01*
X154810Y669092D01*
X154755Y669045D01*
X154702Y668995D01*
X154653Y668943D01*
X154606Y668888D01*
X154562Y668831D01*
X154521Y668771D01*
X154484Y668709D01*
X154449Y668645D01*
X154419Y668580D01*
X154391Y668513D01*
X154368Y668445D01*
X154348Y668375D01*
X154332Y668305D01*
X154319Y668234D01*
X154311Y668162D01*
X154306Y668090D01*
X154305Y668018D01*
X154310Y667808D01*
X154321Y667599D01*
X154336Y667390D01*
X154356Y667182D01*
X154382Y666974D01*
X154412Y666767D01*
X154447Y666560D01*
X154487Y666355D01*
X154531Y666150D01*
X154581Y665947D01*
X154635Y665744D01*
X154695Y665543D01*
X154758Y665344D01*
X154827Y665146D01*
X157960Y678730D02*
X156916Y681341D01*
X157960Y678730D02*
X157988Y678664D01*
X158021Y678599D01*
X158056Y678536D01*
X158095Y678475D01*
X158137Y678416D01*
X158182Y678360D01*
X158230Y678306D01*
X158281Y678255D01*
X158334Y678206D01*
X158391Y678161D01*
X158449Y678118D01*
X158509Y678079D01*
X158572Y678042D01*
X158637Y678010D01*
X158703Y677981D01*
X158770Y677955D01*
X158839Y677933D01*
X158909Y677915D01*
X158980Y677900D01*
X159051Y677889D01*
X159123Y677882D01*
X159195Y677879D01*
X159267Y677880D01*
X159340Y677885D01*
X159411Y677893D01*
X159483Y677905D01*
X159553Y677921D01*
X159622Y677941D01*
X159691Y677965D01*
X159758Y677992D01*
X159823Y678022D01*
X159887Y678056D01*
X159949Y678094D01*
X160009Y678134D01*
X160066Y678178D01*
X160121Y678225D01*
X160174Y678275D01*
X160223Y678327D01*
X160270Y678382D01*
X160314Y678439D01*
X160355Y678499D01*
X160392Y678561D01*
X160427Y678625D01*
X160457Y678690D01*
X160485Y678757D01*
X160508Y678825D01*
X160528Y678895D01*
X160544Y678965D01*
X160557Y679036D01*
X160565Y679108D01*
X160570Y679180D01*
X160571Y679252D01*
X160570Y679253D02*
X160566Y679404D01*
X160558Y679555D01*
X160547Y679706D01*
X160531Y679857D01*
X160511Y680007D01*
X160488Y680157D01*
X160461Y680306D01*
X160430Y680454D01*
X160395Y680602D01*
X160357Y680748D01*
X160314Y680894D01*
X160268Y681038D01*
X160219Y681181D01*
X160166Y681323D01*
X160109Y681463D01*
X160048Y681602D01*
X156916Y681341D02*
X156888Y681407D01*
X156855Y681472D01*
X156820Y681535D01*
X156781Y681596D01*
X156739Y681655D01*
X156694Y681711D01*
X156646Y681765D01*
X156595Y681816D01*
X156542Y681865D01*
X156485Y681910D01*
X156427Y681953D01*
X156367Y681992D01*
X156304Y682029D01*
X156239Y682061D01*
X156173Y682090D01*
X156106Y682116D01*
X156037Y682138D01*
X155967Y682156D01*
X155896Y682171D01*
X155825Y682182D01*
X155753Y682189D01*
X155681Y682192D01*
X155609Y682191D01*
X155536Y682186D01*
X155465Y682178D01*
X155393Y682166D01*
X155323Y682150D01*
X155254Y682130D01*
X155185Y682106D01*
X155118Y682079D01*
X155053Y682049D01*
X154989Y682015D01*
X154927Y681977D01*
X154867Y681937D01*
X154810Y681893D01*
X154755Y681846D01*
X154702Y681796D01*
X154653Y681744D01*
X154606Y681689D01*
X154562Y681632D01*
X154521Y681572D01*
X154484Y681510D01*
X154449Y681446D01*
X154419Y681381D01*
X154391Y681314D01*
X154368Y681246D01*
X154348Y681176D01*
X154332Y681106D01*
X154319Y681035D01*
X154311Y680963D01*
X154306Y680891D01*
X154305Y680819D01*
X154310Y680609D01*
X154321Y680400D01*
X154336Y680191D01*
X154356Y679983D01*
X154382Y679775D01*
X154412Y679568D01*
X154447Y679361D01*
X154487Y679156D01*
X154531Y678951D01*
X154581Y678748D01*
X154635Y678545D01*
X154695Y678344D01*
X154758Y678145D01*
X154827Y677947D01*
X154305Y685827D02*
X160570Y685827D01*
X163181Y685566D02*
X163703Y685566D01*
X163703Y686088D01*
X163181Y686088D01*
X163181Y685566D01*
X163703Y693661D02*
X154305Y693661D01*
X154305Y691050D01*
X154307Y690973D01*
X154313Y690897D01*
X154322Y690820D01*
X154335Y690744D01*
X154352Y690669D01*
X154372Y690595D01*
X154397Y690522D01*
X154424Y690451D01*
X154455Y690380D01*
X154490Y690312D01*
X154528Y690245D01*
X154569Y690180D01*
X154613Y690117D01*
X154660Y690057D01*
X154711Y689998D01*
X154764Y689943D01*
X154819Y689890D01*
X154878Y689839D01*
X154938Y689792D01*
X155001Y689748D01*
X155066Y689707D01*
X155133Y689669D01*
X155201Y689634D01*
X155272Y689603D01*
X155343Y689576D01*
X155416Y689551D01*
X155490Y689531D01*
X155565Y689514D01*
X155641Y689501D01*
X155718Y689492D01*
X155794Y689486D01*
X155871Y689484D01*
X159004Y689484D01*
X159081Y689486D01*
X159157Y689492D01*
X159234Y689501D01*
X159310Y689514D01*
X159385Y689531D01*
X159459Y689551D01*
X159532Y689576D01*
X159603Y689603D01*
X159674Y689634D01*
X159742Y689669D01*
X159809Y689707D01*
X159874Y689748D01*
X159937Y689792D01*
X159997Y689839D01*
X160056Y689890D01*
X160111Y689943D01*
X160164Y689998D01*
X160215Y690057D01*
X160262Y690117D01*
X160306Y690180D01*
X160347Y690245D01*
X160385Y690312D01*
X160420Y690380D01*
X160451Y690451D01*
X160478Y690522D01*
X160503Y690595D01*
X160523Y690669D01*
X160540Y690744D01*
X160553Y690820D01*
X160562Y690897D01*
X160568Y690973D01*
X160570Y691050D01*
X160570Y693661D01*
X154305Y699325D02*
X154305Y701936D01*
X154305Y699325D02*
X154307Y699248D01*
X154313Y699172D01*
X154322Y699095D01*
X154335Y699019D01*
X154352Y698944D01*
X154372Y698870D01*
X154397Y698797D01*
X154424Y698726D01*
X154455Y698655D01*
X154490Y698587D01*
X154528Y698520D01*
X154569Y698455D01*
X154613Y698392D01*
X154660Y698332D01*
X154711Y698273D01*
X154764Y698218D01*
X154819Y698165D01*
X154878Y698114D01*
X154938Y698067D01*
X155001Y698023D01*
X155066Y697982D01*
X155133Y697944D01*
X155201Y697909D01*
X155272Y697878D01*
X155343Y697851D01*
X155416Y697826D01*
X155490Y697806D01*
X155565Y697789D01*
X155641Y697776D01*
X155718Y697767D01*
X155794Y697761D01*
X155871Y697759D01*
X158482Y697759D01*
X158572Y697761D01*
X158661Y697767D01*
X158751Y697776D01*
X158840Y697790D01*
X158928Y697807D01*
X159015Y697828D01*
X159102Y697853D01*
X159187Y697882D01*
X159271Y697914D01*
X159353Y697949D01*
X159434Y697989D01*
X159513Y698031D01*
X159590Y698077D01*
X159665Y698127D01*
X159738Y698179D01*
X159809Y698235D01*
X159877Y698293D01*
X159942Y698355D01*
X160005Y698419D01*
X160065Y698486D01*
X160122Y698555D01*
X160176Y698627D01*
X160227Y698701D01*
X160275Y698777D01*
X160319Y698855D01*
X160360Y698935D01*
X160398Y699017D01*
X160432Y699100D01*
X160462Y699185D01*
X160489Y699271D01*
X160512Y699357D01*
X160531Y699445D01*
X160546Y699534D01*
X160558Y699623D01*
X160566Y699712D01*
X160570Y699802D01*
X160570Y699892D01*
X160566Y699982D01*
X160558Y700071D01*
X160546Y700160D01*
X160531Y700249D01*
X160512Y700337D01*
X160489Y700423D01*
X160462Y700509D01*
X160432Y700594D01*
X160398Y700677D01*
X160360Y700759D01*
X160319Y700839D01*
X160275Y700917D01*
X160227Y700993D01*
X160176Y701067D01*
X160122Y701139D01*
X160065Y701208D01*
X160005Y701275D01*
X159942Y701339D01*
X159877Y701401D01*
X159809Y701459D01*
X159738Y701515D01*
X159665Y701567D01*
X159590Y701617D01*
X159513Y701663D01*
X159434Y701705D01*
X159353Y701745D01*
X159271Y701780D01*
X159187Y701812D01*
X159102Y701841D01*
X159015Y701866D01*
X158928Y701887D01*
X158840Y701904D01*
X158751Y701918D01*
X158661Y701927D01*
X158572Y701933D01*
X158482Y701935D01*
X158482Y701936D02*
X157438Y701936D01*
X157438Y697759D01*
X154305Y705344D02*
X154305Y705866D01*
X154305Y705344D02*
X154827Y705344D01*
X154827Y705866D01*
X154305Y705866D01*
X152217Y705083D01*
X146897Y580716D02*
X139065Y580716D01*
X146897Y580717D02*
X146974Y580719D01*
X147050Y580725D01*
X147127Y580734D01*
X147203Y580747D01*
X147278Y580764D01*
X147352Y580784D01*
X147425Y580809D01*
X147496Y580836D01*
X147567Y580867D01*
X147635Y580902D01*
X147702Y580940D01*
X147767Y580981D01*
X147830Y581025D01*
X147890Y581072D01*
X147949Y581123D01*
X148004Y581176D01*
X148057Y581231D01*
X148108Y581290D01*
X148155Y581350D01*
X148199Y581413D01*
X148240Y581478D01*
X148278Y581545D01*
X148313Y581613D01*
X148344Y581684D01*
X148371Y581755D01*
X148396Y581828D01*
X148416Y581902D01*
X148433Y581977D01*
X148446Y582053D01*
X148455Y582129D01*
X148461Y582206D01*
X148463Y582283D01*
X148463Y582805D01*
X145330Y582805D02*
X145330Y579672D01*
X142720Y587175D02*
X142720Y589525D01*
X142719Y587175D02*
X142717Y587091D01*
X142711Y587006D01*
X142701Y586923D01*
X142688Y586839D01*
X142670Y586757D01*
X142649Y586675D01*
X142624Y586594D01*
X142596Y586515D01*
X142563Y586437D01*
X142527Y586361D01*
X142488Y586286D01*
X142445Y586213D01*
X142399Y586142D01*
X142350Y586074D01*
X142298Y586008D01*
X142242Y585944D01*
X142184Y585883D01*
X142123Y585825D01*
X142059Y585769D01*
X141993Y585717D01*
X141925Y585668D01*
X141854Y585622D01*
X141781Y585579D01*
X141706Y585540D01*
X141630Y585504D01*
X141552Y585471D01*
X141473Y585443D01*
X141392Y585418D01*
X141310Y585397D01*
X141228Y585379D01*
X141144Y585366D01*
X141061Y585356D01*
X140976Y585350D01*
X140892Y585348D01*
X140808Y585350D01*
X140723Y585356D01*
X140640Y585366D01*
X140556Y585379D01*
X140474Y585397D01*
X140392Y585418D01*
X140311Y585443D01*
X140232Y585471D01*
X140154Y585504D01*
X140078Y585540D01*
X140003Y585579D01*
X139930Y585622D01*
X139859Y585668D01*
X139791Y585717D01*
X139725Y585769D01*
X139661Y585825D01*
X139600Y585883D01*
X139542Y585944D01*
X139486Y586008D01*
X139434Y586074D01*
X139385Y586142D01*
X139339Y586213D01*
X139296Y586286D01*
X139257Y586361D01*
X139221Y586437D01*
X139188Y586515D01*
X139160Y586594D01*
X139135Y586675D01*
X139114Y586757D01*
X139096Y586839D01*
X139083Y586923D01*
X139073Y587006D01*
X139067Y587091D01*
X139065Y587175D01*
X139065Y589525D01*
X143764Y589525D01*
X143764Y589524D02*
X143841Y589522D01*
X143917Y589516D01*
X143994Y589507D01*
X144070Y589494D01*
X144145Y589477D01*
X144219Y589457D01*
X144292Y589432D01*
X144363Y589405D01*
X144434Y589374D01*
X144502Y589339D01*
X144569Y589301D01*
X144634Y589260D01*
X144697Y589216D01*
X144757Y589169D01*
X144816Y589118D01*
X144871Y589065D01*
X144924Y589010D01*
X144975Y588951D01*
X145022Y588891D01*
X145066Y588828D01*
X145107Y588763D01*
X145145Y588696D01*
X145180Y588628D01*
X145211Y588557D01*
X145238Y588486D01*
X145263Y588413D01*
X145283Y588339D01*
X145300Y588264D01*
X145313Y588188D01*
X145322Y588111D01*
X145328Y588035D01*
X145330Y587958D01*
X145330Y585870D01*
X139065Y595199D02*
X139065Y597288D01*
X139065Y595199D02*
X139067Y595122D01*
X139073Y595046D01*
X139082Y594969D01*
X139095Y594893D01*
X139112Y594818D01*
X139132Y594744D01*
X139157Y594671D01*
X139184Y594600D01*
X139215Y594529D01*
X139250Y594461D01*
X139288Y594394D01*
X139329Y594329D01*
X139373Y594266D01*
X139420Y594206D01*
X139471Y594147D01*
X139524Y594092D01*
X139579Y594039D01*
X139638Y593988D01*
X139698Y593941D01*
X139761Y593897D01*
X139826Y593856D01*
X139893Y593818D01*
X139961Y593783D01*
X140032Y593752D01*
X140103Y593725D01*
X140176Y593700D01*
X140250Y593680D01*
X140325Y593663D01*
X140401Y593650D01*
X140478Y593641D01*
X140554Y593635D01*
X140631Y593633D01*
X143764Y593633D01*
X143841Y593635D01*
X143917Y593641D01*
X143994Y593650D01*
X144070Y593663D01*
X144145Y593680D01*
X144219Y593700D01*
X144292Y593725D01*
X144363Y593752D01*
X144434Y593783D01*
X144502Y593818D01*
X144569Y593856D01*
X144634Y593897D01*
X144697Y593941D01*
X144757Y593988D01*
X144816Y594039D01*
X144871Y594092D01*
X144924Y594147D01*
X144975Y594206D01*
X145022Y594266D01*
X145066Y594329D01*
X145107Y594394D01*
X145145Y594461D01*
X145180Y594529D01*
X145211Y594600D01*
X145238Y594671D01*
X145263Y594744D01*
X145283Y594818D01*
X145300Y594893D01*
X145313Y594969D01*
X145322Y595046D01*
X145328Y595122D01*
X145330Y595199D01*
X145330Y597288D01*
X145330Y600588D02*
X139065Y600588D01*
X147941Y600327D02*
X148463Y600327D01*
X148463Y600849D01*
X147941Y600849D01*
X147941Y600327D01*
X145330Y604596D02*
X139065Y604596D01*
X145330Y604596D02*
X145330Y607206D01*
X145328Y607283D01*
X145322Y607359D01*
X145313Y607436D01*
X145300Y607512D01*
X145283Y607587D01*
X145263Y607661D01*
X145238Y607734D01*
X145211Y607805D01*
X145180Y607876D01*
X145145Y607944D01*
X145107Y608011D01*
X145066Y608076D01*
X145022Y608139D01*
X144975Y608199D01*
X144924Y608258D01*
X144871Y608313D01*
X144816Y608366D01*
X144757Y608417D01*
X144697Y608464D01*
X144634Y608508D01*
X144569Y608549D01*
X144502Y608587D01*
X144434Y608622D01*
X144363Y608653D01*
X144292Y608680D01*
X144219Y608705D01*
X144145Y608725D01*
X144070Y608742D01*
X143994Y608755D01*
X143917Y608764D01*
X143841Y608770D01*
X143764Y608772D01*
X143764Y608773D02*
X139065Y608773D01*
X139065Y614346D02*
X139065Y616956D01*
X139065Y614346D02*
X139067Y614269D01*
X139073Y614193D01*
X139082Y614116D01*
X139095Y614040D01*
X139112Y613965D01*
X139132Y613891D01*
X139157Y613818D01*
X139184Y613747D01*
X139215Y613676D01*
X139250Y613608D01*
X139288Y613541D01*
X139329Y613476D01*
X139373Y613413D01*
X139420Y613353D01*
X139471Y613294D01*
X139524Y613239D01*
X139579Y613186D01*
X139638Y613135D01*
X139698Y613088D01*
X139761Y613044D01*
X139826Y613003D01*
X139893Y612965D01*
X139961Y612930D01*
X140032Y612899D01*
X140103Y612872D01*
X140176Y612847D01*
X140250Y612827D01*
X140325Y612810D01*
X140401Y612797D01*
X140478Y612788D01*
X140554Y612782D01*
X140631Y612780D01*
X143764Y612780D01*
X143841Y612782D01*
X143917Y612788D01*
X143994Y612797D01*
X144070Y612810D01*
X144145Y612827D01*
X144219Y612847D01*
X144292Y612872D01*
X144363Y612899D01*
X144434Y612930D01*
X144502Y612965D01*
X144569Y613003D01*
X144634Y613044D01*
X144697Y613088D01*
X144757Y613135D01*
X144816Y613186D01*
X144871Y613239D01*
X144924Y613294D01*
X144975Y613353D01*
X145022Y613413D01*
X145066Y613476D01*
X145107Y613541D01*
X145145Y613608D01*
X145180Y613676D01*
X145211Y613747D01*
X145238Y613818D01*
X145263Y613891D01*
X145283Y613965D01*
X145300Y614040D01*
X145313Y614116D01*
X145322Y614193D01*
X145328Y614269D01*
X145330Y614346D01*
X145330Y616956D01*
X137499Y616956D01*
X137422Y616954D01*
X137346Y616948D01*
X137269Y616939D01*
X137193Y616926D01*
X137118Y616909D01*
X137044Y616889D01*
X136971Y616864D01*
X136900Y616837D01*
X136829Y616806D01*
X136761Y616771D01*
X136694Y616733D01*
X136629Y616692D01*
X136566Y616648D01*
X136506Y616601D01*
X136447Y616550D01*
X136392Y616497D01*
X136339Y616442D01*
X136288Y616383D01*
X136241Y616323D01*
X136197Y616260D01*
X136156Y616195D01*
X136118Y616128D01*
X136083Y616060D01*
X136052Y615989D01*
X136025Y615918D01*
X136000Y615845D01*
X135980Y615771D01*
X135963Y615696D01*
X135950Y615620D01*
X135941Y615544D01*
X135935Y615467D01*
X135933Y615390D01*
X135932Y615390D02*
X135932Y613302D01*
X139065Y626282D02*
X148463Y626282D01*
X139065Y626282D02*
X139065Y628892D01*
X139067Y628969D01*
X139073Y629045D01*
X139082Y629122D01*
X139095Y629198D01*
X139112Y629273D01*
X139132Y629347D01*
X139157Y629420D01*
X139184Y629491D01*
X139215Y629562D01*
X139250Y629630D01*
X139288Y629697D01*
X139329Y629762D01*
X139373Y629825D01*
X139420Y629885D01*
X139471Y629944D01*
X139524Y629999D01*
X139579Y630052D01*
X139638Y630103D01*
X139698Y630150D01*
X139761Y630194D01*
X139826Y630235D01*
X139893Y630273D01*
X139961Y630308D01*
X140032Y630339D01*
X140103Y630366D01*
X140176Y630391D01*
X140250Y630411D01*
X140325Y630428D01*
X140401Y630441D01*
X140477Y630450D01*
X140554Y630456D01*
X140631Y630458D01*
X140631Y630459D02*
X143764Y630459D01*
X143764Y630458D02*
X143841Y630456D01*
X143917Y630450D01*
X143994Y630441D01*
X144070Y630428D01*
X144145Y630411D01*
X144219Y630391D01*
X144292Y630366D01*
X144363Y630339D01*
X144434Y630308D01*
X144502Y630273D01*
X144569Y630235D01*
X144634Y630194D01*
X144697Y630150D01*
X144757Y630103D01*
X144816Y630052D01*
X144871Y629999D01*
X144924Y629944D01*
X144975Y629885D01*
X145022Y629825D01*
X145066Y629762D01*
X145107Y629697D01*
X145145Y629630D01*
X145180Y629562D01*
X145211Y629491D01*
X145238Y629420D01*
X145263Y629347D01*
X145283Y629273D01*
X145300Y629198D01*
X145313Y629122D01*
X145322Y629045D01*
X145328Y628969D01*
X145330Y628892D01*
X145330Y626282D01*
X142720Y635943D02*
X142720Y638292D01*
X142719Y635943D02*
X142717Y635859D01*
X142711Y635774D01*
X142701Y635691D01*
X142688Y635607D01*
X142670Y635525D01*
X142649Y635443D01*
X142624Y635362D01*
X142596Y635283D01*
X142563Y635205D01*
X142527Y635129D01*
X142488Y635054D01*
X142445Y634981D01*
X142399Y634910D01*
X142350Y634842D01*
X142298Y634776D01*
X142242Y634712D01*
X142184Y634651D01*
X142123Y634593D01*
X142059Y634537D01*
X141993Y634485D01*
X141925Y634436D01*
X141854Y634390D01*
X141781Y634347D01*
X141706Y634308D01*
X141630Y634272D01*
X141552Y634239D01*
X141473Y634211D01*
X141392Y634186D01*
X141310Y634165D01*
X141228Y634147D01*
X141144Y634134D01*
X141061Y634124D01*
X140976Y634118D01*
X140892Y634116D01*
X140808Y634118D01*
X140723Y634124D01*
X140640Y634134D01*
X140556Y634147D01*
X140474Y634165D01*
X140392Y634186D01*
X140311Y634211D01*
X140232Y634239D01*
X140154Y634272D01*
X140078Y634308D01*
X140003Y634347D01*
X139930Y634390D01*
X139859Y634436D01*
X139791Y634485D01*
X139725Y634537D01*
X139661Y634593D01*
X139600Y634651D01*
X139542Y634712D01*
X139486Y634776D01*
X139434Y634842D01*
X139385Y634910D01*
X139339Y634981D01*
X139296Y635054D01*
X139257Y635129D01*
X139221Y635205D01*
X139188Y635283D01*
X139160Y635362D01*
X139135Y635443D01*
X139114Y635525D01*
X139096Y635607D01*
X139083Y635691D01*
X139073Y635774D01*
X139067Y635859D01*
X139065Y635943D01*
X139065Y638292D01*
X143764Y638292D01*
X143841Y638290D01*
X143917Y638284D01*
X143994Y638275D01*
X144070Y638262D01*
X144145Y638245D01*
X144219Y638225D01*
X144292Y638200D01*
X144363Y638173D01*
X144434Y638142D01*
X144502Y638107D01*
X144569Y638069D01*
X144634Y638028D01*
X144697Y637984D01*
X144757Y637937D01*
X144816Y637886D01*
X144871Y637833D01*
X144924Y637778D01*
X144975Y637719D01*
X145022Y637659D01*
X145066Y637596D01*
X145107Y637531D01*
X145145Y637464D01*
X145180Y637396D01*
X145211Y637325D01*
X145238Y637254D01*
X145263Y637181D01*
X145283Y637107D01*
X145300Y637032D01*
X145313Y636956D01*
X145322Y636879D01*
X145328Y636803D01*
X145330Y636726D01*
X145330Y634637D01*
X139065Y643967D02*
X139065Y646056D01*
X139065Y643967D02*
X139067Y643890D01*
X139073Y643814D01*
X139082Y643737D01*
X139095Y643661D01*
X139112Y643586D01*
X139132Y643512D01*
X139157Y643439D01*
X139184Y643368D01*
X139215Y643297D01*
X139250Y643229D01*
X139288Y643162D01*
X139329Y643097D01*
X139373Y643034D01*
X139420Y642974D01*
X139471Y642915D01*
X139524Y642860D01*
X139579Y642807D01*
X139638Y642756D01*
X139698Y642709D01*
X139761Y642665D01*
X139826Y642624D01*
X139893Y642586D01*
X139961Y642551D01*
X140032Y642520D01*
X140103Y642493D01*
X140176Y642468D01*
X140250Y642448D01*
X140325Y642431D01*
X140401Y642418D01*
X140478Y642409D01*
X140554Y642403D01*
X140631Y642401D01*
X143764Y642401D01*
X143841Y642403D01*
X143917Y642409D01*
X143994Y642418D01*
X144070Y642431D01*
X144145Y642448D01*
X144219Y642468D01*
X144292Y642493D01*
X144363Y642520D01*
X144434Y642551D01*
X144502Y642586D01*
X144569Y642624D01*
X144634Y642665D01*
X144697Y642709D01*
X144757Y642756D01*
X144816Y642807D01*
X144871Y642860D01*
X144924Y642915D01*
X144975Y642974D01*
X145022Y643034D01*
X145066Y643097D01*
X145107Y643162D01*
X145145Y643229D01*
X145180Y643297D01*
X145211Y643368D01*
X145238Y643439D01*
X145263Y643512D01*
X145283Y643586D01*
X145300Y643661D01*
X145313Y643737D01*
X145322Y643814D01*
X145328Y643890D01*
X145330Y643967D01*
X145330Y646056D01*
X148463Y649811D02*
X139065Y649811D01*
X142198Y649811D02*
X145330Y653988D01*
X143503Y651638D02*
X139065Y653988D01*
D11*
X-246906Y671576D02*
X-246906Y544576D01*
X-280906Y544576D01*
X-280906Y671576D01*
X-246906Y671576D01*
X-3320Y677164D02*
X-3320Y550164D01*
X-37320Y550164D01*
X-37320Y677164D01*
X-3320Y677164D01*
D12*
X-585470Y501396D02*
X-633730Y501396D01*
X-585470Y501396D02*
X-585312Y501398D01*
X-585153Y501404D01*
X-584995Y501414D01*
X-584838Y501428D01*
X-584680Y501445D01*
X-584524Y501467D01*
X-584367Y501492D01*
X-584212Y501522D01*
X-584057Y501555D01*
X-583903Y501592D01*
X-583750Y501633D01*
X-583598Y501678D01*
X-583448Y501727D01*
X-583298Y501779D01*
X-583150Y501835D01*
X-583003Y501895D01*
X-582858Y501958D01*
X-582715Y502025D01*
X-582573Y502095D01*
X-582433Y502169D01*
X-582295Y502247D01*
X-582159Y502328D01*
X-582025Y502412D01*
X-581893Y502499D01*
X-581763Y502590D01*
X-581636Y502684D01*
X-581511Y502781D01*
X-581388Y502882D01*
X-581268Y502985D01*
X-581151Y503091D01*
X-581036Y503200D01*
X-580924Y503312D01*
X-580815Y503427D01*
X-580709Y503544D01*
X-580606Y503664D01*
X-580505Y503787D01*
X-580408Y503912D01*
X-580314Y504039D01*
X-580223Y504169D01*
X-580136Y504301D01*
X-580052Y504435D01*
X-579971Y504571D01*
X-579893Y504709D01*
X-579819Y504849D01*
X-579749Y504991D01*
X-579682Y505134D01*
X-579619Y505279D01*
X-579559Y505426D01*
X-579503Y505574D01*
X-579451Y505724D01*
X-579402Y505874D01*
X-579357Y506026D01*
X-579316Y506179D01*
X-579279Y506333D01*
X-579246Y506488D01*
X-579216Y506643D01*
X-579191Y506800D01*
X-579169Y506956D01*
X-579152Y507114D01*
X-579138Y507271D01*
X-579128Y507429D01*
X-579122Y507588D01*
X-579120Y507746D01*
X-633730Y501396D02*
X-633888Y501398D01*
X-634047Y501404D01*
X-634205Y501414D01*
X-634362Y501428D01*
X-634520Y501445D01*
X-634676Y501467D01*
X-634833Y501492D01*
X-634988Y501522D01*
X-635143Y501555D01*
X-635297Y501592D01*
X-635450Y501633D01*
X-635602Y501678D01*
X-635752Y501727D01*
X-635902Y501779D01*
X-636050Y501835D01*
X-636197Y501895D01*
X-636342Y501958D01*
X-636485Y502025D01*
X-636627Y502095D01*
X-636767Y502169D01*
X-636905Y502247D01*
X-637041Y502328D01*
X-637175Y502412D01*
X-637307Y502499D01*
X-637437Y502590D01*
X-637564Y502684D01*
X-637689Y502781D01*
X-637812Y502882D01*
X-637932Y502985D01*
X-638049Y503091D01*
X-638164Y503200D01*
X-638276Y503312D01*
X-638385Y503427D01*
X-638491Y503544D01*
X-638594Y503664D01*
X-638695Y503787D01*
X-638792Y503912D01*
X-638886Y504039D01*
X-638977Y504169D01*
X-639064Y504301D01*
X-639148Y504435D01*
X-639229Y504571D01*
X-639307Y504709D01*
X-639381Y504849D01*
X-639451Y504991D01*
X-639518Y505134D01*
X-639581Y505279D01*
X-639641Y505426D01*
X-639697Y505574D01*
X-639749Y505724D01*
X-639798Y505874D01*
X-639843Y506026D01*
X-639884Y506179D01*
X-639921Y506333D01*
X-639954Y506488D01*
X-639984Y506643D01*
X-640009Y506800D01*
X-640031Y506956D01*
X-640048Y507114D01*
X-640062Y507271D01*
X-640072Y507429D01*
X-640078Y507588D01*
X-640080Y507746D01*
X-579120Y507746D02*
X-579120Y698246D01*
X-585470Y704596D02*
X-633730Y704596D01*
X-640080Y698246D02*
X-640080Y507746D01*
X-579120Y698246D02*
X-579122Y698404D01*
X-579128Y698563D01*
X-579138Y698721D01*
X-579152Y698878D01*
X-579169Y699036D01*
X-579191Y699192D01*
X-579216Y699349D01*
X-579246Y699504D01*
X-579279Y699659D01*
X-579316Y699813D01*
X-579357Y699966D01*
X-579402Y700118D01*
X-579451Y700268D01*
X-579503Y700418D01*
X-579559Y700566D01*
X-579619Y700713D01*
X-579682Y700858D01*
X-579749Y701001D01*
X-579819Y701143D01*
X-579893Y701283D01*
X-579971Y701421D01*
X-580052Y701557D01*
X-580136Y701691D01*
X-580223Y701823D01*
X-580314Y701953D01*
X-580408Y702080D01*
X-580505Y702205D01*
X-580606Y702328D01*
X-580709Y702448D01*
X-580815Y702565D01*
X-580924Y702680D01*
X-581036Y702792D01*
X-581151Y702901D01*
X-581268Y703007D01*
X-581388Y703110D01*
X-581511Y703211D01*
X-581636Y703308D01*
X-581763Y703402D01*
X-581893Y703493D01*
X-582025Y703580D01*
X-582159Y703664D01*
X-582295Y703745D01*
X-582433Y703823D01*
X-582573Y703897D01*
X-582715Y703967D01*
X-582858Y704034D01*
X-583003Y704097D01*
X-583150Y704157D01*
X-583298Y704213D01*
X-583448Y704265D01*
X-583598Y704314D01*
X-583750Y704359D01*
X-583903Y704400D01*
X-584057Y704437D01*
X-584212Y704470D01*
X-584367Y704500D01*
X-584524Y704525D01*
X-584680Y704547D01*
X-584838Y704564D01*
X-584995Y704578D01*
X-585153Y704588D01*
X-585312Y704594D01*
X-585470Y704596D01*
X-633730Y704596D02*
X-633888Y704594D01*
X-634047Y704588D01*
X-634205Y704578D01*
X-634362Y704564D01*
X-634520Y704547D01*
X-634676Y704525D01*
X-634833Y704500D01*
X-634988Y704470D01*
X-635143Y704437D01*
X-635297Y704400D01*
X-635450Y704359D01*
X-635602Y704314D01*
X-635752Y704265D01*
X-635902Y704213D01*
X-636050Y704157D01*
X-636197Y704097D01*
X-636342Y704034D01*
X-636485Y703967D01*
X-636627Y703897D01*
X-636767Y703823D01*
X-636905Y703745D01*
X-637041Y703664D01*
X-637175Y703580D01*
X-637307Y703493D01*
X-637437Y703402D01*
X-637564Y703308D01*
X-637689Y703211D01*
X-637812Y703110D01*
X-637932Y703007D01*
X-638049Y702901D01*
X-638164Y702792D01*
X-638276Y702680D01*
X-638385Y702565D01*
X-638491Y702448D01*
X-638594Y702328D01*
X-638695Y702205D01*
X-638792Y702080D01*
X-638886Y701953D01*
X-638977Y701823D01*
X-639064Y701691D01*
X-639148Y701557D01*
X-639229Y701421D01*
X-639307Y701283D01*
X-639381Y701143D01*
X-639451Y701001D01*
X-639518Y700858D01*
X-639581Y700713D01*
X-639641Y700566D01*
X-639697Y700418D01*
X-639749Y700268D01*
X-639798Y700118D01*
X-639843Y699966D01*
X-639884Y699813D01*
X-639921Y699659D01*
X-639954Y699504D01*
X-639984Y699349D01*
X-640009Y699192D01*
X-640031Y699036D01*
X-640048Y698878D01*
X-640062Y698721D01*
X-640072Y698563D01*
X-640078Y698404D01*
X-640080Y698246D01*
D11*
X-563245Y514096D02*
X-565785Y510921D01*
X-563245Y514096D02*
X-574675Y514096D01*
X-574675Y510921D02*
X-574675Y517271D01*
X-647065Y683641D02*
X-644525Y686816D01*
X-655955Y686816D01*
X-655955Y683641D02*
X-655955Y689991D01*
X-649605Y695071D02*
X-649605Y698881D01*
X-649607Y698981D01*
X-649613Y699080D01*
X-649623Y699180D01*
X-649636Y699278D01*
X-649654Y699377D01*
X-649675Y699474D01*
X-649700Y699570D01*
X-649729Y699666D01*
X-649762Y699760D01*
X-649798Y699853D01*
X-649838Y699944D01*
X-649882Y700034D01*
X-649929Y700122D01*
X-649979Y700208D01*
X-650033Y700292D01*
X-650090Y700374D01*
X-650150Y700453D01*
X-650214Y700531D01*
X-650280Y700605D01*
X-650349Y700677D01*
X-650421Y700746D01*
X-650495Y700812D01*
X-650573Y700876D01*
X-650652Y700936D01*
X-650734Y700993D01*
X-650818Y701047D01*
X-650904Y701097D01*
X-650992Y701144D01*
X-651082Y701188D01*
X-651173Y701228D01*
X-651266Y701264D01*
X-651360Y701297D01*
X-651456Y701326D01*
X-651552Y701351D01*
X-651649Y701372D01*
X-651748Y701390D01*
X-651846Y701403D01*
X-651946Y701413D01*
X-652045Y701419D01*
X-652145Y701421D01*
X-652780Y701421D01*
X-652891Y701419D01*
X-653001Y701413D01*
X-653112Y701404D01*
X-653222Y701390D01*
X-653331Y701373D01*
X-653440Y701352D01*
X-653548Y701327D01*
X-653655Y701298D01*
X-653761Y701266D01*
X-653866Y701230D01*
X-653969Y701190D01*
X-654071Y701147D01*
X-654172Y701100D01*
X-654271Y701049D01*
X-654368Y700996D01*
X-654462Y700939D01*
X-654555Y700878D01*
X-654646Y700815D01*
X-654735Y700748D01*
X-654821Y700678D01*
X-654904Y700605D01*
X-654986Y700530D01*
X-655064Y700452D01*
X-655139Y700370D01*
X-655212Y700287D01*
X-655282Y700201D01*
X-655349Y700112D01*
X-655412Y700021D01*
X-655473Y699928D01*
X-655530Y699834D01*
X-655583Y699737D01*
X-655634Y699638D01*
X-655681Y699537D01*
X-655724Y699435D01*
X-655764Y699332D01*
X-655800Y699227D01*
X-655832Y699121D01*
X-655861Y699014D01*
X-655886Y698906D01*
X-655907Y698797D01*
X-655924Y698688D01*
X-655938Y698578D01*
X-655947Y698467D01*
X-655953Y698357D01*
X-655955Y698246D01*
X-655953Y698135D01*
X-655947Y698025D01*
X-655938Y697914D01*
X-655924Y697804D01*
X-655907Y697695D01*
X-655886Y697586D01*
X-655861Y697478D01*
X-655832Y697371D01*
X-655800Y697265D01*
X-655764Y697160D01*
X-655724Y697057D01*
X-655681Y696955D01*
X-655634Y696854D01*
X-655583Y696755D01*
X-655530Y696659D01*
X-655473Y696564D01*
X-655412Y696471D01*
X-655349Y696380D01*
X-655282Y696291D01*
X-655212Y696205D01*
X-655139Y696122D01*
X-655064Y696040D01*
X-654986Y695962D01*
X-654904Y695887D01*
X-654821Y695814D01*
X-654735Y695744D01*
X-654646Y695677D01*
X-654555Y695614D01*
X-654462Y695553D01*
X-654368Y695496D01*
X-654271Y695443D01*
X-654172Y695392D01*
X-654071Y695345D01*
X-653969Y695302D01*
X-653866Y695262D01*
X-653761Y695226D01*
X-653655Y695194D01*
X-653548Y695165D01*
X-653440Y695140D01*
X-653331Y695119D01*
X-653222Y695102D01*
X-653112Y695088D01*
X-653001Y695079D01*
X-652891Y695073D01*
X-652780Y695071D01*
X-649605Y695071D01*
X-649465Y695073D01*
X-649325Y695079D01*
X-649185Y695088D01*
X-649046Y695102D01*
X-648907Y695119D01*
X-648769Y695140D01*
X-648631Y695165D01*
X-648494Y695194D01*
X-648358Y695226D01*
X-648223Y695263D01*
X-648089Y695303D01*
X-647956Y695346D01*
X-647824Y695394D01*
X-647693Y695444D01*
X-647564Y695499D01*
X-647437Y695557D01*
X-647311Y695618D01*
X-647187Y695683D01*
X-647065Y695752D01*
X-646945Y695823D01*
X-646827Y695898D01*
X-646710Y695976D01*
X-646596Y696058D01*
X-646485Y696142D01*
X-646376Y696230D01*
X-646269Y696320D01*
X-646164Y696414D01*
X-646063Y696510D01*
X-645964Y696609D01*
X-645868Y696710D01*
X-645774Y696815D01*
X-645684Y696922D01*
X-645596Y697031D01*
X-645512Y697142D01*
X-645430Y697256D01*
X-645352Y697373D01*
X-645277Y697491D01*
X-645206Y697611D01*
X-645137Y697733D01*
X-645072Y697857D01*
X-645011Y697983D01*
X-644953Y698110D01*
X-644898Y698239D01*
X-644848Y698370D01*
X-644800Y698502D01*
X-644757Y698635D01*
X-644717Y698769D01*
X-644680Y698904D01*
X-644648Y699040D01*
X-644619Y699177D01*
X-644594Y699315D01*
X-644573Y699453D01*
X-644556Y699592D01*
X-644542Y699731D01*
X-644533Y699871D01*
X-644527Y700011D01*
X-644525Y700151D01*
X-397256Y734568D02*
X-397256Y480568D01*
X-397256Y734568D02*
X-422656Y734568D01*
X-422656Y480568D01*
X-397256Y480568D01*
D12*
X-657098Y494030D02*
X-700278Y494030D01*
X-700278Y519430D02*
X-657098Y519430D01*
X-654558Y516890D02*
X-654558Y496570D01*
X-702818Y496570D02*
X-702818Y516890D01*
X-657098Y494030D02*
X-656998Y494032D01*
X-656899Y494038D01*
X-656799Y494048D01*
X-656701Y494061D01*
X-656602Y494079D01*
X-656505Y494100D01*
X-656409Y494125D01*
X-656313Y494154D01*
X-656219Y494187D01*
X-656126Y494223D01*
X-656035Y494263D01*
X-655945Y494307D01*
X-655857Y494354D01*
X-655771Y494404D01*
X-655687Y494458D01*
X-655605Y494515D01*
X-655526Y494575D01*
X-655448Y494639D01*
X-655374Y494705D01*
X-655302Y494774D01*
X-655233Y494846D01*
X-655167Y494920D01*
X-655103Y494998D01*
X-655043Y495077D01*
X-654986Y495159D01*
X-654932Y495243D01*
X-654882Y495329D01*
X-654835Y495417D01*
X-654791Y495507D01*
X-654751Y495598D01*
X-654715Y495691D01*
X-654682Y495785D01*
X-654653Y495881D01*
X-654628Y495977D01*
X-654607Y496074D01*
X-654589Y496173D01*
X-654576Y496271D01*
X-654566Y496371D01*
X-654560Y496470D01*
X-654558Y496570D01*
X-700278Y494030D02*
X-700378Y494032D01*
X-700477Y494038D01*
X-700577Y494048D01*
X-700675Y494061D01*
X-700774Y494079D01*
X-700871Y494100D01*
X-700967Y494125D01*
X-701063Y494154D01*
X-701157Y494187D01*
X-701250Y494223D01*
X-701341Y494263D01*
X-701431Y494307D01*
X-701519Y494354D01*
X-701605Y494404D01*
X-701689Y494458D01*
X-701771Y494515D01*
X-701850Y494575D01*
X-701928Y494639D01*
X-702002Y494705D01*
X-702074Y494774D01*
X-702143Y494846D01*
X-702209Y494920D01*
X-702273Y494998D01*
X-702333Y495077D01*
X-702390Y495159D01*
X-702444Y495243D01*
X-702494Y495329D01*
X-702541Y495417D01*
X-702585Y495507D01*
X-702625Y495598D01*
X-702661Y495691D01*
X-702694Y495785D01*
X-702723Y495881D01*
X-702748Y495977D01*
X-702769Y496074D01*
X-702787Y496173D01*
X-702800Y496271D01*
X-702810Y496371D01*
X-702816Y496470D01*
X-702818Y496570D01*
X-657098Y519430D02*
X-656998Y519428D01*
X-656899Y519422D01*
X-656799Y519412D01*
X-656701Y519399D01*
X-656602Y519381D01*
X-656505Y519360D01*
X-656409Y519335D01*
X-656313Y519306D01*
X-656219Y519273D01*
X-656126Y519237D01*
X-656035Y519197D01*
X-655945Y519153D01*
X-655857Y519106D01*
X-655771Y519056D01*
X-655687Y519002D01*
X-655605Y518945D01*
X-655526Y518885D01*
X-655448Y518821D01*
X-655374Y518755D01*
X-655302Y518686D01*
X-655233Y518614D01*
X-655167Y518540D01*
X-655103Y518462D01*
X-655043Y518383D01*
X-654986Y518301D01*
X-654932Y518217D01*
X-654882Y518131D01*
X-654835Y518043D01*
X-654791Y517953D01*
X-654751Y517862D01*
X-654715Y517769D01*
X-654682Y517675D01*
X-654653Y517579D01*
X-654628Y517483D01*
X-654607Y517386D01*
X-654589Y517287D01*
X-654576Y517189D01*
X-654566Y517089D01*
X-654560Y516990D01*
X-654558Y516890D01*
X-700278Y519430D02*
X-700378Y519428D01*
X-700477Y519422D01*
X-700577Y519412D01*
X-700675Y519399D01*
X-700774Y519381D01*
X-700871Y519360D01*
X-700967Y519335D01*
X-701063Y519306D01*
X-701157Y519273D01*
X-701250Y519237D01*
X-701341Y519197D01*
X-701431Y519153D01*
X-701519Y519106D01*
X-701605Y519056D01*
X-701689Y519002D01*
X-701771Y518945D01*
X-701850Y518885D01*
X-701928Y518821D01*
X-702002Y518755D01*
X-702074Y518686D01*
X-702143Y518614D01*
X-702209Y518540D01*
X-702273Y518462D01*
X-702333Y518383D01*
X-702390Y518301D01*
X-702444Y518217D01*
X-702494Y518131D01*
X-702541Y518043D01*
X-702585Y517953D01*
X-702625Y517862D01*
X-702661Y517769D01*
X-702694Y517675D01*
X-702723Y517579D01*
X-702748Y517483D01*
X-702769Y517386D01*
X-702787Y517287D01*
X-702800Y517189D01*
X-702810Y517089D01*
X-702816Y516990D01*
X-702818Y516890D01*
X-676148Y506730D02*
X-674878Y506730D01*
D13*
X-676148Y506730D02*
X-676148Y499110D01*
X-676148Y506730D02*
X-676148Y514350D01*
X-681228Y506730D02*
X-681228Y499110D01*
X-681228Y506730D02*
X-681228Y514350D01*
D12*
X-681228Y506730D02*
X-682498Y506730D01*
X-700278Y521716D02*
X-657098Y521716D01*
X-657098Y547116D02*
X-700278Y547116D01*
X-654558Y544576D02*
X-654558Y524256D01*
X-702818Y524256D02*
X-702818Y544576D01*
X-657098Y521716D02*
X-656998Y521718D01*
X-656899Y521724D01*
X-656799Y521734D01*
X-656701Y521747D01*
X-656602Y521765D01*
X-656505Y521786D01*
X-656409Y521811D01*
X-656313Y521840D01*
X-656219Y521873D01*
X-656126Y521909D01*
X-656035Y521949D01*
X-655945Y521993D01*
X-655857Y522040D01*
X-655771Y522090D01*
X-655687Y522144D01*
X-655605Y522201D01*
X-655526Y522261D01*
X-655448Y522325D01*
X-655374Y522391D01*
X-655302Y522460D01*
X-655233Y522532D01*
X-655167Y522606D01*
X-655103Y522684D01*
X-655043Y522763D01*
X-654986Y522845D01*
X-654932Y522929D01*
X-654882Y523015D01*
X-654835Y523103D01*
X-654791Y523193D01*
X-654751Y523284D01*
X-654715Y523377D01*
X-654682Y523471D01*
X-654653Y523567D01*
X-654628Y523663D01*
X-654607Y523760D01*
X-654589Y523859D01*
X-654576Y523957D01*
X-654566Y524057D01*
X-654560Y524156D01*
X-654558Y524256D01*
X-700278Y521716D02*
X-700378Y521718D01*
X-700477Y521724D01*
X-700577Y521734D01*
X-700675Y521747D01*
X-700774Y521765D01*
X-700871Y521786D01*
X-700967Y521811D01*
X-701063Y521840D01*
X-701157Y521873D01*
X-701250Y521909D01*
X-701341Y521949D01*
X-701431Y521993D01*
X-701519Y522040D01*
X-701605Y522090D01*
X-701689Y522144D01*
X-701771Y522201D01*
X-701850Y522261D01*
X-701928Y522325D01*
X-702002Y522391D01*
X-702074Y522460D01*
X-702143Y522532D01*
X-702209Y522606D01*
X-702273Y522684D01*
X-702333Y522763D01*
X-702390Y522845D01*
X-702444Y522929D01*
X-702494Y523015D01*
X-702541Y523103D01*
X-702585Y523193D01*
X-702625Y523284D01*
X-702661Y523377D01*
X-702694Y523471D01*
X-702723Y523567D01*
X-702748Y523663D01*
X-702769Y523760D01*
X-702787Y523859D01*
X-702800Y523957D01*
X-702810Y524057D01*
X-702816Y524156D01*
X-702818Y524256D01*
X-657098Y547116D02*
X-656998Y547114D01*
X-656899Y547108D01*
X-656799Y547098D01*
X-656701Y547085D01*
X-656602Y547067D01*
X-656505Y547046D01*
X-656409Y547021D01*
X-656313Y546992D01*
X-656219Y546959D01*
X-656126Y546923D01*
X-656035Y546883D01*
X-655945Y546839D01*
X-655857Y546792D01*
X-655771Y546742D01*
X-655687Y546688D01*
X-655605Y546631D01*
X-655526Y546571D01*
X-655448Y546507D01*
X-655374Y546441D01*
X-655302Y546372D01*
X-655233Y546300D01*
X-655167Y546226D01*
X-655103Y546148D01*
X-655043Y546069D01*
X-654986Y545987D01*
X-654932Y545903D01*
X-654882Y545817D01*
X-654835Y545729D01*
X-654791Y545639D01*
X-654751Y545548D01*
X-654715Y545455D01*
X-654682Y545361D01*
X-654653Y545265D01*
X-654628Y545169D01*
X-654607Y545072D01*
X-654589Y544973D01*
X-654576Y544875D01*
X-654566Y544775D01*
X-654560Y544676D01*
X-654558Y544576D01*
X-700278Y547116D02*
X-700378Y547114D01*
X-700477Y547108D01*
X-700577Y547098D01*
X-700675Y547085D01*
X-700774Y547067D01*
X-700871Y547046D01*
X-700967Y547021D01*
X-701063Y546992D01*
X-701157Y546959D01*
X-701250Y546923D01*
X-701341Y546883D01*
X-701431Y546839D01*
X-701519Y546792D01*
X-701605Y546742D01*
X-701689Y546688D01*
X-701771Y546631D01*
X-701850Y546571D01*
X-701928Y546507D01*
X-702002Y546441D01*
X-702074Y546372D01*
X-702143Y546300D01*
X-702209Y546226D01*
X-702273Y546148D01*
X-702333Y546069D01*
X-702390Y545987D01*
X-702444Y545903D01*
X-702494Y545817D01*
X-702541Y545729D01*
X-702585Y545639D01*
X-702625Y545548D01*
X-702661Y545455D01*
X-702694Y545361D01*
X-702723Y545265D01*
X-702748Y545169D01*
X-702769Y545072D01*
X-702787Y544973D01*
X-702800Y544875D01*
X-702810Y544775D01*
X-702816Y544676D01*
X-702818Y544576D01*
X-676148Y534416D02*
X-674878Y534416D01*
D13*
X-676148Y534416D02*
X-676148Y526796D01*
X-676148Y534416D02*
X-676148Y542036D01*
X-681228Y534416D02*
X-681228Y526796D01*
X-681228Y534416D02*
X-681228Y542036D01*
D12*
X-681228Y534416D02*
X-682498Y534416D01*
X-700278Y549148D02*
X-657098Y549148D01*
X-657098Y574548D02*
X-700278Y574548D01*
X-654558Y572008D02*
X-654558Y551688D01*
X-702818Y551688D02*
X-702818Y572008D01*
X-657098Y549148D02*
X-656998Y549150D01*
X-656899Y549156D01*
X-656799Y549166D01*
X-656701Y549179D01*
X-656602Y549197D01*
X-656505Y549218D01*
X-656409Y549243D01*
X-656313Y549272D01*
X-656219Y549305D01*
X-656126Y549341D01*
X-656035Y549381D01*
X-655945Y549425D01*
X-655857Y549472D01*
X-655771Y549522D01*
X-655687Y549576D01*
X-655605Y549633D01*
X-655526Y549693D01*
X-655448Y549757D01*
X-655374Y549823D01*
X-655302Y549892D01*
X-655233Y549964D01*
X-655167Y550038D01*
X-655103Y550116D01*
X-655043Y550195D01*
X-654986Y550277D01*
X-654932Y550361D01*
X-654882Y550447D01*
X-654835Y550535D01*
X-654791Y550625D01*
X-654751Y550716D01*
X-654715Y550809D01*
X-654682Y550903D01*
X-654653Y550999D01*
X-654628Y551095D01*
X-654607Y551192D01*
X-654589Y551291D01*
X-654576Y551389D01*
X-654566Y551489D01*
X-654560Y551588D01*
X-654558Y551688D01*
X-700278Y549148D02*
X-700378Y549150D01*
X-700477Y549156D01*
X-700577Y549166D01*
X-700675Y549179D01*
X-700774Y549197D01*
X-700871Y549218D01*
X-700967Y549243D01*
X-701063Y549272D01*
X-701157Y549305D01*
X-701250Y549341D01*
X-701341Y549381D01*
X-701431Y549425D01*
X-701519Y549472D01*
X-701605Y549522D01*
X-701689Y549576D01*
X-701771Y549633D01*
X-701850Y549693D01*
X-701928Y549757D01*
X-702002Y549823D01*
X-702074Y549892D01*
X-702143Y549964D01*
X-702209Y550038D01*
X-702273Y550116D01*
X-702333Y550195D01*
X-702390Y550277D01*
X-702444Y550361D01*
X-702494Y550447D01*
X-702541Y550535D01*
X-702585Y550625D01*
X-702625Y550716D01*
X-702661Y550809D01*
X-702694Y550903D01*
X-702723Y550999D01*
X-702748Y551095D01*
X-702769Y551192D01*
X-702787Y551291D01*
X-702800Y551389D01*
X-702810Y551489D01*
X-702816Y551588D01*
X-702818Y551688D01*
X-657098Y574548D02*
X-656998Y574546D01*
X-656899Y574540D01*
X-656799Y574530D01*
X-656701Y574517D01*
X-656602Y574499D01*
X-656505Y574478D01*
X-656409Y574453D01*
X-656313Y574424D01*
X-656219Y574391D01*
X-656126Y574355D01*
X-656035Y574315D01*
X-655945Y574271D01*
X-655857Y574224D01*
X-655771Y574174D01*
X-655687Y574120D01*
X-655605Y574063D01*
X-655526Y574003D01*
X-655448Y573939D01*
X-655374Y573873D01*
X-655302Y573804D01*
X-655233Y573732D01*
X-655167Y573658D01*
X-655103Y573580D01*
X-655043Y573501D01*
X-654986Y573419D01*
X-654932Y573335D01*
X-654882Y573249D01*
X-654835Y573161D01*
X-654791Y573071D01*
X-654751Y572980D01*
X-654715Y572887D01*
X-654682Y572793D01*
X-654653Y572697D01*
X-654628Y572601D01*
X-654607Y572504D01*
X-654589Y572405D01*
X-654576Y572307D01*
X-654566Y572207D01*
X-654560Y572108D01*
X-654558Y572008D01*
X-700278Y574548D02*
X-700378Y574546D01*
X-700477Y574540D01*
X-700577Y574530D01*
X-700675Y574517D01*
X-700774Y574499D01*
X-700871Y574478D01*
X-700967Y574453D01*
X-701063Y574424D01*
X-701157Y574391D01*
X-701250Y574355D01*
X-701341Y574315D01*
X-701431Y574271D01*
X-701519Y574224D01*
X-701605Y574174D01*
X-701689Y574120D01*
X-701771Y574063D01*
X-701850Y574003D01*
X-701928Y573939D01*
X-702002Y573873D01*
X-702074Y573804D01*
X-702143Y573732D01*
X-702209Y573658D01*
X-702273Y573580D01*
X-702333Y573501D01*
X-702390Y573419D01*
X-702444Y573335D01*
X-702494Y573249D01*
X-702541Y573161D01*
X-702585Y573071D01*
X-702625Y572980D01*
X-702661Y572887D01*
X-702694Y572793D01*
X-702723Y572697D01*
X-702748Y572601D01*
X-702769Y572504D01*
X-702787Y572405D01*
X-702800Y572307D01*
X-702810Y572207D01*
X-702816Y572108D01*
X-702818Y572008D01*
X-676148Y561848D02*
X-674878Y561848D01*
D13*
X-676148Y561848D02*
X-676148Y554228D01*
X-676148Y561848D02*
X-676148Y569468D01*
X-681228Y561848D02*
X-681228Y554228D01*
X-681228Y561848D02*
X-681228Y569468D01*
D12*
X-681228Y561848D02*
X-682498Y561848D01*
X-700278Y576580D02*
X-657098Y576580D01*
X-657098Y601980D02*
X-700278Y601980D01*
X-654558Y599440D02*
X-654558Y579120D01*
X-702818Y579120D02*
X-702818Y599440D01*
X-657098Y576580D02*
X-656998Y576582D01*
X-656899Y576588D01*
X-656799Y576598D01*
X-656701Y576611D01*
X-656602Y576629D01*
X-656505Y576650D01*
X-656409Y576675D01*
X-656313Y576704D01*
X-656219Y576737D01*
X-656126Y576773D01*
X-656035Y576813D01*
X-655945Y576857D01*
X-655857Y576904D01*
X-655771Y576954D01*
X-655687Y577008D01*
X-655605Y577065D01*
X-655526Y577125D01*
X-655448Y577189D01*
X-655374Y577255D01*
X-655302Y577324D01*
X-655233Y577396D01*
X-655167Y577470D01*
X-655103Y577548D01*
X-655043Y577627D01*
X-654986Y577709D01*
X-654932Y577793D01*
X-654882Y577879D01*
X-654835Y577967D01*
X-654791Y578057D01*
X-654751Y578148D01*
X-654715Y578241D01*
X-654682Y578335D01*
X-654653Y578431D01*
X-654628Y578527D01*
X-654607Y578624D01*
X-654589Y578723D01*
X-654576Y578821D01*
X-654566Y578921D01*
X-654560Y579020D01*
X-654558Y579120D01*
X-700278Y576580D02*
X-700378Y576582D01*
X-700477Y576588D01*
X-700577Y576598D01*
X-700675Y576611D01*
X-700774Y576629D01*
X-700871Y576650D01*
X-700967Y576675D01*
X-701063Y576704D01*
X-701157Y576737D01*
X-701250Y576773D01*
X-701341Y576813D01*
X-701431Y576857D01*
X-701519Y576904D01*
X-701605Y576954D01*
X-701689Y577008D01*
X-701771Y577065D01*
X-701850Y577125D01*
X-701928Y577189D01*
X-702002Y577255D01*
X-702074Y577324D01*
X-702143Y577396D01*
X-702209Y577470D01*
X-702273Y577548D01*
X-702333Y577627D01*
X-702390Y577709D01*
X-702444Y577793D01*
X-702494Y577879D01*
X-702541Y577967D01*
X-702585Y578057D01*
X-702625Y578148D01*
X-702661Y578241D01*
X-702694Y578335D01*
X-702723Y578431D01*
X-702748Y578527D01*
X-702769Y578624D01*
X-702787Y578723D01*
X-702800Y578821D01*
X-702810Y578921D01*
X-702816Y579020D01*
X-702818Y579120D01*
X-657098Y601980D02*
X-656998Y601978D01*
X-656899Y601972D01*
X-656799Y601962D01*
X-656701Y601949D01*
X-656602Y601931D01*
X-656505Y601910D01*
X-656409Y601885D01*
X-656313Y601856D01*
X-656219Y601823D01*
X-656126Y601787D01*
X-656035Y601747D01*
X-655945Y601703D01*
X-655857Y601656D01*
X-655771Y601606D01*
X-655687Y601552D01*
X-655605Y601495D01*
X-655526Y601435D01*
X-655448Y601371D01*
X-655374Y601305D01*
X-655302Y601236D01*
X-655233Y601164D01*
X-655167Y601090D01*
X-655103Y601012D01*
X-655043Y600933D01*
X-654986Y600851D01*
X-654932Y600767D01*
X-654882Y600681D01*
X-654835Y600593D01*
X-654791Y600503D01*
X-654751Y600412D01*
X-654715Y600319D01*
X-654682Y600225D01*
X-654653Y600129D01*
X-654628Y600033D01*
X-654607Y599936D01*
X-654589Y599837D01*
X-654576Y599739D01*
X-654566Y599639D01*
X-654560Y599540D01*
X-654558Y599440D01*
X-700278Y601980D02*
X-700378Y601978D01*
X-700477Y601972D01*
X-700577Y601962D01*
X-700675Y601949D01*
X-700774Y601931D01*
X-700871Y601910D01*
X-700967Y601885D01*
X-701063Y601856D01*
X-701157Y601823D01*
X-701250Y601787D01*
X-701341Y601747D01*
X-701431Y601703D01*
X-701519Y601656D01*
X-701605Y601606D01*
X-701689Y601552D01*
X-701771Y601495D01*
X-701850Y601435D01*
X-701928Y601371D01*
X-702002Y601305D01*
X-702074Y601236D01*
X-702143Y601164D01*
X-702209Y601090D01*
X-702273Y601012D01*
X-702333Y600933D01*
X-702390Y600851D01*
X-702444Y600767D01*
X-702494Y600681D01*
X-702541Y600593D01*
X-702585Y600503D01*
X-702625Y600412D01*
X-702661Y600319D01*
X-702694Y600225D01*
X-702723Y600129D01*
X-702748Y600033D01*
X-702769Y599936D01*
X-702787Y599837D01*
X-702800Y599739D01*
X-702810Y599639D01*
X-702816Y599540D01*
X-702818Y599440D01*
X-676148Y589280D02*
X-674878Y589280D01*
D13*
X-676148Y589280D02*
X-676148Y581660D01*
X-676148Y589280D02*
X-676148Y596900D01*
X-681228Y589280D02*
X-681228Y581660D01*
X-681228Y589280D02*
X-681228Y596900D01*
D12*
X-681228Y589280D02*
X-682498Y589280D01*
X-700278Y604266D02*
X-657098Y604266D01*
X-657098Y629666D02*
X-700278Y629666D01*
X-654558Y627126D02*
X-654558Y606806D01*
X-702818Y606806D02*
X-702818Y627126D01*
X-657098Y604266D02*
X-656998Y604268D01*
X-656899Y604274D01*
X-656799Y604284D01*
X-656701Y604297D01*
X-656602Y604315D01*
X-656505Y604336D01*
X-656409Y604361D01*
X-656313Y604390D01*
X-656219Y604423D01*
X-656126Y604459D01*
X-656035Y604499D01*
X-655945Y604543D01*
X-655857Y604590D01*
X-655771Y604640D01*
X-655687Y604694D01*
X-655605Y604751D01*
X-655526Y604811D01*
X-655448Y604875D01*
X-655374Y604941D01*
X-655302Y605010D01*
X-655233Y605082D01*
X-655167Y605156D01*
X-655103Y605234D01*
X-655043Y605313D01*
X-654986Y605395D01*
X-654932Y605479D01*
X-654882Y605565D01*
X-654835Y605653D01*
X-654791Y605743D01*
X-654751Y605834D01*
X-654715Y605927D01*
X-654682Y606021D01*
X-654653Y606117D01*
X-654628Y606213D01*
X-654607Y606310D01*
X-654589Y606409D01*
X-654576Y606507D01*
X-654566Y606607D01*
X-654560Y606706D01*
X-654558Y606806D01*
X-700278Y604266D02*
X-700378Y604268D01*
X-700477Y604274D01*
X-700577Y604284D01*
X-700675Y604297D01*
X-700774Y604315D01*
X-700871Y604336D01*
X-700967Y604361D01*
X-701063Y604390D01*
X-701157Y604423D01*
X-701250Y604459D01*
X-701341Y604499D01*
X-701431Y604543D01*
X-701519Y604590D01*
X-701605Y604640D01*
X-701689Y604694D01*
X-701771Y604751D01*
X-701850Y604811D01*
X-701928Y604875D01*
X-702002Y604941D01*
X-702074Y605010D01*
X-702143Y605082D01*
X-702209Y605156D01*
X-702273Y605234D01*
X-702333Y605313D01*
X-702390Y605395D01*
X-702444Y605479D01*
X-702494Y605565D01*
X-702541Y605653D01*
X-702585Y605743D01*
X-702625Y605834D01*
X-702661Y605927D01*
X-702694Y606021D01*
X-702723Y606117D01*
X-702748Y606213D01*
X-702769Y606310D01*
X-702787Y606409D01*
X-702800Y606507D01*
X-702810Y606607D01*
X-702816Y606706D01*
X-702818Y606806D01*
X-657098Y629666D02*
X-656998Y629664D01*
X-656899Y629658D01*
X-656799Y629648D01*
X-656701Y629635D01*
X-656602Y629617D01*
X-656505Y629596D01*
X-656409Y629571D01*
X-656313Y629542D01*
X-656219Y629509D01*
X-656126Y629473D01*
X-656035Y629433D01*
X-655945Y629389D01*
X-655857Y629342D01*
X-655771Y629292D01*
X-655687Y629238D01*
X-655605Y629181D01*
X-655526Y629121D01*
X-655448Y629057D01*
X-655374Y628991D01*
X-655302Y628922D01*
X-655233Y628850D01*
X-655167Y628776D01*
X-655103Y628698D01*
X-655043Y628619D01*
X-654986Y628537D01*
X-654932Y628453D01*
X-654882Y628367D01*
X-654835Y628279D01*
X-654791Y628189D01*
X-654751Y628098D01*
X-654715Y628005D01*
X-654682Y627911D01*
X-654653Y627815D01*
X-654628Y627719D01*
X-654607Y627622D01*
X-654589Y627523D01*
X-654576Y627425D01*
X-654566Y627325D01*
X-654560Y627226D01*
X-654558Y627126D01*
X-700278Y629666D02*
X-700378Y629664D01*
X-700477Y629658D01*
X-700577Y629648D01*
X-700675Y629635D01*
X-700774Y629617D01*
X-700871Y629596D01*
X-700967Y629571D01*
X-701063Y629542D01*
X-701157Y629509D01*
X-701250Y629473D01*
X-701341Y629433D01*
X-701431Y629389D01*
X-701519Y629342D01*
X-701605Y629292D01*
X-701689Y629238D01*
X-701771Y629181D01*
X-701850Y629121D01*
X-701928Y629057D01*
X-702002Y628991D01*
X-702074Y628922D01*
X-702143Y628850D01*
X-702209Y628776D01*
X-702273Y628698D01*
X-702333Y628619D01*
X-702390Y628537D01*
X-702444Y628453D01*
X-702494Y628367D01*
X-702541Y628279D01*
X-702585Y628189D01*
X-702625Y628098D01*
X-702661Y628005D01*
X-702694Y627911D01*
X-702723Y627815D01*
X-702748Y627719D01*
X-702769Y627622D01*
X-702787Y627523D01*
X-702800Y627425D01*
X-702810Y627325D01*
X-702816Y627226D01*
X-702818Y627126D01*
X-676148Y616966D02*
X-674878Y616966D01*
D13*
X-676148Y616966D02*
X-676148Y609346D01*
X-676148Y616966D02*
X-676148Y624586D01*
X-681228Y616966D02*
X-681228Y609346D01*
X-681228Y616966D02*
X-681228Y624586D01*
D12*
X-681228Y616966D02*
X-682498Y616966D01*
X-700278Y632206D02*
X-657098Y632206D01*
X-657098Y657606D02*
X-700278Y657606D01*
X-654558Y655066D02*
X-654558Y634746D01*
X-702818Y634746D02*
X-702818Y655066D01*
X-657098Y632206D02*
X-656998Y632208D01*
X-656899Y632214D01*
X-656799Y632224D01*
X-656701Y632237D01*
X-656602Y632255D01*
X-656505Y632276D01*
X-656409Y632301D01*
X-656313Y632330D01*
X-656219Y632363D01*
X-656126Y632399D01*
X-656035Y632439D01*
X-655945Y632483D01*
X-655857Y632530D01*
X-655771Y632580D01*
X-655687Y632634D01*
X-655605Y632691D01*
X-655526Y632751D01*
X-655448Y632815D01*
X-655374Y632881D01*
X-655302Y632950D01*
X-655233Y633022D01*
X-655167Y633096D01*
X-655103Y633174D01*
X-655043Y633253D01*
X-654986Y633335D01*
X-654932Y633419D01*
X-654882Y633505D01*
X-654835Y633593D01*
X-654791Y633683D01*
X-654751Y633774D01*
X-654715Y633867D01*
X-654682Y633961D01*
X-654653Y634057D01*
X-654628Y634153D01*
X-654607Y634250D01*
X-654589Y634349D01*
X-654576Y634447D01*
X-654566Y634547D01*
X-654560Y634646D01*
X-654558Y634746D01*
X-700278Y632206D02*
X-700378Y632208D01*
X-700477Y632214D01*
X-700577Y632224D01*
X-700675Y632237D01*
X-700774Y632255D01*
X-700871Y632276D01*
X-700967Y632301D01*
X-701063Y632330D01*
X-701157Y632363D01*
X-701250Y632399D01*
X-701341Y632439D01*
X-701431Y632483D01*
X-701519Y632530D01*
X-701605Y632580D01*
X-701689Y632634D01*
X-701771Y632691D01*
X-701850Y632751D01*
X-701928Y632815D01*
X-702002Y632881D01*
X-702074Y632950D01*
X-702143Y633022D01*
X-702209Y633096D01*
X-702273Y633174D01*
X-702333Y633253D01*
X-702390Y633335D01*
X-702444Y633419D01*
X-702494Y633505D01*
X-702541Y633593D01*
X-702585Y633683D01*
X-702625Y633774D01*
X-702661Y633867D01*
X-702694Y633961D01*
X-702723Y634057D01*
X-702748Y634153D01*
X-702769Y634250D01*
X-702787Y634349D01*
X-702800Y634447D01*
X-702810Y634547D01*
X-702816Y634646D01*
X-702818Y634746D01*
X-657098Y657606D02*
X-656998Y657604D01*
X-656899Y657598D01*
X-656799Y657588D01*
X-656701Y657575D01*
X-656602Y657557D01*
X-656505Y657536D01*
X-656409Y657511D01*
X-656313Y657482D01*
X-656219Y657449D01*
X-656126Y657413D01*
X-656035Y657373D01*
X-655945Y657329D01*
X-655857Y657282D01*
X-655771Y657232D01*
X-655687Y657178D01*
X-655605Y657121D01*
X-655526Y657061D01*
X-655448Y656997D01*
X-655374Y656931D01*
X-655302Y656862D01*
X-655233Y656790D01*
X-655167Y656716D01*
X-655103Y656638D01*
X-655043Y656559D01*
X-654986Y656477D01*
X-654932Y656393D01*
X-654882Y656307D01*
X-654835Y656219D01*
X-654791Y656129D01*
X-654751Y656038D01*
X-654715Y655945D01*
X-654682Y655851D01*
X-654653Y655755D01*
X-654628Y655659D01*
X-654607Y655562D01*
X-654589Y655463D01*
X-654576Y655365D01*
X-654566Y655265D01*
X-654560Y655166D01*
X-654558Y655066D01*
X-700278Y657606D02*
X-700378Y657604D01*
X-700477Y657598D01*
X-700577Y657588D01*
X-700675Y657575D01*
X-700774Y657557D01*
X-700871Y657536D01*
X-700967Y657511D01*
X-701063Y657482D01*
X-701157Y657449D01*
X-701250Y657413D01*
X-701341Y657373D01*
X-701431Y657329D01*
X-701519Y657282D01*
X-701605Y657232D01*
X-701689Y657178D01*
X-701771Y657121D01*
X-701850Y657061D01*
X-701928Y656997D01*
X-702002Y656931D01*
X-702074Y656862D01*
X-702143Y656790D01*
X-702209Y656716D01*
X-702273Y656638D01*
X-702333Y656559D01*
X-702390Y656477D01*
X-702444Y656393D01*
X-702494Y656307D01*
X-702541Y656219D01*
X-702585Y656129D01*
X-702625Y656038D01*
X-702661Y655945D01*
X-702694Y655851D01*
X-702723Y655755D01*
X-702748Y655659D01*
X-702769Y655562D01*
X-702787Y655463D01*
X-702800Y655365D01*
X-702810Y655265D01*
X-702816Y655166D01*
X-702818Y655066D01*
X-676148Y644906D02*
X-674878Y644906D01*
D13*
X-676148Y644906D02*
X-676148Y637286D01*
X-676148Y644906D02*
X-676148Y652526D01*
X-681228Y644906D02*
X-681228Y637286D01*
X-681228Y644906D02*
X-681228Y652526D01*
D12*
X-681228Y644906D02*
X-682498Y644906D01*
X-700278Y660400D02*
X-657098Y660400D01*
X-657098Y685800D02*
X-700278Y685800D01*
X-654558Y683260D02*
X-654558Y662940D01*
X-702818Y662940D02*
X-702818Y683260D01*
X-657098Y660400D02*
X-656998Y660402D01*
X-656899Y660408D01*
X-656799Y660418D01*
X-656701Y660431D01*
X-656602Y660449D01*
X-656505Y660470D01*
X-656409Y660495D01*
X-656313Y660524D01*
X-656219Y660557D01*
X-656126Y660593D01*
X-656035Y660633D01*
X-655945Y660677D01*
X-655857Y660724D01*
X-655771Y660774D01*
X-655687Y660828D01*
X-655605Y660885D01*
X-655526Y660945D01*
X-655448Y661009D01*
X-655374Y661075D01*
X-655302Y661144D01*
X-655233Y661216D01*
X-655167Y661290D01*
X-655103Y661368D01*
X-655043Y661447D01*
X-654986Y661529D01*
X-654932Y661613D01*
X-654882Y661699D01*
X-654835Y661787D01*
X-654791Y661877D01*
X-654751Y661968D01*
X-654715Y662061D01*
X-654682Y662155D01*
X-654653Y662251D01*
X-654628Y662347D01*
X-654607Y662444D01*
X-654589Y662543D01*
X-654576Y662641D01*
X-654566Y662741D01*
X-654560Y662840D01*
X-654558Y662940D01*
X-700278Y660400D02*
X-700378Y660402D01*
X-700477Y660408D01*
X-700577Y660418D01*
X-700675Y660431D01*
X-700774Y660449D01*
X-700871Y660470D01*
X-700967Y660495D01*
X-701063Y660524D01*
X-701157Y660557D01*
X-701250Y660593D01*
X-701341Y660633D01*
X-701431Y660677D01*
X-701519Y660724D01*
X-701605Y660774D01*
X-701689Y660828D01*
X-701771Y660885D01*
X-701850Y660945D01*
X-701928Y661009D01*
X-702002Y661075D01*
X-702074Y661144D01*
X-702143Y661216D01*
X-702209Y661290D01*
X-702273Y661368D01*
X-702333Y661447D01*
X-702390Y661529D01*
X-702444Y661613D01*
X-702494Y661699D01*
X-702541Y661787D01*
X-702585Y661877D01*
X-702625Y661968D01*
X-702661Y662061D01*
X-702694Y662155D01*
X-702723Y662251D01*
X-702748Y662347D01*
X-702769Y662444D01*
X-702787Y662543D01*
X-702800Y662641D01*
X-702810Y662741D01*
X-702816Y662840D01*
X-702818Y662940D01*
X-657098Y685800D02*
X-656998Y685798D01*
X-656899Y685792D01*
X-656799Y685782D01*
X-656701Y685769D01*
X-656602Y685751D01*
X-656505Y685730D01*
X-656409Y685705D01*
X-656313Y685676D01*
X-656219Y685643D01*
X-656126Y685607D01*
X-656035Y685567D01*
X-655945Y685523D01*
X-655857Y685476D01*
X-655771Y685426D01*
X-655687Y685372D01*
X-655605Y685315D01*
X-655526Y685255D01*
X-655448Y685191D01*
X-655374Y685125D01*
X-655302Y685056D01*
X-655233Y684984D01*
X-655167Y684910D01*
X-655103Y684832D01*
X-655043Y684753D01*
X-654986Y684671D01*
X-654932Y684587D01*
X-654882Y684501D01*
X-654835Y684413D01*
X-654791Y684323D01*
X-654751Y684232D01*
X-654715Y684139D01*
X-654682Y684045D01*
X-654653Y683949D01*
X-654628Y683853D01*
X-654607Y683756D01*
X-654589Y683657D01*
X-654576Y683559D01*
X-654566Y683459D01*
X-654560Y683360D01*
X-654558Y683260D01*
X-700278Y685800D02*
X-700378Y685798D01*
X-700477Y685792D01*
X-700577Y685782D01*
X-700675Y685769D01*
X-700774Y685751D01*
X-700871Y685730D01*
X-700967Y685705D01*
X-701063Y685676D01*
X-701157Y685643D01*
X-701250Y685607D01*
X-701341Y685567D01*
X-701431Y685523D01*
X-701519Y685476D01*
X-701605Y685426D01*
X-701689Y685372D01*
X-701771Y685315D01*
X-701850Y685255D01*
X-701928Y685191D01*
X-702002Y685125D01*
X-702074Y685056D01*
X-702143Y684984D01*
X-702209Y684910D01*
X-702273Y684832D01*
X-702333Y684753D01*
X-702390Y684671D01*
X-702444Y684587D01*
X-702494Y684501D01*
X-702541Y684413D01*
X-702585Y684323D01*
X-702625Y684232D01*
X-702661Y684139D01*
X-702694Y684045D01*
X-702723Y683949D01*
X-702748Y683853D01*
X-702769Y683756D01*
X-702787Y683657D01*
X-702800Y683559D01*
X-702810Y683459D01*
X-702816Y683360D01*
X-702818Y683260D01*
X-676148Y673100D02*
X-674878Y673100D01*
D13*
X-676148Y673100D02*
X-676148Y665480D01*
X-676148Y673100D02*
X-676148Y680720D01*
X-681228Y673100D02*
X-681228Y665480D01*
X-681228Y673100D02*
X-681228Y680720D01*
D12*
X-681228Y673100D02*
X-682498Y673100D01*
X-700278Y688848D02*
X-657098Y688848D01*
X-657098Y714248D02*
X-700278Y714248D01*
X-654558Y711708D02*
X-654558Y691388D01*
X-702818Y691388D02*
X-702818Y711708D01*
X-657098Y688848D02*
X-656998Y688850D01*
X-656899Y688856D01*
X-656799Y688866D01*
X-656701Y688879D01*
X-656602Y688897D01*
X-656505Y688918D01*
X-656409Y688943D01*
X-656313Y688972D01*
X-656219Y689005D01*
X-656126Y689041D01*
X-656035Y689081D01*
X-655945Y689125D01*
X-655857Y689172D01*
X-655771Y689222D01*
X-655687Y689276D01*
X-655605Y689333D01*
X-655526Y689393D01*
X-655448Y689457D01*
X-655374Y689523D01*
X-655302Y689592D01*
X-655233Y689664D01*
X-655167Y689738D01*
X-655103Y689816D01*
X-655043Y689895D01*
X-654986Y689977D01*
X-654932Y690061D01*
X-654882Y690147D01*
X-654835Y690235D01*
X-654791Y690325D01*
X-654751Y690416D01*
X-654715Y690509D01*
X-654682Y690603D01*
X-654653Y690699D01*
X-654628Y690795D01*
X-654607Y690892D01*
X-654589Y690991D01*
X-654576Y691089D01*
X-654566Y691189D01*
X-654560Y691288D01*
X-654558Y691388D01*
X-700278Y688848D02*
X-700378Y688850D01*
X-700477Y688856D01*
X-700577Y688866D01*
X-700675Y688879D01*
X-700774Y688897D01*
X-700871Y688918D01*
X-700967Y688943D01*
X-701063Y688972D01*
X-701157Y689005D01*
X-701250Y689041D01*
X-701341Y689081D01*
X-701431Y689125D01*
X-701519Y689172D01*
X-701605Y689222D01*
X-701689Y689276D01*
X-701771Y689333D01*
X-701850Y689393D01*
X-701928Y689457D01*
X-702002Y689523D01*
X-702074Y689592D01*
X-702143Y689664D01*
X-702209Y689738D01*
X-702273Y689816D01*
X-702333Y689895D01*
X-702390Y689977D01*
X-702444Y690061D01*
X-702494Y690147D01*
X-702541Y690235D01*
X-702585Y690325D01*
X-702625Y690416D01*
X-702661Y690509D01*
X-702694Y690603D01*
X-702723Y690699D01*
X-702748Y690795D01*
X-702769Y690892D01*
X-702787Y690991D01*
X-702800Y691089D01*
X-702810Y691189D01*
X-702816Y691288D01*
X-702818Y691388D01*
X-657098Y714248D02*
X-656998Y714246D01*
X-656899Y714240D01*
X-656799Y714230D01*
X-656701Y714217D01*
X-656602Y714199D01*
X-656505Y714178D01*
X-656409Y714153D01*
X-656313Y714124D01*
X-656219Y714091D01*
X-656126Y714055D01*
X-656035Y714015D01*
X-655945Y713971D01*
X-655857Y713924D01*
X-655771Y713874D01*
X-655687Y713820D01*
X-655605Y713763D01*
X-655526Y713703D01*
X-655448Y713639D01*
X-655374Y713573D01*
X-655302Y713504D01*
X-655233Y713432D01*
X-655167Y713358D01*
X-655103Y713280D01*
X-655043Y713201D01*
X-654986Y713119D01*
X-654932Y713035D01*
X-654882Y712949D01*
X-654835Y712861D01*
X-654791Y712771D01*
X-654751Y712680D01*
X-654715Y712587D01*
X-654682Y712493D01*
X-654653Y712397D01*
X-654628Y712301D01*
X-654607Y712204D01*
X-654589Y712105D01*
X-654576Y712007D01*
X-654566Y711907D01*
X-654560Y711808D01*
X-654558Y711708D01*
X-700278Y714248D02*
X-700378Y714246D01*
X-700477Y714240D01*
X-700577Y714230D01*
X-700675Y714217D01*
X-700774Y714199D01*
X-700871Y714178D01*
X-700967Y714153D01*
X-701063Y714124D01*
X-701157Y714091D01*
X-701250Y714055D01*
X-701341Y714015D01*
X-701431Y713971D01*
X-701519Y713924D01*
X-701605Y713874D01*
X-701689Y713820D01*
X-701771Y713763D01*
X-701850Y713703D01*
X-701928Y713639D01*
X-702002Y713573D01*
X-702074Y713504D01*
X-702143Y713432D01*
X-702209Y713358D01*
X-702273Y713280D01*
X-702333Y713201D01*
X-702390Y713119D01*
X-702444Y713035D01*
X-702494Y712949D01*
X-702541Y712861D01*
X-702585Y712771D01*
X-702625Y712680D01*
X-702661Y712587D01*
X-702694Y712493D01*
X-702723Y712397D01*
X-702748Y712301D01*
X-702769Y712204D01*
X-702787Y712105D01*
X-702800Y712007D01*
X-702810Y711907D01*
X-702816Y711808D01*
X-702818Y711708D01*
X-676148Y701548D02*
X-674878Y701548D01*
D13*
X-676148Y701548D02*
X-676148Y693928D01*
X-676148Y701548D02*
X-676148Y709168D01*
X-681228Y701548D02*
X-681228Y693928D01*
X-681228Y701548D02*
X-681228Y709168D01*
D12*
X-681228Y701548D02*
X-682498Y701548D01*
D14*
X-393344Y386138D02*
X-348844Y386138D01*
X-348844Y514038D02*
X-393344Y514038D01*
X-348844Y514038D02*
X-348844Y386138D01*
X-393344Y386138D02*
X-393344Y514038D01*
X-378444Y379638D02*
X-378442Y379701D01*
X-378436Y379763D01*
X-378426Y379825D01*
X-378413Y379887D01*
X-378395Y379947D01*
X-378374Y380006D01*
X-378349Y380064D01*
X-378320Y380120D01*
X-378288Y380174D01*
X-378253Y380226D01*
X-378215Y380275D01*
X-378173Y380323D01*
X-378129Y380367D01*
X-378081Y380409D01*
X-378032Y380447D01*
X-377980Y380482D01*
X-377926Y380514D01*
X-377870Y380543D01*
X-377812Y380568D01*
X-377753Y380589D01*
X-377693Y380607D01*
X-377631Y380620D01*
X-377569Y380630D01*
X-377507Y380636D01*
X-377444Y380638D01*
X-377381Y380636D01*
X-377319Y380630D01*
X-377257Y380620D01*
X-377195Y380607D01*
X-377135Y380589D01*
X-377076Y380568D01*
X-377018Y380543D01*
X-376962Y380514D01*
X-376908Y380482D01*
X-376856Y380447D01*
X-376807Y380409D01*
X-376759Y380367D01*
X-376715Y380323D01*
X-376673Y380275D01*
X-376635Y380226D01*
X-376600Y380174D01*
X-376568Y380120D01*
X-376539Y380064D01*
X-376514Y380006D01*
X-376493Y379947D01*
X-376475Y379887D01*
X-376462Y379825D01*
X-376452Y379763D01*
X-376446Y379701D01*
X-376444Y379638D01*
X-376446Y379575D01*
X-376452Y379513D01*
X-376462Y379451D01*
X-376475Y379389D01*
X-376493Y379329D01*
X-376514Y379270D01*
X-376539Y379212D01*
X-376568Y379156D01*
X-376600Y379102D01*
X-376635Y379050D01*
X-376673Y379001D01*
X-376715Y378953D01*
X-376759Y378909D01*
X-376807Y378867D01*
X-376856Y378829D01*
X-376908Y378794D01*
X-376962Y378762D01*
X-377018Y378733D01*
X-377076Y378708D01*
X-377135Y378687D01*
X-377195Y378669D01*
X-377257Y378656D01*
X-377319Y378646D01*
X-377381Y378640D01*
X-377444Y378638D01*
X-377507Y378640D01*
X-377569Y378646D01*
X-377631Y378656D01*
X-377693Y378669D01*
X-377753Y378687D01*
X-377812Y378708D01*
X-377870Y378733D01*
X-377926Y378762D01*
X-377980Y378794D01*
X-378032Y378829D01*
X-378081Y378867D01*
X-378129Y378909D01*
X-378173Y378953D01*
X-378215Y379001D01*
X-378253Y379050D01*
X-378288Y379102D01*
X-378320Y379156D01*
X-378349Y379212D01*
X-378374Y379270D01*
X-378395Y379329D01*
X-378413Y379389D01*
X-378426Y379451D01*
X-378436Y379513D01*
X-378442Y379575D01*
X-378444Y379638D01*
X76810Y386646D02*
X121310Y386646D01*
X121310Y514546D02*
X76810Y514546D01*
X121310Y514546D02*
X121310Y386646D01*
X76810Y386646D02*
X76810Y514546D01*
X91710Y380146D02*
X91712Y380209D01*
X91718Y380271D01*
X91728Y380333D01*
X91741Y380395D01*
X91759Y380455D01*
X91780Y380514D01*
X91805Y380572D01*
X91834Y380628D01*
X91866Y380682D01*
X91901Y380734D01*
X91939Y380783D01*
X91981Y380831D01*
X92025Y380875D01*
X92073Y380917D01*
X92122Y380955D01*
X92174Y380990D01*
X92228Y381022D01*
X92284Y381051D01*
X92342Y381076D01*
X92401Y381097D01*
X92461Y381115D01*
X92523Y381128D01*
X92585Y381138D01*
X92647Y381144D01*
X92710Y381146D01*
X92773Y381144D01*
X92835Y381138D01*
X92897Y381128D01*
X92959Y381115D01*
X93019Y381097D01*
X93078Y381076D01*
X93136Y381051D01*
X93192Y381022D01*
X93246Y380990D01*
X93298Y380955D01*
X93347Y380917D01*
X93395Y380875D01*
X93439Y380831D01*
X93481Y380783D01*
X93519Y380734D01*
X93554Y380682D01*
X93586Y380628D01*
X93615Y380572D01*
X93640Y380514D01*
X93661Y380455D01*
X93679Y380395D01*
X93692Y380333D01*
X93702Y380271D01*
X93708Y380209D01*
X93710Y380146D01*
X93708Y380083D01*
X93702Y380021D01*
X93692Y379959D01*
X93679Y379897D01*
X93661Y379837D01*
X93640Y379778D01*
X93615Y379720D01*
X93586Y379664D01*
X93554Y379610D01*
X93519Y379558D01*
X93481Y379509D01*
X93439Y379461D01*
X93395Y379417D01*
X93347Y379375D01*
X93298Y379337D01*
X93246Y379302D01*
X93192Y379270D01*
X93136Y379241D01*
X93078Y379216D01*
X93019Y379195D01*
X92959Y379177D01*
X92897Y379164D01*
X92835Y379154D01*
X92773Y379148D01*
X92710Y379146D01*
X92647Y379148D01*
X92585Y379154D01*
X92523Y379164D01*
X92461Y379177D01*
X92401Y379195D01*
X92342Y379216D01*
X92284Y379241D01*
X92228Y379270D01*
X92174Y379302D01*
X92122Y379337D01*
X92073Y379375D01*
X92025Y379417D01*
X91981Y379461D01*
X91939Y379509D01*
X91901Y379558D01*
X91866Y379610D01*
X91834Y379664D01*
X91805Y379720D01*
X91780Y379778D01*
X91759Y379837D01*
X91741Y379897D01*
X91728Y379959D01*
X91718Y380021D01*
X91712Y380083D01*
X91710Y380146D01*
X183998Y628200D02*
X228498Y628200D01*
X228498Y756100D02*
X183998Y756100D01*
X228498Y756100D02*
X228498Y628200D01*
X183998Y628200D02*
X183998Y756100D01*
X198898Y621700D02*
X198900Y621763D01*
X198906Y621825D01*
X198916Y621887D01*
X198929Y621949D01*
X198947Y622009D01*
X198968Y622068D01*
X198993Y622126D01*
X199022Y622182D01*
X199054Y622236D01*
X199089Y622288D01*
X199127Y622337D01*
X199169Y622385D01*
X199213Y622429D01*
X199261Y622471D01*
X199310Y622509D01*
X199362Y622544D01*
X199416Y622576D01*
X199472Y622605D01*
X199530Y622630D01*
X199589Y622651D01*
X199649Y622669D01*
X199711Y622682D01*
X199773Y622692D01*
X199835Y622698D01*
X199898Y622700D01*
X199961Y622698D01*
X200023Y622692D01*
X200085Y622682D01*
X200147Y622669D01*
X200207Y622651D01*
X200266Y622630D01*
X200324Y622605D01*
X200380Y622576D01*
X200434Y622544D01*
X200486Y622509D01*
X200535Y622471D01*
X200583Y622429D01*
X200627Y622385D01*
X200669Y622337D01*
X200707Y622288D01*
X200742Y622236D01*
X200774Y622182D01*
X200803Y622126D01*
X200828Y622068D01*
X200849Y622009D01*
X200867Y621949D01*
X200880Y621887D01*
X200890Y621825D01*
X200896Y621763D01*
X200898Y621700D01*
X200896Y621637D01*
X200890Y621575D01*
X200880Y621513D01*
X200867Y621451D01*
X200849Y621391D01*
X200828Y621332D01*
X200803Y621274D01*
X200774Y621218D01*
X200742Y621164D01*
X200707Y621112D01*
X200669Y621063D01*
X200627Y621015D01*
X200583Y620971D01*
X200535Y620929D01*
X200486Y620891D01*
X200434Y620856D01*
X200380Y620824D01*
X200324Y620795D01*
X200266Y620770D01*
X200207Y620749D01*
X200147Y620731D01*
X200085Y620718D01*
X200023Y620708D01*
X199961Y620702D01*
X199898Y620700D01*
X199835Y620702D01*
X199773Y620708D01*
X199711Y620718D01*
X199649Y620731D01*
X199589Y620749D01*
X199530Y620770D01*
X199472Y620795D01*
X199416Y620824D01*
X199362Y620856D01*
X199310Y620891D01*
X199261Y620929D01*
X199213Y620971D01*
X199169Y621015D01*
X199127Y621063D01*
X199089Y621112D01*
X199054Y621164D01*
X199022Y621218D01*
X198993Y621274D01*
X198968Y621332D01*
X198947Y621391D01*
X198929Y621451D01*
X198916Y621513D01*
X198906Y621575D01*
X198900Y621637D01*
X198898Y621700D01*
M02*
