G04 EAGLE Gerber RS-274X export*
G75*
%MOMM*%
%FSLAX34Y34*%
%LPD*%
%INSoldermask Bottom*%
%IPPOS*%
%AMOC8*
5,1,8,0,0,1.08239X$1,22.5*%
G01*
%ADD10C,1.178200*%
%ADD11C,1.117600*%
%ADD12P,1.704548X8X112.500000*%
%ADD13P,2.144431X8X22.500000*%
%ADD14P,1.539592X8X202.500000*%
%ADD15P,1.951982X8X22.500000*%
%ADD16P,1.843527X8X22.500000*%


D10*
X-40894Y683514D03*
X-40894Y670814D03*
X-40894Y658114D03*
X-40894Y645414D03*
X-40894Y632714D03*
X-40894Y620014D03*
X-40894Y607314D03*
X-40894Y594614D03*
X-40894Y581914D03*
X-40894Y569214D03*
X-53594Y569214D03*
X-53594Y581914D03*
X-53594Y594614D03*
X-53594Y607314D03*
X-53594Y620014D03*
X-53594Y632714D03*
X-53594Y645414D03*
X-53594Y658114D03*
X-53594Y670814D03*
X-53594Y683514D03*
X-284734Y678434D03*
X-284734Y665734D03*
X-284734Y653034D03*
X-284734Y640334D03*
X-284734Y627634D03*
X-284734Y614934D03*
X-284734Y602234D03*
X-284734Y589534D03*
X-284734Y576834D03*
X-284734Y564134D03*
X-297434Y564134D03*
X-297434Y576834D03*
X-297434Y589534D03*
X-297434Y602234D03*
X-297434Y614934D03*
X-297434Y627634D03*
X-297434Y640334D03*
X-297434Y653034D03*
X-297434Y665734D03*
X-297434Y678434D03*
D11*
X7874Y318516D03*
X20574Y318516D03*
X7874Y331216D03*
X20574Y331216D03*
X7874Y343916D03*
X20574Y343916D03*
X7874Y356616D03*
X20574Y356616D03*
X7874Y369316D03*
X20574Y369316D03*
X7874Y382016D03*
X20574Y382016D03*
X7874Y394716D03*
X20574Y394716D03*
X7874Y407416D03*
X20574Y407416D03*
D12*
X-786638Y488442D03*
X-761238Y488442D03*
X-786638Y513842D03*
X-761238Y513842D03*
X-786638Y539242D03*
X-761238Y539242D03*
X-786638Y564642D03*
X-761238Y564642D03*
X-786638Y590042D03*
X-761238Y590042D03*
X-786638Y615442D03*
X-761238Y615442D03*
X-786638Y640842D03*
X-761238Y640842D03*
X-786638Y666242D03*
X-761238Y666242D03*
X-786638Y691642D03*
X-761238Y691642D03*
X-786638Y717042D03*
X-761238Y717042D03*
X-885190Y486918D03*
X-859790Y486918D03*
X-885190Y512318D03*
X-859790Y512318D03*
X-885190Y537718D03*
X-859790Y537718D03*
X-885190Y563118D03*
X-859790Y563118D03*
X-885190Y588518D03*
X-859790Y588518D03*
X-885190Y613918D03*
X-859790Y613918D03*
X-885190Y639318D03*
X-859790Y639318D03*
X-885190Y664718D03*
X-859790Y664718D03*
X-885190Y690118D03*
X-859790Y690118D03*
X-885190Y715518D03*
X-859790Y715518D03*
X-596900Y514096D03*
X-622300Y514096D03*
X-596900Y539496D03*
X-622300Y539496D03*
X-596900Y564896D03*
X-622300Y564896D03*
X-596900Y590296D03*
X-622300Y590296D03*
X-596900Y615696D03*
X-622300Y615696D03*
X-596900Y641096D03*
X-622300Y641096D03*
X-596900Y666496D03*
X-622300Y666496D03*
X-596900Y691896D03*
X-622300Y691896D03*
D13*
X-385826Y493268D03*
X-385826Y518668D03*
X-385826Y544068D03*
X-385826Y569468D03*
X-385826Y594868D03*
X-385826Y620268D03*
X-385826Y645668D03*
X-385826Y671068D03*
X-385826Y696468D03*
X-385826Y721868D03*
D11*
X-278384Y440944D03*
X-291084Y440944D03*
X-278384Y453644D03*
X-291084Y453644D03*
X-278384Y466344D03*
X-291084Y466344D03*
X-278384Y479044D03*
X-291084Y479044D03*
X-278384Y491744D03*
X-291084Y491744D03*
X-278384Y504444D03*
X-291084Y504444D03*
X-278384Y517144D03*
X-291084Y517144D03*
X-278384Y529844D03*
X-291084Y529844D03*
X-216662Y261112D03*
X-229362Y261112D03*
X-216662Y273812D03*
X-229362Y273812D03*
X-216662Y286512D03*
X-229362Y286512D03*
X-216662Y299212D03*
X-229362Y299212D03*
X-216662Y311912D03*
X-229362Y311912D03*
X-216662Y324612D03*
X-229362Y324612D03*
X-216662Y337312D03*
X-229362Y337312D03*
X-216662Y350012D03*
X-229362Y350012D03*
D14*
X-424688Y523240D03*
X-475488Y523240D03*
X-424688Y545846D03*
X-475488Y545846D03*
X-424688Y568706D03*
X-475488Y568706D03*
X-424434Y591820D03*
X-475234Y591820D03*
X-424434Y613664D03*
X-475234Y613664D03*
X-423926Y636270D03*
X-474726Y636270D03*
X-423926Y658622D03*
X-474726Y658622D03*
X-423672Y680466D03*
X-474472Y680466D03*
X-506730Y533146D03*
X-557530Y533146D03*
X-506730Y555752D03*
X-557530Y555752D03*
X-506730Y578612D03*
X-557530Y578612D03*
X-506476Y601726D03*
X-557276Y601726D03*
X-506476Y623570D03*
X-557276Y623570D03*
X-505968Y646176D03*
X-556768Y646176D03*
X-505968Y668528D03*
X-556768Y668528D03*
X-505714Y690372D03*
X-556514Y690372D03*
D15*
X-691388Y506730D03*
X-665988Y506730D03*
X-691388Y534416D03*
X-665988Y534416D03*
X-691388Y561848D03*
X-665988Y561848D03*
X-691388Y589280D03*
X-665988Y589280D03*
X-691388Y616966D03*
X-665988Y616966D03*
X-691388Y644906D03*
X-665988Y644906D03*
X-691388Y673100D03*
X-665988Y673100D03*
X-691388Y701548D03*
X-665988Y701548D03*
D14*
X-423672Y702310D03*
X-474472Y702310D03*
X-423672Y724662D03*
X-474472Y724662D03*
D16*
X-597408Y402844D03*
X-572008Y402844D03*
X-546608Y402844D03*
X-521208Y402844D03*
X-495808Y402844D03*
X-470408Y402844D03*
X-445008Y402844D03*
X-419608Y402844D03*
M02*
