G04 EAGLE Gerber RS-274X export*
G75*
%MOMM*%
%FSLAX34Y34*%
%LPD*%
%INSoldermask Top*%
%IPPOS*%
%AMOC8*
5,1,8,0,0,1.08239X$1,22.5*%
G01*
%ADD10C,1.178200*%
%ADD11P,1.704548X8X112.500000*%
%ADD12P,2.144431X8X22.500000*%
%ADD13P,1.539592X8X202.500000*%
%ADD14P,1.951982X8X22.500000*%
%ADD15P,1.843527X8X22.500000*%
%ADD16R,1.268200X1.268200*%
%ADD17C,1.268200*%


D10*
X-257556Y665226D03*
X-257556Y652526D03*
X-257556Y639826D03*
X-257556Y627126D03*
X-257556Y614426D03*
X-257556Y601726D03*
X-257556Y589026D03*
X-257556Y576326D03*
X-257556Y563626D03*
X-257556Y550926D03*
X-270256Y550926D03*
X-270256Y563626D03*
X-270256Y576326D03*
X-270256Y589026D03*
X-270256Y601726D03*
X-270256Y614426D03*
X-270256Y627126D03*
X-270256Y639826D03*
X-270256Y652526D03*
X-270256Y665226D03*
X-13970Y670814D03*
X-13970Y658114D03*
X-13970Y645414D03*
X-13970Y632714D03*
X-13970Y620014D03*
X-13970Y607314D03*
X-13970Y594614D03*
X-13970Y581914D03*
X-13970Y569214D03*
X-13970Y556514D03*
X-26670Y556514D03*
X-26670Y569214D03*
X-26670Y581914D03*
X-26670Y594614D03*
X-26670Y607314D03*
X-26670Y620014D03*
X-26670Y632714D03*
X-26670Y645414D03*
X-26670Y658114D03*
X-26670Y670814D03*
D11*
X-786638Y488442D03*
X-761238Y488442D03*
X-786638Y513842D03*
X-761238Y513842D03*
X-786638Y539242D03*
X-761238Y539242D03*
X-786638Y564642D03*
X-761238Y564642D03*
X-786638Y590042D03*
X-761238Y590042D03*
X-786638Y615442D03*
X-761238Y615442D03*
X-786638Y640842D03*
X-761238Y640842D03*
X-786638Y666242D03*
X-761238Y666242D03*
X-786638Y691642D03*
X-761238Y691642D03*
X-786638Y717042D03*
X-761238Y717042D03*
X-885190Y486918D03*
X-859790Y486918D03*
X-885190Y512318D03*
X-859790Y512318D03*
X-885190Y537718D03*
X-859790Y537718D03*
X-885190Y563118D03*
X-859790Y563118D03*
X-885190Y588518D03*
X-859790Y588518D03*
X-885190Y613918D03*
X-859790Y613918D03*
X-885190Y639318D03*
X-859790Y639318D03*
X-885190Y664718D03*
X-859790Y664718D03*
X-885190Y690118D03*
X-859790Y690118D03*
X-885190Y715518D03*
X-859790Y715518D03*
X-596900Y514096D03*
X-622300Y514096D03*
X-596900Y539496D03*
X-622300Y539496D03*
X-596900Y564896D03*
X-622300Y564896D03*
X-596900Y590296D03*
X-622300Y590296D03*
X-596900Y615696D03*
X-622300Y615696D03*
X-596900Y641096D03*
X-622300Y641096D03*
X-596900Y666496D03*
X-622300Y666496D03*
X-596900Y691896D03*
X-622300Y691896D03*
D12*
X-409956Y493268D03*
X-409956Y518668D03*
X-409956Y544068D03*
X-409956Y569468D03*
X-409956Y594868D03*
X-409956Y620268D03*
X-409956Y645668D03*
X-409956Y671068D03*
X-409956Y696468D03*
X-409956Y721868D03*
D13*
X-439928Y521970D03*
X-490728Y521970D03*
X-439928Y544576D03*
X-490728Y544576D03*
X-439928Y567436D03*
X-490728Y567436D03*
X-439674Y590550D03*
X-490474Y590550D03*
X-439674Y612394D03*
X-490474Y612394D03*
X-439166Y635000D03*
X-489966Y635000D03*
X-439166Y657352D03*
X-489966Y657352D03*
X-438912Y679196D03*
X-489712Y679196D03*
X-506730Y533146D03*
X-557530Y533146D03*
X-506730Y555752D03*
X-557530Y555752D03*
X-506730Y578612D03*
X-557530Y578612D03*
X-506476Y601726D03*
X-557276Y601726D03*
X-506476Y623570D03*
X-557276Y623570D03*
X-505968Y646176D03*
X-556768Y646176D03*
X-505968Y668528D03*
X-556768Y668528D03*
X-505714Y690372D03*
X-556514Y690372D03*
D14*
X-691388Y506730D03*
X-665988Y506730D03*
X-691388Y534416D03*
X-665988Y534416D03*
X-691388Y561848D03*
X-665988Y561848D03*
X-691388Y589280D03*
X-665988Y589280D03*
X-691388Y616966D03*
X-665988Y616966D03*
X-691388Y644906D03*
X-665988Y644906D03*
X-691388Y673100D03*
X-665988Y673100D03*
X-691388Y701548D03*
X-665988Y701548D03*
D13*
X-438912Y701040D03*
X-489712Y701040D03*
X-438912Y723392D03*
X-489712Y723392D03*
D15*
X-597408Y402844D03*
X-572008Y402844D03*
X-546608Y402844D03*
X-521208Y402844D03*
X-495808Y402844D03*
X-470408Y402844D03*
X-445008Y402844D03*
X-419608Y402844D03*
D16*
X-377444Y405638D03*
D17*
X-364744Y405638D03*
X-377444Y418338D03*
X-364744Y418338D03*
X-377444Y431038D03*
X-364744Y431038D03*
X-377444Y443738D03*
X-364744Y443738D03*
X-377444Y456438D03*
X-364744Y456438D03*
X-377444Y469138D03*
X-364744Y469138D03*
X-377444Y481838D03*
X-364744Y481838D03*
X-377444Y494538D03*
X-364744Y494538D03*
D16*
X92710Y406146D03*
D17*
X105410Y406146D03*
X92710Y418846D03*
X105410Y418846D03*
X92710Y431546D03*
X105410Y431546D03*
X92710Y444246D03*
X105410Y444246D03*
X92710Y456946D03*
X105410Y456946D03*
X92710Y469646D03*
X105410Y469646D03*
X92710Y482346D03*
X105410Y482346D03*
X92710Y495046D03*
X105410Y495046D03*
D16*
X199898Y647700D03*
D17*
X212598Y647700D03*
X199898Y660400D03*
X212598Y660400D03*
X199898Y673100D03*
X212598Y673100D03*
X199898Y685800D03*
X212598Y685800D03*
X199898Y698500D03*
X212598Y698500D03*
X199898Y711200D03*
X212598Y711200D03*
X199898Y723900D03*
X212598Y723900D03*
X199898Y736600D03*
X212598Y736600D03*
M02*
