M48
;GenerationSoftware,Autodesk,EAGLE,9.6.2*%
;CreationDate,2021-06-30T16:39:42Z*%
FMAT,2
ICI,OFF
METRIC,TZ,000.000
T5C0.350
T4C0.900
T3C0.914
T2C1.016
T1C1.500
%
G90
M71
T1
X16739Y-27661
X7823Y19660
X30175Y-27686
X30175Y-20117
X30201Y19609
T2
X28067Y19787
X30226Y2311
X30226Y-229
X7823Y17513
X7823Y14973
X7823Y9893
X7823Y7353
X7823Y4813
X7823Y2273
X7823Y-267
X10287Y19787
X12827Y19787
X17907Y19787
X30226Y7391
X20447Y19787
X22987Y19787
X7823Y12433
X25527Y19787
X15367Y19787
X30226Y17551
X30226Y15011
X30226Y12471
X30226Y9931
X30226Y4851
T3
X27788Y-3658
X27788Y-6198
X25248Y-3658
X25248Y-6198
X22708Y-3658
X22708Y-6198
X20168Y-3658
X20168Y-6198
X17628Y-3658
X17628Y-6198
X15088Y-6198
X12548Y-3658
X10008Y-3658
X10008Y-6198
X15088Y-3658
X12548Y-6198
T4
X9957Y-11307
X9957Y-18107
T5
X27432Y-12516
X24072Y-23114
X23616Y-16383
X25121Y-23190
X23216Y-15240
X18161Y-23114
X21488Y-23139
X14707Y2718
X23927Y11303
X24841Y12294
X16053Y12593
X23063Y10516
X17729Y12265
X22250Y11836
X18999Y11481
X22174Y3825
X27635Y4293
X7925Y-10160
X8026Y-18415
X9093Y-24079
X21240Y-9398
X13614Y-27584
X17704Y-24613
X27813Y-22885
X23089Y-14072
X23165Y-8763
X17221Y1194
X15951Y1372
X14707Y1575
X13437Y51
X19050Y25
X10211Y-876
X27584Y-203
X25019Y-18491
X20041Y-22758
X22962Y4699
X7810Y-1753
X20879Y12167
X17551Y10998
X26010Y12421
X18948Y-27635
X10008Y-14834
X30734Y-18415
X30023Y-25070
X18136Y-12573
X10516Y-25451
X24562Y4648
X30150Y-5207
X30769Y-1791
X10465Y-22758
X13564Y9779
X14376Y10516
X15164Y9830
X15316Y10770
X17551Y9728
X19075Y9728
X27991Y2845
X30729Y-13188
X25984Y-12497
X28019Y1831
X30464Y-2654
X30005Y-12362
M30