M48
;GenerationSoftware,Autodesk,EAGLE,9.6.2*%
;CreationDate,2023-07-13T22:02:22Z*%
FMAT,2
ICI,OFF
METRIC,TZ,000.000
T7C0.350
T6C0.650
T5C0.710
T4C0.813
T3C1.000
T2C1.016
T1C3.000
%
G90
M71
T1
X67589Y28067
X67615Y14173
X14707Y14046
T2
X13310Y20752
X13310Y23292
X13310Y25832
X15850Y18212
X15850Y20752
X15850Y23292
X15850Y25832
X13310Y18212
T3
X54610Y18278
X37592Y18278
X37592Y23378
X54610Y23378
T4
X56591Y16027
X36271Y13386
X38811Y13386
X53213Y13310
X55753Y13310
X39700Y15900
X34620Y15900
X51511Y16027
X23571Y24541
X18491Y24541
X23586Y27117
X18506Y27117
X23576Y29159
X18496Y29159
T5
X6299Y29083
X5029Y29083
X6299Y30353
X5029Y30353
X6299Y31623
X5029Y31623
X5029Y26543
X6299Y22733
X5029Y22733
X6299Y24003
X5029Y24003
X6299Y25273
X5029Y25273
X6299Y26543
X6299Y27813
X5029Y27813
T6
X-35585Y24613
X-35585Y23343
X-36855Y23343
X-35585Y20803
X-35585Y19533
X-35585Y18263
X-35585Y16993
X-35585Y15723
X-35585Y14453
X-35585Y13183
X-36855Y13183
X-35585Y22073
X-36855Y14453
X-36855Y15723
X-36855Y16993
X-36855Y18263
X-36855Y19533
X-36855Y20803
X-36855Y22073
X-36855Y24613
T7
X2591Y20472
X33934Y23089
X-32258Y22225
M30