G04 EAGLE Gerber RS-274X export*
G75*
%MOMM*%
%FSLAX34Y34*%
%LPD*%
%INTop Copper*%
%IPPOS*%
%AMOC8*
5,1,8,0,0,1.08239X$1,22.5*%
G01*
%ADD10C,0.088500*%
%ADD11R,1.700000X1.325000*%
%ADD12R,1.150000X1.400000*%
%ADD13R,1.350000X0.400000*%
%ADD14R,2.100000X1.100000*%
%ADD15R,0.250000X0.350000*%
%ADD16R,0.350000X0.250000*%
%ADD17C,0.065000*%
%ADD18R,1.680000X1.680000*%
%ADD19C,0.504800*%
%ADD20R,1.200000X1.400000*%
%ADD21R,0.355600X0.660400*%
%ADD22R,0.800000X0.800000*%
%ADD23R,0.600000X0.500000*%
%ADD24C,0.075000*%
%ADD25R,0.500000X0.600000*%
%ADD26R,0.600000X1.550000*%
%ADD27R,1.200000X1.800000*%
%ADD28R,2.400000X0.760000*%
%ADD29R,1.500000X0.700000*%
%ADD30C,0.600000*%
%ADD31R,0.600000X0.600000*%
%ADD32R,1.500000X1.500000*%
%ADD33P,1.649562X8X22.500000*%
%ADD34C,0.152400*%

G36*
X386943Y422043D02*
X386943Y422043D01*
X386981Y422042D01*
X389484Y422239D01*
X389489Y422240D01*
X389495Y422240D01*
X389659Y422274D01*
X394421Y423821D01*
X394453Y423837D01*
X394487Y423846D01*
X394633Y423929D01*
X398683Y426872D01*
X398709Y426897D01*
X398739Y426916D01*
X398852Y427040D01*
X400833Y429766D01*
X400838Y429777D01*
X400846Y429786D01*
X400893Y429886D01*
X400943Y429986D01*
X400945Y429998D01*
X400950Y430009D01*
X400962Y430119D01*
X400978Y430230D01*
X400976Y430242D01*
X400977Y430253D01*
X400953Y430362D01*
X400933Y430472D01*
X400927Y430482D01*
X400925Y430494D01*
X400868Y430589D01*
X400813Y430687D01*
X400805Y430695D01*
X400798Y430705D01*
X400714Y430777D01*
X400632Y430852D01*
X400621Y430857D01*
X400612Y430865D01*
X400508Y430907D01*
X400406Y430951D01*
X400395Y430952D01*
X400383Y430957D01*
X400217Y430975D01*
X385635Y430975D01*
X384742Y431868D01*
X384742Y446381D01*
X385270Y446910D01*
X385312Y446968D01*
X385361Y447020D01*
X385383Y447067D01*
X385414Y447109D01*
X385435Y447178D01*
X385465Y447243D01*
X385471Y447295D01*
X385486Y447344D01*
X385484Y447416D01*
X385492Y447487D01*
X385481Y447538D01*
X385480Y447590D01*
X385455Y447658D01*
X385440Y447728D01*
X385413Y447772D01*
X385395Y447821D01*
X385350Y447877D01*
X385314Y447939D01*
X385274Y447973D01*
X385242Y448013D01*
X385181Y448052D01*
X385127Y448099D01*
X385078Y448118D01*
X385035Y448146D01*
X384965Y448164D01*
X384899Y448191D01*
X384827Y448199D01*
X384796Y448206D01*
X384773Y448205D01*
X384732Y448209D01*
X381932Y448209D01*
X381286Y448382D01*
X380707Y448717D01*
X380234Y449190D01*
X379899Y449769D01*
X379726Y450415D01*
X379726Y454727D01*
X392005Y454727D01*
X392024Y454730D01*
X392044Y454728D01*
X392145Y454750D01*
X392247Y454766D01*
X392265Y454776D01*
X392284Y454780D01*
X392373Y454833D01*
X392465Y454882D01*
X392478Y454896D01*
X392496Y454906D01*
X392563Y454985D01*
X392634Y455060D01*
X392642Y455078D01*
X392655Y455093D01*
X392694Y455189D01*
X392738Y455283D01*
X392740Y455303D01*
X392747Y455321D01*
X392766Y455488D01*
X392766Y456251D01*
X393529Y456251D01*
X393548Y456254D01*
X393568Y456252D01*
X393669Y456274D01*
X393771Y456291D01*
X393789Y456300D01*
X393808Y456304D01*
X393897Y456357D01*
X393989Y456406D01*
X394002Y456420D01*
X394020Y456430D01*
X394087Y456509D01*
X394158Y456584D01*
X394166Y456602D01*
X394179Y456617D01*
X394218Y456713D01*
X394262Y456807D01*
X394264Y456827D01*
X394271Y456845D01*
X394290Y457012D01*
X394290Y464291D01*
X402923Y464291D01*
X402942Y464294D01*
X402962Y464292D01*
X403063Y464314D01*
X403166Y464330D01*
X403183Y464340D01*
X403203Y464344D01*
X403292Y464397D01*
X403383Y464445D01*
X403397Y464460D01*
X403414Y464470D01*
X403481Y464549D01*
X403552Y464624D01*
X403561Y464642D01*
X403574Y464657D01*
X403612Y464753D01*
X403656Y464847D01*
X403658Y464867D01*
X403666Y464885D01*
X403684Y465052D01*
X403684Y480448D01*
X403681Y480468D01*
X403683Y480487D01*
X403661Y480589D01*
X403644Y480691D01*
X403635Y480708D01*
X403631Y480728D01*
X403578Y480817D01*
X403529Y480908D01*
X403515Y480922D01*
X403505Y480939D01*
X403426Y481006D01*
X403351Y481077D01*
X403333Y481086D01*
X403318Y481099D01*
X403221Y481138D01*
X403128Y481181D01*
X403108Y481183D01*
X403089Y481191D01*
X402923Y481209D01*
X394290Y481209D01*
X394290Y488488D01*
X394287Y488507D01*
X394289Y488527D01*
X394267Y488629D01*
X394250Y488731D01*
X394241Y488748D01*
X394237Y488768D01*
X394183Y488857D01*
X394135Y488948D01*
X394121Y488962D01*
X394110Y488979D01*
X394032Y489046D01*
X393957Y489117D01*
X393939Y489126D01*
X393923Y489139D01*
X393827Y489177D01*
X393734Y489221D01*
X393714Y489223D01*
X393695Y489231D01*
X393529Y489249D01*
X392766Y489249D01*
X392766Y490012D01*
X392763Y490032D01*
X392765Y490051D01*
X392743Y490153D01*
X392726Y490255D01*
X392717Y490272D01*
X392713Y490292D01*
X392659Y490381D01*
X392611Y490472D01*
X392597Y490486D01*
X392586Y490503D01*
X392508Y490570D01*
X392433Y490641D01*
X392415Y490650D01*
X392399Y490663D01*
X392303Y490701D01*
X392210Y490745D01*
X392190Y490747D01*
X392171Y490755D01*
X392005Y490773D01*
X379726Y490773D01*
X379726Y495084D01*
X379899Y495731D01*
X380234Y496310D01*
X380707Y496783D01*
X381286Y497117D01*
X381932Y497291D01*
X384732Y497291D01*
X384803Y497302D01*
X384874Y497304D01*
X384923Y497322D01*
X384975Y497330D01*
X385038Y497364D01*
X385105Y497389D01*
X385146Y497421D01*
X385192Y497445D01*
X385241Y497497D01*
X385297Y497542D01*
X385325Y497586D01*
X385361Y497624D01*
X385392Y497689D01*
X385430Y497749D01*
X385443Y497800D01*
X385465Y497847D01*
X385473Y497918D01*
X385490Y497988D01*
X385486Y498040D01*
X385492Y498091D01*
X385477Y498161D01*
X385471Y498233D01*
X385451Y498281D01*
X385440Y498332D01*
X385403Y498393D01*
X385375Y498459D01*
X385330Y498515D01*
X385314Y498543D01*
X385296Y498558D01*
X385270Y498590D01*
X384742Y499118D01*
X384742Y512889D01*
X384739Y512909D01*
X384741Y512929D01*
X384719Y513030D01*
X384702Y513132D01*
X384693Y513150D01*
X384689Y513169D01*
X384635Y513258D01*
X384587Y513349D01*
X384573Y513363D01*
X384562Y513380D01*
X384484Y513448D01*
X384409Y513519D01*
X384391Y513527D01*
X384376Y513540D01*
X384279Y513579D01*
X384186Y513622D01*
X384166Y513625D01*
X384147Y513632D01*
X383981Y513651D01*
X378968Y513651D01*
X378075Y514544D01*
X378075Y514604D01*
X378072Y514624D01*
X378074Y514643D01*
X378052Y514745D01*
X378035Y514847D01*
X378026Y514864D01*
X378022Y514884D01*
X377969Y514973D01*
X377920Y515064D01*
X377906Y515078D01*
X377896Y515095D01*
X377817Y515162D01*
X377742Y515234D01*
X377724Y515242D01*
X377709Y515255D01*
X377613Y515294D01*
X377519Y515337D01*
X377499Y515339D01*
X377481Y515347D01*
X377314Y515365D01*
X370784Y515365D01*
X370694Y515351D01*
X370603Y515343D01*
X370574Y515331D01*
X370542Y515326D01*
X370461Y515283D01*
X370377Y515247D01*
X370345Y515221D01*
X370324Y515210D01*
X370302Y515187D01*
X370246Y515142D01*
X368636Y513532D01*
X365282Y513532D01*
X362910Y515904D01*
X362910Y519258D01*
X365282Y521629D01*
X368636Y521629D01*
X370103Y520162D01*
X370177Y520109D01*
X370247Y520049D01*
X370277Y520037D01*
X370303Y520018D01*
X370390Y519991D01*
X370475Y519957D01*
X370516Y519953D01*
X370538Y519946D01*
X370570Y519947D01*
X370642Y519939D01*
X377314Y519939D01*
X377334Y519942D01*
X377353Y519940D01*
X377455Y519962D01*
X377557Y519978D01*
X377574Y519988D01*
X377594Y519992D01*
X377683Y520045D01*
X377774Y520094D01*
X377788Y520108D01*
X377805Y520118D01*
X377872Y520197D01*
X377943Y520272D01*
X377952Y520290D01*
X377965Y520305D01*
X378003Y520401D01*
X378047Y520495D01*
X378049Y520515D01*
X378057Y520533D01*
X378075Y520700D01*
X378075Y523407D01*
X378968Y524300D01*
X402923Y524300D01*
X402942Y524303D01*
X402962Y524301D01*
X403063Y524323D01*
X403166Y524340D01*
X403183Y524349D01*
X403203Y524353D01*
X403292Y524407D01*
X403383Y524455D01*
X403397Y524469D01*
X403414Y524479D01*
X403481Y524558D01*
X403552Y524633D01*
X403561Y524651D01*
X403574Y524666D01*
X403612Y524763D01*
X403656Y524856D01*
X403658Y524876D01*
X403666Y524895D01*
X403684Y525061D01*
X403684Y525589D01*
X403682Y525601D01*
X403683Y525609D01*
X403682Y525616D01*
X403683Y525629D01*
X403661Y525730D01*
X403644Y525832D01*
X403635Y525850D01*
X403631Y525869D01*
X403578Y525958D01*
X403529Y526049D01*
X403515Y526063D01*
X403505Y526080D01*
X403426Y526148D01*
X403351Y526219D01*
X403333Y526227D01*
X403318Y526240D01*
X403221Y526279D01*
X403128Y526322D01*
X403108Y526325D01*
X403089Y526332D01*
X402923Y526351D01*
X378968Y526351D01*
X378075Y527244D01*
X378075Y529778D01*
X378060Y529869D01*
X378053Y529959D01*
X378041Y529989D01*
X378035Y530021D01*
X377993Y530102D01*
X377957Y530186D01*
X377931Y530218D01*
X377920Y530239D01*
X377897Y530261D01*
X377852Y530317D01*
X375942Y532227D01*
X375868Y532280D01*
X375798Y532340D01*
X375768Y532352D01*
X375742Y532371D01*
X375655Y532397D01*
X375570Y532432D01*
X375529Y532436D01*
X375507Y532443D01*
X375475Y532442D01*
X375403Y532450D01*
X373227Y532450D01*
X370855Y534822D01*
X370855Y538176D01*
X373227Y540548D01*
X376581Y540548D01*
X376776Y540353D01*
X376834Y540311D01*
X376886Y540262D01*
X376933Y540240D01*
X376975Y540209D01*
X377044Y540188D01*
X377109Y540158D01*
X377161Y540152D01*
X377210Y540137D01*
X377282Y540139D01*
X377353Y540131D01*
X377404Y540142D01*
X377456Y540143D01*
X377524Y540168D01*
X377594Y540183D01*
X377638Y540210D01*
X377687Y540228D01*
X377743Y540273D01*
X377805Y540309D01*
X377839Y540349D01*
X377879Y540382D01*
X377918Y540442D01*
X377965Y540496D01*
X377984Y540545D01*
X378012Y540588D01*
X378030Y540658D01*
X378057Y540725D01*
X378065Y540796D01*
X378072Y540827D01*
X378071Y540850D01*
X378075Y540891D01*
X378075Y541327D01*
X378072Y541347D01*
X378074Y541367D01*
X378052Y541468D01*
X378035Y541570D01*
X378026Y541588D01*
X378022Y541607D01*
X377969Y541696D01*
X377920Y541787D01*
X377906Y541801D01*
X377896Y541818D01*
X377817Y541886D01*
X377742Y541957D01*
X377724Y541965D01*
X377709Y541978D01*
X377613Y542017D01*
X377519Y542060D01*
X377499Y542063D01*
X377481Y542070D01*
X377314Y542089D01*
X376621Y542089D01*
X375891Y542819D01*
X375817Y542872D01*
X375748Y542931D01*
X375717Y542944D01*
X375691Y542962D01*
X375604Y542989D01*
X375519Y543023D01*
X375478Y543028D01*
X375456Y543035D01*
X375424Y543034D01*
X375353Y543042D01*
X373176Y543042D01*
X370804Y545414D01*
X370804Y548768D01*
X373176Y551139D01*
X376530Y551139D01*
X377931Y549739D01*
X377947Y549727D01*
X377959Y549712D01*
X378046Y549656D01*
X378130Y549595D01*
X378149Y549590D01*
X378166Y549579D01*
X378267Y549553D01*
X378365Y549523D01*
X378385Y549524D01*
X378405Y549519D01*
X378508Y549527D01*
X378611Y549529D01*
X378630Y549536D01*
X378650Y549538D01*
X378745Y549578D01*
X378842Y549614D01*
X378858Y549626D01*
X378876Y549634D01*
X378959Y549700D01*
X402923Y549700D01*
X402942Y549703D01*
X402962Y549701D01*
X403063Y549723D01*
X403166Y549740D01*
X403183Y549749D01*
X403203Y549753D01*
X403292Y549807D01*
X403383Y549855D01*
X403397Y549869D01*
X403414Y549879D01*
X403481Y549958D01*
X403552Y550033D01*
X403561Y550051D01*
X403574Y550066D01*
X403612Y550163D01*
X403656Y550256D01*
X403658Y550276D01*
X403666Y550295D01*
X403684Y550461D01*
X403684Y550989D01*
X403681Y551009D01*
X403683Y551029D01*
X403661Y551130D01*
X403644Y551232D01*
X403635Y551250D01*
X403631Y551269D01*
X403578Y551358D01*
X403529Y551449D01*
X403515Y551463D01*
X403505Y551480D01*
X403426Y551548D01*
X403351Y551619D01*
X403333Y551627D01*
X403318Y551640D01*
X403221Y551679D01*
X403128Y551722D01*
X403108Y551725D01*
X403089Y551732D01*
X402923Y551751D01*
X378968Y551751D01*
X378075Y552644D01*
X378075Y554027D01*
X378072Y554047D01*
X378074Y554067D01*
X378052Y554168D01*
X378035Y554270D01*
X378026Y554288D01*
X378022Y554307D01*
X377969Y554396D01*
X377920Y554487D01*
X377906Y554501D01*
X377896Y554518D01*
X377817Y554586D01*
X377742Y554657D01*
X377724Y554665D01*
X377709Y554678D01*
X377613Y554717D01*
X377519Y554760D01*
X377499Y554763D01*
X377481Y554770D01*
X377314Y554789D01*
X376756Y554789D01*
X376666Y554774D01*
X376575Y554767D01*
X376560Y554760D01*
X373058Y554760D01*
X370687Y557132D01*
X370687Y560486D01*
X373058Y562858D01*
X376412Y562858D01*
X377381Y561889D01*
X377397Y561878D01*
X377410Y561862D01*
X377497Y561806D01*
X377581Y561746D01*
X377600Y561740D01*
X377616Y561729D01*
X377717Y561704D01*
X377816Y561673D01*
X377836Y561674D01*
X377855Y561669D01*
X377958Y561677D01*
X378062Y561680D01*
X378080Y561687D01*
X378100Y561688D01*
X378195Y561728D01*
X378293Y561764D01*
X378308Y561777D01*
X378327Y561784D01*
X378457Y561889D01*
X378968Y562400D01*
X402923Y562400D01*
X402942Y562403D01*
X402962Y562401D01*
X403063Y562423D01*
X403166Y562440D01*
X403183Y562449D01*
X403203Y562453D01*
X403292Y562507D01*
X403383Y562555D01*
X403397Y562569D01*
X403414Y562579D01*
X403481Y562658D01*
X403552Y562733D01*
X403561Y562751D01*
X403574Y562766D01*
X403612Y562863D01*
X403656Y562956D01*
X403658Y562976D01*
X403666Y562995D01*
X403684Y563161D01*
X403684Y563689D01*
X403681Y563709D01*
X403683Y563729D01*
X403661Y563830D01*
X403644Y563932D01*
X403635Y563950D01*
X403631Y563969D01*
X403578Y564058D01*
X403529Y564149D01*
X403515Y564163D01*
X403505Y564180D01*
X403426Y564248D01*
X403351Y564319D01*
X403333Y564327D01*
X403318Y564340D01*
X403221Y564379D01*
X403128Y564422D01*
X403108Y564425D01*
X403089Y564432D01*
X402923Y564451D01*
X378968Y564451D01*
X378075Y565344D01*
X378075Y565914D01*
X378064Y565984D01*
X378062Y566056D01*
X378044Y566105D01*
X378035Y566156D01*
X378002Y566220D01*
X377977Y566287D01*
X377945Y566328D01*
X377920Y566374D01*
X377868Y566423D01*
X377823Y566479D01*
X377780Y566507D01*
X377742Y566543D01*
X377677Y566574D01*
X377616Y566612D01*
X377566Y566625D01*
X377519Y566647D01*
X377448Y566655D01*
X377378Y566672D01*
X377326Y566668D01*
X377274Y566674D01*
X377204Y566659D01*
X377133Y566653D01*
X377085Y566633D01*
X377034Y566622D01*
X377020Y566613D01*
X373583Y566613D01*
X371211Y568985D01*
X371211Y572339D01*
X373583Y574711D01*
X376937Y574711D01*
X377219Y574428D01*
X377236Y574416D01*
X377248Y574401D01*
X377335Y574345D01*
X377419Y574284D01*
X377438Y574278D01*
X377455Y574268D01*
X377555Y574242D01*
X377654Y574212D01*
X377674Y574212D01*
X377693Y574207D01*
X377796Y574215D01*
X377900Y574218D01*
X377919Y574225D01*
X377939Y574227D01*
X378034Y574267D01*
X378131Y574303D01*
X378147Y574315D01*
X378165Y574323D01*
X378296Y574428D01*
X378968Y575100D01*
X402923Y575100D01*
X402942Y575103D01*
X402962Y575101D01*
X403063Y575123D01*
X403166Y575140D01*
X403183Y575149D01*
X403203Y575153D01*
X403292Y575207D01*
X403383Y575255D01*
X403397Y575269D01*
X403414Y575279D01*
X403481Y575358D01*
X403552Y575433D01*
X403561Y575451D01*
X403574Y575466D01*
X403612Y575563D01*
X403656Y575656D01*
X403658Y575676D01*
X403666Y575695D01*
X403684Y575861D01*
X403684Y576389D01*
X403681Y576409D01*
X403683Y576429D01*
X403661Y576530D01*
X403644Y576632D01*
X403635Y576650D01*
X403631Y576669D01*
X403578Y576758D01*
X403529Y576849D01*
X403515Y576863D01*
X403505Y576880D01*
X403426Y576948D01*
X403351Y577019D01*
X403333Y577027D01*
X403318Y577040D01*
X403221Y577079D01*
X403128Y577122D01*
X403108Y577125D01*
X403089Y577132D01*
X402923Y577151D01*
X378968Y577151D01*
X378075Y578044D01*
X378075Y579427D01*
X378072Y579447D01*
X378074Y579467D01*
X378052Y579568D01*
X378035Y579670D01*
X378026Y579688D01*
X378022Y579707D01*
X377969Y579796D01*
X377920Y579887D01*
X377906Y579901D01*
X377896Y579918D01*
X377817Y579986D01*
X377742Y580057D01*
X377724Y580065D01*
X377709Y580078D01*
X377613Y580117D01*
X377519Y580160D01*
X377499Y580163D01*
X377481Y580170D01*
X377314Y580189D01*
X376199Y580189D01*
X376161Y580200D01*
X376076Y580234D01*
X376035Y580239D01*
X376013Y580246D01*
X375980Y580245D01*
X375909Y580253D01*
X373733Y580253D01*
X371361Y582625D01*
X371361Y585979D01*
X373733Y588350D01*
X377087Y588350D01*
X377764Y587673D01*
X377781Y587661D01*
X377793Y587645D01*
X377880Y587589D01*
X377964Y587529D01*
X377983Y587523D01*
X378000Y587512D01*
X378100Y587487D01*
X378199Y587457D01*
X378219Y587457D01*
X378238Y587452D01*
X378341Y587460D01*
X378445Y587463D01*
X378464Y587470D01*
X378484Y587472D01*
X378579Y587512D01*
X378676Y587548D01*
X378692Y587560D01*
X378710Y587568D01*
X378841Y587673D01*
X378968Y587800D01*
X402923Y587800D01*
X402942Y587803D01*
X402962Y587801D01*
X403063Y587823D01*
X403166Y587840D01*
X403183Y587849D01*
X403203Y587853D01*
X403292Y587907D01*
X403383Y587955D01*
X403397Y587969D01*
X403414Y587979D01*
X403481Y588058D01*
X403552Y588133D01*
X403561Y588151D01*
X403574Y588166D01*
X403612Y588262D01*
X403656Y588356D01*
X403658Y588376D01*
X403666Y588395D01*
X403684Y588561D01*
X403684Y589089D01*
X403681Y589109D01*
X403683Y589129D01*
X403661Y589230D01*
X403644Y589332D01*
X403635Y589350D01*
X403631Y589369D01*
X403578Y589458D01*
X403529Y589549D01*
X403515Y589563D01*
X403505Y589580D01*
X403426Y589648D01*
X403351Y589719D01*
X403333Y589727D01*
X403318Y589740D01*
X403221Y589779D01*
X403128Y589822D01*
X403108Y589825D01*
X403089Y589832D01*
X402923Y589851D01*
X378968Y589851D01*
X378404Y590415D01*
X378388Y590427D01*
X378375Y590442D01*
X378288Y590498D01*
X378204Y590558D01*
X378185Y590564D01*
X378168Y590575D01*
X378068Y590600D01*
X377969Y590631D01*
X377949Y590630D01*
X377930Y590635D01*
X377827Y590627D01*
X377723Y590624D01*
X377704Y590618D01*
X377685Y590616D01*
X377590Y590576D01*
X377492Y590540D01*
X377477Y590528D01*
X377458Y590520D01*
X377327Y590415D01*
X376858Y589945D01*
X373504Y589945D01*
X371132Y592317D01*
X371132Y595671D01*
X373504Y598043D01*
X376876Y598043D01*
X376886Y598034D01*
X376933Y598012D01*
X376975Y597982D01*
X377044Y597961D01*
X377109Y597930D01*
X377161Y597925D01*
X377210Y597909D01*
X377282Y597911D01*
X377353Y597903D01*
X377404Y597914D01*
X377456Y597916D01*
X377524Y597940D01*
X377594Y597956D01*
X377638Y597982D01*
X377687Y598000D01*
X377743Y598045D01*
X377805Y598082D01*
X377839Y598121D01*
X377879Y598154D01*
X377918Y598214D01*
X377965Y598269D01*
X377984Y598317D01*
X378012Y598361D01*
X378030Y598430D01*
X378057Y598497D01*
X378065Y598568D01*
X378072Y598599D01*
X378071Y598623D01*
X378075Y598664D01*
X378075Y599607D01*
X378968Y600500D01*
X402923Y600500D01*
X402942Y600503D01*
X402962Y600501D01*
X403063Y600523D01*
X403166Y600540D01*
X403183Y600549D01*
X403203Y600553D01*
X403292Y600607D01*
X403383Y600655D01*
X403397Y600669D01*
X403414Y600679D01*
X403481Y600758D01*
X403552Y600833D01*
X403561Y600851D01*
X403574Y600866D01*
X403612Y600963D01*
X403656Y601056D01*
X403658Y601076D01*
X403666Y601095D01*
X403684Y601261D01*
X403684Y601789D01*
X403681Y601809D01*
X403683Y601829D01*
X403661Y601930D01*
X403644Y602032D01*
X403635Y602050D01*
X403631Y602069D01*
X403578Y602158D01*
X403529Y602249D01*
X403515Y602263D01*
X403505Y602280D01*
X403426Y602348D01*
X403351Y602419D01*
X403333Y602427D01*
X403318Y602440D01*
X403221Y602479D01*
X403128Y602522D01*
X403108Y602525D01*
X403089Y602532D01*
X402923Y602551D01*
X378968Y602551D01*
X378075Y603444D01*
X378075Y605171D01*
X378072Y605191D01*
X378074Y605210D01*
X378052Y605312D01*
X378035Y605414D01*
X378026Y605431D01*
X378022Y605451D01*
X377969Y605540D01*
X377920Y605631D01*
X377906Y605645D01*
X377896Y605662D01*
X377817Y605729D01*
X377742Y605801D01*
X377724Y605809D01*
X377709Y605822D01*
X377613Y605861D01*
X377519Y605904D01*
X377499Y605906D01*
X377481Y605914D01*
X377314Y605932D01*
X373733Y605932D01*
X371361Y608304D01*
X371361Y611658D01*
X373733Y614030D01*
X377087Y614030D01*
X377904Y613212D01*
X377920Y613201D01*
X377933Y613185D01*
X378020Y613129D01*
X378104Y613069D01*
X378123Y613063D01*
X378140Y613052D01*
X378240Y613027D01*
X378339Y612996D01*
X378359Y612997D01*
X378378Y612992D01*
X378481Y613000D01*
X378585Y613003D01*
X378604Y613010D01*
X378623Y613011D01*
X378718Y613052D01*
X378816Y613087D01*
X378831Y613100D01*
X378850Y613108D01*
X378965Y613200D01*
X402923Y613200D01*
X402942Y613203D01*
X402962Y613201D01*
X403063Y613223D01*
X403166Y613240D01*
X403183Y613249D01*
X403203Y613253D01*
X403292Y613307D01*
X403383Y613355D01*
X403397Y613369D01*
X403414Y613379D01*
X403481Y613458D01*
X403552Y613533D01*
X403561Y613551D01*
X403574Y613566D01*
X403612Y613663D01*
X403656Y613756D01*
X403658Y613776D01*
X403666Y613795D01*
X403684Y613961D01*
X403684Y614489D01*
X403681Y614509D01*
X403683Y614529D01*
X403661Y614630D01*
X403644Y614732D01*
X403635Y614750D01*
X403631Y614769D01*
X403578Y614858D01*
X403529Y614949D01*
X403515Y614963D01*
X403505Y614980D01*
X403426Y615048D01*
X403351Y615119D01*
X403333Y615127D01*
X403318Y615140D01*
X403221Y615179D01*
X403128Y615222D01*
X403108Y615225D01*
X403089Y615232D01*
X402923Y615251D01*
X378968Y615251D01*
X378075Y616144D01*
X378075Y617220D01*
X378072Y617240D01*
X378074Y617259D01*
X378052Y617361D01*
X378035Y617463D01*
X378026Y617480D01*
X378022Y617500D01*
X377969Y617589D01*
X377920Y617680D01*
X377906Y617694D01*
X377896Y617711D01*
X377817Y617778D01*
X377742Y617850D01*
X377724Y617858D01*
X377709Y617871D01*
X377613Y617910D01*
X377519Y617953D01*
X377499Y617955D01*
X377481Y617963D01*
X377314Y617981D01*
X353797Y617981D01*
X353777Y617978D01*
X353757Y617980D01*
X353656Y617958D01*
X353554Y617942D01*
X353536Y617932D01*
X353517Y617928D01*
X353428Y617875D01*
X353336Y617826D01*
X353323Y617812D01*
X353306Y617802D01*
X353238Y617723D01*
X353167Y617648D01*
X353159Y617630D01*
X353146Y617615D01*
X353107Y617519D01*
X353063Y617425D01*
X353061Y617405D01*
X353054Y617387D01*
X353035Y617220D01*
X353035Y613024D01*
X353050Y612934D01*
X353057Y612843D01*
X353070Y612813D01*
X353075Y612781D01*
X353118Y612701D01*
X353153Y612617D01*
X353179Y612585D01*
X353190Y612564D01*
X353214Y612542D01*
X353258Y612486D01*
X354797Y610947D01*
X354797Y607593D01*
X352426Y605221D01*
X349072Y605221D01*
X347424Y606869D01*
X347366Y606910D01*
X347314Y606960D01*
X347267Y606982D01*
X347224Y607012D01*
X347156Y607033D01*
X347091Y607063D01*
X347039Y607069D01*
X346989Y607084D01*
X346918Y607083D01*
X346846Y607090D01*
X346796Y607079D01*
X346743Y607078D01*
X346676Y607053D01*
X346606Y607038D01*
X346561Y607011D01*
X346512Y606994D01*
X346456Y606949D01*
X346395Y606912D01*
X346361Y606872D01*
X346320Y606840D01*
X346282Y606780D01*
X346235Y606725D01*
X346216Y606677D01*
X346187Y606633D01*
X346170Y606564D01*
X346143Y606497D01*
X346135Y606426D01*
X346127Y606394D01*
X346129Y606371D01*
X346125Y606330D01*
X346125Y603444D01*
X345231Y602551D01*
X322672Y602551D01*
X322583Y602536D01*
X322491Y602529D01*
X322462Y602516D01*
X322430Y602511D01*
X322349Y602468D01*
X322265Y602432D01*
X322233Y602407D01*
X322212Y602396D01*
X322190Y602373D01*
X322134Y602328D01*
X321606Y601800D01*
X321564Y601741D01*
X321515Y601689D01*
X321493Y601642D01*
X321463Y601600D01*
X321441Y601531D01*
X321411Y601466D01*
X321406Y601415D01*
X321390Y601365D01*
X321392Y601293D01*
X321384Y601222D01*
X321395Y601171D01*
X321397Y601119D01*
X321421Y601052D01*
X321436Y600981D01*
X321463Y600937D01*
X321481Y600888D01*
X321526Y600832D01*
X321563Y600770D01*
X321602Y600736D01*
X321635Y600696D01*
X321695Y600657D01*
X321750Y600610D01*
X321798Y600591D01*
X321842Y600563D01*
X321911Y600545D01*
X321978Y600518D01*
X322049Y600511D01*
X322080Y600503D01*
X322103Y600505D01*
X322144Y600500D01*
X345231Y600500D01*
X346125Y599607D01*
X346125Y590744D01*
X345231Y589851D01*
X322190Y589851D01*
X322100Y589836D01*
X322009Y589829D01*
X321979Y589816D01*
X321947Y589811D01*
X321867Y589768D01*
X321783Y589732D01*
X321750Y589707D01*
X321730Y589696D01*
X321708Y589673D01*
X321652Y589628D01*
X321124Y589100D01*
X321082Y589041D01*
X321032Y588989D01*
X321010Y588942D01*
X320980Y588900D01*
X320959Y588831D01*
X320929Y588766D01*
X320923Y588715D01*
X320908Y588665D01*
X320909Y588593D01*
X320902Y588522D01*
X320913Y588471D01*
X320914Y588419D01*
X320939Y588352D01*
X320954Y588281D01*
X320981Y588237D01*
X320998Y588188D01*
X321043Y588132D01*
X321080Y588070D01*
X321120Y588036D01*
X321152Y587996D01*
X321212Y587957D01*
X321267Y587910D01*
X321315Y587891D01*
X321359Y587863D01*
X321428Y587845D01*
X321495Y587818D01*
X321566Y587811D01*
X321598Y587803D01*
X321621Y587805D01*
X321662Y587800D01*
X345231Y587800D01*
X346125Y586907D01*
X346125Y578044D01*
X345231Y577151D01*
X322413Y577151D01*
X322323Y577136D01*
X322232Y577129D01*
X322203Y577116D01*
X322171Y577111D01*
X322090Y577068D01*
X322006Y577032D01*
X321974Y577007D01*
X321953Y576996D01*
X321931Y576972D01*
X321875Y576928D01*
X321347Y576400D01*
X321305Y576341D01*
X321256Y576289D01*
X321234Y576242D01*
X321204Y576200D01*
X321182Y576131D01*
X321152Y576066D01*
X321146Y576015D01*
X321131Y575965D01*
X321133Y575893D01*
X321125Y575822D01*
X321136Y575771D01*
X321138Y575719D01*
X321162Y575651D01*
X321177Y575581D01*
X321204Y575537D01*
X321222Y575488D01*
X321267Y575432D01*
X321304Y575370D01*
X321343Y575336D01*
X321376Y575296D01*
X321436Y575257D01*
X321490Y575210D01*
X321539Y575191D01*
X321583Y575163D01*
X321652Y575145D01*
X321719Y575118D01*
X321790Y575111D01*
X321821Y575103D01*
X321844Y575105D01*
X321885Y575100D01*
X345231Y575100D01*
X346125Y574207D01*
X346125Y565344D01*
X345231Y564451D01*
X320220Y564451D01*
X320200Y564447D01*
X320180Y564450D01*
X320079Y564428D01*
X319977Y564411D01*
X319960Y564402D01*
X319940Y564397D01*
X319851Y564344D01*
X319760Y564296D01*
X319746Y564281D01*
X319729Y564271D01*
X319662Y564192D01*
X319590Y564117D01*
X319582Y564099D01*
X319569Y564084D01*
X319530Y563988D01*
X319487Y563894D01*
X319485Y563875D01*
X319477Y563856D01*
X319459Y563689D01*
X319459Y563161D01*
X319462Y563142D01*
X319460Y563122D01*
X319482Y563021D01*
X319498Y562919D01*
X319508Y562901D01*
X319512Y562881D01*
X319565Y562792D01*
X319613Y562701D01*
X319628Y562687D01*
X319638Y562670D01*
X319717Y562603D01*
X319792Y562532D01*
X319810Y562523D01*
X319825Y562510D01*
X319921Y562472D01*
X320015Y562428D01*
X320035Y562426D01*
X320053Y562418D01*
X320220Y562400D01*
X345231Y562400D01*
X346125Y561507D01*
X346125Y552644D01*
X345231Y551751D01*
X320220Y551751D01*
X320200Y551747D01*
X320180Y551750D01*
X320079Y551728D01*
X319977Y551711D01*
X319960Y551702D01*
X319940Y551697D01*
X319851Y551644D01*
X319760Y551596D01*
X319746Y551581D01*
X319729Y551571D01*
X319662Y551492D01*
X319590Y551417D01*
X319582Y551399D01*
X319569Y551384D01*
X319530Y551288D01*
X319487Y551194D01*
X319485Y551175D01*
X319477Y551156D01*
X319459Y550989D01*
X319459Y550461D01*
X319462Y550442D01*
X319460Y550422D01*
X319482Y550321D01*
X319498Y550219D01*
X319508Y550201D01*
X319512Y550181D01*
X319565Y550092D01*
X319613Y550001D01*
X319628Y549987D01*
X319638Y549970D01*
X319717Y549903D01*
X319792Y549832D01*
X319810Y549823D01*
X319825Y549810D01*
X319921Y549772D01*
X320015Y549728D01*
X320035Y549726D01*
X320053Y549718D01*
X320220Y549700D01*
X345231Y549700D01*
X346125Y548807D01*
X346125Y548576D01*
X346136Y548505D01*
X346138Y548433D01*
X346156Y548384D01*
X346164Y548333D01*
X346198Y548270D01*
X346222Y548202D01*
X346255Y548162D01*
X346279Y548116D01*
X346331Y548066D01*
X346376Y548010D01*
X346420Y547982D01*
X346458Y547946D01*
X346523Y547916D01*
X346583Y547877D01*
X346634Y547865D01*
X346681Y547843D01*
X346752Y547835D01*
X346822Y547817D01*
X346874Y547821D01*
X346925Y547816D01*
X346995Y547831D01*
X347067Y547836D01*
X347115Y547857D01*
X347166Y547868D01*
X347227Y547905D01*
X347293Y547933D01*
X347349Y547978D01*
X347377Y547994D01*
X347392Y548012D01*
X347424Y548038D01*
X347768Y548382D01*
X351123Y548382D01*
X352117Y547387D01*
X352133Y547376D01*
X352146Y547360D01*
X352233Y547304D01*
X352317Y547244D01*
X352336Y547238D01*
X352353Y547227D01*
X352453Y547202D01*
X352552Y547171D01*
X352572Y547172D01*
X352591Y547167D01*
X352694Y547175D01*
X352798Y547178D01*
X352817Y547185D01*
X352837Y547186D01*
X352931Y547226D01*
X353029Y547262D01*
X353045Y547275D01*
X353063Y547282D01*
X353194Y547387D01*
X354660Y548854D01*
X358014Y548854D01*
X360386Y546482D01*
X360386Y543128D01*
X358014Y540756D01*
X357455Y540756D01*
X357435Y540753D01*
X357416Y540755D01*
X357314Y540733D01*
X357212Y540717D01*
X357195Y540707D01*
X357175Y540703D01*
X357086Y540650D01*
X356995Y540602D01*
X356981Y540587D01*
X356964Y540577D01*
X356897Y540498D01*
X356825Y540423D01*
X356817Y540405D01*
X356804Y540390D01*
X356765Y540294D01*
X356722Y540200D01*
X356720Y540180D01*
X356712Y540162D01*
X356694Y539995D01*
X356694Y526994D01*
X356708Y526904D01*
X356716Y526813D01*
X356728Y526784D01*
X356733Y526752D01*
X356776Y526671D01*
X356812Y526587D01*
X356838Y526555D01*
X356849Y526534D01*
X356872Y526512D01*
X356917Y526456D01*
X359065Y524307D01*
X359065Y520953D01*
X356694Y518582D01*
X353340Y518582D01*
X350968Y520953D01*
X350968Y521503D01*
X350965Y521523D01*
X350967Y521543D01*
X350945Y521644D01*
X350928Y521746D01*
X350919Y521764D01*
X350915Y521783D01*
X350861Y521872D01*
X350813Y521964D01*
X350799Y521977D01*
X350788Y521994D01*
X350710Y522062D01*
X350635Y522133D01*
X350617Y522141D01*
X350601Y522154D01*
X350505Y522193D01*
X350412Y522237D01*
X350392Y522239D01*
X350373Y522246D01*
X350207Y522265D01*
X347522Y522265D01*
X347424Y522363D01*
X347366Y522405D01*
X347314Y522454D01*
X347267Y522476D01*
X347224Y522506D01*
X347156Y522527D01*
X347091Y522558D01*
X347039Y522563D01*
X346989Y522579D01*
X346918Y522577D01*
X346846Y522585D01*
X346795Y522574D01*
X346743Y522572D01*
X346676Y522548D01*
X346606Y522532D01*
X346561Y522506D01*
X346512Y522488D01*
X346456Y522443D01*
X346395Y522406D01*
X346361Y522367D01*
X346320Y522334D01*
X346282Y522274D01*
X346235Y522219D01*
X346215Y522171D01*
X346187Y522127D01*
X346170Y522058D01*
X346143Y521991D01*
X346135Y521920D01*
X346127Y521889D01*
X346129Y521865D01*
X346125Y521824D01*
X346125Y514544D01*
X345231Y513651D01*
X338049Y513651D01*
X337978Y513639D01*
X337906Y513637D01*
X337857Y513619D01*
X337806Y513611D01*
X337743Y513577D01*
X337675Y513553D01*
X337635Y513520D01*
X337589Y513496D01*
X337540Y513444D01*
X337483Y513399D01*
X337455Y513355D01*
X337419Y513317D01*
X337389Y513252D01*
X337350Y513192D01*
X337338Y513142D01*
X337316Y513094D01*
X337308Y513023D01*
X337290Y512953D01*
X337294Y512902D01*
X337289Y512850D01*
X337304Y512780D01*
X337310Y512708D01*
X337330Y512660D01*
X337341Y512609D01*
X337378Y512548D01*
X337406Y512482D01*
X337451Y512426D01*
X337467Y512398D01*
X337485Y512383D01*
X337502Y512361D01*
X337502Y509005D01*
X335131Y506633D01*
X335117Y506633D01*
X335070Y506626D01*
X335022Y506627D01*
X334949Y506606D01*
X334874Y506594D01*
X334832Y506571D01*
X334786Y506558D01*
X334724Y506514D01*
X334657Y506479D01*
X334624Y506444D01*
X334585Y506416D01*
X334540Y506355D01*
X334488Y506300D01*
X334467Y506257D01*
X334439Y506218D01*
X334416Y506146D01*
X334384Y506077D01*
X334379Y506030D01*
X334364Y505984D01*
X334365Y505908D01*
X334357Y505833D01*
X334367Y505786D01*
X334368Y505738D01*
X334393Y505666D01*
X334409Y505592D01*
X334434Y505551D01*
X334450Y505506D01*
X334496Y505446D01*
X334535Y505381D01*
X334572Y505350D01*
X334601Y505312D01*
X334705Y505236D01*
X334722Y505221D01*
X334728Y505219D01*
X334737Y505213D01*
X334932Y505100D01*
X335152Y504880D01*
X335226Y504827D01*
X335296Y504767D01*
X335326Y504755D01*
X335352Y504736D01*
X335439Y504710D01*
X335524Y504675D01*
X335565Y504671D01*
X335587Y504664D01*
X335619Y504665D01*
X335690Y504657D01*
X338938Y504657D01*
X339215Y504380D01*
X339231Y504369D01*
X339243Y504353D01*
X339331Y504297D01*
X339414Y504237D01*
X339433Y504231D01*
X339450Y504220D01*
X339551Y504195D01*
X339649Y504165D01*
X339669Y504165D01*
X339689Y504160D01*
X339792Y504168D01*
X339895Y504171D01*
X339914Y504178D01*
X339934Y504179D01*
X340029Y504220D01*
X340126Y504255D01*
X340142Y504268D01*
X340160Y504276D01*
X340291Y504380D01*
X341133Y505223D01*
X345311Y505223D01*
X345401Y505237D01*
X345492Y505245D01*
X345522Y505257D01*
X345554Y505262D01*
X345635Y505305D01*
X345719Y505341D01*
X345751Y505367D01*
X345771Y505378D01*
X345794Y505401D01*
X345850Y505446D01*
X347389Y506985D01*
X350743Y506985D01*
X353114Y504613D01*
X353114Y501259D01*
X350743Y498887D01*
X347389Y498887D01*
X345850Y500426D01*
X345776Y500479D01*
X345706Y500539D01*
X345676Y500551D01*
X345650Y500570D01*
X345563Y500597D01*
X345478Y500631D01*
X345437Y500635D01*
X345415Y500642D01*
X345383Y500641D01*
X345311Y500649D01*
X343343Y500649D01*
X343253Y500635D01*
X343162Y500627D01*
X343132Y500615D01*
X343100Y500610D01*
X343020Y500567D01*
X342936Y500531D01*
X342904Y500505D01*
X342883Y500494D01*
X342861Y500471D01*
X342805Y500426D01*
X340245Y497866D01*
X340192Y497792D01*
X340132Y497723D01*
X340120Y497693D01*
X340101Y497666D01*
X340074Y497579D01*
X340040Y497495D01*
X340036Y497454D01*
X340029Y497431D01*
X340030Y497399D01*
X340022Y497328D01*
X340022Y496584D01*
X340025Y496564D01*
X340023Y496545D01*
X340045Y496443D01*
X340062Y496341D01*
X340071Y496324D01*
X340075Y496304D01*
X340128Y496215D01*
X340177Y496124D01*
X340191Y496110D01*
X340201Y496093D01*
X340280Y496026D01*
X340355Y495955D01*
X340373Y495946D01*
X340388Y495933D01*
X340484Y495895D01*
X340578Y495851D01*
X340598Y495849D01*
X340616Y495841D01*
X340783Y495823D01*
X343286Y495823D01*
X343286Y491982D01*
X343289Y491963D01*
X343287Y491943D01*
X343309Y491842D01*
X343325Y491740D01*
X343335Y491722D01*
X343339Y491703D01*
X343392Y491614D01*
X343440Y491522D01*
X343441Y491522D01*
X343455Y491509D01*
X343465Y491492D01*
X343466Y491491D01*
X343544Y491424D01*
X343619Y491352D01*
X343637Y491344D01*
X343653Y491331D01*
X343749Y491292D01*
X343842Y491249D01*
X343862Y491247D01*
X343881Y491239D01*
X344047Y491221D01*
X350888Y491221D01*
X350888Y490630D01*
X350867Y490553D01*
X350855Y490435D01*
X350842Y490317D01*
X350843Y490313D01*
X350843Y490309D01*
X350869Y490193D01*
X350895Y490077D01*
X350897Y490073D01*
X350898Y490069D01*
X350960Y489968D01*
X351021Y489865D01*
X351024Y489863D01*
X351026Y489859D01*
X351117Y489784D01*
X351208Y489706D01*
X351212Y489704D01*
X351215Y489701D01*
X351325Y489658D01*
X351436Y489614D01*
X351441Y489613D01*
X351444Y489612D01*
X351458Y489611D01*
X351603Y489595D01*
X354178Y489595D01*
X355574Y488199D01*
X355652Y488143D01*
X355725Y488082D01*
X355751Y488072D01*
X355774Y488055D01*
X355865Y488027D01*
X355954Y487993D01*
X355982Y487991D01*
X356009Y487983D01*
X356105Y487985D01*
X356200Y487981D01*
X356227Y487989D01*
X356255Y487989D01*
X356345Y488022D01*
X356436Y488048D01*
X356460Y488064D01*
X356486Y488074D01*
X356561Y488133D01*
X356639Y488187D01*
X356656Y488210D01*
X356678Y488228D01*
X356730Y488308D01*
X356787Y488384D01*
X356800Y488417D01*
X356811Y488434D01*
X356819Y488466D01*
X356848Y488540D01*
X356899Y488731D01*
X357234Y489310D01*
X357707Y489783D01*
X358111Y490017D01*
X358164Y490059D01*
X358222Y490094D01*
X358258Y490137D01*
X358302Y490172D01*
X358338Y490230D01*
X358382Y490281D01*
X358403Y490333D01*
X358432Y490381D01*
X358448Y490446D01*
X358473Y490509D01*
X358482Y490588D01*
X358490Y490620D01*
X358488Y490641D01*
X358492Y490676D01*
X358492Y492830D01*
X358485Y492874D01*
X358485Y492875D01*
X358484Y492881D01*
X358477Y492920D01*
X358470Y493011D01*
X358457Y493040D01*
X358452Y493072D01*
X358447Y493083D01*
X358447Y494387D01*
X358445Y494395D01*
X358446Y494398D01*
X358443Y494410D01*
X358444Y494451D01*
X358341Y495662D01*
X358360Y495709D01*
X358393Y495764D01*
X358406Y495822D01*
X358428Y495877D01*
X358439Y495973D01*
X358446Y496005D01*
X358444Y496020D01*
X358447Y496044D01*
X358447Y499269D01*
X358438Y499320D01*
X358440Y499371D01*
X358419Y499441D01*
X358407Y499512D01*
X358383Y499557D01*
X358368Y499606D01*
X358319Y499683D01*
X358442Y500840D01*
X358441Y500868D01*
X358447Y500921D01*
X358447Y502200D01*
X358473Y502267D01*
X358478Y502308D01*
X358485Y502330D01*
X358484Y502363D01*
X358492Y502434D01*
X358492Y505381D01*
X359385Y506275D01*
X362897Y506275D01*
X362971Y506287D01*
X363046Y506289D01*
X363109Y506309D01*
X363140Y506314D01*
X363162Y506326D01*
X363206Y506340D01*
X363318Y506390D01*
X364357Y506279D01*
X364385Y506280D01*
X364438Y506275D01*
X372148Y506275D01*
X373041Y505381D01*
X373041Y503212D01*
X373060Y503099D01*
X373076Y502985D01*
X373080Y502976D01*
X373081Y502969D01*
X373092Y502949D01*
X373143Y502831D01*
X373536Y502152D01*
X373536Y498971D01*
X373536Y493010D01*
X373143Y492331D01*
X373103Y492224D01*
X373060Y492117D01*
X373059Y492107D01*
X373056Y492101D01*
X373056Y492078D01*
X373041Y491950D01*
X373041Y490891D01*
X373049Y490847D01*
X373046Y490804D01*
X373068Y490727D01*
X373081Y490648D01*
X373102Y490609D01*
X373114Y490567D01*
X373159Y490501D01*
X373196Y490431D01*
X373228Y490400D01*
X373253Y490364D01*
X373317Y490316D01*
X373375Y490261D01*
X373414Y490243D01*
X373449Y490216D01*
X373585Y490164D01*
X373598Y490158D01*
X373601Y490157D01*
X373606Y490155D01*
X373747Y490117D01*
X374327Y489783D01*
X374800Y489310D01*
X375134Y488731D01*
X375307Y488084D01*
X375307Y486749D01*
X366255Y486749D01*
X366235Y486746D01*
X366215Y486748D01*
X366114Y486726D01*
X366012Y486709D01*
X366010Y486709D01*
X365983Y486721D01*
X365964Y486723D01*
X365945Y486731D01*
X365778Y486749D01*
X357311Y486749D01*
X357292Y486746D01*
X357272Y486748D01*
X357170Y486726D01*
X357068Y486709D01*
X357051Y486700D01*
X357031Y486696D01*
X356942Y486643D01*
X356851Y486594D01*
X356837Y486580D01*
X356820Y486570D01*
X356753Y486491D01*
X356682Y486416D01*
X356673Y486398D01*
X356660Y486383D01*
X356622Y486287D01*
X356578Y486193D01*
X356576Y486173D01*
X356568Y486155D01*
X356550Y485988D01*
X356550Y485512D01*
X356553Y485492D01*
X356551Y485472D01*
X356573Y485371D01*
X356590Y485269D01*
X356599Y485252D01*
X356603Y485232D01*
X356656Y485143D01*
X356705Y485052D01*
X356719Y485038D01*
X356729Y485021D01*
X356808Y484954D01*
X356883Y484882D01*
X356901Y484874D01*
X356916Y484861D01*
X357013Y484822D01*
X357106Y484779D01*
X357126Y484777D01*
X357144Y484769D01*
X357311Y484751D01*
X365778Y484751D01*
X365798Y484754D01*
X365818Y484752D01*
X365919Y484774D01*
X366021Y484790D01*
X366023Y484791D01*
X366050Y484779D01*
X366070Y484777D01*
X366088Y484769D01*
X366255Y484751D01*
X375307Y484751D01*
X375307Y483415D01*
X375307Y483414D01*
X375295Y483295D01*
X375282Y483178D01*
X375283Y483174D01*
X375283Y483170D01*
X375310Y483051D01*
X375334Y482937D01*
X375337Y482934D01*
X375337Y482930D01*
X375400Y482828D01*
X375461Y482726D01*
X375464Y482724D01*
X375466Y482720D01*
X375557Y482644D01*
X375648Y482566D01*
X375651Y482565D01*
X375654Y482562D01*
X375764Y482519D01*
X375876Y482474D01*
X375881Y482474D01*
X375884Y482473D01*
X375897Y482472D01*
X376042Y482456D01*
X378833Y482456D01*
X378894Y482437D01*
X378942Y482438D01*
X378990Y482430D01*
X379065Y482442D01*
X379140Y482443D01*
X379185Y482460D01*
X379233Y482467D01*
X379300Y482502D01*
X379371Y482528D01*
X379409Y482558D01*
X379452Y482580D01*
X379504Y482634D01*
X379563Y482682D01*
X379589Y482722D01*
X379623Y482757D01*
X379655Y482825D01*
X379696Y482889D01*
X379708Y482935D01*
X379729Y482978D01*
X379738Y483054D01*
X379756Y483127D01*
X379753Y483175D01*
X379759Y483223D01*
X379739Y483350D01*
X379737Y483372D01*
X379735Y483378D01*
X379733Y483388D01*
X379726Y483416D01*
X379726Y487727D01*
X391243Y487727D01*
X391243Y481209D01*
X381932Y481209D01*
X381905Y481216D01*
X381857Y481221D01*
X381812Y481235D01*
X381736Y481233D01*
X381661Y481241D01*
X381614Y481230D01*
X381566Y481229D01*
X381494Y481203D01*
X381421Y481186D01*
X381380Y481161D01*
X381335Y481145D01*
X381275Y481097D01*
X381211Y481058D01*
X381180Y481021D01*
X381143Y480991D01*
X381102Y480927D01*
X381053Y480869D01*
X381036Y480824D01*
X381010Y480784D01*
X380991Y480710D01*
X380964Y480640D01*
X380961Y480592D01*
X380950Y480545D01*
X380955Y480470D01*
X380952Y480394D01*
X380965Y480348D01*
X380969Y480300D01*
X380998Y480231D01*
X381019Y480158D01*
X381028Y480144D01*
X381028Y476730D01*
X379409Y475110D01*
X379397Y475094D01*
X379381Y475082D01*
X379327Y474998D01*
X379324Y474994D01*
X379322Y474989D01*
X379265Y474911D01*
X379259Y474892D01*
X379248Y474875D01*
X379225Y474781D01*
X379220Y474771D01*
X379219Y474761D01*
X379193Y474676D01*
X379193Y474656D01*
X379188Y474636D01*
X379195Y474547D01*
X379193Y474526D01*
X379197Y474508D01*
X379199Y474430D01*
X379206Y474411D01*
X379207Y474391D01*
X379238Y474320D01*
X379245Y474286D01*
X379262Y474259D01*
X379283Y474199D01*
X379296Y474183D01*
X379304Y474165D01*
X379359Y474096D01*
X379371Y474075D01*
X379385Y474063D01*
X379409Y474034D01*
X380983Y472459D01*
X380983Y469105D01*
X378611Y466734D01*
X376435Y466734D01*
X376345Y466719D01*
X376254Y466712D01*
X376224Y466699D01*
X376192Y466694D01*
X376111Y466651D01*
X376027Y466616D01*
X375995Y466590D01*
X375975Y466579D01*
X375952Y466556D01*
X375896Y466511D01*
X374911Y465526D01*
X374514Y465129D01*
X374461Y465055D01*
X374402Y464985D01*
X374390Y464955D01*
X374371Y464929D01*
X374344Y464842D01*
X374310Y464757D01*
X374305Y464716D01*
X374298Y464694D01*
X374299Y464662D01*
X374291Y464590D01*
X374291Y463618D01*
X374211Y463538D01*
X374200Y463522D01*
X374184Y463510D01*
X374128Y463422D01*
X374068Y463338D01*
X374062Y463319D01*
X374051Y463303D01*
X374026Y463202D01*
X373995Y463103D01*
X373996Y463083D01*
X373991Y463064D01*
X373999Y462961D01*
X374002Y462857D01*
X374009Y462839D01*
X374010Y462819D01*
X374051Y462724D01*
X374086Y462626D01*
X374099Y462611D01*
X374106Y462593D01*
X374211Y462462D01*
X374291Y462381D01*
X374291Y457118D01*
X373264Y456091D01*
X373211Y456017D01*
X373152Y455948D01*
X373140Y455918D01*
X373121Y455892D01*
X373094Y455805D01*
X373060Y455720D01*
X373055Y455679D01*
X373048Y455656D01*
X373049Y455624D01*
X373041Y455553D01*
X373041Y452773D01*
X373060Y452660D01*
X373076Y452546D01*
X373080Y452537D01*
X373081Y452530D01*
X373091Y452511D01*
X373143Y452392D01*
X373231Y452241D01*
X373231Y449060D01*
X373231Y443099D01*
X373143Y442948D01*
X373103Y442841D01*
X373094Y442818D01*
X373085Y442798D01*
X373084Y442794D01*
X373060Y442734D01*
X373059Y442724D01*
X373056Y442718D01*
X373056Y442695D01*
X373041Y442567D01*
X373041Y440118D01*
X372148Y439225D01*
X369720Y439225D01*
X369607Y439207D01*
X369493Y439191D01*
X369484Y439186D01*
X369477Y439185D01*
X369458Y439175D01*
X369339Y439123D01*
X369140Y439008D01*
X362716Y439008D01*
X362516Y439123D01*
X362409Y439163D01*
X362302Y439207D01*
X362292Y439208D01*
X362286Y439210D01*
X362263Y439211D01*
X362135Y439225D01*
X359385Y439225D01*
X358915Y439695D01*
X358899Y439707D01*
X358887Y439722D01*
X358800Y439778D01*
X358716Y439838D01*
X358697Y439844D01*
X358680Y439855D01*
X358579Y439880D01*
X358481Y439911D01*
X358461Y439910D01*
X358441Y439915D01*
X358338Y439907D01*
X358235Y439904D01*
X358216Y439898D01*
X358196Y439896D01*
X358101Y439856D01*
X358004Y439820D01*
X357988Y439807D01*
X357970Y439800D01*
X357839Y439695D01*
X355487Y437343D01*
X355445Y437285D01*
X355396Y437233D01*
X355374Y437186D01*
X355343Y437143D01*
X355322Y437075D01*
X355292Y437010D01*
X355286Y436958D01*
X355271Y436908D01*
X355273Y436837D01*
X355265Y436765D01*
X355276Y436715D01*
X355277Y436662D01*
X355302Y436595D01*
X355317Y436525D01*
X355344Y436480D01*
X355362Y436431D01*
X355407Y436375D01*
X355444Y436314D01*
X355483Y436280D01*
X355516Y436239D01*
X355576Y436201D01*
X355630Y436154D01*
X355679Y436135D01*
X355723Y436106D01*
X355792Y436089D01*
X355859Y436062D01*
X355930Y436054D01*
X355961Y436046D01*
X355984Y436048D01*
X356025Y436044D01*
X359270Y436044D01*
X361529Y433785D01*
X361546Y433773D01*
X361558Y433757D01*
X361645Y433701D01*
X361729Y433641D01*
X361748Y433635D01*
X361765Y433624D01*
X361865Y433599D01*
X361964Y433569D01*
X361984Y433569D01*
X362004Y433564D01*
X362107Y433572D01*
X362210Y433575D01*
X362229Y433582D01*
X362249Y433583D01*
X362344Y433624D01*
X362441Y433659D01*
X362450Y433667D01*
X365842Y433667D01*
X368214Y431295D01*
X368214Y427941D01*
X365842Y425569D01*
X363666Y425569D01*
X363576Y425555D01*
X363485Y425548D01*
X363455Y425535D01*
X363423Y425530D01*
X363343Y425487D01*
X363259Y425451D01*
X363226Y425425D01*
X363206Y425415D01*
X363184Y425391D01*
X363128Y425346D01*
X361120Y423339D01*
X361078Y423281D01*
X361029Y423229D01*
X361007Y423182D01*
X360977Y423139D01*
X360956Y423071D01*
X360925Y423006D01*
X360920Y422954D01*
X360904Y422904D01*
X360906Y422832D01*
X360898Y422761D01*
X360909Y422710D01*
X360911Y422658D01*
X360935Y422591D01*
X360951Y422521D01*
X360977Y422476D01*
X360995Y422427D01*
X361040Y422371D01*
X361077Y422310D01*
X361116Y422276D01*
X361149Y422235D01*
X361209Y422197D01*
X361264Y422150D01*
X361312Y422130D01*
X361356Y422102D01*
X361425Y422085D01*
X361492Y422058D01*
X361563Y422050D01*
X361594Y422042D01*
X361618Y422044D01*
X361658Y422040D01*
X386921Y422040D01*
X386943Y422043D01*
G37*
G36*
X118708Y422051D02*
X118708Y422051D01*
X118780Y422053D01*
X118829Y422071D01*
X118880Y422079D01*
X118943Y422113D01*
X119011Y422137D01*
X119051Y422170D01*
X119097Y422194D01*
X119147Y422246D01*
X119203Y422291D01*
X119231Y422335D01*
X119267Y422373D01*
X119297Y422438D01*
X119336Y422498D01*
X119349Y422549D01*
X119370Y422596D01*
X119378Y422667D01*
X119396Y422737D01*
X119392Y422788D01*
X119398Y422840D01*
X119382Y422910D01*
X119377Y422982D01*
X119356Y423030D01*
X119345Y423081D01*
X119309Y423142D01*
X119280Y423208D01*
X119236Y423264D01*
X119219Y423292D01*
X119201Y423307D01*
X119176Y423339D01*
X115742Y426773D01*
X115742Y434348D01*
X121099Y439705D01*
X128675Y439705D01*
X129198Y439182D01*
X129214Y439170D01*
X129226Y439155D01*
X129314Y439099D01*
X129398Y439038D01*
X129417Y439033D01*
X129433Y439022D01*
X129534Y438997D01*
X129633Y438966D01*
X129653Y438967D01*
X129672Y438962D01*
X129775Y438970D01*
X129878Y438972D01*
X129897Y438979D01*
X129917Y438981D01*
X130012Y439021D01*
X130110Y439057D01*
X130125Y439069D01*
X130143Y439077D01*
X130274Y439182D01*
X150658Y459565D01*
X165881Y459565D01*
X165901Y459569D01*
X165921Y459567D01*
X166022Y459589D01*
X166124Y459605D01*
X166142Y459615D01*
X166161Y459619D01*
X166250Y459672D01*
X166341Y459720D01*
X166355Y459735D01*
X166372Y459745D01*
X166440Y459824D01*
X166511Y459899D01*
X166519Y459917D01*
X166532Y459932D01*
X166571Y460028D01*
X166614Y460122D01*
X166617Y460141D01*
X166624Y460160D01*
X166642Y460327D01*
X166642Y464194D01*
X166645Y464201D01*
X166644Y464233D01*
X166652Y464305D01*
X166652Y471880D01*
X166637Y471970D01*
X166630Y472061D01*
X166617Y472091D01*
X166612Y472123D01*
X166569Y472204D01*
X166534Y472288D01*
X166508Y472320D01*
X166497Y472340D01*
X166474Y472363D01*
X166429Y472419D01*
X165222Y473626D01*
X165222Y477065D01*
X165219Y477084D01*
X165221Y477104D01*
X165199Y477205D01*
X165182Y477307D01*
X165173Y477325D01*
X165169Y477344D01*
X165115Y477433D01*
X165067Y477525D01*
X165053Y477538D01*
X165042Y477556D01*
X164964Y477623D01*
X164889Y477694D01*
X164871Y477703D01*
X164856Y477715D01*
X164759Y477754D01*
X164666Y477798D01*
X164646Y477800D01*
X164627Y477807D01*
X164461Y477826D01*
X144128Y477826D01*
X142566Y479388D01*
X137038Y484916D01*
X136964Y484969D01*
X136894Y485029D01*
X136864Y485041D01*
X136838Y485060D01*
X136751Y485087D01*
X136666Y485121D01*
X136625Y485125D01*
X136603Y485132D01*
X136571Y485131D01*
X136499Y485139D01*
X119625Y485139D01*
X118062Y486702D01*
X99606Y505158D01*
X98043Y506721D01*
X98043Y513316D01*
X98029Y513406D01*
X98021Y513497D01*
X98009Y513527D01*
X98004Y513559D01*
X97961Y513639D01*
X97925Y513723D01*
X97899Y513755D01*
X97888Y513776D01*
X97865Y513798D01*
X97820Y513854D01*
X92761Y518914D01*
X92687Y518967D01*
X92617Y519027D01*
X92587Y519039D01*
X92561Y519058D01*
X92474Y519084D01*
X92389Y519118D01*
X92348Y519123D01*
X92326Y519130D01*
X92294Y519129D01*
X92222Y519137D01*
X77295Y519137D01*
X77275Y519134D01*
X77255Y519136D01*
X77154Y519114D01*
X77052Y519097D01*
X77034Y519088D01*
X77015Y519084D01*
X76926Y519030D01*
X76835Y518982D01*
X76821Y518968D01*
X76804Y518957D01*
X76736Y518879D01*
X76665Y518804D01*
X76657Y518786D01*
X76644Y518771D01*
X76605Y518674D01*
X76562Y518581D01*
X76559Y518561D01*
X76552Y518542D01*
X76533Y518376D01*
X76533Y438692D01*
X76545Y438623D01*
X76534Y437016D01*
X76534Y437013D01*
X76533Y437010D01*
X76533Y436995D01*
X76538Y436971D01*
X76537Y436926D01*
X76788Y434175D01*
X76795Y434148D01*
X76795Y434119D01*
X76841Y433958D01*
X78910Y428861D01*
X78944Y428806D01*
X78970Y428745D01*
X79021Y428680D01*
X79038Y428651D01*
X79053Y428639D01*
X79074Y428613D01*
X79292Y428392D01*
X79373Y428333D01*
X79450Y428269D01*
X79472Y428261D01*
X79491Y428247D01*
X79586Y428217D01*
X79680Y428181D01*
X79703Y428180D01*
X79725Y428173D01*
X79825Y428175D01*
X79925Y428171D01*
X79948Y428177D01*
X79971Y428178D01*
X80065Y428211D01*
X80161Y428239D01*
X80181Y428252D01*
X80203Y428260D01*
X80281Y428322D01*
X80364Y428379D01*
X80378Y428398D01*
X80396Y428413D01*
X80451Y428496D01*
X80510Y428577D01*
X80518Y428599D01*
X80530Y428619D01*
X80556Y428715D01*
X80587Y428811D01*
X80586Y428834D01*
X80592Y428857D01*
X80585Y428957D01*
X80584Y429057D01*
X80576Y429084D01*
X80575Y429102D01*
X80562Y429132D01*
X80537Y429218D01*
X78975Y432988D01*
X78975Y437978D01*
X80885Y442587D01*
X84412Y446115D01*
X89022Y448024D01*
X94011Y448024D01*
X98620Y446115D01*
X102148Y442587D01*
X104057Y437978D01*
X104057Y432988D01*
X102148Y428379D01*
X98620Y424851D01*
X95367Y423504D01*
X95284Y423453D01*
X95198Y423407D01*
X95180Y423388D01*
X95158Y423374D01*
X95096Y423299D01*
X95029Y423229D01*
X95018Y423205D01*
X95001Y423185D01*
X94966Y423094D01*
X94925Y423006D01*
X94922Y422980D01*
X94913Y422955D01*
X94909Y422858D01*
X94898Y422761D01*
X94904Y422736D01*
X94902Y422710D01*
X94930Y422616D01*
X94950Y422521D01*
X94964Y422498D01*
X94971Y422473D01*
X95027Y422393D01*
X95076Y422310D01*
X95096Y422293D01*
X95111Y422271D01*
X95189Y422213D01*
X95263Y422150D01*
X95288Y422140D01*
X95309Y422125D01*
X95401Y422094D01*
X95492Y422058D01*
X95524Y422054D01*
X95543Y422048D01*
X95576Y422049D01*
X95658Y422040D01*
X118637Y422040D01*
X118708Y422051D01*
G37*
G36*
X157787Y422043D02*
X157787Y422043D01*
X157807Y422041D01*
X157908Y422063D01*
X158010Y422079D01*
X158028Y422089D01*
X158047Y422093D01*
X158136Y422146D01*
X158228Y422194D01*
X158241Y422209D01*
X158258Y422219D01*
X158326Y422298D01*
X158397Y422373D01*
X158405Y422391D01*
X158418Y422406D01*
X158457Y422502D01*
X158501Y422596D01*
X158503Y422616D01*
X158510Y422634D01*
X158529Y422801D01*
X158529Y440844D01*
X159422Y441737D01*
X172685Y441737D01*
X173578Y440844D01*
X173578Y422801D01*
X173581Y422781D01*
X173579Y422761D01*
X173601Y422660D01*
X173618Y422558D01*
X173627Y422540D01*
X173632Y422521D01*
X173685Y422432D01*
X173733Y422341D01*
X173747Y422327D01*
X173758Y422310D01*
X173836Y422242D01*
X173911Y422171D01*
X173929Y422163D01*
X173945Y422150D01*
X174041Y422111D01*
X174134Y422068D01*
X174154Y422065D01*
X174173Y422058D01*
X174339Y422040D01*
X193768Y422040D01*
X193787Y422043D01*
X193807Y422041D01*
X193908Y422063D01*
X194010Y422079D01*
X194028Y422089D01*
X194047Y422093D01*
X194136Y422146D01*
X194228Y422194D01*
X194241Y422209D01*
X194258Y422219D01*
X194326Y422298D01*
X194397Y422373D01*
X194405Y422391D01*
X194418Y422406D01*
X194457Y422502D01*
X194501Y422596D01*
X194503Y422616D01*
X194510Y422634D01*
X194529Y422801D01*
X194529Y440844D01*
X195422Y441737D01*
X208685Y441737D01*
X209578Y440844D01*
X209578Y422801D01*
X209581Y422781D01*
X209579Y422761D01*
X209601Y422660D01*
X209618Y422558D01*
X209627Y422540D01*
X209632Y422521D01*
X209685Y422432D01*
X209733Y422341D01*
X209747Y422327D01*
X209758Y422310D01*
X209836Y422242D01*
X209911Y422171D01*
X209929Y422163D01*
X209945Y422150D01*
X210041Y422111D01*
X210134Y422068D01*
X210154Y422065D01*
X210173Y422058D01*
X210339Y422040D01*
X221672Y422040D01*
X221691Y422043D01*
X221711Y422041D01*
X221812Y422063D01*
X221914Y422079D01*
X221932Y422089D01*
X221951Y422093D01*
X222040Y422146D01*
X222132Y422194D01*
X222145Y422209D01*
X222163Y422219D01*
X222230Y422298D01*
X222301Y422373D01*
X222309Y422391D01*
X222322Y422406D01*
X222361Y422502D01*
X222405Y422596D01*
X222407Y422616D01*
X222414Y422634D01*
X222433Y422801D01*
X222433Y436797D01*
X222689Y437053D01*
X222731Y437111D01*
X222780Y437163D01*
X222802Y437210D01*
X222832Y437253D01*
X222854Y437321D01*
X222884Y437386D01*
X222889Y437438D01*
X222905Y437488D01*
X222903Y437559D01*
X222911Y437631D01*
X222900Y437682D01*
X222898Y437734D01*
X222874Y437801D01*
X222859Y437871D01*
X222832Y437916D01*
X222814Y437965D01*
X222769Y438021D01*
X222732Y438082D01*
X222693Y438116D01*
X222660Y438157D01*
X222600Y438195D01*
X222546Y438242D01*
X222497Y438262D01*
X222453Y438290D01*
X222384Y438307D01*
X222317Y438334D01*
X222246Y438342D01*
X222215Y438350D01*
X222192Y438348D01*
X222151Y438352D01*
X215244Y438352D01*
X193132Y460465D01*
X193058Y460518D01*
X192988Y460577D01*
X192958Y460589D01*
X192932Y460608D01*
X192845Y460635D01*
X192760Y460669D01*
X192719Y460674D01*
X192697Y460681D01*
X192665Y460680D01*
X192593Y460688D01*
X185422Y460688D01*
X185290Y460820D01*
X185194Y460888D01*
X185097Y460960D01*
X185093Y460961D01*
X185090Y460963D01*
X184977Y460998D01*
X184863Y461035D01*
X184859Y461035D01*
X184855Y461036D01*
X184737Y461033D01*
X184617Y461031D01*
X184613Y461029D01*
X184609Y461029D01*
X184498Y460989D01*
X184385Y460949D01*
X184382Y460946D01*
X184378Y460945D01*
X184285Y460871D01*
X184192Y460797D01*
X184189Y460793D01*
X184186Y460791D01*
X184179Y460780D01*
X184092Y460662D01*
X184087Y460652D01*
X183614Y460179D01*
X183034Y459845D01*
X182388Y459672D01*
X181261Y459672D01*
X181242Y459668D01*
X181222Y459671D01*
X181121Y459649D01*
X181018Y459632D01*
X181001Y459623D01*
X180981Y459618D01*
X180892Y459565D01*
X180801Y459517D01*
X180787Y459502D01*
X180770Y459492D01*
X180703Y459414D01*
X180632Y459339D01*
X180623Y459320D01*
X180610Y459305D01*
X180572Y459209D01*
X180528Y459115D01*
X180526Y459096D01*
X180518Y459077D01*
X180500Y458910D01*
X180500Y455617D01*
X178128Y453245D01*
X174774Y453245D01*
X173250Y454769D01*
X173176Y454822D01*
X173107Y454882D01*
X173077Y454894D01*
X173051Y454913D01*
X172964Y454939D01*
X172879Y454974D01*
X172838Y454978D01*
X172816Y454985D01*
X172783Y454984D01*
X172712Y454992D01*
X152868Y454992D01*
X152777Y454977D01*
X152687Y454970D01*
X152657Y454958D01*
X152625Y454952D01*
X152544Y454910D01*
X152460Y454874D01*
X152428Y454848D01*
X152407Y454837D01*
X152385Y454814D01*
X152329Y454769D01*
X133508Y435948D01*
X133497Y435932D01*
X133481Y435919D01*
X133425Y435832D01*
X133365Y435748D01*
X133359Y435729D01*
X133348Y435713D01*
X133323Y435612D01*
X133292Y435513D01*
X133293Y435493D01*
X133288Y435474D01*
X133296Y435371D01*
X133299Y435267D01*
X133306Y435249D01*
X133307Y435229D01*
X133348Y435134D01*
X133383Y435036D01*
X133396Y435021D01*
X133403Y435002D01*
X133508Y434872D01*
X134031Y434348D01*
X134031Y426773D01*
X130598Y423339D01*
X130556Y423281D01*
X130507Y423229D01*
X130485Y423182D01*
X130454Y423139D01*
X130433Y423071D01*
X130403Y423006D01*
X130397Y422954D01*
X130382Y422904D01*
X130384Y422832D01*
X130376Y422761D01*
X130387Y422710D01*
X130388Y422658D01*
X130413Y422591D01*
X130428Y422521D01*
X130455Y422476D01*
X130473Y422427D01*
X130518Y422371D01*
X130554Y422310D01*
X130594Y422276D01*
X130626Y422235D01*
X130687Y422197D01*
X130741Y422150D01*
X130790Y422130D01*
X130833Y422102D01*
X130903Y422085D01*
X130969Y422058D01*
X131041Y422050D01*
X131072Y422042D01*
X131095Y422044D01*
X131136Y422040D01*
X157768Y422040D01*
X157787Y422043D01*
G37*
G36*
X244425Y580281D02*
X244425Y580281D01*
X244497Y580286D01*
X244545Y580307D01*
X244596Y580318D01*
X244657Y580355D01*
X244723Y580383D01*
X244779Y580427D01*
X244807Y580444D01*
X244822Y580462D01*
X244854Y580487D01*
X246060Y581693D01*
X247336Y581693D01*
X247356Y581696D01*
X247375Y581694D01*
X247477Y581716D01*
X247579Y581733D01*
X247596Y581742D01*
X247616Y581746D01*
X247705Y581799D01*
X247796Y581848D01*
X247810Y581862D01*
X247827Y581872D01*
X247894Y581951D01*
X247965Y582026D01*
X247974Y582044D01*
X247987Y582059D01*
X248025Y582156D01*
X248069Y582249D01*
X248071Y582269D01*
X248079Y582287D01*
X248097Y582454D01*
X248097Y584727D01*
X249210Y585840D01*
X249263Y585914D01*
X249323Y585984D01*
X249335Y586014D01*
X249354Y586040D01*
X249380Y586127D01*
X249415Y586212D01*
X249419Y586253D01*
X249426Y586275D01*
X249425Y586307D01*
X249433Y586379D01*
X249433Y587669D01*
X253372Y587669D01*
X253391Y587580D01*
X253406Y587555D01*
X253415Y587527D01*
X253469Y587450D01*
X253517Y587369D01*
X253539Y587350D01*
X253556Y587326D01*
X253633Y587270D01*
X253704Y587209D01*
X253718Y587204D01*
X255026Y585896D01*
X255042Y585885D01*
X255054Y585869D01*
X255141Y585813D01*
X255225Y585753D01*
X255244Y585747D01*
X255261Y585736D01*
X255362Y585711D01*
X255460Y585680D01*
X255480Y585681D01*
X255500Y585676D01*
X255603Y585684D01*
X255706Y585687D01*
X255725Y585694D01*
X255745Y585695D01*
X255840Y585735D01*
X255937Y585771D01*
X255953Y585784D01*
X255971Y585791D01*
X256102Y585896D01*
X257344Y587138D01*
X257368Y587172D01*
X257400Y587201D01*
X257440Y587272D01*
X257487Y587337D01*
X257500Y587378D01*
X257521Y587416D01*
X257536Y587495D01*
X257559Y587572D01*
X257558Y587615D01*
X257566Y587657D01*
X257565Y587669D01*
X262196Y587669D01*
X262215Y587672D01*
X262235Y587670D01*
X262336Y587692D01*
X262438Y587709D01*
X262456Y587718D01*
X262475Y587722D01*
X262564Y587775D01*
X262656Y587824D01*
X262669Y587838D01*
X262687Y587848D01*
X262754Y587927D01*
X262825Y588002D01*
X262834Y588020D01*
X262846Y588035D01*
X262885Y588132D01*
X262929Y588225D01*
X262931Y588245D01*
X262938Y588263D01*
X262957Y588430D01*
X262957Y589145D01*
X263672Y589145D01*
X263692Y589148D01*
X263711Y589146D01*
X263813Y589168D01*
X263915Y589185D01*
X263932Y589194D01*
X263952Y589198D01*
X264041Y589252D01*
X264132Y589300D01*
X264146Y589314D01*
X264163Y589325D01*
X264230Y589403D01*
X264301Y589478D01*
X264310Y589496D01*
X264323Y589512D01*
X264361Y589608D01*
X264405Y589701D01*
X264407Y589721D01*
X264415Y589740D01*
X264433Y589906D01*
X264433Y594519D01*
X264550Y594496D01*
X265558Y594078D01*
X266466Y593472D01*
X267238Y592700D01*
X267738Y591951D01*
X267803Y591882D01*
X267862Y591808D01*
X267886Y591793D01*
X267906Y591771D01*
X267989Y591726D01*
X268068Y591675D01*
X268097Y591668D01*
X268123Y591654D01*
X268215Y591638D01*
X268307Y591615D01*
X268336Y591618D01*
X268365Y591613D01*
X268458Y591627D01*
X268552Y591634D01*
X268579Y591646D01*
X268608Y591650D01*
X268692Y591694D01*
X268779Y591731D01*
X268807Y591754D01*
X268826Y591764D01*
X268849Y591787D01*
X268909Y591836D01*
X268985Y591911D01*
X272339Y591911D01*
X272770Y591480D01*
X272787Y591469D01*
X272799Y591453D01*
X272886Y591397D01*
X272970Y591337D01*
X272989Y591331D01*
X273006Y591320D01*
X273106Y591295D01*
X273205Y591264D01*
X273225Y591265D01*
X273245Y591260D01*
X273347Y591268D01*
X273451Y591271D01*
X273470Y591278D01*
X273490Y591279D01*
X273585Y591320D01*
X273682Y591355D01*
X273698Y591368D01*
X273716Y591376D01*
X273847Y591480D01*
X276060Y593693D01*
X279808Y593693D01*
X282459Y591042D01*
X282459Y587311D01*
X282470Y587240D01*
X282472Y587168D01*
X282490Y587119D01*
X282498Y587068D01*
X282532Y587004D01*
X282556Y586937D01*
X282589Y586896D01*
X282613Y586850D01*
X282665Y586801D01*
X282710Y586745D01*
X282754Y586717D01*
X282792Y586681D01*
X282857Y586651D01*
X282917Y586612D01*
X282968Y586599D01*
X283015Y586577D01*
X283086Y586569D01*
X283156Y586552D01*
X283208Y586556D01*
X283259Y586550D01*
X283329Y586566D01*
X283401Y586571D01*
X283449Y586591D01*
X283500Y586603D01*
X283561Y586639D01*
X283627Y586667D01*
X283683Y586712D01*
X283711Y586729D01*
X283726Y586747D01*
X283758Y586772D01*
X287706Y590720D01*
X287759Y590794D01*
X287818Y590863D01*
X287831Y590893D01*
X287849Y590920D01*
X287876Y591007D01*
X287910Y591092D01*
X287915Y591132D01*
X287922Y591155D01*
X287921Y591187D01*
X287929Y591258D01*
X287929Y608582D01*
X294367Y615020D01*
X305980Y615020D01*
X305999Y615023D01*
X306019Y615021D01*
X306120Y615043D01*
X306222Y615060D01*
X306240Y615069D01*
X306260Y615073D01*
X306349Y615126D01*
X306440Y615175D01*
X306454Y615189D01*
X306471Y615199D01*
X306538Y615278D01*
X306609Y615353D01*
X306618Y615371D01*
X306631Y615386D01*
X306669Y615483D01*
X306713Y615576D01*
X306715Y615596D01*
X306722Y615614D01*
X306741Y615781D01*
X306741Y617220D01*
X306738Y617240D01*
X306740Y617259D01*
X306718Y617361D01*
X306701Y617463D01*
X306692Y617480D01*
X306688Y617500D01*
X306634Y617589D01*
X306586Y617680D01*
X306572Y617694D01*
X306561Y617711D01*
X306483Y617778D01*
X306408Y617850D01*
X306390Y617858D01*
X306375Y617871D01*
X306278Y617910D01*
X306185Y617953D01*
X306165Y617955D01*
X306146Y617963D01*
X305980Y617981D01*
X284954Y617981D01*
X284838Y617962D01*
X284720Y617944D01*
X284716Y617942D01*
X284712Y617942D01*
X284607Y617886D01*
X284501Y617831D01*
X284498Y617828D01*
X284494Y617826D01*
X284412Y617740D01*
X284330Y617655D01*
X284328Y617651D01*
X284325Y617648D01*
X284275Y617540D01*
X284224Y617433D01*
X284223Y617429D01*
X284221Y617425D01*
X284208Y617307D01*
X284194Y617189D01*
X284195Y617184D01*
X284194Y617181D01*
X284197Y617167D01*
X284219Y617023D01*
X284225Y617003D01*
X284225Y610691D01*
X274946Y610691D01*
X274926Y610688D01*
X274906Y610690D01*
X274805Y610668D01*
X274703Y610652D01*
X274686Y610642D01*
X274666Y610638D01*
X274577Y610585D01*
X274486Y610537D01*
X274472Y610522D01*
X274455Y610512D01*
X274388Y610433D01*
X274316Y610358D01*
X274308Y610340D01*
X274295Y610325D01*
X274256Y610229D01*
X274213Y610135D01*
X274211Y610115D01*
X274203Y610097D01*
X274185Y609930D01*
X274185Y609167D01*
X274183Y609167D01*
X274183Y609930D01*
X274180Y609950D01*
X274182Y609970D01*
X274160Y610071D01*
X274143Y610173D01*
X274134Y610190D01*
X274130Y610210D01*
X274076Y610299D01*
X274028Y610390D01*
X274014Y610404D01*
X274004Y610421D01*
X273925Y610488D01*
X273850Y610560D01*
X273832Y610568D01*
X273817Y610581D01*
X273720Y610620D01*
X273627Y610663D01*
X273607Y610665D01*
X273588Y610673D01*
X273422Y610691D01*
X264143Y610691D01*
X264143Y617003D01*
X264149Y617023D01*
X264160Y617142D01*
X264173Y617259D01*
X264173Y617264D01*
X264173Y617268D01*
X264146Y617384D01*
X264121Y617500D01*
X264119Y617503D01*
X264118Y617507D01*
X264056Y617609D01*
X263995Y617711D01*
X263992Y617714D01*
X263990Y617717D01*
X263898Y617794D01*
X263808Y617871D01*
X263804Y617872D01*
X263801Y617875D01*
X263691Y617918D01*
X263580Y617963D01*
X263575Y617963D01*
X263572Y617965D01*
X263558Y617965D01*
X263413Y617981D01*
X262454Y617981D01*
X262338Y617962D01*
X262220Y617944D01*
X262216Y617942D01*
X262212Y617942D01*
X262107Y617886D01*
X262001Y617831D01*
X261998Y617828D01*
X261994Y617826D01*
X261912Y617740D01*
X261830Y617655D01*
X261828Y617651D01*
X261825Y617648D01*
X261775Y617540D01*
X261724Y617433D01*
X261723Y617429D01*
X261721Y617425D01*
X261708Y617307D01*
X261694Y617189D01*
X261695Y617184D01*
X261694Y617181D01*
X261697Y617167D01*
X261719Y617023D01*
X261725Y617003D01*
X261725Y610691D01*
X252446Y610691D01*
X252426Y610688D01*
X252406Y610690D01*
X252305Y610668D01*
X252203Y610652D01*
X252186Y610642D01*
X252166Y610638D01*
X252077Y610585D01*
X251986Y610537D01*
X251972Y610522D01*
X251955Y610512D01*
X251888Y610433D01*
X251816Y610358D01*
X251808Y610340D01*
X251795Y610325D01*
X251756Y610229D01*
X251713Y610135D01*
X251711Y610115D01*
X251703Y610097D01*
X251685Y609930D01*
X251685Y609167D01*
X251683Y609167D01*
X251683Y609930D01*
X251680Y609950D01*
X251682Y609970D01*
X251660Y610071D01*
X251643Y610173D01*
X251634Y610190D01*
X251630Y610210D01*
X251576Y610299D01*
X251528Y610390D01*
X251514Y610404D01*
X251504Y610421D01*
X251425Y610488D01*
X251350Y610560D01*
X251332Y610568D01*
X251317Y610581D01*
X251220Y610620D01*
X251127Y610663D01*
X251107Y610665D01*
X251088Y610673D01*
X250922Y610691D01*
X241643Y610691D01*
X241643Y617003D01*
X241649Y617023D01*
X241660Y617142D01*
X241673Y617259D01*
X241673Y617264D01*
X241673Y617268D01*
X241646Y617384D01*
X241621Y617500D01*
X241619Y617503D01*
X241618Y617507D01*
X241556Y617609D01*
X241495Y617711D01*
X241492Y617714D01*
X241490Y617717D01*
X241398Y617794D01*
X241308Y617871D01*
X241304Y617872D01*
X241301Y617875D01*
X241191Y617918D01*
X241080Y617963D01*
X241075Y617963D01*
X241072Y617965D01*
X241058Y617965D01*
X240913Y617981D01*
X239954Y617981D01*
X239838Y617962D01*
X239720Y617944D01*
X239716Y617942D01*
X239712Y617942D01*
X239607Y617886D01*
X239501Y617831D01*
X239498Y617828D01*
X239494Y617826D01*
X239412Y617740D01*
X239330Y617655D01*
X239328Y617651D01*
X239325Y617648D01*
X239275Y617540D01*
X239224Y617433D01*
X239223Y617429D01*
X239221Y617425D01*
X239208Y617307D01*
X239194Y617189D01*
X239195Y617184D01*
X239194Y617181D01*
X239197Y617167D01*
X239219Y617023D01*
X239225Y617003D01*
X239225Y610691D01*
X229946Y610691D01*
X229926Y610688D01*
X229906Y610690D01*
X229805Y610668D01*
X229703Y610652D01*
X229686Y610642D01*
X229666Y610638D01*
X229577Y610585D01*
X229486Y610537D01*
X229472Y610522D01*
X229455Y610512D01*
X229388Y610433D01*
X229316Y610358D01*
X229308Y610340D01*
X229295Y610325D01*
X229256Y610229D01*
X229213Y610135D01*
X229211Y610115D01*
X229203Y610097D01*
X229185Y609930D01*
X229185Y608406D01*
X229188Y608387D01*
X229186Y608367D01*
X229208Y608266D01*
X229224Y608164D01*
X229234Y608146D01*
X229238Y608126D01*
X229291Y608037D01*
X229340Y607946D01*
X229354Y607932D01*
X229364Y607915D01*
X229443Y607848D01*
X229518Y607777D01*
X229536Y607768D01*
X229551Y607755D01*
X229647Y607717D01*
X229741Y607673D01*
X229761Y607671D01*
X229779Y607663D01*
X229946Y607645D01*
X239225Y607645D01*
X239225Y601685D01*
X239227Y601669D01*
X239226Y601655D01*
X239226Y601652D01*
X239226Y601645D01*
X239248Y601544D01*
X239264Y601442D01*
X239274Y601424D01*
X239278Y601405D01*
X239331Y601316D01*
X239379Y601224D01*
X239394Y601211D01*
X239404Y601194D01*
X239483Y601126D01*
X239558Y601055D01*
X239576Y601047D01*
X239591Y601034D01*
X239687Y600995D01*
X239781Y600951D01*
X239801Y600949D01*
X239819Y600942D01*
X239986Y600923D01*
X240882Y600923D01*
X240902Y600927D01*
X240921Y600924D01*
X241023Y600946D01*
X241125Y600963D01*
X241142Y600972D01*
X241162Y600977D01*
X241251Y601030D01*
X241342Y601078D01*
X241356Y601093D01*
X241373Y601103D01*
X241440Y601182D01*
X241511Y601257D01*
X241520Y601275D01*
X241533Y601290D01*
X241571Y601386D01*
X241615Y601480D01*
X241617Y601499D01*
X241625Y601518D01*
X241643Y601685D01*
X241643Y607645D01*
X250161Y607645D01*
X250161Y599127D01*
X244154Y599127D01*
X244134Y599124D01*
X244115Y599126D01*
X244013Y599104D01*
X243911Y599088D01*
X243894Y599078D01*
X243874Y599074D01*
X243785Y599021D01*
X243694Y598973D01*
X243680Y598958D01*
X243663Y598948D01*
X243596Y598869D01*
X243525Y598794D01*
X243516Y598776D01*
X243503Y598761D01*
X243464Y598665D01*
X243421Y598571D01*
X243419Y598551D01*
X243411Y598533D01*
X243393Y598366D01*
X243393Y595198D01*
X240893Y592698D01*
X240842Y592671D01*
X240829Y592657D01*
X240812Y592646D01*
X240744Y592568D01*
X240673Y592493D01*
X240665Y592475D01*
X240652Y592459D01*
X240613Y592363D01*
X240569Y592270D01*
X240567Y592250D01*
X240560Y592231D01*
X240541Y592065D01*
X240541Y584896D01*
X240556Y584806D01*
X240563Y584715D01*
X240576Y584685D01*
X240581Y584653D01*
X240624Y584573D01*
X240659Y584489D01*
X240685Y584457D01*
X240696Y584436D01*
X240719Y584414D01*
X240764Y584358D01*
X243555Y581568D01*
X243555Y581026D01*
X243566Y580955D01*
X243568Y580883D01*
X243586Y580834D01*
X243594Y580783D01*
X243628Y580720D01*
X243652Y580652D01*
X243685Y580612D01*
X243709Y580566D01*
X243761Y580516D01*
X243806Y580460D01*
X243850Y580432D01*
X243888Y580396D01*
X243953Y580366D01*
X244013Y580327D01*
X244064Y580314D01*
X244111Y580293D01*
X244182Y580285D01*
X244252Y580267D01*
X244304Y580271D01*
X244355Y580265D01*
X244425Y580281D01*
G37*
G36*
X122457Y566973D02*
X122457Y566973D01*
X122561Y566976D01*
X122580Y566983D01*
X122599Y566984D01*
X122694Y567025D01*
X122792Y567060D01*
X122808Y567073D01*
X122826Y567081D01*
X122957Y567185D01*
X133320Y577548D01*
X133697Y577548D01*
X133717Y577552D01*
X133737Y577549D01*
X133838Y577571D01*
X133940Y577588D01*
X133958Y577597D01*
X133977Y577602D01*
X134066Y577655D01*
X134157Y577703D01*
X134171Y577718D01*
X134188Y577728D01*
X134256Y577807D01*
X134327Y577882D01*
X134335Y577900D01*
X134348Y577915D01*
X134387Y578011D01*
X134430Y578105D01*
X134433Y578124D01*
X134440Y578143D01*
X134459Y578310D01*
X134459Y579693D01*
X135352Y580586D01*
X160615Y580586D01*
X161117Y580084D01*
X161133Y580073D01*
X161146Y580057D01*
X161233Y580001D01*
X161317Y579941D01*
X161336Y579935D01*
X161353Y579924D01*
X161453Y579899D01*
X161552Y579868D01*
X161572Y579869D01*
X161591Y579864D01*
X161694Y579872D01*
X161798Y579875D01*
X161817Y579882D01*
X161837Y579883D01*
X161931Y579924D01*
X162029Y579959D01*
X162044Y579972D01*
X162063Y579980D01*
X162194Y580084D01*
X162239Y580130D01*
X162251Y580146D01*
X162266Y580159D01*
X162323Y580246D01*
X162383Y580330D01*
X162389Y580349D01*
X162399Y580366D01*
X162425Y580466D01*
X162455Y580565D01*
X162455Y580585D01*
X162460Y580604D01*
X162451Y580707D01*
X162449Y580811D01*
X162442Y580830D01*
X162440Y580849D01*
X162400Y580945D01*
X162364Y581042D01*
X162352Y581057D01*
X162344Y581076D01*
X162239Y581207D01*
X161378Y582068D01*
X161369Y582118D01*
X161360Y582136D01*
X161356Y582156D01*
X161303Y582245D01*
X161254Y582336D01*
X161240Y582350D01*
X161230Y582367D01*
X161151Y582434D01*
X161076Y582505D01*
X161058Y582514D01*
X161043Y582527D01*
X160947Y582565D01*
X160853Y582609D01*
X160833Y582611D01*
X160815Y582618D01*
X160648Y582637D01*
X135352Y582637D01*
X134459Y583530D01*
X134459Y592393D01*
X135352Y593286D01*
X160648Y593286D01*
X160668Y593290D01*
X160687Y593287D01*
X160789Y593309D01*
X160891Y593326D01*
X160908Y593335D01*
X160928Y593340D01*
X161017Y593393D01*
X161108Y593441D01*
X161122Y593456D01*
X161139Y593466D01*
X161206Y593545D01*
X161277Y593620D01*
X161286Y593638D01*
X161299Y593653D01*
X161337Y593749D01*
X161381Y593843D01*
X161383Y593862D01*
X161391Y593881D01*
X161409Y594048D01*
X161409Y594576D01*
X161406Y594595D01*
X161408Y594615D01*
X161386Y594716D01*
X161369Y594818D01*
X161360Y594836D01*
X161356Y594856D01*
X161303Y594945D01*
X161254Y595036D01*
X161240Y595050D01*
X161230Y595067D01*
X161151Y595134D01*
X161076Y595205D01*
X161058Y595214D01*
X161043Y595227D01*
X160947Y595265D01*
X160853Y595309D01*
X160833Y595311D01*
X160815Y595318D01*
X160648Y595337D01*
X135352Y595337D01*
X134459Y596230D01*
X134459Y605093D01*
X135352Y605986D01*
X158079Y605986D01*
X158150Y605998D01*
X158222Y606000D01*
X158271Y606018D01*
X158322Y606026D01*
X158385Y606060D01*
X158453Y606084D01*
X158493Y606117D01*
X158539Y606141D01*
X158589Y606193D01*
X158645Y606238D01*
X158673Y606282D01*
X158709Y606320D01*
X158739Y606385D01*
X158778Y606445D01*
X158790Y606495D01*
X158812Y606543D01*
X158820Y606614D01*
X158838Y606683D01*
X158834Y606735D01*
X158839Y606787D01*
X158824Y606857D01*
X158819Y606929D01*
X158798Y606977D01*
X158787Y607027D01*
X158750Y607089D01*
X158722Y607155D01*
X158678Y607211D01*
X158661Y607239D01*
X158643Y607254D01*
X158618Y607286D01*
X158089Y607814D01*
X158015Y607867D01*
X157946Y607927D01*
X157916Y607939D01*
X157890Y607958D01*
X157803Y607984D01*
X157718Y608018D01*
X157677Y608023D01*
X157655Y608030D01*
X157622Y608029D01*
X157551Y608037D01*
X135352Y608037D01*
X134459Y608930D01*
X134459Y617220D01*
X134455Y617240D01*
X134458Y617259D01*
X134436Y617361D01*
X134419Y617463D01*
X134410Y617480D01*
X134405Y617500D01*
X134352Y617589D01*
X134304Y617680D01*
X134289Y617694D01*
X134279Y617711D01*
X134200Y617778D01*
X134125Y617850D01*
X134107Y617858D01*
X134092Y617871D01*
X133996Y617910D01*
X133902Y617953D01*
X133883Y617955D01*
X133864Y617963D01*
X133697Y617981D01*
X109442Y617981D01*
X109422Y617978D01*
X109402Y617980D01*
X109301Y617958D01*
X109199Y617942D01*
X109181Y617932D01*
X109162Y617928D01*
X109073Y617875D01*
X108981Y617826D01*
X108968Y617812D01*
X108951Y617802D01*
X108883Y617723D01*
X108812Y617648D01*
X108804Y617630D01*
X108791Y617615D01*
X108752Y617519D01*
X108708Y617425D01*
X108706Y617405D01*
X108699Y617387D01*
X108680Y617220D01*
X108680Y614096D01*
X108695Y614006D01*
X108702Y613915D01*
X108715Y613885D01*
X108720Y613853D01*
X108763Y613773D01*
X108798Y613689D01*
X108824Y613657D01*
X108835Y613636D01*
X108858Y613614D01*
X108903Y613558D01*
X111728Y610733D01*
X111728Y602455D01*
X111731Y602436D01*
X111729Y602416D01*
X111744Y602347D01*
X111750Y602274D01*
X111763Y602244D01*
X111768Y602212D01*
X111778Y602194D01*
X111782Y602176D01*
X111817Y602116D01*
X111846Y602048D01*
X111872Y602016D01*
X111883Y601995D01*
X111899Y601980D01*
X111908Y601965D01*
X111924Y601951D01*
X111951Y601917D01*
X114776Y599092D01*
X114776Y590037D01*
X114791Y589947D01*
X114798Y589856D01*
X114811Y589826D01*
X114816Y589795D01*
X114859Y589714D01*
X114894Y589630D01*
X114920Y589598D01*
X114931Y589577D01*
X114954Y589555D01*
X114999Y589499D01*
X117824Y586674D01*
X117824Y579108D01*
X117839Y579018D01*
X117846Y578927D01*
X117859Y578897D01*
X117864Y578865D01*
X117907Y578784D01*
X117942Y578701D01*
X117968Y578668D01*
X117979Y578648D01*
X118002Y578626D01*
X118047Y578570D01*
X120872Y575745D01*
X120872Y568509D01*
X120887Y568419D01*
X120894Y568328D01*
X120907Y568298D01*
X120912Y568266D01*
X120955Y568185D01*
X120990Y568101D01*
X121016Y568069D01*
X121027Y568049D01*
X121050Y568026D01*
X121095Y567970D01*
X121880Y567185D01*
X121896Y567174D01*
X121909Y567158D01*
X121996Y567102D01*
X122080Y567042D01*
X122099Y567036D01*
X122116Y567025D01*
X122216Y567000D01*
X122315Y566970D01*
X122335Y566970D01*
X122354Y566965D01*
X122457Y566973D01*
G37*
G36*
X254296Y457601D02*
X254296Y457601D01*
X254367Y457603D01*
X254416Y457621D01*
X254468Y457629D01*
X254531Y457663D01*
X254598Y457687D01*
X254639Y457720D01*
X254685Y457744D01*
X254734Y457796D01*
X254790Y457841D01*
X254819Y457885D01*
X254854Y457923D01*
X254885Y457988D01*
X254923Y458048D01*
X254936Y458098D01*
X254958Y458146D01*
X254966Y458217D01*
X254983Y458286D01*
X254979Y458338D01*
X254985Y458390D01*
X254970Y458460D01*
X254964Y458532D01*
X254944Y458579D01*
X254933Y458630D01*
X254896Y458692D01*
X254868Y458758D01*
X254823Y458814D01*
X254807Y458842D01*
X254789Y458857D01*
X254763Y458889D01*
X254233Y459419D01*
X252671Y460981D01*
X252671Y464879D01*
X252668Y464899D01*
X252670Y464919D01*
X252648Y465020D01*
X252631Y465122D01*
X252622Y465140D01*
X252618Y465159D01*
X252564Y465248D01*
X252516Y465339D01*
X252502Y465353D01*
X252491Y465370D01*
X252413Y465438D01*
X252338Y465509D01*
X252320Y465517D01*
X252304Y465530D01*
X252208Y465569D01*
X252115Y465612D01*
X252095Y465615D01*
X252076Y465622D01*
X251910Y465641D01*
X248326Y465641D01*
X247433Y466534D01*
X247433Y481797D01*
X248326Y482690D01*
X251910Y482690D01*
X251929Y482693D01*
X251949Y482691D01*
X252050Y482713D01*
X252152Y482730D01*
X252170Y482739D01*
X252189Y482743D01*
X252278Y482797D01*
X252370Y482845D01*
X252383Y482859D01*
X252401Y482870D01*
X252468Y482948D01*
X252539Y483023D01*
X252547Y483041D01*
X252560Y483056D01*
X252599Y483153D01*
X252643Y483246D01*
X252645Y483266D01*
X252652Y483285D01*
X252671Y483451D01*
X252671Y492294D01*
X252658Y492370D01*
X252655Y492447D01*
X252639Y492491D01*
X252633Y492526D01*
X252670Y493518D01*
X252669Y493530D01*
X252671Y493547D01*
X252671Y494488D01*
X253360Y495128D01*
X253367Y495136D01*
X253381Y495147D01*
X254095Y495861D01*
X254145Y495880D01*
X254195Y495917D01*
X254222Y495932D01*
X254240Y495951D01*
X254279Y495980D01*
X256407Y497954D01*
X256472Y498037D01*
X256541Y498117D01*
X256547Y498134D01*
X256558Y498148D01*
X256593Y498247D01*
X256633Y498345D01*
X256635Y498367D01*
X256640Y498380D01*
X256640Y498411D01*
X256651Y498512D01*
X256651Y499992D01*
X257544Y500885D01*
X262307Y500885D01*
X262572Y500620D01*
X262646Y500567D01*
X262716Y500508D01*
X262746Y500496D01*
X262772Y500477D01*
X262859Y500450D01*
X262944Y500416D01*
X262985Y500411D01*
X263007Y500404D01*
X263039Y500405D01*
X263111Y500397D01*
X263833Y500397D01*
X263852Y500401D01*
X263872Y500398D01*
X263974Y500420D01*
X264076Y500437D01*
X264093Y500446D01*
X264113Y500451D01*
X264202Y500504D01*
X264293Y500552D01*
X264307Y500567D01*
X264324Y500577D01*
X264391Y500656D01*
X264462Y500731D01*
X264471Y500749D01*
X264484Y500764D01*
X264522Y500860D01*
X264566Y500954D01*
X264568Y500973D01*
X264576Y500992D01*
X264594Y501159D01*
X264594Y501915D01*
X265746Y503067D01*
X266520Y503067D01*
X266539Y503070D01*
X266559Y503068D01*
X266661Y503090D01*
X266763Y503107D01*
X266780Y503116D01*
X266800Y503120D01*
X266889Y503173D01*
X266980Y503222D01*
X266994Y503236D01*
X267011Y503246D01*
X267078Y503325D01*
X267149Y503400D01*
X267158Y503418D01*
X267171Y503433D01*
X267209Y503530D01*
X267253Y503623D01*
X267255Y503643D01*
X267263Y503661D01*
X267281Y503828D01*
X267281Y513279D01*
X267269Y513349D01*
X267268Y513421D01*
X267250Y513470D01*
X267241Y513521D01*
X267208Y513585D01*
X267183Y513652D01*
X267151Y513693D01*
X267126Y513739D01*
X267074Y513788D01*
X267029Y513844D01*
X266986Y513872D01*
X266948Y513908D01*
X266883Y513938D01*
X266823Y513977D01*
X266772Y513990D01*
X266725Y514012D01*
X266654Y514020D01*
X266584Y514037D01*
X266532Y514033D01*
X266480Y514039D01*
X266410Y514024D01*
X266339Y514018D01*
X266291Y513998D01*
X266240Y513987D01*
X266178Y513950D01*
X266112Y513922D01*
X266056Y513877D01*
X266029Y513860D01*
X266014Y513843D01*
X265982Y513817D01*
X264808Y512643D01*
X261060Y512643D01*
X260465Y513238D01*
X260449Y513250D01*
X260436Y513266D01*
X260349Y513322D01*
X260265Y513382D01*
X260246Y513388D01*
X260229Y513399D01*
X260129Y513424D01*
X260030Y513454D01*
X260010Y513454D01*
X259991Y513459D01*
X259888Y513451D01*
X259784Y513448D01*
X259765Y513441D01*
X259745Y513440D01*
X259651Y513399D01*
X259553Y513364D01*
X259537Y513351D01*
X259519Y513343D01*
X259388Y513238D01*
X245674Y499524D01*
X245621Y499450D01*
X245562Y499381D01*
X245549Y499351D01*
X245531Y499325D01*
X245504Y499238D01*
X245470Y499153D01*
X245465Y499112D01*
X245458Y499090D01*
X245459Y499057D01*
X245451Y498986D01*
X245451Y480510D01*
X239671Y474730D01*
X206139Y474730D01*
X206049Y474716D01*
X205958Y474709D01*
X205928Y474696D01*
X205896Y474691D01*
X205816Y474648D01*
X205732Y474612D01*
X205700Y474587D01*
X205679Y474576D01*
X205657Y474552D01*
X205601Y474507D01*
X204065Y472971D01*
X204012Y472897D01*
X203952Y472828D01*
X203940Y472798D01*
X203921Y472772D01*
X203895Y472685D01*
X203860Y472600D01*
X203856Y472559D01*
X203849Y472537D01*
X203850Y472504D01*
X203842Y472433D01*
X203842Y470257D01*
X201470Y467885D01*
X198867Y467885D01*
X198796Y467873D01*
X198725Y467871D01*
X198676Y467854D01*
X198624Y467845D01*
X198561Y467812D01*
X198494Y467787D01*
X198453Y467754D01*
X198407Y467730D01*
X198358Y467678D01*
X198302Y467633D01*
X198273Y467589D01*
X198237Y467552D01*
X198207Y467487D01*
X198169Y467426D01*
X198156Y467376D01*
X198134Y467329D01*
X198126Y467257D01*
X198108Y467188D01*
X198113Y467136D01*
X198107Y467084D01*
X198122Y467014D01*
X198128Y466943D01*
X198148Y466895D01*
X198159Y466844D01*
X198196Y466782D01*
X198224Y466716D01*
X198269Y466660D01*
X198285Y466633D01*
X198303Y466617D01*
X198329Y466585D01*
X202937Y461977D01*
X203011Y461924D01*
X203080Y461864D01*
X203111Y461852D01*
X203137Y461833D01*
X203224Y461807D01*
X203309Y461773D01*
X203350Y461768D01*
X203372Y461761D01*
X203404Y461762D01*
X203475Y461754D01*
X225137Y461754D01*
X226699Y460192D01*
X229078Y457812D01*
X229152Y457759D01*
X229222Y457700D01*
X229252Y457688D01*
X229278Y457669D01*
X229365Y457642D01*
X229450Y457608D01*
X229491Y457603D01*
X229513Y457596D01*
X229545Y457597D01*
X229616Y457589D01*
X254225Y457589D01*
X254296Y457601D01*
G37*
G36*
X271691Y422043D02*
X271691Y422043D01*
X271711Y422041D01*
X271812Y422063D01*
X271914Y422079D01*
X271932Y422089D01*
X271951Y422093D01*
X272040Y422146D01*
X272132Y422194D01*
X272145Y422209D01*
X272163Y422219D01*
X272230Y422298D01*
X272301Y422373D01*
X272309Y422391D01*
X272322Y422406D01*
X272361Y422502D01*
X272405Y422596D01*
X272407Y422616D01*
X272414Y422634D01*
X272433Y422801D01*
X272433Y424968D01*
X272430Y424988D01*
X272432Y425008D01*
X272410Y425109D01*
X272393Y425211D01*
X272384Y425228D01*
X272380Y425248D01*
X272326Y425337D01*
X272278Y425428D01*
X272264Y425442D01*
X272253Y425459D01*
X272175Y425526D01*
X272100Y425598D01*
X272082Y425606D01*
X272066Y425619D01*
X271970Y425658D01*
X271877Y425701D01*
X271857Y425703D01*
X271838Y425711D01*
X271672Y425729D01*
X268145Y425729D01*
X265773Y428101D01*
X265773Y431455D01*
X268145Y433827D01*
X271672Y433827D01*
X271691Y433830D01*
X271711Y433828D01*
X271812Y433850D01*
X271914Y433867D01*
X271932Y433876D01*
X271951Y433880D01*
X272040Y433933D01*
X272132Y433982D01*
X272145Y433996D01*
X272163Y434006D01*
X272230Y434085D01*
X272301Y434160D01*
X272309Y434178D01*
X272322Y434193D01*
X272361Y434289D01*
X272405Y434383D01*
X272407Y434403D01*
X272414Y434421D01*
X272433Y434588D01*
X272433Y436797D01*
X272689Y437053D01*
X272731Y437111D01*
X272780Y437163D01*
X272802Y437210D01*
X272832Y437253D01*
X272854Y437321D01*
X272884Y437386D01*
X272889Y437438D01*
X272905Y437488D01*
X272903Y437559D01*
X272911Y437631D01*
X272900Y437682D01*
X272898Y437734D01*
X272874Y437801D01*
X272859Y437871D01*
X272832Y437916D01*
X272814Y437965D01*
X272769Y438021D01*
X272732Y438082D01*
X272693Y438116D01*
X272660Y438157D01*
X272600Y438195D01*
X272546Y438242D01*
X272497Y438262D01*
X272453Y438290D01*
X272384Y438307D01*
X272317Y438334D01*
X272246Y438342D01*
X272215Y438350D01*
X272192Y438348D01*
X272151Y438352D01*
X237764Y438352D01*
X237694Y438341D01*
X237622Y438339D01*
X237573Y438321D01*
X237522Y438313D01*
X237458Y438279D01*
X237391Y438255D01*
X237350Y438222D01*
X237304Y438198D01*
X237255Y438146D01*
X237199Y438101D01*
X237171Y438057D01*
X237135Y438019D01*
X237105Y437954D01*
X237066Y437894D01*
X237053Y437843D01*
X237031Y437796D01*
X237023Y437725D01*
X237006Y437655D01*
X237010Y437604D01*
X237004Y437552D01*
X237020Y437482D01*
X237025Y437410D01*
X237045Y437362D01*
X237057Y437311D01*
X237093Y437250D01*
X237121Y437184D01*
X237166Y437128D01*
X237183Y437100D01*
X237200Y437085D01*
X237226Y437053D01*
X237482Y436797D01*
X237482Y422801D01*
X237486Y422781D01*
X237483Y422761D01*
X237505Y422660D01*
X237522Y422558D01*
X237531Y422540D01*
X237536Y422521D01*
X237589Y422432D01*
X237637Y422341D01*
X237652Y422327D01*
X237662Y422310D01*
X237740Y422242D01*
X237815Y422171D01*
X237834Y422163D01*
X237849Y422150D01*
X237945Y422111D01*
X238039Y422068D01*
X238058Y422065D01*
X238077Y422058D01*
X238244Y422040D01*
X271672Y422040D01*
X271691Y422043D01*
G37*
G36*
X220719Y581199D02*
X220719Y581199D01*
X220771Y581201D01*
X220839Y581225D01*
X220909Y581241D01*
X220954Y581267D01*
X221002Y581285D01*
X221058Y581330D01*
X221120Y581367D01*
X221154Y581406D01*
X221194Y581439D01*
X221233Y581499D01*
X221280Y581554D01*
X221299Y581602D01*
X221327Y581646D01*
X221345Y581715D01*
X221372Y581782D01*
X221380Y581853D01*
X221388Y581884D01*
X221386Y581908D01*
X221390Y581949D01*
X221390Y583463D01*
X221383Y583509D01*
X221385Y583555D01*
X221363Y583629D01*
X221351Y583706D01*
X221329Y583747D01*
X221316Y583791D01*
X221272Y583855D01*
X221235Y583924D01*
X221202Y583955D01*
X221176Y583993D01*
X221114Y584039D01*
X221057Y584093D01*
X221015Y584112D01*
X220979Y584140D01*
X220905Y584164D01*
X220834Y584197D01*
X220788Y584202D01*
X220745Y584216D01*
X220667Y584215D01*
X220590Y584224D01*
X220545Y584214D01*
X220499Y584213D01*
X220367Y584175D01*
X220349Y584171D01*
X220345Y584169D01*
X220338Y584167D01*
X219550Y583840D01*
X219433Y583817D01*
X219433Y588430D01*
X219430Y588450D01*
X219432Y588469D01*
X219410Y588571D01*
X219393Y588673D01*
X219384Y588690D01*
X219380Y588710D01*
X219327Y588799D01*
X219278Y588890D01*
X219264Y588904D01*
X219254Y588921D01*
X219175Y588988D01*
X219100Y589060D01*
X219082Y589068D01*
X219067Y589081D01*
X218971Y589120D01*
X218877Y589163D01*
X218857Y589165D01*
X218839Y589173D01*
X218915Y589185D01*
X218932Y589194D01*
X218952Y589198D01*
X219041Y589252D01*
X219132Y589300D01*
X219146Y589314D01*
X219163Y589325D01*
X219230Y589403D01*
X219301Y589478D01*
X219310Y589496D01*
X219323Y589512D01*
X219361Y589608D01*
X219405Y589701D01*
X219407Y589721D01*
X219415Y589740D01*
X219433Y589906D01*
X219433Y592341D01*
X219418Y592431D01*
X219411Y592522D01*
X219399Y592552D01*
X219393Y592584D01*
X219351Y592664D01*
X219315Y592748D01*
X219289Y592780D01*
X219278Y592801D01*
X219255Y592823D01*
X219210Y592879D01*
X218771Y593318D01*
X218771Y596672D01*
X220443Y598344D01*
X220513Y598441D01*
X220583Y598537D01*
X220585Y598540D01*
X220587Y598544D01*
X220622Y598657D01*
X220658Y598771D01*
X220658Y598775D01*
X220659Y598779D01*
X220656Y598899D01*
X220654Y599017D01*
X220653Y599021D01*
X220653Y599025D01*
X220612Y599137D01*
X220572Y599249D01*
X220570Y599252D01*
X220569Y599256D01*
X220494Y599349D01*
X220421Y599442D01*
X220417Y599445D01*
X220415Y599448D01*
X220403Y599455D01*
X220286Y599542D01*
X220124Y599635D01*
X219651Y600108D01*
X219316Y600687D01*
X219143Y601334D01*
X219143Y607645D01*
X228422Y607645D01*
X228441Y607648D01*
X228461Y607646D01*
X228562Y607668D01*
X228664Y607685D01*
X228682Y607694D01*
X228702Y607698D01*
X228791Y607752D01*
X228882Y607800D01*
X228896Y607814D01*
X228913Y607824D01*
X228980Y607903D01*
X229051Y607978D01*
X229060Y607996D01*
X229073Y608011D01*
X229111Y608108D01*
X229155Y608201D01*
X229157Y608221D01*
X229165Y608240D01*
X229183Y608406D01*
X229183Y609930D01*
X229180Y609950D01*
X229182Y609970D01*
X229160Y610071D01*
X229143Y610173D01*
X229134Y610190D01*
X229130Y610210D01*
X229076Y610299D01*
X229028Y610390D01*
X229014Y610404D01*
X229004Y610421D01*
X228925Y610488D01*
X228850Y610560D01*
X228832Y610568D01*
X228817Y610581D01*
X228720Y610620D01*
X228627Y610663D01*
X228607Y610665D01*
X228588Y610673D01*
X228422Y610691D01*
X219143Y610691D01*
X219143Y617003D01*
X219149Y617023D01*
X219160Y617142D01*
X219173Y617259D01*
X219173Y617264D01*
X219173Y617268D01*
X219146Y617384D01*
X219121Y617500D01*
X219119Y617503D01*
X219118Y617507D01*
X219056Y617609D01*
X218995Y617711D01*
X218992Y617714D01*
X218990Y617717D01*
X218898Y617794D01*
X218808Y617871D01*
X218804Y617872D01*
X218801Y617875D01*
X218691Y617918D01*
X218580Y617963D01*
X218575Y617963D01*
X218572Y617965D01*
X218558Y617965D01*
X218413Y617981D01*
X217454Y617981D01*
X217338Y617962D01*
X217220Y617944D01*
X217216Y617942D01*
X217212Y617942D01*
X217107Y617886D01*
X217001Y617831D01*
X216998Y617828D01*
X216994Y617826D01*
X216912Y617740D01*
X216830Y617655D01*
X216828Y617651D01*
X216825Y617648D01*
X216775Y617540D01*
X216724Y617433D01*
X216723Y617429D01*
X216721Y617425D01*
X216708Y617307D01*
X216694Y617189D01*
X216695Y617184D01*
X216694Y617181D01*
X216697Y617167D01*
X216719Y617023D01*
X216725Y617003D01*
X216725Y610691D01*
X207446Y610691D01*
X207426Y610688D01*
X207406Y610690D01*
X207305Y610668D01*
X207203Y610652D01*
X207186Y610642D01*
X207166Y610638D01*
X207077Y610585D01*
X206986Y610537D01*
X206972Y610522D01*
X206955Y610512D01*
X206888Y610433D01*
X206816Y610358D01*
X206808Y610340D01*
X206795Y610325D01*
X206756Y610229D01*
X206713Y610135D01*
X206711Y610115D01*
X206703Y610097D01*
X206685Y609930D01*
X206685Y609167D01*
X206683Y609167D01*
X206683Y609930D01*
X206680Y609950D01*
X206682Y609970D01*
X206660Y610071D01*
X206643Y610173D01*
X206634Y610190D01*
X206630Y610210D01*
X206576Y610299D01*
X206528Y610390D01*
X206514Y610404D01*
X206504Y610421D01*
X206425Y610488D01*
X206350Y610560D01*
X206332Y610568D01*
X206317Y610581D01*
X206220Y610620D01*
X206127Y610663D01*
X206107Y610665D01*
X206088Y610673D01*
X205922Y610691D01*
X196643Y610691D01*
X196643Y617003D01*
X196649Y617023D01*
X196660Y617142D01*
X196673Y617259D01*
X196673Y617264D01*
X196673Y617268D01*
X196646Y617384D01*
X196621Y617500D01*
X196619Y617503D01*
X196618Y617507D01*
X196556Y617609D01*
X196495Y617711D01*
X196492Y617714D01*
X196490Y617717D01*
X196398Y617794D01*
X196308Y617871D01*
X196304Y617872D01*
X196301Y617875D01*
X196191Y617918D01*
X196080Y617963D01*
X196075Y617963D01*
X196072Y617965D01*
X196058Y617965D01*
X195913Y617981D01*
X173297Y617981D01*
X173226Y617970D01*
X173154Y617968D01*
X173105Y617950D01*
X173054Y617942D01*
X172991Y617908D01*
X172923Y617883D01*
X172882Y617851D01*
X172836Y617826D01*
X172787Y617775D01*
X172731Y617730D01*
X172703Y617686D01*
X172667Y617648D01*
X172637Y617583D01*
X172598Y617523D01*
X172585Y617472D01*
X172563Y617425D01*
X172556Y617354D01*
X172538Y617284D01*
X172542Y617232D01*
X172536Y617181D01*
X172552Y617110D01*
X172557Y617039D01*
X172578Y616991D01*
X172589Y616940D01*
X172625Y616879D01*
X172654Y616813D01*
X172698Y616757D01*
X172715Y616729D01*
X172733Y616714D01*
X172758Y616682D01*
X176645Y612796D01*
X176718Y612742D01*
X176788Y612683D01*
X176818Y612671D01*
X176844Y612652D01*
X176931Y612625D01*
X177016Y612591D01*
X177057Y612586D01*
X177079Y612580D01*
X177112Y612580D01*
X177183Y612573D01*
X181425Y612573D01*
X182987Y611010D01*
X196303Y597694D01*
X196319Y597683D01*
X196332Y597667D01*
X196419Y597611D01*
X196503Y597551D01*
X196522Y597545D01*
X196538Y597534D01*
X196639Y597509D01*
X196738Y597478D01*
X196758Y597479D01*
X196777Y597474D01*
X196880Y597482D01*
X196984Y597485D01*
X197002Y597492D01*
X197022Y597493D01*
X197117Y597533D01*
X197215Y597569D01*
X197230Y597582D01*
X197249Y597589D01*
X197380Y597694D01*
X197998Y598313D01*
X198066Y598408D01*
X198138Y598505D01*
X198139Y598509D01*
X198141Y598512D01*
X198176Y598626D01*
X198213Y598739D01*
X198213Y598743D01*
X198214Y598747D01*
X198211Y598865D01*
X198209Y598985D01*
X198208Y598989D01*
X198207Y598993D01*
X198166Y599106D01*
X198127Y599217D01*
X198124Y599220D01*
X198123Y599224D01*
X198048Y599318D01*
X197975Y599411D01*
X197971Y599414D01*
X197969Y599416D01*
X197958Y599424D01*
X197840Y599510D01*
X197624Y599635D01*
X197151Y600108D01*
X196816Y600687D01*
X196643Y601334D01*
X196643Y607645D01*
X205161Y607645D01*
X205161Y598517D01*
X205175Y598427D01*
X205182Y598336D01*
X205195Y598306D01*
X205200Y598274D01*
X205243Y598193D01*
X205279Y598109D01*
X205305Y598077D01*
X205315Y598057D01*
X205339Y598034D01*
X205384Y597978D01*
X205572Y597790D01*
X205572Y594436D01*
X205444Y594307D01*
X205390Y594233D01*
X205331Y594163D01*
X205319Y594133D01*
X205300Y594107D01*
X205273Y594020D01*
X205239Y593935D01*
X205235Y593894D01*
X205228Y593872D01*
X205228Y593840D01*
X205221Y593768D01*
X205221Y593596D01*
X205235Y593506D01*
X205242Y593415D01*
X205255Y593385D01*
X205260Y593353D01*
X205303Y593272D01*
X205339Y593188D01*
X205364Y593156D01*
X205375Y593136D01*
X205399Y593113D01*
X205444Y593057D01*
X207459Y591042D01*
X207459Y588041D01*
X207462Y588021D01*
X207460Y588001D01*
X207482Y587900D01*
X207498Y587798D01*
X207508Y587780D01*
X207512Y587761D01*
X207565Y587672D01*
X207613Y587580D01*
X207628Y587567D01*
X207638Y587550D01*
X207717Y587482D01*
X207792Y587411D01*
X207810Y587403D01*
X207825Y587390D01*
X207921Y587351D01*
X208015Y587307D01*
X208035Y587305D01*
X208053Y587298D01*
X208220Y587279D01*
X208640Y587279D01*
X209021Y586899D01*
X209079Y586857D01*
X209131Y586808D01*
X209178Y586786D01*
X209221Y586755D01*
X209289Y586734D01*
X209354Y586704D01*
X209406Y586698D01*
X209456Y586683D01*
X209527Y586685D01*
X209599Y586677D01*
X209649Y586688D01*
X209702Y586689D01*
X209769Y586714D01*
X209839Y586729D01*
X209884Y586756D01*
X209933Y586774D01*
X209989Y586819D01*
X210050Y586855D01*
X210084Y586895D01*
X210125Y586928D01*
X210163Y586988D01*
X210210Y587042D01*
X210229Y587091D01*
X210258Y587134D01*
X210275Y587204D01*
X210302Y587270D01*
X210310Y587342D01*
X210318Y587373D01*
X210316Y587396D01*
X210320Y587437D01*
X210320Y590580D01*
X210306Y590670D01*
X210299Y590761D01*
X210286Y590791D01*
X210281Y590823D01*
X210238Y590904D01*
X210202Y590988D01*
X210177Y591020D01*
X210166Y591040D01*
X210142Y591063D01*
X210097Y591119D01*
X208558Y592658D01*
X208558Y596012D01*
X210375Y597828D01*
X210417Y597886D01*
X210466Y597938D01*
X210488Y597985D01*
X210518Y598028D01*
X210539Y598096D01*
X210570Y598161D01*
X210575Y598213D01*
X210591Y598263D01*
X210589Y598335D01*
X210597Y598406D01*
X210586Y598457D01*
X210584Y598509D01*
X210560Y598576D01*
X210544Y598646D01*
X210518Y598691D01*
X210500Y598740D01*
X210455Y598796D01*
X210418Y598857D01*
X210379Y598891D01*
X210346Y598932D01*
X210286Y598970D01*
X210231Y599017D01*
X210183Y599037D01*
X210139Y599065D01*
X210070Y599082D01*
X210003Y599109D01*
X209932Y599117D01*
X209901Y599125D01*
X209877Y599123D01*
X209836Y599127D01*
X208207Y599127D01*
X208207Y607645D01*
X216725Y607645D01*
X216725Y601334D01*
X216551Y600687D01*
X216217Y600108D01*
X215744Y599635D01*
X215165Y599301D01*
X215020Y599262D01*
X214933Y599223D01*
X214844Y599190D01*
X214822Y599172D01*
X214796Y599161D01*
X214726Y599096D01*
X214652Y599036D01*
X214637Y599013D01*
X214616Y598993D01*
X214571Y598910D01*
X214519Y598829D01*
X214512Y598802D01*
X214499Y598777D01*
X214482Y598683D01*
X214459Y598591D01*
X214461Y598563D01*
X214456Y598535D01*
X214471Y598440D01*
X214478Y598346D01*
X214489Y598320D01*
X214493Y598292D01*
X214537Y598207D01*
X214574Y598119D01*
X214596Y598092D01*
X214606Y598073D01*
X214630Y598050D01*
X214679Y597988D01*
X216656Y596012D01*
X216656Y592657D01*
X216604Y592585D01*
X216545Y592516D01*
X216533Y592486D01*
X216514Y592460D01*
X216487Y592372D01*
X216453Y592288D01*
X216448Y592247D01*
X216442Y592225D01*
X216442Y592192D01*
X216435Y592121D01*
X216435Y589906D01*
X216438Y589887D01*
X216436Y589867D01*
X216458Y589766D01*
X216474Y589664D01*
X216484Y589646D01*
X216488Y589627D01*
X216541Y589538D01*
X216589Y589446D01*
X216604Y589433D01*
X216614Y589415D01*
X216693Y589348D01*
X216768Y589277D01*
X216786Y589269D01*
X216801Y589256D01*
X216897Y589217D01*
X216991Y589173D01*
X217011Y589171D01*
X217029Y589164D01*
X216953Y589152D01*
X216935Y589142D01*
X216916Y589138D01*
X216827Y589085D01*
X216736Y589036D01*
X216722Y589022D01*
X216705Y589012D01*
X216638Y588933D01*
X216566Y588858D01*
X216558Y588840D01*
X216545Y588825D01*
X216506Y588729D01*
X216463Y588635D01*
X216460Y588615D01*
X216453Y588597D01*
X216435Y588430D01*
X216435Y583810D01*
X216359Y583808D01*
X216259Y583812D01*
X216237Y583805D01*
X216213Y583804D01*
X216119Y583770D01*
X216023Y583741D01*
X216004Y583728D01*
X215982Y583720D01*
X215904Y583657D01*
X215822Y583599D01*
X215808Y583581D01*
X215790Y583566D01*
X215736Y583482D01*
X215677Y583401D01*
X215670Y583379D01*
X215657Y583359D01*
X215633Y583262D01*
X215603Y583166D01*
X215603Y583143D01*
X215597Y583121D01*
X215605Y583021D01*
X215607Y582920D01*
X215615Y582899D01*
X215616Y582876D01*
X215656Y582784D01*
X215689Y582689D01*
X215704Y582670D01*
X215713Y582649D01*
X215818Y582518D01*
X216420Y581916D01*
X216494Y581863D01*
X216563Y581803D01*
X216594Y581791D01*
X216620Y581772D01*
X216707Y581746D01*
X216792Y581711D01*
X216833Y581707D01*
X216855Y581700D01*
X216887Y581701D01*
X216958Y581693D01*
X219808Y581693D01*
X220091Y581410D01*
X220149Y581368D01*
X220201Y581319D01*
X220248Y581297D01*
X220290Y581267D01*
X220359Y581246D01*
X220424Y581215D01*
X220476Y581210D01*
X220526Y581194D01*
X220597Y581196D01*
X220668Y581188D01*
X220719Y581199D01*
G37*
G36*
X278056Y442938D02*
X278056Y442938D01*
X278128Y442939D01*
X278177Y442957D01*
X278228Y442966D01*
X278291Y442999D01*
X278359Y443024D01*
X278399Y443056D01*
X278445Y443081D01*
X278495Y443133D01*
X278551Y443178D01*
X278579Y443221D01*
X278615Y443259D01*
X278645Y443324D01*
X278684Y443384D01*
X278696Y443435D01*
X278718Y443482D01*
X278726Y443553D01*
X278744Y443623D01*
X278740Y443675D01*
X278745Y443727D01*
X278730Y443797D01*
X278725Y443868D01*
X278704Y443916D01*
X278693Y443967D01*
X278656Y444029D01*
X278628Y444095D01*
X278583Y444151D01*
X278567Y444178D01*
X278549Y444193D01*
X278523Y444225D01*
X275953Y446796D01*
X275879Y446849D01*
X275809Y446909D01*
X275779Y446921D01*
X275753Y446940D01*
X275666Y446966D01*
X275581Y447000D01*
X275540Y447005D01*
X275518Y447012D01*
X275486Y447011D01*
X275415Y447019D01*
X261867Y447019D01*
X261777Y447004D01*
X261686Y446997D01*
X261656Y446984D01*
X261624Y446979D01*
X261543Y446936D01*
X261459Y446901D01*
X261427Y446875D01*
X261406Y446864D01*
X261384Y446841D01*
X261328Y446796D01*
X259789Y445257D01*
X256435Y445257D01*
X254064Y447629D01*
X254064Y450983D01*
X254797Y451716D01*
X254839Y451775D01*
X254888Y451827D01*
X254910Y451874D01*
X254941Y451916D01*
X254962Y451985D01*
X254992Y452050D01*
X254998Y452101D01*
X255013Y452151D01*
X255011Y452223D01*
X255019Y452294D01*
X255008Y452345D01*
X255007Y452397D01*
X254982Y452464D01*
X254967Y452534D01*
X254940Y452579D01*
X254922Y452628D01*
X254877Y452684D01*
X254841Y452746D01*
X254801Y452779D01*
X254769Y452820D01*
X254708Y452859D01*
X254654Y452905D01*
X254605Y452925D01*
X254562Y452953D01*
X254492Y452971D01*
X254426Y452997D01*
X254354Y453005D01*
X254323Y453013D01*
X254300Y453011D01*
X254259Y453016D01*
X228760Y453016D01*
X228740Y453013D01*
X228720Y453015D01*
X228619Y452993D01*
X228517Y452976D01*
X228499Y452967D01*
X228480Y452963D01*
X228391Y452909D01*
X228299Y452861D01*
X228286Y452847D01*
X228269Y452836D01*
X228201Y452758D01*
X228130Y452683D01*
X228122Y452665D01*
X228109Y452650D01*
X228070Y452553D01*
X228026Y452460D01*
X228024Y452440D01*
X228017Y452421D01*
X227998Y452255D01*
X227998Y450265D01*
X226926Y447677D01*
X224946Y445696D01*
X222358Y444625D01*
X219557Y444625D01*
X216969Y445696D01*
X214989Y447677D01*
X213917Y450265D01*
X213917Y453066D01*
X214989Y455654D01*
X215216Y455881D01*
X215258Y455939D01*
X215307Y455991D01*
X215329Y456039D01*
X215360Y456081D01*
X215381Y456149D01*
X215411Y456214D01*
X215417Y456266D01*
X215432Y456316D01*
X215430Y456388D01*
X215438Y456459D01*
X215427Y456510D01*
X215426Y456562D01*
X215401Y456629D01*
X215386Y456699D01*
X215359Y456744D01*
X215341Y456793D01*
X215296Y456849D01*
X215260Y456910D01*
X215220Y456944D01*
X215188Y456985D01*
X215127Y457024D01*
X215073Y457070D01*
X215024Y457090D01*
X214981Y457118D01*
X214911Y457135D01*
X214845Y457162D01*
X214773Y457170D01*
X214742Y457178D01*
X214719Y457176D01*
X214678Y457181D01*
X204721Y457181D01*
X204651Y457169D01*
X204579Y457167D01*
X204530Y457149D01*
X204479Y457141D01*
X204415Y457107D01*
X204348Y457083D01*
X204307Y457050D01*
X204261Y457026D01*
X204212Y456974D01*
X204156Y456929D01*
X204128Y456885D01*
X204092Y456847D01*
X204062Y456782D01*
X204023Y456722D01*
X204010Y456672D01*
X203988Y456624D01*
X203980Y456553D01*
X203963Y456484D01*
X203967Y456432D01*
X203961Y456380D01*
X203976Y456310D01*
X203982Y456238D01*
X204002Y456191D01*
X204013Y456140D01*
X204050Y456078D01*
X204078Y456012D01*
X204123Y455956D01*
X204140Y455928D01*
X204157Y455913D01*
X204183Y455881D01*
X216915Y443149D01*
X216989Y443096D01*
X217059Y443036D01*
X217089Y443024D01*
X217115Y443005D01*
X217202Y442979D01*
X217287Y442944D01*
X217328Y442940D01*
X217350Y442933D01*
X217382Y442934D01*
X217454Y442926D01*
X277985Y442926D01*
X278056Y442938D01*
G37*
G36*
X268515Y462494D02*
X268515Y462494D01*
X268606Y462501D01*
X268636Y462514D01*
X268667Y462519D01*
X268748Y462562D01*
X268832Y462598D01*
X268864Y462623D01*
X268885Y462634D01*
X268907Y462658D01*
X268963Y462703D01*
X269548Y463288D01*
X269601Y463362D01*
X269661Y463431D01*
X269673Y463461D01*
X269692Y463487D01*
X269718Y463574D01*
X269753Y463659D01*
X269757Y463700D01*
X269764Y463723D01*
X269763Y463755D01*
X269771Y463826D01*
X269771Y474356D01*
X269768Y474376D01*
X269770Y474396D01*
X269748Y474497D01*
X269731Y474599D01*
X269722Y474617D01*
X269718Y474636D01*
X269665Y474725D01*
X269616Y474816D01*
X269602Y474830D01*
X269592Y474847D01*
X269513Y474915D01*
X269438Y474986D01*
X269420Y474994D01*
X269405Y475007D01*
X269309Y475046D01*
X269215Y475089D01*
X269195Y475092D01*
X269177Y475099D01*
X269010Y475117D01*
X265746Y475117D01*
X264594Y476270D01*
X264594Y482915D01*
X264765Y483085D01*
X264777Y483102D01*
X264792Y483114D01*
X264848Y483201D01*
X264909Y483285D01*
X264914Y483304D01*
X264925Y483321D01*
X264950Y483421D01*
X264981Y483520D01*
X264980Y483540D01*
X264985Y483560D01*
X264977Y483663D01*
X264975Y483766D01*
X264968Y483785D01*
X264966Y483805D01*
X264926Y483900D01*
X264890Y483997D01*
X264878Y484013D01*
X264870Y484031D01*
X264765Y484162D01*
X264174Y484753D01*
X263781Y485433D01*
X263578Y486192D01*
X263578Y487248D01*
X263559Y487364D01*
X263541Y487483D01*
X263539Y487487D01*
X263538Y487491D01*
X263483Y487596D01*
X263428Y487701D01*
X263425Y487704D01*
X263423Y487708D01*
X263337Y487790D01*
X263252Y487873D01*
X263248Y487874D01*
X263245Y487877D01*
X263136Y487928D01*
X263030Y487979D01*
X263026Y487979D01*
X263022Y487981D01*
X262904Y487994D01*
X262786Y488008D01*
X262781Y488008D01*
X262777Y488008D01*
X262764Y488005D01*
X262620Y487983D01*
X262010Y487820D01*
X260687Y487820D01*
X260687Y491610D01*
X260684Y491630D01*
X260686Y491650D01*
X260664Y491751D01*
X260647Y491853D01*
X260638Y491871D01*
X260634Y491890D01*
X260581Y491979D01*
X260532Y492070D01*
X260518Y492084D01*
X260508Y492101D01*
X260429Y492169D01*
X260354Y492240D01*
X260336Y492248D01*
X260321Y492261D01*
X260225Y492300D01*
X260131Y492343D01*
X260111Y492346D01*
X260093Y492353D01*
X259926Y492372D01*
X259906Y492368D01*
X259886Y492370D01*
X259785Y492348D01*
X259683Y492332D01*
X259665Y492322D01*
X259646Y492318D01*
X259557Y492265D01*
X259466Y492217D01*
X259452Y492202D01*
X259435Y492192D01*
X259367Y492113D01*
X259296Y492038D01*
X259288Y492020D01*
X259275Y492005D01*
X259236Y491909D01*
X259193Y491815D01*
X259190Y491796D01*
X259183Y491777D01*
X259164Y491610D01*
X259164Y487820D01*
X258006Y487820D01*
X257986Y487817D01*
X257966Y487819D01*
X257865Y487797D01*
X257763Y487780D01*
X257745Y487771D01*
X257726Y487767D01*
X257637Y487713D01*
X257545Y487665D01*
X257532Y487651D01*
X257515Y487640D01*
X257447Y487562D01*
X257376Y487487D01*
X257368Y487469D01*
X257355Y487453D01*
X257316Y487357D01*
X257272Y487264D01*
X257270Y487244D01*
X257263Y487225D01*
X257244Y487059D01*
X257244Y483451D01*
X257248Y483432D01*
X257245Y483412D01*
X257267Y483311D01*
X257284Y483209D01*
X257293Y483191D01*
X257298Y483171D01*
X257351Y483082D01*
X257399Y482991D01*
X257414Y482977D01*
X257424Y482960D01*
X257502Y482893D01*
X257577Y482822D01*
X257596Y482813D01*
X257611Y482800D01*
X257707Y482762D01*
X257801Y482718D01*
X257820Y482716D01*
X257839Y482709D01*
X258006Y482690D01*
X261589Y482690D01*
X262482Y481797D01*
X262482Y466534D01*
X261589Y465641D01*
X258006Y465641D01*
X257986Y465637D01*
X257966Y465640D01*
X257865Y465618D01*
X257763Y465601D01*
X257745Y465592D01*
X257726Y465587D01*
X257637Y465534D01*
X257545Y465486D01*
X257532Y465471D01*
X257515Y465461D01*
X257447Y465382D01*
X257376Y465307D01*
X257368Y465289D01*
X257355Y465274D01*
X257316Y465178D01*
X257272Y465084D01*
X257270Y465065D01*
X257263Y465046D01*
X257244Y464879D01*
X257244Y463241D01*
X257248Y463221D01*
X257245Y463201D01*
X257267Y463100D01*
X257284Y462998D01*
X257293Y462981D01*
X257298Y462961D01*
X257351Y462872D01*
X257399Y462781D01*
X257414Y462767D01*
X257424Y462750D01*
X257502Y462683D01*
X257577Y462611D01*
X257596Y462603D01*
X257611Y462590D01*
X257707Y462551D01*
X257801Y462508D01*
X257820Y462506D01*
X257839Y462498D01*
X258006Y462480D01*
X268425Y462480D01*
X268515Y462494D01*
G37*
G36*
X236155Y482483D02*
X236155Y482483D01*
X236246Y482491D01*
X236276Y482503D01*
X236308Y482508D01*
X236388Y482551D01*
X236472Y482587D01*
X236504Y482613D01*
X236525Y482623D01*
X236547Y482647D01*
X236603Y482692D01*
X237552Y483640D01*
X237605Y483714D01*
X237665Y483784D01*
X237677Y483814D01*
X237695Y483840D01*
X237722Y483927D01*
X237756Y484012D01*
X237761Y484053D01*
X237768Y484075D01*
X237767Y484107D01*
X237775Y484179D01*
X237775Y494242D01*
X237763Y494313D01*
X237761Y494385D01*
X237744Y494433D01*
X237735Y494485D01*
X237702Y494548D01*
X237677Y494616D01*
X237644Y494656D01*
X237620Y494702D01*
X237568Y494752D01*
X237523Y494808D01*
X237479Y494836D01*
X237442Y494872D01*
X237377Y494902D01*
X237316Y494941D01*
X237266Y494953D01*
X237219Y494975D01*
X237147Y494983D01*
X237078Y495001D01*
X237026Y494997D01*
X236974Y495002D01*
X236904Y494987D01*
X236833Y494981D01*
X236785Y494961D01*
X236734Y494950D01*
X236672Y494913D01*
X236606Y494885D01*
X236550Y494840D01*
X236523Y494824D01*
X236508Y494806D01*
X236475Y494780D01*
X228279Y486584D01*
X226826Y486584D01*
X226736Y486569D01*
X226645Y486562D01*
X226615Y486550D01*
X226584Y486544D01*
X226503Y486502D01*
X226419Y486466D01*
X226387Y486440D01*
X226366Y486429D01*
X226344Y486406D01*
X226288Y486361D01*
X224402Y484475D01*
X221048Y484475D01*
X220399Y485124D01*
X220303Y485194D01*
X220207Y485264D01*
X220203Y485265D01*
X220199Y485268D01*
X220087Y485302D01*
X219973Y485339D01*
X219968Y485339D01*
X219964Y485340D01*
X219846Y485337D01*
X219727Y485335D01*
X219723Y485334D01*
X219719Y485334D01*
X219607Y485293D01*
X219495Y485253D01*
X219491Y485251D01*
X219487Y485249D01*
X219394Y485174D01*
X219301Y485102D01*
X219298Y485098D01*
X219295Y485096D01*
X219288Y485084D01*
X219202Y484966D01*
X219048Y484701D01*
X218575Y484228D01*
X217988Y483889D01*
X217951Y483859D01*
X217909Y483836D01*
X217857Y483781D01*
X217798Y483733D01*
X217773Y483693D01*
X217740Y483658D01*
X217708Y483589D01*
X217667Y483525D01*
X217656Y483478D01*
X217636Y483435D01*
X217628Y483360D01*
X217610Y483286D01*
X217614Y483238D01*
X217609Y483190D01*
X217625Y483116D01*
X217632Y483041D01*
X217651Y482997D01*
X217661Y482950D01*
X217700Y482885D01*
X217730Y482816D01*
X217763Y482780D01*
X217787Y482739D01*
X217845Y482690D01*
X217896Y482634D01*
X217938Y482610D01*
X217974Y482579D01*
X218045Y482551D01*
X218111Y482514D01*
X218158Y482505D01*
X218202Y482487D01*
X218331Y482473D01*
X218352Y482469D01*
X218359Y482470D01*
X218369Y482469D01*
X236065Y482469D01*
X236155Y482483D01*
G37*
G36*
X303411Y471870D02*
X303411Y471870D01*
X303530Y471871D01*
X303534Y471873D01*
X303538Y471873D01*
X303649Y471913D01*
X303762Y471953D01*
X303765Y471956D01*
X303769Y471957D01*
X303862Y472032D01*
X303956Y472105D01*
X303959Y472109D01*
X303961Y472111D01*
X303969Y472123D01*
X304055Y472240D01*
X304061Y472250D01*
X304534Y472723D01*
X305113Y473057D01*
X305809Y473244D01*
X305854Y473254D01*
X305956Y473270D01*
X305973Y473280D01*
X305993Y473284D01*
X306082Y473337D01*
X306173Y473385D01*
X306187Y473400D01*
X306204Y473410D01*
X306271Y473489D01*
X306343Y473564D01*
X306351Y473582D01*
X306364Y473597D01*
X306403Y473693D01*
X306446Y473787D01*
X306448Y473807D01*
X306456Y473825D01*
X306474Y473992D01*
X306474Y484540D01*
X306471Y484560D01*
X306473Y484580D01*
X306451Y484681D01*
X306435Y484783D01*
X306425Y484800D01*
X306421Y484820D01*
X306368Y484909D01*
X306320Y485000D01*
X306305Y485014D01*
X306295Y485031D01*
X306216Y485098D01*
X306141Y485170D01*
X306123Y485178D01*
X306108Y485191D01*
X306012Y485230D01*
X305918Y485273D01*
X305898Y485275D01*
X305880Y485283D01*
X305713Y485301D01*
X305524Y485301D01*
X304248Y486577D01*
X304232Y486589D01*
X304220Y486605D01*
X304132Y486661D01*
X304048Y486721D01*
X304029Y486727D01*
X304013Y486738D01*
X303912Y486763D01*
X303813Y486793D01*
X303793Y486793D01*
X303774Y486798D01*
X303671Y486790D01*
X303568Y486787D01*
X303549Y486780D01*
X303529Y486779D01*
X303434Y486738D01*
X303336Y486703D01*
X303321Y486690D01*
X303303Y486682D01*
X303172Y486577D01*
X302225Y485631D01*
X298871Y485631D01*
X296499Y488002D01*
X296499Y491356D01*
X297961Y492818D01*
X298002Y492876D01*
X298052Y492928D01*
X298074Y492975D01*
X298104Y493018D01*
X298125Y493086D01*
X298155Y493151D01*
X298161Y493203D01*
X298177Y493253D01*
X298175Y493325D01*
X298183Y493396D01*
X298171Y493447D01*
X298170Y493499D01*
X298146Y493566D01*
X298130Y493636D01*
X298104Y493681D01*
X298086Y493730D01*
X298041Y493786D01*
X298004Y493847D01*
X297965Y493881D01*
X297932Y493922D01*
X297872Y493960D01*
X297817Y494007D01*
X297769Y494027D01*
X297725Y494055D01*
X297656Y494072D01*
X297589Y494099D01*
X297518Y494107D01*
X297487Y494115D01*
X297463Y494113D01*
X297422Y494117D01*
X291981Y494117D01*
X291961Y494114D01*
X291941Y494116D01*
X291840Y494094D01*
X291738Y494078D01*
X291721Y494068D01*
X291701Y494064D01*
X291612Y494011D01*
X291521Y493963D01*
X291507Y493948D01*
X291490Y493938D01*
X291423Y493859D01*
X291351Y493784D01*
X291343Y493766D01*
X291330Y493751D01*
X291291Y493655D01*
X291248Y493561D01*
X291246Y493541D01*
X291238Y493523D01*
X291220Y493356D01*
X291220Y484828D01*
X291223Y484809D01*
X291221Y484789D01*
X291243Y484687D01*
X291259Y484585D01*
X291269Y484568D01*
X291273Y484548D01*
X291326Y484459D01*
X291374Y484368D01*
X291389Y484354D01*
X291399Y484337D01*
X291478Y484270D01*
X291553Y484199D01*
X291571Y484190D01*
X291586Y484177D01*
X291682Y484139D01*
X291776Y484095D01*
X291796Y484093D01*
X291814Y484085D01*
X291981Y484067D01*
X303691Y484067D01*
X304844Y482915D01*
X304844Y476270D01*
X303691Y475117D01*
X299738Y475117D01*
X299667Y475106D01*
X299596Y475104D01*
X299547Y475086D01*
X299495Y475078D01*
X299432Y475044D01*
X299365Y475020D01*
X299324Y474987D01*
X299278Y474963D01*
X299229Y474911D01*
X299173Y474866D01*
X299144Y474822D01*
X299108Y474784D01*
X299078Y474719D01*
X299040Y474659D01*
X299027Y474608D01*
X299005Y474561D01*
X298997Y474490D01*
X298979Y474420D01*
X298984Y474369D01*
X298978Y474317D01*
X298993Y474247D01*
X298999Y474175D01*
X299019Y474127D01*
X299030Y474076D01*
X299067Y474015D01*
X299095Y473949D01*
X299140Y473893D01*
X299156Y473865D01*
X299174Y473850D01*
X299200Y473818D01*
X300580Y472438D01*
X300654Y472384D01*
X300723Y472325D01*
X300754Y472313D01*
X300780Y472294D01*
X300867Y472267D01*
X300952Y472233D01*
X300993Y472229D01*
X301015Y472222D01*
X301047Y472223D01*
X301118Y472215D01*
X302725Y472215D01*
X302858Y472083D01*
X302953Y472014D01*
X303050Y471943D01*
X303054Y471941D01*
X303057Y471939D01*
X303170Y471904D01*
X303284Y471868D01*
X303288Y471868D01*
X303292Y471867D01*
X303411Y471870D01*
G37*
G36*
X332014Y428167D02*
X332014Y428167D01*
X332034Y428165D01*
X332135Y428187D01*
X332237Y428204D01*
X332255Y428213D01*
X332274Y428218D01*
X332363Y428271D01*
X332454Y428319D01*
X332468Y428333D01*
X332485Y428344D01*
X332553Y428423D01*
X332624Y428497D01*
X332632Y428516D01*
X332645Y428531D01*
X332684Y428627D01*
X332727Y428721D01*
X332730Y428740D01*
X332737Y428759D01*
X332756Y428926D01*
X332756Y429903D01*
X337308Y429903D01*
X337328Y429906D01*
X337348Y429904D01*
X337449Y429926D01*
X337551Y429943D01*
X337568Y429952D01*
X337588Y429956D01*
X337677Y430009D01*
X337768Y430058D01*
X337782Y430072D01*
X337799Y430082D01*
X337802Y430086D01*
X337856Y430035D01*
X337874Y430026D01*
X337890Y430013D01*
X337986Y429975D01*
X338079Y429931D01*
X338099Y429929D01*
X338118Y429921D01*
X338284Y429903D01*
X342837Y429903D01*
X342837Y428926D01*
X342840Y428906D01*
X342838Y428886D01*
X342860Y428785D01*
X342877Y428683D01*
X342886Y428665D01*
X342890Y428646D01*
X342944Y428557D01*
X342992Y428465D01*
X343006Y428452D01*
X343016Y428435D01*
X343095Y428367D01*
X343170Y428296D01*
X343188Y428288D01*
X343203Y428275D01*
X343300Y428236D01*
X343393Y428192D01*
X343413Y428190D01*
X343432Y428183D01*
X343598Y428164D01*
X344010Y428164D01*
X344030Y428167D01*
X344050Y428165D01*
X344151Y428187D01*
X344253Y428204D01*
X344271Y428213D01*
X344290Y428218D01*
X344379Y428271D01*
X344470Y428319D01*
X344484Y428334D01*
X344501Y428344D01*
X344569Y428422D01*
X344640Y428497D01*
X344648Y428515D01*
X344661Y428531D01*
X344700Y428627D01*
X344743Y428721D01*
X344746Y428740D01*
X344753Y428759D01*
X344772Y428926D01*
X344772Y433502D01*
X344768Y433521D01*
X344771Y433541D01*
X344749Y433642D01*
X344732Y433745D01*
X344723Y433762D01*
X344718Y433782D01*
X344665Y433871D01*
X344617Y433962D01*
X344602Y433976D01*
X344592Y433993D01*
X344513Y434060D01*
X344438Y434131D01*
X344420Y434140D01*
X344405Y434153D01*
X344309Y434191D01*
X344215Y434235D01*
X344196Y434237D01*
X344177Y434245D01*
X344010Y434263D01*
X343598Y434263D01*
X343579Y434260D01*
X343559Y434262D01*
X343458Y434240D01*
X343356Y434223D01*
X343338Y434214D01*
X343318Y434210D01*
X343229Y434157D01*
X343138Y434108D01*
X343124Y434094D01*
X343107Y434084D01*
X343040Y434005D01*
X342969Y433930D01*
X342960Y433912D01*
X342947Y433897D01*
X342909Y433800D01*
X342865Y433707D01*
X342863Y433687D01*
X342855Y433668D01*
X342837Y433502D01*
X342837Y432402D01*
X338284Y432402D01*
X338265Y432398D01*
X338245Y432401D01*
X338144Y432379D01*
X338042Y432362D01*
X338024Y432353D01*
X338005Y432348D01*
X337916Y432295D01*
X337824Y432247D01*
X337811Y432232D01*
X337794Y432222D01*
X337790Y432218D01*
X337736Y432270D01*
X337718Y432278D01*
X337703Y432291D01*
X337607Y432330D01*
X337513Y432373D01*
X337493Y432376D01*
X337475Y432383D01*
X337308Y432402D01*
X332756Y432402D01*
X332756Y434203D01*
X332752Y434223D01*
X332755Y434242D01*
X332733Y434343D01*
X332716Y434446D01*
X332706Y434463D01*
X332702Y434483D01*
X332649Y434571D01*
X332601Y434663D01*
X332586Y434677D01*
X332576Y434694D01*
X332497Y434761D01*
X332422Y434832D01*
X332404Y434841D01*
X332389Y434854D01*
X332293Y434893D01*
X332199Y434936D01*
X332180Y434938D01*
X332161Y434946D01*
X331994Y434964D01*
X327969Y434964D01*
X327837Y435096D01*
X327742Y435165D01*
X327645Y435236D01*
X327641Y435237D01*
X327637Y435240D01*
X327524Y435275D01*
X327410Y435311D01*
X327406Y435311D01*
X327402Y435312D01*
X327284Y435309D01*
X327165Y435307D01*
X327161Y435306D01*
X327156Y435306D01*
X327046Y435265D01*
X326933Y435225D01*
X326929Y435223D01*
X326925Y435221D01*
X326832Y435147D01*
X326739Y435074D01*
X326736Y435070D01*
X326733Y435068D01*
X326726Y435056D01*
X326640Y434939D01*
X326634Y434929D01*
X326161Y434456D01*
X325582Y434121D01*
X325008Y433968D01*
X324921Y433928D01*
X324832Y433896D01*
X324810Y433878D01*
X324784Y433866D01*
X324714Y433801D01*
X324640Y433742D01*
X324624Y433718D01*
X324604Y433699D01*
X324558Y433615D01*
X324507Y433535D01*
X324500Y433508D01*
X324486Y433483D01*
X324470Y433389D01*
X324446Y433296D01*
X324449Y433268D01*
X324444Y433241D01*
X324458Y433146D01*
X324466Y433051D01*
X324477Y433025D01*
X324481Y432997D01*
X324525Y432913D01*
X324562Y432825D01*
X324584Y432797D01*
X324594Y432779D01*
X324617Y432756D01*
X324630Y432740D01*
X324630Y429358D01*
X324625Y429354D01*
X324603Y429306D01*
X324573Y429264D01*
X324552Y429196D01*
X324522Y429131D01*
X324516Y429079D01*
X324501Y429029D01*
X324503Y428957D01*
X324495Y428886D01*
X324506Y428835D01*
X324507Y428783D01*
X324532Y428716D01*
X324547Y428646D01*
X324574Y428601D01*
X324591Y428552D01*
X324636Y428496D01*
X324673Y428435D01*
X324713Y428401D01*
X324745Y428360D01*
X324805Y428321D01*
X324860Y428275D01*
X324908Y428255D01*
X324952Y428227D01*
X325022Y428210D01*
X325088Y428183D01*
X325159Y428175D01*
X325191Y428167D01*
X325214Y428169D01*
X325255Y428164D01*
X331994Y428164D01*
X332014Y428167D01*
G37*
G36*
X300168Y535705D02*
X300168Y535705D01*
X300288Y535707D01*
X300291Y535708D01*
X300296Y535708D01*
X300407Y535749D01*
X300519Y535789D01*
X300523Y535791D01*
X300527Y535793D01*
X300619Y535867D01*
X300713Y535940D01*
X300716Y535944D01*
X300719Y535946D01*
X300726Y535958D01*
X300812Y536075D01*
X300901Y536228D01*
X301374Y536701D01*
X301384Y536707D01*
X301475Y536782D01*
X301568Y536857D01*
X301571Y536860D01*
X301574Y536863D01*
X301636Y536962D01*
X301701Y537064D01*
X301702Y537068D01*
X301705Y537071D01*
X301732Y537187D01*
X301762Y537302D01*
X301761Y537306D01*
X301762Y537310D01*
X301752Y537429D01*
X301742Y537547D01*
X301741Y537551D01*
X301740Y537555D01*
X301693Y537664D01*
X301646Y537774D01*
X301643Y537777D01*
X301642Y537780D01*
X301632Y537791D01*
X301541Y537905D01*
X301409Y538037D01*
X301409Y546300D01*
X302239Y547130D01*
X302251Y547146D01*
X302266Y547159D01*
X302297Y547206D01*
X302308Y547218D01*
X302317Y547238D01*
X302322Y547246D01*
X302383Y547330D01*
X302389Y547349D01*
X302399Y547365D01*
X302425Y547466D01*
X302455Y547565D01*
X302455Y547585D01*
X302460Y547604D01*
X302451Y547707D01*
X302449Y547811D01*
X302442Y547829D01*
X302440Y547849D01*
X302400Y547944D01*
X302364Y548042D01*
X302352Y548057D01*
X302344Y548075D01*
X302239Y548206D01*
X302002Y548444D01*
X301986Y548456D01*
X301973Y548471D01*
X301886Y548527D01*
X301802Y548587D01*
X301783Y548593D01*
X301766Y548604D01*
X301666Y548629D01*
X301567Y548660D01*
X301547Y548659D01*
X301528Y548664D01*
X301425Y548656D01*
X301321Y548653D01*
X301302Y548647D01*
X301283Y548645D01*
X301187Y548605D01*
X301090Y548569D01*
X301075Y548557D01*
X301056Y548549D01*
X300925Y548444D01*
X300262Y547780D01*
X296908Y547780D01*
X294434Y550253D01*
X294418Y550265D01*
X294406Y550281D01*
X294319Y550337D01*
X294235Y550397D01*
X294216Y550403D01*
X294199Y550414D01*
X294098Y550439D01*
X294000Y550469D01*
X293980Y550469D01*
X293960Y550474D01*
X293857Y550466D01*
X293754Y550463D01*
X293735Y550456D01*
X293715Y550455D01*
X293620Y550414D01*
X293523Y550379D01*
X293507Y550366D01*
X293489Y550358D01*
X293358Y550253D01*
X290135Y547030D01*
X290082Y546956D01*
X290022Y546887D01*
X290010Y546857D01*
X289991Y546830D01*
X289964Y546743D01*
X289930Y546659D01*
X289926Y546618D01*
X289919Y546595D01*
X289920Y546563D01*
X289912Y546492D01*
X289912Y546383D01*
X289923Y546312D01*
X289925Y546240D01*
X289943Y546191D01*
X289952Y546140D01*
X289985Y546077D01*
X290010Y546009D01*
X290042Y545969D01*
X290067Y545923D01*
X290119Y545873D01*
X290163Y545817D01*
X290207Y545789D01*
X290245Y545753D01*
X290310Y545723D01*
X290370Y545684D01*
X290421Y545672D01*
X290468Y545650D01*
X290539Y545642D01*
X290609Y545624D01*
X290661Y545628D01*
X290712Y545623D01*
X290783Y545638D01*
X290854Y545644D01*
X290902Y545664D01*
X290953Y545675D01*
X290983Y545693D01*
X294808Y545693D01*
X297459Y543042D01*
X297459Y539294D01*
X297387Y539222D01*
X297375Y539206D01*
X297360Y539194D01*
X297304Y539107D01*
X297243Y539023D01*
X297237Y539004D01*
X297227Y538987D01*
X297201Y538886D01*
X297171Y538788D01*
X297171Y538768D01*
X297167Y538748D01*
X297175Y538645D01*
X297177Y538542D01*
X297184Y538523D01*
X297186Y538503D01*
X297226Y538408D01*
X297262Y538311D01*
X297274Y538295D01*
X297282Y538277D01*
X297387Y538146D01*
X299615Y535918D01*
X299710Y535849D01*
X299807Y535778D01*
X299811Y535777D01*
X299815Y535774D01*
X299927Y535740D01*
X300042Y535703D01*
X300046Y535703D01*
X300050Y535702D01*
X300168Y535705D01*
G37*
G36*
X208176Y483899D02*
X208176Y483899D01*
X208275Y483902D01*
X208298Y483910D01*
X208322Y483912D01*
X208413Y483952D01*
X208506Y483986D01*
X208525Y484001D01*
X208547Y484011D01*
X208621Y484078D01*
X208698Y484140D01*
X208711Y484160D01*
X208729Y484176D01*
X208778Y484263D01*
X208831Y484347D01*
X208837Y484370D01*
X208849Y484391D01*
X208867Y484489D01*
X208892Y484585D01*
X208890Y484609D01*
X208894Y484633D01*
X208880Y484732D01*
X208872Y484831D01*
X208863Y484853D01*
X208860Y484877D01*
X208792Y485030D01*
X208648Y485280D01*
X208475Y485927D01*
X208475Y487512D01*
X213527Y487512D01*
X213547Y487515D01*
X213567Y487513D01*
X213668Y487535D01*
X213770Y487552D01*
X213787Y487561D01*
X213807Y487565D01*
X213896Y487618D01*
X213987Y487667D01*
X214001Y487681D01*
X214018Y487691D01*
X214085Y487770D01*
X214157Y487845D01*
X214165Y487863D01*
X214178Y487878D01*
X214217Y487974D01*
X214260Y488068D01*
X214262Y488088D01*
X214270Y488106D01*
X214288Y488273D01*
X214288Y489249D01*
X214285Y489269D01*
X214287Y489289D01*
X214265Y489390D01*
X214249Y489492D01*
X214239Y489509D01*
X214235Y489529D01*
X214182Y489618D01*
X214134Y489709D01*
X214119Y489723D01*
X214109Y489740D01*
X214030Y489807D01*
X213955Y489879D01*
X213937Y489887D01*
X213922Y489900D01*
X213826Y489939D01*
X213732Y489982D01*
X213712Y489984D01*
X213694Y489992D01*
X213527Y490010D01*
X208475Y490010D01*
X208475Y491243D01*
X208471Y491263D01*
X208474Y491283D01*
X208452Y491384D01*
X208435Y491486D01*
X208426Y491504D01*
X208421Y491523D01*
X208368Y491612D01*
X208320Y491703D01*
X208305Y491717D01*
X208295Y491734D01*
X208216Y491802D01*
X208141Y491873D01*
X208123Y491881D01*
X208108Y491894D01*
X208012Y491933D01*
X207918Y491976D01*
X207899Y491979D01*
X207880Y491986D01*
X207713Y492005D01*
X203185Y492005D01*
X203095Y491990D01*
X203004Y491983D01*
X202974Y491970D01*
X202942Y491965D01*
X202862Y491922D01*
X202778Y491886D01*
X202746Y491861D01*
X202725Y491850D01*
X202703Y491826D01*
X202647Y491782D01*
X197661Y486796D01*
X197619Y486738D01*
X197570Y486686D01*
X197548Y486638D01*
X197518Y486596D01*
X197497Y486528D01*
X197466Y486463D01*
X197461Y486411D01*
X197445Y486361D01*
X197447Y486289D01*
X197439Y486218D01*
X197450Y486167D01*
X197452Y486115D01*
X197476Y486048D01*
X197492Y485978D01*
X197518Y485933D01*
X197536Y485884D01*
X197581Y485828D01*
X197618Y485767D01*
X197657Y485733D01*
X197690Y485692D01*
X197750Y485653D01*
X197805Y485607D01*
X197853Y485587D01*
X197897Y485559D01*
X197966Y485542D01*
X198033Y485515D01*
X198104Y485507D01*
X198135Y485499D01*
X198159Y485501D01*
X198199Y485496D01*
X206210Y485496D01*
X207595Y484111D01*
X207614Y484097D01*
X207630Y484079D01*
X207714Y484026D01*
X207794Y483968D01*
X207817Y483961D01*
X207838Y483948D01*
X207935Y483925D01*
X208030Y483895D01*
X208054Y483896D01*
X208077Y483890D01*
X208176Y483899D01*
G37*
%LPC*%
G36*
X379726Y457773D02*
X379726Y457773D01*
X379726Y462084D01*
X379899Y462731D01*
X380234Y463310D01*
X380707Y463783D01*
X381286Y464117D01*
X381932Y464291D01*
X391243Y464291D01*
X391243Y457773D01*
X379726Y457773D01*
G37*
%LPD*%
%LPC*%
G36*
X253207Y599127D02*
X253207Y599127D01*
X253207Y607645D01*
X261725Y607645D01*
X261725Y601334D01*
X261551Y600687D01*
X261217Y600108D01*
X260744Y599635D01*
X260165Y599301D01*
X259518Y599127D01*
X253207Y599127D01*
G37*
%LPD*%
%LPC*%
G36*
X275707Y599127D02*
X275707Y599127D01*
X275707Y607645D01*
X284225Y607645D01*
X284225Y601334D01*
X284051Y600687D01*
X283717Y600108D01*
X283244Y599635D01*
X282665Y599301D01*
X282018Y599127D01*
X275707Y599127D01*
G37*
%LPD*%
%LPC*%
G36*
X266349Y599127D02*
X266349Y599127D01*
X265703Y599301D01*
X265124Y599635D01*
X264651Y600108D01*
X264316Y600687D01*
X264143Y601334D01*
X264143Y607645D01*
X272661Y607645D01*
X272661Y599127D01*
X266349Y599127D01*
G37*
%LPD*%
G36*
X317318Y529648D02*
X317318Y529648D01*
X317337Y529646D01*
X317439Y529668D01*
X317541Y529685D01*
X317558Y529694D01*
X317578Y529698D01*
X317667Y529752D01*
X317758Y529800D01*
X317772Y529814D01*
X317789Y529824D01*
X317856Y529903D01*
X317927Y529978D01*
X317936Y529996D01*
X317949Y530011D01*
X317987Y530108D01*
X318008Y530152D01*
X331838Y530152D01*
X331857Y530155D01*
X331877Y530153D01*
X331978Y530175D01*
X332080Y530192D01*
X332098Y530201D01*
X332118Y530205D01*
X332207Y530259D01*
X332298Y530307D01*
X332312Y530321D01*
X332329Y530332D01*
X332396Y530410D01*
X332467Y530485D01*
X332476Y530503D01*
X332489Y530518D01*
X332527Y530615D01*
X332571Y530708D01*
X332573Y530728D01*
X332581Y530747D01*
X332599Y530913D01*
X332599Y532437D01*
X332597Y532450D01*
X332598Y532460D01*
X332597Y532466D01*
X332598Y532477D01*
X332576Y532578D01*
X332559Y532680D01*
X332550Y532698D01*
X332546Y532717D01*
X332492Y532806D01*
X332444Y532897D01*
X332430Y532911D01*
X332420Y532928D01*
X332341Y532995D01*
X332266Y533067D01*
X332248Y533075D01*
X332233Y533088D01*
X332136Y533127D01*
X332043Y533170D01*
X332023Y533173D01*
X332004Y533180D01*
X331838Y533198D01*
X321236Y533198D01*
X321216Y533195D01*
X321196Y533197D01*
X321095Y533175D01*
X320993Y533159D01*
X320976Y533149D01*
X320956Y533145D01*
X320867Y533092D01*
X320776Y533044D01*
X320762Y533029D01*
X320745Y533019D01*
X320678Y532940D01*
X320606Y532865D01*
X320598Y532847D01*
X320585Y532832D01*
X320546Y532736D01*
X320526Y532691D01*
X311196Y532691D01*
X311176Y532688D01*
X311156Y532690D01*
X311055Y532668D01*
X310953Y532652D01*
X310936Y532642D01*
X310916Y532638D01*
X310827Y532585D01*
X310736Y532537D01*
X310722Y532522D01*
X310705Y532512D01*
X310638Y532433D01*
X310566Y532358D01*
X310558Y532340D01*
X310545Y532325D01*
X310506Y532229D01*
X310463Y532135D01*
X310461Y532115D01*
X310453Y532097D01*
X310435Y531930D01*
X310435Y530406D01*
X310438Y530387D01*
X310436Y530367D01*
X310458Y530266D01*
X310474Y530164D01*
X310484Y530146D01*
X310488Y530126D01*
X310541Y530037D01*
X310590Y529946D01*
X310604Y529932D01*
X310614Y529915D01*
X310693Y529848D01*
X310768Y529777D01*
X310786Y529768D01*
X310801Y529755D01*
X310897Y529717D01*
X310991Y529673D01*
X311011Y529671D01*
X311029Y529663D01*
X311196Y529645D01*
X317298Y529645D01*
X317318Y529648D01*
G37*
G36*
X346315Y448805D02*
X346315Y448805D01*
X346387Y448810D01*
X346435Y448831D01*
X346486Y448842D01*
X346547Y448879D01*
X346613Y448907D01*
X346669Y448951D01*
X346697Y448968D01*
X346712Y448986D01*
X346744Y449012D01*
X352074Y454342D01*
X352127Y454416D01*
X352187Y454485D01*
X352199Y454515D01*
X352218Y454541D01*
X352245Y454628D01*
X352279Y454713D01*
X352283Y454754D01*
X352290Y454777D01*
X352289Y454809D01*
X352297Y454880D01*
X352297Y455724D01*
X352278Y455840D01*
X352260Y455959D01*
X352258Y455963D01*
X352257Y455967D01*
X352203Y456070D01*
X352147Y456178D01*
X352144Y456181D01*
X352142Y456184D01*
X352058Y456265D01*
X351971Y456349D01*
X351967Y456351D01*
X351964Y456354D01*
X351855Y456404D01*
X351749Y456455D01*
X351745Y456455D01*
X351741Y456457D01*
X351623Y456470D01*
X351505Y456485D01*
X351500Y456484D01*
X351497Y456484D01*
X351483Y456481D01*
X351339Y456459D01*
X350852Y456329D01*
X349529Y456329D01*
X349529Y460119D01*
X349527Y460132D01*
X349528Y460141D01*
X349526Y460147D01*
X349528Y460159D01*
X349506Y460260D01*
X349489Y460362D01*
X349480Y460380D01*
X349475Y460399D01*
X349422Y460488D01*
X349374Y460579D01*
X349359Y460593D01*
X349349Y460610D01*
X349271Y460678D01*
X349196Y460749D01*
X349178Y460757D01*
X349162Y460770D01*
X349066Y460809D01*
X348972Y460852D01*
X348953Y460855D01*
X348934Y460862D01*
X348767Y460881D01*
X348748Y460877D01*
X348728Y460880D01*
X348626Y460858D01*
X348524Y460841D01*
X348507Y460832D01*
X348487Y460827D01*
X348398Y460774D01*
X348307Y460726D01*
X348293Y460711D01*
X348276Y460701D01*
X348209Y460622D01*
X348138Y460547D01*
X348129Y460529D01*
X348116Y460514D01*
X348078Y460418D01*
X348034Y460324D01*
X348032Y460305D01*
X348024Y460286D01*
X348006Y460119D01*
X348006Y456329D01*
X346683Y456329D01*
X346037Y456502D01*
X345761Y456661D01*
X345720Y456677D01*
X345683Y456700D01*
X345606Y456720D01*
X345531Y456748D01*
X345487Y456750D01*
X345445Y456760D01*
X345365Y456754D01*
X345285Y456757D01*
X345243Y456745D01*
X345200Y456741D01*
X345126Y456710D01*
X345050Y456687D01*
X345014Y456662D01*
X344973Y456645D01*
X344860Y456554D01*
X344848Y456546D01*
X344846Y456543D01*
X344842Y456540D01*
X344321Y456018D01*
X340558Y456018D01*
X340425Y456150D01*
X340331Y456219D01*
X340233Y456290D01*
X340229Y456292D01*
X340226Y456294D01*
X340112Y456329D01*
X339999Y456365D01*
X339995Y456365D01*
X339991Y456366D01*
X339872Y456363D01*
X339753Y456361D01*
X339749Y456360D01*
X339745Y456360D01*
X339634Y456319D01*
X339521Y456279D01*
X339518Y456277D01*
X339514Y456275D01*
X339421Y456201D01*
X339327Y456128D01*
X339324Y456124D01*
X339322Y456122D01*
X339314Y456110D01*
X339228Y455993D01*
X339222Y455983D01*
X338765Y455526D01*
X338696Y455430D01*
X338625Y455334D01*
X338624Y455330D01*
X338622Y455326D01*
X338587Y455213D01*
X338550Y455099D01*
X338550Y455095D01*
X338549Y455091D01*
X338552Y454973D01*
X338554Y454853D01*
X338556Y454849D01*
X338556Y454845D01*
X338596Y454734D01*
X338636Y454621D01*
X338639Y454618D01*
X338640Y454614D01*
X338714Y454521D01*
X338788Y454428D01*
X338792Y454425D01*
X338794Y454422D01*
X338805Y454415D01*
X338923Y454328D01*
X339435Y454033D01*
X339646Y453822D01*
X339720Y453769D01*
X339789Y453710D01*
X339819Y453697D01*
X339845Y453679D01*
X339932Y453652D01*
X340017Y453618D01*
X340058Y453613D01*
X340080Y453606D01*
X340113Y453607D01*
X340184Y453599D01*
X344332Y453599D01*
X345445Y452486D01*
X345445Y449550D01*
X345456Y449479D01*
X345458Y449407D01*
X345476Y449358D01*
X345484Y449307D01*
X345518Y449244D01*
X345542Y449176D01*
X345575Y449136D01*
X345599Y449090D01*
X345651Y449040D01*
X345696Y448984D01*
X345740Y448956D01*
X345778Y448920D01*
X345843Y448890D01*
X345903Y448851D01*
X345954Y448839D01*
X346001Y448817D01*
X346072Y448809D01*
X346142Y448791D01*
X346194Y448795D01*
X346245Y448790D01*
X346315Y448805D01*
G37*
G36*
X317615Y494810D02*
X317615Y494810D01*
X317635Y494808D01*
X317736Y494830D01*
X317838Y494847D01*
X317855Y494856D01*
X317875Y494860D01*
X317964Y494913D01*
X318055Y494962D01*
X318069Y494976D01*
X318086Y494986D01*
X318153Y495065D01*
X318225Y495140D01*
X318233Y495158D01*
X318246Y495173D01*
X318285Y495269D01*
X318328Y495363D01*
X318330Y495383D01*
X318338Y495401D01*
X318356Y495568D01*
X318356Y498071D01*
X322197Y498071D01*
X322216Y498074D01*
X322236Y498072D01*
X322337Y498094D01*
X322439Y498110D01*
X322457Y498120D01*
X322477Y498124D01*
X322566Y498177D01*
X322657Y498226D01*
X322671Y498240D01*
X322688Y498250D01*
X322755Y498329D01*
X322826Y498404D01*
X322835Y498422D01*
X322848Y498437D01*
X322886Y498533D01*
X322930Y498627D01*
X322932Y498647D01*
X322940Y498665D01*
X322958Y498832D01*
X322955Y498852D01*
X322957Y498871D01*
X322957Y498872D01*
X322935Y498973D01*
X322918Y499075D01*
X322909Y499093D01*
X322905Y499112D01*
X322851Y499201D01*
X322803Y499292D01*
X322789Y499306D01*
X322779Y499323D01*
X322700Y499391D01*
X322625Y499462D01*
X322607Y499470D01*
X322592Y499483D01*
X322495Y499522D01*
X322402Y499565D01*
X322382Y499568D01*
X322363Y499575D01*
X322197Y499594D01*
X318356Y499594D01*
X318356Y500917D01*
X318341Y501011D01*
X318332Y501106D01*
X318321Y501132D01*
X318317Y501160D01*
X318272Y501244D01*
X318234Y501331D01*
X318215Y501352D01*
X318202Y501377D01*
X318132Y501443D01*
X318068Y501513D01*
X318044Y501527D01*
X318023Y501546D01*
X317937Y501587D01*
X317853Y501633D01*
X317826Y501638D01*
X317800Y501650D01*
X317705Y501660D01*
X317612Y501678D01*
X317584Y501674D01*
X317556Y501677D01*
X317463Y501657D01*
X317368Y501643D01*
X317336Y501629D01*
X317315Y501625D01*
X317287Y501608D01*
X317214Y501576D01*
X316933Y501414D01*
X316287Y501240D01*
X315464Y501240D01*
X315464Y505531D01*
X315460Y505550D01*
X315463Y505570D01*
X315441Y505672D01*
X315424Y505774D01*
X315415Y505791D01*
X315410Y505811D01*
X315357Y505900D01*
X315309Y505991D01*
X315294Y506005D01*
X315284Y506022D01*
X315205Y506089D01*
X315130Y506160D01*
X315112Y506169D01*
X315097Y506182D01*
X315001Y506220D01*
X314907Y506264D01*
X314888Y506266D01*
X314869Y506274D01*
X314702Y506292D01*
X314683Y506289D01*
X314663Y506291D01*
X314561Y506269D01*
X314459Y506252D01*
X314442Y506243D01*
X314422Y506239D01*
X314333Y506186D01*
X314242Y506137D01*
X314228Y506123D01*
X314211Y506113D01*
X314144Y506034D01*
X314073Y505959D01*
X314064Y505941D01*
X314051Y505926D01*
X314012Y505829D01*
X313969Y505736D01*
X313967Y505716D01*
X313959Y505698D01*
X313941Y505531D01*
X313941Y501240D01*
X313118Y501240D01*
X312831Y501317D01*
X312712Y501329D01*
X312594Y501342D01*
X312590Y501341D01*
X312586Y501342D01*
X312471Y501315D01*
X312354Y501290D01*
X312350Y501288D01*
X312346Y501287D01*
X312245Y501225D01*
X312143Y501164D01*
X312140Y501161D01*
X312136Y501158D01*
X312060Y501068D01*
X311983Y500977D01*
X311981Y500973D01*
X311979Y500970D01*
X311936Y500861D01*
X311891Y500749D01*
X311890Y500744D01*
X311889Y500741D01*
X311888Y500727D01*
X311872Y500582D01*
X311872Y497410D01*
X311234Y496772D01*
X311222Y496755D01*
X311207Y496743D01*
X311151Y496656D01*
X311090Y496572D01*
X311085Y496553D01*
X311074Y496536D01*
X311049Y496436D01*
X311018Y496337D01*
X311019Y496317D01*
X311014Y496297D01*
X311022Y496194D01*
X311024Y496091D01*
X311031Y496072D01*
X311033Y496052D01*
X311073Y495957D01*
X311109Y495860D01*
X311121Y495844D01*
X311129Y495826D01*
X311234Y495695D01*
X311899Y495030D01*
X311973Y494977D01*
X312043Y494917D01*
X312073Y494905D01*
X312099Y494886D01*
X312186Y494859D01*
X312271Y494825D01*
X312312Y494821D01*
X312334Y494814D01*
X312366Y494815D01*
X312437Y494807D01*
X317595Y494807D01*
X317615Y494810D01*
G37*
G36*
X314367Y425128D02*
X314367Y425128D01*
X314438Y425130D01*
X314487Y425148D01*
X314539Y425156D01*
X314602Y425190D01*
X314669Y425214D01*
X314710Y425247D01*
X314756Y425271D01*
X314805Y425323D01*
X314861Y425368D01*
X314890Y425412D01*
X314925Y425449D01*
X314956Y425514D01*
X314994Y425575D01*
X315007Y425625D01*
X315029Y425673D01*
X315037Y425744D01*
X315055Y425813D01*
X315050Y425865D01*
X315056Y425917D01*
X315041Y425987D01*
X315035Y426059D01*
X315015Y426106D01*
X315004Y426157D01*
X314967Y426219D01*
X314939Y426285D01*
X314894Y426341D01*
X314878Y426368D01*
X314860Y426384D01*
X314834Y426416D01*
X310903Y430347D01*
X310829Y430400D01*
X310760Y430460D01*
X310730Y430472D01*
X310703Y430491D01*
X310616Y430517D01*
X310531Y430552D01*
X310491Y430556D01*
X310468Y430563D01*
X310436Y430562D01*
X310365Y430570D01*
X301769Y430570D01*
X301699Y430558D01*
X301627Y430557D01*
X301578Y430539D01*
X301527Y430530D01*
X301463Y430497D01*
X301396Y430472D01*
X301355Y430440D01*
X301309Y430415D01*
X301260Y430363D01*
X301204Y430318D01*
X301176Y430275D01*
X301140Y430237D01*
X301110Y430172D01*
X301071Y430111D01*
X301058Y430061D01*
X301036Y430014D01*
X301028Y429942D01*
X301011Y429873D01*
X301015Y429821D01*
X301009Y429769D01*
X301025Y429699D01*
X301030Y429628D01*
X301050Y429580D01*
X301062Y429529D01*
X301098Y429467D01*
X301126Y429401D01*
X301171Y429345D01*
X301188Y429318D01*
X301205Y429303D01*
X301231Y429270D01*
X305162Y425339D01*
X305236Y425286D01*
X305306Y425227D01*
X305336Y425215D01*
X305362Y425196D01*
X305449Y425169D01*
X305534Y425135D01*
X305575Y425130D01*
X305597Y425123D01*
X305629Y425124D01*
X305701Y425116D01*
X314296Y425116D01*
X314367Y425128D01*
G37*
G36*
X179882Y460007D02*
X179882Y460007D01*
X179934Y460008D01*
X180001Y460033D01*
X180071Y460048D01*
X180116Y460075D01*
X180165Y460093D01*
X180221Y460138D01*
X180282Y460174D01*
X180316Y460214D01*
X180357Y460246D01*
X180396Y460307D01*
X180442Y460361D01*
X180462Y460409D01*
X180490Y460453D01*
X180507Y460523D01*
X180534Y460589D01*
X180542Y460661D01*
X180550Y460692D01*
X180548Y460715D01*
X180553Y460756D01*
X180553Y469224D01*
X180550Y469244D01*
X180552Y469264D01*
X180530Y469365D01*
X180513Y469467D01*
X180504Y469485D01*
X180499Y469504D01*
X180446Y469593D01*
X180398Y469684D01*
X180384Y469698D01*
X180373Y469715D01*
X180295Y469783D01*
X180220Y469854D01*
X180202Y469862D01*
X180186Y469875D01*
X180090Y469914D01*
X179997Y469957D01*
X179977Y469960D01*
X179958Y469967D01*
X179792Y469985D01*
X179077Y469985D01*
X179077Y470700D01*
X179073Y470720D01*
X179076Y470740D01*
X179054Y470841D01*
X179037Y470943D01*
X179028Y470961D01*
X179023Y470980D01*
X178970Y471069D01*
X178922Y471161D01*
X178907Y471174D01*
X178897Y471191D01*
X178818Y471259D01*
X178743Y471330D01*
X178725Y471338D01*
X178710Y471351D01*
X178614Y471390D01*
X178520Y471434D01*
X178501Y471436D01*
X178482Y471443D01*
X178315Y471462D01*
X173513Y471462D01*
X173513Y471981D01*
X173501Y472052D01*
X173499Y472124D01*
X173481Y472173D01*
X173473Y472224D01*
X173439Y472287D01*
X173415Y472355D01*
X173382Y472395D01*
X173358Y472441D01*
X173306Y472491D01*
X173261Y472547D01*
X173217Y472575D01*
X173180Y472611D01*
X173115Y472641D01*
X173054Y472680D01*
X173004Y472692D01*
X172957Y472714D01*
X172885Y472722D01*
X172816Y472740D01*
X172764Y472736D01*
X172712Y472741D01*
X172642Y472726D01*
X172571Y472721D01*
X172523Y472700D01*
X172472Y472689D01*
X172410Y472652D01*
X172344Y472624D01*
X172288Y472579D01*
X172261Y472563D01*
X172245Y472545D01*
X172213Y472519D01*
X171448Y471754D01*
X171395Y471680D01*
X171336Y471611D01*
X171324Y471581D01*
X171305Y471555D01*
X171278Y471468D01*
X171244Y471383D01*
X171239Y471342D01*
X171232Y471320D01*
X171233Y471287D01*
X171225Y471216D01*
X171225Y467113D01*
X171229Y467093D01*
X171226Y467073D01*
X171248Y466972D01*
X171265Y466870D01*
X171274Y466853D01*
X171279Y466833D01*
X171332Y466744D01*
X171380Y466653D01*
X171395Y466639D01*
X171405Y466622D01*
X171484Y466555D01*
X171559Y466483D01*
X171577Y466475D01*
X171592Y466462D01*
X171688Y466423D01*
X171782Y466380D01*
X171801Y466378D01*
X171820Y466370D01*
X171987Y466352D01*
X172450Y466352D01*
X172481Y466342D01*
X172547Y466312D01*
X172598Y466306D01*
X172648Y466291D01*
X172720Y466293D01*
X172791Y466285D01*
X172842Y466296D01*
X172894Y466297D01*
X172961Y466322D01*
X173031Y466337D01*
X173076Y466364D01*
X173125Y466381D01*
X173181Y466426D01*
X173242Y466463D01*
X173276Y466503D01*
X173317Y466535D01*
X173356Y466595D01*
X173402Y466650D01*
X173422Y466698D01*
X173450Y466742D01*
X173467Y466812D01*
X173494Y466878D01*
X173502Y466949D01*
X173510Y466981D01*
X173508Y467004D01*
X173513Y467045D01*
X173513Y468463D01*
X177554Y468463D01*
X177554Y462104D01*
X177557Y462084D01*
X177555Y462064D01*
X177577Y461963D01*
X177594Y461861D01*
X177603Y461844D01*
X177607Y461824D01*
X177661Y461735D01*
X177709Y461644D01*
X177723Y461630D01*
X177734Y461613D01*
X177812Y461546D01*
X177887Y461474D01*
X177905Y461466D01*
X177921Y461453D01*
X178017Y461414D01*
X178091Y461380D01*
X179253Y460218D01*
X179311Y460176D01*
X179363Y460127D01*
X179411Y460105D01*
X179453Y460074D01*
X179521Y460053D01*
X179587Y460023D01*
X179638Y460017D01*
X179688Y460002D01*
X179760Y460004D01*
X179831Y459996D01*
X179882Y460007D01*
G37*
G36*
X325347Y504996D02*
X325347Y504996D01*
X325427Y504993D01*
X325469Y505005D01*
X325513Y505009D01*
X325586Y505040D01*
X325663Y505063D01*
X325699Y505088D01*
X325739Y505105D01*
X325853Y505196D01*
X325864Y505204D01*
X325866Y505207D01*
X325870Y505210D01*
X329182Y508522D01*
X329235Y508596D01*
X329295Y508665D01*
X329307Y508695D01*
X329326Y508722D01*
X329352Y508809D01*
X329387Y508893D01*
X329391Y508934D01*
X329398Y508957D01*
X329397Y508989D01*
X329405Y509060D01*
X329405Y512362D01*
X329439Y512409D01*
X329488Y512461D01*
X329510Y512508D01*
X329540Y512551D01*
X329561Y512619D01*
X329592Y512684D01*
X329597Y512736D01*
X329613Y512786D01*
X329611Y512858D01*
X329619Y512929D01*
X329608Y512980D01*
X329606Y513032D01*
X329582Y513099D01*
X329566Y513169D01*
X329540Y513214D01*
X329522Y513263D01*
X329477Y513319D01*
X329440Y513380D01*
X329401Y513414D01*
X329368Y513455D01*
X329308Y513493D01*
X329253Y513540D01*
X329205Y513560D01*
X329161Y513588D01*
X329092Y513605D01*
X329025Y513632D01*
X328954Y513640D01*
X328923Y513648D01*
X328899Y513646D01*
X328858Y513651D01*
X324680Y513651D01*
X324609Y513639D01*
X324538Y513637D01*
X324489Y513619D01*
X324437Y513611D01*
X324374Y513577D01*
X324307Y513553D01*
X324266Y513520D01*
X324220Y513496D01*
X324171Y513444D01*
X324115Y513399D01*
X324087Y513355D01*
X324051Y513317D01*
X324020Y513252D01*
X323982Y513192D01*
X323969Y513141D01*
X323947Y513094D01*
X323939Y513023D01*
X323922Y512953D01*
X323926Y512901D01*
X323920Y512850D01*
X323935Y512780D01*
X323941Y512708D01*
X323961Y512660D01*
X323972Y512609D01*
X323997Y512568D01*
X323997Y509142D01*
X321828Y506972D01*
X321786Y506914D01*
X321737Y506862D01*
X321715Y506815D01*
X321684Y506773D01*
X321663Y506704D01*
X321633Y506639D01*
X321627Y506587D01*
X321612Y506538D01*
X321614Y506466D01*
X321606Y506395D01*
X321617Y506344D01*
X321618Y506292D01*
X321643Y506224D01*
X321658Y506154D01*
X321685Y506110D01*
X321703Y506061D01*
X321748Y506005D01*
X321784Y505943D01*
X321824Y505909D01*
X321857Y505869D01*
X321917Y505830D01*
X321971Y505783D01*
X322020Y505764D01*
X322063Y505736D01*
X322133Y505718D01*
X322199Y505691D01*
X322271Y505683D01*
X322302Y505676D01*
X322325Y505677D01*
X322366Y505673D01*
X323549Y505673D01*
X324278Y505478D01*
X324951Y505089D01*
X324992Y505073D01*
X325029Y505050D01*
X325107Y505030D01*
X325181Y505002D01*
X325225Y505000D01*
X325268Y504990D01*
X325347Y504996D01*
G37*
G36*
X317954Y434440D02*
X317954Y434440D01*
X318057Y434442D01*
X318076Y434449D01*
X318096Y434451D01*
X318191Y434491D01*
X318288Y434527D01*
X318304Y434539D01*
X318322Y434547D01*
X318453Y434652D01*
X318915Y435113D01*
X318966Y435122D01*
X319085Y435140D01*
X319089Y435142D01*
X319093Y435142D01*
X319197Y435198D01*
X319303Y435253D01*
X319306Y435256D01*
X319310Y435258D01*
X319391Y435343D01*
X319475Y435429D01*
X319476Y435433D01*
X319479Y435436D01*
X319529Y435543D01*
X319581Y435651D01*
X319581Y435655D01*
X319583Y435659D01*
X319596Y435777D01*
X319610Y435895D01*
X319610Y435900D01*
X319610Y435903D01*
X319607Y435917D01*
X319585Y436061D01*
X319560Y436154D01*
X319560Y437477D01*
X323351Y437477D01*
X323370Y437481D01*
X323390Y437478D01*
X323491Y437500D01*
X323593Y437517D01*
X323611Y437526D01*
X323630Y437531D01*
X323719Y437584D01*
X323811Y437632D01*
X323824Y437647D01*
X323841Y437657D01*
X323909Y437736D01*
X323980Y437811D01*
X323988Y437829D01*
X324001Y437844D01*
X324040Y437940D01*
X324084Y438034D01*
X324086Y438053D01*
X324093Y438072D01*
X324112Y438239D01*
X324109Y438259D01*
X324111Y438278D01*
X324089Y438380D01*
X324072Y438482D01*
X324063Y438499D01*
X324058Y438519D01*
X324005Y438608D01*
X323957Y438699D01*
X323943Y438713D01*
X323932Y438730D01*
X323854Y438797D01*
X323779Y438869D01*
X323761Y438877D01*
X323745Y438890D01*
X323649Y438929D01*
X323556Y438972D01*
X323536Y438974D01*
X323517Y438982D01*
X323351Y439000D01*
X319560Y439000D01*
X319560Y440323D01*
X319728Y440948D01*
X319740Y441068D01*
X319753Y441185D01*
X319752Y441189D01*
X319752Y441193D01*
X319726Y441308D01*
X319700Y441425D01*
X319698Y441429D01*
X319697Y441433D01*
X319635Y441534D01*
X319574Y441636D01*
X319571Y441639D01*
X319569Y441643D01*
X319478Y441719D01*
X319387Y441796D01*
X319383Y441798D01*
X319380Y441801D01*
X319271Y441843D01*
X319159Y441888D01*
X319154Y441889D01*
X319151Y441890D01*
X319137Y441891D01*
X318992Y441907D01*
X316661Y441907D01*
X316641Y441904D01*
X316621Y441906D01*
X316520Y441884D01*
X316418Y441867D01*
X316401Y441858D01*
X316381Y441854D01*
X316292Y441800D01*
X316201Y441752D01*
X316187Y441738D01*
X316170Y441727D01*
X316103Y441649D01*
X316031Y441574D01*
X316023Y441556D01*
X316010Y441540D01*
X315971Y441444D01*
X315928Y441351D01*
X315926Y441331D01*
X315918Y441312D01*
X315900Y441146D01*
X315900Y440855D01*
X312109Y440855D01*
X312090Y440851D01*
X312070Y440853D01*
X311969Y440831D01*
X311866Y440815D01*
X311849Y440805D01*
X311829Y440801D01*
X311740Y440748D01*
X311649Y440700D01*
X311635Y440685D01*
X311618Y440675D01*
X311551Y440596D01*
X311480Y440521D01*
X311471Y440503D01*
X311458Y440488D01*
X311420Y440392D01*
X311376Y440298D01*
X311374Y440279D01*
X311366Y440260D01*
X311348Y440093D01*
X311351Y440073D01*
X311349Y440054D01*
X311349Y440053D01*
X311371Y439952D01*
X311388Y439850D01*
X311397Y439833D01*
X311401Y439813D01*
X311454Y439724D01*
X311503Y439633D01*
X311517Y439619D01*
X311527Y439602D01*
X311606Y439535D01*
X311681Y439463D01*
X311699Y439455D01*
X311714Y439442D01*
X311811Y439403D01*
X311904Y439360D01*
X311924Y439358D01*
X311943Y439350D01*
X312109Y439332D01*
X315900Y439332D01*
X315900Y438009D01*
X315726Y437362D01*
X315630Y437196D01*
X315615Y437155D01*
X315591Y437118D01*
X315572Y437041D01*
X315543Y436966D01*
X315542Y436922D01*
X315531Y436880D01*
X315537Y436800D01*
X315534Y436720D01*
X315547Y436678D01*
X315550Y436634D01*
X315581Y436561D01*
X315604Y436484D01*
X315629Y436448D01*
X315647Y436408D01*
X315737Y436295D01*
X315746Y436283D01*
X315748Y436281D01*
X315751Y436277D01*
X317377Y434652D01*
X317393Y434640D01*
X317405Y434625D01*
X317492Y434569D01*
X317576Y434508D01*
X317595Y434502D01*
X317612Y434492D01*
X317712Y434466D01*
X317811Y434436D01*
X317831Y434437D01*
X317851Y434432D01*
X317954Y434440D01*
G37*
G36*
X352847Y462998D02*
X352847Y462998D01*
X352951Y463000D01*
X352970Y463007D01*
X352990Y463009D01*
X353084Y463049D01*
X353182Y463085D01*
X353198Y463097D01*
X353216Y463105D01*
X353347Y463210D01*
X356995Y466858D01*
X357519Y467382D01*
X357572Y467456D01*
X357632Y467526D01*
X357644Y467556D01*
X357663Y467582D01*
X357689Y467669D01*
X357723Y467754D01*
X357728Y467795D01*
X357735Y467817D01*
X357734Y467849D01*
X357742Y467920D01*
X357742Y468881D01*
X357822Y468962D01*
X357834Y468978D01*
X357849Y468990D01*
X357905Y469077D01*
X357966Y469161D01*
X357972Y469180D01*
X357982Y469197D01*
X358008Y469297D01*
X358038Y469396D01*
X358037Y469416D01*
X358042Y469436D01*
X358034Y469539D01*
X358032Y469642D01*
X358025Y469661D01*
X358023Y469681D01*
X357983Y469776D01*
X357947Y469873D01*
X357935Y469889D01*
X357927Y469907D01*
X357822Y470038D01*
X357530Y470331D01*
X357513Y470342D01*
X357501Y470358D01*
X357414Y470414D01*
X357330Y470474D01*
X357311Y470480D01*
X357294Y470491D01*
X357194Y470516D01*
X357095Y470547D01*
X357075Y470546D01*
X357056Y470551D01*
X356953Y470543D01*
X356849Y470540D01*
X356830Y470533D01*
X356810Y470532D01*
X356715Y470491D01*
X356618Y470456D01*
X356602Y470443D01*
X356584Y470436D01*
X356453Y470331D01*
X356091Y469968D01*
X355511Y469634D01*
X354865Y469461D01*
X352803Y469461D01*
X352784Y469457D01*
X352764Y469460D01*
X352663Y469438D01*
X352561Y469421D01*
X352543Y469412D01*
X352524Y469407D01*
X352434Y469354D01*
X352343Y469306D01*
X352330Y469291D01*
X352312Y469281D01*
X352245Y469203D01*
X352174Y469128D01*
X352165Y469109D01*
X352152Y469094D01*
X352114Y468998D01*
X352070Y468904D01*
X352068Y468885D01*
X352061Y468866D01*
X352042Y468699D01*
X352042Y464738D01*
X351910Y464606D01*
X351841Y464511D01*
X351770Y464414D01*
X351769Y464410D01*
X351766Y464406D01*
X351731Y464292D01*
X351695Y464179D01*
X351695Y464175D01*
X351694Y464171D01*
X351697Y464052D01*
X351699Y463933D01*
X351700Y463929D01*
X351700Y463925D01*
X351741Y463814D01*
X351781Y463701D01*
X351783Y463698D01*
X351785Y463694D01*
X351859Y463601D01*
X351932Y463508D01*
X351936Y463505D01*
X351939Y463502D01*
X351950Y463495D01*
X352068Y463408D01*
X352077Y463403D01*
X352270Y463210D01*
X352286Y463198D01*
X352299Y463183D01*
X352386Y463127D01*
X352470Y463066D01*
X352489Y463061D01*
X352506Y463050D01*
X352606Y463024D01*
X352705Y462994D01*
X352725Y462995D01*
X352744Y462990D01*
X352847Y462998D01*
G37*
G36*
X271475Y487621D02*
X271475Y487621D01*
X271495Y487619D01*
X271596Y487641D01*
X271698Y487658D01*
X271716Y487667D01*
X271735Y487671D01*
X271824Y487724D01*
X271916Y487773D01*
X271929Y487787D01*
X271947Y487797D01*
X272014Y487876D01*
X272085Y487951D01*
X272093Y487969D01*
X272106Y487984D01*
X272145Y488081D01*
X272189Y488174D01*
X272191Y488194D01*
X272198Y488212D01*
X272217Y488379D01*
X272217Y489805D01*
X272215Y489819D01*
X272216Y489830D01*
X272215Y489835D01*
X272216Y489845D01*
X272194Y489946D01*
X272177Y490048D01*
X272168Y490066D01*
X272164Y490085D01*
X272110Y490174D01*
X272062Y490265D01*
X272048Y490279D01*
X272037Y490296D01*
X271959Y490364D01*
X271884Y490435D01*
X271866Y490443D01*
X271850Y490456D01*
X271754Y490495D01*
X271661Y490538D01*
X271641Y490541D01*
X271622Y490548D01*
X271456Y490566D01*
X264945Y490566D01*
X264902Y490559D01*
X264858Y490561D01*
X264781Y490540D01*
X264703Y490527D01*
X264664Y490506D01*
X264622Y490494D01*
X264556Y490449D01*
X264485Y490412D01*
X264455Y490380D01*
X264419Y490355D01*
X264371Y490291D01*
X264316Y490233D01*
X264297Y490194D01*
X264271Y490159D01*
X264218Y490023D01*
X264212Y490010D01*
X264212Y490007D01*
X264210Y490002D01*
X264043Y489380D01*
X263685Y488760D01*
X263652Y488671D01*
X263611Y488584D01*
X263608Y488556D01*
X263598Y488530D01*
X263595Y488434D01*
X263584Y488340D01*
X263590Y488312D01*
X263589Y488284D01*
X263616Y488192D01*
X263637Y488099D01*
X263651Y488075D01*
X263659Y488048D01*
X263714Y487970D01*
X263763Y487888D01*
X263784Y487870D01*
X263800Y487847D01*
X263877Y487790D01*
X263950Y487728D01*
X263976Y487718D01*
X263999Y487701D01*
X264089Y487672D01*
X264178Y487636D01*
X264213Y487632D01*
X264233Y487626D01*
X264266Y487627D01*
X264345Y487618D01*
X271456Y487618D01*
X271475Y487621D01*
G37*
G36*
X309691Y529648D02*
X309691Y529648D01*
X309711Y529646D01*
X309812Y529668D01*
X309914Y529685D01*
X309932Y529694D01*
X309952Y529698D01*
X310041Y529752D01*
X310132Y529800D01*
X310146Y529814D01*
X310163Y529824D01*
X310230Y529903D01*
X310301Y529978D01*
X310310Y529996D01*
X310323Y530011D01*
X310361Y530108D01*
X310405Y530201D01*
X310407Y530221D01*
X310415Y530240D01*
X310433Y530406D01*
X310433Y531930D01*
X310430Y531950D01*
X310432Y531970D01*
X310410Y532071D01*
X310393Y532173D01*
X310384Y532190D01*
X310380Y532210D01*
X310326Y532299D01*
X310278Y532390D01*
X310264Y532404D01*
X310254Y532421D01*
X310175Y532488D01*
X310100Y532560D01*
X310082Y532568D01*
X310067Y532581D01*
X309970Y532620D01*
X309877Y532663D01*
X309857Y532665D01*
X309838Y532673D01*
X309672Y532691D01*
X303530Y532691D01*
X303510Y532688D01*
X303491Y532690D01*
X303389Y532668D01*
X303287Y532652D01*
X303270Y532642D01*
X303250Y532638D01*
X303161Y532585D01*
X303070Y532537D01*
X303056Y532522D01*
X303039Y532512D01*
X302972Y532433D01*
X302900Y532358D01*
X302892Y532340D01*
X302879Y532325D01*
X302840Y532229D01*
X302797Y532135D01*
X302795Y532115D01*
X302787Y532097D01*
X302769Y531930D01*
X302769Y530406D01*
X302772Y530387D01*
X302770Y530367D01*
X302792Y530266D01*
X302808Y530164D01*
X302818Y530146D01*
X302822Y530126D01*
X302875Y530037D01*
X302924Y529946D01*
X302938Y529932D01*
X302948Y529915D01*
X303027Y529848D01*
X303102Y529777D01*
X303120Y529768D01*
X303135Y529755D01*
X303231Y529717D01*
X303325Y529673D01*
X303345Y529671D01*
X303363Y529663D01*
X303530Y529645D01*
X309672Y529645D01*
X309691Y529648D01*
G37*
%LPC*%
G36*
X344808Y492744D02*
X344808Y492744D01*
X344808Y495823D01*
X348399Y495823D01*
X349128Y495628D01*
X349782Y495250D01*
X350315Y494717D01*
X350692Y494063D01*
X350888Y493334D01*
X350888Y492744D01*
X344808Y492744D01*
G37*
%LPD*%
%LPC*%
G36*
X249433Y590667D02*
X249433Y590667D01*
X249433Y594519D01*
X249550Y594496D01*
X250558Y594078D01*
X251466Y593472D01*
X252238Y592700D01*
X252844Y591793D01*
X253262Y590784D01*
X253285Y590667D01*
X249433Y590667D01*
G37*
%LPD*%
%LPC*%
G36*
X257583Y590667D02*
X257583Y590667D01*
X257606Y590784D01*
X258024Y591793D01*
X258630Y592700D01*
X259402Y593472D01*
X260309Y594078D01*
X261318Y594496D01*
X261435Y594519D01*
X261435Y590667D01*
X257583Y590667D01*
G37*
%LPD*%
%LPC*%
G36*
X242583Y590667D02*
X242583Y590667D01*
X242606Y590784D01*
X243024Y591793D01*
X243630Y592700D01*
X244402Y593472D01*
X245309Y594078D01*
X246318Y594496D01*
X246435Y594519D01*
X246435Y590667D01*
X242583Y590667D01*
G37*
%LPD*%
%LPC*%
G36*
X246318Y583840D02*
X246318Y583840D01*
X245309Y584258D01*
X244402Y584864D01*
X243630Y585636D01*
X243024Y586544D01*
X242606Y587552D01*
X242583Y587669D01*
X246435Y587669D01*
X246435Y583817D01*
X246318Y583840D01*
G37*
%LPD*%
G36*
X307363Y468182D02*
X307363Y468182D01*
X307383Y468180D01*
X307484Y468202D01*
X307586Y468218D01*
X307604Y468228D01*
X307623Y468232D01*
X307712Y468285D01*
X307804Y468333D01*
X307817Y468348D01*
X307834Y468358D01*
X307902Y468437D01*
X307973Y468512D01*
X307981Y468530D01*
X307994Y468545D01*
X308033Y468641D01*
X308077Y468735D01*
X308079Y468754D01*
X308086Y468773D01*
X308105Y468940D01*
X308102Y468960D01*
X308104Y468979D01*
X308104Y468980D01*
X308082Y469081D01*
X308065Y469183D01*
X308056Y469200D01*
X308051Y469220D01*
X307998Y469309D01*
X307950Y469400D01*
X307936Y469414D01*
X307925Y469431D01*
X307847Y469498D01*
X307772Y469570D01*
X307754Y469578D01*
X307738Y469591D01*
X307642Y469630D01*
X307549Y469673D01*
X307529Y469675D01*
X307510Y469683D01*
X307344Y469701D01*
X304524Y469701D01*
X304505Y469698D01*
X304485Y469700D01*
X304384Y469678D01*
X304282Y469662D01*
X304264Y469652D01*
X304244Y469648D01*
X304155Y469595D01*
X304064Y469546D01*
X304050Y469532D01*
X304033Y469522D01*
X303966Y469443D01*
X303895Y469368D01*
X303886Y469350D01*
X303873Y469335D01*
X303835Y469239D01*
X303791Y469145D01*
X303789Y469125D01*
X303782Y469107D01*
X303763Y468940D01*
X303766Y468920D01*
X303764Y468901D01*
X303764Y468900D01*
X303786Y468799D01*
X303803Y468697D01*
X303812Y468679D01*
X303816Y468660D01*
X303870Y468571D01*
X303918Y468480D01*
X303932Y468466D01*
X303943Y468449D01*
X304021Y468381D01*
X304096Y468310D01*
X304114Y468302D01*
X304129Y468289D01*
X304226Y468250D01*
X304319Y468207D01*
X304339Y468204D01*
X304358Y468197D01*
X304524Y468178D01*
X307344Y468178D01*
X307363Y468182D01*
G37*
D10*
X266561Y496084D02*
X266561Y501100D01*
X277777Y501100D01*
X277777Y496084D01*
X266561Y496084D01*
X266561Y496925D02*
X277777Y496925D01*
X277777Y497766D02*
X266561Y497766D01*
X266561Y498607D02*
X277777Y498607D01*
X277777Y499448D02*
X266561Y499448D01*
X266561Y500289D02*
X277777Y500289D01*
X291661Y482100D02*
X291661Y477084D01*
X291661Y482100D02*
X302877Y482100D01*
X302877Y477084D01*
X291661Y477084D01*
X291661Y477925D02*
X302877Y477925D01*
X302877Y478766D02*
X291661Y478766D01*
X291661Y479607D02*
X302877Y479607D01*
X302877Y480448D02*
X291661Y480448D01*
X291661Y481289D02*
X302877Y481289D01*
X266561Y486584D02*
X266561Y491600D01*
X277777Y491600D01*
X277777Y486584D01*
X266561Y486584D01*
X266561Y487425D02*
X277777Y487425D01*
X277777Y488266D02*
X266561Y488266D01*
X266561Y489107D02*
X277777Y489107D01*
X277777Y489948D02*
X266561Y489948D01*
X266561Y490789D02*
X277777Y490789D01*
X266561Y482100D02*
X266561Y477084D01*
X266561Y482100D02*
X277777Y482100D01*
X277777Y477084D01*
X266561Y477084D01*
X266561Y477925D02*
X277777Y477925D01*
X277777Y478766D02*
X266561Y478766D01*
X266561Y479607D02*
X277777Y479607D01*
X277777Y480448D02*
X266561Y480448D01*
X266561Y481289D02*
X277777Y481289D01*
X291661Y496084D02*
X291661Y501100D01*
X302877Y501100D01*
X302877Y496084D01*
X291661Y496084D01*
X291661Y496925D02*
X302877Y496925D01*
X302877Y497766D02*
X291661Y497766D01*
X291661Y498607D02*
X302877Y498607D01*
X302877Y499448D02*
X291661Y499448D01*
X291661Y500289D02*
X302877Y500289D01*
D11*
X394767Y439125D03*
X394767Y506375D03*
D12*
X365767Y447750D03*
X365767Y497750D03*
D13*
X366017Y459750D03*
X366017Y466250D03*
X366017Y472750D03*
X366017Y479250D03*
X366017Y485750D03*
D14*
X392767Y456250D03*
X392767Y489250D03*
D15*
X314702Y505531D03*
X308202Y505531D03*
D16*
X259926Y491611D03*
X259926Y498111D03*
D17*
X336222Y494857D02*
X336222Y502807D01*
X338172Y502807D01*
X338172Y494857D01*
X336222Y494857D01*
X336222Y495474D02*
X338172Y495474D01*
X338172Y496091D02*
X336222Y496091D01*
X336222Y496708D02*
X338172Y496708D01*
X338172Y497325D02*
X336222Y497325D01*
X336222Y497942D02*
X338172Y497942D01*
X338172Y498559D02*
X336222Y498559D01*
X336222Y499176D02*
X338172Y499176D01*
X338172Y499793D02*
X336222Y499793D01*
X336222Y500410D02*
X338172Y500410D01*
X338172Y501027D02*
X336222Y501027D01*
X336222Y501644D02*
X338172Y501644D01*
X338172Y502261D02*
X336222Y502261D01*
X331222Y502807D02*
X331222Y494857D01*
X331222Y502807D02*
X333172Y502807D01*
X333172Y494857D01*
X331222Y494857D01*
X331222Y495474D02*
X333172Y495474D01*
X333172Y496091D02*
X331222Y496091D01*
X331222Y496708D02*
X333172Y496708D01*
X333172Y497325D02*
X331222Y497325D01*
X331222Y497942D02*
X333172Y497942D01*
X333172Y498559D02*
X331222Y498559D01*
X331222Y499176D02*
X333172Y499176D01*
X333172Y499793D02*
X331222Y499793D01*
X331222Y500410D02*
X333172Y500410D01*
X333172Y501027D02*
X331222Y501027D01*
X331222Y501644D02*
X333172Y501644D01*
X333172Y502261D02*
X331222Y502261D01*
X326222Y502807D02*
X326222Y494857D01*
X326222Y502807D02*
X328172Y502807D01*
X328172Y494857D01*
X326222Y494857D01*
X326222Y495474D02*
X328172Y495474D01*
X328172Y496091D02*
X326222Y496091D01*
X326222Y496708D02*
X328172Y496708D01*
X328172Y497325D02*
X326222Y497325D01*
X326222Y497942D02*
X328172Y497942D01*
X328172Y498559D02*
X326222Y498559D01*
X326222Y499176D02*
X328172Y499176D01*
X328172Y499793D02*
X326222Y499793D01*
X326222Y500410D02*
X328172Y500410D01*
X328172Y501027D02*
X326222Y501027D01*
X326222Y501644D02*
X328172Y501644D01*
X328172Y502261D02*
X326222Y502261D01*
X321222Y502807D02*
X321222Y494857D01*
X321222Y502807D02*
X323172Y502807D01*
X323172Y494857D01*
X321222Y494857D01*
X321222Y495474D02*
X323172Y495474D01*
X323172Y496091D02*
X321222Y496091D01*
X321222Y496708D02*
X323172Y496708D01*
X323172Y497325D02*
X321222Y497325D01*
X321222Y497942D02*
X323172Y497942D01*
X323172Y498559D02*
X321222Y498559D01*
X321222Y499176D02*
X323172Y499176D01*
X323172Y499793D02*
X321222Y499793D01*
X321222Y500410D02*
X323172Y500410D01*
X323172Y501027D02*
X321222Y501027D01*
X321222Y501644D02*
X323172Y501644D01*
X323172Y502261D02*
X321222Y502261D01*
X321222Y474107D02*
X321222Y466157D01*
X321222Y474107D02*
X323172Y474107D01*
X323172Y466157D01*
X321222Y466157D01*
X321222Y466774D02*
X323172Y466774D01*
X323172Y467391D02*
X321222Y467391D01*
X321222Y468008D02*
X323172Y468008D01*
X323172Y468625D02*
X321222Y468625D01*
X321222Y469242D02*
X323172Y469242D01*
X323172Y469859D02*
X321222Y469859D01*
X321222Y470476D02*
X323172Y470476D01*
X323172Y471093D02*
X321222Y471093D01*
X321222Y471710D02*
X323172Y471710D01*
X323172Y472327D02*
X321222Y472327D01*
X321222Y472944D02*
X323172Y472944D01*
X323172Y473561D02*
X321222Y473561D01*
X326222Y474107D02*
X326222Y466157D01*
X326222Y474107D02*
X328172Y474107D01*
X328172Y466157D01*
X326222Y466157D01*
X326222Y466774D02*
X328172Y466774D01*
X328172Y467391D02*
X326222Y467391D01*
X326222Y468008D02*
X328172Y468008D01*
X328172Y468625D02*
X326222Y468625D01*
X326222Y469242D02*
X328172Y469242D01*
X328172Y469859D02*
X326222Y469859D01*
X326222Y470476D02*
X328172Y470476D01*
X328172Y471093D02*
X326222Y471093D01*
X326222Y471710D02*
X328172Y471710D01*
X328172Y472327D02*
X326222Y472327D01*
X326222Y472944D02*
X328172Y472944D01*
X328172Y473561D02*
X326222Y473561D01*
X331222Y474107D02*
X331222Y466157D01*
X331222Y474107D02*
X333172Y474107D01*
X333172Y466157D01*
X331222Y466157D01*
X331222Y466774D02*
X333172Y466774D01*
X333172Y467391D02*
X331222Y467391D01*
X331222Y468008D02*
X333172Y468008D01*
X333172Y468625D02*
X331222Y468625D01*
X331222Y469242D02*
X333172Y469242D01*
X333172Y469859D02*
X331222Y469859D01*
X331222Y470476D02*
X333172Y470476D01*
X333172Y471093D02*
X331222Y471093D01*
X331222Y471710D02*
X333172Y471710D01*
X333172Y472327D02*
X331222Y472327D01*
X331222Y472944D02*
X333172Y472944D01*
X333172Y473561D02*
X331222Y473561D01*
X336222Y474107D02*
X336222Y466157D01*
X336222Y474107D02*
X338172Y474107D01*
X338172Y466157D01*
X336222Y466157D01*
X336222Y466774D02*
X338172Y466774D01*
X338172Y467391D02*
X336222Y467391D01*
X336222Y468008D02*
X338172Y468008D01*
X338172Y468625D02*
X336222Y468625D01*
X336222Y469242D02*
X338172Y469242D01*
X338172Y469859D02*
X336222Y469859D01*
X336222Y470476D02*
X338172Y470476D01*
X338172Y471093D02*
X336222Y471093D01*
X336222Y471710D02*
X338172Y471710D01*
X338172Y472327D02*
X336222Y472327D01*
X336222Y472944D02*
X338172Y472944D01*
X338172Y473561D02*
X336222Y473561D01*
X340072Y477957D02*
X348022Y477957D01*
X348022Y476007D01*
X340072Y476007D01*
X340072Y477957D01*
X340072Y476624D02*
X348022Y476624D01*
X348022Y477241D02*
X340072Y477241D01*
X340072Y477858D02*
X348022Y477858D01*
X348022Y482957D02*
X340072Y482957D01*
X348022Y482957D02*
X348022Y481007D01*
X340072Y481007D01*
X340072Y482957D01*
X340072Y481624D02*
X348022Y481624D01*
X348022Y482241D02*
X340072Y482241D01*
X340072Y482858D02*
X348022Y482858D01*
X348022Y487957D02*
X340072Y487957D01*
X348022Y487957D02*
X348022Y486007D01*
X340072Y486007D01*
X340072Y487957D01*
X340072Y486624D02*
X348022Y486624D01*
X348022Y487241D02*
X340072Y487241D01*
X340072Y487858D02*
X348022Y487858D01*
X348022Y492957D02*
X340072Y492957D01*
X348022Y492957D02*
X348022Y491007D01*
X340072Y491007D01*
X340072Y492957D01*
X340072Y491624D02*
X348022Y491624D01*
X348022Y492241D02*
X340072Y492241D01*
X340072Y492858D02*
X348022Y492858D01*
X319322Y492957D02*
X311372Y492957D01*
X319322Y492957D02*
X319322Y491007D01*
X311372Y491007D01*
X311372Y492957D01*
X311372Y491624D02*
X319322Y491624D01*
X319322Y492241D02*
X311372Y492241D01*
X311372Y492858D02*
X319322Y492858D01*
X319322Y487957D02*
X311372Y487957D01*
X319322Y487957D02*
X319322Y486007D01*
X311372Y486007D01*
X311372Y487957D01*
X311372Y486624D02*
X319322Y486624D01*
X319322Y487241D02*
X311372Y487241D01*
X311372Y487858D02*
X319322Y487858D01*
X319322Y482957D02*
X311372Y482957D01*
X319322Y482957D02*
X319322Y481007D01*
X311372Y481007D01*
X311372Y482957D01*
X311372Y481624D02*
X319322Y481624D01*
X319322Y482241D02*
X311372Y482241D01*
X311372Y482858D02*
X319322Y482858D01*
X319322Y477957D02*
X311372Y477957D01*
X319322Y477957D02*
X319322Y476007D01*
X311372Y476007D01*
X311372Y477957D01*
X311372Y476624D02*
X319322Y476624D01*
X319322Y477241D02*
X311372Y477241D01*
X311372Y477858D02*
X319322Y477858D01*
D18*
X329697Y484482D03*
D19*
X329697Y484482D03*
X335497Y478682D03*
X323897Y478682D03*
X323897Y490282D03*
X335497Y490282D03*
D15*
X311517Y458953D03*
X318017Y458953D03*
X335939Y459293D03*
X342439Y459293D03*
X307344Y468940D03*
X300844Y468940D03*
D16*
X352781Y473251D03*
X352781Y479751D03*
D20*
X229958Y429165D03*
X254958Y474165D03*
X279958Y429165D03*
D21*
X305036Y447911D03*
X313672Y447911D03*
D15*
X323719Y458445D03*
X330219Y458445D03*
D16*
X319329Y451182D03*
X319329Y444682D03*
D22*
X360236Y662335D03*
X360236Y647335D03*
X350502Y652752D03*
X335502Y652752D03*
D15*
X330163Y644314D03*
X336663Y644314D03*
X320958Y654215D03*
X327458Y654215D03*
D22*
X350649Y662290D03*
X335649Y662290D03*
D15*
X320719Y663854D03*
X327219Y663854D03*
D16*
X327228Y451232D03*
X327228Y444732D03*
X305521Y461463D03*
X305521Y454963D03*
X348767Y460120D03*
X348767Y466620D03*
D15*
X312109Y440093D03*
X305609Y440093D03*
D23*
X214015Y499761D03*
X214015Y488761D03*
D24*
X340095Y441699D02*
X343545Y441699D01*
X343545Y439449D01*
X340095Y439449D01*
X340095Y441699D01*
X340095Y440161D02*
X343545Y440161D01*
X343545Y440873D02*
X340095Y440873D01*
X340095Y441585D02*
X343545Y441585D01*
X343545Y446699D02*
X340195Y446699D01*
X343545Y446699D02*
X343545Y444449D01*
X340195Y444449D01*
X340195Y446699D01*
X340195Y445161D02*
X343545Y445161D01*
X343545Y445873D02*
X340195Y445873D01*
X340195Y446585D02*
X343545Y446585D01*
X343545Y451699D02*
X340195Y451699D01*
X343545Y451699D02*
X343545Y449449D01*
X340195Y449449D01*
X340195Y451699D01*
X340195Y450161D02*
X343545Y450161D01*
X343545Y450873D02*
X340195Y450873D01*
X340195Y451585D02*
X343545Y451585D01*
X337645Y451699D02*
X334295Y451699D01*
X337645Y451699D02*
X337645Y449449D01*
X334295Y449449D01*
X334295Y451699D01*
X334295Y450161D02*
X337645Y450161D01*
X337645Y450873D02*
X334295Y450873D01*
X334295Y451585D02*
X337645Y451585D01*
X337645Y446699D02*
X334295Y446699D01*
X337645Y446699D02*
X337645Y444449D01*
X334295Y444449D01*
X334295Y446699D01*
X334295Y445161D02*
X337645Y445161D01*
X337645Y445873D02*
X334295Y445873D01*
X334295Y446585D02*
X337645Y446585D01*
X337645Y441699D02*
X334295Y441699D01*
X337645Y441699D02*
X337645Y439449D01*
X334295Y439449D01*
X334295Y441699D01*
X334295Y440161D02*
X337645Y440161D01*
X337645Y440873D02*
X334295Y440873D01*
X334295Y441585D02*
X337645Y441585D01*
D15*
X323351Y438239D03*
X329851Y438239D03*
D25*
X337796Y431152D03*
X348796Y431152D03*
D26*
X179054Y469962D03*
X189054Y469962D03*
D27*
X166054Y431212D03*
X202054Y431212D03*
D28*
X88983Y638762D03*
X147983Y638762D03*
X88983Y626062D03*
X147983Y626062D03*
X88983Y613362D03*
X147983Y613362D03*
X88983Y600662D03*
X147983Y600662D03*
X88983Y587962D03*
X147983Y587962D03*
X88983Y575262D03*
X147983Y575262D03*
X88983Y562562D03*
X147983Y562562D03*
X88983Y549862D03*
X147983Y549862D03*
X88983Y537162D03*
X147983Y537162D03*
X88983Y524462D03*
X147983Y524462D03*
X332600Y633275D03*
X391600Y633275D03*
X332600Y620575D03*
X391600Y620575D03*
X332600Y607875D03*
X391600Y607875D03*
X332600Y595175D03*
X391600Y595175D03*
X332600Y582475D03*
X391600Y582475D03*
X332600Y569775D03*
X391600Y569775D03*
X332600Y557075D03*
X391600Y557075D03*
X332600Y544375D03*
X391600Y544375D03*
X332600Y531675D03*
X391600Y531675D03*
X332600Y518975D03*
X391600Y518975D03*
D29*
X170434Y597168D03*
X170434Y586168D03*
X170434Y575168D03*
X170434Y564168D03*
X170434Y553168D03*
X170434Y542168D03*
X170434Y531168D03*
X170434Y520168D03*
X310434Y520168D03*
X310434Y531168D03*
X310434Y542168D03*
X310434Y553168D03*
X310434Y564168D03*
X310434Y575168D03*
X310434Y586168D03*
X310434Y597168D03*
D30*
X217934Y589168D03*
X232934Y589168D03*
X247934Y589168D03*
X262934Y589168D03*
X217934Y577168D03*
X232934Y577168D03*
X247934Y577168D03*
X262934Y577168D03*
X217934Y565168D03*
X232934Y565168D03*
X247934Y565168D03*
X262934Y565168D03*
X217934Y553168D03*
X232934Y553168D03*
X247934Y553168D03*
X262934Y553168D03*
X217934Y541168D03*
X232934Y541168D03*
X247934Y541168D03*
X262934Y541168D03*
X217934Y529168D03*
X232934Y529168D03*
X247934Y529168D03*
X262934Y529168D03*
X202934Y589168D03*
X277934Y589168D03*
X217934Y517168D03*
X232934Y517168D03*
X247934Y517168D03*
X262934Y517168D03*
X277934Y577168D03*
X277934Y565168D03*
X277934Y553168D03*
X277934Y541168D03*
X277934Y529168D03*
X277934Y517168D03*
X202934Y577168D03*
X202934Y565168D03*
X202934Y553168D03*
X202934Y541168D03*
X202934Y529168D03*
X202934Y517168D03*
X292934Y541168D03*
X292934Y529168D03*
D31*
X292934Y517168D03*
D32*
X206684Y609168D03*
X229184Y609168D03*
X251684Y609168D03*
X274184Y609168D03*
D33*
X124887Y430561D03*
D34*
X332197Y459293D02*
X332197Y470132D01*
X332197Y459293D02*
X332197Y454347D01*
X335970Y450574D01*
X344047Y491982D02*
X355108Y491982D01*
X361035Y485750D02*
X366017Y485750D01*
X361035Y485750D02*
X355108Y491677D01*
X355108Y491982D01*
X355108Y506968D01*
X353601Y508475D02*
X353449Y508627D01*
X353601Y508475D02*
X355108Y506968D01*
X392767Y489250D02*
X392767Y456250D01*
X392767Y489250D02*
X391497Y489250D01*
X383985Y496761D01*
X310434Y531168D02*
X307184Y531168D01*
D19*
X298835Y545186D03*
D34*
X298961Y545059D01*
X298961Y539391D01*
X307184Y531168D01*
X272169Y489092D02*
X267618Y489092D01*
D19*
X355108Y491982D03*
D34*
X322197Y498832D02*
X322121Y498908D01*
D19*
X294691Y486641D03*
D34*
X304159Y484828D02*
X305656Y483332D01*
X304159Y484828D02*
X296504Y484828D01*
X294691Y486641D01*
X306605Y468940D02*
X307344Y468940D01*
X306605Y468940D02*
X305656Y469889D01*
X305656Y483332D01*
X332197Y459293D02*
X335939Y459293D01*
X335312Y451232D02*
X327228Y451232D01*
X335312Y451232D02*
X335970Y450574D01*
X307344Y459641D02*
X305521Y461463D01*
X307344Y459641D02*
X307344Y468940D01*
X315004Y505230D02*
X314702Y505531D01*
X331067Y459293D02*
X332197Y459293D01*
X331067Y459293D02*
X330219Y458445D01*
X327228Y451232D02*
X327177Y451182D01*
X319329Y451182D01*
X311517Y458953D02*
X308032Y458953D01*
X305521Y461463D01*
X335939Y459293D02*
X339975Y455257D01*
X347024Y455257D01*
X348767Y457001D01*
X348767Y459388D02*
X349758Y460379D01*
X349758Y461153D01*
X352874Y464269D01*
X352874Y464345D02*
X356819Y468290D01*
X356819Y482619D02*
X359856Y485656D01*
X356819Y482619D02*
X356819Y468290D01*
X365923Y485656D02*
X366017Y485750D01*
X365923Y485656D02*
X359856Y485656D01*
X316562Y440093D02*
X312109Y440093D01*
X316562Y440093D02*
X317936Y438719D01*
D19*
X317936Y438719D03*
D34*
X318665Y438239D02*
X323351Y438239D01*
X318665Y438239D02*
X318185Y438719D01*
X317936Y438719D01*
X352874Y464269D02*
X352874Y464345D01*
X352874Y473158D01*
X352781Y473251D01*
X348767Y460120D02*
X348767Y459388D01*
X348767Y457001D01*
X322121Y505100D02*
X326390Y509369D01*
X322121Y505100D02*
X322121Y498908D01*
D19*
X326390Y509369D03*
D34*
X330437Y431152D02*
X337796Y431152D01*
X330437Y431152D02*
X323351Y438239D01*
X332197Y498832D02*
X332341Y498976D01*
X332341Y502700D01*
X337610Y505832D02*
X339406Y507627D01*
X337610Y505832D02*
X335473Y505832D01*
X332341Y502700D01*
X353449Y508627D02*
X353979Y508627D01*
X353449Y508627D02*
X339459Y508627D01*
X339406Y508575D01*
X339406Y507627D01*
X218010Y589244D02*
X218010Y596140D01*
X218010Y589244D02*
X217934Y589168D01*
X218010Y596140D02*
X206684Y607466D01*
X206684Y609168D01*
X228752Y608737D02*
X229184Y609168D01*
X228321Y609168D02*
X206684Y609168D01*
X228321Y609168D02*
X228638Y608851D01*
X228752Y608737D01*
X234382Y603970D02*
X234382Y590616D01*
X232934Y589168D01*
X234382Y603970D02*
X229184Y609168D01*
X251684Y609168D01*
X247940Y589174D02*
X247934Y589168D01*
X247940Y589174D02*
X247940Y605424D01*
X247934Y589555D02*
X247934Y589168D01*
X274057Y609295D02*
X274184Y609168D01*
X274057Y609295D02*
X251684Y609295D01*
X245784Y609295D01*
X251684Y609295D02*
X251684Y609168D01*
X326390Y509369D02*
X322250Y505230D01*
X315004Y505230D01*
X353979Y508627D02*
X354130Y508477D01*
D19*
X354130Y508477D03*
X339406Y507627D03*
D34*
X321880Y531190D02*
X310456Y531190D01*
X310434Y531168D01*
X247940Y605424D02*
X251684Y609168D01*
X262934Y589168D02*
X262624Y588858D01*
X244404Y588858D01*
X262444Y489092D02*
X272169Y489092D01*
X262444Y489092D02*
X259926Y491611D01*
X259926Y491611D01*
D19*
X265635Y465265D03*
D34*
X263471Y488066D02*
X259926Y491611D01*
X263471Y488066D02*
X263471Y474678D01*
X265635Y472514D02*
X265635Y465265D01*
X265635Y472514D02*
X263471Y474678D01*
D19*
X251889Y445655D03*
D34*
X249651Y447893D01*
X243253Y447893D01*
X240820Y450326D01*
D19*
X240820Y450326D03*
X235215Y485043D03*
D34*
X219344Y483432D02*
X214015Y488761D01*
X219344Y483432D02*
X233704Y483432D01*
X235215Y484943D02*
X235215Y485043D01*
X235215Y484943D02*
X233704Y483432D01*
D19*
X243358Y586948D03*
D34*
X243358Y587812D02*
X244404Y588858D01*
X243358Y587812D02*
X243358Y586948D01*
D19*
X110269Y447832D03*
X127000Y612140D03*
X215900Y429260D03*
X376174Y427482D03*
X399542Y478282D03*
D34*
X383985Y496761D02*
X383985Y498798D01*
X383981Y498803D01*
X383981Y506476D01*
X381982Y508475D01*
X353601Y508475D01*
D19*
X367792Y524256D03*
D34*
X366017Y485750D02*
X370285Y485750D01*
X375575Y491040D01*
D19*
X375575Y491040D03*
D34*
X181929Y461984D02*
X179054Y464860D01*
X179054Y469962D01*
X181929Y461984D02*
X181929Y451075D01*
X175349Y444495D01*
X350649Y652904D02*
X350649Y662290D01*
X350649Y652904D02*
X350502Y652752D01*
X367122Y615788D02*
X366268Y614934D01*
X367122Y615788D02*
X367122Y656104D01*
X366268Y614934D02*
X366268Y525780D01*
X367792Y524256D01*
X367122Y656104D02*
X360892Y662335D01*
X360236Y662335D01*
X360190Y662290D02*
X350649Y662290D01*
X360190Y662290D02*
X360236Y662335D01*
X332600Y531675D02*
X322365Y531675D01*
X321880Y531190D01*
D19*
X306040Y428031D03*
X255057Y428247D03*
X148648Y437078D03*
D34*
X156065Y444495D01*
X175349Y444495D01*
D19*
X230480Y460113D03*
X182783Y432018D03*
D34*
X308202Y505531D02*
X310002Y507331D01*
X297269Y498888D02*
X297269Y498592D01*
X297269Y498888D02*
X303819Y505438D01*
X297358Y498592D02*
X297269Y498592D01*
X310002Y519736D02*
X310434Y520168D01*
X310002Y519736D02*
X310002Y507331D01*
X300482Y531817D02*
X292934Y539365D01*
X292934Y541168D01*
X300482Y525389D02*
X305702Y520168D01*
X310434Y520168D01*
X300482Y525389D02*
X300482Y531817D01*
D19*
X300548Y489679D03*
X310002Y511714D03*
D34*
X310002Y510802D01*
D19*
X319948Y510819D03*
D34*
X319905Y510819D02*
X310556Y520168D01*
X319905Y510819D02*
X319948Y510819D01*
X310556Y520168D02*
X310434Y520168D01*
X300548Y495402D02*
X300548Y489679D01*
X300548Y495402D02*
X297358Y498592D01*
X311426Y519176D02*
X310434Y520168D01*
X311426Y519176D02*
X323226Y519176D01*
X308202Y505531D02*
X308109Y505438D01*
X303819Y505438D01*
X310002Y507331D02*
X310002Y511714D01*
X310002Y507331D02*
X308202Y505531D01*
X323427Y518975D02*
X332600Y518975D01*
X323427Y518975D02*
X323226Y519176D01*
X292934Y529168D02*
X292934Y533614D01*
X287625Y538923D01*
X287625Y547754D01*
X295747Y555877D02*
X295747Y566995D01*
X295747Y555877D02*
X287625Y547754D01*
X295747Y566995D02*
X295809Y566995D01*
D19*
X295809Y566995D03*
X366959Y517581D03*
D34*
X367030Y517652D01*
X390277Y517652D02*
X391600Y518975D01*
X390277Y517652D02*
X367030Y517652D01*
D19*
X170691Y462303D03*
D34*
X168939Y464056D02*
X168939Y474971D01*
X168939Y464056D02*
X170691Y462303D01*
X168939Y474971D02*
X169271Y475303D01*
D19*
X169271Y475303D03*
D34*
X232934Y529168D02*
X233545Y529168D01*
X233545Y525833D02*
X235580Y523799D01*
X233545Y525833D02*
X233545Y529168D01*
D19*
X235580Y523799D03*
D34*
X262934Y529168D02*
X262934Y530632D01*
X259751Y533814D01*
X259068Y533131D01*
D19*
X259068Y533131D03*
X226002Y515193D03*
D34*
X226139Y515330D02*
X226139Y530120D01*
X226139Y515330D02*
X226002Y515193D01*
X226139Y530120D02*
X232934Y536915D01*
X232934Y541168D01*
X239547Y514299D02*
X232048Y506799D01*
X239547Y514299D02*
X239547Y520978D01*
X232048Y506799D02*
X218178Y506799D01*
X218178Y506507D01*
X209607Y506507D01*
X192481Y489382D01*
X106394Y535236D02*
X106394Y543763D01*
X103346Y546811D01*
X106394Y535236D02*
X109499Y532130D01*
X103346Y546811D02*
X103346Y556089D01*
X109499Y532130D02*
X109499Y511430D01*
X124360Y496570D01*
X143061Y496570D02*
X150250Y489382D01*
X143061Y496570D02*
X124360Y496570D01*
X150250Y489382D02*
X192481Y489382D01*
D19*
X218178Y506507D03*
D34*
X96873Y562562D02*
X88983Y562562D01*
X96873Y562562D02*
X103346Y556089D01*
X247934Y541168D02*
X247934Y537944D01*
X242648Y532658D01*
X242648Y524078D01*
X239547Y520978D01*
X247934Y525053D02*
X247934Y529168D01*
X247934Y525053D02*
X242595Y519715D01*
X242595Y512869D01*
X230673Y500946D02*
X222912Y500946D01*
X222791Y501068D01*
X230673Y500946D02*
X242595Y512869D01*
D19*
X222791Y501068D03*
D34*
X221704Y499981D01*
X247934Y529168D02*
X247934Y533633D01*
X253324Y539023D01*
X237318Y558513D02*
X214718Y558513D01*
X211370Y561861D01*
X210283Y561861D01*
X250120Y546457D02*
X253324Y543254D01*
X253324Y539023D01*
D19*
X210283Y561861D03*
X131724Y561899D03*
D34*
X131856Y561767D02*
X136936Y561767D01*
X131856Y561767D02*
X131724Y561899D01*
X137731Y562562D02*
X147983Y562562D01*
X137731Y562562D02*
X136936Y561767D01*
X214015Y499761D02*
X214235Y499981D01*
X221704Y499981D01*
X244854Y546457D02*
X240821Y550491D01*
X240821Y555011D01*
X244854Y546457D02*
X250120Y546457D01*
X240821Y555011D02*
X237318Y558513D01*
X259910Y538144D02*
X262934Y541168D01*
X259910Y538144D02*
X256812Y538144D01*
X248342Y509851D02*
X240062Y501570D01*
X248342Y509851D02*
X253255Y514763D01*
X253255Y534587D01*
X256812Y538144D01*
D19*
X222725Y488524D03*
D34*
X103378Y511302D02*
X103378Y529488D01*
X205262Y483210D02*
X208290Y480182D01*
X248342Y509851D02*
X248342Y509881D01*
X240062Y501570D02*
X240062Y482916D01*
X237327Y480182D02*
X208290Y480182D01*
X237327Y480182D02*
X240062Y482916D01*
X223072Y488871D02*
X222725Y488524D01*
X223072Y488871D02*
X227332Y488871D01*
X248342Y509881D01*
X103403Y511277D02*
X103378Y511302D01*
X103403Y511277D02*
X103403Y508905D01*
X121835Y490474D01*
X140536Y490474D02*
X147801Y483210D01*
X140536Y490474D02*
X121835Y490474D01*
X147801Y483210D02*
X205262Y483210D01*
X95705Y537162D02*
X88983Y537162D01*
X95705Y537162D02*
X103378Y529488D01*
D19*
X182658Y591007D03*
D34*
X182658Y584073D01*
X173753Y575168D02*
X170434Y575168D01*
X173753Y575168D02*
X182658Y584073D01*
D19*
X182556Y577088D03*
D34*
X180222Y574754D01*
X180222Y570681D02*
X173709Y564168D01*
X170434Y564168D01*
X180222Y570681D02*
X180222Y574754D01*
X358658Y459750D02*
X366017Y459750D01*
X357683Y458775D02*
X357683Y442773D01*
X351460Y436550D01*
X337621Y436550D01*
X335970Y438201D01*
X335970Y440574D01*
X357683Y458775D02*
X358658Y459750D01*
X335970Y440574D02*
X329866Y440574D01*
X330702Y439739D01*
X329866Y440574D02*
X327228Y443212D01*
X326235Y444205D01*
X319805Y444205D01*
X317378Y444205D01*
X313672Y447911D01*
X327228Y444732D02*
X327228Y443212D01*
X319805Y444205D02*
X319329Y444682D01*
X329851Y438888D02*
X329851Y438239D01*
X329851Y438888D02*
X330702Y439739D01*
X348795Y433885D02*
X348796Y431152D01*
X348795Y433885D02*
X351460Y436550D01*
X360280Y466250D02*
X366017Y466250D01*
X360280Y466250D02*
X360164Y466134D01*
X372402Y466250D02*
X376934Y470782D01*
X372402Y466250D02*
X366017Y466250D01*
X346541Y445574D02*
X341870Y445574D01*
X282824Y505154D02*
X284360Y506691D01*
X284360Y527283D02*
X282475Y529168D01*
X277934Y529168D01*
X284360Y527283D02*
X284360Y506691D01*
D19*
X357593Y431995D03*
D34*
X357593Y428853D01*
X354618Y425878D01*
X318606Y425878D01*
D19*
X376934Y470782D03*
D34*
X376916Y470782D01*
X373447Y467313D01*
X365780Y467313D01*
X282824Y474226D02*
X282824Y505154D01*
X297906Y453765D02*
X297906Y437243D01*
X346541Y445574D02*
X354584Y453618D01*
X354584Y461213D01*
X359505Y466134D01*
X360164Y466134D01*
X282829Y474220D02*
X282824Y474226D01*
X282829Y474220D02*
X282829Y472795D01*
X295307Y460318D02*
X295307Y456365D01*
X295307Y460318D02*
X282829Y472795D01*
X295307Y456365D02*
X297906Y453765D01*
X311627Y432857D02*
X318606Y425878D01*
X302293Y432857D02*
X297906Y437243D01*
X302293Y432857D02*
X311627Y432857D01*
D19*
X376980Y478407D03*
D34*
X376980Y478041D02*
X371688Y472750D01*
X366017Y472750D01*
X376980Y478041D02*
X376980Y478407D01*
D19*
X351044Y443230D03*
D34*
X347463Y439649D01*
X342746Y439649D01*
X341820Y440574D01*
X281005Y541168D02*
X277934Y541168D01*
X281005Y541168D02*
X287490Y534683D01*
X287490Y505370D01*
X285877Y503757D01*
D19*
X320581Y431054D03*
D34*
X303472Y435989D02*
X300954Y438506D01*
X320525Y431110D02*
X320581Y431054D01*
X320525Y431110D02*
X317685Y431110D01*
X300954Y455030D02*
X298363Y457621D01*
X300954Y455030D02*
X300954Y438506D01*
X298363Y457621D02*
X298363Y461571D01*
X285877Y474058D01*
X285877Y503757D01*
X303472Y435989D02*
X312806Y435989D01*
X317685Y431110D01*
X258022Y471101D02*
X254958Y474165D01*
X254958Y493490D01*
X272169Y479592D02*
X276875Y479592D01*
X275574Y498592D02*
X272169Y498592D01*
X259926Y498111D02*
X259925Y498097D01*
X254958Y493490D01*
X271687Y498111D02*
X272169Y498592D01*
X271687Y498111D02*
X259926Y498111D01*
X271852Y547598D02*
X271852Y549582D01*
X271852Y547598D02*
X269568Y545313D01*
X269568Y501193D01*
X272169Y498592D01*
D19*
X271852Y549582D03*
X254650Y562003D03*
D34*
X254650Y576135D02*
X255494Y576980D01*
X254650Y576135D02*
X254650Y562003D01*
D19*
X255494Y576980D03*
D34*
X256693Y460193D02*
X269687Y460193D01*
X272058Y462564D01*
X256693Y460193D02*
X254958Y461928D01*
X254958Y474165D01*
X272058Y479481D02*
X272169Y479592D01*
X272058Y479481D02*
X272058Y462564D01*
X310434Y597168D02*
X313741Y597168D01*
X324448Y607875D02*
X332600Y607875D01*
X324448Y607875D02*
X313741Y597168D01*
X247934Y517168D02*
X247934Y513824D01*
X228401Y494291D01*
X201923Y494291D01*
X193889Y486258D01*
X103346Y533940D02*
X103346Y542475D01*
X103346Y533940D02*
X106451Y530835D01*
X106451Y510168D01*
X123097Y493522D01*
X141799Y493522D01*
X149063Y486258D01*
X193889Y486258D01*
X95959Y549862D02*
X88983Y549862D01*
X95959Y549862D02*
X103346Y542475D01*
D19*
X222820Y594995D03*
D34*
X222820Y594986D02*
X223677Y594129D01*
X222820Y594986D02*
X222820Y594995D01*
X229657Y577168D02*
X232934Y577168D01*
X229657Y577168D02*
X223677Y583149D01*
X223677Y594129D01*
D19*
X350749Y609270D03*
D34*
X350749Y638002D01*
X349034Y639717D01*
X333413Y639717D02*
X330152Y642978D01*
X333413Y639717D02*
X349034Y639717D01*
X330163Y644314D02*
X330152Y644303D01*
X330152Y642978D01*
X247934Y557649D02*
X247934Y553168D01*
X247934Y557649D02*
X242534Y563049D01*
X229347Y582638D02*
X226810Y585175D01*
X226810Y592196D01*
X229347Y582638D02*
X234940Y582638D01*
X238220Y579358D01*
X229392Y594778D02*
X229392Y595594D01*
D19*
X229392Y595594D03*
D34*
X229392Y594778D02*
X226810Y592196D01*
D19*
X375410Y584302D03*
D34*
X377236Y582475D01*
X391600Y582475D01*
X242534Y570573D02*
X238220Y574887D01*
X242534Y570573D02*
X242534Y563049D01*
X238220Y574887D02*
X238220Y579358D01*
X241268Y580620D02*
X238255Y583634D01*
X247934Y569484D02*
X247934Y565168D01*
X247934Y569484D02*
X241268Y576150D01*
X241268Y580620D01*
X238255Y595785D02*
X239344Y596875D01*
D19*
X239344Y596875D03*
D34*
X238255Y595785D02*
X238255Y583634D01*
D19*
X375260Y570662D03*
D34*
X376146Y569775D01*
X391600Y569775D01*
X310434Y575168D02*
X307126Y575168D01*
X300650Y568692D02*
X300650Y553894D01*
X298585Y551829D01*
X300650Y568692D02*
X307126Y575168D01*
D19*
X298585Y551829D03*
D34*
X310434Y575168D02*
X316882Y575168D01*
X324189Y582475D02*
X332600Y582475D01*
X324189Y582475D02*
X316882Y575168D01*
X217934Y529168D02*
X211762Y529168D01*
X205783Y523189D01*
X197648Y519358D02*
X197648Y512662D01*
X197648Y519358D02*
X201479Y523189D01*
X121768Y537729D02*
X118586Y540911D01*
X118586Y548991D01*
X115538Y552039D01*
X115538Y561419D02*
X112490Y564467D01*
X112490Y571840D02*
X109442Y574888D01*
X109442Y582744D02*
X106394Y585792D01*
X106394Y594908D02*
X103346Y597956D01*
X103346Y606148D01*
X201479Y523189D02*
X205783Y523189D01*
X197648Y512662D02*
X186650Y501664D01*
X115538Y552039D02*
X115538Y561419D01*
X112490Y564467D02*
X112490Y571840D01*
X109442Y574888D02*
X109442Y582744D01*
X106394Y585792D02*
X106394Y594908D01*
X121768Y516404D02*
X129410Y508762D01*
X148112Y508762D02*
X155209Y501664D01*
X121768Y516404D02*
X121768Y537729D01*
X129410Y508762D02*
X148112Y508762D01*
X155209Y501664D02*
X186650Y501664D01*
X96132Y613362D02*
X88983Y613362D01*
X96132Y613362D02*
X103346Y606148D01*
X272648Y522454D02*
X277934Y517168D01*
X272648Y522454D02*
X272648Y543358D01*
X275744Y546454D01*
X281760Y546454D01*
X292182Y556876D01*
X292182Y563626D01*
X299364Y602666D02*
X300279Y603580D01*
X312191Y603580D01*
X312242Y603529D01*
X299364Y602666D02*
X299364Y582225D01*
X312191Y603580D02*
X312200Y603589D01*
X315851Y603589D01*
X318172Y605910D02*
X318172Y612475D01*
X318172Y605910D02*
X315851Y603589D01*
X290432Y565376D02*
X292182Y563626D01*
X290432Y565376D02*
X290432Y573293D01*
X299364Y582225D01*
X326272Y620575D02*
X332600Y620575D01*
X326272Y620575D02*
X318172Y612475D01*
D19*
X270662Y587863D03*
D34*
X277934Y588696D02*
X277934Y589168D01*
X277934Y588696D02*
X271496Y588696D01*
X270662Y587863D01*
D19*
X374904Y536499D03*
D34*
X379728Y531675D01*
X391600Y531675D01*
X314958Y586168D02*
X310434Y586168D01*
X323965Y595175D02*
X332600Y595175D01*
X323965Y595175D02*
X314958Y586168D01*
X290216Y607634D02*
X295314Y612733D01*
X290216Y607634D02*
X290216Y589996D01*
X277934Y577714D01*
X277934Y577168D01*
X295314Y612733D02*
X308707Y612733D01*
X309028Y613054D01*
X309028Y616295D01*
X312076Y619343D01*
X312076Y628418D02*
X315124Y631466D01*
X315124Y658653D02*
X320208Y663737D01*
X312076Y628418D02*
X312076Y619343D01*
X315124Y631466D02*
X315124Y658653D01*
X310286Y609685D02*
X296678Y609685D01*
X293268Y606275D01*
X293268Y584826D01*
X277934Y569492D01*
X277934Y565168D01*
X310286Y609685D02*
X312076Y611474D01*
X312076Y615032D01*
X315124Y618080D02*
X315124Y627054D01*
X318172Y630102D01*
X318172Y651809D01*
X320779Y654417D01*
X315124Y618080D02*
X312076Y615032D01*
X217934Y517168D02*
X211019Y517168D01*
X189404Y495554D01*
X112490Y538294D02*
X112490Y546390D01*
X109442Y558792D02*
X106394Y561840D01*
X109442Y558792D02*
X109442Y549438D01*
X106394Y568746D02*
X103346Y571794D01*
X103346Y580067D01*
X101585Y581828D01*
X101575Y581838D01*
X112490Y538294D02*
X115672Y535112D01*
X112490Y546390D02*
X109442Y549438D01*
X106394Y561840D02*
X106394Y568746D01*
X115672Y513879D02*
X126885Y502666D01*
X145587Y502666D01*
X115672Y513879D02*
X115672Y535112D01*
X145587Y502666D02*
X152699Y495554D01*
X189404Y495554D01*
X95451Y587962D02*
X88983Y587962D01*
X95451Y587962D02*
X101575Y581838D01*
X278814Y554049D02*
X283921Y554049D01*
X278814Y554049D02*
X277934Y553168D01*
X283921Y554049D02*
X288919Y559046D01*
X288919Y562295D01*
X296316Y604986D02*
X297967Y606637D01*
X296316Y583564D02*
X287264Y574512D01*
X296316Y583564D02*
X296316Y604986D01*
X314589Y606637D02*
X315124Y607172D01*
X315124Y613769D01*
X318172Y616817D02*
X318172Y625283D01*
X326240Y633352D01*
X314589Y606637D02*
X297967Y606637D01*
X315124Y613769D02*
X318172Y616817D01*
X287264Y563950D02*
X288919Y562295D01*
X287264Y563950D02*
X287264Y574512D01*
X332600Y633275D02*
X332524Y633352D01*
X326240Y633352D01*
X312257Y543992D02*
X310434Y542168D01*
X332216Y543992D02*
X332600Y544375D01*
X332216Y543992D02*
X312257Y543992D01*
X202934Y517168D02*
X202934Y513638D01*
X187898Y498602D01*
X118720Y536390D02*
X115538Y539572D01*
X103346Y584479D02*
X103346Y593112D01*
X103346Y584479D02*
X106394Y581431D01*
X112490Y550776D02*
X115538Y547728D01*
X115538Y539572D01*
X112490Y560080D02*
X109442Y563128D01*
X109442Y570425D02*
X106394Y573473D01*
X112490Y560080D02*
X112490Y550776D01*
X109442Y563128D02*
X109442Y570425D01*
X106394Y573473D02*
X106394Y581431D01*
X118720Y515142D02*
X128147Y505714D01*
X146849Y505714D02*
X153961Y498602D01*
X118720Y515142D02*
X118720Y536390D01*
X128147Y505714D02*
X146849Y505714D01*
X153961Y498602D02*
X187898Y498602D01*
X95796Y600662D02*
X88983Y600662D01*
X95796Y600662D02*
X103346Y593112D01*
X170434Y520168D02*
X179539Y520168D01*
X181377Y522006D01*
X181377Y528232D01*
X189695Y536550D02*
X189695Y567454D01*
D19*
X189695Y567454D03*
D34*
X189695Y536550D02*
X181377Y528232D01*
D19*
X283569Y560835D03*
D34*
X281789Y559054D01*
X255053Y555570D02*
X255053Y552735D01*
D19*
X255053Y552735D03*
D34*
X255053Y555570D02*
X258537Y559054D01*
X281789Y559054D01*
D19*
X225372Y564933D03*
D34*
X225304Y564866D01*
X223377Y564866D01*
X217934Y565168D02*
X217706Y565168D01*
X218169Y564933D02*
X225372Y564933D01*
X218169Y564933D02*
X217934Y565168D01*
X252146Y581380D02*
X252146Y583050D01*
X252146Y581380D02*
X247934Y577168D01*
D19*
X252146Y583050D03*
X374853Y547091D03*
D34*
X377569Y544375D01*
X391600Y544375D01*
X202934Y565168D02*
X202934Y569681D01*
X197637Y574977D01*
X197637Y593126D01*
X180477Y610286D01*
X175920Y610286D01*
X163805Y622402D01*
X163805Y631038D01*
X156081Y638762D02*
X147983Y638762D01*
X156081Y638762D02*
X163805Y631038D01*
X202934Y594702D02*
X202934Y589168D01*
X202934Y594702D02*
X201524Y596113D01*
D19*
X201524Y596113D03*
X375410Y631038D03*
D34*
X377647Y633275D01*
X391600Y633275D01*
X191364Y590525D02*
X177876Y604012D01*
X165125Y604012D01*
X194536Y561566D02*
X202934Y553168D01*
X194536Y561566D02*
X194536Y569435D01*
X191364Y572607D01*
X191364Y590525D01*
X155776Y613362D02*
X147983Y613362D01*
X155776Y613362D02*
X165125Y604012D01*
X201943Y529168D02*
X202934Y529168D01*
X194600Y520620D02*
X194600Y513925D01*
X202934Y528954D02*
X202934Y529168D01*
X202934Y528954D02*
X194600Y520620D01*
X124816Y539093D02*
X121845Y542063D01*
X118586Y553378D02*
X118586Y562859D01*
X115538Y565907D01*
X115538Y573332D01*
X112490Y576380D01*
X112490Y584058D02*
X109442Y587106D01*
X109442Y596272D01*
X106394Y599320D01*
X106394Y607939D01*
X103346Y610987D01*
X103346Y618827D01*
X194600Y513925D02*
X185399Y504723D01*
X121845Y542063D02*
X121845Y550118D01*
X118586Y553378D01*
X112490Y576380D02*
X112490Y584058D01*
X159766Y504723D02*
X185399Y504723D01*
X130673Y511810D02*
X124816Y517667D01*
X149374Y511810D02*
X156461Y504723D01*
X159766Y504723D01*
X124816Y517667D02*
X124816Y539093D01*
X130673Y511810D02*
X149374Y511810D01*
X96111Y626062D02*
X88983Y626062D01*
X96111Y626062D02*
X103346Y618827D01*
X348615Y466772D02*
X348767Y466620D01*
X348615Y476265D02*
X347898Y476982D01*
X344047Y476982D01*
X348615Y476265D02*
X348615Y466772D01*
X318533Y473797D02*
X315347Y476982D01*
X318533Y473797D02*
X318533Y459468D01*
X318017Y458953D01*
X337197Y465332D02*
X342439Y460090D01*
X337197Y465332D02*
X337197Y470132D01*
X342439Y460090D02*
X342439Y459293D01*
X327197Y498832D02*
X327197Y503303D01*
X333454Y509560D02*
X333454Y510682D01*
X333454Y509560D02*
X327197Y503303D01*
D19*
X333454Y510682D03*
X270695Y577957D03*
D34*
X272614Y576038D01*
X272614Y572076D01*
D19*
X349199Y526313D03*
D34*
X349214Y526329D01*
X349214Y544102D02*
X349445Y544333D01*
X349214Y544102D02*
X349214Y526329D01*
D19*
X349445Y544333D03*
D34*
X265707Y565168D02*
X262934Y565168D01*
X265707Y565168D02*
X272614Y572076D01*
X311713Y491982D02*
X315347Y491982D01*
X311713Y491982D02*
X307841Y495854D01*
X307841Y499069D02*
X307824Y499087D01*
X307841Y499069D02*
X307841Y495854D01*
D19*
X307824Y499087D03*
X259004Y583072D03*
D34*
X262670Y577432D02*
X263949Y577432D01*
X259004Y580641D02*
X259004Y583072D01*
X259004Y580641D02*
X261789Y577856D01*
D19*
X355017Y522630D03*
D34*
X354407Y542875D02*
X356337Y544805D01*
X354407Y542875D02*
X354407Y523169D01*
X354945Y522630D02*
X355017Y522630D01*
X354945Y522630D02*
X354407Y523169D01*
D19*
X356337Y544805D03*
D34*
X262934Y577168D02*
X262670Y577432D01*
X262246Y577856D01*
X261789Y577856D01*
X344047Y481982D02*
X347726Y481982D01*
X189744Y469706D02*
X189488Y469962D01*
X189054Y469962D01*
X189744Y469706D02*
X189744Y467086D01*
X290451Y435503D02*
X290450Y428684D01*
X290451Y435503D02*
X285315Y440639D01*
D19*
X290450Y428684D03*
X352501Y485546D03*
D34*
X350911Y487137D01*
X347375Y487137D01*
X347530Y486982D02*
X344047Y486982D01*
X216191Y440639D02*
X189744Y467086D01*
X216191Y440639D02*
X285315Y440639D01*
X352501Y485546D02*
X352781Y485267D01*
X352781Y479751D01*
X347726Y486787D02*
X347530Y486982D01*
X347375Y487137D01*
X347726Y486787D02*
X347726Y481982D01*
X311791Y484124D02*
X311791Y486982D01*
X311791Y484124D02*
X311791Y481982D01*
X315347Y481982D01*
X315347Y486982D02*
X311791Y486982D01*
D19*
X313671Y465377D03*
D34*
X313671Y469926D01*
X308761Y474837D01*
D19*
X269822Y429778D03*
D34*
X270434Y429165D02*
X279958Y429165D01*
X270434Y429165D02*
X269822Y429778D01*
X337197Y498832D02*
X337977Y498832D01*
X342081Y502936D02*
X349066Y502936D01*
X342081Y502936D02*
X337977Y498832D01*
D19*
X349066Y502936D03*
X307201Y489350D03*
D34*
X307201Y488131D01*
X308761Y486571D01*
X308761Y483108D01*
X308761Y474837D01*
X310775Y483108D02*
X311791Y484124D01*
X310775Y483108D02*
X308761Y483108D01*
X322197Y470132D02*
X322172Y470107D01*
X322172Y459384D01*
X322172Y454914D01*
X304436Y453847D02*
X304436Y448511D01*
X305036Y447911D01*
X292934Y506231D02*
X292934Y517168D01*
X292934Y506231D02*
X288933Y502230D01*
X288933Y475312D01*
X300844Y468940D02*
X301476Y468307D01*
X301476Y458870D01*
X322779Y459384D02*
X323719Y458445D01*
X322779Y459384D02*
X322172Y459384D01*
X305553Y454963D02*
X305503Y454914D01*
X304436Y453847D01*
X305503Y454914D02*
X322172Y454914D01*
X305521Y454963D02*
X305383Y454963D01*
X301476Y458870D01*
X305521Y454963D02*
X305553Y454963D01*
X305036Y447911D02*
X305609Y447339D01*
X305609Y440093D01*
X300844Y468940D02*
X295962Y473822D01*
X290424Y473822D01*
X288933Y475312D01*
X336663Y644314D02*
X357215Y644314D01*
X360236Y647335D01*
X334039Y654215D02*
X327458Y654215D01*
X334039Y654215D02*
X335502Y652752D01*
X334084Y663854D02*
X327219Y663854D01*
X334084Y663854D02*
X335649Y662290D01*
X179977Y531168D02*
X170434Y531168D01*
X179977Y531168D02*
X183434Y534626D01*
X183434Y566486D02*
X183150Y566771D01*
X183434Y566486D02*
X183434Y534626D01*
D19*
X183150Y566771D03*
D34*
X202149Y558454D02*
X205123Y558454D01*
X210409Y553168D02*
X217934Y553168D01*
X210409Y553168D02*
X205123Y558454D01*
X194589Y591813D02*
X179164Y607238D01*
X173761Y607238D01*
X197609Y570677D02*
X197609Y562994D01*
X202149Y558454D01*
X197609Y570677D02*
X194589Y573697D01*
X194589Y591813D01*
X154938Y626062D02*
X147983Y626062D01*
X154938Y626062D02*
X173761Y607238D01*
X200744Y546454D02*
X205123Y546454D01*
X200744Y546454D02*
X197648Y543358D01*
X197648Y540193D01*
X210409Y541168D02*
X217934Y541168D01*
X210409Y541168D02*
X205123Y546454D01*
X185456Y528001D02*
X185456Y517712D01*
X185456Y528001D02*
X197648Y540193D01*
X185456Y517712D02*
X181662Y513918D01*
X160198Y513918D01*
X149654Y524462D02*
X147983Y524462D01*
X149654Y524462D02*
X160198Y513918D01*
X310434Y564168D02*
X313092Y566826D01*
X329651Y566826D02*
X332600Y569775D01*
X329651Y566826D02*
X313092Y566826D01*
X170434Y597168D02*
X169915Y597687D01*
X159247Y597687D01*
X156272Y600662D02*
X147983Y600662D01*
X156272Y600662D02*
X159247Y597687D01*
X169526Y587076D02*
X170434Y586168D01*
X169526Y587076D02*
X159375Y587076D01*
X158489Y587962D02*
X147983Y587962D01*
X158489Y587962D02*
X159375Y587076D01*
X232934Y553168D02*
X232934Y548644D01*
X227648Y543358D01*
X227648Y538061D01*
X200744Y534454D02*
X199208Y532917D01*
X199060Y532917D01*
X200744Y534454D02*
X224041Y534454D01*
X199060Y532917D02*
X191552Y525409D01*
X191552Y515187D01*
X184136Y507771D01*
X127864Y540432D02*
X124893Y543402D01*
X124893Y551406D01*
X121634Y554666D01*
X121634Y564198D02*
X118586Y567246D01*
X118586Y574797D02*
X115538Y577845D01*
X115538Y585727D02*
X112490Y588775D01*
X112490Y598145D02*
X109442Y601193D01*
X109442Y609786D01*
X106394Y612834D02*
X106394Y620547D01*
X103346Y623595D01*
X224041Y534454D02*
X227648Y538061D01*
X121634Y554666D02*
X121634Y564198D01*
X118586Y567246D02*
X118586Y574797D01*
X115538Y577845D02*
X115538Y585727D01*
X112490Y588775D02*
X112490Y598145D01*
X109442Y609786D02*
X106394Y612834D01*
X103346Y623595D02*
X103346Y632746D01*
X157723Y507771D02*
X184136Y507771D01*
X131935Y514858D02*
X127864Y518929D01*
X127864Y540432D01*
X131935Y514858D02*
X150637Y514858D01*
X157723Y507771D01*
X97330Y638762D02*
X88983Y638762D01*
X97330Y638762D02*
X103346Y632746D01*
X202934Y541168D02*
X188504Y526738D01*
X188504Y516450D02*
X182924Y510870D01*
X130912Y520192D02*
X130912Y541875D01*
X188504Y526738D02*
X188504Y516450D01*
X130912Y541875D02*
X127941Y544846D01*
X127941Y553495D02*
X125162Y556274D01*
X125162Y566157D01*
X127941Y553495D02*
X127941Y544846D01*
X130912Y520192D02*
X133198Y517906D01*
X151899Y517906D02*
X158935Y510870D01*
X151899Y517906D02*
X133198Y517906D01*
X158935Y510870D02*
X182924Y510870D01*
X147983Y575262D02*
X134267Y575262D01*
X125162Y566157D01*
X202934Y577168D02*
X202934Y579079D01*
X206963Y583109D02*
X206963Y583231D01*
X206963Y583109D02*
X202934Y579079D01*
D19*
X206963Y583231D03*
X374625Y622325D03*
D34*
X389850Y622325D01*
X391600Y620575D01*
X262934Y517168D02*
X262330Y517168D01*
X262934Y517168D02*
X260084Y517168D01*
X243164Y500249D01*
X243164Y481457D02*
X238724Y477017D01*
X243164Y481457D02*
X243164Y500249D01*
D19*
X199793Y471934D03*
D34*
X204877Y477017D01*
X238724Y477017D01*
D19*
X176451Y457294D03*
D34*
X176436Y457279D01*
X151605Y457279D01*
X124887Y430561D01*
X232858Y517092D02*
X232934Y517168D01*
X232858Y517092D02*
X232858Y512113D01*
X220063Y511790D02*
X210342Y511790D01*
X191033Y492481D01*
X112624Y533451D02*
X109442Y536633D01*
X109442Y545051D02*
X106394Y548099D01*
X106394Y557403D02*
X103346Y560451D01*
X109442Y545051D02*
X109442Y536633D01*
X106394Y548099D02*
X106394Y557403D01*
X103346Y560451D02*
X103346Y567367D01*
X112624Y512617D02*
X125622Y499618D01*
X144324Y499618D01*
X151461Y492481D01*
X112624Y512617D02*
X112624Y533451D01*
X151461Y492481D02*
X191033Y492481D01*
X95451Y575262D02*
X88983Y575262D01*
X95451Y575262D02*
X103346Y567367D01*
X220063Y511790D02*
X222005Y509847D01*
X230592Y509847D02*
X232858Y512113D01*
X230592Y509847D02*
X222005Y509847D01*
X314671Y553168D02*
X317077Y555574D01*
X314671Y553168D02*
X310434Y553168D01*
X331099Y555574D02*
X332600Y557075D01*
X331099Y555574D02*
X317077Y555574D01*
X170434Y542168D02*
X167716Y539450D01*
X161944Y539450D01*
X159727Y537233D01*
X159704Y537210D01*
X159656Y537162D02*
X147983Y537162D01*
X159656Y537162D02*
X159704Y537210D01*
X167633Y550367D02*
X170434Y553168D01*
X167633Y550367D02*
X160060Y550367D01*
X159554Y549862D02*
X147983Y549862D01*
X159554Y549862D02*
X160060Y550367D01*
X212607Y582495D02*
X217934Y577168D01*
X212607Y582495D02*
X212607Y594335D01*
D19*
X212607Y594335D03*
X375410Y609981D03*
D34*
X389494Y609981D01*
X391600Y607875D01*
D19*
X257472Y545722D03*
D34*
X262934Y551183D02*
X262934Y553168D01*
X262934Y551183D02*
X257472Y545722D01*
D19*
X258112Y449306D03*
D34*
X276677Y449306D01*
X282296Y443687D01*
X293500Y432483D02*
X297409Y428574D01*
X297988Y427995D01*
X286578Y443687D02*
X282296Y443687D01*
X286578Y443687D02*
X293500Y436766D01*
X293500Y432483D01*
D19*
X364165Y429618D03*
D34*
X298694Y428574D02*
X297409Y428574D01*
X298694Y428574D02*
X304438Y422830D01*
X357377Y422830D01*
X364165Y429618D01*
D19*
X375181Y593994D03*
D34*
X376362Y595175D01*
X391600Y595175D01*
D19*
X210458Y575822D03*
X374735Y558809D03*
D34*
X376469Y557075D01*
X391600Y557075D01*
X232934Y565168D02*
X227054Y571048D01*
X215233Y571048D02*
X210458Y575822D01*
X215233Y571048D02*
X227054Y571048D01*
D19*
X280253Y456827D03*
D34*
X278729Y455303D01*
X228354Y455303D01*
X224189Y459467D01*
X145075Y480113D02*
X137762Y487426D01*
X120572Y487426D02*
X100330Y507668D01*
X100330Y514578D01*
X120572Y487426D02*
X137762Y487426D01*
X94435Y524462D02*
X88983Y524462D01*
X90447Y524462D01*
X100330Y514578D01*
X192886Y480113D02*
X194399Y478600D01*
X192886Y480113D02*
X145075Y480113D01*
X194399Y478600D02*
X194399Y467281D01*
X202213Y459467D02*
X224189Y459467D01*
X202213Y459467D02*
X194399Y467281D01*
M02*
