G04 EAGLE Gerber RS-274X export*
G75*
%MOMM*%
%FSLAX34Y34*%
%LPD*%
%INBottom Copper*%
%IPPOS*%
%AMOC8*
5,1,8,0,0,1.08239X$1,22.5*%
G01*
%ADD10R,1.400000X0.700000*%
%ADD11R,1.200000X1.800000*%
%ADD12R,0.250000X0.350000*%
%ADD13R,0.350000X0.250000*%
%ADD14C,0.088500*%
%ADD15C,0.065000*%
%ADD16R,0.600000X0.500000*%
%ADD17C,0.504800*%
%ADD18R,1.400000X1.400000*%
%ADD19R,0.500000X0.600000*%
%ADD20R,2.400000X0.760000*%
%ADD21C,0.152400*%

G36*
X386943Y422043D02*
X386943Y422043D01*
X386981Y422042D01*
X389484Y422239D01*
X389489Y422240D01*
X389495Y422240D01*
X389659Y422274D01*
X394421Y423821D01*
X394453Y423837D01*
X394487Y423846D01*
X394633Y423929D01*
X398683Y426872D01*
X398709Y426897D01*
X398739Y426916D01*
X398852Y427040D01*
X400892Y429849D01*
X400898Y429860D01*
X400906Y429868D01*
X400953Y429969D01*
X401003Y430069D01*
X401005Y430081D01*
X401010Y430091D01*
X401022Y430201D01*
X401038Y430312D01*
X401035Y430324D01*
X401037Y430336D01*
X401013Y430444D01*
X400993Y430554D01*
X400987Y430564D01*
X400985Y430576D01*
X400927Y430672D01*
X400873Y430769D01*
X400864Y430777D01*
X400858Y430787D01*
X400774Y430859D01*
X400691Y430935D01*
X400681Y430939D01*
X400671Y430947D01*
X400568Y430989D01*
X400466Y431034D01*
X400454Y431035D01*
X400443Y431039D01*
X400277Y431058D01*
X389233Y431058D01*
X386639Y432555D01*
X385142Y435149D01*
X385142Y439617D01*
X385140Y439629D01*
X385141Y439646D01*
X385087Y441083D01*
X386502Y443763D01*
X389089Y445390D01*
X389140Y445394D01*
X389183Y445412D01*
X389229Y445422D01*
X389252Y445435D01*
X390629Y445435D01*
X390640Y445437D01*
X390657Y445436D01*
X392040Y445488D01*
X392061Y445483D01*
X392133Y445454D01*
X392195Y445447D01*
X392224Y445439D01*
X392251Y445441D01*
X392299Y445435D01*
X397848Y445435D01*
X397928Y445449D01*
X398010Y445453D01*
X398049Y445468D01*
X398082Y445474D01*
X399503Y445436D01*
X399511Y445437D01*
X399523Y445435D01*
X400960Y445435D01*
X401010Y445414D01*
X401055Y445408D01*
X402525Y444506D01*
X402622Y444466D01*
X402718Y444421D01*
X402736Y444420D01*
X402752Y444413D01*
X402858Y444406D01*
X402962Y444394D01*
X402980Y444398D01*
X402998Y444397D01*
X403099Y444424D01*
X403203Y444447D01*
X403218Y444456D01*
X403235Y444461D01*
X403323Y444519D01*
X403414Y444573D01*
X403425Y444586D01*
X403440Y444596D01*
X403505Y444680D01*
X403574Y444760D01*
X403580Y444776D01*
X403591Y444791D01*
X403626Y444890D01*
X403666Y444988D01*
X403668Y445010D01*
X403673Y445023D01*
X403673Y445054D01*
X403684Y445155D01*
X403684Y500237D01*
X403669Y500331D01*
X403660Y500426D01*
X403649Y500452D01*
X403644Y500480D01*
X403600Y500564D01*
X403561Y500652D01*
X403542Y500673D01*
X403529Y500697D01*
X403460Y500763D01*
X403396Y500834D01*
X403371Y500847D01*
X403351Y500867D01*
X403264Y500907D01*
X403181Y500953D01*
X403153Y500959D01*
X403128Y500970D01*
X403033Y500981D01*
X402939Y500998D01*
X402911Y500994D01*
X402883Y500998D01*
X402790Y500977D01*
X402696Y500964D01*
X402663Y500950D01*
X402643Y500945D01*
X402615Y500928D01*
X402542Y500897D01*
X400890Y499942D01*
X389106Y499942D01*
X386512Y501440D01*
X385015Y504034D01*
X385015Y508454D01*
X385012Y508471D01*
X385014Y508501D01*
X384926Y509919D01*
X386304Y512688D01*
X388882Y514396D01*
X388890Y514397D01*
X388956Y514412D01*
X389024Y514417D01*
X389076Y514439D01*
X389130Y514451D01*
X389188Y514487D01*
X389214Y514498D01*
X390504Y514498D01*
X390521Y514501D01*
X390551Y514500D01*
X391838Y514579D01*
X391871Y514558D01*
X391937Y514542D01*
X392000Y514517D01*
X392079Y514508D01*
X392110Y514500D01*
X392131Y514502D01*
X392167Y514498D01*
X397905Y514498D01*
X397968Y514508D01*
X398032Y514509D01*
X398089Y514528D01*
X398148Y514538D01*
X398204Y514568D01*
X398264Y514588D01*
X398268Y514591D01*
X399510Y514500D01*
X399531Y514502D01*
X399566Y514498D01*
X400821Y514498D01*
X400834Y514492D01*
X400883Y514457D01*
X400944Y514438D01*
X401001Y514410D01*
X401086Y514394D01*
X401118Y514384D01*
X401136Y514385D01*
X401166Y514379D01*
X401194Y514377D01*
X402495Y513494D01*
X402592Y513449D01*
X402718Y513391D01*
X402718Y513390D01*
X402839Y513377D01*
X402962Y513363D01*
X402963Y513363D01*
X403082Y513390D01*
X403203Y513416D01*
X403320Y513486D01*
X403414Y513542D01*
X403495Y513637D01*
X403574Y513729D01*
X403616Y513833D01*
X403666Y513957D01*
X403666Y513958D01*
X403666Y513959D01*
X403684Y514124D01*
X403684Y614680D01*
X403681Y614700D01*
X403683Y614719D01*
X403661Y614821D01*
X403644Y614923D01*
X403635Y614940D01*
X403631Y614960D01*
X403578Y615049D01*
X403529Y615140D01*
X403515Y615154D01*
X403505Y615171D01*
X403426Y615238D01*
X403351Y615310D01*
X403333Y615318D01*
X403318Y615331D01*
X403221Y615370D01*
X403128Y615413D01*
X403108Y615415D01*
X403089Y615423D01*
X402923Y615441D01*
X377513Y615441D01*
X377442Y615430D01*
X377371Y615428D01*
X377322Y615410D01*
X377270Y615402D01*
X377207Y615368D01*
X377140Y615343D01*
X377099Y615311D01*
X377053Y615286D01*
X377004Y615235D01*
X376948Y615190D01*
X376919Y615146D01*
X376883Y615108D01*
X376853Y615043D01*
X376815Y614983D01*
X376802Y614932D01*
X376780Y614885D01*
X376772Y614814D01*
X376754Y614744D01*
X376759Y614692D01*
X376753Y614641D01*
X376768Y614570D01*
X376774Y614499D01*
X376794Y614451D01*
X376805Y614400D01*
X376842Y614339D01*
X376870Y614273D01*
X376915Y614217D01*
X376931Y614189D01*
X376949Y614174D01*
X376975Y614142D01*
X379458Y611658D01*
X379458Y608304D01*
X377087Y605932D01*
X373733Y605932D01*
X371361Y608304D01*
X371361Y610559D01*
X371346Y610649D01*
X371339Y610740D01*
X371326Y610770D01*
X371321Y610802D01*
X371278Y610882D01*
X371243Y610966D01*
X371217Y610998D01*
X371206Y611019D01*
X371183Y611041D01*
X371138Y611097D01*
X367017Y615218D01*
X366943Y615271D01*
X366874Y615331D01*
X366843Y615343D01*
X366817Y615362D01*
X366730Y615389D01*
X366645Y615423D01*
X366604Y615427D01*
X366582Y615434D01*
X366550Y615433D01*
X366479Y615441D01*
X362247Y615441D01*
X362177Y615430D01*
X362105Y615428D01*
X362056Y615410D01*
X362004Y615402D01*
X361941Y615368D01*
X361874Y615343D01*
X361833Y615311D01*
X361787Y615286D01*
X361738Y615235D01*
X361682Y615190D01*
X361654Y615146D01*
X361618Y615108D01*
X361588Y615043D01*
X361549Y614983D01*
X361536Y614932D01*
X361514Y614885D01*
X361506Y614814D01*
X361489Y614744D01*
X361493Y614692D01*
X361487Y614641D01*
X361502Y614570D01*
X361508Y614499D01*
X361528Y614451D01*
X361539Y614400D01*
X361576Y614339D01*
X361604Y614273D01*
X361649Y614217D01*
X361665Y614189D01*
X361683Y614174D01*
X361709Y614142D01*
X373358Y602492D01*
X373432Y602439D01*
X373502Y602380D01*
X373532Y602368D01*
X373558Y602349D01*
X373645Y602322D01*
X373730Y602288D01*
X373771Y602283D01*
X373793Y602277D01*
X373825Y602277D01*
X373896Y602270D01*
X376073Y602270D01*
X378445Y599898D01*
X378445Y596544D01*
X376073Y594172D01*
X372719Y594172D01*
X370347Y596544D01*
X370347Y598720D01*
X370332Y598810D01*
X370325Y598901D01*
X370313Y598931D01*
X370307Y598963D01*
X370265Y599044D01*
X370229Y599128D01*
X370203Y599160D01*
X370192Y599180D01*
X370169Y599203D01*
X370124Y599259D01*
X356501Y612881D01*
X356427Y612935D01*
X356358Y612994D01*
X356328Y613006D01*
X356302Y613025D01*
X356215Y613052D01*
X356130Y613086D01*
X356089Y613091D01*
X356067Y613097D01*
X356034Y613097D01*
X355963Y613104D01*
X354477Y613104D01*
X354407Y613093D01*
X354335Y613091D01*
X354286Y613073D01*
X354235Y613065D01*
X354171Y613031D01*
X354104Y613007D01*
X354063Y612974D01*
X354017Y612950D01*
X353968Y612898D01*
X353912Y612853D01*
X353884Y612809D01*
X353848Y612771D01*
X353818Y612706D01*
X353779Y612646D01*
X353766Y612595D01*
X353744Y612548D01*
X353736Y612477D01*
X353719Y612407D01*
X353723Y612355D01*
X353717Y612304D01*
X353733Y612234D01*
X353738Y612162D01*
X353758Y612114D01*
X353770Y612063D01*
X353806Y612002D01*
X353834Y611936D01*
X353879Y611880D01*
X353896Y611852D01*
X353913Y611837D01*
X353939Y611805D01*
X354797Y610947D01*
X354797Y607593D01*
X352898Y605693D01*
X352856Y605635D01*
X352807Y605583D01*
X352785Y605536D01*
X352754Y605494D01*
X352733Y605425D01*
X352703Y605360D01*
X352697Y605308D01*
X352682Y605258D01*
X352684Y605187D01*
X352676Y605116D01*
X352687Y605065D01*
X352688Y605013D01*
X352713Y604945D01*
X352728Y604875D01*
X352755Y604830D01*
X352773Y604782D01*
X352818Y604726D01*
X352854Y604664D01*
X352894Y604630D01*
X352926Y604590D01*
X352987Y604551D01*
X353041Y604504D01*
X353090Y604485D01*
X353133Y604457D01*
X353203Y604439D01*
X353269Y604412D01*
X353341Y604404D01*
X353372Y604396D01*
X353395Y604398D01*
X353436Y604394D01*
X358859Y604394D01*
X374679Y588573D01*
X374753Y588520D01*
X374822Y588461D01*
X374853Y588449D01*
X374879Y588430D01*
X374966Y588403D01*
X375051Y588369D01*
X375092Y588364D01*
X375114Y588357D01*
X375146Y588358D01*
X375217Y588350D01*
X377087Y588350D01*
X379458Y585979D01*
X379458Y582625D01*
X377087Y580253D01*
X373733Y580253D01*
X371361Y582625D01*
X371361Y585108D01*
X371346Y585198D01*
X371339Y585289D01*
X371326Y585319D01*
X371321Y585351D01*
X371278Y585432D01*
X371243Y585516D01*
X371217Y585548D01*
X371206Y585568D01*
X371183Y585591D01*
X371138Y585647D01*
X357187Y599597D01*
X357113Y599650D01*
X357044Y599710D01*
X357014Y599722D01*
X356987Y599741D01*
X356900Y599768D01*
X356816Y599802D01*
X356775Y599806D01*
X356752Y599813D01*
X356720Y599812D01*
X356649Y599820D01*
X351173Y599820D01*
X351102Y599809D01*
X351030Y599807D01*
X350981Y599789D01*
X350930Y599781D01*
X350867Y599747D01*
X350799Y599722D01*
X350759Y599690D01*
X350713Y599665D01*
X350663Y599613D01*
X350607Y599569D01*
X350579Y599525D01*
X350543Y599487D01*
X350513Y599422D01*
X350474Y599362D01*
X350462Y599311D01*
X350440Y599264D01*
X350432Y599193D01*
X350414Y599123D01*
X350418Y599071D01*
X350413Y599020D01*
X350428Y598949D01*
X350433Y598878D01*
X350454Y598830D01*
X350465Y598779D01*
X350502Y598718D01*
X350530Y598652D01*
X350574Y598596D01*
X350591Y598568D01*
X350609Y598553D01*
X350635Y598521D01*
X374222Y574933D01*
X374296Y574880D01*
X374365Y574821D01*
X374395Y574809D01*
X374422Y574790D01*
X374509Y574763D01*
X374593Y574729D01*
X374634Y574724D01*
X374657Y574718D01*
X374689Y574718D01*
X374760Y574711D01*
X376937Y574711D01*
X379308Y572339D01*
X379308Y568985D01*
X376937Y566613D01*
X373583Y566613D01*
X371211Y568985D01*
X371211Y571161D01*
X371196Y571251D01*
X371189Y571342D01*
X371176Y571372D01*
X371171Y571404D01*
X371128Y571485D01*
X371093Y571569D01*
X371067Y571601D01*
X371056Y571621D01*
X371033Y571644D01*
X370988Y571700D01*
X346138Y596549D01*
X346064Y596602D01*
X345995Y596662D01*
X345965Y596674D01*
X345938Y596693D01*
X345851Y596720D01*
X345767Y596754D01*
X345726Y596758D01*
X345703Y596765D01*
X345671Y596764D01*
X345600Y596772D01*
X341844Y596772D01*
X341773Y596761D01*
X341701Y596759D01*
X341652Y596741D01*
X341601Y596733D01*
X341538Y596699D01*
X341470Y596674D01*
X341430Y596642D01*
X341384Y596617D01*
X341334Y596565D01*
X341278Y596521D01*
X341250Y596477D01*
X341214Y596439D01*
X341184Y596374D01*
X341145Y596314D01*
X341133Y596263D01*
X341111Y596216D01*
X341103Y596145D01*
X341085Y596075D01*
X341089Y596023D01*
X341084Y595972D01*
X341099Y595901D01*
X341104Y595830D01*
X341125Y595782D01*
X341136Y595731D01*
X341173Y595670D01*
X341201Y595604D01*
X341245Y595548D01*
X341262Y595520D01*
X341280Y595505D01*
X341305Y595473D01*
X373697Y563081D01*
X373771Y563028D01*
X373841Y562968D01*
X373871Y562956D01*
X373897Y562937D01*
X373984Y562910D01*
X374069Y562876D01*
X374110Y562872D01*
X374132Y562865D01*
X374164Y562866D01*
X374236Y562858D01*
X376412Y562858D01*
X378784Y560486D01*
X378784Y557132D01*
X376412Y554760D01*
X373058Y554760D01*
X370687Y557132D01*
X370687Y559309D01*
X370672Y559399D01*
X370665Y559490D01*
X370652Y559519D01*
X370647Y559551D01*
X370604Y559632D01*
X370568Y559716D01*
X370543Y559748D01*
X370532Y559769D01*
X370508Y559791D01*
X370464Y559847D01*
X337850Y592460D01*
X337777Y592513D01*
X337707Y592572D01*
X337677Y592585D01*
X337651Y592603D01*
X337564Y592630D01*
X337479Y592664D01*
X337438Y592669D01*
X337416Y592676D01*
X337383Y592675D01*
X337312Y592683D01*
X334333Y592683D01*
X334262Y592671D01*
X334190Y592669D01*
X334141Y592652D01*
X334090Y592643D01*
X334027Y592610D01*
X333959Y592585D01*
X333919Y592552D01*
X333873Y592528D01*
X333823Y592476D01*
X333767Y592431D01*
X333739Y592387D01*
X333703Y592350D01*
X333673Y592285D01*
X333634Y592224D01*
X333621Y592174D01*
X333600Y592127D01*
X333592Y592055D01*
X333574Y591986D01*
X333578Y591934D01*
X333572Y591882D01*
X333588Y591812D01*
X333593Y591741D01*
X333614Y591693D01*
X333625Y591642D01*
X333662Y591580D01*
X333690Y591514D01*
X333734Y591458D01*
X333751Y591431D01*
X333769Y591415D01*
X333794Y591383D01*
X373815Y551362D01*
X373889Y551309D01*
X373959Y551250D01*
X373989Y551238D01*
X374015Y551219D01*
X374102Y551192D01*
X374187Y551158D01*
X374228Y551153D01*
X374250Y551146D01*
X374282Y551147D01*
X374354Y551139D01*
X376530Y551139D01*
X378902Y548768D01*
X378902Y545414D01*
X376530Y543042D01*
X373433Y543042D01*
X373362Y543030D01*
X373290Y543028D01*
X373241Y543011D01*
X373190Y543002D01*
X373127Y542969D01*
X373059Y542944D01*
X373019Y542911D01*
X372972Y542887D01*
X372923Y542835D01*
X372867Y542790D01*
X372839Y542746D01*
X372803Y542709D01*
X372773Y542644D01*
X372734Y542583D01*
X372721Y542533D01*
X372699Y542486D01*
X372692Y542414D01*
X372674Y542345D01*
X372678Y542293D01*
X372672Y542241D01*
X372688Y542171D01*
X372693Y542100D01*
X372714Y542052D01*
X372725Y542001D01*
X372761Y541939D01*
X372790Y541873D01*
X372834Y541817D01*
X372851Y541790D01*
X372869Y541774D01*
X372894Y541742D01*
X373866Y540770D01*
X373940Y540717D01*
X374010Y540658D01*
X374040Y540646D01*
X374066Y540627D01*
X374153Y540600D01*
X374238Y540566D01*
X374279Y540561D01*
X374301Y540555D01*
X374333Y540555D01*
X374405Y540548D01*
X376581Y540548D01*
X378953Y538176D01*
X378953Y534822D01*
X377742Y533611D01*
X377730Y533595D01*
X377715Y533582D01*
X377659Y533495D01*
X377598Y533411D01*
X377593Y533392D01*
X377582Y533375D01*
X377557Y533275D01*
X377526Y533176D01*
X377527Y533156D01*
X377522Y533137D01*
X377530Y533034D01*
X377532Y532930D01*
X377539Y532912D01*
X377541Y532892D01*
X377581Y532797D01*
X377617Y532699D01*
X377629Y532684D01*
X377637Y532665D01*
X377742Y532534D01*
X378527Y531750D01*
X378527Y527987D01*
X377697Y527157D01*
X377685Y527140D01*
X377669Y527128D01*
X377613Y527041D01*
X377553Y526957D01*
X377547Y526938D01*
X377536Y526921D01*
X377511Y526821D01*
X377481Y526722D01*
X377481Y526702D01*
X377476Y526682D01*
X377484Y526579D01*
X377487Y526476D01*
X377494Y526457D01*
X377495Y526437D01*
X377536Y526342D01*
X377571Y526245D01*
X377584Y526229D01*
X377592Y526211D01*
X377697Y526080D01*
X378527Y525250D01*
X378527Y521487D01*
X377762Y520722D01*
X377708Y520648D01*
X377649Y520578D01*
X377637Y520548D01*
X377618Y520522D01*
X377591Y520435D01*
X377557Y520350D01*
X377553Y520309D01*
X377546Y520287D01*
X377547Y520255D01*
X377539Y520183D01*
X377539Y517616D01*
X375976Y516054D01*
X367465Y507543D01*
X367423Y507484D01*
X367374Y507432D01*
X367352Y507385D01*
X367321Y507343D01*
X367300Y507274D01*
X367270Y507209D01*
X367264Y507158D01*
X367249Y507108D01*
X367251Y507036D01*
X367243Y506965D01*
X367254Y506914D01*
X367255Y506862D01*
X367280Y506795D01*
X367295Y506725D01*
X367322Y506680D01*
X367340Y506631D01*
X367385Y506575D01*
X367421Y506513D01*
X367461Y506480D01*
X367494Y506439D01*
X367554Y506400D01*
X367608Y506353D01*
X367657Y506334D01*
X367700Y506306D01*
X367770Y506288D01*
X367836Y506262D01*
X367908Y506254D01*
X367939Y506246D01*
X367962Y506248D01*
X368003Y506243D01*
X369444Y506243D01*
X372038Y504746D01*
X373536Y502152D01*
X373536Y498971D01*
X373536Y493010D01*
X372038Y490416D01*
X369444Y488919D01*
X364689Y488919D01*
X364666Y488915D01*
X364625Y488916D01*
X363230Y488798D01*
X360386Y490135D01*
X358591Y492714D01*
X358584Y492799D01*
X358569Y492857D01*
X358564Y492916D01*
X358539Y492976D01*
X358524Y493038D01*
X358491Y493088D01*
X358468Y493143D01*
X358447Y493170D01*
X358447Y494387D01*
X358445Y494395D01*
X358446Y494398D01*
X358443Y494410D01*
X358444Y494451D01*
X358341Y495662D01*
X358360Y495709D01*
X358393Y495764D01*
X358406Y495822D01*
X358428Y495877D01*
X358439Y495973D01*
X358446Y496005D01*
X358444Y496020D01*
X358447Y496044D01*
X358447Y499134D01*
X358435Y499205D01*
X358433Y499277D01*
X358415Y499326D01*
X358407Y499377D01*
X358373Y499440D01*
X358349Y499508D01*
X358316Y499549D01*
X358292Y499594D01*
X358240Y499644D01*
X358195Y499700D01*
X358151Y499728D01*
X358113Y499764D01*
X358048Y499794D01*
X357988Y499833D01*
X357938Y499846D01*
X357890Y499867D01*
X357819Y499875D01*
X357750Y499893D01*
X357698Y499889D01*
X357646Y499895D01*
X357576Y499879D01*
X357504Y499874D01*
X357457Y499853D01*
X357406Y499842D01*
X357344Y499805D01*
X357278Y499777D01*
X357222Y499733D01*
X357194Y499716D01*
X357179Y499698D01*
X357147Y499673D01*
X352808Y495333D01*
X352754Y495259D01*
X352695Y495190D01*
X352683Y495160D01*
X352664Y495133D01*
X352637Y495046D01*
X352603Y494962D01*
X352599Y494921D01*
X352592Y494898D01*
X352593Y494866D01*
X352585Y494795D01*
X352585Y490356D01*
X352588Y490337D01*
X352586Y490317D01*
X352608Y490216D01*
X352624Y490114D01*
X352634Y490096D01*
X352638Y490077D01*
X352691Y489988D01*
X352739Y489896D01*
X352754Y489883D01*
X352764Y489865D01*
X352843Y489798D01*
X352918Y489727D01*
X352936Y489719D01*
X352951Y489706D01*
X353047Y489667D01*
X353141Y489623D01*
X353161Y489621D01*
X353179Y489614D01*
X353346Y489595D01*
X354178Y489595D01*
X356550Y487223D01*
X356550Y483869D01*
X355011Y482330D01*
X354958Y482256D01*
X354898Y482187D01*
X354886Y482157D01*
X354867Y482131D01*
X354841Y482044D01*
X354806Y481959D01*
X354802Y481918D01*
X354795Y481896D01*
X354796Y481863D01*
X354788Y481792D01*
X354788Y481666D01*
X299520Y426398D01*
X294204Y426398D01*
X294114Y426383D01*
X294023Y426376D01*
X293993Y426363D01*
X293961Y426358D01*
X293881Y426315D01*
X293797Y426280D01*
X293765Y426254D01*
X293744Y426243D01*
X293722Y426219D01*
X293666Y426175D01*
X292127Y424636D01*
X288773Y424636D01*
X286401Y427007D01*
X286401Y430361D01*
X287099Y431060D01*
X287141Y431118D01*
X287191Y431170D01*
X287213Y431217D01*
X287243Y431259D01*
X287264Y431328D01*
X287294Y431393D01*
X287300Y431445D01*
X287315Y431495D01*
X287313Y431566D01*
X287321Y431637D01*
X287310Y431688D01*
X287309Y431740D01*
X287284Y431808D01*
X287269Y431878D01*
X287242Y431922D01*
X287224Y431971D01*
X287180Y432027D01*
X287143Y432089D01*
X287103Y432123D01*
X287071Y432163D01*
X287010Y432202D01*
X286956Y432249D01*
X286908Y432268D01*
X286864Y432296D01*
X286794Y432314D01*
X286728Y432341D01*
X286657Y432349D01*
X286625Y432357D01*
X286602Y432355D01*
X286561Y432359D01*
X275953Y432360D01*
X275863Y432345D01*
X275772Y432338D01*
X275742Y432326D01*
X275710Y432320D01*
X275629Y432278D01*
X275545Y432242D01*
X275514Y432216D01*
X275493Y432205D01*
X275470Y432182D01*
X275415Y432137D01*
X274093Y430816D01*
X274040Y430742D01*
X273981Y430673D01*
X273969Y430642D01*
X273950Y430616D01*
X273923Y430529D01*
X273889Y430444D01*
X273884Y430403D01*
X273877Y430381D01*
X273878Y430349D01*
X273870Y430278D01*
X273870Y428101D01*
X271499Y425729D01*
X268145Y425729D01*
X265773Y428101D01*
X265773Y431455D01*
X268145Y433827D01*
X270321Y433827D01*
X270411Y433842D01*
X270502Y433849D01*
X270532Y433861D01*
X270564Y433867D01*
X270645Y433909D01*
X270728Y433945D01*
X270761Y433971D01*
X270781Y433982D01*
X270803Y434005D01*
X270859Y434050D01*
X271127Y434317D01*
X271169Y434376D01*
X271218Y434428D01*
X271240Y434475D01*
X271271Y434517D01*
X271292Y434586D01*
X271322Y434651D01*
X271328Y434702D01*
X271343Y434752D01*
X271341Y434824D01*
X271349Y434895D01*
X271338Y434946D01*
X271337Y434998D01*
X271312Y435065D01*
X271297Y435135D01*
X271270Y435180D01*
X271252Y435229D01*
X271207Y435285D01*
X271170Y435347D01*
X271131Y435380D01*
X271098Y435421D01*
X271038Y435460D01*
X270984Y435506D01*
X270935Y435526D01*
X270891Y435554D01*
X270822Y435572D01*
X270755Y435598D01*
X270684Y435606D01*
X270653Y435614D01*
X270630Y435612D01*
X270589Y435617D01*
X255271Y435617D01*
X247140Y443748D01*
X247140Y452558D01*
X247128Y452629D01*
X247127Y452701D01*
X247109Y452749D01*
X247100Y452801D01*
X247067Y452864D01*
X247042Y452932D01*
X247010Y452972D01*
X246985Y453018D01*
X246933Y453068D01*
X246888Y453124D01*
X246845Y453152D01*
X246807Y453188D01*
X246742Y453218D01*
X246681Y453257D01*
X246631Y453269D01*
X246584Y453291D01*
X246513Y453299D01*
X246443Y453317D01*
X246391Y453313D01*
X246339Y453318D01*
X246269Y453303D01*
X246198Y453298D01*
X246150Y453277D01*
X246099Y453266D01*
X246037Y453229D01*
X245971Y453201D01*
X245915Y453156D01*
X245888Y453140D01*
X245873Y453122D01*
X245840Y453096D01*
X245737Y452993D01*
X245158Y452658D01*
X244511Y452485D01*
X243688Y452485D01*
X243688Y456775D01*
X243685Y456795D01*
X243687Y456815D01*
X243665Y456916D01*
X243648Y457018D01*
X243639Y457036D01*
X243635Y457055D01*
X243582Y457144D01*
X243533Y457236D01*
X243519Y457249D01*
X243509Y457266D01*
X243508Y457267D01*
X243430Y457334D01*
X243355Y457405D01*
X243336Y457414D01*
X243321Y457427D01*
X243225Y457466D01*
X243131Y457509D01*
X243112Y457511D01*
X243093Y457519D01*
X242926Y457537D01*
X239136Y457537D01*
X239136Y458860D01*
X239309Y459507D01*
X239644Y460086D01*
X240117Y460559D01*
X240556Y460813D01*
X240650Y460889D01*
X240741Y460962D01*
X240743Y460966D01*
X240746Y460968D01*
X240811Y461070D01*
X240874Y461169D01*
X240875Y461173D01*
X240877Y461177D01*
X240905Y461294D01*
X240934Y461408D01*
X240934Y461412D01*
X240935Y461416D01*
X240924Y461534D01*
X240915Y461653D01*
X240913Y461657D01*
X240913Y461661D01*
X240865Y461769D01*
X240818Y461879D01*
X240815Y461883D01*
X240814Y461886D01*
X240805Y461896D01*
X240714Y462010D01*
X240605Y462119D01*
X240531Y462172D01*
X240462Y462231D01*
X240431Y462244D01*
X240405Y462262D01*
X240318Y462289D01*
X240233Y462323D01*
X240192Y462328D01*
X240170Y462335D01*
X240138Y462334D01*
X240067Y462342D01*
X236819Y462342D01*
X236598Y462562D01*
X236582Y462574D01*
X236570Y462590D01*
X236483Y462645D01*
X236399Y462706D01*
X236380Y462712D01*
X236363Y462723D01*
X236262Y462748D01*
X236164Y462778D01*
X236144Y462778D01*
X236124Y462783D01*
X236021Y462775D01*
X235918Y462772D01*
X235899Y462765D01*
X235879Y462763D01*
X235784Y462723D01*
X235687Y462687D01*
X235671Y462675D01*
X235653Y462667D01*
X235522Y462562D01*
X235301Y462342D01*
X232053Y462342D01*
X231963Y462327D01*
X231872Y462320D01*
X231843Y462307D01*
X231811Y462302D01*
X231730Y462259D01*
X231646Y462224D01*
X231614Y462198D01*
X231593Y462187D01*
X231571Y462164D01*
X231515Y462119D01*
X231295Y461898D01*
X230641Y461521D01*
X229912Y461326D01*
X229321Y461326D01*
X229321Y471066D01*
X229321Y471067D01*
X229321Y480807D01*
X229912Y480807D01*
X230641Y480612D01*
X231295Y480235D01*
X231515Y480014D01*
X231589Y479961D01*
X231658Y479902D01*
X231689Y479890D01*
X231715Y479871D01*
X231802Y479844D01*
X231887Y479810D01*
X231928Y479805D01*
X231950Y479798D01*
X231982Y479799D01*
X232053Y479791D01*
X235512Y479791D01*
X235532Y479794D01*
X235551Y479792D01*
X235653Y479814D01*
X235755Y479831D01*
X235772Y479840D01*
X235792Y479845D01*
X235881Y479898D01*
X235972Y479946D01*
X235986Y479961D01*
X236003Y479971D01*
X236070Y480049D01*
X236142Y480124D01*
X236150Y480142D01*
X236163Y480158D01*
X236202Y480254D01*
X236245Y480348D01*
X236247Y480367D01*
X236255Y480386D01*
X236273Y480553D01*
X236273Y481530D01*
X237613Y482870D01*
X248148Y482870D01*
X248185Y482843D01*
X248254Y482821D01*
X248319Y482791D01*
X248371Y482785D01*
X248420Y482770D01*
X248492Y482772D01*
X248563Y482764D01*
X248614Y482775D01*
X248666Y482776D01*
X248734Y482801D01*
X248804Y482816D01*
X248849Y482843D01*
X248897Y482861D01*
X248953Y482906D01*
X249015Y482943D01*
X249049Y482982D01*
X249089Y483015D01*
X249128Y483075D01*
X249175Y483129D01*
X249194Y483178D01*
X249222Y483221D01*
X249240Y483291D01*
X249267Y483358D01*
X249275Y483429D01*
X249283Y483460D01*
X249281Y483483D01*
X249285Y483524D01*
X249285Y487258D01*
X249506Y487478D01*
X249517Y487494D01*
X249533Y487507D01*
X249589Y487594D01*
X249649Y487678D01*
X249655Y487697D01*
X249666Y487714D01*
X249691Y487814D01*
X249722Y487913D01*
X249721Y487933D01*
X249726Y487952D01*
X249718Y488055D01*
X249715Y488159D01*
X249708Y488178D01*
X249707Y488198D01*
X249667Y488293D01*
X249631Y488390D01*
X249618Y488406D01*
X249611Y488424D01*
X249506Y488555D01*
X249285Y488775D01*
X249285Y492258D01*
X249506Y492478D01*
X249517Y492494D01*
X249533Y492507D01*
X249589Y492594D01*
X249649Y492678D01*
X249655Y492697D01*
X249666Y492714D01*
X249691Y492814D01*
X249722Y492913D01*
X249721Y492933D01*
X249726Y492952D01*
X249718Y493055D01*
X249715Y493159D01*
X249708Y493178D01*
X249707Y493198D01*
X249667Y493293D01*
X249631Y493390D01*
X249618Y493406D01*
X249611Y493424D01*
X249506Y493555D01*
X249285Y493775D01*
X249285Y497256D01*
X249282Y497275D01*
X249284Y497295D01*
X249262Y497397D01*
X249246Y497499D01*
X249236Y497516D01*
X249232Y497536D01*
X249179Y497625D01*
X249130Y497716D01*
X249116Y497730D01*
X249106Y497747D01*
X249027Y497814D01*
X248952Y497885D01*
X248934Y497894D01*
X248919Y497907D01*
X248823Y497945D01*
X248729Y497989D01*
X248709Y497991D01*
X248691Y497999D01*
X248524Y498017D01*
X236289Y498017D01*
X236199Y498002D01*
X236108Y497995D01*
X236078Y497983D01*
X236046Y497977D01*
X235965Y497935D01*
X235881Y497899D01*
X235849Y497873D01*
X235829Y497862D01*
X235806Y497839D01*
X235750Y497794D01*
X226997Y489040D01*
X226944Y488966D01*
X226884Y488897D01*
X226872Y488867D01*
X226853Y488841D01*
X226826Y488754D01*
X226792Y488669D01*
X226788Y488628D01*
X226781Y488606D01*
X226782Y488573D01*
X226774Y488502D01*
X226774Y486847D01*
X224402Y484475D01*
X221048Y484475D01*
X218676Y486847D01*
X218676Y490201D01*
X221048Y492573D01*
X223746Y492573D01*
X223836Y492588D01*
X223927Y492595D01*
X223957Y492607D01*
X223989Y492613D01*
X224069Y492655D01*
X224153Y492691D01*
X224185Y492717D01*
X224206Y492728D01*
X224228Y492751D01*
X224284Y492796D01*
X233306Y501818D01*
X233348Y501876D01*
X233398Y501928D01*
X233419Y501975D01*
X233450Y502018D01*
X233471Y502086D01*
X233501Y502151D01*
X233507Y502203D01*
X233522Y502253D01*
X233520Y502324D01*
X233528Y502396D01*
X233517Y502446D01*
X233516Y502499D01*
X233491Y502566D01*
X233476Y502636D01*
X233449Y502681D01*
X233431Y502730D01*
X233387Y502786D01*
X233350Y502847D01*
X233310Y502881D01*
X233278Y502922D01*
X233217Y502960D01*
X233163Y503007D01*
X233115Y503026D01*
X233071Y503055D01*
X233001Y503072D01*
X232935Y503099D01*
X232863Y503107D01*
X232832Y503115D01*
X232809Y503113D01*
X232768Y503117D01*
X228389Y503117D01*
X228299Y503103D01*
X228208Y503096D01*
X228178Y503083D01*
X228146Y503078D01*
X228066Y503035D01*
X227982Y502999D01*
X227949Y502973D01*
X227929Y502963D01*
X227907Y502939D01*
X227851Y502894D01*
X227062Y502106D01*
X227009Y502032D01*
X226950Y501963D01*
X226938Y501932D01*
X226919Y501906D01*
X226892Y501819D01*
X226858Y501734D01*
X226853Y501693D01*
X226846Y501671D01*
X226847Y501639D01*
X226839Y501568D01*
X226839Y499391D01*
X224468Y497019D01*
X221113Y497019D01*
X218742Y499391D01*
X218742Y501697D01*
X218739Y501717D01*
X218741Y501737D01*
X218719Y501838D01*
X218702Y501940D01*
X218693Y501958D01*
X218689Y501977D01*
X218635Y502066D01*
X218587Y502157D01*
X218573Y502171D01*
X218562Y502188D01*
X218484Y502256D01*
X218409Y502327D01*
X218391Y502335D01*
X218375Y502348D01*
X218279Y502387D01*
X218186Y502430D01*
X218166Y502433D01*
X218147Y502440D01*
X217981Y502459D01*
X216501Y502459D01*
X214130Y504830D01*
X214130Y508184D01*
X216501Y510556D01*
X218678Y510556D01*
X218768Y510571D01*
X218859Y510578D01*
X218889Y510590D01*
X218921Y510596D01*
X219001Y510638D01*
X219085Y510674D01*
X219117Y510700D01*
X219138Y510711D01*
X219160Y510734D01*
X219216Y510779D01*
X221040Y512603D01*
X221192Y512603D01*
X221211Y512606D01*
X221231Y512604D01*
X221332Y512626D01*
X221434Y512643D01*
X221452Y512652D01*
X221471Y512656D01*
X221560Y512710D01*
X221652Y512758D01*
X221665Y512772D01*
X221683Y512783D01*
X221750Y512861D01*
X221821Y512936D01*
X221829Y512954D01*
X221842Y512970D01*
X221881Y513066D01*
X221925Y513159D01*
X221927Y513179D01*
X221934Y513198D01*
X221953Y513364D01*
X221953Y516870D01*
X224325Y519242D01*
X227679Y519242D01*
X228969Y517952D01*
X229043Y517899D01*
X229112Y517839D01*
X229142Y517827D01*
X229168Y517808D01*
X229255Y517782D01*
X229340Y517747D01*
X229381Y517743D01*
X229404Y517736D01*
X229436Y517737D01*
X229507Y517729D01*
X248524Y517729D01*
X248544Y517732D01*
X248563Y517730D01*
X248665Y517752D01*
X248767Y517769D01*
X248784Y517778D01*
X248804Y517782D01*
X248893Y517835D01*
X248984Y517884D01*
X248998Y517898D01*
X249015Y517908D01*
X249082Y517987D01*
X249154Y518062D01*
X249162Y518080D01*
X249175Y518095D01*
X249214Y518192D01*
X249257Y518285D01*
X249259Y518305D01*
X249267Y518323D01*
X249285Y518490D01*
X249285Y522258D01*
X250369Y523341D01*
X260336Y523341D01*
X260426Y523356D01*
X260517Y523363D01*
X260547Y523376D01*
X260579Y523381D01*
X260659Y523424D01*
X260743Y523459D01*
X260775Y523485D01*
X260796Y523496D01*
X260818Y523519D01*
X260874Y523564D01*
X266176Y528866D01*
X266222Y528930D01*
X266239Y528948D01*
X266242Y528955D01*
X266288Y529009D01*
X266300Y529039D01*
X266319Y529065D01*
X266346Y529152D01*
X266380Y529237D01*
X266385Y529278D01*
X266392Y529300D01*
X266391Y529333D01*
X266399Y529404D01*
X266399Y532051D01*
X266387Y532122D01*
X266385Y532193D01*
X266367Y532242D01*
X266359Y532294D01*
X266325Y532357D01*
X266301Y532424D01*
X266268Y532465D01*
X266244Y532511D01*
X266192Y532560D01*
X266147Y532616D01*
X266103Y532645D01*
X266065Y532680D01*
X266000Y532711D01*
X265940Y532749D01*
X265890Y532762D01*
X265842Y532784D01*
X265771Y532792D01*
X265702Y532810D01*
X265650Y532805D01*
X265598Y532811D01*
X265528Y532796D01*
X265456Y532790D01*
X265409Y532770D01*
X265358Y532759D01*
X265296Y532722D01*
X265230Y532694D01*
X265174Y532649D01*
X265146Y532633D01*
X265131Y532615D01*
X265099Y532589D01*
X264622Y532112D01*
X263059Y530549D01*
X262528Y530549D01*
X262438Y530535D01*
X262347Y530527D01*
X262317Y530515D01*
X262285Y530510D01*
X262204Y530467D01*
X262121Y530431D01*
X262088Y530405D01*
X262068Y530395D01*
X262046Y530371D01*
X261990Y530326D01*
X260745Y529082D01*
X257391Y529082D01*
X255019Y531454D01*
X255019Y534808D01*
X257391Y537179D01*
X260745Y537179D01*
X261445Y536480D01*
X261461Y536468D01*
X261474Y536452D01*
X261561Y536396D01*
X261645Y536336D01*
X261664Y536330D01*
X261681Y536319D01*
X261781Y536294D01*
X261880Y536264D01*
X261900Y536264D01*
X261919Y536259D01*
X262022Y536267D01*
X262126Y536270D01*
X262145Y536277D01*
X262164Y536278D01*
X262259Y536319D01*
X262357Y536355D01*
X262372Y536367D01*
X262391Y536375D01*
X262522Y536480D01*
X264438Y538396D01*
X264491Y538470D01*
X264550Y538539D01*
X264562Y538569D01*
X264581Y538595D01*
X264608Y538682D01*
X264642Y538767D01*
X264647Y538808D01*
X264654Y538830D01*
X264653Y538863D01*
X264661Y538934D01*
X264661Y544169D01*
X265554Y545062D01*
X271817Y545062D01*
X272710Y544169D01*
X272710Y536906D01*
X271817Y536012D01*
X271733Y536012D01*
X271714Y536009D01*
X271694Y536011D01*
X271593Y535989D01*
X271491Y535973D01*
X271473Y535963D01*
X271454Y535959D01*
X271364Y535906D01*
X271273Y535858D01*
X271260Y535843D01*
X271242Y535833D01*
X271175Y535754D01*
X271104Y535679D01*
X271095Y535661D01*
X271082Y535646D01*
X271044Y535550D01*
X271000Y535456D01*
X270998Y535436D01*
X270991Y535418D01*
X270972Y535251D01*
X270972Y530314D01*
X270984Y530243D01*
X270986Y530171D01*
X271003Y530122D01*
X271012Y530071D01*
X271045Y530008D01*
X271070Y529940D01*
X271103Y529900D01*
X271127Y529854D01*
X271179Y529804D01*
X271224Y529748D01*
X271268Y529720D01*
X271305Y529684D01*
X271370Y529654D01*
X271431Y529615D01*
X271481Y529603D01*
X271528Y529581D01*
X271600Y529573D01*
X271669Y529555D01*
X271721Y529559D01*
X271773Y529554D01*
X271843Y529569D01*
X271914Y529574D01*
X271962Y529595D01*
X272013Y529606D01*
X272075Y529643D01*
X272141Y529671D01*
X272197Y529715D01*
X272224Y529732D01*
X272239Y529750D01*
X272272Y529776D01*
X277209Y534713D01*
X277251Y534771D01*
X277300Y534823D01*
X277322Y534870D01*
X277353Y534913D01*
X277374Y534981D01*
X277404Y535046D01*
X277410Y535098D01*
X277425Y535148D01*
X277423Y535220D01*
X277431Y535291D01*
X277420Y535342D01*
X277419Y535394D01*
X277394Y535461D01*
X277379Y535531D01*
X277352Y535576D01*
X277334Y535625D01*
X277289Y535681D01*
X277253Y535742D01*
X277213Y535776D01*
X277180Y535817D01*
X277120Y535855D01*
X277066Y535902D01*
X277017Y535922D01*
X276973Y535950D01*
X276904Y535967D01*
X276837Y535994D01*
X276766Y536002D01*
X276735Y536010D01*
X276712Y536008D01*
X276671Y536012D01*
X276554Y536012D01*
X275661Y536906D01*
X275661Y544169D01*
X276554Y545062D01*
X282817Y545062D01*
X283710Y544169D01*
X283710Y543727D01*
X283714Y543700D01*
X283712Y543674D01*
X283734Y543579D01*
X283750Y543484D01*
X283762Y543460D01*
X283769Y543434D01*
X283820Y543352D01*
X283865Y543267D01*
X283884Y543248D01*
X283899Y543225D01*
X283973Y543164D01*
X284043Y543097D01*
X284068Y543086D01*
X284088Y543069D01*
X284179Y543034D01*
X284266Y542994D01*
X284293Y542991D01*
X284318Y542981D01*
X284485Y542966D01*
X285254Y542980D01*
X285921Y542313D01*
X285925Y542309D01*
X285931Y542303D01*
X286705Y541557D01*
X286706Y541554D01*
X286738Y541514D01*
X286751Y541490D01*
X286773Y541470D01*
X286811Y541423D01*
X292268Y535966D01*
X292326Y535924D01*
X292378Y535875D01*
X292425Y535853D01*
X292467Y535822D01*
X292536Y535801D01*
X292601Y535771D01*
X292653Y535765D01*
X292702Y535750D01*
X292774Y535752D01*
X292845Y535744D01*
X292896Y535755D01*
X292948Y535756D01*
X293016Y535781D01*
X293086Y535796D01*
X293130Y535823D01*
X293179Y535841D01*
X293235Y535886D01*
X293297Y535922D01*
X293331Y535962D01*
X293371Y535995D01*
X293410Y536055D01*
X293457Y536109D01*
X293476Y536158D01*
X293504Y536201D01*
X293522Y536271D01*
X293549Y536338D01*
X293557Y536409D01*
X293564Y536440D01*
X293563Y536463D01*
X293567Y536504D01*
X293567Y536655D01*
X297859Y536655D01*
X297859Y532864D01*
X297208Y532864D01*
X297137Y532852D01*
X297065Y532850D01*
X297017Y532832D01*
X296965Y532824D01*
X296902Y532790D01*
X296834Y532766D01*
X296794Y532733D01*
X296748Y532709D01*
X296698Y532657D01*
X296642Y532612D01*
X296614Y532568D01*
X296578Y532530D01*
X296548Y532465D01*
X296509Y532405D01*
X296497Y532355D01*
X296475Y532307D01*
X296467Y532236D01*
X296449Y532166D01*
X296453Y532115D01*
X296448Y532063D01*
X296463Y531993D01*
X296468Y531921D01*
X296489Y531873D01*
X296500Y531822D01*
X296537Y531761D01*
X296565Y531695D01*
X296610Y531639D01*
X296626Y531611D01*
X296644Y531596D01*
X296670Y531564D01*
X297082Y531152D01*
X297156Y531099D01*
X297225Y531039D01*
X297255Y531027D01*
X297281Y531008D01*
X297368Y530982D01*
X297453Y530947D01*
X297494Y530943D01*
X297516Y530936D01*
X297549Y530937D01*
X297620Y530929D01*
X302739Y530929D01*
X303633Y530036D01*
X303633Y529952D01*
X303636Y529933D01*
X303634Y529913D01*
X303656Y529812D01*
X303672Y529709D01*
X303682Y529692D01*
X303686Y529672D01*
X303739Y529583D01*
X303787Y529492D01*
X303802Y529478D01*
X303812Y529461D01*
X303891Y529394D01*
X303966Y529323D01*
X303984Y529314D01*
X303999Y529301D01*
X304095Y529263D01*
X304189Y529219D01*
X304209Y529217D01*
X304227Y529209D01*
X304394Y529191D01*
X306444Y529191D01*
X306464Y529194D01*
X306484Y529192D01*
X306585Y529214D01*
X306687Y529231D01*
X306705Y529240D01*
X306724Y529244D01*
X306813Y529298D01*
X306904Y529346D01*
X306918Y529360D01*
X306935Y529370D01*
X307003Y529449D01*
X307074Y529524D01*
X307082Y529542D01*
X307095Y529557D01*
X307134Y529653D01*
X307177Y529747D01*
X307180Y529767D01*
X307187Y529786D01*
X307206Y529952D01*
X307206Y531191D01*
X310996Y531191D01*
X311016Y531194D01*
X311035Y531192D01*
X311137Y531214D01*
X311239Y531231D01*
X311256Y531240D01*
X311276Y531244D01*
X311365Y531297D01*
X311456Y531346D01*
X311470Y531360D01*
X311487Y531370D01*
X311487Y531371D01*
X311555Y531449D01*
X311625Y531524D01*
X311626Y531524D01*
X311634Y531542D01*
X311647Y531558D01*
X311686Y531654D01*
X311730Y531748D01*
X311732Y531767D01*
X311739Y531786D01*
X311758Y531953D01*
X311758Y536243D01*
X312581Y536243D01*
X313227Y536070D01*
X313806Y535735D01*
X313910Y535632D01*
X313968Y535590D01*
X314020Y535540D01*
X314068Y535518D01*
X314110Y535488D01*
X314178Y535467D01*
X314243Y535437D01*
X314295Y535431D01*
X314345Y535416D01*
X314417Y535418D01*
X314488Y535410D01*
X314539Y535421D01*
X314591Y535422D01*
X314658Y535447D01*
X314728Y535462D01*
X314773Y535489D01*
X314822Y535506D01*
X314878Y535551D01*
X314939Y535588D01*
X314973Y535628D01*
X315014Y535660D01*
X315052Y535720D01*
X315099Y535775D01*
X315119Y535823D01*
X315147Y535867D01*
X315164Y535937D01*
X315191Y536003D01*
X315199Y536074D01*
X315207Y536106D01*
X315205Y536129D01*
X315210Y536170D01*
X315210Y539834D01*
X315195Y539924D01*
X315188Y540015D01*
X315175Y540044D01*
X315170Y540076D01*
X315127Y540157D01*
X315091Y540241D01*
X315066Y540273D01*
X315055Y540294D01*
X315031Y540316D01*
X314987Y540372D01*
X310058Y545301D01*
X309984Y545354D01*
X309915Y545413D01*
X309884Y545425D01*
X309858Y545444D01*
X309771Y545471D01*
X309686Y545505D01*
X309645Y545510D01*
X309623Y545517D01*
X309591Y545516D01*
X309520Y545524D01*
X307671Y545524D01*
X306778Y546417D01*
X306778Y550180D01*
X307531Y550933D01*
X307573Y550991D01*
X307622Y551043D01*
X307644Y551090D01*
X307674Y551132D01*
X307695Y551201D01*
X307726Y551266D01*
X307731Y551318D01*
X307747Y551367D01*
X307745Y551439D01*
X307753Y551510D01*
X307742Y551561D01*
X307740Y551613D01*
X307716Y551681D01*
X307700Y551751D01*
X307674Y551795D01*
X307656Y551844D01*
X307611Y551900D01*
X307574Y551962D01*
X307535Y551996D01*
X307502Y552036D01*
X307442Y552075D01*
X307387Y552122D01*
X307339Y552141D01*
X307295Y552169D01*
X307226Y552187D01*
X307159Y552214D01*
X307088Y552222D01*
X307057Y552229D01*
X307033Y552228D01*
X306992Y552232D01*
X303395Y552232D01*
X303375Y552229D01*
X303355Y552231D01*
X303254Y552209D01*
X303152Y552192D01*
X303134Y552183D01*
X303115Y552179D01*
X303026Y552126D01*
X302934Y552077D01*
X302921Y552063D01*
X302904Y552053D01*
X302836Y551974D01*
X302765Y551899D01*
X302757Y551881D01*
X302744Y551866D01*
X302705Y551770D01*
X302661Y551676D01*
X302659Y551656D01*
X302652Y551638D01*
X302633Y551471D01*
X302633Y550152D01*
X300262Y547780D01*
X296908Y547780D01*
X294928Y549760D01*
X294911Y549772D01*
X294899Y549788D01*
X294812Y549844D01*
X294728Y549904D01*
X294709Y549910D01*
X294692Y549921D01*
X294592Y549946D01*
X294493Y549976D01*
X294473Y549976D01*
X294453Y549981D01*
X294351Y549973D01*
X294247Y549970D01*
X294228Y549963D01*
X294208Y549961D01*
X294113Y549921D01*
X294016Y549885D01*
X294000Y549873D01*
X293982Y549865D01*
X293851Y549760D01*
X293487Y549397D01*
X292908Y549062D01*
X292262Y548889D01*
X290939Y548889D01*
X290939Y551918D01*
X293775Y551918D01*
X293794Y551922D01*
X293814Y551919D01*
X293915Y551941D01*
X294017Y551958D01*
X294035Y551967D01*
X294054Y551972D01*
X294143Y552025D01*
X294235Y552073D01*
X294248Y552088D01*
X294266Y552098D01*
X294333Y552177D01*
X294404Y552252D01*
X294412Y552270D01*
X294425Y552285D01*
X294464Y552381D01*
X294508Y552475D01*
X294510Y552494D01*
X294517Y552513D01*
X294536Y552680D01*
X294533Y552699D01*
X294535Y552719D01*
X294513Y552821D01*
X294496Y552923D01*
X294487Y552940D01*
X294483Y552960D01*
X294429Y553049D01*
X294381Y553140D01*
X294367Y553154D01*
X294356Y553171D01*
X294278Y553238D01*
X294203Y553309D01*
X294185Y553318D01*
X294169Y553331D01*
X294073Y553370D01*
X293980Y553413D01*
X293960Y553415D01*
X293941Y553423D01*
X293775Y553441D01*
X290178Y553441D01*
X290158Y553438D01*
X290138Y553440D01*
X290037Y553418D01*
X289935Y553401D01*
X289917Y553392D01*
X289898Y553388D01*
X289809Y553335D01*
X289717Y553286D01*
X289704Y553272D01*
X289687Y553262D01*
X289686Y553261D01*
X289619Y553182D01*
X289548Y553107D01*
X289539Y553089D01*
X289526Y553074D01*
X289487Y552978D01*
X289444Y552884D01*
X289442Y552865D01*
X289434Y552846D01*
X289416Y552679D01*
X289416Y548889D01*
X288093Y548889D01*
X287447Y549062D01*
X286780Y549447D01*
X286775Y549449D01*
X286719Y549489D01*
X286677Y549502D01*
X286638Y549524D01*
X286560Y549538D01*
X286484Y549562D01*
X286440Y549560D01*
X286396Y549569D01*
X286317Y549557D01*
X286238Y549555D01*
X286197Y549540D01*
X286153Y549534D01*
X286021Y549476D01*
X286007Y549471D01*
X286004Y549469D01*
X285999Y549467D01*
X285970Y549450D01*
X285324Y549277D01*
X284501Y549277D01*
X284501Y552806D01*
X285125Y552806D01*
X285145Y552809D01*
X285165Y552807D01*
X285266Y552829D01*
X285368Y552846D01*
X285386Y552855D01*
X285405Y552859D01*
X285494Y552913D01*
X285585Y552961D01*
X285599Y552975D01*
X285616Y552986D01*
X285684Y553064D01*
X285755Y553139D01*
X285763Y553157D01*
X285776Y553173D01*
X285815Y553269D01*
X285858Y553362D01*
X285861Y553382D01*
X285868Y553401D01*
X285887Y553567D01*
X285887Y553568D01*
X285883Y553587D01*
X285885Y553607D01*
X285863Y553708D01*
X285847Y553810D01*
X285837Y553828D01*
X285833Y553848D01*
X285780Y553937D01*
X285732Y554028D01*
X285717Y554042D01*
X285707Y554059D01*
X285628Y554126D01*
X285553Y554197D01*
X285535Y554206D01*
X285520Y554219D01*
X285424Y554257D01*
X285330Y554301D01*
X285311Y554303D01*
X285292Y554311D01*
X285125Y554329D01*
X283740Y554329D01*
X283720Y554326D01*
X283700Y554328D01*
X283599Y554306D01*
X283497Y554289D01*
X283480Y554280D01*
X283460Y554276D01*
X283371Y554222D01*
X283280Y554174D01*
X283279Y554174D01*
X283266Y554160D01*
X283249Y554150D01*
X283249Y554149D01*
X283181Y554070D01*
X283110Y553995D01*
X283102Y553977D01*
X283089Y553962D01*
X283050Y553866D01*
X283006Y553772D01*
X283004Y553753D01*
X282997Y553734D01*
X282978Y553567D01*
X282978Y549277D01*
X282155Y549277D01*
X281509Y549450D01*
X280930Y549784D01*
X280457Y550257D01*
X280451Y550267D01*
X280377Y550358D01*
X280301Y550452D01*
X280298Y550455D01*
X280295Y550458D01*
X280196Y550520D01*
X280094Y550585D01*
X280090Y550586D01*
X280087Y550588D01*
X279971Y550616D01*
X279856Y550645D01*
X279852Y550645D01*
X279848Y550646D01*
X279729Y550635D01*
X279611Y550626D01*
X279607Y550625D01*
X279603Y550624D01*
X279494Y550577D01*
X279384Y550530D01*
X279380Y550527D01*
X279377Y550525D01*
X279367Y550516D01*
X279253Y550425D01*
X279121Y550293D01*
X275358Y550293D01*
X274858Y550793D01*
X274784Y550846D01*
X274714Y550906D01*
X274684Y550918D01*
X274658Y550937D01*
X274571Y550964D01*
X274486Y550998D01*
X274445Y551002D01*
X274423Y551009D01*
X274391Y551008D01*
X274319Y551016D01*
X273654Y551016D01*
X273634Y551013D01*
X273615Y551015D01*
X273513Y550993D01*
X273411Y550977D01*
X273394Y550967D01*
X273374Y550963D01*
X273285Y550910D01*
X273194Y550861D01*
X273180Y550847D01*
X273163Y550837D01*
X273096Y550758D01*
X273025Y550683D01*
X273016Y550665D01*
X273003Y550650D01*
X272964Y550554D01*
X272921Y550460D01*
X272919Y550440D01*
X272911Y550422D01*
X272893Y550255D01*
X272893Y547822D01*
X271740Y546669D01*
X258896Y546669D01*
X258827Y546738D01*
X258810Y546750D01*
X258798Y546766D01*
X258711Y546822D01*
X258627Y546882D01*
X258608Y546888D01*
X258591Y546899D01*
X258491Y546924D01*
X258392Y546954D01*
X258372Y546954D01*
X258352Y546959D01*
X258249Y546951D01*
X258146Y546948D01*
X258127Y546941D01*
X258107Y546940D01*
X258012Y546899D01*
X257915Y546864D01*
X257899Y546851D01*
X257881Y546843D01*
X257750Y546738D01*
X256857Y545845D01*
X253503Y545845D01*
X251131Y548217D01*
X251131Y551571D01*
X252068Y552508D01*
X252079Y552524D01*
X252095Y552536D01*
X252151Y552623D01*
X252211Y552707D01*
X252217Y552726D01*
X252228Y552743D01*
X252253Y552844D01*
X252284Y552942D01*
X252283Y552962D01*
X252288Y552982D01*
X252280Y553085D01*
X252277Y553188D01*
X252270Y553207D01*
X252269Y553227D01*
X252228Y553322D01*
X252193Y553419D01*
X252180Y553435D01*
X252172Y553453D01*
X252068Y553584D01*
X251348Y554304D01*
X251348Y557658D01*
X253720Y560029D01*
X257074Y560029D01*
X257711Y559393D01*
X257785Y559340D01*
X257854Y559280D01*
X257884Y559268D01*
X257910Y559249D01*
X257997Y559222D01*
X258082Y559188D01*
X258123Y559184D01*
X258146Y559177D01*
X258178Y559178D01*
X258249Y559170D01*
X264605Y559170D01*
X264625Y559173D01*
X264644Y559171D01*
X264746Y559193D01*
X264848Y559209D01*
X264865Y559219D01*
X264885Y559223D01*
X264974Y559276D01*
X265065Y559325D01*
X265079Y559339D01*
X265096Y559349D01*
X265163Y559428D01*
X265234Y559503D01*
X265243Y559521D01*
X265256Y559536D01*
X265294Y559632D01*
X265315Y559677D01*
X265319Y559671D01*
X265323Y559651D01*
X265377Y559562D01*
X265425Y559471D01*
X265439Y559457D01*
X265449Y559440D01*
X265528Y559373D01*
X265603Y559301D01*
X265621Y559293D01*
X265636Y559280D01*
X265733Y559241D01*
X265826Y559198D01*
X265846Y559196D01*
X265865Y559188D01*
X266031Y559170D01*
X273909Y559170D01*
X273909Y557744D01*
X273784Y557277D01*
X273779Y557229D01*
X273765Y557183D01*
X273767Y557107D01*
X273759Y557032D01*
X273770Y556985D01*
X273771Y556937D01*
X273797Y556866D01*
X273814Y556792D01*
X273839Y556751D01*
X273856Y556706D01*
X273903Y556647D01*
X273943Y556583D01*
X273979Y556552D01*
X274009Y556514D01*
X274073Y556473D01*
X274131Y556425D01*
X274176Y556407D01*
X274216Y556381D01*
X274290Y556363D01*
X274360Y556335D01*
X274408Y556333D01*
X274455Y556321D01*
X274530Y556327D01*
X274606Y556324D01*
X274652Y556337D01*
X274700Y556340D01*
X274770Y556370D01*
X274843Y556391D01*
X274882Y556418D01*
X274926Y556437D01*
X275027Y556517D01*
X275045Y556530D01*
X275049Y556535D01*
X275057Y556542D01*
X275358Y556842D01*
X279121Y556842D01*
X279253Y556710D01*
X279349Y556642D01*
X279446Y556570D01*
X279450Y556569D01*
X279453Y556567D01*
X279566Y556532D01*
X279680Y556495D01*
X279684Y556495D01*
X279688Y556494D01*
X279806Y556497D01*
X279926Y556499D01*
X279930Y556501D01*
X279934Y556501D01*
X280045Y556541D01*
X280158Y556581D01*
X280161Y556584D01*
X280165Y556585D01*
X280258Y556660D01*
X280352Y556733D01*
X280354Y556737D01*
X280357Y556739D01*
X280365Y556750D01*
X280451Y556868D01*
X280457Y556878D01*
X280602Y557023D01*
X280613Y557039D01*
X280629Y557051D01*
X280659Y557098D01*
X280674Y557114D01*
X280686Y557140D01*
X280745Y557223D01*
X280751Y557242D01*
X280762Y557258D01*
X280787Y557359D01*
X280818Y557458D01*
X280817Y557478D01*
X280822Y557497D01*
X280814Y557600D01*
X280811Y557703D01*
X280804Y557722D01*
X280803Y557742D01*
X280762Y557837D01*
X280727Y557934D01*
X280714Y557950D01*
X280707Y557968D01*
X280602Y558099D01*
X279498Y559203D01*
X279498Y562557D01*
X281870Y564929D01*
X282877Y564929D01*
X282967Y564944D01*
X283058Y564951D01*
X283088Y564964D01*
X283120Y564969D01*
X283201Y565011D01*
X283285Y565047D01*
X283317Y565073D01*
X283337Y565084D01*
X283360Y565107D01*
X283416Y565152D01*
X283917Y565654D01*
X283970Y565728D01*
X284030Y565797D01*
X284042Y565827D01*
X284061Y565853D01*
X284088Y565940D01*
X284122Y566025D01*
X284126Y566066D01*
X284133Y566088D01*
X284132Y566121D01*
X284140Y566192D01*
X284140Y571973D01*
X285703Y573535D01*
X286919Y574751D01*
X286961Y574810D01*
X287010Y574862D01*
X287032Y574909D01*
X287063Y574951D01*
X287084Y575020D01*
X287114Y575085D01*
X287120Y575136D01*
X287135Y575186D01*
X287133Y575258D01*
X287141Y575329D01*
X287130Y575380D01*
X287129Y575432D01*
X287104Y575499D01*
X287089Y575569D01*
X287062Y575614D01*
X287044Y575663D01*
X286999Y575719D01*
X286963Y575781D01*
X286923Y575814D01*
X286890Y575855D01*
X286830Y575894D01*
X286776Y575940D01*
X286727Y575960D01*
X286683Y575988D01*
X286614Y576006D01*
X286547Y576032D01*
X286476Y576040D01*
X286445Y576048D01*
X286422Y576046D01*
X286381Y576051D01*
X275585Y576051D01*
X275495Y576036D01*
X275404Y576029D01*
X275374Y576016D01*
X275342Y576011D01*
X275262Y575968D01*
X275178Y575933D01*
X275146Y575907D01*
X275125Y575896D01*
X275103Y575873D01*
X275047Y575828D01*
X273116Y573897D01*
X273063Y573823D01*
X273003Y573753D01*
X272991Y573723D01*
X272972Y573697D01*
X272945Y573610D01*
X272911Y573525D01*
X272907Y573484D01*
X272900Y573462D01*
X272901Y573430D01*
X272893Y573359D01*
X272893Y566822D01*
X272722Y566651D01*
X272710Y566635D01*
X272695Y566622D01*
X272639Y566535D01*
X272578Y566451D01*
X272572Y566432D01*
X272562Y566415D01*
X272536Y566315D01*
X272506Y566216D01*
X272506Y566196D01*
X272502Y566177D01*
X272510Y566074D01*
X272512Y565970D01*
X272519Y565951D01*
X272521Y565931D01*
X272561Y565836D01*
X272597Y565739D01*
X272609Y565723D01*
X272617Y565705D01*
X272722Y565574D01*
X273313Y564983D01*
X273705Y564303D01*
X273909Y563544D01*
X273909Y562118D01*
X266031Y562118D01*
X266012Y562115D01*
X265992Y562117D01*
X265891Y562095D01*
X265789Y562079D01*
X265771Y562069D01*
X265751Y562065D01*
X265662Y562012D01*
X265571Y561963D01*
X265557Y561949D01*
X265540Y561939D01*
X265473Y561860D01*
X265402Y561785D01*
X265393Y561767D01*
X265380Y561752D01*
X265342Y561656D01*
X265321Y561611D01*
X265317Y561617D01*
X265313Y561637D01*
X265260Y561726D01*
X265211Y561817D01*
X265197Y561831D01*
X265187Y561848D01*
X265108Y561915D01*
X265033Y561987D01*
X265015Y561995D01*
X265000Y562008D01*
X264904Y562047D01*
X264810Y562090D01*
X264790Y562092D01*
X264772Y562100D01*
X264605Y562118D01*
X257695Y562118D01*
X257605Y562104D01*
X257514Y562096D01*
X257484Y562084D01*
X257452Y562079D01*
X257372Y562036D01*
X257288Y562000D01*
X257256Y561974D01*
X257235Y561963D01*
X257227Y561955D01*
X257226Y561955D01*
X257211Y561939D01*
X257157Y561895D01*
X256928Y561666D01*
X253574Y561666D01*
X251202Y564038D01*
X251202Y567392D01*
X253650Y569839D01*
X253661Y569856D01*
X253677Y569868D01*
X253733Y569955D01*
X253793Y570039D01*
X253799Y570058D01*
X253810Y570075D01*
X253835Y570175D01*
X253865Y570274D01*
X253865Y570294D01*
X253870Y570313D01*
X253862Y570416D01*
X253859Y570520D01*
X253852Y570539D01*
X253851Y570559D01*
X253810Y570654D01*
X253775Y570751D01*
X253762Y570767D01*
X253754Y570785D01*
X253650Y570916D01*
X251348Y573217D01*
X251348Y575699D01*
X251334Y575789D01*
X251326Y575880D01*
X251314Y575909D01*
X251309Y575941D01*
X251266Y576022D01*
X251230Y576106D01*
X251204Y576138D01*
X251193Y576159D01*
X251170Y576181D01*
X251125Y576237D01*
X248868Y578494D01*
X248868Y584792D01*
X255460Y591383D01*
X255502Y591442D01*
X255551Y591494D01*
X255573Y591541D01*
X255604Y591583D01*
X255625Y591652D01*
X255655Y591717D01*
X255661Y591768D01*
X255676Y591818D01*
X255674Y591890D01*
X255682Y591961D01*
X255671Y592012D01*
X255670Y592064D01*
X255645Y592131D01*
X255630Y592201D01*
X255603Y592246D01*
X255585Y592295D01*
X255540Y592351D01*
X255504Y592413D01*
X255464Y592446D01*
X255432Y592487D01*
X255371Y592526D01*
X255317Y592572D01*
X255268Y592592D01*
X255225Y592620D01*
X255155Y592638D01*
X255089Y592664D01*
X255017Y592672D01*
X254986Y592680D01*
X254963Y592678D01*
X254922Y592683D01*
X246934Y592683D01*
X246844Y592668D01*
X246753Y592661D01*
X246723Y592648D01*
X246691Y592643D01*
X246610Y592600D01*
X246526Y592565D01*
X246494Y592539D01*
X246474Y592528D01*
X246451Y592505D01*
X246395Y592460D01*
X230205Y576269D01*
X230165Y576214D01*
X230118Y576166D01*
X230094Y576115D01*
X230061Y576069D01*
X230041Y576005D01*
X230012Y575944D01*
X230005Y575888D01*
X229989Y575834D01*
X229990Y575767D01*
X229982Y575700D01*
X229994Y575621D01*
X229995Y575588D01*
X230002Y575569D01*
X230008Y575534D01*
X230148Y575011D01*
X230148Y574030D01*
X230151Y574011D01*
X230149Y573991D01*
X230171Y573889D01*
X230187Y573787D01*
X230197Y573770D01*
X230201Y573750D01*
X230254Y573661D01*
X230302Y573570D01*
X230317Y573556D01*
X230327Y573539D01*
X230406Y573472D01*
X230481Y573401D01*
X230499Y573392D01*
X230514Y573379D01*
X230610Y573341D01*
X230704Y573297D01*
X230724Y573295D01*
X230742Y573287D01*
X230909Y573269D01*
X232131Y573269D01*
X232221Y573284D01*
X232312Y573291D01*
X232341Y573303D01*
X232373Y573309D01*
X232454Y573351D01*
X232538Y573387D01*
X232570Y573413D01*
X232591Y573424D01*
X232613Y573447D01*
X232669Y573492D01*
X233796Y574619D01*
X246640Y574619D01*
X247793Y573466D01*
X247793Y566822D01*
X246640Y565669D01*
X233796Y565669D01*
X232643Y566822D01*
X232643Y567642D01*
X232632Y567713D01*
X232630Y567785D01*
X232612Y567834D01*
X232604Y567885D01*
X232570Y567948D01*
X232545Y568016D01*
X232513Y568057D01*
X232489Y568103D01*
X232437Y568152D01*
X232392Y568208D01*
X232348Y568236D01*
X232310Y568272D01*
X232245Y568302D01*
X232185Y568341D01*
X232134Y568354D01*
X232087Y568376D01*
X232016Y568383D01*
X231946Y568401D01*
X231894Y568397D01*
X231843Y568403D01*
X231772Y568387D01*
X231701Y568382D01*
X231653Y568361D01*
X231602Y568350D01*
X231541Y568314D01*
X231475Y568286D01*
X231419Y568241D01*
X231391Y568224D01*
X231376Y568206D01*
X231344Y568181D01*
X230129Y566965D01*
X230117Y566949D01*
X230101Y566937D01*
X230045Y566849D01*
X229985Y566766D01*
X229979Y566747D01*
X229968Y566730D01*
X229943Y566629D01*
X229913Y566531D01*
X229913Y566511D01*
X229908Y566491D01*
X229916Y566388D01*
X229919Y566285D01*
X229926Y566266D01*
X229927Y566246D01*
X229968Y566151D01*
X230003Y566054D01*
X230016Y566038D01*
X230024Y566020D01*
X230129Y565889D01*
X230372Y565645D01*
X230372Y553542D01*
X230387Y553452D01*
X230394Y553361D01*
X230407Y553331D01*
X230412Y553299D01*
X230455Y553218D01*
X230491Y553135D01*
X230516Y553102D01*
X230527Y553082D01*
X230551Y553060D01*
X230595Y553004D01*
X230860Y552739D01*
X230860Y551883D01*
X230875Y551793D01*
X230882Y551702D01*
X230895Y551673D01*
X230900Y551641D01*
X230943Y551560D01*
X230979Y551476D01*
X231004Y551444D01*
X231015Y551423D01*
X231039Y551401D01*
X231083Y551345D01*
X231344Y551085D01*
X231402Y551043D01*
X231454Y550993D01*
X231501Y550972D01*
X231543Y550941D01*
X231612Y550920D01*
X231677Y550890D01*
X231729Y550884D01*
X231779Y550869D01*
X231850Y550871D01*
X231922Y550863D01*
X231972Y550874D01*
X232024Y550875D01*
X232092Y550900D01*
X232162Y550915D01*
X232207Y550942D01*
X232255Y550960D01*
X232311Y551004D01*
X232373Y551041D01*
X232407Y551081D01*
X232448Y551113D01*
X232486Y551174D01*
X232533Y551228D01*
X232552Y551276D01*
X232581Y551320D01*
X232598Y551390D01*
X232625Y551456D01*
X232633Y551528D01*
X232641Y551559D01*
X232639Y551582D01*
X232643Y551623D01*
X232643Y554466D01*
X233796Y555619D01*
X246640Y555619D01*
X247793Y554466D01*
X247793Y547822D01*
X246640Y546669D01*
X239793Y546669D01*
X239722Y546658D01*
X239650Y546656D01*
X239601Y546638D01*
X239550Y546630D01*
X239487Y546596D01*
X239419Y546571D01*
X239379Y546539D01*
X239333Y546514D01*
X239283Y546463D01*
X239227Y546418D01*
X239199Y546374D01*
X239163Y546336D01*
X239133Y546271D01*
X239094Y546211D01*
X239082Y546160D01*
X239060Y546113D01*
X239052Y546042D01*
X239034Y545972D01*
X239038Y545920D01*
X239033Y545869D01*
X239048Y545798D01*
X239053Y545727D01*
X239074Y545679D01*
X239085Y545628D01*
X239122Y545567D01*
X239150Y545501D01*
X239194Y545445D01*
X239211Y545417D01*
X239229Y545402D01*
X239254Y545370D01*
X240838Y543787D01*
X240854Y543775D01*
X240866Y543759D01*
X240954Y543703D01*
X241037Y543643D01*
X241056Y543637D01*
X241073Y543626D01*
X241174Y543601D01*
X241272Y543571D01*
X241292Y543571D01*
X241312Y543566D01*
X241415Y543574D01*
X241518Y543577D01*
X241537Y543584D01*
X241557Y543585D01*
X241652Y543626D01*
X241749Y543662D01*
X241765Y543674D01*
X241783Y543682D01*
X241795Y543691D01*
X245301Y543691D01*
X246385Y542608D01*
X246385Y527325D01*
X245961Y526902D01*
X245908Y526828D01*
X245849Y526758D01*
X245836Y526728D01*
X245818Y526702D01*
X245791Y526615D01*
X245757Y526530D01*
X245752Y526489D01*
X245745Y526467D01*
X245746Y526435D01*
X245738Y526363D01*
X245738Y524586D01*
X241894Y520742D01*
X238565Y520742D01*
X238475Y520728D01*
X238384Y520721D01*
X238354Y520708D01*
X238322Y520703D01*
X238241Y520660D01*
X238157Y520624D01*
X238125Y520599D01*
X238104Y520588D01*
X238082Y520564D01*
X238026Y520520D01*
X237257Y519750D01*
X233903Y519750D01*
X231531Y522122D01*
X231531Y524668D01*
X231512Y524784D01*
X231494Y524902D01*
X231492Y524906D01*
X231491Y524910D01*
X231437Y525013D01*
X231381Y525121D01*
X231378Y525124D01*
X231376Y525128D01*
X231291Y525209D01*
X231205Y525292D01*
X231201Y525294D01*
X231198Y525297D01*
X231091Y525347D01*
X230983Y525398D01*
X230979Y525399D01*
X230975Y525401D01*
X230857Y525414D01*
X230739Y525428D01*
X230734Y525427D01*
X230730Y525428D01*
X230717Y525425D01*
X230573Y525403D01*
X229912Y525226D01*
X229321Y525226D01*
X229321Y534966D01*
X229321Y534967D01*
X229321Y544707D01*
X229416Y544707D01*
X229486Y544719D01*
X229558Y544721D01*
X229607Y544739D01*
X229658Y544747D01*
X229722Y544781D01*
X229789Y544805D01*
X229830Y544838D01*
X229876Y544862D01*
X229925Y544914D01*
X229981Y544959D01*
X230009Y545003D01*
X230045Y545040D01*
X230075Y545106D01*
X230114Y545166D01*
X230127Y545216D01*
X230149Y545264D01*
X230157Y545335D01*
X230174Y545404D01*
X230170Y545456D01*
X230176Y545508D01*
X230161Y545578D01*
X230155Y545650D01*
X230135Y545697D01*
X230124Y545748D01*
X230087Y545810D01*
X230059Y545876D01*
X230014Y545932D01*
X229997Y545959D01*
X229980Y545975D01*
X229954Y546007D01*
X229101Y546859D01*
X229027Y546913D01*
X228958Y546972D01*
X228928Y546984D01*
X228902Y547003D01*
X228814Y547030D01*
X228730Y547064D01*
X228689Y547068D01*
X228666Y547075D01*
X228634Y547074D01*
X228563Y547082D01*
X226204Y547082D01*
X226072Y547214D01*
X225977Y547283D01*
X225880Y547354D01*
X225876Y547356D01*
X225872Y547358D01*
X225759Y547393D01*
X225645Y547429D01*
X225641Y547429D01*
X225637Y547430D01*
X225519Y547427D01*
X225399Y547425D01*
X225395Y547424D01*
X225391Y547424D01*
X225280Y547383D01*
X225168Y547344D01*
X225164Y547341D01*
X225160Y547340D01*
X225067Y547265D01*
X224974Y547192D01*
X224971Y547188D01*
X224968Y547186D01*
X224961Y547174D01*
X224874Y547057D01*
X224869Y547047D01*
X224396Y546574D01*
X223743Y546197D01*
X223651Y546122D01*
X223558Y546047D01*
X223555Y546044D01*
X223552Y546041D01*
X223490Y545942D01*
X223425Y545840D01*
X223424Y545836D01*
X223421Y545833D01*
X223394Y545718D01*
X223365Y545602D01*
X223365Y545598D01*
X223364Y545594D01*
X223375Y545475D01*
X223384Y545357D01*
X223385Y545353D01*
X223386Y545349D01*
X223434Y545239D01*
X223480Y545130D01*
X223483Y545126D01*
X223485Y545123D01*
X223494Y545113D01*
X223585Y544999D01*
X224599Y543985D01*
X224615Y543973D01*
X224628Y543958D01*
X224715Y543902D01*
X224799Y543841D01*
X224818Y543836D01*
X224835Y543825D01*
X224935Y543800D01*
X225034Y543769D01*
X225054Y543770D01*
X225073Y543765D01*
X225176Y543773D01*
X225280Y543775D01*
X225299Y543782D01*
X225319Y543784D01*
X225414Y543824D01*
X225511Y543860D01*
X225526Y543872D01*
X225545Y543880D01*
X225676Y543985D01*
X225825Y544135D01*
X226479Y544512D01*
X227208Y544707D01*
X227799Y544707D01*
X227799Y534967D01*
X227799Y534966D01*
X227799Y525226D01*
X227208Y525226D01*
X226479Y525421D01*
X225825Y525798D01*
X225605Y526019D01*
X225531Y526072D01*
X225462Y526131D01*
X225431Y526144D01*
X225405Y526162D01*
X225318Y526189D01*
X225233Y526223D01*
X225192Y526228D01*
X225170Y526235D01*
X225138Y526234D01*
X225067Y526242D01*
X221819Y526242D01*
X221598Y526462D01*
X221582Y526474D01*
X221570Y526490D01*
X221482Y526546D01*
X221399Y526606D01*
X221380Y526612D01*
X221363Y526623D01*
X221262Y526648D01*
X221163Y526678D01*
X221143Y526678D01*
X221124Y526683D01*
X221021Y526675D01*
X220918Y526672D01*
X220899Y526665D01*
X220879Y526663D01*
X220784Y526623D01*
X220687Y526587D01*
X220671Y526575D01*
X220653Y526567D01*
X220522Y526462D01*
X220301Y526242D01*
X216817Y526242D01*
X216807Y526249D01*
X216794Y526265D01*
X216707Y526321D01*
X216623Y526381D01*
X216604Y526387D01*
X216587Y526398D01*
X216487Y526423D01*
X216388Y526454D01*
X216368Y526453D01*
X216349Y526458D01*
X216246Y526450D01*
X216142Y526447D01*
X216123Y526441D01*
X216103Y526439D01*
X216008Y526398D01*
X215911Y526363D01*
X215896Y526351D01*
X215877Y526343D01*
X215746Y526238D01*
X214284Y524776D01*
X212461Y522952D01*
X203596Y522952D01*
X203576Y522949D01*
X203557Y522951D01*
X203455Y522929D01*
X203353Y522912D01*
X203336Y522903D01*
X203316Y522899D01*
X203227Y522846D01*
X203136Y522797D01*
X203122Y522783D01*
X203105Y522773D01*
X203038Y522694D01*
X202966Y522619D01*
X202958Y522601D01*
X202945Y522586D01*
X202906Y522490D01*
X202863Y522396D01*
X202861Y522376D01*
X202853Y522358D01*
X202835Y522191D01*
X202835Y518775D01*
X202614Y518555D01*
X202603Y518539D01*
X202587Y518526D01*
X202531Y518439D01*
X202471Y518355D01*
X202465Y518336D01*
X202454Y518319D01*
X202429Y518219D01*
X202398Y518120D01*
X202399Y518100D01*
X202394Y518081D01*
X202402Y517978D01*
X202405Y517874D01*
X202412Y517855D01*
X202413Y517835D01*
X202453Y517741D01*
X202489Y517643D01*
X202502Y517627D01*
X202509Y517609D01*
X202614Y517478D01*
X202835Y517258D01*
X202835Y513775D01*
X202614Y513555D01*
X202603Y513539D01*
X202587Y513526D01*
X202531Y513439D01*
X202471Y513355D01*
X202465Y513336D01*
X202454Y513319D01*
X202429Y513218D01*
X202398Y513120D01*
X202399Y513100D01*
X202394Y513081D01*
X202402Y512978D01*
X202405Y512874D01*
X202412Y512855D01*
X202413Y512835D01*
X202453Y512741D01*
X202489Y512643D01*
X202502Y512627D01*
X202509Y512609D01*
X202614Y512478D01*
X202835Y512258D01*
X202835Y508775D01*
X202614Y508555D01*
X202603Y508539D01*
X202587Y508526D01*
X202531Y508439D01*
X202471Y508355D01*
X202465Y508336D01*
X202454Y508319D01*
X202429Y508219D01*
X202398Y508120D01*
X202399Y508100D01*
X202394Y508081D01*
X202402Y507978D01*
X202405Y507874D01*
X202412Y507855D01*
X202413Y507836D01*
X202453Y507741D01*
X202489Y507643D01*
X202502Y507628D01*
X202509Y507609D01*
X202614Y507478D01*
X202835Y507258D01*
X202835Y503775D01*
X202614Y503555D01*
X202603Y503539D01*
X202587Y503526D01*
X202531Y503439D01*
X202471Y503355D01*
X202465Y503336D01*
X202454Y503319D01*
X202429Y503219D01*
X202398Y503120D01*
X202399Y503100D01*
X202394Y503081D01*
X202402Y502978D01*
X202405Y502874D01*
X202412Y502855D01*
X202413Y502835D01*
X202453Y502741D01*
X202489Y502643D01*
X202502Y502627D01*
X202509Y502609D01*
X202614Y502478D01*
X202835Y502258D01*
X202835Y501884D01*
X202849Y501793D01*
X202857Y501703D01*
X202869Y501673D01*
X202874Y501641D01*
X202917Y501560D01*
X202953Y501476D01*
X202979Y501444D01*
X202990Y501423D01*
X203013Y501401D01*
X203058Y501345D01*
X205883Y498520D01*
X205883Y483601D01*
X205886Y483581D01*
X205884Y483561D01*
X205906Y483460D01*
X205922Y483358D01*
X205932Y483340D01*
X205936Y483321D01*
X205989Y483232D01*
X206038Y483140D01*
X206052Y483127D01*
X206062Y483110D01*
X206141Y483042D01*
X206216Y482971D01*
X206234Y482963D01*
X206249Y482950D01*
X206345Y482911D01*
X206439Y482867D01*
X206459Y482865D01*
X206477Y482858D01*
X206644Y482839D01*
X212425Y482839D01*
X214284Y480980D01*
X215607Y479656D01*
X215624Y479645D01*
X215636Y479629D01*
X215723Y479573D01*
X215807Y479513D01*
X215826Y479507D01*
X215843Y479496D01*
X215943Y479471D01*
X216042Y479441D01*
X216062Y479441D01*
X216082Y479436D01*
X216185Y479444D01*
X216288Y479447D01*
X216307Y479454D01*
X216327Y479455D01*
X216422Y479496D01*
X216519Y479531D01*
X216535Y479544D01*
X216553Y479552D01*
X216684Y479657D01*
X216819Y479791D01*
X220301Y479791D01*
X220522Y479571D01*
X220538Y479559D01*
X220550Y479544D01*
X220638Y479487D01*
X220721Y479427D01*
X220740Y479421D01*
X220757Y479411D01*
X220858Y479385D01*
X220957Y479355D01*
X220977Y479355D01*
X220996Y479350D01*
X221099Y479359D01*
X221202Y479361D01*
X221221Y479368D01*
X221241Y479370D01*
X221336Y479410D01*
X221433Y479446D01*
X221449Y479458D01*
X221467Y479466D01*
X221598Y479571D01*
X221819Y479791D01*
X225067Y479791D01*
X225157Y479806D01*
X225248Y479813D01*
X225277Y479826D01*
X225309Y479831D01*
X225390Y479874D01*
X225474Y479909D01*
X225506Y479935D01*
X225527Y479946D01*
X225549Y479969D01*
X225605Y480014D01*
X225825Y480235D01*
X226479Y480612D01*
X227208Y480807D01*
X227799Y480807D01*
X227799Y471067D01*
X227799Y471066D01*
X227799Y461326D01*
X227208Y461326D01*
X226479Y461521D01*
X226277Y461637D01*
X226236Y461653D01*
X226200Y461677D01*
X226122Y461696D01*
X226047Y461724D01*
X226003Y461726D01*
X225961Y461737D01*
X225882Y461730D01*
X225802Y461733D01*
X225759Y461721D01*
X225716Y461718D01*
X225642Y461686D01*
X225566Y461664D01*
X225530Y461638D01*
X225489Y461621D01*
X225376Y461530D01*
X225364Y461522D01*
X225362Y461520D01*
X225359Y461516D01*
X224284Y460442D01*
X223298Y459456D01*
X223271Y459419D01*
X223237Y459388D01*
X223200Y459319D01*
X223155Y459256D01*
X223141Y459212D01*
X223119Y459172D01*
X223105Y459095D01*
X223082Y459021D01*
X223083Y458975D01*
X223075Y458930D01*
X223087Y458853D01*
X223089Y458775D01*
X223104Y458732D01*
X223111Y458687D01*
X223146Y458617D01*
X223173Y458544D01*
X223202Y458508D01*
X223222Y458467D01*
X223278Y458413D01*
X223327Y458352D01*
X223365Y458327D01*
X223398Y458295D01*
X223518Y458229D01*
X223534Y458219D01*
X223538Y458218D01*
X223545Y458214D01*
X224946Y457634D01*
X226926Y455654D01*
X227998Y453066D01*
X227998Y450265D01*
X226926Y447677D01*
X224946Y445696D01*
X222358Y444625D01*
X219557Y444625D01*
X216969Y445696D01*
X214989Y447677D01*
X213917Y450265D01*
X213917Y451998D01*
X213905Y452069D01*
X213903Y452140D01*
X213885Y452189D01*
X213877Y452241D01*
X213844Y452304D01*
X213819Y452371D01*
X213786Y452412D01*
X213762Y452458D01*
X213710Y452508D01*
X213665Y452564D01*
X213621Y452592D01*
X213584Y452628D01*
X213519Y452658D01*
X213458Y452697D01*
X213408Y452709D01*
X213361Y452731D01*
X213289Y452739D01*
X213220Y452757D01*
X213168Y452753D01*
X213116Y452758D01*
X213046Y452743D01*
X212975Y452737D01*
X212927Y452717D01*
X212876Y452706D01*
X212814Y452669D01*
X212748Y452641D01*
X212692Y452596D01*
X212665Y452580D01*
X212649Y452562D01*
X212617Y452536D01*
X201130Y441049D01*
X200835Y440754D01*
X200782Y440680D01*
X200723Y440611D01*
X200711Y440581D01*
X200692Y440555D01*
X200665Y440468D01*
X200631Y440383D01*
X200626Y440342D01*
X200619Y440320D01*
X200620Y440287D01*
X200612Y440216D01*
X200612Y439892D01*
X199719Y438999D01*
X194956Y438999D01*
X194691Y439264D01*
X194617Y439317D01*
X194548Y439376D01*
X194517Y439388D01*
X194491Y439407D01*
X194404Y439434D01*
X194319Y439468D01*
X194279Y439473D01*
X194256Y439480D01*
X194224Y439479D01*
X194153Y439487D01*
X189733Y439487D01*
X187125Y442094D01*
X187051Y442148D01*
X186982Y442207D01*
X186952Y442219D01*
X186925Y442238D01*
X186839Y442265D01*
X186754Y442299D01*
X186713Y442303D01*
X186690Y442310D01*
X186658Y442309D01*
X186587Y442317D01*
X159805Y442317D01*
X156467Y445655D01*
X156393Y445709D01*
X156323Y445768D01*
X156293Y445780D01*
X156267Y445799D01*
X156180Y445826D01*
X156095Y445860D01*
X156054Y445864D01*
X156032Y445871D01*
X156000Y445870D01*
X155928Y445878D01*
X133701Y445878D01*
X125397Y454182D01*
X125323Y454235D01*
X125253Y454295D01*
X125223Y454307D01*
X125197Y454326D01*
X125110Y454353D01*
X125025Y454387D01*
X124984Y454391D01*
X124962Y454398D01*
X124930Y454397D01*
X124858Y454405D01*
X102881Y454405D01*
X102861Y454402D01*
X102841Y454404D01*
X102740Y454382D01*
X102638Y454366D01*
X102620Y454356D01*
X102601Y454352D01*
X102512Y454299D01*
X102421Y454250D01*
X102407Y454236D01*
X102390Y454226D01*
X102322Y454147D01*
X102251Y454072D01*
X102243Y454054D01*
X102230Y454039D01*
X102191Y453943D01*
X102148Y453849D01*
X102145Y453829D01*
X102138Y453811D01*
X102119Y453644D01*
X102119Y449820D01*
X101226Y448926D01*
X95659Y448926D01*
X95563Y448911D01*
X95466Y448901D01*
X95442Y448891D01*
X95416Y448887D01*
X95330Y448841D01*
X95241Y448801D01*
X95222Y448784D01*
X95198Y448772D01*
X95131Y448701D01*
X95060Y448635D01*
X95047Y448612D01*
X95029Y448593D01*
X94988Y448505D01*
X94941Y448420D01*
X94936Y448394D01*
X94925Y448370D01*
X94915Y448274D01*
X94897Y448178D01*
X94901Y448152D01*
X94898Y448126D01*
X94919Y448031D01*
X94933Y447934D01*
X94945Y447911D01*
X94951Y447885D01*
X95001Y447802D01*
X95045Y447715D01*
X95063Y447697D01*
X95077Y447674D01*
X95151Y447611D01*
X95220Y447543D01*
X95249Y447527D01*
X95264Y447514D01*
X95294Y447502D01*
X95367Y447462D01*
X98620Y446115D01*
X102148Y442587D01*
X104057Y437978D01*
X104057Y432988D01*
X102148Y428379D01*
X98620Y424851D01*
X95367Y423504D01*
X95284Y423453D01*
X95198Y423407D01*
X95180Y423388D01*
X95158Y423374D01*
X95096Y423299D01*
X95029Y423229D01*
X95018Y423205D01*
X95001Y423185D01*
X94966Y423094D01*
X94925Y423006D01*
X94922Y422980D01*
X94913Y422955D01*
X94909Y422858D01*
X94898Y422761D01*
X94904Y422736D01*
X94902Y422710D01*
X94930Y422616D01*
X94950Y422521D01*
X94964Y422498D01*
X94971Y422473D01*
X95027Y422393D01*
X95076Y422310D01*
X95096Y422293D01*
X95111Y422271D01*
X95189Y422213D01*
X95263Y422150D01*
X95288Y422140D01*
X95309Y422125D01*
X95401Y422094D01*
X95492Y422058D01*
X95524Y422054D01*
X95543Y422048D01*
X95576Y422049D01*
X95658Y422040D01*
X386921Y422040D01*
X386943Y422043D01*
G37*
G36*
X127293Y545453D02*
X127293Y545453D01*
X127384Y545460D01*
X127413Y545472D01*
X127445Y545478D01*
X127526Y545520D01*
X127610Y545556D01*
X127642Y545582D01*
X127663Y545593D01*
X127685Y545616D01*
X127741Y545661D01*
X133604Y551524D01*
X177632Y551524D01*
X177722Y551539D01*
X177813Y551546D01*
X177842Y551558D01*
X177874Y551564D01*
X177955Y551606D01*
X178039Y551642D01*
X178071Y551668D01*
X178092Y551679D01*
X178114Y551702D01*
X178170Y551747D01*
X178225Y551802D01*
X182988Y551802D01*
X183253Y551537D01*
X183327Y551484D01*
X183397Y551425D01*
X183427Y551412D01*
X183453Y551394D01*
X183540Y551367D01*
X183625Y551333D01*
X183666Y551328D01*
X183688Y551321D01*
X183720Y551322D01*
X183792Y551314D01*
X217034Y551314D01*
X217053Y551317D01*
X217073Y551315D01*
X217174Y551337D01*
X217276Y551354D01*
X217294Y551363D01*
X217314Y551367D01*
X217403Y551421D01*
X217494Y551469D01*
X217508Y551483D01*
X217525Y551494D01*
X217592Y551572D01*
X217663Y551647D01*
X217672Y551665D01*
X217685Y551680D01*
X217723Y551777D01*
X217767Y551870D01*
X217769Y551890D01*
X217777Y551909D01*
X217795Y552075D01*
X217795Y552442D01*
X217968Y553088D01*
X218303Y553667D01*
X218776Y554140D01*
X219355Y554475D01*
X220001Y554648D01*
X220824Y554648D01*
X220824Y550357D01*
X220828Y550338D01*
X220825Y550318D01*
X220847Y550217D01*
X220864Y550115D01*
X220873Y550097D01*
X220878Y550078D01*
X220931Y549989D01*
X220979Y549897D01*
X220994Y549884D01*
X221004Y549866D01*
X221082Y549799D01*
X221157Y549728D01*
X221176Y549719D01*
X221191Y549707D01*
X221287Y549668D01*
X221381Y549624D01*
X221400Y549622D01*
X221419Y549615D01*
X221586Y549596D01*
X221605Y549599D01*
X221625Y549597D01*
X221727Y549619D01*
X221829Y549636D01*
X221846Y549645D01*
X221866Y549649D01*
X221955Y549703D01*
X222046Y549751D01*
X222060Y549765D01*
X222077Y549776D01*
X222144Y549854D01*
X222215Y549929D01*
X222224Y549947D01*
X222237Y549962D01*
X222275Y550059D01*
X222319Y550152D01*
X222321Y550172D01*
X222329Y550191D01*
X222347Y550357D01*
X222347Y554648D01*
X223170Y554648D01*
X223816Y554475D01*
X224396Y554140D01*
X224499Y554036D01*
X224558Y553995D01*
X224610Y553945D01*
X224657Y553923D01*
X224699Y553893D01*
X224768Y553872D01*
X224833Y553842D01*
X224884Y553836D01*
X224934Y553821D01*
X225006Y553822D01*
X225077Y553814D01*
X225128Y553826D01*
X225180Y553827D01*
X225247Y553851D01*
X225318Y553867D01*
X225362Y553893D01*
X225411Y553911D01*
X225467Y553956D01*
X225529Y553993D01*
X225562Y554032D01*
X225603Y554065D01*
X225642Y554125D01*
X225689Y554180D01*
X225708Y554228D01*
X225736Y554272D01*
X225754Y554341D01*
X225781Y554408D01*
X225788Y554479D01*
X225796Y554510D01*
X225794Y554534D01*
X225799Y554575D01*
X225799Y563391D01*
X225796Y563410D01*
X225798Y563430D01*
X225776Y563531D01*
X225759Y563633D01*
X225750Y563651D01*
X225746Y563671D01*
X225692Y563760D01*
X225644Y563851D01*
X225630Y563865D01*
X225620Y563882D01*
X225541Y563949D01*
X225466Y564020D01*
X225448Y564029D01*
X225433Y564042D01*
X225336Y564080D01*
X225243Y564124D01*
X225223Y564126D01*
X225204Y564133D01*
X225038Y564152D01*
X223475Y564152D01*
X222582Y565045D01*
X222582Y568808D01*
X222714Y568940D01*
X222783Y569036D01*
X222854Y569133D01*
X222855Y569137D01*
X222858Y569140D01*
X222893Y569253D01*
X222929Y569367D01*
X222929Y569371D01*
X222930Y569375D01*
X222927Y569494D01*
X222925Y569613D01*
X222924Y569617D01*
X222924Y569621D01*
X222883Y569732D01*
X222843Y569845D01*
X222841Y569848D01*
X222839Y569852D01*
X222765Y569945D01*
X222692Y570039D01*
X222688Y570042D01*
X222686Y570044D01*
X222674Y570052D01*
X222557Y570138D01*
X222547Y570144D01*
X222074Y570617D01*
X221828Y571042D01*
X221754Y571133D01*
X221679Y571227D01*
X221675Y571229D01*
X221672Y571232D01*
X221573Y571294D01*
X221472Y571360D01*
X221468Y571361D01*
X221464Y571363D01*
X221349Y571391D01*
X221233Y571420D01*
X221229Y571419D01*
X221225Y571420D01*
X221106Y571410D01*
X220988Y571401D01*
X220984Y571399D01*
X220980Y571399D01*
X220870Y571351D01*
X220762Y571304D01*
X220758Y571301D01*
X220755Y571300D01*
X220744Y571291D01*
X220631Y571200D01*
X218669Y569238D01*
X213764Y569238D01*
X213693Y569226D01*
X213621Y569224D01*
X213573Y569206D01*
X213521Y569198D01*
X213458Y569164D01*
X213390Y569140D01*
X213350Y569107D01*
X213304Y569083D01*
X213254Y569031D01*
X213198Y568986D01*
X213170Y568942D01*
X213134Y568905D01*
X213104Y568840D01*
X213065Y568779D01*
X213053Y568729D01*
X213031Y568681D01*
X213023Y568610D01*
X213005Y568541D01*
X213009Y568489D01*
X213004Y568437D01*
X213019Y568367D01*
X213025Y568295D01*
X213045Y568248D01*
X213056Y568197D01*
X213093Y568135D01*
X213121Y568069D01*
X213166Y568013D01*
X213182Y567986D01*
X213200Y567970D01*
X213226Y567938D01*
X214372Y566791D01*
X214372Y563437D01*
X212001Y561066D01*
X209824Y561066D01*
X209734Y561051D01*
X209643Y561044D01*
X209613Y561031D01*
X209581Y561026D01*
X209501Y560983D01*
X209417Y560948D01*
X209385Y560922D01*
X209364Y560911D01*
X209342Y560888D01*
X209286Y560843D01*
X208018Y559575D01*
X135441Y559575D01*
X135351Y559560D01*
X135260Y559553D01*
X135231Y559540D01*
X135199Y559535D01*
X135118Y559492D01*
X135034Y559457D01*
X135002Y559431D01*
X134981Y559420D01*
X134959Y559397D01*
X134903Y559352D01*
X133401Y557850D01*
X130047Y557850D01*
X127676Y560222D01*
X127676Y563427D01*
X127657Y563543D01*
X127639Y563662D01*
X127637Y563665D01*
X127636Y563670D01*
X127581Y563774D01*
X127526Y563880D01*
X127523Y563883D01*
X127521Y563887D01*
X127435Y563968D01*
X127349Y564052D01*
X127346Y564053D01*
X127342Y564056D01*
X127235Y564106D01*
X127127Y564158D01*
X127123Y564158D01*
X127119Y564160D01*
X127002Y564173D01*
X126883Y564187D01*
X126878Y564187D01*
X126875Y564187D01*
X126861Y564184D01*
X126717Y564162D01*
X126297Y564050D01*
X125474Y564050D01*
X125474Y567579D01*
X127677Y567579D01*
X127696Y567582D01*
X127716Y567580D01*
X127817Y567602D01*
X127919Y567619D01*
X127937Y567628D01*
X127956Y567632D01*
X128046Y567685D01*
X128137Y567734D01*
X128150Y567748D01*
X128168Y567758D01*
X128235Y567837D01*
X128306Y567912D01*
X128315Y567930D01*
X128328Y567945D01*
X128366Y568041D01*
X128410Y568135D01*
X128412Y568155D01*
X128419Y568173D01*
X128438Y568340D01*
X128435Y568360D01*
X128437Y568380D01*
X128415Y568481D01*
X128398Y568583D01*
X128389Y568601D01*
X128385Y568620D01*
X128331Y568709D01*
X128283Y568801D01*
X128269Y568814D01*
X128258Y568831D01*
X128180Y568899D01*
X128105Y568970D01*
X128087Y568978D01*
X128072Y568991D01*
X127975Y569030D01*
X127882Y569074D01*
X127862Y569076D01*
X127843Y569083D01*
X127677Y569102D01*
X125474Y569102D01*
X125474Y572631D01*
X126297Y572631D01*
X126943Y572458D01*
X127523Y572123D01*
X127996Y571650D01*
X128001Y571641D01*
X128077Y571548D01*
X128151Y571456D01*
X128155Y571453D01*
X128157Y571450D01*
X128257Y571388D01*
X128358Y571323D01*
X128362Y571322D01*
X128366Y571319D01*
X128481Y571292D01*
X128596Y571263D01*
X128601Y571263D01*
X128605Y571262D01*
X128723Y571272D01*
X128842Y571282D01*
X128846Y571283D01*
X128850Y571284D01*
X128958Y571331D01*
X129068Y571378D01*
X129072Y571381D01*
X129075Y571382D01*
X129085Y571392D01*
X129199Y571483D01*
X129331Y571615D01*
X133094Y571615D01*
X133859Y570850D01*
X133933Y570797D01*
X134003Y570737D01*
X134033Y570725D01*
X134059Y570706D01*
X134146Y570680D01*
X134231Y570645D01*
X134272Y570641D01*
X134294Y570634D01*
X134326Y570635D01*
X134398Y570627D01*
X137602Y570627D01*
X137622Y570630D01*
X137642Y570628D01*
X137743Y570650D01*
X137845Y570667D01*
X137863Y570676D01*
X137882Y570680D01*
X137971Y570733D01*
X138062Y570782D01*
X138076Y570796D01*
X138093Y570806D01*
X138160Y570885D01*
X138232Y570960D01*
X138240Y570978D01*
X138253Y570993D01*
X138292Y571090D01*
X138335Y571183D01*
X138338Y571203D01*
X138345Y571222D01*
X138363Y571388D01*
X138363Y572636D01*
X139257Y573529D01*
X154530Y573529D01*
X154569Y573501D01*
X154638Y573441D01*
X154668Y573429D01*
X154694Y573410D01*
X154782Y573383D01*
X154866Y573349D01*
X154907Y573345D01*
X154930Y573338D01*
X154962Y573339D01*
X155033Y573331D01*
X175250Y573331D01*
X175340Y573346D01*
X175431Y573353D01*
X175461Y573365D01*
X175493Y573371D01*
X175574Y573413D01*
X175657Y573449D01*
X175690Y573475D01*
X175710Y573486D01*
X175732Y573509D01*
X175788Y573554D01*
X178285Y576050D01*
X178329Y576112D01*
X178361Y576145D01*
X178367Y576158D01*
X178397Y576194D01*
X178409Y576224D01*
X178428Y576250D01*
X178455Y576337D01*
X178489Y576422D01*
X178494Y576463D01*
X178501Y576485D01*
X178500Y576517D01*
X178508Y576588D01*
X178508Y578765D01*
X180879Y581137D01*
X184233Y581137D01*
X186605Y578765D01*
X186605Y577512D01*
X186617Y577442D01*
X186619Y577370D01*
X186636Y577321D01*
X186645Y577270D01*
X186678Y577206D01*
X186703Y577139D01*
X186736Y577098D01*
X186760Y577052D01*
X186812Y577003D01*
X186857Y576947D01*
X186901Y576919D01*
X186938Y576883D01*
X187003Y576853D01*
X187064Y576814D01*
X187114Y576801D01*
X187161Y576779D01*
X187233Y576771D01*
X187302Y576754D01*
X187354Y576758D01*
X187406Y576752D01*
X187476Y576767D01*
X187547Y576773D01*
X187595Y576793D01*
X187646Y576804D01*
X187708Y576841D01*
X187774Y576869D01*
X187830Y576914D01*
X187857Y576931D01*
X187873Y576948D01*
X187905Y576974D01*
X190264Y579334D01*
X190317Y579408D01*
X190377Y579477D01*
X190389Y579507D01*
X190408Y579533D01*
X190435Y579621D01*
X190469Y579705D01*
X190473Y579746D01*
X190480Y579768D01*
X190479Y579801D01*
X190487Y579872D01*
X190487Y593092D01*
X190473Y593182D01*
X190465Y593273D01*
X190453Y593302D01*
X190448Y593334D01*
X190405Y593415D01*
X190369Y593499D01*
X190343Y593531D01*
X190332Y593552D01*
X190309Y593574D01*
X190264Y593630D01*
X181081Y602813D01*
X181007Y602866D01*
X180938Y602926D01*
X180908Y602938D01*
X180881Y602957D01*
X180794Y602983D01*
X180710Y603018D01*
X180669Y603022D01*
X180646Y603029D01*
X180614Y603028D01*
X180543Y603036D01*
X170501Y603036D01*
X169608Y603929D01*
X169608Y614680D01*
X169605Y614700D01*
X169607Y614719D01*
X169585Y614821D01*
X169568Y614923D01*
X169559Y614940D01*
X169555Y614960D01*
X169501Y615049D01*
X169453Y615140D01*
X169439Y615154D01*
X169429Y615171D01*
X169350Y615238D01*
X169275Y615310D01*
X169257Y615318D01*
X169242Y615331D01*
X169145Y615370D01*
X169052Y615413D01*
X169032Y615415D01*
X169013Y615423D01*
X168847Y615441D01*
X77295Y615441D01*
X77275Y615438D01*
X77255Y615440D01*
X77154Y615418D01*
X77052Y615402D01*
X77034Y615392D01*
X77015Y615388D01*
X76926Y615335D01*
X76835Y615286D01*
X76821Y615272D01*
X76804Y615262D01*
X76736Y615183D01*
X76665Y615108D01*
X76657Y615090D01*
X76644Y615075D01*
X76605Y614979D01*
X76562Y614885D01*
X76559Y614865D01*
X76552Y614847D01*
X76533Y614680D01*
X76533Y549237D01*
X76537Y549217D01*
X76535Y549198D01*
X76557Y549096D01*
X76573Y548994D01*
X76583Y548977D01*
X76587Y548957D01*
X76640Y548868D01*
X76688Y548777D01*
X76703Y548763D01*
X76713Y548746D01*
X76792Y548679D01*
X76867Y548608D01*
X76885Y548599D01*
X76900Y548586D01*
X76996Y548547D01*
X77090Y548504D01*
X77109Y548502D01*
X77128Y548494D01*
X77295Y548476D01*
X101226Y548476D01*
X102119Y547583D01*
X102119Y546199D01*
X102123Y546179D01*
X102121Y546160D01*
X102143Y546058D01*
X102159Y545956D01*
X102169Y545939D01*
X102173Y545919D01*
X102226Y545830D01*
X102274Y545739D01*
X102289Y545725D01*
X102299Y545708D01*
X102378Y545641D01*
X102453Y545570D01*
X102471Y545561D01*
X102486Y545548D01*
X102582Y545509D01*
X102676Y545466D01*
X102695Y545464D01*
X102714Y545456D01*
X102881Y545438D01*
X127203Y545438D01*
X127293Y545453D01*
G37*
G36*
X296523Y440205D02*
X296523Y440205D01*
X296614Y440212D01*
X296643Y440225D01*
X296675Y440230D01*
X296756Y440273D01*
X296840Y440309D01*
X296872Y440334D01*
X296893Y440345D01*
X296915Y440369D01*
X296971Y440413D01*
X306329Y449771D01*
X306382Y449845D01*
X306441Y449915D01*
X306454Y449945D01*
X306472Y449971D01*
X306499Y450058D01*
X306533Y450143D01*
X306538Y450184D01*
X306545Y450206D01*
X306544Y450238D01*
X306552Y450310D01*
X306552Y459429D01*
X306549Y459449D01*
X306551Y459469D01*
X306529Y459570D01*
X306512Y459672D01*
X306503Y459690D01*
X306499Y459709D01*
X306445Y459798D01*
X306397Y459889D01*
X306383Y459903D01*
X306372Y459920D01*
X306294Y459988D01*
X306219Y460059D01*
X306201Y460067D01*
X306185Y460080D01*
X306089Y460119D01*
X305996Y460162D01*
X305976Y460165D01*
X305957Y460172D01*
X305791Y460191D01*
X301452Y460191D01*
X301452Y470969D01*
X301449Y470989D01*
X301451Y471009D01*
X301429Y471110D01*
X301413Y471212D01*
X301403Y471230D01*
X301399Y471249D01*
X301346Y471338D01*
X301298Y471429D01*
X301283Y471443D01*
X301273Y471460D01*
X301194Y471527D01*
X301119Y471599D01*
X301101Y471607D01*
X301086Y471620D01*
X300990Y471659D01*
X300896Y471702D01*
X300876Y471705D01*
X300858Y471712D01*
X300691Y471730D01*
X299928Y471730D01*
X299928Y471732D01*
X300691Y471732D01*
X300711Y471735D01*
X300731Y471733D01*
X300832Y471755D01*
X300934Y471772D01*
X300952Y471781D01*
X300971Y471785D01*
X301060Y471839D01*
X301151Y471887D01*
X301165Y471901D01*
X301182Y471912D01*
X301249Y471990D01*
X301321Y472065D01*
X301329Y472083D01*
X301342Y472099D01*
X301381Y472195D01*
X301424Y472288D01*
X301427Y472308D01*
X301434Y472327D01*
X301452Y472493D01*
X301452Y483367D01*
X301462Y483370D01*
X301502Y483402D01*
X301548Y483427D01*
X301598Y483479D01*
X301654Y483524D01*
X301682Y483567D01*
X301718Y483605D01*
X301748Y483670D01*
X301787Y483731D01*
X301799Y483781D01*
X301821Y483828D01*
X301829Y483900D01*
X301847Y483969D01*
X301843Y484021D01*
X301848Y484073D01*
X301833Y484143D01*
X301828Y484214D01*
X301807Y484262D01*
X301796Y484313D01*
X301759Y484375D01*
X301731Y484441D01*
X301686Y484497D01*
X301670Y484524D01*
X301652Y484539D01*
X301626Y484572D01*
X300790Y485408D01*
X300716Y485461D01*
X300647Y485520D01*
X300617Y485532D01*
X300591Y485551D01*
X300504Y485578D01*
X300419Y485612D01*
X300378Y485617D01*
X300356Y485623D01*
X300323Y485623D01*
X300252Y485631D01*
X298871Y485631D01*
X296499Y488002D01*
X296499Y491356D01*
X298871Y493728D01*
X300999Y493728D01*
X301089Y493743D01*
X301180Y493750D01*
X301210Y493762D01*
X301242Y493768D01*
X301322Y493810D01*
X301406Y493846D01*
X301438Y493872D01*
X301459Y493883D01*
X301481Y493906D01*
X301537Y493951D01*
X303847Y496261D01*
X303859Y496277D01*
X303874Y496290D01*
X303931Y496377D01*
X303991Y496461D01*
X303997Y496480D01*
X304007Y496497D01*
X304033Y496597D01*
X304063Y496696D01*
X304063Y496716D01*
X304068Y496735D01*
X304059Y496838D01*
X304057Y496942D01*
X304050Y496961D01*
X304048Y496980D01*
X304008Y497075D01*
X303972Y497173D01*
X303960Y497188D01*
X303952Y497207D01*
X303847Y497338D01*
X303775Y497410D01*
X303775Y500445D01*
X303772Y500465D01*
X303774Y500485D01*
X303752Y500586D01*
X303735Y500688D01*
X303726Y500706D01*
X303722Y500725D01*
X303668Y500814D01*
X303620Y500905D01*
X303606Y500919D01*
X303595Y500936D01*
X303517Y501004D01*
X303442Y501075D01*
X303424Y501083D01*
X303409Y501096D01*
X303312Y501135D01*
X303219Y501178D01*
X303199Y501181D01*
X303180Y501188D01*
X303014Y501207D01*
X293298Y501207D01*
X292405Y502100D01*
X292405Y520877D01*
X292390Y520967D01*
X292383Y521058D01*
X292370Y521088D01*
X292365Y521120D01*
X292322Y521200D01*
X292286Y521284D01*
X292261Y521316D01*
X292250Y521337D01*
X292226Y521359D01*
X292182Y521415D01*
X286509Y527087D01*
X286451Y527129D01*
X286399Y527179D01*
X286352Y527201D01*
X286309Y527231D01*
X286241Y527252D01*
X286176Y527282D01*
X286124Y527288D01*
X286074Y527303D01*
X286003Y527302D01*
X285931Y527309D01*
X285881Y527298D01*
X285829Y527297D01*
X285761Y527272D01*
X285691Y527257D01*
X285646Y527230D01*
X285597Y527213D01*
X285541Y527168D01*
X285480Y527131D01*
X285446Y527091D01*
X285405Y527059D01*
X285367Y526999D01*
X285320Y526944D01*
X285301Y526896D01*
X285272Y526852D01*
X285255Y526782D01*
X285228Y526716D01*
X285220Y526645D01*
X285212Y526613D01*
X285213Y526609D01*
X280919Y526609D01*
X280900Y526605D01*
X280880Y526608D01*
X280779Y526586D01*
X280677Y526569D01*
X280659Y526560D01*
X280639Y526555D01*
X280550Y526502D01*
X280459Y526454D01*
X280445Y526439D01*
X280428Y526429D01*
X280361Y526350D01*
X280290Y526275D01*
X280281Y526257D01*
X280268Y526242D01*
X280230Y526146D01*
X280186Y526052D01*
X280184Y526033D01*
X280176Y526014D01*
X280158Y525847D01*
X280161Y525828D01*
X280159Y525808D01*
X280181Y525706D01*
X280198Y525604D01*
X280207Y525587D01*
X280211Y525567D01*
X280265Y525478D01*
X280313Y525387D01*
X280327Y525373D01*
X280337Y525356D01*
X280416Y525289D01*
X280491Y525218D01*
X280509Y525209D01*
X280524Y525196D01*
X280621Y525157D01*
X280714Y525114D01*
X280734Y525112D01*
X280753Y525104D01*
X280919Y525086D01*
X285210Y525086D01*
X285210Y524263D01*
X285037Y523617D01*
X284702Y523037D01*
X284373Y522708D01*
X284348Y522673D01*
X284315Y522643D01*
X284276Y522573D01*
X284230Y522509D01*
X284217Y522467D01*
X284195Y522428D01*
X284181Y522350D01*
X284157Y522274D01*
X284158Y522230D01*
X284150Y522187D01*
X284162Y522108D01*
X284164Y522028D01*
X284179Y521986D01*
X284185Y521943D01*
X284243Y521810D01*
X284248Y521797D01*
X284250Y521794D01*
X284252Y521789D01*
X284297Y521712D01*
X284470Y521066D01*
X284470Y513254D01*
X277452Y513254D01*
X277452Y522405D01*
X277438Y522495D01*
X277431Y522586D01*
X277418Y522616D01*
X277413Y522648D01*
X277370Y522729D01*
X277334Y522813D01*
X277309Y522845D01*
X277298Y522865D01*
X277274Y522888D01*
X277229Y522944D01*
X277136Y523037D01*
X276801Y523617D01*
X276628Y524263D01*
X276628Y525827D01*
X276617Y525897D01*
X276615Y525969D01*
X276597Y526018D01*
X276588Y526069D01*
X276555Y526132D01*
X276530Y526200D01*
X276498Y526241D01*
X276473Y526287D01*
X276421Y526336D01*
X276377Y526392D01*
X276333Y526420D01*
X276295Y526456D01*
X276230Y526486D01*
X276170Y526525D01*
X276119Y526538D01*
X276072Y526560D01*
X276001Y526568D01*
X275931Y526585D01*
X275879Y526581D01*
X275827Y526587D01*
X275757Y526571D01*
X275686Y526566D01*
X275638Y526546D01*
X275587Y526534D01*
X275525Y526498D01*
X275460Y526470D01*
X275404Y526425D01*
X275376Y526408D01*
X275361Y526391D01*
X275329Y526365D01*
X273535Y524572D01*
X273494Y524513D01*
X273444Y524461D01*
X273422Y524414D01*
X273392Y524372D01*
X273371Y524303D01*
X273341Y524238D01*
X273335Y524187D01*
X273320Y524137D01*
X273321Y524065D01*
X273314Y523994D01*
X273325Y523943D01*
X273326Y523891D01*
X273351Y523823D01*
X273366Y523753D01*
X273392Y523709D01*
X273410Y523660D01*
X273455Y523604D01*
X273492Y523542D01*
X273532Y523509D01*
X273564Y523468D01*
X273624Y523429D01*
X273679Y523382D01*
X273727Y523363D01*
X273771Y523335D01*
X273840Y523317D01*
X273907Y523291D01*
X273978Y523283D01*
X274010Y523275D01*
X274033Y523277D01*
X274074Y523272D01*
X274406Y523272D01*
X274406Y512493D01*
X274409Y512474D01*
X274407Y512454D01*
X274429Y512353D01*
X274446Y512251D01*
X274455Y512233D01*
X274459Y512214D01*
X274513Y512125D01*
X274561Y512033D01*
X274575Y512020D01*
X274586Y512002D01*
X274664Y511935D01*
X274739Y511864D01*
X274757Y511856D01*
X274772Y511843D01*
X274869Y511804D01*
X274962Y511760D01*
X274982Y511758D01*
X275001Y511751D01*
X275167Y511732D01*
X275930Y511732D01*
X275930Y511730D01*
X275167Y511730D01*
X275148Y511727D01*
X275128Y511729D01*
X275027Y511707D01*
X274925Y511691D01*
X274907Y511681D01*
X274888Y511677D01*
X274798Y511624D01*
X274707Y511576D01*
X274694Y511561D01*
X274676Y511551D01*
X274609Y511472D01*
X274538Y511397D01*
X274529Y511379D01*
X274516Y511364D01*
X274478Y511268D01*
X274434Y511174D01*
X274432Y511154D01*
X274425Y511136D01*
X274406Y510969D01*
X274406Y500191D01*
X270541Y500191D01*
X270522Y500187D01*
X270502Y500190D01*
X270401Y500168D01*
X270299Y500151D01*
X270281Y500142D01*
X270262Y500137D01*
X270173Y500084D01*
X270081Y500036D01*
X270068Y500021D01*
X270050Y500011D01*
X269983Y499932D01*
X269912Y499857D01*
X269904Y499839D01*
X269891Y499824D01*
X269852Y499728D01*
X269808Y499634D01*
X269806Y499615D01*
X269799Y499596D01*
X269780Y499429D01*
X269780Y494569D01*
X269237Y494027D01*
X269196Y493968D01*
X269146Y493916D01*
X269124Y493869D01*
X269094Y493827D01*
X269073Y493758D01*
X269043Y493693D01*
X269037Y493642D01*
X269021Y493592D01*
X269023Y493520D01*
X269015Y493449D01*
X269027Y493398D01*
X269028Y493346D01*
X269052Y493279D01*
X269068Y493208D01*
X269094Y493164D01*
X269112Y493115D01*
X269157Y493059D01*
X269194Y492997D01*
X269233Y492964D01*
X269266Y492923D01*
X269326Y492884D01*
X269381Y492837D01*
X269429Y492818D01*
X269473Y492790D01*
X269542Y492772D01*
X269609Y492746D01*
X269680Y492738D01*
X269711Y492730D01*
X269735Y492732D01*
X269776Y492727D01*
X273363Y492727D01*
X278216Y487874D01*
X278216Y483017D01*
X278219Y482998D01*
X278217Y482978D01*
X278239Y482877D01*
X278256Y482775D01*
X278265Y482757D01*
X278269Y482737D01*
X278323Y482648D01*
X278371Y482557D01*
X278385Y482543D01*
X278395Y482526D01*
X278474Y482459D01*
X278549Y482388D01*
X278567Y482379D01*
X278582Y482366D01*
X278679Y482328D01*
X278772Y482284D01*
X278792Y482282D01*
X278811Y482275D01*
X278977Y482256D01*
X282561Y482256D01*
X283454Y481363D01*
X283454Y462100D01*
X282561Y461207D01*
X280898Y461207D01*
X280878Y461203D01*
X280858Y461206D01*
X280757Y461184D01*
X280655Y461167D01*
X280637Y461158D01*
X280618Y461153D01*
X280529Y461100D01*
X280437Y461052D01*
X280424Y461037D01*
X280407Y461027D01*
X280339Y460948D01*
X280268Y460873D01*
X280260Y460855D01*
X280247Y460840D01*
X280208Y460744D01*
X280164Y460650D01*
X280162Y460631D01*
X280155Y460612D01*
X280136Y460445D01*
X280136Y459168D01*
X280151Y459078D01*
X280158Y458987D01*
X280171Y458957D01*
X280176Y458925D01*
X280219Y458844D01*
X280254Y458761D01*
X280280Y458729D01*
X280291Y458708D01*
X280314Y458686D01*
X280359Y458630D01*
X280627Y458362D01*
X280627Y453778D01*
X280642Y453682D01*
X280649Y453615D01*
X280617Y453590D01*
X279734Y452706D01*
X275970Y452706D01*
X275838Y452838D01*
X275743Y452907D01*
X275646Y452978D01*
X275642Y452979D01*
X275639Y452982D01*
X275525Y453017D01*
X275412Y453053D01*
X275407Y453053D01*
X275403Y453054D01*
X275285Y453051D01*
X275166Y453049D01*
X275162Y453048D01*
X275158Y453048D01*
X275047Y453007D01*
X274934Y452967D01*
X274930Y452965D01*
X274927Y452963D01*
X274834Y452889D01*
X274740Y452816D01*
X274737Y452812D01*
X274735Y452810D01*
X274727Y452798D01*
X274641Y452681D01*
X274635Y452671D01*
X274162Y452198D01*
X273583Y451863D01*
X272936Y451690D01*
X272113Y451690D01*
X272113Y455980D01*
X272110Y456000D01*
X272112Y456020D01*
X272090Y456121D01*
X272074Y456223D01*
X272064Y456241D01*
X272060Y456260D01*
X272007Y456349D01*
X271959Y456441D01*
X271958Y456441D01*
X271944Y456454D01*
X271934Y456471D01*
X271934Y456472D01*
X271933Y456472D01*
X271855Y456539D01*
X271780Y456610D01*
X271762Y456619D01*
X271747Y456632D01*
X271650Y456671D01*
X271557Y456714D01*
X271537Y456716D01*
X271518Y456724D01*
X271352Y456742D01*
X267719Y456742D01*
X267631Y456728D01*
X267542Y456721D01*
X267510Y456708D01*
X267477Y456702D01*
X267398Y456661D01*
X267315Y456626D01*
X267289Y456603D01*
X267259Y456587D01*
X267198Y456522D01*
X267130Y456463D01*
X267113Y456434D01*
X267090Y456409D01*
X267052Y456328D01*
X267007Y456250D01*
X267001Y456217D01*
X266986Y456186D01*
X266976Y456097D01*
X266959Y456009D01*
X266963Y455975D01*
X266959Y455941D01*
X266978Y455854D01*
X266989Y455765D01*
X267004Y455734D01*
X267011Y455701D01*
X267057Y455624D01*
X267096Y455543D01*
X267125Y455511D01*
X267138Y455490D01*
X267162Y455469D01*
X267207Y455418D01*
X267208Y455417D01*
X267269Y455377D01*
X267325Y455330D01*
X267372Y455311D01*
X267414Y455283D01*
X267485Y455265D01*
X267553Y455238D01*
X267622Y455230D01*
X267652Y455222D01*
X267677Y455224D01*
X267720Y455219D01*
X270591Y455219D01*
X270591Y451690D01*
X269767Y451690D01*
X269121Y451863D01*
X269067Y451895D01*
X268978Y451928D01*
X268891Y451969D01*
X268863Y451972D01*
X268837Y451982D01*
X268741Y451985D01*
X268647Y451996D01*
X268619Y451990D01*
X268591Y451991D01*
X268500Y451964D01*
X268406Y451943D01*
X268382Y451929D01*
X268355Y451921D01*
X268277Y451866D01*
X268195Y451817D01*
X268177Y451796D01*
X268154Y451780D01*
X268097Y451703D01*
X268035Y451630D01*
X268025Y451604D01*
X268008Y451581D01*
X267979Y451491D01*
X267943Y451402D01*
X267939Y451367D01*
X267933Y451347D01*
X267934Y451314D01*
X267925Y451235D01*
X267925Y450936D01*
X267793Y450804D01*
X267724Y450708D01*
X267653Y450611D01*
X267652Y450607D01*
X267649Y450604D01*
X267614Y450491D01*
X267578Y450377D01*
X267578Y450373D01*
X267577Y450369D01*
X267580Y450251D01*
X267582Y450131D01*
X267583Y450127D01*
X267583Y450123D01*
X267624Y450012D01*
X267664Y449899D01*
X267666Y449896D01*
X267668Y449892D01*
X267742Y449799D01*
X267815Y449705D01*
X267819Y449703D01*
X267821Y449700D01*
X267833Y449692D01*
X267950Y449606D01*
X267960Y449600D01*
X268433Y449127D01*
X268768Y448548D01*
X268941Y447902D01*
X268941Y447079D01*
X264651Y447079D01*
X264650Y447079D01*
X260359Y447079D01*
X260359Y447902D01*
X260533Y448548D01*
X260867Y449127D01*
X261340Y449600D01*
X261350Y449606D01*
X261440Y449680D01*
X261535Y449756D01*
X261537Y449759D01*
X261540Y449762D01*
X261603Y449861D01*
X261668Y449963D01*
X261669Y449967D01*
X261671Y449970D01*
X261699Y450086D01*
X261728Y450201D01*
X261728Y450205D01*
X261729Y450209D01*
X261718Y450328D01*
X261709Y450446D01*
X261707Y450450D01*
X261707Y450454D01*
X261659Y450563D01*
X261612Y450673D01*
X261609Y450677D01*
X261608Y450680D01*
X261599Y450690D01*
X261508Y450804D01*
X261375Y450936D01*
X261375Y454699D01*
X261467Y454791D01*
X261479Y454807D01*
X261495Y454820D01*
X261551Y454907D01*
X261611Y454991D01*
X261617Y455010D01*
X261628Y455026D01*
X261653Y455127D01*
X261683Y455226D01*
X261683Y455246D01*
X261688Y455265D01*
X261680Y455368D01*
X261677Y455472D01*
X261670Y455490D01*
X261669Y455510D01*
X261628Y455605D01*
X261593Y455703D01*
X261580Y455718D01*
X261572Y455737D01*
X261467Y455867D01*
X255206Y462129D01*
X255206Y481931D01*
X255203Y481950D01*
X255205Y481970D01*
X255183Y482071D01*
X255166Y482173D01*
X255157Y482191D01*
X255152Y482210D01*
X255099Y482299D01*
X255051Y482391D01*
X255037Y482404D01*
X255026Y482421D01*
X254948Y482489D01*
X254873Y482560D01*
X254855Y482568D01*
X254839Y482581D01*
X254743Y482620D01*
X254650Y482664D01*
X254630Y482666D01*
X254611Y482673D01*
X254445Y482692D01*
X250118Y482692D01*
X250047Y482680D01*
X249975Y482678D01*
X249926Y482660D01*
X249875Y482652D01*
X249812Y482618D01*
X249744Y482594D01*
X249704Y482561D01*
X249658Y482537D01*
X249608Y482485D01*
X249552Y482440D01*
X249524Y482396D01*
X249488Y482359D01*
X249458Y482294D01*
X249419Y482233D01*
X249407Y482183D01*
X249385Y482136D01*
X249377Y482064D01*
X249359Y481995D01*
X249363Y481943D01*
X249358Y481891D01*
X249373Y481821D01*
X249378Y481749D01*
X249399Y481702D01*
X249410Y481651D01*
X249442Y481597D01*
X249442Y460812D01*
X249445Y460792D01*
X249443Y460772D01*
X249465Y460671D01*
X249481Y460569D01*
X249491Y460551D01*
X249495Y460532D01*
X249548Y460443D01*
X249596Y460352D01*
X249611Y460338D01*
X249621Y460321D01*
X249700Y460254D01*
X249775Y460182D01*
X249793Y460174D01*
X249808Y460161D01*
X249904Y460122D01*
X249998Y460079D01*
X250018Y460076D01*
X250036Y460069D01*
X250203Y460051D01*
X251308Y460051D01*
X252202Y459157D01*
X252202Y454394D01*
X251936Y454129D01*
X251883Y454055D01*
X251824Y453986D01*
X251812Y453956D01*
X251793Y453929D01*
X251766Y453843D01*
X251732Y453758D01*
X251727Y453717D01*
X251721Y453694D01*
X251721Y453662D01*
X251714Y453591D01*
X251714Y445958D01*
X251728Y445868D01*
X251735Y445777D01*
X251748Y445747D01*
X251753Y445715D01*
X251796Y445635D01*
X251832Y445551D01*
X251857Y445519D01*
X251868Y445498D01*
X251892Y445476D01*
X251936Y445420D01*
X256943Y440413D01*
X257017Y440360D01*
X257086Y440301D01*
X257116Y440289D01*
X257143Y440270D01*
X257230Y440243D01*
X257314Y440209D01*
X257355Y440204D01*
X257378Y440197D01*
X257410Y440198D01*
X257481Y440190D01*
X296433Y440190D01*
X296523Y440205D01*
G37*
%LPC*%
G36*
X318904Y427005D02*
X318904Y427005D01*
X316532Y429377D01*
X316532Y432731D01*
X318904Y435103D01*
X322258Y435103D01*
X323797Y433564D01*
X323871Y433511D01*
X323940Y433451D01*
X323971Y433439D01*
X323997Y433420D01*
X324084Y433393D01*
X324169Y433359D01*
X324210Y433355D01*
X324232Y433348D01*
X324264Y433349D01*
X324335Y433341D01*
X345353Y433341D01*
X345443Y433355D01*
X345534Y433363D01*
X345563Y433375D01*
X345595Y433380D01*
X345676Y433423D01*
X345760Y433459D01*
X345792Y433485D01*
X345813Y433496D01*
X345835Y433519D01*
X345891Y433564D01*
X348534Y436207D01*
X348587Y436281D01*
X348647Y436351D01*
X348659Y436381D01*
X348678Y436407D01*
X348705Y436494D01*
X348739Y436579D01*
X348743Y436620D01*
X348750Y436642D01*
X348749Y436674D01*
X348757Y436745D01*
X348757Y439476D01*
X348743Y439566D01*
X348735Y439657D01*
X348723Y439686D01*
X348718Y439718D01*
X348675Y439799D01*
X348639Y439883D01*
X348613Y439915D01*
X348602Y439936D01*
X348579Y439958D01*
X348534Y440014D01*
X346995Y441553D01*
X346995Y444907D01*
X348525Y446437D01*
X348578Y446511D01*
X348637Y446580D01*
X348650Y446610D01*
X348668Y446636D01*
X348695Y446723D01*
X348729Y446808D01*
X348734Y446849D01*
X348741Y446871D01*
X348740Y446904D01*
X348748Y446975D01*
X348748Y463839D01*
X360036Y475126D01*
X372065Y475126D01*
X372155Y475141D01*
X372246Y475148D01*
X372275Y475161D01*
X372307Y475166D01*
X372388Y475209D01*
X372472Y475244D01*
X372504Y475270D01*
X372525Y475281D01*
X372547Y475304D01*
X372603Y475349D01*
X375107Y477853D01*
X378461Y477853D01*
X380833Y475482D01*
X380833Y472128D01*
X379740Y471035D01*
X379728Y471019D01*
X379713Y471006D01*
X379657Y470919D01*
X379597Y470835D01*
X379591Y470816D01*
X379580Y470799D01*
X379555Y470699D01*
X379524Y470600D01*
X379525Y470580D01*
X379520Y470561D01*
X379528Y470458D01*
X379531Y470354D01*
X379537Y470335D01*
X379539Y470316D01*
X379579Y470221D01*
X379615Y470123D01*
X379627Y470108D01*
X379635Y470089D01*
X379740Y469958D01*
X380869Y468830D01*
X380869Y465476D01*
X378497Y463104D01*
X375143Y463104D01*
X373604Y464643D01*
X373530Y464696D01*
X373460Y464756D01*
X373430Y464768D01*
X373404Y464787D01*
X373317Y464813D01*
X373232Y464848D01*
X373191Y464852D01*
X373169Y464859D01*
X373137Y464858D01*
X373066Y464866D01*
X362190Y464866D01*
X362100Y464851D01*
X362009Y464844D01*
X361979Y464832D01*
X361947Y464826D01*
X361866Y464784D01*
X361782Y464748D01*
X361750Y464722D01*
X361730Y464711D01*
X361707Y464688D01*
X361651Y464643D01*
X359227Y462219D01*
X359174Y462145D01*
X359115Y462076D01*
X359103Y462045D01*
X359084Y462019D01*
X359057Y461932D01*
X359023Y461847D01*
X359018Y461806D01*
X359011Y461784D01*
X359012Y461752D01*
X359004Y461681D01*
X359004Y455508D01*
X359006Y455499D01*
X359005Y455495D01*
X359010Y455475D01*
X359020Y455414D01*
X359028Y455319D01*
X359040Y455293D01*
X359044Y455265D01*
X359089Y455181D01*
X359127Y455094D01*
X359146Y455073D01*
X359159Y455048D01*
X359228Y454982D01*
X359292Y454912D01*
X359317Y454898D01*
X359338Y454878D01*
X359424Y454838D01*
X359507Y454792D01*
X359535Y454787D01*
X359561Y454775D01*
X359655Y454764D01*
X359749Y454747D01*
X359777Y454751D01*
X359805Y454748D01*
X359898Y454768D01*
X359993Y454781D01*
X360025Y454795D01*
X360045Y454800D01*
X360074Y454817D01*
X360146Y454849D01*
X362716Y456332D01*
X369140Y456332D01*
X371733Y454835D01*
X373231Y452241D01*
X373231Y449060D01*
X373231Y443099D01*
X371733Y440505D01*
X369140Y439008D01*
X362716Y439008D01*
X360146Y440491D01*
X360057Y440525D01*
X359971Y440565D01*
X359943Y440568D01*
X359916Y440578D01*
X359821Y440582D01*
X359726Y440592D01*
X359699Y440586D01*
X359670Y440587D01*
X359579Y440560D01*
X359486Y440540D01*
X359462Y440525D01*
X359434Y440517D01*
X359356Y440463D01*
X359275Y440414D01*
X359256Y440392D01*
X359233Y440376D01*
X359177Y440299D01*
X359115Y440227D01*
X359104Y440201D01*
X359087Y440178D01*
X359058Y440087D01*
X359023Y439999D01*
X359019Y439963D01*
X359013Y439944D01*
X359013Y439911D01*
X359004Y439832D01*
X359004Y436625D01*
X359019Y436535D01*
X359026Y436444D01*
X359039Y436414D01*
X359044Y436382D01*
X359087Y436302D01*
X359122Y436218D01*
X359148Y436185D01*
X359159Y436165D01*
X359182Y436143D01*
X359227Y436087D01*
X361642Y433672D01*
X361642Y430318D01*
X359270Y427946D01*
X355916Y427946D01*
X353545Y430318D01*
X353545Y432912D01*
X353533Y432983D01*
X353531Y433054D01*
X353513Y433103D01*
X353505Y433155D01*
X353471Y433218D01*
X353447Y433285D01*
X353414Y433326D01*
X353390Y433372D01*
X353338Y433421D01*
X353293Y433477D01*
X353249Y433506D01*
X353211Y433541D01*
X353146Y433572D01*
X353086Y433610D01*
X353036Y433623D01*
X352988Y433645D01*
X352917Y433653D01*
X352848Y433670D01*
X352796Y433666D01*
X352744Y433672D01*
X352674Y433657D01*
X352602Y433651D01*
X352555Y433631D01*
X352504Y433620D01*
X352442Y433583D01*
X352376Y433555D01*
X352320Y433510D01*
X352292Y433494D01*
X352277Y433476D01*
X352245Y433450D01*
X349125Y430330D01*
X347562Y428767D01*
X324335Y428767D01*
X324245Y428753D01*
X324154Y428745D01*
X324125Y428733D01*
X324093Y428728D01*
X324012Y428685D01*
X323928Y428649D01*
X323896Y428623D01*
X323875Y428612D01*
X323853Y428589D01*
X323797Y428544D01*
X322258Y427005D01*
X318904Y427005D01*
G37*
%LPD*%
G36*
X371878Y518646D02*
X371878Y518646D01*
X371950Y518651D01*
X371997Y518672D01*
X372048Y518683D01*
X372110Y518720D01*
X372176Y518748D01*
X372232Y518792D01*
X372260Y518809D01*
X372275Y518827D01*
X372307Y518852D01*
X372742Y519288D01*
X372796Y519362D01*
X372855Y519431D01*
X372867Y519461D01*
X372886Y519488D01*
X372913Y519575D01*
X372947Y519659D01*
X372951Y519700D01*
X372958Y519723D01*
X372957Y519755D01*
X372965Y519826D01*
X372965Y520183D01*
X372950Y520273D01*
X372943Y520364D01*
X372931Y520394D01*
X372925Y520426D01*
X372883Y520507D01*
X372847Y520591D01*
X372821Y520623D01*
X372810Y520644D01*
X372787Y520666D01*
X372742Y520722D01*
X371977Y521487D01*
X371977Y525250D01*
X372807Y526080D01*
X372819Y526096D01*
X372835Y526109D01*
X372891Y526196D01*
X372951Y526280D01*
X372957Y526299D01*
X372968Y526315D01*
X372993Y526416D01*
X373023Y526515D01*
X373023Y526535D01*
X373028Y526554D01*
X373020Y526657D01*
X373017Y526761D01*
X373010Y526779D01*
X373009Y526799D01*
X372968Y526894D01*
X372932Y526992D01*
X372920Y527007D01*
X372912Y527026D01*
X372807Y527157D01*
X372605Y527359D01*
X372531Y527412D01*
X372462Y527471D01*
X372432Y527483D01*
X372406Y527502D01*
X372328Y527526D01*
X362841Y537014D01*
X362767Y537067D01*
X362697Y537126D01*
X362667Y537138D01*
X362641Y537157D01*
X362554Y537184D01*
X362469Y537218D01*
X362428Y537223D01*
X362406Y537230D01*
X362374Y537229D01*
X362302Y537237D01*
X348511Y537237D01*
X346302Y537237D01*
X344739Y538799D01*
X310920Y572618D01*
X310846Y572671D01*
X310777Y572731D01*
X310747Y572743D01*
X310721Y572762D01*
X310634Y572788D01*
X310549Y572822D01*
X310508Y572827D01*
X310485Y572834D01*
X310453Y572833D01*
X310382Y572841D01*
X291792Y572841D01*
X291702Y572826D01*
X291611Y572819D01*
X291581Y572806D01*
X291549Y572801D01*
X291468Y572758D01*
X291384Y572723D01*
X291352Y572697D01*
X291332Y572686D01*
X291309Y572663D01*
X291253Y572618D01*
X288937Y570301D01*
X288884Y570227D01*
X288824Y570158D01*
X288812Y570128D01*
X288793Y570101D01*
X288766Y570014D01*
X288732Y569930D01*
X288728Y569889D01*
X288721Y569866D01*
X288722Y569834D01*
X288714Y569763D01*
X288714Y565076D01*
X288728Y564986D01*
X288736Y564895D01*
X288748Y564866D01*
X288753Y564834D01*
X288796Y564753D01*
X288832Y564669D01*
X288858Y564637D01*
X288868Y564616D01*
X288892Y564594D01*
X288937Y564538D01*
X290902Y562573D01*
X291297Y562178D01*
X291371Y562124D01*
X291441Y562065D01*
X291471Y562053D01*
X291497Y562034D01*
X291584Y562007D01*
X291669Y561973D01*
X291710Y561968D01*
X291732Y561962D01*
X291764Y561962D01*
X291836Y561954D01*
X292559Y561954D01*
X293452Y561061D01*
X293452Y557298D01*
X293320Y557166D01*
X293251Y557071D01*
X293180Y556974D01*
X293179Y556970D01*
X293176Y556966D01*
X293141Y556853D01*
X293105Y556739D01*
X293105Y556735D01*
X293104Y556731D01*
X293107Y556613D01*
X293109Y556493D01*
X293110Y556490D01*
X293110Y556485D01*
X293151Y556374D01*
X293191Y556262D01*
X293193Y556258D01*
X293195Y556254D01*
X293269Y556161D01*
X293342Y556068D01*
X293346Y556065D01*
X293348Y556062D01*
X293360Y556055D01*
X293478Y555968D01*
X293487Y555963D01*
X293960Y555490D01*
X294295Y554911D01*
X294301Y554886D01*
X294340Y554800D01*
X294373Y554710D01*
X294391Y554688D01*
X294402Y554662D01*
X294467Y554592D01*
X294527Y554518D01*
X294551Y554503D01*
X294570Y554482D01*
X294653Y554437D01*
X294734Y554385D01*
X294761Y554378D01*
X294786Y554365D01*
X294880Y554348D01*
X294972Y554325D01*
X295000Y554327D01*
X295028Y554322D01*
X295123Y554337D01*
X295218Y554344D01*
X295243Y554355D01*
X295271Y554359D01*
X295356Y554403D01*
X295444Y554440D01*
X295471Y554462D01*
X295490Y554472D01*
X295513Y554496D01*
X295575Y554545D01*
X296908Y555878D01*
X299084Y555878D01*
X299174Y555893D01*
X299265Y555900D01*
X299295Y555912D01*
X299327Y555918D01*
X299408Y555960D01*
X299491Y555996D01*
X299524Y556022D01*
X299544Y556033D01*
X299566Y556056D01*
X299622Y556101D01*
X300327Y556806D01*
X306588Y556806D01*
X306679Y556820D01*
X306769Y556827D01*
X306799Y556840D01*
X306831Y556845D01*
X306912Y556888D01*
X306996Y556924D01*
X307028Y556949D01*
X307049Y556960D01*
X307071Y556984D01*
X307127Y557029D01*
X307671Y557573D01*
X308902Y557573D01*
X308972Y557585D01*
X309044Y557586D01*
X309093Y557604D01*
X309144Y557613D01*
X309208Y557646D01*
X309275Y557671D01*
X309316Y557703D01*
X309362Y557728D01*
X309411Y557780D01*
X309467Y557825D01*
X309495Y557868D01*
X309531Y557906D01*
X309561Y557971D01*
X309600Y558032D01*
X309613Y558082D01*
X309635Y558129D01*
X309643Y558201D01*
X309660Y558270D01*
X309656Y558322D01*
X309662Y558374D01*
X309647Y558444D01*
X309641Y558515D01*
X309621Y558563D01*
X309610Y558614D01*
X309573Y558676D01*
X309545Y558742D01*
X309500Y558798D01*
X309483Y558825D01*
X309466Y558840D01*
X309440Y558873D01*
X303827Y564486D01*
X303753Y564539D01*
X303683Y564598D01*
X303653Y564610D01*
X303627Y564629D01*
X303540Y564656D01*
X303455Y564690D01*
X303414Y564695D01*
X303392Y564702D01*
X303360Y564701D01*
X303288Y564709D01*
X299563Y564709D01*
X299473Y564694D01*
X299382Y564687D01*
X299352Y564674D01*
X299320Y564669D01*
X299240Y564626D01*
X299156Y564590D01*
X299124Y564565D01*
X299103Y564554D01*
X299081Y564530D01*
X299025Y564486D01*
X297486Y562947D01*
X294132Y562947D01*
X291760Y565318D01*
X291760Y568672D01*
X294132Y571044D01*
X297486Y571044D01*
X299025Y569505D01*
X299099Y569452D01*
X299168Y569393D01*
X299198Y569380D01*
X299225Y569362D01*
X299312Y569335D01*
X299396Y569301D01*
X299437Y569296D01*
X299460Y569289D01*
X299492Y569290D01*
X299563Y569282D01*
X305498Y569282D01*
X307061Y567720D01*
X315174Y559607D01*
X315174Y559606D01*
X316736Y558044D01*
X316736Y549716D01*
X316751Y549626D01*
X316758Y549535D01*
X316771Y549505D01*
X316776Y549473D01*
X316819Y549393D01*
X316854Y549309D01*
X316880Y549277D01*
X316891Y549256D01*
X316914Y549234D01*
X316959Y549178D01*
X322831Y543306D01*
X322831Y539802D01*
X322834Y539783D01*
X322832Y539763D01*
X322854Y539662D01*
X322871Y539560D01*
X322880Y539542D01*
X322884Y539522D01*
X322938Y539433D01*
X322986Y539342D01*
X323000Y539328D01*
X323011Y539311D01*
X323089Y539244D01*
X323164Y539173D01*
X323182Y539164D01*
X323197Y539151D01*
X323294Y539113D01*
X323387Y539069D01*
X323407Y539067D01*
X323426Y539060D01*
X323592Y539041D01*
X330499Y539041D01*
X333178Y536362D01*
X333178Y534171D01*
X333181Y534152D01*
X333179Y534132D01*
X333201Y534031D01*
X333218Y533929D01*
X333227Y533911D01*
X333231Y533892D01*
X333284Y533803D01*
X333333Y533711D01*
X333347Y533698D01*
X333357Y533680D01*
X333436Y533613D01*
X333511Y533542D01*
X333529Y533534D01*
X333544Y533521D01*
X333640Y533482D01*
X333734Y533438D01*
X333754Y533436D01*
X333772Y533429D01*
X333939Y533410D01*
X354273Y533410D01*
X355836Y531848D01*
X365831Y521852D01*
X365905Y521799D01*
X365974Y521740D01*
X366005Y521728D01*
X366031Y521709D01*
X366118Y521682D01*
X366203Y521648D01*
X366244Y521643D01*
X366266Y521636D01*
X366298Y521637D01*
X366369Y521629D01*
X368636Y521629D01*
X371023Y519242D01*
X371039Y519199D01*
X371047Y519148D01*
X371081Y519085D01*
X371105Y519017D01*
X371138Y518977D01*
X371162Y518931D01*
X371214Y518881D01*
X371259Y518825D01*
X371303Y518797D01*
X371341Y518761D01*
X371406Y518731D01*
X371466Y518692D01*
X371516Y518680D01*
X371564Y518658D01*
X371635Y518650D01*
X371704Y518632D01*
X371756Y518636D01*
X371808Y518630D01*
X371878Y518646D01*
G37*
%LPC*%
G36*
X125347Y580356D02*
X125347Y580356D01*
X125347Y584647D01*
X125347Y588938D01*
X126170Y588938D01*
X126816Y588765D01*
X127396Y588430D01*
X127869Y587957D01*
X127874Y587947D01*
X127949Y587856D01*
X128024Y587762D01*
X128028Y587760D01*
X128030Y587757D01*
X128130Y587695D01*
X128231Y587629D01*
X128235Y587628D01*
X128239Y587626D01*
X128354Y587598D01*
X128469Y587569D01*
X128474Y587570D01*
X128478Y587569D01*
X128596Y587579D01*
X128715Y587589D01*
X128719Y587590D01*
X128723Y587591D01*
X128831Y587638D01*
X128941Y587685D01*
X128945Y587688D01*
X128948Y587689D01*
X128958Y587698D01*
X129072Y587790D01*
X129204Y587922D01*
X132967Y587922D01*
X133732Y587157D01*
X133806Y587104D01*
X133876Y587044D01*
X133906Y587032D01*
X133932Y587013D01*
X134019Y586986D01*
X134104Y586952D01*
X134145Y586948D01*
X134167Y586941D01*
X134199Y586942D01*
X134271Y586934D01*
X137602Y586934D01*
X137622Y586937D01*
X137642Y586935D01*
X137743Y586957D01*
X137845Y586974D01*
X137863Y586983D01*
X137882Y586987D01*
X137971Y587040D01*
X138062Y587089D01*
X138076Y587103D01*
X138093Y587113D01*
X138160Y587192D01*
X138232Y587267D01*
X138240Y587285D01*
X138253Y587300D01*
X138292Y587396D01*
X138335Y587490D01*
X138338Y587510D01*
X138345Y587528D01*
X138363Y587695D01*
X138363Y589636D01*
X139257Y590529D01*
X154520Y590529D01*
X155413Y589636D01*
X155413Y588552D01*
X155416Y588532D01*
X155414Y588513D01*
X155436Y588411D01*
X155453Y588309D01*
X155462Y588292D01*
X155466Y588272D01*
X155519Y588183D01*
X155568Y588092D01*
X155582Y588078D01*
X155592Y588061D01*
X155671Y587994D01*
X155746Y587923D01*
X155764Y587914D01*
X155779Y587901D01*
X155876Y587863D01*
X155969Y587819D01*
X155989Y587817D01*
X156007Y587809D01*
X156174Y587791D01*
X175892Y587791D01*
X175983Y587806D01*
X176073Y587813D01*
X176103Y587825D01*
X176135Y587831D01*
X176216Y587873D01*
X176300Y587909D01*
X176332Y587935D01*
X176353Y587946D01*
X176375Y587969D01*
X176431Y588014D01*
X178386Y589969D01*
X178439Y590043D01*
X178499Y590113D01*
X178511Y590143D01*
X178530Y590169D01*
X178557Y590256D01*
X178591Y590341D01*
X178595Y590382D01*
X178602Y590404D01*
X178601Y590436D01*
X178609Y590508D01*
X178609Y592684D01*
X180981Y595056D01*
X184335Y595056D01*
X186707Y592684D01*
X186707Y589330D01*
X184335Y586958D01*
X182159Y586958D01*
X182068Y586944D01*
X181978Y586937D01*
X181948Y586924D01*
X181916Y586919D01*
X181835Y586876D01*
X181751Y586840D01*
X181719Y586815D01*
X181698Y586804D01*
X181676Y586780D01*
X181620Y586736D01*
X178102Y583217D01*
X156174Y583217D01*
X156154Y583214D01*
X156135Y583216D01*
X156033Y583194D01*
X155931Y583178D01*
X155914Y583168D01*
X155894Y583164D01*
X155805Y583111D01*
X155714Y583063D01*
X155700Y583048D01*
X155683Y583038D01*
X155616Y582959D01*
X155545Y582884D01*
X155536Y582866D01*
X155523Y582851D01*
X155485Y582755D01*
X155441Y582661D01*
X155439Y582641D01*
X155431Y582623D01*
X155413Y582456D01*
X155413Y581373D01*
X154520Y580479D01*
X139257Y580479D01*
X138363Y581373D01*
X138363Y581599D01*
X138360Y581619D01*
X138362Y581639D01*
X138340Y581740D01*
X138324Y581842D01*
X138314Y581859D01*
X138310Y581879D01*
X138257Y581968D01*
X138209Y582059D01*
X138194Y582073D01*
X138184Y582090D01*
X138105Y582157D01*
X138030Y582229D01*
X138012Y582237D01*
X137997Y582250D01*
X137901Y582289D01*
X137807Y582332D01*
X137787Y582334D01*
X137769Y582342D01*
X137602Y582360D01*
X134271Y582360D01*
X134180Y582346D01*
X134090Y582338D01*
X134060Y582326D01*
X134028Y582321D01*
X133947Y582278D01*
X133863Y582242D01*
X133831Y582216D01*
X133810Y582206D01*
X133788Y582182D01*
X133732Y582137D01*
X132967Y581372D01*
X129204Y581372D01*
X129072Y581504D01*
X128977Y581573D01*
X128880Y581644D01*
X128876Y581646D01*
X128872Y581648D01*
X128759Y581683D01*
X128645Y581719D01*
X128641Y581719D01*
X128637Y581720D01*
X128519Y581717D01*
X128399Y581716D01*
X128395Y581714D01*
X128391Y581714D01*
X128280Y581673D01*
X128167Y581634D01*
X128164Y581631D01*
X128160Y581630D01*
X128067Y581555D01*
X127974Y581482D01*
X127971Y581478D01*
X127968Y581476D01*
X127961Y581464D01*
X127874Y581347D01*
X127869Y581337D01*
X127396Y580864D01*
X126816Y580529D01*
X126170Y580356D01*
X125347Y580356D01*
G37*
%LPD*%
G36*
X339191Y502378D02*
X339191Y502378D01*
X339282Y502385D01*
X339312Y502397D01*
X339344Y502403D01*
X339425Y502445D01*
X339509Y502481D01*
X339541Y502507D01*
X339561Y502518D01*
X339584Y502541D01*
X339640Y502586D01*
X341732Y504678D01*
X341785Y504752D01*
X341844Y504821D01*
X341856Y504852D01*
X341875Y504878D01*
X341902Y504965D01*
X341936Y505050D01*
X341941Y505090D01*
X341948Y505113D01*
X341947Y505145D01*
X341955Y505216D01*
X341955Y519323D01*
X343835Y521203D01*
X343877Y521261D01*
X343926Y521313D01*
X343948Y521361D01*
X343978Y521403D01*
X343999Y521471D01*
X344030Y521536D01*
X344035Y521588D01*
X344051Y521638D01*
X344049Y521710D01*
X344057Y521781D01*
X344046Y521832D01*
X344044Y521884D01*
X344020Y521951D01*
X344004Y522021D01*
X343978Y522066D01*
X343960Y522115D01*
X343915Y522171D01*
X343878Y522232D01*
X343839Y522266D01*
X343806Y522307D01*
X343746Y522346D01*
X343691Y522392D01*
X343643Y522412D01*
X343599Y522440D01*
X343530Y522457D01*
X343463Y522484D01*
X343392Y522492D01*
X343361Y522500D01*
X343337Y522498D01*
X343296Y522503D01*
X340089Y522503D01*
X339999Y522488D01*
X339908Y522481D01*
X339879Y522468D01*
X339847Y522463D01*
X339766Y522420D01*
X339682Y522385D01*
X339650Y522359D01*
X339629Y522348D01*
X339607Y522324D01*
X339551Y522280D01*
X335953Y518682D01*
X332964Y518682D01*
X332893Y518670D01*
X332821Y518668D01*
X332772Y518650D01*
X332721Y518642D01*
X332657Y518608D01*
X332590Y518584D01*
X332549Y518551D01*
X332503Y518527D01*
X332454Y518475D01*
X332398Y518430D01*
X332370Y518386D01*
X332334Y518348D01*
X332304Y518283D01*
X332265Y518223D01*
X332252Y518173D01*
X332230Y518125D01*
X332223Y518054D01*
X332205Y517985D01*
X332209Y517933D01*
X332203Y517881D01*
X332219Y517811D01*
X332224Y517739D01*
X332245Y517691D01*
X332256Y517641D01*
X332292Y517579D01*
X332320Y517513D01*
X332365Y517457D01*
X332382Y517429D01*
X332400Y517414D01*
X332425Y517382D01*
X334853Y514954D01*
X334927Y514901D01*
X334997Y514841D01*
X335027Y514829D01*
X335047Y514815D01*
X337502Y512359D01*
X337502Y509005D01*
X335131Y506633D01*
X331777Y506633D01*
X329405Y509005D01*
X329405Y512359D01*
X329654Y512609D01*
X329666Y512625D01*
X329682Y512637D01*
X329738Y512724D01*
X329798Y512808D01*
X329804Y512827D01*
X329815Y512844D01*
X329840Y512944D01*
X329870Y513043D01*
X329870Y513063D01*
X329875Y513083D01*
X329867Y513186D01*
X329864Y513289D01*
X329857Y513308D01*
X329855Y513328D01*
X329815Y513423D01*
X329779Y513520D01*
X329767Y513536D01*
X329759Y513554D01*
X329654Y513685D01*
X326619Y516721D01*
X326545Y516774D01*
X326475Y516833D01*
X326445Y516845D01*
X326419Y516864D01*
X326332Y516891D01*
X326247Y516925D01*
X326206Y516930D01*
X326184Y516937D01*
X326152Y516936D01*
X326081Y516944D01*
X321974Y516944D01*
X321810Y517107D01*
X321752Y517149D01*
X321700Y517198D01*
X321653Y517220D01*
X321610Y517251D01*
X321542Y517272D01*
X321477Y517302D01*
X321425Y517308D01*
X321375Y517323D01*
X321303Y517321D01*
X321232Y517329D01*
X321181Y517318D01*
X321129Y517317D01*
X321062Y517292D01*
X320992Y517277D01*
X320947Y517250D01*
X320898Y517232D01*
X320842Y517187D01*
X320781Y517151D01*
X320747Y517111D01*
X320706Y517079D01*
X320668Y517018D01*
X320621Y516964D01*
X320601Y516915D01*
X320573Y516872D01*
X320556Y516802D01*
X320529Y516736D01*
X320521Y516664D01*
X320513Y516633D01*
X320515Y516610D01*
X320510Y516569D01*
X320510Y515629D01*
X320514Y515609D01*
X320512Y515589D01*
X320534Y515488D01*
X320550Y515386D01*
X320560Y515368D01*
X320564Y515349D01*
X320617Y515260D01*
X320665Y515169D01*
X320680Y515155D01*
X320690Y515138D01*
X320769Y515070D01*
X320844Y514999D01*
X320862Y514991D01*
X320877Y514978D01*
X320973Y514939D01*
X321067Y514896D01*
X321086Y514893D01*
X321105Y514886D01*
X321272Y514867D01*
X321626Y514867D01*
X323997Y512496D01*
X323997Y509142D01*
X321626Y506770D01*
X318271Y506770D01*
X315900Y509142D01*
X315900Y512635D01*
X315919Y512682D01*
X315923Y512723D01*
X315930Y512745D01*
X315929Y512777D01*
X315937Y512848D01*
X315937Y528040D01*
X315922Y528130D01*
X315915Y528221D01*
X315902Y528251D01*
X315897Y528283D01*
X315855Y528363D01*
X315819Y528447D01*
X315793Y528479D01*
X315782Y528500D01*
X315759Y528522D01*
X315714Y528578D01*
X315483Y528810D01*
X315387Y528879D01*
X315290Y528949D01*
X315286Y528951D01*
X315283Y528953D01*
X315169Y528988D01*
X315056Y529024D01*
X315052Y529024D01*
X315048Y529026D01*
X314929Y529022D01*
X314810Y529021D01*
X314806Y529019D01*
X314802Y529019D01*
X314691Y528979D01*
X314578Y528939D01*
X314575Y528936D01*
X314571Y528935D01*
X314478Y528860D01*
X314384Y528787D01*
X314381Y528783D01*
X314379Y528781D01*
X314371Y528769D01*
X314285Y528652D01*
X314279Y528642D01*
X313806Y528169D01*
X313227Y527835D01*
X312581Y527661D01*
X312517Y527661D01*
X312446Y527650D01*
X312374Y527648D01*
X312326Y527630D01*
X312274Y527622D01*
X312211Y527588D01*
X312143Y527564D01*
X312103Y527531D01*
X312057Y527507D01*
X312007Y527455D01*
X311951Y527410D01*
X311923Y527366D01*
X311887Y527328D01*
X311857Y527263D01*
X311818Y527203D01*
X311806Y527152D01*
X311784Y527105D01*
X311776Y527034D01*
X311758Y526964D01*
X311762Y526912D01*
X311757Y526861D01*
X311772Y526791D01*
X311778Y526719D01*
X311798Y526671D01*
X311809Y526620D01*
X311846Y526559D01*
X311874Y526493D01*
X311919Y526437D01*
X311935Y526409D01*
X311953Y526394D01*
X311979Y526362D01*
X312289Y526052D01*
X312289Y525109D01*
X312289Y523843D01*
X312289Y523842D01*
X312289Y515468D01*
X312303Y515378D01*
X312311Y515287D01*
X312323Y515257D01*
X312328Y515225D01*
X312371Y515144D01*
X312407Y515060D01*
X312433Y515028D01*
X312443Y515008D01*
X312467Y514986D01*
X312512Y514930D01*
X314051Y513391D01*
X314051Y510036D01*
X311679Y507665D01*
X308215Y507665D01*
X308196Y507662D01*
X308176Y507664D01*
X308075Y507642D01*
X307973Y507625D01*
X307955Y507616D01*
X307935Y507611D01*
X307846Y507558D01*
X307755Y507510D01*
X307741Y507496D01*
X307724Y507485D01*
X307657Y507407D01*
X307586Y507332D01*
X307577Y507314D01*
X307564Y507298D01*
X307526Y507202D01*
X307482Y507109D01*
X307480Y507089D01*
X307472Y507070D01*
X307454Y506904D01*
X307454Y503897D01*
X307457Y503877D01*
X307455Y503857D01*
X307477Y503756D01*
X307494Y503654D01*
X307503Y503637D01*
X307507Y503617D01*
X307561Y503528D01*
X307609Y503437D01*
X307623Y503423D01*
X307633Y503406D01*
X307712Y503339D01*
X307787Y503267D01*
X307805Y503259D01*
X307820Y503246D01*
X307917Y503207D01*
X308010Y503164D01*
X308030Y503162D01*
X308049Y503154D01*
X308215Y503136D01*
X309517Y503136D01*
X309561Y503094D01*
X309608Y503072D01*
X309650Y503042D01*
X309719Y503021D01*
X309784Y502991D01*
X309836Y502985D01*
X309885Y502970D01*
X309957Y502972D01*
X310028Y502964D01*
X310079Y502975D01*
X310131Y502976D01*
X310199Y503001D01*
X310269Y503016D01*
X310313Y503043D01*
X310362Y503061D01*
X310418Y503105D01*
X310480Y503142D01*
X310514Y503182D01*
X310554Y503214D01*
X310593Y503275D01*
X310640Y503329D01*
X310659Y503377D01*
X310687Y503421D01*
X310705Y503491D01*
X310732Y503557D01*
X310740Y503628D01*
X310748Y503660D01*
X310746Y503683D01*
X310747Y503692D01*
X311643Y504589D01*
X318907Y504589D01*
X319800Y503695D01*
X319800Y503124D01*
X319803Y503104D01*
X319801Y503085D01*
X319823Y502983D01*
X319839Y502881D01*
X319849Y502864D01*
X319853Y502844D01*
X319906Y502755D01*
X319955Y502664D01*
X319969Y502650D01*
X319979Y502633D01*
X320058Y502566D01*
X320133Y502495D01*
X320151Y502486D01*
X320166Y502473D01*
X320262Y502435D01*
X320356Y502391D01*
X320376Y502389D01*
X320394Y502381D01*
X320561Y502363D01*
X339101Y502363D01*
X339191Y502378D01*
G37*
G36*
X266890Y457330D02*
X266890Y457330D01*
X266942Y457332D01*
X267010Y457356D01*
X267080Y457371D01*
X267124Y457398D01*
X267173Y457416D01*
X267229Y457461D01*
X267291Y457498D01*
X267325Y457537D01*
X267365Y457570D01*
X267404Y457630D01*
X267451Y457684D01*
X267470Y457733D01*
X267498Y457777D01*
X267516Y457846D01*
X267543Y457913D01*
X267551Y457984D01*
X267559Y458015D01*
X267557Y458038D01*
X267559Y458055D01*
X267734Y458712D01*
X268069Y459291D01*
X268542Y459764D01*
X269077Y460073D01*
X269169Y460148D01*
X269261Y460222D01*
X269264Y460226D01*
X269267Y460228D01*
X269330Y460329D01*
X269394Y460429D01*
X269395Y460433D01*
X269398Y460437D01*
X269425Y460552D01*
X269454Y460668D01*
X269454Y460672D01*
X269455Y460676D01*
X269445Y460795D01*
X269435Y460913D01*
X269434Y460917D01*
X269433Y460921D01*
X269385Y461030D01*
X269339Y461139D01*
X269336Y461143D01*
X269335Y461146D01*
X269325Y461156D01*
X269234Y461270D01*
X268405Y462100D01*
X268405Y481363D01*
X269298Y482256D01*
X272881Y482256D01*
X272901Y482259D01*
X272921Y482257D01*
X273022Y482279D01*
X273124Y482296D01*
X273142Y482305D01*
X273161Y482309D01*
X273250Y482363D01*
X273341Y482411D01*
X273355Y482425D01*
X273372Y482436D01*
X273440Y482514D01*
X273511Y482589D01*
X273519Y482607D01*
X273532Y482622D01*
X273571Y482719D01*
X273614Y482812D01*
X273617Y482832D01*
X273624Y482851D01*
X273643Y483017D01*
X273643Y485664D01*
X273628Y485754D01*
X273621Y485845D01*
X273608Y485875D01*
X273603Y485907D01*
X273560Y485988D01*
X273524Y486071D01*
X273499Y486104D01*
X273488Y486124D01*
X273464Y486146D01*
X273420Y486202D01*
X271691Y487931D01*
X271617Y487984D01*
X271548Y488043D01*
X271518Y488055D01*
X271492Y488074D01*
X271405Y488101D01*
X271320Y488135D01*
X271279Y488140D01*
X271257Y488147D01*
X271224Y488146D01*
X271153Y488154D01*
X267496Y488154D01*
X267476Y488150D01*
X267457Y488153D01*
X267355Y488131D01*
X267253Y488114D01*
X267236Y488105D01*
X267216Y488100D01*
X267127Y488047D01*
X267036Y487999D01*
X267022Y487984D01*
X267005Y487974D01*
X266938Y487895D01*
X266866Y487820D01*
X266858Y487802D01*
X266845Y487787D01*
X266806Y487691D01*
X266763Y487597D01*
X266761Y487578D01*
X266753Y487559D01*
X266735Y487392D01*
X266735Y483775D01*
X265651Y482692D01*
X260540Y482692D01*
X260521Y482689D01*
X260501Y482691D01*
X260400Y482669D01*
X260298Y482652D01*
X260280Y482643D01*
X260261Y482639D01*
X260172Y482585D01*
X260080Y482537D01*
X260067Y482523D01*
X260050Y482512D01*
X259982Y482434D01*
X259911Y482359D01*
X259903Y482341D01*
X259890Y482325D01*
X259851Y482229D01*
X259807Y482136D01*
X259805Y482116D01*
X259798Y482097D01*
X259779Y481931D01*
X259779Y464339D01*
X259794Y464249D01*
X259801Y464158D01*
X259814Y464128D01*
X259819Y464096D01*
X259862Y464015D01*
X259897Y463932D01*
X259923Y463899D01*
X259934Y463879D01*
X259957Y463857D01*
X260002Y463801D01*
X266262Y457541D01*
X266320Y457499D01*
X266372Y457450D01*
X266419Y457428D01*
X266461Y457398D01*
X266530Y457376D01*
X266595Y457346D01*
X266647Y457341D01*
X266697Y457325D01*
X266768Y457327D01*
X266839Y457319D01*
X266890Y457330D01*
G37*
%LPC*%
G36*
X287557Y444625D02*
X287557Y444625D01*
X284969Y445696D01*
X282989Y447677D01*
X281917Y450265D01*
X281917Y453052D01*
X281905Y453122D01*
X281903Y453194D01*
X281895Y453216D01*
X281942Y453270D01*
X282010Y453340D01*
X282026Y453368D01*
X282039Y453383D01*
X282051Y453414D01*
X282091Y453487D01*
X282989Y455654D01*
X284969Y457634D01*
X287557Y458706D01*
X290358Y458706D01*
X292946Y457634D01*
X294926Y455654D01*
X295998Y453066D01*
X295998Y450265D01*
X294926Y447677D01*
X292946Y445696D01*
X290358Y444625D01*
X287557Y444625D01*
G37*
%LPD*%
G36*
X353985Y503201D02*
X353985Y503201D01*
X354057Y503206D01*
X354104Y503227D01*
X354155Y503238D01*
X354217Y503274D01*
X354283Y503302D01*
X354339Y503347D01*
X354367Y503364D01*
X354382Y503382D01*
X354414Y503407D01*
X360476Y509469D01*
X362608Y509469D01*
X362699Y509484D01*
X362789Y509491D01*
X362819Y509504D01*
X362851Y509509D01*
X362932Y509552D01*
X363016Y509587D01*
X363048Y509613D01*
X363069Y509624D01*
X363091Y509647D01*
X363147Y509692D01*
X365687Y512232D01*
X365729Y512291D01*
X365778Y512343D01*
X365800Y512390D01*
X365830Y512432D01*
X365851Y512501D01*
X365882Y512566D01*
X365887Y512617D01*
X365903Y512667D01*
X365901Y512739D01*
X365909Y512810D01*
X365898Y512861D01*
X365896Y512913D01*
X365872Y512980D01*
X365857Y513050D01*
X365830Y513095D01*
X365812Y513144D01*
X365767Y513200D01*
X365730Y513262D01*
X365691Y513295D01*
X365658Y513336D01*
X365598Y513375D01*
X365543Y513421D01*
X365495Y513441D01*
X365451Y513469D01*
X365382Y513487D01*
X365315Y513513D01*
X365298Y513515D01*
X362910Y515904D01*
X362910Y517990D01*
X362895Y518080D01*
X362888Y518171D01*
X362875Y518201D01*
X362870Y518233D01*
X362827Y518314D01*
X362792Y518398D01*
X362766Y518430D01*
X362755Y518450D01*
X362732Y518473D01*
X362687Y518529D01*
X360202Y521014D01*
X360186Y521025D01*
X360173Y521041D01*
X360086Y521097D01*
X360002Y521157D01*
X359983Y521163D01*
X359966Y521174D01*
X359866Y521199D01*
X359767Y521229D01*
X359747Y521229D01*
X359728Y521234D01*
X359625Y521226D01*
X359521Y521223D01*
X359503Y521216D01*
X359483Y521215D01*
X359388Y521174D01*
X359290Y521139D01*
X359275Y521126D01*
X359256Y521118D01*
X359125Y521014D01*
X358104Y519992D01*
X358078Y519956D01*
X358046Y519927D01*
X358007Y519857D01*
X357960Y519792D01*
X357947Y519750D01*
X357926Y519712D01*
X357911Y519633D01*
X357888Y519557D01*
X357889Y519513D01*
X357881Y519470D01*
X357892Y519391D01*
X357894Y519311D01*
X357909Y519270D01*
X357915Y519226D01*
X357974Y519093D01*
X357979Y519080D01*
X357981Y519077D01*
X357983Y519073D01*
X358221Y518661D01*
X358394Y518014D01*
X358394Y516691D01*
X354603Y516691D01*
X354584Y516688D01*
X354564Y516690D01*
X354463Y516668D01*
X354361Y516652D01*
X354343Y516642D01*
X354324Y516638D01*
X354235Y516585D01*
X354143Y516536D01*
X354129Y516522D01*
X354112Y516512D01*
X354112Y516511D01*
X354045Y516433D01*
X353973Y516358D01*
X353965Y516340D01*
X353952Y516324D01*
X353913Y516228D01*
X353870Y516135D01*
X353868Y516115D01*
X353860Y516096D01*
X353842Y515930D01*
X353842Y511639D01*
X353019Y511639D01*
X352372Y511812D01*
X351793Y512147D01*
X351689Y512250D01*
X351631Y512292D01*
X351579Y512342D01*
X351532Y512364D01*
X351490Y512394D01*
X351421Y512415D01*
X351356Y512445D01*
X351304Y512451D01*
X351255Y512466D01*
X351183Y512465D01*
X351112Y512472D01*
X351061Y512461D01*
X351009Y512460D01*
X350941Y512435D01*
X350871Y512420D01*
X350827Y512394D01*
X350778Y512376D01*
X350722Y512331D01*
X350660Y512294D01*
X350626Y512254D01*
X350586Y512222D01*
X350547Y512162D01*
X350500Y512107D01*
X350481Y512059D01*
X350453Y512015D01*
X350435Y511946D01*
X350408Y511879D01*
X350400Y511808D01*
X350393Y511777D01*
X350394Y511753D01*
X350390Y511712D01*
X350390Y507653D01*
X350405Y507563D01*
X350412Y507472D01*
X350424Y507442D01*
X350430Y507410D01*
X350472Y507330D01*
X350508Y507246D01*
X350534Y507213D01*
X350545Y507193D01*
X350568Y507171D01*
X350613Y507115D01*
X353114Y504613D01*
X353114Y503946D01*
X353126Y503875D01*
X353128Y503803D01*
X353146Y503754D01*
X353154Y503703D01*
X353188Y503639D01*
X353212Y503572D01*
X353245Y503531D01*
X353269Y503485D01*
X353321Y503436D01*
X353366Y503380D01*
X353410Y503352D01*
X353448Y503316D01*
X353513Y503286D01*
X353573Y503247D01*
X353623Y503234D01*
X353671Y503212D01*
X353742Y503205D01*
X353811Y503187D01*
X353863Y503191D01*
X353915Y503185D01*
X353985Y503201D01*
G37*
%LPC*%
G36*
X277452Y500191D02*
X277452Y500191D01*
X277452Y510208D01*
X284470Y510208D01*
X284470Y502397D01*
X284297Y501751D01*
X283962Y501171D01*
X283489Y500698D01*
X282910Y500364D01*
X282264Y500191D01*
X277452Y500191D01*
G37*
%LPD*%
%LPC*%
G36*
X291389Y473254D02*
X291389Y473254D01*
X291389Y481066D01*
X291562Y481712D01*
X291896Y482291D01*
X292369Y482764D01*
X292949Y483099D01*
X293595Y483272D01*
X298406Y483272D01*
X298406Y473254D01*
X291389Y473254D01*
G37*
%LPD*%
%LPC*%
G36*
X293595Y460191D02*
X293595Y460191D01*
X292949Y460364D01*
X292369Y460698D01*
X291896Y461171D01*
X291562Y461751D01*
X291389Y462397D01*
X291389Y470208D01*
X298406Y470208D01*
X298406Y460191D01*
X293595Y460191D01*
G37*
%LPD*%
%LPC*%
G36*
X300357Y539154D02*
X300357Y539154D01*
X300357Y542945D01*
X302442Y542945D01*
X303089Y542772D01*
X303668Y542437D01*
X304141Y541964D01*
X304475Y541385D01*
X304649Y540739D01*
X304649Y539154D01*
X300357Y539154D01*
G37*
%LPD*%
%LPC*%
G36*
X293567Y539154D02*
X293567Y539154D01*
X293567Y540739D01*
X293740Y541385D01*
X294075Y541964D01*
X294548Y542437D01*
X295127Y542772D01*
X295773Y542945D01*
X297859Y542945D01*
X297859Y539154D01*
X293567Y539154D01*
G37*
%LPD*%
%LPC*%
G36*
X300357Y532864D02*
X300357Y532864D01*
X300357Y536655D01*
X304649Y536655D01*
X304649Y535070D01*
X304475Y534424D01*
X304141Y533844D01*
X303668Y533371D01*
X303089Y533037D01*
X302442Y532864D01*
X300357Y532864D01*
G37*
%LPD*%
%LPC*%
G36*
X265412Y445556D02*
X265412Y445556D01*
X268941Y445556D01*
X268941Y444733D01*
X268768Y444087D01*
X268433Y443507D01*
X267960Y443034D01*
X267381Y442700D01*
X266735Y442527D01*
X265412Y442527D01*
X265412Y445556D01*
G37*
%LPD*%
%LPC*%
G36*
X120795Y585408D02*
X120795Y585408D01*
X120795Y586732D01*
X120968Y587378D01*
X121303Y587957D01*
X121776Y588430D01*
X122355Y588765D01*
X123001Y588938D01*
X123824Y588938D01*
X123824Y585408D01*
X120795Y585408D01*
G37*
%LPD*%
%LPC*%
G36*
X120922Y569102D02*
X120922Y569102D01*
X120922Y570425D01*
X121095Y571071D01*
X121430Y571650D01*
X121903Y572123D01*
X122482Y572458D01*
X123128Y572631D01*
X123951Y572631D01*
X123951Y569102D01*
X120922Y569102D01*
G37*
%LPD*%
%LPC*%
G36*
X307206Y532714D02*
X307206Y532714D01*
X307206Y534037D01*
X307379Y534683D01*
X307713Y535262D01*
X308186Y535735D01*
X308766Y536070D01*
X309412Y536243D01*
X310235Y536243D01*
X310235Y532714D01*
X307206Y532714D01*
G37*
%LPD*%
%LPC*%
G36*
X355364Y511639D02*
X355364Y511639D01*
X355364Y515168D01*
X358394Y515168D01*
X358394Y513845D01*
X358221Y513199D01*
X357886Y512620D01*
X357413Y512147D01*
X356834Y511812D01*
X356188Y511639D01*
X355364Y511639D01*
G37*
%LPD*%
%LPC*%
G36*
X123128Y564050D02*
X123128Y564050D01*
X122482Y564223D01*
X121903Y564557D01*
X121430Y565030D01*
X121095Y565610D01*
X120922Y566256D01*
X120922Y567579D01*
X123951Y567579D01*
X123951Y564050D01*
X123128Y564050D01*
G37*
%LPD*%
%LPC*%
G36*
X123001Y580356D02*
X123001Y580356D01*
X122355Y580529D01*
X121776Y580864D01*
X121303Y581337D01*
X120968Y581916D01*
X120795Y582563D01*
X120795Y583886D01*
X123824Y583886D01*
X123824Y580356D01*
X123001Y580356D01*
G37*
%LPD*%
%LPC*%
G36*
X241342Y452485D02*
X241342Y452485D01*
X240696Y452658D01*
X240117Y452993D01*
X239644Y453466D01*
X239309Y454045D01*
X239136Y454691D01*
X239136Y456014D01*
X242165Y456014D01*
X242165Y452485D01*
X241342Y452485D01*
G37*
%LPD*%
%LPC*%
G36*
X262566Y442527D02*
X262566Y442527D01*
X261919Y442700D01*
X261340Y443034D01*
X260867Y443507D01*
X260533Y444087D01*
X260359Y444733D01*
X260359Y445556D01*
X263889Y445556D01*
X263889Y442527D01*
X262566Y442527D01*
G37*
%LPD*%
D10*
X146888Y568504D03*
X146888Y585504D03*
D11*
X299929Y511731D03*
X275929Y511731D03*
X275929Y471731D03*
X299929Y471731D03*
D12*
X124713Y568340D03*
X131213Y568340D03*
X124586Y584647D03*
X131086Y584647D03*
X277852Y455981D03*
X271352Y455981D03*
D13*
X280919Y532347D03*
X280919Y525847D03*
D14*
X259710Y567636D02*
X259710Y572652D01*
X270926Y572652D01*
X270926Y567636D01*
X259710Y567636D01*
X259710Y568477D02*
X270926Y568477D01*
X270926Y569318D02*
X259710Y569318D01*
X259710Y570159D02*
X270926Y570159D01*
X270926Y571000D02*
X259710Y571000D01*
X259710Y571841D02*
X270926Y571841D01*
X234610Y553652D02*
X234610Y548636D01*
X234610Y553652D02*
X245826Y553652D01*
X245826Y548636D01*
X234610Y548636D01*
X234610Y549477D02*
X245826Y549477D01*
X245826Y550318D02*
X234610Y550318D01*
X234610Y551159D02*
X245826Y551159D01*
X245826Y552000D02*
X234610Y552000D01*
X234610Y552841D02*
X245826Y552841D01*
X259710Y558136D02*
X259710Y563152D01*
X270926Y563152D01*
X270926Y558136D01*
X259710Y558136D01*
X259710Y558977D02*
X270926Y558977D01*
X270926Y559818D02*
X259710Y559818D01*
X259710Y560659D02*
X270926Y560659D01*
X270926Y561500D02*
X259710Y561500D01*
X259710Y562341D02*
X270926Y562341D01*
X259710Y553652D02*
X259710Y548636D01*
X259710Y553652D02*
X270926Y553652D01*
X270926Y548636D01*
X259710Y548636D01*
X259710Y549477D02*
X270926Y549477D01*
X270926Y550318D02*
X259710Y550318D01*
X259710Y551159D02*
X270926Y551159D01*
X270926Y552000D02*
X259710Y552000D01*
X259710Y552841D02*
X270926Y552841D01*
X234610Y567636D02*
X234610Y572652D01*
X245826Y572652D01*
X245826Y567636D01*
X234610Y567636D01*
X234610Y568477D02*
X245826Y568477D01*
X245826Y569318D02*
X234610Y569318D01*
X234610Y570159D02*
X245826Y570159D01*
X245826Y571000D02*
X234610Y571000D01*
X234610Y571841D02*
X245826Y571841D01*
D12*
X221586Y550357D03*
X228086Y550357D03*
D13*
X264650Y452817D03*
X264650Y446317D03*
D12*
X277240Y553568D03*
X283740Y553568D03*
D13*
X225857Y566927D03*
X225857Y573427D03*
D15*
X207585Y541842D02*
X207585Y528092D01*
X207585Y541842D02*
X209535Y541842D01*
X209535Y528092D01*
X207585Y528092D01*
X207585Y528709D02*
X209535Y528709D01*
X209535Y529326D02*
X207585Y529326D01*
X207585Y529943D02*
X209535Y529943D01*
X209535Y530560D02*
X207585Y530560D01*
X207585Y531177D02*
X209535Y531177D01*
X209535Y531794D02*
X207585Y531794D01*
X207585Y532411D02*
X209535Y532411D01*
X209535Y533028D02*
X207585Y533028D01*
X207585Y533645D02*
X209535Y533645D01*
X209535Y534262D02*
X207585Y534262D01*
X207585Y534879D02*
X209535Y534879D01*
X209535Y535496D02*
X207585Y535496D01*
X207585Y536113D02*
X209535Y536113D01*
X209535Y536730D02*
X207585Y536730D01*
X207585Y537347D02*
X209535Y537347D01*
X209535Y537964D02*
X207585Y537964D01*
X207585Y538581D02*
X209535Y538581D01*
X209535Y539198D02*
X207585Y539198D01*
X207585Y539815D02*
X209535Y539815D01*
X209535Y540432D02*
X207585Y540432D01*
X207585Y541049D02*
X209535Y541049D01*
X209535Y541666D02*
X207585Y541666D01*
X212585Y541842D02*
X212585Y528092D01*
X212585Y541842D02*
X214535Y541842D01*
X214535Y528092D01*
X212585Y528092D01*
X212585Y528709D02*
X214535Y528709D01*
X214535Y529326D02*
X212585Y529326D01*
X212585Y529943D02*
X214535Y529943D01*
X214535Y530560D02*
X212585Y530560D01*
X212585Y531177D02*
X214535Y531177D01*
X214535Y531794D02*
X212585Y531794D01*
X212585Y532411D02*
X214535Y532411D01*
X214535Y533028D02*
X212585Y533028D01*
X212585Y533645D02*
X214535Y533645D01*
X214535Y534262D02*
X212585Y534262D01*
X212585Y534879D02*
X214535Y534879D01*
X214535Y535496D02*
X212585Y535496D01*
X212585Y536113D02*
X214535Y536113D01*
X214535Y536730D02*
X212585Y536730D01*
X212585Y537347D02*
X214535Y537347D01*
X214535Y537964D02*
X212585Y537964D01*
X212585Y538581D02*
X214535Y538581D01*
X214535Y539198D02*
X212585Y539198D01*
X212585Y539815D02*
X214535Y539815D01*
X214535Y540432D02*
X212585Y540432D01*
X212585Y541049D02*
X214535Y541049D01*
X214535Y541666D02*
X212585Y541666D01*
X217585Y541842D02*
X217585Y528092D01*
X217585Y541842D02*
X219535Y541842D01*
X219535Y528092D01*
X217585Y528092D01*
X217585Y528709D02*
X219535Y528709D01*
X219535Y529326D02*
X217585Y529326D01*
X217585Y529943D02*
X219535Y529943D01*
X219535Y530560D02*
X217585Y530560D01*
X217585Y531177D02*
X219535Y531177D01*
X219535Y531794D02*
X217585Y531794D01*
X217585Y532411D02*
X219535Y532411D01*
X219535Y533028D02*
X217585Y533028D01*
X217585Y533645D02*
X219535Y533645D01*
X219535Y534262D02*
X217585Y534262D01*
X217585Y534879D02*
X219535Y534879D01*
X219535Y535496D02*
X217585Y535496D01*
X217585Y536113D02*
X219535Y536113D01*
X219535Y536730D02*
X217585Y536730D01*
X217585Y537347D02*
X219535Y537347D01*
X219535Y537964D02*
X217585Y537964D01*
X217585Y538581D02*
X219535Y538581D01*
X219535Y539198D02*
X217585Y539198D01*
X217585Y539815D02*
X219535Y539815D01*
X219535Y540432D02*
X217585Y540432D01*
X217585Y541049D02*
X219535Y541049D01*
X219535Y541666D02*
X217585Y541666D01*
X222585Y541842D02*
X222585Y528092D01*
X222585Y541842D02*
X224535Y541842D01*
X224535Y528092D01*
X222585Y528092D01*
X222585Y528709D02*
X224535Y528709D01*
X224535Y529326D02*
X222585Y529326D01*
X222585Y529943D02*
X224535Y529943D01*
X224535Y530560D02*
X222585Y530560D01*
X222585Y531177D02*
X224535Y531177D01*
X224535Y531794D02*
X222585Y531794D01*
X222585Y532411D02*
X224535Y532411D01*
X224535Y533028D02*
X222585Y533028D01*
X222585Y533645D02*
X224535Y533645D01*
X224535Y534262D02*
X222585Y534262D01*
X222585Y534879D02*
X224535Y534879D01*
X224535Y535496D02*
X222585Y535496D01*
X222585Y536113D02*
X224535Y536113D01*
X224535Y536730D02*
X222585Y536730D01*
X222585Y537347D02*
X224535Y537347D01*
X224535Y537964D02*
X222585Y537964D01*
X222585Y538581D02*
X224535Y538581D01*
X224535Y539198D02*
X222585Y539198D01*
X222585Y539815D02*
X224535Y539815D01*
X224535Y540432D02*
X222585Y540432D01*
X222585Y541049D02*
X224535Y541049D01*
X224535Y541666D02*
X222585Y541666D01*
X227585Y541842D02*
X227585Y528092D01*
X227585Y541842D02*
X229535Y541842D01*
X229535Y528092D01*
X227585Y528092D01*
X227585Y528709D02*
X229535Y528709D01*
X229535Y529326D02*
X227585Y529326D01*
X227585Y529943D02*
X229535Y529943D01*
X229535Y530560D02*
X227585Y530560D01*
X227585Y531177D02*
X229535Y531177D01*
X229535Y531794D02*
X227585Y531794D01*
X227585Y532411D02*
X229535Y532411D01*
X229535Y533028D02*
X227585Y533028D01*
X227585Y533645D02*
X229535Y533645D01*
X229535Y534262D02*
X227585Y534262D01*
X227585Y534879D02*
X229535Y534879D01*
X229535Y535496D02*
X227585Y535496D01*
X227585Y536113D02*
X229535Y536113D01*
X229535Y536730D02*
X227585Y536730D01*
X227585Y537347D02*
X229535Y537347D01*
X229535Y537964D02*
X227585Y537964D01*
X227585Y538581D02*
X229535Y538581D01*
X229535Y539198D02*
X227585Y539198D01*
X227585Y539815D02*
X229535Y539815D01*
X229535Y540432D02*
X227585Y540432D01*
X227585Y541049D02*
X229535Y541049D01*
X229535Y541666D02*
X227585Y541666D01*
X232585Y541842D02*
X232585Y528092D01*
X232585Y541842D02*
X234535Y541842D01*
X234535Y528092D01*
X232585Y528092D01*
X232585Y528709D02*
X234535Y528709D01*
X234535Y529326D02*
X232585Y529326D01*
X232585Y529943D02*
X234535Y529943D01*
X234535Y530560D02*
X232585Y530560D01*
X232585Y531177D02*
X234535Y531177D01*
X234535Y531794D02*
X232585Y531794D01*
X232585Y532411D02*
X234535Y532411D01*
X234535Y533028D02*
X232585Y533028D01*
X232585Y533645D02*
X234535Y533645D01*
X234535Y534262D02*
X232585Y534262D01*
X232585Y534879D02*
X234535Y534879D01*
X234535Y535496D02*
X232585Y535496D01*
X232585Y536113D02*
X234535Y536113D01*
X234535Y536730D02*
X232585Y536730D01*
X232585Y537347D02*
X234535Y537347D01*
X234535Y537964D02*
X232585Y537964D01*
X232585Y538581D02*
X234535Y538581D01*
X234535Y539198D02*
X232585Y539198D01*
X232585Y539815D02*
X234535Y539815D01*
X234535Y540432D02*
X232585Y540432D01*
X232585Y541049D02*
X234535Y541049D01*
X234535Y541666D02*
X232585Y541666D01*
X237585Y541842D02*
X237585Y528092D01*
X237585Y541842D02*
X239535Y541842D01*
X239535Y528092D01*
X237585Y528092D01*
X237585Y528709D02*
X239535Y528709D01*
X239535Y529326D02*
X237585Y529326D01*
X237585Y529943D02*
X239535Y529943D01*
X239535Y530560D02*
X237585Y530560D01*
X237585Y531177D02*
X239535Y531177D01*
X239535Y531794D02*
X237585Y531794D01*
X237585Y532411D02*
X239535Y532411D01*
X239535Y533028D02*
X237585Y533028D01*
X237585Y533645D02*
X239535Y533645D01*
X239535Y534262D02*
X237585Y534262D01*
X237585Y534879D02*
X239535Y534879D01*
X239535Y535496D02*
X237585Y535496D01*
X237585Y536113D02*
X239535Y536113D01*
X239535Y536730D02*
X237585Y536730D01*
X237585Y537347D02*
X239535Y537347D01*
X239535Y537964D02*
X237585Y537964D01*
X237585Y538581D02*
X239535Y538581D01*
X239535Y539198D02*
X237585Y539198D01*
X237585Y539815D02*
X239535Y539815D01*
X239535Y540432D02*
X237585Y540432D01*
X237585Y541049D02*
X239535Y541049D01*
X239535Y541666D02*
X237585Y541666D01*
X242585Y541842D02*
X242585Y528092D01*
X242585Y541842D02*
X244535Y541842D01*
X244535Y528092D01*
X242585Y528092D01*
X242585Y528709D02*
X244535Y528709D01*
X244535Y529326D02*
X242585Y529326D01*
X242585Y529943D02*
X244535Y529943D01*
X244535Y530560D02*
X242585Y530560D01*
X242585Y531177D02*
X244535Y531177D01*
X244535Y531794D02*
X242585Y531794D01*
X242585Y532411D02*
X244535Y532411D01*
X244535Y533028D02*
X242585Y533028D01*
X242585Y533645D02*
X244535Y533645D01*
X244535Y534262D02*
X242585Y534262D01*
X242585Y534879D02*
X244535Y534879D01*
X244535Y535496D02*
X242585Y535496D01*
X242585Y536113D02*
X244535Y536113D01*
X244535Y536730D02*
X242585Y536730D01*
X242585Y537347D02*
X244535Y537347D01*
X244535Y537964D02*
X242585Y537964D01*
X242585Y538581D02*
X244535Y538581D01*
X244535Y539198D02*
X242585Y539198D01*
X242585Y539815D02*
X244535Y539815D01*
X244535Y540432D02*
X242585Y540432D01*
X242585Y541049D02*
X244535Y541049D01*
X244535Y541666D02*
X242585Y541666D01*
X242585Y477942D02*
X242585Y464192D01*
X242585Y477942D02*
X244535Y477942D01*
X244535Y464192D01*
X242585Y464192D01*
X242585Y464809D02*
X244535Y464809D01*
X244535Y465426D02*
X242585Y465426D01*
X242585Y466043D02*
X244535Y466043D01*
X244535Y466660D02*
X242585Y466660D01*
X242585Y467277D02*
X244535Y467277D01*
X244535Y467894D02*
X242585Y467894D01*
X242585Y468511D02*
X244535Y468511D01*
X244535Y469128D02*
X242585Y469128D01*
X242585Y469745D02*
X244535Y469745D01*
X244535Y470362D02*
X242585Y470362D01*
X242585Y470979D02*
X244535Y470979D01*
X244535Y471596D02*
X242585Y471596D01*
X242585Y472213D02*
X244535Y472213D01*
X244535Y472830D02*
X242585Y472830D01*
X242585Y473447D02*
X244535Y473447D01*
X244535Y474064D02*
X242585Y474064D01*
X242585Y474681D02*
X244535Y474681D01*
X244535Y475298D02*
X242585Y475298D01*
X242585Y475915D02*
X244535Y475915D01*
X244535Y476532D02*
X242585Y476532D01*
X242585Y477149D02*
X244535Y477149D01*
X244535Y477766D02*
X242585Y477766D01*
X237585Y477942D02*
X237585Y464192D01*
X237585Y477942D02*
X239535Y477942D01*
X239535Y464192D01*
X237585Y464192D01*
X237585Y464809D02*
X239535Y464809D01*
X239535Y465426D02*
X237585Y465426D01*
X237585Y466043D02*
X239535Y466043D01*
X239535Y466660D02*
X237585Y466660D01*
X237585Y467277D02*
X239535Y467277D01*
X239535Y467894D02*
X237585Y467894D01*
X237585Y468511D02*
X239535Y468511D01*
X239535Y469128D02*
X237585Y469128D01*
X237585Y469745D02*
X239535Y469745D01*
X239535Y470362D02*
X237585Y470362D01*
X237585Y470979D02*
X239535Y470979D01*
X239535Y471596D02*
X237585Y471596D01*
X237585Y472213D02*
X239535Y472213D01*
X239535Y472830D02*
X237585Y472830D01*
X237585Y473447D02*
X239535Y473447D01*
X239535Y474064D02*
X237585Y474064D01*
X237585Y474681D02*
X239535Y474681D01*
X239535Y475298D02*
X237585Y475298D01*
X237585Y475915D02*
X239535Y475915D01*
X239535Y476532D02*
X237585Y476532D01*
X237585Y477149D02*
X239535Y477149D01*
X239535Y477766D02*
X237585Y477766D01*
X232585Y477942D02*
X232585Y464192D01*
X232585Y477942D02*
X234535Y477942D01*
X234535Y464192D01*
X232585Y464192D01*
X232585Y464809D02*
X234535Y464809D01*
X234535Y465426D02*
X232585Y465426D01*
X232585Y466043D02*
X234535Y466043D01*
X234535Y466660D02*
X232585Y466660D01*
X232585Y467277D02*
X234535Y467277D01*
X234535Y467894D02*
X232585Y467894D01*
X232585Y468511D02*
X234535Y468511D01*
X234535Y469128D02*
X232585Y469128D01*
X232585Y469745D02*
X234535Y469745D01*
X234535Y470362D02*
X232585Y470362D01*
X232585Y470979D02*
X234535Y470979D01*
X234535Y471596D02*
X232585Y471596D01*
X232585Y472213D02*
X234535Y472213D01*
X234535Y472830D02*
X232585Y472830D01*
X232585Y473447D02*
X234535Y473447D01*
X234535Y474064D02*
X232585Y474064D01*
X232585Y474681D02*
X234535Y474681D01*
X234535Y475298D02*
X232585Y475298D01*
X232585Y475915D02*
X234535Y475915D01*
X234535Y476532D02*
X232585Y476532D01*
X232585Y477149D02*
X234535Y477149D01*
X234535Y477766D02*
X232585Y477766D01*
X227585Y477942D02*
X227585Y464192D01*
X227585Y477942D02*
X229535Y477942D01*
X229535Y464192D01*
X227585Y464192D01*
X227585Y464809D02*
X229535Y464809D01*
X229535Y465426D02*
X227585Y465426D01*
X227585Y466043D02*
X229535Y466043D01*
X229535Y466660D02*
X227585Y466660D01*
X227585Y467277D02*
X229535Y467277D01*
X229535Y467894D02*
X227585Y467894D01*
X227585Y468511D02*
X229535Y468511D01*
X229535Y469128D02*
X227585Y469128D01*
X227585Y469745D02*
X229535Y469745D01*
X229535Y470362D02*
X227585Y470362D01*
X227585Y470979D02*
X229535Y470979D01*
X229535Y471596D02*
X227585Y471596D01*
X227585Y472213D02*
X229535Y472213D01*
X229535Y472830D02*
X227585Y472830D01*
X227585Y473447D02*
X229535Y473447D01*
X229535Y474064D02*
X227585Y474064D01*
X227585Y474681D02*
X229535Y474681D01*
X229535Y475298D02*
X227585Y475298D01*
X227585Y475915D02*
X229535Y475915D01*
X229535Y476532D02*
X227585Y476532D01*
X227585Y477149D02*
X229535Y477149D01*
X229535Y477766D02*
X227585Y477766D01*
X222585Y477942D02*
X222585Y464192D01*
X222585Y477942D02*
X224535Y477942D01*
X224535Y464192D01*
X222585Y464192D01*
X222585Y464809D02*
X224535Y464809D01*
X224535Y465426D02*
X222585Y465426D01*
X222585Y466043D02*
X224535Y466043D01*
X224535Y466660D02*
X222585Y466660D01*
X222585Y467277D02*
X224535Y467277D01*
X224535Y467894D02*
X222585Y467894D01*
X222585Y468511D02*
X224535Y468511D01*
X224535Y469128D02*
X222585Y469128D01*
X222585Y469745D02*
X224535Y469745D01*
X224535Y470362D02*
X222585Y470362D01*
X222585Y470979D02*
X224535Y470979D01*
X224535Y471596D02*
X222585Y471596D01*
X222585Y472213D02*
X224535Y472213D01*
X224535Y472830D02*
X222585Y472830D01*
X222585Y473447D02*
X224535Y473447D01*
X224535Y474064D02*
X222585Y474064D01*
X222585Y474681D02*
X224535Y474681D01*
X224535Y475298D02*
X222585Y475298D01*
X222585Y475915D02*
X224535Y475915D01*
X224535Y476532D02*
X222585Y476532D01*
X222585Y477149D02*
X224535Y477149D01*
X224535Y477766D02*
X222585Y477766D01*
X217585Y477942D02*
X217585Y464192D01*
X217585Y477942D02*
X219535Y477942D01*
X219535Y464192D01*
X217585Y464192D01*
X217585Y464809D02*
X219535Y464809D01*
X219535Y465426D02*
X217585Y465426D01*
X217585Y466043D02*
X219535Y466043D01*
X219535Y466660D02*
X217585Y466660D01*
X217585Y467277D02*
X219535Y467277D01*
X219535Y467894D02*
X217585Y467894D01*
X217585Y468511D02*
X219535Y468511D01*
X219535Y469128D02*
X217585Y469128D01*
X217585Y469745D02*
X219535Y469745D01*
X219535Y470362D02*
X217585Y470362D01*
X217585Y470979D02*
X219535Y470979D01*
X219535Y471596D02*
X217585Y471596D01*
X217585Y472213D02*
X219535Y472213D01*
X219535Y472830D02*
X217585Y472830D01*
X217585Y473447D02*
X219535Y473447D01*
X219535Y474064D02*
X217585Y474064D01*
X217585Y474681D02*
X219535Y474681D01*
X219535Y475298D02*
X217585Y475298D01*
X217585Y475915D02*
X219535Y475915D01*
X219535Y476532D02*
X217585Y476532D01*
X217585Y477149D02*
X219535Y477149D01*
X219535Y477766D02*
X217585Y477766D01*
X212585Y477942D02*
X212585Y464192D01*
X212585Y477942D02*
X214535Y477942D01*
X214535Y464192D01*
X212585Y464192D01*
X212585Y464809D02*
X214535Y464809D01*
X214535Y465426D02*
X212585Y465426D01*
X212585Y466043D02*
X214535Y466043D01*
X214535Y466660D02*
X212585Y466660D01*
X212585Y467277D02*
X214535Y467277D01*
X214535Y467894D02*
X212585Y467894D01*
X212585Y468511D02*
X214535Y468511D01*
X214535Y469128D02*
X212585Y469128D01*
X212585Y469745D02*
X214535Y469745D01*
X214535Y470362D02*
X212585Y470362D01*
X212585Y470979D02*
X214535Y470979D01*
X214535Y471596D02*
X212585Y471596D01*
X212585Y472213D02*
X214535Y472213D01*
X214535Y472830D02*
X212585Y472830D01*
X212585Y473447D02*
X214535Y473447D01*
X214535Y474064D02*
X212585Y474064D01*
X212585Y474681D02*
X214535Y474681D01*
X214535Y475298D02*
X212585Y475298D01*
X212585Y475915D02*
X214535Y475915D01*
X214535Y476532D02*
X212585Y476532D01*
X212585Y477149D02*
X214535Y477149D01*
X214535Y477766D02*
X212585Y477766D01*
X207585Y477942D02*
X207585Y464192D01*
X207585Y477942D02*
X209535Y477942D01*
X209535Y464192D01*
X207585Y464192D01*
X207585Y464809D02*
X209535Y464809D01*
X209535Y465426D02*
X207585Y465426D01*
X207585Y466043D02*
X209535Y466043D01*
X209535Y466660D02*
X207585Y466660D01*
X207585Y467277D02*
X209535Y467277D01*
X209535Y467894D02*
X207585Y467894D01*
X207585Y468511D02*
X209535Y468511D01*
X209535Y469128D02*
X207585Y469128D01*
X207585Y469745D02*
X209535Y469745D01*
X209535Y470362D02*
X207585Y470362D01*
X207585Y470979D02*
X209535Y470979D01*
X209535Y471596D02*
X207585Y471596D01*
X207585Y472213D02*
X209535Y472213D01*
X209535Y472830D02*
X207585Y472830D01*
X207585Y473447D02*
X209535Y473447D01*
X209535Y474064D02*
X207585Y474064D01*
X207585Y474681D02*
X209535Y474681D01*
X209535Y475298D02*
X207585Y475298D01*
X207585Y475915D02*
X209535Y475915D01*
X209535Y476532D02*
X207585Y476532D01*
X207585Y477149D02*
X209535Y477149D01*
X209535Y477766D02*
X207585Y477766D01*
X200985Y484542D02*
X187235Y484542D01*
X187235Y486492D01*
X200985Y486492D01*
X200985Y484542D01*
X200985Y485159D02*
X187235Y485159D01*
X187235Y485776D02*
X200985Y485776D01*
X200985Y486393D02*
X187235Y486393D01*
X187235Y489542D02*
X200985Y489542D01*
X187235Y489542D02*
X187235Y491492D01*
X200985Y491492D01*
X200985Y489542D01*
X200985Y490159D02*
X187235Y490159D01*
X187235Y490776D02*
X200985Y490776D01*
X200985Y491393D02*
X187235Y491393D01*
X187235Y494542D02*
X200985Y494542D01*
X187235Y494542D02*
X187235Y496492D01*
X200985Y496492D01*
X200985Y494542D01*
X200985Y495159D02*
X187235Y495159D01*
X187235Y495776D02*
X200985Y495776D01*
X200985Y496393D02*
X187235Y496393D01*
X187235Y499542D02*
X200985Y499542D01*
X187235Y499542D02*
X187235Y501492D01*
X200985Y501492D01*
X200985Y499542D01*
X200985Y500159D02*
X187235Y500159D01*
X187235Y500776D02*
X200985Y500776D01*
X200985Y501393D02*
X187235Y501393D01*
X187235Y504542D02*
X200985Y504542D01*
X187235Y504542D02*
X187235Y506492D01*
X200985Y506492D01*
X200985Y504542D01*
X200985Y505159D02*
X187235Y505159D01*
X187235Y505776D02*
X200985Y505776D01*
X200985Y506393D02*
X187235Y506393D01*
X187235Y509542D02*
X200985Y509542D01*
X187235Y509542D02*
X187235Y511492D01*
X200985Y511492D01*
X200985Y509542D01*
X200985Y510159D02*
X187235Y510159D01*
X187235Y510776D02*
X200985Y510776D01*
X200985Y511393D02*
X187235Y511393D01*
X187235Y514542D02*
X200985Y514542D01*
X187235Y514542D02*
X187235Y516492D01*
X200985Y516492D01*
X200985Y514542D01*
X200985Y515159D02*
X187235Y515159D01*
X187235Y515776D02*
X200985Y515776D01*
X200985Y516393D02*
X187235Y516393D01*
X187235Y519542D02*
X200985Y519542D01*
X187235Y519542D02*
X187235Y521492D01*
X200985Y521492D01*
X200985Y519542D01*
X200985Y520159D02*
X187235Y520159D01*
X187235Y520776D02*
X200985Y520776D01*
X200985Y521393D02*
X187235Y521393D01*
X251135Y519542D02*
X264885Y519542D01*
X251135Y519542D02*
X251135Y521492D01*
X264885Y521492D01*
X264885Y519542D01*
X264885Y520159D02*
X251135Y520159D01*
X251135Y520776D02*
X264885Y520776D01*
X264885Y521393D02*
X251135Y521393D01*
X251135Y514542D02*
X264885Y514542D01*
X251135Y514542D02*
X251135Y516492D01*
X264885Y516492D01*
X264885Y514542D01*
X264885Y515159D02*
X251135Y515159D01*
X251135Y515776D02*
X264885Y515776D01*
X264885Y516393D02*
X251135Y516393D01*
X251135Y509542D02*
X264885Y509542D01*
X251135Y509542D02*
X251135Y511492D01*
X264885Y511492D01*
X264885Y509542D01*
X264885Y510159D02*
X251135Y510159D01*
X251135Y510776D02*
X264885Y510776D01*
X264885Y511393D02*
X251135Y511393D01*
X251135Y504542D02*
X264885Y504542D01*
X251135Y504542D02*
X251135Y506492D01*
X264885Y506492D01*
X264885Y504542D01*
X264885Y505159D02*
X251135Y505159D01*
X251135Y505776D02*
X264885Y505776D01*
X264885Y506393D02*
X251135Y506393D01*
X251135Y499542D02*
X264885Y499542D01*
X251135Y499542D02*
X251135Y501492D01*
X264885Y501492D01*
X264885Y499542D01*
X264885Y500159D02*
X251135Y500159D01*
X251135Y500776D02*
X264885Y500776D01*
X264885Y501393D02*
X251135Y501393D01*
X251135Y494542D02*
X264885Y494542D01*
X251135Y494542D02*
X251135Y496492D01*
X264885Y496492D01*
X264885Y494542D01*
X264885Y495159D02*
X251135Y495159D01*
X251135Y495776D02*
X264885Y495776D01*
X264885Y496393D02*
X251135Y496393D01*
X251135Y489542D02*
X264885Y489542D01*
X251135Y489542D02*
X251135Y491492D01*
X264885Y491492D01*
X264885Y489542D01*
X264885Y490159D02*
X251135Y490159D01*
X251135Y490776D02*
X264885Y490776D01*
X264885Y491393D02*
X251135Y491393D01*
X251135Y484542D02*
X264885Y484542D01*
X251135Y484542D02*
X251135Y486492D01*
X264885Y486492D01*
X264885Y484542D01*
X264885Y485159D02*
X251135Y485159D01*
X251135Y485776D02*
X264885Y485776D01*
X264885Y486393D02*
X251135Y486393D01*
D16*
X299108Y537904D03*
X299108Y526904D03*
D17*
X329697Y484482D03*
X335497Y478682D03*
X323897Y478682D03*
X323897Y490282D03*
X335497Y490282D03*
D12*
X354603Y515930D03*
X348103Y515930D03*
D13*
X197338Y441773D03*
X197338Y448273D03*
X197990Y455438D03*
X197990Y461938D03*
X181963Y470226D03*
X181963Y476726D03*
X179735Y497872D03*
X179735Y491372D03*
X179862Y505083D03*
X179862Y511583D03*
X173911Y524237D03*
X173911Y517737D03*
X181432Y536106D03*
X181432Y529606D03*
X180607Y549027D03*
X180607Y542527D03*
X375252Y523368D03*
X375252Y529868D03*
X290177Y559180D03*
X290177Y552680D03*
X310053Y554798D03*
X310053Y548298D03*
D12*
X310996Y531952D03*
X317496Y531952D03*
X242927Y456776D03*
X249427Y456776D03*
D18*
X195463Y611561D03*
X178133Y611561D03*
D16*
X325605Y531968D03*
X325605Y520968D03*
X315275Y489564D03*
X315275Y500564D03*
D19*
X268685Y540537D03*
X279685Y540537D03*
D20*
X88595Y454251D03*
X147595Y454251D03*
X88595Y466951D03*
X147595Y466951D03*
X88595Y479651D03*
X147595Y479651D03*
X88595Y492351D03*
X147595Y492351D03*
X88595Y505051D03*
X147595Y505051D03*
X88595Y517751D03*
X147595Y517751D03*
X88595Y530451D03*
X147595Y530451D03*
X88595Y543151D03*
X147595Y543151D03*
D17*
X298835Y545186D03*
D21*
X275375Y516773D02*
X275375Y512285D01*
X280919Y522317D02*
X280919Y525847D01*
X280919Y522317D02*
X275375Y516773D01*
X275375Y512285D02*
X275929Y511731D01*
X310996Y531952D02*
X314871Y528077D01*
D17*
X355108Y491982D03*
D21*
X284063Y553568D02*
X279269Y558361D01*
X228560Y543383D02*
X221586Y550357D01*
X228560Y543383D02*
X228560Y534967D01*
X225857Y573427D02*
X227912Y575482D01*
X264650Y446317D02*
X269899Y441068D01*
D17*
X294691Y486641D03*
D21*
X284063Y553568D02*
X283740Y553568D01*
X308619Y531952D02*
X310996Y531952D01*
X308619Y531952D02*
X302667Y537904D01*
X299108Y537904D01*
D17*
X317936Y438719D03*
D21*
X357311Y487539D02*
X355108Y489742D01*
X355108Y491982D01*
X357311Y480764D02*
X317936Y441389D01*
X317936Y438719D01*
X357311Y480764D02*
X357311Y487539D01*
D17*
X326390Y509369D03*
D21*
X299108Y537904D02*
X299270Y538067D01*
X299270Y544478D01*
X298699Y545050D02*
X298835Y545186D01*
X298699Y545050D02*
X299270Y544478D01*
X281885Y441068D02*
X281987Y440967D01*
X281885Y441068D02*
X271352Y451602D01*
X271352Y455981D01*
X221510Y550282D02*
X221586Y550357D01*
X326390Y509369D02*
X326390Y509039D01*
D17*
X354130Y508477D03*
D21*
X354633Y515900D02*
X354603Y515930D01*
X354633Y515900D02*
X354633Y508980D01*
X354130Y508477D01*
D17*
X339406Y507627D03*
D21*
X329927Y505832D02*
X326390Y509369D01*
X329927Y505832D02*
X337168Y505832D01*
X338964Y507627D02*
X339406Y507627D01*
X338964Y507627D02*
X337168Y505832D01*
X124586Y584647D02*
X124357Y584418D01*
X124357Y568696D02*
X124713Y568340D01*
X124357Y568696D02*
X124357Y584418D01*
X124713Y568340D02*
X124761Y568340D01*
X124761Y562034D01*
X250034Y563722D02*
X250034Y572541D01*
X265140Y560822D02*
X265318Y560644D01*
X265140Y560822D02*
X252935Y560822D01*
X250034Y563722D01*
X267601Y558361D02*
X279269Y558361D01*
X267601Y558361D02*
X265318Y560644D01*
X250034Y572541D02*
X247094Y575482D01*
X227912Y575482D01*
X225857Y573427D02*
X221832Y569402D01*
X129783Y557013D02*
X124761Y562034D01*
X129783Y557013D02*
X132372Y557013D01*
X213406Y558537D02*
X221586Y550357D01*
X213406Y558537D02*
X135165Y558537D01*
X221586Y550357D02*
X221832Y550603D01*
X221832Y569402D01*
X243560Y471067D02*
X243644Y470983D01*
X243644Y462323D01*
X314871Y508002D02*
X314871Y528077D01*
X314871Y508002D02*
X316930Y505943D01*
X322964Y505943D02*
X326390Y509369D01*
X322964Y505943D02*
X316930Y505943D01*
X294691Y476970D02*
X299929Y471731D01*
X294691Y476970D02*
X294691Y486641D01*
X283740Y553568D02*
X283884Y553712D01*
X289145Y553712D02*
X290177Y552680D01*
X289145Y553712D02*
X283884Y553712D01*
X290177Y552680D02*
X290630Y552680D01*
X298124Y545186D01*
X298835Y545186D01*
X276640Y511731D02*
X275929Y511731D01*
D17*
X265635Y465265D03*
D21*
X270600Y455981D02*
X271352Y455981D01*
X265635Y460946D02*
X265635Y465265D01*
X265635Y460946D02*
X270600Y455981D01*
X132448Y557089D02*
X132372Y557013D01*
X132448Y557089D02*
X133717Y557089D01*
X135165Y558537D01*
X228560Y469223D02*
X228595Y469189D01*
X228560Y469223D02*
X228560Y471067D01*
X228595Y469189D02*
X228595Y461471D01*
X242900Y456749D02*
X242900Y452406D01*
X240820Y450326D01*
X242927Y456776D02*
X233290Y456776D01*
X228595Y461471D01*
X317936Y438719D02*
X317936Y437714D01*
X303445Y423224D01*
X296075Y440967D02*
X299929Y444821D01*
X299929Y471731D01*
X281885Y441068D02*
X269899Y441068D01*
X264650Y446317D02*
X260386Y446317D01*
X258693Y448010D01*
D17*
X258693Y448010D03*
X240820Y450326D03*
D21*
X294691Y492970D02*
X275929Y511731D01*
X294691Y492970D02*
X294691Y486641D01*
X250722Y434752D02*
X240820Y444654D01*
X240820Y450326D01*
X250722Y434752D02*
X254660Y434752D01*
X266188Y423224D01*
X303445Y423224D01*
X296075Y440967D02*
X281987Y440967D01*
X242927Y456776D02*
X242927Y461606D01*
X243644Y462323D01*
X242927Y456776D02*
X242900Y456749D01*
D17*
X229109Y485587D03*
D21*
X228560Y485038D01*
X228560Y471067D01*
D17*
X244130Y585582D03*
D21*
X247094Y582618D01*
X247094Y575482D01*
D17*
X116840Y434340D03*
X127000Y612140D03*
X215900Y429260D03*
X376174Y427482D03*
X399542Y478282D03*
X367792Y524256D03*
X376995Y485902D03*
X306708Y426184D03*
X255057Y428247D03*
X137389Y431023D03*
D21*
X294480Y555865D02*
X294480Y561397D01*
X291294Y552680D02*
X290177Y552680D01*
X291294Y552680D02*
X294480Y555865D01*
X290910Y564967D02*
X290910Y570021D01*
X292969Y572080D01*
X290910Y564967D02*
X294480Y561397D01*
X292969Y572080D02*
X310382Y572080D01*
X345986Y536475D01*
X355573Y536475D02*
X367792Y524256D01*
X355573Y536475D02*
X345986Y536475D01*
X240218Y570144D02*
X239380Y570982D01*
X230911Y570982D01*
X226856Y566927D01*
X225857Y566927D01*
X238560Y542830D02*
X238560Y534967D01*
X233287Y545908D02*
X228838Y550357D01*
X228086Y550357D01*
X228086Y564698D02*
X225857Y566927D01*
X228086Y564698D02*
X228086Y550357D01*
X235482Y545908D02*
X238560Y542830D01*
X235482Y545908D02*
X233287Y545908D01*
X238560Y480583D02*
X238560Y471067D01*
X238560Y480583D02*
X247155Y480583D01*
X247155Y459048D01*
X249427Y456776D01*
X249427Y444696D02*
X256219Y437904D01*
X249427Y444696D02*
X249427Y456776D01*
D17*
X300548Y489679D03*
D21*
X300548Y488574D01*
D17*
X310002Y511714D03*
D21*
X284324Y540676D02*
X279740Y540592D01*
X279685Y540537D01*
X297714Y528298D02*
X299108Y526904D01*
X297714Y528298D02*
X296702Y528298D01*
X310002Y525105D02*
X310002Y511714D01*
X310002Y525105D02*
X308202Y526904D01*
X299108Y526904D01*
X310053Y548298D02*
X310294Y548298D01*
X317496Y541096D02*
X317496Y531952D01*
X317496Y541096D02*
X310294Y548298D01*
D17*
X319948Y510819D03*
D21*
X318224Y531225D02*
X317496Y531952D01*
X318224Y512543D02*
X319948Y510819D01*
X318224Y512543D02*
X318224Y531225D01*
X315275Y489564D02*
X314019Y489564D01*
X309356Y494226D02*
X305046Y494226D01*
X300548Y489728D01*
X300548Y489679D01*
X309356Y494226D02*
X314019Y489564D01*
X317360Y531968D02*
X325605Y531968D01*
X317496Y531952D02*
X317360Y531952D01*
X317360Y531968D01*
X308839Y482150D02*
X308839Y449047D01*
X296702Y528298D02*
X284324Y540676D01*
X297695Y437904D02*
X256219Y437904D01*
X297695Y437904D02*
X308839Y449047D01*
X300548Y488884D02*
X300548Y489679D01*
X300548Y488884D02*
X304896Y484536D01*
X306452Y484536D01*
X308839Y482150D01*
D17*
X295809Y566995D03*
X366959Y517581D03*
D21*
X366869Y517581D01*
X353326Y531123D01*
X314449Y557097D02*
X304551Y566995D01*
X295809Y566995D01*
X331941Y531123D02*
X353326Y531123D01*
X314449Y548454D02*
X314449Y557097D01*
X314449Y548454D02*
X320544Y542359D01*
X320544Y537388D01*
X329552Y536754D02*
X330891Y535415D01*
X321178Y536754D02*
X320544Y537388D01*
X330891Y535415D02*
X330891Y532173D01*
X329552Y536754D02*
X321178Y536754D01*
X330891Y532173D02*
X331941Y531123D01*
X272416Y490440D02*
X258086Y490440D01*
X258010Y490517D01*
X275929Y471731D02*
X277850Y469811D01*
X277850Y455983D01*
X277852Y455981D01*
X275929Y471731D02*
X275929Y486927D01*
X272416Y490440D01*
X157191Y448165D02*
X134648Y448165D01*
X126121Y456692D01*
X91036Y456692D01*
X88595Y454251D01*
X190680Y441773D02*
X197338Y441773D01*
X190680Y441773D02*
X187849Y444604D01*
X197338Y441773D02*
X197695Y442131D01*
X198620Y441773D02*
X215325Y458478D01*
X198620Y441773D02*
X197338Y441773D01*
X215325Y458478D02*
X216858Y458478D01*
X219928Y461548D02*
X222156Y461548D01*
X223560Y462952D01*
X223560Y471067D01*
X219928Y461548D02*
X216858Y458478D01*
X187849Y444604D02*
X160752Y444604D01*
X157191Y448165D01*
X159424Y454251D02*
X165741Y447934D01*
X159424Y454251D02*
X147595Y454251D01*
X218560Y471067D02*
X218596Y471031D01*
X218596Y464565D01*
X215596Y461565D01*
X212628Y461565D01*
X199337Y448273D01*
X197338Y448273D02*
X196998Y447934D01*
X165741Y447934D01*
X197338Y448273D02*
X199337Y448273D01*
X171224Y454302D02*
X158575Y466951D01*
X147595Y466951D01*
X196784Y461938D02*
X197990Y461938D01*
X198069Y462017D02*
X198069Y472128D01*
X211478Y480553D02*
X213560Y478470D01*
X213560Y471067D01*
X206494Y480553D02*
X198069Y472128D01*
X206494Y480553D02*
X211478Y480553D01*
X198069Y462017D02*
X197990Y461938D01*
X189147Y454302D02*
X171224Y454302D01*
X189147Y454302D02*
X196784Y461938D01*
X208560Y462977D02*
X208560Y471067D01*
X208560Y462977D02*
X201022Y455438D01*
X197990Y455438D02*
X197774Y455438D01*
X193531Y451195D01*
X169789Y451195D01*
X197990Y455438D02*
X201022Y455438D01*
X169789Y451195D02*
X160120Y460865D01*
X128384Y466951D02*
X88595Y466951D01*
X134470Y460865D02*
X160120Y460865D01*
X134470Y460865D02*
X128384Y466951D01*
X128562Y479651D02*
X88595Y479651D01*
X128562Y479651D02*
X134648Y473565D01*
X192860Y484267D02*
X194110Y485517D01*
X192860Y484267D02*
X192860Y481124D01*
X181963Y470226D01*
X178967Y467230D02*
X164704Y467230D01*
X161881Y470054D01*
X161881Y471698D01*
X160014Y473565D01*
X178967Y467230D02*
X181963Y470226D01*
X160014Y473565D02*
X134648Y473565D01*
X193725Y490131D02*
X194110Y490517D01*
X193725Y490131D02*
X186964Y490131D01*
X184628Y487794D01*
X184628Y479391D01*
X181963Y476726D01*
X164929Y473196D02*
X158474Y479651D01*
X147595Y479651D01*
X164929Y473196D02*
X164929Y471689D01*
X166337Y470281D01*
X175518Y470281D01*
X181963Y476726D01*
X158125Y494175D02*
X149418Y494175D01*
X147595Y492351D01*
X179331Y491372D02*
X179735Y491372D01*
X185328Y495517D02*
X194110Y495517D01*
X185328Y495517D02*
X181183Y491371D01*
X179735Y491372D01*
X160928Y491372D01*
X158125Y494175D01*
X160890Y485737D02*
X134579Y485737D01*
X127965Y492351D01*
X88595Y492351D01*
X179623Y497872D02*
X179735Y497872D01*
X194078Y500549D02*
X194110Y500517D01*
X194078Y500549D02*
X182413Y500549D01*
X179735Y497872D01*
X194110Y500517D02*
X195524Y499103D01*
X202067Y499103D01*
X203596Y497573D01*
X203596Y483460D01*
X179538Y459402D01*
X172980Y459402D01*
D17*
X172980Y459402D03*
X169271Y475303D03*
D21*
X169271Y477357D01*
X160890Y485737D01*
X134475Y498965D02*
X128389Y505051D01*
X88595Y505051D01*
X179862Y505083D02*
X180137Y504808D01*
X174294Y498965D01*
X180296Y505517D02*
X194110Y505517D01*
X180296Y505517D02*
X179862Y505083D01*
X174294Y498965D02*
X134475Y498965D01*
X179080Y511583D02*
X179862Y511583D01*
X180523Y511583D02*
X181503Y510602D01*
X194024Y510602D01*
X194110Y510517D01*
X180523Y511583D02*
X179862Y511583D01*
X179080Y511583D02*
X172548Y505051D01*
X147595Y505051D01*
X184032Y515517D02*
X194110Y515517D01*
X184032Y515517D02*
X181811Y517737D01*
X173911Y517737D02*
X173897Y517751D01*
X147595Y517751D01*
X173911Y517737D02*
X181811Y517737D01*
X135082Y524365D02*
X128468Y517751D01*
X88595Y517751D01*
X183254Y520517D02*
X194110Y520517D01*
X183254Y520517D02*
X179534Y524237D01*
X173911Y524237D02*
X173783Y524365D01*
X135082Y524365D01*
X173911Y524237D02*
X179534Y524237D01*
X128186Y530451D02*
X88595Y530451D01*
X128186Y530451D02*
X134272Y536537D01*
X207420Y536106D02*
X208560Y534967D01*
X207420Y536106D02*
X181432Y536106D01*
X181001Y536537D01*
X134272Y536537D01*
X147595Y530451D02*
X149799Y532656D01*
X178383Y532656D02*
X181432Y529606D01*
X178383Y532656D02*
X149799Y532656D01*
X186303Y525239D02*
X211513Y525239D01*
X213560Y527286D01*
X213560Y534967D01*
X186303Y525239D02*
X181936Y529606D01*
X181432Y529606D01*
X218560Y534967D02*
X218560Y542372D01*
X216281Y544651D01*
X182730Y544651D01*
X180607Y542527D01*
X148218Y542527D02*
X147595Y543151D01*
X148218Y542527D02*
X180607Y542527D01*
X223560Y541790D02*
X223560Y534967D01*
X216323Y549027D02*
X180607Y549027D01*
X216323Y549027D02*
X223560Y541790D01*
X180607Y549027D02*
X180397Y549237D01*
X134551Y549237D01*
X128465Y543151D01*
X88595Y543151D01*
D17*
X235580Y523799D03*
D21*
X243451Y534858D02*
X243560Y534967D01*
X243451Y534858D02*
X243451Y525534D01*
X240947Y523029D01*
X236350Y523029D02*
X235580Y523799D01*
X235580Y523799D01*
X236350Y523029D02*
X240947Y523029D01*
X257979Y520548D02*
X258010Y520517D01*
D17*
X259068Y533131D03*
D21*
X268685Y539409D02*
X268685Y540537D01*
X268685Y528141D01*
X261061Y520517D01*
X258010Y520517D01*
X262112Y532836D02*
X268685Y539409D01*
X262112Y532836D02*
X259363Y532836D01*
X259068Y533131D01*
D17*
X226002Y515193D03*
D21*
X257936Y515442D02*
X258010Y515517D01*
X257936Y515442D02*
X226251Y515442D01*
X226002Y515193D01*
D17*
X218178Y506507D03*
D21*
X221988Y510316D01*
X253538Y510316D01*
D17*
X222791Y501068D03*
D21*
X227126Y505404D01*
D17*
X210324Y565114D03*
D21*
X207071Y561862D01*
D17*
X131724Y561899D03*
D21*
X131960Y561899D02*
X131997Y561862D01*
X131960Y561899D02*
X131724Y561899D01*
X131997Y561862D02*
X207071Y561862D01*
X258010Y505517D02*
X257898Y505404D01*
X227126Y505404D01*
D17*
X222725Y488524D03*
D21*
X223246Y488524D01*
X235026Y500304D02*
X251432Y500304D01*
X235026Y500304D02*
X223246Y488524D01*
X257493Y484999D02*
X258010Y485517D01*
X257493Y484999D02*
X257493Y463076D01*
X264650Y455919D02*
X264650Y452817D01*
X264650Y455919D02*
X257493Y463076D01*
X177155Y585504D02*
X182658Y591007D01*
X177155Y585504D02*
X146888Y585504D01*
D17*
X182658Y591007D03*
D21*
X146888Y585504D02*
X146031Y584647D01*
X131086Y584647D01*
X149428Y571044D02*
X176513Y571044D01*
X149428Y571044D02*
X146888Y568504D01*
X176513Y571044D02*
X182556Y577088D01*
D17*
X182556Y577088D03*
D21*
X146888Y568504D02*
X146724Y568340D01*
X131213Y568340D01*
D17*
X357593Y431995D03*
X376820Y467153D03*
D21*
X356718Y432871D02*
X357593Y431995D01*
X360927Y467153D02*
X376820Y467153D01*
X360927Y467153D02*
X356718Y462943D01*
X356718Y432871D01*
D17*
X376784Y473805D03*
D21*
X375819Y472840D01*
X360983Y472840D01*
X351035Y443239D02*
X351044Y443230D01*
D17*
X351044Y443230D03*
X320581Y431054D03*
D21*
X351044Y435483D02*
X351044Y443230D01*
X351044Y435483D02*
X346615Y431054D01*
X320581Y431054D01*
X351035Y443239D02*
X351035Y462891D01*
X360983Y472840D01*
D17*
X255180Y549894D03*
D21*
X262475Y551144D02*
X265318Y551144D01*
X262475Y551144D02*
X261221Y549890D01*
X255180Y549894D01*
X259823Y570287D02*
X265461Y570287D01*
X265318Y570144D01*
X265318Y551144D02*
X261559Y551144D01*
X256722Y555981D01*
X255397Y555981D01*
D17*
X255397Y555981D03*
X255251Y565715D03*
D21*
X259823Y570287D01*
X267477Y553303D02*
X276975Y553303D01*
X267477Y553303D02*
X265318Y551144D01*
X276975Y553303D02*
X277240Y553568D01*
D17*
X222820Y594995D03*
D21*
X222820Y601178D01*
X226797Y605155D01*
D17*
X350749Y609270D03*
D21*
X346634Y605155D01*
X226797Y605155D01*
D17*
X229392Y595594D03*
D21*
X229392Y598429D01*
X233070Y602107D01*
X357911Y602107D02*
X375717Y584302D01*
X357911Y602107D02*
X233070Y602107D01*
X375410Y584302D02*
X375717Y584302D01*
D17*
X375410Y584302D03*
X239344Y596875D03*
D21*
X241528Y599059D01*
X346862Y599059D02*
X375260Y570662D01*
X346862Y599059D02*
X241528Y599059D01*
D17*
X375260Y570662D03*
X298585Y551829D03*
D21*
X309773Y554519D02*
X310053Y554798D01*
X309773Y554519D02*
X301274Y554519D01*
X298585Y551829D01*
D17*
X270662Y587070D03*
D21*
X325755Y585648D02*
X374904Y536499D01*
X325755Y585648D02*
X272085Y585648D01*
X270662Y587070D01*
D17*
X374904Y536499D03*
X189695Y567454D03*
D21*
X190213Y567454D02*
X195999Y573240D01*
X190213Y567454D02*
X189695Y567454D01*
X195999Y611025D02*
X195463Y611561D01*
X195999Y611025D02*
X195999Y573240D01*
D17*
X283547Y560880D03*
D21*
X290177Y560064D02*
X290177Y559180D01*
X290177Y560064D02*
X286427Y563814D01*
X290529Y575128D02*
X311645Y575128D01*
X375252Y529868D02*
X375252Y529844D01*
X290529Y575128D02*
X286427Y571025D01*
X286427Y564929D02*
X282378Y560880D01*
X286427Y564929D02*
X286427Y571025D01*
X286427Y564929D02*
X286427Y563814D01*
X283547Y560880D02*
X282378Y560880D01*
X311645Y575128D02*
X347249Y539523D01*
X373220Y529868D02*
X375252Y529868D01*
X373220Y529868D02*
X363565Y539523D01*
X347249Y539523D01*
D17*
X255397Y574894D03*
D21*
X255397Y575199D01*
X251155Y579441D01*
X251155Y583844D01*
X259207Y591896D01*
X330048Y591896D02*
X374853Y547091D01*
X330048Y591896D02*
X259207Y591896D01*
D17*
X374853Y547091D03*
X201524Y596113D03*
D21*
X204749Y603614D02*
X204749Y612775D01*
X201524Y600389D02*
X201524Y596113D01*
X201524Y600389D02*
X204749Y603614D01*
X209321Y617347D02*
X334620Y617347D01*
X348310Y631038D01*
X209321Y617347D02*
X204749Y612775D01*
X348310Y631038D02*
X375410Y631038D01*
X375539Y631038D01*
D17*
X375410Y631038D03*
X333454Y510682D03*
D21*
X333454Y513120D01*
X325605Y520968D01*
D17*
X270789Y577296D03*
D21*
X271831Y578338D02*
X316011Y578338D01*
X271831Y578338D02*
X270789Y577296D01*
X335006Y520968D02*
X338827Y524789D01*
X335006Y520968D02*
X325605Y520968D01*
X338827Y524789D02*
X346405Y524789D01*
X347929Y526313D02*
X349199Y526313D01*
X347929Y526313D02*
X346405Y524789D01*
D17*
X349199Y526313D03*
X349445Y544333D03*
D21*
X349445Y544903D01*
X316011Y578338D01*
D17*
X307824Y499087D03*
D21*
X309301Y500564D02*
X315275Y500564D01*
X309301Y500564D02*
X307824Y499087D01*
X315763Y500076D02*
X340364Y500076D01*
X315763Y500076D02*
X315275Y500564D01*
D17*
X256007Y581487D03*
D21*
X340364Y500076D02*
X344241Y503954D01*
X320500Y582224D02*
X256743Y582224D01*
X256007Y581487D01*
X344241Y518376D02*
X344241Y503954D01*
X344241Y518376D02*
X346962Y521096D01*
X353482Y521096D02*
X355017Y522630D01*
X353482Y521096D02*
X346962Y521096D01*
D17*
X355017Y522630D03*
X356337Y544805D03*
D21*
X357128Y545596D01*
X320500Y582224D01*
D17*
X290450Y428684D03*
D21*
X352501Y482613D02*
X352501Y485546D01*
X298573Y428684D02*
X290450Y428684D01*
X298573Y428684D02*
X352501Y482613D01*
D17*
X352501Y485546D03*
D21*
X350298Y487750D01*
X350298Y496057D01*
X361423Y507183D02*
X363871Y507183D01*
X375252Y518564D01*
X361423Y507183D02*
X350298Y496057D01*
X375252Y518564D02*
X375252Y523368D01*
D17*
X313671Y465377D03*
X269822Y429778D03*
D21*
X313671Y448952D02*
X313671Y465377D01*
X313671Y448952D02*
X299364Y434645D01*
X274690Y434647D01*
X269822Y429778D01*
D17*
X349066Y502936D03*
X307201Y489350D03*
D21*
X322481Y472939D02*
X338471Y472939D01*
X346100Y480568D01*
X346100Y499971D02*
X349066Y502936D01*
X346100Y499971D02*
X346100Y480568D01*
X322481Y472939D02*
X307201Y488219D01*
X307201Y489350D01*
X348103Y503899D02*
X349066Y502936D01*
X348103Y503899D02*
X348103Y515930D01*
D17*
X183150Y566771D03*
D21*
X192774Y578609D02*
X192774Y594354D01*
X192774Y578609D02*
X183153Y568988D01*
X183153Y566773D02*
X183150Y566771D01*
X183153Y566773D02*
X183153Y568988D01*
X192774Y594354D02*
X178133Y608995D01*
X178133Y611561D01*
X299929Y516901D02*
X299929Y511731D01*
X299929Y516901D02*
X284483Y532347D01*
X267493Y495517D02*
X258010Y495517D01*
X267493Y495517D02*
X267493Y521763D01*
X280919Y532347D02*
X284483Y532347D01*
X280919Y532347D02*
X278077Y532347D01*
X267493Y521763D01*
D17*
X207687Y571524D03*
D21*
X245671Y594970D02*
X338575Y594970D01*
X374735Y558809D01*
X245671Y594970D02*
X229231Y578530D01*
X217722Y571524D02*
X207687Y571524D01*
X217722Y571524D02*
X224727Y578530D01*
X229231Y578530D01*
D17*
X374735Y558809D03*
X210663Y577636D03*
D21*
X210712Y577636D01*
X217417Y584342D01*
X217417Y606977D01*
X218643Y608203D02*
X338712Y608203D01*
X218643Y608203D02*
X217417Y606977D01*
X338712Y608203D02*
X345900Y615391D01*
X357226Y615391D02*
X374396Y598221D01*
X357226Y615391D02*
X345900Y615391D01*
D17*
X374396Y598221D03*
X206963Y583231D03*
D21*
X207797Y584064D01*
X207797Y611302D01*
X210795Y614299D01*
X335882Y614299D01*
X346220Y624637D01*
X372313Y624637D01*
X374625Y622325D01*
D17*
X374625Y622325D03*
X212607Y594335D03*
D21*
X212607Y609482D01*
X214376Y611251D01*
X337450Y611251D01*
X345933Y619735D01*
X365735Y619735D01*
X375488Y609981D01*
X375410Y609981D01*
D17*
X375410Y609981D03*
M02*
