G04 EAGLE Gerber RS-274X export*
G75*
%MOMM*%
%FSLAX34Y34*%
%LPD*%
%INBottom Copper*%
%IPPOS*%
%AMOC8*
5,1,8,0,0,1.08239X$1,22.5*%
G01*
%ADD10R,1.400000X0.700000*%
%ADD11R,1.200000X1.800000*%
%ADD12R,0.250000X0.350000*%
%ADD13R,0.350000X0.250000*%
%ADD14C,0.088500*%
%ADD15C,0.065000*%
%ADD16R,0.600000X0.500000*%
%ADD17C,0.504800*%
%ADD18R,1.400000X1.400000*%
%ADD19R,0.500000X0.600000*%
%ADD20R,2.400000X0.760000*%
%ADD21P,1.649562X8X22.500000*%
%ADD22C,0.152400*%

G36*
X118708Y422051D02*
X118708Y422051D01*
X118780Y422053D01*
X118829Y422071D01*
X118880Y422079D01*
X118943Y422113D01*
X119011Y422137D01*
X119051Y422170D01*
X119097Y422194D01*
X119147Y422246D01*
X119203Y422291D01*
X119231Y422335D01*
X119267Y422373D01*
X119297Y422438D01*
X119336Y422498D01*
X119349Y422549D01*
X119370Y422596D01*
X119378Y422667D01*
X119396Y422737D01*
X119392Y422788D01*
X119398Y422840D01*
X119382Y422910D01*
X119377Y422982D01*
X119356Y423030D01*
X119345Y423081D01*
X119309Y423142D01*
X119280Y423208D01*
X119236Y423264D01*
X119219Y423292D01*
X119201Y423307D01*
X119176Y423339D01*
X115742Y426773D01*
X115742Y434348D01*
X121099Y439705D01*
X128675Y439705D01*
X134031Y434348D01*
X134031Y426773D01*
X130598Y423339D01*
X130556Y423281D01*
X130507Y423229D01*
X130485Y423182D01*
X130454Y423139D01*
X130433Y423071D01*
X130403Y423006D01*
X130397Y422954D01*
X130382Y422904D01*
X130384Y422832D01*
X130376Y422761D01*
X130387Y422710D01*
X130388Y422658D01*
X130413Y422591D01*
X130428Y422521D01*
X130455Y422476D01*
X130473Y422427D01*
X130518Y422371D01*
X130554Y422310D01*
X130594Y422276D01*
X130626Y422235D01*
X130687Y422197D01*
X130741Y422150D01*
X130790Y422130D01*
X130833Y422102D01*
X130903Y422085D01*
X130969Y422058D01*
X131041Y422050D01*
X131072Y422042D01*
X131095Y422044D01*
X131136Y422040D01*
X386921Y422040D01*
X386943Y422043D01*
X386981Y422042D01*
X389484Y422239D01*
X389489Y422240D01*
X389495Y422240D01*
X389659Y422274D01*
X394421Y423821D01*
X394453Y423837D01*
X394487Y423846D01*
X394633Y423929D01*
X398683Y426872D01*
X398709Y426897D01*
X398739Y426916D01*
X398852Y427040D01*
X400892Y429849D01*
X400898Y429860D01*
X400906Y429868D01*
X400953Y429969D01*
X401003Y430069D01*
X401005Y430081D01*
X401010Y430091D01*
X401022Y430201D01*
X401038Y430312D01*
X401035Y430324D01*
X401037Y430336D01*
X401013Y430444D01*
X400993Y430554D01*
X400987Y430564D01*
X400985Y430576D01*
X400927Y430672D01*
X400873Y430769D01*
X400864Y430777D01*
X400858Y430787D01*
X400774Y430859D01*
X400691Y430935D01*
X400681Y430939D01*
X400671Y430947D01*
X400568Y430989D01*
X400466Y431034D01*
X400454Y431035D01*
X400443Y431039D01*
X400277Y431058D01*
X389233Y431058D01*
X386639Y432555D01*
X385142Y435149D01*
X385142Y439617D01*
X385140Y439629D01*
X385141Y439646D01*
X385087Y441083D01*
X386502Y443763D01*
X389089Y445390D01*
X389140Y445394D01*
X389183Y445412D01*
X389229Y445422D01*
X389252Y445435D01*
X390629Y445435D01*
X390640Y445437D01*
X390657Y445436D01*
X392040Y445488D01*
X392061Y445483D01*
X392133Y445454D01*
X392195Y445447D01*
X392224Y445439D01*
X392251Y445441D01*
X392299Y445435D01*
X397848Y445435D01*
X397928Y445449D01*
X398010Y445453D01*
X398049Y445468D01*
X398082Y445474D01*
X399503Y445436D01*
X399511Y445437D01*
X399523Y445435D01*
X400960Y445435D01*
X401010Y445414D01*
X401055Y445408D01*
X402525Y444506D01*
X402622Y444466D01*
X402718Y444421D01*
X402736Y444420D01*
X402752Y444413D01*
X402858Y444406D01*
X402962Y444394D01*
X402980Y444398D01*
X402998Y444397D01*
X403099Y444424D01*
X403203Y444447D01*
X403218Y444456D01*
X403235Y444461D01*
X403323Y444519D01*
X403414Y444573D01*
X403425Y444586D01*
X403440Y444596D01*
X403505Y444680D01*
X403574Y444760D01*
X403580Y444776D01*
X403591Y444791D01*
X403626Y444890D01*
X403666Y444988D01*
X403668Y445010D01*
X403673Y445023D01*
X403673Y445054D01*
X403684Y445155D01*
X403684Y500237D01*
X403669Y500331D01*
X403660Y500426D01*
X403649Y500452D01*
X403644Y500480D01*
X403600Y500564D01*
X403561Y500652D01*
X403542Y500673D01*
X403529Y500697D01*
X403460Y500763D01*
X403396Y500834D01*
X403371Y500847D01*
X403351Y500867D01*
X403264Y500907D01*
X403181Y500953D01*
X403153Y500959D01*
X403128Y500970D01*
X403033Y500981D01*
X402939Y500998D01*
X402911Y500994D01*
X402883Y500998D01*
X402790Y500977D01*
X402696Y500964D01*
X402663Y500950D01*
X402643Y500945D01*
X402615Y500928D01*
X402542Y500897D01*
X400890Y499942D01*
X389106Y499942D01*
X386512Y501440D01*
X385497Y503199D01*
X385467Y503236D01*
X385444Y503278D01*
X385389Y503331D01*
X385341Y503389D01*
X385301Y503415D01*
X385266Y503448D01*
X385197Y503480D01*
X385133Y503520D01*
X385086Y503531D01*
X385043Y503551D01*
X384967Y503560D01*
X384894Y503577D01*
X384846Y503573D01*
X384798Y503579D01*
X384724Y503562D01*
X384649Y503556D01*
X384605Y503536D01*
X384558Y503526D01*
X384493Y503487D01*
X384423Y503457D01*
X384388Y503425D01*
X384347Y503400D01*
X384298Y503343D01*
X384241Y503292D01*
X384218Y503250D01*
X384187Y503213D01*
X384158Y503143D01*
X384122Y503077D01*
X384113Y503030D01*
X384095Y502985D01*
X384081Y502857D01*
X384077Y502835D01*
X384078Y502828D01*
X384076Y502818D01*
X384076Y447031D01*
X368437Y431392D01*
X368384Y431318D01*
X368325Y431248D01*
X368312Y431218D01*
X368294Y431192D01*
X368267Y431105D01*
X368233Y431020D01*
X368228Y430979D01*
X368221Y430957D01*
X368222Y430925D01*
X368214Y430854D01*
X368214Y427941D01*
X365842Y425569D01*
X362488Y425569D01*
X360229Y427828D01*
X360213Y427840D01*
X360201Y427856D01*
X360114Y427912D01*
X360030Y427972D01*
X360010Y427978D01*
X359994Y427989D01*
X359893Y428014D01*
X359794Y428044D01*
X359774Y428044D01*
X359755Y428049D01*
X359652Y428041D01*
X359549Y428038D01*
X359530Y428031D01*
X359510Y428030D01*
X359415Y427989D01*
X359318Y427954D01*
X359308Y427946D01*
X355916Y427946D01*
X353545Y430318D01*
X353545Y432912D01*
X353533Y432983D01*
X353531Y433054D01*
X353513Y433103D01*
X353505Y433155D01*
X353471Y433218D01*
X353447Y433285D01*
X353414Y433326D01*
X353390Y433372D01*
X353338Y433421D01*
X353293Y433477D01*
X353249Y433506D01*
X353211Y433541D01*
X353146Y433572D01*
X353086Y433610D01*
X353036Y433623D01*
X352988Y433645D01*
X352917Y433653D01*
X352848Y433670D01*
X352796Y433666D01*
X352744Y433672D01*
X352674Y433657D01*
X352602Y433651D01*
X352555Y433631D01*
X352504Y433620D01*
X352442Y433583D01*
X352376Y433555D01*
X352320Y433510D01*
X352292Y433494D01*
X352277Y433476D01*
X352245Y433450D01*
X349125Y430330D01*
X347562Y428767D01*
X324335Y428767D01*
X324245Y428753D01*
X324154Y428745D01*
X324125Y428733D01*
X324093Y428728D01*
X324012Y428685D01*
X323928Y428649D01*
X323896Y428623D01*
X323875Y428612D01*
X323853Y428589D01*
X323797Y428544D01*
X322258Y427005D01*
X318904Y427005D01*
X316532Y429377D01*
X316532Y432731D01*
X318904Y435103D01*
X322258Y435103D01*
X323797Y433564D01*
X323871Y433511D01*
X323940Y433451D01*
X323971Y433439D01*
X323997Y433420D01*
X324084Y433393D01*
X324169Y433359D01*
X324210Y433355D01*
X324232Y433348D01*
X324264Y433349D01*
X324335Y433341D01*
X345353Y433341D01*
X345443Y433355D01*
X345534Y433363D01*
X345563Y433375D01*
X345595Y433380D01*
X345676Y433423D01*
X345760Y433459D01*
X345792Y433485D01*
X345813Y433496D01*
X345835Y433519D01*
X345891Y433564D01*
X348534Y436207D01*
X348587Y436281D01*
X348647Y436351D01*
X348659Y436381D01*
X348678Y436407D01*
X348705Y436494D01*
X348739Y436579D01*
X348743Y436620D01*
X348750Y436642D01*
X348749Y436674D01*
X348757Y436745D01*
X348757Y439476D01*
X348743Y439566D01*
X348735Y439657D01*
X348723Y439686D01*
X348718Y439718D01*
X348675Y439799D01*
X348639Y439883D01*
X348613Y439915D01*
X348602Y439936D01*
X348579Y439958D01*
X348534Y440014D01*
X346995Y441553D01*
X346995Y444907D01*
X348525Y446437D01*
X348578Y446511D01*
X348637Y446580D01*
X348650Y446610D01*
X348668Y446636D01*
X348695Y446723D01*
X348729Y446808D01*
X348734Y446849D01*
X348741Y446871D01*
X348740Y446904D01*
X348748Y446975D01*
X348748Y463839D01*
X360036Y475126D01*
X370149Y475126D01*
X370240Y475141D01*
X370330Y475148D01*
X370360Y475161D01*
X370392Y475166D01*
X370473Y475209D01*
X370557Y475244D01*
X370589Y475270D01*
X370610Y475281D01*
X370632Y475304D01*
X370688Y475349D01*
X372708Y477369D01*
X372761Y477443D01*
X372821Y477513D01*
X372833Y477543D01*
X372851Y477569D01*
X372878Y477656D01*
X372912Y477741D01*
X372917Y477782D01*
X372924Y477804D01*
X372923Y477836D01*
X372931Y477908D01*
X372931Y480084D01*
X375303Y482456D01*
X378742Y482456D01*
X378761Y482459D01*
X378781Y482457D01*
X378882Y482479D01*
X378984Y482496D01*
X379002Y482505D01*
X379022Y482509D01*
X379111Y482562D01*
X379202Y482611D01*
X379216Y482625D01*
X379233Y482635D01*
X379300Y482714D01*
X379371Y482789D01*
X379380Y482807D01*
X379393Y482822D01*
X379431Y482919D01*
X379475Y483012D01*
X379477Y483032D01*
X379484Y483050D01*
X379503Y483217D01*
X379503Y520625D01*
X379491Y520696D01*
X379490Y520768D01*
X379472Y520817D01*
X379463Y520868D01*
X379430Y520931D01*
X379405Y520999D01*
X379372Y521039D01*
X379348Y521085D01*
X379296Y521135D01*
X379251Y521191D01*
X379208Y521219D01*
X379170Y521255D01*
X379105Y521285D01*
X379044Y521324D01*
X378994Y521336D01*
X378947Y521358D01*
X378875Y521366D01*
X378806Y521384D01*
X378754Y521380D01*
X378702Y521385D01*
X378632Y521370D01*
X378561Y521365D01*
X378513Y521344D01*
X378462Y521333D01*
X378400Y521296D01*
X378334Y521268D01*
X378278Y521223D01*
X378251Y521207D01*
X378236Y521189D01*
X378203Y521163D01*
X377762Y520722D01*
X377708Y520647D01*
X377649Y520578D01*
X377637Y520548D01*
X377618Y520522D01*
X377591Y520435D01*
X377557Y520350D01*
X377553Y520309D01*
X377546Y520287D01*
X377547Y520255D01*
X377539Y520183D01*
X377539Y517616D01*
X375976Y516054D01*
X367465Y507543D01*
X367423Y507484D01*
X367374Y507432D01*
X367352Y507385D01*
X367321Y507343D01*
X367300Y507274D01*
X367270Y507209D01*
X367264Y507158D01*
X367249Y507108D01*
X367251Y507036D01*
X367243Y506965D01*
X367254Y506914D01*
X367255Y506862D01*
X367280Y506795D01*
X367295Y506725D01*
X367322Y506680D01*
X367340Y506631D01*
X367385Y506575D01*
X367421Y506513D01*
X367461Y506480D01*
X367494Y506439D01*
X367554Y506400D01*
X367608Y506353D01*
X367657Y506334D01*
X367700Y506306D01*
X367770Y506288D01*
X367836Y506262D01*
X367908Y506254D01*
X367939Y506246D01*
X367962Y506248D01*
X368003Y506243D01*
X369444Y506243D01*
X372038Y504746D01*
X373536Y502152D01*
X373536Y498971D01*
X373536Y493010D01*
X372038Y490416D01*
X369444Y488919D01*
X364689Y488919D01*
X364666Y488915D01*
X364625Y488916D01*
X363230Y488798D01*
X360386Y490135D01*
X358591Y492714D01*
X358584Y492799D01*
X358569Y492857D01*
X358564Y492916D01*
X358539Y492976D01*
X358524Y493038D01*
X358491Y493088D01*
X358468Y493143D01*
X358447Y493170D01*
X358447Y494387D01*
X358445Y494395D01*
X358446Y494398D01*
X358443Y494410D01*
X358444Y494451D01*
X358341Y495662D01*
X358360Y495709D01*
X358393Y495764D01*
X358406Y495822D01*
X358428Y495877D01*
X358439Y495973D01*
X358446Y496005D01*
X358444Y496020D01*
X358447Y496044D01*
X358447Y499134D01*
X358435Y499205D01*
X358433Y499277D01*
X358415Y499326D01*
X358407Y499377D01*
X358373Y499440D01*
X358349Y499508D01*
X358316Y499548D01*
X358292Y499594D01*
X358240Y499644D01*
X358195Y499700D01*
X358151Y499728D01*
X358113Y499764D01*
X358048Y499794D01*
X357988Y499833D01*
X357938Y499846D01*
X357890Y499867D01*
X357819Y499875D01*
X357750Y499893D01*
X357698Y499889D01*
X357646Y499895D01*
X357576Y499879D01*
X357504Y499874D01*
X357457Y499853D01*
X357406Y499842D01*
X357344Y499805D01*
X357278Y499777D01*
X357222Y499733D01*
X357194Y499716D01*
X357179Y499698D01*
X357147Y499673D01*
X352808Y495333D01*
X352754Y495259D01*
X352695Y495190D01*
X352683Y495160D01*
X352664Y495133D01*
X352637Y495046D01*
X352603Y494962D01*
X352599Y494921D01*
X352592Y494898D01*
X352593Y494866D01*
X352585Y494795D01*
X352585Y490356D01*
X352588Y490337D01*
X352586Y490317D01*
X352608Y490216D01*
X352624Y490114D01*
X352634Y490096D01*
X352638Y490077D01*
X352691Y489988D01*
X352739Y489896D01*
X352754Y489883D01*
X352764Y489865D01*
X352843Y489798D01*
X352918Y489727D01*
X352936Y489719D01*
X352951Y489706D01*
X353047Y489667D01*
X353141Y489623D01*
X353161Y489621D01*
X353179Y489614D01*
X353346Y489595D01*
X354178Y489595D01*
X356550Y487223D01*
X356550Y483869D01*
X355011Y482330D01*
X354958Y482256D01*
X354898Y482187D01*
X354886Y482157D01*
X354867Y482131D01*
X354841Y482044D01*
X354806Y481959D01*
X354802Y481918D01*
X354795Y481896D01*
X354796Y481863D01*
X354788Y481792D01*
X354788Y481666D01*
X299520Y426398D01*
X294204Y426398D01*
X294114Y426383D01*
X294023Y426376D01*
X293993Y426363D01*
X293961Y426358D01*
X293881Y426315D01*
X293797Y426280D01*
X293765Y426254D01*
X293744Y426243D01*
X293722Y426219D01*
X293666Y426175D01*
X292127Y424636D01*
X288773Y424636D01*
X286401Y427007D01*
X286401Y430361D01*
X287099Y431060D01*
X287141Y431118D01*
X287191Y431170D01*
X287213Y431217D01*
X287243Y431259D01*
X287264Y431328D01*
X287294Y431393D01*
X287300Y431445D01*
X287315Y431495D01*
X287313Y431566D01*
X287321Y431637D01*
X287310Y431688D01*
X287309Y431740D01*
X287284Y431808D01*
X287269Y431878D01*
X287242Y431922D01*
X287224Y431971D01*
X287180Y432027D01*
X287143Y432089D01*
X287103Y432123D01*
X287071Y432163D01*
X287010Y432202D01*
X286956Y432249D01*
X286908Y432268D01*
X286864Y432296D01*
X286794Y432314D01*
X286728Y432341D01*
X286657Y432349D01*
X286625Y432357D01*
X286602Y432355D01*
X286561Y432359D01*
X275953Y432360D01*
X275863Y432345D01*
X275772Y432338D01*
X275742Y432326D01*
X275710Y432320D01*
X275629Y432278D01*
X275545Y432242D01*
X275513Y432216D01*
X275493Y432205D01*
X275470Y432182D01*
X275415Y432137D01*
X274093Y430816D01*
X274040Y430742D01*
X273981Y430672D01*
X273969Y430642D01*
X273950Y430616D01*
X273923Y430529D01*
X273889Y430444D01*
X273884Y430403D01*
X273877Y430381D01*
X273878Y430349D01*
X273870Y430278D01*
X273870Y428101D01*
X271499Y425729D01*
X268145Y425729D01*
X265773Y428101D01*
X265773Y431455D01*
X268145Y433827D01*
X270321Y433827D01*
X270411Y433842D01*
X270502Y433849D01*
X270532Y433861D01*
X270564Y433867D01*
X270644Y433909D01*
X270728Y433945D01*
X270761Y433971D01*
X270781Y433982D01*
X270803Y434005D01*
X270859Y434050D01*
X271127Y434317D01*
X271169Y434376D01*
X271218Y434428D01*
X271240Y434475D01*
X271271Y434517D01*
X271292Y434586D01*
X271322Y434651D01*
X271328Y434702D01*
X271343Y434752D01*
X271341Y434824D01*
X271349Y434895D01*
X271338Y434946D01*
X271337Y434998D01*
X271312Y435065D01*
X271297Y435135D01*
X271270Y435180D01*
X271252Y435229D01*
X271207Y435285D01*
X271170Y435347D01*
X271131Y435380D01*
X271098Y435421D01*
X271038Y435460D01*
X270984Y435506D01*
X270935Y435526D01*
X270891Y435554D01*
X270822Y435572D01*
X270755Y435598D01*
X270684Y435606D01*
X270653Y435614D01*
X270630Y435612D01*
X270589Y435617D01*
X251596Y435617D01*
X250034Y437179D01*
X246251Y440962D01*
X244689Y442524D01*
X244689Y451724D01*
X244686Y451744D01*
X244688Y451763D01*
X244666Y451865D01*
X244649Y451967D01*
X244640Y451984D01*
X244636Y452004D01*
X244582Y452093D01*
X244534Y452184D01*
X244520Y452198D01*
X244509Y452215D01*
X244431Y452282D01*
X244356Y452353D01*
X244338Y452362D01*
X244323Y452375D01*
X244226Y452413D01*
X244133Y452457D01*
X244113Y452459D01*
X244094Y452467D01*
X243928Y452485D01*
X243688Y452485D01*
X243688Y456775D01*
X243685Y456795D01*
X243687Y456815D01*
X243665Y456916D01*
X243648Y457018D01*
X243639Y457036D01*
X243635Y457055D01*
X243582Y457144D01*
X243533Y457236D01*
X243519Y457249D01*
X243509Y457266D01*
X243508Y457267D01*
X243430Y457334D01*
X243355Y457405D01*
X243336Y457414D01*
X243321Y457427D01*
X243225Y457466D01*
X243131Y457509D01*
X243112Y457511D01*
X243093Y457519D01*
X242926Y457537D01*
X239136Y457537D01*
X239136Y458860D01*
X239309Y459507D01*
X239644Y460086D01*
X240117Y460559D01*
X240556Y460813D01*
X240650Y460889D01*
X240741Y460962D01*
X240743Y460966D01*
X240746Y460968D01*
X240811Y461070D01*
X240874Y461169D01*
X240875Y461173D01*
X240877Y461177D01*
X240905Y461294D01*
X240934Y461408D01*
X240934Y461412D01*
X240935Y461416D01*
X240924Y461534D01*
X240915Y461653D01*
X240913Y461657D01*
X240913Y461661D01*
X240865Y461769D01*
X240818Y461879D01*
X240815Y461883D01*
X240814Y461886D01*
X240805Y461896D01*
X240714Y462010D01*
X240605Y462119D01*
X240531Y462172D01*
X240462Y462231D01*
X240431Y462244D01*
X240405Y462262D01*
X240318Y462289D01*
X240233Y462323D01*
X240192Y462328D01*
X240170Y462335D01*
X240138Y462334D01*
X240067Y462342D01*
X236819Y462342D01*
X236598Y462562D01*
X236582Y462574D01*
X236570Y462590D01*
X236483Y462645D01*
X236399Y462706D01*
X236380Y462712D01*
X236363Y462723D01*
X236262Y462748D01*
X236164Y462778D01*
X236144Y462778D01*
X236124Y462783D01*
X236021Y462775D01*
X235918Y462772D01*
X235899Y462765D01*
X235879Y462763D01*
X235784Y462723D01*
X235687Y462687D01*
X235671Y462675D01*
X235653Y462667D01*
X235522Y462562D01*
X235301Y462342D01*
X232053Y462342D01*
X231963Y462327D01*
X231872Y462320D01*
X231843Y462307D01*
X231811Y462302D01*
X231730Y462259D01*
X231646Y462224D01*
X231614Y462198D01*
X231593Y462187D01*
X231571Y462164D01*
X231515Y462119D01*
X231295Y461898D01*
X230641Y461521D01*
X229912Y461326D01*
X229321Y461326D01*
X229321Y471066D01*
X229321Y471067D01*
X229321Y480807D01*
X229912Y480807D01*
X230641Y480612D01*
X231295Y480235D01*
X231515Y480014D01*
X231589Y479961D01*
X231658Y479902D01*
X231689Y479890D01*
X231715Y479871D01*
X231802Y479844D01*
X231887Y479810D01*
X231928Y479805D01*
X231950Y479798D01*
X231982Y479799D01*
X232053Y479791D01*
X235512Y479791D01*
X235532Y479794D01*
X235551Y479792D01*
X235653Y479814D01*
X235755Y479831D01*
X235772Y479840D01*
X235792Y479845D01*
X235881Y479898D01*
X235972Y479946D01*
X235986Y479961D01*
X236003Y479971D01*
X236070Y480049D01*
X236142Y480124D01*
X236150Y480142D01*
X236163Y480158D01*
X236202Y480254D01*
X236245Y480348D01*
X236247Y480367D01*
X236255Y480386D01*
X236273Y480553D01*
X236273Y481530D01*
X237613Y482870D01*
X242538Y482870D01*
X242609Y482881D01*
X242681Y482883D01*
X242730Y482901D01*
X242781Y482909D01*
X242844Y482943D01*
X242912Y482968D01*
X242952Y483000D01*
X242998Y483024D01*
X243048Y483076D01*
X243104Y483121D01*
X243132Y483165D01*
X243168Y483203D01*
X243198Y483268D01*
X243237Y483328D01*
X243249Y483379D01*
X243271Y483426D01*
X243279Y483497D01*
X243297Y483567D01*
X243293Y483619D01*
X243298Y483670D01*
X243283Y483741D01*
X243278Y483812D01*
X243257Y483860D01*
X243246Y483911D01*
X243209Y483972D01*
X243181Y484038D01*
X243136Y484094D01*
X243120Y484122D01*
X243102Y484137D01*
X243076Y484169D01*
X239902Y487344D01*
X239828Y487397D01*
X239758Y487456D01*
X239728Y487468D01*
X239702Y487487D01*
X239615Y487514D01*
X239530Y487548D01*
X239489Y487553D01*
X239467Y487560D01*
X239435Y487559D01*
X239364Y487567D01*
X232119Y487567D01*
X232029Y487552D01*
X231938Y487545D01*
X231909Y487532D01*
X231877Y487527D01*
X231796Y487484D01*
X231712Y487449D01*
X231680Y487423D01*
X231659Y487412D01*
X231637Y487389D01*
X231581Y487344D01*
X226262Y482024D01*
X226234Y481985D01*
X226199Y481953D01*
X226162Y481886D01*
X226118Y481825D01*
X226104Y481779D01*
X226081Y481737D01*
X226068Y481662D01*
X226046Y481590D01*
X226047Y481542D01*
X226039Y481494D01*
X226050Y481419D01*
X226052Y481344D01*
X226069Y481299D01*
X226076Y481251D01*
X226111Y481184D01*
X226137Y481113D01*
X226167Y481075D01*
X226189Y481033D01*
X226243Y480980D01*
X226290Y480921D01*
X226331Y480895D01*
X226365Y480861D01*
X226433Y480829D01*
X226497Y480788D01*
X226544Y480776D01*
X226587Y480755D01*
X226662Y480746D01*
X226736Y480728D01*
X226783Y480731D01*
X226831Y480725D01*
X226959Y480745D01*
X226981Y480747D01*
X226987Y480749D01*
X226997Y480751D01*
X227208Y480807D01*
X227799Y480807D01*
X227799Y471067D01*
X227799Y471066D01*
X227799Y461326D01*
X227208Y461326D01*
X226479Y461521D01*
X226277Y461637D01*
X226236Y461653D01*
X226200Y461677D01*
X226122Y461696D01*
X226047Y461724D01*
X226003Y461726D01*
X225961Y461737D01*
X225882Y461730D01*
X225802Y461733D01*
X225759Y461721D01*
X225716Y461718D01*
X225642Y461686D01*
X225566Y461664D01*
X225530Y461638D01*
X225489Y461621D01*
X225376Y461530D01*
X225364Y461522D01*
X225362Y461520D01*
X225359Y461516D01*
X224284Y460442D01*
X223298Y459456D01*
X223271Y459419D01*
X223237Y459388D01*
X223200Y459319D01*
X223155Y459256D01*
X223141Y459212D01*
X223119Y459172D01*
X223105Y459095D01*
X223082Y459021D01*
X223083Y458975D01*
X223075Y458930D01*
X223087Y458853D01*
X223089Y458775D01*
X223104Y458732D01*
X223111Y458687D01*
X223146Y458617D01*
X223173Y458544D01*
X223202Y458508D01*
X223222Y458467D01*
X223278Y458413D01*
X223327Y458352D01*
X223365Y458327D01*
X223398Y458295D01*
X223518Y458229D01*
X223534Y458219D01*
X223538Y458218D01*
X223545Y458214D01*
X224946Y457634D01*
X226926Y455654D01*
X227998Y453066D01*
X227998Y450265D01*
X226926Y447677D01*
X224946Y445696D01*
X222358Y444625D01*
X219557Y444625D01*
X216969Y445696D01*
X214989Y447677D01*
X213917Y450265D01*
X213917Y451998D01*
X213905Y452069D01*
X213903Y452140D01*
X213885Y452189D01*
X213877Y452241D01*
X213844Y452304D01*
X213819Y452371D01*
X213786Y452412D01*
X213762Y452458D01*
X213710Y452508D01*
X213665Y452564D01*
X213621Y452592D01*
X213584Y452628D01*
X213519Y452658D01*
X213458Y452697D01*
X213408Y452709D01*
X213361Y452731D01*
X213289Y452739D01*
X213220Y452757D01*
X213168Y452753D01*
X213116Y452758D01*
X213046Y452743D01*
X212975Y452737D01*
X212927Y452717D01*
X212876Y452706D01*
X212814Y452669D01*
X212748Y452641D01*
X212692Y452596D01*
X212665Y452580D01*
X212649Y452562D01*
X212617Y452536D01*
X201130Y441049D01*
X200835Y440754D01*
X200782Y440680D01*
X200723Y440611D01*
X200711Y440581D01*
X200692Y440555D01*
X200665Y440468D01*
X200631Y440383D01*
X200626Y440342D01*
X200619Y440320D01*
X200620Y440287D01*
X200612Y440216D01*
X200612Y439892D01*
X199719Y438999D01*
X194956Y438999D01*
X194691Y439264D01*
X194617Y439317D01*
X194548Y439376D01*
X194517Y439388D01*
X194491Y439407D01*
X194404Y439434D01*
X194319Y439468D01*
X194279Y439473D01*
X194256Y439480D01*
X194224Y439479D01*
X194153Y439487D01*
X162635Y439487D01*
X156467Y445655D01*
X156393Y445709D01*
X156323Y445768D01*
X156293Y445780D01*
X156267Y445799D01*
X156180Y445826D01*
X156095Y445860D01*
X156054Y445864D01*
X156032Y445871D01*
X156000Y445870D01*
X155928Y445878D01*
X133701Y445878D01*
X125397Y454182D01*
X125323Y454235D01*
X125253Y454295D01*
X125223Y454307D01*
X125197Y454326D01*
X125110Y454353D01*
X125025Y454387D01*
X124984Y454391D01*
X124962Y454398D01*
X124930Y454397D01*
X124858Y454405D01*
X102881Y454405D01*
X102861Y454402D01*
X102841Y454404D01*
X102740Y454382D01*
X102638Y454366D01*
X102620Y454356D01*
X102601Y454352D01*
X102512Y454299D01*
X102421Y454250D01*
X102407Y454236D01*
X102390Y454226D01*
X102322Y454147D01*
X102251Y454072D01*
X102243Y454054D01*
X102230Y454039D01*
X102191Y453943D01*
X102148Y453849D01*
X102145Y453829D01*
X102138Y453811D01*
X102119Y453644D01*
X102119Y449820D01*
X101226Y448926D01*
X95659Y448926D01*
X95563Y448911D01*
X95466Y448901D01*
X95442Y448891D01*
X95416Y448887D01*
X95330Y448841D01*
X95241Y448801D01*
X95222Y448784D01*
X95198Y448772D01*
X95131Y448701D01*
X95060Y448635D01*
X95047Y448612D01*
X95029Y448593D01*
X94988Y448505D01*
X94941Y448420D01*
X94936Y448394D01*
X94925Y448370D01*
X94915Y448274D01*
X94897Y448178D01*
X94901Y448152D01*
X94898Y448126D01*
X94919Y448031D01*
X94933Y447934D01*
X94945Y447911D01*
X94951Y447885D01*
X95001Y447802D01*
X95045Y447715D01*
X95063Y447697D01*
X95077Y447674D01*
X95151Y447611D01*
X95220Y447543D01*
X95249Y447527D01*
X95264Y447514D01*
X95294Y447502D01*
X95367Y447462D01*
X98620Y446115D01*
X102148Y442587D01*
X104057Y437978D01*
X104057Y432988D01*
X102148Y428379D01*
X98620Y424851D01*
X95367Y423504D01*
X95284Y423453D01*
X95198Y423407D01*
X95180Y423388D01*
X95158Y423374D01*
X95096Y423299D01*
X95029Y423229D01*
X95018Y423205D01*
X95001Y423185D01*
X94966Y423094D01*
X94925Y423006D01*
X94922Y422980D01*
X94913Y422955D01*
X94909Y422858D01*
X94898Y422761D01*
X94904Y422736D01*
X94902Y422710D01*
X94930Y422616D01*
X94950Y422521D01*
X94964Y422498D01*
X94971Y422473D01*
X95027Y422393D01*
X95076Y422310D01*
X95096Y422293D01*
X95111Y422271D01*
X95189Y422213D01*
X95263Y422150D01*
X95288Y422140D01*
X95309Y422125D01*
X95401Y422094D01*
X95492Y422058D01*
X95524Y422054D01*
X95543Y422048D01*
X95576Y422049D01*
X95658Y422040D01*
X118637Y422040D01*
X118708Y422051D01*
G37*
G36*
X127293Y545453D02*
X127293Y545453D01*
X127384Y545460D01*
X127413Y545472D01*
X127445Y545478D01*
X127526Y545520D01*
X127610Y545556D01*
X127642Y545582D01*
X127663Y545593D01*
X127685Y545616D01*
X127741Y545661D01*
X133604Y551524D01*
X177632Y551524D01*
X177722Y551539D01*
X177813Y551546D01*
X177842Y551558D01*
X177874Y551564D01*
X177955Y551606D01*
X178039Y551642D01*
X178071Y551668D01*
X178092Y551679D01*
X178114Y551702D01*
X178170Y551747D01*
X178225Y551802D01*
X182988Y551802D01*
X183253Y551537D01*
X183327Y551484D01*
X183397Y551425D01*
X183427Y551412D01*
X183453Y551394D01*
X183540Y551367D01*
X183625Y551333D01*
X183666Y551328D01*
X183688Y551321D01*
X183720Y551322D01*
X183792Y551314D01*
X217034Y551314D01*
X217053Y551317D01*
X217073Y551315D01*
X217174Y551337D01*
X217276Y551354D01*
X217294Y551363D01*
X217314Y551367D01*
X217403Y551421D01*
X217494Y551469D01*
X217508Y551483D01*
X217525Y551494D01*
X217592Y551572D01*
X217663Y551647D01*
X217672Y551665D01*
X217685Y551680D01*
X217723Y551777D01*
X217767Y551870D01*
X217769Y551890D01*
X217777Y551909D01*
X217795Y552075D01*
X217795Y552442D01*
X217968Y553088D01*
X218303Y553667D01*
X218776Y554140D01*
X219370Y554483D01*
X219462Y554559D01*
X219555Y554633D01*
X219557Y554637D01*
X219561Y554639D01*
X219623Y554738D01*
X219688Y554840D01*
X219689Y554844D01*
X219691Y554847D01*
X219719Y554962D01*
X219748Y555078D01*
X219748Y555083D01*
X219749Y555087D01*
X219738Y555206D01*
X219729Y555324D01*
X219727Y555327D01*
X219727Y555332D01*
X219679Y555441D01*
X219633Y555550D01*
X219630Y555554D01*
X219628Y555557D01*
X219619Y555567D01*
X219528Y555681D01*
X217574Y557634D01*
X217574Y570037D01*
X221841Y574304D01*
X222317Y574304D01*
X222388Y574315D01*
X222460Y574317D01*
X222509Y574335D01*
X222560Y574343D01*
X222623Y574377D01*
X222691Y574402D01*
X222731Y574434D01*
X222777Y574458D01*
X222827Y574510D01*
X222883Y574555D01*
X222911Y574599D01*
X222947Y574637D01*
X222977Y574702D01*
X223016Y574762D01*
X223029Y574813D01*
X223050Y574860D01*
X223058Y574931D01*
X223076Y575001D01*
X223072Y575053D01*
X223078Y575104D01*
X223062Y575174D01*
X223057Y575246D01*
X223036Y575294D01*
X223025Y575345D01*
X222988Y575406D01*
X222960Y575472D01*
X222916Y575528D01*
X222899Y575556D01*
X222881Y575571D01*
X222856Y575603D01*
X222752Y575707D01*
X222417Y576286D01*
X222244Y576932D01*
X222244Y577755D01*
X226535Y577755D01*
X230826Y577755D01*
X230826Y576932D01*
X230653Y576286D01*
X230318Y575707D01*
X230178Y575567D01*
X230136Y575508D01*
X230087Y575456D01*
X230065Y575409D01*
X230034Y575367D01*
X230013Y575298D01*
X229983Y575233D01*
X229977Y575182D01*
X229962Y575132D01*
X229964Y575060D01*
X229956Y574989D01*
X229967Y574938D01*
X229968Y574886D01*
X229993Y574819D01*
X230008Y574749D01*
X230035Y574704D01*
X230053Y574655D01*
X230098Y574599D01*
X230134Y574537D01*
X230174Y574504D01*
X230207Y574463D01*
X230267Y574424D01*
X230321Y574378D01*
X230370Y574358D01*
X230413Y574330D01*
X230483Y574312D01*
X230550Y574286D01*
X230621Y574278D01*
X230652Y574270D01*
X230675Y574272D01*
X230716Y574267D01*
X233017Y574267D01*
X233107Y574282D01*
X233198Y574289D01*
X233228Y574302D01*
X233260Y574307D01*
X233340Y574350D01*
X233424Y574385D01*
X233457Y574411D01*
X233477Y574422D01*
X233497Y574443D01*
X233499Y574444D01*
X233504Y574449D01*
X233555Y574490D01*
X234367Y575302D01*
X247212Y575302D01*
X248364Y574150D01*
X248364Y567505D01*
X247212Y566353D01*
X234367Y566353D01*
X233215Y567505D01*
X233215Y568932D01*
X233212Y568952D01*
X233214Y568972D01*
X233192Y569073D01*
X233175Y569175D01*
X233166Y569193D01*
X233162Y569212D01*
X233108Y569301D01*
X233060Y569393D01*
X233046Y569406D01*
X233035Y569423D01*
X232957Y569491D01*
X232882Y569562D01*
X232864Y569570D01*
X232848Y569583D01*
X232752Y569622D01*
X232659Y569666D01*
X232639Y569668D01*
X232620Y569675D01*
X232454Y569694D01*
X229683Y569694D01*
X229593Y569679D01*
X229502Y569672D01*
X229473Y569659D01*
X229441Y569654D01*
X229360Y569611D01*
X229276Y569576D01*
X229244Y569550D01*
X229223Y569539D01*
X229201Y569516D01*
X229145Y569471D01*
X228917Y569242D01*
X228627Y569242D01*
X228556Y569231D01*
X228485Y569229D01*
X228436Y569211D01*
X228384Y569202D01*
X228321Y569169D01*
X228254Y569144D01*
X228213Y569112D01*
X228167Y569087D01*
X228118Y569035D01*
X228062Y568991D01*
X228033Y568947D01*
X227998Y568909D01*
X227967Y568844D01*
X227929Y568784D01*
X227916Y568733D01*
X227894Y568686D01*
X227886Y568615D01*
X227869Y568545D01*
X227873Y568493D01*
X227867Y568441D01*
X227882Y568371D01*
X227888Y568300D01*
X227908Y568252D01*
X227919Y568201D01*
X227956Y568139D01*
X227984Y568074D01*
X228029Y568018D01*
X228045Y567990D01*
X228063Y567975D01*
X228089Y567943D01*
X229421Y566610D01*
X229421Y564670D01*
X229436Y564580D01*
X229443Y564489D01*
X229455Y564459D01*
X229461Y564427D01*
X229503Y564347D01*
X229539Y564263D01*
X229565Y564231D01*
X229576Y564210D01*
X229599Y564188D01*
X229644Y564132D01*
X233471Y560305D01*
X233545Y560251D01*
X233615Y560192D01*
X233645Y560180D01*
X233671Y560161D01*
X233758Y560134D01*
X233843Y560100D01*
X233884Y560095D01*
X233906Y560089D01*
X233938Y560089D01*
X234010Y560082D01*
X248703Y560082D01*
X249302Y559483D01*
X249360Y559441D01*
X249412Y559391D01*
X249459Y559369D01*
X249502Y559339D01*
X249570Y559318D01*
X249635Y559288D01*
X249687Y559282D01*
X249737Y559267D01*
X249809Y559269D01*
X249880Y559261D01*
X249931Y559272D01*
X249983Y559273D01*
X250050Y559298D01*
X250120Y559313D01*
X250165Y559340D01*
X250214Y559357D01*
X250270Y559402D01*
X250331Y559439D01*
X250365Y559479D01*
X250406Y559511D01*
X250444Y559571D01*
X250491Y559626D01*
X250511Y559674D01*
X250539Y559718D01*
X250556Y559788D01*
X250583Y559854D01*
X250591Y559925D01*
X250599Y559957D01*
X250597Y559980D01*
X250601Y560021D01*
X250601Y563680D01*
X252973Y566052D01*
X256327Y566052D01*
X256765Y565614D01*
X256782Y565602D01*
X256794Y565586D01*
X256881Y565530D01*
X256965Y565470D01*
X256984Y565464D01*
X257001Y565453D01*
X257101Y565428D01*
X257200Y565398D01*
X257220Y565398D01*
X257239Y565393D01*
X257342Y565401D01*
X257446Y565404D01*
X257465Y565411D01*
X257485Y565412D01*
X257579Y565453D01*
X257677Y565489D01*
X257693Y565501D01*
X257711Y565509D01*
X257842Y565614D01*
X258486Y566257D01*
X258497Y566274D01*
X258513Y566286D01*
X258569Y566373D01*
X258629Y566457D01*
X258635Y566476D01*
X258646Y566493D01*
X258671Y566593D01*
X258702Y566692D01*
X258701Y566712D01*
X258706Y566732D01*
X258698Y566835D01*
X258695Y566938D01*
X258688Y566957D01*
X258687Y566977D01*
X258646Y567072D01*
X258611Y567169D01*
X258598Y567185D01*
X258591Y567203D01*
X258486Y567334D01*
X258315Y567505D01*
X258315Y570610D01*
X258300Y570700D01*
X258293Y570791D01*
X258280Y570821D01*
X258275Y570853D01*
X258232Y570933D01*
X258197Y571017D01*
X258171Y571049D01*
X258160Y571070D01*
X258137Y571092D01*
X258092Y571148D01*
X256532Y572708D01*
X256458Y572761D01*
X256389Y572820D01*
X256359Y572833D01*
X256332Y572851D01*
X256246Y572878D01*
X256161Y572912D01*
X256120Y572917D01*
X256097Y572924D01*
X256065Y572923D01*
X255994Y572931D01*
X253817Y572931D01*
X251446Y575303D01*
X251446Y578240D01*
X251443Y578260D01*
X251445Y578280D01*
X251423Y578381D01*
X251406Y578483D01*
X251397Y578500D01*
X251392Y578520D01*
X251339Y578609D01*
X251291Y578700D01*
X251276Y578714D01*
X251266Y578731D01*
X251188Y578798D01*
X251113Y578870D01*
X251095Y578878D01*
X251079Y578891D01*
X250983Y578930D01*
X250889Y578973D01*
X250870Y578975D01*
X250851Y578983D01*
X250684Y579001D01*
X250469Y579001D01*
X248097Y581373D01*
X248097Y584727D01*
X249595Y586226D01*
X249649Y586300D01*
X249708Y586369D01*
X249720Y586399D01*
X249739Y586425D01*
X249766Y586512D01*
X249800Y586597D01*
X249805Y586638D01*
X249811Y586660D01*
X249811Y586693D01*
X249818Y586764D01*
X249818Y591678D01*
X250502Y592361D01*
X250544Y592419D01*
X250593Y592471D01*
X250615Y592519D01*
X250646Y592561D01*
X250667Y592629D01*
X250697Y592695D01*
X250703Y592746D01*
X250718Y592796D01*
X250716Y592868D01*
X250724Y592939D01*
X250713Y592990D01*
X250712Y593042D01*
X250687Y593109D01*
X250672Y593179D01*
X250645Y593224D01*
X250627Y593273D01*
X250582Y593329D01*
X250546Y593390D01*
X250506Y593424D01*
X250473Y593465D01*
X250413Y593504D01*
X250359Y593550D01*
X250310Y593570D01*
X250267Y593598D01*
X250197Y593615D01*
X250131Y593642D01*
X250059Y593650D01*
X250028Y593658D01*
X250005Y593656D01*
X249964Y593661D01*
X246497Y593661D01*
X246407Y593646D01*
X246316Y593639D01*
X246286Y593626D01*
X246254Y593621D01*
X246173Y593578D01*
X246089Y593543D01*
X246057Y593517D01*
X246037Y593506D01*
X246014Y593483D01*
X245959Y593438D01*
X238472Y585951D01*
X222761Y585951D01*
X222671Y585936D01*
X222580Y585929D01*
X222550Y585916D01*
X222518Y585911D01*
X222438Y585868D01*
X222354Y585833D01*
X222322Y585807D01*
X222301Y585796D01*
X222279Y585773D01*
X222223Y585728D01*
X214730Y578235D01*
X214677Y578161D01*
X214617Y578092D01*
X214605Y578061D01*
X214587Y578035D01*
X214560Y577948D01*
X214526Y577863D01*
X214521Y577823D01*
X214514Y577800D01*
X214515Y577768D01*
X214507Y577697D01*
X214507Y574145D01*
X212135Y571773D01*
X208781Y571773D01*
X206410Y574145D01*
X206410Y577499D01*
X206793Y577882D01*
X206835Y577941D01*
X206884Y577992D01*
X206906Y578040D01*
X206936Y578082D01*
X206957Y578150D01*
X206988Y578216D01*
X206993Y578267D01*
X207009Y578317D01*
X207007Y578389D01*
X207015Y578460D01*
X207004Y578511D01*
X207002Y578563D01*
X206978Y578630D01*
X206962Y578700D01*
X206936Y578745D01*
X206918Y578794D01*
X206873Y578850D01*
X206836Y578911D01*
X206797Y578945D01*
X206764Y578986D01*
X206704Y579025D01*
X206649Y579071D01*
X206601Y579091D01*
X206557Y579119D01*
X206488Y579137D01*
X206421Y579163D01*
X206350Y579171D01*
X206319Y579179D01*
X206295Y579177D01*
X206254Y579182D01*
X205286Y579182D01*
X202915Y581553D01*
X202915Y584908D01*
X205287Y587280D01*
X205341Y587354D01*
X205400Y587424D01*
X205412Y587454D01*
X205431Y587480D01*
X205458Y587567D01*
X205492Y587652D01*
X205496Y587693D01*
X205503Y587715D01*
X205502Y587747D01*
X205510Y587819D01*
X205510Y592536D01*
X205499Y592607D01*
X205497Y592678D01*
X205479Y592727D01*
X205471Y592779D01*
X205437Y592842D01*
X205412Y592909D01*
X205380Y592950D01*
X205356Y592996D01*
X205304Y593045D01*
X205259Y593101D01*
X205215Y593129D01*
X205177Y593165D01*
X205112Y593195D01*
X205052Y593234D01*
X205001Y593247D01*
X204954Y593269D01*
X204883Y593277D01*
X204813Y593294D01*
X204761Y593290D01*
X204710Y593296D01*
X204640Y593281D01*
X204568Y593275D01*
X204520Y593255D01*
X204469Y593244D01*
X204408Y593207D01*
X204342Y593179D01*
X204286Y593134D01*
X204258Y593118D01*
X204243Y593100D01*
X204211Y593074D01*
X203201Y592064D01*
X199847Y592064D01*
X199585Y592325D01*
X199527Y592367D01*
X199475Y592416D01*
X199428Y592438D01*
X199386Y592469D01*
X199317Y592490D01*
X199252Y592520D01*
X199200Y592526D01*
X199151Y592541D01*
X199079Y592539D01*
X199008Y592547D01*
X198957Y592536D01*
X198905Y592535D01*
X198837Y592510D01*
X198767Y592495D01*
X198723Y592468D01*
X198674Y592450D01*
X198618Y592405D01*
X198556Y592369D01*
X198522Y592329D01*
X198482Y592296D01*
X198443Y592236D01*
X198396Y592182D01*
X198377Y592133D01*
X198349Y592090D01*
X198331Y592020D01*
X198304Y591954D01*
X198296Y591882D01*
X198289Y591851D01*
X198290Y591828D01*
X198286Y591787D01*
X198286Y572292D01*
X193967Y567973D01*
X193924Y567914D01*
X193879Y567866D01*
X193871Y567850D01*
X193854Y567830D01*
X193842Y567800D01*
X193823Y567773D01*
X193798Y567693D01*
X193775Y567643D01*
X193774Y567631D01*
X193762Y567602D01*
X193758Y567561D01*
X193751Y567538D01*
X193751Y567506D01*
X193744Y567435D01*
X193744Y565777D01*
X193415Y565448D01*
X193373Y565389D01*
X193323Y565338D01*
X193301Y565290D01*
X193271Y565248D01*
X193250Y565180D01*
X193220Y565114D01*
X193214Y565063D01*
X193199Y565013D01*
X193201Y564941D01*
X193193Y564870D01*
X193204Y564819D01*
X193205Y564767D01*
X193230Y564700D01*
X193245Y564630D01*
X193272Y564585D01*
X193289Y564536D01*
X193334Y564480D01*
X193371Y564419D01*
X193411Y564385D01*
X193443Y564344D01*
X193503Y564305D01*
X193558Y564259D01*
X193606Y564239D01*
X193650Y564211D01*
X193719Y564194D01*
X193786Y564167D01*
X193857Y564159D01*
X193889Y564151D01*
X193912Y564153D01*
X193953Y564148D01*
X206529Y564148D01*
X206620Y564163D01*
X206710Y564170D01*
X206740Y564183D01*
X206772Y564188D01*
X206853Y564231D01*
X206937Y564266D01*
X206969Y564292D01*
X206990Y564303D01*
X207012Y564326D01*
X207068Y564371D01*
X208606Y565909D01*
X211960Y565909D01*
X214332Y563538D01*
X214332Y560184D01*
X211960Y557812D01*
X208606Y557812D01*
X207066Y559352D01*
X206992Y559405D01*
X206923Y559464D01*
X206893Y559477D01*
X206866Y559495D01*
X206779Y559522D01*
X206695Y559556D01*
X206654Y559561D01*
X206631Y559568D01*
X206599Y559567D01*
X206528Y559575D01*
X135441Y559575D01*
X135351Y559560D01*
X135260Y559553D01*
X135231Y559540D01*
X135199Y559535D01*
X135118Y559492D01*
X135034Y559457D01*
X135002Y559431D01*
X134981Y559420D01*
X134959Y559397D01*
X134903Y559352D01*
X133401Y557850D01*
X130047Y557850D01*
X127676Y560222D01*
X127676Y563427D01*
X127657Y563543D01*
X127639Y563662D01*
X127637Y563665D01*
X127636Y563670D01*
X127581Y563774D01*
X127526Y563880D01*
X127523Y563883D01*
X127521Y563887D01*
X127435Y563968D01*
X127349Y564052D01*
X127346Y564053D01*
X127342Y564056D01*
X127235Y564106D01*
X127127Y564158D01*
X127123Y564158D01*
X127119Y564160D01*
X127002Y564173D01*
X126883Y564187D01*
X126878Y564187D01*
X126875Y564187D01*
X126861Y564184D01*
X126717Y564162D01*
X126297Y564050D01*
X125474Y564050D01*
X125474Y567579D01*
X127677Y567579D01*
X127696Y567582D01*
X127716Y567580D01*
X127817Y567602D01*
X127919Y567619D01*
X127937Y567628D01*
X127956Y567632D01*
X128046Y567685D01*
X128137Y567734D01*
X128150Y567748D01*
X128168Y567758D01*
X128235Y567837D01*
X128306Y567912D01*
X128315Y567930D01*
X128328Y567945D01*
X128366Y568041D01*
X128410Y568135D01*
X128412Y568155D01*
X128419Y568173D01*
X128438Y568340D01*
X128435Y568360D01*
X128437Y568380D01*
X128415Y568481D01*
X128398Y568583D01*
X128389Y568601D01*
X128385Y568620D01*
X128331Y568709D01*
X128283Y568801D01*
X128269Y568814D01*
X128258Y568831D01*
X128180Y568899D01*
X128105Y568970D01*
X128087Y568978D01*
X128072Y568991D01*
X127975Y569030D01*
X127882Y569074D01*
X127862Y569076D01*
X127843Y569083D01*
X127677Y569102D01*
X125474Y569102D01*
X125474Y572631D01*
X126297Y572631D01*
X126943Y572458D01*
X127523Y572123D01*
X127996Y571650D01*
X128001Y571641D01*
X128077Y571548D01*
X128151Y571456D01*
X128155Y571453D01*
X128157Y571450D01*
X128257Y571388D01*
X128358Y571323D01*
X128362Y571322D01*
X128366Y571319D01*
X128481Y571292D01*
X128596Y571263D01*
X128601Y571263D01*
X128605Y571262D01*
X128723Y571272D01*
X128842Y571282D01*
X128846Y571283D01*
X128850Y571284D01*
X128958Y571331D01*
X129068Y571378D01*
X129072Y571381D01*
X129075Y571382D01*
X129085Y571392D01*
X129199Y571483D01*
X129331Y571615D01*
X133094Y571615D01*
X133859Y570850D01*
X133933Y570797D01*
X134003Y570737D01*
X134033Y570725D01*
X134059Y570706D01*
X134146Y570680D01*
X134231Y570645D01*
X134272Y570641D01*
X134294Y570634D01*
X134326Y570635D01*
X134398Y570627D01*
X137602Y570627D01*
X137622Y570630D01*
X137642Y570628D01*
X137743Y570650D01*
X137845Y570667D01*
X137863Y570676D01*
X137882Y570680D01*
X137971Y570733D01*
X138062Y570782D01*
X138076Y570796D01*
X138093Y570806D01*
X138160Y570885D01*
X138232Y570960D01*
X138240Y570978D01*
X138253Y570993D01*
X138292Y571090D01*
X138335Y571183D01*
X138338Y571203D01*
X138345Y571222D01*
X138363Y571388D01*
X138363Y572636D01*
X139257Y573529D01*
X154530Y573529D01*
X154569Y573501D01*
X154638Y573441D01*
X154668Y573429D01*
X154694Y573410D01*
X154782Y573383D01*
X154866Y573349D01*
X154907Y573345D01*
X154930Y573338D01*
X154962Y573339D01*
X155033Y573331D01*
X175250Y573331D01*
X175340Y573346D01*
X175431Y573353D01*
X175461Y573365D01*
X175493Y573371D01*
X175574Y573413D01*
X175657Y573449D01*
X175690Y573475D01*
X175710Y573486D01*
X175732Y573509D01*
X175788Y573554D01*
X178285Y576050D01*
X178329Y576112D01*
X178361Y576145D01*
X178367Y576158D01*
X178397Y576194D01*
X178409Y576224D01*
X178428Y576250D01*
X178455Y576337D01*
X178489Y576422D01*
X178494Y576463D01*
X178501Y576485D01*
X178500Y576517D01*
X178508Y576588D01*
X178508Y578765D01*
X180879Y581137D01*
X184233Y581137D01*
X186605Y578765D01*
X186605Y577512D01*
X186617Y577442D01*
X186619Y577370D01*
X186636Y577321D01*
X186645Y577270D01*
X186678Y577206D01*
X186703Y577139D01*
X186736Y577098D01*
X186760Y577052D01*
X186812Y577003D01*
X186857Y576947D01*
X186901Y576919D01*
X186938Y576883D01*
X187003Y576853D01*
X187064Y576814D01*
X187114Y576801D01*
X187161Y576779D01*
X187233Y576771D01*
X187302Y576754D01*
X187354Y576758D01*
X187406Y576752D01*
X187476Y576767D01*
X187547Y576773D01*
X187595Y576793D01*
X187646Y576804D01*
X187708Y576841D01*
X187774Y576869D01*
X187830Y576914D01*
X187857Y576931D01*
X187873Y576948D01*
X187905Y576974D01*
X190264Y579334D01*
X190317Y579408D01*
X190377Y579477D01*
X190389Y579507D01*
X190408Y579533D01*
X190435Y579621D01*
X190469Y579705D01*
X190473Y579746D01*
X190480Y579768D01*
X190479Y579801D01*
X190487Y579872D01*
X190487Y593092D01*
X190473Y593182D01*
X190465Y593273D01*
X190453Y593302D01*
X190448Y593334D01*
X190405Y593415D01*
X190369Y593499D01*
X190343Y593531D01*
X190332Y593552D01*
X190309Y593574D01*
X190264Y593630D01*
X181081Y602813D01*
X181007Y602866D01*
X180938Y602926D01*
X180908Y602938D01*
X180881Y602957D01*
X180794Y602983D01*
X180710Y603018D01*
X180669Y603022D01*
X180646Y603029D01*
X180614Y603028D01*
X180543Y603036D01*
X170501Y603036D01*
X169608Y603929D01*
X169608Y614680D01*
X169605Y614700D01*
X169607Y614719D01*
X169585Y614821D01*
X169568Y614923D01*
X169559Y614940D01*
X169555Y614960D01*
X169501Y615049D01*
X169453Y615140D01*
X169439Y615154D01*
X169429Y615171D01*
X169350Y615238D01*
X169275Y615310D01*
X169257Y615318D01*
X169242Y615331D01*
X169145Y615370D01*
X169052Y615413D01*
X169032Y615415D01*
X169013Y615423D01*
X168847Y615441D01*
X77295Y615441D01*
X77275Y615438D01*
X77255Y615440D01*
X77154Y615418D01*
X77052Y615402D01*
X77034Y615392D01*
X77015Y615388D01*
X76926Y615335D01*
X76835Y615286D01*
X76821Y615272D01*
X76804Y615262D01*
X76736Y615183D01*
X76665Y615108D01*
X76657Y615090D01*
X76644Y615075D01*
X76605Y614979D01*
X76562Y614885D01*
X76559Y614865D01*
X76552Y614847D01*
X76533Y614680D01*
X76533Y549237D01*
X76537Y549217D01*
X76535Y549198D01*
X76557Y549096D01*
X76573Y548994D01*
X76583Y548977D01*
X76587Y548957D01*
X76640Y548868D01*
X76688Y548777D01*
X76703Y548763D01*
X76713Y548746D01*
X76792Y548679D01*
X76867Y548608D01*
X76885Y548599D01*
X76900Y548586D01*
X76996Y548547D01*
X77090Y548504D01*
X77109Y548502D01*
X77128Y548494D01*
X77295Y548476D01*
X101226Y548476D01*
X102119Y547583D01*
X102119Y546199D01*
X102123Y546179D01*
X102121Y546160D01*
X102143Y546058D01*
X102159Y545956D01*
X102169Y545939D01*
X102173Y545919D01*
X102226Y545830D01*
X102274Y545739D01*
X102289Y545725D01*
X102299Y545708D01*
X102378Y545641D01*
X102453Y545570D01*
X102471Y545561D01*
X102486Y545548D01*
X102582Y545509D01*
X102676Y545466D01*
X102695Y545464D01*
X102714Y545456D01*
X102881Y545438D01*
X127203Y545438D01*
X127293Y545453D01*
G37*
G36*
X262178Y440194D02*
X262178Y440194D01*
X262198Y440191D01*
X262299Y440213D01*
X262401Y440230D01*
X262419Y440239D01*
X262438Y440244D01*
X262527Y440297D01*
X262619Y440345D01*
X262632Y440360D01*
X262649Y440370D01*
X262717Y440449D01*
X262788Y440524D01*
X262796Y440542D01*
X262809Y440557D01*
X262848Y440653D01*
X262892Y440747D01*
X262894Y440766D01*
X262901Y440785D01*
X262920Y440952D01*
X262920Y440994D01*
X267210Y440994D01*
X267211Y440994D01*
X271501Y440994D01*
X271501Y440952D01*
X271504Y440932D01*
X271502Y440912D01*
X271524Y440811D01*
X271541Y440709D01*
X271550Y440691D01*
X271554Y440672D01*
X271608Y440583D01*
X271656Y440491D01*
X271670Y440478D01*
X271681Y440461D01*
X271759Y440393D01*
X271834Y440322D01*
X271852Y440314D01*
X271868Y440301D01*
X271964Y440262D01*
X272057Y440218D01*
X272077Y440216D01*
X272096Y440209D01*
X272262Y440190D01*
X296433Y440190D01*
X296523Y440205D01*
X296614Y440212D01*
X296643Y440225D01*
X296675Y440230D01*
X296756Y440273D01*
X296840Y440309D01*
X296872Y440334D01*
X296893Y440345D01*
X296915Y440369D01*
X296971Y440413D01*
X306329Y449771D01*
X306382Y449845D01*
X306441Y449915D01*
X306454Y449945D01*
X306472Y449971D01*
X306499Y450058D01*
X306533Y450143D01*
X306538Y450184D01*
X306545Y450206D01*
X306544Y450238D01*
X306552Y450310D01*
X306552Y459429D01*
X306549Y459449D01*
X306551Y459469D01*
X306529Y459570D01*
X306512Y459672D01*
X306503Y459690D01*
X306499Y459709D01*
X306445Y459798D01*
X306397Y459889D01*
X306383Y459903D01*
X306372Y459920D01*
X306294Y459988D01*
X306219Y460059D01*
X306201Y460067D01*
X306185Y460080D01*
X306089Y460119D01*
X305996Y460162D01*
X305976Y460165D01*
X305957Y460172D01*
X305791Y460191D01*
X301452Y460191D01*
X301452Y470969D01*
X301449Y470989D01*
X301451Y471009D01*
X301429Y471110D01*
X301413Y471212D01*
X301403Y471230D01*
X301399Y471249D01*
X301346Y471338D01*
X301298Y471429D01*
X301283Y471443D01*
X301273Y471460D01*
X301194Y471527D01*
X301119Y471599D01*
X301101Y471607D01*
X301086Y471620D01*
X300990Y471659D01*
X300896Y471702D01*
X300876Y471705D01*
X300858Y471712D01*
X300691Y471730D01*
X299928Y471730D01*
X299928Y471732D01*
X300691Y471732D01*
X300711Y471735D01*
X300731Y471733D01*
X300832Y471755D01*
X300934Y471772D01*
X300952Y471781D01*
X300971Y471785D01*
X301060Y471839D01*
X301151Y471887D01*
X301165Y471901D01*
X301182Y471912D01*
X301249Y471990D01*
X301321Y472065D01*
X301329Y472083D01*
X301342Y472099D01*
X301381Y472195D01*
X301424Y472288D01*
X301427Y472308D01*
X301434Y472327D01*
X301452Y472493D01*
X301452Y483367D01*
X301462Y483370D01*
X301502Y483402D01*
X301548Y483427D01*
X301598Y483479D01*
X301654Y483524D01*
X301682Y483567D01*
X301718Y483605D01*
X301748Y483670D01*
X301787Y483731D01*
X301799Y483781D01*
X301821Y483828D01*
X301829Y483900D01*
X301847Y483969D01*
X301843Y484021D01*
X301848Y484073D01*
X301833Y484143D01*
X301828Y484214D01*
X301807Y484262D01*
X301796Y484313D01*
X301759Y484375D01*
X301731Y484441D01*
X301686Y484497D01*
X301670Y484524D01*
X301652Y484539D01*
X301626Y484572D01*
X300790Y485408D01*
X300716Y485461D01*
X300647Y485520D01*
X300617Y485532D01*
X300591Y485551D01*
X300504Y485578D01*
X300419Y485612D01*
X300378Y485617D01*
X300356Y485623D01*
X300323Y485623D01*
X300252Y485631D01*
X298871Y485631D01*
X296499Y488002D01*
X296499Y491356D01*
X298871Y493728D01*
X300999Y493728D01*
X301089Y493743D01*
X301180Y493750D01*
X301210Y493762D01*
X301242Y493768D01*
X301322Y493810D01*
X301406Y493846D01*
X301438Y493872D01*
X301459Y493883D01*
X301481Y493906D01*
X301537Y493951D01*
X303847Y496261D01*
X303859Y496277D01*
X303874Y496290D01*
X303931Y496377D01*
X303991Y496461D01*
X303997Y496480D01*
X304007Y496497D01*
X304033Y496597D01*
X304063Y496696D01*
X304063Y496716D01*
X304068Y496735D01*
X304059Y496838D01*
X304057Y496942D01*
X304050Y496961D01*
X304048Y496980D01*
X304008Y497075D01*
X303972Y497173D01*
X303960Y497188D01*
X303952Y497207D01*
X303847Y497338D01*
X303775Y497410D01*
X303775Y500445D01*
X303772Y500465D01*
X303774Y500485D01*
X303752Y500586D01*
X303735Y500688D01*
X303726Y500706D01*
X303722Y500725D01*
X303668Y500814D01*
X303620Y500905D01*
X303606Y500919D01*
X303595Y500936D01*
X303517Y501004D01*
X303442Y501075D01*
X303424Y501083D01*
X303409Y501096D01*
X303312Y501135D01*
X303219Y501178D01*
X303199Y501181D01*
X303180Y501188D01*
X303014Y501207D01*
X293298Y501207D01*
X292405Y502100D01*
X292405Y520877D01*
X292390Y520967D01*
X292383Y521058D01*
X292370Y521088D01*
X292365Y521120D01*
X292322Y521200D01*
X292286Y521284D01*
X292261Y521316D01*
X292250Y521337D01*
X292226Y521359D01*
X292182Y521415D01*
X286509Y527087D01*
X286451Y527129D01*
X286399Y527179D01*
X286352Y527201D01*
X286309Y527231D01*
X286241Y527252D01*
X286176Y527282D01*
X286124Y527288D01*
X286074Y527303D01*
X286003Y527302D01*
X285931Y527309D01*
X285881Y527298D01*
X285829Y527297D01*
X285761Y527272D01*
X285691Y527257D01*
X285646Y527230D01*
X285597Y527213D01*
X285541Y527168D01*
X285480Y527131D01*
X285446Y527091D01*
X285405Y527059D01*
X285367Y526999D01*
X285320Y526944D01*
X285301Y526896D01*
X285272Y526852D01*
X285255Y526782D01*
X285228Y526716D01*
X285220Y526645D01*
X285212Y526613D01*
X285213Y526609D01*
X280919Y526609D01*
X280900Y526605D01*
X280880Y526608D01*
X280779Y526586D01*
X280677Y526569D01*
X280659Y526560D01*
X280639Y526555D01*
X280550Y526502D01*
X280459Y526454D01*
X280445Y526439D01*
X280428Y526429D01*
X280361Y526350D01*
X280290Y526275D01*
X280281Y526257D01*
X280268Y526242D01*
X280230Y526146D01*
X280186Y526052D01*
X280184Y526033D01*
X280176Y526014D01*
X280158Y525847D01*
X280161Y525828D01*
X280159Y525808D01*
X280181Y525706D01*
X280198Y525604D01*
X280207Y525587D01*
X280211Y525567D01*
X280265Y525478D01*
X280313Y525387D01*
X280327Y525373D01*
X280337Y525356D01*
X280416Y525289D01*
X280491Y525218D01*
X280509Y525209D01*
X280524Y525196D01*
X280621Y525157D01*
X280714Y525114D01*
X280734Y525112D01*
X280753Y525104D01*
X280919Y525086D01*
X285210Y525086D01*
X285210Y524263D01*
X285037Y523617D01*
X284702Y523037D01*
X284373Y522708D01*
X284348Y522673D01*
X284315Y522643D01*
X284276Y522573D01*
X284230Y522509D01*
X284217Y522467D01*
X284195Y522428D01*
X284181Y522350D01*
X284157Y522274D01*
X284158Y522230D01*
X284150Y522187D01*
X284162Y522108D01*
X284164Y522028D01*
X284179Y521986D01*
X284185Y521943D01*
X284243Y521810D01*
X284248Y521797D01*
X284250Y521794D01*
X284252Y521789D01*
X284297Y521712D01*
X284470Y521066D01*
X284470Y513254D01*
X277452Y513254D01*
X277452Y522405D01*
X277438Y522495D01*
X277431Y522586D01*
X277418Y522616D01*
X277413Y522648D01*
X277370Y522729D01*
X277334Y522813D01*
X277309Y522845D01*
X277298Y522865D01*
X277274Y522888D01*
X277229Y522944D01*
X277136Y523037D01*
X276801Y523617D01*
X276628Y524263D01*
X276628Y525827D01*
X276617Y525897D01*
X276615Y525969D01*
X276597Y526018D01*
X276588Y526069D01*
X276555Y526132D01*
X276530Y526200D01*
X276498Y526241D01*
X276473Y526287D01*
X276421Y526336D01*
X276377Y526392D01*
X276333Y526420D01*
X276295Y526456D01*
X276230Y526486D01*
X276170Y526525D01*
X276119Y526538D01*
X276072Y526560D01*
X276001Y526568D01*
X275931Y526585D01*
X275879Y526581D01*
X275827Y526587D01*
X275757Y526571D01*
X275686Y526566D01*
X275638Y526546D01*
X275587Y526534D01*
X275525Y526498D01*
X275460Y526470D01*
X275404Y526425D01*
X275376Y526408D01*
X275361Y526391D01*
X275329Y526365D01*
X273535Y524572D01*
X273494Y524513D01*
X273444Y524461D01*
X273422Y524414D01*
X273392Y524372D01*
X273371Y524303D01*
X273341Y524238D01*
X273335Y524187D01*
X273320Y524137D01*
X273321Y524065D01*
X273314Y523994D01*
X273325Y523943D01*
X273326Y523891D01*
X273351Y523823D01*
X273366Y523753D01*
X273392Y523709D01*
X273410Y523660D01*
X273455Y523604D01*
X273492Y523542D01*
X273532Y523509D01*
X273564Y523468D01*
X273624Y523429D01*
X273679Y523382D01*
X273727Y523363D01*
X273771Y523335D01*
X273840Y523317D01*
X273907Y523291D01*
X273978Y523283D01*
X274010Y523275D01*
X274033Y523277D01*
X274074Y523272D01*
X274406Y523272D01*
X274406Y512493D01*
X274409Y512474D01*
X274407Y512454D01*
X274429Y512353D01*
X274446Y512251D01*
X274455Y512233D01*
X274459Y512214D01*
X274513Y512125D01*
X274561Y512033D01*
X274575Y512020D01*
X274586Y512002D01*
X274664Y511935D01*
X274739Y511864D01*
X274757Y511856D01*
X274772Y511843D01*
X274869Y511804D01*
X274962Y511760D01*
X274982Y511758D01*
X275001Y511751D01*
X275167Y511732D01*
X275930Y511732D01*
X275930Y511730D01*
X275167Y511730D01*
X275148Y511727D01*
X275128Y511729D01*
X275027Y511707D01*
X274925Y511691D01*
X274907Y511681D01*
X274888Y511677D01*
X274798Y511624D01*
X274707Y511576D01*
X274694Y511561D01*
X274676Y511551D01*
X274609Y511472D01*
X274538Y511397D01*
X274529Y511379D01*
X274516Y511364D01*
X274478Y511268D01*
X274434Y511174D01*
X274432Y511154D01*
X274425Y511136D01*
X274406Y510969D01*
X274406Y500191D01*
X270541Y500191D01*
X270522Y500187D01*
X270502Y500190D01*
X270401Y500168D01*
X270299Y500151D01*
X270281Y500142D01*
X270262Y500137D01*
X270173Y500084D01*
X270081Y500036D01*
X270068Y500021D01*
X270050Y500011D01*
X269983Y499932D01*
X269912Y499857D01*
X269904Y499839D01*
X269891Y499824D01*
X269852Y499728D01*
X269808Y499634D01*
X269806Y499615D01*
X269799Y499596D01*
X269780Y499429D01*
X269780Y494569D01*
X269237Y494027D01*
X269196Y493968D01*
X269146Y493916D01*
X269124Y493869D01*
X269094Y493827D01*
X269073Y493758D01*
X269043Y493693D01*
X269037Y493642D01*
X269021Y493592D01*
X269023Y493520D01*
X269015Y493449D01*
X269027Y493398D01*
X269028Y493346D01*
X269052Y493279D01*
X269068Y493208D01*
X269094Y493164D01*
X269112Y493115D01*
X269157Y493059D01*
X269194Y492997D01*
X269233Y492964D01*
X269266Y492923D01*
X269326Y492884D01*
X269381Y492837D01*
X269429Y492818D01*
X269473Y492790D01*
X269542Y492772D01*
X269609Y492746D01*
X269680Y492738D01*
X269711Y492730D01*
X269735Y492732D01*
X269776Y492727D01*
X273363Y492727D01*
X278216Y487874D01*
X278216Y483017D01*
X278219Y482998D01*
X278217Y482978D01*
X278239Y482877D01*
X278256Y482775D01*
X278265Y482757D01*
X278269Y482737D01*
X278323Y482648D01*
X278371Y482557D01*
X278385Y482543D01*
X278395Y482526D01*
X278474Y482459D01*
X278549Y482388D01*
X278567Y482379D01*
X278582Y482366D01*
X278679Y482328D01*
X278772Y482284D01*
X278792Y482282D01*
X278811Y482275D01*
X278977Y482256D01*
X282561Y482256D01*
X283454Y481363D01*
X283454Y462100D01*
X282763Y461409D01*
X282710Y461335D01*
X282680Y461299D01*
X282672Y461291D01*
X282671Y461289D01*
X282651Y461265D01*
X282638Y461235D01*
X282620Y461209D01*
X282593Y461122D01*
X282589Y461114D01*
X282568Y461068D01*
X282567Y461059D01*
X282559Y461037D01*
X282554Y460996D01*
X282547Y460974D01*
X282548Y460942D01*
X282540Y460871D01*
X282540Y460581D01*
X282555Y460491D01*
X282562Y460400D01*
X282575Y460370D01*
X282580Y460338D01*
X282623Y460258D01*
X282658Y460174D01*
X282684Y460141D01*
X282695Y460121D01*
X282718Y460099D01*
X282763Y460043D01*
X284302Y458504D01*
X284302Y458497D01*
X284310Y458452D01*
X284308Y458406D01*
X284329Y458331D01*
X284342Y458254D01*
X284363Y458214D01*
X284376Y458170D01*
X284421Y458106D01*
X284457Y458037D01*
X284490Y458005D01*
X284516Y457968D01*
X284579Y457921D01*
X284635Y457868D01*
X284677Y457848D01*
X284714Y457821D01*
X284788Y457797D01*
X284858Y457764D01*
X284904Y457759D01*
X284948Y457745D01*
X285026Y457745D01*
X285103Y457737D01*
X285148Y457747D01*
X285194Y457747D01*
X285325Y457785D01*
X285343Y457789D01*
X285348Y457792D01*
X285355Y457794D01*
X287557Y458706D01*
X290358Y458706D01*
X292946Y457634D01*
X294926Y455654D01*
X295998Y453066D01*
X295998Y450265D01*
X294926Y447677D01*
X292946Y445696D01*
X290358Y444625D01*
X287557Y444625D01*
X284969Y445696D01*
X282989Y447677D01*
X281917Y450265D01*
X281917Y452017D01*
X281914Y452036D01*
X281916Y452056D01*
X281894Y452157D01*
X281877Y452259D01*
X281868Y452277D01*
X281864Y452296D01*
X281810Y452385D01*
X281762Y452477D01*
X281748Y452490D01*
X281737Y452508D01*
X281659Y452575D01*
X281584Y452646D01*
X281566Y452655D01*
X281550Y452667D01*
X281454Y452706D01*
X281361Y452750D01*
X281341Y452752D01*
X281322Y452759D01*
X281156Y452778D01*
X278576Y452778D01*
X278217Y453138D01*
X278200Y453149D01*
X278188Y453165D01*
X278101Y453221D01*
X278017Y453281D01*
X277998Y453287D01*
X277981Y453298D01*
X277881Y453323D01*
X277782Y453354D01*
X277762Y453353D01*
X277743Y453358D01*
X277640Y453350D01*
X277536Y453347D01*
X277517Y453340D01*
X277497Y453339D01*
X277402Y453298D01*
X277305Y453263D01*
X277289Y453250D01*
X277271Y453243D01*
X277140Y453138D01*
X276381Y452378D01*
X272618Y452378D01*
X272485Y452510D01*
X272390Y452579D01*
X272293Y452650D01*
X272289Y452652D01*
X272286Y452654D01*
X272173Y452689D01*
X272059Y452725D01*
X272055Y452725D01*
X272051Y452726D01*
X271932Y452723D01*
X271813Y452722D01*
X271809Y452720D01*
X271805Y452720D01*
X271694Y452680D01*
X271581Y452640D01*
X271578Y452637D01*
X271574Y452636D01*
X271481Y452561D01*
X271387Y452488D01*
X271384Y452484D01*
X271382Y452482D01*
X271374Y452470D01*
X271288Y452353D01*
X271282Y452343D01*
X270809Y451870D01*
X270364Y451613D01*
X270331Y451586D01*
X270308Y451573D01*
X270279Y451543D01*
X270272Y451538D01*
X270179Y451464D01*
X270177Y451460D01*
X270174Y451457D01*
X270110Y451356D01*
X270046Y451257D01*
X270045Y451253D01*
X270043Y451249D01*
X270015Y451133D01*
X269986Y451018D01*
X269987Y451014D01*
X269986Y451010D01*
X269996Y450891D01*
X270006Y450773D01*
X270007Y450769D01*
X270008Y450765D01*
X270056Y450655D01*
X270102Y450547D01*
X270105Y450543D01*
X270106Y450540D01*
X270116Y450529D01*
X270207Y450416D01*
X270485Y450137D01*
X270485Y446374D01*
X270353Y446242D01*
X270285Y446146D01*
X270213Y446049D01*
X270212Y446045D01*
X270210Y446042D01*
X270175Y445929D01*
X270138Y445815D01*
X270138Y445811D01*
X270137Y445807D01*
X270140Y445687D01*
X270142Y445569D01*
X270143Y445565D01*
X270144Y445561D01*
X270184Y445450D01*
X270224Y445337D01*
X270227Y445334D01*
X270228Y445330D01*
X270302Y445237D01*
X270376Y445144D01*
X270380Y445141D01*
X270382Y445138D01*
X270393Y445131D01*
X270511Y445044D01*
X270521Y445039D01*
X270994Y444566D01*
X271328Y443986D01*
X271501Y443340D01*
X271501Y442517D01*
X267211Y442517D01*
X267210Y442517D01*
X262920Y442517D01*
X262920Y443340D01*
X263093Y443986D01*
X263427Y444566D01*
X263900Y445039D01*
X263910Y445044D01*
X264002Y445119D01*
X264095Y445194D01*
X264097Y445197D01*
X264101Y445200D01*
X264163Y445300D01*
X264228Y445401D01*
X264229Y445405D01*
X264231Y445408D01*
X264259Y445522D01*
X264288Y445639D01*
X264288Y445643D01*
X264289Y445648D01*
X264278Y445766D01*
X264269Y445885D01*
X264267Y445888D01*
X264267Y445893D01*
X264220Y446000D01*
X264173Y446111D01*
X264170Y446115D01*
X264168Y446118D01*
X264159Y446128D01*
X264068Y446242D01*
X263936Y446374D01*
X263936Y449861D01*
X263921Y449951D01*
X263914Y450042D01*
X263901Y450071D01*
X263896Y450103D01*
X263853Y450184D01*
X263818Y450268D01*
X263792Y450300D01*
X263781Y450321D01*
X263758Y450343D01*
X263713Y450399D01*
X263461Y450651D01*
X263402Y450693D01*
X263350Y450742D01*
X263303Y450764D01*
X263261Y450795D01*
X263192Y450816D01*
X263127Y450846D01*
X263076Y450852D01*
X263026Y450867D01*
X262954Y450865D01*
X262883Y450873D01*
X262832Y450862D01*
X262780Y450861D01*
X262713Y450836D01*
X262642Y450821D01*
X262598Y450794D01*
X262549Y450776D01*
X262493Y450731D01*
X262431Y450695D01*
X262397Y450655D01*
X262357Y450623D01*
X262318Y450562D01*
X262271Y450508D01*
X262252Y450459D01*
X262224Y450416D01*
X262206Y450346D01*
X262179Y450280D01*
X262172Y450208D01*
X262164Y450177D01*
X262166Y450154D01*
X262161Y450113D01*
X262161Y447629D01*
X259789Y445257D01*
X256435Y445257D01*
X254064Y447629D01*
X254064Y450991D01*
X254107Y451059D01*
X254167Y451143D01*
X254173Y451162D01*
X254184Y451178D01*
X254209Y451279D01*
X254240Y451378D01*
X254239Y451398D01*
X254244Y451417D01*
X254236Y451520D01*
X254233Y451624D01*
X254226Y451642D01*
X254225Y451662D01*
X254184Y451757D01*
X254149Y451855D01*
X254136Y451870D01*
X254129Y451889D01*
X254024Y452020D01*
X252464Y453580D01*
X252447Y453591D01*
X252435Y453607D01*
X252348Y453663D01*
X252264Y453723D01*
X252245Y453729D01*
X252228Y453740D01*
X252128Y453765D01*
X252029Y453796D01*
X252009Y453795D01*
X251990Y453800D01*
X251887Y453792D01*
X251783Y453789D01*
X251764Y453782D01*
X251744Y453781D01*
X251649Y453740D01*
X251552Y453705D01*
X251536Y453692D01*
X251518Y453685D01*
X251387Y453580D01*
X251308Y453501D01*
X250024Y453501D01*
X250004Y453498D01*
X249984Y453500D01*
X249883Y453478D01*
X249781Y453461D01*
X249763Y453452D01*
X249744Y453448D01*
X249655Y453395D01*
X249564Y453346D01*
X249550Y453332D01*
X249533Y453322D01*
X249465Y453243D01*
X249394Y453168D01*
X249386Y453150D01*
X249373Y453135D01*
X249334Y453038D01*
X249291Y452945D01*
X249288Y452925D01*
X249281Y452907D01*
X249262Y452740D01*
X249262Y444734D01*
X249277Y444644D01*
X249284Y444553D01*
X249297Y444523D01*
X249302Y444491D01*
X249345Y444410D01*
X249381Y444326D01*
X249406Y444294D01*
X249417Y444274D01*
X249441Y444251D01*
X249485Y444195D01*
X253268Y440413D01*
X253341Y440360D01*
X253411Y440301D01*
X253441Y440289D01*
X253467Y440270D01*
X253554Y440243D01*
X253639Y440209D01*
X253680Y440204D01*
X253702Y440197D01*
X253735Y440198D01*
X253806Y440190D01*
X262159Y440190D01*
X262178Y440194D01*
G37*
G36*
X371878Y518646D02*
X371878Y518646D01*
X371950Y518651D01*
X371997Y518672D01*
X372048Y518683D01*
X372110Y518720D01*
X372176Y518748D01*
X372232Y518792D01*
X372260Y518809D01*
X372275Y518827D01*
X372307Y518852D01*
X372742Y519288D01*
X372795Y519362D01*
X372855Y519431D01*
X372867Y519461D01*
X372886Y519488D01*
X372913Y519574D01*
X372947Y519659D01*
X372951Y519700D01*
X372958Y519723D01*
X372957Y519755D01*
X372965Y519826D01*
X372965Y520183D01*
X372950Y520273D01*
X372943Y520364D01*
X372931Y520394D01*
X372925Y520426D01*
X372883Y520507D01*
X372847Y520591D01*
X372821Y520623D01*
X372810Y520643D01*
X372787Y520666D01*
X372742Y520722D01*
X371977Y521487D01*
X371977Y525250D01*
X372807Y526080D01*
X372819Y526096D01*
X372835Y526109D01*
X372891Y526196D01*
X372951Y526280D01*
X372957Y526299D01*
X372968Y526315D01*
X372993Y526416D01*
X373023Y526515D01*
X373023Y526535D01*
X373028Y526554D01*
X373020Y526657D01*
X373017Y526761D01*
X373010Y526779D01*
X373009Y526799D01*
X372968Y526894D01*
X372932Y526992D01*
X372920Y527007D01*
X372912Y527026D01*
X372807Y527157D01*
X372605Y527359D01*
X372531Y527412D01*
X372462Y527471D01*
X372432Y527483D01*
X372406Y527502D01*
X372328Y527526D01*
X362841Y537014D01*
X362767Y537067D01*
X362697Y537126D01*
X362667Y537138D01*
X362641Y537157D01*
X362554Y537184D01*
X362469Y537218D01*
X362428Y537223D01*
X362406Y537230D01*
X362374Y537229D01*
X362302Y537237D01*
X348511Y537237D01*
X346302Y537237D01*
X344739Y538799D01*
X310920Y572618D01*
X310846Y572671D01*
X310777Y572731D01*
X310747Y572743D01*
X310721Y572762D01*
X310634Y572788D01*
X310549Y572822D01*
X310508Y572827D01*
X310485Y572834D01*
X310453Y572833D01*
X310382Y572841D01*
X291792Y572841D01*
X291702Y572826D01*
X291611Y572819D01*
X291581Y572806D01*
X291549Y572801D01*
X291468Y572758D01*
X291384Y572723D01*
X291352Y572697D01*
X291332Y572686D01*
X291309Y572663D01*
X291253Y572618D01*
X288937Y570301D01*
X288884Y570227D01*
X288824Y570158D01*
X288812Y570128D01*
X288793Y570101D01*
X288766Y570014D01*
X288732Y569930D01*
X288728Y569889D01*
X288721Y569866D01*
X288722Y569834D01*
X288714Y569763D01*
X288714Y565076D01*
X288728Y564986D01*
X288736Y564895D01*
X288748Y564866D01*
X288753Y564834D01*
X288796Y564753D01*
X288832Y564669D01*
X288858Y564637D01*
X288868Y564616D01*
X288892Y564594D01*
X288937Y564538D01*
X290902Y562573D01*
X291297Y562178D01*
X291371Y562124D01*
X291441Y562065D01*
X291471Y562053D01*
X291497Y562034D01*
X291584Y562007D01*
X291669Y561973D01*
X291710Y561968D01*
X291732Y561962D01*
X291764Y561962D01*
X291836Y561954D01*
X292559Y561954D01*
X293452Y561061D01*
X293452Y557298D01*
X293320Y557166D01*
X293251Y557071D01*
X293180Y556974D01*
X293179Y556970D01*
X293176Y556966D01*
X293141Y556853D01*
X293105Y556739D01*
X293105Y556735D01*
X293104Y556731D01*
X293107Y556613D01*
X293109Y556493D01*
X293110Y556490D01*
X293110Y556485D01*
X293151Y556374D01*
X293191Y556262D01*
X293193Y556258D01*
X293195Y556254D01*
X293269Y556161D01*
X293342Y556068D01*
X293346Y556065D01*
X293348Y556062D01*
X293360Y556055D01*
X293478Y555968D01*
X293487Y555963D01*
X293960Y555490D01*
X294295Y554911D01*
X294301Y554886D01*
X294340Y554800D01*
X294373Y554710D01*
X294391Y554688D01*
X294402Y554662D01*
X294467Y554592D01*
X294527Y554518D01*
X294551Y554503D01*
X294570Y554482D01*
X294653Y554437D01*
X294734Y554385D01*
X294761Y554378D01*
X294786Y554365D01*
X294880Y554348D01*
X294972Y554325D01*
X295000Y554327D01*
X295028Y554322D01*
X295123Y554337D01*
X295218Y554344D01*
X295243Y554355D01*
X295271Y554359D01*
X295356Y554403D01*
X295444Y554440D01*
X295471Y554462D01*
X295490Y554472D01*
X295513Y554496D01*
X295575Y554545D01*
X296908Y555878D01*
X299084Y555878D01*
X299174Y555893D01*
X299265Y555900D01*
X299295Y555912D01*
X299327Y555918D01*
X299408Y555960D01*
X299491Y555996D01*
X299524Y556022D01*
X299544Y556033D01*
X299566Y556056D01*
X299622Y556101D01*
X300327Y556806D01*
X306588Y556806D01*
X306679Y556820D01*
X306769Y556827D01*
X306799Y556840D01*
X306831Y556845D01*
X306912Y556888D01*
X306996Y556924D01*
X307028Y556949D01*
X307049Y556960D01*
X307071Y556984D01*
X307127Y557029D01*
X307671Y557573D01*
X308902Y557573D01*
X308972Y557585D01*
X309044Y557586D01*
X309093Y557604D01*
X309144Y557613D01*
X309208Y557646D01*
X309275Y557671D01*
X309316Y557703D01*
X309362Y557728D01*
X309411Y557780D01*
X309467Y557825D01*
X309495Y557868D01*
X309531Y557906D01*
X309561Y557971D01*
X309600Y558032D01*
X309613Y558082D01*
X309635Y558129D01*
X309643Y558201D01*
X309660Y558270D01*
X309656Y558322D01*
X309662Y558374D01*
X309647Y558444D01*
X309641Y558515D01*
X309621Y558563D01*
X309610Y558614D01*
X309573Y558676D01*
X309545Y558742D01*
X309500Y558798D01*
X309483Y558825D01*
X309466Y558840D01*
X309440Y558873D01*
X303827Y564486D01*
X303753Y564539D01*
X303683Y564598D01*
X303653Y564610D01*
X303627Y564629D01*
X303540Y564656D01*
X303455Y564690D01*
X303414Y564695D01*
X303392Y564702D01*
X303360Y564701D01*
X303288Y564709D01*
X299563Y564709D01*
X299473Y564694D01*
X299382Y564687D01*
X299352Y564674D01*
X299320Y564669D01*
X299240Y564626D01*
X299156Y564590D01*
X299124Y564565D01*
X299103Y564554D01*
X299081Y564531D01*
X299025Y564486D01*
X297486Y562947D01*
X294132Y562947D01*
X291760Y565318D01*
X291760Y568672D01*
X294132Y571044D01*
X297486Y571044D01*
X299025Y569505D01*
X299099Y569452D01*
X299168Y569393D01*
X299198Y569380D01*
X299225Y569362D01*
X299312Y569335D01*
X299396Y569301D01*
X299437Y569296D01*
X299460Y569289D01*
X299492Y569290D01*
X299563Y569282D01*
X305498Y569282D01*
X316736Y558044D01*
X316736Y549716D01*
X316751Y549626D01*
X316758Y549535D01*
X316771Y549505D01*
X316776Y549473D01*
X316819Y549393D01*
X316854Y549309D01*
X316880Y549277D01*
X316891Y549256D01*
X316914Y549234D01*
X316959Y549178D01*
X322831Y543306D01*
X322831Y539802D01*
X322834Y539783D01*
X322832Y539763D01*
X322854Y539662D01*
X322871Y539560D01*
X322880Y539542D01*
X322884Y539522D01*
X322938Y539433D01*
X322986Y539342D01*
X323000Y539328D01*
X323011Y539311D01*
X323089Y539244D01*
X323164Y539173D01*
X323182Y539164D01*
X323197Y539151D01*
X323294Y539113D01*
X323387Y539069D01*
X323407Y539067D01*
X323426Y539060D01*
X323592Y539041D01*
X330499Y539041D01*
X333178Y536362D01*
X333178Y534171D01*
X333181Y534152D01*
X333179Y534132D01*
X333201Y534031D01*
X333218Y533929D01*
X333227Y533911D01*
X333231Y533892D01*
X333284Y533803D01*
X333333Y533711D01*
X333347Y533698D01*
X333357Y533680D01*
X333436Y533613D01*
X333511Y533542D01*
X333529Y533534D01*
X333544Y533521D01*
X333640Y533482D01*
X333734Y533438D01*
X333754Y533436D01*
X333772Y533429D01*
X333939Y533410D01*
X354273Y533410D01*
X365831Y521852D01*
X365905Y521799D01*
X365974Y521740D01*
X366005Y521728D01*
X366031Y521709D01*
X366118Y521682D01*
X366203Y521648D01*
X366244Y521643D01*
X366266Y521636D01*
X366298Y521637D01*
X366369Y521629D01*
X368636Y521629D01*
X371023Y519242D01*
X371039Y519199D01*
X371047Y519148D01*
X371081Y519085D01*
X371105Y519017D01*
X371138Y518977D01*
X371162Y518931D01*
X371214Y518881D01*
X371259Y518825D01*
X371303Y518797D01*
X371341Y518761D01*
X371406Y518731D01*
X371466Y518692D01*
X371516Y518680D01*
X371564Y518658D01*
X371635Y518650D01*
X371704Y518632D01*
X371756Y518636D01*
X371808Y518630D01*
X371878Y518646D01*
G37*
G36*
X306464Y529194D02*
X306464Y529194D01*
X306484Y529192D01*
X306585Y529214D01*
X306687Y529231D01*
X306705Y529240D01*
X306724Y529244D01*
X306813Y529298D01*
X306904Y529346D01*
X306918Y529360D01*
X306935Y529370D01*
X307003Y529449D01*
X307074Y529524D01*
X307082Y529542D01*
X307095Y529557D01*
X307134Y529653D01*
X307177Y529747D01*
X307180Y529767D01*
X307187Y529786D01*
X307206Y529952D01*
X307206Y531191D01*
X310996Y531191D01*
X311016Y531194D01*
X311035Y531192D01*
X311137Y531214D01*
X311239Y531231D01*
X311256Y531240D01*
X311276Y531244D01*
X311365Y531297D01*
X311456Y531346D01*
X311470Y531360D01*
X311487Y531370D01*
X311487Y531371D01*
X311555Y531449D01*
X311625Y531524D01*
X311626Y531524D01*
X311634Y531542D01*
X311647Y531558D01*
X311686Y531654D01*
X311730Y531748D01*
X311732Y531767D01*
X311739Y531786D01*
X311758Y531953D01*
X311758Y536243D01*
X312581Y536243D01*
X313227Y536070D01*
X313806Y535735D01*
X313910Y535632D01*
X313968Y535590D01*
X314020Y535540D01*
X314068Y535518D01*
X314110Y535488D01*
X314178Y535467D01*
X314243Y535437D01*
X314295Y535431D01*
X314345Y535416D01*
X314417Y535418D01*
X314488Y535410D01*
X314539Y535421D01*
X314591Y535422D01*
X314658Y535447D01*
X314728Y535462D01*
X314773Y535489D01*
X314822Y535506D01*
X314878Y535551D01*
X314939Y535588D01*
X314973Y535628D01*
X315014Y535660D01*
X315052Y535720D01*
X315099Y535775D01*
X315119Y535823D01*
X315147Y535867D01*
X315164Y535937D01*
X315191Y536003D01*
X315199Y536074D01*
X315207Y536106D01*
X315205Y536129D01*
X315210Y536170D01*
X315210Y539834D01*
X315195Y539924D01*
X315188Y540015D01*
X315175Y540044D01*
X315170Y540076D01*
X315127Y540157D01*
X315091Y540241D01*
X315066Y540273D01*
X315055Y540294D01*
X315031Y540316D01*
X314987Y540372D01*
X310058Y545301D01*
X309984Y545354D01*
X309915Y545413D01*
X309884Y545425D01*
X309858Y545444D01*
X309771Y545471D01*
X309686Y545505D01*
X309645Y545510D01*
X309623Y545517D01*
X309591Y545516D01*
X309520Y545524D01*
X307671Y545524D01*
X306778Y546417D01*
X306778Y550180D01*
X307531Y550933D01*
X307573Y550991D01*
X307622Y551043D01*
X307644Y551090D01*
X307674Y551132D01*
X307695Y551201D01*
X307726Y551266D01*
X307731Y551318D01*
X307747Y551367D01*
X307745Y551439D01*
X307753Y551510D01*
X307742Y551561D01*
X307740Y551613D01*
X307716Y551681D01*
X307700Y551751D01*
X307674Y551795D01*
X307656Y551844D01*
X307611Y551900D01*
X307574Y551962D01*
X307535Y551996D01*
X307502Y552036D01*
X307442Y552075D01*
X307387Y552122D01*
X307339Y552141D01*
X307295Y552169D01*
X307226Y552187D01*
X307159Y552214D01*
X307088Y552222D01*
X307057Y552229D01*
X307033Y552228D01*
X306992Y552232D01*
X303395Y552232D01*
X303375Y552229D01*
X303355Y552231D01*
X303254Y552209D01*
X303152Y552192D01*
X303134Y552183D01*
X303115Y552179D01*
X303026Y552126D01*
X302934Y552077D01*
X302921Y552063D01*
X302904Y552053D01*
X302836Y551974D01*
X302765Y551899D01*
X302757Y551881D01*
X302744Y551866D01*
X302705Y551770D01*
X302661Y551676D01*
X302659Y551656D01*
X302652Y551638D01*
X302633Y551471D01*
X302633Y550152D01*
X300262Y547780D01*
X296908Y547780D01*
X294928Y549760D01*
X294911Y549772D01*
X294899Y549788D01*
X294812Y549844D01*
X294728Y549904D01*
X294709Y549910D01*
X294692Y549921D01*
X294592Y549946D01*
X294493Y549976D01*
X294473Y549976D01*
X294453Y549981D01*
X294350Y549973D01*
X294247Y549970D01*
X294228Y549963D01*
X294208Y549961D01*
X294113Y549921D01*
X294016Y549885D01*
X294000Y549873D01*
X293982Y549865D01*
X293851Y549760D01*
X293487Y549397D01*
X292908Y549062D01*
X292262Y548889D01*
X290939Y548889D01*
X290939Y551918D01*
X293775Y551918D01*
X293794Y551922D01*
X293814Y551919D01*
X293915Y551941D01*
X294017Y551958D01*
X294035Y551967D01*
X294054Y551972D01*
X294143Y552025D01*
X294235Y552073D01*
X294248Y552088D01*
X294266Y552098D01*
X294333Y552177D01*
X294404Y552252D01*
X294412Y552270D01*
X294425Y552285D01*
X294464Y552381D01*
X294508Y552475D01*
X294510Y552494D01*
X294517Y552513D01*
X294536Y552680D01*
X294533Y552699D01*
X294535Y552719D01*
X294513Y552821D01*
X294496Y552923D01*
X294487Y552940D01*
X294483Y552960D01*
X294429Y553049D01*
X294381Y553140D01*
X294367Y553154D01*
X294356Y553171D01*
X294278Y553238D01*
X294203Y553309D01*
X294185Y553318D01*
X294169Y553331D01*
X294073Y553370D01*
X293980Y553413D01*
X293960Y553415D01*
X293941Y553423D01*
X293775Y553441D01*
X290178Y553441D01*
X290158Y553438D01*
X290138Y553440D01*
X290037Y553418D01*
X289935Y553401D01*
X289917Y553392D01*
X289898Y553388D01*
X289809Y553335D01*
X289717Y553286D01*
X289704Y553272D01*
X289687Y553262D01*
X289686Y553261D01*
X289619Y553182D01*
X289548Y553107D01*
X289539Y553089D01*
X289526Y553074D01*
X289487Y552978D01*
X289444Y552884D01*
X289442Y552865D01*
X289434Y552846D01*
X289416Y552679D01*
X289416Y548889D01*
X288093Y548889D01*
X287447Y549062D01*
X286780Y549447D01*
X286775Y549449D01*
X286719Y549489D01*
X286677Y549502D01*
X286638Y549524D01*
X286560Y549538D01*
X286484Y549562D01*
X286440Y549560D01*
X286396Y549569D01*
X286317Y549557D01*
X286238Y549555D01*
X286197Y549540D01*
X286153Y549534D01*
X286021Y549476D01*
X286007Y549471D01*
X286004Y549469D01*
X285999Y549467D01*
X285970Y549450D01*
X285324Y549277D01*
X284501Y549277D01*
X284501Y553567D01*
X284498Y553587D01*
X284500Y553607D01*
X284478Y553708D01*
X284461Y553810D01*
X284452Y553828D01*
X284448Y553847D01*
X284395Y553936D01*
X284346Y554027D01*
X284346Y554028D01*
X284332Y554041D01*
X284322Y554058D01*
X284321Y554059D01*
X284242Y554126D01*
X284167Y554197D01*
X284149Y554206D01*
X284134Y554219D01*
X284038Y554257D01*
X283944Y554301D01*
X283925Y554303D01*
X283906Y554311D01*
X283739Y554329D01*
X280776Y554329D01*
X280756Y554326D01*
X280736Y554328D01*
X280635Y554306D01*
X280533Y554289D01*
X280515Y554280D01*
X280496Y554276D01*
X280407Y554222D01*
X280315Y554174D01*
X280302Y554160D01*
X280285Y554150D01*
X280217Y554071D01*
X280146Y553996D01*
X280138Y553978D01*
X280125Y553963D01*
X280086Y553866D01*
X280042Y553773D01*
X280040Y553753D01*
X280033Y553734D01*
X280014Y553568D01*
X280014Y553567D01*
X280018Y553548D01*
X280015Y553528D01*
X280037Y553427D01*
X280054Y553325D01*
X280063Y553307D01*
X280068Y553288D01*
X280121Y553199D01*
X280169Y553107D01*
X280184Y553094D01*
X280194Y553076D01*
X280273Y553009D01*
X280348Y552938D01*
X280366Y552930D01*
X280381Y552917D01*
X280477Y552878D01*
X280571Y552834D01*
X280590Y552832D01*
X280609Y552825D01*
X280776Y552806D01*
X282978Y552806D01*
X282978Y549277D01*
X282155Y549277D01*
X281509Y549450D01*
X280930Y549784D01*
X280457Y550257D01*
X280451Y550267D01*
X280377Y550358D01*
X280301Y550452D01*
X280298Y550455D01*
X280295Y550458D01*
X280196Y550520D01*
X280094Y550585D01*
X280090Y550586D01*
X280087Y550588D01*
X279971Y550616D01*
X279856Y550645D01*
X279852Y550645D01*
X279848Y550646D01*
X279729Y550635D01*
X279611Y550626D01*
X279607Y550625D01*
X279603Y550624D01*
X279494Y550577D01*
X279384Y550530D01*
X279380Y550527D01*
X279377Y550525D01*
X279367Y550516D01*
X279253Y550425D01*
X279121Y550293D01*
X276662Y550293D01*
X276643Y550290D01*
X276623Y550292D01*
X276522Y550270D01*
X276419Y550253D01*
X276402Y550244D01*
X276382Y550240D01*
X276293Y550186D01*
X276202Y550138D01*
X276188Y550124D01*
X276171Y550113D01*
X276104Y550035D01*
X276033Y549960D01*
X276024Y549942D01*
X276011Y549926D01*
X275973Y549830D01*
X275929Y549737D01*
X275927Y549717D01*
X275919Y549698D01*
X275901Y549532D01*
X275901Y547904D01*
X273529Y545533D01*
X273184Y545533D01*
X273113Y545521D01*
X273041Y545519D01*
X272992Y545501D01*
X272941Y545493D01*
X272878Y545460D01*
X272810Y545435D01*
X272770Y545402D01*
X272724Y545378D01*
X272674Y545326D01*
X272618Y545281D01*
X272590Y545237D01*
X272554Y545200D01*
X272524Y545135D01*
X272485Y545074D01*
X272473Y545024D01*
X272451Y544977D01*
X272443Y544905D01*
X272425Y544836D01*
X272429Y544784D01*
X272424Y544732D01*
X272439Y544662D01*
X272444Y544591D01*
X272465Y544543D01*
X272476Y544492D01*
X272513Y544430D01*
X272541Y544364D01*
X272586Y544308D01*
X272602Y544281D01*
X272620Y544265D01*
X272646Y544233D01*
X272710Y544169D01*
X272710Y536906D01*
X271817Y536012D01*
X271733Y536012D01*
X271714Y536009D01*
X271694Y536011D01*
X271593Y535989D01*
X271491Y535973D01*
X271473Y535963D01*
X271454Y535959D01*
X271364Y535906D01*
X271273Y535858D01*
X271260Y535843D01*
X271242Y535833D01*
X271175Y535754D01*
X271104Y535679D01*
X271095Y535661D01*
X271082Y535646D01*
X271044Y535550D01*
X271000Y535456D01*
X270998Y535436D01*
X270991Y535418D01*
X270972Y535251D01*
X270972Y530314D01*
X270984Y530243D01*
X270986Y530171D01*
X271003Y530122D01*
X271012Y530071D01*
X271045Y530008D01*
X271070Y529940D01*
X271103Y529900D01*
X271127Y529854D01*
X271179Y529804D01*
X271224Y529748D01*
X271268Y529720D01*
X271305Y529684D01*
X271370Y529654D01*
X271431Y529615D01*
X271481Y529603D01*
X271528Y529581D01*
X271600Y529573D01*
X271669Y529555D01*
X271721Y529559D01*
X271773Y529554D01*
X271843Y529569D01*
X271914Y529574D01*
X271962Y529595D01*
X272013Y529606D01*
X272075Y529643D01*
X272141Y529671D01*
X272197Y529715D01*
X272224Y529732D01*
X272239Y529750D01*
X272272Y529776D01*
X277209Y534713D01*
X277251Y534771D01*
X277300Y534823D01*
X277322Y534870D01*
X277353Y534913D01*
X277374Y534981D01*
X277404Y535046D01*
X277410Y535098D01*
X277425Y535148D01*
X277423Y535220D01*
X277431Y535291D01*
X277420Y535342D01*
X277419Y535394D01*
X277394Y535461D01*
X277379Y535531D01*
X277352Y535576D01*
X277334Y535625D01*
X277289Y535681D01*
X277253Y535742D01*
X277213Y535776D01*
X277180Y535817D01*
X277120Y535855D01*
X277066Y535902D01*
X277017Y535922D01*
X276973Y535950D01*
X276904Y535967D01*
X276837Y535994D01*
X276766Y536002D01*
X276735Y536010D01*
X276712Y536008D01*
X276671Y536012D01*
X276554Y536012D01*
X275661Y536906D01*
X275661Y544169D01*
X276554Y545062D01*
X282817Y545062D01*
X283710Y544169D01*
X283710Y543727D01*
X283714Y543700D01*
X283712Y543674D01*
X283734Y543579D01*
X283750Y543484D01*
X283762Y543460D01*
X283769Y543434D01*
X283820Y543352D01*
X283865Y543267D01*
X283884Y543248D01*
X283899Y543225D01*
X283973Y543164D01*
X284043Y543097D01*
X284068Y543086D01*
X284088Y543069D01*
X284179Y543034D01*
X284266Y542994D01*
X284293Y542991D01*
X284318Y542981D01*
X284485Y542966D01*
X285254Y542980D01*
X285921Y542313D01*
X285925Y542309D01*
X285931Y542303D01*
X286705Y541557D01*
X286706Y541554D01*
X286738Y541514D01*
X286751Y541490D01*
X286773Y541470D01*
X286811Y541423D01*
X292268Y535966D01*
X292326Y535924D01*
X292378Y535875D01*
X292425Y535853D01*
X292467Y535822D01*
X292536Y535801D01*
X292601Y535771D01*
X292653Y535765D01*
X292702Y535750D01*
X292774Y535752D01*
X292845Y535744D01*
X292896Y535755D01*
X292948Y535756D01*
X293016Y535781D01*
X293086Y535796D01*
X293130Y535823D01*
X293179Y535841D01*
X293235Y535886D01*
X293297Y535922D01*
X293331Y535962D01*
X293371Y535995D01*
X293410Y536055D01*
X293457Y536109D01*
X293476Y536158D01*
X293504Y536201D01*
X293522Y536271D01*
X293549Y536338D01*
X293557Y536409D01*
X293564Y536440D01*
X293563Y536463D01*
X293567Y536504D01*
X293567Y536655D01*
X297859Y536655D01*
X297859Y532864D01*
X297208Y532864D01*
X297137Y532852D01*
X297065Y532850D01*
X297017Y532832D01*
X296965Y532824D01*
X296902Y532790D01*
X296834Y532766D01*
X296794Y532733D01*
X296748Y532709D01*
X296698Y532657D01*
X296642Y532612D01*
X296614Y532568D01*
X296578Y532530D01*
X296548Y532465D01*
X296509Y532405D01*
X296497Y532355D01*
X296475Y532307D01*
X296467Y532236D01*
X296449Y532166D01*
X296453Y532115D01*
X296448Y532063D01*
X296463Y531993D01*
X296468Y531921D01*
X296489Y531873D01*
X296500Y531822D01*
X296537Y531761D01*
X296565Y531695D01*
X296610Y531639D01*
X296626Y531611D01*
X296644Y531596D01*
X296670Y531564D01*
X297082Y531152D01*
X297156Y531099D01*
X297225Y531039D01*
X297255Y531027D01*
X297281Y531008D01*
X297368Y530982D01*
X297453Y530947D01*
X297494Y530943D01*
X297516Y530936D01*
X297549Y530937D01*
X297620Y530929D01*
X302739Y530929D01*
X303633Y530036D01*
X303633Y529952D01*
X303636Y529933D01*
X303634Y529913D01*
X303656Y529812D01*
X303672Y529709D01*
X303682Y529692D01*
X303686Y529672D01*
X303739Y529583D01*
X303787Y529492D01*
X303802Y529478D01*
X303812Y529461D01*
X303891Y529394D01*
X303966Y529323D01*
X303984Y529314D01*
X303999Y529301D01*
X304095Y529263D01*
X304189Y529219D01*
X304209Y529217D01*
X304227Y529209D01*
X304394Y529191D01*
X306444Y529191D01*
X306464Y529194D01*
G37*
G36*
X221099Y479359D02*
X221099Y479359D01*
X221202Y479361D01*
X221221Y479368D01*
X221241Y479370D01*
X221336Y479410D01*
X221433Y479446D01*
X221449Y479458D01*
X221467Y479466D01*
X221598Y479571D01*
X221819Y479791D01*
X225067Y479791D01*
X225157Y479806D01*
X225248Y479813D01*
X225277Y479826D01*
X225309Y479831D01*
X225390Y479874D01*
X225474Y479909D01*
X225506Y479935D01*
X225527Y479946D01*
X225549Y479969D01*
X225605Y480014D01*
X225718Y480128D01*
X225760Y480186D01*
X225810Y480238D01*
X225832Y480285D01*
X225862Y480327D01*
X225883Y480396D01*
X225913Y480461D01*
X225919Y480513D01*
X225934Y480563D01*
X225933Y480634D01*
X225940Y480706D01*
X225929Y480756D01*
X225928Y480808D01*
X225903Y480876D01*
X225888Y480946D01*
X225861Y480991D01*
X225844Y481039D01*
X225799Y481095D01*
X225762Y481157D01*
X225722Y481191D01*
X225690Y481231D01*
X225630Y481270D01*
X225575Y481317D01*
X225527Y481336D01*
X225483Y481364D01*
X225414Y481382D01*
X225347Y481409D01*
X225276Y481417D01*
X225245Y481425D01*
X225221Y481423D01*
X225180Y481427D01*
X219785Y481427D01*
X218223Y482990D01*
X212644Y488569D01*
X211082Y490131D01*
X211082Y510310D01*
X223062Y522290D01*
X228941Y522290D01*
X229733Y521499D01*
X229807Y521445D01*
X229876Y521386D01*
X229906Y521374D01*
X229932Y521355D01*
X230019Y521328D01*
X230104Y521294D01*
X230145Y521290D01*
X230167Y521283D01*
X230200Y521284D01*
X230271Y521276D01*
X230770Y521276D01*
X230790Y521279D01*
X230809Y521277D01*
X230911Y521299D01*
X231013Y521315D01*
X231030Y521325D01*
X231050Y521329D01*
X231139Y521382D01*
X231230Y521430D01*
X231244Y521445D01*
X231261Y521455D01*
X231328Y521534D01*
X231399Y521609D01*
X231408Y521627D01*
X231421Y521642D01*
X231460Y521738D01*
X231503Y521832D01*
X231505Y521852D01*
X231513Y521870D01*
X231531Y522037D01*
X231531Y524668D01*
X231512Y524784D01*
X231494Y524902D01*
X231492Y524906D01*
X231491Y524910D01*
X231437Y525013D01*
X231381Y525121D01*
X231378Y525124D01*
X231376Y525128D01*
X231291Y525209D01*
X231205Y525292D01*
X231201Y525294D01*
X231198Y525297D01*
X231091Y525347D01*
X230983Y525398D01*
X230979Y525399D01*
X230975Y525401D01*
X230857Y525414D01*
X230739Y525428D01*
X230734Y525427D01*
X230730Y525428D01*
X230717Y525425D01*
X230573Y525403D01*
X229912Y525226D01*
X229321Y525226D01*
X229321Y534966D01*
X229321Y534967D01*
X229321Y544707D01*
X229416Y544707D01*
X229486Y544719D01*
X229558Y544721D01*
X229607Y544739D01*
X229658Y544747D01*
X229722Y544781D01*
X229789Y544805D01*
X229830Y544838D01*
X229876Y544862D01*
X229925Y544914D01*
X229981Y544959D01*
X230009Y545003D01*
X230045Y545040D01*
X230075Y545106D01*
X230114Y545166D01*
X230127Y545216D01*
X230149Y545264D01*
X230157Y545335D01*
X230174Y545404D01*
X230170Y545456D01*
X230176Y545508D01*
X230161Y545578D01*
X230155Y545650D01*
X230135Y545697D01*
X230124Y545748D01*
X230087Y545810D01*
X230059Y545876D01*
X230014Y545932D01*
X229997Y545959D01*
X229980Y545975D01*
X229954Y546007D01*
X229101Y546859D01*
X229027Y546913D01*
X228958Y546972D01*
X228928Y546984D01*
X228902Y547003D01*
X228814Y547030D01*
X228730Y547064D01*
X228689Y547068D01*
X228666Y547075D01*
X228634Y547074D01*
X228563Y547082D01*
X226204Y547082D01*
X226072Y547214D01*
X225977Y547283D01*
X225880Y547354D01*
X225876Y547356D01*
X225872Y547358D01*
X225759Y547393D01*
X225645Y547429D01*
X225641Y547429D01*
X225637Y547430D01*
X225519Y547427D01*
X225399Y547425D01*
X225395Y547424D01*
X225391Y547424D01*
X225280Y547383D01*
X225168Y547344D01*
X225164Y547341D01*
X225160Y547340D01*
X225067Y547265D01*
X224974Y547192D01*
X224971Y547188D01*
X224968Y547186D01*
X224961Y547174D01*
X224874Y547057D01*
X224869Y547047D01*
X224396Y546574D01*
X223743Y546197D01*
X223651Y546122D01*
X223558Y546047D01*
X223555Y546044D01*
X223552Y546041D01*
X223490Y545942D01*
X223425Y545840D01*
X223424Y545836D01*
X223421Y545833D01*
X223394Y545718D01*
X223365Y545602D01*
X223365Y545598D01*
X223364Y545594D01*
X223375Y545475D01*
X223384Y545357D01*
X223385Y545353D01*
X223386Y545349D01*
X223434Y545239D01*
X223480Y545130D01*
X223483Y545126D01*
X223485Y545123D01*
X223494Y545113D01*
X223585Y544999D01*
X224599Y543985D01*
X224615Y543973D01*
X224628Y543958D01*
X224715Y543902D01*
X224799Y543841D01*
X224818Y543836D01*
X224835Y543825D01*
X224935Y543800D01*
X225034Y543769D01*
X225054Y543770D01*
X225073Y543765D01*
X225176Y543773D01*
X225280Y543775D01*
X225299Y543782D01*
X225319Y543784D01*
X225414Y543824D01*
X225511Y543860D01*
X225526Y543872D01*
X225545Y543880D01*
X225676Y543985D01*
X225825Y544135D01*
X226479Y544512D01*
X227208Y544707D01*
X227799Y544707D01*
X227799Y534967D01*
X227799Y534966D01*
X227799Y525226D01*
X227208Y525226D01*
X226479Y525421D01*
X225825Y525798D01*
X225605Y526019D01*
X225531Y526072D01*
X225462Y526131D01*
X225431Y526144D01*
X225405Y526162D01*
X225318Y526189D01*
X225233Y526223D01*
X225192Y526228D01*
X225170Y526235D01*
X225138Y526234D01*
X225067Y526242D01*
X221819Y526242D01*
X221598Y526462D01*
X221582Y526474D01*
X221570Y526490D01*
X221482Y526546D01*
X221399Y526606D01*
X221380Y526612D01*
X221363Y526623D01*
X221262Y526648D01*
X221163Y526678D01*
X221143Y526678D01*
X221124Y526683D01*
X221021Y526675D01*
X220918Y526672D01*
X220899Y526665D01*
X220879Y526663D01*
X220784Y526623D01*
X220687Y526587D01*
X220671Y526575D01*
X220653Y526567D01*
X220522Y526462D01*
X220301Y526242D01*
X216817Y526242D01*
X216807Y526249D01*
X216794Y526265D01*
X216707Y526321D01*
X216623Y526381D01*
X216604Y526387D01*
X216587Y526398D01*
X216487Y526423D01*
X216388Y526454D01*
X216368Y526453D01*
X216349Y526458D01*
X216246Y526450D01*
X216142Y526447D01*
X216123Y526441D01*
X216103Y526439D01*
X216008Y526398D01*
X215911Y526363D01*
X215896Y526351D01*
X215877Y526343D01*
X215746Y526238D01*
X214284Y524776D01*
X212461Y522952D01*
X203596Y522952D01*
X203576Y522949D01*
X203557Y522951D01*
X203455Y522929D01*
X203353Y522912D01*
X203336Y522903D01*
X203316Y522899D01*
X203227Y522846D01*
X203136Y522797D01*
X203122Y522783D01*
X203105Y522773D01*
X203038Y522694D01*
X202966Y522619D01*
X202958Y522601D01*
X202945Y522586D01*
X202906Y522490D01*
X202863Y522396D01*
X202861Y522376D01*
X202853Y522358D01*
X202835Y522191D01*
X202835Y518775D01*
X202614Y518555D01*
X202603Y518539D01*
X202587Y518526D01*
X202531Y518439D01*
X202471Y518355D01*
X202465Y518336D01*
X202454Y518319D01*
X202429Y518219D01*
X202398Y518120D01*
X202399Y518100D01*
X202394Y518081D01*
X202402Y517978D01*
X202405Y517874D01*
X202412Y517855D01*
X202413Y517835D01*
X202453Y517741D01*
X202489Y517643D01*
X202502Y517627D01*
X202509Y517609D01*
X202614Y517478D01*
X202835Y517258D01*
X202835Y513775D01*
X202614Y513555D01*
X202603Y513539D01*
X202587Y513526D01*
X202531Y513439D01*
X202471Y513355D01*
X202465Y513336D01*
X202454Y513319D01*
X202429Y513218D01*
X202398Y513120D01*
X202399Y513100D01*
X202394Y513081D01*
X202402Y512978D01*
X202405Y512874D01*
X202412Y512855D01*
X202413Y512835D01*
X202453Y512741D01*
X202489Y512643D01*
X202502Y512627D01*
X202509Y512609D01*
X202614Y512478D01*
X202835Y512258D01*
X202835Y508775D01*
X202614Y508555D01*
X202603Y508539D01*
X202587Y508526D01*
X202531Y508439D01*
X202471Y508355D01*
X202465Y508336D01*
X202454Y508319D01*
X202429Y508219D01*
X202398Y508120D01*
X202399Y508100D01*
X202394Y508081D01*
X202402Y507978D01*
X202405Y507874D01*
X202412Y507855D01*
X202413Y507836D01*
X202453Y507741D01*
X202489Y507643D01*
X202502Y507628D01*
X202509Y507609D01*
X202614Y507478D01*
X202835Y507258D01*
X202835Y503775D01*
X202614Y503555D01*
X202603Y503539D01*
X202587Y503526D01*
X202531Y503439D01*
X202471Y503355D01*
X202465Y503336D01*
X202454Y503319D01*
X202429Y503219D01*
X202398Y503120D01*
X202399Y503100D01*
X202394Y503081D01*
X202402Y502978D01*
X202405Y502874D01*
X202412Y502855D01*
X202413Y502835D01*
X202453Y502741D01*
X202489Y502643D01*
X202502Y502627D01*
X202509Y502609D01*
X202614Y502478D01*
X202835Y502258D01*
X202835Y501884D01*
X202849Y501793D01*
X202857Y501703D01*
X202869Y501673D01*
X202874Y501641D01*
X202917Y501560D01*
X202953Y501476D01*
X202979Y501444D01*
X202990Y501423D01*
X203013Y501401D01*
X203058Y501345D01*
X205883Y498520D01*
X205883Y483601D01*
X205886Y483581D01*
X205884Y483561D01*
X205906Y483460D01*
X205922Y483358D01*
X205932Y483340D01*
X205936Y483321D01*
X205989Y483232D01*
X206038Y483140D01*
X206052Y483127D01*
X206062Y483110D01*
X206141Y483042D01*
X206216Y482971D01*
X206234Y482963D01*
X206249Y482950D01*
X206345Y482911D01*
X206439Y482867D01*
X206459Y482865D01*
X206477Y482858D01*
X206644Y482839D01*
X212425Y482839D01*
X214284Y480980D01*
X215607Y479656D01*
X215624Y479645D01*
X215636Y479629D01*
X215723Y479573D01*
X215807Y479513D01*
X215826Y479507D01*
X215843Y479496D01*
X215943Y479471D01*
X216042Y479441D01*
X216062Y479441D01*
X216082Y479436D01*
X216185Y479444D01*
X216288Y479447D01*
X216307Y479454D01*
X216327Y479455D01*
X216422Y479496D01*
X216519Y479531D01*
X216535Y479544D01*
X216553Y479552D01*
X216684Y479657D01*
X216819Y479791D01*
X220301Y479791D01*
X220522Y479571D01*
X220538Y479559D01*
X220550Y479544D01*
X220638Y479487D01*
X220721Y479427D01*
X220740Y479421D01*
X220757Y479411D01*
X220858Y479385D01*
X220957Y479355D01*
X220977Y479355D01*
X220996Y479350D01*
X221099Y479359D01*
G37*
%LPC*%
G36*
X125347Y580356D02*
X125347Y580356D01*
X125347Y584647D01*
X125347Y588938D01*
X126170Y588938D01*
X126816Y588765D01*
X127396Y588430D01*
X127869Y587957D01*
X127874Y587947D01*
X127949Y587856D01*
X128024Y587762D01*
X128028Y587760D01*
X128030Y587757D01*
X128130Y587695D01*
X128231Y587629D01*
X128235Y587628D01*
X128239Y587626D01*
X128354Y587598D01*
X128469Y587569D01*
X128474Y587570D01*
X128478Y587569D01*
X128596Y587579D01*
X128715Y587589D01*
X128719Y587590D01*
X128723Y587591D01*
X128831Y587638D01*
X128941Y587685D01*
X128945Y587688D01*
X128948Y587689D01*
X128958Y587698D01*
X129072Y587790D01*
X129204Y587922D01*
X132967Y587922D01*
X133732Y587157D01*
X133806Y587104D01*
X133876Y587044D01*
X133906Y587032D01*
X133932Y587013D01*
X134019Y586986D01*
X134104Y586952D01*
X134145Y586948D01*
X134167Y586941D01*
X134199Y586942D01*
X134271Y586934D01*
X137602Y586934D01*
X137622Y586937D01*
X137642Y586935D01*
X137743Y586957D01*
X137845Y586974D01*
X137863Y586983D01*
X137882Y586987D01*
X137971Y587040D01*
X138062Y587089D01*
X138076Y587103D01*
X138093Y587113D01*
X138160Y587192D01*
X138232Y587267D01*
X138240Y587285D01*
X138253Y587300D01*
X138292Y587396D01*
X138335Y587490D01*
X138338Y587510D01*
X138345Y587528D01*
X138363Y587695D01*
X138363Y589636D01*
X139257Y590529D01*
X154520Y590529D01*
X155413Y589636D01*
X155413Y588552D01*
X155416Y588532D01*
X155414Y588513D01*
X155436Y588411D01*
X155453Y588309D01*
X155462Y588292D01*
X155466Y588272D01*
X155519Y588183D01*
X155568Y588092D01*
X155582Y588078D01*
X155592Y588061D01*
X155671Y587994D01*
X155746Y587923D01*
X155764Y587914D01*
X155779Y587901D01*
X155876Y587863D01*
X155969Y587819D01*
X155989Y587817D01*
X156007Y587809D01*
X156174Y587791D01*
X175892Y587791D01*
X175983Y587806D01*
X176073Y587813D01*
X176103Y587825D01*
X176135Y587831D01*
X176216Y587873D01*
X176300Y587909D01*
X176332Y587935D01*
X176353Y587946D01*
X176375Y587969D01*
X176431Y588014D01*
X178386Y589969D01*
X178439Y590043D01*
X178499Y590113D01*
X178511Y590143D01*
X178530Y590169D01*
X178557Y590256D01*
X178591Y590341D01*
X178595Y590382D01*
X178602Y590404D01*
X178601Y590436D01*
X178609Y590508D01*
X178609Y592684D01*
X180981Y595056D01*
X184335Y595056D01*
X186707Y592684D01*
X186707Y589330D01*
X184335Y586958D01*
X182159Y586958D01*
X182068Y586944D01*
X181978Y586937D01*
X181948Y586924D01*
X181916Y586919D01*
X181835Y586876D01*
X181751Y586840D01*
X181719Y586815D01*
X181698Y586804D01*
X181676Y586780D01*
X181620Y586736D01*
X178102Y583217D01*
X156174Y583217D01*
X156154Y583214D01*
X156135Y583216D01*
X156033Y583194D01*
X155931Y583178D01*
X155914Y583168D01*
X155894Y583164D01*
X155805Y583111D01*
X155714Y583063D01*
X155700Y583048D01*
X155683Y583038D01*
X155616Y582959D01*
X155545Y582884D01*
X155536Y582866D01*
X155523Y582851D01*
X155485Y582755D01*
X155441Y582661D01*
X155439Y582641D01*
X155431Y582623D01*
X155413Y582456D01*
X155413Y581373D01*
X154520Y580479D01*
X139257Y580479D01*
X138363Y581373D01*
X138363Y581599D01*
X138360Y581619D01*
X138362Y581639D01*
X138340Y581740D01*
X138324Y581842D01*
X138314Y581859D01*
X138310Y581879D01*
X138257Y581968D01*
X138209Y582059D01*
X138194Y582073D01*
X138184Y582090D01*
X138105Y582157D01*
X138030Y582229D01*
X138012Y582237D01*
X137997Y582250D01*
X137901Y582289D01*
X137807Y582332D01*
X137787Y582334D01*
X137769Y582342D01*
X137602Y582360D01*
X134271Y582360D01*
X134180Y582346D01*
X134090Y582338D01*
X134060Y582326D01*
X134028Y582321D01*
X133947Y582278D01*
X133863Y582242D01*
X133831Y582216D01*
X133810Y582206D01*
X133788Y582182D01*
X133732Y582137D01*
X132967Y581372D01*
X129204Y581372D01*
X129072Y581504D01*
X128977Y581573D01*
X128880Y581644D01*
X128876Y581646D01*
X128872Y581648D01*
X128759Y581683D01*
X128645Y581719D01*
X128641Y581719D01*
X128637Y581720D01*
X128519Y581717D01*
X128399Y581716D01*
X128395Y581714D01*
X128391Y581714D01*
X128280Y581673D01*
X128167Y581634D01*
X128164Y581631D01*
X128160Y581630D01*
X128067Y581555D01*
X127974Y581482D01*
X127971Y581478D01*
X127968Y581476D01*
X127961Y581464D01*
X127874Y581347D01*
X127869Y581337D01*
X127396Y580864D01*
X126816Y580529D01*
X126170Y580356D01*
X125347Y580356D01*
G37*
%LPD*%
G36*
X339191Y502378D02*
X339191Y502378D01*
X339282Y502385D01*
X339312Y502397D01*
X339344Y502403D01*
X339425Y502445D01*
X339509Y502481D01*
X339541Y502507D01*
X339561Y502518D01*
X339584Y502541D01*
X339640Y502586D01*
X341732Y504678D01*
X341785Y504752D01*
X341844Y504821D01*
X341856Y504852D01*
X341875Y504878D01*
X341902Y504965D01*
X341936Y505050D01*
X341941Y505090D01*
X341948Y505113D01*
X341947Y505145D01*
X341955Y505216D01*
X341955Y519323D01*
X343835Y521203D01*
X343877Y521261D01*
X343926Y521313D01*
X343948Y521361D01*
X343978Y521403D01*
X343999Y521471D01*
X344030Y521536D01*
X344035Y521588D01*
X344051Y521638D01*
X344049Y521710D01*
X344057Y521781D01*
X344046Y521832D01*
X344044Y521884D01*
X344020Y521951D01*
X344004Y522021D01*
X343978Y522066D01*
X343960Y522115D01*
X343915Y522171D01*
X343878Y522232D01*
X343839Y522266D01*
X343806Y522307D01*
X343746Y522346D01*
X343691Y522392D01*
X343643Y522412D01*
X343599Y522440D01*
X343530Y522457D01*
X343463Y522484D01*
X343392Y522492D01*
X343361Y522500D01*
X343337Y522498D01*
X343296Y522503D01*
X340089Y522503D01*
X339999Y522488D01*
X339908Y522481D01*
X339879Y522468D01*
X339847Y522463D01*
X339766Y522420D01*
X339682Y522385D01*
X339650Y522359D01*
X339629Y522348D01*
X339607Y522324D01*
X339551Y522280D01*
X335953Y518682D01*
X332964Y518682D01*
X332893Y518670D01*
X332821Y518668D01*
X332772Y518650D01*
X332721Y518642D01*
X332658Y518608D01*
X332590Y518584D01*
X332549Y518551D01*
X332503Y518527D01*
X332454Y518475D01*
X332398Y518430D01*
X332370Y518386D01*
X332334Y518348D01*
X332304Y518283D01*
X332265Y518223D01*
X332252Y518173D01*
X332230Y518125D01*
X332223Y518054D01*
X332205Y517985D01*
X332209Y517933D01*
X332203Y517881D01*
X332219Y517811D01*
X332224Y517739D01*
X332245Y517692D01*
X332256Y517641D01*
X332292Y517579D01*
X332320Y517513D01*
X332365Y517457D01*
X332382Y517429D01*
X332400Y517414D01*
X332425Y517382D01*
X334853Y514954D01*
X334927Y514901D01*
X334997Y514841D01*
X335027Y514829D01*
X335047Y514815D01*
X337502Y512359D01*
X337502Y509005D01*
X335131Y506633D01*
X331777Y506633D01*
X329405Y509005D01*
X329405Y512359D01*
X329654Y512609D01*
X329666Y512625D01*
X329682Y512637D01*
X329738Y512724D01*
X329798Y512808D01*
X329804Y512827D01*
X329815Y512844D01*
X329840Y512944D01*
X329870Y513043D01*
X329870Y513063D01*
X329875Y513083D01*
X329867Y513186D01*
X329864Y513289D01*
X329857Y513308D01*
X329855Y513328D01*
X329815Y513423D01*
X329779Y513520D01*
X329767Y513536D01*
X329759Y513554D01*
X329654Y513685D01*
X326619Y516721D01*
X326545Y516774D01*
X326476Y516833D01*
X326445Y516845D01*
X326419Y516864D01*
X326332Y516891D01*
X326247Y516925D01*
X326206Y516930D01*
X326184Y516937D01*
X326152Y516936D01*
X326081Y516944D01*
X321974Y516944D01*
X321810Y517107D01*
X321752Y517149D01*
X321700Y517198D01*
X321653Y517220D01*
X321610Y517251D01*
X321542Y517272D01*
X321477Y517302D01*
X321425Y517308D01*
X321375Y517323D01*
X321303Y517321D01*
X321232Y517329D01*
X321181Y517318D01*
X321129Y517317D01*
X321062Y517292D01*
X320992Y517277D01*
X320947Y517250D01*
X320898Y517232D01*
X320842Y517187D01*
X320781Y517151D01*
X320747Y517111D01*
X320706Y517079D01*
X320668Y517018D01*
X320621Y516964D01*
X320601Y516915D01*
X320573Y516872D01*
X320556Y516802D01*
X320529Y516736D01*
X320521Y516664D01*
X320513Y516633D01*
X320515Y516610D01*
X320510Y516569D01*
X320510Y515629D01*
X320514Y515609D01*
X320512Y515589D01*
X320534Y515488D01*
X320550Y515386D01*
X320560Y515368D01*
X320564Y515349D01*
X320617Y515260D01*
X320665Y515169D01*
X320680Y515155D01*
X320690Y515138D01*
X320769Y515070D01*
X320844Y514999D01*
X320862Y514991D01*
X320877Y514978D01*
X320973Y514939D01*
X321067Y514896D01*
X321086Y514893D01*
X321105Y514886D01*
X321272Y514867D01*
X321626Y514867D01*
X323997Y512496D01*
X323997Y509142D01*
X321626Y506770D01*
X318271Y506770D01*
X315900Y509142D01*
X315900Y512635D01*
X315919Y512682D01*
X315923Y512723D01*
X315930Y512745D01*
X315929Y512777D01*
X315937Y512848D01*
X315937Y528040D01*
X315922Y528130D01*
X315915Y528221D01*
X315902Y528251D01*
X315897Y528283D01*
X315855Y528363D01*
X315819Y528447D01*
X315793Y528479D01*
X315782Y528500D01*
X315759Y528522D01*
X315714Y528578D01*
X315483Y528810D01*
X315387Y528879D01*
X315290Y528949D01*
X315286Y528951D01*
X315283Y528953D01*
X315169Y528988D01*
X315056Y529024D01*
X315052Y529024D01*
X315048Y529026D01*
X314929Y529022D01*
X314810Y529021D01*
X314806Y529019D01*
X314802Y529019D01*
X314691Y528979D01*
X314578Y528939D01*
X314575Y528936D01*
X314571Y528935D01*
X314478Y528860D01*
X314384Y528787D01*
X314381Y528783D01*
X314379Y528781D01*
X314371Y528769D01*
X314285Y528652D01*
X314279Y528642D01*
X313806Y528169D01*
X313227Y527835D01*
X312581Y527661D01*
X312517Y527661D01*
X312446Y527650D01*
X312374Y527648D01*
X312326Y527630D01*
X312274Y527622D01*
X312211Y527588D01*
X312143Y527564D01*
X312103Y527531D01*
X312057Y527507D01*
X312007Y527455D01*
X311951Y527410D01*
X311923Y527366D01*
X311887Y527328D01*
X311857Y527263D01*
X311818Y527203D01*
X311806Y527152D01*
X311784Y527105D01*
X311776Y527034D01*
X311758Y526964D01*
X311762Y526912D01*
X311757Y526861D01*
X311772Y526791D01*
X311778Y526719D01*
X311798Y526671D01*
X311809Y526620D01*
X311846Y526559D01*
X311874Y526493D01*
X311919Y526437D01*
X311935Y526409D01*
X311953Y526394D01*
X311979Y526362D01*
X312289Y526052D01*
X312289Y525109D01*
X312289Y523843D01*
X312289Y523842D01*
X312289Y515468D01*
X312303Y515378D01*
X312311Y515287D01*
X312323Y515257D01*
X312328Y515225D01*
X312371Y515144D01*
X312407Y515060D01*
X312433Y515028D01*
X312443Y515008D01*
X312467Y514986D01*
X312512Y514930D01*
X314051Y513391D01*
X314051Y510036D01*
X311679Y507665D01*
X308215Y507665D01*
X308196Y507662D01*
X308176Y507664D01*
X308075Y507642D01*
X307973Y507625D01*
X307955Y507616D01*
X307935Y507611D01*
X307846Y507558D01*
X307755Y507510D01*
X307741Y507496D01*
X307724Y507485D01*
X307657Y507407D01*
X307586Y507332D01*
X307577Y507314D01*
X307564Y507298D01*
X307526Y507202D01*
X307482Y507109D01*
X307480Y507089D01*
X307472Y507070D01*
X307454Y506904D01*
X307454Y503897D01*
X307457Y503877D01*
X307455Y503857D01*
X307477Y503756D01*
X307494Y503654D01*
X307503Y503637D01*
X307507Y503617D01*
X307561Y503528D01*
X307609Y503437D01*
X307623Y503423D01*
X307633Y503406D01*
X307712Y503339D01*
X307787Y503267D01*
X307805Y503259D01*
X307820Y503246D01*
X307917Y503207D01*
X308010Y503164D01*
X308030Y503162D01*
X308049Y503154D01*
X308215Y503136D01*
X309517Y503136D01*
X309561Y503094D01*
X309608Y503072D01*
X309650Y503042D01*
X309719Y503021D01*
X309784Y502991D01*
X309836Y502985D01*
X309885Y502970D01*
X309957Y502972D01*
X310028Y502964D01*
X310079Y502975D01*
X310131Y502976D01*
X310199Y503001D01*
X310269Y503016D01*
X310313Y503043D01*
X310362Y503061D01*
X310418Y503105D01*
X310480Y503142D01*
X310514Y503182D01*
X310554Y503214D01*
X310593Y503275D01*
X310640Y503329D01*
X310659Y503377D01*
X310687Y503421D01*
X310705Y503491D01*
X310732Y503557D01*
X310740Y503628D01*
X310748Y503660D01*
X310746Y503683D01*
X310747Y503692D01*
X311643Y504589D01*
X318907Y504589D01*
X319800Y503695D01*
X319800Y503124D01*
X319803Y503104D01*
X319801Y503085D01*
X319823Y502983D01*
X319839Y502881D01*
X319849Y502864D01*
X319853Y502844D01*
X319906Y502755D01*
X319955Y502664D01*
X319969Y502650D01*
X319979Y502633D01*
X320058Y502566D01*
X320133Y502495D01*
X320151Y502486D01*
X320166Y502473D01*
X320262Y502435D01*
X320356Y502391D01*
X320376Y502389D01*
X320394Y502381D01*
X320561Y502363D01*
X339101Y502363D01*
X339191Y502378D01*
G37*
G36*
X268072Y452904D02*
X268072Y452904D01*
X268106Y452903D01*
X268192Y452930D01*
X268279Y452949D01*
X268308Y452966D01*
X268341Y452976D01*
X268413Y453029D01*
X268490Y453075D01*
X268512Y453101D01*
X268540Y453121D01*
X268592Y453194D01*
X268650Y453262D01*
X268663Y453293D01*
X268683Y453321D01*
X268709Y453407D01*
X268742Y453490D01*
X268747Y453533D01*
X268754Y453557D01*
X268753Y453588D01*
X268761Y453657D01*
X268761Y455653D01*
X268761Y459950D01*
X268793Y459955D01*
X268865Y459957D01*
X268914Y459975D01*
X268965Y459984D01*
X269029Y460017D01*
X269096Y460042D01*
X269137Y460074D01*
X269183Y460099D01*
X269232Y460151D01*
X269288Y460195D01*
X269316Y460239D01*
X269352Y460277D01*
X269382Y460342D01*
X269421Y460402D01*
X269434Y460453D01*
X269456Y460500D01*
X269464Y460571D01*
X269481Y460641D01*
X269477Y460693D01*
X269483Y460745D01*
X269468Y460815D01*
X269462Y460886D01*
X269442Y460934D01*
X269431Y460985D01*
X269394Y461046D01*
X269366Y461112D01*
X269321Y461168D01*
X269304Y461196D01*
X269287Y461211D01*
X269261Y461243D01*
X268405Y462100D01*
X268405Y481363D01*
X269298Y482256D01*
X272881Y482256D01*
X272901Y482259D01*
X272921Y482257D01*
X273022Y482279D01*
X273124Y482296D01*
X273142Y482305D01*
X273161Y482309D01*
X273250Y482363D01*
X273341Y482411D01*
X273355Y482425D01*
X273372Y482436D01*
X273440Y482514D01*
X273511Y482589D01*
X273519Y482607D01*
X273532Y482622D01*
X273571Y482719D01*
X273614Y482812D01*
X273617Y482832D01*
X273624Y482851D01*
X273643Y483017D01*
X273643Y485664D01*
X273628Y485754D01*
X273621Y485845D01*
X273608Y485875D01*
X273603Y485907D01*
X273560Y485988D01*
X273524Y486071D01*
X273499Y486104D01*
X273488Y486124D01*
X273464Y486146D01*
X273420Y486202D01*
X271691Y487931D01*
X271617Y487984D01*
X271548Y488043D01*
X271518Y488055D01*
X271492Y488074D01*
X271405Y488101D01*
X271320Y488135D01*
X271279Y488140D01*
X271257Y488147D01*
X271224Y488146D01*
X271153Y488154D01*
X267496Y488154D01*
X267476Y488150D01*
X267457Y488153D01*
X267355Y488131D01*
X267253Y488114D01*
X267236Y488105D01*
X267216Y488100D01*
X267127Y488047D01*
X267036Y487999D01*
X267022Y487984D01*
X267005Y487974D01*
X266938Y487895D01*
X266866Y487820D01*
X266858Y487802D01*
X266845Y487787D01*
X266806Y487691D01*
X266763Y487597D01*
X266761Y487578D01*
X266753Y487559D01*
X266735Y487392D01*
X266735Y483775D01*
X265651Y482692D01*
X260540Y482692D01*
X260521Y482689D01*
X260501Y482691D01*
X260400Y482669D01*
X260298Y482652D01*
X260280Y482643D01*
X260261Y482639D01*
X260172Y482585D01*
X260080Y482537D01*
X260067Y482523D01*
X260050Y482512D01*
X259982Y482434D01*
X259911Y482359D01*
X259903Y482341D01*
X259890Y482325D01*
X259851Y482229D01*
X259807Y482136D01*
X259805Y482116D01*
X259798Y482097D01*
X259779Y481931D01*
X259779Y461116D01*
X259794Y461026D01*
X259801Y460935D01*
X259814Y460905D01*
X259819Y460873D01*
X259862Y460792D01*
X259897Y460708D01*
X259923Y460676D01*
X259934Y460656D01*
X259957Y460633D01*
X260002Y460577D01*
X262987Y457592D01*
X263065Y457537D01*
X263138Y457475D01*
X263164Y457465D01*
X263187Y457449D01*
X263278Y457421D01*
X263367Y457386D01*
X263395Y457385D01*
X263422Y457376D01*
X263518Y457379D01*
X263613Y457374D01*
X263640Y457382D01*
X263668Y457383D01*
X263758Y457415D01*
X263849Y457441D01*
X263873Y457457D01*
X263899Y457467D01*
X263974Y457527D01*
X264052Y457581D01*
X264069Y457603D01*
X264091Y457621D01*
X264143Y457701D01*
X264200Y457777D01*
X264213Y457810D01*
X264224Y457828D01*
X264232Y457860D01*
X264261Y457933D01*
X264382Y458384D01*
X264716Y458963D01*
X265189Y459436D01*
X265768Y459771D01*
X266415Y459944D01*
X267238Y459944D01*
X267238Y455653D01*
X267238Y453657D01*
X267250Y453585D01*
X267252Y453512D01*
X267269Y453464D01*
X267277Y453414D01*
X267312Y453350D01*
X267337Y453281D01*
X267378Y453225D01*
X267393Y453197D01*
X267410Y453180D01*
X267436Y453145D01*
X267506Y453089D01*
X267571Y453027D01*
X267602Y453013D01*
X267629Y452992D01*
X267713Y452961D01*
X267794Y452924D01*
X267828Y452920D01*
X267860Y452908D01*
X267950Y452906D01*
X268039Y452897D01*
X268072Y452904D01*
G37*
G36*
X279806Y556497D02*
X279806Y556497D01*
X279926Y556499D01*
X279930Y556501D01*
X279934Y556501D01*
X280045Y556541D01*
X280158Y556581D01*
X280161Y556584D01*
X280165Y556585D01*
X280258Y556660D01*
X280352Y556733D01*
X280354Y556737D01*
X280357Y556739D01*
X280365Y556750D01*
X280451Y556868D01*
X280457Y556878D01*
X280590Y557011D01*
X280602Y557028D01*
X280617Y557040D01*
X280646Y557085D01*
X280674Y557114D01*
X280692Y557153D01*
X280734Y557211D01*
X280740Y557230D01*
X280750Y557247D01*
X280768Y557317D01*
X280777Y557337D01*
X280780Y557362D01*
X280806Y557446D01*
X280806Y557466D01*
X280811Y557485D01*
X280804Y557573D01*
X280805Y557581D01*
X280802Y557591D01*
X280800Y557692D01*
X280793Y557711D01*
X280791Y557731D01*
X280751Y557826D01*
X280715Y557923D01*
X280703Y557939D01*
X280695Y557957D01*
X280590Y558088D01*
X279521Y559158D01*
X279521Y562512D01*
X281892Y564883D01*
X283379Y564883D01*
X283399Y564887D01*
X283418Y564884D01*
X283520Y564906D01*
X283622Y564923D01*
X283639Y564932D01*
X283659Y564937D01*
X283748Y564990D01*
X283839Y565038D01*
X283853Y565053D01*
X283870Y565063D01*
X283937Y565141D01*
X284008Y565216D01*
X284017Y565235D01*
X284030Y565250D01*
X284069Y565346D01*
X284112Y565440D01*
X284114Y565459D01*
X284122Y565478D01*
X284140Y565645D01*
X284140Y571973D01*
X285703Y573535D01*
X286919Y574751D01*
X286961Y574810D01*
X287010Y574862D01*
X287032Y574909D01*
X287063Y574951D01*
X287084Y575020D01*
X287114Y575085D01*
X287120Y575136D01*
X287135Y575186D01*
X287133Y575258D01*
X287141Y575329D01*
X287130Y575380D01*
X287129Y575432D01*
X287104Y575499D01*
X287089Y575569D01*
X287062Y575614D01*
X287044Y575663D01*
X286999Y575719D01*
X286963Y575781D01*
X286923Y575814D01*
X286890Y575855D01*
X286830Y575894D01*
X286776Y575940D01*
X286727Y575960D01*
X286683Y575988D01*
X286614Y576006D01*
X286547Y576032D01*
X286476Y576040D01*
X286445Y576048D01*
X286422Y576046D01*
X286381Y576051D01*
X274831Y576051D01*
X274741Y576036D01*
X274650Y576029D01*
X274620Y576016D01*
X274588Y576011D01*
X274508Y575969D01*
X274423Y575933D01*
X274391Y575907D01*
X274371Y575896D01*
X274349Y575873D01*
X274292Y575828D01*
X273578Y575113D01*
X273566Y575097D01*
X273550Y575084D01*
X273494Y574997D01*
X273434Y574913D01*
X273428Y574894D01*
X273417Y574877D01*
X273392Y574777D01*
X273362Y574678D01*
X273362Y574658D01*
X273357Y574639D01*
X273365Y574536D01*
X273368Y574432D01*
X273375Y574414D01*
X273376Y574394D01*
X273417Y574299D01*
X273452Y574201D01*
X273464Y574186D01*
X273464Y567505D01*
X273293Y567334D01*
X273282Y567318D01*
X273266Y567305D01*
X273210Y567218D01*
X273150Y567134D01*
X273144Y567115D01*
X273133Y567098D01*
X273108Y566998D01*
X273077Y566899D01*
X273078Y566879D01*
X273073Y566860D01*
X273081Y566757D01*
X273084Y566653D01*
X273091Y566635D01*
X273092Y566615D01*
X273133Y566520D01*
X273168Y566422D01*
X273181Y566407D01*
X273188Y566388D01*
X273293Y566257D01*
X273884Y565666D01*
X274277Y564986D01*
X274480Y564228D01*
X274480Y562802D01*
X266603Y562802D01*
X266583Y562798D01*
X266563Y562801D01*
X266462Y562779D01*
X266360Y562762D01*
X266342Y562753D01*
X266323Y562748D01*
X266234Y562695D01*
X266143Y562647D01*
X266129Y562632D01*
X266112Y562622D01*
X266044Y562543D01*
X265973Y562468D01*
X265965Y562450D01*
X265952Y562435D01*
X265913Y562339D01*
X265892Y562294D01*
X265889Y562301D01*
X265884Y562320D01*
X265831Y562409D01*
X265783Y562500D01*
X265768Y562514D01*
X265758Y562531D01*
X265679Y562599D01*
X265604Y562670D01*
X265586Y562678D01*
X265571Y562691D01*
X265475Y562730D01*
X265381Y562773D01*
X265362Y562776D01*
X265343Y562783D01*
X265176Y562802D01*
X259460Y562802D01*
X259441Y562798D01*
X259421Y562801D01*
X259319Y562779D01*
X259217Y562762D01*
X259200Y562753D01*
X259180Y562748D01*
X259091Y562695D01*
X259000Y562647D01*
X258986Y562632D01*
X258969Y562622D01*
X258902Y562543D01*
X258831Y562468D01*
X258822Y562450D01*
X258809Y562435D01*
X258771Y562339D01*
X258727Y562245D01*
X258725Y562226D01*
X258717Y562207D01*
X258699Y562040D01*
X258699Y561503D01*
X258714Y561413D01*
X258721Y561322D01*
X258733Y561293D01*
X258739Y561261D01*
X258781Y561180D01*
X258817Y561096D01*
X258843Y561064D01*
X258854Y561043D01*
X258877Y561021D01*
X258922Y560965D01*
X259269Y560618D01*
X259269Y560614D01*
X259272Y560595D01*
X259270Y560575D01*
X259292Y560474D01*
X259309Y560372D01*
X259318Y560354D01*
X259322Y560334D01*
X259375Y560245D01*
X259424Y560154D01*
X259438Y560140D01*
X259448Y560123D01*
X259527Y560056D01*
X259602Y559985D01*
X259620Y559976D01*
X259635Y559963D01*
X259731Y559925D01*
X259825Y559881D01*
X259845Y559879D01*
X259863Y559871D01*
X260030Y559853D01*
X265176Y559853D01*
X265196Y559856D01*
X265216Y559854D01*
X265317Y559876D01*
X265419Y559893D01*
X265437Y559902D01*
X265456Y559906D01*
X265545Y559960D01*
X265636Y560008D01*
X265650Y560022D01*
X265667Y560032D01*
X265735Y560111D01*
X265806Y560186D01*
X265814Y560204D01*
X265827Y560219D01*
X265866Y560316D01*
X265887Y560361D01*
X265891Y560354D01*
X265895Y560334D01*
X265948Y560245D01*
X265996Y560154D01*
X266011Y560140D01*
X266021Y560123D01*
X266100Y560056D01*
X266175Y559985D01*
X266193Y559976D01*
X266208Y559963D01*
X266304Y559925D01*
X266398Y559881D01*
X266417Y559879D01*
X266436Y559871D01*
X266603Y559853D01*
X274480Y559853D01*
X274480Y558427D01*
X274312Y557801D01*
X274300Y557681D01*
X274287Y557564D01*
X274288Y557560D01*
X274288Y557556D01*
X274314Y557440D01*
X274340Y557324D01*
X274342Y557320D01*
X274343Y557316D01*
X274404Y557216D01*
X274466Y557113D01*
X274469Y557110D01*
X274471Y557106D01*
X274561Y557031D01*
X274653Y556953D01*
X274657Y556951D01*
X274660Y556949D01*
X274769Y556906D01*
X274881Y556861D01*
X274886Y556860D01*
X274889Y556859D01*
X274903Y556858D01*
X275048Y556842D01*
X279121Y556842D01*
X279253Y556710D01*
X279349Y556642D01*
X279446Y556570D01*
X279450Y556569D01*
X279453Y556567D01*
X279566Y556532D01*
X279680Y556495D01*
X279684Y556495D01*
X279688Y556494D01*
X279806Y556497D01*
G37*
G36*
X353985Y503201D02*
X353985Y503201D01*
X354057Y503206D01*
X354104Y503227D01*
X354155Y503238D01*
X354217Y503274D01*
X354283Y503302D01*
X354339Y503347D01*
X354367Y503364D01*
X354382Y503382D01*
X354414Y503407D01*
X360476Y509469D01*
X362608Y509469D01*
X362699Y509484D01*
X362789Y509491D01*
X362819Y509504D01*
X362851Y509509D01*
X362932Y509552D01*
X363016Y509587D01*
X363048Y509613D01*
X363069Y509624D01*
X363091Y509647D01*
X363147Y509692D01*
X365687Y512232D01*
X365729Y512291D01*
X365778Y512343D01*
X365800Y512390D01*
X365830Y512432D01*
X365851Y512501D01*
X365882Y512566D01*
X365887Y512617D01*
X365903Y512667D01*
X365901Y512739D01*
X365909Y512810D01*
X365898Y512861D01*
X365896Y512913D01*
X365872Y512980D01*
X365857Y513050D01*
X365830Y513095D01*
X365812Y513144D01*
X365767Y513200D01*
X365730Y513262D01*
X365691Y513295D01*
X365658Y513336D01*
X365598Y513375D01*
X365543Y513421D01*
X365495Y513441D01*
X365451Y513469D01*
X365382Y513487D01*
X365315Y513513D01*
X365298Y513515D01*
X362910Y515904D01*
X362910Y517990D01*
X362895Y518080D01*
X362888Y518171D01*
X362875Y518201D01*
X362870Y518233D01*
X362828Y518314D01*
X362792Y518398D01*
X362766Y518430D01*
X362755Y518450D01*
X362732Y518473D01*
X362687Y518529D01*
X360202Y521014D01*
X360186Y521025D01*
X360173Y521041D01*
X360086Y521097D01*
X360002Y521157D01*
X359983Y521163D01*
X359966Y521174D01*
X359866Y521199D01*
X359767Y521229D01*
X359747Y521229D01*
X359728Y521234D01*
X359625Y521226D01*
X359521Y521223D01*
X359503Y521216D01*
X359483Y521215D01*
X359388Y521174D01*
X359290Y521139D01*
X359275Y521126D01*
X359256Y521118D01*
X359125Y521014D01*
X358104Y519992D01*
X358078Y519956D01*
X358046Y519927D01*
X358007Y519857D01*
X357960Y519792D01*
X357947Y519750D01*
X357926Y519712D01*
X357911Y519633D01*
X357888Y519557D01*
X357889Y519513D01*
X357881Y519470D01*
X357892Y519391D01*
X357894Y519311D01*
X357909Y519270D01*
X357915Y519226D01*
X357974Y519093D01*
X357979Y519080D01*
X357981Y519077D01*
X357983Y519073D01*
X358221Y518661D01*
X358394Y518014D01*
X358394Y516691D01*
X354603Y516691D01*
X354584Y516688D01*
X354564Y516690D01*
X354463Y516668D01*
X354361Y516652D01*
X354343Y516642D01*
X354324Y516638D01*
X354235Y516585D01*
X354143Y516536D01*
X354129Y516522D01*
X354112Y516512D01*
X354112Y516511D01*
X354045Y516433D01*
X353973Y516358D01*
X353965Y516340D01*
X353952Y516324D01*
X353913Y516228D01*
X353870Y516135D01*
X353868Y516115D01*
X353860Y516096D01*
X353842Y515930D01*
X353842Y511639D01*
X353019Y511639D01*
X352372Y511812D01*
X351793Y512147D01*
X351689Y512250D01*
X351631Y512292D01*
X351579Y512342D01*
X351532Y512364D01*
X351490Y512394D01*
X351421Y512415D01*
X351356Y512445D01*
X351304Y512451D01*
X351255Y512466D01*
X351183Y512465D01*
X351112Y512472D01*
X351061Y512461D01*
X351009Y512460D01*
X350941Y512435D01*
X350871Y512420D01*
X350827Y512394D01*
X350778Y512376D01*
X350722Y512331D01*
X350660Y512294D01*
X350626Y512254D01*
X350586Y512222D01*
X350547Y512162D01*
X350500Y512107D01*
X350481Y512059D01*
X350453Y512015D01*
X350435Y511946D01*
X350408Y511879D01*
X350400Y511808D01*
X350393Y511777D01*
X350394Y511753D01*
X350390Y511712D01*
X350390Y507653D01*
X350405Y507563D01*
X350412Y507472D01*
X350424Y507442D01*
X350430Y507410D01*
X350472Y507330D01*
X350508Y507246D01*
X350534Y507213D01*
X350545Y507193D01*
X350568Y507171D01*
X350613Y507115D01*
X353114Y504613D01*
X353114Y503946D01*
X353126Y503875D01*
X353128Y503803D01*
X353146Y503754D01*
X353154Y503703D01*
X353188Y503639D01*
X353212Y503572D01*
X353245Y503531D01*
X353269Y503485D01*
X353321Y503436D01*
X353366Y503380D01*
X353410Y503352D01*
X353448Y503316D01*
X353513Y503286D01*
X353573Y503247D01*
X353623Y503234D01*
X353671Y503212D01*
X353742Y503205D01*
X353811Y503187D01*
X353863Y503191D01*
X353915Y503185D01*
X353985Y503201D01*
G37*
%LPC*%
G36*
X277452Y500191D02*
X277452Y500191D01*
X277452Y510208D01*
X284470Y510208D01*
X284470Y502397D01*
X284297Y501751D01*
X283962Y501171D01*
X283489Y500698D01*
X282910Y500364D01*
X282264Y500191D01*
X277452Y500191D01*
G37*
%LPD*%
%LPC*%
G36*
X291389Y473254D02*
X291389Y473254D01*
X291389Y481066D01*
X291562Y481712D01*
X291896Y482291D01*
X292369Y482764D01*
X292949Y483099D01*
X293595Y483272D01*
X298406Y483272D01*
X298406Y473254D01*
X291389Y473254D01*
G37*
%LPD*%
%LPC*%
G36*
X293595Y460191D02*
X293595Y460191D01*
X292949Y460364D01*
X292369Y460698D01*
X291896Y461171D01*
X291562Y461751D01*
X291389Y462397D01*
X291389Y470208D01*
X298406Y470208D01*
X298406Y460191D01*
X293595Y460191D01*
G37*
%LPD*%
%LPC*%
G36*
X300357Y539154D02*
X300357Y539154D01*
X300357Y542945D01*
X302442Y542945D01*
X303089Y542772D01*
X303668Y542437D01*
X304141Y541964D01*
X304475Y541385D01*
X304649Y540739D01*
X304649Y539154D01*
X300357Y539154D01*
G37*
%LPD*%
%LPC*%
G36*
X293567Y539154D02*
X293567Y539154D01*
X293567Y540739D01*
X293740Y541385D01*
X294075Y541964D01*
X294548Y542437D01*
X295127Y542772D01*
X295773Y542945D01*
X297859Y542945D01*
X297859Y539154D01*
X293567Y539154D01*
G37*
%LPD*%
%LPC*%
G36*
X300357Y532864D02*
X300357Y532864D01*
X300357Y536655D01*
X304649Y536655D01*
X304649Y535070D01*
X304475Y534424D01*
X304141Y533844D01*
X303668Y533371D01*
X303089Y533037D01*
X302442Y532864D01*
X300357Y532864D01*
G37*
%LPD*%
%LPC*%
G36*
X227296Y579278D02*
X227296Y579278D01*
X227296Y582308D01*
X228619Y582308D01*
X229266Y582134D01*
X229845Y581800D01*
X230318Y581327D01*
X230653Y580748D01*
X230826Y580101D01*
X230826Y579278D01*
X227296Y579278D01*
G37*
%LPD*%
%LPC*%
G36*
X222244Y579278D02*
X222244Y579278D01*
X222244Y580101D01*
X222417Y580748D01*
X222752Y581327D01*
X223225Y581800D01*
X223804Y582134D01*
X224451Y582308D01*
X225774Y582308D01*
X225774Y579278D01*
X222244Y579278D01*
G37*
%LPD*%
%LPC*%
G36*
X120795Y585408D02*
X120795Y585408D01*
X120795Y586732D01*
X120968Y587378D01*
X121303Y587957D01*
X121776Y588430D01*
X122355Y588765D01*
X123001Y588938D01*
X123824Y588938D01*
X123824Y585408D01*
X120795Y585408D01*
G37*
%LPD*%
%LPC*%
G36*
X120922Y569102D02*
X120922Y569102D01*
X120922Y570425D01*
X121095Y571071D01*
X121430Y571650D01*
X121903Y572123D01*
X122482Y572458D01*
X123128Y572631D01*
X123951Y572631D01*
X123951Y569102D01*
X120922Y569102D01*
G37*
%LPD*%
%LPC*%
G36*
X307206Y532714D02*
X307206Y532714D01*
X307206Y534037D01*
X307379Y534683D01*
X307713Y535262D01*
X308186Y535735D01*
X308766Y536070D01*
X309412Y536243D01*
X310235Y536243D01*
X310235Y532714D01*
X307206Y532714D01*
G37*
%LPD*%
%LPC*%
G36*
X355364Y511639D02*
X355364Y511639D01*
X355364Y515168D01*
X358394Y515168D01*
X358394Y513845D01*
X358221Y513199D01*
X357886Y512620D01*
X357413Y512147D01*
X356834Y511812D01*
X356188Y511639D01*
X355364Y511639D01*
G37*
%LPD*%
%LPC*%
G36*
X123001Y580356D02*
X123001Y580356D01*
X122355Y580529D01*
X121776Y580864D01*
X121303Y581337D01*
X120968Y581916D01*
X120795Y582563D01*
X120795Y583886D01*
X123824Y583886D01*
X123824Y580356D01*
X123001Y580356D01*
G37*
%LPD*%
%LPC*%
G36*
X123128Y564050D02*
X123128Y564050D01*
X122482Y564223D01*
X121903Y564557D01*
X121430Y565030D01*
X121095Y565610D01*
X120922Y566256D01*
X120922Y567579D01*
X123951Y567579D01*
X123951Y564050D01*
X123128Y564050D01*
G37*
%LPD*%
%LPC*%
G36*
X241342Y452485D02*
X241342Y452485D01*
X240696Y452658D01*
X240117Y452993D01*
X239644Y453466D01*
X239309Y454045D01*
X239136Y454691D01*
X239136Y456014D01*
X242165Y456014D01*
X242165Y452485D01*
X241342Y452485D01*
G37*
%LPD*%
D10*
X146888Y568504D03*
X146888Y585504D03*
D11*
X299929Y511731D03*
X275929Y511731D03*
X275929Y471731D03*
X299929Y471731D03*
D12*
X124713Y568340D03*
X131213Y568340D03*
X124586Y584647D03*
X131086Y584647D03*
X274499Y455653D03*
X267999Y455653D03*
D13*
X280919Y532347D03*
X280919Y525847D03*
D14*
X260282Y568319D02*
X260282Y573335D01*
X271498Y573335D01*
X271498Y568319D01*
X260282Y568319D01*
X260282Y569160D02*
X271498Y569160D01*
X271498Y570001D02*
X260282Y570001D01*
X260282Y570842D02*
X271498Y570842D01*
X271498Y571683D02*
X260282Y571683D01*
X260282Y572524D02*
X271498Y572524D01*
X235182Y554335D02*
X235182Y549319D01*
X235182Y554335D02*
X246398Y554335D01*
X246398Y549319D01*
X235182Y549319D01*
X235182Y550160D02*
X246398Y550160D01*
X246398Y551001D02*
X235182Y551001D01*
X235182Y551842D02*
X246398Y551842D01*
X246398Y552683D02*
X235182Y552683D01*
X235182Y553524D02*
X246398Y553524D01*
X260282Y558819D02*
X260282Y563835D01*
X271498Y563835D01*
X271498Y558819D01*
X260282Y558819D01*
X260282Y559660D02*
X271498Y559660D01*
X271498Y560501D02*
X260282Y560501D01*
X260282Y561342D02*
X271498Y561342D01*
X271498Y562183D02*
X260282Y562183D01*
X260282Y563024D02*
X271498Y563024D01*
X260282Y554335D02*
X260282Y549319D01*
X260282Y554335D02*
X271498Y554335D01*
X271498Y549319D01*
X260282Y549319D01*
X260282Y550160D02*
X271498Y550160D01*
X271498Y551001D02*
X260282Y551001D01*
X260282Y551842D02*
X271498Y551842D01*
X271498Y552683D02*
X260282Y552683D01*
X260282Y553524D02*
X271498Y553524D01*
X235182Y568319D02*
X235182Y573335D01*
X246398Y573335D01*
X246398Y568319D01*
X235182Y568319D01*
X235182Y569160D02*
X246398Y569160D01*
X246398Y570001D02*
X235182Y570001D01*
X235182Y570842D02*
X246398Y570842D01*
X246398Y571683D02*
X235182Y571683D01*
X235182Y572524D02*
X246398Y572524D01*
D12*
X221586Y550357D03*
X228086Y550357D03*
D13*
X267211Y448256D03*
X267211Y441756D03*
D12*
X277240Y553568D03*
X283740Y553568D03*
D13*
X226535Y572017D03*
X226535Y578517D03*
D15*
X207585Y541842D02*
X207585Y528092D01*
X207585Y541842D02*
X209535Y541842D01*
X209535Y528092D01*
X207585Y528092D01*
X207585Y528709D02*
X209535Y528709D01*
X209535Y529326D02*
X207585Y529326D01*
X207585Y529943D02*
X209535Y529943D01*
X209535Y530560D02*
X207585Y530560D01*
X207585Y531177D02*
X209535Y531177D01*
X209535Y531794D02*
X207585Y531794D01*
X207585Y532411D02*
X209535Y532411D01*
X209535Y533028D02*
X207585Y533028D01*
X207585Y533645D02*
X209535Y533645D01*
X209535Y534262D02*
X207585Y534262D01*
X207585Y534879D02*
X209535Y534879D01*
X209535Y535496D02*
X207585Y535496D01*
X207585Y536113D02*
X209535Y536113D01*
X209535Y536730D02*
X207585Y536730D01*
X207585Y537347D02*
X209535Y537347D01*
X209535Y537964D02*
X207585Y537964D01*
X207585Y538581D02*
X209535Y538581D01*
X209535Y539198D02*
X207585Y539198D01*
X207585Y539815D02*
X209535Y539815D01*
X209535Y540432D02*
X207585Y540432D01*
X207585Y541049D02*
X209535Y541049D01*
X209535Y541666D02*
X207585Y541666D01*
X212585Y541842D02*
X212585Y528092D01*
X212585Y541842D02*
X214535Y541842D01*
X214535Y528092D01*
X212585Y528092D01*
X212585Y528709D02*
X214535Y528709D01*
X214535Y529326D02*
X212585Y529326D01*
X212585Y529943D02*
X214535Y529943D01*
X214535Y530560D02*
X212585Y530560D01*
X212585Y531177D02*
X214535Y531177D01*
X214535Y531794D02*
X212585Y531794D01*
X212585Y532411D02*
X214535Y532411D01*
X214535Y533028D02*
X212585Y533028D01*
X212585Y533645D02*
X214535Y533645D01*
X214535Y534262D02*
X212585Y534262D01*
X212585Y534879D02*
X214535Y534879D01*
X214535Y535496D02*
X212585Y535496D01*
X212585Y536113D02*
X214535Y536113D01*
X214535Y536730D02*
X212585Y536730D01*
X212585Y537347D02*
X214535Y537347D01*
X214535Y537964D02*
X212585Y537964D01*
X212585Y538581D02*
X214535Y538581D01*
X214535Y539198D02*
X212585Y539198D01*
X212585Y539815D02*
X214535Y539815D01*
X214535Y540432D02*
X212585Y540432D01*
X212585Y541049D02*
X214535Y541049D01*
X214535Y541666D02*
X212585Y541666D01*
X217585Y541842D02*
X217585Y528092D01*
X217585Y541842D02*
X219535Y541842D01*
X219535Y528092D01*
X217585Y528092D01*
X217585Y528709D02*
X219535Y528709D01*
X219535Y529326D02*
X217585Y529326D01*
X217585Y529943D02*
X219535Y529943D01*
X219535Y530560D02*
X217585Y530560D01*
X217585Y531177D02*
X219535Y531177D01*
X219535Y531794D02*
X217585Y531794D01*
X217585Y532411D02*
X219535Y532411D01*
X219535Y533028D02*
X217585Y533028D01*
X217585Y533645D02*
X219535Y533645D01*
X219535Y534262D02*
X217585Y534262D01*
X217585Y534879D02*
X219535Y534879D01*
X219535Y535496D02*
X217585Y535496D01*
X217585Y536113D02*
X219535Y536113D01*
X219535Y536730D02*
X217585Y536730D01*
X217585Y537347D02*
X219535Y537347D01*
X219535Y537964D02*
X217585Y537964D01*
X217585Y538581D02*
X219535Y538581D01*
X219535Y539198D02*
X217585Y539198D01*
X217585Y539815D02*
X219535Y539815D01*
X219535Y540432D02*
X217585Y540432D01*
X217585Y541049D02*
X219535Y541049D01*
X219535Y541666D02*
X217585Y541666D01*
X222585Y541842D02*
X222585Y528092D01*
X222585Y541842D02*
X224535Y541842D01*
X224535Y528092D01*
X222585Y528092D01*
X222585Y528709D02*
X224535Y528709D01*
X224535Y529326D02*
X222585Y529326D01*
X222585Y529943D02*
X224535Y529943D01*
X224535Y530560D02*
X222585Y530560D01*
X222585Y531177D02*
X224535Y531177D01*
X224535Y531794D02*
X222585Y531794D01*
X222585Y532411D02*
X224535Y532411D01*
X224535Y533028D02*
X222585Y533028D01*
X222585Y533645D02*
X224535Y533645D01*
X224535Y534262D02*
X222585Y534262D01*
X222585Y534879D02*
X224535Y534879D01*
X224535Y535496D02*
X222585Y535496D01*
X222585Y536113D02*
X224535Y536113D01*
X224535Y536730D02*
X222585Y536730D01*
X222585Y537347D02*
X224535Y537347D01*
X224535Y537964D02*
X222585Y537964D01*
X222585Y538581D02*
X224535Y538581D01*
X224535Y539198D02*
X222585Y539198D01*
X222585Y539815D02*
X224535Y539815D01*
X224535Y540432D02*
X222585Y540432D01*
X222585Y541049D02*
X224535Y541049D01*
X224535Y541666D02*
X222585Y541666D01*
X227585Y541842D02*
X227585Y528092D01*
X227585Y541842D02*
X229535Y541842D01*
X229535Y528092D01*
X227585Y528092D01*
X227585Y528709D02*
X229535Y528709D01*
X229535Y529326D02*
X227585Y529326D01*
X227585Y529943D02*
X229535Y529943D01*
X229535Y530560D02*
X227585Y530560D01*
X227585Y531177D02*
X229535Y531177D01*
X229535Y531794D02*
X227585Y531794D01*
X227585Y532411D02*
X229535Y532411D01*
X229535Y533028D02*
X227585Y533028D01*
X227585Y533645D02*
X229535Y533645D01*
X229535Y534262D02*
X227585Y534262D01*
X227585Y534879D02*
X229535Y534879D01*
X229535Y535496D02*
X227585Y535496D01*
X227585Y536113D02*
X229535Y536113D01*
X229535Y536730D02*
X227585Y536730D01*
X227585Y537347D02*
X229535Y537347D01*
X229535Y537964D02*
X227585Y537964D01*
X227585Y538581D02*
X229535Y538581D01*
X229535Y539198D02*
X227585Y539198D01*
X227585Y539815D02*
X229535Y539815D01*
X229535Y540432D02*
X227585Y540432D01*
X227585Y541049D02*
X229535Y541049D01*
X229535Y541666D02*
X227585Y541666D01*
X232585Y541842D02*
X232585Y528092D01*
X232585Y541842D02*
X234535Y541842D01*
X234535Y528092D01*
X232585Y528092D01*
X232585Y528709D02*
X234535Y528709D01*
X234535Y529326D02*
X232585Y529326D01*
X232585Y529943D02*
X234535Y529943D01*
X234535Y530560D02*
X232585Y530560D01*
X232585Y531177D02*
X234535Y531177D01*
X234535Y531794D02*
X232585Y531794D01*
X232585Y532411D02*
X234535Y532411D01*
X234535Y533028D02*
X232585Y533028D01*
X232585Y533645D02*
X234535Y533645D01*
X234535Y534262D02*
X232585Y534262D01*
X232585Y534879D02*
X234535Y534879D01*
X234535Y535496D02*
X232585Y535496D01*
X232585Y536113D02*
X234535Y536113D01*
X234535Y536730D02*
X232585Y536730D01*
X232585Y537347D02*
X234535Y537347D01*
X234535Y537964D02*
X232585Y537964D01*
X232585Y538581D02*
X234535Y538581D01*
X234535Y539198D02*
X232585Y539198D01*
X232585Y539815D02*
X234535Y539815D01*
X234535Y540432D02*
X232585Y540432D01*
X232585Y541049D02*
X234535Y541049D01*
X234535Y541666D02*
X232585Y541666D01*
X237585Y541842D02*
X237585Y528092D01*
X237585Y541842D02*
X239535Y541842D01*
X239535Y528092D01*
X237585Y528092D01*
X237585Y528709D02*
X239535Y528709D01*
X239535Y529326D02*
X237585Y529326D01*
X237585Y529943D02*
X239535Y529943D01*
X239535Y530560D02*
X237585Y530560D01*
X237585Y531177D02*
X239535Y531177D01*
X239535Y531794D02*
X237585Y531794D01*
X237585Y532411D02*
X239535Y532411D01*
X239535Y533028D02*
X237585Y533028D01*
X237585Y533645D02*
X239535Y533645D01*
X239535Y534262D02*
X237585Y534262D01*
X237585Y534879D02*
X239535Y534879D01*
X239535Y535496D02*
X237585Y535496D01*
X237585Y536113D02*
X239535Y536113D01*
X239535Y536730D02*
X237585Y536730D01*
X237585Y537347D02*
X239535Y537347D01*
X239535Y537964D02*
X237585Y537964D01*
X237585Y538581D02*
X239535Y538581D01*
X239535Y539198D02*
X237585Y539198D01*
X237585Y539815D02*
X239535Y539815D01*
X239535Y540432D02*
X237585Y540432D01*
X237585Y541049D02*
X239535Y541049D01*
X239535Y541666D02*
X237585Y541666D01*
X242585Y541842D02*
X242585Y528092D01*
X242585Y541842D02*
X244535Y541842D01*
X244535Y528092D01*
X242585Y528092D01*
X242585Y528709D02*
X244535Y528709D01*
X244535Y529326D02*
X242585Y529326D01*
X242585Y529943D02*
X244535Y529943D01*
X244535Y530560D02*
X242585Y530560D01*
X242585Y531177D02*
X244535Y531177D01*
X244535Y531794D02*
X242585Y531794D01*
X242585Y532411D02*
X244535Y532411D01*
X244535Y533028D02*
X242585Y533028D01*
X242585Y533645D02*
X244535Y533645D01*
X244535Y534262D02*
X242585Y534262D01*
X242585Y534879D02*
X244535Y534879D01*
X244535Y535496D02*
X242585Y535496D01*
X242585Y536113D02*
X244535Y536113D01*
X244535Y536730D02*
X242585Y536730D01*
X242585Y537347D02*
X244535Y537347D01*
X244535Y537964D02*
X242585Y537964D01*
X242585Y538581D02*
X244535Y538581D01*
X244535Y539198D02*
X242585Y539198D01*
X242585Y539815D02*
X244535Y539815D01*
X244535Y540432D02*
X242585Y540432D01*
X242585Y541049D02*
X244535Y541049D01*
X244535Y541666D02*
X242585Y541666D01*
X242585Y477942D02*
X242585Y464192D01*
X242585Y477942D02*
X244535Y477942D01*
X244535Y464192D01*
X242585Y464192D01*
X242585Y464809D02*
X244535Y464809D01*
X244535Y465426D02*
X242585Y465426D01*
X242585Y466043D02*
X244535Y466043D01*
X244535Y466660D02*
X242585Y466660D01*
X242585Y467277D02*
X244535Y467277D01*
X244535Y467894D02*
X242585Y467894D01*
X242585Y468511D02*
X244535Y468511D01*
X244535Y469128D02*
X242585Y469128D01*
X242585Y469745D02*
X244535Y469745D01*
X244535Y470362D02*
X242585Y470362D01*
X242585Y470979D02*
X244535Y470979D01*
X244535Y471596D02*
X242585Y471596D01*
X242585Y472213D02*
X244535Y472213D01*
X244535Y472830D02*
X242585Y472830D01*
X242585Y473447D02*
X244535Y473447D01*
X244535Y474064D02*
X242585Y474064D01*
X242585Y474681D02*
X244535Y474681D01*
X244535Y475298D02*
X242585Y475298D01*
X242585Y475915D02*
X244535Y475915D01*
X244535Y476532D02*
X242585Y476532D01*
X242585Y477149D02*
X244535Y477149D01*
X244535Y477766D02*
X242585Y477766D01*
X237585Y477942D02*
X237585Y464192D01*
X237585Y477942D02*
X239535Y477942D01*
X239535Y464192D01*
X237585Y464192D01*
X237585Y464809D02*
X239535Y464809D01*
X239535Y465426D02*
X237585Y465426D01*
X237585Y466043D02*
X239535Y466043D01*
X239535Y466660D02*
X237585Y466660D01*
X237585Y467277D02*
X239535Y467277D01*
X239535Y467894D02*
X237585Y467894D01*
X237585Y468511D02*
X239535Y468511D01*
X239535Y469128D02*
X237585Y469128D01*
X237585Y469745D02*
X239535Y469745D01*
X239535Y470362D02*
X237585Y470362D01*
X237585Y470979D02*
X239535Y470979D01*
X239535Y471596D02*
X237585Y471596D01*
X237585Y472213D02*
X239535Y472213D01*
X239535Y472830D02*
X237585Y472830D01*
X237585Y473447D02*
X239535Y473447D01*
X239535Y474064D02*
X237585Y474064D01*
X237585Y474681D02*
X239535Y474681D01*
X239535Y475298D02*
X237585Y475298D01*
X237585Y475915D02*
X239535Y475915D01*
X239535Y476532D02*
X237585Y476532D01*
X237585Y477149D02*
X239535Y477149D01*
X239535Y477766D02*
X237585Y477766D01*
X232585Y477942D02*
X232585Y464192D01*
X232585Y477942D02*
X234535Y477942D01*
X234535Y464192D01*
X232585Y464192D01*
X232585Y464809D02*
X234535Y464809D01*
X234535Y465426D02*
X232585Y465426D01*
X232585Y466043D02*
X234535Y466043D01*
X234535Y466660D02*
X232585Y466660D01*
X232585Y467277D02*
X234535Y467277D01*
X234535Y467894D02*
X232585Y467894D01*
X232585Y468511D02*
X234535Y468511D01*
X234535Y469128D02*
X232585Y469128D01*
X232585Y469745D02*
X234535Y469745D01*
X234535Y470362D02*
X232585Y470362D01*
X232585Y470979D02*
X234535Y470979D01*
X234535Y471596D02*
X232585Y471596D01*
X232585Y472213D02*
X234535Y472213D01*
X234535Y472830D02*
X232585Y472830D01*
X232585Y473447D02*
X234535Y473447D01*
X234535Y474064D02*
X232585Y474064D01*
X232585Y474681D02*
X234535Y474681D01*
X234535Y475298D02*
X232585Y475298D01*
X232585Y475915D02*
X234535Y475915D01*
X234535Y476532D02*
X232585Y476532D01*
X232585Y477149D02*
X234535Y477149D01*
X234535Y477766D02*
X232585Y477766D01*
X227585Y477942D02*
X227585Y464192D01*
X227585Y477942D02*
X229535Y477942D01*
X229535Y464192D01*
X227585Y464192D01*
X227585Y464809D02*
X229535Y464809D01*
X229535Y465426D02*
X227585Y465426D01*
X227585Y466043D02*
X229535Y466043D01*
X229535Y466660D02*
X227585Y466660D01*
X227585Y467277D02*
X229535Y467277D01*
X229535Y467894D02*
X227585Y467894D01*
X227585Y468511D02*
X229535Y468511D01*
X229535Y469128D02*
X227585Y469128D01*
X227585Y469745D02*
X229535Y469745D01*
X229535Y470362D02*
X227585Y470362D01*
X227585Y470979D02*
X229535Y470979D01*
X229535Y471596D02*
X227585Y471596D01*
X227585Y472213D02*
X229535Y472213D01*
X229535Y472830D02*
X227585Y472830D01*
X227585Y473447D02*
X229535Y473447D01*
X229535Y474064D02*
X227585Y474064D01*
X227585Y474681D02*
X229535Y474681D01*
X229535Y475298D02*
X227585Y475298D01*
X227585Y475915D02*
X229535Y475915D01*
X229535Y476532D02*
X227585Y476532D01*
X227585Y477149D02*
X229535Y477149D01*
X229535Y477766D02*
X227585Y477766D01*
X222585Y477942D02*
X222585Y464192D01*
X222585Y477942D02*
X224535Y477942D01*
X224535Y464192D01*
X222585Y464192D01*
X222585Y464809D02*
X224535Y464809D01*
X224535Y465426D02*
X222585Y465426D01*
X222585Y466043D02*
X224535Y466043D01*
X224535Y466660D02*
X222585Y466660D01*
X222585Y467277D02*
X224535Y467277D01*
X224535Y467894D02*
X222585Y467894D01*
X222585Y468511D02*
X224535Y468511D01*
X224535Y469128D02*
X222585Y469128D01*
X222585Y469745D02*
X224535Y469745D01*
X224535Y470362D02*
X222585Y470362D01*
X222585Y470979D02*
X224535Y470979D01*
X224535Y471596D02*
X222585Y471596D01*
X222585Y472213D02*
X224535Y472213D01*
X224535Y472830D02*
X222585Y472830D01*
X222585Y473447D02*
X224535Y473447D01*
X224535Y474064D02*
X222585Y474064D01*
X222585Y474681D02*
X224535Y474681D01*
X224535Y475298D02*
X222585Y475298D01*
X222585Y475915D02*
X224535Y475915D01*
X224535Y476532D02*
X222585Y476532D01*
X222585Y477149D02*
X224535Y477149D01*
X224535Y477766D02*
X222585Y477766D01*
X217585Y477942D02*
X217585Y464192D01*
X217585Y477942D02*
X219535Y477942D01*
X219535Y464192D01*
X217585Y464192D01*
X217585Y464809D02*
X219535Y464809D01*
X219535Y465426D02*
X217585Y465426D01*
X217585Y466043D02*
X219535Y466043D01*
X219535Y466660D02*
X217585Y466660D01*
X217585Y467277D02*
X219535Y467277D01*
X219535Y467894D02*
X217585Y467894D01*
X217585Y468511D02*
X219535Y468511D01*
X219535Y469128D02*
X217585Y469128D01*
X217585Y469745D02*
X219535Y469745D01*
X219535Y470362D02*
X217585Y470362D01*
X217585Y470979D02*
X219535Y470979D01*
X219535Y471596D02*
X217585Y471596D01*
X217585Y472213D02*
X219535Y472213D01*
X219535Y472830D02*
X217585Y472830D01*
X217585Y473447D02*
X219535Y473447D01*
X219535Y474064D02*
X217585Y474064D01*
X217585Y474681D02*
X219535Y474681D01*
X219535Y475298D02*
X217585Y475298D01*
X217585Y475915D02*
X219535Y475915D01*
X219535Y476532D02*
X217585Y476532D01*
X217585Y477149D02*
X219535Y477149D01*
X219535Y477766D02*
X217585Y477766D01*
X212585Y477942D02*
X212585Y464192D01*
X212585Y477942D02*
X214535Y477942D01*
X214535Y464192D01*
X212585Y464192D01*
X212585Y464809D02*
X214535Y464809D01*
X214535Y465426D02*
X212585Y465426D01*
X212585Y466043D02*
X214535Y466043D01*
X214535Y466660D02*
X212585Y466660D01*
X212585Y467277D02*
X214535Y467277D01*
X214535Y467894D02*
X212585Y467894D01*
X212585Y468511D02*
X214535Y468511D01*
X214535Y469128D02*
X212585Y469128D01*
X212585Y469745D02*
X214535Y469745D01*
X214535Y470362D02*
X212585Y470362D01*
X212585Y470979D02*
X214535Y470979D01*
X214535Y471596D02*
X212585Y471596D01*
X212585Y472213D02*
X214535Y472213D01*
X214535Y472830D02*
X212585Y472830D01*
X212585Y473447D02*
X214535Y473447D01*
X214535Y474064D02*
X212585Y474064D01*
X212585Y474681D02*
X214535Y474681D01*
X214535Y475298D02*
X212585Y475298D01*
X212585Y475915D02*
X214535Y475915D01*
X214535Y476532D02*
X212585Y476532D01*
X212585Y477149D02*
X214535Y477149D01*
X214535Y477766D02*
X212585Y477766D01*
X207585Y477942D02*
X207585Y464192D01*
X207585Y477942D02*
X209535Y477942D01*
X209535Y464192D01*
X207585Y464192D01*
X207585Y464809D02*
X209535Y464809D01*
X209535Y465426D02*
X207585Y465426D01*
X207585Y466043D02*
X209535Y466043D01*
X209535Y466660D02*
X207585Y466660D01*
X207585Y467277D02*
X209535Y467277D01*
X209535Y467894D02*
X207585Y467894D01*
X207585Y468511D02*
X209535Y468511D01*
X209535Y469128D02*
X207585Y469128D01*
X207585Y469745D02*
X209535Y469745D01*
X209535Y470362D02*
X207585Y470362D01*
X207585Y470979D02*
X209535Y470979D01*
X209535Y471596D02*
X207585Y471596D01*
X207585Y472213D02*
X209535Y472213D01*
X209535Y472830D02*
X207585Y472830D01*
X207585Y473447D02*
X209535Y473447D01*
X209535Y474064D02*
X207585Y474064D01*
X207585Y474681D02*
X209535Y474681D01*
X209535Y475298D02*
X207585Y475298D01*
X207585Y475915D02*
X209535Y475915D01*
X209535Y476532D02*
X207585Y476532D01*
X207585Y477149D02*
X209535Y477149D01*
X209535Y477766D02*
X207585Y477766D01*
X200985Y484542D02*
X187235Y484542D01*
X187235Y486492D01*
X200985Y486492D01*
X200985Y484542D01*
X200985Y485159D02*
X187235Y485159D01*
X187235Y485776D02*
X200985Y485776D01*
X200985Y486393D02*
X187235Y486393D01*
X187235Y489542D02*
X200985Y489542D01*
X187235Y489542D02*
X187235Y491492D01*
X200985Y491492D01*
X200985Y489542D01*
X200985Y490159D02*
X187235Y490159D01*
X187235Y490776D02*
X200985Y490776D01*
X200985Y491393D02*
X187235Y491393D01*
X187235Y494542D02*
X200985Y494542D01*
X187235Y494542D02*
X187235Y496492D01*
X200985Y496492D01*
X200985Y494542D01*
X200985Y495159D02*
X187235Y495159D01*
X187235Y495776D02*
X200985Y495776D01*
X200985Y496393D02*
X187235Y496393D01*
X187235Y499542D02*
X200985Y499542D01*
X187235Y499542D02*
X187235Y501492D01*
X200985Y501492D01*
X200985Y499542D01*
X200985Y500159D02*
X187235Y500159D01*
X187235Y500776D02*
X200985Y500776D01*
X200985Y501393D02*
X187235Y501393D01*
X187235Y504542D02*
X200985Y504542D01*
X187235Y504542D02*
X187235Y506492D01*
X200985Y506492D01*
X200985Y504542D01*
X200985Y505159D02*
X187235Y505159D01*
X187235Y505776D02*
X200985Y505776D01*
X200985Y506393D02*
X187235Y506393D01*
X187235Y509542D02*
X200985Y509542D01*
X187235Y509542D02*
X187235Y511492D01*
X200985Y511492D01*
X200985Y509542D01*
X200985Y510159D02*
X187235Y510159D01*
X187235Y510776D02*
X200985Y510776D01*
X200985Y511393D02*
X187235Y511393D01*
X187235Y514542D02*
X200985Y514542D01*
X187235Y514542D02*
X187235Y516492D01*
X200985Y516492D01*
X200985Y514542D01*
X200985Y515159D02*
X187235Y515159D01*
X187235Y515776D02*
X200985Y515776D01*
X200985Y516393D02*
X187235Y516393D01*
X187235Y519542D02*
X200985Y519542D01*
X187235Y519542D02*
X187235Y521492D01*
X200985Y521492D01*
X200985Y519542D01*
X200985Y520159D02*
X187235Y520159D01*
X187235Y520776D02*
X200985Y520776D01*
X200985Y521393D02*
X187235Y521393D01*
X251135Y519542D02*
X264885Y519542D01*
X251135Y519542D02*
X251135Y521492D01*
X264885Y521492D01*
X264885Y519542D01*
X264885Y520159D02*
X251135Y520159D01*
X251135Y520776D02*
X264885Y520776D01*
X264885Y521393D02*
X251135Y521393D01*
X251135Y514542D02*
X264885Y514542D01*
X251135Y514542D02*
X251135Y516492D01*
X264885Y516492D01*
X264885Y514542D01*
X264885Y515159D02*
X251135Y515159D01*
X251135Y515776D02*
X264885Y515776D01*
X264885Y516393D02*
X251135Y516393D01*
X251135Y509542D02*
X264885Y509542D01*
X251135Y509542D02*
X251135Y511492D01*
X264885Y511492D01*
X264885Y509542D01*
X264885Y510159D02*
X251135Y510159D01*
X251135Y510776D02*
X264885Y510776D01*
X264885Y511393D02*
X251135Y511393D01*
X251135Y504542D02*
X264885Y504542D01*
X251135Y504542D02*
X251135Y506492D01*
X264885Y506492D01*
X264885Y504542D01*
X264885Y505159D02*
X251135Y505159D01*
X251135Y505776D02*
X264885Y505776D01*
X264885Y506393D02*
X251135Y506393D01*
X251135Y499542D02*
X264885Y499542D01*
X251135Y499542D02*
X251135Y501492D01*
X264885Y501492D01*
X264885Y499542D01*
X264885Y500159D02*
X251135Y500159D01*
X251135Y500776D02*
X264885Y500776D01*
X264885Y501393D02*
X251135Y501393D01*
X251135Y494542D02*
X264885Y494542D01*
X251135Y494542D02*
X251135Y496492D01*
X264885Y496492D01*
X264885Y494542D01*
X264885Y495159D02*
X251135Y495159D01*
X251135Y495776D02*
X264885Y495776D01*
X264885Y496393D02*
X251135Y496393D01*
X251135Y489542D02*
X264885Y489542D01*
X251135Y489542D02*
X251135Y491492D01*
X264885Y491492D01*
X264885Y489542D01*
X264885Y490159D02*
X251135Y490159D01*
X251135Y490776D02*
X264885Y490776D01*
X264885Y491393D02*
X251135Y491393D01*
X251135Y484542D02*
X264885Y484542D01*
X251135Y484542D02*
X251135Y486492D01*
X264885Y486492D01*
X264885Y484542D01*
X264885Y485159D02*
X251135Y485159D01*
X251135Y485776D02*
X264885Y485776D01*
X264885Y486393D02*
X251135Y486393D01*
D16*
X299108Y537904D03*
X299108Y526904D03*
D17*
X329697Y484482D03*
X335497Y478682D03*
X323897Y478682D03*
X323897Y490282D03*
X335497Y490282D03*
D12*
X354603Y515930D03*
X348103Y515930D03*
D13*
X197338Y441773D03*
X197338Y448273D03*
X197990Y455438D03*
X197990Y461938D03*
X181963Y470226D03*
X181963Y476726D03*
X179735Y497872D03*
X179735Y491372D03*
X179862Y505083D03*
X179862Y511583D03*
X173911Y524237D03*
X173911Y517737D03*
X181432Y536106D03*
X181432Y529606D03*
X180607Y549027D03*
X180607Y542527D03*
X375252Y523368D03*
X375252Y529868D03*
X290177Y559180D03*
X290177Y552680D03*
X310053Y554798D03*
X310053Y548298D03*
D12*
X310996Y531952D03*
X317496Y531952D03*
X242927Y456776D03*
X249427Y456776D03*
D18*
X195463Y611561D03*
X178133Y611561D03*
D16*
X325605Y531968D03*
X325605Y520968D03*
X315275Y489564D03*
X315275Y500564D03*
D19*
X268685Y540537D03*
X279685Y540537D03*
D20*
X88595Y454251D03*
X147595Y454251D03*
X88595Y466951D03*
X147595Y466951D03*
X88595Y479651D03*
X147595Y479651D03*
X88595Y492351D03*
X147595Y492351D03*
X88595Y505051D03*
X147595Y505051D03*
X88595Y517751D03*
X147595Y517751D03*
X88595Y530451D03*
X147595Y530451D03*
X88595Y543151D03*
X147595Y543151D03*
D21*
X124887Y430561D03*
D17*
X298835Y545186D03*
D22*
X275375Y516773D02*
X275375Y512285D01*
X280919Y522317D02*
X280919Y525847D01*
X280919Y522317D02*
X275375Y516773D01*
X275375Y512285D02*
X275929Y511731D01*
X310996Y531952D02*
X314871Y528077D01*
D17*
X355108Y491982D03*
D22*
X283740Y553568D02*
X283608Y553568D01*
X276638Y560538D01*
X228560Y543383D02*
X221586Y550357D01*
X228560Y543383D02*
X228560Y534967D01*
X226535Y578517D02*
X228963Y580945D01*
X247094Y580945D01*
X267211Y441756D02*
X267219Y441747D01*
D17*
X294691Y486641D03*
D22*
X308619Y531952D02*
X310996Y531952D01*
X308619Y531952D02*
X302667Y537904D01*
X299108Y537904D01*
D17*
X317936Y438719D03*
D22*
X357311Y487539D02*
X355108Y489742D01*
X355108Y491982D01*
X357311Y480764D02*
X317936Y441389D01*
X317936Y438719D01*
X357311Y480764D02*
X357311Y487539D01*
D17*
X326390Y509369D03*
D22*
X299108Y537904D02*
X299270Y538067D01*
X299270Y544478D01*
X298699Y545050D02*
X298835Y545186D01*
X298699Y545050D02*
X299270Y544478D01*
X281207Y441747D02*
X281987Y440967D01*
X281207Y441747D02*
X267999Y454955D01*
X267999Y455653D01*
X221510Y550282D02*
X221586Y550357D01*
X326390Y509369D02*
X326390Y509039D01*
D17*
X354130Y508477D03*
D22*
X354633Y515900D02*
X354603Y515930D01*
X354633Y515900D02*
X354633Y508980D01*
X354130Y508477D01*
D17*
X339406Y507627D03*
D22*
X329927Y505832D02*
X326390Y509369D01*
X329927Y505832D02*
X337168Y505832D01*
X338964Y507627D02*
X339406Y507627D01*
X338964Y507627D02*
X337168Y505832D01*
X124586Y584647D02*
X124357Y584418D01*
X124357Y568696D02*
X124713Y568340D01*
X124357Y568696D02*
X124357Y584418D01*
X124713Y568340D02*
X124761Y568340D01*
X124761Y562034D01*
X262161Y561327D02*
X265890Y561327D01*
X262161Y561327D02*
X256982Y566506D01*
X266679Y560538D02*
X276638Y560538D01*
X266679Y560538D02*
X265890Y561327D01*
X226535Y578517D02*
X223441Y578517D01*
X216701Y571776D01*
X130347Y556449D02*
X124761Y562034D01*
X215494Y556449D02*
X221586Y550357D01*
X215494Y556449D02*
X130347Y556449D01*
X216701Y555242D02*
X216701Y571776D01*
X216701Y555242D02*
X221586Y550357D01*
X243560Y471067D02*
X243644Y470983D01*
X243644Y462323D01*
X314871Y508002D02*
X314871Y528077D01*
X314871Y508002D02*
X316930Y505943D01*
X322964Y505943D02*
X326390Y509369D01*
X322964Y505943D02*
X316930Y505943D01*
X294691Y476970D02*
X299929Y471731D01*
X294691Y476970D02*
X294691Y486641D01*
X283740Y553568D02*
X283884Y553712D01*
X289145Y553712D02*
X290177Y552680D01*
X289145Y553712D02*
X283884Y553712D01*
X290177Y552680D02*
X290630Y552680D01*
X298124Y545186D01*
X298835Y545186D01*
X276640Y511731D02*
X275929Y511731D01*
D17*
X265635Y465265D03*
D22*
X267999Y458582D02*
X267999Y455653D01*
X265635Y460946D02*
X265635Y465265D01*
X265635Y460946D02*
X267999Y458582D01*
X228595Y469189D02*
X228560Y469223D01*
X228560Y471067D01*
X228595Y469189D02*
X228595Y461038D01*
X228595Y457313D01*
X242900Y456749D02*
X242900Y452406D01*
X240820Y450326D01*
X241136Y454985D02*
X242927Y456776D01*
X241136Y454985D02*
X230923Y454985D01*
X228595Y457313D01*
X317936Y438719D02*
X317936Y437714D01*
X303445Y423224D01*
X296075Y440967D02*
X299929Y444821D01*
X299929Y471731D01*
X281207Y441747D02*
X267219Y441747D01*
X267211Y441756D02*
X266870Y442096D01*
X255448Y442096D01*
X251889Y445655D01*
D17*
X251889Y445655D03*
X240820Y450326D03*
D22*
X294691Y492970D02*
X275929Y511731D01*
X294691Y492970D02*
X294691Y486641D01*
X250722Y434752D02*
X240820Y444654D01*
X240820Y450326D01*
X250722Y434752D02*
X254660Y434752D01*
X266188Y423224D01*
X303445Y423224D01*
X296075Y440967D02*
X281987Y440967D01*
X242927Y456776D02*
X242927Y461606D01*
X243644Y462323D01*
X242927Y456776D02*
X242900Y456749D01*
D17*
X235215Y485043D03*
D22*
X228560Y478388D01*
X228560Y471067D01*
D17*
X243358Y586948D03*
D22*
X247094Y583212D01*
D17*
X110269Y447832D03*
X127000Y612140D03*
X215900Y429260D03*
X376174Y427482D03*
X399542Y478282D03*
D22*
X247094Y577908D02*
X247094Y580945D01*
X247094Y583212D01*
D17*
X367792Y524256D03*
X375575Y491040D03*
X306040Y428031D03*
X255057Y428247D03*
X148648Y437078D03*
D22*
X294480Y555865D02*
X294480Y561397D01*
X291294Y552680D02*
X290177Y552680D01*
X291294Y552680D02*
X294480Y555865D01*
X290910Y564967D02*
X290910Y570021D01*
X292969Y572080D01*
X290910Y564967D02*
X294480Y561397D01*
X292969Y572080D02*
X310382Y572080D01*
X345986Y536475D01*
X355573Y536475D02*
X367792Y524256D01*
X355573Y536475D02*
X345986Y536475D01*
X256982Y566506D02*
X256982Y568020D01*
X247094Y577908D01*
X229554Y461038D02*
X228595Y461038D01*
X229554Y461038D02*
X230480Y460113D01*
D17*
X230480Y460113D03*
X182783Y432018D03*
D22*
X240790Y570827D02*
X239636Y571980D01*
X226571Y571980D01*
X226535Y572017D01*
X238560Y542830D02*
X238560Y534967D01*
X233287Y545908D02*
X228838Y550357D01*
X228086Y550357D01*
X219861Y558582D02*
X219861Y569090D01*
X219861Y558582D02*
X228086Y550357D01*
X226535Y572017D02*
X222789Y572017D01*
X219861Y569090D01*
X235482Y545908D02*
X238560Y542830D01*
X235482Y545908D02*
X233287Y545908D01*
X238560Y480583D02*
X238560Y471067D01*
X247155Y478132D02*
X247155Y459048D01*
X249427Y456776D01*
X246976Y443471D02*
X252543Y437904D01*
X246976Y454325D02*
X249427Y456776D01*
X246976Y454325D02*
X246976Y443471D01*
D17*
X300548Y489679D03*
D22*
X300548Y488574D01*
D17*
X310002Y511714D03*
D22*
X284324Y540676D02*
X279740Y540592D01*
X279685Y540537D01*
X297714Y528298D02*
X299108Y526904D01*
X297714Y528298D02*
X296702Y528298D01*
X310002Y525105D02*
X310002Y511714D01*
X310002Y525105D02*
X308202Y526904D01*
X299108Y526904D01*
X310053Y548298D02*
X310294Y548298D01*
X317496Y541096D02*
X317496Y531952D01*
X317496Y541096D02*
X310294Y548298D01*
D17*
X319948Y510819D03*
D22*
X318224Y531225D02*
X317496Y531952D01*
X318224Y512543D02*
X319948Y510819D01*
X318224Y512543D02*
X318224Y531225D01*
X315275Y489564D02*
X314019Y489564D01*
X309356Y494226D02*
X305046Y494226D01*
X300548Y489728D01*
X300548Y489679D01*
X309356Y494226D02*
X314019Y489564D01*
X317360Y531968D02*
X325605Y531968D01*
X317496Y531952D02*
X317360Y531952D01*
X317360Y531968D01*
X308839Y482150D02*
X308839Y449047D01*
X296702Y528298D02*
X284324Y540676D01*
X297695Y437904D02*
X252543Y437904D01*
X297695Y437904D02*
X308839Y449047D01*
X300548Y488884D02*
X300548Y489679D01*
X300548Y488884D02*
X304896Y484536D01*
X306452Y484536D01*
X308839Y482150D01*
X247155Y478132D02*
X247146Y478141D01*
X247146Y479023D01*
X245586Y480583D01*
X238560Y480583D01*
D17*
X295809Y566995D03*
X366959Y517581D03*
D22*
X366869Y517581D01*
X353326Y531123D01*
X314449Y557097D02*
X304551Y566995D01*
X295809Y566995D01*
X331941Y531123D02*
X353326Y531123D01*
X314449Y548454D02*
X314449Y557097D01*
X314449Y548454D02*
X320544Y542359D01*
X320544Y537388D01*
X329552Y536754D02*
X330891Y535415D01*
X321178Y536754D02*
X320544Y537388D01*
X330891Y535415D02*
X330891Y532173D01*
X329552Y536754D02*
X321178Y536754D01*
X330891Y532173D02*
X331941Y531123D01*
X157191Y448165D02*
X134648Y448165D01*
X126121Y456692D01*
X91036Y456692D01*
X88595Y454251D01*
X197338Y441773D02*
X197695Y442131D01*
X198620Y441773D02*
X215325Y458478D01*
X198620Y441773D02*
X197338Y441773D01*
X215325Y458478D02*
X216858Y458478D01*
X219928Y461548D02*
X222156Y461548D01*
X223560Y462952D01*
X223560Y471067D01*
X219928Y461548D02*
X216858Y458478D01*
X197338Y441773D02*
X163583Y441773D01*
X157191Y448165D01*
X159424Y454251D02*
X168753Y444922D01*
X159424Y454251D02*
X147595Y454251D01*
X218560Y471067D02*
X218596Y471031D01*
X218596Y464565D01*
X215596Y461565D01*
X212628Y461565D01*
X199337Y448273D01*
X197338Y448273D02*
X195123Y448273D01*
X191771Y444922D01*
X168753Y444922D01*
X197338Y448273D02*
X199337Y448273D01*
X173769Y451757D02*
X158575Y466951D01*
X147595Y466951D01*
X197963Y461938D02*
X197990Y461938D01*
X204747Y468695D02*
X204747Y478805D01*
X211478Y480553D02*
X213560Y478470D01*
X213560Y471067D01*
X204747Y478805D02*
X206494Y480553D01*
X211478Y480553D01*
X204747Y468695D02*
X197990Y461938D01*
X187781Y451757D02*
X173769Y451757D01*
X187781Y451757D02*
X197963Y461938D01*
X208560Y462977D02*
X208560Y471067D01*
X208560Y462977D02*
X201022Y455438D01*
X197990Y455438D02*
X196736Y455438D01*
X189335Y448038D01*
X172947Y448038D01*
X197990Y455438D02*
X201022Y455438D01*
X172947Y448038D02*
X160120Y460865D01*
X128384Y466951D02*
X88595Y466951D01*
X134470Y460865D02*
X160120Y460865D01*
X134470Y460865D02*
X128384Y466951D01*
X128562Y479651D02*
X88595Y479651D01*
X128562Y479651D02*
X134648Y473565D01*
X192860Y484267D02*
X194110Y485517D01*
X192860Y484267D02*
X192860Y481124D01*
X181963Y470226D01*
X178967Y467230D02*
X164704Y467230D01*
X161881Y470054D01*
X161881Y471698D01*
X160014Y473565D01*
X178967Y467230D02*
X181963Y470226D01*
X160014Y473565D02*
X134648Y473565D01*
X193725Y490131D02*
X194110Y490517D01*
X193725Y490131D02*
X186964Y490131D01*
X184628Y487794D01*
X184628Y479391D01*
X181963Y476726D01*
X164929Y473196D02*
X158474Y479651D01*
X147595Y479651D01*
X164929Y473196D02*
X164929Y471689D01*
X166337Y470281D01*
X175518Y470281D01*
X181963Y476726D01*
X158125Y494175D02*
X149418Y494175D01*
X147595Y492351D01*
X179331Y491372D02*
X179735Y491372D01*
X185328Y495517D02*
X194110Y495517D01*
X185328Y495517D02*
X181183Y491371D01*
X179735Y491372D01*
X160928Y491372D01*
X158125Y494175D01*
X160890Y485737D02*
X134579Y485737D01*
X127965Y492351D01*
X88595Y492351D01*
X179623Y497872D02*
X179735Y497872D01*
X194078Y500549D02*
X194110Y500517D01*
X194078Y500549D02*
X182413Y500549D01*
X179735Y497872D01*
X194110Y500517D02*
X195524Y499103D01*
X202067Y499103D01*
X203596Y497573D01*
X203596Y483460D01*
X183937Y463802D01*
X172190Y463802D02*
X170691Y462303D01*
X172190Y463802D02*
X183937Y463802D01*
D17*
X170691Y462303D03*
X169271Y475303D03*
D22*
X169271Y477357D01*
X160890Y485737D01*
X134475Y498965D02*
X128389Y505051D01*
X88595Y505051D01*
X179862Y505083D02*
X180137Y504808D01*
X174294Y498965D01*
X180296Y505517D02*
X194110Y505517D01*
X180296Y505517D02*
X179862Y505083D01*
X174294Y498965D02*
X134475Y498965D01*
X179080Y511583D02*
X179862Y511583D01*
X180523Y511583D02*
X181503Y510602D01*
X194024Y510602D01*
X194110Y510517D01*
X180523Y511583D02*
X179862Y511583D01*
X179080Y511583D02*
X172548Y505051D01*
X147595Y505051D01*
X184032Y515517D02*
X194110Y515517D01*
X184032Y515517D02*
X181811Y517737D01*
X173911Y517737D02*
X173897Y517751D01*
X147595Y517751D01*
X173911Y517737D02*
X181811Y517737D01*
X135082Y524365D02*
X128468Y517751D01*
X88595Y517751D01*
X183254Y520517D02*
X194110Y520517D01*
X183254Y520517D02*
X179534Y524237D01*
X173911Y524237D02*
X173783Y524365D01*
X135082Y524365D01*
X173911Y524237D02*
X179534Y524237D01*
X128186Y530451D02*
X88595Y530451D01*
X128186Y530451D02*
X134272Y536537D01*
X207420Y536106D02*
X208560Y534967D01*
X207420Y536106D02*
X181432Y536106D01*
X181001Y536537D01*
X134272Y536537D01*
X147595Y530451D02*
X149799Y532656D01*
X178383Y532656D02*
X181432Y529606D01*
X178383Y532656D02*
X149799Y532656D01*
X186303Y525239D02*
X211513Y525239D01*
X213560Y527286D01*
X213560Y534967D01*
X186303Y525239D02*
X181936Y529606D01*
X181432Y529606D01*
X218560Y534967D02*
X218560Y542372D01*
X216281Y544651D01*
X182730Y544651D01*
X180607Y542527D01*
X148218Y542527D02*
X147595Y543151D01*
X148218Y542527D02*
X180607Y542527D01*
X223560Y541790D02*
X223560Y534967D01*
X216323Y549027D02*
X180607Y549027D01*
X216323Y549027D02*
X223560Y541790D01*
X180607Y549027D02*
X180397Y549237D01*
X134551Y549237D01*
X128465Y543151D01*
X88595Y543151D01*
D17*
X235580Y523799D03*
D22*
X243451Y534858D02*
X243560Y534967D01*
X243451Y534858D02*
X243451Y525534D01*
X240947Y523029D01*
X236350Y523029D02*
X235580Y523799D01*
X235580Y523799D01*
X236350Y523029D02*
X240947Y523029D01*
X257979Y520548D02*
X258010Y520517D01*
D17*
X259068Y533131D03*
D22*
X268685Y539409D02*
X268685Y540537D01*
X268685Y528141D01*
X261061Y520517D01*
X258010Y520517D01*
X262112Y532836D02*
X268685Y539409D01*
X262112Y532836D02*
X259363Y532836D01*
X259068Y533131D01*
D17*
X226002Y515193D03*
D22*
X257936Y515442D02*
X258010Y515517D01*
X257936Y515442D02*
X226251Y515442D01*
X226002Y515193D01*
D17*
X218178Y506507D03*
D22*
X221988Y510316D01*
X253538Y510316D01*
D17*
X222791Y501068D03*
D22*
X227126Y505404D01*
D17*
X210283Y561861D03*
D22*
X210282Y561862D01*
X131997Y561862D01*
D17*
X131724Y561899D03*
D22*
X131960Y561899D02*
X131997Y561862D01*
X131960Y561899D02*
X131724Y561899D01*
X257898Y505404D02*
X258010Y505517D01*
X257898Y505404D02*
X227126Y505404D01*
D17*
X222725Y488524D03*
D22*
X223246Y488524D01*
X235026Y500304D02*
X251432Y500304D01*
X235026Y500304D02*
X223246Y488524D01*
X257493Y484999D02*
X258010Y485517D01*
X257493Y484999D02*
X257493Y459853D01*
X267211Y450135D02*
X267211Y448256D01*
X267211Y450135D02*
X257493Y459853D01*
X177155Y585504D02*
X182658Y591007D01*
X177155Y585504D02*
X146888Y585504D01*
D17*
X182658Y591007D03*
D22*
X146888Y585504D02*
X146031Y584647D01*
X131086Y584647D01*
X149428Y571044D02*
X176513Y571044D01*
X149428Y571044D02*
X146888Y568504D01*
X176513Y571044D02*
X182556Y577088D01*
D17*
X182556Y577088D03*
D22*
X146888Y568504D02*
X146724Y568340D01*
X131213Y568340D01*
D17*
X357593Y431995D03*
X376934Y470782D03*
D22*
X356718Y432871D02*
X357593Y431995D01*
X373310Y467158D02*
X376934Y470782D01*
X373310Y467158D02*
X360932Y467158D01*
X356718Y462943D01*
X356718Y432871D01*
D17*
X376980Y478407D03*
D22*
X371412Y472840D01*
X360983Y472840D01*
X351035Y443239D02*
X351044Y443230D01*
D17*
X351044Y443230D03*
X320581Y431054D03*
D22*
X351044Y435483D02*
X351044Y443230D01*
X351044Y435483D02*
X346615Y431054D01*
X320581Y431054D01*
X351035Y443239D02*
X351035Y462891D01*
X360983Y472840D01*
D17*
X271852Y549582D03*
D22*
X268135Y549582D01*
X265890Y551827D01*
X266430Y570287D02*
X262187Y570287D01*
X265890Y570827D02*
X266430Y570287D01*
X261663Y556054D02*
X265890Y551827D01*
X261663Y556054D02*
X258834Y556054D01*
X256982Y557905D01*
D17*
X254650Y562003D03*
X255494Y576980D03*
D22*
X262187Y570287D01*
X277164Y553643D02*
X277240Y553568D01*
X277164Y553643D02*
X267706Y553643D01*
X265890Y551827D01*
X256982Y559671D02*
X254650Y562003D01*
X256982Y559671D02*
X256982Y557905D01*
D17*
X222820Y594995D03*
D22*
X222820Y601178D01*
X226797Y605155D01*
D17*
X350749Y609270D03*
D22*
X346634Y605155D01*
X226797Y605155D01*
D17*
X229392Y595594D03*
D22*
X229392Y598429D01*
X233070Y602107D01*
X357911Y602107D02*
X375717Y584302D01*
X357911Y602107D02*
X233070Y602107D01*
X375410Y584302D02*
X375717Y584302D01*
D17*
X375410Y584302D03*
X239344Y596875D03*
D22*
X241528Y599059D01*
X346862Y599059D02*
X375260Y570662D01*
X346862Y599059D02*
X241528Y599059D01*
D17*
X375260Y570662D03*
X298585Y551829D03*
D22*
X309773Y554519D02*
X310053Y554798D01*
X309773Y554519D02*
X301274Y554519D01*
X298585Y551829D01*
D17*
X270662Y587863D03*
D22*
X321770Y589633D02*
X374904Y536499D01*
X321770Y589633D02*
X272433Y589633D01*
X270662Y587863D01*
D17*
X374904Y536499D03*
X189695Y567454D03*
D22*
X190213Y567454D02*
X195999Y573240D01*
X190213Y567454D02*
X189695Y567454D01*
X195999Y611025D02*
X195463Y611561D01*
X195999Y611025D02*
X195999Y573240D01*
D17*
X283569Y560835D03*
D22*
X290177Y560064D02*
X290177Y559180D01*
X290177Y560064D02*
X286427Y563814D01*
X290529Y575128D02*
X311645Y575128D01*
X375252Y529868D02*
X375252Y529844D01*
X290529Y575128D02*
X286427Y571025D01*
X286427Y563817D02*
X283854Y561244D01*
X286427Y563817D02*
X286427Y571025D01*
X286427Y563817D02*
X286427Y563814D01*
X283978Y561244D02*
X283569Y560835D01*
X283854Y561244D02*
X283978Y561244D01*
X311645Y575128D02*
X347249Y539523D01*
X373220Y529868D02*
X375252Y529868D01*
X373220Y529868D02*
X363565Y539523D01*
X347249Y539523D01*
D17*
X255053Y552735D03*
D22*
X252816Y552735D01*
X247756Y557795D01*
X232747Y557795D01*
X225608Y564933D01*
X225372Y564933D01*
D17*
X225372Y564933D03*
X252146Y583050D03*
D22*
X252105Y583050D01*
X252105Y590730D01*
X254249Y592874D01*
X329070Y592874D02*
X374853Y547091D01*
X329070Y592874D02*
X254249Y592874D01*
D17*
X374853Y547091D03*
X201524Y596113D03*
D22*
X204749Y603614D02*
X204749Y612775D01*
X201524Y600389D02*
X201524Y596113D01*
X201524Y600389D02*
X204749Y603614D01*
X209321Y617347D02*
X334620Y617347D01*
X348310Y631038D01*
X209321Y617347D02*
X204749Y612775D01*
X348310Y631038D02*
X375410Y631038D01*
X375539Y631038D01*
D17*
X375410Y631038D03*
X333454Y510682D03*
D22*
X333454Y513120D01*
X325605Y520968D01*
D17*
X270695Y577957D03*
D22*
X271076Y578338D02*
X316011Y578338D01*
X271076Y578338D02*
X270695Y577957D01*
X335006Y520968D02*
X338827Y524789D01*
X335006Y520968D02*
X325605Y520968D01*
X338827Y524789D02*
X346405Y524789D01*
X347929Y526313D02*
X349199Y526313D01*
X347929Y526313D02*
X346405Y524789D01*
D17*
X349199Y526313D03*
X349445Y544333D03*
D22*
X349445Y544903D01*
X316011Y578338D01*
D17*
X307824Y499087D03*
D22*
X309301Y500564D02*
X315275Y500564D01*
X309301Y500564D02*
X307824Y499087D01*
X315763Y500076D02*
X340364Y500076D01*
X315763Y500076D02*
X315275Y500564D01*
D17*
X259004Y583072D03*
D22*
X340364Y500076D02*
X344241Y503954D01*
X319821Y582902D02*
X259174Y582902D01*
X259004Y583072D01*
X344241Y518376D02*
X344241Y503954D01*
X344241Y518376D02*
X346962Y521096D01*
X353482Y521096D02*
X355017Y522630D01*
X353482Y521096D02*
X346962Y521096D01*
D17*
X355017Y522630D03*
X356337Y544805D03*
D22*
X357128Y545596D01*
X319821Y582902D01*
D17*
X290450Y428684D03*
D22*
X352501Y482613D02*
X352501Y485546D01*
X298573Y428684D02*
X290450Y428684D01*
X298573Y428684D02*
X352501Y482613D01*
D17*
X352501Y485546D03*
D22*
X350298Y487750D01*
X350298Y496057D01*
X361423Y507183D02*
X363871Y507183D01*
X375252Y518564D01*
X361423Y507183D02*
X350298Y496057D01*
X375252Y518564D02*
X375252Y523368D01*
D17*
X313671Y465377D03*
X269822Y429778D03*
D22*
X313671Y448952D02*
X313671Y465377D01*
X313671Y448952D02*
X299364Y434645D01*
X274690Y434647D01*
X269822Y429778D01*
D17*
X349066Y502936D03*
X307201Y489350D03*
D22*
X322481Y472939D02*
X338471Y472939D01*
X346100Y480568D01*
X346100Y499971D02*
X349066Y502936D01*
X346100Y499971D02*
X346100Y480568D01*
X322481Y472939D02*
X307201Y488219D01*
X307201Y489350D01*
X348103Y503899D02*
X349066Y502936D01*
X348103Y503899D02*
X348103Y515930D01*
D17*
X183150Y566771D03*
D22*
X192774Y578609D02*
X192774Y594354D01*
X192774Y578609D02*
X183153Y568988D01*
X183153Y566773D02*
X183150Y566771D01*
X183153Y566773D02*
X183153Y568988D01*
X192774Y594354D02*
X178133Y608995D01*
X178133Y611561D01*
X299929Y516901D02*
X299929Y511731D01*
X299929Y516901D02*
X284483Y532347D01*
X267493Y495517D02*
X258010Y495517D01*
X267493Y495517D02*
X267493Y521763D01*
X280919Y532347D02*
X284483Y532347D01*
X280919Y532347D02*
X278077Y532347D01*
X267493Y521763D01*
D17*
X206963Y583231D03*
D22*
X207797Y584064D01*
X207797Y611302D01*
X210795Y614299D01*
X335882Y614299D01*
X346220Y624637D01*
X372313Y624637D01*
X374625Y622325D01*
D17*
X374625Y622325D03*
X199793Y471934D03*
D22*
X185154Y457294D01*
X176451Y457294D01*
D17*
X176451Y457294D03*
X212607Y594335D03*
D22*
X212607Y609482D01*
X214376Y611251D01*
X337450Y611251D01*
X345933Y619735D01*
X365735Y619735D01*
X375488Y609981D01*
X375410Y609981D01*
D17*
X375410Y609981D03*
X257472Y545722D03*
D22*
X227994Y520003D02*
X224009Y520003D01*
X224717Y483714D02*
X220733Y483714D01*
X257472Y538337D02*
X257472Y545722D01*
X257472Y538337D02*
X254258Y535123D01*
X229008Y518989D02*
X227994Y520003D01*
X230857Y489854D02*
X224717Y483714D01*
X213368Y509362D02*
X224009Y520003D01*
X254258Y532030D02*
X254258Y535123D01*
X254258Y532030D02*
X241217Y518989D01*
X229008Y518989D01*
X230857Y489854D02*
X240626Y489854D01*
X253911Y476568D01*
X213368Y491078D02*
X213368Y509362D01*
X213368Y491078D02*
X220733Y483714D01*
X253911Y476568D02*
X253911Y455366D01*
X258112Y451165D02*
X258112Y449306D01*
D17*
X258112Y449306D03*
D22*
X258112Y451165D02*
X253911Y455366D01*
D17*
X364165Y429618D03*
D22*
X364165Y430354D01*
X381790Y447978D01*
X381790Y587385D02*
X375181Y593994D01*
X381790Y587385D02*
X381790Y447978D01*
D17*
X375181Y593994D03*
X210458Y575822D03*
D22*
X245234Y595948D02*
X337597Y595948D01*
X374735Y558809D01*
X245234Y595948D02*
X237524Y588238D01*
X210458Y577197D02*
X210458Y575822D01*
X210458Y577197D02*
X221499Y588238D01*
X237524Y588238D01*
D17*
X374735Y558809D03*
X280253Y456827D03*
D22*
X272416Y490440D02*
X258086Y490440D01*
X258010Y490517D01*
X275929Y471731D02*
X277850Y469811D01*
X277850Y462765D01*
X274499Y459415D01*
X274499Y455653D01*
X275929Y471731D02*
X275929Y486927D01*
X272416Y490440D01*
X275929Y471731D02*
X280253Y467407D01*
X280253Y456827D01*
M02*
