G04 EAGLE Gerber RS-274X export*
G75*
%MOMM*%
%FSLAX34Y34*%
%LPD*%
%IN*%
%IPPOS*%
%AMOC8*
5,1,8,0,0,1.08239X$1,22.5*%
G01*
%ADD10C,0.254000*%


D10*
X73231Y437025D02*
X73289Y435441D01*
X73485Y433869D01*
X73817Y432320D01*
X74283Y430806D01*
X74879Y429338D01*
X75600Y427927D01*
X76442Y426585D01*
X77398Y425321D01*
X78460Y424146D01*
X79621Y423067D01*
X80871Y422094D01*
X82201Y421233D01*
X83601Y420492D01*
X85061Y419875D01*
X86569Y419388D01*
X88113Y419035D01*
X89682Y418817D01*
X91265Y418737D01*
X386921Y418737D01*
X388670Y418813D01*
X390405Y419042D01*
X392114Y419421D01*
X393784Y419947D01*
X395401Y420617D01*
X396954Y421425D01*
X398430Y422366D01*
X399819Y423431D01*
X401110Y424614D01*
X402292Y425905D01*
X403358Y427293D01*
X404298Y428770D01*
X405107Y430323D01*
X405777Y431940D01*
X406303Y433609D01*
X406682Y435318D01*
X406910Y437054D01*
X406987Y438803D01*
X406987Y651655D01*
X406907Y653237D01*
X406689Y654806D01*
X406335Y656351D01*
X405848Y657859D01*
X405232Y659318D01*
X404490Y660718D01*
X403630Y662049D01*
X402656Y663299D01*
X401578Y664459D01*
X400402Y665522D01*
X399138Y666477D01*
X397796Y667319D01*
X396386Y668041D01*
X394918Y668637D01*
X393404Y669103D01*
X391854Y669435D01*
X390282Y669631D01*
X388699Y669689D01*
X94821Y669689D01*
X92939Y669607D01*
X91072Y669361D01*
X89233Y668953D01*
X87437Y668387D01*
X85696Y667666D01*
X84026Y666796D01*
X82437Y665784D01*
X80943Y664638D01*
X79554Y663365D01*
X78282Y661977D01*
X77135Y660482D01*
X76123Y658894D01*
X75254Y657223D01*
X74533Y655483D01*
X73966Y653687D01*
X73559Y651848D01*
X73313Y649980D01*
X73231Y648099D01*
X73231Y437025D01*
X361749Y494558D02*
X361778Y494337D01*
X361826Y494118D01*
X361892Y493905D01*
X361977Y493698D01*
X362080Y493500D01*
X362199Y493311D01*
X362335Y493133D01*
X362485Y492968D01*
X362650Y492817D01*
X362827Y492680D01*
X363015Y492559D01*
X363213Y492456D01*
X363419Y492369D01*
X363632Y492302D01*
X363850Y492253D01*
X364071Y492223D01*
X364295Y492212D01*
X364518Y492222D01*
X367947Y492222D01*
X368146Y492230D01*
X368344Y492256D01*
X368539Y492299D01*
X368729Y492359D01*
X368913Y492436D01*
X369090Y492528D01*
X369258Y492635D01*
X369416Y492756D01*
X369563Y492891D01*
X369698Y493038D01*
X369820Y493196D01*
X369927Y493365D01*
X370019Y493541D01*
X370095Y493726D01*
X370155Y493916D01*
X370198Y494111D01*
X370224Y494308D01*
X370233Y494508D01*
X370233Y500654D01*
X370224Y500854D01*
X370198Y501051D01*
X370155Y501246D01*
X370095Y501436D01*
X370019Y501620D01*
X369927Y501797D01*
X369820Y501966D01*
X369698Y502124D01*
X369563Y502271D01*
X369416Y502406D01*
X369258Y502527D01*
X369090Y502634D01*
X368913Y502726D01*
X368729Y502802D01*
X368539Y502862D01*
X368344Y502906D01*
X368146Y502932D01*
X367947Y502940D01*
X364518Y502940D01*
X364299Y502954D01*
X364079Y502949D01*
X363861Y502924D01*
X363646Y502881D01*
X363436Y502819D01*
X363231Y502738D01*
X363035Y502641D01*
X362847Y502526D01*
X362671Y502396D01*
X362506Y502251D01*
X362355Y502092D01*
X362218Y501920D01*
X362096Y501738D01*
X361991Y501545D01*
X361904Y501344D01*
X361834Y501136D01*
X361782Y500922D01*
X361749Y500705D01*
X361749Y494558D01*
X361927Y444597D02*
X361936Y444397D01*
X361962Y444200D01*
X362005Y444005D01*
X362065Y443815D01*
X362141Y443630D01*
X362233Y443454D01*
X362341Y443285D01*
X362462Y443127D01*
X362597Y442980D01*
X362744Y442845D01*
X362902Y442724D01*
X363070Y442617D01*
X363247Y442525D01*
X363431Y442448D01*
X363621Y442388D01*
X363816Y442345D01*
X364014Y442319D01*
X364213Y442311D01*
X367642Y442311D01*
X367841Y442319D01*
X368039Y442345D01*
X368234Y442388D01*
X368424Y442448D01*
X368608Y442525D01*
X368785Y442617D01*
X368953Y442724D01*
X369112Y442845D01*
X369259Y442980D01*
X369393Y443127D01*
X369515Y443285D01*
X369622Y443454D01*
X369714Y443630D01*
X369790Y443815D01*
X369850Y444005D01*
X369893Y444200D01*
X369919Y444397D01*
X369928Y444597D01*
X369928Y450743D01*
X369919Y450943D01*
X369893Y451140D01*
X369850Y451335D01*
X369790Y451525D01*
X369714Y451709D01*
X369622Y451886D01*
X369515Y452055D01*
X369393Y452213D01*
X369259Y452360D01*
X369112Y452495D01*
X368953Y452616D01*
X368785Y452723D01*
X368608Y452815D01*
X368424Y452891D01*
X368234Y452951D01*
X368039Y452995D01*
X367841Y453021D01*
X367642Y453029D01*
X364213Y453029D01*
X364014Y453021D01*
X363816Y452995D01*
X363621Y452951D01*
X363431Y452891D01*
X363247Y452815D01*
X363070Y452723D01*
X362902Y452616D01*
X362744Y452495D01*
X362597Y452360D01*
X362462Y452213D01*
X362341Y452055D01*
X362233Y451886D01*
X362141Y451709D01*
X362065Y451525D01*
X362005Y451335D01*
X361962Y451140D01*
X361936Y450943D01*
X361927Y450743D01*
X361927Y444597D01*
X388445Y436646D02*
X388453Y436447D01*
X388479Y436249D01*
X388523Y436055D01*
X388583Y435865D01*
X388659Y435680D01*
X388751Y435503D01*
X388858Y435335D01*
X388980Y435177D01*
X389114Y435030D01*
X389261Y434895D01*
X389420Y434774D01*
X389588Y434667D01*
X389765Y434575D01*
X389949Y434498D01*
X390139Y434438D01*
X390334Y434395D01*
X390531Y434369D01*
X390731Y434360D01*
X399494Y434360D01*
X399693Y434369D01*
X399891Y434395D01*
X400085Y434438D01*
X400276Y434498D01*
X400460Y434575D01*
X400637Y434667D01*
X400805Y434774D01*
X400963Y434895D01*
X401110Y435030D01*
X401245Y435177D01*
X401366Y435335D01*
X401473Y435503D01*
X401566Y435680D01*
X401642Y435865D01*
X401702Y436055D01*
X401745Y436249D01*
X401771Y436447D01*
X401780Y436646D01*
X401780Y439694D01*
X401776Y439902D01*
X401755Y440108D01*
X401715Y440311D01*
X401658Y440510D01*
X401584Y440704D01*
X401493Y440890D01*
X401387Y441068D01*
X401265Y441236D01*
X401129Y441392D01*
X400980Y441536D01*
X400819Y441667D01*
X400647Y441783D01*
X400466Y441883D01*
X400277Y441968D01*
X400081Y442035D01*
X399880Y442086D01*
X399675Y442118D01*
X399468Y442133D01*
X390705Y442133D01*
X390501Y442116D01*
X390299Y442082D01*
X390100Y442030D01*
X389907Y441961D01*
X389721Y441875D01*
X389543Y441774D01*
X389374Y441657D01*
X389216Y441526D01*
X389070Y441382D01*
X388937Y441225D01*
X388819Y441058D01*
X388715Y440881D01*
X388627Y440696D01*
X388556Y440503D01*
X388502Y440305D01*
X388465Y440104D01*
X388446Y439899D01*
X388445Y439694D01*
X388445Y436646D01*
X388318Y505531D02*
X388326Y505332D01*
X388352Y505134D01*
X388396Y504940D01*
X388456Y504749D01*
X388532Y504565D01*
X388624Y504388D01*
X388731Y504220D01*
X388853Y504062D01*
X388987Y503915D01*
X389134Y503780D01*
X389293Y503659D01*
X389461Y503551D01*
X389638Y503459D01*
X389822Y503383D01*
X390012Y503323D01*
X390207Y503280D01*
X390404Y503254D01*
X390604Y503245D01*
X399392Y503245D01*
X399591Y503254D01*
X399789Y503280D01*
X399984Y503323D01*
X400174Y503383D01*
X400358Y503459D01*
X400535Y503551D01*
X400703Y503659D01*
X400862Y503780D01*
X401009Y503915D01*
X401143Y504062D01*
X401265Y504220D01*
X401372Y504388D01*
X401464Y504565D01*
X401540Y504749D01*
X401600Y504940D01*
X401643Y505134D01*
X401669Y505332D01*
X401678Y505531D01*
X401678Y508579D01*
X401684Y508792D01*
X401672Y509005D01*
X401641Y509216D01*
X401592Y509424D01*
X401525Y509626D01*
X401440Y509822D01*
X401339Y510010D01*
X401222Y510188D01*
X401090Y510355D01*
X400943Y510511D01*
X400784Y510652D01*
X400613Y510780D01*
X400431Y510892D01*
X400241Y510988D01*
X400043Y511066D01*
X399838Y511127D01*
X399629Y511171D01*
X399418Y511195D01*
X390629Y511195D01*
X390415Y511173D01*
X390204Y511131D01*
X389997Y511072D01*
X389796Y510995D01*
X389602Y510900D01*
X389418Y510789D01*
X389244Y510662D01*
X389081Y510521D01*
X388932Y510366D01*
X388796Y510199D01*
X388676Y510020D01*
X388572Y509831D01*
X388484Y509635D01*
X388414Y509431D01*
X388362Y509222D01*
X388329Y509009D01*
X388314Y508794D01*
X388318Y508579D01*
X388318Y505531D01*
X101669Y655417D02*
X101592Y654547D01*
X101441Y653687D01*
X101215Y652843D01*
X100916Y652023D01*
X100547Y651232D01*
X100111Y650475D01*
X99610Y649760D01*
X99048Y649091D01*
X98431Y648474D01*
X97762Y647912D01*
X97047Y647411D01*
X96290Y646975D01*
X95499Y646606D01*
X94679Y646307D01*
X93835Y646081D01*
X92975Y645930D01*
X92105Y645853D01*
X91232Y645853D01*
X90362Y645930D01*
X89502Y646081D01*
X88659Y646307D01*
X87838Y646606D01*
X87047Y646975D01*
X86290Y647411D01*
X85575Y647912D01*
X84906Y648474D01*
X84289Y649091D01*
X83727Y649760D01*
X83227Y650475D01*
X82790Y651232D01*
X82421Y652023D01*
X82122Y652843D01*
X81896Y653687D01*
X81745Y654547D01*
X81669Y655417D01*
X81669Y656290D01*
X81745Y657160D01*
X81896Y658020D01*
X82122Y658863D01*
X82421Y659684D01*
X82790Y660475D01*
X83227Y661232D01*
X83727Y661947D01*
X84289Y662616D01*
X84906Y663233D01*
X85575Y663795D01*
X86290Y664295D01*
X87047Y664732D01*
X87838Y665101D01*
X88659Y665400D01*
X89502Y665626D01*
X90362Y665777D01*
X91232Y665853D01*
X92105Y665853D01*
X92975Y665777D01*
X93835Y665626D01*
X94679Y665400D01*
X95499Y665101D01*
X96290Y664732D01*
X97047Y664295D01*
X97762Y663795D01*
X98431Y663233D01*
X99048Y662616D01*
X99610Y661947D01*
X100111Y661232D01*
X100547Y660475D01*
X100916Y659684D01*
X101215Y658863D01*
X101441Y658020D01*
X101592Y657160D01*
X101669Y656290D01*
X101669Y655417D01*
X399407Y651912D02*
X399331Y651042D01*
X399180Y650182D01*
X398954Y649338D01*
X398655Y648518D01*
X398286Y647726D01*
X397849Y646970D01*
X397349Y646255D01*
X396787Y645586D01*
X396170Y644968D01*
X395501Y644407D01*
X394786Y643906D01*
X394029Y643470D01*
X393238Y643101D01*
X392417Y642802D01*
X391574Y642576D01*
X390714Y642424D01*
X389844Y642348D01*
X388971Y642348D01*
X388101Y642424D01*
X387241Y642576D01*
X386397Y642802D01*
X385577Y643101D01*
X384786Y643470D01*
X384029Y643906D01*
X383314Y644407D01*
X382645Y644968D01*
X382028Y645586D01*
X381466Y646255D01*
X380965Y646970D01*
X380529Y647726D01*
X380160Y648518D01*
X379861Y649338D01*
X379635Y650182D01*
X379484Y651042D01*
X379407Y651912D01*
X379407Y652785D01*
X379484Y653655D01*
X379635Y654515D01*
X379861Y655358D01*
X380160Y656179D01*
X380529Y656970D01*
X380965Y657726D01*
X381466Y658442D01*
X382028Y659111D01*
X382645Y659728D01*
X383314Y660289D01*
X384029Y660790D01*
X384786Y661227D01*
X385577Y661596D01*
X386397Y661894D01*
X387241Y662120D01*
X388101Y662272D01*
X388971Y662348D01*
X389844Y662348D01*
X390714Y662272D01*
X391574Y662120D01*
X392417Y661894D01*
X393238Y661596D01*
X394029Y661227D01*
X394786Y660790D01*
X395501Y660289D01*
X396170Y659728D01*
X396787Y659111D01*
X397349Y658442D01*
X397849Y657726D01*
X398286Y656970D01*
X398655Y656179D01*
X398954Y655358D01*
X399180Y654515D01*
X399331Y653655D01*
X399407Y652785D01*
X399407Y651912D01*
X101516Y435046D02*
X101440Y434177D01*
X101288Y433317D01*
X101062Y432473D01*
X100764Y431653D01*
X100395Y430861D01*
X99958Y430105D01*
X99457Y429390D01*
X98896Y428721D01*
X98279Y428103D01*
X97610Y427542D01*
X96894Y427041D01*
X96138Y426604D01*
X95347Y426235D01*
X94526Y425937D01*
X93683Y425711D01*
X92823Y425559D01*
X91953Y425483D01*
X91080Y425483D01*
X90210Y425559D01*
X89350Y425711D01*
X88506Y425937D01*
X87686Y426235D01*
X86894Y426604D01*
X86138Y427041D01*
X85423Y427542D01*
X84754Y428103D01*
X84136Y428721D01*
X83575Y429390D01*
X83074Y430105D01*
X82638Y430861D01*
X82269Y431653D01*
X81970Y432473D01*
X81744Y433317D01*
X81592Y434177D01*
X81516Y435046D01*
X81516Y435920D01*
X81592Y436790D01*
X81744Y437649D01*
X81970Y438493D01*
X82269Y439313D01*
X82638Y440105D01*
X83074Y440861D01*
X83575Y441576D01*
X84136Y442245D01*
X84754Y442863D01*
X85423Y443424D01*
X86138Y443925D01*
X86894Y444362D01*
X87686Y444731D01*
X88506Y445029D01*
X89350Y445255D01*
X90210Y445407D01*
X91080Y445483D01*
X91953Y445483D01*
X92823Y445407D01*
X93683Y445255D01*
X94526Y445029D01*
X95347Y444731D01*
X96138Y444362D01*
X96894Y443925D01*
X97610Y443424D01*
X98279Y442863D01*
X98896Y442245D01*
X99457Y441576D01*
X99958Y440861D01*
X100395Y440105D01*
X100764Y439313D01*
X101062Y438493D01*
X101288Y437649D01*
X101440Y436790D01*
X101516Y435920D01*
X101516Y435046D01*
X293458Y451370D02*
X293381Y450786D01*
X293228Y450216D01*
X293002Y449671D01*
X292707Y449160D01*
X292348Y448692D01*
X291931Y448275D01*
X291463Y447916D01*
X290952Y447621D01*
X290407Y447395D01*
X289837Y447242D01*
X289253Y447165D01*
X288663Y447165D01*
X288078Y447242D01*
X287508Y447395D01*
X286963Y447621D01*
X286452Y447916D01*
X285984Y448275D01*
X285567Y448692D01*
X285208Y449160D01*
X284913Y449671D01*
X284687Y450216D01*
X284535Y450786D01*
X284458Y451370D01*
X284458Y451960D01*
X284535Y452545D01*
X284687Y453115D01*
X284913Y453660D01*
X285208Y454171D01*
X285567Y454639D01*
X285984Y455056D01*
X286452Y455415D01*
X286963Y455710D01*
X287508Y455936D01*
X288078Y456088D01*
X288663Y456165D01*
X289253Y456165D01*
X289837Y456088D01*
X290407Y455936D01*
X290952Y455710D01*
X291463Y455415D01*
X291931Y455056D01*
X292348Y454639D01*
X292707Y454171D01*
X293002Y453660D01*
X293228Y453115D01*
X293381Y452545D01*
X293458Y451960D01*
X293458Y451370D01*
X225458Y451370D02*
X225381Y450786D01*
X225228Y450216D01*
X225002Y449671D01*
X224707Y449160D01*
X224348Y448692D01*
X223931Y448275D01*
X223463Y447916D01*
X222952Y447621D01*
X222407Y447395D01*
X221837Y447242D01*
X221253Y447165D01*
X220663Y447165D01*
X220078Y447242D01*
X219508Y447395D01*
X218963Y447621D01*
X218452Y447916D01*
X217984Y448275D01*
X217567Y448692D01*
X217208Y449160D01*
X216913Y449671D01*
X216687Y450216D01*
X216535Y450786D01*
X216458Y451370D01*
X216458Y451960D01*
X216535Y452545D01*
X216687Y453115D01*
X216913Y453660D01*
X217208Y454171D01*
X217567Y454639D01*
X217984Y455056D01*
X218452Y455415D01*
X218963Y455710D01*
X219508Y455936D01*
X220078Y456088D01*
X220663Y456165D01*
X221253Y456165D01*
X221837Y456088D01*
X222407Y455936D01*
X222952Y455710D01*
X223463Y455415D01*
X223931Y455056D01*
X224348Y454639D01*
X224707Y454171D01*
X225002Y453660D01*
X225228Y453115D01*
X225381Y452545D01*
X225458Y451960D01*
X225458Y451370D01*
M02*
