G04 EAGLE Gerber RS-274X export*
G75*
%MOMM*%
%FSLAX34Y34*%
%LPD*%
%INSilkscreen Top*%
%IPPOS*%
%AMOC8*
5,1,8,0,0,1.08239X$1,22.5*%
G01*
%ADD10C,0.050800*%
%ADD11C,0.025400*%
%ADD12C,0.140000*%
%ADD13C,0.127000*%
%ADD14C,0.100000*%
%ADD15R,0.100000X0.300000*%
%ADD16R,0.600000X0.100000*%
%ADD17R,0.300000X0.100000*%
%ADD18R,0.100000X0.600000*%
%ADD19C,0.200000*%
%ADD20R,0.250000X0.250000*%
%ADD21R,0.500000X0.200000*%
%ADD22R,0.100000X1.000000*%
%ADD23R,0.200000X0.500000*%
%ADD24R,1.000000X0.100000*%
%ADD25C,0.254000*%
%ADD26C,0.101600*%
%ADD27C,0.203200*%
%ADD28C,0.152400*%


D10*
X185781Y653139D02*
X187333Y653139D01*
X187333Y653138D02*
X187410Y653136D01*
X187488Y653130D01*
X187564Y653121D01*
X187641Y653107D01*
X187716Y653090D01*
X187790Y653069D01*
X187864Y653044D01*
X187936Y653016D01*
X188006Y652984D01*
X188075Y652949D01*
X188142Y652910D01*
X188207Y652868D01*
X188270Y652823D01*
X188331Y652775D01*
X188389Y652724D01*
X188444Y652670D01*
X188497Y652613D01*
X188546Y652554D01*
X188593Y652492D01*
X188637Y652428D01*
X188677Y652362D01*
X188714Y652294D01*
X188748Y652224D01*
X188778Y652153D01*
X188804Y652080D01*
X188827Y652006D01*
X188846Y651931D01*
X188861Y651856D01*
X188873Y651779D01*
X188881Y651702D01*
X188885Y651625D01*
X188885Y651547D01*
X188881Y651470D01*
X188873Y651393D01*
X188861Y651316D01*
X188846Y651241D01*
X188827Y651166D01*
X188804Y651092D01*
X188778Y651019D01*
X188748Y650948D01*
X188714Y650878D01*
X188677Y650810D01*
X188637Y650744D01*
X188593Y650680D01*
X188546Y650618D01*
X188497Y650559D01*
X188444Y650502D01*
X188389Y650448D01*
X188331Y650397D01*
X188270Y650349D01*
X188207Y650304D01*
X188142Y650262D01*
X188075Y650223D01*
X188006Y650188D01*
X187936Y650156D01*
X187864Y650128D01*
X187790Y650103D01*
X187716Y650082D01*
X187641Y650065D01*
X187564Y650051D01*
X187488Y650042D01*
X187410Y650036D01*
X187333Y650034D01*
X185781Y650034D01*
X185781Y655622D01*
X187333Y655622D01*
X187403Y655620D01*
X187472Y655614D01*
X187541Y655604D01*
X187609Y655591D01*
X187677Y655573D01*
X187743Y655552D01*
X187808Y655527D01*
X187872Y655499D01*
X187934Y655467D01*
X187994Y655432D01*
X188052Y655393D01*
X188107Y655351D01*
X188161Y655306D01*
X188211Y655258D01*
X188259Y655208D01*
X188304Y655154D01*
X188346Y655099D01*
X188385Y655041D01*
X188420Y654981D01*
X188452Y654919D01*
X188480Y654855D01*
X188505Y654790D01*
X188526Y654724D01*
X188544Y654656D01*
X188557Y654588D01*
X188567Y654519D01*
X188573Y654450D01*
X188575Y654380D01*
X188573Y654310D01*
X188567Y654241D01*
X188557Y654172D01*
X188544Y654104D01*
X188526Y654036D01*
X188505Y653970D01*
X188480Y653905D01*
X188452Y653841D01*
X188420Y653779D01*
X188385Y653719D01*
X188346Y653661D01*
X188304Y653606D01*
X188259Y653552D01*
X188211Y653502D01*
X188161Y653454D01*
X188107Y653409D01*
X188052Y653367D01*
X187994Y653328D01*
X187934Y653293D01*
X187872Y653261D01*
X187808Y653233D01*
X187743Y653208D01*
X187677Y653187D01*
X187609Y653169D01*
X187541Y653156D01*
X187472Y653146D01*
X187403Y653140D01*
X187333Y653138D01*
X192188Y655622D02*
X192188Y650034D01*
X190635Y655622D02*
X193740Y655622D01*
X195756Y651586D02*
X195758Y651663D01*
X195764Y651741D01*
X195773Y651817D01*
X195787Y651894D01*
X195804Y651969D01*
X195825Y652043D01*
X195850Y652117D01*
X195878Y652189D01*
X195910Y652259D01*
X195945Y652328D01*
X195984Y652395D01*
X196026Y652460D01*
X196071Y652523D01*
X196119Y652584D01*
X196170Y652642D01*
X196224Y652697D01*
X196281Y652750D01*
X196340Y652799D01*
X196402Y652846D01*
X196466Y652890D01*
X196532Y652930D01*
X196600Y652967D01*
X196670Y653001D01*
X196741Y653031D01*
X196814Y653057D01*
X196888Y653080D01*
X196963Y653099D01*
X197038Y653114D01*
X197115Y653126D01*
X197192Y653134D01*
X197269Y653138D01*
X197347Y653138D01*
X197424Y653134D01*
X197501Y653126D01*
X197578Y653114D01*
X197653Y653099D01*
X197728Y653080D01*
X197802Y653057D01*
X197875Y653031D01*
X197946Y653001D01*
X198016Y652967D01*
X198084Y652930D01*
X198150Y652890D01*
X198214Y652846D01*
X198276Y652799D01*
X198335Y652750D01*
X198392Y652697D01*
X198446Y652642D01*
X198497Y652584D01*
X198545Y652523D01*
X198590Y652460D01*
X198632Y652395D01*
X198671Y652328D01*
X198706Y652259D01*
X198738Y652189D01*
X198766Y652117D01*
X198791Y652043D01*
X198812Y651969D01*
X198829Y651894D01*
X198843Y651817D01*
X198852Y651741D01*
X198858Y651663D01*
X198860Y651586D01*
X198858Y651509D01*
X198852Y651431D01*
X198843Y651355D01*
X198829Y651278D01*
X198812Y651203D01*
X198791Y651129D01*
X198766Y651055D01*
X198738Y650983D01*
X198706Y650913D01*
X198671Y650844D01*
X198632Y650777D01*
X198590Y650712D01*
X198545Y650649D01*
X198497Y650588D01*
X198446Y650530D01*
X198392Y650475D01*
X198335Y650422D01*
X198276Y650373D01*
X198214Y650326D01*
X198150Y650282D01*
X198084Y650242D01*
X198016Y650205D01*
X197946Y650171D01*
X197875Y650141D01*
X197802Y650115D01*
X197728Y650092D01*
X197653Y650073D01*
X197578Y650058D01*
X197501Y650046D01*
X197424Y650038D01*
X197347Y650034D01*
X197269Y650034D01*
X197192Y650038D01*
X197115Y650046D01*
X197038Y650058D01*
X196963Y650073D01*
X196888Y650092D01*
X196814Y650115D01*
X196741Y650141D01*
X196670Y650171D01*
X196600Y650205D01*
X196532Y650242D01*
X196466Y650282D01*
X196402Y650326D01*
X196340Y650373D01*
X196281Y650422D01*
X196224Y650475D01*
X196170Y650530D01*
X196119Y650588D01*
X196071Y650649D01*
X196026Y650712D01*
X195984Y650777D01*
X195945Y650844D01*
X195910Y650913D01*
X195878Y650983D01*
X195850Y651055D01*
X195825Y651129D01*
X195804Y651203D01*
X195787Y651278D01*
X195773Y651355D01*
X195764Y651431D01*
X195758Y651509D01*
X195756Y651586D01*
X196066Y654380D02*
X196068Y654450D01*
X196074Y654519D01*
X196084Y654588D01*
X196097Y654656D01*
X196115Y654724D01*
X196136Y654790D01*
X196161Y654855D01*
X196189Y654919D01*
X196221Y654981D01*
X196256Y655041D01*
X196295Y655099D01*
X196337Y655154D01*
X196382Y655208D01*
X196430Y655258D01*
X196480Y655306D01*
X196534Y655351D01*
X196589Y655393D01*
X196647Y655432D01*
X196707Y655467D01*
X196769Y655499D01*
X196833Y655527D01*
X196898Y655552D01*
X196964Y655573D01*
X197032Y655591D01*
X197100Y655604D01*
X197169Y655614D01*
X197238Y655620D01*
X197308Y655622D01*
X197378Y655620D01*
X197447Y655614D01*
X197516Y655604D01*
X197584Y655591D01*
X197652Y655573D01*
X197718Y655552D01*
X197783Y655527D01*
X197847Y655499D01*
X197909Y655467D01*
X197969Y655432D01*
X198027Y655393D01*
X198082Y655351D01*
X198136Y655306D01*
X198186Y655258D01*
X198234Y655208D01*
X198279Y655154D01*
X198321Y655099D01*
X198360Y655041D01*
X198395Y654981D01*
X198427Y654919D01*
X198455Y654855D01*
X198480Y654790D01*
X198501Y654724D01*
X198519Y654656D01*
X198532Y654588D01*
X198542Y654519D01*
X198548Y654450D01*
X198550Y654380D01*
X198548Y654310D01*
X198542Y654241D01*
X198532Y654172D01*
X198519Y654104D01*
X198501Y654036D01*
X198480Y653970D01*
X198455Y653905D01*
X198427Y653841D01*
X198395Y653779D01*
X198360Y653719D01*
X198321Y653661D01*
X198279Y653606D01*
X198234Y653552D01*
X198186Y653502D01*
X198136Y653454D01*
X198082Y653409D01*
X198027Y653367D01*
X197969Y653328D01*
X197909Y653293D01*
X197847Y653261D01*
X197783Y653233D01*
X197718Y653208D01*
X197652Y653187D01*
X197584Y653169D01*
X197516Y653156D01*
X197447Y653146D01*
X197378Y653140D01*
X197308Y653138D01*
X197238Y653140D01*
X197169Y653146D01*
X197100Y653156D01*
X197032Y653169D01*
X196964Y653187D01*
X196898Y653208D01*
X196833Y653233D01*
X196769Y653261D01*
X196707Y653293D01*
X196647Y653328D01*
X196589Y653367D01*
X196534Y653409D01*
X196480Y653454D01*
X196430Y653502D01*
X196382Y653552D01*
X196337Y653606D01*
X196295Y653661D01*
X196256Y653719D01*
X196221Y653779D01*
X196189Y653841D01*
X196161Y653905D01*
X196136Y653970D01*
X196115Y654036D01*
X196097Y654104D01*
X196084Y654172D01*
X196074Y654241D01*
X196068Y654310D01*
X196066Y654380D01*
X201242Y651276D02*
X202484Y655622D01*
X201242Y651276D02*
X204347Y651276D01*
X203416Y652518D02*
X203416Y650034D01*
X206729Y652828D02*
X206731Y652959D01*
X206736Y653089D01*
X206746Y653219D01*
X206759Y653349D01*
X206775Y653479D01*
X206795Y653608D01*
X206819Y653736D01*
X206847Y653863D01*
X206878Y653990D01*
X206913Y654116D01*
X206951Y654241D01*
X206993Y654365D01*
X207038Y654487D01*
X207087Y654608D01*
X207139Y654728D01*
X207195Y654846D01*
X207194Y654847D02*
X207217Y654907D01*
X207243Y654967D01*
X207272Y655024D01*
X207305Y655080D01*
X207341Y655134D01*
X207379Y655186D01*
X207421Y655236D01*
X207465Y655283D01*
X207512Y655328D01*
X207562Y655370D01*
X207613Y655409D01*
X207667Y655445D01*
X207723Y655478D01*
X207780Y655508D01*
X207839Y655535D01*
X207900Y655558D01*
X207961Y655578D01*
X208024Y655594D01*
X208088Y655607D01*
X208152Y655616D01*
X208216Y655621D01*
X208281Y655623D01*
X208346Y655621D01*
X208410Y655616D01*
X208474Y655607D01*
X208538Y655594D01*
X208601Y655578D01*
X208662Y655558D01*
X208723Y655535D01*
X208782Y655508D01*
X208839Y655478D01*
X208895Y655445D01*
X208949Y655409D01*
X209000Y655370D01*
X209050Y655328D01*
X209097Y655283D01*
X209141Y655236D01*
X209183Y655186D01*
X209221Y655134D01*
X209257Y655080D01*
X209290Y655024D01*
X209319Y654967D01*
X209345Y654907D01*
X209368Y654847D01*
X209368Y654846D02*
X209424Y654728D01*
X209476Y654608D01*
X209525Y654487D01*
X209570Y654365D01*
X209612Y654241D01*
X209650Y654116D01*
X209685Y653990D01*
X209716Y653864D01*
X209744Y653736D01*
X209768Y653608D01*
X209788Y653479D01*
X209804Y653349D01*
X209817Y653219D01*
X209827Y653089D01*
X209832Y652959D01*
X209834Y652828D01*
X206729Y652828D02*
X206731Y652697D01*
X206736Y652567D01*
X206746Y652437D01*
X206759Y652307D01*
X206775Y652177D01*
X206795Y652048D01*
X206819Y651920D01*
X206847Y651793D01*
X206878Y651666D01*
X206913Y651540D01*
X206951Y651415D01*
X206993Y651291D01*
X207038Y651169D01*
X207087Y651048D01*
X207139Y650928D01*
X207195Y650810D01*
X207194Y650810D02*
X207217Y650750D01*
X207243Y650690D01*
X207272Y650633D01*
X207305Y650577D01*
X207341Y650523D01*
X207379Y650471D01*
X207421Y650421D01*
X207465Y650374D01*
X207512Y650329D01*
X207562Y650287D01*
X207613Y650248D01*
X207667Y650212D01*
X207723Y650179D01*
X207780Y650149D01*
X207839Y650122D01*
X207900Y650099D01*
X207961Y650079D01*
X208024Y650063D01*
X208088Y650050D01*
X208152Y650041D01*
X208216Y650036D01*
X208281Y650034D01*
X209367Y650810D02*
X209423Y650928D01*
X209475Y651048D01*
X209524Y651169D01*
X209569Y651291D01*
X209611Y651415D01*
X209649Y651540D01*
X209684Y651666D01*
X209715Y651792D01*
X209743Y651920D01*
X209767Y652048D01*
X209787Y652177D01*
X209803Y652307D01*
X209816Y652437D01*
X209826Y652567D01*
X209831Y652697D01*
X209833Y652828D01*
X209368Y650810D02*
X209345Y650750D01*
X209319Y650690D01*
X209290Y650633D01*
X209257Y650577D01*
X209221Y650523D01*
X209183Y650471D01*
X209141Y650421D01*
X209097Y650374D01*
X209050Y650329D01*
X209000Y650287D01*
X208949Y650248D01*
X208895Y650212D01*
X208839Y650179D01*
X208782Y650149D01*
X208723Y650122D01*
X208662Y650099D01*
X208601Y650079D01*
X208538Y650063D01*
X208474Y650050D01*
X208410Y650041D01*
X208346Y650036D01*
X208281Y650034D01*
X207039Y651276D02*
X209523Y654380D01*
X211945Y650034D02*
X212256Y650034D01*
X211945Y650034D02*
X211945Y650345D01*
X212256Y650345D01*
X212256Y650034D01*
X211790Y648793D01*
X217602Y653139D02*
X219154Y653139D01*
X219154Y653138D02*
X219231Y653136D01*
X219309Y653130D01*
X219385Y653121D01*
X219462Y653107D01*
X219537Y653090D01*
X219611Y653069D01*
X219685Y653044D01*
X219757Y653016D01*
X219827Y652984D01*
X219896Y652949D01*
X219963Y652910D01*
X220028Y652868D01*
X220091Y652823D01*
X220152Y652775D01*
X220210Y652724D01*
X220265Y652670D01*
X220318Y652613D01*
X220367Y652554D01*
X220414Y652492D01*
X220458Y652428D01*
X220498Y652362D01*
X220535Y652294D01*
X220569Y652224D01*
X220599Y652153D01*
X220625Y652080D01*
X220648Y652006D01*
X220667Y651931D01*
X220682Y651856D01*
X220694Y651779D01*
X220702Y651702D01*
X220706Y651625D01*
X220706Y651547D01*
X220702Y651470D01*
X220694Y651393D01*
X220682Y651316D01*
X220667Y651241D01*
X220648Y651166D01*
X220625Y651092D01*
X220599Y651019D01*
X220569Y650948D01*
X220535Y650878D01*
X220498Y650810D01*
X220458Y650744D01*
X220414Y650680D01*
X220367Y650618D01*
X220318Y650559D01*
X220265Y650502D01*
X220210Y650448D01*
X220152Y650397D01*
X220091Y650349D01*
X220028Y650304D01*
X219963Y650262D01*
X219896Y650223D01*
X219827Y650188D01*
X219757Y650156D01*
X219685Y650128D01*
X219611Y650103D01*
X219537Y650082D01*
X219462Y650065D01*
X219385Y650051D01*
X219309Y650042D01*
X219231Y650036D01*
X219154Y650034D01*
X217602Y650034D01*
X217602Y655622D01*
X219154Y655622D01*
X219224Y655620D01*
X219293Y655614D01*
X219362Y655604D01*
X219430Y655591D01*
X219498Y655573D01*
X219564Y655552D01*
X219629Y655527D01*
X219693Y655499D01*
X219755Y655467D01*
X219815Y655432D01*
X219873Y655393D01*
X219928Y655351D01*
X219982Y655306D01*
X220032Y655258D01*
X220080Y655208D01*
X220125Y655154D01*
X220167Y655099D01*
X220206Y655041D01*
X220241Y654981D01*
X220273Y654919D01*
X220301Y654855D01*
X220326Y654790D01*
X220347Y654724D01*
X220365Y654656D01*
X220378Y654588D01*
X220388Y654519D01*
X220394Y654450D01*
X220396Y654380D01*
X220394Y654310D01*
X220388Y654241D01*
X220378Y654172D01*
X220365Y654104D01*
X220347Y654036D01*
X220326Y653970D01*
X220301Y653905D01*
X220273Y653841D01*
X220241Y653779D01*
X220206Y653719D01*
X220167Y653661D01*
X220125Y653606D01*
X220080Y653552D01*
X220032Y653502D01*
X219982Y653454D01*
X219928Y653409D01*
X219873Y653367D01*
X219815Y653328D01*
X219755Y653293D01*
X219693Y653261D01*
X219629Y653233D01*
X219564Y653208D01*
X219498Y653187D01*
X219430Y653169D01*
X219362Y653156D01*
X219293Y653146D01*
X219224Y653140D01*
X219154Y653138D01*
X224009Y655622D02*
X224009Y650034D01*
X222456Y655622D02*
X225561Y655622D01*
X228819Y655622D02*
X227577Y651276D01*
X230681Y651276D01*
X229750Y652518D02*
X229750Y650034D01*
X233063Y652828D02*
X233065Y652959D01*
X233070Y653089D01*
X233080Y653219D01*
X233093Y653349D01*
X233109Y653479D01*
X233129Y653608D01*
X233153Y653736D01*
X233181Y653863D01*
X233212Y653990D01*
X233247Y654116D01*
X233285Y654241D01*
X233327Y654365D01*
X233372Y654487D01*
X233421Y654608D01*
X233473Y654728D01*
X233529Y654846D01*
X233529Y654847D02*
X233552Y654907D01*
X233578Y654967D01*
X233607Y655024D01*
X233640Y655080D01*
X233676Y655134D01*
X233714Y655186D01*
X233756Y655236D01*
X233800Y655283D01*
X233847Y655328D01*
X233897Y655370D01*
X233948Y655409D01*
X234002Y655445D01*
X234058Y655478D01*
X234115Y655508D01*
X234174Y655535D01*
X234235Y655558D01*
X234296Y655578D01*
X234359Y655594D01*
X234423Y655607D01*
X234487Y655616D01*
X234551Y655621D01*
X234616Y655623D01*
X234681Y655621D01*
X234745Y655616D01*
X234809Y655607D01*
X234873Y655594D01*
X234936Y655578D01*
X234997Y655558D01*
X235058Y655535D01*
X235117Y655508D01*
X235174Y655478D01*
X235230Y655445D01*
X235284Y655409D01*
X235335Y655370D01*
X235385Y655328D01*
X235432Y655283D01*
X235476Y655236D01*
X235518Y655186D01*
X235556Y655134D01*
X235592Y655080D01*
X235625Y655024D01*
X235654Y654967D01*
X235680Y654907D01*
X235703Y654847D01*
X235702Y654846D02*
X235758Y654728D01*
X235810Y654608D01*
X235859Y654487D01*
X235904Y654365D01*
X235946Y654241D01*
X235984Y654116D01*
X236019Y653990D01*
X236050Y653864D01*
X236078Y653736D01*
X236102Y653608D01*
X236122Y653479D01*
X236138Y653349D01*
X236151Y653219D01*
X236161Y653089D01*
X236166Y652959D01*
X236168Y652828D01*
X233063Y652828D02*
X233065Y652697D01*
X233070Y652567D01*
X233080Y652437D01*
X233093Y652307D01*
X233109Y652177D01*
X233129Y652048D01*
X233153Y651920D01*
X233181Y651793D01*
X233212Y651666D01*
X233247Y651540D01*
X233285Y651415D01*
X233327Y651291D01*
X233372Y651169D01*
X233421Y651048D01*
X233473Y650928D01*
X233529Y650810D01*
X233552Y650750D01*
X233578Y650690D01*
X233607Y650633D01*
X233640Y650577D01*
X233676Y650523D01*
X233714Y650471D01*
X233756Y650421D01*
X233800Y650374D01*
X233847Y650329D01*
X233897Y650287D01*
X233948Y650248D01*
X234002Y650212D01*
X234058Y650179D01*
X234115Y650149D01*
X234174Y650122D01*
X234235Y650099D01*
X234296Y650079D01*
X234359Y650063D01*
X234423Y650050D01*
X234487Y650041D01*
X234551Y650036D01*
X234616Y650034D01*
X235702Y650810D02*
X235758Y650928D01*
X235810Y651048D01*
X235859Y651169D01*
X235904Y651291D01*
X235946Y651415D01*
X235984Y651540D01*
X236019Y651666D01*
X236050Y651792D01*
X236078Y651920D01*
X236102Y652048D01*
X236122Y652177D01*
X236138Y652307D01*
X236151Y652437D01*
X236161Y652567D01*
X236166Y652697D01*
X236168Y652828D01*
X235703Y650810D02*
X235680Y650750D01*
X235654Y650690D01*
X235625Y650633D01*
X235592Y650577D01*
X235556Y650523D01*
X235518Y650471D01*
X235476Y650421D01*
X235432Y650374D01*
X235385Y650329D01*
X235335Y650287D01*
X235284Y650248D01*
X235230Y650212D01*
X235174Y650179D01*
X235117Y650149D01*
X235058Y650122D01*
X234997Y650099D01*
X234936Y650079D01*
X234873Y650063D01*
X234809Y650050D01*
X234745Y650041D01*
X234681Y650036D01*
X234616Y650034D01*
X233374Y651276D02*
X235857Y654380D01*
X238280Y650034D02*
X238590Y650034D01*
X238280Y650034D02*
X238280Y650345D01*
X238590Y650345D01*
X238590Y650034D01*
X238124Y648793D01*
X185781Y643374D02*
X185781Y642132D01*
X185780Y643374D02*
X185782Y643444D01*
X185788Y643513D01*
X185798Y643582D01*
X185811Y643650D01*
X185829Y643718D01*
X185850Y643784D01*
X185875Y643849D01*
X185903Y643913D01*
X185935Y643975D01*
X185970Y644035D01*
X186009Y644093D01*
X186051Y644148D01*
X186096Y644202D01*
X186144Y644252D01*
X186194Y644300D01*
X186248Y644345D01*
X186303Y644387D01*
X186361Y644426D01*
X186421Y644461D01*
X186483Y644493D01*
X186547Y644521D01*
X186612Y644546D01*
X186678Y644567D01*
X186746Y644585D01*
X186814Y644598D01*
X186883Y644608D01*
X186952Y644614D01*
X187022Y644616D01*
X187092Y644614D01*
X187161Y644608D01*
X187230Y644598D01*
X187298Y644585D01*
X187366Y644567D01*
X187432Y644546D01*
X187497Y644521D01*
X187561Y644493D01*
X187623Y644461D01*
X187683Y644426D01*
X187741Y644387D01*
X187796Y644345D01*
X187850Y644300D01*
X187900Y644252D01*
X187948Y644202D01*
X187993Y644148D01*
X188035Y644093D01*
X188074Y644035D01*
X188109Y643975D01*
X188141Y643913D01*
X188169Y643849D01*
X188194Y643784D01*
X188215Y643718D01*
X188233Y643650D01*
X188246Y643582D01*
X188256Y643513D01*
X188262Y643444D01*
X188264Y643374D01*
X188264Y642132D01*
X188262Y642062D01*
X188256Y641993D01*
X188246Y641924D01*
X188233Y641856D01*
X188215Y641788D01*
X188194Y641722D01*
X188169Y641657D01*
X188141Y641593D01*
X188109Y641531D01*
X188074Y641471D01*
X188035Y641413D01*
X187993Y641358D01*
X187948Y641304D01*
X187900Y641254D01*
X187850Y641206D01*
X187796Y641161D01*
X187741Y641119D01*
X187683Y641080D01*
X187623Y641045D01*
X187561Y641013D01*
X187497Y640985D01*
X187432Y640960D01*
X187366Y640939D01*
X187298Y640921D01*
X187230Y640908D01*
X187161Y640898D01*
X187092Y640892D01*
X187022Y640890D01*
X186952Y640892D01*
X186883Y640898D01*
X186814Y640908D01*
X186746Y640921D01*
X186678Y640939D01*
X186612Y640960D01*
X186547Y640985D01*
X186483Y641013D01*
X186421Y641045D01*
X186361Y641080D01*
X186303Y641119D01*
X186248Y641161D01*
X186194Y641206D01*
X186144Y641254D01*
X186096Y641304D01*
X186051Y641358D01*
X186009Y641413D01*
X185970Y641471D01*
X185935Y641531D01*
X185903Y641593D01*
X185875Y641657D01*
X185850Y641722D01*
X185829Y641788D01*
X185811Y641856D01*
X185798Y641924D01*
X185788Y641993D01*
X185782Y642062D01*
X185780Y642132D01*
X190751Y640890D02*
X190751Y644616D01*
X192614Y644616D01*
X192614Y643995D01*
X197357Y644926D02*
X197357Y642442D01*
X197358Y644926D02*
X197360Y645003D01*
X197366Y645081D01*
X197375Y645157D01*
X197389Y645234D01*
X197406Y645309D01*
X197427Y645383D01*
X197452Y645457D01*
X197480Y645529D01*
X197512Y645599D01*
X197547Y645668D01*
X197586Y645735D01*
X197628Y645800D01*
X197673Y645863D01*
X197721Y645924D01*
X197772Y645982D01*
X197826Y646037D01*
X197883Y646090D01*
X197942Y646139D01*
X198004Y646186D01*
X198068Y646230D01*
X198134Y646270D01*
X198202Y646307D01*
X198272Y646341D01*
X198343Y646371D01*
X198416Y646397D01*
X198490Y646420D01*
X198565Y646439D01*
X198640Y646454D01*
X198717Y646466D01*
X198794Y646474D01*
X198871Y646478D01*
X198949Y646478D01*
X199026Y646474D01*
X199103Y646466D01*
X199180Y646454D01*
X199255Y646439D01*
X199330Y646420D01*
X199404Y646397D01*
X199477Y646371D01*
X199548Y646341D01*
X199618Y646307D01*
X199686Y646270D01*
X199752Y646230D01*
X199816Y646186D01*
X199878Y646139D01*
X199937Y646090D01*
X199994Y646037D01*
X200048Y645982D01*
X200099Y645924D01*
X200147Y645863D01*
X200192Y645800D01*
X200234Y645735D01*
X200273Y645668D01*
X200308Y645599D01*
X200340Y645529D01*
X200368Y645457D01*
X200393Y645383D01*
X200414Y645309D01*
X200431Y645234D01*
X200445Y645157D01*
X200454Y645081D01*
X200460Y645003D01*
X200462Y644926D01*
X200462Y642442D01*
X200460Y642365D01*
X200454Y642287D01*
X200445Y642211D01*
X200431Y642134D01*
X200414Y642059D01*
X200393Y641985D01*
X200368Y641911D01*
X200340Y641839D01*
X200308Y641769D01*
X200273Y641700D01*
X200234Y641633D01*
X200192Y641568D01*
X200147Y641505D01*
X200099Y641444D01*
X200048Y641386D01*
X199994Y641331D01*
X199937Y641278D01*
X199878Y641229D01*
X199816Y641182D01*
X199752Y641138D01*
X199686Y641098D01*
X199618Y641061D01*
X199548Y641027D01*
X199477Y640997D01*
X199404Y640971D01*
X199330Y640948D01*
X199255Y640929D01*
X199180Y640914D01*
X199103Y640902D01*
X199026Y640894D01*
X198949Y640890D01*
X198871Y640890D01*
X198794Y640894D01*
X198717Y640902D01*
X198640Y640914D01*
X198565Y640929D01*
X198490Y640948D01*
X198416Y640971D01*
X198343Y640997D01*
X198272Y641027D01*
X198202Y641061D01*
X198134Y641098D01*
X198068Y641138D01*
X198004Y641182D01*
X197942Y641229D01*
X197883Y641278D01*
X197826Y641331D01*
X197772Y641386D01*
X197721Y641444D01*
X197673Y641505D01*
X197628Y641568D01*
X197586Y641633D01*
X197547Y641700D01*
X197512Y641769D01*
X197480Y641839D01*
X197452Y641911D01*
X197427Y641985D01*
X197406Y642059D01*
X197389Y642134D01*
X197375Y642211D01*
X197366Y642287D01*
X197360Y642365D01*
X197358Y642442D01*
X202322Y644616D02*
X204185Y644616D01*
X202943Y646478D02*
X202943Y641822D01*
X202945Y641764D01*
X202950Y641705D01*
X202959Y641648D01*
X202972Y641590D01*
X202989Y641534D01*
X203008Y641479D01*
X203032Y641426D01*
X203058Y641373D01*
X203088Y641323D01*
X203121Y641275D01*
X203157Y641229D01*
X203195Y641185D01*
X203237Y641143D01*
X203281Y641105D01*
X203327Y641069D01*
X203375Y641036D01*
X203426Y641006D01*
X203478Y640980D01*
X203531Y640956D01*
X203586Y640937D01*
X203642Y640920D01*
X203700Y640907D01*
X203757Y640898D01*
X203816Y640893D01*
X203874Y640891D01*
X203874Y640890D02*
X204185Y640890D01*
X206446Y640890D02*
X206446Y646478D01*
X206446Y644616D02*
X207998Y644616D01*
X207998Y644615D02*
X208056Y644613D01*
X208115Y644608D01*
X208172Y644599D01*
X208230Y644586D01*
X208286Y644569D01*
X208341Y644550D01*
X208394Y644526D01*
X208447Y644500D01*
X208497Y644470D01*
X208545Y644437D01*
X208591Y644401D01*
X208635Y644363D01*
X208677Y644321D01*
X208715Y644277D01*
X208751Y644231D01*
X208784Y644183D01*
X208814Y644133D01*
X208840Y644080D01*
X208864Y644027D01*
X208883Y643972D01*
X208900Y643916D01*
X208913Y643858D01*
X208922Y643801D01*
X208927Y643742D01*
X208929Y643684D01*
X208929Y640890D01*
X212315Y640890D02*
X213867Y640890D01*
X212315Y640891D02*
X212257Y640893D01*
X212198Y640898D01*
X212141Y640907D01*
X212083Y640920D01*
X212027Y640937D01*
X211972Y640956D01*
X211919Y640980D01*
X211866Y641006D01*
X211816Y641036D01*
X211768Y641069D01*
X211722Y641105D01*
X211678Y641143D01*
X211636Y641185D01*
X211598Y641229D01*
X211562Y641275D01*
X211529Y641323D01*
X211499Y641373D01*
X211473Y641426D01*
X211449Y641479D01*
X211430Y641534D01*
X211413Y641590D01*
X211400Y641648D01*
X211391Y641705D01*
X211386Y641764D01*
X211384Y641822D01*
X211384Y643374D01*
X211383Y643374D02*
X211385Y643444D01*
X211391Y643513D01*
X211401Y643582D01*
X211414Y643650D01*
X211432Y643718D01*
X211453Y643784D01*
X211478Y643849D01*
X211506Y643913D01*
X211538Y643975D01*
X211573Y644035D01*
X211612Y644093D01*
X211654Y644148D01*
X211699Y644202D01*
X211747Y644252D01*
X211797Y644300D01*
X211851Y644345D01*
X211906Y644387D01*
X211964Y644426D01*
X212024Y644461D01*
X212086Y644493D01*
X212150Y644521D01*
X212215Y644546D01*
X212281Y644567D01*
X212349Y644585D01*
X212417Y644598D01*
X212486Y644608D01*
X212555Y644614D01*
X212625Y644616D01*
X212695Y644614D01*
X212764Y644608D01*
X212833Y644598D01*
X212901Y644585D01*
X212969Y644567D01*
X213035Y644546D01*
X213100Y644521D01*
X213164Y644493D01*
X213226Y644461D01*
X213286Y644426D01*
X213344Y644387D01*
X213399Y644345D01*
X213453Y644300D01*
X213503Y644252D01*
X213551Y644202D01*
X213596Y644148D01*
X213638Y644093D01*
X213677Y644035D01*
X213712Y643975D01*
X213744Y643913D01*
X213772Y643849D01*
X213797Y643784D01*
X213818Y643718D01*
X213836Y643650D01*
X213849Y643582D01*
X213859Y643513D01*
X213865Y643444D01*
X213867Y643374D01*
X213867Y642753D01*
X211384Y642753D01*
X216354Y640890D02*
X216354Y644616D01*
X218217Y644616D01*
X218217Y643995D01*
X223226Y643995D02*
X224778Y643995D01*
X224778Y643994D02*
X224855Y643992D01*
X224933Y643986D01*
X225009Y643977D01*
X225086Y643963D01*
X225161Y643946D01*
X225235Y643925D01*
X225309Y643900D01*
X225381Y643872D01*
X225451Y643840D01*
X225520Y643805D01*
X225587Y643766D01*
X225652Y643724D01*
X225715Y643679D01*
X225776Y643631D01*
X225834Y643580D01*
X225889Y643526D01*
X225942Y643469D01*
X225991Y643410D01*
X226038Y643348D01*
X226082Y643284D01*
X226122Y643218D01*
X226159Y643150D01*
X226193Y643080D01*
X226223Y643009D01*
X226249Y642936D01*
X226272Y642862D01*
X226291Y642787D01*
X226306Y642712D01*
X226318Y642635D01*
X226326Y642558D01*
X226330Y642481D01*
X226330Y642403D01*
X226326Y642326D01*
X226318Y642249D01*
X226306Y642172D01*
X226291Y642097D01*
X226272Y642022D01*
X226249Y641948D01*
X226223Y641875D01*
X226193Y641804D01*
X226159Y641734D01*
X226122Y641666D01*
X226082Y641600D01*
X226038Y641536D01*
X225991Y641474D01*
X225942Y641415D01*
X225889Y641358D01*
X225834Y641304D01*
X225776Y641253D01*
X225715Y641205D01*
X225652Y641160D01*
X225587Y641118D01*
X225520Y641079D01*
X225451Y641044D01*
X225381Y641012D01*
X225309Y640984D01*
X225235Y640959D01*
X225161Y640938D01*
X225086Y640921D01*
X225009Y640907D01*
X224933Y640898D01*
X224855Y640892D01*
X224778Y640890D01*
X223226Y640890D01*
X223226Y646478D01*
X224778Y646478D01*
X224848Y646476D01*
X224917Y646470D01*
X224986Y646460D01*
X225054Y646447D01*
X225122Y646429D01*
X225188Y646408D01*
X225253Y646383D01*
X225317Y646355D01*
X225379Y646323D01*
X225439Y646288D01*
X225497Y646249D01*
X225552Y646207D01*
X225606Y646162D01*
X225656Y646114D01*
X225704Y646064D01*
X225749Y646010D01*
X225791Y645955D01*
X225830Y645897D01*
X225865Y645837D01*
X225897Y645775D01*
X225925Y645711D01*
X225950Y645646D01*
X225971Y645580D01*
X225989Y645512D01*
X226002Y645444D01*
X226012Y645375D01*
X226018Y645306D01*
X226020Y645236D01*
X226018Y645166D01*
X226012Y645097D01*
X226002Y645028D01*
X225989Y644960D01*
X225971Y644892D01*
X225950Y644826D01*
X225925Y644761D01*
X225897Y644697D01*
X225865Y644635D01*
X225830Y644575D01*
X225791Y644517D01*
X225749Y644462D01*
X225704Y644408D01*
X225656Y644358D01*
X225606Y644310D01*
X225552Y644265D01*
X225497Y644223D01*
X225439Y644184D01*
X225379Y644149D01*
X225317Y644117D01*
X225253Y644089D01*
X225188Y644064D01*
X225122Y644043D01*
X225054Y644025D01*
X224986Y644012D01*
X224917Y644002D01*
X224848Y643996D01*
X224778Y643994D01*
X229633Y646478D02*
X229633Y640890D01*
X228081Y646478D02*
X231185Y646478D01*
X233257Y643063D02*
X236982Y643063D01*
X241099Y640890D02*
X241169Y640892D01*
X241238Y640898D01*
X241307Y640908D01*
X241375Y640921D01*
X241443Y640939D01*
X241509Y640960D01*
X241574Y640985D01*
X241638Y641013D01*
X241700Y641045D01*
X241760Y641080D01*
X241818Y641119D01*
X241873Y641161D01*
X241927Y641206D01*
X241977Y641254D01*
X242025Y641304D01*
X242070Y641358D01*
X242112Y641413D01*
X242151Y641471D01*
X242186Y641531D01*
X242218Y641593D01*
X242246Y641657D01*
X242271Y641722D01*
X242292Y641788D01*
X242310Y641856D01*
X242323Y641924D01*
X242333Y641993D01*
X242339Y642062D01*
X242341Y642132D01*
X241099Y640891D02*
X241000Y640893D01*
X240902Y640898D01*
X240804Y640908D01*
X240706Y640921D01*
X240609Y640937D01*
X240512Y640957D01*
X240417Y640981D01*
X240322Y641009D01*
X240228Y641040D01*
X240136Y641074D01*
X240045Y641112D01*
X239955Y641153D01*
X239867Y641198D01*
X239781Y641246D01*
X239697Y641297D01*
X239615Y641351D01*
X239534Y641409D01*
X239456Y641469D01*
X239381Y641532D01*
X239307Y641598D01*
X239237Y641667D01*
X239391Y645236D02*
X239393Y645306D01*
X239399Y645375D01*
X239409Y645444D01*
X239422Y645512D01*
X239440Y645580D01*
X239461Y645646D01*
X239486Y645711D01*
X239514Y645775D01*
X239546Y645837D01*
X239581Y645897D01*
X239620Y645955D01*
X239662Y646010D01*
X239707Y646064D01*
X239755Y646114D01*
X239805Y646162D01*
X239859Y646207D01*
X239914Y646249D01*
X239972Y646288D01*
X240032Y646323D01*
X240094Y646355D01*
X240158Y646383D01*
X240223Y646408D01*
X240289Y646429D01*
X240357Y646447D01*
X240425Y646460D01*
X240494Y646470D01*
X240563Y646476D01*
X240633Y646478D01*
X240727Y646476D01*
X240820Y646470D01*
X240913Y646461D01*
X241006Y646448D01*
X241098Y646431D01*
X241189Y646411D01*
X241280Y646386D01*
X241369Y646359D01*
X241457Y646327D01*
X241544Y646292D01*
X241630Y646254D01*
X241713Y646212D01*
X241795Y646167D01*
X241876Y646119D01*
X241954Y646067D01*
X242030Y646012D01*
X240013Y644150D02*
X239954Y644186D01*
X239898Y644226D01*
X239844Y644269D01*
X239792Y644314D01*
X239743Y644363D01*
X239697Y644414D01*
X239654Y644467D01*
X239613Y644523D01*
X239576Y644581D01*
X239541Y644641D01*
X239511Y644702D01*
X239483Y644765D01*
X239459Y644830D01*
X239439Y644896D01*
X239422Y644963D01*
X239409Y645030D01*
X239400Y645098D01*
X239394Y645167D01*
X239392Y645236D01*
X241720Y643218D02*
X241779Y643182D01*
X241835Y643142D01*
X241889Y643099D01*
X241941Y643054D01*
X241990Y643005D01*
X242036Y642954D01*
X242079Y642901D01*
X242120Y642845D01*
X242157Y642787D01*
X242192Y642727D01*
X242222Y642666D01*
X242250Y642603D01*
X242274Y642538D01*
X242294Y642472D01*
X242311Y642405D01*
X242324Y642338D01*
X242333Y642270D01*
X242339Y642201D01*
X242341Y642132D01*
X241720Y643219D02*
X240013Y644150D01*
X245416Y640890D02*
X246968Y640890D01*
X245416Y640891D02*
X245358Y640893D01*
X245299Y640898D01*
X245242Y640907D01*
X245184Y640920D01*
X245128Y640937D01*
X245073Y640956D01*
X245020Y640980D01*
X244967Y641006D01*
X244917Y641036D01*
X244869Y641069D01*
X244823Y641105D01*
X244779Y641143D01*
X244737Y641185D01*
X244699Y641229D01*
X244663Y641275D01*
X244630Y641323D01*
X244600Y641373D01*
X244574Y641426D01*
X244550Y641479D01*
X244531Y641534D01*
X244514Y641590D01*
X244501Y641648D01*
X244492Y641705D01*
X244487Y641764D01*
X244485Y641822D01*
X244485Y643374D01*
X244484Y643374D02*
X244486Y643444D01*
X244492Y643513D01*
X244502Y643582D01*
X244515Y643650D01*
X244533Y643718D01*
X244554Y643784D01*
X244579Y643849D01*
X244607Y643913D01*
X244639Y643975D01*
X244674Y644035D01*
X244713Y644093D01*
X244755Y644148D01*
X244800Y644202D01*
X244848Y644252D01*
X244898Y644300D01*
X244952Y644345D01*
X245007Y644387D01*
X245065Y644426D01*
X245125Y644461D01*
X245187Y644493D01*
X245251Y644521D01*
X245316Y644546D01*
X245382Y644567D01*
X245450Y644585D01*
X245518Y644598D01*
X245587Y644608D01*
X245656Y644614D01*
X245726Y644616D01*
X245796Y644614D01*
X245865Y644608D01*
X245934Y644598D01*
X246002Y644585D01*
X246070Y644567D01*
X246136Y644546D01*
X246201Y644521D01*
X246265Y644493D01*
X246327Y644461D01*
X246387Y644426D01*
X246445Y644387D01*
X246500Y644345D01*
X246554Y644300D01*
X246604Y644252D01*
X246652Y644202D01*
X246697Y644148D01*
X246739Y644093D01*
X246778Y644035D01*
X246813Y643975D01*
X246845Y643913D01*
X246873Y643849D01*
X246898Y643784D01*
X246919Y643718D01*
X246937Y643650D01*
X246950Y643582D01*
X246960Y643513D01*
X246966Y643444D01*
X246968Y643374D01*
X246968Y642753D01*
X244485Y642753D01*
X249455Y640890D02*
X249455Y644616D01*
X251318Y644616D01*
X251318Y643995D01*
X253042Y644616D02*
X253042Y640890D01*
X252886Y646168D02*
X252886Y646478D01*
X253197Y646478D01*
X253197Y646168D01*
X252886Y646168D01*
X256206Y640890D02*
X257758Y640890D01*
X256206Y640891D02*
X256148Y640893D01*
X256089Y640898D01*
X256032Y640907D01*
X255974Y640920D01*
X255918Y640937D01*
X255863Y640956D01*
X255810Y640980D01*
X255757Y641006D01*
X255707Y641036D01*
X255659Y641069D01*
X255613Y641105D01*
X255569Y641143D01*
X255527Y641185D01*
X255489Y641229D01*
X255453Y641275D01*
X255420Y641323D01*
X255390Y641373D01*
X255364Y641426D01*
X255340Y641479D01*
X255321Y641534D01*
X255304Y641590D01*
X255291Y641648D01*
X255282Y641705D01*
X255277Y641764D01*
X255275Y641822D01*
X255274Y641822D02*
X255274Y643374D01*
X255276Y643444D01*
X255282Y643513D01*
X255292Y643582D01*
X255305Y643650D01*
X255323Y643718D01*
X255344Y643784D01*
X255369Y643849D01*
X255397Y643913D01*
X255429Y643975D01*
X255464Y644035D01*
X255503Y644093D01*
X255545Y644148D01*
X255590Y644202D01*
X255638Y644252D01*
X255688Y644300D01*
X255742Y644345D01*
X255797Y644387D01*
X255855Y644426D01*
X255915Y644461D01*
X255977Y644493D01*
X256041Y644521D01*
X256106Y644546D01*
X256172Y644567D01*
X256240Y644585D01*
X256308Y644598D01*
X256377Y644608D01*
X256446Y644614D01*
X256516Y644616D01*
X256586Y644614D01*
X256655Y644608D01*
X256724Y644598D01*
X256792Y644585D01*
X256860Y644567D01*
X256926Y644546D01*
X256991Y644521D01*
X257055Y644493D01*
X257117Y644461D01*
X257177Y644426D01*
X257235Y644387D01*
X257290Y644345D01*
X257344Y644300D01*
X257394Y644252D01*
X257442Y644202D01*
X257487Y644148D01*
X257529Y644093D01*
X257568Y644035D01*
X257603Y643975D01*
X257635Y643913D01*
X257663Y643849D01*
X257688Y643784D01*
X257709Y643718D01*
X257727Y643650D01*
X257740Y643582D01*
X257750Y643513D01*
X257756Y643444D01*
X257758Y643374D01*
X257758Y642753D01*
X255274Y642753D01*
X260495Y643063D02*
X262047Y642442D01*
X260495Y643064D02*
X260444Y643086D01*
X260395Y643112D01*
X260347Y643141D01*
X260302Y643174D01*
X260259Y643210D01*
X260218Y643248D01*
X260181Y643290D01*
X260146Y643333D01*
X260114Y643379D01*
X260086Y643428D01*
X260061Y643478D01*
X260040Y643529D01*
X260022Y643582D01*
X260008Y643636D01*
X259998Y643691D01*
X259992Y643747D01*
X259989Y643802D01*
X259990Y643858D01*
X259996Y643914D01*
X260005Y643969D01*
X260017Y644023D01*
X260034Y644077D01*
X260054Y644129D01*
X260078Y644179D01*
X260105Y644228D01*
X260136Y644275D01*
X260170Y644319D01*
X260206Y644361D01*
X260246Y644401D01*
X260288Y644437D01*
X260333Y644471D01*
X260380Y644501D01*
X260428Y644528D01*
X260479Y644552D01*
X260531Y644572D01*
X260585Y644588D01*
X260639Y644601D01*
X260694Y644610D01*
X260750Y644615D01*
X260806Y644616D01*
X260805Y644616D02*
X260916Y644612D01*
X261027Y644606D01*
X261137Y644595D01*
X261247Y644581D01*
X261357Y644564D01*
X261466Y644544D01*
X261574Y644520D01*
X261681Y644492D01*
X261788Y644461D01*
X261893Y644427D01*
X261998Y644390D01*
X262101Y644349D01*
X262203Y644305D01*
X262047Y642442D02*
X262098Y642420D01*
X262147Y642394D01*
X262195Y642365D01*
X262240Y642332D01*
X262283Y642296D01*
X262324Y642258D01*
X262361Y642216D01*
X262396Y642173D01*
X262428Y642127D01*
X262456Y642078D01*
X262481Y642028D01*
X262502Y641977D01*
X262520Y641924D01*
X262534Y641870D01*
X262544Y641815D01*
X262550Y641759D01*
X262553Y641704D01*
X262552Y641648D01*
X262546Y641592D01*
X262537Y641537D01*
X262525Y641483D01*
X262508Y641429D01*
X262488Y641377D01*
X262464Y641327D01*
X262437Y641278D01*
X262406Y641231D01*
X262372Y641187D01*
X262336Y641145D01*
X262296Y641105D01*
X262254Y641069D01*
X262209Y641035D01*
X262162Y641005D01*
X262114Y640978D01*
X262063Y640954D01*
X262011Y640934D01*
X261957Y640918D01*
X261903Y640905D01*
X261848Y640896D01*
X261792Y640891D01*
X261736Y640890D01*
X261737Y640891D02*
X261603Y640894D01*
X261469Y640901D01*
X261335Y640912D01*
X261202Y640925D01*
X261069Y640943D01*
X260936Y640963D01*
X260804Y640987D01*
X260673Y641015D01*
X260542Y641045D01*
X260413Y641079D01*
X260284Y641117D01*
X260156Y641157D01*
X260029Y641201D01*
X267959Y640890D02*
X267959Y646478D01*
X270443Y646478D01*
X270443Y643995D02*
X267959Y643995D01*
X272465Y643374D02*
X272465Y642132D01*
X272465Y643374D02*
X272467Y643444D01*
X272473Y643513D01*
X272483Y643582D01*
X272496Y643650D01*
X272514Y643718D01*
X272535Y643784D01*
X272560Y643849D01*
X272588Y643913D01*
X272620Y643975D01*
X272655Y644035D01*
X272694Y644093D01*
X272736Y644148D01*
X272781Y644202D01*
X272829Y644252D01*
X272879Y644300D01*
X272933Y644345D01*
X272988Y644387D01*
X273046Y644426D01*
X273106Y644461D01*
X273168Y644493D01*
X273232Y644521D01*
X273297Y644546D01*
X273363Y644567D01*
X273431Y644585D01*
X273499Y644598D01*
X273568Y644608D01*
X273637Y644614D01*
X273707Y644616D01*
X273777Y644614D01*
X273846Y644608D01*
X273915Y644598D01*
X273983Y644585D01*
X274051Y644567D01*
X274117Y644546D01*
X274182Y644521D01*
X274246Y644493D01*
X274308Y644461D01*
X274368Y644426D01*
X274426Y644387D01*
X274481Y644345D01*
X274535Y644300D01*
X274585Y644252D01*
X274633Y644202D01*
X274678Y644148D01*
X274720Y644093D01*
X274759Y644035D01*
X274794Y643975D01*
X274826Y643913D01*
X274854Y643849D01*
X274879Y643784D01*
X274900Y643718D01*
X274918Y643650D01*
X274931Y643582D01*
X274941Y643513D01*
X274947Y643444D01*
X274949Y643374D01*
X274949Y642132D01*
X274947Y642062D01*
X274941Y641993D01*
X274931Y641924D01*
X274918Y641856D01*
X274900Y641788D01*
X274879Y641722D01*
X274854Y641657D01*
X274826Y641593D01*
X274794Y641531D01*
X274759Y641471D01*
X274720Y641413D01*
X274678Y641358D01*
X274633Y641304D01*
X274585Y641254D01*
X274535Y641206D01*
X274481Y641161D01*
X274426Y641119D01*
X274368Y641080D01*
X274308Y641045D01*
X274246Y641013D01*
X274182Y640985D01*
X274117Y640960D01*
X274051Y640939D01*
X273983Y640921D01*
X273915Y640908D01*
X273846Y640898D01*
X273777Y640892D01*
X273707Y640890D01*
X273637Y640892D01*
X273568Y640898D01*
X273499Y640908D01*
X273431Y640921D01*
X273363Y640939D01*
X273297Y640960D01*
X273232Y640985D01*
X273168Y641013D01*
X273106Y641045D01*
X273046Y641080D01*
X272988Y641119D01*
X272933Y641161D01*
X272879Y641206D01*
X272829Y641254D01*
X272781Y641304D01*
X272736Y641358D01*
X272694Y641413D01*
X272655Y641471D01*
X272620Y641531D01*
X272588Y641593D01*
X272560Y641657D01*
X272535Y641722D01*
X272514Y641788D01*
X272496Y641856D01*
X272483Y641924D01*
X272473Y641993D01*
X272467Y642062D01*
X272465Y642132D01*
X277220Y642132D02*
X277220Y643374D01*
X277222Y643444D01*
X277228Y643513D01*
X277238Y643582D01*
X277251Y643650D01*
X277269Y643718D01*
X277290Y643784D01*
X277315Y643849D01*
X277343Y643913D01*
X277375Y643975D01*
X277410Y644035D01*
X277449Y644093D01*
X277491Y644148D01*
X277536Y644202D01*
X277584Y644252D01*
X277634Y644300D01*
X277688Y644345D01*
X277743Y644387D01*
X277801Y644426D01*
X277861Y644461D01*
X277923Y644493D01*
X277987Y644521D01*
X278052Y644546D01*
X278118Y644567D01*
X278186Y644585D01*
X278254Y644598D01*
X278323Y644608D01*
X278392Y644614D01*
X278462Y644616D01*
X278532Y644614D01*
X278601Y644608D01*
X278670Y644598D01*
X278738Y644585D01*
X278806Y644567D01*
X278872Y644546D01*
X278937Y644521D01*
X279001Y644493D01*
X279063Y644461D01*
X279123Y644426D01*
X279181Y644387D01*
X279236Y644345D01*
X279290Y644300D01*
X279340Y644252D01*
X279388Y644202D01*
X279433Y644148D01*
X279475Y644093D01*
X279514Y644035D01*
X279549Y643975D01*
X279581Y643913D01*
X279609Y643849D01*
X279634Y643784D01*
X279655Y643718D01*
X279673Y643650D01*
X279686Y643582D01*
X279696Y643513D01*
X279702Y643444D01*
X279704Y643374D01*
X279703Y643374D02*
X279703Y642132D01*
X279704Y642132D02*
X279702Y642062D01*
X279696Y641993D01*
X279686Y641924D01*
X279673Y641856D01*
X279655Y641788D01*
X279634Y641722D01*
X279609Y641657D01*
X279581Y641593D01*
X279549Y641531D01*
X279514Y641471D01*
X279475Y641413D01*
X279433Y641358D01*
X279388Y641304D01*
X279340Y641254D01*
X279290Y641206D01*
X279236Y641161D01*
X279181Y641119D01*
X279123Y641080D01*
X279063Y641045D01*
X279001Y641013D01*
X278937Y640985D01*
X278872Y640960D01*
X278806Y640939D01*
X278738Y640921D01*
X278670Y640908D01*
X278601Y640898D01*
X278532Y640892D01*
X278462Y640890D01*
X278392Y640892D01*
X278323Y640898D01*
X278254Y640908D01*
X278186Y640921D01*
X278118Y640939D01*
X278052Y640960D01*
X277987Y640985D01*
X277923Y641013D01*
X277861Y641045D01*
X277801Y641080D01*
X277743Y641119D01*
X277688Y641161D01*
X277634Y641206D01*
X277584Y641254D01*
X277536Y641304D01*
X277491Y641358D01*
X277449Y641413D01*
X277410Y641471D01*
X277375Y641531D01*
X277343Y641593D01*
X277315Y641657D01*
X277290Y641722D01*
X277269Y641788D01*
X277251Y641856D01*
X277238Y641924D01*
X277228Y641993D01*
X277222Y642062D01*
X277220Y642132D01*
X281508Y644616D02*
X283371Y644616D01*
X282129Y646478D02*
X282129Y641822D01*
X282130Y641822D02*
X282132Y641764D01*
X282137Y641705D01*
X282146Y641648D01*
X282159Y641590D01*
X282176Y641534D01*
X282195Y641479D01*
X282219Y641426D01*
X282245Y641373D01*
X282275Y641323D01*
X282308Y641275D01*
X282344Y641229D01*
X282382Y641185D01*
X282424Y641143D01*
X282468Y641105D01*
X282514Y641069D01*
X282562Y641036D01*
X282613Y641006D01*
X282665Y640980D01*
X282718Y640956D01*
X282773Y640937D01*
X282829Y640920D01*
X282887Y640907D01*
X282944Y640898D01*
X283003Y640893D01*
X283061Y640891D01*
X283061Y640890D02*
X283371Y640890D01*
X285661Y639028D02*
X285661Y644616D01*
X287213Y644616D01*
X287213Y644615D02*
X287271Y644613D01*
X287330Y644608D01*
X287387Y644599D01*
X287445Y644586D01*
X287501Y644569D01*
X287556Y644550D01*
X287609Y644526D01*
X287662Y644500D01*
X287712Y644470D01*
X287760Y644437D01*
X287806Y644401D01*
X287850Y644363D01*
X287892Y644321D01*
X287930Y644277D01*
X287966Y644231D01*
X287999Y644183D01*
X288029Y644133D01*
X288055Y644080D01*
X288079Y644027D01*
X288098Y643972D01*
X288115Y643916D01*
X288128Y643858D01*
X288137Y643801D01*
X288142Y643742D01*
X288144Y643684D01*
X288145Y643684D02*
X288145Y641822D01*
X288144Y641822D02*
X288142Y641764D01*
X288137Y641705D01*
X288128Y641648D01*
X288115Y641590D01*
X288098Y641534D01*
X288079Y641479D01*
X288055Y641426D01*
X288029Y641373D01*
X287999Y641323D01*
X287966Y641275D01*
X287930Y641229D01*
X287892Y641185D01*
X287850Y641143D01*
X287806Y641105D01*
X287760Y641069D01*
X287712Y641036D01*
X287662Y641006D01*
X287609Y640980D01*
X287556Y640956D01*
X287501Y640937D01*
X287445Y640920D01*
X287387Y640907D01*
X287330Y640898D01*
X287271Y640893D01*
X287213Y640891D01*
X287213Y640890D02*
X285661Y640890D01*
X290603Y640890D02*
X290603Y644616D01*
X292465Y644616D01*
X292465Y643995D01*
X294189Y644616D02*
X294189Y640890D01*
X294034Y646168D02*
X294034Y646478D01*
X294344Y646478D01*
X294344Y646168D01*
X294034Y646168D01*
X296605Y644616D02*
X296605Y640890D01*
X296605Y644616D02*
X298157Y644616D01*
X298157Y644615D02*
X298215Y644613D01*
X298274Y644608D01*
X298331Y644599D01*
X298389Y644586D01*
X298445Y644569D01*
X298500Y644550D01*
X298553Y644526D01*
X298606Y644500D01*
X298656Y644470D01*
X298704Y644437D01*
X298750Y644401D01*
X298794Y644363D01*
X298836Y644321D01*
X298874Y644277D01*
X298910Y644231D01*
X298943Y644183D01*
X298973Y644133D01*
X298999Y644080D01*
X299023Y644027D01*
X299042Y643972D01*
X299059Y643916D01*
X299072Y643858D01*
X299081Y643801D01*
X299086Y643742D01*
X299088Y643684D01*
X299088Y640890D01*
X301076Y644616D02*
X302939Y644616D01*
X301697Y646478D02*
X301697Y641822D01*
X301699Y641764D01*
X301704Y641705D01*
X301713Y641648D01*
X301726Y641590D01*
X301743Y641534D01*
X301762Y641479D01*
X301786Y641426D01*
X301812Y641373D01*
X301842Y641323D01*
X301875Y641275D01*
X301911Y641229D01*
X301949Y641185D01*
X301991Y641143D01*
X302035Y641105D01*
X302081Y641069D01*
X302129Y641036D01*
X302180Y641006D01*
X302232Y640980D01*
X302285Y640956D01*
X302340Y640937D01*
X302396Y640920D01*
X302454Y640907D01*
X302511Y640898D01*
X302570Y640893D01*
X302628Y640891D01*
X302629Y640890D02*
X302939Y640890D01*
X305483Y643063D02*
X307035Y642442D01*
X305483Y643064D02*
X305432Y643086D01*
X305383Y643112D01*
X305335Y643141D01*
X305290Y643174D01*
X305247Y643210D01*
X305206Y643248D01*
X305169Y643290D01*
X305134Y643333D01*
X305102Y643379D01*
X305074Y643428D01*
X305049Y643478D01*
X305028Y643529D01*
X305010Y643582D01*
X304996Y643636D01*
X304986Y643691D01*
X304980Y643747D01*
X304977Y643802D01*
X304978Y643858D01*
X304984Y643914D01*
X304993Y643969D01*
X305005Y644023D01*
X305022Y644077D01*
X305042Y644129D01*
X305066Y644179D01*
X305093Y644228D01*
X305124Y644275D01*
X305158Y644319D01*
X305194Y644361D01*
X305234Y644401D01*
X305276Y644437D01*
X305321Y644471D01*
X305368Y644501D01*
X305416Y644528D01*
X305467Y644552D01*
X305519Y644572D01*
X305573Y644588D01*
X305627Y644601D01*
X305682Y644610D01*
X305738Y644615D01*
X305794Y644616D01*
X305793Y644616D02*
X305904Y644612D01*
X306015Y644606D01*
X306125Y644595D01*
X306235Y644581D01*
X306345Y644564D01*
X306454Y644544D01*
X306562Y644520D01*
X306669Y644492D01*
X306776Y644461D01*
X306881Y644427D01*
X306986Y644390D01*
X307089Y644349D01*
X307191Y644305D01*
X307035Y642442D02*
X307086Y642420D01*
X307135Y642394D01*
X307183Y642365D01*
X307228Y642332D01*
X307271Y642296D01*
X307312Y642258D01*
X307349Y642216D01*
X307384Y642173D01*
X307416Y642127D01*
X307444Y642078D01*
X307469Y642028D01*
X307490Y641977D01*
X307508Y641924D01*
X307522Y641870D01*
X307532Y641815D01*
X307538Y641759D01*
X307541Y641704D01*
X307540Y641648D01*
X307534Y641592D01*
X307525Y641537D01*
X307513Y641483D01*
X307496Y641429D01*
X307476Y641377D01*
X307452Y641327D01*
X307425Y641278D01*
X307394Y641231D01*
X307360Y641187D01*
X307324Y641145D01*
X307284Y641105D01*
X307242Y641069D01*
X307197Y641035D01*
X307150Y641005D01*
X307102Y640978D01*
X307051Y640954D01*
X306999Y640934D01*
X306945Y640918D01*
X306891Y640905D01*
X306836Y640896D01*
X306780Y640891D01*
X306724Y640890D01*
X306725Y640891D02*
X306591Y640894D01*
X306457Y640901D01*
X306323Y640912D01*
X306190Y640925D01*
X306057Y640943D01*
X305924Y640963D01*
X305792Y640987D01*
X305661Y641015D01*
X305530Y641045D01*
X305401Y641079D01*
X305272Y641117D01*
X305144Y641157D01*
X305017Y641201D01*
D11*
X299153Y449837D02*
X299153Y446027D01*
X299576Y446027D02*
X298729Y446027D01*
X298729Y449837D02*
X299576Y449837D01*
X301020Y448990D02*
X302079Y449837D01*
X302079Y446027D01*
X303137Y446027D02*
X301020Y446027D01*
D10*
X145031Y422575D02*
X139443Y422575D01*
X139443Y424127D01*
X139444Y424127D02*
X139446Y424204D01*
X139452Y424282D01*
X139461Y424358D01*
X139475Y424435D01*
X139492Y424510D01*
X139513Y424584D01*
X139538Y424658D01*
X139566Y424730D01*
X139598Y424800D01*
X139633Y424869D01*
X139672Y424936D01*
X139714Y425001D01*
X139759Y425064D01*
X139807Y425125D01*
X139858Y425183D01*
X139912Y425238D01*
X139969Y425291D01*
X140028Y425340D01*
X140090Y425387D01*
X140154Y425431D01*
X140220Y425471D01*
X140288Y425508D01*
X140358Y425542D01*
X140429Y425572D01*
X140502Y425598D01*
X140576Y425621D01*
X140651Y425640D01*
X140726Y425655D01*
X140803Y425667D01*
X140880Y425675D01*
X140957Y425679D01*
X141035Y425679D01*
X141112Y425675D01*
X141189Y425667D01*
X141266Y425655D01*
X141341Y425640D01*
X141416Y425621D01*
X141490Y425598D01*
X141563Y425572D01*
X141634Y425542D01*
X141704Y425508D01*
X141772Y425471D01*
X141838Y425431D01*
X141902Y425387D01*
X141964Y425340D01*
X142023Y425291D01*
X142080Y425238D01*
X142134Y425183D01*
X142185Y425125D01*
X142233Y425064D01*
X142278Y425001D01*
X142320Y424936D01*
X142359Y424869D01*
X142394Y424800D01*
X142426Y424730D01*
X142454Y424658D01*
X142479Y424584D01*
X142500Y424510D01*
X142517Y424435D01*
X142531Y424358D01*
X142540Y424282D01*
X142546Y424204D01*
X142548Y424127D01*
X142548Y422575D01*
X140685Y427795D02*
X139443Y429347D01*
X145031Y429347D01*
X145031Y427795D02*
X145031Y430900D01*
X142237Y433282D02*
X142106Y433284D01*
X141976Y433289D01*
X141846Y433299D01*
X141716Y433312D01*
X141586Y433328D01*
X141457Y433348D01*
X141329Y433372D01*
X141202Y433400D01*
X141075Y433431D01*
X140949Y433466D01*
X140824Y433504D01*
X140700Y433546D01*
X140578Y433591D01*
X140457Y433640D01*
X140337Y433692D01*
X140219Y433748D01*
X140219Y433747D02*
X140159Y433770D01*
X140099Y433796D01*
X140042Y433825D01*
X139986Y433858D01*
X139932Y433894D01*
X139880Y433932D01*
X139830Y433974D01*
X139783Y434018D01*
X139738Y434065D01*
X139696Y434115D01*
X139657Y434166D01*
X139621Y434220D01*
X139588Y434276D01*
X139558Y434333D01*
X139531Y434392D01*
X139508Y434453D01*
X139488Y434514D01*
X139472Y434577D01*
X139459Y434641D01*
X139450Y434705D01*
X139445Y434769D01*
X139443Y434834D01*
X139445Y434899D01*
X139450Y434963D01*
X139459Y435027D01*
X139472Y435091D01*
X139488Y435154D01*
X139508Y435215D01*
X139531Y435276D01*
X139558Y435335D01*
X139588Y435392D01*
X139621Y435448D01*
X139657Y435502D01*
X139696Y435553D01*
X139738Y435603D01*
X139783Y435650D01*
X139830Y435694D01*
X139880Y435736D01*
X139932Y435774D01*
X139986Y435810D01*
X140042Y435843D01*
X140099Y435872D01*
X140159Y435898D01*
X140219Y435921D01*
X140219Y435920D02*
X140337Y435976D01*
X140457Y436028D01*
X140578Y436077D01*
X140700Y436122D01*
X140824Y436164D01*
X140949Y436202D01*
X141075Y436237D01*
X141201Y436268D01*
X141329Y436296D01*
X141457Y436320D01*
X141586Y436340D01*
X141716Y436356D01*
X141846Y436369D01*
X141976Y436379D01*
X142106Y436384D01*
X142237Y436386D01*
X142237Y433282D02*
X142368Y433284D01*
X142498Y433289D01*
X142628Y433299D01*
X142758Y433312D01*
X142888Y433328D01*
X143017Y433348D01*
X143145Y433372D01*
X143272Y433400D01*
X143399Y433431D01*
X143525Y433466D01*
X143650Y433504D01*
X143774Y433546D01*
X143896Y433591D01*
X144017Y433640D01*
X144137Y433692D01*
X144255Y433748D01*
X144256Y433747D02*
X144316Y433770D01*
X144376Y433796D01*
X144433Y433825D01*
X144489Y433858D01*
X144543Y433894D01*
X144595Y433932D01*
X144645Y433974D01*
X144692Y434018D01*
X144737Y434065D01*
X144779Y434115D01*
X144818Y434166D01*
X144854Y434220D01*
X144887Y434276D01*
X144917Y434333D01*
X144944Y434392D01*
X144967Y434453D01*
X144987Y434514D01*
X145003Y434577D01*
X145016Y434641D01*
X145025Y434705D01*
X145030Y434769D01*
X145032Y434834D01*
X144255Y435920D02*
X144137Y435976D01*
X144017Y436028D01*
X143896Y436077D01*
X143774Y436122D01*
X143650Y436164D01*
X143525Y436202D01*
X143399Y436237D01*
X143273Y436268D01*
X143145Y436296D01*
X143017Y436320D01*
X142888Y436340D01*
X142758Y436356D01*
X142628Y436369D01*
X142498Y436379D01*
X142368Y436384D01*
X142237Y436386D01*
X144256Y435921D02*
X144316Y435898D01*
X144376Y435872D01*
X144433Y435843D01*
X144489Y435810D01*
X144543Y435774D01*
X144595Y435736D01*
X144645Y435694D01*
X144692Y435650D01*
X144737Y435603D01*
X144779Y435553D01*
X144818Y435502D01*
X144854Y435448D01*
X144887Y435392D01*
X144917Y435335D01*
X144944Y435276D01*
X144967Y435215D01*
X144987Y435154D01*
X145003Y435091D01*
X145016Y435027D01*
X145025Y434963D01*
X145030Y434899D01*
X145032Y434834D01*
X143790Y433592D02*
X140685Y436076D01*
X145031Y438768D02*
X145031Y440631D01*
X145032Y440631D02*
X145030Y440701D01*
X145024Y440770D01*
X145014Y440839D01*
X145001Y440907D01*
X144983Y440975D01*
X144962Y441041D01*
X144937Y441106D01*
X144909Y441170D01*
X144877Y441232D01*
X144842Y441292D01*
X144803Y441350D01*
X144761Y441405D01*
X144716Y441459D01*
X144668Y441509D01*
X144618Y441557D01*
X144564Y441602D01*
X144509Y441644D01*
X144451Y441683D01*
X144391Y441718D01*
X144329Y441750D01*
X144265Y441778D01*
X144200Y441803D01*
X144134Y441824D01*
X144066Y441842D01*
X143998Y441855D01*
X143929Y441865D01*
X143860Y441871D01*
X143790Y441873D01*
X143790Y441872D02*
X143169Y441872D01*
X143169Y441873D02*
X143099Y441871D01*
X143030Y441865D01*
X142961Y441855D01*
X142893Y441842D01*
X142825Y441824D01*
X142759Y441803D01*
X142694Y441778D01*
X142630Y441750D01*
X142568Y441718D01*
X142508Y441683D01*
X142450Y441644D01*
X142395Y441602D01*
X142341Y441557D01*
X142291Y441509D01*
X142243Y441459D01*
X142198Y441405D01*
X142156Y441350D01*
X142117Y441292D01*
X142082Y441232D01*
X142050Y441170D01*
X142022Y441106D01*
X141997Y441041D01*
X141976Y440975D01*
X141958Y440907D01*
X141945Y440839D01*
X141935Y440770D01*
X141929Y440701D01*
X141927Y440631D01*
X141927Y438768D01*
X139443Y438768D01*
X139443Y441872D01*
D12*
X262019Y499092D02*
X262021Y499144D01*
X262027Y499196D01*
X262037Y499248D01*
X262050Y499298D01*
X262067Y499348D01*
X262088Y499396D01*
X262113Y499442D01*
X262141Y499486D01*
X262172Y499528D01*
X262206Y499568D01*
X262243Y499605D01*
X262283Y499639D01*
X262325Y499670D01*
X262369Y499698D01*
X262415Y499723D01*
X262463Y499744D01*
X262513Y499761D01*
X262563Y499774D01*
X262615Y499784D01*
X262667Y499790D01*
X262719Y499792D01*
X262771Y499790D01*
X262823Y499784D01*
X262875Y499774D01*
X262925Y499761D01*
X262975Y499744D01*
X263023Y499723D01*
X263069Y499698D01*
X263113Y499670D01*
X263155Y499639D01*
X263195Y499605D01*
X263232Y499568D01*
X263266Y499528D01*
X263297Y499486D01*
X263325Y499442D01*
X263350Y499396D01*
X263371Y499348D01*
X263388Y499298D01*
X263401Y499248D01*
X263411Y499196D01*
X263417Y499144D01*
X263419Y499092D01*
X263417Y499040D01*
X263411Y498988D01*
X263401Y498936D01*
X263388Y498886D01*
X263371Y498836D01*
X263350Y498788D01*
X263325Y498742D01*
X263297Y498698D01*
X263266Y498656D01*
X263232Y498616D01*
X263195Y498579D01*
X263155Y498545D01*
X263113Y498514D01*
X263069Y498486D01*
X263023Y498461D01*
X262975Y498440D01*
X262925Y498423D01*
X262875Y498410D01*
X262823Y498400D01*
X262771Y498394D01*
X262719Y498392D01*
X262667Y498394D01*
X262615Y498400D01*
X262563Y498410D01*
X262513Y498423D01*
X262463Y498440D01*
X262415Y498461D01*
X262369Y498486D01*
X262325Y498514D01*
X262283Y498545D01*
X262243Y498579D01*
X262206Y498616D01*
X262172Y498656D01*
X262141Y498698D01*
X262113Y498742D01*
X262088Y498788D01*
X262067Y498836D01*
X262050Y498886D01*
X262037Y498936D01*
X262027Y498988D01*
X262021Y499040D01*
X262019Y499092D01*
D13*
X275919Y504392D02*
X293519Y504392D01*
X293519Y473792D02*
X275919Y473792D01*
D11*
X282289Y490464D02*
X282289Y493187D01*
X282289Y490464D02*
X282291Y490401D01*
X282297Y490338D01*
X282306Y490275D01*
X282319Y490213D01*
X282336Y490153D01*
X282357Y490093D01*
X282381Y490034D01*
X282409Y489977D01*
X282440Y489922D01*
X282474Y489869D01*
X282512Y489818D01*
X282552Y489770D01*
X282596Y489724D01*
X282642Y489680D01*
X282690Y489640D01*
X282741Y489602D01*
X282794Y489568D01*
X282849Y489537D01*
X282906Y489509D01*
X282965Y489485D01*
X283025Y489464D01*
X283085Y489447D01*
X283147Y489434D01*
X283210Y489425D01*
X283273Y489419D01*
X283336Y489417D01*
X283399Y489419D01*
X283462Y489425D01*
X283525Y489434D01*
X283587Y489447D01*
X283647Y489464D01*
X283707Y489485D01*
X283766Y489509D01*
X283823Y489537D01*
X283878Y489568D01*
X283931Y489602D01*
X283982Y489640D01*
X284030Y489680D01*
X284076Y489724D01*
X284120Y489770D01*
X284160Y489818D01*
X284198Y489869D01*
X284232Y489922D01*
X284263Y489977D01*
X284291Y490034D01*
X284315Y490093D01*
X284336Y490153D01*
X284353Y490213D01*
X284366Y490275D01*
X284375Y490338D01*
X284381Y490401D01*
X284383Y490464D01*
X284384Y490464D02*
X284384Y493187D01*
X286031Y489417D02*
X287079Y489417D01*
X287142Y489419D01*
X287205Y489425D01*
X287268Y489434D01*
X287330Y489447D01*
X287390Y489464D01*
X287450Y489485D01*
X287509Y489509D01*
X287566Y489537D01*
X287621Y489568D01*
X287674Y489602D01*
X287725Y489640D01*
X287773Y489680D01*
X287819Y489724D01*
X287863Y489770D01*
X287903Y489818D01*
X287941Y489869D01*
X287975Y489922D01*
X288006Y489977D01*
X288034Y490034D01*
X288058Y490093D01*
X288079Y490153D01*
X288096Y490213D01*
X288109Y490275D01*
X288118Y490338D01*
X288124Y490401D01*
X288126Y490464D01*
X288124Y490527D01*
X288118Y490590D01*
X288109Y490653D01*
X288096Y490715D01*
X288079Y490775D01*
X288058Y490835D01*
X288034Y490894D01*
X288006Y490951D01*
X287975Y491006D01*
X287941Y491059D01*
X287903Y491110D01*
X287863Y491158D01*
X287819Y491204D01*
X287773Y491248D01*
X287725Y491288D01*
X287674Y491326D01*
X287621Y491360D01*
X287566Y491391D01*
X287509Y491419D01*
X287450Y491443D01*
X287390Y491464D01*
X287330Y491481D01*
X287268Y491494D01*
X287205Y491503D01*
X287142Y491509D01*
X287079Y491511D01*
X287288Y493187D02*
X286031Y493187D01*
X287288Y493187D02*
X287345Y493185D01*
X287402Y493179D01*
X287458Y493169D01*
X287514Y493156D01*
X287569Y493139D01*
X287622Y493118D01*
X287674Y493093D01*
X287723Y493065D01*
X287771Y493034D01*
X287817Y492999D01*
X287860Y492961D01*
X287900Y492921D01*
X287938Y492878D01*
X287973Y492832D01*
X288004Y492784D01*
X288032Y492735D01*
X288057Y492683D01*
X288078Y492630D01*
X288095Y492575D01*
X288108Y492519D01*
X288118Y492463D01*
X288124Y492406D01*
X288126Y492349D01*
X288124Y492292D01*
X288118Y492235D01*
X288108Y492179D01*
X288095Y492123D01*
X288078Y492068D01*
X288057Y492015D01*
X288032Y491963D01*
X288004Y491914D01*
X287973Y491866D01*
X287938Y491820D01*
X287900Y491777D01*
X287860Y491737D01*
X287817Y491699D01*
X287771Y491664D01*
X287723Y491633D01*
X287674Y491605D01*
X287622Y491580D01*
X287569Y491559D01*
X287514Y491542D01*
X287458Y491529D01*
X287402Y491519D01*
X287345Y491513D01*
X287288Y491511D01*
X286450Y491511D01*
D14*
X367767Y435650D02*
X417767Y435650D01*
X417767Y509850D01*
X367767Y509850D01*
X367767Y435650D01*
X317452Y502281D02*
X313452Y502281D01*
X317452Y502281D02*
X317452Y508781D01*
X313452Y508781D01*
X309452Y502281D02*
X305452Y502281D01*
X305452Y508781D01*
X309452Y508781D01*
D15*
X313952Y505531D03*
X308952Y505531D03*
D16*
X311452Y506531D03*
X311452Y504531D03*
D14*
X256676Y492861D02*
X256676Y488861D01*
X263176Y488861D01*
X263176Y492861D01*
X256676Y496861D02*
X256676Y500861D01*
X263176Y500861D01*
X263176Y496861D01*
D17*
X259926Y492361D03*
X259926Y497361D03*
D18*
X260926Y494861D03*
X258926Y494861D03*
D11*
X254719Y490331D02*
X254719Y489484D01*
X254717Y489426D01*
X254711Y489369D01*
X254701Y489312D01*
X254688Y489255D01*
X254670Y489200D01*
X254649Y489147D01*
X254624Y489094D01*
X254596Y489044D01*
X254564Y488996D01*
X254529Y488949D01*
X254491Y488906D01*
X254450Y488865D01*
X254407Y488827D01*
X254360Y488792D01*
X254312Y488760D01*
X254262Y488732D01*
X254209Y488707D01*
X254156Y488686D01*
X254101Y488668D01*
X254044Y488655D01*
X253987Y488645D01*
X253930Y488639D01*
X253872Y488637D01*
X253872Y488638D02*
X251756Y488638D01*
X251756Y488637D02*
X251698Y488639D01*
X251641Y488645D01*
X251584Y488655D01*
X251527Y488668D01*
X251472Y488686D01*
X251419Y488707D01*
X251366Y488732D01*
X251316Y488760D01*
X251268Y488792D01*
X251221Y488827D01*
X251178Y488865D01*
X251137Y488906D01*
X251099Y488949D01*
X251064Y488996D01*
X251032Y489044D01*
X251004Y489094D01*
X250979Y489147D01*
X250958Y489200D01*
X250940Y489255D01*
X250927Y489312D01*
X250917Y489369D01*
X250911Y489426D01*
X250909Y489484D01*
X250909Y490331D01*
X251756Y491695D02*
X250909Y492753D01*
X254719Y492753D01*
X254719Y491695D02*
X254719Y493812D01*
X254719Y495353D02*
X254719Y496411D01*
X254718Y496411D02*
X254716Y496475D01*
X254710Y496539D01*
X254701Y496602D01*
X254687Y496664D01*
X254670Y496726D01*
X254649Y496786D01*
X254625Y496845D01*
X254597Y496903D01*
X254565Y496958D01*
X254531Y497012D01*
X254493Y497063D01*
X254452Y497113D01*
X254408Y497159D01*
X254362Y497203D01*
X254312Y497244D01*
X254261Y497282D01*
X254207Y497316D01*
X254152Y497348D01*
X254094Y497376D01*
X254035Y497400D01*
X253975Y497421D01*
X253913Y497438D01*
X253851Y497452D01*
X253788Y497461D01*
X253724Y497467D01*
X253660Y497469D01*
X253596Y497467D01*
X253532Y497461D01*
X253469Y497452D01*
X253407Y497438D01*
X253345Y497421D01*
X253285Y497400D01*
X253226Y497376D01*
X253168Y497348D01*
X253113Y497316D01*
X253059Y497282D01*
X253008Y497244D01*
X252958Y497203D01*
X252912Y497159D01*
X252868Y497113D01*
X252827Y497063D01*
X252789Y497012D01*
X252755Y496958D01*
X252723Y496903D01*
X252695Y496845D01*
X252671Y496786D01*
X252650Y496726D01*
X252633Y496664D01*
X252619Y496602D01*
X252610Y496539D01*
X252604Y496475D01*
X252602Y496411D01*
X250909Y496623D02*
X250909Y495353D01*
X250908Y496623D02*
X250910Y496680D01*
X250916Y496736D01*
X250925Y496792D01*
X250938Y496847D01*
X250955Y496901D01*
X250975Y496954D01*
X250999Y497005D01*
X251026Y497055D01*
X251057Y497102D01*
X251090Y497148D01*
X251127Y497191D01*
X251166Y497232D01*
X251208Y497270D01*
X251253Y497305D01*
X251299Y497337D01*
X251348Y497366D01*
X251398Y497391D01*
X251451Y497413D01*
X251504Y497432D01*
X251559Y497447D01*
X251614Y497458D01*
X251670Y497466D01*
X251727Y497470D01*
X251783Y497470D01*
X251840Y497466D01*
X251896Y497458D01*
X251951Y497447D01*
X252006Y497432D01*
X252059Y497413D01*
X252112Y497391D01*
X252162Y497366D01*
X252211Y497337D01*
X252257Y497305D01*
X252302Y497270D01*
X252344Y497232D01*
X252383Y497191D01*
X252420Y497148D01*
X252453Y497102D01*
X252484Y497055D01*
X252511Y497005D01*
X252535Y496954D01*
X252555Y496901D01*
X252572Y496847D01*
X252585Y496792D01*
X252594Y496736D01*
X252600Y496680D01*
X252602Y496623D01*
X252602Y495776D01*
D19*
X353447Y474982D02*
X353449Y475045D01*
X353455Y475107D01*
X353465Y475169D01*
X353478Y475231D01*
X353496Y475291D01*
X353517Y475350D01*
X353542Y475408D01*
X353571Y475464D01*
X353603Y475518D01*
X353638Y475570D01*
X353676Y475619D01*
X353718Y475667D01*
X353762Y475711D01*
X353810Y475753D01*
X353859Y475791D01*
X353911Y475826D01*
X353965Y475858D01*
X354021Y475887D01*
X354079Y475912D01*
X354138Y475933D01*
X354198Y475951D01*
X354260Y475964D01*
X354322Y475974D01*
X354384Y475980D01*
X354447Y475982D01*
X354510Y475980D01*
X354572Y475974D01*
X354634Y475964D01*
X354696Y475951D01*
X354756Y475933D01*
X354815Y475912D01*
X354873Y475887D01*
X354929Y475858D01*
X354983Y475826D01*
X355035Y475791D01*
X355084Y475753D01*
X355132Y475711D01*
X355176Y475667D01*
X355218Y475619D01*
X355256Y475570D01*
X355291Y475518D01*
X355323Y475464D01*
X355352Y475408D01*
X355377Y475350D01*
X355398Y475291D01*
X355416Y475231D01*
X355429Y475169D01*
X355439Y475107D01*
X355445Y475045D01*
X355447Y474982D01*
X355445Y474919D01*
X355439Y474857D01*
X355429Y474795D01*
X355416Y474733D01*
X355398Y474673D01*
X355377Y474614D01*
X355352Y474556D01*
X355323Y474500D01*
X355291Y474446D01*
X355256Y474394D01*
X355218Y474345D01*
X355176Y474297D01*
X355132Y474253D01*
X355084Y474211D01*
X355035Y474173D01*
X354983Y474138D01*
X354929Y474106D01*
X354873Y474077D01*
X354815Y474052D01*
X354756Y474031D01*
X354696Y474013D01*
X354634Y474000D01*
X354572Y473990D01*
X354510Y473984D01*
X354447Y473982D01*
X354384Y473984D01*
X354322Y473990D01*
X354260Y474000D01*
X354198Y474013D01*
X354138Y474031D01*
X354079Y474052D01*
X354021Y474077D01*
X353965Y474106D01*
X353911Y474138D01*
X353859Y474173D01*
X353810Y474211D01*
X353762Y474253D01*
X353718Y474297D01*
X353676Y474345D01*
X353638Y474394D01*
X353603Y474446D01*
X353571Y474500D01*
X353542Y474556D01*
X353517Y474614D01*
X353496Y474673D01*
X353478Y474733D01*
X353465Y474795D01*
X353455Y474857D01*
X353449Y474919D01*
X353447Y474982D01*
D13*
X317697Y499482D02*
X314697Y499482D01*
X314697Y469482D02*
X317697Y469482D01*
X341697Y499482D02*
X344697Y499482D01*
X344697Y469482D02*
X341697Y469482D01*
X314697Y496482D02*
X314697Y499482D01*
X314697Y472482D02*
X314697Y469482D01*
X344697Y496482D02*
X344697Y499482D01*
X344697Y472482D02*
X344697Y469482D01*
D11*
X334913Y507312D02*
X334913Y509697D01*
X334913Y507312D02*
X334915Y507253D01*
X334921Y507195D01*
X334930Y507137D01*
X334943Y507079D01*
X334960Y507023D01*
X334980Y506968D01*
X335004Y506914D01*
X335031Y506862D01*
X335061Y506812D01*
X335095Y506764D01*
X335132Y506718D01*
X335171Y506674D01*
X335214Y506633D01*
X335258Y506595D01*
X335305Y506560D01*
X335355Y506528D01*
X335406Y506499D01*
X335459Y506473D01*
X335513Y506451D01*
X335569Y506433D01*
X335626Y506418D01*
X335684Y506407D01*
X335742Y506399D01*
X335801Y506395D01*
X335859Y506395D01*
X335918Y506399D01*
X335976Y506407D01*
X336034Y506418D01*
X336091Y506433D01*
X336147Y506451D01*
X336201Y506473D01*
X336254Y506499D01*
X336305Y506528D01*
X336355Y506560D01*
X336402Y506595D01*
X336446Y506633D01*
X336489Y506674D01*
X336528Y506718D01*
X336565Y506764D01*
X336599Y506812D01*
X336629Y506862D01*
X336656Y506914D01*
X336680Y506968D01*
X336700Y507023D01*
X336717Y507079D01*
X336730Y507137D01*
X336739Y507195D01*
X336745Y507253D01*
X336747Y507312D01*
X336747Y509697D01*
X338220Y508229D02*
X339320Y508229D01*
X339320Y508230D02*
X339372Y508228D01*
X339424Y508223D01*
X339476Y508213D01*
X339527Y508200D01*
X339577Y508184D01*
X339625Y508164D01*
X339672Y508140D01*
X339717Y508113D01*
X339760Y508084D01*
X339801Y508051D01*
X339839Y508015D01*
X339875Y507977D01*
X339908Y507936D01*
X339937Y507893D01*
X339964Y507848D01*
X339988Y507801D01*
X340008Y507753D01*
X340024Y507703D01*
X340037Y507652D01*
X340047Y507600D01*
X340052Y507548D01*
X340054Y507496D01*
X340054Y507312D01*
X340052Y507253D01*
X340046Y507195D01*
X340037Y507137D01*
X340024Y507079D01*
X340007Y507023D01*
X339987Y506968D01*
X339963Y506914D01*
X339936Y506862D01*
X339906Y506812D01*
X339872Y506764D01*
X339835Y506718D01*
X339796Y506674D01*
X339753Y506633D01*
X339709Y506595D01*
X339662Y506560D01*
X339612Y506528D01*
X339561Y506499D01*
X339508Y506473D01*
X339454Y506451D01*
X339398Y506433D01*
X339341Y506418D01*
X339283Y506407D01*
X339225Y506399D01*
X339166Y506395D01*
X339108Y506395D01*
X339049Y506399D01*
X338991Y506407D01*
X338933Y506418D01*
X338876Y506433D01*
X338820Y506451D01*
X338766Y506473D01*
X338713Y506499D01*
X338662Y506528D01*
X338612Y506560D01*
X338565Y506595D01*
X338521Y506633D01*
X338478Y506674D01*
X338439Y506718D01*
X338402Y506764D01*
X338368Y506812D01*
X338338Y506862D01*
X338311Y506914D01*
X338287Y506968D01*
X338267Y507023D01*
X338250Y507079D01*
X338237Y507137D01*
X338228Y507195D01*
X338222Y507253D01*
X338220Y507312D01*
X338220Y508229D01*
X338219Y508229D02*
X338221Y508303D01*
X338227Y508378D01*
X338236Y508451D01*
X338249Y508525D01*
X338266Y508597D01*
X338286Y508668D01*
X338310Y508739D01*
X338338Y508808D01*
X338369Y508875D01*
X338403Y508941D01*
X338441Y509006D01*
X338482Y509068D01*
X338526Y509128D01*
X338573Y509185D01*
X338623Y509240D01*
X338676Y509293D01*
X338731Y509343D01*
X338788Y509390D01*
X338848Y509434D01*
X338910Y509475D01*
X338975Y509513D01*
X339040Y509547D01*
X339108Y509578D01*
X339177Y509606D01*
X339248Y509630D01*
X339319Y509650D01*
X339391Y509667D01*
X339465Y509680D01*
X339538Y509689D01*
X339613Y509695D01*
X339687Y509697D01*
D14*
X312767Y462203D02*
X308767Y462203D01*
X308767Y455703D01*
X312767Y455703D01*
X316767Y462203D02*
X320767Y462203D01*
X320767Y455703D01*
X316767Y455703D01*
D15*
X312267Y458953D03*
X317267Y458953D03*
D16*
X314767Y457953D03*
X314767Y459953D03*
D14*
X333189Y462543D02*
X337189Y462543D01*
X333189Y462543D02*
X333189Y456043D01*
X337189Y456043D01*
X341189Y462543D02*
X345189Y462543D01*
X345189Y456043D01*
X341189Y456043D01*
D15*
X336689Y459293D03*
X341689Y459293D03*
D16*
X339189Y458293D03*
X339189Y460293D03*
D14*
X310094Y465690D02*
X306094Y465690D01*
X310094Y465690D02*
X310094Y472190D01*
X306094Y472190D01*
X302094Y465690D02*
X298094Y465690D01*
X298094Y472190D01*
X302094Y472190D01*
D15*
X306594Y468940D03*
X301594Y468940D03*
D16*
X304094Y469940D03*
X304094Y467940D03*
D14*
X349531Y470501D02*
X349531Y474501D01*
X349531Y470501D02*
X356031Y470501D01*
X356031Y474501D01*
X349531Y478501D02*
X349531Y482501D01*
X356031Y482501D01*
X356031Y478501D01*
D17*
X352781Y474001D03*
X352781Y479001D03*
D18*
X353781Y476501D03*
X351781Y476501D03*
D13*
X297458Y469165D02*
X212458Y469165D01*
X297458Y469165D02*
X297458Y434165D01*
X212458Y434165D01*
X212458Y469165D01*
D14*
X320969Y461695D02*
X324969Y461695D01*
X320969Y461695D02*
X320969Y455195D01*
X324969Y455195D01*
X328969Y461695D02*
X332969Y461695D01*
X332969Y455195D01*
X328969Y455195D01*
D15*
X324469Y458445D03*
X329469Y458445D03*
D16*
X326969Y457445D03*
X326969Y459445D03*
D14*
X322579Y453932D02*
X322579Y449932D01*
X322579Y453932D02*
X316079Y453932D01*
X316079Y449932D01*
X322579Y445932D02*
X322579Y441932D01*
X316079Y441932D01*
X316079Y445932D01*
D17*
X319329Y450432D03*
X319329Y445432D03*
D18*
X318329Y447932D03*
X320329Y447932D03*
D20*
X360236Y656085D03*
X344252Y652752D03*
D14*
X331413Y647564D02*
X327413Y647564D01*
X327413Y641064D01*
X331413Y641064D01*
X335413Y647564D02*
X339413Y647564D01*
X339413Y641064D01*
X335413Y641064D01*
D15*
X330913Y644314D03*
X335913Y644314D03*
D16*
X333413Y643314D03*
X333413Y645314D03*
D11*
X320586Y645965D02*
X320586Y642155D01*
X320586Y645965D02*
X321644Y645965D01*
X321708Y645963D01*
X321772Y645957D01*
X321835Y645948D01*
X321897Y645934D01*
X321959Y645917D01*
X322019Y645896D01*
X322078Y645872D01*
X322136Y645844D01*
X322191Y645812D01*
X322245Y645778D01*
X322296Y645740D01*
X322346Y645699D01*
X322392Y645655D01*
X322436Y645609D01*
X322477Y645559D01*
X322515Y645508D01*
X322549Y645454D01*
X322581Y645399D01*
X322609Y645341D01*
X322633Y645282D01*
X322654Y645222D01*
X322671Y645160D01*
X322685Y645098D01*
X322694Y645035D01*
X322700Y644971D01*
X322702Y644907D01*
X322700Y644843D01*
X322694Y644779D01*
X322685Y644716D01*
X322671Y644654D01*
X322654Y644592D01*
X322633Y644532D01*
X322609Y644473D01*
X322581Y644415D01*
X322549Y644360D01*
X322515Y644306D01*
X322477Y644255D01*
X322436Y644205D01*
X322392Y644159D01*
X322346Y644115D01*
X322296Y644074D01*
X322245Y644036D01*
X322191Y644002D01*
X322136Y643970D01*
X322078Y643942D01*
X322019Y643918D01*
X321959Y643897D01*
X321897Y643880D01*
X321835Y643866D01*
X321772Y643857D01*
X321708Y643851D01*
X321644Y643849D01*
X320586Y643849D01*
X321856Y643849D02*
X322703Y642155D01*
X324223Y642155D02*
X325493Y642155D01*
X325548Y642157D01*
X325604Y642162D01*
X325658Y642171D01*
X325712Y642184D01*
X325765Y642200D01*
X325817Y642219D01*
X325868Y642242D01*
X325917Y642268D01*
X325964Y642298D01*
X326009Y642330D01*
X326051Y642365D01*
X326092Y642403D01*
X326130Y642444D01*
X326165Y642486D01*
X326197Y642531D01*
X326227Y642579D01*
X326253Y642627D01*
X326276Y642678D01*
X326295Y642730D01*
X326311Y642783D01*
X326324Y642837D01*
X326333Y642891D01*
X326338Y642947D01*
X326340Y643002D01*
X326339Y643002D02*
X326339Y643425D01*
X326340Y643425D02*
X326338Y643480D01*
X326333Y643536D01*
X326324Y643590D01*
X326311Y643644D01*
X326295Y643697D01*
X326276Y643749D01*
X326253Y643800D01*
X326227Y643849D01*
X326197Y643896D01*
X326165Y643941D01*
X326130Y643983D01*
X326092Y644024D01*
X326051Y644062D01*
X326009Y644097D01*
X325964Y644129D01*
X325917Y644159D01*
X325868Y644185D01*
X325817Y644208D01*
X325765Y644227D01*
X325712Y644243D01*
X325658Y644256D01*
X325604Y644265D01*
X325548Y644270D01*
X325493Y644272D01*
X324223Y644272D01*
X324223Y645965D01*
X326339Y645965D01*
D14*
X322208Y657465D02*
X318208Y657465D01*
X318208Y650965D01*
X322208Y650965D01*
X326208Y657465D02*
X330208Y657465D01*
X330208Y650965D01*
X326208Y650965D01*
D15*
X321708Y654215D03*
X326708Y654215D03*
D16*
X324208Y653215D03*
X324208Y655215D03*
D11*
X316568Y651160D02*
X312758Y651160D01*
X312758Y652218D01*
X312760Y652282D01*
X312766Y652346D01*
X312775Y652409D01*
X312789Y652471D01*
X312806Y652533D01*
X312827Y652593D01*
X312851Y652652D01*
X312879Y652710D01*
X312911Y652765D01*
X312945Y652819D01*
X312983Y652870D01*
X313024Y652920D01*
X313068Y652966D01*
X313114Y653010D01*
X313164Y653051D01*
X313215Y653089D01*
X313269Y653123D01*
X313324Y653155D01*
X313382Y653183D01*
X313441Y653207D01*
X313501Y653228D01*
X313563Y653245D01*
X313625Y653259D01*
X313688Y653268D01*
X313752Y653274D01*
X313816Y653276D01*
X313880Y653274D01*
X313944Y653268D01*
X314007Y653259D01*
X314069Y653245D01*
X314131Y653228D01*
X314191Y653207D01*
X314250Y653183D01*
X314308Y653155D01*
X314363Y653123D01*
X314417Y653089D01*
X314468Y653051D01*
X314518Y653010D01*
X314564Y652966D01*
X314608Y652920D01*
X314649Y652870D01*
X314687Y652819D01*
X314721Y652765D01*
X314753Y652710D01*
X314781Y652652D01*
X314805Y652593D01*
X314826Y652533D01*
X314843Y652471D01*
X314857Y652409D01*
X314866Y652346D01*
X314872Y652282D01*
X314874Y652218D01*
X314875Y652218D02*
X314875Y651160D01*
X314875Y652430D02*
X316568Y653276D01*
X315510Y654796D02*
X315446Y654798D01*
X315382Y654804D01*
X315319Y654813D01*
X315257Y654827D01*
X315195Y654844D01*
X315135Y654865D01*
X315076Y654889D01*
X315018Y654917D01*
X314963Y654949D01*
X314909Y654983D01*
X314858Y655021D01*
X314808Y655062D01*
X314762Y655106D01*
X314718Y655152D01*
X314677Y655202D01*
X314639Y655253D01*
X314605Y655307D01*
X314573Y655362D01*
X314545Y655420D01*
X314521Y655479D01*
X314500Y655539D01*
X314483Y655601D01*
X314469Y655663D01*
X314460Y655726D01*
X314454Y655790D01*
X314452Y655854D01*
X314454Y655918D01*
X314460Y655982D01*
X314469Y656045D01*
X314483Y656107D01*
X314500Y656169D01*
X314521Y656229D01*
X314545Y656288D01*
X314573Y656346D01*
X314605Y656401D01*
X314639Y656455D01*
X314677Y656506D01*
X314718Y656556D01*
X314762Y656602D01*
X314808Y656646D01*
X314858Y656687D01*
X314909Y656725D01*
X314963Y656759D01*
X315018Y656791D01*
X315076Y656819D01*
X315135Y656843D01*
X315195Y656864D01*
X315257Y656881D01*
X315319Y656895D01*
X315382Y656904D01*
X315446Y656910D01*
X315510Y656912D01*
X315574Y656910D01*
X315638Y656904D01*
X315701Y656895D01*
X315763Y656881D01*
X315825Y656864D01*
X315885Y656843D01*
X315944Y656819D01*
X316002Y656791D01*
X316057Y656759D01*
X316111Y656725D01*
X316162Y656687D01*
X316212Y656646D01*
X316258Y656602D01*
X316302Y656556D01*
X316343Y656506D01*
X316381Y656455D01*
X316415Y656401D01*
X316447Y656346D01*
X316475Y656288D01*
X316499Y656229D01*
X316520Y656169D01*
X316537Y656107D01*
X316551Y656045D01*
X316560Y655982D01*
X316566Y655918D01*
X316568Y655854D01*
X316566Y655790D01*
X316560Y655726D01*
X316551Y655663D01*
X316537Y655601D01*
X316520Y655539D01*
X316499Y655479D01*
X316475Y655420D01*
X316447Y655362D01*
X316415Y655307D01*
X316381Y655253D01*
X316343Y655202D01*
X316302Y655152D01*
X316258Y655106D01*
X316212Y655062D01*
X316162Y655021D01*
X316111Y654983D01*
X316057Y654949D01*
X316002Y654917D01*
X315944Y654889D01*
X315885Y654865D01*
X315825Y654844D01*
X315763Y654827D01*
X315701Y654813D01*
X315638Y654804D01*
X315574Y654798D01*
X315510Y654796D01*
X313605Y655007D02*
X313548Y655009D01*
X313492Y655015D01*
X313436Y655024D01*
X313381Y655037D01*
X313327Y655054D01*
X313274Y655074D01*
X313223Y655098D01*
X313173Y655125D01*
X313126Y655156D01*
X313080Y655189D01*
X313037Y655226D01*
X312996Y655265D01*
X312958Y655307D01*
X312923Y655352D01*
X312891Y655398D01*
X312862Y655447D01*
X312837Y655497D01*
X312815Y655550D01*
X312796Y655603D01*
X312781Y655658D01*
X312770Y655713D01*
X312762Y655769D01*
X312758Y655826D01*
X312758Y655882D01*
X312762Y655939D01*
X312770Y655995D01*
X312781Y656050D01*
X312796Y656105D01*
X312815Y656158D01*
X312837Y656211D01*
X312862Y656261D01*
X312891Y656310D01*
X312923Y656356D01*
X312958Y656401D01*
X312996Y656443D01*
X313037Y656482D01*
X313080Y656519D01*
X313126Y656552D01*
X313173Y656583D01*
X313223Y656610D01*
X313274Y656634D01*
X313327Y656654D01*
X313381Y656671D01*
X313436Y656684D01*
X313492Y656693D01*
X313548Y656699D01*
X313605Y656701D01*
X313662Y656699D01*
X313718Y656693D01*
X313774Y656684D01*
X313829Y656671D01*
X313883Y656654D01*
X313936Y656634D01*
X313987Y656610D01*
X314037Y656583D01*
X314084Y656552D01*
X314130Y656519D01*
X314173Y656482D01*
X314214Y656443D01*
X314252Y656401D01*
X314287Y656356D01*
X314319Y656310D01*
X314348Y656261D01*
X314373Y656211D01*
X314395Y656158D01*
X314414Y656105D01*
X314429Y656050D01*
X314440Y655995D01*
X314448Y655939D01*
X314452Y655882D01*
X314452Y655826D01*
X314448Y655769D01*
X314440Y655713D01*
X314429Y655658D01*
X314414Y655603D01*
X314395Y655550D01*
X314373Y655497D01*
X314348Y655447D01*
X314319Y655398D01*
X314287Y655352D01*
X314252Y655307D01*
X314214Y655265D01*
X314173Y655226D01*
X314130Y655189D01*
X314084Y655156D01*
X314037Y655125D01*
X313987Y655098D01*
X313936Y655074D01*
X313883Y655054D01*
X313829Y655037D01*
X313774Y655024D01*
X313718Y655015D01*
X313662Y655009D01*
X313605Y655007D01*
D20*
X344399Y662290D03*
D14*
X321969Y667104D02*
X317969Y667104D01*
X317969Y660604D01*
X321969Y660604D01*
X325969Y667104D02*
X329969Y667104D01*
X329969Y660604D01*
X325969Y660604D01*
D15*
X321469Y663854D03*
X326469Y663854D03*
D16*
X323969Y662854D03*
X323969Y664854D03*
D11*
X316588Y660804D02*
X312778Y660804D01*
X312778Y661862D01*
X312780Y661926D01*
X312786Y661990D01*
X312795Y662053D01*
X312809Y662115D01*
X312826Y662177D01*
X312847Y662237D01*
X312871Y662296D01*
X312899Y662354D01*
X312931Y662409D01*
X312965Y662463D01*
X313003Y662514D01*
X313044Y662564D01*
X313088Y662610D01*
X313134Y662654D01*
X313184Y662695D01*
X313235Y662733D01*
X313289Y662767D01*
X313344Y662799D01*
X313402Y662827D01*
X313461Y662851D01*
X313521Y662872D01*
X313583Y662889D01*
X313645Y662903D01*
X313708Y662912D01*
X313772Y662918D01*
X313836Y662920D01*
X313900Y662918D01*
X313964Y662912D01*
X314027Y662903D01*
X314089Y662889D01*
X314151Y662872D01*
X314211Y662851D01*
X314270Y662827D01*
X314328Y662799D01*
X314383Y662767D01*
X314437Y662733D01*
X314488Y662695D01*
X314538Y662654D01*
X314584Y662610D01*
X314628Y662564D01*
X314669Y662514D01*
X314707Y662463D01*
X314741Y662409D01*
X314773Y662354D01*
X314801Y662296D01*
X314825Y662237D01*
X314846Y662177D01*
X314863Y662115D01*
X314877Y662053D01*
X314886Y661990D01*
X314892Y661926D01*
X314894Y661862D01*
X314895Y661862D02*
X314895Y660804D01*
X314895Y662074D02*
X316588Y662921D01*
X314895Y665287D02*
X314895Y666557D01*
X314895Y665287D02*
X314893Y665232D01*
X314888Y665176D01*
X314879Y665122D01*
X314866Y665068D01*
X314850Y665015D01*
X314831Y664963D01*
X314808Y664912D01*
X314782Y664863D01*
X314752Y664816D01*
X314720Y664771D01*
X314685Y664729D01*
X314647Y664688D01*
X314606Y664650D01*
X314564Y664615D01*
X314519Y664583D01*
X314471Y664553D01*
X314423Y664527D01*
X314372Y664504D01*
X314320Y664485D01*
X314267Y664469D01*
X314213Y664456D01*
X314159Y664447D01*
X314103Y664442D01*
X314048Y664440D01*
X313836Y664440D01*
X313836Y664441D02*
X313772Y664443D01*
X313708Y664449D01*
X313645Y664458D01*
X313583Y664472D01*
X313521Y664489D01*
X313461Y664510D01*
X313402Y664534D01*
X313344Y664562D01*
X313289Y664594D01*
X313235Y664628D01*
X313184Y664666D01*
X313134Y664707D01*
X313088Y664751D01*
X313044Y664797D01*
X313003Y664847D01*
X312965Y664898D01*
X312931Y664952D01*
X312899Y665007D01*
X312871Y665065D01*
X312847Y665124D01*
X312826Y665184D01*
X312809Y665246D01*
X312795Y665308D01*
X312786Y665371D01*
X312780Y665435D01*
X312778Y665499D01*
X312780Y665563D01*
X312786Y665627D01*
X312795Y665690D01*
X312809Y665752D01*
X312826Y665814D01*
X312847Y665874D01*
X312871Y665933D01*
X312899Y665991D01*
X312931Y666046D01*
X312965Y666100D01*
X313003Y666151D01*
X313044Y666201D01*
X313088Y666247D01*
X313134Y666291D01*
X313184Y666332D01*
X313235Y666370D01*
X313289Y666404D01*
X313344Y666436D01*
X313402Y666464D01*
X313461Y666488D01*
X313521Y666509D01*
X313583Y666526D01*
X313645Y666540D01*
X313708Y666549D01*
X313772Y666555D01*
X313836Y666557D01*
X314895Y666557D01*
X314976Y666555D01*
X315056Y666549D01*
X315136Y666540D01*
X315215Y666526D01*
X315294Y666509D01*
X315372Y666488D01*
X315449Y666464D01*
X315524Y666436D01*
X315598Y666404D01*
X315671Y666369D01*
X315742Y666330D01*
X315810Y666288D01*
X315877Y666243D01*
X315942Y666195D01*
X316004Y666143D01*
X316063Y666089D01*
X316120Y666032D01*
X316174Y665973D01*
X316226Y665911D01*
X316274Y665846D01*
X316319Y665779D01*
X316361Y665711D01*
X316400Y665640D01*
X316435Y665567D01*
X316467Y665493D01*
X316495Y665418D01*
X316519Y665341D01*
X316540Y665263D01*
X316557Y665184D01*
X316571Y665105D01*
X316580Y665025D01*
X316586Y664945D01*
X316588Y664864D01*
D14*
X330478Y453982D02*
X330478Y449982D01*
X330478Y453982D02*
X323978Y453982D01*
X323978Y449982D01*
X330478Y445982D02*
X330478Y441982D01*
X323978Y441982D01*
X323978Y445982D01*
D17*
X327228Y450482D03*
X327228Y445482D03*
D18*
X326228Y447982D03*
X328228Y447982D03*
D14*
X308771Y460213D02*
X308771Y464213D01*
X302271Y464213D01*
X302271Y460213D01*
X308771Y456213D02*
X308771Y452213D01*
X302271Y452213D01*
X302271Y456213D01*
D17*
X305521Y460713D03*
X305521Y455713D03*
D18*
X304521Y458213D03*
X306521Y458213D03*
D14*
X345517Y457370D02*
X345517Y461370D01*
X345517Y457370D02*
X352017Y457370D01*
X352017Y461370D01*
X345517Y465370D02*
X345517Y469370D01*
X352017Y469370D01*
X352017Y465370D01*
D17*
X348767Y460870D03*
X348767Y465870D03*
D18*
X349767Y463370D03*
X347767Y463370D03*
D14*
X314859Y436843D02*
X310859Y436843D01*
X314859Y436843D02*
X314859Y443343D01*
X310859Y443343D01*
X306859Y436843D02*
X302859Y436843D01*
X302859Y443343D01*
X306859Y443343D01*
D15*
X311359Y440093D03*
X306359Y440093D03*
D16*
X308859Y441093D03*
X308859Y439093D03*
D14*
X218515Y497261D02*
X218515Y503761D01*
X209515Y503761D01*
X209515Y497261D01*
X218515Y491261D02*
X218515Y484761D01*
X209515Y484761D01*
X209515Y491261D01*
D21*
X214015Y498261D03*
X214015Y490261D03*
D22*
X216015Y494261D03*
X212015Y494261D03*
D11*
X220492Y494883D02*
X224302Y494883D01*
X220492Y494883D02*
X220492Y495942D01*
X220493Y495942D02*
X220495Y496006D01*
X220501Y496070D01*
X220510Y496133D01*
X220524Y496195D01*
X220541Y496257D01*
X220562Y496317D01*
X220586Y496376D01*
X220614Y496434D01*
X220646Y496489D01*
X220680Y496543D01*
X220718Y496594D01*
X220759Y496644D01*
X220803Y496690D01*
X220849Y496734D01*
X220899Y496775D01*
X220950Y496813D01*
X221004Y496847D01*
X221059Y496879D01*
X221117Y496907D01*
X221176Y496931D01*
X221236Y496952D01*
X221298Y496969D01*
X221360Y496983D01*
X221423Y496992D01*
X221487Y496998D01*
X221551Y497000D01*
X221615Y496998D01*
X221679Y496992D01*
X221742Y496983D01*
X221804Y496969D01*
X221866Y496952D01*
X221926Y496931D01*
X221985Y496907D01*
X222043Y496879D01*
X222098Y496847D01*
X222152Y496813D01*
X222203Y496775D01*
X222253Y496734D01*
X222299Y496690D01*
X222343Y496644D01*
X222384Y496594D01*
X222422Y496543D01*
X222456Y496489D01*
X222488Y496434D01*
X222516Y496376D01*
X222540Y496317D01*
X222561Y496257D01*
X222578Y496195D01*
X222592Y496133D01*
X222601Y496070D01*
X222607Y496006D01*
X222609Y495942D01*
X222609Y494883D01*
X222609Y496153D02*
X224302Y497000D01*
X221339Y498520D02*
X220492Y499578D01*
X224302Y499578D01*
X224302Y498520D02*
X224302Y500637D01*
X221445Y504295D02*
X221385Y504293D01*
X221326Y504287D01*
X221266Y504278D01*
X221208Y504265D01*
X221151Y504248D01*
X221094Y504228D01*
X221039Y504204D01*
X220986Y504177D01*
X220934Y504147D01*
X220885Y504113D01*
X220838Y504076D01*
X220793Y504037D01*
X220750Y503994D01*
X220711Y503949D01*
X220674Y503902D01*
X220640Y503853D01*
X220610Y503801D01*
X220583Y503748D01*
X220559Y503693D01*
X220539Y503636D01*
X220522Y503579D01*
X220509Y503521D01*
X220500Y503461D01*
X220494Y503402D01*
X220492Y503342D01*
X220494Y503275D01*
X220499Y503208D01*
X220508Y503142D01*
X220521Y503076D01*
X220537Y503012D01*
X220557Y502948D01*
X220581Y502885D01*
X220607Y502823D01*
X220637Y502764D01*
X220670Y502706D01*
X220707Y502649D01*
X220746Y502595D01*
X220788Y502543D01*
X220833Y502494D01*
X220881Y502447D01*
X220931Y502403D01*
X220984Y502361D01*
X221039Y502323D01*
X221095Y502287D01*
X221154Y502255D01*
X221214Y502226D01*
X221276Y502200D01*
X221339Y502178D01*
X222186Y503976D02*
X222144Y504018D01*
X222099Y504057D01*
X222053Y504094D01*
X222004Y504128D01*
X221954Y504158D01*
X221902Y504186D01*
X221848Y504211D01*
X221793Y504233D01*
X221737Y504252D01*
X221680Y504267D01*
X221622Y504279D01*
X221563Y504287D01*
X221504Y504292D01*
X221445Y504294D01*
X222186Y503977D02*
X224302Y502177D01*
X224302Y504294D01*
D19*
X347920Y440574D02*
X347922Y440637D01*
X347928Y440699D01*
X347938Y440761D01*
X347951Y440823D01*
X347969Y440883D01*
X347990Y440942D01*
X348015Y441000D01*
X348044Y441056D01*
X348076Y441110D01*
X348111Y441162D01*
X348149Y441211D01*
X348191Y441259D01*
X348235Y441303D01*
X348283Y441345D01*
X348332Y441383D01*
X348384Y441418D01*
X348438Y441450D01*
X348494Y441479D01*
X348552Y441504D01*
X348611Y441525D01*
X348671Y441543D01*
X348733Y441556D01*
X348795Y441566D01*
X348857Y441572D01*
X348920Y441574D01*
X348983Y441572D01*
X349045Y441566D01*
X349107Y441556D01*
X349169Y441543D01*
X349229Y441525D01*
X349288Y441504D01*
X349346Y441479D01*
X349402Y441450D01*
X349456Y441418D01*
X349508Y441383D01*
X349557Y441345D01*
X349605Y441303D01*
X349649Y441259D01*
X349691Y441211D01*
X349729Y441162D01*
X349764Y441110D01*
X349796Y441056D01*
X349825Y441000D01*
X349850Y440942D01*
X349871Y440883D01*
X349889Y440823D01*
X349902Y440761D01*
X349912Y440699D01*
X349918Y440637D01*
X349920Y440574D01*
X349918Y440511D01*
X349912Y440449D01*
X349902Y440387D01*
X349889Y440325D01*
X349871Y440265D01*
X349850Y440206D01*
X349825Y440148D01*
X349796Y440092D01*
X349764Y440038D01*
X349729Y439986D01*
X349691Y439937D01*
X349649Y439889D01*
X349605Y439845D01*
X349557Y439803D01*
X349508Y439765D01*
X349456Y439730D01*
X349402Y439698D01*
X349346Y439669D01*
X349288Y439644D01*
X349229Y439623D01*
X349169Y439605D01*
X349107Y439592D01*
X349045Y439582D01*
X348983Y439576D01*
X348920Y439574D01*
X348857Y439576D01*
X348795Y439582D01*
X348733Y439592D01*
X348671Y439605D01*
X348611Y439623D01*
X348552Y439644D01*
X348494Y439669D01*
X348438Y439698D01*
X348384Y439730D01*
X348332Y439765D01*
X348283Y439803D01*
X348235Y439845D01*
X348191Y439889D01*
X348149Y439937D01*
X348111Y439986D01*
X348076Y440038D01*
X348044Y440092D01*
X348015Y440148D01*
X347990Y440206D01*
X347969Y440265D01*
X347951Y440325D01*
X347938Y440387D01*
X347928Y440449D01*
X347922Y440511D01*
X347920Y440574D01*
D13*
X343920Y435874D02*
X333920Y435874D01*
X333920Y455274D02*
X343920Y455274D01*
D11*
X346949Y446465D02*
X349334Y446465D01*
X349334Y446466D02*
X349393Y446468D01*
X349451Y446474D01*
X349509Y446483D01*
X349567Y446496D01*
X349623Y446513D01*
X349678Y446533D01*
X349732Y446557D01*
X349784Y446584D01*
X349834Y446614D01*
X349882Y446648D01*
X349928Y446685D01*
X349972Y446724D01*
X350013Y446767D01*
X350051Y446811D01*
X350086Y446858D01*
X350118Y446908D01*
X350147Y446959D01*
X350173Y447012D01*
X350195Y447066D01*
X350213Y447122D01*
X350228Y447179D01*
X350239Y447237D01*
X350247Y447295D01*
X350251Y447354D01*
X350251Y447412D01*
X350247Y447471D01*
X350239Y447529D01*
X350228Y447587D01*
X350213Y447644D01*
X350195Y447700D01*
X350173Y447754D01*
X350147Y447807D01*
X350118Y447858D01*
X350086Y447908D01*
X350051Y447955D01*
X350013Y447999D01*
X349972Y448042D01*
X349928Y448081D01*
X349882Y448118D01*
X349834Y448152D01*
X349784Y448182D01*
X349732Y448209D01*
X349678Y448233D01*
X349623Y448253D01*
X349567Y448270D01*
X349509Y448283D01*
X349451Y448292D01*
X349393Y448298D01*
X349334Y448300D01*
X346949Y448300D01*
X347683Y449773D02*
X346949Y450690D01*
X350251Y450690D01*
X350251Y449773D02*
X350251Y451607D01*
D14*
X324601Y441489D02*
X320601Y441489D01*
X320601Y434989D01*
X324601Y434989D01*
X328601Y441489D02*
X332601Y441489D01*
X332601Y434989D01*
X328601Y434989D01*
D15*
X324101Y438239D03*
X329101Y438239D03*
D16*
X326601Y437239D03*
X326601Y439239D03*
D14*
X333796Y435652D02*
X340296Y435652D01*
X333796Y435652D02*
X333796Y426652D01*
X340296Y426652D01*
X346296Y435652D02*
X352796Y435652D01*
X352796Y426652D01*
X346296Y426652D01*
D23*
X339296Y431152D03*
X347296Y431152D03*
D24*
X343296Y433152D03*
X343296Y429152D03*
D25*
X164054Y444582D02*
X164054Y466712D01*
X204054Y466712D02*
X204054Y443242D01*
X191274Y424212D02*
X176384Y424212D01*
X172604Y466712D02*
X164054Y466712D01*
X195054Y466712D02*
X204054Y466712D01*
D26*
X180098Y450393D02*
X180098Y441281D01*
X180097Y441281D02*
X180095Y441181D01*
X180089Y441082D01*
X180080Y440982D01*
X180066Y440884D01*
X180049Y440785D01*
X180029Y440688D01*
X180004Y440591D01*
X179976Y440496D01*
X179944Y440401D01*
X179908Y440308D01*
X179869Y440216D01*
X179827Y440126D01*
X179781Y440037D01*
X179731Y439951D01*
X179679Y439866D01*
X179623Y439783D01*
X179564Y439703D01*
X179502Y439625D01*
X179437Y439549D01*
X179370Y439476D01*
X179299Y439405D01*
X179226Y439338D01*
X179150Y439273D01*
X179072Y439211D01*
X178992Y439152D01*
X178909Y439096D01*
X178824Y439044D01*
X178738Y438994D01*
X178649Y438948D01*
X178559Y438906D01*
X178467Y438867D01*
X178374Y438831D01*
X178279Y438799D01*
X178184Y438771D01*
X178087Y438746D01*
X177990Y438726D01*
X177891Y438709D01*
X177793Y438695D01*
X177693Y438686D01*
X177594Y438680D01*
X177494Y438678D01*
X177494Y438677D02*
X176192Y438677D01*
X185383Y447789D02*
X188637Y450393D01*
X188637Y438677D01*
X185383Y438677D02*
X191891Y438677D01*
D27*
X134783Y519162D02*
X134783Y644112D01*
X134783Y519162D02*
X102183Y519162D01*
X102183Y644112D01*
X134783Y644112D01*
X378400Y638625D02*
X378400Y513675D01*
X345800Y513675D01*
X345800Y638625D01*
X378400Y638625D01*
D13*
X310434Y669168D02*
X170434Y669168D01*
X310434Y669168D02*
X310434Y603068D01*
X170434Y513268D02*
X170434Y509168D01*
X310434Y509168D01*
X310434Y513268D01*
D19*
X156434Y597068D02*
X156436Y597131D01*
X156442Y597193D01*
X156452Y597255D01*
X156465Y597317D01*
X156483Y597377D01*
X156504Y597436D01*
X156529Y597494D01*
X156558Y597550D01*
X156590Y597604D01*
X156625Y597656D01*
X156663Y597705D01*
X156705Y597753D01*
X156749Y597797D01*
X156797Y597839D01*
X156846Y597877D01*
X156898Y597912D01*
X156952Y597944D01*
X157008Y597973D01*
X157066Y597998D01*
X157125Y598019D01*
X157185Y598037D01*
X157247Y598050D01*
X157309Y598060D01*
X157371Y598066D01*
X157434Y598068D01*
X157497Y598066D01*
X157559Y598060D01*
X157621Y598050D01*
X157683Y598037D01*
X157743Y598019D01*
X157802Y597998D01*
X157860Y597973D01*
X157916Y597944D01*
X157970Y597912D01*
X158022Y597877D01*
X158071Y597839D01*
X158119Y597797D01*
X158163Y597753D01*
X158205Y597705D01*
X158243Y597656D01*
X158278Y597604D01*
X158310Y597550D01*
X158339Y597494D01*
X158364Y597436D01*
X158385Y597377D01*
X158403Y597317D01*
X158416Y597255D01*
X158426Y597193D01*
X158432Y597131D01*
X158434Y597068D01*
X158432Y597005D01*
X158426Y596943D01*
X158416Y596881D01*
X158403Y596819D01*
X158385Y596759D01*
X158364Y596700D01*
X158339Y596642D01*
X158310Y596586D01*
X158278Y596532D01*
X158243Y596480D01*
X158205Y596431D01*
X158163Y596383D01*
X158119Y596339D01*
X158071Y596297D01*
X158022Y596259D01*
X157970Y596224D01*
X157916Y596192D01*
X157860Y596163D01*
X157802Y596138D01*
X157743Y596117D01*
X157683Y596099D01*
X157621Y596086D01*
X157559Y596076D01*
X157497Y596070D01*
X157434Y596068D01*
X157371Y596070D01*
X157309Y596076D01*
X157247Y596086D01*
X157185Y596099D01*
X157125Y596117D01*
X157066Y596138D01*
X157008Y596163D01*
X156952Y596192D01*
X156898Y596224D01*
X156846Y596259D01*
X156797Y596297D01*
X156749Y596339D01*
X156705Y596383D01*
X156663Y596431D01*
X156625Y596480D01*
X156590Y596532D01*
X156558Y596586D01*
X156529Y596642D01*
X156504Y596700D01*
X156483Y596759D01*
X156465Y596819D01*
X156452Y596881D01*
X156442Y596943D01*
X156436Y597005D01*
X156434Y597068D01*
D13*
X170434Y603068D02*
X170434Y669168D01*
D26*
X287804Y634527D02*
X287804Y626089D01*
X287806Y625976D01*
X287812Y625863D01*
X287822Y625750D01*
X287836Y625637D01*
X287853Y625525D01*
X287875Y625414D01*
X287900Y625304D01*
X287930Y625194D01*
X287963Y625086D01*
X288000Y624979D01*
X288040Y624873D01*
X288085Y624769D01*
X288133Y624666D01*
X288184Y624565D01*
X288239Y624466D01*
X288297Y624369D01*
X288359Y624274D01*
X288424Y624181D01*
X288492Y624091D01*
X288563Y624003D01*
X288638Y623917D01*
X288715Y623834D01*
X288795Y623754D01*
X288878Y623677D01*
X288964Y623602D01*
X289052Y623531D01*
X289142Y623463D01*
X289235Y623398D01*
X289330Y623336D01*
X289427Y623278D01*
X289526Y623223D01*
X289627Y623172D01*
X289730Y623124D01*
X289834Y623079D01*
X289940Y623039D01*
X290047Y623002D01*
X290155Y622969D01*
X290265Y622939D01*
X290375Y622914D01*
X290486Y622892D01*
X290598Y622875D01*
X290711Y622861D01*
X290824Y622851D01*
X290937Y622845D01*
X291050Y622843D01*
X291163Y622845D01*
X291276Y622851D01*
X291389Y622861D01*
X291502Y622875D01*
X291614Y622892D01*
X291725Y622914D01*
X291835Y622939D01*
X291945Y622969D01*
X292053Y623002D01*
X292160Y623039D01*
X292266Y623079D01*
X292370Y623124D01*
X292473Y623172D01*
X292574Y623223D01*
X292673Y623278D01*
X292770Y623336D01*
X292865Y623398D01*
X292958Y623463D01*
X293048Y623531D01*
X293136Y623602D01*
X293222Y623677D01*
X293305Y623754D01*
X293385Y623834D01*
X293462Y623917D01*
X293537Y624003D01*
X293608Y624091D01*
X293676Y624181D01*
X293741Y624274D01*
X293803Y624369D01*
X293861Y624466D01*
X293916Y624565D01*
X293967Y624666D01*
X294015Y624769D01*
X294060Y624873D01*
X294100Y624979D01*
X294137Y625086D01*
X294170Y625194D01*
X294200Y625304D01*
X294225Y625414D01*
X294247Y625525D01*
X294264Y625637D01*
X294278Y625750D01*
X294288Y625863D01*
X294294Y625976D01*
X294296Y626089D01*
X294296Y634527D01*
X303186Y634527D02*
X303293Y634525D01*
X303399Y634519D01*
X303505Y634509D01*
X303611Y634496D01*
X303717Y634478D01*
X303821Y634457D01*
X303925Y634432D01*
X304028Y634403D01*
X304129Y634371D01*
X304229Y634334D01*
X304328Y634294D01*
X304426Y634251D01*
X304522Y634204D01*
X304616Y634153D01*
X304708Y634099D01*
X304798Y634042D01*
X304886Y633982D01*
X304971Y633918D01*
X305054Y633851D01*
X305135Y633781D01*
X305213Y633709D01*
X305289Y633633D01*
X305361Y633555D01*
X305431Y633474D01*
X305498Y633391D01*
X305562Y633306D01*
X305622Y633218D01*
X305679Y633128D01*
X305733Y633036D01*
X305784Y632942D01*
X305831Y632846D01*
X305874Y632748D01*
X305914Y632649D01*
X305951Y632549D01*
X305983Y632448D01*
X306012Y632345D01*
X306037Y632241D01*
X306058Y632137D01*
X306076Y632031D01*
X306089Y631925D01*
X306099Y631819D01*
X306105Y631713D01*
X306107Y631606D01*
X303186Y634528D02*
X303065Y634526D01*
X302944Y634520D01*
X302824Y634510D01*
X302703Y634497D01*
X302584Y634479D01*
X302464Y634458D01*
X302346Y634433D01*
X302229Y634404D01*
X302112Y634371D01*
X301997Y634335D01*
X301883Y634294D01*
X301770Y634251D01*
X301658Y634203D01*
X301549Y634152D01*
X301441Y634097D01*
X301334Y634039D01*
X301230Y633978D01*
X301128Y633913D01*
X301028Y633845D01*
X300930Y633774D01*
X300834Y633700D01*
X300741Y633623D01*
X300651Y633542D01*
X300563Y633459D01*
X300478Y633373D01*
X300395Y633284D01*
X300316Y633193D01*
X300239Y633099D01*
X300166Y633003D01*
X300096Y632905D01*
X300029Y632804D01*
X299965Y632701D01*
X299905Y632596D01*
X299848Y632489D01*
X299794Y632381D01*
X299744Y632271D01*
X299698Y632159D01*
X299655Y632046D01*
X299616Y631931D01*
X305133Y629334D02*
X305212Y629411D01*
X305288Y629492D01*
X305361Y629575D01*
X305431Y629660D01*
X305498Y629748D01*
X305562Y629838D01*
X305622Y629930D01*
X305679Y630025D01*
X305733Y630121D01*
X305784Y630219D01*
X305831Y630319D01*
X305875Y630421D01*
X305915Y630524D01*
X305951Y630628D01*
X305983Y630734D01*
X306012Y630840D01*
X306037Y630948D01*
X306059Y631056D01*
X306076Y631166D01*
X306090Y631275D01*
X306099Y631385D01*
X306105Y631496D01*
X306107Y631606D01*
X305133Y629334D02*
X299615Y622843D01*
X306107Y622843D01*
D28*
X131237Y443261D02*
X118537Y443261D01*
X131237Y443261D02*
X137587Y436911D01*
X137587Y424211D01*
X131237Y417861D01*
X112187Y424211D02*
X112187Y436911D01*
X118537Y443261D01*
X112187Y424211D02*
X118537Y417861D01*
X131237Y417861D01*
M02*
