G04 EAGLE Gerber RS-274X export*
G75*
%MOMM*%
%FSLAX34Y34*%
%LPD*%
%INSilkscreen Bottom*%
%IPPOS*%
%AMOC8*
5,1,8,0,0,1.08239X$1,22.5*%
G01*
%ADD10C,0.050800*%
%ADD11C,0.350000*%
%ADD12C,0.101600*%
%ADD13C,0.127000*%
%ADD14C,0.100000*%
%ADD15R,0.100000X0.300000*%
%ADD16R,0.600000X0.100000*%
%ADD17C,0.025400*%
%ADD18R,0.300000X0.100000*%
%ADD19R,0.100000X0.600000*%
%ADD20C,0.140000*%
%ADD21C,0.200000*%
%ADD22R,0.500000X0.200000*%
%ADD23R,0.100000X1.000000*%
%ADD24R,0.200000X0.500000*%
%ADD25R,1.000000X0.100000*%
%ADD26C,0.203200*%


D10*
X288410Y660533D02*
X286858Y660533D01*
X286858Y660532D02*
X286781Y660530D01*
X286703Y660524D01*
X286627Y660515D01*
X286550Y660501D01*
X286475Y660484D01*
X286401Y660463D01*
X286327Y660438D01*
X286255Y660410D01*
X286185Y660378D01*
X286116Y660343D01*
X286049Y660304D01*
X285984Y660262D01*
X285921Y660217D01*
X285860Y660169D01*
X285802Y660118D01*
X285747Y660064D01*
X285694Y660007D01*
X285645Y659948D01*
X285598Y659886D01*
X285554Y659822D01*
X285514Y659756D01*
X285477Y659688D01*
X285443Y659618D01*
X285413Y659547D01*
X285387Y659474D01*
X285364Y659400D01*
X285345Y659325D01*
X285330Y659250D01*
X285318Y659173D01*
X285310Y659096D01*
X285306Y659019D01*
X285306Y658941D01*
X285310Y658864D01*
X285318Y658787D01*
X285330Y658710D01*
X285345Y658635D01*
X285364Y658560D01*
X285387Y658486D01*
X285413Y658413D01*
X285443Y658342D01*
X285477Y658272D01*
X285514Y658204D01*
X285554Y658138D01*
X285598Y658074D01*
X285645Y658012D01*
X285694Y657953D01*
X285747Y657896D01*
X285802Y657842D01*
X285860Y657791D01*
X285921Y657743D01*
X285984Y657698D01*
X286049Y657656D01*
X286116Y657617D01*
X286185Y657582D01*
X286255Y657550D01*
X286327Y657522D01*
X286401Y657497D01*
X286475Y657476D01*
X286550Y657459D01*
X286627Y657445D01*
X286703Y657436D01*
X286781Y657430D01*
X286858Y657428D01*
X288410Y657428D01*
X288410Y663016D01*
X286858Y663016D01*
X286788Y663014D01*
X286719Y663008D01*
X286650Y662998D01*
X286582Y662985D01*
X286514Y662967D01*
X286448Y662946D01*
X286383Y662921D01*
X286319Y662893D01*
X286257Y662861D01*
X286197Y662826D01*
X286139Y662787D01*
X286084Y662745D01*
X286030Y662700D01*
X285980Y662652D01*
X285932Y662602D01*
X285887Y662548D01*
X285845Y662493D01*
X285806Y662435D01*
X285771Y662375D01*
X285739Y662313D01*
X285711Y662249D01*
X285686Y662184D01*
X285665Y662118D01*
X285647Y662050D01*
X285634Y661982D01*
X285624Y661913D01*
X285618Y661844D01*
X285616Y661774D01*
X285618Y661704D01*
X285624Y661635D01*
X285634Y661566D01*
X285647Y661498D01*
X285665Y661430D01*
X285686Y661364D01*
X285711Y661299D01*
X285739Y661235D01*
X285771Y661173D01*
X285806Y661113D01*
X285845Y661055D01*
X285887Y661000D01*
X285932Y660946D01*
X285980Y660896D01*
X286030Y660848D01*
X286084Y660803D01*
X286139Y660761D01*
X286197Y660722D01*
X286257Y660687D01*
X286319Y660655D01*
X286383Y660627D01*
X286448Y660602D01*
X286514Y660581D01*
X286582Y660563D01*
X286650Y660550D01*
X286719Y660540D01*
X286788Y660534D01*
X286858Y660532D01*
X282003Y663016D02*
X282003Y657428D01*
X283555Y663016D02*
X280451Y663016D01*
X277161Y663637D02*
X277251Y663526D01*
X277339Y663413D01*
X277423Y663298D01*
X277504Y663181D01*
X277581Y663061D01*
X277656Y662939D01*
X277727Y662816D01*
X277795Y662691D01*
X277860Y662563D01*
X277921Y662434D01*
X277978Y662304D01*
X278032Y662172D01*
X278083Y662039D01*
X278130Y661904D01*
X278173Y661768D01*
X278213Y661631D01*
X278249Y661493D01*
X278281Y661354D01*
X278310Y661214D01*
X278334Y661074D01*
X278355Y660933D01*
X278372Y660791D01*
X278386Y660649D01*
X278395Y660507D01*
X278401Y660365D01*
X278403Y660222D01*
X278401Y660079D01*
X278395Y659937D01*
X278386Y659795D01*
X278372Y659653D01*
X278355Y659511D01*
X278334Y659370D01*
X278310Y659230D01*
X278281Y659090D01*
X278249Y658951D01*
X278213Y658813D01*
X278173Y658676D01*
X278130Y658540D01*
X278083Y658405D01*
X278032Y658272D01*
X277978Y658140D01*
X277921Y658010D01*
X277860Y657881D01*
X277795Y657753D01*
X277727Y657628D01*
X277656Y657505D01*
X277581Y657383D01*
X277504Y657263D01*
X277423Y657146D01*
X277339Y657031D01*
X277251Y656918D01*
X277161Y656807D01*
X274960Y658980D02*
X274958Y659057D01*
X274952Y659135D01*
X274943Y659211D01*
X274929Y659288D01*
X274912Y659363D01*
X274891Y659437D01*
X274866Y659511D01*
X274838Y659583D01*
X274806Y659653D01*
X274771Y659722D01*
X274732Y659789D01*
X274690Y659854D01*
X274645Y659917D01*
X274597Y659978D01*
X274546Y660036D01*
X274492Y660091D01*
X274435Y660144D01*
X274376Y660193D01*
X274314Y660240D01*
X274250Y660284D01*
X274184Y660324D01*
X274116Y660361D01*
X274046Y660395D01*
X273975Y660425D01*
X273902Y660451D01*
X273828Y660474D01*
X273753Y660493D01*
X273678Y660508D01*
X273601Y660520D01*
X273524Y660528D01*
X273447Y660532D01*
X273369Y660532D01*
X273292Y660528D01*
X273215Y660520D01*
X273138Y660508D01*
X273063Y660493D01*
X272988Y660474D01*
X272914Y660451D01*
X272841Y660425D01*
X272770Y660395D01*
X272700Y660361D01*
X272632Y660324D01*
X272566Y660284D01*
X272502Y660240D01*
X272440Y660193D01*
X272381Y660144D01*
X272324Y660091D01*
X272270Y660036D01*
X272219Y659978D01*
X272171Y659917D01*
X272126Y659854D01*
X272084Y659789D01*
X272045Y659722D01*
X272010Y659653D01*
X271978Y659583D01*
X271950Y659511D01*
X271925Y659437D01*
X271904Y659363D01*
X271887Y659288D01*
X271873Y659211D01*
X271864Y659135D01*
X271858Y659057D01*
X271856Y658980D01*
X271858Y658903D01*
X271864Y658825D01*
X271873Y658749D01*
X271887Y658672D01*
X271904Y658597D01*
X271925Y658523D01*
X271950Y658449D01*
X271978Y658377D01*
X272010Y658307D01*
X272045Y658238D01*
X272084Y658171D01*
X272126Y658106D01*
X272171Y658043D01*
X272219Y657982D01*
X272270Y657924D01*
X272324Y657869D01*
X272381Y657816D01*
X272440Y657767D01*
X272502Y657720D01*
X272566Y657676D01*
X272632Y657636D01*
X272700Y657599D01*
X272770Y657565D01*
X272841Y657535D01*
X272914Y657509D01*
X272988Y657486D01*
X273063Y657467D01*
X273138Y657452D01*
X273215Y657440D01*
X273292Y657432D01*
X273369Y657428D01*
X273447Y657428D01*
X273524Y657432D01*
X273601Y657440D01*
X273678Y657452D01*
X273753Y657467D01*
X273828Y657486D01*
X273902Y657509D01*
X273975Y657535D01*
X274046Y657565D01*
X274116Y657599D01*
X274184Y657636D01*
X274250Y657676D01*
X274314Y657720D01*
X274376Y657767D01*
X274435Y657816D01*
X274492Y657869D01*
X274546Y657924D01*
X274597Y657982D01*
X274645Y658043D01*
X274690Y658106D01*
X274732Y658171D01*
X274771Y658238D01*
X274806Y658307D01*
X274838Y658377D01*
X274866Y658449D01*
X274891Y658523D01*
X274912Y658597D01*
X274929Y658672D01*
X274943Y658749D01*
X274952Y658825D01*
X274958Y658903D01*
X274960Y658980D01*
X274650Y661774D02*
X274648Y661844D01*
X274642Y661913D01*
X274632Y661982D01*
X274619Y662050D01*
X274601Y662118D01*
X274580Y662184D01*
X274555Y662249D01*
X274527Y662313D01*
X274495Y662375D01*
X274460Y662435D01*
X274421Y662493D01*
X274379Y662548D01*
X274334Y662602D01*
X274286Y662652D01*
X274236Y662700D01*
X274182Y662745D01*
X274127Y662787D01*
X274069Y662826D01*
X274009Y662861D01*
X273947Y662893D01*
X273883Y662921D01*
X273818Y662946D01*
X273752Y662967D01*
X273684Y662985D01*
X273616Y662998D01*
X273547Y663008D01*
X273478Y663014D01*
X273408Y663016D01*
X273338Y663014D01*
X273269Y663008D01*
X273200Y662998D01*
X273132Y662985D01*
X273064Y662967D01*
X272998Y662946D01*
X272933Y662921D01*
X272869Y662893D01*
X272807Y662861D01*
X272747Y662826D01*
X272689Y662787D01*
X272634Y662745D01*
X272580Y662700D01*
X272530Y662652D01*
X272482Y662602D01*
X272437Y662548D01*
X272395Y662493D01*
X272356Y662435D01*
X272321Y662375D01*
X272289Y662313D01*
X272261Y662249D01*
X272236Y662184D01*
X272215Y662118D01*
X272197Y662050D01*
X272184Y661982D01*
X272174Y661913D01*
X272168Y661844D01*
X272166Y661774D01*
X272168Y661704D01*
X272174Y661635D01*
X272184Y661566D01*
X272197Y661498D01*
X272215Y661430D01*
X272236Y661364D01*
X272261Y661299D01*
X272289Y661235D01*
X272321Y661173D01*
X272356Y661113D01*
X272395Y661055D01*
X272437Y661000D01*
X272482Y660946D01*
X272530Y660896D01*
X272580Y660848D01*
X272634Y660803D01*
X272689Y660761D01*
X272747Y660722D01*
X272807Y660687D01*
X272869Y660655D01*
X272933Y660627D01*
X272998Y660602D01*
X273064Y660581D01*
X273132Y660563D01*
X273200Y660550D01*
X273269Y660540D01*
X273338Y660534D01*
X273408Y660532D01*
X273478Y660534D01*
X273547Y660540D01*
X273616Y660550D01*
X273684Y660563D01*
X273752Y660581D01*
X273818Y660602D01*
X273883Y660627D01*
X273947Y660655D01*
X274009Y660687D01*
X274069Y660722D01*
X274127Y660761D01*
X274182Y660803D01*
X274236Y660848D01*
X274286Y660896D01*
X274334Y660946D01*
X274379Y661000D01*
X274421Y661055D01*
X274460Y661113D01*
X274495Y661173D01*
X274527Y661235D01*
X274555Y661299D01*
X274580Y661364D01*
X274601Y661430D01*
X274619Y661498D01*
X274632Y661566D01*
X274642Y661635D01*
X274648Y661704D01*
X274650Y661774D01*
X268413Y660222D02*
X268415Y660079D01*
X268421Y659937D01*
X268430Y659795D01*
X268444Y659653D01*
X268461Y659511D01*
X268482Y659370D01*
X268506Y659230D01*
X268535Y659090D01*
X268567Y658951D01*
X268603Y658813D01*
X268643Y658676D01*
X268686Y658540D01*
X268733Y658405D01*
X268784Y658272D01*
X268838Y658140D01*
X268895Y658010D01*
X268956Y657881D01*
X269021Y657753D01*
X269089Y657628D01*
X269160Y657505D01*
X269235Y657383D01*
X269312Y657263D01*
X269393Y657146D01*
X269477Y657031D01*
X269565Y656918D01*
X269655Y656807D01*
X268413Y660222D02*
X268415Y660365D01*
X268421Y660507D01*
X268430Y660649D01*
X268444Y660791D01*
X268461Y660933D01*
X268482Y661074D01*
X268506Y661214D01*
X268535Y661354D01*
X268567Y661493D01*
X268603Y661631D01*
X268643Y661768D01*
X268686Y661904D01*
X268733Y662039D01*
X268784Y662172D01*
X268838Y662304D01*
X268895Y662434D01*
X268956Y662563D01*
X269021Y662691D01*
X269089Y662816D01*
X269160Y662939D01*
X269235Y663061D01*
X269312Y663181D01*
X269393Y663298D01*
X269477Y663413D01*
X269565Y663526D01*
X269655Y663637D01*
X264757Y663016D02*
X265999Y658670D01*
X262895Y658670D01*
X263826Y659912D02*
X263826Y657428D01*
X260513Y660222D02*
X260511Y660353D01*
X260506Y660483D01*
X260496Y660613D01*
X260483Y660743D01*
X260467Y660873D01*
X260447Y661002D01*
X260423Y661130D01*
X260395Y661257D01*
X260364Y661384D01*
X260329Y661510D01*
X260291Y661635D01*
X260249Y661759D01*
X260204Y661881D01*
X260155Y662002D01*
X260103Y662122D01*
X260047Y662240D01*
X260048Y662241D02*
X260025Y662301D01*
X259999Y662361D01*
X259970Y662418D01*
X259937Y662474D01*
X259901Y662528D01*
X259863Y662580D01*
X259821Y662630D01*
X259777Y662677D01*
X259730Y662722D01*
X259680Y662764D01*
X259629Y662803D01*
X259575Y662839D01*
X259519Y662872D01*
X259462Y662902D01*
X259403Y662929D01*
X259342Y662952D01*
X259281Y662972D01*
X259218Y662988D01*
X259154Y663001D01*
X259090Y663010D01*
X259026Y663015D01*
X258961Y663017D01*
X258896Y663015D01*
X258832Y663010D01*
X258768Y663001D01*
X258704Y662988D01*
X258641Y662972D01*
X258580Y662952D01*
X258519Y662929D01*
X258460Y662902D01*
X258403Y662872D01*
X258347Y662839D01*
X258293Y662803D01*
X258242Y662764D01*
X258192Y662722D01*
X258145Y662677D01*
X258101Y662630D01*
X258059Y662580D01*
X258021Y662528D01*
X257985Y662474D01*
X257952Y662418D01*
X257923Y662361D01*
X257897Y662301D01*
X257874Y662241D01*
X257874Y662240D02*
X257818Y662122D01*
X257766Y662002D01*
X257717Y661881D01*
X257672Y661759D01*
X257630Y661635D01*
X257592Y661510D01*
X257557Y661384D01*
X257526Y661258D01*
X257498Y661130D01*
X257474Y661002D01*
X257454Y660873D01*
X257438Y660743D01*
X257425Y660613D01*
X257415Y660483D01*
X257410Y660353D01*
X257408Y660222D01*
X260513Y660222D02*
X260511Y660091D01*
X260506Y659961D01*
X260496Y659831D01*
X260483Y659701D01*
X260467Y659571D01*
X260447Y659443D01*
X260423Y659314D01*
X260395Y659187D01*
X260364Y659060D01*
X260329Y658934D01*
X260291Y658809D01*
X260249Y658686D01*
X260204Y658563D01*
X260155Y658442D01*
X260103Y658322D01*
X260047Y658204D01*
X260048Y658204D02*
X260025Y658144D01*
X259999Y658084D01*
X259970Y658027D01*
X259937Y657971D01*
X259901Y657917D01*
X259863Y657865D01*
X259821Y657815D01*
X259777Y657768D01*
X259730Y657723D01*
X259680Y657681D01*
X259629Y657642D01*
X259575Y657606D01*
X259519Y657573D01*
X259462Y657543D01*
X259403Y657516D01*
X259342Y657493D01*
X259281Y657473D01*
X259218Y657457D01*
X259154Y657444D01*
X259090Y657435D01*
X259026Y657430D01*
X258961Y657428D01*
X257874Y658204D02*
X257818Y658322D01*
X257766Y658442D01*
X257717Y658563D01*
X257672Y658685D01*
X257630Y658809D01*
X257592Y658934D01*
X257557Y659060D01*
X257526Y659186D01*
X257498Y659314D01*
X257474Y659442D01*
X257454Y659571D01*
X257438Y659701D01*
X257425Y659831D01*
X257415Y659961D01*
X257410Y660091D01*
X257408Y660222D01*
X257874Y658204D02*
X257897Y658144D01*
X257923Y658084D01*
X257952Y658027D01*
X257985Y657971D01*
X258021Y657917D01*
X258059Y657865D01*
X258101Y657815D01*
X258145Y657768D01*
X258192Y657723D01*
X258242Y657681D01*
X258293Y657642D01*
X258347Y657606D01*
X258403Y657573D01*
X258460Y657543D01*
X258519Y657516D01*
X258580Y657493D01*
X258641Y657473D01*
X258704Y657457D01*
X258768Y657444D01*
X258832Y657435D01*
X258896Y657430D01*
X258961Y657428D01*
X260202Y658670D02*
X257719Y661774D01*
X252045Y659601D02*
X248320Y659601D01*
X250182Y657739D02*
X250182Y661464D01*
X243267Y657428D02*
X241404Y663016D01*
X239542Y657428D01*
X240007Y658825D02*
X242801Y658825D01*
X237287Y657428D02*
X237287Y663016D01*
X235735Y663016D01*
X235659Y663014D01*
X235583Y663009D01*
X235507Y662999D01*
X235432Y662986D01*
X235358Y662969D01*
X235284Y662949D01*
X235212Y662925D01*
X235141Y662898D01*
X235071Y662867D01*
X235003Y662833D01*
X234937Y662795D01*
X234873Y662754D01*
X234810Y662711D01*
X234750Y662664D01*
X234693Y662614D01*
X234638Y662561D01*
X234585Y662506D01*
X234535Y662449D01*
X234488Y662389D01*
X234445Y662326D01*
X234404Y662262D01*
X234366Y662196D01*
X234332Y662128D01*
X234301Y662058D01*
X234274Y661987D01*
X234250Y661915D01*
X234230Y661841D01*
X234213Y661767D01*
X234200Y661692D01*
X234190Y661616D01*
X234185Y661540D01*
X234183Y661464D01*
X234183Y658980D01*
X234185Y658904D01*
X234190Y658828D01*
X234200Y658752D01*
X234213Y658677D01*
X234230Y658603D01*
X234250Y658529D01*
X234274Y658457D01*
X234301Y658386D01*
X234332Y658316D01*
X234366Y658248D01*
X234404Y658182D01*
X234445Y658118D01*
X234488Y658055D01*
X234535Y657995D01*
X234585Y657938D01*
X234638Y657883D01*
X234693Y657830D01*
X234750Y657780D01*
X234810Y657733D01*
X234873Y657690D01*
X234937Y657649D01*
X235003Y657611D01*
X235071Y657577D01*
X235141Y657546D01*
X235212Y657519D01*
X235284Y657495D01*
X235358Y657475D01*
X235432Y657458D01*
X235507Y657445D01*
X235583Y657435D01*
X235659Y657430D01*
X235735Y657428D01*
X237287Y657428D01*
X229938Y657428D02*
X229868Y657430D01*
X229799Y657436D01*
X229730Y657446D01*
X229662Y657459D01*
X229594Y657477D01*
X229528Y657498D01*
X229463Y657523D01*
X229399Y657551D01*
X229337Y657583D01*
X229277Y657618D01*
X229219Y657657D01*
X229164Y657699D01*
X229110Y657744D01*
X229060Y657792D01*
X229012Y657842D01*
X228967Y657896D01*
X228925Y657951D01*
X228886Y658009D01*
X228851Y658069D01*
X228819Y658131D01*
X228791Y658195D01*
X228766Y658260D01*
X228745Y658326D01*
X228727Y658394D01*
X228714Y658462D01*
X228704Y658531D01*
X228698Y658600D01*
X228696Y658670D01*
X229938Y657429D02*
X230037Y657431D01*
X230135Y657436D01*
X230233Y657446D01*
X230331Y657459D01*
X230428Y657475D01*
X230525Y657495D01*
X230620Y657519D01*
X230715Y657547D01*
X230809Y657578D01*
X230901Y657612D01*
X230992Y657650D01*
X231082Y657691D01*
X231170Y657736D01*
X231256Y657784D01*
X231340Y657835D01*
X231422Y657889D01*
X231503Y657947D01*
X231581Y658007D01*
X231656Y658070D01*
X231730Y658136D01*
X231800Y658205D01*
X231646Y661774D02*
X231644Y661844D01*
X231638Y661913D01*
X231628Y661982D01*
X231615Y662050D01*
X231597Y662118D01*
X231576Y662184D01*
X231551Y662249D01*
X231523Y662313D01*
X231491Y662375D01*
X231456Y662435D01*
X231417Y662493D01*
X231375Y662548D01*
X231330Y662602D01*
X231282Y662652D01*
X231232Y662700D01*
X231178Y662745D01*
X231123Y662787D01*
X231065Y662826D01*
X231005Y662861D01*
X230943Y662893D01*
X230879Y662921D01*
X230814Y662946D01*
X230748Y662967D01*
X230680Y662985D01*
X230612Y662998D01*
X230543Y663008D01*
X230474Y663014D01*
X230404Y663016D01*
X230310Y663014D01*
X230217Y663008D01*
X230124Y662999D01*
X230031Y662986D01*
X229939Y662969D01*
X229848Y662949D01*
X229757Y662924D01*
X229668Y662897D01*
X229580Y662865D01*
X229493Y662830D01*
X229407Y662792D01*
X229324Y662750D01*
X229241Y662705D01*
X229161Y662657D01*
X229083Y662605D01*
X229007Y662550D01*
X231024Y660688D02*
X231083Y660724D01*
X231139Y660764D01*
X231193Y660807D01*
X231245Y660852D01*
X231294Y660901D01*
X231340Y660952D01*
X231383Y661005D01*
X231424Y661061D01*
X231461Y661119D01*
X231496Y661179D01*
X231526Y661240D01*
X231554Y661303D01*
X231578Y661368D01*
X231598Y661434D01*
X231615Y661501D01*
X231628Y661568D01*
X231637Y661636D01*
X231643Y661705D01*
X231645Y661774D01*
X229318Y659756D02*
X229259Y659720D01*
X229203Y659680D01*
X229149Y659637D01*
X229097Y659592D01*
X229048Y659543D01*
X229002Y659492D01*
X228959Y659439D01*
X228918Y659383D01*
X228881Y659325D01*
X228846Y659266D01*
X228816Y659204D01*
X228788Y659141D01*
X228764Y659076D01*
X228744Y659010D01*
X228727Y658943D01*
X228714Y658876D01*
X228705Y658808D01*
X228699Y658739D01*
X228697Y658670D01*
X229317Y659756D02*
X231025Y660688D01*
X226497Y661774D02*
X224945Y663016D01*
X224945Y657428D01*
X226497Y657428D02*
X223393Y657428D01*
X221011Y657428D02*
X219459Y657428D01*
X219382Y657430D01*
X219304Y657436D01*
X219228Y657445D01*
X219151Y657459D01*
X219076Y657476D01*
X219002Y657497D01*
X218928Y657522D01*
X218856Y657550D01*
X218786Y657582D01*
X218717Y657617D01*
X218650Y657656D01*
X218585Y657698D01*
X218522Y657743D01*
X218461Y657791D01*
X218403Y657842D01*
X218348Y657896D01*
X218295Y657953D01*
X218246Y658012D01*
X218199Y658074D01*
X218155Y658138D01*
X218115Y658204D01*
X218078Y658272D01*
X218044Y658342D01*
X218014Y658413D01*
X217988Y658486D01*
X217965Y658560D01*
X217946Y658635D01*
X217931Y658710D01*
X217919Y658787D01*
X217911Y658864D01*
X217907Y658941D01*
X217907Y659019D01*
X217911Y659096D01*
X217919Y659173D01*
X217931Y659250D01*
X217946Y659325D01*
X217965Y659400D01*
X217988Y659474D01*
X218014Y659547D01*
X218044Y659618D01*
X218078Y659688D01*
X218115Y659756D01*
X218155Y659822D01*
X218199Y659886D01*
X218246Y659948D01*
X218295Y660007D01*
X218348Y660064D01*
X218403Y660118D01*
X218461Y660169D01*
X218522Y660217D01*
X218585Y660262D01*
X218650Y660304D01*
X218717Y660343D01*
X218786Y660378D01*
X218856Y660410D01*
X218928Y660438D01*
X219002Y660463D01*
X219076Y660484D01*
X219151Y660501D01*
X219228Y660515D01*
X219304Y660524D01*
X219382Y660530D01*
X219459Y660532D01*
X219148Y663016D02*
X221011Y663016D01*
X219148Y663016D02*
X219078Y663014D01*
X219009Y663008D01*
X218940Y662998D01*
X218872Y662985D01*
X218804Y662967D01*
X218738Y662946D01*
X218673Y662921D01*
X218609Y662893D01*
X218547Y662861D01*
X218487Y662826D01*
X218429Y662787D01*
X218374Y662745D01*
X218320Y662700D01*
X218270Y662652D01*
X218222Y662602D01*
X218177Y662548D01*
X218135Y662493D01*
X218096Y662435D01*
X218061Y662375D01*
X218029Y662313D01*
X218001Y662249D01*
X217976Y662184D01*
X217955Y662118D01*
X217937Y662050D01*
X217924Y661982D01*
X217914Y661913D01*
X217908Y661844D01*
X217906Y661774D01*
X217908Y661704D01*
X217914Y661635D01*
X217924Y661566D01*
X217937Y661498D01*
X217955Y661430D01*
X217976Y661364D01*
X218001Y661299D01*
X218029Y661235D01*
X218061Y661173D01*
X218096Y661113D01*
X218135Y661055D01*
X218177Y661000D01*
X218222Y660946D01*
X218270Y660896D01*
X218320Y660848D01*
X218374Y660803D01*
X218429Y660761D01*
X218487Y660722D01*
X218547Y660687D01*
X218609Y660655D01*
X218673Y660627D01*
X218738Y660602D01*
X218804Y660581D01*
X218872Y660563D01*
X218940Y660550D01*
X219009Y660540D01*
X219078Y660534D01*
X219148Y660532D01*
X219148Y660533D02*
X220390Y660533D01*
X215525Y661774D02*
X213972Y663016D01*
X213972Y657428D01*
X212420Y657428D02*
X215525Y657428D01*
X209800Y657428D02*
X209800Y663016D01*
X207937Y659912D01*
X206075Y663016D01*
X206075Y657428D01*
X203455Y660222D02*
X203453Y660353D01*
X203448Y660483D01*
X203438Y660613D01*
X203425Y660743D01*
X203409Y660873D01*
X203389Y661002D01*
X203365Y661130D01*
X203337Y661257D01*
X203306Y661384D01*
X203271Y661510D01*
X203233Y661635D01*
X203191Y661759D01*
X203146Y661881D01*
X203097Y662002D01*
X203045Y662122D01*
X202989Y662240D01*
X202989Y662241D02*
X202966Y662301D01*
X202940Y662361D01*
X202911Y662418D01*
X202878Y662474D01*
X202842Y662528D01*
X202804Y662580D01*
X202762Y662630D01*
X202718Y662677D01*
X202671Y662722D01*
X202621Y662764D01*
X202570Y662803D01*
X202516Y662839D01*
X202460Y662872D01*
X202403Y662902D01*
X202344Y662929D01*
X202283Y662952D01*
X202222Y662972D01*
X202159Y662988D01*
X202095Y663001D01*
X202031Y663010D01*
X201967Y663015D01*
X201902Y663017D01*
X201837Y663015D01*
X201773Y663010D01*
X201709Y663001D01*
X201645Y662988D01*
X201582Y662972D01*
X201521Y662952D01*
X201460Y662929D01*
X201401Y662902D01*
X201344Y662872D01*
X201288Y662839D01*
X201234Y662803D01*
X201183Y662764D01*
X201133Y662722D01*
X201086Y662677D01*
X201042Y662630D01*
X201000Y662580D01*
X200962Y662528D01*
X200926Y662474D01*
X200893Y662418D01*
X200864Y662361D01*
X200838Y662301D01*
X200815Y662241D01*
X200816Y662240D02*
X200760Y662122D01*
X200708Y662002D01*
X200659Y661881D01*
X200614Y661759D01*
X200572Y661635D01*
X200534Y661510D01*
X200499Y661384D01*
X200468Y661258D01*
X200440Y661130D01*
X200416Y661002D01*
X200396Y660873D01*
X200380Y660743D01*
X200367Y660613D01*
X200357Y660483D01*
X200352Y660353D01*
X200350Y660222D01*
X203454Y660222D02*
X203452Y660091D01*
X203447Y659961D01*
X203437Y659831D01*
X203424Y659701D01*
X203408Y659571D01*
X203388Y659443D01*
X203364Y659314D01*
X203336Y659187D01*
X203305Y659060D01*
X203270Y658934D01*
X203232Y658809D01*
X203190Y658686D01*
X203145Y658563D01*
X203096Y658442D01*
X203044Y658322D01*
X202988Y658204D01*
X202989Y658204D02*
X202966Y658144D01*
X202940Y658084D01*
X202911Y658027D01*
X202878Y657971D01*
X202842Y657917D01*
X202804Y657865D01*
X202762Y657815D01*
X202718Y657768D01*
X202671Y657723D01*
X202621Y657681D01*
X202570Y657642D01*
X202516Y657606D01*
X202460Y657573D01*
X202403Y657543D01*
X202344Y657516D01*
X202283Y657493D01*
X202222Y657473D01*
X202159Y657457D01*
X202095Y657444D01*
X202031Y657435D01*
X201967Y657430D01*
X201902Y657428D01*
X200816Y658204D02*
X200760Y658322D01*
X200708Y658442D01*
X200659Y658563D01*
X200614Y658685D01*
X200572Y658809D01*
X200534Y658934D01*
X200499Y659060D01*
X200468Y659186D01*
X200440Y659314D01*
X200416Y659442D01*
X200396Y659571D01*
X200380Y659701D01*
X200367Y659831D01*
X200357Y659961D01*
X200352Y660091D01*
X200350Y660222D01*
X200815Y658204D02*
X200838Y658144D01*
X200864Y658084D01*
X200893Y658027D01*
X200926Y657971D01*
X200962Y657917D01*
X201000Y657865D01*
X201042Y657815D01*
X201086Y657768D01*
X201133Y657723D01*
X201183Y657681D01*
X201234Y657642D01*
X201288Y657606D01*
X201344Y657573D01*
X201401Y657543D01*
X201460Y657516D01*
X201521Y657493D01*
X201582Y657473D01*
X201645Y657457D01*
X201709Y657444D01*
X201773Y657435D01*
X201837Y657430D01*
X201902Y657428D01*
X203144Y658670D02*
X200660Y661774D01*
X197968Y658980D02*
X197966Y659057D01*
X197960Y659135D01*
X197951Y659211D01*
X197937Y659288D01*
X197920Y659363D01*
X197899Y659437D01*
X197874Y659511D01*
X197846Y659583D01*
X197814Y659653D01*
X197779Y659722D01*
X197740Y659789D01*
X197698Y659854D01*
X197653Y659917D01*
X197605Y659978D01*
X197554Y660036D01*
X197500Y660091D01*
X197443Y660144D01*
X197384Y660193D01*
X197322Y660240D01*
X197258Y660284D01*
X197192Y660324D01*
X197124Y660361D01*
X197054Y660395D01*
X196983Y660425D01*
X196910Y660451D01*
X196836Y660474D01*
X196761Y660493D01*
X196686Y660508D01*
X196609Y660520D01*
X196532Y660528D01*
X196455Y660532D01*
X196377Y660532D01*
X196300Y660528D01*
X196223Y660520D01*
X196146Y660508D01*
X196071Y660493D01*
X195996Y660474D01*
X195922Y660451D01*
X195849Y660425D01*
X195778Y660395D01*
X195708Y660361D01*
X195640Y660324D01*
X195574Y660284D01*
X195510Y660240D01*
X195448Y660193D01*
X195389Y660144D01*
X195332Y660091D01*
X195278Y660036D01*
X195227Y659978D01*
X195179Y659917D01*
X195134Y659854D01*
X195092Y659789D01*
X195053Y659722D01*
X195018Y659653D01*
X194986Y659583D01*
X194958Y659511D01*
X194933Y659437D01*
X194912Y659363D01*
X194895Y659288D01*
X194881Y659211D01*
X194872Y659135D01*
X194866Y659057D01*
X194864Y658980D01*
X194866Y658903D01*
X194872Y658825D01*
X194881Y658749D01*
X194895Y658672D01*
X194912Y658597D01*
X194933Y658523D01*
X194958Y658449D01*
X194986Y658377D01*
X195018Y658307D01*
X195053Y658238D01*
X195092Y658171D01*
X195134Y658106D01*
X195179Y658043D01*
X195227Y657982D01*
X195278Y657924D01*
X195332Y657869D01*
X195389Y657816D01*
X195448Y657767D01*
X195510Y657720D01*
X195574Y657676D01*
X195640Y657636D01*
X195708Y657599D01*
X195778Y657565D01*
X195849Y657535D01*
X195922Y657509D01*
X195996Y657486D01*
X196071Y657467D01*
X196146Y657452D01*
X196223Y657440D01*
X196300Y657432D01*
X196377Y657428D01*
X196455Y657428D01*
X196532Y657432D01*
X196609Y657440D01*
X196686Y657452D01*
X196761Y657467D01*
X196836Y657486D01*
X196910Y657509D01*
X196983Y657535D01*
X197054Y657565D01*
X197124Y657599D01*
X197192Y657636D01*
X197258Y657676D01*
X197322Y657720D01*
X197384Y657767D01*
X197443Y657816D01*
X197500Y657869D01*
X197554Y657924D01*
X197605Y657982D01*
X197653Y658043D01*
X197698Y658106D01*
X197740Y658171D01*
X197779Y658238D01*
X197814Y658307D01*
X197846Y658377D01*
X197874Y658449D01*
X197899Y658523D01*
X197920Y658597D01*
X197937Y658672D01*
X197951Y658749D01*
X197960Y658825D01*
X197966Y658903D01*
X197968Y658980D01*
X197658Y661774D02*
X197656Y661844D01*
X197650Y661913D01*
X197640Y661982D01*
X197627Y662050D01*
X197609Y662118D01*
X197588Y662184D01*
X197563Y662249D01*
X197535Y662313D01*
X197503Y662375D01*
X197468Y662435D01*
X197429Y662493D01*
X197387Y662548D01*
X197342Y662602D01*
X197294Y662652D01*
X197244Y662700D01*
X197190Y662745D01*
X197135Y662787D01*
X197077Y662826D01*
X197017Y662861D01*
X196955Y662893D01*
X196891Y662921D01*
X196826Y662946D01*
X196760Y662967D01*
X196692Y662985D01*
X196624Y662998D01*
X196555Y663008D01*
X196486Y663014D01*
X196416Y663016D01*
X196346Y663014D01*
X196277Y663008D01*
X196208Y662998D01*
X196140Y662985D01*
X196072Y662967D01*
X196006Y662946D01*
X195941Y662921D01*
X195877Y662893D01*
X195815Y662861D01*
X195755Y662826D01*
X195697Y662787D01*
X195642Y662745D01*
X195588Y662700D01*
X195538Y662652D01*
X195490Y662602D01*
X195445Y662548D01*
X195403Y662493D01*
X195364Y662435D01*
X195329Y662375D01*
X195297Y662313D01*
X195269Y662249D01*
X195244Y662184D01*
X195223Y662118D01*
X195205Y662050D01*
X195192Y661982D01*
X195182Y661913D01*
X195176Y661844D01*
X195174Y661774D01*
X195176Y661704D01*
X195182Y661635D01*
X195192Y661566D01*
X195205Y661498D01*
X195223Y661430D01*
X195244Y661364D01*
X195269Y661299D01*
X195297Y661235D01*
X195329Y661173D01*
X195364Y661113D01*
X195403Y661055D01*
X195445Y661000D01*
X195490Y660946D01*
X195538Y660896D01*
X195588Y660848D01*
X195642Y660803D01*
X195697Y660761D01*
X195755Y660722D01*
X195815Y660687D01*
X195877Y660655D01*
X195941Y660627D01*
X196006Y660602D01*
X196072Y660581D01*
X196140Y660563D01*
X196208Y660550D01*
X196277Y660540D01*
X196346Y660534D01*
X196416Y660532D01*
X196486Y660534D01*
X196555Y660540D01*
X196624Y660550D01*
X196692Y660563D01*
X196760Y660581D01*
X196826Y660602D01*
X196891Y660627D01*
X196955Y660655D01*
X197017Y660687D01*
X197077Y660722D01*
X197135Y660761D01*
X197190Y660803D01*
X197244Y660848D01*
X197294Y660896D01*
X197342Y660946D01*
X197387Y661000D01*
X197429Y661055D01*
X197468Y661113D01*
X197503Y661173D01*
X197535Y661235D01*
X197563Y661299D01*
X197588Y661364D01*
X197609Y661430D01*
X197627Y661498D01*
X197640Y661566D01*
X197650Y661635D01*
X197656Y661704D01*
X197658Y661774D01*
X281526Y653872D02*
X281526Y649526D01*
X281525Y649526D02*
X281527Y649456D01*
X281533Y649387D01*
X281543Y649318D01*
X281556Y649250D01*
X281574Y649182D01*
X281595Y649116D01*
X281620Y649051D01*
X281648Y648987D01*
X281680Y648925D01*
X281715Y648865D01*
X281754Y648807D01*
X281796Y648752D01*
X281841Y648698D01*
X281889Y648648D01*
X281939Y648600D01*
X281993Y648555D01*
X282048Y648513D01*
X282106Y648474D01*
X282166Y648439D01*
X282228Y648407D01*
X282292Y648379D01*
X282357Y648354D01*
X282423Y648333D01*
X282491Y648315D01*
X282559Y648302D01*
X282628Y648292D01*
X282697Y648286D01*
X282767Y648284D01*
X283388Y648284D01*
X278984Y649836D02*
X278984Y652320D01*
X278983Y652320D02*
X278981Y652397D01*
X278975Y652475D01*
X278966Y652551D01*
X278952Y652628D01*
X278935Y652703D01*
X278914Y652777D01*
X278889Y652851D01*
X278861Y652923D01*
X278829Y652993D01*
X278794Y653062D01*
X278755Y653129D01*
X278713Y653194D01*
X278668Y653257D01*
X278620Y653318D01*
X278569Y653376D01*
X278515Y653431D01*
X278458Y653484D01*
X278399Y653533D01*
X278337Y653580D01*
X278273Y653624D01*
X278207Y653664D01*
X278139Y653701D01*
X278069Y653735D01*
X277998Y653765D01*
X277925Y653791D01*
X277851Y653814D01*
X277776Y653833D01*
X277701Y653848D01*
X277624Y653860D01*
X277547Y653868D01*
X277470Y653872D01*
X277392Y653872D01*
X277315Y653868D01*
X277238Y653860D01*
X277161Y653848D01*
X277086Y653833D01*
X277011Y653814D01*
X276937Y653791D01*
X276864Y653765D01*
X276793Y653735D01*
X276723Y653701D01*
X276655Y653664D01*
X276589Y653624D01*
X276525Y653580D01*
X276463Y653533D01*
X276404Y653484D01*
X276347Y653431D01*
X276293Y653376D01*
X276242Y653318D01*
X276194Y653257D01*
X276149Y653194D01*
X276107Y653129D01*
X276068Y653062D01*
X276033Y652993D01*
X276001Y652923D01*
X275973Y652851D01*
X275948Y652777D01*
X275927Y652703D01*
X275910Y652628D01*
X275896Y652551D01*
X275887Y652475D01*
X275881Y652397D01*
X275879Y652320D01*
X275879Y649836D01*
X275881Y649759D01*
X275887Y649681D01*
X275896Y649605D01*
X275910Y649528D01*
X275927Y649453D01*
X275948Y649379D01*
X275973Y649305D01*
X276001Y649233D01*
X276033Y649163D01*
X276068Y649094D01*
X276107Y649027D01*
X276149Y648962D01*
X276194Y648899D01*
X276242Y648838D01*
X276293Y648780D01*
X276347Y648725D01*
X276404Y648672D01*
X276463Y648623D01*
X276525Y648576D01*
X276589Y648532D01*
X276655Y648492D01*
X276723Y648455D01*
X276793Y648421D01*
X276864Y648391D01*
X276937Y648365D01*
X277011Y648342D01*
X277086Y648323D01*
X277161Y648308D01*
X277238Y648296D01*
X277315Y648288D01*
X277392Y648284D01*
X277470Y648284D01*
X277547Y648288D01*
X277624Y648296D01*
X277701Y648308D01*
X277776Y648323D01*
X277851Y648342D01*
X277925Y648365D01*
X277998Y648391D01*
X278069Y648421D01*
X278139Y648455D01*
X278207Y648492D01*
X278273Y648532D01*
X278337Y648576D01*
X278399Y648623D01*
X278458Y648672D01*
X278515Y648725D01*
X278569Y648780D01*
X278620Y648838D01*
X278668Y648899D01*
X278713Y648962D01*
X278755Y649027D01*
X278794Y649094D01*
X278829Y649163D01*
X278861Y649233D01*
X278889Y649305D01*
X278914Y649379D01*
X278935Y649453D01*
X278952Y649528D01*
X278966Y649605D01*
X278975Y649681D01*
X278981Y649759D01*
X278983Y649836D01*
X271817Y648284D02*
X271747Y648286D01*
X271678Y648292D01*
X271609Y648302D01*
X271541Y648315D01*
X271473Y648333D01*
X271407Y648354D01*
X271342Y648379D01*
X271278Y648407D01*
X271216Y648439D01*
X271156Y648474D01*
X271098Y648513D01*
X271043Y648555D01*
X270989Y648600D01*
X270939Y648648D01*
X270891Y648698D01*
X270846Y648752D01*
X270804Y648807D01*
X270765Y648865D01*
X270730Y648925D01*
X270698Y648987D01*
X270670Y649051D01*
X270645Y649116D01*
X270624Y649182D01*
X270606Y649250D01*
X270593Y649318D01*
X270583Y649387D01*
X270577Y649456D01*
X270575Y649526D01*
X271817Y648285D02*
X271916Y648287D01*
X272014Y648292D01*
X272112Y648302D01*
X272210Y648315D01*
X272307Y648331D01*
X272404Y648351D01*
X272499Y648375D01*
X272594Y648403D01*
X272688Y648434D01*
X272780Y648468D01*
X272871Y648506D01*
X272961Y648547D01*
X273049Y648592D01*
X273135Y648640D01*
X273219Y648691D01*
X273301Y648745D01*
X273382Y648803D01*
X273460Y648863D01*
X273535Y648926D01*
X273609Y648992D01*
X273679Y649061D01*
X273525Y652630D02*
X273523Y652700D01*
X273517Y652769D01*
X273507Y652838D01*
X273494Y652906D01*
X273476Y652974D01*
X273455Y653040D01*
X273430Y653105D01*
X273402Y653169D01*
X273370Y653231D01*
X273335Y653291D01*
X273296Y653349D01*
X273254Y653404D01*
X273209Y653458D01*
X273161Y653508D01*
X273111Y653556D01*
X273057Y653601D01*
X273002Y653643D01*
X272944Y653682D01*
X272884Y653717D01*
X272822Y653749D01*
X272758Y653777D01*
X272693Y653802D01*
X272627Y653823D01*
X272559Y653841D01*
X272491Y653854D01*
X272422Y653864D01*
X272353Y653870D01*
X272283Y653872D01*
X272189Y653870D01*
X272096Y653864D01*
X272003Y653855D01*
X271910Y653842D01*
X271818Y653825D01*
X271727Y653805D01*
X271636Y653780D01*
X271547Y653753D01*
X271459Y653721D01*
X271372Y653686D01*
X271286Y653648D01*
X271203Y653606D01*
X271120Y653561D01*
X271040Y653513D01*
X270962Y653461D01*
X270886Y653406D01*
X272904Y651544D02*
X272963Y651580D01*
X273019Y651620D01*
X273073Y651663D01*
X273125Y651708D01*
X273174Y651757D01*
X273220Y651808D01*
X273263Y651861D01*
X273304Y651917D01*
X273341Y651975D01*
X273376Y652035D01*
X273406Y652096D01*
X273434Y652159D01*
X273458Y652224D01*
X273478Y652290D01*
X273495Y652357D01*
X273508Y652424D01*
X273517Y652492D01*
X273523Y652561D01*
X273525Y652630D01*
X271197Y650612D02*
X271138Y650576D01*
X271082Y650536D01*
X271028Y650493D01*
X270976Y650448D01*
X270927Y650399D01*
X270881Y650348D01*
X270838Y650295D01*
X270797Y650239D01*
X270760Y650181D01*
X270725Y650122D01*
X270695Y650060D01*
X270667Y649997D01*
X270643Y649932D01*
X270623Y649866D01*
X270606Y649799D01*
X270593Y649732D01*
X270584Y649664D01*
X270578Y649595D01*
X270576Y649526D01*
X271197Y650612D02*
X272904Y651544D01*
X268194Y653872D02*
X268194Y648284D01*
X268194Y651389D02*
X265089Y651389D01*
X265089Y653872D02*
X265089Y648284D01*
X262342Y649836D02*
X262342Y653872D01*
X262341Y649836D02*
X262339Y649759D01*
X262333Y649681D01*
X262324Y649605D01*
X262310Y649528D01*
X262293Y649453D01*
X262272Y649379D01*
X262247Y649305D01*
X262219Y649233D01*
X262187Y649163D01*
X262152Y649094D01*
X262113Y649027D01*
X262071Y648962D01*
X262026Y648899D01*
X261978Y648838D01*
X261927Y648780D01*
X261873Y648725D01*
X261816Y648672D01*
X261757Y648623D01*
X261695Y648576D01*
X261631Y648532D01*
X261565Y648492D01*
X261497Y648455D01*
X261427Y648421D01*
X261356Y648391D01*
X261283Y648365D01*
X261209Y648342D01*
X261134Y648323D01*
X261059Y648308D01*
X260982Y648296D01*
X260905Y648288D01*
X260828Y648284D01*
X260750Y648284D01*
X260673Y648288D01*
X260596Y648296D01*
X260519Y648308D01*
X260444Y648323D01*
X260369Y648342D01*
X260295Y648365D01*
X260222Y648391D01*
X260151Y648421D01*
X260081Y648455D01*
X260013Y648492D01*
X259947Y648532D01*
X259883Y648576D01*
X259821Y648623D01*
X259762Y648672D01*
X259705Y648725D01*
X259651Y648780D01*
X259600Y648838D01*
X259552Y648899D01*
X259507Y648962D01*
X259465Y649027D01*
X259426Y649094D01*
X259391Y649163D01*
X259359Y649233D01*
X259331Y649305D01*
X259306Y649379D01*
X259285Y649453D01*
X259268Y649528D01*
X259254Y649605D01*
X259245Y649681D01*
X259239Y649759D01*
X259237Y649836D01*
X259237Y653872D01*
X255120Y653872D02*
X256983Y648284D01*
X253257Y648284D02*
X255120Y653872D01*
X253723Y649681D02*
X256517Y649681D01*
X247994Y651389D02*
X246442Y651389D01*
X246442Y651388D02*
X246365Y651386D01*
X246287Y651380D01*
X246211Y651371D01*
X246134Y651357D01*
X246059Y651340D01*
X245985Y651319D01*
X245911Y651294D01*
X245839Y651266D01*
X245769Y651234D01*
X245700Y651199D01*
X245633Y651160D01*
X245568Y651118D01*
X245505Y651073D01*
X245444Y651025D01*
X245386Y650974D01*
X245331Y650920D01*
X245278Y650863D01*
X245229Y650804D01*
X245182Y650742D01*
X245138Y650678D01*
X245098Y650612D01*
X245061Y650544D01*
X245027Y650474D01*
X244997Y650403D01*
X244971Y650330D01*
X244948Y650256D01*
X244929Y650181D01*
X244914Y650106D01*
X244902Y650029D01*
X244894Y649952D01*
X244890Y649875D01*
X244890Y649797D01*
X244894Y649720D01*
X244902Y649643D01*
X244914Y649566D01*
X244929Y649491D01*
X244948Y649416D01*
X244971Y649342D01*
X244997Y649269D01*
X245027Y649198D01*
X245061Y649128D01*
X245098Y649060D01*
X245138Y648994D01*
X245182Y648930D01*
X245229Y648868D01*
X245278Y648809D01*
X245331Y648752D01*
X245386Y648698D01*
X245444Y648647D01*
X245505Y648599D01*
X245568Y648554D01*
X245633Y648512D01*
X245700Y648473D01*
X245769Y648438D01*
X245839Y648406D01*
X245911Y648378D01*
X245985Y648353D01*
X246059Y648332D01*
X246134Y648315D01*
X246211Y648301D01*
X246287Y648292D01*
X246365Y648286D01*
X246442Y648284D01*
X247994Y648284D01*
X247994Y653872D01*
X246442Y653872D01*
X246372Y653870D01*
X246303Y653864D01*
X246234Y653854D01*
X246166Y653841D01*
X246098Y653823D01*
X246032Y653802D01*
X245967Y653777D01*
X245903Y653749D01*
X245841Y653717D01*
X245781Y653682D01*
X245723Y653643D01*
X245668Y653601D01*
X245614Y653556D01*
X245564Y653508D01*
X245516Y653458D01*
X245471Y653404D01*
X245429Y653349D01*
X245390Y653291D01*
X245355Y653231D01*
X245323Y653169D01*
X245295Y653105D01*
X245270Y653040D01*
X245249Y652974D01*
X245231Y652906D01*
X245218Y652838D01*
X245208Y652769D01*
X245202Y652700D01*
X245200Y652630D01*
X245202Y652560D01*
X245208Y652491D01*
X245218Y652422D01*
X245231Y652354D01*
X245249Y652286D01*
X245270Y652220D01*
X245295Y652155D01*
X245323Y652091D01*
X245355Y652029D01*
X245390Y651969D01*
X245429Y651911D01*
X245471Y651856D01*
X245516Y651802D01*
X245564Y651752D01*
X245614Y651704D01*
X245668Y651659D01*
X245723Y651617D01*
X245781Y651578D01*
X245841Y651543D01*
X245903Y651511D01*
X245967Y651483D01*
X246032Y651458D01*
X246098Y651437D01*
X246166Y651419D01*
X246234Y651406D01*
X246303Y651396D01*
X246372Y651390D01*
X246442Y651388D01*
X242555Y653872D02*
X242555Y648284D01*
X242555Y653872D02*
X241002Y653872D01*
X240925Y653870D01*
X240847Y653864D01*
X240771Y653855D01*
X240694Y653841D01*
X240619Y653824D01*
X240545Y653803D01*
X240471Y653778D01*
X240399Y653750D01*
X240329Y653718D01*
X240260Y653683D01*
X240193Y653644D01*
X240128Y653602D01*
X240065Y653557D01*
X240004Y653509D01*
X239946Y653458D01*
X239891Y653404D01*
X239838Y653347D01*
X239789Y653288D01*
X239742Y653226D01*
X239698Y653162D01*
X239658Y653096D01*
X239621Y653028D01*
X239587Y652958D01*
X239557Y652887D01*
X239531Y652814D01*
X239508Y652740D01*
X239489Y652665D01*
X239474Y652590D01*
X239462Y652513D01*
X239454Y652436D01*
X239450Y652359D01*
X239450Y652281D01*
X239454Y652204D01*
X239462Y652127D01*
X239474Y652050D01*
X239489Y651975D01*
X239508Y651900D01*
X239531Y651826D01*
X239557Y651753D01*
X239587Y651682D01*
X239621Y651612D01*
X239658Y651544D01*
X239698Y651478D01*
X239742Y651414D01*
X239789Y651352D01*
X239838Y651293D01*
X239891Y651236D01*
X239946Y651182D01*
X240004Y651131D01*
X240065Y651083D01*
X240128Y651038D01*
X240193Y650996D01*
X240260Y650957D01*
X240329Y650922D01*
X240399Y650890D01*
X240471Y650862D01*
X240545Y650837D01*
X240619Y650816D01*
X240694Y650799D01*
X240771Y650785D01*
X240847Y650776D01*
X240925Y650770D01*
X241002Y650768D01*
X242555Y650768D01*
X240692Y650768D02*
X239450Y648284D01*
X236910Y648284D02*
X234427Y648284D01*
X236910Y648284D02*
X236910Y653872D01*
X234427Y653872D01*
X235048Y651389D02*
X236910Y651389D01*
X232549Y653872D02*
X231308Y648284D01*
X230066Y652009D01*
X228824Y648284D01*
X227582Y653872D01*
X222478Y649526D02*
X222480Y649456D01*
X222486Y649387D01*
X222496Y649318D01*
X222509Y649250D01*
X222527Y649182D01*
X222548Y649116D01*
X222573Y649051D01*
X222601Y648987D01*
X222633Y648925D01*
X222668Y648865D01*
X222707Y648807D01*
X222749Y648752D01*
X222794Y648698D01*
X222842Y648648D01*
X222892Y648600D01*
X222946Y648555D01*
X223001Y648513D01*
X223059Y648474D01*
X223119Y648439D01*
X223181Y648407D01*
X223245Y648379D01*
X223310Y648354D01*
X223376Y648333D01*
X223444Y648315D01*
X223512Y648302D01*
X223581Y648292D01*
X223650Y648286D01*
X223720Y648284D01*
X223720Y648285D02*
X223819Y648287D01*
X223917Y648292D01*
X224015Y648302D01*
X224113Y648315D01*
X224210Y648331D01*
X224307Y648351D01*
X224402Y648375D01*
X224497Y648403D01*
X224591Y648434D01*
X224683Y648468D01*
X224774Y648506D01*
X224864Y648547D01*
X224952Y648592D01*
X225038Y648640D01*
X225122Y648691D01*
X225204Y648745D01*
X225285Y648803D01*
X225363Y648863D01*
X225438Y648926D01*
X225512Y648992D01*
X225582Y649061D01*
X225428Y652630D02*
X225426Y652700D01*
X225420Y652769D01*
X225410Y652838D01*
X225397Y652906D01*
X225379Y652974D01*
X225358Y653040D01*
X225333Y653105D01*
X225305Y653169D01*
X225273Y653231D01*
X225238Y653291D01*
X225199Y653349D01*
X225157Y653404D01*
X225112Y653458D01*
X225064Y653508D01*
X225014Y653556D01*
X224960Y653601D01*
X224905Y653643D01*
X224847Y653682D01*
X224787Y653717D01*
X224725Y653749D01*
X224661Y653777D01*
X224596Y653802D01*
X224530Y653823D01*
X224462Y653841D01*
X224394Y653854D01*
X224325Y653864D01*
X224256Y653870D01*
X224186Y653872D01*
X224092Y653870D01*
X223999Y653864D01*
X223906Y653855D01*
X223813Y653842D01*
X223721Y653825D01*
X223630Y653805D01*
X223539Y653780D01*
X223450Y653753D01*
X223362Y653721D01*
X223275Y653686D01*
X223189Y653648D01*
X223106Y653606D01*
X223023Y653561D01*
X222943Y653513D01*
X222865Y653461D01*
X222789Y653406D01*
X224807Y651544D02*
X224866Y651580D01*
X224922Y651620D01*
X224976Y651663D01*
X225028Y651708D01*
X225077Y651757D01*
X225123Y651808D01*
X225166Y651861D01*
X225207Y651917D01*
X225244Y651975D01*
X225279Y652035D01*
X225309Y652096D01*
X225337Y652159D01*
X225361Y652224D01*
X225381Y652290D01*
X225398Y652357D01*
X225411Y652424D01*
X225420Y652492D01*
X225426Y652561D01*
X225428Y652630D01*
X223100Y650612D02*
X223041Y650576D01*
X222985Y650536D01*
X222931Y650493D01*
X222879Y650448D01*
X222830Y650399D01*
X222784Y650348D01*
X222741Y650295D01*
X222700Y650239D01*
X222663Y650181D01*
X222628Y650122D01*
X222598Y650060D01*
X222570Y649997D01*
X222546Y649932D01*
X222526Y649866D01*
X222509Y649799D01*
X222496Y649732D01*
X222487Y649664D01*
X222481Y649595D01*
X222479Y649526D01*
X223099Y650612D02*
X224807Y651544D01*
X219093Y653872D02*
X219093Y648284D01*
X220645Y653872D02*
X217541Y653872D01*
X215331Y648284D02*
X212847Y648284D01*
X215331Y648284D02*
X215331Y653872D01*
X212847Y653872D01*
X213468Y651389D02*
X215331Y651389D01*
X210551Y653872D02*
X210551Y648284D01*
X210551Y653872D02*
X208999Y653872D01*
X208922Y653870D01*
X208844Y653864D01*
X208768Y653855D01*
X208691Y653841D01*
X208616Y653824D01*
X208542Y653803D01*
X208468Y653778D01*
X208396Y653750D01*
X208326Y653718D01*
X208257Y653683D01*
X208190Y653644D01*
X208125Y653602D01*
X208062Y653557D01*
X208001Y653509D01*
X207943Y653458D01*
X207888Y653404D01*
X207835Y653347D01*
X207786Y653288D01*
X207739Y653226D01*
X207695Y653162D01*
X207655Y653096D01*
X207618Y653028D01*
X207584Y652958D01*
X207554Y652887D01*
X207528Y652814D01*
X207505Y652740D01*
X207486Y652665D01*
X207471Y652590D01*
X207459Y652513D01*
X207451Y652436D01*
X207447Y652359D01*
X207447Y652281D01*
X207451Y652204D01*
X207459Y652127D01*
X207471Y652050D01*
X207486Y651975D01*
X207505Y651900D01*
X207528Y651826D01*
X207554Y651753D01*
X207584Y651682D01*
X207618Y651612D01*
X207655Y651544D01*
X207695Y651478D01*
X207739Y651414D01*
X207786Y651352D01*
X207835Y651293D01*
X207888Y651236D01*
X207943Y651182D01*
X208001Y651131D01*
X208062Y651083D01*
X208125Y651038D01*
X208190Y650996D01*
X208257Y650957D01*
X208326Y650922D01*
X208396Y650890D01*
X208468Y650862D01*
X208542Y650837D01*
X208616Y650816D01*
X208691Y650799D01*
X208768Y650785D01*
X208844Y650776D01*
X208922Y650770D01*
X208999Y650768D01*
X210551Y650768D01*
X208688Y650768D02*
X207446Y648284D01*
X281006Y642245D02*
X282558Y642245D01*
X281006Y642244D02*
X280929Y642242D01*
X280851Y642236D01*
X280775Y642227D01*
X280698Y642213D01*
X280623Y642196D01*
X280549Y642175D01*
X280475Y642150D01*
X280403Y642122D01*
X280333Y642090D01*
X280264Y642055D01*
X280197Y642016D01*
X280132Y641974D01*
X280069Y641929D01*
X280008Y641881D01*
X279950Y641830D01*
X279895Y641776D01*
X279842Y641719D01*
X279793Y641660D01*
X279746Y641598D01*
X279702Y641534D01*
X279662Y641468D01*
X279625Y641400D01*
X279591Y641330D01*
X279561Y641259D01*
X279535Y641186D01*
X279512Y641112D01*
X279493Y641037D01*
X279478Y640962D01*
X279466Y640885D01*
X279458Y640808D01*
X279454Y640731D01*
X279454Y640653D01*
X279458Y640576D01*
X279466Y640499D01*
X279478Y640422D01*
X279493Y640347D01*
X279512Y640272D01*
X279535Y640198D01*
X279561Y640125D01*
X279591Y640054D01*
X279625Y639984D01*
X279662Y639916D01*
X279702Y639850D01*
X279746Y639786D01*
X279793Y639724D01*
X279842Y639665D01*
X279895Y639608D01*
X279950Y639554D01*
X280008Y639503D01*
X280069Y639455D01*
X280132Y639410D01*
X280197Y639368D01*
X280264Y639329D01*
X280333Y639294D01*
X280403Y639262D01*
X280475Y639234D01*
X280549Y639209D01*
X280623Y639188D01*
X280698Y639171D01*
X280775Y639157D01*
X280851Y639148D01*
X280929Y639142D01*
X281006Y639140D01*
X282558Y639140D01*
X282558Y644728D01*
X281006Y644728D01*
X280936Y644726D01*
X280867Y644720D01*
X280798Y644710D01*
X280730Y644697D01*
X280662Y644679D01*
X280596Y644658D01*
X280531Y644633D01*
X280467Y644605D01*
X280405Y644573D01*
X280345Y644538D01*
X280287Y644499D01*
X280232Y644457D01*
X280178Y644412D01*
X280128Y644364D01*
X280080Y644314D01*
X280035Y644260D01*
X279993Y644205D01*
X279954Y644147D01*
X279919Y644087D01*
X279887Y644025D01*
X279859Y643961D01*
X279834Y643896D01*
X279813Y643830D01*
X279795Y643762D01*
X279782Y643694D01*
X279772Y643625D01*
X279766Y643556D01*
X279764Y643486D01*
X279766Y643416D01*
X279772Y643347D01*
X279782Y643278D01*
X279795Y643210D01*
X279813Y643142D01*
X279834Y643076D01*
X279859Y643011D01*
X279887Y642947D01*
X279919Y642885D01*
X279954Y642825D01*
X279993Y642767D01*
X280035Y642712D01*
X280080Y642658D01*
X280128Y642608D01*
X280178Y642560D01*
X280232Y642515D01*
X280287Y642473D01*
X280345Y642434D01*
X280405Y642399D01*
X280467Y642367D01*
X280531Y642339D01*
X280596Y642314D01*
X280662Y642293D01*
X280730Y642275D01*
X280798Y642262D01*
X280867Y642252D01*
X280936Y642246D01*
X281006Y642244D01*
X277338Y643176D02*
X277338Y640692D01*
X277337Y643176D02*
X277335Y643253D01*
X277329Y643331D01*
X277320Y643407D01*
X277306Y643484D01*
X277289Y643559D01*
X277268Y643633D01*
X277243Y643707D01*
X277215Y643779D01*
X277183Y643849D01*
X277148Y643918D01*
X277109Y643985D01*
X277067Y644050D01*
X277022Y644113D01*
X276974Y644174D01*
X276923Y644232D01*
X276869Y644287D01*
X276812Y644340D01*
X276753Y644389D01*
X276691Y644436D01*
X276627Y644480D01*
X276561Y644520D01*
X276493Y644557D01*
X276423Y644591D01*
X276352Y644621D01*
X276279Y644647D01*
X276205Y644670D01*
X276130Y644689D01*
X276055Y644704D01*
X275978Y644716D01*
X275901Y644724D01*
X275824Y644728D01*
X275746Y644728D01*
X275669Y644724D01*
X275592Y644716D01*
X275515Y644704D01*
X275440Y644689D01*
X275365Y644670D01*
X275291Y644647D01*
X275218Y644621D01*
X275147Y644591D01*
X275077Y644557D01*
X275009Y644520D01*
X274943Y644480D01*
X274879Y644436D01*
X274817Y644389D01*
X274758Y644340D01*
X274701Y644287D01*
X274647Y644232D01*
X274596Y644174D01*
X274548Y644113D01*
X274503Y644050D01*
X274461Y643985D01*
X274422Y643918D01*
X274387Y643849D01*
X274355Y643779D01*
X274327Y643707D01*
X274302Y643633D01*
X274281Y643559D01*
X274264Y643484D01*
X274250Y643407D01*
X274241Y643331D01*
X274235Y643253D01*
X274233Y643176D01*
X274233Y640692D01*
X274235Y640615D01*
X274241Y640537D01*
X274250Y640461D01*
X274264Y640384D01*
X274281Y640309D01*
X274302Y640235D01*
X274327Y640161D01*
X274355Y640089D01*
X274387Y640019D01*
X274422Y639950D01*
X274461Y639883D01*
X274503Y639818D01*
X274548Y639755D01*
X274596Y639694D01*
X274647Y639636D01*
X274701Y639581D01*
X274758Y639528D01*
X274817Y639479D01*
X274879Y639432D01*
X274943Y639388D01*
X275009Y639348D01*
X275077Y639311D01*
X275147Y639277D01*
X275218Y639247D01*
X275291Y639221D01*
X275365Y639198D01*
X275440Y639179D01*
X275515Y639164D01*
X275592Y639152D01*
X275669Y639144D01*
X275746Y639140D01*
X275824Y639140D01*
X275901Y639144D01*
X275978Y639152D01*
X276055Y639164D01*
X276130Y639179D01*
X276205Y639198D01*
X276279Y639221D01*
X276352Y639247D01*
X276423Y639277D01*
X276493Y639311D01*
X276561Y639348D01*
X276627Y639388D01*
X276691Y639432D01*
X276753Y639479D01*
X276812Y639528D01*
X276869Y639581D01*
X276923Y639636D01*
X276974Y639694D01*
X277022Y639755D01*
X277067Y639818D01*
X277109Y639883D01*
X277148Y639950D01*
X277183Y640019D01*
X277215Y640089D01*
X277243Y640161D01*
X277268Y640235D01*
X277289Y640309D01*
X277306Y640384D01*
X277320Y640461D01*
X277329Y640537D01*
X277335Y640615D01*
X277337Y640692D01*
X270553Y640382D02*
X270553Y644728D01*
X270553Y640382D02*
X270555Y640312D01*
X270561Y640243D01*
X270571Y640174D01*
X270584Y640106D01*
X270602Y640038D01*
X270623Y639972D01*
X270648Y639907D01*
X270676Y639843D01*
X270708Y639781D01*
X270743Y639721D01*
X270782Y639663D01*
X270824Y639608D01*
X270869Y639554D01*
X270917Y639504D01*
X270967Y639456D01*
X271021Y639411D01*
X271076Y639369D01*
X271134Y639330D01*
X271194Y639295D01*
X271256Y639263D01*
X271320Y639235D01*
X271385Y639210D01*
X271451Y639189D01*
X271519Y639171D01*
X271587Y639158D01*
X271656Y639148D01*
X271725Y639142D01*
X271795Y639140D01*
X272416Y639140D01*
X268321Y639140D02*
X266459Y644728D01*
X264596Y639140D01*
X265062Y640537D02*
X267856Y640537D01*
X262342Y639140D02*
X262342Y644728D01*
X259237Y639140D01*
X259237Y644728D01*
X252448Y644728D02*
X252448Y640382D01*
X252450Y640312D01*
X252456Y640243D01*
X252466Y640174D01*
X252479Y640106D01*
X252497Y640038D01*
X252518Y639972D01*
X252543Y639907D01*
X252571Y639843D01*
X252603Y639781D01*
X252638Y639721D01*
X252677Y639663D01*
X252719Y639608D01*
X252764Y639554D01*
X252812Y639504D01*
X252862Y639456D01*
X252916Y639411D01*
X252971Y639369D01*
X253029Y639330D01*
X253089Y639295D01*
X253151Y639263D01*
X253215Y639235D01*
X253280Y639210D01*
X253346Y639189D01*
X253414Y639171D01*
X253482Y639158D01*
X253551Y639148D01*
X253620Y639142D01*
X253690Y639140D01*
X254311Y639140D01*
X249906Y640692D02*
X249906Y643176D01*
X249904Y643253D01*
X249898Y643331D01*
X249889Y643407D01*
X249875Y643484D01*
X249858Y643559D01*
X249837Y643633D01*
X249812Y643707D01*
X249784Y643779D01*
X249752Y643849D01*
X249717Y643918D01*
X249678Y643985D01*
X249636Y644050D01*
X249591Y644113D01*
X249543Y644174D01*
X249492Y644232D01*
X249438Y644287D01*
X249381Y644340D01*
X249322Y644389D01*
X249260Y644436D01*
X249196Y644480D01*
X249130Y644520D01*
X249062Y644557D01*
X248992Y644591D01*
X248921Y644621D01*
X248848Y644647D01*
X248774Y644670D01*
X248699Y644689D01*
X248624Y644704D01*
X248547Y644716D01*
X248470Y644724D01*
X248393Y644728D01*
X248315Y644728D01*
X248238Y644724D01*
X248161Y644716D01*
X248084Y644704D01*
X248009Y644689D01*
X247934Y644670D01*
X247860Y644647D01*
X247787Y644621D01*
X247716Y644591D01*
X247646Y644557D01*
X247578Y644520D01*
X247512Y644480D01*
X247448Y644436D01*
X247386Y644389D01*
X247327Y644340D01*
X247270Y644287D01*
X247216Y644232D01*
X247165Y644174D01*
X247117Y644113D01*
X247072Y644050D01*
X247030Y643985D01*
X246991Y643918D01*
X246956Y643849D01*
X246924Y643779D01*
X246896Y643707D01*
X246871Y643633D01*
X246850Y643559D01*
X246833Y643484D01*
X246819Y643407D01*
X246810Y643331D01*
X246804Y643253D01*
X246802Y643176D01*
X246801Y643176D02*
X246801Y640692D01*
X246802Y640692D02*
X246804Y640615D01*
X246810Y640537D01*
X246819Y640461D01*
X246833Y640384D01*
X246850Y640309D01*
X246871Y640235D01*
X246896Y640161D01*
X246924Y640089D01*
X246956Y640019D01*
X246991Y639950D01*
X247030Y639883D01*
X247072Y639818D01*
X247117Y639755D01*
X247165Y639694D01*
X247216Y639636D01*
X247270Y639581D01*
X247327Y639528D01*
X247386Y639479D01*
X247448Y639432D01*
X247512Y639388D01*
X247578Y639348D01*
X247646Y639311D01*
X247716Y639277D01*
X247787Y639247D01*
X247860Y639221D01*
X247934Y639198D01*
X248009Y639179D01*
X248084Y639164D01*
X248161Y639152D01*
X248238Y639144D01*
X248315Y639140D01*
X248393Y639140D01*
X248470Y639144D01*
X248547Y639152D01*
X248624Y639164D01*
X248699Y639179D01*
X248774Y639198D01*
X248848Y639221D01*
X248921Y639247D01*
X248992Y639277D01*
X249062Y639311D01*
X249130Y639348D01*
X249196Y639388D01*
X249260Y639432D01*
X249322Y639479D01*
X249381Y639528D01*
X249438Y639581D01*
X249492Y639636D01*
X249543Y639694D01*
X249591Y639755D01*
X249636Y639818D01*
X249678Y639883D01*
X249717Y639950D01*
X249752Y640019D01*
X249784Y640089D01*
X249812Y640161D01*
X249837Y640235D01*
X249858Y640309D01*
X249875Y640384D01*
X249889Y640461D01*
X249898Y640537D01*
X249904Y640615D01*
X249906Y640692D01*
X244730Y644728D02*
X242867Y639140D01*
X241005Y644728D01*
X237381Y644728D02*
X239244Y639140D01*
X235518Y639140D02*
X237381Y644728D01*
X235984Y640537D02*
X238778Y640537D01*
X233264Y639140D02*
X233264Y644728D01*
X230159Y639140D01*
X230159Y644728D01*
X227595Y643176D02*
X227595Y640692D01*
X227594Y643176D02*
X227592Y643253D01*
X227586Y643331D01*
X227577Y643407D01*
X227563Y643484D01*
X227546Y643559D01*
X227525Y643633D01*
X227500Y643707D01*
X227472Y643779D01*
X227440Y643849D01*
X227405Y643918D01*
X227366Y643985D01*
X227324Y644050D01*
X227279Y644113D01*
X227231Y644174D01*
X227180Y644232D01*
X227126Y644287D01*
X227069Y644340D01*
X227010Y644389D01*
X226948Y644436D01*
X226884Y644480D01*
X226818Y644520D01*
X226750Y644557D01*
X226680Y644591D01*
X226609Y644621D01*
X226536Y644647D01*
X226462Y644670D01*
X226387Y644689D01*
X226312Y644704D01*
X226235Y644716D01*
X226158Y644724D01*
X226081Y644728D01*
X226003Y644728D01*
X225926Y644724D01*
X225849Y644716D01*
X225772Y644704D01*
X225697Y644689D01*
X225622Y644670D01*
X225548Y644647D01*
X225475Y644621D01*
X225404Y644591D01*
X225334Y644557D01*
X225266Y644520D01*
X225200Y644480D01*
X225136Y644436D01*
X225074Y644389D01*
X225015Y644340D01*
X224958Y644287D01*
X224904Y644232D01*
X224853Y644174D01*
X224805Y644113D01*
X224760Y644050D01*
X224718Y643985D01*
X224679Y643918D01*
X224644Y643849D01*
X224612Y643779D01*
X224584Y643707D01*
X224559Y643633D01*
X224538Y643559D01*
X224521Y643484D01*
X224507Y643407D01*
X224498Y643331D01*
X224492Y643253D01*
X224490Y643176D01*
X224490Y640692D01*
X224492Y640615D01*
X224498Y640537D01*
X224507Y640461D01*
X224521Y640384D01*
X224538Y640309D01*
X224559Y640235D01*
X224584Y640161D01*
X224612Y640089D01*
X224644Y640019D01*
X224679Y639950D01*
X224718Y639883D01*
X224760Y639818D01*
X224805Y639755D01*
X224853Y639694D01*
X224904Y639636D01*
X224958Y639581D01*
X225015Y639528D01*
X225074Y639479D01*
X225136Y639432D01*
X225200Y639388D01*
X225266Y639348D01*
X225334Y639311D01*
X225404Y639277D01*
X225475Y639247D01*
X225548Y639221D01*
X225622Y639198D01*
X225697Y639179D01*
X225772Y639164D01*
X225849Y639152D01*
X225926Y639144D01*
X226003Y639140D01*
X226081Y639140D01*
X226158Y639144D01*
X226235Y639152D01*
X226312Y639164D01*
X226387Y639179D01*
X226462Y639198D01*
X226536Y639221D01*
X226609Y639247D01*
X226680Y639277D01*
X226750Y639311D01*
X226818Y639348D01*
X226884Y639388D01*
X226948Y639432D01*
X227010Y639479D01*
X227069Y639528D01*
X227126Y639581D01*
X227180Y639636D01*
X227231Y639694D01*
X227279Y639755D01*
X227324Y639818D01*
X227366Y639883D01*
X227405Y639950D01*
X227440Y640019D01*
X227472Y640089D01*
X227500Y640161D01*
X227525Y640235D01*
X227546Y640309D01*
X227563Y640384D01*
X227577Y640461D01*
X227586Y640537D01*
X227592Y640615D01*
X227594Y640692D01*
X222419Y644728D02*
X220556Y639140D01*
X218693Y644728D01*
X216167Y644728D02*
X216167Y639140D01*
X216788Y639140D02*
X215546Y639140D01*
X215546Y644728D02*
X216788Y644728D01*
X212105Y639140D02*
X210863Y639140D01*
X212105Y639140D02*
X212175Y639142D01*
X212244Y639148D01*
X212313Y639158D01*
X212381Y639171D01*
X212449Y639189D01*
X212515Y639210D01*
X212580Y639235D01*
X212644Y639263D01*
X212706Y639295D01*
X212766Y639330D01*
X212824Y639369D01*
X212879Y639411D01*
X212933Y639456D01*
X212983Y639504D01*
X213031Y639554D01*
X213076Y639608D01*
X213118Y639663D01*
X213157Y639721D01*
X213192Y639781D01*
X213224Y639843D01*
X213252Y639907D01*
X213277Y639972D01*
X213298Y640038D01*
X213316Y640106D01*
X213329Y640174D01*
X213339Y640243D01*
X213345Y640312D01*
X213347Y640382D01*
X213346Y640382D02*
X213346Y643486D01*
X213347Y643486D02*
X213345Y643556D01*
X213339Y643625D01*
X213329Y643694D01*
X213316Y643762D01*
X213298Y643830D01*
X213277Y643896D01*
X213252Y643961D01*
X213224Y644025D01*
X213192Y644087D01*
X213157Y644147D01*
X213118Y644205D01*
X213076Y644260D01*
X213031Y644314D01*
X212983Y644364D01*
X212933Y644412D01*
X212879Y644457D01*
X212824Y644499D01*
X212766Y644538D01*
X212706Y644573D01*
X212644Y644605D01*
X212580Y644633D01*
X212515Y644658D01*
X212449Y644679D01*
X212381Y644697D01*
X212313Y644710D01*
X212244Y644720D01*
X212175Y644726D01*
X212105Y644728D01*
X210863Y644728D01*
X208575Y644728D02*
X208575Y639140D01*
X208575Y642245D02*
X205471Y642245D01*
X205471Y644728D02*
X205471Y639140D01*
X275420Y635584D02*
X277282Y629996D01*
X273557Y629996D02*
X275420Y635584D01*
X274023Y631393D02*
X276817Y631393D01*
X269130Y633101D02*
X268198Y633101D01*
X268198Y629996D01*
X270061Y629996D01*
X270131Y629998D01*
X270200Y630004D01*
X270269Y630014D01*
X270337Y630027D01*
X270405Y630045D01*
X270471Y630066D01*
X270536Y630091D01*
X270600Y630119D01*
X270662Y630151D01*
X270722Y630186D01*
X270780Y630225D01*
X270835Y630267D01*
X270889Y630312D01*
X270939Y630360D01*
X270987Y630410D01*
X271032Y630464D01*
X271074Y630519D01*
X271113Y630577D01*
X271148Y630637D01*
X271180Y630699D01*
X271208Y630763D01*
X271233Y630828D01*
X271254Y630894D01*
X271272Y630962D01*
X271285Y631030D01*
X271295Y631099D01*
X271301Y631168D01*
X271303Y631238D01*
X271303Y634342D01*
X271301Y634412D01*
X271295Y634481D01*
X271285Y634550D01*
X271272Y634618D01*
X271254Y634686D01*
X271233Y634752D01*
X271208Y634817D01*
X271180Y634881D01*
X271148Y634943D01*
X271113Y635003D01*
X271074Y635061D01*
X271032Y635116D01*
X270987Y635170D01*
X270939Y635220D01*
X270889Y635268D01*
X270835Y635313D01*
X270780Y635355D01*
X270722Y635394D01*
X270662Y635429D01*
X270600Y635461D01*
X270536Y635489D01*
X270471Y635514D01*
X270405Y635535D01*
X270337Y635553D01*
X270269Y635566D01*
X270200Y635576D01*
X270131Y635582D01*
X270061Y635584D01*
X268198Y635584D01*
X265368Y635584D02*
X265368Y629996D01*
X265368Y635584D02*
X263815Y635584D01*
X263738Y635582D01*
X263660Y635576D01*
X263584Y635567D01*
X263507Y635553D01*
X263432Y635536D01*
X263358Y635515D01*
X263284Y635490D01*
X263212Y635462D01*
X263142Y635430D01*
X263073Y635395D01*
X263006Y635356D01*
X262941Y635314D01*
X262878Y635269D01*
X262817Y635221D01*
X262759Y635170D01*
X262704Y635116D01*
X262651Y635059D01*
X262602Y635000D01*
X262555Y634938D01*
X262511Y634874D01*
X262471Y634808D01*
X262434Y634740D01*
X262400Y634670D01*
X262370Y634599D01*
X262344Y634526D01*
X262321Y634452D01*
X262302Y634377D01*
X262287Y634302D01*
X262275Y634225D01*
X262267Y634148D01*
X262263Y634071D01*
X262263Y633993D01*
X262267Y633916D01*
X262275Y633839D01*
X262287Y633762D01*
X262302Y633687D01*
X262321Y633612D01*
X262344Y633538D01*
X262370Y633465D01*
X262400Y633394D01*
X262434Y633324D01*
X262471Y633256D01*
X262511Y633190D01*
X262555Y633126D01*
X262602Y633064D01*
X262651Y633005D01*
X262704Y632948D01*
X262759Y632894D01*
X262817Y632843D01*
X262878Y632795D01*
X262941Y632750D01*
X263006Y632708D01*
X263073Y632669D01*
X263142Y632634D01*
X263212Y632602D01*
X263284Y632574D01*
X263358Y632549D01*
X263432Y632528D01*
X263507Y632511D01*
X263584Y632497D01*
X263660Y632488D01*
X263738Y632482D01*
X263815Y632480D01*
X265368Y632480D01*
X259953Y629996D02*
X259953Y635584D01*
X259953Y629996D02*
X257470Y629996D01*
X251463Y629996D02*
X252704Y633721D01*
X250221Y633721D02*
X251463Y629996D01*
X248077Y629996D02*
X246525Y629996D01*
X246448Y629998D01*
X246370Y630004D01*
X246294Y630013D01*
X246217Y630027D01*
X246142Y630044D01*
X246068Y630065D01*
X245994Y630090D01*
X245922Y630118D01*
X245852Y630150D01*
X245783Y630185D01*
X245716Y630224D01*
X245651Y630266D01*
X245588Y630311D01*
X245527Y630359D01*
X245469Y630410D01*
X245414Y630464D01*
X245361Y630521D01*
X245312Y630580D01*
X245265Y630642D01*
X245221Y630706D01*
X245181Y630772D01*
X245144Y630840D01*
X245110Y630910D01*
X245080Y630981D01*
X245054Y631054D01*
X245031Y631128D01*
X245012Y631203D01*
X244997Y631278D01*
X244985Y631355D01*
X244977Y631432D01*
X244973Y631509D01*
X244973Y631587D01*
X244977Y631664D01*
X244985Y631741D01*
X244997Y631818D01*
X245012Y631893D01*
X245031Y631968D01*
X245054Y632042D01*
X245080Y632115D01*
X245110Y632186D01*
X245144Y632256D01*
X245181Y632324D01*
X245221Y632390D01*
X245265Y632454D01*
X245312Y632516D01*
X245361Y632575D01*
X245414Y632632D01*
X245469Y632686D01*
X245527Y632737D01*
X245588Y632785D01*
X245651Y632830D01*
X245716Y632872D01*
X245783Y632911D01*
X245852Y632946D01*
X245922Y632978D01*
X245994Y633006D01*
X246068Y633031D01*
X246142Y633052D01*
X246217Y633069D01*
X246294Y633083D01*
X246370Y633092D01*
X246448Y633098D01*
X246525Y633100D01*
X246215Y635584D02*
X248077Y635584D01*
X246215Y635584D02*
X246145Y635582D01*
X246076Y635576D01*
X246007Y635566D01*
X245939Y635553D01*
X245871Y635535D01*
X245805Y635514D01*
X245740Y635489D01*
X245676Y635461D01*
X245614Y635429D01*
X245554Y635394D01*
X245496Y635355D01*
X245441Y635313D01*
X245387Y635268D01*
X245337Y635220D01*
X245289Y635170D01*
X245244Y635116D01*
X245202Y635061D01*
X245163Y635003D01*
X245128Y634943D01*
X245096Y634881D01*
X245068Y634817D01*
X245043Y634752D01*
X245022Y634686D01*
X245004Y634618D01*
X244991Y634550D01*
X244981Y634481D01*
X244975Y634412D01*
X244973Y634342D01*
X244975Y634272D01*
X244981Y634203D01*
X244991Y634134D01*
X245004Y634066D01*
X245022Y633998D01*
X245043Y633932D01*
X245068Y633867D01*
X245096Y633803D01*
X245128Y633741D01*
X245163Y633681D01*
X245202Y633623D01*
X245244Y633568D01*
X245289Y633514D01*
X245337Y633464D01*
X245387Y633416D01*
X245441Y633371D01*
X245496Y633329D01*
X245554Y633290D01*
X245614Y633255D01*
X245676Y633223D01*
X245740Y633195D01*
X245805Y633170D01*
X245871Y633149D01*
X245939Y633131D01*
X246007Y633118D01*
X246076Y633108D01*
X246145Y633102D01*
X246215Y633100D01*
X246215Y633101D02*
X247456Y633101D01*
X239471Y635584D02*
X239471Y629996D01*
X236987Y629996D01*
X234455Y629996D02*
X234455Y635584D01*
X235076Y629996D02*
X233834Y629996D01*
X233834Y635584D02*
X235076Y635584D01*
X230393Y629996D02*
X229151Y629996D01*
X230393Y629996D02*
X230463Y629998D01*
X230532Y630004D01*
X230601Y630014D01*
X230669Y630027D01*
X230737Y630045D01*
X230803Y630066D01*
X230868Y630091D01*
X230932Y630119D01*
X230994Y630151D01*
X231054Y630186D01*
X231112Y630225D01*
X231167Y630267D01*
X231221Y630312D01*
X231271Y630360D01*
X231319Y630410D01*
X231364Y630464D01*
X231406Y630519D01*
X231445Y630577D01*
X231480Y630637D01*
X231512Y630699D01*
X231540Y630763D01*
X231565Y630828D01*
X231586Y630894D01*
X231604Y630962D01*
X231617Y631030D01*
X231627Y631099D01*
X231633Y631168D01*
X231635Y631238D01*
X231634Y631238D02*
X231634Y634342D01*
X231635Y634342D02*
X231633Y634412D01*
X231627Y634481D01*
X231617Y634550D01*
X231604Y634618D01*
X231586Y634686D01*
X231565Y634752D01*
X231540Y634817D01*
X231512Y634881D01*
X231480Y634943D01*
X231445Y635003D01*
X231406Y635061D01*
X231364Y635116D01*
X231319Y635170D01*
X231271Y635220D01*
X231221Y635268D01*
X231167Y635313D01*
X231112Y635355D01*
X231054Y635394D01*
X230994Y635429D01*
X230932Y635461D01*
X230868Y635489D01*
X230803Y635514D01*
X230737Y635535D01*
X230669Y635553D01*
X230601Y635566D01*
X230532Y635576D01*
X230463Y635582D01*
X230393Y635584D01*
X229151Y635584D01*
X226852Y629996D02*
X224369Y629996D01*
X226852Y629996D02*
X226852Y635584D01*
X224369Y635584D01*
X224990Y633101D02*
X226852Y633101D01*
X222109Y635584D02*
X222109Y629996D01*
X219004Y629996D02*
X222109Y635584D01*
X219004Y635584D02*
X219004Y629996D01*
X214759Y629996D02*
X214689Y629998D01*
X214620Y630004D01*
X214551Y630014D01*
X214483Y630027D01*
X214415Y630045D01*
X214349Y630066D01*
X214284Y630091D01*
X214220Y630119D01*
X214158Y630151D01*
X214098Y630186D01*
X214040Y630225D01*
X213985Y630267D01*
X213931Y630312D01*
X213881Y630360D01*
X213833Y630410D01*
X213788Y630464D01*
X213746Y630519D01*
X213707Y630577D01*
X213672Y630637D01*
X213640Y630699D01*
X213612Y630763D01*
X213587Y630828D01*
X213566Y630894D01*
X213548Y630962D01*
X213535Y631030D01*
X213525Y631099D01*
X213519Y631168D01*
X213517Y631238D01*
X214759Y629997D02*
X214858Y629999D01*
X214956Y630004D01*
X215054Y630014D01*
X215152Y630027D01*
X215249Y630043D01*
X215346Y630063D01*
X215441Y630087D01*
X215536Y630115D01*
X215630Y630146D01*
X215722Y630180D01*
X215813Y630218D01*
X215903Y630259D01*
X215991Y630304D01*
X216077Y630352D01*
X216161Y630403D01*
X216243Y630457D01*
X216324Y630515D01*
X216402Y630575D01*
X216477Y630638D01*
X216551Y630704D01*
X216621Y630773D01*
X216467Y634342D02*
X216465Y634412D01*
X216459Y634481D01*
X216449Y634550D01*
X216436Y634618D01*
X216418Y634686D01*
X216397Y634752D01*
X216372Y634817D01*
X216344Y634881D01*
X216312Y634943D01*
X216277Y635003D01*
X216238Y635061D01*
X216196Y635116D01*
X216151Y635170D01*
X216103Y635220D01*
X216053Y635268D01*
X215999Y635313D01*
X215944Y635355D01*
X215886Y635394D01*
X215826Y635429D01*
X215764Y635461D01*
X215700Y635489D01*
X215635Y635514D01*
X215569Y635535D01*
X215501Y635553D01*
X215433Y635566D01*
X215364Y635576D01*
X215295Y635582D01*
X215225Y635584D01*
X215131Y635582D01*
X215038Y635576D01*
X214945Y635567D01*
X214852Y635554D01*
X214760Y635537D01*
X214669Y635517D01*
X214578Y635492D01*
X214489Y635465D01*
X214401Y635433D01*
X214314Y635398D01*
X214228Y635360D01*
X214145Y635318D01*
X214062Y635273D01*
X213982Y635225D01*
X213904Y635173D01*
X213828Y635118D01*
X215846Y633256D02*
X215905Y633292D01*
X215961Y633332D01*
X216015Y633375D01*
X216067Y633420D01*
X216116Y633469D01*
X216162Y633520D01*
X216205Y633573D01*
X216246Y633629D01*
X216283Y633687D01*
X216318Y633747D01*
X216348Y633808D01*
X216376Y633871D01*
X216400Y633936D01*
X216420Y634002D01*
X216437Y634069D01*
X216450Y634136D01*
X216459Y634204D01*
X216465Y634273D01*
X216467Y634342D01*
X214139Y632324D02*
X214080Y632288D01*
X214024Y632248D01*
X213970Y632205D01*
X213918Y632160D01*
X213869Y632111D01*
X213823Y632060D01*
X213780Y632007D01*
X213739Y631951D01*
X213702Y631893D01*
X213667Y631834D01*
X213637Y631772D01*
X213609Y631709D01*
X213585Y631644D01*
X213565Y631578D01*
X213548Y631511D01*
X213535Y631444D01*
X213526Y631376D01*
X213520Y631307D01*
X213518Y631238D01*
X214139Y632324D02*
X215846Y633256D01*
X211125Y629996D02*
X208641Y629996D01*
X211125Y629996D02*
X211125Y635584D01*
X208641Y635584D01*
X209262Y633101D02*
X211125Y633101D01*
X339898Y606410D02*
X339900Y606349D01*
X339905Y606288D01*
X339915Y606227D01*
X339928Y606167D01*
X339944Y606108D01*
X339964Y606050D01*
X339988Y605993D01*
X340014Y605938D01*
X340045Y605884D01*
X340078Y605833D01*
X340114Y605783D01*
X340154Y605736D01*
X340196Y605692D01*
X340240Y605650D01*
X340287Y605610D01*
X340337Y605574D01*
X340388Y605541D01*
X340442Y605510D01*
X340497Y605484D01*
X340554Y605460D01*
X340612Y605440D01*
X340671Y605424D01*
X340731Y605411D01*
X340792Y605401D01*
X340853Y605396D01*
X340914Y605394D01*
X341003Y605396D01*
X341092Y605401D01*
X341181Y605411D01*
X341269Y605424D01*
X341357Y605440D01*
X341444Y605460D01*
X341529Y605484D01*
X341614Y605512D01*
X341698Y605542D01*
X341780Y605577D01*
X341861Y605614D01*
X341940Y605655D01*
X342018Y605700D01*
X342093Y605747D01*
X342167Y605798D01*
X342238Y605851D01*
X342307Y605908D01*
X342374Y605967D01*
X342438Y606029D01*
X342311Y608950D02*
X342309Y609011D01*
X342304Y609072D01*
X342294Y609133D01*
X342281Y609193D01*
X342265Y609252D01*
X342245Y609310D01*
X342221Y609367D01*
X342195Y609422D01*
X342164Y609476D01*
X342131Y609527D01*
X342095Y609577D01*
X342055Y609624D01*
X342013Y609668D01*
X341969Y609710D01*
X341922Y609750D01*
X341872Y609786D01*
X341821Y609819D01*
X341767Y609850D01*
X341712Y609876D01*
X341655Y609900D01*
X341597Y609920D01*
X341538Y609936D01*
X341478Y609949D01*
X341417Y609959D01*
X341356Y609964D01*
X341295Y609966D01*
X341213Y609964D01*
X341132Y609959D01*
X341051Y609950D01*
X340970Y609938D01*
X340890Y609922D01*
X340810Y609903D01*
X340731Y609881D01*
X340654Y609855D01*
X340578Y609826D01*
X340503Y609793D01*
X340429Y609758D01*
X340357Y609719D01*
X340287Y609677D01*
X340218Y609633D01*
X340152Y609585D01*
X341803Y608061D02*
X341856Y608095D01*
X341907Y608131D01*
X341956Y608171D01*
X342002Y608214D01*
X342046Y608260D01*
X342087Y608308D01*
X342124Y608358D01*
X342159Y608411D01*
X342190Y608466D01*
X342218Y608522D01*
X342242Y608580D01*
X342263Y608640D01*
X342280Y608700D01*
X342294Y608762D01*
X342303Y608824D01*
X342309Y608887D01*
X342311Y608950D01*
X340406Y607299D02*
X340353Y607265D01*
X340302Y607229D01*
X340253Y607189D01*
X340207Y607146D01*
X340163Y607100D01*
X340122Y607052D01*
X340085Y607002D01*
X340050Y606949D01*
X340019Y606894D01*
X339991Y606838D01*
X339967Y606780D01*
X339946Y606720D01*
X339929Y606660D01*
X339915Y606598D01*
X339906Y606536D01*
X339900Y606473D01*
X339898Y606410D01*
X340406Y607299D02*
X341803Y608061D01*
X338171Y609966D02*
X337155Y605394D01*
X336139Y608442D01*
X335123Y605394D01*
X334107Y609966D01*
X332075Y609966D02*
X332075Y605394D01*
X332075Y609966D02*
X330805Y609966D01*
X330736Y609964D01*
X330668Y609959D01*
X330600Y609949D01*
X330532Y609936D01*
X330465Y609920D01*
X330399Y609900D01*
X330335Y609876D01*
X330272Y609849D01*
X330210Y609818D01*
X330150Y609784D01*
X330092Y609747D01*
X330036Y609707D01*
X329983Y609664D01*
X329932Y609618D01*
X329883Y609569D01*
X329837Y609518D01*
X329794Y609465D01*
X329754Y609409D01*
X329717Y609351D01*
X329683Y609291D01*
X329652Y609229D01*
X329625Y609166D01*
X329601Y609102D01*
X329581Y609036D01*
X329565Y608969D01*
X329552Y608901D01*
X329542Y608833D01*
X329537Y608765D01*
X329535Y608696D01*
X329535Y606664D01*
X329537Y606595D01*
X329542Y606527D01*
X329552Y606459D01*
X329565Y606391D01*
X329581Y606324D01*
X329601Y606258D01*
X329625Y606194D01*
X329652Y606131D01*
X329683Y606069D01*
X329717Y606009D01*
X329754Y605951D01*
X329794Y605895D01*
X329837Y605842D01*
X329883Y605791D01*
X329932Y605742D01*
X329983Y605696D01*
X330036Y605653D01*
X330092Y605613D01*
X330150Y605576D01*
X330210Y605542D01*
X330272Y605511D01*
X330335Y605484D01*
X330399Y605460D01*
X330465Y605440D01*
X330532Y605424D01*
X330600Y605411D01*
X330668Y605401D01*
X330736Y605396D01*
X330805Y605394D01*
X332075Y605394D01*
X326995Y605394D02*
X326995Y609966D01*
X327503Y605394D02*
X326487Y605394D01*
X326487Y609966D02*
X327503Y609966D01*
X324607Y608696D02*
X324607Y606664D01*
X324607Y608696D02*
X324605Y608766D01*
X324599Y608836D01*
X324590Y608905D01*
X324576Y608974D01*
X324559Y609042D01*
X324538Y609108D01*
X324514Y609174D01*
X324486Y609238D01*
X324454Y609300D01*
X324419Y609361D01*
X324381Y609420D01*
X324339Y609476D01*
X324295Y609530D01*
X324247Y609582D01*
X324197Y609630D01*
X324144Y609676D01*
X324089Y609719D01*
X324032Y609759D01*
X323972Y609796D01*
X323910Y609829D01*
X323847Y609859D01*
X323782Y609885D01*
X323716Y609908D01*
X323649Y609927D01*
X323580Y609942D01*
X323511Y609954D01*
X323442Y609962D01*
X323372Y609966D01*
X323302Y609966D01*
X323232Y609962D01*
X323163Y609954D01*
X323094Y609942D01*
X323025Y609927D01*
X322958Y609908D01*
X322892Y609885D01*
X322827Y609859D01*
X322764Y609829D01*
X322702Y609796D01*
X322642Y609759D01*
X322585Y609719D01*
X322530Y609676D01*
X322477Y609630D01*
X322427Y609582D01*
X322379Y609530D01*
X322335Y609476D01*
X322293Y609420D01*
X322255Y609361D01*
X322220Y609300D01*
X322188Y609238D01*
X322160Y609174D01*
X322136Y609108D01*
X322115Y609042D01*
X322098Y608974D01*
X322084Y608905D01*
X322075Y608836D01*
X322069Y608766D01*
X322067Y608696D01*
X322067Y606664D01*
X322069Y606594D01*
X322075Y606524D01*
X322084Y606455D01*
X322098Y606386D01*
X322115Y606318D01*
X322136Y606252D01*
X322160Y606186D01*
X322188Y606122D01*
X322220Y606060D01*
X322255Y605999D01*
X322293Y605940D01*
X322335Y605884D01*
X322379Y605830D01*
X322427Y605778D01*
X322477Y605730D01*
X322530Y605684D01*
X322585Y605641D01*
X322642Y605601D01*
X322702Y605564D01*
X322764Y605531D01*
X322827Y605501D01*
X322892Y605475D01*
X322958Y605452D01*
X323025Y605433D01*
X323094Y605418D01*
X323163Y605406D01*
X323232Y605398D01*
X323302Y605394D01*
X323372Y605394D01*
X323442Y605398D01*
X323511Y605406D01*
X323580Y605418D01*
X323649Y605433D01*
X323716Y605452D01*
X323782Y605475D01*
X323847Y605501D01*
X323910Y605531D01*
X323972Y605564D01*
X324032Y605601D01*
X324089Y605641D01*
X324144Y605684D01*
X324197Y605730D01*
X324247Y605778D01*
X324295Y605830D01*
X324339Y605884D01*
X324381Y605940D01*
X324419Y605999D01*
X324454Y606060D01*
X324486Y606122D01*
X324514Y606186D01*
X324538Y606252D01*
X324559Y606318D01*
X324576Y606386D01*
X324590Y606455D01*
X324599Y606524D01*
X324605Y606594D01*
X324607Y606664D01*
X342395Y593494D02*
X342397Y593433D01*
X342402Y593372D01*
X342412Y593311D01*
X342425Y593251D01*
X342441Y593192D01*
X342461Y593134D01*
X342485Y593077D01*
X342511Y593022D01*
X342542Y592968D01*
X342575Y592917D01*
X342611Y592867D01*
X342651Y592820D01*
X342693Y592776D01*
X342737Y592734D01*
X342784Y592694D01*
X342834Y592658D01*
X342885Y592625D01*
X342939Y592594D01*
X342994Y592568D01*
X343051Y592544D01*
X343109Y592524D01*
X343168Y592508D01*
X343228Y592495D01*
X343289Y592485D01*
X343350Y592480D01*
X343411Y592478D01*
X343500Y592480D01*
X343589Y592485D01*
X343678Y592495D01*
X343766Y592508D01*
X343854Y592524D01*
X343941Y592544D01*
X344026Y592568D01*
X344111Y592596D01*
X344195Y592626D01*
X344277Y592661D01*
X344358Y592698D01*
X344437Y592739D01*
X344515Y592784D01*
X344590Y592831D01*
X344664Y592882D01*
X344735Y592935D01*
X344804Y592992D01*
X344871Y593051D01*
X344935Y593113D01*
X344808Y596034D02*
X344806Y596095D01*
X344801Y596156D01*
X344791Y596217D01*
X344778Y596277D01*
X344762Y596336D01*
X344742Y596394D01*
X344718Y596451D01*
X344692Y596506D01*
X344661Y596560D01*
X344628Y596611D01*
X344592Y596661D01*
X344552Y596708D01*
X344510Y596752D01*
X344466Y596794D01*
X344419Y596834D01*
X344369Y596870D01*
X344318Y596903D01*
X344264Y596934D01*
X344209Y596960D01*
X344152Y596984D01*
X344094Y597004D01*
X344035Y597020D01*
X343975Y597033D01*
X343914Y597043D01*
X343853Y597048D01*
X343792Y597050D01*
X343710Y597048D01*
X343629Y597043D01*
X343548Y597034D01*
X343467Y597022D01*
X343387Y597006D01*
X343307Y596987D01*
X343228Y596965D01*
X343151Y596939D01*
X343075Y596910D01*
X343000Y596877D01*
X342926Y596842D01*
X342854Y596803D01*
X342784Y596761D01*
X342715Y596717D01*
X342649Y596669D01*
X344300Y595145D02*
X344353Y595179D01*
X344404Y595215D01*
X344453Y595255D01*
X344499Y595298D01*
X344543Y595344D01*
X344584Y595392D01*
X344621Y595442D01*
X344656Y595495D01*
X344687Y595550D01*
X344715Y595606D01*
X344739Y595664D01*
X344760Y595724D01*
X344777Y595784D01*
X344791Y595846D01*
X344800Y595908D01*
X344806Y595971D01*
X344808Y596034D01*
X342902Y594383D02*
X342849Y594349D01*
X342798Y594313D01*
X342749Y594273D01*
X342703Y594230D01*
X342659Y594184D01*
X342618Y594136D01*
X342581Y594086D01*
X342546Y594033D01*
X342515Y593978D01*
X342487Y593922D01*
X342463Y593864D01*
X342442Y593804D01*
X342425Y593744D01*
X342411Y593682D01*
X342402Y593620D01*
X342396Y593557D01*
X342394Y593494D01*
X342903Y594383D02*
X344300Y595145D01*
X340667Y597050D02*
X339651Y592478D01*
X338635Y595526D01*
X337619Y592478D01*
X336603Y597050D01*
X334571Y597050D02*
X334571Y592478D01*
X334571Y597050D02*
X333301Y597050D01*
X333232Y597048D01*
X333164Y597043D01*
X333096Y597033D01*
X333028Y597020D01*
X332961Y597004D01*
X332895Y596984D01*
X332831Y596960D01*
X332768Y596933D01*
X332706Y596902D01*
X332646Y596868D01*
X332588Y596831D01*
X332532Y596791D01*
X332479Y596748D01*
X332428Y596702D01*
X332379Y596653D01*
X332333Y596602D01*
X332290Y596549D01*
X332250Y596493D01*
X332213Y596435D01*
X332179Y596375D01*
X332148Y596313D01*
X332121Y596250D01*
X332097Y596186D01*
X332077Y596120D01*
X332061Y596053D01*
X332048Y595985D01*
X332038Y595917D01*
X332033Y595849D01*
X332031Y595780D01*
X332031Y593748D01*
X332033Y593679D01*
X332038Y593611D01*
X332048Y593543D01*
X332061Y593475D01*
X332077Y593408D01*
X332097Y593342D01*
X332121Y593278D01*
X332148Y593215D01*
X332179Y593153D01*
X332213Y593093D01*
X332250Y593035D01*
X332290Y592979D01*
X332333Y592926D01*
X332379Y592875D01*
X332428Y592826D01*
X332479Y592780D01*
X332532Y592737D01*
X332588Y592697D01*
X332646Y592660D01*
X332706Y592626D01*
X332768Y592595D01*
X332831Y592568D01*
X332895Y592544D01*
X332961Y592524D01*
X333028Y592508D01*
X333096Y592495D01*
X333164Y592485D01*
X333232Y592480D01*
X333301Y592478D01*
X334571Y592478D01*
X328846Y592478D02*
X327830Y592478D01*
X328846Y592478D02*
X328907Y592480D01*
X328968Y592485D01*
X329029Y592495D01*
X329089Y592508D01*
X329148Y592524D01*
X329206Y592544D01*
X329263Y592568D01*
X329318Y592594D01*
X329372Y592625D01*
X329423Y592658D01*
X329473Y592694D01*
X329520Y592734D01*
X329564Y592776D01*
X329606Y592820D01*
X329646Y592867D01*
X329682Y592917D01*
X329715Y592968D01*
X329746Y593022D01*
X329772Y593077D01*
X329796Y593134D01*
X329816Y593192D01*
X329832Y593251D01*
X329845Y593311D01*
X329855Y593372D01*
X329860Y593433D01*
X329862Y593494D01*
X329862Y596034D01*
X329860Y596095D01*
X329855Y596156D01*
X329845Y596217D01*
X329832Y596277D01*
X329816Y596336D01*
X329796Y596394D01*
X329772Y596451D01*
X329746Y596506D01*
X329715Y596560D01*
X329682Y596611D01*
X329646Y596661D01*
X329606Y596708D01*
X329564Y596752D01*
X329520Y596794D01*
X329473Y596834D01*
X329423Y596870D01*
X329372Y596903D01*
X329318Y596934D01*
X329263Y596960D01*
X329206Y596984D01*
X329148Y597004D01*
X329089Y597020D01*
X329029Y597033D01*
X328968Y597043D01*
X328907Y597048D01*
X328846Y597050D01*
X327830Y597050D01*
X325875Y597050D02*
X325875Y592478D01*
X323843Y592478D01*
X321846Y592478D02*
X321846Y597050D01*
X319306Y597050D02*
X321846Y594256D01*
X320830Y595272D02*
X319306Y592478D01*
X341998Y584134D02*
X341998Y579562D01*
X341998Y584134D02*
X340728Y584134D01*
X340658Y584132D01*
X340588Y584126D01*
X340519Y584117D01*
X340450Y584103D01*
X340382Y584086D01*
X340316Y584065D01*
X340250Y584041D01*
X340186Y584013D01*
X340124Y583981D01*
X340063Y583946D01*
X340004Y583908D01*
X339948Y583866D01*
X339894Y583822D01*
X339842Y583774D01*
X339794Y583724D01*
X339748Y583671D01*
X339705Y583616D01*
X339665Y583559D01*
X339628Y583499D01*
X339595Y583437D01*
X339565Y583374D01*
X339539Y583309D01*
X339516Y583243D01*
X339497Y583176D01*
X339482Y583107D01*
X339470Y583038D01*
X339462Y582969D01*
X339458Y582899D01*
X339458Y582829D01*
X339462Y582759D01*
X339470Y582690D01*
X339482Y582621D01*
X339497Y582552D01*
X339516Y582485D01*
X339539Y582419D01*
X339565Y582354D01*
X339595Y582291D01*
X339628Y582229D01*
X339665Y582169D01*
X339705Y582112D01*
X339748Y582057D01*
X339794Y582004D01*
X339842Y581954D01*
X339894Y581906D01*
X339948Y581862D01*
X340004Y581820D01*
X340063Y581782D01*
X340124Y581747D01*
X340186Y581715D01*
X340250Y581687D01*
X340316Y581663D01*
X340382Y581642D01*
X340450Y581625D01*
X340519Y581611D01*
X340588Y581602D01*
X340658Y581596D01*
X340728Y581594D01*
X341998Y581594D01*
X340474Y581594D02*
X339458Y579562D01*
X337297Y579562D02*
X335265Y579562D01*
X337297Y579562D02*
X337297Y584134D01*
X335265Y584134D01*
X335773Y582102D02*
X337297Y582102D01*
X332126Y579562D02*
X332065Y579564D01*
X332004Y579569D01*
X331943Y579579D01*
X331883Y579592D01*
X331824Y579608D01*
X331766Y579628D01*
X331709Y579652D01*
X331654Y579678D01*
X331600Y579709D01*
X331549Y579742D01*
X331499Y579778D01*
X331452Y579818D01*
X331408Y579860D01*
X331366Y579904D01*
X331326Y579951D01*
X331290Y580001D01*
X331257Y580052D01*
X331226Y580106D01*
X331200Y580161D01*
X331176Y580218D01*
X331156Y580276D01*
X331140Y580335D01*
X331127Y580395D01*
X331117Y580456D01*
X331112Y580517D01*
X331110Y580578D01*
X332126Y579562D02*
X332215Y579564D01*
X332304Y579569D01*
X332393Y579579D01*
X332481Y579592D01*
X332569Y579608D01*
X332656Y579628D01*
X332741Y579652D01*
X332826Y579680D01*
X332910Y579710D01*
X332992Y579745D01*
X333073Y579782D01*
X333152Y579823D01*
X333230Y579868D01*
X333305Y579915D01*
X333379Y579966D01*
X333450Y580019D01*
X333519Y580076D01*
X333586Y580135D01*
X333650Y580197D01*
X333523Y583118D02*
X333521Y583179D01*
X333516Y583240D01*
X333506Y583301D01*
X333493Y583361D01*
X333477Y583420D01*
X333457Y583478D01*
X333433Y583535D01*
X333407Y583590D01*
X333376Y583644D01*
X333343Y583695D01*
X333307Y583745D01*
X333267Y583792D01*
X333225Y583836D01*
X333181Y583878D01*
X333134Y583918D01*
X333084Y583954D01*
X333033Y583987D01*
X332979Y584018D01*
X332924Y584044D01*
X332867Y584068D01*
X332809Y584088D01*
X332750Y584104D01*
X332690Y584117D01*
X332629Y584127D01*
X332568Y584132D01*
X332507Y584134D01*
X332425Y584132D01*
X332344Y584127D01*
X332263Y584118D01*
X332182Y584106D01*
X332102Y584090D01*
X332022Y584071D01*
X331943Y584049D01*
X331866Y584023D01*
X331790Y583994D01*
X331715Y583961D01*
X331641Y583926D01*
X331569Y583887D01*
X331499Y583845D01*
X331430Y583801D01*
X331364Y583753D01*
X333015Y582229D02*
X333068Y582263D01*
X333119Y582299D01*
X333168Y582339D01*
X333214Y582382D01*
X333258Y582428D01*
X333299Y582476D01*
X333336Y582526D01*
X333371Y582579D01*
X333402Y582634D01*
X333430Y582690D01*
X333454Y582748D01*
X333475Y582808D01*
X333492Y582868D01*
X333506Y582930D01*
X333515Y582992D01*
X333521Y583055D01*
X333523Y583118D01*
X331617Y581467D02*
X331564Y581433D01*
X331513Y581397D01*
X331464Y581357D01*
X331418Y581314D01*
X331374Y581268D01*
X331333Y581220D01*
X331296Y581170D01*
X331261Y581117D01*
X331230Y581062D01*
X331202Y581006D01*
X331178Y580948D01*
X331157Y580888D01*
X331140Y580828D01*
X331126Y580766D01*
X331117Y580704D01*
X331111Y580641D01*
X331109Y580578D01*
X331618Y581467D02*
X333015Y582229D01*
X329067Y579562D02*
X327035Y579562D01*
X329067Y579562D02*
X329067Y584134D01*
X327035Y584134D01*
X327543Y582102D02*
X329067Y582102D01*
X324302Y584134D02*
X324302Y579562D01*
X325572Y584134D02*
X323032Y584134D01*
X344053Y531861D02*
X344815Y531861D01*
X344053Y531861D02*
X344053Y529321D01*
X345577Y529321D01*
X345638Y529323D01*
X345699Y529328D01*
X345760Y529338D01*
X345820Y529351D01*
X345879Y529367D01*
X345937Y529387D01*
X345994Y529411D01*
X346049Y529437D01*
X346103Y529468D01*
X346154Y529501D01*
X346204Y529537D01*
X346251Y529577D01*
X346295Y529619D01*
X346337Y529663D01*
X346377Y529710D01*
X346413Y529760D01*
X346446Y529811D01*
X346477Y529865D01*
X346503Y529920D01*
X346527Y529977D01*
X346547Y530035D01*
X346563Y530094D01*
X346576Y530154D01*
X346586Y530215D01*
X346591Y530276D01*
X346593Y530337D01*
X346593Y532877D01*
X346591Y532938D01*
X346586Y532999D01*
X346576Y533060D01*
X346563Y533120D01*
X346547Y533179D01*
X346527Y533237D01*
X346503Y533294D01*
X346477Y533349D01*
X346446Y533403D01*
X346413Y533454D01*
X346377Y533504D01*
X346337Y533551D01*
X346295Y533595D01*
X346251Y533637D01*
X346204Y533677D01*
X346154Y533713D01*
X346103Y533746D01*
X346049Y533777D01*
X345994Y533803D01*
X345937Y533827D01*
X345879Y533847D01*
X345820Y533863D01*
X345760Y533876D01*
X345699Y533886D01*
X345638Y533891D01*
X345577Y533893D01*
X344053Y533893D01*
X341716Y533893D02*
X341716Y529321D01*
X339176Y529321D02*
X341716Y533893D01*
X339176Y533893D02*
X339176Y529321D01*
X336840Y529321D02*
X336840Y533893D01*
X335570Y533893D01*
X335501Y533891D01*
X335433Y533886D01*
X335365Y533876D01*
X335297Y533863D01*
X335230Y533847D01*
X335164Y533827D01*
X335100Y533803D01*
X335037Y533776D01*
X334975Y533745D01*
X334915Y533711D01*
X334857Y533674D01*
X334801Y533634D01*
X334748Y533591D01*
X334697Y533545D01*
X334648Y533496D01*
X334602Y533445D01*
X334559Y533392D01*
X334519Y533336D01*
X334482Y533278D01*
X334448Y533218D01*
X334417Y533156D01*
X334390Y533093D01*
X334366Y533029D01*
X334346Y532963D01*
X334330Y532896D01*
X334317Y532828D01*
X334307Y532760D01*
X334302Y532692D01*
X334300Y532623D01*
X334300Y530591D01*
X334302Y530522D01*
X334307Y530454D01*
X334317Y530386D01*
X334330Y530318D01*
X334346Y530251D01*
X334366Y530185D01*
X334390Y530121D01*
X334417Y530058D01*
X334448Y529996D01*
X334482Y529936D01*
X334519Y529878D01*
X334559Y529822D01*
X334602Y529769D01*
X334648Y529718D01*
X334697Y529669D01*
X334748Y529623D01*
X334801Y529580D01*
X334857Y529540D01*
X334915Y529503D01*
X334975Y529469D01*
X335037Y529438D01*
X335100Y529411D01*
X335164Y529387D01*
X335230Y529367D01*
X335297Y529351D01*
X335365Y529338D01*
X335433Y529328D01*
X335501Y529323D01*
X335570Y529321D01*
X336840Y529321D01*
X343118Y516941D02*
X344388Y516941D01*
X343118Y516941D02*
X343048Y516943D01*
X342978Y516949D01*
X342909Y516958D01*
X342840Y516972D01*
X342772Y516989D01*
X342706Y517010D01*
X342640Y517034D01*
X342576Y517062D01*
X342514Y517094D01*
X342453Y517129D01*
X342394Y517167D01*
X342338Y517209D01*
X342284Y517253D01*
X342232Y517301D01*
X342184Y517351D01*
X342138Y517404D01*
X342095Y517459D01*
X342055Y517516D01*
X342018Y517576D01*
X341985Y517638D01*
X341955Y517701D01*
X341929Y517766D01*
X341906Y517832D01*
X341887Y517899D01*
X341872Y517968D01*
X341860Y518037D01*
X341852Y518106D01*
X341848Y518176D01*
X341848Y518246D01*
X341852Y518316D01*
X341860Y518385D01*
X341872Y518454D01*
X341887Y518523D01*
X341906Y518590D01*
X341929Y518656D01*
X341955Y518721D01*
X341985Y518784D01*
X342018Y518846D01*
X342055Y518906D01*
X342095Y518963D01*
X342138Y519018D01*
X342184Y519071D01*
X342232Y519121D01*
X342284Y519169D01*
X342338Y519213D01*
X342394Y519255D01*
X342453Y519293D01*
X342514Y519328D01*
X342576Y519360D01*
X342640Y519388D01*
X342706Y519412D01*
X342772Y519433D01*
X342840Y519450D01*
X342909Y519464D01*
X342978Y519473D01*
X343048Y519479D01*
X343118Y519481D01*
X342864Y521513D02*
X344388Y521513D01*
X342864Y521513D02*
X342801Y521511D01*
X342739Y521505D01*
X342677Y521496D01*
X342616Y521482D01*
X342556Y521465D01*
X342497Y521444D01*
X342439Y521420D01*
X342383Y521392D01*
X342329Y521361D01*
X342277Y521326D01*
X342227Y521289D01*
X342180Y521248D01*
X342135Y521204D01*
X342092Y521158D01*
X342053Y521109D01*
X342017Y521058D01*
X341984Y521005D01*
X341955Y520950D01*
X341928Y520893D01*
X341906Y520835D01*
X341887Y520775D01*
X341872Y520714D01*
X341860Y520653D01*
X341852Y520591D01*
X341848Y520528D01*
X341848Y520466D01*
X341852Y520403D01*
X341860Y520341D01*
X341872Y520280D01*
X341887Y520219D01*
X341906Y520159D01*
X341928Y520101D01*
X341955Y520044D01*
X341984Y519989D01*
X342017Y519936D01*
X342053Y519885D01*
X342092Y519836D01*
X342135Y519790D01*
X342180Y519746D01*
X342227Y519705D01*
X342277Y519668D01*
X342329Y519633D01*
X342383Y519602D01*
X342439Y519574D01*
X342497Y519550D01*
X342556Y519529D01*
X342616Y519512D01*
X342677Y519498D01*
X342739Y519489D01*
X342801Y519483D01*
X342864Y519481D01*
X343880Y519481D01*
X340045Y517195D02*
X340045Y516941D01*
X340045Y517195D02*
X339791Y517195D01*
X339791Y516941D01*
X340045Y516941D01*
X337988Y516941D02*
X336718Y516941D01*
X336648Y516943D01*
X336578Y516949D01*
X336509Y516958D01*
X336440Y516972D01*
X336372Y516989D01*
X336306Y517010D01*
X336240Y517034D01*
X336176Y517062D01*
X336114Y517094D01*
X336053Y517129D01*
X335994Y517167D01*
X335938Y517209D01*
X335884Y517253D01*
X335832Y517301D01*
X335784Y517351D01*
X335738Y517404D01*
X335695Y517459D01*
X335655Y517516D01*
X335618Y517576D01*
X335585Y517638D01*
X335555Y517701D01*
X335529Y517766D01*
X335506Y517832D01*
X335487Y517899D01*
X335472Y517968D01*
X335460Y518037D01*
X335452Y518106D01*
X335448Y518176D01*
X335448Y518246D01*
X335452Y518316D01*
X335460Y518385D01*
X335472Y518454D01*
X335487Y518523D01*
X335506Y518590D01*
X335529Y518656D01*
X335555Y518721D01*
X335585Y518784D01*
X335618Y518846D01*
X335655Y518906D01*
X335695Y518963D01*
X335738Y519018D01*
X335784Y519071D01*
X335832Y519121D01*
X335884Y519169D01*
X335938Y519213D01*
X335994Y519255D01*
X336053Y519293D01*
X336114Y519328D01*
X336176Y519360D01*
X336240Y519388D01*
X336306Y519412D01*
X336372Y519433D01*
X336440Y519450D01*
X336509Y519464D01*
X336578Y519473D01*
X336648Y519479D01*
X336718Y519481D01*
X336464Y521513D02*
X337988Y521513D01*
X336464Y521513D02*
X336401Y521511D01*
X336339Y521505D01*
X336277Y521496D01*
X336216Y521482D01*
X336156Y521465D01*
X336097Y521444D01*
X336039Y521420D01*
X335983Y521392D01*
X335929Y521361D01*
X335877Y521326D01*
X335827Y521289D01*
X335780Y521248D01*
X335735Y521204D01*
X335692Y521158D01*
X335653Y521109D01*
X335617Y521058D01*
X335584Y521005D01*
X335555Y520950D01*
X335528Y520893D01*
X335506Y520835D01*
X335487Y520775D01*
X335472Y520714D01*
X335460Y520653D01*
X335452Y520591D01*
X335448Y520528D01*
X335448Y520466D01*
X335452Y520403D01*
X335460Y520341D01*
X335472Y520280D01*
X335487Y520219D01*
X335506Y520159D01*
X335528Y520101D01*
X335555Y520044D01*
X335584Y519989D01*
X335617Y519936D01*
X335653Y519885D01*
X335692Y519836D01*
X335735Y519790D01*
X335780Y519746D01*
X335827Y519705D01*
X335877Y519668D01*
X335929Y519633D01*
X335983Y519602D01*
X336039Y519574D01*
X336097Y519550D01*
X336156Y519529D01*
X336216Y519512D01*
X336277Y519498D01*
X336339Y519489D01*
X336401Y519483D01*
X336464Y519481D01*
X337480Y519481D01*
X333670Y521513D02*
X332146Y516941D01*
X330622Y521513D01*
X108854Y555417D02*
X108854Y555925D01*
X106314Y555925D01*
X107584Y551353D01*
X104231Y553131D02*
X101183Y553131D01*
X102707Y551607D02*
X102707Y554655D01*
X133871Y554878D02*
X133871Y555386D01*
X131331Y555386D01*
X132601Y550814D01*
X129248Y552592D02*
X126200Y552592D01*
X109406Y445902D02*
X109458Y445792D01*
X109506Y445679D01*
X109550Y445566D01*
X109591Y445451D01*
X109628Y445334D01*
X109661Y445217D01*
X109691Y445098D01*
X109716Y444979D01*
X109738Y444859D01*
X109755Y444738D01*
X109769Y444617D01*
X109779Y444495D01*
X109785Y444373D01*
X109787Y444251D01*
X109405Y445902D02*
X109385Y445956D01*
X109361Y446010D01*
X109333Y446061D01*
X109303Y446111D01*
X109270Y446159D01*
X109233Y446204D01*
X109194Y446248D01*
X109153Y446288D01*
X109109Y446327D01*
X109062Y446362D01*
X109014Y446394D01*
X108964Y446424D01*
X108911Y446450D01*
X108858Y446473D01*
X108803Y446492D01*
X108747Y446508D01*
X108690Y446521D01*
X108632Y446530D01*
X108574Y446535D01*
X108516Y446537D01*
X108458Y446535D01*
X108400Y446530D01*
X108342Y446521D01*
X108285Y446508D01*
X108229Y446492D01*
X108174Y446473D01*
X108121Y446450D01*
X108068Y446424D01*
X108018Y446394D01*
X107970Y446362D01*
X107923Y446327D01*
X107879Y446288D01*
X107838Y446248D01*
X107799Y446204D01*
X107762Y446159D01*
X107729Y446111D01*
X107699Y446061D01*
X107671Y446010D01*
X107647Y445956D01*
X107627Y445902D01*
X107575Y445792D01*
X107527Y445679D01*
X107483Y445566D01*
X107442Y445451D01*
X107405Y445334D01*
X107372Y445217D01*
X107342Y445098D01*
X107317Y444979D01*
X107295Y444859D01*
X107278Y444738D01*
X107264Y444617D01*
X107254Y444495D01*
X107248Y444373D01*
X107246Y444251D01*
X109787Y444251D02*
X109785Y444129D01*
X109779Y444007D01*
X109769Y443885D01*
X109755Y443764D01*
X109738Y443643D01*
X109716Y443523D01*
X109691Y443404D01*
X109661Y443285D01*
X109628Y443168D01*
X109591Y443051D01*
X109550Y442936D01*
X109506Y442823D01*
X109458Y442710D01*
X109406Y442600D01*
X109405Y442600D02*
X109385Y442546D01*
X109361Y442492D01*
X109333Y442441D01*
X109303Y442391D01*
X109270Y442343D01*
X109233Y442298D01*
X109194Y442254D01*
X109153Y442214D01*
X109109Y442175D01*
X109062Y442140D01*
X109014Y442108D01*
X108964Y442078D01*
X108911Y442052D01*
X108858Y442029D01*
X108803Y442010D01*
X108747Y441994D01*
X108690Y441981D01*
X108632Y441972D01*
X108574Y441967D01*
X108516Y441965D01*
X107627Y442600D02*
X107575Y442710D01*
X107527Y442823D01*
X107483Y442936D01*
X107442Y443051D01*
X107405Y443168D01*
X107372Y443285D01*
X107342Y443404D01*
X107317Y443523D01*
X107295Y443643D01*
X107278Y443764D01*
X107264Y443885D01*
X107254Y444007D01*
X107248Y444129D01*
X107246Y444251D01*
X107627Y442600D02*
X107647Y442546D01*
X107671Y442492D01*
X107699Y442441D01*
X107729Y442391D01*
X107762Y442343D01*
X107799Y442298D01*
X107838Y442254D01*
X107879Y442214D01*
X107923Y442175D01*
X107970Y442140D01*
X108018Y442108D01*
X108068Y442078D01*
X108121Y442052D01*
X108174Y442029D01*
X108229Y442010D01*
X108285Y441994D01*
X108342Y441981D01*
X108400Y441972D01*
X108458Y441967D01*
X108516Y441965D01*
X109532Y442981D02*
X107500Y445521D01*
X105164Y443743D02*
X102116Y443743D01*
X103640Y442219D02*
X103640Y445267D01*
X132794Y445651D02*
X132846Y445541D01*
X132894Y445428D01*
X132938Y445315D01*
X132979Y445200D01*
X133016Y445083D01*
X133049Y444966D01*
X133079Y444847D01*
X133104Y444728D01*
X133126Y444608D01*
X133143Y444487D01*
X133157Y444366D01*
X133167Y444244D01*
X133173Y444122D01*
X133175Y444000D01*
X132794Y445651D02*
X132774Y445705D01*
X132750Y445759D01*
X132722Y445810D01*
X132692Y445860D01*
X132659Y445908D01*
X132622Y445953D01*
X132583Y445997D01*
X132542Y446037D01*
X132498Y446076D01*
X132451Y446111D01*
X132403Y446143D01*
X132353Y446173D01*
X132300Y446199D01*
X132247Y446222D01*
X132192Y446241D01*
X132136Y446257D01*
X132079Y446270D01*
X132021Y446279D01*
X131963Y446284D01*
X131905Y446286D01*
X131847Y446284D01*
X131789Y446279D01*
X131731Y446270D01*
X131674Y446257D01*
X131618Y446241D01*
X131563Y446222D01*
X131510Y446199D01*
X131457Y446173D01*
X131407Y446143D01*
X131359Y446111D01*
X131312Y446076D01*
X131268Y446037D01*
X131227Y445997D01*
X131188Y445953D01*
X131151Y445908D01*
X131118Y445860D01*
X131088Y445810D01*
X131060Y445759D01*
X131036Y445705D01*
X131016Y445651D01*
X131015Y445651D02*
X130963Y445541D01*
X130915Y445428D01*
X130871Y445315D01*
X130830Y445200D01*
X130793Y445083D01*
X130760Y444966D01*
X130730Y444847D01*
X130705Y444728D01*
X130683Y444608D01*
X130666Y444487D01*
X130652Y444366D01*
X130642Y444244D01*
X130636Y444122D01*
X130634Y444000D01*
X133175Y444000D02*
X133173Y443878D01*
X133167Y443756D01*
X133157Y443634D01*
X133143Y443513D01*
X133126Y443392D01*
X133104Y443272D01*
X133079Y443153D01*
X133049Y443034D01*
X133016Y442917D01*
X132979Y442800D01*
X132938Y442685D01*
X132894Y442572D01*
X132846Y442459D01*
X132794Y442349D01*
X132794Y442348D02*
X132774Y442294D01*
X132750Y442240D01*
X132722Y442189D01*
X132692Y442139D01*
X132659Y442091D01*
X132622Y442046D01*
X132583Y442002D01*
X132542Y441962D01*
X132498Y441923D01*
X132451Y441888D01*
X132403Y441856D01*
X132353Y441826D01*
X132300Y441800D01*
X132247Y441777D01*
X132192Y441758D01*
X132136Y441742D01*
X132079Y441729D01*
X132021Y441720D01*
X131963Y441715D01*
X131905Y441713D01*
X131015Y442349D02*
X130963Y442459D01*
X130915Y442572D01*
X130871Y442685D01*
X130830Y442800D01*
X130793Y442917D01*
X130760Y443034D01*
X130730Y443153D01*
X130705Y443272D01*
X130683Y443392D01*
X130666Y443513D01*
X130652Y443634D01*
X130642Y443756D01*
X130636Y443878D01*
X130634Y444000D01*
X131016Y442348D02*
X131036Y442294D01*
X131060Y442240D01*
X131088Y442189D01*
X131118Y442139D01*
X131151Y442091D01*
X131188Y442046D01*
X131227Y442002D01*
X131268Y441962D01*
X131312Y441923D01*
X131359Y441888D01*
X131407Y441856D01*
X131457Y441826D01*
X131510Y441800D01*
X131563Y441777D01*
X131618Y441758D01*
X131674Y441742D01*
X131731Y441729D01*
X131789Y441720D01*
X131847Y441715D01*
X131905Y441713D01*
X132921Y442730D02*
X130889Y445270D01*
X128552Y443492D02*
X125504Y443492D01*
D11*
X146888Y577004D03*
D12*
X156800Y567049D02*
X168484Y574838D01*
X168484Y567049D02*
X156800Y574838D01*
X165563Y585619D02*
X165670Y585617D01*
X165776Y585611D01*
X165882Y585601D01*
X165988Y585588D01*
X166094Y585570D01*
X166198Y585549D01*
X166302Y585524D01*
X166405Y585495D01*
X166506Y585463D01*
X166606Y585426D01*
X166705Y585386D01*
X166803Y585343D01*
X166899Y585296D01*
X166993Y585245D01*
X167085Y585191D01*
X167175Y585134D01*
X167263Y585074D01*
X167348Y585010D01*
X167431Y584943D01*
X167512Y584873D01*
X167590Y584801D01*
X167666Y584725D01*
X167738Y584647D01*
X167808Y584566D01*
X167875Y584483D01*
X167939Y584398D01*
X167999Y584310D01*
X168056Y584220D01*
X168110Y584128D01*
X168161Y584034D01*
X168208Y583938D01*
X168251Y583840D01*
X168291Y583741D01*
X168328Y583641D01*
X168360Y583540D01*
X168389Y583437D01*
X168414Y583333D01*
X168435Y583229D01*
X168453Y583123D01*
X168466Y583017D01*
X168476Y582911D01*
X168482Y582805D01*
X168484Y582698D01*
X168485Y582698D02*
X168483Y582577D01*
X168477Y582456D01*
X168467Y582336D01*
X168454Y582215D01*
X168436Y582096D01*
X168415Y581976D01*
X168390Y581858D01*
X168361Y581741D01*
X168328Y581624D01*
X168292Y581509D01*
X168251Y581395D01*
X168208Y581282D01*
X168160Y581170D01*
X168109Y581061D01*
X168054Y580953D01*
X167996Y580846D01*
X167935Y580742D01*
X167870Y580640D01*
X167802Y580540D01*
X167731Y580442D01*
X167657Y580346D01*
X167580Y580253D01*
X167499Y580163D01*
X167416Y580075D01*
X167330Y579990D01*
X167241Y579907D01*
X167150Y579828D01*
X167056Y579751D01*
X166960Y579678D01*
X166862Y579608D01*
X166761Y579541D01*
X166658Y579477D01*
X166553Y579417D01*
X166446Y579360D01*
X166338Y579306D01*
X166228Y579256D01*
X166116Y579210D01*
X166003Y579167D01*
X165888Y579128D01*
X163291Y584646D02*
X163368Y584725D01*
X163449Y584801D01*
X163532Y584874D01*
X163617Y584944D01*
X163705Y585011D01*
X163795Y585075D01*
X163887Y585135D01*
X163982Y585192D01*
X164078Y585246D01*
X164176Y585297D01*
X164276Y585344D01*
X164378Y585388D01*
X164481Y585428D01*
X164585Y585464D01*
X164691Y585496D01*
X164797Y585525D01*
X164905Y585550D01*
X165013Y585572D01*
X165123Y585589D01*
X165232Y585603D01*
X165342Y585612D01*
X165453Y585618D01*
X165563Y585620D01*
X163291Y584645D02*
X156800Y579128D01*
X156800Y585619D01*
D13*
X303929Y501231D02*
X303929Y481831D01*
X271929Y482331D02*
X271929Y501731D01*
X283129Y466731D02*
X293029Y466731D01*
X292929Y516731D02*
X283029Y516731D01*
D12*
X293274Y490095D02*
X281590Y482305D01*
X281590Y490095D02*
X293274Y482305D01*
X290678Y494384D02*
X293274Y497630D01*
X281590Y497630D01*
X281590Y494384D02*
X281590Y500876D01*
D14*
X125963Y565090D02*
X121963Y565090D01*
X121963Y571590D01*
X125963Y571590D01*
X129963Y565090D02*
X133963Y565090D01*
X133963Y571590D01*
X129963Y571590D01*
D15*
X125463Y568340D03*
X130463Y568340D03*
D16*
X127963Y569340D03*
X127963Y567340D03*
D17*
X116596Y567730D02*
X116596Y566883D01*
X116598Y566828D01*
X116603Y566772D01*
X116612Y566718D01*
X116625Y566664D01*
X116641Y566611D01*
X116660Y566559D01*
X116683Y566508D01*
X116709Y566460D01*
X116739Y566412D01*
X116771Y566367D01*
X116806Y566325D01*
X116844Y566284D01*
X116885Y566246D01*
X116927Y566211D01*
X116972Y566179D01*
X117020Y566149D01*
X117068Y566123D01*
X117119Y566100D01*
X117171Y566081D01*
X117224Y566065D01*
X117278Y566052D01*
X117332Y566043D01*
X117388Y566038D01*
X117443Y566036D01*
X119559Y566036D01*
X119617Y566038D01*
X119674Y566044D01*
X119731Y566054D01*
X119788Y566067D01*
X119843Y566085D01*
X119896Y566106D01*
X119949Y566131D01*
X119999Y566159D01*
X120047Y566191D01*
X120094Y566226D01*
X120137Y566264D01*
X120178Y566305D01*
X120216Y566348D01*
X120251Y566395D01*
X120283Y566443D01*
X120311Y566493D01*
X120336Y566546D01*
X120357Y566599D01*
X120375Y566654D01*
X120388Y566711D01*
X120398Y566768D01*
X120404Y566825D01*
X120406Y566883D01*
X120406Y567730D01*
X119559Y569094D02*
X120406Y570152D01*
X116596Y570152D01*
X116596Y569094D02*
X116596Y571211D01*
D14*
X121836Y581397D02*
X125836Y581397D01*
X121836Y581397D02*
X121836Y587897D01*
X125836Y587897D01*
X129836Y581397D02*
X133836Y581397D01*
X133836Y587897D01*
X129836Y587897D01*
D15*
X125336Y584647D03*
X130336Y584647D03*
D16*
X127836Y585647D03*
X127836Y583647D03*
D17*
X116512Y583460D02*
X116512Y582613D01*
X116514Y582558D01*
X116519Y582502D01*
X116528Y582448D01*
X116541Y582394D01*
X116557Y582341D01*
X116576Y582289D01*
X116599Y582238D01*
X116625Y582190D01*
X116655Y582142D01*
X116687Y582097D01*
X116722Y582055D01*
X116760Y582014D01*
X116801Y581976D01*
X116843Y581941D01*
X116888Y581909D01*
X116936Y581879D01*
X116984Y581853D01*
X117035Y581830D01*
X117087Y581811D01*
X117140Y581795D01*
X117194Y581782D01*
X117248Y581773D01*
X117304Y581768D01*
X117359Y581766D01*
X117359Y581767D02*
X119476Y581767D01*
X119476Y581766D02*
X119534Y581768D01*
X119591Y581774D01*
X119648Y581784D01*
X119705Y581797D01*
X119760Y581815D01*
X119813Y581836D01*
X119866Y581861D01*
X119916Y581889D01*
X119964Y581921D01*
X120011Y581956D01*
X120054Y581994D01*
X120095Y582035D01*
X120133Y582078D01*
X120168Y582125D01*
X120200Y582173D01*
X120228Y582223D01*
X120253Y582276D01*
X120274Y582329D01*
X120292Y582384D01*
X120305Y582441D01*
X120315Y582498D01*
X120321Y582555D01*
X120323Y582613D01*
X120322Y582613D02*
X120322Y583460D01*
X120323Y585988D02*
X120321Y586048D01*
X120315Y586107D01*
X120306Y586167D01*
X120293Y586225D01*
X120276Y586282D01*
X120256Y586339D01*
X120232Y586394D01*
X120205Y586447D01*
X120175Y586499D01*
X120141Y586548D01*
X120104Y586595D01*
X120065Y586640D01*
X120022Y586683D01*
X119977Y586722D01*
X119930Y586759D01*
X119881Y586793D01*
X119829Y586823D01*
X119776Y586850D01*
X119721Y586874D01*
X119664Y586894D01*
X119607Y586911D01*
X119549Y586924D01*
X119489Y586933D01*
X119430Y586939D01*
X119370Y586941D01*
X120323Y585988D02*
X120321Y585921D01*
X120316Y585854D01*
X120307Y585788D01*
X120294Y585722D01*
X120278Y585658D01*
X120258Y585594D01*
X120234Y585531D01*
X120208Y585469D01*
X120178Y585410D01*
X120145Y585352D01*
X120108Y585295D01*
X120069Y585241D01*
X120027Y585189D01*
X119982Y585140D01*
X119934Y585093D01*
X119884Y585049D01*
X119831Y585007D01*
X119776Y584969D01*
X119720Y584933D01*
X119661Y584901D01*
X119601Y584872D01*
X119539Y584846D01*
X119476Y584824D01*
X118629Y586624D02*
X118671Y586665D01*
X118716Y586704D01*
X118762Y586741D01*
X118811Y586775D01*
X118861Y586806D01*
X118913Y586833D01*
X118967Y586858D01*
X119022Y586880D01*
X119078Y586899D01*
X119135Y586914D01*
X119193Y586926D01*
X119252Y586934D01*
X119311Y586939D01*
X119370Y586941D01*
X118629Y586623D02*
X116512Y584824D01*
X116512Y586941D01*
D14*
X276602Y459231D02*
X280602Y459231D01*
X280602Y452731D01*
X276602Y452731D01*
X272602Y459231D02*
X268602Y459231D01*
X268602Y452731D01*
X272602Y452731D01*
D15*
X277102Y455981D03*
X272102Y455981D03*
D16*
X274602Y454981D03*
X274602Y456981D03*
D17*
X279132Y461188D02*
X279978Y461188D01*
X279978Y461187D02*
X280033Y461189D01*
X280089Y461194D01*
X280143Y461203D01*
X280197Y461216D01*
X280250Y461232D01*
X280302Y461251D01*
X280353Y461274D01*
X280402Y461300D01*
X280449Y461330D01*
X280494Y461362D01*
X280536Y461397D01*
X280577Y461435D01*
X280615Y461476D01*
X280650Y461518D01*
X280682Y461563D01*
X280712Y461611D01*
X280738Y461659D01*
X280761Y461710D01*
X280780Y461762D01*
X280796Y461815D01*
X280809Y461869D01*
X280818Y461923D01*
X280823Y461979D01*
X280825Y462034D01*
X280825Y464151D01*
X280823Y464209D01*
X280817Y464266D01*
X280807Y464323D01*
X280794Y464380D01*
X280776Y464435D01*
X280755Y464488D01*
X280730Y464541D01*
X280702Y464591D01*
X280670Y464639D01*
X280635Y464686D01*
X280597Y464729D01*
X280556Y464770D01*
X280513Y464808D01*
X280466Y464843D01*
X280418Y464875D01*
X280368Y464903D01*
X280315Y464928D01*
X280262Y464949D01*
X280207Y464967D01*
X280150Y464980D01*
X280093Y464990D01*
X280036Y464996D01*
X279978Y464998D01*
X279132Y464998D01*
X277768Y461188D02*
X276709Y461188D01*
X276645Y461190D01*
X276581Y461196D01*
X276518Y461205D01*
X276456Y461219D01*
X276394Y461236D01*
X276334Y461257D01*
X276275Y461281D01*
X276217Y461309D01*
X276162Y461341D01*
X276108Y461375D01*
X276057Y461413D01*
X276007Y461454D01*
X275961Y461498D01*
X275917Y461544D01*
X275876Y461594D01*
X275838Y461645D01*
X275804Y461699D01*
X275772Y461754D01*
X275744Y461812D01*
X275720Y461871D01*
X275699Y461931D01*
X275682Y461993D01*
X275668Y462055D01*
X275659Y462118D01*
X275653Y462182D01*
X275651Y462246D01*
X275653Y462310D01*
X275659Y462374D01*
X275668Y462437D01*
X275682Y462499D01*
X275699Y462561D01*
X275720Y462621D01*
X275744Y462680D01*
X275772Y462738D01*
X275804Y462793D01*
X275838Y462847D01*
X275876Y462898D01*
X275917Y462948D01*
X275961Y462994D01*
X276007Y463038D01*
X276057Y463079D01*
X276108Y463117D01*
X276162Y463151D01*
X276217Y463183D01*
X276275Y463211D01*
X276334Y463235D01*
X276394Y463256D01*
X276456Y463273D01*
X276518Y463287D01*
X276581Y463296D01*
X276645Y463302D01*
X276709Y463304D01*
X276498Y464998D02*
X277768Y464998D01*
X276498Y464998D02*
X276441Y464996D01*
X276385Y464990D01*
X276329Y464981D01*
X276274Y464968D01*
X276220Y464951D01*
X276167Y464931D01*
X276116Y464907D01*
X276066Y464880D01*
X276019Y464849D01*
X275973Y464816D01*
X275930Y464779D01*
X275889Y464740D01*
X275851Y464698D01*
X275816Y464653D01*
X275784Y464607D01*
X275755Y464558D01*
X275730Y464508D01*
X275708Y464455D01*
X275689Y464402D01*
X275674Y464347D01*
X275663Y464292D01*
X275655Y464236D01*
X275651Y464179D01*
X275651Y464123D01*
X275655Y464066D01*
X275663Y464010D01*
X275674Y463955D01*
X275689Y463900D01*
X275708Y463847D01*
X275730Y463794D01*
X275755Y463744D01*
X275784Y463695D01*
X275816Y463649D01*
X275851Y463604D01*
X275889Y463562D01*
X275930Y463523D01*
X275973Y463486D01*
X276019Y463453D01*
X276066Y463422D01*
X276116Y463395D01*
X276167Y463371D01*
X276220Y463351D01*
X276274Y463334D01*
X276329Y463321D01*
X276385Y463312D01*
X276441Y463306D01*
X276498Y463304D01*
X277344Y463304D01*
D14*
X277669Y531097D02*
X277669Y535097D01*
X284169Y535097D01*
X284169Y531097D01*
X277669Y527097D02*
X277669Y523097D01*
X284169Y523097D01*
X284169Y527097D01*
D18*
X280919Y531597D03*
X280919Y526597D03*
D19*
X281919Y529097D03*
X279919Y529097D03*
D17*
X271902Y530993D02*
X271902Y531839D01*
X271902Y530993D02*
X271904Y530938D01*
X271909Y530882D01*
X271918Y530828D01*
X271931Y530774D01*
X271947Y530721D01*
X271966Y530669D01*
X271989Y530618D01*
X272015Y530570D01*
X272045Y530522D01*
X272077Y530477D01*
X272112Y530435D01*
X272150Y530394D01*
X272191Y530356D01*
X272233Y530321D01*
X272278Y530289D01*
X272326Y530259D01*
X272374Y530233D01*
X272425Y530210D01*
X272477Y530191D01*
X272530Y530175D01*
X272584Y530162D01*
X272638Y530153D01*
X272694Y530148D01*
X272749Y530146D01*
X274865Y530146D01*
X274923Y530148D01*
X274980Y530154D01*
X275037Y530164D01*
X275094Y530177D01*
X275149Y530195D01*
X275202Y530216D01*
X275255Y530241D01*
X275305Y530269D01*
X275353Y530301D01*
X275400Y530336D01*
X275443Y530374D01*
X275484Y530415D01*
X275522Y530458D01*
X275557Y530505D01*
X275589Y530553D01*
X275617Y530603D01*
X275642Y530656D01*
X275663Y530709D01*
X275681Y530764D01*
X275694Y530821D01*
X275704Y530878D01*
X275710Y530935D01*
X275712Y530993D01*
X275712Y531839D01*
X275712Y534050D02*
X272749Y533204D01*
X272749Y535320D01*
X273595Y534685D02*
X271902Y534685D01*
D20*
X274068Y570644D02*
X274070Y570696D01*
X274076Y570748D01*
X274086Y570800D01*
X274099Y570850D01*
X274116Y570900D01*
X274137Y570948D01*
X274162Y570994D01*
X274190Y571038D01*
X274221Y571080D01*
X274255Y571120D01*
X274292Y571157D01*
X274332Y571191D01*
X274374Y571222D01*
X274418Y571250D01*
X274464Y571275D01*
X274512Y571296D01*
X274562Y571313D01*
X274612Y571326D01*
X274664Y571336D01*
X274716Y571342D01*
X274768Y571344D01*
X274820Y571342D01*
X274872Y571336D01*
X274924Y571326D01*
X274974Y571313D01*
X275024Y571296D01*
X275072Y571275D01*
X275118Y571250D01*
X275162Y571222D01*
X275204Y571191D01*
X275244Y571157D01*
X275281Y571120D01*
X275315Y571080D01*
X275346Y571038D01*
X275374Y570994D01*
X275399Y570948D01*
X275420Y570900D01*
X275437Y570850D01*
X275450Y570800D01*
X275460Y570748D01*
X275466Y570696D01*
X275468Y570644D01*
X275466Y570592D01*
X275460Y570540D01*
X275450Y570488D01*
X275437Y570438D01*
X275420Y570388D01*
X275399Y570340D01*
X275374Y570294D01*
X275346Y570250D01*
X275315Y570208D01*
X275281Y570168D01*
X275244Y570131D01*
X275204Y570097D01*
X275162Y570066D01*
X275118Y570038D01*
X275072Y570013D01*
X275024Y569992D01*
X274974Y569975D01*
X274924Y569962D01*
X274872Y569952D01*
X274820Y569946D01*
X274768Y569944D01*
X274716Y569946D01*
X274664Y569952D01*
X274612Y569962D01*
X274562Y569975D01*
X274512Y569992D01*
X274464Y570013D01*
X274418Y570038D01*
X274374Y570066D01*
X274332Y570097D01*
X274292Y570131D01*
X274255Y570168D01*
X274221Y570208D01*
X274190Y570250D01*
X274162Y570294D01*
X274137Y570340D01*
X274116Y570388D01*
X274099Y570438D01*
X274086Y570488D01*
X274076Y570540D01*
X274070Y570592D01*
X274068Y570644D01*
D13*
X261568Y575944D02*
X243968Y575944D01*
X243968Y545344D02*
X261568Y545344D01*
D17*
X263707Y580202D02*
X263707Y582925D01*
X263706Y580202D02*
X263704Y580139D01*
X263698Y580076D01*
X263689Y580013D01*
X263676Y579951D01*
X263659Y579891D01*
X263638Y579831D01*
X263614Y579772D01*
X263586Y579715D01*
X263555Y579660D01*
X263521Y579607D01*
X263483Y579556D01*
X263443Y579508D01*
X263399Y579462D01*
X263353Y579418D01*
X263305Y579378D01*
X263254Y579340D01*
X263201Y579306D01*
X263146Y579275D01*
X263089Y579247D01*
X263030Y579223D01*
X262970Y579202D01*
X262910Y579185D01*
X262848Y579172D01*
X262785Y579163D01*
X262722Y579157D01*
X262659Y579155D01*
X262596Y579157D01*
X262533Y579163D01*
X262470Y579172D01*
X262408Y579185D01*
X262348Y579202D01*
X262288Y579223D01*
X262229Y579247D01*
X262172Y579275D01*
X262117Y579306D01*
X262064Y579340D01*
X262013Y579378D01*
X261965Y579418D01*
X261919Y579462D01*
X261875Y579508D01*
X261835Y579556D01*
X261797Y579607D01*
X261763Y579660D01*
X261732Y579715D01*
X261704Y579772D01*
X261680Y579831D01*
X261659Y579891D01*
X261642Y579951D01*
X261629Y580013D01*
X261620Y580076D01*
X261614Y580139D01*
X261612Y580202D01*
X261612Y582925D01*
X259127Y582925D02*
X259965Y579993D01*
X257870Y579993D01*
X258498Y580831D02*
X258498Y579155D01*
D14*
X222836Y547107D02*
X218836Y547107D01*
X218836Y553607D01*
X222836Y553607D01*
X226836Y547107D02*
X230836Y547107D01*
X230836Y553607D01*
X226836Y553607D01*
D15*
X222336Y550357D03*
X227336Y550357D03*
D16*
X224836Y551357D03*
X224836Y549357D03*
D17*
X232319Y549439D02*
X232319Y548593D01*
X232318Y548593D02*
X232320Y548538D01*
X232325Y548482D01*
X232334Y548428D01*
X232347Y548374D01*
X232363Y548321D01*
X232382Y548269D01*
X232405Y548218D01*
X232431Y548170D01*
X232461Y548122D01*
X232493Y548077D01*
X232528Y548035D01*
X232566Y547994D01*
X232607Y547956D01*
X232649Y547921D01*
X232694Y547889D01*
X232742Y547859D01*
X232790Y547833D01*
X232841Y547810D01*
X232893Y547791D01*
X232946Y547775D01*
X233000Y547762D01*
X233054Y547753D01*
X233110Y547748D01*
X233165Y547746D01*
X235282Y547746D01*
X235340Y547748D01*
X235397Y547754D01*
X235454Y547764D01*
X235511Y547777D01*
X235566Y547795D01*
X235619Y547816D01*
X235672Y547841D01*
X235722Y547869D01*
X235770Y547901D01*
X235817Y547936D01*
X235860Y547974D01*
X235901Y548015D01*
X235939Y548058D01*
X235974Y548105D01*
X236006Y548153D01*
X236034Y548203D01*
X236059Y548256D01*
X236080Y548309D01*
X236098Y548364D01*
X236111Y548421D01*
X236121Y548478D01*
X236127Y548535D01*
X236129Y548593D01*
X236129Y549439D01*
X232319Y550803D02*
X232319Y552073D01*
X232318Y552073D02*
X232320Y552128D01*
X232325Y552184D01*
X232334Y552238D01*
X232347Y552292D01*
X232363Y552345D01*
X232382Y552397D01*
X232405Y552448D01*
X232431Y552497D01*
X232461Y552544D01*
X232493Y552589D01*
X232528Y552631D01*
X232566Y552672D01*
X232607Y552710D01*
X232649Y552745D01*
X232694Y552777D01*
X232742Y552807D01*
X232790Y552833D01*
X232841Y552856D01*
X232893Y552875D01*
X232946Y552891D01*
X233000Y552904D01*
X233054Y552913D01*
X233110Y552918D01*
X233165Y552920D01*
X233589Y552920D01*
X233644Y552918D01*
X233700Y552913D01*
X233754Y552904D01*
X233808Y552891D01*
X233861Y552875D01*
X233913Y552856D01*
X233964Y552833D01*
X234013Y552807D01*
X234060Y552777D01*
X234105Y552745D01*
X234147Y552710D01*
X234188Y552672D01*
X234226Y552631D01*
X234261Y552589D01*
X234293Y552544D01*
X234323Y552497D01*
X234349Y552448D01*
X234372Y552397D01*
X234391Y552345D01*
X234407Y552292D01*
X234420Y552238D01*
X234429Y552184D01*
X234434Y552128D01*
X234436Y552073D01*
X234435Y552073D02*
X234435Y550803D01*
X236129Y550803D01*
X236129Y552920D01*
D14*
X261400Y455567D02*
X261400Y451567D01*
X261400Y455567D02*
X267900Y455567D01*
X267900Y451567D01*
X261400Y447567D02*
X261400Y443567D01*
X267900Y443567D01*
X267900Y447567D01*
D18*
X264650Y452067D03*
X264650Y447067D03*
D19*
X265650Y449567D03*
X263650Y449567D03*
D17*
X255633Y451463D02*
X255633Y452310D01*
X255633Y451463D02*
X255635Y451408D01*
X255640Y451352D01*
X255649Y451298D01*
X255662Y451244D01*
X255678Y451191D01*
X255697Y451139D01*
X255720Y451088D01*
X255746Y451040D01*
X255776Y450992D01*
X255808Y450947D01*
X255843Y450905D01*
X255881Y450864D01*
X255922Y450826D01*
X255964Y450791D01*
X256009Y450759D01*
X256057Y450729D01*
X256105Y450703D01*
X256156Y450680D01*
X256208Y450661D01*
X256261Y450645D01*
X256315Y450632D01*
X256369Y450623D01*
X256425Y450618D01*
X256480Y450616D01*
X258597Y450616D01*
X258655Y450618D01*
X258712Y450624D01*
X258769Y450634D01*
X258826Y450647D01*
X258881Y450665D01*
X258934Y450686D01*
X258987Y450711D01*
X259037Y450739D01*
X259085Y450771D01*
X259132Y450806D01*
X259175Y450844D01*
X259216Y450885D01*
X259254Y450928D01*
X259289Y450975D01*
X259321Y451023D01*
X259349Y451073D01*
X259374Y451126D01*
X259395Y451179D01*
X259413Y451234D01*
X259426Y451291D01*
X259436Y451348D01*
X259442Y451405D01*
X259444Y451463D01*
X259443Y451463D02*
X259443Y452310D01*
X257750Y453674D02*
X257750Y454944D01*
X257748Y454999D01*
X257743Y455055D01*
X257734Y455109D01*
X257721Y455163D01*
X257705Y455216D01*
X257686Y455268D01*
X257663Y455319D01*
X257637Y455368D01*
X257607Y455415D01*
X257575Y455460D01*
X257540Y455502D01*
X257502Y455543D01*
X257461Y455581D01*
X257419Y455616D01*
X257374Y455648D01*
X257327Y455678D01*
X257278Y455704D01*
X257227Y455727D01*
X257175Y455746D01*
X257122Y455762D01*
X257068Y455775D01*
X257014Y455784D01*
X256958Y455789D01*
X256903Y455791D01*
X256903Y455790D02*
X256692Y455790D01*
X256628Y455788D01*
X256564Y455782D01*
X256501Y455773D01*
X256439Y455759D01*
X256377Y455742D01*
X256317Y455721D01*
X256258Y455697D01*
X256200Y455669D01*
X256145Y455637D01*
X256091Y455603D01*
X256040Y455565D01*
X255990Y455524D01*
X255944Y455480D01*
X255900Y455434D01*
X255859Y455384D01*
X255821Y455333D01*
X255787Y455279D01*
X255755Y455224D01*
X255727Y455166D01*
X255703Y455107D01*
X255682Y455047D01*
X255665Y454985D01*
X255651Y454923D01*
X255642Y454860D01*
X255636Y454796D01*
X255634Y454732D01*
X255636Y454668D01*
X255642Y454604D01*
X255651Y454541D01*
X255665Y454479D01*
X255682Y454417D01*
X255703Y454357D01*
X255727Y454298D01*
X255755Y454240D01*
X255787Y454185D01*
X255821Y454131D01*
X255859Y454080D01*
X255900Y454030D01*
X255944Y453984D01*
X255990Y453940D01*
X256040Y453899D01*
X256091Y453861D01*
X256145Y453827D01*
X256200Y453795D01*
X256258Y453767D01*
X256317Y453743D01*
X256377Y453722D01*
X256439Y453705D01*
X256501Y453691D01*
X256564Y453682D01*
X256628Y453676D01*
X256692Y453674D01*
X257750Y453674D01*
X257831Y453676D01*
X257911Y453682D01*
X257991Y453691D01*
X258070Y453705D01*
X258149Y453722D01*
X258227Y453743D01*
X258304Y453767D01*
X258379Y453795D01*
X258453Y453827D01*
X258526Y453862D01*
X258596Y453901D01*
X258665Y453943D01*
X258732Y453988D01*
X258797Y454036D01*
X258859Y454088D01*
X258918Y454142D01*
X258975Y454199D01*
X259029Y454258D01*
X259081Y454320D01*
X259129Y454385D01*
X259174Y454452D01*
X259216Y454520D01*
X259255Y454591D01*
X259290Y454664D01*
X259322Y454738D01*
X259350Y454813D01*
X259374Y454890D01*
X259395Y454968D01*
X259412Y455047D01*
X259426Y455126D01*
X259435Y455206D01*
X259441Y455286D01*
X259443Y455367D01*
D14*
X274490Y550318D02*
X278490Y550318D01*
X274490Y550318D02*
X274490Y556818D01*
X278490Y556818D01*
X282490Y550318D02*
X286490Y550318D01*
X286490Y556818D01*
X282490Y556818D01*
D15*
X277990Y553568D03*
X282990Y553568D03*
D16*
X280490Y554568D03*
X280490Y552568D03*
D17*
X269824Y552164D02*
X269824Y553010D01*
X269824Y552164D02*
X269826Y552109D01*
X269831Y552053D01*
X269840Y551999D01*
X269853Y551945D01*
X269869Y551892D01*
X269888Y551840D01*
X269911Y551789D01*
X269937Y551741D01*
X269967Y551693D01*
X269999Y551648D01*
X270034Y551606D01*
X270072Y551565D01*
X270113Y551527D01*
X270155Y551492D01*
X270200Y551460D01*
X270248Y551430D01*
X270296Y551404D01*
X270347Y551381D01*
X270399Y551362D01*
X270452Y551346D01*
X270506Y551333D01*
X270560Y551324D01*
X270616Y551319D01*
X270671Y551317D01*
X272787Y551317D01*
X272845Y551319D01*
X272902Y551325D01*
X272959Y551335D01*
X273016Y551348D01*
X273071Y551366D01*
X273124Y551387D01*
X273177Y551412D01*
X273227Y551440D01*
X273275Y551472D01*
X273322Y551507D01*
X273365Y551545D01*
X273406Y551586D01*
X273444Y551629D01*
X273479Y551676D01*
X273511Y551724D01*
X273539Y551774D01*
X273564Y551827D01*
X273585Y551880D01*
X273603Y551935D01*
X273616Y551992D01*
X273626Y552049D01*
X273632Y552106D01*
X273634Y552164D01*
X273634Y553010D01*
X273634Y554374D02*
X273211Y554374D01*
X273634Y554374D02*
X273634Y556491D01*
X269824Y555433D01*
D14*
X229107Y564177D02*
X229107Y568177D01*
X229107Y564177D02*
X222607Y564177D01*
X222607Y568177D01*
X229107Y572177D02*
X229107Y576177D01*
X222607Y576177D01*
X222607Y572177D01*
D18*
X225857Y567677D03*
X225857Y572677D03*
D19*
X224857Y570177D03*
X226857Y570177D03*
D17*
X231064Y565647D02*
X231064Y564800D01*
X231063Y564800D02*
X231065Y564745D01*
X231070Y564689D01*
X231079Y564635D01*
X231092Y564581D01*
X231108Y564528D01*
X231127Y564476D01*
X231150Y564425D01*
X231176Y564377D01*
X231206Y564329D01*
X231238Y564284D01*
X231273Y564242D01*
X231311Y564201D01*
X231352Y564163D01*
X231394Y564128D01*
X231439Y564096D01*
X231487Y564066D01*
X231535Y564040D01*
X231586Y564017D01*
X231638Y563998D01*
X231691Y563982D01*
X231745Y563969D01*
X231799Y563960D01*
X231855Y563955D01*
X231910Y563953D01*
X231910Y563954D02*
X234027Y563954D01*
X234027Y563953D02*
X234085Y563955D01*
X234142Y563961D01*
X234199Y563971D01*
X234256Y563984D01*
X234311Y564002D01*
X234364Y564023D01*
X234417Y564048D01*
X234467Y564076D01*
X234515Y564108D01*
X234562Y564143D01*
X234605Y564181D01*
X234646Y564222D01*
X234684Y564265D01*
X234719Y564312D01*
X234751Y564360D01*
X234779Y564410D01*
X234804Y564463D01*
X234825Y564516D01*
X234843Y564571D01*
X234856Y564628D01*
X234866Y564685D01*
X234872Y564742D01*
X234874Y564800D01*
X234874Y565647D01*
X232122Y567011D02*
X232186Y567013D01*
X232250Y567019D01*
X232313Y567028D01*
X232375Y567042D01*
X232437Y567059D01*
X232497Y567080D01*
X232556Y567104D01*
X232614Y567132D01*
X232669Y567164D01*
X232723Y567198D01*
X232774Y567236D01*
X232824Y567277D01*
X232870Y567321D01*
X232914Y567367D01*
X232955Y567417D01*
X232993Y567468D01*
X233027Y567522D01*
X233059Y567577D01*
X233087Y567635D01*
X233111Y567694D01*
X233132Y567754D01*
X233149Y567816D01*
X233163Y567878D01*
X233172Y567941D01*
X233178Y568005D01*
X233180Y568069D01*
X233178Y568133D01*
X233172Y568197D01*
X233163Y568260D01*
X233149Y568322D01*
X233132Y568384D01*
X233111Y568444D01*
X233087Y568503D01*
X233059Y568561D01*
X233027Y568616D01*
X232993Y568670D01*
X232955Y568721D01*
X232914Y568771D01*
X232870Y568817D01*
X232824Y568861D01*
X232774Y568902D01*
X232723Y568940D01*
X232669Y568974D01*
X232614Y569006D01*
X232556Y569034D01*
X232497Y569058D01*
X232437Y569079D01*
X232375Y569096D01*
X232313Y569110D01*
X232250Y569119D01*
X232186Y569125D01*
X232122Y569127D01*
X232058Y569125D01*
X231994Y569119D01*
X231931Y569110D01*
X231869Y569096D01*
X231807Y569079D01*
X231747Y569058D01*
X231688Y569034D01*
X231630Y569006D01*
X231575Y568974D01*
X231521Y568940D01*
X231470Y568902D01*
X231420Y568861D01*
X231374Y568817D01*
X231330Y568771D01*
X231289Y568721D01*
X231251Y568670D01*
X231217Y568616D01*
X231185Y568561D01*
X231157Y568503D01*
X231133Y568444D01*
X231112Y568384D01*
X231095Y568322D01*
X231081Y568260D01*
X231072Y568197D01*
X231066Y568133D01*
X231064Y568069D01*
X231066Y568005D01*
X231072Y567941D01*
X231081Y567878D01*
X231095Y567816D01*
X231112Y567754D01*
X231133Y567694D01*
X231157Y567635D01*
X231185Y567577D01*
X231217Y567522D01*
X231251Y567468D01*
X231289Y567417D01*
X231330Y567367D01*
X231374Y567321D01*
X231420Y567277D01*
X231470Y567236D01*
X231521Y567198D01*
X231575Y567164D01*
X231630Y567132D01*
X231688Y567104D01*
X231747Y567080D01*
X231807Y567059D01*
X231869Y567042D01*
X231931Y567028D01*
X231994Y567019D01*
X232058Y567013D01*
X232122Y567011D01*
X234027Y567222D02*
X234084Y567224D01*
X234140Y567230D01*
X234196Y567239D01*
X234251Y567252D01*
X234305Y567269D01*
X234358Y567289D01*
X234409Y567313D01*
X234459Y567340D01*
X234506Y567371D01*
X234552Y567404D01*
X234595Y567441D01*
X234636Y567480D01*
X234674Y567522D01*
X234709Y567567D01*
X234741Y567613D01*
X234770Y567662D01*
X234795Y567712D01*
X234817Y567765D01*
X234836Y567818D01*
X234851Y567873D01*
X234862Y567928D01*
X234870Y567984D01*
X234874Y568041D01*
X234874Y568097D01*
X234870Y568154D01*
X234862Y568210D01*
X234851Y568265D01*
X234836Y568320D01*
X234817Y568373D01*
X234795Y568426D01*
X234770Y568476D01*
X234741Y568525D01*
X234709Y568571D01*
X234674Y568616D01*
X234636Y568658D01*
X234595Y568697D01*
X234552Y568734D01*
X234506Y568767D01*
X234459Y568798D01*
X234409Y568825D01*
X234358Y568849D01*
X234305Y568869D01*
X234251Y568886D01*
X234196Y568899D01*
X234140Y568908D01*
X234084Y568914D01*
X234027Y568916D01*
X233970Y568914D01*
X233914Y568908D01*
X233858Y568899D01*
X233803Y568886D01*
X233749Y568869D01*
X233696Y568849D01*
X233645Y568825D01*
X233595Y568798D01*
X233548Y568767D01*
X233502Y568734D01*
X233459Y568697D01*
X233418Y568658D01*
X233380Y568616D01*
X233345Y568571D01*
X233313Y568525D01*
X233284Y568476D01*
X233259Y568426D01*
X233237Y568373D01*
X233218Y568320D01*
X233203Y568265D01*
X233192Y568210D01*
X233184Y568154D01*
X233180Y568097D01*
X233180Y568041D01*
X233184Y567984D01*
X233192Y567928D01*
X233203Y567873D01*
X233218Y567818D01*
X233237Y567765D01*
X233259Y567712D01*
X233284Y567662D01*
X233313Y567613D01*
X233345Y567567D01*
X233380Y567522D01*
X233418Y567480D01*
X233459Y567441D01*
X233502Y567404D01*
X233548Y567371D01*
X233595Y567340D01*
X233645Y567313D01*
X233696Y567289D01*
X233749Y567269D01*
X233803Y567252D01*
X233858Y567239D01*
X233914Y567230D01*
X233970Y567224D01*
X234027Y567222D01*
D21*
X180060Y485517D02*
X180062Y485580D01*
X180068Y485642D01*
X180078Y485704D01*
X180091Y485766D01*
X180109Y485826D01*
X180130Y485885D01*
X180155Y485943D01*
X180184Y485999D01*
X180216Y486053D01*
X180251Y486105D01*
X180289Y486154D01*
X180331Y486202D01*
X180375Y486246D01*
X180423Y486288D01*
X180472Y486326D01*
X180524Y486361D01*
X180578Y486393D01*
X180634Y486422D01*
X180692Y486447D01*
X180751Y486468D01*
X180811Y486486D01*
X180873Y486499D01*
X180935Y486509D01*
X180997Y486515D01*
X181060Y486517D01*
X181123Y486515D01*
X181185Y486509D01*
X181247Y486499D01*
X181309Y486486D01*
X181369Y486468D01*
X181428Y486447D01*
X181486Y486422D01*
X181542Y486393D01*
X181596Y486361D01*
X181648Y486326D01*
X181697Y486288D01*
X181745Y486246D01*
X181789Y486202D01*
X181831Y486154D01*
X181869Y486105D01*
X181904Y486053D01*
X181936Y485999D01*
X181965Y485943D01*
X181990Y485885D01*
X182011Y485826D01*
X182029Y485766D01*
X182042Y485704D01*
X182052Y485642D01*
X182058Y485580D01*
X182060Y485517D01*
X182058Y485454D01*
X182052Y485392D01*
X182042Y485330D01*
X182029Y485268D01*
X182011Y485208D01*
X181990Y485149D01*
X181965Y485091D01*
X181936Y485035D01*
X181904Y484981D01*
X181869Y484929D01*
X181831Y484880D01*
X181789Y484832D01*
X181745Y484788D01*
X181697Y484746D01*
X181648Y484708D01*
X181596Y484673D01*
X181542Y484641D01*
X181486Y484612D01*
X181428Y484587D01*
X181369Y484566D01*
X181309Y484548D01*
X181247Y484535D01*
X181185Y484525D01*
X181123Y484519D01*
X181060Y484517D01*
X180997Y484519D01*
X180935Y484525D01*
X180873Y484535D01*
X180811Y484548D01*
X180751Y484566D01*
X180692Y484587D01*
X180634Y484612D01*
X180578Y484641D01*
X180524Y484673D01*
X180472Y484708D01*
X180423Y484746D01*
X180375Y484788D01*
X180331Y484832D01*
X180289Y484880D01*
X180251Y484929D01*
X180216Y484981D01*
X180184Y485035D01*
X180155Y485091D01*
X180130Y485149D01*
X180109Y485208D01*
X180091Y485268D01*
X180078Y485330D01*
X180068Y485392D01*
X180062Y485454D01*
X180060Y485517D01*
D13*
X248060Y528017D02*
X251060Y528017D01*
X251060Y478017D02*
X248060Y478017D01*
X204060Y528017D02*
X201060Y528017D01*
X201060Y478017D02*
X204060Y478017D01*
X251060Y525017D02*
X251060Y528017D01*
X251060Y481017D02*
X251060Y478017D01*
X201060Y525017D02*
X201060Y528017D01*
X201060Y481017D02*
X201060Y478017D01*
D12*
X224577Y515555D02*
X224577Y523993D01*
X224577Y515555D02*
X224575Y515442D01*
X224569Y515329D01*
X224559Y515216D01*
X224545Y515103D01*
X224528Y514991D01*
X224506Y514880D01*
X224481Y514770D01*
X224451Y514660D01*
X224418Y514552D01*
X224381Y514445D01*
X224341Y514339D01*
X224296Y514235D01*
X224248Y514132D01*
X224197Y514031D01*
X224142Y513932D01*
X224084Y513835D01*
X224022Y513740D01*
X223957Y513647D01*
X223889Y513557D01*
X223818Y513469D01*
X223743Y513383D01*
X223666Y513300D01*
X223586Y513220D01*
X223503Y513143D01*
X223417Y513068D01*
X223329Y512997D01*
X223239Y512929D01*
X223146Y512864D01*
X223051Y512802D01*
X222954Y512744D01*
X222855Y512689D01*
X222754Y512638D01*
X222651Y512590D01*
X222547Y512545D01*
X222441Y512505D01*
X222334Y512468D01*
X222226Y512435D01*
X222116Y512405D01*
X222006Y512380D01*
X221895Y512358D01*
X221783Y512341D01*
X221670Y512327D01*
X221557Y512317D01*
X221444Y512311D01*
X221331Y512309D01*
X221218Y512311D01*
X221105Y512317D01*
X220992Y512327D01*
X220879Y512341D01*
X220767Y512358D01*
X220656Y512380D01*
X220546Y512405D01*
X220436Y512435D01*
X220328Y512468D01*
X220221Y512505D01*
X220115Y512545D01*
X220011Y512590D01*
X219908Y512638D01*
X219807Y512689D01*
X219708Y512744D01*
X219611Y512802D01*
X219516Y512864D01*
X219423Y512929D01*
X219333Y512997D01*
X219245Y513068D01*
X219159Y513143D01*
X219076Y513220D01*
X218996Y513300D01*
X218919Y513383D01*
X218844Y513469D01*
X218773Y513557D01*
X218705Y513647D01*
X218640Y513740D01*
X218578Y513835D01*
X218520Y513932D01*
X218465Y514031D01*
X218414Y514132D01*
X218366Y514235D01*
X218321Y514339D01*
X218281Y514445D01*
X218244Y514552D01*
X218211Y514660D01*
X218181Y514770D01*
X218156Y514880D01*
X218134Y514991D01*
X218117Y515103D01*
X218103Y515216D01*
X218093Y515329D01*
X218087Y515442D01*
X218085Y515555D01*
X218086Y515555D02*
X218086Y523993D01*
X212766Y512309D02*
X208871Y512309D01*
X208871Y512310D02*
X208772Y512312D01*
X208672Y512318D01*
X208573Y512327D01*
X208475Y512340D01*
X208377Y512357D01*
X208279Y512378D01*
X208183Y512403D01*
X208088Y512431D01*
X207994Y512463D01*
X207901Y512498D01*
X207809Y512537D01*
X207719Y512580D01*
X207631Y512625D01*
X207544Y512675D01*
X207460Y512727D01*
X207377Y512783D01*
X207297Y512841D01*
X207219Y512903D01*
X207144Y512968D01*
X207071Y513036D01*
X207001Y513106D01*
X206933Y513179D01*
X206868Y513254D01*
X206806Y513332D01*
X206748Y513412D01*
X206692Y513495D01*
X206640Y513579D01*
X206590Y513666D01*
X206545Y513754D01*
X206502Y513844D01*
X206463Y513936D01*
X206428Y514029D01*
X206396Y514123D01*
X206368Y514218D01*
X206343Y514314D01*
X206322Y514412D01*
X206305Y514510D01*
X206292Y514608D01*
X206283Y514707D01*
X206277Y514807D01*
X206275Y514906D01*
X206275Y516204D01*
X206277Y516303D01*
X206283Y516403D01*
X206292Y516502D01*
X206305Y516600D01*
X206322Y516698D01*
X206343Y516796D01*
X206368Y516892D01*
X206396Y516987D01*
X206428Y517081D01*
X206463Y517174D01*
X206502Y517266D01*
X206545Y517356D01*
X206590Y517444D01*
X206640Y517531D01*
X206692Y517615D01*
X206748Y517698D01*
X206806Y517778D01*
X206868Y517856D01*
X206933Y517931D01*
X207001Y518004D01*
X207071Y518074D01*
X207144Y518142D01*
X207219Y518207D01*
X207297Y518269D01*
X207377Y518327D01*
X207460Y518383D01*
X207544Y518435D01*
X207631Y518485D01*
X207719Y518530D01*
X207809Y518573D01*
X207901Y518612D01*
X207994Y518647D01*
X208088Y518679D01*
X208183Y518707D01*
X208279Y518732D01*
X208377Y518753D01*
X208475Y518770D01*
X208573Y518783D01*
X208672Y518792D01*
X208772Y518798D01*
X208871Y518800D01*
X212766Y518800D01*
X212766Y523993D01*
X206275Y523993D01*
D14*
X294608Y535404D02*
X294608Y541904D01*
X303608Y541904D01*
X303608Y535404D01*
X294608Y529404D02*
X294608Y522904D01*
X303608Y522904D01*
X303608Y529404D01*
D22*
X299108Y536404D03*
X299108Y528404D03*
D23*
X297108Y532404D03*
X301108Y532404D03*
D17*
X301624Y543474D02*
X302470Y543474D01*
X302470Y543473D02*
X302525Y543475D01*
X302581Y543480D01*
X302635Y543489D01*
X302689Y543502D01*
X302742Y543518D01*
X302794Y543537D01*
X302845Y543560D01*
X302894Y543586D01*
X302941Y543616D01*
X302986Y543648D01*
X303028Y543683D01*
X303069Y543721D01*
X303107Y543762D01*
X303142Y543804D01*
X303174Y543849D01*
X303204Y543897D01*
X303230Y543945D01*
X303253Y543996D01*
X303272Y544048D01*
X303288Y544101D01*
X303301Y544155D01*
X303310Y544209D01*
X303315Y544265D01*
X303317Y544320D01*
X303317Y546437D01*
X303315Y546495D01*
X303309Y546552D01*
X303299Y546609D01*
X303286Y546666D01*
X303268Y546721D01*
X303247Y546774D01*
X303222Y546827D01*
X303194Y546877D01*
X303162Y546925D01*
X303127Y546972D01*
X303089Y547015D01*
X303048Y547056D01*
X303005Y547094D01*
X302958Y547129D01*
X302910Y547161D01*
X302860Y547189D01*
X302807Y547214D01*
X302754Y547235D01*
X302699Y547253D01*
X302642Y547266D01*
X302585Y547276D01*
X302528Y547282D01*
X302470Y547284D01*
X301624Y547284D01*
X300259Y546437D02*
X299201Y547284D01*
X299201Y543474D01*
X300259Y543474D02*
X298143Y543474D01*
X296602Y543474D02*
X295332Y543474D01*
X295332Y543473D02*
X295277Y543475D01*
X295221Y543480D01*
X295167Y543489D01*
X295113Y543502D01*
X295060Y543518D01*
X295008Y543537D01*
X294957Y543560D01*
X294909Y543586D01*
X294861Y543616D01*
X294816Y543648D01*
X294774Y543683D01*
X294733Y543721D01*
X294695Y543762D01*
X294660Y543804D01*
X294628Y543849D01*
X294598Y543897D01*
X294572Y543945D01*
X294549Y543996D01*
X294530Y544048D01*
X294514Y544101D01*
X294501Y544155D01*
X294492Y544209D01*
X294487Y544265D01*
X294485Y544320D01*
X294485Y544744D01*
X294487Y544799D01*
X294492Y544855D01*
X294501Y544909D01*
X294514Y544963D01*
X294530Y545016D01*
X294549Y545068D01*
X294572Y545119D01*
X294598Y545168D01*
X294628Y545215D01*
X294660Y545260D01*
X294695Y545302D01*
X294733Y545343D01*
X294774Y545381D01*
X294816Y545416D01*
X294861Y545448D01*
X294909Y545478D01*
X294957Y545504D01*
X295008Y545527D01*
X295060Y545546D01*
X295113Y545562D01*
X295167Y545575D01*
X295221Y545584D01*
X295277Y545589D01*
X295332Y545591D01*
X295332Y545590D02*
X296602Y545590D01*
X296602Y547284D01*
X294485Y547284D01*
D14*
X353353Y519180D02*
X357353Y519180D01*
X357353Y512680D01*
X353353Y512680D01*
X349353Y519180D02*
X345353Y519180D01*
X345353Y512680D01*
X349353Y512680D01*
D15*
X353853Y515930D03*
X348853Y515930D03*
D16*
X351353Y514930D03*
X351353Y516930D03*
D17*
X355883Y521137D02*
X356729Y521137D01*
X356784Y521139D01*
X356840Y521144D01*
X356894Y521153D01*
X356948Y521166D01*
X357001Y521182D01*
X357053Y521201D01*
X357104Y521224D01*
X357153Y521250D01*
X357200Y521280D01*
X357245Y521312D01*
X357287Y521347D01*
X357328Y521385D01*
X357366Y521426D01*
X357401Y521468D01*
X357433Y521513D01*
X357463Y521561D01*
X357489Y521609D01*
X357512Y521660D01*
X357531Y521712D01*
X357547Y521765D01*
X357560Y521819D01*
X357569Y521873D01*
X357574Y521929D01*
X357576Y521984D01*
X357576Y524100D01*
X357574Y524158D01*
X357568Y524215D01*
X357558Y524272D01*
X357545Y524329D01*
X357527Y524384D01*
X357506Y524437D01*
X357481Y524490D01*
X357453Y524540D01*
X357421Y524588D01*
X357386Y524635D01*
X357348Y524678D01*
X357307Y524719D01*
X357264Y524757D01*
X357217Y524792D01*
X357169Y524824D01*
X357119Y524852D01*
X357066Y524877D01*
X357013Y524898D01*
X356958Y524916D01*
X356901Y524929D01*
X356844Y524939D01*
X356787Y524945D01*
X356729Y524947D01*
X355883Y524947D01*
X354519Y524100D02*
X353460Y524947D01*
X353460Y521137D01*
X352402Y521137D02*
X354519Y521137D01*
X350861Y524100D02*
X349803Y524947D01*
X349803Y521137D01*
X350861Y521137D02*
X348744Y521137D01*
D14*
X200588Y443023D02*
X200588Y439023D01*
X194088Y439023D01*
X194088Y443023D01*
X200588Y447023D02*
X200588Y451023D01*
X194088Y451023D01*
X194088Y447023D01*
D18*
X197338Y442523D03*
X197338Y447523D03*
D19*
X196338Y445023D03*
X198338Y445023D03*
D17*
X201745Y442869D02*
X201745Y442022D01*
X201744Y442022D02*
X201746Y441967D01*
X201751Y441911D01*
X201760Y441857D01*
X201773Y441803D01*
X201789Y441750D01*
X201808Y441698D01*
X201831Y441647D01*
X201857Y441599D01*
X201887Y441551D01*
X201919Y441506D01*
X201954Y441464D01*
X201992Y441423D01*
X202033Y441385D01*
X202075Y441350D01*
X202120Y441318D01*
X202168Y441288D01*
X202216Y441262D01*
X202267Y441239D01*
X202319Y441220D01*
X202372Y441204D01*
X202426Y441191D01*
X202480Y441182D01*
X202536Y441177D01*
X202591Y441175D01*
X204708Y441175D01*
X204766Y441177D01*
X204823Y441183D01*
X204880Y441193D01*
X204937Y441206D01*
X204992Y441224D01*
X205045Y441245D01*
X205098Y441270D01*
X205148Y441298D01*
X205196Y441330D01*
X205243Y441365D01*
X205286Y441403D01*
X205327Y441444D01*
X205365Y441487D01*
X205400Y441534D01*
X205432Y441582D01*
X205460Y441632D01*
X205485Y441685D01*
X205506Y441738D01*
X205524Y441793D01*
X205537Y441850D01*
X205547Y441907D01*
X205553Y441964D01*
X205555Y442022D01*
X205555Y442869D01*
X204708Y444233D02*
X205555Y445291D01*
X201745Y445291D01*
X201745Y444233D02*
X201745Y446349D01*
X203861Y447890D02*
X203861Y449160D01*
X203862Y449160D02*
X203860Y449215D01*
X203855Y449271D01*
X203846Y449325D01*
X203833Y449379D01*
X203817Y449432D01*
X203798Y449484D01*
X203775Y449535D01*
X203749Y449584D01*
X203719Y449631D01*
X203687Y449676D01*
X203652Y449718D01*
X203614Y449759D01*
X203573Y449797D01*
X203531Y449832D01*
X203486Y449864D01*
X203439Y449894D01*
X203390Y449920D01*
X203339Y449943D01*
X203287Y449962D01*
X203234Y449978D01*
X203180Y449991D01*
X203126Y450000D01*
X203070Y450005D01*
X203015Y450007D01*
X202803Y450007D01*
X202739Y450005D01*
X202675Y449999D01*
X202612Y449990D01*
X202550Y449976D01*
X202488Y449959D01*
X202428Y449938D01*
X202369Y449914D01*
X202311Y449886D01*
X202256Y449854D01*
X202202Y449820D01*
X202151Y449782D01*
X202101Y449741D01*
X202055Y449697D01*
X202011Y449651D01*
X201970Y449601D01*
X201932Y449550D01*
X201898Y449496D01*
X201866Y449441D01*
X201838Y449383D01*
X201814Y449324D01*
X201793Y449264D01*
X201776Y449202D01*
X201762Y449140D01*
X201753Y449077D01*
X201747Y449013D01*
X201745Y448949D01*
X201747Y448885D01*
X201753Y448821D01*
X201762Y448758D01*
X201776Y448696D01*
X201793Y448634D01*
X201814Y448574D01*
X201838Y448515D01*
X201866Y448457D01*
X201898Y448402D01*
X201932Y448348D01*
X201970Y448297D01*
X202011Y448247D01*
X202055Y448201D01*
X202101Y448157D01*
X202151Y448116D01*
X202202Y448078D01*
X202256Y448044D01*
X202311Y448012D01*
X202369Y447984D01*
X202428Y447960D01*
X202488Y447939D01*
X202550Y447922D01*
X202612Y447908D01*
X202675Y447899D01*
X202739Y447893D01*
X202803Y447891D01*
X202803Y447890D02*
X203861Y447890D01*
X203861Y447891D02*
X203942Y447893D01*
X204022Y447899D01*
X204102Y447908D01*
X204181Y447922D01*
X204260Y447939D01*
X204338Y447960D01*
X204415Y447984D01*
X204490Y448012D01*
X204564Y448044D01*
X204637Y448079D01*
X204707Y448118D01*
X204776Y448160D01*
X204843Y448205D01*
X204908Y448253D01*
X204970Y448305D01*
X205029Y448359D01*
X205086Y448416D01*
X205140Y448475D01*
X205192Y448537D01*
X205240Y448602D01*
X205285Y448669D01*
X205327Y448737D01*
X205366Y448808D01*
X205401Y448881D01*
X205433Y448955D01*
X205461Y449030D01*
X205485Y449107D01*
X205506Y449185D01*
X205523Y449264D01*
X205537Y449343D01*
X205546Y449423D01*
X205552Y449503D01*
X205554Y449584D01*
D14*
X201240Y452688D02*
X201240Y456688D01*
X201240Y452688D02*
X194740Y452688D01*
X194740Y456688D01*
X201240Y460688D02*
X201240Y464688D01*
X194740Y464688D01*
X194740Y460688D01*
D18*
X197990Y456188D03*
X197990Y461188D03*
D19*
X196990Y458688D03*
X198990Y458688D03*
D17*
X202791Y453402D02*
X202791Y452555D01*
X202793Y452500D01*
X202798Y452444D01*
X202807Y452390D01*
X202820Y452336D01*
X202836Y452283D01*
X202855Y452231D01*
X202878Y452180D01*
X202904Y452132D01*
X202934Y452084D01*
X202966Y452039D01*
X203001Y451997D01*
X203039Y451956D01*
X203080Y451918D01*
X203122Y451883D01*
X203167Y451851D01*
X203215Y451821D01*
X203263Y451795D01*
X203314Y451772D01*
X203366Y451753D01*
X203419Y451737D01*
X203473Y451724D01*
X203527Y451715D01*
X203583Y451710D01*
X203638Y451708D01*
X205754Y451708D01*
X205812Y451710D01*
X205869Y451716D01*
X205926Y451726D01*
X205983Y451739D01*
X206038Y451757D01*
X206091Y451778D01*
X206144Y451803D01*
X206194Y451831D01*
X206242Y451863D01*
X206289Y451898D01*
X206332Y451936D01*
X206373Y451977D01*
X206411Y452020D01*
X206446Y452067D01*
X206478Y452115D01*
X206506Y452165D01*
X206531Y452218D01*
X206552Y452271D01*
X206570Y452326D01*
X206583Y452383D01*
X206593Y452440D01*
X206599Y452497D01*
X206601Y452555D01*
X206601Y453402D01*
X205754Y454766D02*
X206601Y455824D01*
X202791Y455824D01*
X202791Y454766D02*
X202791Y456883D01*
X206178Y458423D02*
X206601Y458423D01*
X206601Y460540D01*
X202791Y459482D01*
D14*
X185213Y467476D02*
X185213Y471476D01*
X185213Y467476D02*
X178713Y467476D01*
X178713Y471476D01*
X185213Y475476D02*
X185213Y479476D01*
X178713Y479476D01*
X178713Y475476D01*
D18*
X181963Y470976D03*
X181963Y475976D03*
D19*
X180963Y473476D03*
X182963Y473476D03*
D17*
X173317Y471177D02*
X173317Y470330D01*
X173319Y470275D01*
X173324Y470219D01*
X173333Y470165D01*
X173346Y470111D01*
X173362Y470058D01*
X173381Y470006D01*
X173404Y469955D01*
X173430Y469907D01*
X173460Y469859D01*
X173492Y469814D01*
X173527Y469772D01*
X173565Y469731D01*
X173606Y469693D01*
X173648Y469658D01*
X173693Y469626D01*
X173741Y469596D01*
X173789Y469570D01*
X173840Y469547D01*
X173892Y469528D01*
X173945Y469512D01*
X173999Y469499D01*
X174053Y469490D01*
X174109Y469485D01*
X174164Y469483D01*
X174164Y469484D02*
X176280Y469484D01*
X176280Y469483D02*
X176338Y469485D01*
X176395Y469491D01*
X176452Y469501D01*
X176509Y469514D01*
X176564Y469532D01*
X176617Y469553D01*
X176670Y469578D01*
X176720Y469606D01*
X176768Y469638D01*
X176815Y469673D01*
X176858Y469711D01*
X176899Y469752D01*
X176937Y469795D01*
X176972Y469842D01*
X177004Y469890D01*
X177032Y469940D01*
X177057Y469993D01*
X177078Y470046D01*
X177096Y470101D01*
X177109Y470158D01*
X177119Y470215D01*
X177125Y470272D01*
X177127Y470330D01*
X177127Y471177D01*
X177127Y473705D02*
X177125Y473765D01*
X177119Y473824D01*
X177110Y473884D01*
X177097Y473942D01*
X177080Y473999D01*
X177060Y474056D01*
X177036Y474111D01*
X177009Y474164D01*
X176979Y474216D01*
X176945Y474265D01*
X176908Y474312D01*
X176869Y474357D01*
X176826Y474400D01*
X176781Y474439D01*
X176734Y474476D01*
X176685Y474510D01*
X176633Y474540D01*
X176580Y474567D01*
X176525Y474591D01*
X176468Y474611D01*
X176411Y474628D01*
X176353Y474641D01*
X176293Y474650D01*
X176234Y474656D01*
X176174Y474658D01*
X177127Y473705D02*
X177125Y473638D01*
X177120Y473571D01*
X177111Y473505D01*
X177098Y473439D01*
X177082Y473375D01*
X177062Y473311D01*
X177038Y473248D01*
X177012Y473186D01*
X176982Y473127D01*
X176949Y473069D01*
X176912Y473012D01*
X176873Y472958D01*
X176831Y472906D01*
X176786Y472857D01*
X176738Y472810D01*
X176688Y472766D01*
X176635Y472724D01*
X176580Y472686D01*
X176524Y472650D01*
X176465Y472618D01*
X176405Y472589D01*
X176343Y472563D01*
X176280Y472541D01*
X175433Y474340D02*
X175475Y474381D01*
X175520Y474420D01*
X175566Y474457D01*
X175615Y474491D01*
X175665Y474522D01*
X175717Y474549D01*
X175771Y474574D01*
X175826Y474596D01*
X175882Y474615D01*
X175939Y474630D01*
X175997Y474642D01*
X176056Y474650D01*
X176115Y474655D01*
X176174Y474657D01*
X175434Y474340D02*
X173317Y472541D01*
X173317Y474658D01*
X175222Y476198D02*
X175332Y476200D01*
X175441Y476206D01*
X175550Y476215D01*
X175659Y476229D01*
X175767Y476246D01*
X175875Y476267D01*
X175981Y476291D01*
X176087Y476320D01*
X176192Y476352D01*
X176296Y476387D01*
X176398Y476426D01*
X176499Y476469D01*
X176598Y476516D01*
X176648Y476536D01*
X176697Y476558D01*
X176745Y476584D01*
X176790Y476613D01*
X176833Y476646D01*
X176874Y476681D01*
X176913Y476719D01*
X176948Y476759D01*
X176981Y476802D01*
X177011Y476847D01*
X177038Y476894D01*
X177061Y476942D01*
X177081Y476992D01*
X177097Y477044D01*
X177110Y477096D01*
X177120Y477149D01*
X177125Y477203D01*
X177127Y477257D01*
X177125Y477311D01*
X177120Y477365D01*
X177110Y477418D01*
X177097Y477470D01*
X177081Y477522D01*
X177061Y477572D01*
X177038Y477620D01*
X177011Y477667D01*
X176981Y477712D01*
X176948Y477755D01*
X176913Y477795D01*
X176874Y477833D01*
X176833Y477868D01*
X176790Y477901D01*
X176745Y477930D01*
X176697Y477956D01*
X176648Y477978D01*
X176598Y477998D01*
X176499Y478045D01*
X176398Y478088D01*
X176296Y478127D01*
X176192Y478162D01*
X176087Y478194D01*
X175981Y478223D01*
X175875Y478247D01*
X175767Y478268D01*
X175659Y478285D01*
X175550Y478299D01*
X175441Y478308D01*
X175332Y478314D01*
X175222Y478316D01*
X175222Y476198D02*
X175112Y476200D01*
X175003Y476206D01*
X174894Y476215D01*
X174785Y476229D01*
X174677Y476246D01*
X174569Y476267D01*
X174463Y476291D01*
X174357Y476320D01*
X174252Y476352D01*
X174149Y476387D01*
X174046Y476426D01*
X173945Y476469D01*
X173846Y476516D01*
X173796Y476536D01*
X173747Y476558D01*
X173699Y476584D01*
X173654Y476613D01*
X173611Y476646D01*
X173570Y476681D01*
X173531Y476719D01*
X173496Y476759D01*
X173463Y476802D01*
X173433Y476847D01*
X173406Y476894D01*
X173383Y476942D01*
X173363Y476992D01*
X173347Y477044D01*
X173334Y477096D01*
X173324Y477149D01*
X173319Y477203D01*
X173317Y477257D01*
X173846Y477997D02*
X173945Y478044D01*
X174046Y478087D01*
X174149Y478126D01*
X174252Y478161D01*
X174357Y478193D01*
X174463Y478222D01*
X174569Y478246D01*
X174677Y478267D01*
X174785Y478284D01*
X174894Y478298D01*
X175003Y478307D01*
X175112Y478313D01*
X175222Y478315D01*
X173846Y477998D02*
X173796Y477978D01*
X173747Y477956D01*
X173699Y477930D01*
X173654Y477901D01*
X173611Y477868D01*
X173570Y477833D01*
X173531Y477795D01*
X173496Y477755D01*
X173463Y477712D01*
X173433Y477667D01*
X173406Y477620D01*
X173383Y477572D01*
X173363Y477522D01*
X173347Y477470D01*
X173334Y477418D01*
X173324Y477365D01*
X173319Y477311D01*
X173317Y477257D01*
X174164Y476410D02*
X176280Y478104D01*
D14*
X176485Y496622D02*
X176485Y500622D01*
X182985Y500622D01*
X182985Y496622D01*
X176485Y492622D02*
X176485Y488622D01*
X182985Y488622D01*
X182985Y492622D01*
D18*
X179735Y497122D03*
X179735Y492122D03*
D19*
X180735Y494622D03*
X178735Y494622D03*
D17*
X172243Y492836D02*
X172243Y492215D01*
X172242Y492215D02*
X172244Y492166D01*
X172250Y492118D01*
X172259Y492070D01*
X172272Y492023D01*
X172289Y491977D01*
X172310Y491933D01*
X172334Y491891D01*
X172361Y491850D01*
X172391Y491812D01*
X172424Y491776D01*
X172460Y491743D01*
X172498Y491713D01*
X172539Y491686D01*
X172581Y491662D01*
X172625Y491641D01*
X172671Y491624D01*
X172718Y491611D01*
X172766Y491602D01*
X172814Y491596D01*
X172863Y491594D01*
X174416Y491594D01*
X174465Y491596D01*
X174513Y491602D01*
X174561Y491611D01*
X174608Y491624D01*
X174654Y491641D01*
X174698Y491662D01*
X174740Y491686D01*
X174781Y491713D01*
X174819Y491743D01*
X174855Y491776D01*
X174888Y491812D01*
X174918Y491850D01*
X174945Y491891D01*
X174969Y491933D01*
X174990Y491977D01*
X175007Y492023D01*
X175020Y492070D01*
X175029Y492118D01*
X175035Y492166D01*
X175037Y492215D01*
X175037Y492836D01*
X175037Y494742D02*
X175035Y494792D01*
X175030Y494841D01*
X175021Y494891D01*
X175009Y494939D01*
X174993Y494986D01*
X174974Y495032D01*
X174951Y495077D01*
X174926Y495120D01*
X174898Y495161D01*
X174866Y495200D01*
X174832Y495236D01*
X174796Y495270D01*
X174757Y495302D01*
X174716Y495330D01*
X174673Y495355D01*
X174628Y495378D01*
X174582Y495397D01*
X174535Y495413D01*
X174487Y495425D01*
X174437Y495434D01*
X174388Y495439D01*
X174338Y495441D01*
X175036Y494742D02*
X175034Y494686D01*
X175029Y494629D01*
X175020Y494574D01*
X175008Y494519D01*
X174992Y494465D01*
X174973Y494412D01*
X174951Y494360D01*
X174925Y494310D01*
X174896Y494261D01*
X174864Y494214D01*
X174830Y494170D01*
X174793Y494128D01*
X174753Y494088D01*
X174710Y494050D01*
X174666Y494016D01*
X174619Y493984D01*
X174571Y493956D01*
X174520Y493930D01*
X174468Y493908D01*
X174415Y493889D01*
X173795Y495207D02*
X173831Y495243D01*
X173869Y495276D01*
X173910Y495306D01*
X173953Y495333D01*
X173997Y495358D01*
X174043Y495379D01*
X174090Y495398D01*
X174138Y495413D01*
X174187Y495425D01*
X174237Y495433D01*
X174287Y495438D01*
X174338Y495440D01*
X173795Y495208D02*
X172243Y493888D01*
X172243Y495441D01*
X174416Y496632D02*
X175037Y497408D01*
X172243Y497408D01*
X172243Y496632D02*
X172243Y498184D01*
D14*
X183112Y502333D02*
X183112Y506333D01*
X183112Y502333D02*
X176612Y502333D01*
X176612Y506333D01*
X183112Y510333D02*
X183112Y514333D01*
X176612Y514333D01*
X176612Y510333D01*
D18*
X179862Y505833D03*
X179862Y510833D03*
D19*
X178862Y508333D03*
X180862Y508333D03*
D17*
X170619Y506051D02*
X170619Y505204D01*
X170621Y505149D01*
X170626Y505093D01*
X170635Y505039D01*
X170648Y504985D01*
X170664Y504932D01*
X170683Y504880D01*
X170706Y504829D01*
X170732Y504781D01*
X170762Y504733D01*
X170794Y504688D01*
X170829Y504646D01*
X170867Y504605D01*
X170908Y504567D01*
X170950Y504532D01*
X170995Y504500D01*
X171043Y504470D01*
X171091Y504444D01*
X171142Y504421D01*
X171194Y504402D01*
X171247Y504386D01*
X171301Y504373D01*
X171355Y504364D01*
X171411Y504359D01*
X171466Y504357D01*
X171466Y504358D02*
X173583Y504358D01*
X173583Y504357D02*
X173641Y504359D01*
X173698Y504365D01*
X173755Y504375D01*
X173812Y504388D01*
X173867Y504406D01*
X173920Y504427D01*
X173973Y504452D01*
X174023Y504480D01*
X174071Y504512D01*
X174118Y504547D01*
X174161Y504585D01*
X174202Y504626D01*
X174240Y504669D01*
X174275Y504716D01*
X174307Y504764D01*
X174335Y504814D01*
X174360Y504867D01*
X174381Y504920D01*
X174399Y504975D01*
X174412Y505032D01*
X174422Y505089D01*
X174428Y505146D01*
X174430Y505204D01*
X174429Y505204D02*
X174429Y506051D01*
X174430Y508579D02*
X174428Y508639D01*
X174422Y508698D01*
X174413Y508758D01*
X174400Y508816D01*
X174383Y508873D01*
X174363Y508930D01*
X174339Y508985D01*
X174312Y509038D01*
X174282Y509090D01*
X174248Y509139D01*
X174211Y509186D01*
X174172Y509231D01*
X174129Y509274D01*
X174084Y509313D01*
X174037Y509350D01*
X173988Y509384D01*
X173936Y509414D01*
X173883Y509441D01*
X173828Y509465D01*
X173771Y509485D01*
X173714Y509502D01*
X173656Y509515D01*
X173596Y509524D01*
X173537Y509530D01*
X173477Y509532D01*
X174430Y508579D02*
X174428Y508512D01*
X174423Y508445D01*
X174414Y508379D01*
X174401Y508313D01*
X174385Y508249D01*
X174365Y508185D01*
X174341Y508122D01*
X174315Y508060D01*
X174285Y508001D01*
X174252Y507943D01*
X174215Y507886D01*
X174176Y507832D01*
X174134Y507780D01*
X174089Y507731D01*
X174041Y507684D01*
X173991Y507640D01*
X173938Y507598D01*
X173883Y507560D01*
X173827Y507524D01*
X173768Y507492D01*
X173708Y507463D01*
X173646Y507437D01*
X173583Y507415D01*
X172736Y509215D02*
X172778Y509256D01*
X172823Y509295D01*
X172869Y509332D01*
X172918Y509366D01*
X172968Y509397D01*
X173020Y509424D01*
X173074Y509449D01*
X173129Y509471D01*
X173185Y509490D01*
X173242Y509505D01*
X173300Y509517D01*
X173359Y509525D01*
X173418Y509530D01*
X173477Y509532D01*
X172736Y509214D02*
X170619Y507415D01*
X170619Y509532D01*
X171466Y511073D02*
X174429Y511919D01*
X171466Y511073D02*
X171466Y513189D01*
X172313Y512554D02*
X170619Y512554D01*
D14*
X170661Y522987D02*
X170661Y526987D01*
X177161Y526987D01*
X177161Y522987D01*
X170661Y518987D02*
X170661Y514987D01*
X177161Y514987D01*
X177161Y518987D01*
D18*
X173911Y523487D03*
X173911Y518487D03*
D19*
X174911Y520987D03*
X172911Y520987D03*
D17*
X164836Y517608D02*
X164836Y516761D01*
X164835Y516761D02*
X164837Y516706D01*
X164842Y516650D01*
X164851Y516596D01*
X164864Y516542D01*
X164880Y516489D01*
X164899Y516437D01*
X164922Y516386D01*
X164948Y516338D01*
X164978Y516290D01*
X165010Y516245D01*
X165045Y516203D01*
X165083Y516162D01*
X165124Y516124D01*
X165166Y516089D01*
X165211Y516057D01*
X165259Y516027D01*
X165307Y516001D01*
X165358Y515978D01*
X165410Y515959D01*
X165463Y515943D01*
X165517Y515930D01*
X165571Y515921D01*
X165627Y515916D01*
X165682Y515914D01*
X165682Y515915D02*
X167799Y515915D01*
X167799Y515914D02*
X167857Y515916D01*
X167914Y515922D01*
X167971Y515932D01*
X168028Y515945D01*
X168083Y515963D01*
X168136Y515984D01*
X168189Y516009D01*
X168239Y516037D01*
X168287Y516069D01*
X168334Y516104D01*
X168377Y516142D01*
X168418Y516183D01*
X168456Y516226D01*
X168491Y516273D01*
X168523Y516321D01*
X168551Y516371D01*
X168576Y516424D01*
X168597Y516477D01*
X168615Y516532D01*
X168628Y516589D01*
X168638Y516646D01*
X168644Y516703D01*
X168646Y516761D01*
X168646Y517608D01*
X168646Y520136D02*
X168644Y520196D01*
X168638Y520255D01*
X168629Y520315D01*
X168616Y520373D01*
X168599Y520430D01*
X168579Y520487D01*
X168555Y520542D01*
X168528Y520595D01*
X168498Y520647D01*
X168464Y520696D01*
X168427Y520743D01*
X168388Y520788D01*
X168345Y520831D01*
X168300Y520870D01*
X168253Y520907D01*
X168204Y520941D01*
X168152Y520971D01*
X168099Y520998D01*
X168044Y521022D01*
X167987Y521042D01*
X167930Y521059D01*
X167872Y521072D01*
X167812Y521081D01*
X167753Y521087D01*
X167693Y521089D01*
X168646Y520136D02*
X168644Y520069D01*
X168639Y520002D01*
X168630Y519936D01*
X168617Y519870D01*
X168601Y519806D01*
X168581Y519742D01*
X168557Y519679D01*
X168531Y519617D01*
X168501Y519558D01*
X168468Y519500D01*
X168431Y519443D01*
X168392Y519389D01*
X168350Y519337D01*
X168305Y519288D01*
X168257Y519241D01*
X168207Y519197D01*
X168154Y519155D01*
X168099Y519117D01*
X168043Y519081D01*
X167984Y519049D01*
X167924Y519020D01*
X167862Y518994D01*
X167799Y518972D01*
X166952Y520772D02*
X166994Y520813D01*
X167039Y520852D01*
X167085Y520889D01*
X167134Y520923D01*
X167184Y520954D01*
X167236Y520981D01*
X167290Y521006D01*
X167345Y521028D01*
X167401Y521047D01*
X167458Y521062D01*
X167516Y521074D01*
X167575Y521082D01*
X167634Y521087D01*
X167693Y521089D01*
X166952Y520771D02*
X164836Y518972D01*
X164836Y521089D01*
X164836Y522630D02*
X164836Y523900D01*
X164835Y523900D02*
X164837Y523955D01*
X164842Y524011D01*
X164851Y524065D01*
X164864Y524119D01*
X164880Y524172D01*
X164899Y524224D01*
X164922Y524275D01*
X164948Y524324D01*
X164978Y524371D01*
X165010Y524416D01*
X165045Y524458D01*
X165083Y524499D01*
X165124Y524537D01*
X165166Y524572D01*
X165211Y524604D01*
X165259Y524634D01*
X165307Y524660D01*
X165358Y524683D01*
X165410Y524702D01*
X165463Y524718D01*
X165517Y524731D01*
X165571Y524740D01*
X165627Y524745D01*
X165682Y524747D01*
X165682Y524746D02*
X166106Y524746D01*
X166106Y524747D02*
X166161Y524745D01*
X166217Y524740D01*
X166271Y524731D01*
X166325Y524718D01*
X166378Y524702D01*
X166430Y524683D01*
X166481Y524660D01*
X166530Y524634D01*
X166577Y524604D01*
X166622Y524572D01*
X166664Y524537D01*
X166705Y524499D01*
X166743Y524458D01*
X166778Y524416D01*
X166810Y524371D01*
X166840Y524324D01*
X166866Y524275D01*
X166889Y524224D01*
X166908Y524172D01*
X166924Y524119D01*
X166937Y524065D01*
X166946Y524011D01*
X166951Y523955D01*
X166953Y523900D01*
X166952Y523900D02*
X166952Y522630D01*
X168646Y522630D01*
X168646Y524746D01*
D14*
X178182Y534856D02*
X178182Y538856D01*
X184682Y538856D01*
X184682Y534856D01*
X178182Y530856D02*
X178182Y526856D01*
X184682Y526856D01*
X184682Y530856D01*
D18*
X181432Y535356D03*
X181432Y530356D03*
D19*
X182432Y532856D03*
X180432Y532856D03*
D17*
X172415Y531941D02*
X172415Y531094D01*
X172417Y531039D01*
X172422Y530983D01*
X172431Y530929D01*
X172444Y530875D01*
X172460Y530822D01*
X172479Y530770D01*
X172502Y530719D01*
X172528Y530671D01*
X172558Y530623D01*
X172590Y530578D01*
X172625Y530536D01*
X172663Y530495D01*
X172704Y530457D01*
X172746Y530422D01*
X172791Y530390D01*
X172839Y530360D01*
X172887Y530334D01*
X172938Y530311D01*
X172990Y530292D01*
X173043Y530276D01*
X173097Y530263D01*
X173151Y530254D01*
X173207Y530249D01*
X173262Y530247D01*
X173262Y530248D02*
X175378Y530248D01*
X175378Y530247D02*
X175436Y530249D01*
X175493Y530255D01*
X175550Y530265D01*
X175607Y530278D01*
X175662Y530296D01*
X175715Y530317D01*
X175768Y530342D01*
X175818Y530370D01*
X175866Y530402D01*
X175913Y530437D01*
X175956Y530475D01*
X175997Y530516D01*
X176035Y530559D01*
X176070Y530606D01*
X176102Y530654D01*
X176130Y530704D01*
X176155Y530757D01*
X176176Y530810D01*
X176194Y530865D01*
X176207Y530922D01*
X176217Y530979D01*
X176223Y531036D01*
X176225Y531094D01*
X176225Y531941D01*
X176226Y534469D02*
X176224Y534529D01*
X176218Y534588D01*
X176209Y534648D01*
X176196Y534706D01*
X176179Y534763D01*
X176159Y534820D01*
X176135Y534875D01*
X176108Y534928D01*
X176078Y534980D01*
X176044Y535029D01*
X176007Y535076D01*
X175968Y535121D01*
X175925Y535164D01*
X175880Y535203D01*
X175833Y535240D01*
X175784Y535274D01*
X175732Y535304D01*
X175679Y535331D01*
X175624Y535355D01*
X175567Y535375D01*
X175510Y535392D01*
X175452Y535405D01*
X175392Y535414D01*
X175333Y535420D01*
X175273Y535422D01*
X176225Y534469D02*
X176223Y534402D01*
X176218Y534335D01*
X176209Y534269D01*
X176196Y534203D01*
X176180Y534139D01*
X176160Y534075D01*
X176136Y534012D01*
X176110Y533950D01*
X176080Y533891D01*
X176047Y533833D01*
X176010Y533776D01*
X175971Y533722D01*
X175929Y533670D01*
X175884Y533621D01*
X175836Y533574D01*
X175786Y533530D01*
X175733Y533488D01*
X175678Y533450D01*
X175622Y533414D01*
X175563Y533382D01*
X175503Y533353D01*
X175441Y533327D01*
X175378Y533305D01*
X174532Y535105D02*
X174574Y535146D01*
X174619Y535185D01*
X174665Y535222D01*
X174714Y535256D01*
X174764Y535287D01*
X174816Y535314D01*
X174870Y535339D01*
X174925Y535361D01*
X174981Y535380D01*
X175038Y535395D01*
X175096Y535407D01*
X175155Y535415D01*
X175214Y535420D01*
X175273Y535422D01*
X174532Y535104D02*
X172415Y533305D01*
X172415Y535422D01*
X173473Y536963D02*
X173537Y536965D01*
X173601Y536971D01*
X173664Y536980D01*
X173726Y536994D01*
X173788Y537011D01*
X173848Y537032D01*
X173907Y537056D01*
X173965Y537084D01*
X174020Y537116D01*
X174074Y537150D01*
X174125Y537188D01*
X174175Y537229D01*
X174221Y537273D01*
X174265Y537319D01*
X174306Y537369D01*
X174344Y537420D01*
X174378Y537474D01*
X174410Y537529D01*
X174438Y537587D01*
X174462Y537646D01*
X174483Y537706D01*
X174500Y537768D01*
X174514Y537830D01*
X174523Y537893D01*
X174529Y537957D01*
X174531Y538021D01*
X174529Y538085D01*
X174523Y538149D01*
X174514Y538212D01*
X174500Y538274D01*
X174483Y538336D01*
X174462Y538396D01*
X174438Y538455D01*
X174410Y538513D01*
X174378Y538568D01*
X174344Y538622D01*
X174306Y538673D01*
X174265Y538723D01*
X174221Y538769D01*
X174175Y538813D01*
X174125Y538854D01*
X174074Y538892D01*
X174020Y538926D01*
X173965Y538958D01*
X173907Y538986D01*
X173848Y539010D01*
X173788Y539031D01*
X173726Y539048D01*
X173664Y539062D01*
X173601Y539071D01*
X173537Y539077D01*
X173473Y539079D01*
X173409Y539077D01*
X173345Y539071D01*
X173282Y539062D01*
X173220Y539048D01*
X173158Y539031D01*
X173098Y539010D01*
X173039Y538986D01*
X172981Y538958D01*
X172926Y538926D01*
X172872Y538892D01*
X172821Y538854D01*
X172771Y538813D01*
X172725Y538769D01*
X172681Y538723D01*
X172640Y538673D01*
X172602Y538622D01*
X172568Y538568D01*
X172536Y538513D01*
X172508Y538455D01*
X172484Y538396D01*
X172463Y538336D01*
X172446Y538274D01*
X172432Y538212D01*
X172423Y538149D01*
X172417Y538085D01*
X172415Y538021D01*
X172417Y537957D01*
X172423Y537893D01*
X172432Y537830D01*
X172446Y537768D01*
X172463Y537706D01*
X172484Y537646D01*
X172508Y537587D01*
X172536Y537529D01*
X172568Y537474D01*
X172602Y537420D01*
X172640Y537369D01*
X172681Y537319D01*
X172725Y537273D01*
X172771Y537229D01*
X172821Y537188D01*
X172872Y537150D01*
X172926Y537116D01*
X172981Y537084D01*
X173039Y537056D01*
X173098Y537032D01*
X173158Y537011D01*
X173220Y536994D01*
X173282Y536980D01*
X173345Y536971D01*
X173409Y536965D01*
X173473Y536963D01*
X175378Y537174D02*
X175435Y537176D01*
X175491Y537182D01*
X175547Y537191D01*
X175602Y537204D01*
X175656Y537221D01*
X175709Y537241D01*
X175760Y537265D01*
X175810Y537292D01*
X175857Y537323D01*
X175903Y537356D01*
X175946Y537393D01*
X175987Y537432D01*
X176025Y537474D01*
X176060Y537519D01*
X176092Y537565D01*
X176121Y537614D01*
X176146Y537664D01*
X176168Y537717D01*
X176187Y537770D01*
X176202Y537825D01*
X176213Y537880D01*
X176221Y537936D01*
X176225Y537993D01*
X176225Y538049D01*
X176221Y538106D01*
X176213Y538162D01*
X176202Y538217D01*
X176187Y538272D01*
X176168Y538325D01*
X176146Y538378D01*
X176121Y538428D01*
X176092Y538477D01*
X176060Y538523D01*
X176025Y538568D01*
X175987Y538610D01*
X175946Y538649D01*
X175903Y538686D01*
X175857Y538719D01*
X175810Y538750D01*
X175760Y538777D01*
X175709Y538801D01*
X175656Y538821D01*
X175602Y538838D01*
X175547Y538851D01*
X175491Y538860D01*
X175435Y538866D01*
X175378Y538868D01*
X175321Y538866D01*
X175265Y538860D01*
X175209Y538851D01*
X175154Y538838D01*
X175100Y538821D01*
X175047Y538801D01*
X174996Y538777D01*
X174946Y538750D01*
X174899Y538719D01*
X174853Y538686D01*
X174810Y538649D01*
X174769Y538610D01*
X174731Y538568D01*
X174696Y538523D01*
X174664Y538477D01*
X174635Y538428D01*
X174610Y538378D01*
X174588Y538325D01*
X174569Y538272D01*
X174554Y538217D01*
X174543Y538162D01*
X174535Y538106D01*
X174531Y538049D01*
X174531Y537993D01*
X174535Y537936D01*
X174543Y537880D01*
X174554Y537825D01*
X174569Y537770D01*
X174588Y537717D01*
X174610Y537664D01*
X174635Y537614D01*
X174664Y537565D01*
X174696Y537519D01*
X174731Y537474D01*
X174769Y537432D01*
X174810Y537393D01*
X174853Y537356D01*
X174899Y537323D01*
X174946Y537292D01*
X174996Y537265D01*
X175047Y537241D01*
X175100Y537221D01*
X175154Y537204D01*
X175209Y537191D01*
X175265Y537182D01*
X175321Y537176D01*
X175378Y537174D01*
D14*
X177357Y547777D02*
X177357Y551777D01*
X183857Y551777D01*
X183857Y547777D01*
X177357Y543777D02*
X177357Y539777D01*
X183857Y539777D01*
X183857Y543777D01*
D18*
X180607Y548277D03*
X180607Y543277D03*
D19*
X181607Y545777D03*
X179607Y545777D03*
D17*
X171590Y544862D02*
X171590Y544015D01*
X171589Y544015D02*
X171591Y543960D01*
X171596Y543904D01*
X171605Y543850D01*
X171618Y543796D01*
X171634Y543743D01*
X171653Y543691D01*
X171676Y543640D01*
X171702Y543592D01*
X171732Y543544D01*
X171764Y543499D01*
X171799Y543457D01*
X171837Y543416D01*
X171878Y543378D01*
X171920Y543343D01*
X171965Y543311D01*
X172013Y543281D01*
X172061Y543255D01*
X172112Y543232D01*
X172164Y543213D01*
X172217Y543197D01*
X172271Y543184D01*
X172325Y543175D01*
X172381Y543170D01*
X172436Y543168D01*
X172436Y543169D02*
X174553Y543169D01*
X174553Y543168D02*
X174611Y543170D01*
X174668Y543176D01*
X174725Y543186D01*
X174782Y543199D01*
X174837Y543217D01*
X174890Y543238D01*
X174943Y543263D01*
X174993Y543291D01*
X175041Y543323D01*
X175088Y543358D01*
X175131Y543396D01*
X175172Y543437D01*
X175210Y543480D01*
X175245Y543527D01*
X175277Y543575D01*
X175305Y543625D01*
X175330Y543678D01*
X175351Y543731D01*
X175369Y543786D01*
X175382Y543843D01*
X175392Y543900D01*
X175398Y543957D01*
X175400Y544015D01*
X175400Y544862D01*
X175400Y547390D02*
X175398Y547450D01*
X175392Y547509D01*
X175383Y547569D01*
X175370Y547627D01*
X175353Y547684D01*
X175333Y547741D01*
X175309Y547796D01*
X175282Y547849D01*
X175252Y547901D01*
X175218Y547950D01*
X175181Y547997D01*
X175142Y548042D01*
X175099Y548085D01*
X175054Y548124D01*
X175007Y548161D01*
X174958Y548195D01*
X174906Y548225D01*
X174853Y548252D01*
X174798Y548276D01*
X174741Y548296D01*
X174684Y548313D01*
X174626Y548326D01*
X174566Y548335D01*
X174507Y548341D01*
X174447Y548343D01*
X175400Y547390D02*
X175398Y547323D01*
X175393Y547256D01*
X175384Y547190D01*
X175371Y547124D01*
X175355Y547060D01*
X175335Y546996D01*
X175311Y546933D01*
X175285Y546871D01*
X175255Y546812D01*
X175222Y546754D01*
X175185Y546697D01*
X175146Y546643D01*
X175104Y546591D01*
X175059Y546542D01*
X175011Y546495D01*
X174961Y546451D01*
X174908Y546409D01*
X174853Y546371D01*
X174797Y546335D01*
X174738Y546303D01*
X174678Y546274D01*
X174616Y546248D01*
X174553Y546226D01*
X173706Y548026D02*
X173748Y548067D01*
X173793Y548106D01*
X173839Y548143D01*
X173888Y548177D01*
X173938Y548208D01*
X173990Y548235D01*
X174044Y548260D01*
X174099Y548282D01*
X174155Y548301D01*
X174212Y548316D01*
X174270Y548328D01*
X174329Y548336D01*
X174388Y548341D01*
X174447Y548343D01*
X173706Y548025D02*
X171590Y546226D01*
X171590Y548343D01*
X173283Y550730D02*
X173283Y552000D01*
X173283Y550730D02*
X173285Y550675D01*
X173290Y550619D01*
X173299Y550565D01*
X173312Y550511D01*
X173328Y550458D01*
X173347Y550406D01*
X173370Y550355D01*
X173396Y550307D01*
X173426Y550259D01*
X173458Y550214D01*
X173493Y550172D01*
X173531Y550131D01*
X173572Y550093D01*
X173614Y550058D01*
X173659Y550026D01*
X173707Y549996D01*
X173755Y549970D01*
X173806Y549947D01*
X173858Y549928D01*
X173911Y549912D01*
X173965Y549899D01*
X174019Y549890D01*
X174075Y549885D01*
X174130Y549883D01*
X174130Y549884D02*
X174341Y549884D01*
X174405Y549886D01*
X174469Y549892D01*
X174532Y549901D01*
X174594Y549915D01*
X174656Y549932D01*
X174716Y549953D01*
X174775Y549977D01*
X174833Y550005D01*
X174888Y550037D01*
X174942Y550071D01*
X174993Y550109D01*
X175043Y550150D01*
X175089Y550194D01*
X175133Y550240D01*
X175174Y550290D01*
X175212Y550341D01*
X175246Y550395D01*
X175278Y550450D01*
X175306Y550508D01*
X175330Y550567D01*
X175351Y550627D01*
X175368Y550689D01*
X175382Y550751D01*
X175391Y550814D01*
X175397Y550878D01*
X175399Y550942D01*
X175397Y551006D01*
X175391Y551070D01*
X175382Y551133D01*
X175368Y551195D01*
X175351Y551257D01*
X175330Y551317D01*
X175306Y551376D01*
X175278Y551434D01*
X175246Y551489D01*
X175212Y551543D01*
X175174Y551594D01*
X175133Y551644D01*
X175089Y551690D01*
X175043Y551734D01*
X174993Y551775D01*
X174942Y551813D01*
X174888Y551847D01*
X174833Y551879D01*
X174775Y551907D01*
X174716Y551931D01*
X174656Y551952D01*
X174594Y551969D01*
X174532Y551983D01*
X174469Y551992D01*
X174405Y551998D01*
X174341Y552000D01*
X173283Y552000D01*
X173202Y551998D01*
X173122Y551992D01*
X173042Y551983D01*
X172963Y551969D01*
X172884Y551952D01*
X172806Y551931D01*
X172729Y551907D01*
X172654Y551879D01*
X172580Y551847D01*
X172507Y551812D01*
X172437Y551773D01*
X172368Y551731D01*
X172301Y551686D01*
X172236Y551638D01*
X172174Y551586D01*
X172115Y551532D01*
X172058Y551475D01*
X172004Y551416D01*
X171952Y551354D01*
X171904Y551289D01*
X171859Y551222D01*
X171817Y551154D01*
X171778Y551083D01*
X171743Y551010D01*
X171711Y550936D01*
X171683Y550861D01*
X171659Y550784D01*
X171638Y550706D01*
X171621Y550627D01*
X171607Y550548D01*
X171598Y550468D01*
X171592Y550388D01*
X171590Y550307D01*
D14*
X378502Y524618D02*
X378502Y520618D01*
X372002Y520618D01*
X372002Y524618D01*
X378502Y528618D02*
X378502Y532618D01*
X372002Y532618D01*
X372002Y528618D01*
D18*
X375252Y524118D03*
X375252Y529118D03*
D19*
X374252Y526618D03*
X376252Y526618D03*
D17*
X380459Y520395D02*
X384269Y520395D01*
X384269Y521454D01*
X384267Y521518D01*
X384261Y521582D01*
X384252Y521645D01*
X384238Y521707D01*
X384221Y521769D01*
X384200Y521829D01*
X384176Y521888D01*
X384148Y521946D01*
X384116Y522001D01*
X384082Y522055D01*
X384044Y522106D01*
X384003Y522156D01*
X383959Y522202D01*
X383913Y522246D01*
X383863Y522287D01*
X383812Y522325D01*
X383758Y522359D01*
X383703Y522391D01*
X383645Y522419D01*
X383586Y522443D01*
X383526Y522464D01*
X383464Y522481D01*
X383402Y522495D01*
X383339Y522504D01*
X383275Y522510D01*
X383211Y522512D01*
X383147Y522510D01*
X383083Y522504D01*
X383020Y522495D01*
X382958Y522481D01*
X382896Y522464D01*
X382836Y522443D01*
X382777Y522419D01*
X382719Y522391D01*
X382664Y522359D01*
X382610Y522325D01*
X382559Y522287D01*
X382509Y522246D01*
X382463Y522202D01*
X382419Y522156D01*
X382378Y522106D01*
X382340Y522055D01*
X382306Y522001D01*
X382274Y521946D01*
X382246Y521888D01*
X382222Y521829D01*
X382201Y521769D01*
X382184Y521707D01*
X382170Y521645D01*
X382161Y521582D01*
X382155Y521518D01*
X382153Y521454D01*
X382152Y521454D02*
X382152Y520395D01*
X382152Y521665D02*
X380459Y522512D01*
X382576Y524032D02*
X382576Y525302D01*
X382574Y525357D01*
X382569Y525413D01*
X382560Y525467D01*
X382547Y525521D01*
X382531Y525574D01*
X382512Y525626D01*
X382489Y525677D01*
X382463Y525726D01*
X382433Y525773D01*
X382401Y525818D01*
X382366Y525860D01*
X382328Y525901D01*
X382287Y525939D01*
X382245Y525974D01*
X382200Y526006D01*
X382153Y526036D01*
X382104Y526062D01*
X382053Y526085D01*
X382001Y526104D01*
X381948Y526120D01*
X381894Y526133D01*
X381840Y526142D01*
X381784Y526147D01*
X381729Y526149D01*
X381517Y526149D01*
X381517Y526148D02*
X381453Y526146D01*
X381389Y526140D01*
X381326Y526131D01*
X381264Y526117D01*
X381202Y526100D01*
X381142Y526079D01*
X381083Y526055D01*
X381025Y526027D01*
X380970Y525995D01*
X380916Y525961D01*
X380865Y525923D01*
X380815Y525882D01*
X380769Y525838D01*
X380725Y525792D01*
X380684Y525742D01*
X380646Y525691D01*
X380612Y525637D01*
X380580Y525582D01*
X380552Y525524D01*
X380528Y525465D01*
X380507Y525405D01*
X380490Y525343D01*
X380476Y525281D01*
X380467Y525218D01*
X380461Y525154D01*
X380459Y525090D01*
X380461Y525026D01*
X380467Y524962D01*
X380476Y524899D01*
X380490Y524837D01*
X380507Y524775D01*
X380528Y524715D01*
X380552Y524656D01*
X380580Y524598D01*
X380612Y524543D01*
X380646Y524489D01*
X380684Y524438D01*
X380725Y524388D01*
X380769Y524342D01*
X380815Y524298D01*
X380865Y524257D01*
X380916Y524219D01*
X380970Y524185D01*
X381025Y524153D01*
X381083Y524125D01*
X381142Y524101D01*
X381202Y524080D01*
X381264Y524063D01*
X381326Y524049D01*
X381389Y524040D01*
X381453Y524034D01*
X381517Y524032D01*
X382576Y524032D01*
X382657Y524034D01*
X382737Y524040D01*
X382817Y524049D01*
X382896Y524063D01*
X382975Y524080D01*
X383053Y524101D01*
X383130Y524125D01*
X383205Y524153D01*
X383279Y524185D01*
X383352Y524220D01*
X383422Y524259D01*
X383491Y524301D01*
X383558Y524346D01*
X383623Y524394D01*
X383685Y524446D01*
X383744Y524500D01*
X383801Y524557D01*
X383855Y524616D01*
X383907Y524678D01*
X383955Y524743D01*
X384000Y524810D01*
X384042Y524878D01*
X384081Y524949D01*
X384116Y525022D01*
X384148Y525096D01*
X384176Y525171D01*
X384200Y525248D01*
X384221Y525326D01*
X384238Y525405D01*
X384252Y525484D01*
X384261Y525564D01*
X384267Y525644D01*
X384269Y525725D01*
D14*
X286927Y557930D02*
X286927Y561930D01*
X293427Y561930D01*
X293427Y557930D01*
X286927Y553930D02*
X286927Y549930D01*
X293427Y549930D01*
X293427Y553930D01*
D18*
X290177Y558430D03*
X290177Y553430D03*
D19*
X291177Y555930D03*
X289177Y555930D03*
D17*
X300698Y560931D02*
X300698Y564741D01*
X299640Y564741D01*
X299576Y564739D01*
X299512Y564733D01*
X299449Y564724D01*
X299387Y564710D01*
X299325Y564693D01*
X299265Y564672D01*
X299206Y564648D01*
X299148Y564620D01*
X299093Y564588D01*
X299039Y564554D01*
X298988Y564516D01*
X298938Y564475D01*
X298892Y564431D01*
X298848Y564385D01*
X298807Y564335D01*
X298769Y564284D01*
X298735Y564230D01*
X298703Y564175D01*
X298675Y564117D01*
X298651Y564058D01*
X298630Y563998D01*
X298613Y563936D01*
X298599Y563874D01*
X298590Y563811D01*
X298584Y563747D01*
X298582Y563683D01*
X298584Y563619D01*
X298590Y563555D01*
X298599Y563492D01*
X298613Y563430D01*
X298630Y563368D01*
X298651Y563308D01*
X298675Y563249D01*
X298703Y563191D01*
X298735Y563136D01*
X298769Y563082D01*
X298807Y563031D01*
X298848Y562981D01*
X298892Y562935D01*
X298938Y562891D01*
X298988Y562850D01*
X299039Y562812D01*
X299093Y562778D01*
X299148Y562746D01*
X299206Y562718D01*
X299265Y562694D01*
X299325Y562673D01*
X299387Y562656D01*
X299449Y562642D01*
X299512Y562633D01*
X299576Y562627D01*
X299640Y562625D01*
X299640Y562624D02*
X300698Y562624D01*
X299428Y562624D02*
X298581Y560931D01*
X297062Y564318D02*
X297062Y564741D01*
X294945Y564741D01*
X296003Y560931D01*
D14*
X306803Y557548D02*
X306803Y553548D01*
X306803Y557548D02*
X313303Y557548D01*
X313303Y553548D01*
X306803Y549548D02*
X306803Y545548D01*
X313303Y545548D01*
X313303Y549548D01*
D18*
X310053Y554048D03*
X310053Y549048D03*
D19*
X311053Y551548D03*
X309053Y551548D03*
D17*
X316004Y547926D02*
X319814Y547926D01*
X319814Y548984D01*
X319812Y549048D01*
X319806Y549112D01*
X319797Y549175D01*
X319783Y549237D01*
X319766Y549299D01*
X319745Y549359D01*
X319721Y549418D01*
X319693Y549476D01*
X319661Y549531D01*
X319627Y549585D01*
X319589Y549636D01*
X319548Y549686D01*
X319504Y549732D01*
X319458Y549776D01*
X319408Y549817D01*
X319357Y549855D01*
X319303Y549889D01*
X319248Y549921D01*
X319190Y549949D01*
X319131Y549973D01*
X319071Y549994D01*
X319009Y550011D01*
X318947Y550025D01*
X318884Y550034D01*
X318820Y550040D01*
X318756Y550042D01*
X318692Y550040D01*
X318628Y550034D01*
X318565Y550025D01*
X318503Y550011D01*
X318441Y549994D01*
X318381Y549973D01*
X318322Y549949D01*
X318264Y549921D01*
X318209Y549889D01*
X318155Y549855D01*
X318104Y549817D01*
X318054Y549776D01*
X318008Y549732D01*
X317964Y549686D01*
X317923Y549636D01*
X317885Y549585D01*
X317851Y549531D01*
X317819Y549476D01*
X317791Y549418D01*
X317767Y549359D01*
X317746Y549299D01*
X317729Y549237D01*
X317715Y549175D01*
X317706Y549112D01*
X317700Y549048D01*
X317698Y548984D01*
X317697Y548984D02*
X317697Y547926D01*
X317697Y549196D02*
X316004Y550043D01*
X318861Y553680D02*
X318921Y553678D01*
X318980Y553672D01*
X319040Y553663D01*
X319098Y553650D01*
X319155Y553633D01*
X319212Y553613D01*
X319267Y553589D01*
X319320Y553562D01*
X319372Y553532D01*
X319421Y553498D01*
X319468Y553461D01*
X319513Y553422D01*
X319556Y553379D01*
X319595Y553334D01*
X319632Y553287D01*
X319666Y553238D01*
X319696Y553186D01*
X319723Y553133D01*
X319747Y553078D01*
X319767Y553021D01*
X319784Y552964D01*
X319797Y552906D01*
X319806Y552846D01*
X319812Y552787D01*
X319814Y552727D01*
X319812Y552660D01*
X319807Y552593D01*
X319798Y552527D01*
X319785Y552461D01*
X319769Y552397D01*
X319749Y552333D01*
X319725Y552270D01*
X319699Y552208D01*
X319669Y552149D01*
X319636Y552091D01*
X319599Y552034D01*
X319560Y551980D01*
X319518Y551928D01*
X319473Y551879D01*
X319425Y551832D01*
X319375Y551788D01*
X319322Y551746D01*
X319267Y551708D01*
X319211Y551672D01*
X319152Y551640D01*
X319092Y551611D01*
X319030Y551585D01*
X318967Y551563D01*
X318120Y553362D02*
X318162Y553403D01*
X318207Y553442D01*
X318253Y553479D01*
X318302Y553513D01*
X318352Y553544D01*
X318404Y553571D01*
X318458Y553596D01*
X318513Y553618D01*
X318569Y553637D01*
X318626Y553652D01*
X318684Y553664D01*
X318743Y553672D01*
X318802Y553677D01*
X318861Y553679D01*
X318121Y553362D02*
X316004Y551563D01*
X316004Y553679D01*
X351023Y651350D02*
X351023Y654144D01*
X351023Y651350D02*
X349781Y651350D01*
X348646Y651350D02*
X347404Y651350D01*
X348646Y651350D02*
X348646Y654144D01*
X347404Y654144D01*
X347714Y652902D02*
X348646Y652902D01*
X346274Y654144D02*
X346274Y651350D01*
X346274Y654144D02*
X345498Y654144D01*
X345443Y654142D01*
X345388Y654136D01*
X345333Y654126D01*
X345279Y654113D01*
X345227Y654095D01*
X345176Y654074D01*
X345126Y654049D01*
X345078Y654021D01*
X345033Y653989D01*
X344990Y653954D01*
X344949Y653917D01*
X344912Y653876D01*
X344877Y653833D01*
X344845Y653788D01*
X344817Y653740D01*
X344792Y653690D01*
X344771Y653639D01*
X344753Y653587D01*
X344740Y653533D01*
X344730Y653478D01*
X344724Y653423D01*
X344722Y653368D01*
X344721Y653368D02*
X344721Y652126D01*
X344722Y652126D02*
X344724Y652071D01*
X344730Y652016D01*
X344740Y651961D01*
X344753Y651907D01*
X344771Y651855D01*
X344792Y651804D01*
X344817Y651754D01*
X344845Y651706D01*
X344877Y651661D01*
X344912Y651618D01*
X344949Y651577D01*
X344990Y651540D01*
X345033Y651505D01*
X345078Y651473D01*
X345126Y651445D01*
X345176Y651420D01*
X345227Y651399D01*
X345279Y651381D01*
X345333Y651368D01*
X345388Y651358D01*
X345443Y651352D01*
X345498Y651350D01*
X346274Y651350D01*
X343439Y653523D02*
X342663Y654144D01*
X342663Y651350D01*
X343439Y651350D02*
X341887Y651350D01*
X358922Y644053D02*
X361716Y644053D01*
X358922Y644053D02*
X358922Y645294D01*
X358922Y646430D02*
X358922Y647672D01*
X358922Y646430D02*
X361716Y646430D01*
X361716Y647672D01*
X360475Y647361D02*
X360475Y646430D01*
X361716Y648802D02*
X358922Y648802D01*
X361716Y648802D02*
X361716Y649578D01*
X361714Y649633D01*
X361708Y649688D01*
X361698Y649743D01*
X361685Y649797D01*
X361667Y649849D01*
X361646Y649900D01*
X361621Y649950D01*
X361593Y649998D01*
X361561Y650043D01*
X361526Y650086D01*
X361489Y650127D01*
X361448Y650164D01*
X361405Y650199D01*
X361360Y650231D01*
X361312Y650259D01*
X361262Y650284D01*
X361211Y650305D01*
X361159Y650323D01*
X361105Y650336D01*
X361050Y650346D01*
X360995Y650352D01*
X360940Y650354D01*
X359698Y650354D01*
X359643Y650352D01*
X359588Y650346D01*
X359533Y650336D01*
X359479Y650323D01*
X359427Y650305D01*
X359376Y650284D01*
X359326Y650259D01*
X359278Y650231D01*
X359233Y650199D01*
X359190Y650164D01*
X359149Y650127D01*
X359112Y650086D01*
X359077Y650043D01*
X359045Y649998D01*
X359017Y649950D01*
X358992Y649900D01*
X358971Y649849D01*
X358953Y649797D01*
X358940Y649743D01*
X358930Y649688D01*
X358924Y649633D01*
X358922Y649578D01*
X358922Y648802D01*
X361717Y652490D02*
X361715Y652540D01*
X361710Y652589D01*
X361701Y652639D01*
X361689Y652687D01*
X361673Y652734D01*
X361654Y652780D01*
X361631Y652825D01*
X361606Y652868D01*
X361578Y652909D01*
X361546Y652948D01*
X361512Y652984D01*
X361476Y653018D01*
X361437Y653050D01*
X361396Y653078D01*
X361353Y653103D01*
X361308Y653126D01*
X361262Y653145D01*
X361215Y653161D01*
X361167Y653173D01*
X361117Y653182D01*
X361068Y653187D01*
X361018Y653189D01*
X361716Y652490D02*
X361714Y652434D01*
X361709Y652377D01*
X361700Y652322D01*
X361688Y652267D01*
X361672Y652213D01*
X361653Y652160D01*
X361631Y652108D01*
X361605Y652058D01*
X361576Y652009D01*
X361544Y651962D01*
X361510Y651918D01*
X361473Y651876D01*
X361433Y651836D01*
X361390Y651798D01*
X361346Y651764D01*
X361299Y651732D01*
X361251Y651704D01*
X361200Y651678D01*
X361148Y651656D01*
X361095Y651637D01*
X360475Y652955D02*
X360511Y652991D01*
X360549Y653024D01*
X360590Y653054D01*
X360633Y653081D01*
X360677Y653106D01*
X360723Y653127D01*
X360770Y653146D01*
X360818Y653161D01*
X360867Y653173D01*
X360917Y653181D01*
X360967Y653186D01*
X361018Y653188D01*
X360475Y652956D02*
X358922Y651637D01*
X358922Y653189D01*
D14*
X312246Y528702D02*
X308246Y528702D01*
X308246Y535202D01*
X312246Y535202D01*
X316246Y528702D02*
X320246Y528702D01*
X320246Y535202D01*
X316246Y535202D01*
D15*
X311746Y531952D03*
X316746Y531952D03*
D16*
X314246Y532952D03*
X314246Y530952D03*
D17*
X315162Y522935D02*
X316008Y522935D01*
X316063Y522937D01*
X316119Y522942D01*
X316173Y522951D01*
X316227Y522964D01*
X316280Y522980D01*
X316332Y522999D01*
X316383Y523022D01*
X316432Y523048D01*
X316479Y523078D01*
X316524Y523110D01*
X316566Y523145D01*
X316607Y523183D01*
X316645Y523224D01*
X316680Y523266D01*
X316712Y523311D01*
X316742Y523359D01*
X316768Y523407D01*
X316791Y523458D01*
X316810Y523510D01*
X316826Y523563D01*
X316839Y523617D01*
X316848Y523671D01*
X316853Y523727D01*
X316855Y523782D01*
X316855Y525899D01*
X316853Y525957D01*
X316847Y526014D01*
X316837Y526071D01*
X316824Y526128D01*
X316806Y526183D01*
X316785Y526236D01*
X316760Y526289D01*
X316732Y526339D01*
X316700Y526387D01*
X316665Y526434D01*
X316627Y526477D01*
X316586Y526518D01*
X316543Y526556D01*
X316496Y526591D01*
X316448Y526623D01*
X316398Y526651D01*
X316345Y526676D01*
X316292Y526697D01*
X316237Y526715D01*
X316180Y526728D01*
X316123Y526738D01*
X316066Y526744D01*
X316008Y526746D01*
X316008Y526745D02*
X315162Y526745D01*
X312633Y526746D02*
X312573Y526744D01*
X312514Y526738D01*
X312454Y526729D01*
X312396Y526716D01*
X312339Y526699D01*
X312282Y526679D01*
X312227Y526655D01*
X312174Y526628D01*
X312122Y526598D01*
X312073Y526564D01*
X312026Y526527D01*
X311981Y526488D01*
X311938Y526445D01*
X311899Y526400D01*
X311862Y526353D01*
X311828Y526304D01*
X311798Y526252D01*
X311771Y526199D01*
X311747Y526144D01*
X311727Y526087D01*
X311710Y526030D01*
X311697Y525972D01*
X311688Y525912D01*
X311682Y525853D01*
X311680Y525793D01*
X312633Y526746D02*
X312700Y526744D01*
X312767Y526739D01*
X312833Y526730D01*
X312899Y526717D01*
X312963Y526701D01*
X313027Y526681D01*
X313090Y526657D01*
X313152Y526631D01*
X313211Y526601D01*
X313269Y526568D01*
X313326Y526531D01*
X313380Y526492D01*
X313432Y526450D01*
X313481Y526405D01*
X313528Y526357D01*
X313572Y526307D01*
X313614Y526254D01*
X313652Y526199D01*
X313688Y526143D01*
X313720Y526084D01*
X313749Y526024D01*
X313775Y525962D01*
X313797Y525899D01*
X311998Y525052D02*
X311957Y525094D01*
X311918Y525139D01*
X311881Y525185D01*
X311847Y525234D01*
X311816Y525284D01*
X311789Y525336D01*
X311764Y525390D01*
X311742Y525445D01*
X311723Y525501D01*
X311708Y525558D01*
X311696Y525616D01*
X311688Y525675D01*
X311683Y525734D01*
X311681Y525793D01*
X311998Y525052D02*
X313798Y522935D01*
X311681Y522935D01*
X308023Y525793D02*
X308025Y525853D01*
X308031Y525912D01*
X308040Y525972D01*
X308053Y526030D01*
X308070Y526087D01*
X308090Y526144D01*
X308114Y526199D01*
X308141Y526252D01*
X308171Y526304D01*
X308205Y526353D01*
X308242Y526400D01*
X308281Y526445D01*
X308324Y526488D01*
X308369Y526527D01*
X308416Y526564D01*
X308465Y526598D01*
X308517Y526628D01*
X308570Y526655D01*
X308625Y526679D01*
X308682Y526699D01*
X308739Y526716D01*
X308797Y526729D01*
X308857Y526738D01*
X308916Y526744D01*
X308976Y526746D01*
X309043Y526744D01*
X309110Y526739D01*
X309176Y526730D01*
X309242Y526717D01*
X309306Y526701D01*
X309370Y526681D01*
X309433Y526657D01*
X309495Y526631D01*
X309554Y526601D01*
X309612Y526568D01*
X309669Y526531D01*
X309723Y526492D01*
X309775Y526450D01*
X309824Y526405D01*
X309871Y526357D01*
X309915Y526307D01*
X309957Y526254D01*
X309995Y526199D01*
X310031Y526143D01*
X310063Y526084D01*
X310092Y526024D01*
X310118Y525962D01*
X310140Y525899D01*
X308340Y525052D02*
X308299Y525094D01*
X308260Y525139D01*
X308223Y525185D01*
X308189Y525234D01*
X308158Y525284D01*
X308131Y525336D01*
X308106Y525390D01*
X308084Y525445D01*
X308065Y525501D01*
X308050Y525558D01*
X308038Y525616D01*
X308030Y525675D01*
X308025Y525734D01*
X308023Y525793D01*
X308341Y525052D02*
X310140Y522935D01*
X308023Y522935D01*
D14*
X244177Y453526D02*
X240177Y453526D01*
X240177Y460026D01*
X244177Y460026D01*
X248177Y453526D02*
X252177Y453526D01*
X252177Y460026D01*
X248177Y460026D01*
D15*
X243677Y456776D03*
X248677Y456776D03*
D16*
X246177Y457776D03*
X246177Y455776D03*
D17*
X234394Y452282D02*
X234394Y451435D01*
X234393Y451435D02*
X234395Y451380D01*
X234400Y451324D01*
X234409Y451270D01*
X234422Y451216D01*
X234438Y451163D01*
X234457Y451111D01*
X234480Y451060D01*
X234506Y451012D01*
X234536Y450964D01*
X234568Y450919D01*
X234603Y450877D01*
X234641Y450836D01*
X234682Y450798D01*
X234724Y450763D01*
X234769Y450731D01*
X234817Y450701D01*
X234865Y450675D01*
X234916Y450652D01*
X234968Y450633D01*
X235021Y450617D01*
X235075Y450604D01*
X235129Y450595D01*
X235185Y450590D01*
X235240Y450588D01*
X237357Y450588D01*
X237415Y450590D01*
X237472Y450596D01*
X237529Y450606D01*
X237586Y450619D01*
X237641Y450637D01*
X237694Y450658D01*
X237747Y450683D01*
X237797Y450711D01*
X237845Y450743D01*
X237892Y450778D01*
X237935Y450816D01*
X237976Y450857D01*
X238014Y450900D01*
X238049Y450947D01*
X238081Y450995D01*
X238109Y451045D01*
X238134Y451098D01*
X238155Y451151D01*
X238173Y451206D01*
X238186Y451263D01*
X238196Y451320D01*
X238202Y451377D01*
X238204Y451435D01*
X238204Y452282D01*
X238204Y454810D02*
X238202Y454870D01*
X238196Y454929D01*
X238187Y454989D01*
X238174Y455047D01*
X238157Y455104D01*
X238137Y455161D01*
X238113Y455216D01*
X238086Y455269D01*
X238056Y455321D01*
X238022Y455370D01*
X237985Y455417D01*
X237946Y455462D01*
X237903Y455505D01*
X237858Y455544D01*
X237811Y455581D01*
X237762Y455615D01*
X237710Y455645D01*
X237657Y455672D01*
X237602Y455696D01*
X237545Y455716D01*
X237488Y455733D01*
X237430Y455746D01*
X237370Y455755D01*
X237311Y455761D01*
X237251Y455763D01*
X238204Y454810D02*
X238202Y454743D01*
X238197Y454676D01*
X238188Y454610D01*
X238175Y454544D01*
X238159Y454480D01*
X238139Y454416D01*
X238115Y454353D01*
X238089Y454291D01*
X238059Y454232D01*
X238026Y454174D01*
X237989Y454117D01*
X237950Y454063D01*
X237908Y454011D01*
X237863Y453962D01*
X237815Y453915D01*
X237765Y453871D01*
X237712Y453829D01*
X237657Y453791D01*
X237601Y453755D01*
X237542Y453723D01*
X237482Y453694D01*
X237420Y453668D01*
X237357Y453646D01*
X236510Y455445D02*
X236552Y455486D01*
X236597Y455525D01*
X236643Y455562D01*
X236692Y455596D01*
X236742Y455627D01*
X236794Y455654D01*
X236848Y455679D01*
X236903Y455701D01*
X236959Y455720D01*
X237016Y455735D01*
X237074Y455747D01*
X237133Y455755D01*
X237192Y455760D01*
X237251Y455762D01*
X236510Y455445D02*
X234394Y453646D01*
X234394Y455762D01*
X234394Y457303D02*
X234394Y458362D01*
X234396Y458426D01*
X234402Y458490D01*
X234411Y458553D01*
X234425Y458615D01*
X234442Y458677D01*
X234463Y458737D01*
X234487Y458796D01*
X234515Y458854D01*
X234547Y458909D01*
X234581Y458963D01*
X234619Y459014D01*
X234660Y459064D01*
X234704Y459110D01*
X234750Y459154D01*
X234800Y459195D01*
X234851Y459233D01*
X234905Y459267D01*
X234960Y459299D01*
X235018Y459327D01*
X235077Y459351D01*
X235137Y459372D01*
X235199Y459389D01*
X235261Y459403D01*
X235324Y459412D01*
X235388Y459418D01*
X235452Y459420D01*
X235516Y459418D01*
X235580Y459412D01*
X235643Y459403D01*
X235705Y459389D01*
X235767Y459372D01*
X235827Y459351D01*
X235886Y459327D01*
X235944Y459299D01*
X235999Y459267D01*
X236053Y459233D01*
X236104Y459195D01*
X236154Y459154D01*
X236200Y459110D01*
X236244Y459064D01*
X236285Y459014D01*
X236323Y458963D01*
X236357Y458909D01*
X236389Y458854D01*
X236417Y458796D01*
X236441Y458737D01*
X236462Y458677D01*
X236479Y458615D01*
X236493Y458553D01*
X236502Y458490D01*
X236508Y458426D01*
X236510Y458362D01*
X238204Y458573D02*
X238204Y457303D01*
X238204Y458573D02*
X238202Y458630D01*
X238196Y458686D01*
X238187Y458742D01*
X238174Y458797D01*
X238157Y458851D01*
X238137Y458904D01*
X238113Y458955D01*
X238086Y459005D01*
X238055Y459052D01*
X238022Y459098D01*
X237985Y459141D01*
X237946Y459182D01*
X237904Y459220D01*
X237859Y459255D01*
X237813Y459287D01*
X237764Y459316D01*
X237714Y459341D01*
X237661Y459363D01*
X237608Y459382D01*
X237553Y459397D01*
X237498Y459408D01*
X237442Y459416D01*
X237385Y459420D01*
X237329Y459420D01*
X237272Y459416D01*
X237216Y459408D01*
X237161Y459397D01*
X237106Y459382D01*
X237053Y459363D01*
X237000Y459341D01*
X236950Y459316D01*
X236901Y459287D01*
X236855Y459255D01*
X236810Y459220D01*
X236768Y459182D01*
X236729Y459141D01*
X236692Y459098D01*
X236659Y459052D01*
X236628Y459005D01*
X236601Y458955D01*
X236577Y458904D01*
X236557Y458851D01*
X236540Y458797D01*
X236527Y458742D01*
X236518Y458686D01*
X236512Y458630D01*
X236510Y458573D01*
X236510Y457727D01*
X351010Y660959D02*
X351010Y663753D01*
X351010Y660959D02*
X349768Y660959D01*
X348633Y660959D02*
X347391Y660959D01*
X348633Y660959D02*
X348633Y663753D01*
X347391Y663753D01*
X347702Y662511D02*
X348633Y662511D01*
X346261Y663753D02*
X346261Y660959D01*
X346261Y663753D02*
X345485Y663753D01*
X345430Y663751D01*
X345375Y663745D01*
X345320Y663735D01*
X345266Y663722D01*
X345214Y663704D01*
X345163Y663683D01*
X345113Y663658D01*
X345065Y663630D01*
X345020Y663598D01*
X344977Y663563D01*
X344936Y663526D01*
X344899Y663485D01*
X344864Y663442D01*
X344832Y663397D01*
X344804Y663349D01*
X344779Y663299D01*
X344758Y663248D01*
X344740Y663196D01*
X344727Y663142D01*
X344717Y663087D01*
X344711Y663032D01*
X344709Y662977D01*
X344709Y661735D01*
X344711Y661680D01*
X344717Y661625D01*
X344727Y661570D01*
X344740Y661516D01*
X344758Y661464D01*
X344779Y661413D01*
X344804Y661363D01*
X344832Y661315D01*
X344864Y661270D01*
X344899Y661227D01*
X344936Y661186D01*
X344977Y661149D01*
X345020Y661114D01*
X345065Y661082D01*
X345113Y661054D01*
X345163Y661029D01*
X345214Y661008D01*
X345266Y660990D01*
X345320Y660977D01*
X345375Y660967D01*
X345430Y660961D01*
X345485Y660959D01*
X346261Y660959D01*
X343426Y660959D02*
X342650Y660959D01*
X342595Y660961D01*
X342540Y660967D01*
X342485Y660977D01*
X342431Y660990D01*
X342379Y661008D01*
X342328Y661029D01*
X342278Y661054D01*
X342230Y661082D01*
X342185Y661114D01*
X342142Y661149D01*
X342101Y661186D01*
X342064Y661227D01*
X342029Y661270D01*
X341997Y661315D01*
X341969Y661363D01*
X341944Y661413D01*
X341923Y661464D01*
X341905Y661516D01*
X341892Y661570D01*
X341882Y661625D01*
X341876Y661680D01*
X341874Y661735D01*
X341876Y661790D01*
X341882Y661845D01*
X341892Y661900D01*
X341905Y661954D01*
X341923Y662006D01*
X341944Y662057D01*
X341969Y662107D01*
X341997Y662155D01*
X342029Y662200D01*
X342064Y662243D01*
X342101Y662284D01*
X342142Y662321D01*
X342185Y662356D01*
X342230Y662388D01*
X342278Y662416D01*
X342328Y662441D01*
X342379Y662462D01*
X342431Y662480D01*
X342485Y662493D01*
X342540Y662503D01*
X342595Y662509D01*
X342650Y662511D01*
X342495Y663753D02*
X343426Y663753D01*
X342495Y663753D02*
X342446Y663751D01*
X342398Y663745D01*
X342350Y663736D01*
X342303Y663723D01*
X342257Y663706D01*
X342213Y663685D01*
X342171Y663661D01*
X342130Y663634D01*
X342092Y663604D01*
X342056Y663571D01*
X342023Y663535D01*
X341993Y663497D01*
X341966Y663456D01*
X341942Y663414D01*
X341921Y663370D01*
X341904Y663324D01*
X341891Y663277D01*
X341882Y663229D01*
X341876Y663181D01*
X341874Y663132D01*
X341876Y663083D01*
X341882Y663035D01*
X341891Y662987D01*
X341904Y662940D01*
X341921Y662894D01*
X341942Y662850D01*
X341966Y662808D01*
X341993Y662767D01*
X342023Y662729D01*
X342056Y662693D01*
X342092Y662660D01*
X342130Y662630D01*
X342171Y662603D01*
X342213Y662579D01*
X342257Y662558D01*
X342303Y662541D01*
X342350Y662528D01*
X342398Y662519D01*
X342446Y662513D01*
X342495Y662511D01*
X343116Y662511D01*
D10*
X202717Y624904D02*
X202717Y620332D01*
X200177Y620332D02*
X202717Y624904D01*
X200177Y624904D02*
X200177Y620332D01*
X197830Y620332D02*
X197830Y624904D01*
X195798Y624904D01*
X195798Y622872D02*
X197830Y622872D01*
X193029Y620332D02*
X192013Y620332D01*
X193029Y620332D02*
X193090Y620334D01*
X193151Y620339D01*
X193212Y620349D01*
X193272Y620362D01*
X193331Y620378D01*
X193389Y620398D01*
X193446Y620422D01*
X193501Y620448D01*
X193555Y620479D01*
X193606Y620512D01*
X193656Y620548D01*
X193703Y620588D01*
X193747Y620630D01*
X193789Y620674D01*
X193829Y620721D01*
X193865Y620771D01*
X193898Y620822D01*
X193929Y620876D01*
X193955Y620931D01*
X193979Y620988D01*
X193999Y621046D01*
X194015Y621105D01*
X194028Y621165D01*
X194038Y621226D01*
X194043Y621287D01*
X194045Y621348D01*
X194045Y623888D01*
X194043Y623949D01*
X194038Y624010D01*
X194028Y624071D01*
X194015Y624131D01*
X193999Y624190D01*
X193979Y624248D01*
X193955Y624305D01*
X193929Y624360D01*
X193898Y624414D01*
X193865Y624465D01*
X193829Y624515D01*
X193789Y624562D01*
X193747Y624606D01*
X193703Y624648D01*
X193656Y624688D01*
X193606Y624724D01*
X193555Y624757D01*
X193501Y624788D01*
X193446Y624814D01*
X193389Y624838D01*
X193331Y624858D01*
X193272Y624874D01*
X193212Y624887D01*
X193151Y624897D01*
X193090Y624902D01*
X193029Y624904D01*
X192013Y624904D01*
X190221Y623888D02*
X188951Y624904D01*
X188951Y620332D01*
X190221Y620332D02*
X187681Y620332D01*
X185133Y620332D02*
X185133Y624904D01*
X182593Y620332D01*
X182593Y624904D01*
X180246Y624904D02*
X180246Y620332D01*
X180246Y624904D02*
X178214Y624904D01*
X178214Y622872D02*
X180246Y622872D01*
X175445Y620332D02*
X174429Y620332D01*
X175445Y620332D02*
X175506Y620334D01*
X175567Y620339D01*
X175628Y620349D01*
X175688Y620362D01*
X175747Y620378D01*
X175805Y620398D01*
X175862Y620422D01*
X175917Y620448D01*
X175971Y620479D01*
X176022Y620512D01*
X176072Y620548D01*
X176119Y620588D01*
X176163Y620630D01*
X176205Y620674D01*
X176245Y620721D01*
X176281Y620771D01*
X176314Y620822D01*
X176345Y620876D01*
X176371Y620931D01*
X176395Y620988D01*
X176415Y621046D01*
X176431Y621105D01*
X176444Y621165D01*
X176454Y621226D01*
X176459Y621287D01*
X176461Y621348D01*
X176461Y623888D01*
X176459Y623949D01*
X176454Y624010D01*
X176444Y624071D01*
X176431Y624131D01*
X176415Y624190D01*
X176395Y624248D01*
X176371Y624305D01*
X176345Y624360D01*
X176314Y624414D01*
X176281Y624465D01*
X176245Y624515D01*
X176205Y624562D01*
X176163Y624606D01*
X176119Y624648D01*
X176072Y624688D01*
X176022Y624724D01*
X175971Y624757D01*
X175917Y624788D01*
X175862Y624814D01*
X175805Y624838D01*
X175747Y624858D01*
X175688Y624874D01*
X175628Y624887D01*
X175567Y624897D01*
X175506Y624902D01*
X175445Y624904D01*
X174429Y624904D01*
X171239Y624904D02*
X171173Y624902D01*
X171106Y624896D01*
X171041Y624887D01*
X170975Y624873D01*
X170911Y624856D01*
X170848Y624835D01*
X170786Y624811D01*
X170726Y624782D01*
X170668Y624751D01*
X170611Y624716D01*
X170556Y624678D01*
X170504Y624637D01*
X170455Y624592D01*
X170408Y624545D01*
X170363Y624496D01*
X170322Y624444D01*
X170284Y624389D01*
X170249Y624333D01*
X170218Y624274D01*
X170189Y624214D01*
X170165Y624152D01*
X170144Y624089D01*
X170127Y624025D01*
X170113Y623959D01*
X170104Y623894D01*
X170098Y623827D01*
X170096Y623761D01*
X171239Y624903D02*
X171313Y624901D01*
X171386Y624896D01*
X171460Y624886D01*
X171532Y624873D01*
X171604Y624857D01*
X171675Y624837D01*
X171745Y624813D01*
X171814Y624786D01*
X171881Y624755D01*
X171947Y624721D01*
X172010Y624684D01*
X172072Y624644D01*
X172132Y624600D01*
X172189Y624554D01*
X172245Y624505D01*
X172297Y624453D01*
X172347Y624398D01*
X172394Y624341D01*
X172438Y624282D01*
X172479Y624221D01*
X172517Y624157D01*
X172552Y624092D01*
X172583Y624025D01*
X172611Y623957D01*
X172636Y623887D01*
X170477Y622872D02*
X170430Y622919D01*
X170386Y622968D01*
X170345Y623020D01*
X170306Y623074D01*
X170271Y623130D01*
X170238Y623188D01*
X170209Y623247D01*
X170183Y623308D01*
X170160Y623370D01*
X170140Y623434D01*
X170125Y623498D01*
X170112Y623563D01*
X170103Y623629D01*
X170098Y623695D01*
X170096Y623761D01*
X170477Y622872D02*
X172636Y620332D01*
X170096Y620332D01*
D14*
X321105Y535968D02*
X321105Y529468D01*
X321105Y535968D02*
X330105Y535968D01*
X330105Y529468D01*
X321105Y523468D02*
X321105Y516968D01*
X330105Y516968D01*
X330105Y523468D01*
D22*
X325605Y530468D03*
X325605Y522468D03*
D23*
X323605Y526468D03*
X327605Y526468D03*
D17*
X329611Y536674D02*
X329611Y540484D01*
X328553Y540484D01*
X328489Y540482D01*
X328425Y540476D01*
X328362Y540467D01*
X328300Y540453D01*
X328238Y540436D01*
X328178Y540415D01*
X328119Y540391D01*
X328061Y540363D01*
X328006Y540331D01*
X327952Y540297D01*
X327901Y540259D01*
X327851Y540218D01*
X327805Y540174D01*
X327761Y540128D01*
X327720Y540078D01*
X327682Y540027D01*
X327648Y539973D01*
X327616Y539918D01*
X327588Y539860D01*
X327564Y539801D01*
X327543Y539741D01*
X327526Y539679D01*
X327512Y539617D01*
X327503Y539554D01*
X327497Y539490D01*
X327495Y539426D01*
X327497Y539362D01*
X327503Y539298D01*
X327512Y539235D01*
X327526Y539173D01*
X327543Y539111D01*
X327564Y539051D01*
X327588Y538992D01*
X327616Y538934D01*
X327648Y538879D01*
X327682Y538825D01*
X327720Y538774D01*
X327761Y538724D01*
X327805Y538678D01*
X327851Y538634D01*
X327901Y538593D01*
X327952Y538555D01*
X328006Y538521D01*
X328061Y538489D01*
X328119Y538461D01*
X328178Y538437D01*
X328238Y538416D01*
X328300Y538399D01*
X328362Y538385D01*
X328425Y538376D01*
X328489Y538370D01*
X328553Y538368D01*
X328553Y538367D02*
X329611Y538367D01*
X328341Y538367D02*
X327494Y536674D01*
X325974Y539637D02*
X324916Y540484D01*
X324916Y536674D01*
X325974Y536674D02*
X323858Y536674D01*
X322317Y538579D02*
X322315Y538689D01*
X322309Y538798D01*
X322300Y538907D01*
X322286Y539016D01*
X322269Y539124D01*
X322248Y539232D01*
X322224Y539338D01*
X322195Y539444D01*
X322163Y539549D01*
X322128Y539653D01*
X322089Y539755D01*
X322046Y539856D01*
X321999Y539955D01*
X321979Y540005D01*
X321957Y540054D01*
X321931Y540102D01*
X321902Y540147D01*
X321869Y540190D01*
X321834Y540231D01*
X321796Y540270D01*
X321756Y540305D01*
X321713Y540338D01*
X321668Y540368D01*
X321621Y540395D01*
X321573Y540418D01*
X321523Y540438D01*
X321471Y540454D01*
X321419Y540467D01*
X321366Y540477D01*
X321312Y540482D01*
X321258Y540484D01*
X321204Y540482D01*
X321150Y540477D01*
X321097Y540467D01*
X321045Y540454D01*
X320993Y540438D01*
X320943Y540418D01*
X320895Y540395D01*
X320848Y540368D01*
X320803Y540338D01*
X320760Y540305D01*
X320720Y540270D01*
X320682Y540231D01*
X320647Y540190D01*
X320614Y540147D01*
X320585Y540102D01*
X320559Y540054D01*
X320537Y540005D01*
X320517Y539955D01*
X320518Y539955D02*
X320471Y539856D01*
X320428Y539755D01*
X320389Y539653D01*
X320354Y539549D01*
X320322Y539444D01*
X320293Y539338D01*
X320269Y539232D01*
X320248Y539124D01*
X320231Y539016D01*
X320217Y538907D01*
X320208Y538798D01*
X320202Y538689D01*
X320200Y538579D01*
X322317Y538579D02*
X322315Y538469D01*
X322309Y538360D01*
X322300Y538251D01*
X322286Y538142D01*
X322269Y538034D01*
X322248Y537926D01*
X322224Y537820D01*
X322195Y537714D01*
X322163Y537609D01*
X322128Y537506D01*
X322089Y537403D01*
X322046Y537302D01*
X321999Y537203D01*
X321979Y537153D01*
X321957Y537104D01*
X321931Y537056D01*
X321902Y537011D01*
X321869Y536968D01*
X321834Y536927D01*
X321796Y536888D01*
X321756Y536853D01*
X321713Y536820D01*
X321668Y536790D01*
X321621Y536763D01*
X321573Y536740D01*
X321523Y536720D01*
X321471Y536704D01*
X321419Y536691D01*
X321366Y536681D01*
X321312Y536676D01*
X321258Y536674D01*
X320518Y537203D02*
X320471Y537302D01*
X320428Y537403D01*
X320389Y537506D01*
X320354Y537609D01*
X320322Y537714D01*
X320293Y537820D01*
X320269Y537926D01*
X320248Y538034D01*
X320231Y538142D01*
X320217Y538251D01*
X320208Y538360D01*
X320202Y538469D01*
X320200Y538579D01*
X320517Y537203D02*
X320537Y537153D01*
X320559Y537104D01*
X320585Y537056D01*
X320614Y537011D01*
X320647Y536968D01*
X320682Y536927D01*
X320720Y536888D01*
X320760Y536853D01*
X320803Y536820D01*
X320848Y536790D01*
X320895Y536763D01*
X320943Y536740D01*
X320994Y536720D01*
X321045Y536704D01*
X321097Y536691D01*
X321150Y536681D01*
X321204Y536676D01*
X321258Y536674D01*
X322105Y537521D02*
X320412Y539637D01*
D14*
X319775Y492064D02*
X319775Y485564D01*
X310775Y485564D01*
X310775Y492064D01*
X319775Y498064D02*
X319775Y504564D01*
X310775Y504564D01*
X310775Y498064D01*
D22*
X315275Y491064D03*
X315275Y499064D03*
D23*
X317275Y495064D03*
X313275Y495064D03*
D17*
X321752Y485031D02*
X325562Y485031D01*
X325562Y486089D01*
X325560Y486153D01*
X325554Y486217D01*
X325545Y486280D01*
X325531Y486342D01*
X325514Y486404D01*
X325493Y486464D01*
X325469Y486523D01*
X325441Y486581D01*
X325409Y486636D01*
X325375Y486690D01*
X325337Y486741D01*
X325296Y486791D01*
X325252Y486837D01*
X325206Y486881D01*
X325156Y486922D01*
X325105Y486960D01*
X325051Y486994D01*
X324996Y487026D01*
X324938Y487054D01*
X324879Y487078D01*
X324819Y487099D01*
X324757Y487116D01*
X324695Y487130D01*
X324632Y487139D01*
X324568Y487145D01*
X324504Y487147D01*
X324440Y487145D01*
X324376Y487139D01*
X324313Y487130D01*
X324251Y487116D01*
X324189Y487099D01*
X324129Y487078D01*
X324070Y487054D01*
X324012Y487026D01*
X323957Y486994D01*
X323903Y486960D01*
X323852Y486922D01*
X323802Y486881D01*
X323756Y486837D01*
X323712Y486791D01*
X323671Y486741D01*
X323633Y486690D01*
X323599Y486636D01*
X323567Y486581D01*
X323539Y486523D01*
X323515Y486464D01*
X323494Y486404D01*
X323477Y486342D01*
X323463Y486280D01*
X323454Y486217D01*
X323448Y486153D01*
X323446Y486089D01*
X323445Y486089D02*
X323445Y485031D01*
X323445Y486301D02*
X321752Y487148D01*
X324715Y488667D02*
X325562Y489726D01*
X321752Y489726D01*
X321752Y490784D02*
X321752Y488667D01*
X324715Y492325D02*
X325562Y493383D01*
X321752Y493383D01*
X321752Y492325D02*
X321752Y494442D01*
D14*
X271185Y536037D02*
X264685Y536037D01*
X264685Y545037D01*
X271185Y545037D01*
X277185Y536037D02*
X283685Y536037D01*
X283685Y545037D01*
X277185Y545037D01*
D24*
X270185Y540537D03*
X278185Y540537D03*
D25*
X274185Y538537D03*
X274185Y542537D03*
D17*
X285831Y535516D02*
X289641Y535516D01*
X289641Y536574D01*
X289639Y536638D01*
X289633Y536702D01*
X289624Y536765D01*
X289610Y536827D01*
X289593Y536889D01*
X289572Y536949D01*
X289548Y537008D01*
X289520Y537066D01*
X289488Y537121D01*
X289454Y537175D01*
X289416Y537226D01*
X289375Y537276D01*
X289331Y537322D01*
X289285Y537366D01*
X289235Y537407D01*
X289184Y537445D01*
X289130Y537479D01*
X289075Y537511D01*
X289017Y537539D01*
X288958Y537563D01*
X288898Y537584D01*
X288836Y537601D01*
X288774Y537615D01*
X288711Y537624D01*
X288647Y537630D01*
X288583Y537632D01*
X288519Y537630D01*
X288455Y537624D01*
X288392Y537615D01*
X288330Y537601D01*
X288268Y537584D01*
X288208Y537563D01*
X288149Y537539D01*
X288091Y537511D01*
X288036Y537479D01*
X287982Y537445D01*
X287931Y537407D01*
X287881Y537366D01*
X287835Y537322D01*
X287791Y537276D01*
X287750Y537226D01*
X287712Y537175D01*
X287678Y537121D01*
X287646Y537066D01*
X287618Y537008D01*
X287594Y536949D01*
X287573Y536889D01*
X287556Y536827D01*
X287542Y536765D01*
X287533Y536702D01*
X287527Y536638D01*
X287525Y536574D01*
X287525Y535516D01*
X287525Y536786D02*
X285831Y537632D01*
X288795Y539152D02*
X289641Y540211D01*
X285831Y540211D01*
X285831Y541269D02*
X285831Y539152D01*
X285831Y542810D02*
X285831Y543868D01*
X285832Y543868D02*
X285834Y543932D01*
X285840Y543996D01*
X285849Y544059D01*
X285863Y544121D01*
X285880Y544183D01*
X285901Y544243D01*
X285925Y544302D01*
X285953Y544360D01*
X285985Y544415D01*
X286019Y544469D01*
X286057Y544520D01*
X286098Y544570D01*
X286142Y544616D01*
X286188Y544660D01*
X286238Y544701D01*
X286289Y544739D01*
X286343Y544773D01*
X286398Y544805D01*
X286456Y544833D01*
X286515Y544857D01*
X286575Y544878D01*
X286637Y544895D01*
X286699Y544909D01*
X286762Y544918D01*
X286826Y544924D01*
X286890Y544926D01*
X286954Y544924D01*
X287018Y544918D01*
X287081Y544909D01*
X287143Y544895D01*
X287205Y544878D01*
X287265Y544857D01*
X287324Y544833D01*
X287382Y544805D01*
X287437Y544773D01*
X287491Y544739D01*
X287542Y544701D01*
X287592Y544660D01*
X287638Y544616D01*
X287682Y544570D01*
X287723Y544520D01*
X287761Y544469D01*
X287795Y544415D01*
X287827Y544360D01*
X287855Y544302D01*
X287879Y544243D01*
X287900Y544183D01*
X287917Y544121D01*
X287931Y544059D01*
X287940Y543996D01*
X287946Y543932D01*
X287948Y543868D01*
X289641Y544080D02*
X289641Y542810D01*
X289642Y544080D02*
X289640Y544137D01*
X289634Y544193D01*
X289625Y544249D01*
X289612Y544304D01*
X289595Y544358D01*
X289575Y544411D01*
X289551Y544462D01*
X289524Y544512D01*
X289493Y544559D01*
X289460Y544605D01*
X289423Y544648D01*
X289384Y544689D01*
X289342Y544727D01*
X289297Y544762D01*
X289251Y544794D01*
X289202Y544823D01*
X289152Y544848D01*
X289099Y544870D01*
X289046Y544889D01*
X288991Y544904D01*
X288936Y544915D01*
X288880Y544923D01*
X288823Y544927D01*
X288767Y544927D01*
X288710Y544923D01*
X288654Y544915D01*
X288599Y544904D01*
X288544Y544889D01*
X288491Y544870D01*
X288438Y544848D01*
X288388Y544823D01*
X288339Y544794D01*
X288293Y544762D01*
X288248Y544727D01*
X288206Y544689D01*
X288167Y544648D01*
X288130Y544605D01*
X288097Y544559D01*
X288066Y544512D01*
X288039Y544462D01*
X288015Y544411D01*
X287995Y544358D01*
X287978Y544304D01*
X287965Y544249D01*
X287956Y544193D01*
X287950Y544137D01*
X287948Y544080D01*
X287948Y543233D01*
D26*
X134395Y548451D02*
X134395Y448901D01*
X134395Y548451D02*
X101795Y548451D01*
X101795Y448901D01*
X134395Y448901D01*
M02*
