G04 EAGLE Gerber RS-274X export*
G75*
%MOMM*%
%FSLAX34Y34*%
%LPD*%
%INSolderpaste Bottom*%
%IPPOS*%
%AMOC8*
5,1,8,0,0,1.08239X$1,22.5*%
G01*
%ADD10R,1.400000X0.700000*%
%ADD11R,1.200000X1.800000*%
%ADD12R,0.250000X0.350000*%
%ADD13R,0.350000X0.250000*%
%ADD14C,0.088500*%
%ADD15C,0.065000*%
%ADD16R,0.600000X0.500000*%
%ADD17R,0.500000X0.600000*%
%ADD18R,2.400000X0.760000*%


D10*
X146888Y568504D03*
X146888Y585504D03*
D11*
X299929Y511731D03*
X275929Y511731D03*
X275929Y471731D03*
X299929Y471731D03*
D12*
X124713Y568340D03*
X131213Y568340D03*
X124586Y584647D03*
X131086Y584647D03*
X274499Y455653D03*
X267999Y455653D03*
D13*
X280919Y532347D03*
X280919Y525847D03*
D14*
X260282Y568319D02*
X260282Y573335D01*
X271498Y573335D01*
X271498Y568319D01*
X260282Y568319D01*
X260282Y569160D02*
X271498Y569160D01*
X271498Y570001D02*
X260282Y570001D01*
X260282Y570842D02*
X271498Y570842D01*
X271498Y571683D02*
X260282Y571683D01*
X260282Y572524D02*
X271498Y572524D01*
X235182Y554335D02*
X235182Y549319D01*
X235182Y554335D02*
X246398Y554335D01*
X246398Y549319D01*
X235182Y549319D01*
X235182Y550160D02*
X246398Y550160D01*
X246398Y551001D02*
X235182Y551001D01*
X235182Y551842D02*
X246398Y551842D01*
X246398Y552683D02*
X235182Y552683D01*
X235182Y553524D02*
X246398Y553524D01*
X260282Y558819D02*
X260282Y563835D01*
X271498Y563835D01*
X271498Y558819D01*
X260282Y558819D01*
X260282Y559660D02*
X271498Y559660D01*
X271498Y560501D02*
X260282Y560501D01*
X260282Y561342D02*
X271498Y561342D01*
X271498Y562183D02*
X260282Y562183D01*
X260282Y563024D02*
X271498Y563024D01*
X260282Y554335D02*
X260282Y549319D01*
X260282Y554335D02*
X271498Y554335D01*
X271498Y549319D01*
X260282Y549319D01*
X260282Y550160D02*
X271498Y550160D01*
X271498Y551001D02*
X260282Y551001D01*
X260282Y551842D02*
X271498Y551842D01*
X271498Y552683D02*
X260282Y552683D01*
X260282Y553524D02*
X271498Y553524D01*
X235182Y568319D02*
X235182Y573335D01*
X246398Y573335D01*
X246398Y568319D01*
X235182Y568319D01*
X235182Y569160D02*
X246398Y569160D01*
X246398Y570001D02*
X235182Y570001D01*
X235182Y570842D02*
X246398Y570842D01*
X246398Y571683D02*
X235182Y571683D01*
X235182Y572524D02*
X246398Y572524D01*
D12*
X221586Y550357D03*
X228086Y550357D03*
D13*
X267211Y448256D03*
X267211Y441756D03*
D12*
X277240Y553568D03*
X283740Y553568D03*
D13*
X226535Y572017D03*
X226535Y578517D03*
D15*
X207585Y541842D02*
X207585Y528092D01*
X207585Y541842D02*
X209535Y541842D01*
X209535Y528092D01*
X207585Y528092D01*
X207585Y528709D02*
X209535Y528709D01*
X209535Y529326D02*
X207585Y529326D01*
X207585Y529943D02*
X209535Y529943D01*
X209535Y530560D02*
X207585Y530560D01*
X207585Y531177D02*
X209535Y531177D01*
X209535Y531794D02*
X207585Y531794D01*
X207585Y532411D02*
X209535Y532411D01*
X209535Y533028D02*
X207585Y533028D01*
X207585Y533645D02*
X209535Y533645D01*
X209535Y534262D02*
X207585Y534262D01*
X207585Y534879D02*
X209535Y534879D01*
X209535Y535496D02*
X207585Y535496D01*
X207585Y536113D02*
X209535Y536113D01*
X209535Y536730D02*
X207585Y536730D01*
X207585Y537347D02*
X209535Y537347D01*
X209535Y537964D02*
X207585Y537964D01*
X207585Y538581D02*
X209535Y538581D01*
X209535Y539198D02*
X207585Y539198D01*
X207585Y539815D02*
X209535Y539815D01*
X209535Y540432D02*
X207585Y540432D01*
X207585Y541049D02*
X209535Y541049D01*
X209535Y541666D02*
X207585Y541666D01*
X212585Y541842D02*
X212585Y528092D01*
X212585Y541842D02*
X214535Y541842D01*
X214535Y528092D01*
X212585Y528092D01*
X212585Y528709D02*
X214535Y528709D01*
X214535Y529326D02*
X212585Y529326D01*
X212585Y529943D02*
X214535Y529943D01*
X214535Y530560D02*
X212585Y530560D01*
X212585Y531177D02*
X214535Y531177D01*
X214535Y531794D02*
X212585Y531794D01*
X212585Y532411D02*
X214535Y532411D01*
X214535Y533028D02*
X212585Y533028D01*
X212585Y533645D02*
X214535Y533645D01*
X214535Y534262D02*
X212585Y534262D01*
X212585Y534879D02*
X214535Y534879D01*
X214535Y535496D02*
X212585Y535496D01*
X212585Y536113D02*
X214535Y536113D01*
X214535Y536730D02*
X212585Y536730D01*
X212585Y537347D02*
X214535Y537347D01*
X214535Y537964D02*
X212585Y537964D01*
X212585Y538581D02*
X214535Y538581D01*
X214535Y539198D02*
X212585Y539198D01*
X212585Y539815D02*
X214535Y539815D01*
X214535Y540432D02*
X212585Y540432D01*
X212585Y541049D02*
X214535Y541049D01*
X214535Y541666D02*
X212585Y541666D01*
X217585Y541842D02*
X217585Y528092D01*
X217585Y541842D02*
X219535Y541842D01*
X219535Y528092D01*
X217585Y528092D01*
X217585Y528709D02*
X219535Y528709D01*
X219535Y529326D02*
X217585Y529326D01*
X217585Y529943D02*
X219535Y529943D01*
X219535Y530560D02*
X217585Y530560D01*
X217585Y531177D02*
X219535Y531177D01*
X219535Y531794D02*
X217585Y531794D01*
X217585Y532411D02*
X219535Y532411D01*
X219535Y533028D02*
X217585Y533028D01*
X217585Y533645D02*
X219535Y533645D01*
X219535Y534262D02*
X217585Y534262D01*
X217585Y534879D02*
X219535Y534879D01*
X219535Y535496D02*
X217585Y535496D01*
X217585Y536113D02*
X219535Y536113D01*
X219535Y536730D02*
X217585Y536730D01*
X217585Y537347D02*
X219535Y537347D01*
X219535Y537964D02*
X217585Y537964D01*
X217585Y538581D02*
X219535Y538581D01*
X219535Y539198D02*
X217585Y539198D01*
X217585Y539815D02*
X219535Y539815D01*
X219535Y540432D02*
X217585Y540432D01*
X217585Y541049D02*
X219535Y541049D01*
X219535Y541666D02*
X217585Y541666D01*
X222585Y541842D02*
X222585Y528092D01*
X222585Y541842D02*
X224535Y541842D01*
X224535Y528092D01*
X222585Y528092D01*
X222585Y528709D02*
X224535Y528709D01*
X224535Y529326D02*
X222585Y529326D01*
X222585Y529943D02*
X224535Y529943D01*
X224535Y530560D02*
X222585Y530560D01*
X222585Y531177D02*
X224535Y531177D01*
X224535Y531794D02*
X222585Y531794D01*
X222585Y532411D02*
X224535Y532411D01*
X224535Y533028D02*
X222585Y533028D01*
X222585Y533645D02*
X224535Y533645D01*
X224535Y534262D02*
X222585Y534262D01*
X222585Y534879D02*
X224535Y534879D01*
X224535Y535496D02*
X222585Y535496D01*
X222585Y536113D02*
X224535Y536113D01*
X224535Y536730D02*
X222585Y536730D01*
X222585Y537347D02*
X224535Y537347D01*
X224535Y537964D02*
X222585Y537964D01*
X222585Y538581D02*
X224535Y538581D01*
X224535Y539198D02*
X222585Y539198D01*
X222585Y539815D02*
X224535Y539815D01*
X224535Y540432D02*
X222585Y540432D01*
X222585Y541049D02*
X224535Y541049D01*
X224535Y541666D02*
X222585Y541666D01*
X227585Y541842D02*
X227585Y528092D01*
X227585Y541842D02*
X229535Y541842D01*
X229535Y528092D01*
X227585Y528092D01*
X227585Y528709D02*
X229535Y528709D01*
X229535Y529326D02*
X227585Y529326D01*
X227585Y529943D02*
X229535Y529943D01*
X229535Y530560D02*
X227585Y530560D01*
X227585Y531177D02*
X229535Y531177D01*
X229535Y531794D02*
X227585Y531794D01*
X227585Y532411D02*
X229535Y532411D01*
X229535Y533028D02*
X227585Y533028D01*
X227585Y533645D02*
X229535Y533645D01*
X229535Y534262D02*
X227585Y534262D01*
X227585Y534879D02*
X229535Y534879D01*
X229535Y535496D02*
X227585Y535496D01*
X227585Y536113D02*
X229535Y536113D01*
X229535Y536730D02*
X227585Y536730D01*
X227585Y537347D02*
X229535Y537347D01*
X229535Y537964D02*
X227585Y537964D01*
X227585Y538581D02*
X229535Y538581D01*
X229535Y539198D02*
X227585Y539198D01*
X227585Y539815D02*
X229535Y539815D01*
X229535Y540432D02*
X227585Y540432D01*
X227585Y541049D02*
X229535Y541049D01*
X229535Y541666D02*
X227585Y541666D01*
X232585Y541842D02*
X232585Y528092D01*
X232585Y541842D02*
X234535Y541842D01*
X234535Y528092D01*
X232585Y528092D01*
X232585Y528709D02*
X234535Y528709D01*
X234535Y529326D02*
X232585Y529326D01*
X232585Y529943D02*
X234535Y529943D01*
X234535Y530560D02*
X232585Y530560D01*
X232585Y531177D02*
X234535Y531177D01*
X234535Y531794D02*
X232585Y531794D01*
X232585Y532411D02*
X234535Y532411D01*
X234535Y533028D02*
X232585Y533028D01*
X232585Y533645D02*
X234535Y533645D01*
X234535Y534262D02*
X232585Y534262D01*
X232585Y534879D02*
X234535Y534879D01*
X234535Y535496D02*
X232585Y535496D01*
X232585Y536113D02*
X234535Y536113D01*
X234535Y536730D02*
X232585Y536730D01*
X232585Y537347D02*
X234535Y537347D01*
X234535Y537964D02*
X232585Y537964D01*
X232585Y538581D02*
X234535Y538581D01*
X234535Y539198D02*
X232585Y539198D01*
X232585Y539815D02*
X234535Y539815D01*
X234535Y540432D02*
X232585Y540432D01*
X232585Y541049D02*
X234535Y541049D01*
X234535Y541666D02*
X232585Y541666D01*
X237585Y541842D02*
X237585Y528092D01*
X237585Y541842D02*
X239535Y541842D01*
X239535Y528092D01*
X237585Y528092D01*
X237585Y528709D02*
X239535Y528709D01*
X239535Y529326D02*
X237585Y529326D01*
X237585Y529943D02*
X239535Y529943D01*
X239535Y530560D02*
X237585Y530560D01*
X237585Y531177D02*
X239535Y531177D01*
X239535Y531794D02*
X237585Y531794D01*
X237585Y532411D02*
X239535Y532411D01*
X239535Y533028D02*
X237585Y533028D01*
X237585Y533645D02*
X239535Y533645D01*
X239535Y534262D02*
X237585Y534262D01*
X237585Y534879D02*
X239535Y534879D01*
X239535Y535496D02*
X237585Y535496D01*
X237585Y536113D02*
X239535Y536113D01*
X239535Y536730D02*
X237585Y536730D01*
X237585Y537347D02*
X239535Y537347D01*
X239535Y537964D02*
X237585Y537964D01*
X237585Y538581D02*
X239535Y538581D01*
X239535Y539198D02*
X237585Y539198D01*
X237585Y539815D02*
X239535Y539815D01*
X239535Y540432D02*
X237585Y540432D01*
X237585Y541049D02*
X239535Y541049D01*
X239535Y541666D02*
X237585Y541666D01*
X242585Y541842D02*
X242585Y528092D01*
X242585Y541842D02*
X244535Y541842D01*
X244535Y528092D01*
X242585Y528092D01*
X242585Y528709D02*
X244535Y528709D01*
X244535Y529326D02*
X242585Y529326D01*
X242585Y529943D02*
X244535Y529943D01*
X244535Y530560D02*
X242585Y530560D01*
X242585Y531177D02*
X244535Y531177D01*
X244535Y531794D02*
X242585Y531794D01*
X242585Y532411D02*
X244535Y532411D01*
X244535Y533028D02*
X242585Y533028D01*
X242585Y533645D02*
X244535Y533645D01*
X244535Y534262D02*
X242585Y534262D01*
X242585Y534879D02*
X244535Y534879D01*
X244535Y535496D02*
X242585Y535496D01*
X242585Y536113D02*
X244535Y536113D01*
X244535Y536730D02*
X242585Y536730D01*
X242585Y537347D02*
X244535Y537347D01*
X244535Y537964D02*
X242585Y537964D01*
X242585Y538581D02*
X244535Y538581D01*
X244535Y539198D02*
X242585Y539198D01*
X242585Y539815D02*
X244535Y539815D01*
X244535Y540432D02*
X242585Y540432D01*
X242585Y541049D02*
X244535Y541049D01*
X244535Y541666D02*
X242585Y541666D01*
X242585Y477942D02*
X242585Y464192D01*
X242585Y477942D02*
X244535Y477942D01*
X244535Y464192D01*
X242585Y464192D01*
X242585Y464809D02*
X244535Y464809D01*
X244535Y465426D02*
X242585Y465426D01*
X242585Y466043D02*
X244535Y466043D01*
X244535Y466660D02*
X242585Y466660D01*
X242585Y467277D02*
X244535Y467277D01*
X244535Y467894D02*
X242585Y467894D01*
X242585Y468511D02*
X244535Y468511D01*
X244535Y469128D02*
X242585Y469128D01*
X242585Y469745D02*
X244535Y469745D01*
X244535Y470362D02*
X242585Y470362D01*
X242585Y470979D02*
X244535Y470979D01*
X244535Y471596D02*
X242585Y471596D01*
X242585Y472213D02*
X244535Y472213D01*
X244535Y472830D02*
X242585Y472830D01*
X242585Y473447D02*
X244535Y473447D01*
X244535Y474064D02*
X242585Y474064D01*
X242585Y474681D02*
X244535Y474681D01*
X244535Y475298D02*
X242585Y475298D01*
X242585Y475915D02*
X244535Y475915D01*
X244535Y476532D02*
X242585Y476532D01*
X242585Y477149D02*
X244535Y477149D01*
X244535Y477766D02*
X242585Y477766D01*
X237585Y477942D02*
X237585Y464192D01*
X237585Y477942D02*
X239535Y477942D01*
X239535Y464192D01*
X237585Y464192D01*
X237585Y464809D02*
X239535Y464809D01*
X239535Y465426D02*
X237585Y465426D01*
X237585Y466043D02*
X239535Y466043D01*
X239535Y466660D02*
X237585Y466660D01*
X237585Y467277D02*
X239535Y467277D01*
X239535Y467894D02*
X237585Y467894D01*
X237585Y468511D02*
X239535Y468511D01*
X239535Y469128D02*
X237585Y469128D01*
X237585Y469745D02*
X239535Y469745D01*
X239535Y470362D02*
X237585Y470362D01*
X237585Y470979D02*
X239535Y470979D01*
X239535Y471596D02*
X237585Y471596D01*
X237585Y472213D02*
X239535Y472213D01*
X239535Y472830D02*
X237585Y472830D01*
X237585Y473447D02*
X239535Y473447D01*
X239535Y474064D02*
X237585Y474064D01*
X237585Y474681D02*
X239535Y474681D01*
X239535Y475298D02*
X237585Y475298D01*
X237585Y475915D02*
X239535Y475915D01*
X239535Y476532D02*
X237585Y476532D01*
X237585Y477149D02*
X239535Y477149D01*
X239535Y477766D02*
X237585Y477766D01*
X232585Y477942D02*
X232585Y464192D01*
X232585Y477942D02*
X234535Y477942D01*
X234535Y464192D01*
X232585Y464192D01*
X232585Y464809D02*
X234535Y464809D01*
X234535Y465426D02*
X232585Y465426D01*
X232585Y466043D02*
X234535Y466043D01*
X234535Y466660D02*
X232585Y466660D01*
X232585Y467277D02*
X234535Y467277D01*
X234535Y467894D02*
X232585Y467894D01*
X232585Y468511D02*
X234535Y468511D01*
X234535Y469128D02*
X232585Y469128D01*
X232585Y469745D02*
X234535Y469745D01*
X234535Y470362D02*
X232585Y470362D01*
X232585Y470979D02*
X234535Y470979D01*
X234535Y471596D02*
X232585Y471596D01*
X232585Y472213D02*
X234535Y472213D01*
X234535Y472830D02*
X232585Y472830D01*
X232585Y473447D02*
X234535Y473447D01*
X234535Y474064D02*
X232585Y474064D01*
X232585Y474681D02*
X234535Y474681D01*
X234535Y475298D02*
X232585Y475298D01*
X232585Y475915D02*
X234535Y475915D01*
X234535Y476532D02*
X232585Y476532D01*
X232585Y477149D02*
X234535Y477149D01*
X234535Y477766D02*
X232585Y477766D01*
X227585Y477942D02*
X227585Y464192D01*
X227585Y477942D02*
X229535Y477942D01*
X229535Y464192D01*
X227585Y464192D01*
X227585Y464809D02*
X229535Y464809D01*
X229535Y465426D02*
X227585Y465426D01*
X227585Y466043D02*
X229535Y466043D01*
X229535Y466660D02*
X227585Y466660D01*
X227585Y467277D02*
X229535Y467277D01*
X229535Y467894D02*
X227585Y467894D01*
X227585Y468511D02*
X229535Y468511D01*
X229535Y469128D02*
X227585Y469128D01*
X227585Y469745D02*
X229535Y469745D01*
X229535Y470362D02*
X227585Y470362D01*
X227585Y470979D02*
X229535Y470979D01*
X229535Y471596D02*
X227585Y471596D01*
X227585Y472213D02*
X229535Y472213D01*
X229535Y472830D02*
X227585Y472830D01*
X227585Y473447D02*
X229535Y473447D01*
X229535Y474064D02*
X227585Y474064D01*
X227585Y474681D02*
X229535Y474681D01*
X229535Y475298D02*
X227585Y475298D01*
X227585Y475915D02*
X229535Y475915D01*
X229535Y476532D02*
X227585Y476532D01*
X227585Y477149D02*
X229535Y477149D01*
X229535Y477766D02*
X227585Y477766D01*
X222585Y477942D02*
X222585Y464192D01*
X222585Y477942D02*
X224535Y477942D01*
X224535Y464192D01*
X222585Y464192D01*
X222585Y464809D02*
X224535Y464809D01*
X224535Y465426D02*
X222585Y465426D01*
X222585Y466043D02*
X224535Y466043D01*
X224535Y466660D02*
X222585Y466660D01*
X222585Y467277D02*
X224535Y467277D01*
X224535Y467894D02*
X222585Y467894D01*
X222585Y468511D02*
X224535Y468511D01*
X224535Y469128D02*
X222585Y469128D01*
X222585Y469745D02*
X224535Y469745D01*
X224535Y470362D02*
X222585Y470362D01*
X222585Y470979D02*
X224535Y470979D01*
X224535Y471596D02*
X222585Y471596D01*
X222585Y472213D02*
X224535Y472213D01*
X224535Y472830D02*
X222585Y472830D01*
X222585Y473447D02*
X224535Y473447D01*
X224535Y474064D02*
X222585Y474064D01*
X222585Y474681D02*
X224535Y474681D01*
X224535Y475298D02*
X222585Y475298D01*
X222585Y475915D02*
X224535Y475915D01*
X224535Y476532D02*
X222585Y476532D01*
X222585Y477149D02*
X224535Y477149D01*
X224535Y477766D02*
X222585Y477766D01*
X217585Y477942D02*
X217585Y464192D01*
X217585Y477942D02*
X219535Y477942D01*
X219535Y464192D01*
X217585Y464192D01*
X217585Y464809D02*
X219535Y464809D01*
X219535Y465426D02*
X217585Y465426D01*
X217585Y466043D02*
X219535Y466043D01*
X219535Y466660D02*
X217585Y466660D01*
X217585Y467277D02*
X219535Y467277D01*
X219535Y467894D02*
X217585Y467894D01*
X217585Y468511D02*
X219535Y468511D01*
X219535Y469128D02*
X217585Y469128D01*
X217585Y469745D02*
X219535Y469745D01*
X219535Y470362D02*
X217585Y470362D01*
X217585Y470979D02*
X219535Y470979D01*
X219535Y471596D02*
X217585Y471596D01*
X217585Y472213D02*
X219535Y472213D01*
X219535Y472830D02*
X217585Y472830D01*
X217585Y473447D02*
X219535Y473447D01*
X219535Y474064D02*
X217585Y474064D01*
X217585Y474681D02*
X219535Y474681D01*
X219535Y475298D02*
X217585Y475298D01*
X217585Y475915D02*
X219535Y475915D01*
X219535Y476532D02*
X217585Y476532D01*
X217585Y477149D02*
X219535Y477149D01*
X219535Y477766D02*
X217585Y477766D01*
X212585Y477942D02*
X212585Y464192D01*
X212585Y477942D02*
X214535Y477942D01*
X214535Y464192D01*
X212585Y464192D01*
X212585Y464809D02*
X214535Y464809D01*
X214535Y465426D02*
X212585Y465426D01*
X212585Y466043D02*
X214535Y466043D01*
X214535Y466660D02*
X212585Y466660D01*
X212585Y467277D02*
X214535Y467277D01*
X214535Y467894D02*
X212585Y467894D01*
X212585Y468511D02*
X214535Y468511D01*
X214535Y469128D02*
X212585Y469128D01*
X212585Y469745D02*
X214535Y469745D01*
X214535Y470362D02*
X212585Y470362D01*
X212585Y470979D02*
X214535Y470979D01*
X214535Y471596D02*
X212585Y471596D01*
X212585Y472213D02*
X214535Y472213D01*
X214535Y472830D02*
X212585Y472830D01*
X212585Y473447D02*
X214535Y473447D01*
X214535Y474064D02*
X212585Y474064D01*
X212585Y474681D02*
X214535Y474681D01*
X214535Y475298D02*
X212585Y475298D01*
X212585Y475915D02*
X214535Y475915D01*
X214535Y476532D02*
X212585Y476532D01*
X212585Y477149D02*
X214535Y477149D01*
X214535Y477766D02*
X212585Y477766D01*
X207585Y477942D02*
X207585Y464192D01*
X207585Y477942D02*
X209535Y477942D01*
X209535Y464192D01*
X207585Y464192D01*
X207585Y464809D02*
X209535Y464809D01*
X209535Y465426D02*
X207585Y465426D01*
X207585Y466043D02*
X209535Y466043D01*
X209535Y466660D02*
X207585Y466660D01*
X207585Y467277D02*
X209535Y467277D01*
X209535Y467894D02*
X207585Y467894D01*
X207585Y468511D02*
X209535Y468511D01*
X209535Y469128D02*
X207585Y469128D01*
X207585Y469745D02*
X209535Y469745D01*
X209535Y470362D02*
X207585Y470362D01*
X207585Y470979D02*
X209535Y470979D01*
X209535Y471596D02*
X207585Y471596D01*
X207585Y472213D02*
X209535Y472213D01*
X209535Y472830D02*
X207585Y472830D01*
X207585Y473447D02*
X209535Y473447D01*
X209535Y474064D02*
X207585Y474064D01*
X207585Y474681D02*
X209535Y474681D01*
X209535Y475298D02*
X207585Y475298D01*
X207585Y475915D02*
X209535Y475915D01*
X209535Y476532D02*
X207585Y476532D01*
X207585Y477149D02*
X209535Y477149D01*
X209535Y477766D02*
X207585Y477766D01*
X200985Y484542D02*
X187235Y484542D01*
X187235Y486492D01*
X200985Y486492D01*
X200985Y484542D01*
X200985Y485159D02*
X187235Y485159D01*
X187235Y485776D02*
X200985Y485776D01*
X200985Y486393D02*
X187235Y486393D01*
X187235Y489542D02*
X200985Y489542D01*
X187235Y489542D02*
X187235Y491492D01*
X200985Y491492D01*
X200985Y489542D01*
X200985Y490159D02*
X187235Y490159D01*
X187235Y490776D02*
X200985Y490776D01*
X200985Y491393D02*
X187235Y491393D01*
X187235Y494542D02*
X200985Y494542D01*
X187235Y494542D02*
X187235Y496492D01*
X200985Y496492D01*
X200985Y494542D01*
X200985Y495159D02*
X187235Y495159D01*
X187235Y495776D02*
X200985Y495776D01*
X200985Y496393D02*
X187235Y496393D01*
X187235Y499542D02*
X200985Y499542D01*
X187235Y499542D02*
X187235Y501492D01*
X200985Y501492D01*
X200985Y499542D01*
X200985Y500159D02*
X187235Y500159D01*
X187235Y500776D02*
X200985Y500776D01*
X200985Y501393D02*
X187235Y501393D01*
X187235Y504542D02*
X200985Y504542D01*
X187235Y504542D02*
X187235Y506492D01*
X200985Y506492D01*
X200985Y504542D01*
X200985Y505159D02*
X187235Y505159D01*
X187235Y505776D02*
X200985Y505776D01*
X200985Y506393D02*
X187235Y506393D01*
X187235Y509542D02*
X200985Y509542D01*
X187235Y509542D02*
X187235Y511492D01*
X200985Y511492D01*
X200985Y509542D01*
X200985Y510159D02*
X187235Y510159D01*
X187235Y510776D02*
X200985Y510776D01*
X200985Y511393D02*
X187235Y511393D01*
X187235Y514542D02*
X200985Y514542D01*
X187235Y514542D02*
X187235Y516492D01*
X200985Y516492D01*
X200985Y514542D01*
X200985Y515159D02*
X187235Y515159D01*
X187235Y515776D02*
X200985Y515776D01*
X200985Y516393D02*
X187235Y516393D01*
X187235Y519542D02*
X200985Y519542D01*
X187235Y519542D02*
X187235Y521492D01*
X200985Y521492D01*
X200985Y519542D01*
X200985Y520159D02*
X187235Y520159D01*
X187235Y520776D02*
X200985Y520776D01*
X200985Y521393D02*
X187235Y521393D01*
X251135Y519542D02*
X264885Y519542D01*
X251135Y519542D02*
X251135Y521492D01*
X264885Y521492D01*
X264885Y519542D01*
X264885Y520159D02*
X251135Y520159D01*
X251135Y520776D02*
X264885Y520776D01*
X264885Y521393D02*
X251135Y521393D01*
X251135Y514542D02*
X264885Y514542D01*
X251135Y514542D02*
X251135Y516492D01*
X264885Y516492D01*
X264885Y514542D01*
X264885Y515159D02*
X251135Y515159D01*
X251135Y515776D02*
X264885Y515776D01*
X264885Y516393D02*
X251135Y516393D01*
X251135Y509542D02*
X264885Y509542D01*
X251135Y509542D02*
X251135Y511492D01*
X264885Y511492D01*
X264885Y509542D01*
X264885Y510159D02*
X251135Y510159D01*
X251135Y510776D02*
X264885Y510776D01*
X264885Y511393D02*
X251135Y511393D01*
X251135Y504542D02*
X264885Y504542D01*
X251135Y504542D02*
X251135Y506492D01*
X264885Y506492D01*
X264885Y504542D01*
X264885Y505159D02*
X251135Y505159D01*
X251135Y505776D02*
X264885Y505776D01*
X264885Y506393D02*
X251135Y506393D01*
X251135Y499542D02*
X264885Y499542D01*
X251135Y499542D02*
X251135Y501492D01*
X264885Y501492D01*
X264885Y499542D01*
X264885Y500159D02*
X251135Y500159D01*
X251135Y500776D02*
X264885Y500776D01*
X264885Y501393D02*
X251135Y501393D01*
X251135Y494542D02*
X264885Y494542D01*
X251135Y494542D02*
X251135Y496492D01*
X264885Y496492D01*
X264885Y494542D01*
X264885Y495159D02*
X251135Y495159D01*
X251135Y495776D02*
X264885Y495776D01*
X264885Y496393D02*
X251135Y496393D01*
X251135Y489542D02*
X264885Y489542D01*
X251135Y489542D02*
X251135Y491492D01*
X264885Y491492D01*
X264885Y489542D01*
X264885Y490159D02*
X251135Y490159D01*
X251135Y490776D02*
X264885Y490776D01*
X264885Y491393D02*
X251135Y491393D01*
X251135Y484542D02*
X264885Y484542D01*
X251135Y484542D02*
X251135Y486492D01*
X264885Y486492D01*
X264885Y484542D01*
X264885Y485159D02*
X251135Y485159D01*
X251135Y485776D02*
X264885Y485776D01*
X264885Y486393D02*
X251135Y486393D01*
D16*
X299108Y537904D03*
X299108Y526904D03*
D12*
X354603Y515930D03*
X348103Y515930D03*
D13*
X197338Y441773D03*
X197338Y448273D03*
X197990Y455438D03*
X197990Y461938D03*
X181963Y470226D03*
X181963Y476726D03*
X179735Y497872D03*
X179735Y491372D03*
X179862Y505083D03*
X179862Y511583D03*
X173911Y524237D03*
X173911Y517737D03*
X181432Y536106D03*
X181432Y529606D03*
X180607Y549027D03*
X180607Y542527D03*
X375252Y523368D03*
X375252Y529868D03*
X290177Y559180D03*
X290177Y552680D03*
X310053Y554798D03*
X310053Y548298D03*
D12*
X310996Y531952D03*
X317496Y531952D03*
X242927Y456776D03*
X249427Y456776D03*
D16*
X325605Y531968D03*
X325605Y520968D03*
X315275Y489564D03*
X315275Y500564D03*
D17*
X268685Y540537D03*
X279685Y540537D03*
D18*
X88595Y454251D03*
X147595Y454251D03*
X88595Y466951D03*
X147595Y466951D03*
X88595Y479651D03*
X147595Y479651D03*
X88595Y492351D03*
X147595Y492351D03*
X88595Y505051D03*
X147595Y505051D03*
X88595Y517751D03*
X147595Y517751D03*
X88595Y530451D03*
X147595Y530451D03*
X88595Y543151D03*
X147595Y543151D03*
M02*
