G04 EAGLE Gerber RS-274X export*
G75*
%MOMM*%
%FSLAX34Y34*%
%LPD*%
%INSoldermask Top*%
%IPPOS*%
%AMOC8*
5,1,8,0,0,1.08239X$1,22.5*%
G01*
%ADD10C,2.203200*%
%ADD11C,0.293481*%
%ADD12R,1.553200X0.603200*%
%ADD13R,2.303200X1.303200*%
%ADD14R,0.350000X0.450000*%
%ADD15R,0.450000X0.350000*%
%ADD16C,0.268653*%
%ADD17R,1.883200X1.883200*%
%ADD18C,1.103200*%
%ADD19R,1.403200X1.603200*%
%ADD20R,0.558800X0.863600*%
%ADD21R,1.003200X1.003200*%
%ADD22R,0.700000X0.600000*%
%ADD23C,0.276759*%
%ADD24R,0.600000X0.700000*%
%ADD25R,0.803200X1.753200*%
%ADD26R,1.403200X2.003200*%
%ADD27R,2.603200X0.963200*%
%ADD28R,1.703200X0.903200*%
%ADD29C,0.803200*%
%ADD30R,0.803200X0.803200*%
%ADD31R,1.703200X1.703200*%
%ADD32P,1.869504X8X22.500000*%


D10*
X91669Y655853D03*
X389407Y652348D03*
X91516Y435483D03*
D11*
X266570Y496093D02*
X266570Y501091D01*
X277768Y501091D01*
X277768Y496093D01*
X266570Y496093D01*
X266570Y498881D02*
X277768Y498881D01*
X291670Y482091D02*
X291670Y477093D01*
X291670Y482091D02*
X302868Y482091D01*
X302868Y477093D01*
X291670Y477093D01*
X291670Y479881D02*
X302868Y479881D01*
X266570Y486593D02*
X266570Y491591D01*
X277768Y491591D01*
X277768Y486593D01*
X266570Y486593D01*
X266570Y489381D02*
X277768Y489381D01*
X266570Y482091D02*
X266570Y477093D01*
X266570Y482091D02*
X277768Y482091D01*
X277768Y477093D01*
X266570Y477093D01*
X266570Y479881D02*
X277768Y479881D01*
X291670Y496093D02*
X291670Y501091D01*
X302868Y501091D01*
X302868Y496093D01*
X291670Y496093D01*
X291670Y498881D02*
X302868Y498881D01*
D12*
X366017Y459750D03*
X366017Y466250D03*
X366017Y472750D03*
X366017Y479250D03*
X366017Y485750D03*
D13*
X392767Y456250D03*
X392767Y489250D03*
D14*
X314702Y505531D03*
X308202Y505531D03*
D15*
X259926Y491611D03*
X259926Y498111D03*
D16*
X336224Y494859D02*
X336224Y502805D01*
X338170Y502805D01*
X338170Y494859D01*
X336224Y494859D01*
X336224Y497412D02*
X338170Y497412D01*
X338170Y499965D02*
X336224Y499965D01*
X336224Y502518D02*
X338170Y502518D01*
X331224Y502805D02*
X331224Y494859D01*
X331224Y502805D02*
X333170Y502805D01*
X333170Y494859D01*
X331224Y494859D01*
X331224Y497412D02*
X333170Y497412D01*
X333170Y499965D02*
X331224Y499965D01*
X331224Y502518D02*
X333170Y502518D01*
X326224Y502805D02*
X326224Y494859D01*
X326224Y502805D02*
X328170Y502805D01*
X328170Y494859D01*
X326224Y494859D01*
X326224Y497412D02*
X328170Y497412D01*
X328170Y499965D02*
X326224Y499965D01*
X326224Y502518D02*
X328170Y502518D01*
X321224Y502805D02*
X321224Y494859D01*
X321224Y502805D02*
X323170Y502805D01*
X323170Y494859D01*
X321224Y494859D01*
X321224Y497412D02*
X323170Y497412D01*
X323170Y499965D02*
X321224Y499965D01*
X321224Y502518D02*
X323170Y502518D01*
X321224Y474105D02*
X321224Y466159D01*
X321224Y474105D02*
X323170Y474105D01*
X323170Y466159D01*
X321224Y466159D01*
X321224Y468712D02*
X323170Y468712D01*
X323170Y471265D02*
X321224Y471265D01*
X321224Y473818D02*
X323170Y473818D01*
X326224Y474105D02*
X326224Y466159D01*
X326224Y474105D02*
X328170Y474105D01*
X328170Y466159D01*
X326224Y466159D01*
X326224Y468712D02*
X328170Y468712D01*
X328170Y471265D02*
X326224Y471265D01*
X326224Y473818D02*
X328170Y473818D01*
X331224Y474105D02*
X331224Y466159D01*
X331224Y474105D02*
X333170Y474105D01*
X333170Y466159D01*
X331224Y466159D01*
X331224Y468712D02*
X333170Y468712D01*
X333170Y471265D02*
X331224Y471265D01*
X331224Y473818D02*
X333170Y473818D01*
X336224Y474105D02*
X336224Y466159D01*
X336224Y474105D02*
X338170Y474105D01*
X338170Y466159D01*
X336224Y466159D01*
X336224Y468712D02*
X338170Y468712D01*
X338170Y471265D02*
X336224Y471265D01*
X336224Y473818D02*
X338170Y473818D01*
X340074Y477955D02*
X348020Y477955D01*
X348020Y476009D01*
X340074Y476009D01*
X340074Y477955D01*
X340074Y482955D02*
X348020Y482955D01*
X348020Y481009D01*
X340074Y481009D01*
X340074Y482955D01*
X340074Y487955D02*
X348020Y487955D01*
X348020Y486009D01*
X340074Y486009D01*
X340074Y487955D01*
X340074Y492955D02*
X348020Y492955D01*
X348020Y491009D01*
X340074Y491009D01*
X340074Y492955D01*
X319320Y492955D02*
X311374Y492955D01*
X319320Y492955D02*
X319320Y491009D01*
X311374Y491009D01*
X311374Y492955D01*
X311374Y487955D02*
X319320Y487955D01*
X319320Y486009D01*
X311374Y486009D01*
X311374Y487955D01*
X311374Y482955D02*
X319320Y482955D01*
X319320Y481009D01*
X311374Y481009D01*
X311374Y482955D01*
X311374Y477955D02*
X319320Y477955D01*
X319320Y476009D01*
X311374Y476009D01*
X311374Y477955D01*
D17*
X329697Y484482D03*
D14*
X311517Y458953D03*
X318017Y458953D03*
X335939Y459293D03*
X342439Y459293D03*
X307344Y468940D03*
X300844Y468940D03*
D15*
X352781Y473251D03*
X352781Y479751D03*
D18*
X288958Y451665D03*
D19*
X229958Y429165D03*
X254958Y474165D03*
X279958Y429165D03*
D18*
X220958Y451665D03*
D20*
X305036Y447911D03*
X313672Y447911D03*
D14*
X323719Y458445D03*
X330219Y458445D03*
D15*
X319329Y451182D03*
X319329Y444682D03*
D21*
X360236Y662335D03*
X360236Y647335D03*
X350502Y652752D03*
X335502Y652752D03*
D14*
X330163Y644314D03*
X336663Y644314D03*
X320958Y654215D03*
X327458Y654215D03*
D21*
X350649Y662290D03*
X335649Y662290D03*
D14*
X320719Y663854D03*
X327219Y663854D03*
D15*
X327228Y451232D03*
X327228Y444732D03*
X305521Y461463D03*
X305521Y454963D03*
X348767Y460120D03*
X348767Y466620D03*
D14*
X312109Y440093D03*
X305609Y440093D03*
D22*
X214015Y499761D03*
X214015Y488761D03*
D23*
X340088Y441706D02*
X343552Y441706D01*
X343552Y439442D01*
X340088Y439442D01*
X340088Y441706D01*
X340188Y446706D02*
X343552Y446706D01*
X343552Y444442D01*
X340188Y444442D01*
X340188Y446706D01*
X340188Y451706D02*
X343552Y451706D01*
X343552Y449442D01*
X340188Y449442D01*
X340188Y451706D01*
X337652Y451706D02*
X334288Y451706D01*
X337652Y451706D02*
X337652Y449442D01*
X334288Y449442D01*
X334288Y451706D01*
X334288Y446706D02*
X337652Y446706D01*
X337652Y444442D01*
X334288Y444442D01*
X334288Y446706D01*
X334288Y441706D02*
X337652Y441706D01*
X337652Y439442D01*
X334288Y439442D01*
X334288Y441706D01*
D14*
X323351Y438239D03*
X329851Y438239D03*
D24*
X337796Y431152D03*
X348796Y431152D03*
D25*
X179054Y469962D03*
X189054Y469962D03*
D26*
X166054Y431212D03*
X202054Y431212D03*
D27*
X88983Y638762D03*
X147983Y638762D03*
X88983Y626062D03*
X147983Y626062D03*
X88983Y613362D03*
X147983Y613362D03*
X88983Y600662D03*
X147983Y600662D03*
X88983Y587962D03*
X147983Y587962D03*
X88983Y575262D03*
X147983Y575262D03*
X88983Y562562D03*
X147983Y562562D03*
X88983Y549862D03*
X147983Y549862D03*
X88983Y537162D03*
X147983Y537162D03*
X88983Y524462D03*
X147983Y524462D03*
X332600Y633275D03*
X391600Y633275D03*
X332600Y620575D03*
X391600Y620575D03*
X332600Y607875D03*
X391600Y607875D03*
X332600Y595175D03*
X391600Y595175D03*
X332600Y582475D03*
X391600Y582475D03*
X332600Y569775D03*
X391600Y569775D03*
X332600Y557075D03*
X391600Y557075D03*
X332600Y544375D03*
X391600Y544375D03*
X332600Y531675D03*
X391600Y531675D03*
X332600Y518975D03*
X391600Y518975D03*
D28*
X170434Y597168D03*
X170434Y586168D03*
X170434Y575168D03*
X170434Y564168D03*
X170434Y553168D03*
X170434Y542168D03*
X170434Y531168D03*
X170434Y520168D03*
X310434Y520168D03*
X310434Y531168D03*
X310434Y542168D03*
X310434Y553168D03*
X310434Y564168D03*
X310434Y575168D03*
X310434Y586168D03*
X310434Y597168D03*
D29*
X217934Y589168D03*
X232934Y589168D03*
X247934Y589168D03*
X262934Y589168D03*
X217934Y577168D03*
X232934Y577168D03*
X247934Y577168D03*
X262934Y577168D03*
X217934Y565168D03*
X232934Y565168D03*
X247934Y565168D03*
X262934Y565168D03*
X217934Y553168D03*
X232934Y553168D03*
X247934Y553168D03*
X262934Y553168D03*
X217934Y541168D03*
X232934Y541168D03*
X247934Y541168D03*
X262934Y541168D03*
X217934Y529168D03*
X232934Y529168D03*
X247934Y529168D03*
X262934Y529168D03*
X202934Y589168D03*
X277934Y589168D03*
X217934Y517168D03*
X232934Y517168D03*
X247934Y517168D03*
X262934Y517168D03*
X277934Y577168D03*
X277934Y565168D03*
X277934Y553168D03*
X277934Y541168D03*
X277934Y529168D03*
X277934Y517168D03*
X202934Y577168D03*
X202934Y565168D03*
X202934Y553168D03*
X202934Y541168D03*
X202934Y529168D03*
X202934Y517168D03*
X292934Y541168D03*
X292934Y529168D03*
D30*
X292934Y517168D03*
D31*
X206684Y609168D03*
X229184Y609168D03*
X251684Y609168D03*
X274184Y609168D03*
D32*
X124887Y430561D03*
M02*
