G04 EAGLE Gerber RS-274X export*
G75*
%MOMM*%
%FSLAX34Y34*%
%LPD*%
%INSolderpaste Top*%
%IPPOS*%
%AMOC8*
5,1,8,0,0,1.08239X$1,22.5*%
G01*
%ADD10C,0.088500*%
%ADD11R,1.350000X0.400000*%
%ADD12R,2.100000X1.100000*%
%ADD13R,0.250000X0.350000*%
%ADD14R,0.350000X0.250000*%
%ADD15R,1.060000X1.060000*%
%ADD16C,0.065000*%
%ADD17R,1.200000X1.400000*%
%ADD18R,0.355600X0.660400*%
%ADD19R,0.800000X0.800000*%
%ADD20R,0.600000X0.500000*%
%ADD21C,0.075000*%
%ADD22R,0.500000X0.600000*%
%ADD23R,0.600000X1.550000*%
%ADD24R,1.200000X1.800000*%
%ADD25R,2.400000X0.760000*%
%ADD26R,1.500000X0.700000*%
%ADD27C,0.600000*%
%ADD28R,0.600000X0.600000*%
%ADD29R,1.500000X1.500000*%


D10*
X266561Y496084D02*
X266561Y501100D01*
X277777Y501100D01*
X277777Y496084D01*
X266561Y496084D01*
X266561Y496925D02*
X277777Y496925D01*
X277777Y497766D02*
X266561Y497766D01*
X266561Y498607D02*
X277777Y498607D01*
X277777Y499448D02*
X266561Y499448D01*
X266561Y500289D02*
X277777Y500289D01*
X291661Y482100D02*
X291661Y477084D01*
X291661Y482100D02*
X302877Y482100D01*
X302877Y477084D01*
X291661Y477084D01*
X291661Y477925D02*
X302877Y477925D01*
X302877Y478766D02*
X291661Y478766D01*
X291661Y479607D02*
X302877Y479607D01*
X302877Y480448D02*
X291661Y480448D01*
X291661Y481289D02*
X302877Y481289D01*
X266561Y486584D02*
X266561Y491600D01*
X277777Y491600D01*
X277777Y486584D01*
X266561Y486584D01*
X266561Y487425D02*
X277777Y487425D01*
X277777Y488266D02*
X266561Y488266D01*
X266561Y489107D02*
X277777Y489107D01*
X277777Y489948D02*
X266561Y489948D01*
X266561Y490789D02*
X277777Y490789D01*
X266561Y482100D02*
X266561Y477084D01*
X266561Y482100D02*
X277777Y482100D01*
X277777Y477084D01*
X266561Y477084D01*
X266561Y477925D02*
X277777Y477925D01*
X277777Y478766D02*
X266561Y478766D01*
X266561Y479607D02*
X277777Y479607D01*
X277777Y480448D02*
X266561Y480448D01*
X266561Y481289D02*
X277777Y481289D01*
X291661Y496084D02*
X291661Y501100D01*
X302877Y501100D01*
X302877Y496084D01*
X291661Y496084D01*
X291661Y496925D02*
X302877Y496925D01*
X302877Y497766D02*
X291661Y497766D01*
X291661Y498607D02*
X302877Y498607D01*
X302877Y499448D02*
X291661Y499448D01*
X291661Y500289D02*
X302877Y500289D01*
D11*
X366017Y459750D03*
X366017Y466250D03*
X366017Y472750D03*
X366017Y479250D03*
X366017Y485750D03*
D12*
X392767Y456250D03*
X392767Y489250D03*
D13*
X314702Y505531D03*
X308202Y505531D03*
D14*
X259926Y491611D03*
X259926Y498111D03*
D15*
X329697Y484482D03*
D16*
X336222Y494857D02*
X336222Y502807D01*
X338172Y502807D01*
X338172Y494857D01*
X336222Y494857D01*
X336222Y495474D02*
X338172Y495474D01*
X338172Y496091D02*
X336222Y496091D01*
X336222Y496708D02*
X338172Y496708D01*
X338172Y497325D02*
X336222Y497325D01*
X336222Y497942D02*
X338172Y497942D01*
X338172Y498559D02*
X336222Y498559D01*
X336222Y499176D02*
X338172Y499176D01*
X338172Y499793D02*
X336222Y499793D01*
X336222Y500410D02*
X338172Y500410D01*
X338172Y501027D02*
X336222Y501027D01*
X336222Y501644D02*
X338172Y501644D01*
X338172Y502261D02*
X336222Y502261D01*
X331222Y502807D02*
X331222Y494857D01*
X331222Y502807D02*
X333172Y502807D01*
X333172Y494857D01*
X331222Y494857D01*
X331222Y495474D02*
X333172Y495474D01*
X333172Y496091D02*
X331222Y496091D01*
X331222Y496708D02*
X333172Y496708D01*
X333172Y497325D02*
X331222Y497325D01*
X331222Y497942D02*
X333172Y497942D01*
X333172Y498559D02*
X331222Y498559D01*
X331222Y499176D02*
X333172Y499176D01*
X333172Y499793D02*
X331222Y499793D01*
X331222Y500410D02*
X333172Y500410D01*
X333172Y501027D02*
X331222Y501027D01*
X331222Y501644D02*
X333172Y501644D01*
X333172Y502261D02*
X331222Y502261D01*
X326222Y502807D02*
X326222Y494857D01*
X326222Y502807D02*
X328172Y502807D01*
X328172Y494857D01*
X326222Y494857D01*
X326222Y495474D02*
X328172Y495474D01*
X328172Y496091D02*
X326222Y496091D01*
X326222Y496708D02*
X328172Y496708D01*
X328172Y497325D02*
X326222Y497325D01*
X326222Y497942D02*
X328172Y497942D01*
X328172Y498559D02*
X326222Y498559D01*
X326222Y499176D02*
X328172Y499176D01*
X328172Y499793D02*
X326222Y499793D01*
X326222Y500410D02*
X328172Y500410D01*
X328172Y501027D02*
X326222Y501027D01*
X326222Y501644D02*
X328172Y501644D01*
X328172Y502261D02*
X326222Y502261D01*
X321222Y502807D02*
X321222Y494857D01*
X321222Y502807D02*
X323172Y502807D01*
X323172Y494857D01*
X321222Y494857D01*
X321222Y495474D02*
X323172Y495474D01*
X323172Y496091D02*
X321222Y496091D01*
X321222Y496708D02*
X323172Y496708D01*
X323172Y497325D02*
X321222Y497325D01*
X321222Y497942D02*
X323172Y497942D01*
X323172Y498559D02*
X321222Y498559D01*
X321222Y499176D02*
X323172Y499176D01*
X323172Y499793D02*
X321222Y499793D01*
X321222Y500410D02*
X323172Y500410D01*
X323172Y501027D02*
X321222Y501027D01*
X321222Y501644D02*
X323172Y501644D01*
X323172Y502261D02*
X321222Y502261D01*
X321222Y474107D02*
X321222Y466157D01*
X321222Y474107D02*
X323172Y474107D01*
X323172Y466157D01*
X321222Y466157D01*
X321222Y466774D02*
X323172Y466774D01*
X323172Y467391D02*
X321222Y467391D01*
X321222Y468008D02*
X323172Y468008D01*
X323172Y468625D02*
X321222Y468625D01*
X321222Y469242D02*
X323172Y469242D01*
X323172Y469859D02*
X321222Y469859D01*
X321222Y470476D02*
X323172Y470476D01*
X323172Y471093D02*
X321222Y471093D01*
X321222Y471710D02*
X323172Y471710D01*
X323172Y472327D02*
X321222Y472327D01*
X321222Y472944D02*
X323172Y472944D01*
X323172Y473561D02*
X321222Y473561D01*
X326222Y474107D02*
X326222Y466157D01*
X326222Y474107D02*
X328172Y474107D01*
X328172Y466157D01*
X326222Y466157D01*
X326222Y466774D02*
X328172Y466774D01*
X328172Y467391D02*
X326222Y467391D01*
X326222Y468008D02*
X328172Y468008D01*
X328172Y468625D02*
X326222Y468625D01*
X326222Y469242D02*
X328172Y469242D01*
X328172Y469859D02*
X326222Y469859D01*
X326222Y470476D02*
X328172Y470476D01*
X328172Y471093D02*
X326222Y471093D01*
X326222Y471710D02*
X328172Y471710D01*
X328172Y472327D02*
X326222Y472327D01*
X326222Y472944D02*
X328172Y472944D01*
X328172Y473561D02*
X326222Y473561D01*
X331222Y474107D02*
X331222Y466157D01*
X331222Y474107D02*
X333172Y474107D01*
X333172Y466157D01*
X331222Y466157D01*
X331222Y466774D02*
X333172Y466774D01*
X333172Y467391D02*
X331222Y467391D01*
X331222Y468008D02*
X333172Y468008D01*
X333172Y468625D02*
X331222Y468625D01*
X331222Y469242D02*
X333172Y469242D01*
X333172Y469859D02*
X331222Y469859D01*
X331222Y470476D02*
X333172Y470476D01*
X333172Y471093D02*
X331222Y471093D01*
X331222Y471710D02*
X333172Y471710D01*
X333172Y472327D02*
X331222Y472327D01*
X331222Y472944D02*
X333172Y472944D01*
X333172Y473561D02*
X331222Y473561D01*
X336222Y474107D02*
X336222Y466157D01*
X336222Y474107D02*
X338172Y474107D01*
X338172Y466157D01*
X336222Y466157D01*
X336222Y466774D02*
X338172Y466774D01*
X338172Y467391D02*
X336222Y467391D01*
X336222Y468008D02*
X338172Y468008D01*
X338172Y468625D02*
X336222Y468625D01*
X336222Y469242D02*
X338172Y469242D01*
X338172Y469859D02*
X336222Y469859D01*
X336222Y470476D02*
X338172Y470476D01*
X338172Y471093D02*
X336222Y471093D01*
X336222Y471710D02*
X338172Y471710D01*
X338172Y472327D02*
X336222Y472327D01*
X336222Y472944D02*
X338172Y472944D01*
X338172Y473561D02*
X336222Y473561D01*
X340072Y477957D02*
X348022Y477957D01*
X348022Y476007D01*
X340072Y476007D01*
X340072Y477957D01*
X340072Y476624D02*
X348022Y476624D01*
X348022Y477241D02*
X340072Y477241D01*
X340072Y477858D02*
X348022Y477858D01*
X348022Y482957D02*
X340072Y482957D01*
X348022Y482957D02*
X348022Y481007D01*
X340072Y481007D01*
X340072Y482957D01*
X340072Y481624D02*
X348022Y481624D01*
X348022Y482241D02*
X340072Y482241D01*
X340072Y482858D02*
X348022Y482858D01*
X348022Y487957D02*
X340072Y487957D01*
X348022Y487957D02*
X348022Y486007D01*
X340072Y486007D01*
X340072Y487957D01*
X340072Y486624D02*
X348022Y486624D01*
X348022Y487241D02*
X340072Y487241D01*
X340072Y487858D02*
X348022Y487858D01*
X348022Y492957D02*
X340072Y492957D01*
X348022Y492957D02*
X348022Y491007D01*
X340072Y491007D01*
X340072Y492957D01*
X340072Y491624D02*
X348022Y491624D01*
X348022Y492241D02*
X340072Y492241D01*
X340072Y492858D02*
X348022Y492858D01*
X319322Y492957D02*
X311372Y492957D01*
X319322Y492957D02*
X319322Y491007D01*
X311372Y491007D01*
X311372Y492957D01*
X311372Y491624D02*
X319322Y491624D01*
X319322Y492241D02*
X311372Y492241D01*
X311372Y492858D02*
X319322Y492858D01*
X319322Y487957D02*
X311372Y487957D01*
X319322Y487957D02*
X319322Y486007D01*
X311372Y486007D01*
X311372Y487957D01*
X311372Y486624D02*
X319322Y486624D01*
X319322Y487241D02*
X311372Y487241D01*
X311372Y487858D02*
X319322Y487858D01*
X319322Y482957D02*
X311372Y482957D01*
X319322Y482957D02*
X319322Y481007D01*
X311372Y481007D01*
X311372Y482957D01*
X311372Y481624D02*
X319322Y481624D01*
X319322Y482241D02*
X311372Y482241D01*
X311372Y482858D02*
X319322Y482858D01*
X319322Y477957D02*
X311372Y477957D01*
X319322Y477957D02*
X319322Y476007D01*
X311372Y476007D01*
X311372Y477957D01*
X311372Y476624D02*
X319322Y476624D01*
X319322Y477241D02*
X311372Y477241D01*
X311372Y477858D02*
X319322Y477858D01*
D13*
X311517Y458953D03*
X318017Y458953D03*
X335939Y459293D03*
X342439Y459293D03*
X307344Y468940D03*
X300844Y468940D03*
D14*
X352781Y473251D03*
X352781Y479751D03*
D17*
X229958Y429165D03*
X254958Y474165D03*
X279958Y429165D03*
D18*
X305036Y447911D03*
X313672Y447911D03*
D13*
X323719Y458445D03*
X330219Y458445D03*
D14*
X319329Y451182D03*
X319329Y444682D03*
D19*
X360236Y662335D03*
X360236Y647335D03*
X350502Y652752D03*
X335502Y652752D03*
D13*
X330163Y644314D03*
X336663Y644314D03*
X320958Y654215D03*
X327458Y654215D03*
D19*
X350649Y662290D03*
X335649Y662290D03*
D13*
X320719Y663854D03*
X327219Y663854D03*
D14*
X327228Y451232D03*
X327228Y444732D03*
X305521Y461463D03*
X305521Y454963D03*
X348767Y460120D03*
X348767Y466620D03*
D13*
X312109Y440093D03*
X305609Y440093D03*
D20*
X214015Y499761D03*
X214015Y488761D03*
D21*
X340095Y441699D02*
X343545Y441699D01*
X343545Y439449D01*
X340095Y439449D01*
X340095Y441699D01*
X340095Y440161D02*
X343545Y440161D01*
X343545Y440873D02*
X340095Y440873D01*
X340095Y441585D02*
X343545Y441585D01*
X343545Y446699D02*
X340195Y446699D01*
X343545Y446699D02*
X343545Y444449D01*
X340195Y444449D01*
X340195Y446699D01*
X340195Y445161D02*
X343545Y445161D01*
X343545Y445873D02*
X340195Y445873D01*
X340195Y446585D02*
X343545Y446585D01*
X343545Y451699D02*
X340195Y451699D01*
X343545Y451699D02*
X343545Y449449D01*
X340195Y449449D01*
X340195Y451699D01*
X340195Y450161D02*
X343545Y450161D01*
X343545Y450873D02*
X340195Y450873D01*
X340195Y451585D02*
X343545Y451585D01*
X337645Y451699D02*
X334295Y451699D01*
X337645Y451699D02*
X337645Y449449D01*
X334295Y449449D01*
X334295Y451699D01*
X334295Y450161D02*
X337645Y450161D01*
X337645Y450873D02*
X334295Y450873D01*
X334295Y451585D02*
X337645Y451585D01*
X337645Y446699D02*
X334295Y446699D01*
X337645Y446699D02*
X337645Y444449D01*
X334295Y444449D01*
X334295Y446699D01*
X334295Y445161D02*
X337645Y445161D01*
X337645Y445873D02*
X334295Y445873D01*
X334295Y446585D02*
X337645Y446585D01*
X337645Y441699D02*
X334295Y441699D01*
X337645Y441699D02*
X337645Y439449D01*
X334295Y439449D01*
X334295Y441699D01*
X334295Y440161D02*
X337645Y440161D01*
X337645Y440873D02*
X334295Y440873D01*
X334295Y441585D02*
X337645Y441585D01*
D13*
X323351Y438239D03*
X329851Y438239D03*
D22*
X337796Y431152D03*
X348796Y431152D03*
D23*
X179054Y469962D03*
X189054Y469962D03*
D24*
X166054Y431212D03*
X202054Y431212D03*
D25*
X88983Y638762D03*
X147983Y638762D03*
X88983Y626062D03*
X147983Y626062D03*
X88983Y613362D03*
X147983Y613362D03*
X88983Y600662D03*
X147983Y600662D03*
X88983Y587962D03*
X147983Y587962D03*
X88983Y575262D03*
X147983Y575262D03*
X88983Y562562D03*
X147983Y562562D03*
X88983Y549862D03*
X147983Y549862D03*
X88983Y537162D03*
X147983Y537162D03*
X88983Y524462D03*
X147983Y524462D03*
X332600Y633275D03*
X391600Y633275D03*
X332600Y620575D03*
X391600Y620575D03*
X332600Y607875D03*
X391600Y607875D03*
X332600Y595175D03*
X391600Y595175D03*
X332600Y582475D03*
X391600Y582475D03*
X332600Y569775D03*
X391600Y569775D03*
X332600Y557075D03*
X391600Y557075D03*
X332600Y544375D03*
X391600Y544375D03*
X332600Y531675D03*
X391600Y531675D03*
X332600Y518975D03*
X391600Y518975D03*
D26*
X170434Y597168D03*
X170434Y586168D03*
X170434Y575168D03*
X170434Y564168D03*
X170434Y553168D03*
X170434Y542168D03*
X170434Y531168D03*
X170434Y520168D03*
X310434Y520168D03*
X310434Y531168D03*
X310434Y542168D03*
X310434Y553168D03*
X310434Y564168D03*
X310434Y575168D03*
X310434Y586168D03*
X310434Y597168D03*
D27*
X217934Y589168D03*
X232934Y589168D03*
X247934Y589168D03*
X262934Y589168D03*
X217934Y577168D03*
X232934Y577168D03*
X247934Y577168D03*
X262934Y577168D03*
X217934Y565168D03*
X232934Y565168D03*
X247934Y565168D03*
X262934Y565168D03*
X217934Y553168D03*
X232934Y553168D03*
X247934Y553168D03*
X262934Y553168D03*
X217934Y541168D03*
X232934Y541168D03*
X247934Y541168D03*
X262934Y541168D03*
X217934Y529168D03*
X232934Y529168D03*
X247934Y529168D03*
X262934Y529168D03*
X202934Y589168D03*
X277934Y589168D03*
X217934Y517168D03*
X232934Y517168D03*
X247934Y517168D03*
X262934Y517168D03*
X277934Y577168D03*
X277934Y565168D03*
X277934Y553168D03*
X277934Y541168D03*
X277934Y529168D03*
X277934Y517168D03*
X202934Y577168D03*
X202934Y565168D03*
X202934Y553168D03*
X202934Y541168D03*
X202934Y529168D03*
X202934Y517168D03*
X292934Y541168D03*
X292934Y529168D03*
D28*
X292934Y517168D03*
D29*
X206684Y609168D03*
X229184Y609168D03*
X251684Y609168D03*
X274184Y609168D03*
M02*
