G04 EAGLE Gerber RS-274X export*
G75*
%MOMM*%
%FSLAX34Y34*%
%LPD*%
%INSoldermask Bottom*%
%IPPOS*%
%AMOC8*
5,1,8,0,0,1.08239X$1,22.5*%
G01*
%ADD10C,2.203200*%
%ADD11R,1.603200X0.903200*%
%ADD12R,1.403200X2.003200*%
%ADD13R,0.350000X0.450000*%
%ADD14R,0.450000X0.350000*%
%ADD15C,0.293481*%
%ADD16C,0.268653*%
%ADD17R,0.700000X0.600000*%
%ADD18C,1.103200*%
%ADD19R,1.603200X1.603200*%
%ADD20R,0.600000X0.700000*%
%ADD21R,2.603200X0.963200*%
%ADD22P,1.869504X8X22.500000*%


D10*
X91669Y655853D03*
X389407Y652348D03*
X91516Y435483D03*
D11*
X146888Y568504D03*
X146888Y585504D03*
D12*
X299929Y511731D03*
X275929Y511731D03*
X275929Y471731D03*
X299929Y471731D03*
D13*
X124713Y568340D03*
X131213Y568340D03*
X124586Y584647D03*
X131086Y584647D03*
X274499Y455653D03*
X267999Y455653D03*
D14*
X280919Y532347D03*
X280919Y525847D03*
D15*
X260291Y568328D02*
X260291Y573326D01*
X271489Y573326D01*
X271489Y568328D01*
X260291Y568328D01*
X260291Y571116D02*
X271489Y571116D01*
X235191Y554326D02*
X235191Y549328D01*
X235191Y554326D02*
X246389Y554326D01*
X246389Y549328D01*
X235191Y549328D01*
X235191Y552116D02*
X246389Y552116D01*
X260291Y558828D02*
X260291Y563826D01*
X271489Y563826D01*
X271489Y558828D01*
X260291Y558828D01*
X260291Y561616D02*
X271489Y561616D01*
X260291Y554326D02*
X260291Y549328D01*
X260291Y554326D02*
X271489Y554326D01*
X271489Y549328D01*
X260291Y549328D01*
X260291Y552116D02*
X271489Y552116D01*
X235191Y568328D02*
X235191Y573326D01*
X246389Y573326D01*
X246389Y568328D01*
X235191Y568328D01*
X235191Y571116D02*
X246389Y571116D01*
D13*
X221586Y550357D03*
X228086Y550357D03*
D14*
X267211Y448256D03*
X267211Y441756D03*
D13*
X277240Y553568D03*
X283740Y553568D03*
D14*
X226535Y572017D03*
X226535Y578517D03*
D16*
X207587Y541840D02*
X207587Y528094D01*
X207587Y541840D02*
X209533Y541840D01*
X209533Y528094D01*
X207587Y528094D01*
X207587Y530647D02*
X209533Y530647D01*
X209533Y533200D02*
X207587Y533200D01*
X207587Y535753D02*
X209533Y535753D01*
X209533Y538306D02*
X207587Y538306D01*
X207587Y540859D02*
X209533Y540859D01*
X212587Y541840D02*
X212587Y528094D01*
X212587Y541840D02*
X214533Y541840D01*
X214533Y528094D01*
X212587Y528094D01*
X212587Y530647D02*
X214533Y530647D01*
X214533Y533200D02*
X212587Y533200D01*
X212587Y535753D02*
X214533Y535753D01*
X214533Y538306D02*
X212587Y538306D01*
X212587Y540859D02*
X214533Y540859D01*
X217587Y541840D02*
X217587Y528094D01*
X217587Y541840D02*
X219533Y541840D01*
X219533Y528094D01*
X217587Y528094D01*
X217587Y530647D02*
X219533Y530647D01*
X219533Y533200D02*
X217587Y533200D01*
X217587Y535753D02*
X219533Y535753D01*
X219533Y538306D02*
X217587Y538306D01*
X217587Y540859D02*
X219533Y540859D01*
X222587Y541840D02*
X222587Y528094D01*
X222587Y541840D02*
X224533Y541840D01*
X224533Y528094D01*
X222587Y528094D01*
X222587Y530647D02*
X224533Y530647D01*
X224533Y533200D02*
X222587Y533200D01*
X222587Y535753D02*
X224533Y535753D01*
X224533Y538306D02*
X222587Y538306D01*
X222587Y540859D02*
X224533Y540859D01*
X227587Y541840D02*
X227587Y528094D01*
X227587Y541840D02*
X229533Y541840D01*
X229533Y528094D01*
X227587Y528094D01*
X227587Y530647D02*
X229533Y530647D01*
X229533Y533200D02*
X227587Y533200D01*
X227587Y535753D02*
X229533Y535753D01*
X229533Y538306D02*
X227587Y538306D01*
X227587Y540859D02*
X229533Y540859D01*
X232587Y541840D02*
X232587Y528094D01*
X232587Y541840D02*
X234533Y541840D01*
X234533Y528094D01*
X232587Y528094D01*
X232587Y530647D02*
X234533Y530647D01*
X234533Y533200D02*
X232587Y533200D01*
X232587Y535753D02*
X234533Y535753D01*
X234533Y538306D02*
X232587Y538306D01*
X232587Y540859D02*
X234533Y540859D01*
X237587Y541840D02*
X237587Y528094D01*
X237587Y541840D02*
X239533Y541840D01*
X239533Y528094D01*
X237587Y528094D01*
X237587Y530647D02*
X239533Y530647D01*
X239533Y533200D02*
X237587Y533200D01*
X237587Y535753D02*
X239533Y535753D01*
X239533Y538306D02*
X237587Y538306D01*
X237587Y540859D02*
X239533Y540859D01*
X242587Y541840D02*
X242587Y528094D01*
X242587Y541840D02*
X244533Y541840D01*
X244533Y528094D01*
X242587Y528094D01*
X242587Y530647D02*
X244533Y530647D01*
X244533Y533200D02*
X242587Y533200D01*
X242587Y535753D02*
X244533Y535753D01*
X244533Y538306D02*
X242587Y538306D01*
X242587Y540859D02*
X244533Y540859D01*
X242587Y477940D02*
X242587Y464194D01*
X242587Y477940D02*
X244533Y477940D01*
X244533Y464194D01*
X242587Y464194D01*
X242587Y466747D02*
X244533Y466747D01*
X244533Y469300D02*
X242587Y469300D01*
X242587Y471853D02*
X244533Y471853D01*
X244533Y474406D02*
X242587Y474406D01*
X242587Y476959D02*
X244533Y476959D01*
X237587Y477940D02*
X237587Y464194D01*
X237587Y477940D02*
X239533Y477940D01*
X239533Y464194D01*
X237587Y464194D01*
X237587Y466747D02*
X239533Y466747D01*
X239533Y469300D02*
X237587Y469300D01*
X237587Y471853D02*
X239533Y471853D01*
X239533Y474406D02*
X237587Y474406D01*
X237587Y476959D02*
X239533Y476959D01*
X232587Y477940D02*
X232587Y464194D01*
X232587Y477940D02*
X234533Y477940D01*
X234533Y464194D01*
X232587Y464194D01*
X232587Y466747D02*
X234533Y466747D01*
X234533Y469300D02*
X232587Y469300D01*
X232587Y471853D02*
X234533Y471853D01*
X234533Y474406D02*
X232587Y474406D01*
X232587Y476959D02*
X234533Y476959D01*
X227587Y477940D02*
X227587Y464194D01*
X227587Y477940D02*
X229533Y477940D01*
X229533Y464194D01*
X227587Y464194D01*
X227587Y466747D02*
X229533Y466747D01*
X229533Y469300D02*
X227587Y469300D01*
X227587Y471853D02*
X229533Y471853D01*
X229533Y474406D02*
X227587Y474406D01*
X227587Y476959D02*
X229533Y476959D01*
X222587Y477940D02*
X222587Y464194D01*
X222587Y477940D02*
X224533Y477940D01*
X224533Y464194D01*
X222587Y464194D01*
X222587Y466747D02*
X224533Y466747D01*
X224533Y469300D02*
X222587Y469300D01*
X222587Y471853D02*
X224533Y471853D01*
X224533Y474406D02*
X222587Y474406D01*
X222587Y476959D02*
X224533Y476959D01*
X217587Y477940D02*
X217587Y464194D01*
X217587Y477940D02*
X219533Y477940D01*
X219533Y464194D01*
X217587Y464194D01*
X217587Y466747D02*
X219533Y466747D01*
X219533Y469300D02*
X217587Y469300D01*
X217587Y471853D02*
X219533Y471853D01*
X219533Y474406D02*
X217587Y474406D01*
X217587Y476959D02*
X219533Y476959D01*
X212587Y477940D02*
X212587Y464194D01*
X212587Y477940D02*
X214533Y477940D01*
X214533Y464194D01*
X212587Y464194D01*
X212587Y466747D02*
X214533Y466747D01*
X214533Y469300D02*
X212587Y469300D01*
X212587Y471853D02*
X214533Y471853D01*
X214533Y474406D02*
X212587Y474406D01*
X212587Y476959D02*
X214533Y476959D01*
X207587Y477940D02*
X207587Y464194D01*
X207587Y477940D02*
X209533Y477940D01*
X209533Y464194D01*
X207587Y464194D01*
X207587Y466747D02*
X209533Y466747D01*
X209533Y469300D02*
X207587Y469300D01*
X207587Y471853D02*
X209533Y471853D01*
X209533Y474406D02*
X207587Y474406D01*
X207587Y476959D02*
X209533Y476959D01*
X200983Y484544D02*
X187237Y484544D01*
X187237Y486490D01*
X200983Y486490D01*
X200983Y484544D01*
X200983Y489544D02*
X187237Y489544D01*
X187237Y491490D01*
X200983Y491490D01*
X200983Y489544D01*
X200983Y494544D02*
X187237Y494544D01*
X187237Y496490D01*
X200983Y496490D01*
X200983Y494544D01*
X200983Y499544D02*
X187237Y499544D01*
X187237Y501490D01*
X200983Y501490D01*
X200983Y499544D01*
X200983Y504544D02*
X187237Y504544D01*
X187237Y506490D01*
X200983Y506490D01*
X200983Y504544D01*
X200983Y509544D02*
X187237Y509544D01*
X187237Y511490D01*
X200983Y511490D01*
X200983Y509544D01*
X200983Y514544D02*
X187237Y514544D01*
X187237Y516490D01*
X200983Y516490D01*
X200983Y514544D01*
X200983Y519544D02*
X187237Y519544D01*
X187237Y521490D01*
X200983Y521490D01*
X200983Y519544D01*
X251137Y519544D02*
X264883Y519544D01*
X251137Y519544D02*
X251137Y521490D01*
X264883Y521490D01*
X264883Y519544D01*
X264883Y514544D02*
X251137Y514544D01*
X251137Y516490D01*
X264883Y516490D01*
X264883Y514544D01*
X264883Y509544D02*
X251137Y509544D01*
X251137Y511490D01*
X264883Y511490D01*
X264883Y509544D01*
X264883Y504544D02*
X251137Y504544D01*
X251137Y506490D01*
X264883Y506490D01*
X264883Y504544D01*
X264883Y499544D02*
X251137Y499544D01*
X251137Y501490D01*
X264883Y501490D01*
X264883Y499544D01*
X264883Y494544D02*
X251137Y494544D01*
X251137Y496490D01*
X264883Y496490D01*
X264883Y494544D01*
X264883Y489544D02*
X251137Y489544D01*
X251137Y491490D01*
X264883Y491490D01*
X264883Y489544D01*
X264883Y484544D02*
X251137Y484544D01*
X251137Y486490D01*
X264883Y486490D01*
X264883Y484544D01*
D17*
X299108Y537904D03*
X299108Y526904D03*
D13*
X354603Y515930D03*
X348103Y515930D03*
D14*
X197338Y441773D03*
X197338Y448273D03*
X197990Y455438D03*
X197990Y461938D03*
X181963Y470226D03*
X181963Y476726D03*
X179735Y497872D03*
X179735Y491372D03*
X179862Y505083D03*
X179862Y511583D03*
X173911Y524237D03*
X173911Y517737D03*
X181432Y536106D03*
X181432Y529606D03*
X180607Y549027D03*
X180607Y542527D03*
D18*
X288958Y451665D03*
X220958Y451665D03*
D14*
X375252Y523368D03*
X375252Y529868D03*
X290177Y559180D03*
X290177Y552680D03*
X310053Y554798D03*
X310053Y548298D03*
D13*
X310996Y531952D03*
X317496Y531952D03*
X242927Y456776D03*
X249427Y456776D03*
D19*
X195463Y611561D03*
X178133Y611561D03*
D17*
X325605Y531968D03*
X325605Y520968D03*
X315275Y489564D03*
X315275Y500564D03*
D20*
X268685Y540537D03*
X279685Y540537D03*
D21*
X88595Y454251D03*
X147595Y454251D03*
X88595Y466951D03*
X147595Y466951D03*
X88595Y479651D03*
X147595Y479651D03*
X88595Y492351D03*
X147595Y492351D03*
X88595Y505051D03*
X147595Y505051D03*
X88595Y517751D03*
X147595Y517751D03*
X88595Y530451D03*
X147595Y530451D03*
X88595Y543151D03*
X147595Y543151D03*
D22*
X118836Y435148D03*
M02*
